<?xml version="1.0" encoding="UTF-8"?>
<!DOCTYPE svg PUBLIC "-//W3C//DTD SVG 1.1//EN" "http://www.w3.org/Graphics/SVG/1.1/DTD/svg11.dtd">
<svg xmlns="http://www.w3.org/2000/svg" version="1.1" width="1024px" height="1024px" style="shape-rendering:geometricPrecision; text-rendering:geometricPrecision; image-rendering:optimizeQuality; fill-rule:evenodd; clip-rule:evenodd" xmlns:xlink="http://www.w3.org/1999/xlink">
<g><path style="opacity:0.004" fill="#5b605e" d="M 259.5,141.5 C 260.833,142.167 260.833,142.167 259.5,141.5 Z"/></g>
<g><path style="opacity:0.004" fill="#269d9b" d="M 594.5,279.5 C 595.833,280.167 595.833,280.167 594.5,279.5 Z"/></g>
<g><path style="opacity:0.998" fill="#1ba09e" d="M 603.5,415.5 C 604.833,416.5 604.833,417.5 603.5,418.5C 645.761,419.5 688.761,419.833 732.5,419.5C 736.577,421.086 739.077,424.086 740,428.5C 740.667,483.5 740.667,538.5 740,593.5C 739.667,594.833 739.333,596.167 739,597.5C 738.333,598.833 737.667,598.833 737,597.5C 736.51,598.793 736.343,600.127 736.5,601.5C 735.078,601.709 733.745,602.209 732.5,603C 689.167,603.333 645.833,603.667 602.5,604C 644.832,604.5 687.165,604.667 729.5,604.5C 687.669,605.333 645.669,605.833 603.5,606C 606.097,606.779 606.097,607.279 603.5,607.5C 602.667,647.998 602.167,688.665 602,729.5C 601.631,736.202 598.131,740.036 591.5,741C 537.833,741.667 484.167,741.667 430.5,741C 428.482,740.495 426.482,739.995 424.5,739.5C 423.5,739.167 422.833,738.5 422.5,737.5C 421.394,734.946 420.561,732.279 420,729.5C 419.5,687.501 419.333,645.501 419.5,603.5C 376.165,603.667 332.832,603.5 289.5,603C 286.272,601.437 284.105,598.937 283,595.5C 282.333,539.5 282.333,483.5 283,427.5C 284.167,423.667 286.667,421.167 290.5,420C 333.904,419.836 376.571,419.336 418.5,418.5C 418.5,418.167 418.5,417.833 418.5,417.5C 419.333,376.335 419.833,335.002 420,293.5C 420.662,291.187 421.162,288.854 421.5,286.5C 423.465,284.512 425.798,283.012 428.5,282C 483.5,281.333 538.5,281.333 593.5,282C 597.667,283.5 600.5,286.333 602,290.5C 602.167,332.335 602.667,374.002 603.5,415.5 Z"/></g>
<g><path style="opacity:0.004" fill="#309694" d="M 419.5,284.5 C 420.833,285.167 420.833,285.167 419.5,284.5 Z"/></g>
<g><path style="opacity:0.675" fill="#198684" d="M 594.5,280.5 C 598.479,282.315 601.312,285.315 603,289.5C 603.5,331.499 603.667,373.499 603.5,415.5C 602.667,374.002 602.167,332.335 602,290.5C 600.5,286.333 597.667,283.5 593.5,282C 538.5,281.333 483.5,281.333 428.5,282C 425.798,283.012 423.465,284.512 421.5,286.5C 421.511,284.983 422.177,283.816 423.5,283C 426.513,281.335 429.68,280.168 433,279.5C 486.309,279.174 540.143,279.507 594.5,280.5 Z"/></g>
<g><path style="opacity:0.004" fill="#46736f" d="M 275.5,333.5 C 276.833,334.167 276.833,334.167 275.5,333.5 Z"/></g>
<g><path style="opacity:0.004" fill="#55605e" d="M 883.5,349.5 C 884.833,350.167 884.833,350.167 883.5,349.5 Z"/></g>
<g><path style="opacity:0.997" fill="#fcfefe" d="M 508.5,367.5 C 511.414,368.906 513.914,370.906 516,373.5C 518.467,379.734 520.633,386.067 522.5,392.5C 522.328,393.492 522.662,394.158 523.5,394.5C 524.63,399.224 525.964,403.891 527.5,408.5C 527.328,409.492 527.662,410.158 528.5,410.5C 531.011,419.545 533.678,428.545 536.5,437.5C 546.209,469.693 556.209,501.693 566.5,533.5C 567.356,537.57 568.523,541.57 570,545.5C 573.804,535.255 577.304,524.921 580.5,514.5C 581.338,514.158 581.672,513.492 581.5,512.5C 585.434,502.697 588.768,492.697 591.5,482.5C 593.892,478.044 596.058,473.377 598,468.5C 604.251,461.989 611.418,460.823 619.5,465C 622.414,468.4 625.08,471.9 627.5,475.5C 630.497,482.838 634.497,489.505 639.5,495.5C 640.401,497.727 642.067,498.727 644.5,498.5C 659.572,498.049 674.572,498.549 689.5,500C 695.364,503.566 697.53,508.733 696,515.5C 694.86,520.64 691.694,523.807 686.5,525C 667.833,525.667 649.167,525.667 630.5,525C 626.532,524.036 623.365,521.869 621,518.5C 618.319,513.801 615.653,509.135 613,504.5C 610.863,509.745 609.03,515.078 607.5,520.5C 606.662,520.842 606.328,521.508 606.5,522.5C 598.365,545.572 590.032,568.572 581.5,591.5C 572.471,598.4 563.971,597.733 556,589.5C 550.199,572.597 544.699,555.597 539.5,538.5C 539.672,537.508 539.338,536.842 538.5,536.5C 533.702,520.107 528.702,503.774 523.5,487.5C 521.669,481.341 519.669,475.341 517.5,469.5C 514.232,457.364 510.566,445.364 506.5,433.5C 506.672,432.508 506.338,431.842 505.5,431.5C 504.907,428.055 503.907,424.721 502.5,421.5C 491.903,452.791 481.403,484.124 471,515.5C 468.993,520.838 465.159,524.004 459.5,525C 418.501,525.5 377.501,525.667 336.5,525.5C 327.271,521.36 324.271,514.36 327.5,504.5C 329.736,502.107 332.403,500.273 335.5,499C 372.833,498.667 410.167,498.333 447.5,498C 455.67,475.657 463.337,453.157 470.5,430.5C 471.612,428.401 472.279,426.067 472.5,423.5C 475.602,417.198 477.936,410.531 479.5,403.5C 483.206,393.227 487.039,382.893 491,372.5C 495.764,367.078 501.598,365.412 508.5,367.5 Z"/></g>
<g><path style="opacity:0.99" fill="#157a7a" d="M 508.5,367.5 C 509.721,366.535 511.054,366.702 512.5,368C 514,369.5 515.5,371 517,372.5C 519.36,378.58 521.527,384.747 523.5,391C 523.43,391.765 523.097,392.265 522.5,392.5C 520.633,386.067 518.467,379.734 516,373.5C 513.914,370.906 511.414,368.906 508.5,367.5 Z"/></g>
<g><path style="opacity:0.008" fill="#27a4a1" d="M 416.5,378.5 C 417.833,379.167 417.833,379.167 416.5,378.5 Z"/></g>
<g><path style="opacity:0.513" fill="#1a807f" d="M 421.5,286.5 C 421.162,288.854 420.662,291.187 420,293.5C 419.833,335.002 419.333,376.335 418.5,417.5C 418.501,394.449 418.168,371.616 417.5,349C 418.327,329.573 418.827,310.073 419,290.5C 419.2,288.68 420.034,287.347 421.5,286.5 Z"/></g>
<g><path style="opacity:0.996" fill="#137576" d="M 527.5,408.5 C 525.964,403.891 524.63,399.224 523.5,394.5C 523.435,394.062 523.601,393.728 524,393.5C 525.496,397.989 526.996,402.489 528.5,407C 528.43,407.765 528.097,408.265 527.5,408.5 Z"/></g>
<g><path style="opacity:1" fill="#1e7d7e" d="M 479.5,403.5 C 477.936,410.531 475.602,417.198 472.5,423.5C 473.955,416.301 476.121,409.301 479,402.5C 479.399,402.728 479.565,403.062 479.5,403.5 Z"/></g>
<g><path style="opacity:0.004" fill="#2d9c9b" d="M 294.5,415.5 C 295.833,416.167 295.833,416.167 294.5,415.5 Z"/></g>
<g><path style="opacity:0.004" fill="#2ca09b" d="M 716.5,415.5 C 717.833,416.167 717.833,416.167 716.5,415.5 Z"/></g>
<g><path style="opacity:0.004" fill="#2ba6a2" d="M 309.5,416.5 C 310.833,417.167 310.833,417.167 309.5,416.5 Z"/></g>
<g><path style="opacity:0.004" fill="#2ca6a1" d="M 326.5,416.5 C 327.833,417.167 327.833,417.167 326.5,416.5 Z"/></g>
<g><path style="opacity:0.004" fill="#2ba6a3" d="M 334.5,416.5 C 335.833,417.167 335.833,417.167 334.5,416.5 Z"/></g>
<g><path style="opacity:0.008" fill="#2aa6a2" d="M 342.5,416.5 C 343.833,417.167 343.833,417.167 342.5,416.5 Z"/></g>
<g><path style="opacity:0.004" fill="#2da9a4" d="M 356.5,416.5 C 357.833,417.167 357.833,417.167 356.5,416.5 Z"/></g>
<g><path style="opacity:0.004" fill="#2aa8a3" d="M 361.5,416.5 C 362.833,417.167 362.833,417.167 361.5,416.5 Z"/></g>
<g><path style="opacity:0.004" fill="#2ba9a4" d="M 366.5,416.5 C 367.833,417.167 367.833,417.167 366.5,416.5 Z"/></g>
<g><path style="opacity:0.004" fill="#2baba5" d="M 398.5,416.5 C 399.833,417.167 399.833,417.167 398.5,416.5 Z"/></g>
<g><path style="opacity:0.004" fill="#28aaa5" d="M 609.5,416.5 C 610.833,417.167 610.833,417.167 609.5,416.5 Z"/></g>
<g><path style="opacity:0.004" fill="#2ba7a4" d="M 662.5,416.5 C 663.833,417.167 663.833,417.167 662.5,416.5 Z"/></g>
<g><path style="opacity:0.004" fill="#2ba7a1" d="M 679.5,417.5 C 678.833,416.167 678.833,416.167 679.5,417.5 Z"/></g>
<g><path style="opacity:0.004" fill="#29a6a3" d="M 697.5,416.5 C 698.833,417.167 698.833,417.167 697.5,416.5 Z"/></g>
<g><path style="opacity:0.004" fill="#29a6a0" d="M 702.5,416.5 C 703.833,417.167 703.833,417.167 702.5,416.5 Z"/></g>
<g><path style="opacity:0.008" fill="#29a4a0" d="M 708.5,416.5 C 709.833,417.167 709.833,417.167 708.5,416.5 Z"/></g>
<g><path style="opacity:0.012" fill="#2aa49e" d="M 710.5,416.5 C 711.833,417.167 711.833,417.167 710.5,416.5 Z"/></g>
<g><path style="opacity:0.004" fill="#309494" d="M 286.5,417.5 C 287.833,418.167 287.833,418.167 286.5,417.5 Z"/></g>
<g><path style="opacity:0.992" fill="#137778" d="M 536.5,437.5 C 533.678,428.545 531.011,419.545 528.5,410.5C 528.435,410.062 528.601,409.728 529,409.5C 532.031,418.261 534.865,427.094 537.5,436C 537.43,436.765 537.097,437.265 536.5,437.5 Z"/></g>
<g><path style="opacity:0.959" fill="#065b59" d="M 679.5,417.5 C 696.771,418.171 714.438,418.504 732.5,418.5C 732.5,418.833 732.5,419.167 732.5,419.5C 688.761,419.833 645.761,419.5 603.5,418.5C 629.148,418.518 654.481,418.184 679.5,417.5 Z"/></g>
<g><path style="opacity:0.008" fill="#2f9894" d="M 284.5,421.5 C 283.833,420.167 283.833,420.167 284.5,421.5 Z"/></g>
<g><path style="opacity:0.992" fill="#0a7070" d="M 505.5,431.5 C 503.957,430.918 503.124,429.251 503,426.5C 492.554,454.502 482.888,482.836 474,511.5C 472.674,518.823 468.508,523.656 461.5,526C 419.665,526.831 377.998,526.665 336.5,525.5C 377.501,525.667 418.501,525.5 459.5,525C 465.159,524.004 468.993,520.838 471,515.5C 481.403,484.124 491.903,452.791 502.5,421.5C 503.907,424.721 504.907,428.055 505.5,431.5 Z"/></g>
<g><path style="opacity:0.996" fill="#198383" d="M 506.5,433.5 C 510.566,445.364 514.232,457.364 517.5,469.5C 517.565,469.938 517.399,470.272 517,470.5C 515.154,464.784 513.154,459.117 511,453.5C 510.667,454.167 510.333,454.833 510,455.5C 508.813,453.956 508.48,452.289 509,450.5C 509.556,452.595 510.056,452.762 510.5,451C 509.063,445.751 507.397,440.584 505.5,435.5C 505.543,434.584 505.876,433.917 506.5,433.5 Z"/></g>
<g><path style="opacity:1" fill="#177a79" d="M 627.5,475.5 C 632,481.827 636,488.494 639.5,495.5C 634.497,489.505 630.497,482.838 627.5,475.5 Z"/></g>
<g><path style="opacity:0.996" fill="#188a8b" d="M 591.5,482.5 C 588.768,492.697 585.434,502.697 581.5,512.5C 580.957,512.44 580.624,512.107 580.5,511.5C 582.742,506.288 584.242,500.954 585,495.5C 583.997,497.935 583.497,497.602 583.5,494.5C 583.79,492.956 584.456,491.623 585.5,490.5C 584.391,489.035 584.891,488.035 587,487.5C 586.805,489.126 586.805,490.793 587,492.5C 588.232,488.939 589.732,485.606 591.5,482.5 Z"/></g>
<g><path style="opacity:0.995" fill="#097677" d="M 470.5,430.5 C 463.337,453.157 455.67,475.657 447.5,498C 410.167,498.333 372.833,498.667 335.5,499C 332.403,500.273 329.736,502.107 327.5,504.5C 328.658,501.178 330.992,499.012 334.5,498C 371.833,497.667 409.167,497.333 446.5,497C 454.518,474.614 462.352,452.114 470,429.5C 470.399,429.728 470.565,430.062 470.5,430.5 Z"/></g>
<g><path style="opacity:1" fill="#0f7777" d="M 644.5,498.5 C 658.994,497.339 673.661,497.172 688.5,498C 699.331,504.495 700.998,512.829 693.5,523C 691.5,524 689.5,525 687.5,526C 668.167,526.667 648.833,526.667 629.5,526C 623.417,523.585 618.917,519.418 616,513.5C 615.667,514.167 615.333,514.833 615,515.5C 613.415,514.624 612.415,513.291 612,511.5C 611.241,515.569 609.741,518.569 607.5,520.5C 609.03,515.078 610.863,509.745 613,504.5C 615.653,509.135 618.319,513.801 621,518.5C 623.365,521.869 626.532,524.036 630.5,525C 649.167,525.667 667.833,525.667 686.5,525C 691.694,523.807 694.86,520.64 696,515.5C 697.53,508.733 695.364,503.566 689.5,500C 674.572,498.549 659.572,498.049 644.5,498.5 Z"/></g>
<g><path style="opacity:1" fill="#127677" d="M 580.5,514.5 C 577.304,524.921 573.804,535.255 570,545.5C 568.523,541.57 567.356,537.57 566.5,533.5C 568.181,535.244 569.347,537.911 570,541.5C 572.939,532.015 576.273,522.681 580,513.5C 580.399,513.728 580.565,514.062 580.5,514.5 Z"/></g>
<g><path style="opacity:0.98" fill="#137d7a" d="M 732.5,418.5 C 734.861,419.435 737.028,420.768 739,422.5C 740.899,426.443 742.066,430.609 742.5,435C 742.535,465.407 742.201,495.907 741.5,526.5C 741.5,531.167 741.5,535.833 741.5,540.5C 742.181,556.57 742.514,572.07 742.5,587C 741.712,590.076 741.212,593.242 741,596.5C 740.004,598.66 738.504,600.327 736.5,601.5C 736.343,600.127 736.51,598.793 737,597.5C 737.667,598.833 738.333,598.833 739,597.5C 739.333,596.167 739.667,594.833 740,593.5C 740.667,538.5 740.667,483.5 740,428.5C 739.077,424.086 736.577,421.086 732.5,419.5C 732.5,419.167 732.5,418.833 732.5,418.5 Z"/></g>
<g><path style="opacity:0.992" fill="#187a7a" d="M 606.5,522.5 C 607.097,522.735 607.43,523.235 607.5,524C 600.333,544.167 593.167,564.333 586,584.5C 584.974,587.239 583.474,589.572 581.5,591.5C 590.032,568.572 598.365,545.572 606.5,522.5 Z"/></g>
<g><path style="opacity:0.992" fill="#167a7b" d="M 523.5,487.5 C 528.702,503.774 533.702,520.107 538.5,536.5C 538.565,536.938 538.399,537.272 538,537.5C 532.437,521.478 527.271,505.312 522.5,489C 522.57,488.235 522.903,487.735 523.5,487.5 Z"/></g>
<g><path style="opacity:0.01" fill="#29aaa8" d="M 741.5,526.5 C 742.224,528.218 742.891,530.052 743.5,532C 742.872,534.939 742.205,537.772 741.5,540.5C 741.5,535.833 741.5,531.167 741.5,526.5 Z"/></g>
<g><path style="opacity:0.996" fill="#187b7b" d="M 539.5,538.5 C 544.699,555.597 550.199,572.597 556,589.5C 563.971,597.733 572.471,598.4 581.5,591.5C 577.26,597.093 571.593,598.926 564.5,597C 560.726,595.698 557.559,593.531 555,590.5C 548.903,573.875 543.403,557.042 538.5,540C 538.57,539.235 538.903,538.735 539.5,538.5 Z"/></g>
<g><path style="opacity:0.025" fill="#27a19f" d="M 281.5,430.5 C 281.5,484.167 281.5,537.833 281.5,591.5C 280.83,554.764 280.164,517.931 279.5,481C 280.16,464.069 280.827,447.235 281.5,430.5 Z"/></g>
<g><path style="opacity:0.987" fill="#137977" d="M 418.5,418.5 C 376.571,419.336 333.904,419.836 290.5,420C 286.667,421.167 284.167,423.667 283,427.5C 282.333,483.5 282.333,539.5 283,595.5C 284.105,598.937 286.272,601.437 289.5,603C 332.832,603.5 376.165,603.667 419.5,603.5C 419.333,645.501 419.5,687.501 420,729.5C 420.561,732.279 421.394,734.946 422.5,737.5C 420.926,736.016 419.593,734.349 418.5,732.5C 418.5,690.167 418.5,647.833 418.5,605.5C 376.499,605.667 334.499,605.5 292.5,605C 284.997,603.661 281.33,599.161 281.5,591.5C 281.5,537.833 281.5,484.167 281.5,430.5C 281.647,427.208 282.647,424.208 284.5,421.5C 286.14,420.68 287.807,419.847 289.5,419C 332.499,418.5 375.499,418.333 418.5,418.5 Z"/></g>
<g><path style="opacity:0.988" fill="#0e7371" d="M 736.5,601.5 C 734.824,603.834 732.491,604.834 729.5,604.5C 687.165,604.667 644.832,604.5 602.5,604C 645.833,603.667 689.167,603.333 732.5,603C 733.745,602.209 735.078,601.709 736.5,601.5 Z"/></g>
<g><path style="opacity:0.012" fill="#2a9d9a" d="M 290.5,605.5 C 291.833,606.167 291.833,606.167 290.5,605.5 Z"/></g>
<g><path style="opacity:0.004" fill="#2a9c96" d="M 731.5,605.5 C 732.833,606.167 732.833,606.167 731.5,605.5 Z"/></g>
<g><path style="opacity:0.008" fill="#29a19e" d="M 295.5,606.5 C 296.833,607.167 296.833,607.167 295.5,606.5 Z"/></g>
<g><path style="opacity:0.008" fill="#2a9f9d" d="M 300.5,606.5 C 301.833,607.167 301.833,607.167 300.5,606.5 Z"/></g>
<g><path style="opacity:0.004" fill="#27a29f" d="M 303.5,606.5 C 304.833,607.167 304.833,607.167 303.5,606.5 Z"/></g>
<g><path style="opacity:0.008" fill="#2aa09e" d="M 308.5,606.5 C 309.833,607.167 309.833,607.167 308.5,606.5 Z"/></g>
<g><path style="opacity:0.004" fill="#29a39f" d="M 311.5,606.5 C 312.833,607.167 312.833,607.167 311.5,606.5 Z"/></g>
<g><path style="opacity:0.004" fill="#2ca19e" d="M 316.5,606.5 C 317.833,607.167 317.833,607.167 316.5,606.5 Z"/></g>
<g><path style="opacity:0.004" fill="#28a1a1" d="M 322.5,606.5 C 323.833,607.167 323.833,607.167 322.5,606.5 Z"/></g>
<g><path style="opacity:0.004" fill="#27a3a1" d="M 324.5,606.5 C 325.833,607.167 325.833,607.167 324.5,606.5 Z"/></g>
<g><path style="opacity:0.008" fill="#28a4a0" d="M 327.5,606.5 C 328.833,607.167 328.833,607.167 327.5,606.5 Z"/></g>
<g><path style="opacity:0.008" fill="#29a39f" d="M 331.5,606.5 C 332.833,607.167 332.833,607.167 331.5,606.5 Z"/></g>
<g><path style="opacity:0.008" fill="#29a2a2" d="M 335.5,606.5 C 336.833,607.167 336.833,607.167 335.5,606.5 Z"/></g>
<g><path style="opacity:0.006" fill="#29a1a1" d="M 339.5,607.5 C 339.897,606.475 340.563,606.308 341.5,607C 340.906,607.464 340.239,607.631 339.5,607.5 Z"/></g>
<g><path style="opacity:0.004" fill="#29a2a1" d="M 348.5,606.5 C 349.833,607.167 349.833,607.167 348.5,606.5 Z"/></g>
<g><path style="opacity:0.006" fill="#28a3a3" d="M 351.5,607.5 C 351.897,606.475 352.563,606.308 353.5,607C 352.906,607.464 352.239,607.631 351.5,607.5 Z"/></g>
<g><path style="opacity:0.004" fill="#29a2a1" d="M 355.5,606.5 C 356.833,607.167 356.833,607.167 355.5,606.5 Z"/></g>
<g><path style="opacity:0.004" fill="#27a0a2" d="M 360.5,606.5 C 361.833,607.167 361.833,607.167 360.5,606.5 Z"/></g>
<g><path style="opacity:0.012" fill="#2aa2a3" d="M 363.5,607.5 C 363.897,606.475 364.563,606.308 365.5,607C 364.906,607.464 364.239,607.631 363.5,607.5 Z"/></g>
<g><path style="opacity:0.004" fill="#29a3a3" d="M 367.5,606.5 C 368.833,607.167 368.833,607.167 367.5,606.5 Z"/></g>
<g><path style="opacity:0.012" fill="#27a3a1" d="M 375.5,606.5 C 376.833,607.167 376.833,607.167 375.5,606.5 Z"/></g>
<g><path style="opacity:0.004" fill="#28a5a0" d="M 381.5,606.5 C 382.833,607.167 382.833,607.167 381.5,606.5 Z"/></g>
<g><path style="opacity:0.008" fill="#28a4a1" d="M 387.5,607.5 C 387.897,606.475 388.563,606.308 389.5,607C 388.906,607.464 388.239,607.631 387.5,607.5 Z"/></g>
<g><path style="opacity:0.004" fill="#29a4a1" d="M 404.5,606.5 C 405.833,607.167 405.833,607.167 404.5,606.5 Z"/></g>
<g><path style="opacity:0.004" fill="#27a5a4" d="M 411.5,607.5 C 411.897,606.475 412.563,606.308 413.5,607C 412.906,607.464 412.239,607.631 411.5,607.5 Z"/></g>
<g><path style="opacity:0.02" fill="#26a29d" d="M 415.5,607.5 C 415.897,606.475 416.563,606.308 417.5,607C 416.906,607.464 416.239,607.631 415.5,607.5 Z"/></g>
<g><path style="opacity:0.008" fill="#2ba5a5" d="M 607.5,606.5 C 608.833,607.167 608.833,607.167 607.5,606.5 Z"/></g>
<g><path style="opacity:0.004" fill="#2aa5a4" d="M 612.5,606.5 C 613.833,607.167 613.833,607.167 612.5,606.5 Z"/></g>
<g><path style="opacity:0.004" fill="#29a7a3" d="M 615.5,606.5 C 616.833,607.167 616.833,607.167 615.5,606.5 Z"/></g>
<g><path style="opacity:0.008" fill="#29a5a4" d="M 631.5,606.5 C 632.833,607.167 632.833,607.167 631.5,606.5 Z"/></g>
<g><path style="opacity:0.004" fill="#2aa4a3" d="M 636.5,606.5 C 637.833,607.167 637.833,607.167 636.5,606.5 Z"/></g>
<g><path style="opacity:0.004" fill="#2aa3a2" d="M 639.5,606.5 C 640.833,607.167 640.833,607.167 639.5,606.5 Z"/></g>
<g><path style="opacity:0.004" fill="#28a4a3" d="M 644.5,607.5 C 644.897,606.475 645.563,606.308 646.5,607C 645.906,607.464 645.239,607.631 644.5,607.5 Z"/></g>
<g><path style="opacity:0.006" fill="#27a3a2" d="M 647.5,607.5 C 647.897,606.475 648.563,606.308 649.5,607C 648.906,607.464 648.239,607.631 647.5,607.5 Z"/></g>
<g><path style="opacity:0.004" fill="#27a5a0" d="M 651.5,606.5 C 652.833,607.167 652.833,607.167 651.5,606.5 Z"/></g>
<g><path style="opacity:0.004" fill="#28a4a2" d="M 655.5,606.5 C 656.833,607.167 656.833,607.167 655.5,606.5 Z"/></g>
<g><path style="opacity:0.004" fill="#2aa5a0" d="M 660.5,606.5 C 661.833,607.167 661.833,607.167 660.5,606.5 Z"/></g>
<g><path style="opacity:0.004" fill="#27a4a3" d="M 664.5,607.5 C 664.897,606.475 665.563,606.308 666.5,607C 665.906,607.464 665.239,607.631 664.5,607.5 Z"/></g>
<g><path style="opacity:0.012" fill="#29a69e" d="M 668.5,606.5 C 669.833,607.167 669.833,607.167 668.5,606.5 Z"/></g>
<g><path style="opacity:0.008" fill="#29a4a2" d="M 671.5,606.5 C 672.833,607.167 672.833,607.167 671.5,606.5 Z"/></g>
<g><path style="opacity:0.008" fill="#29a4a3" d="M 675.5,607.5 C 675.897,606.475 676.563,606.308 677.5,607C 676.906,607.464 676.239,607.631 675.5,607.5 Z"/></g>
<g><path style="opacity:0.004" fill="#26a0a3" d="M 679.5,607.5 C 679.897,606.475 680.563,606.308 681.5,607C 680.906,607.464 680.239,607.631 679.5,607.5 Z"/></g>
<g><path style="opacity:0.008" fill="#27a1a1" d="M 683.5,607.5 C 684.251,606.427 685.251,606.26 686.5,607C 685.552,607.483 684.552,607.649 683.5,607.5 Z"/></g>
<g><path style="opacity:0.008" fill="#29a3a0" d="M 687.5,606.5 C 688.833,607.167 688.833,607.167 687.5,606.5 Z"/></g>
<g><path style="opacity:0.004" fill="#29a0a0" d="M 691.5,607.5 C 691.897,606.475 692.563,606.308 693.5,607C 692.906,607.464 692.239,607.631 691.5,607.5 Z"/></g>
<g><path style="opacity:0.004" fill="#27a3a1" d="M 695.5,606.5 C 696.833,607.167 696.833,607.167 695.5,606.5 Z"/></g>
<g><path style="opacity:0.008" fill="#2aa09e" d="M 700.5,606.5 C 701.833,607.167 701.833,607.167 700.5,606.5 Z"/></g>
<g><path style="opacity:0.008" fill="#28a2a2" d="M 703.5,606.5 C 704.833,607.167 704.833,607.167 703.5,606.5 Z"/></g>
<g><path style="opacity:0.007" fill="#299f9e" d="M 707.5,607.5 C 708.251,606.427 709.251,606.26 710.5,607C 709.552,607.483 708.552,607.649 707.5,607.5 Z"/></g>
<g><path style="opacity:0.004" fill="#289e9e" d="M 723.5,606.5 C 724.833,607.167 724.833,607.167 723.5,606.5 Z"/></g>
<g><path style="opacity:0.004" fill="#26a39f" d="M 416.5,652.5 C 417.833,653.167 417.833,653.167 416.5,652.5 Z"/></g>
<g><path style="opacity:0.004" fill="#269f9c" d="M 416.5,687.5 C 417.833,688.167 417.833,688.167 416.5,687.5 Z"/></g>
<g><path style="opacity:0.004" fill="#27a09d" d="M 416.5,690.5 C 417.833,691.167 417.833,691.167 416.5,690.5 Z"/></g>
<g><path style="opacity:0.004" fill="#279f9b" d="M 416.5,695.5 C 417.833,696.167 417.833,696.167 416.5,695.5 Z"/></g>
<g><path style="opacity:0.004" fill="#289894" d="M 416.5,727.5 C 417.833,728.167 417.833,728.167 416.5,727.5 Z"/></g>
<g><path style="opacity:0.004" fill="#289795" d="M 418.5,732.5 C 417.833,733.167 417.833,733.167 418.5,732.5 Z"/></g>
<g><path style="opacity:0.004" fill="#289797" d="M 603.5,734.5 C 604.833,735.167 604.833,735.167 603.5,734.5 Z"/></g>
<g><path style="opacity:0.725" fill="#167e7e" d="M 603.5,607.5 C 603.667,649.501 603.5,691.501 603,733.5C 601.5,737.667 598.667,740.5 594.5,742C 538.833,742.667 483.167,742.667 427.5,742C 426.058,741.623 425.058,740.79 424.5,739.5C 426.482,739.995 428.482,740.495 430.5,741C 484.167,741.667 537.833,741.667 591.5,741C 598.131,740.036 601.631,736.202 602,729.5C 602.167,688.665 602.667,647.998 603.5,607.5 Z"/></g>
<g><path style="opacity:0.004" fill="#525855" d="M 307.5,933.5 C 308.833,934.167 308.833,934.167 307.5,933.5 Z"/></g>
</svg>
