<?xml version="1.0" encoding="UTF-8"?>
<!DOCTYPE svg PUBLIC "-//W3C//DTD SVG 1.1//EN" "http://www.w3.org/Graphics/SVG/1.1/DTD/svg11.dtd">
<svg xmlns="http://www.w3.org/2000/svg" version="1.1" width="1024px" height="1024px" style="shape-rendering:geometricPrecision; text-rendering:geometricPrecision; image-rendering:optimizeQuality; fill-rule:evenodd; clip-rule:evenodd" xmlns:xlink="http://www.w3.org/1999/xlink">
<g><path style="opacity:0.01" fill="#238c87" d="M 240.5,160.5 C 240.897,159.475 241.563,159.308 242.5,160C 241.906,160.464 241.239,160.631 240.5,160.5 Z"/></g>
<g><path style="opacity:0.004" fill="#228b83" d="M 243.5,159.5 C 244.833,160.167 244.833,160.167 243.5,159.5 Z"/></g>
<g><path style="opacity:0.008" fill="#208a81" d="M 245.5,159.5 C 246.833,160.167 246.833,160.167 245.5,159.5 Z"/></g>
<g><path style="opacity:0.004" fill="#218e87" d="M 258.5,159.5 C 259.833,160.167 259.833,160.167 258.5,159.5 Z"/></g>
<g><path style="opacity:0.004" fill="#218981" d="M 261.5,159.5 C 262.833,160.167 262.833,160.167 261.5,159.5 Z"/></g>
<g><path style="opacity:0.016" fill="#248a86" d="M 264.5,159.5 C 265.833,160.167 265.833,160.167 264.5,159.5 Z"/></g>
<g><path style="opacity:0.005" fill="#238d86" d="M 719.5,160.5 C 720.251,159.427 721.251,159.26 722.5,160C 721.552,160.483 720.552,160.649 719.5,160.5 Z"/></g>
<g><path style="opacity:0.004" fill="#218982" d="M 726.5,160.5 C 725.833,159.167 725.833,159.167 726.5,160.5 Z"/></g>
<g><path style="opacity:0.004" fill="#248b86" d="M 742.5,160.5 C 742.897,159.475 743.563,159.308 744.5,160C 743.906,160.464 743.239,160.631 742.5,160.5 Z"/></g>
<g><path style="opacity:0.057" fill="#259793" d="M 258.5,160.5 C 258.5,160.833 258.5,161.167 258.5,161.5C 254.833,161.5 251.167,161.5 247.5,161.5C 248.172,160.733 249.005,160.066 250,159.5C 253.169,159.506 256.002,159.84 258.5,160.5 Z"/></g>
<g><path style="opacity:0.098" fill="#269993" d="M 739.5,161.5 C 735.167,161.5 730.833,161.5 726.5,161.5C 726.5,161.167 726.5,160.833 726.5,160.5C 730.611,160.625 734.778,160.291 739,159.5C 739.464,160.094 739.631,160.761 739.5,161.5 Z"/></g>
<g><path style="opacity:0.979" fill="#135245" d="M 243.5,162.5 C 243.5,162.167 243.5,161.833 243.5,161.5C 244.833,161.5 246.167,161.5 247.5,161.5C 251.167,161.5 254.833,161.5 258.5,161.5C 261.902,161.342 265.236,161.676 268.5,162.5C 260.368,162.687 252.035,162.687 243.5,162.5 Z"/></g>
<g><path style="opacity:0.004" fill="#228781" d="M 225.5,162.5 C 226.525,162.897 226.692,163.563 226,164.5C 225.536,163.906 225.369,163.239 225.5,162.5 Z"/></g>
<g><path style="opacity:0.004" fill="#248b85" d="M 757.5,162.5 C 758.833,163.167 758.833,163.167 757.5,162.5 Z"/></g>
<g><path style="opacity:0.998" fill="#22948d" d="M 243.5,162.5 C 252.035,162.687 260.368,162.687 268.5,162.5C 269.791,162.263 270.791,162.596 271.5,163.5C 300.152,174.303 320.985,194.969 334,225.5C 341.66,241.823 347.326,258.823 351,276.5C 351.69,277.738 352.19,277.738 352.5,276.5C 353.338,276.842 353.672,277.508 353.5,278.5C 365.753,338.923 402.253,375.923 463,389.5C 464.07,389.472 464.903,389.139 465.5,388.5C 466.791,388.263 467.791,388.596 468.5,389.5C 467.761,389.369 467.094,389.536 466.5,390C 469.529,390.539 472.529,391.206 475.5,392C 491.615,393.671 498.948,393.504 497.5,391.5C 502.779,391.107 507.946,390.107 513,388.5C 514.699,389.406 516.533,389.739 518.5,389.5C 519.097,390.139 519.93,390.472 521,390.5C 526.415,389.889 530.915,388.555 534.5,386.5C 534.842,385.662 535.508,385.328 536.5,385.5C 536.917,386.124 537.584,386.457 538.5,386.5C 577.442,374.392 605.276,349.726 622,312.5C 628.236,296.552 633.069,280.218 636.5,263.5C 643.714,237.739 655.214,214.073 671,192.5C 690.033,170.317 714.2,160.317 743.5,162.5C 770.999,168.133 792.499,182.8 808,206.5C 826.201,235.09 838.534,266.09 845,299.5C 850.536,327.228 853.703,355.228 854.5,383.5C 854.5,398.5 854.5,413.5 854.5,428.5C 853.385,449.215 851.718,469.881 849.5,490.5C 849.27,495.122 847.27,498.956 843.5,502C 841.5,502.667 839.5,502.667 837.5,502C 829.971,493.105 822.805,483.939 816,474.5C 814.663,470.974 814.163,467.308 814.5,463.5C 815.833,460.167 815.833,456.833 814.5,453.5C 814.8,444.988 815.467,436.655 816.5,428.5C 816.336,431.187 816.503,433.854 817,436.5C 819.577,402.718 818.577,369.051 814,335.5C 813.506,337.134 813.34,338.801 813.5,340.5C 812.539,338.735 812.205,336.735 812.5,334.5C 809.292,300.358 799.458,268.025 783,237.5C 775.54,224.043 765.374,213.21 752.5,205C 735.854,197.395 720.52,199.395 706.5,211C 706.728,211.399 707.062,211.565 707.5,211.5C 707.167,212.5 706.5,213.167 705.5,213.5C 703.336,212.882 701.67,213.882 700.5,216.5C 700.624,217.107 700.957,217.44 701.5,217.5C 701.167,218.5 700.5,219.167 699.5,219.5C 698.671,218.668 697.838,219.001 697,220.5C 691.907,227.68 687.574,235.347 684,243.5C 674.64,272.275 664.973,300.942 655,329.5C 647.843,345.813 638.176,360.48 626,373.5C 625.308,374.437 625.475,375.103 626.5,375.5C 623.833,378.833 620.833,381.833 617.5,384.5C 614.939,384.823 612.606,386.323 610.5,389C 610.728,389.399 611.062,389.565 611.5,389.5C 611.167,390.5 610.5,391.167 609.5,391.5C 609.103,390.475 608.437,390.308 607.5,391C 580.346,412.733 549.346,425.4 514.5,429C 515.448,429.483 516.448,429.649 517.5,429.5C 517.217,430.289 516.717,430.956 516,431.5C 514.644,430.62 513.144,430.286 511.5,430.5C 498.16,429.751 484.66,429.084 471,428.5C 469.293,428.508 467.793,428.842 466.5,429.5C 464.585,429.784 462.919,429.451 461.5,428.5C 462.873,428.657 464.207,428.49 465.5,428C 392.25,415.866 343.917,374.532 320.5,304C 314.514,279.707 306.347,256.207 296,233.5C 289.167,220 279,209.833 265.5,203C 263.059,201.608 260.726,201.441 258.5,202.5C 255.615,202.806 252.948,202.473 250.5,201.5C 256.888,200.524 254.554,200.358 243.5,201C 236.007,202.747 229.34,206.08 223.5,211C 223.728,211.399 224.062,211.565 224.5,211.5C 224.167,212.5 223.5,213.167 222.5,213.5C 222.103,212.475 221.437,212.308 220.5,213C 218,215.5 215.5,218 213,220.5C 212.308,221.437 212.475,222.103 213.5,222.5C 213.167,223.5 212.5,224.167 211.5,224.5C 211.19,223.262 210.69,223.262 210,224.5C 190.638,252.77 179.138,283.77 175.5,317.5C 175.768,319.099 175.434,320.432 174.5,321.5C 174.307,317.551 173.807,317.551 173,321.5C 172.13,328.186 171.13,334.852 170,341.5C 169.192,345.027 169.359,348.36 170.5,351.5C 170.784,353.415 170.451,355.081 169.5,356.5C 169.649,355.448 169.483,354.448 169,353.5C 167.402,360.961 167.236,368.295 168.5,375.5C 168.815,379.371 168.482,383.038 167.5,386.5C 167.665,383.15 167.498,379.817 167,376.5C 165.023,398.499 165.023,420.499 167,442.5C 167.499,438.848 167.665,435.182 167.5,431.5C 168.407,439.999 169.074,448.666 169.5,457.5C 169.13,473.144 170.63,488.811 174,504.5C 174.483,503.552 174.649,502.552 174.5,501.5C 175.434,502.568 175.768,503.901 175.5,505.5C 180.943,548.718 192.109,590.718 209,631.5C 221.943,664.922 241.443,693.756 267.5,718C 278.278,727.223 290.611,733.556 304.5,737C 306.387,737.78 308.054,737.613 309.5,736.5C 315.163,737.494 320.496,737.494 325.5,736.5C 330.694,737.3 335.694,736.133 340.5,733C 355.509,721.169 365.676,706.002 371,687.5C 374.577,676.69 378.077,665.857 381.5,655C 381.43,654.235 381.097,653.735 380.5,653.5C 380.328,652.508 380.662,651.842 381.5,651.5C 385.499,644.62 389.332,636.954 393,628.5C 407.292,605.91 426.459,590.244 450.5,581.5C 450.842,580.662 451.508,580.328 452.5,580.5C 453.097,581.139 453.93,581.472 455,581.5C 462.402,579.516 469.902,578.016 477.5,577C 475.866,576.506 474.199,576.34 472.5,576.5C 474.607,575.532 476.941,575.198 479.5,575.5C 486.833,576.833 494.167,576.833 501.5,575.5C 503.735,575.205 505.735,575.539 507.5,576.5C 506.127,576.343 504.793,576.51 503.5,577C 507.944,578.561 512.277,578.728 516.5,577.5C 518.099,577.232 519.432,577.566 520.5,578.5C 519.448,578.351 518.448,578.517 517.5,579C 531.687,581.838 545.02,586.838 557.5,594C 561.633,597.131 565.466,600.631 569,604.5C 570.885,606.914 571.552,609.581 571,612.5C 567.667,620.5 564.333,628.5 561,636.5C 558.552,639.545 555.719,640.045 552.5,638C 540.863,625.515 526.53,618.348 509.5,616.5C 503.74,615 497.74,614.333 491.5,614.5C 486.365,614.263 483.365,614.597 482.5,615.5C 481.081,616.451 479.415,616.784 477.5,616.5C 462.785,616.805 449.785,621.971 438.5,632C 438.728,632.399 439.062,632.565 439.5,632.5C 438.5,634.167 437.167,635.5 435.5,636.5C 435.565,636.062 435.399,635.728 435,635.5C 428.426,642.087 423.426,649.753 420,658.5C 416.469,668.092 413.136,677.759 410,687.5C 409.235,689.066 409.402,690.399 410.5,691.5C 410.204,693.403 409.537,695.07 408.5,696.5C 408.279,693.903 407.779,693.903 407,696.5C 400.159,719.354 388.326,739.187 371.5,756C 371.728,756.399 372.062,756.565 372.5,756.5C 372.167,757.5 371.5,758.167 370.5,758.5C 370.44,757.957 370.107,757.624 369.5,757.5C 358.919,766.092 346.919,771.925 333.5,775C 334.094,775.464 334.761,775.631 335.5,775.5C 332.411,776.785 329.078,777.451 325.5,777.5C 294.073,776.968 266.406,766.468 242.5,746C 215.476,721.642 194.643,692.809 180,659.5C 166.952,629.691 156.285,599.024 148,567.5C 147.536,568.094 147.369,568.761 147.5,569.5C 144.284,568.831 143.951,567.831 146.5,566.5C 147.124,566.083 147.457,565.416 147.5,564.5C 144.333,549.164 141.166,533.831 138,518.5C 137.517,519.448 137.351,520.448 137.5,521.5C 136.566,520.432 136.232,519.099 136.5,517.5C 137.152,516.551 137.486,515.385 137.5,514C 136.054,504.158 134.554,494.325 133,484.5C 132.51,485.793 132.343,487.127 132.5,488.5C 131.549,487.081 131.216,485.415 131.5,483.5C 132.161,481.866 132.494,480.033 132.5,478C 131.502,469.855 130.836,461.689 130.5,453.5C 130.497,446.467 129.997,439.467 129,432.5C 128.503,435.146 128.336,437.813 128.5,440.5C 127.517,436.702 127.183,432.702 127.5,428.5C 128.495,416.345 128.829,404.011 128.5,391.5C 129.641,373.109 131.308,354.609 133.5,336C 133.492,334.293 133.158,332.793 132.5,331.5C 132.232,329.901 132.566,328.568 133.5,327.5C 133.693,331.449 134.193,331.449 135,327.5C 135.801,324.633 135.634,321.966 134.5,319.5C 134.232,317.901 134.566,316.568 135.5,315.5C 135.351,316.552 135.517,317.552 136,318.5C 137.246,313.017 138.412,307.517 139.5,302C 139.472,300.93 139.139,300.097 138.5,299.5C 138.232,297.901 138.566,296.568 139.5,295.5C 139.693,299.449 140.193,299.449 141,295.5C 144.163,281.345 148.329,267.512 153.5,254C 153.43,253.235 153.097,252.735 152.5,252.5C 152.328,251.508 152.662,250.842 153.5,250.5C 160.239,237.072 167.739,223.405 176,209.5C 187.741,192.089 202.907,178.589 221.5,169C 228.77,166.188 236.104,164.021 243.5,162.5 Z"/></g>
<g><path style="opacity:0.004" fill="#238b81" d="M 704.5,165.5 C 703.833,164.167 703.833,164.167 704.5,165.5 Z"/></g>
<g><path style="opacity:0.02" fill="#248982" d="M 217.5,168.5 C 216.761,168.631 216.094,168.464 215.5,168C 216.437,167.308 217.103,167.475 217.5,168.5 Z"/></g>
<g><path style="opacity:0.016" fill="#248c86" d="M 698.5,168.5 C 697.448,168.649 696.448,168.483 695.5,168C 696.749,167.26 697.749,167.427 698.5,168.5 Z"/></g>
<g><path style="opacity:0.004" fill="#238c83" d="M 770.5,167.5 C 771.833,168.167 771.833,168.167 770.5,167.5 Z"/></g>
<g><path style="opacity:1" fill="#196a5f" d="M 743.5,161.5 C 757.865,163.174 770.865,168.174 782.5,176.5C 790.833,183.5 798.5,191.167 805.5,199.5C 809.115,205.777 813.115,211.777 817.5,217.5C 842.03,267.521 854.696,320.188 855.5,375.5C 855.806,378.385 855.473,381.052 854.5,383.5C 853.703,355.228 850.536,327.228 845,299.5C 838.534,266.09 826.201,235.09 808,206.5C 792.499,182.8 770.999,168.133 743.5,162.5C 743.5,162.167 743.5,161.833 743.5,161.5 Z"/></g>
<g><path style="opacity:0.004" fill="#238c85" d="M 202.5,175.5 C 203.833,176.167 203.833,176.167 202.5,175.5 Z"/></g>
<g><path style="opacity:0.004" fill="#248c86" d="M 300.5,175.5 C 301.833,176.167 301.833,176.167 300.5,175.5 Z"/></g>
<g><path style="opacity:0.004" fill="#268f8d" d="M 782.5,175.5 C 783.833,176.167 783.833,176.167 782.5,175.5 Z"/></g>
<g><path style="opacity:0.004" fill="#258a83" d="M 194.5,184.5 C 193.833,183.167 193.833,183.167 194.5,184.5 Z"/></g>
<g><path style="opacity:0.004" fill="#258b86" d="M 317.5,191.5 C 318.833,192.167 318.833,192.167 317.5,191.5 Z"/></g>
<g><path style="opacity:0.004" fill="#21887f" d="M 668.5,192.5 C 667.833,191.167 667.833,191.167 668.5,192.5 Z"/></g>
<g><path style="opacity:1" fill="#196457" d="M 726.5,161.5 C 730.833,161.5 735.167,161.5 739.5,161.5C 740.833,161.5 742.167,161.5 743.5,161.5C 743.5,161.833 743.5,162.167 743.5,162.5C 714.2,160.317 690.033,170.317 671,192.5C 655.214,214.073 643.714,237.739 636.5,263.5C 636.5,262.5 636.5,261.5 636.5,260.5C 641.921,239.563 650.254,219.897 661.5,201.5C 664.209,198.792 666.542,195.792 668.5,192.5C 672.994,187.839 677.661,183.339 682.5,179C 687.468,174.851 692.802,171.351 698.5,168.5C 700.819,168.008 702.819,167.008 704.5,165.5C 711.715,163.524 719.048,162.19 726.5,161.5 Z"/></g>
<g><path style="opacity:0.004" fill="#238a82" d="M 663.5,193.5 C 664.833,194.167 664.833,194.167 663.5,193.5 Z"/></g>
<g><path style="opacity:0.004" fill="#248e87" d="M 184.5,195.5 C 183.833,194.167 183.833,194.167 184.5,195.5 Z"/></g>
<g><path style="opacity:0.004" fill="#238984" d="M 805.5,198.5 C 806.833,199.167 806.833,199.167 805.5,198.5 Z"/></g>
<g><path style="opacity:0.016" fill="#208c84" d="M 322.5,199.5 C 323.833,200.167 323.833,200.167 322.5,199.5 Z"/></g>
<g><path style="opacity:0.008" fill="#248881" d="M 661.5,201.5 C 660.833,200.167 660.833,200.167 661.5,201.5 Z"/></g>
<g><path style="opacity:0.004" fill="#269790" d="M 256.5,203.5 C 257.525,203.897 257.692,204.563 257,205.5C 256.536,204.906 256.369,204.239 256.5,203.5 Z"/></g>
<g><path style="opacity:0.573" fill="#1b6d61" d="M 812.5,334.5 C 812.5,333.833 812.167,333.5 811.5,333.5C 810.507,323.045 808.84,313.045 806.5,303.5C 806.672,302.508 806.338,301.842 805.5,301.5C 802.809,289.433 799.143,277.766 794.5,266.5C 790.729,254.958 785.396,244.291 778.5,234.5C 777.241,230.975 775.241,227.975 772.5,225.5C 761.498,208.333 745.832,200.833 725.5,203C 722.135,203.505 719.135,204.672 716.5,206.5C 713.262,207.738 710.262,209.404 707.5,211.5C 707.062,211.565 706.728,211.399 706.5,211C 720.52,199.395 735.854,197.395 752.5,205C 765.374,213.21 775.54,224.043 783,237.5C 799.458,268.025 809.292,300.358 812.5,334.5 Z"/></g>
<g><path style="opacity:0.012" fill="#269890" d="M 738.5,203.5 C 739.833,204.167 739.833,204.167 738.5,203.5 Z"/></g>
<g><path style="opacity:0.008" fill="#2a9993" d="M 735.5,203.5 C 736.833,204.167 736.833,204.167 735.5,203.5 Z"/></g>
<g><path style="opacity:0.004" fill="#279890" d="M 729.5,203.5 C 730.833,204.167 730.833,204.167 729.5,203.5 Z"/></g>
<g><path style="opacity:0.012" fill="#299591" d="M 726.5,203.5 C 727.833,204.167 727.833,204.167 726.5,203.5 Z"/></g>
<g><path style="opacity:0.008" fill="#27948f" d="M 240.5,204.5 C 241.833,205.167 241.833,205.167 240.5,204.5 Z"/></g>
<g><path style="opacity:0.004" fill="#289692" d="M 742.5,204.5 C 743.833,205.167 743.833,205.167 742.5,204.5 Z"/></g>
<g><path style="opacity:0.004" fill="#279792" d="M 746.5,205.5 C 747.833,206.167 747.833,206.167 746.5,205.5 Z"/></g>
<g><path style="opacity:0.006" fill="#299992" d="M 716.5,206.5 C 717.239,206.369 717.906,206.536 718.5,207C 717.563,207.692 716.897,207.525 716.5,206.5 Z"/></g>
<g><path style="opacity:0.012" fill="#279992" d="M 748.5,206.5 C 749.833,207.167 749.833,207.167 748.5,206.5 Z"/></g>
<g><path style="opacity:0.741" fill="#1b6c5f" d="M 250.5,201.5 C 240.969,202.675 232.303,206.009 224.5,211.5C 224.062,211.565 223.728,211.399 223.5,211C 229.34,206.08 236.007,202.747 243.5,201C 254.554,200.358 256.888,200.524 250.5,201.5 Z"/></g>
<g><path style="opacity:0.008" fill="#26968d" d="M 274.5,210.5 C 273.833,211.167 273.833,211.167 274.5,210.5 Z"/></g>
<g><path style="opacity:0.008" fill="#258d82" d="M 329.5,210.5 C 330.833,211.167 330.833,211.167 329.5,210.5 Z"/></g>
<g><path style="opacity:0.004" fill="#26968d" d="M 278.5,213.5 C 277.833,214.167 277.833,214.167 278.5,213.5 Z"/></g>
<g><path style="opacity:0.91" fill="#1a695b" d="M 705.5,213.5 C 703.806,214.527 702.473,215.861 701.5,217.5C 700.957,217.44 700.624,217.107 700.5,216.5C 701.67,213.882 703.336,212.882 705.5,213.5 Z"/></g>
<g><path style="opacity:1" fill="#1b695c" d="M 243.5,161.5 C 243.5,161.833 243.5,162.167 243.5,162.5C 236.104,164.021 228.77,166.188 221.5,169C 202.907,178.589 187.741,192.089 176,209.5C 167.739,223.405 160.239,237.072 153.5,250.5C 161.003,230.487 171.336,212.153 184.5,195.5C 187.805,191.859 191.138,188.192 194.5,184.5C 201.68,178.415 209.347,173.081 217.5,168.5C 225.826,164.948 234.493,162.614 243.5,161.5 Z"/></g>
<g><path style="opacity:0.58" fill="#18695c" d="M 222.5,213.5 C 219.167,216.167 216.167,219.167 213.5,222.5C 212.475,222.103 212.308,221.437 213,220.5C 215.5,218 218,215.5 220.5,213C 221.437,212.308 222.103,212.475 222.5,213.5 Z"/></g>
<g><path style="opacity:0.004" fill="#248b84" d="M 817.5,216.5 C 818.833,217.167 818.833,217.167 817.5,216.5 Z"/></g>
<g><path style="opacity:0.004" fill="#268d86" d="M 821.5,222.5 C 822.833,223.167 822.833,223.167 821.5,222.5 Z"/></g>
<g><path style="opacity:1" fill="#1b6d61" d="M 258.5,202.5 C 260.726,201.441 263.059,201.608 265.5,203C 279,209.833 289.167,220 296,233.5C 306.347,256.207 314.514,279.707 320.5,304C 343.917,374.532 392.25,415.866 465.5,428C 464.207,428.49 462.873,428.657 461.5,428.5C 440.295,425.764 420.295,419.431 401.5,409.5C 391.863,403.676 382.529,397.343 373.5,390.5C 370.769,386.766 367.436,383.766 363.5,381.5C 362.208,378.599 360.208,376.266 357.5,374.5C 353.47,369.476 349.47,364.476 345.5,359.5C 343.403,355.628 341.069,351.961 338.5,348.5C 338.068,347.29 337.401,346.29 336.5,345.5C 327.764,328.368 320.431,310.701 314.5,292.5C 313.295,284.048 310.628,276.214 306.5,269C 308.111,265.922 307.111,264.256 303.5,264C 306.717,263.031 306.717,261.364 303.5,259C 304.276,257.23 304.11,255.397 303,253.5C 300.294,246.516 297.128,239.849 293.5,233.5C 289.957,225.751 284.957,219.085 278.5,213.5C 277.738,211.738 276.404,210.738 274.5,210.5C 271.447,206.716 267.614,205.05 263,205.5C 261.908,203.883 260.408,202.883 258.5,202.5 Z"/></g>
<g><path style="opacity:0.008" fill="#2a8f84" d="M 647.5,223.5 C 648.833,224.167 648.833,224.167 647.5,223.5 Z"/></g>
<g><path style="opacity:0.004" fill="#239590" d="M 772.5,225.5 C 771.833,226.167 771.833,226.167 772.5,225.5 Z"/></g>
<g><path style="opacity:0.008" fill="#248d85" d="M 822.5,225.5 C 823.833,226.167 823.833,226.167 822.5,225.5 Z"/></g>
<g><path style="opacity:0.004" fill="#27958d" d="M 288.5,227.5 C 289.833,228.167 289.833,228.167 288.5,227.5 Z"/></g>
<g><path style="opacity:0.008" fill="#258c83" d="M 160.5,228.5 C 161.833,229.167 161.833,229.167 160.5,228.5 Z"/></g>
<g><path style="opacity:0.004" fill="#27948d" d="M 293.5,233.5 C 292.833,234.167 292.833,234.167 293.5,233.5 Z"/></g>
<g><path style="opacity:0.004" fill="#27958d" d="M 778.5,234.5 C 777.833,235.167 777.833,235.167 778.5,234.5 Z"/></g>
<g><path style="opacity:0.004" fill="#269690" d="M 777.5,237.5 C 778.833,238.167 778.833,238.167 777.5,237.5 Z"/></g>
<g><path style="opacity:0.004" fill="#28958e" d="M 779.5,238.5 C 780.833,239.167 780.833,239.167 779.5,238.5 Z"/></g>
<g><path style="opacity:0.89" fill="#1b6e61" d="M 271.5,163.5 C 282.06,165.949 291.727,170.282 300.5,176.5C 308.911,183.575 316.244,191.575 322.5,200.5C 330.241,213.314 336.907,226.648 342.5,240.5C 346.768,252.238 350.101,264.238 352.5,276.5C 352.19,277.738 351.69,277.738 351,276.5C 347.326,258.823 341.66,241.823 334,225.5C 320.985,194.969 300.152,174.303 271.5,163.5 Z"/></g>
<g><path style="opacity:0.004" fill="#26918b" d="M 342.5,239.5 C 343.833,240.167 343.833,240.167 342.5,239.5 Z"/></g>
<g><path style="opacity:0.008" fill="#258e86" d="M 639.5,241.5 C 640.833,242.167 640.833,242.167 639.5,241.5 Z"/></g>
<g><path style="opacity:0.004" fill="#249490" d="M 686.5,243.5 C 687.525,243.897 687.692,244.563 687,245.5C 686.536,244.906 686.369,244.239 686.5,243.5 Z"/></g>
<g><path style="opacity:0.012" fill="#269590" d="M 685.5,246.5 C 686.833,247.167 686.833,247.167 685.5,246.5 Z"/></g>
<g><path style="opacity:0.004" fill="#279690" d="M 783.5,248.5 C 783.897,247.475 784.563,247.308 785.5,248C 784.906,248.464 784.239,248.631 783.5,248.5 Z"/></g>
<g><path style="opacity:0.004" fill="#258e86" d="M 834.5,252.5 C 835.833,253.167 835.833,253.167 834.5,252.5 Z"/></g>
<g><path style="opacity:0.004" fill="#25958e" d="M 195.5,253.5 C 196.833,254.167 196.833,254.167 195.5,253.5 Z"/></g>
<g><path style="opacity:0.008" fill="#28958e" d="M 787.5,253.5 C 788.525,253.897 788.692,254.563 788,255.5C 787.536,254.906 787.369,254.239 787.5,253.5 Z"/></g>
<g><path style="opacity:0.008" fill="#248c84" d="M 148.5,256.5 C 149.833,257.167 149.833,257.167 148.5,256.5 Z"/></g>
<g><path style="opacity:0.012" fill="#28938a" d="M 194.5,256.5 C 195.833,257.167 195.833,257.167 194.5,256.5 Z"/></g>
<g><path style="opacity:0.008" fill="#258f89" d="M 349.5,258.5 C 350.833,259.167 350.833,259.167 349.5,258.5 Z"/></g>
<g><path style="opacity:0.004" fill="#258e87" d="M 635.5,260.5 C 634.833,259.167 634.833,259.167 635.5,260.5 Z"/></g>
<g><path style="opacity:0.004" fill="#25958d" d="M 303.5,261.5 C 304.833,262.167 304.833,262.167 303.5,261.5 Z"/></g>
<g><path style="opacity:0.008" fill="#269589" d="M 794.5,266.5 C 793.833,267.167 793.833,267.167 794.5,266.5 Z"/></g>
<g><path style="opacity:0.992" fill="#1b6b5e" d="M 211.5,224.5 C 204.871,233.422 199.538,243.089 195.5,253.5C 186.252,273.916 179.586,295.249 175.5,317.5C 179.138,283.77 190.638,252.77 210,224.5C 210.69,223.262 211.19,223.262 211.5,224.5 Z"/></g>
<g><path style="opacity:0.004" fill="#268c83" d="M 144.5,268.5 C 145.833,269.167 145.833,269.167 144.5,268.5 Z"/></g>
<g><path style="opacity:0.004" fill="#26948d" d="M 189.5,270.5 C 190.833,271.167 190.833,271.167 189.5,270.5 Z"/></g>
<g><path style="opacity:0.004" fill="#27908a" d="M 304.5,270.5 C 305.833,271.167 305.833,271.167 304.5,270.5 Z"/></g>
<g><path style="opacity:0.004" fill="#28948d" d="M 791.5,272.5 C 792.833,273.167 792.833,273.167 791.5,272.5 Z"/></g>
<g><path style="opacity:1" fill="#1c6e63" d="M 152.5,252.5 C 153.097,252.735 153.43,253.235 153.5,254C 148.329,267.512 144.163,281.345 141,295.5C 140.193,299.449 139.693,299.449 139.5,295.5C 142.442,280.73 146.775,266.397 152.5,252.5 Z"/></g>
<g><path style="opacity:0.004" fill="#27938e" d="M 799.5,285.5 C 800.525,285.897 800.692,286.563 800,287.5C 799.536,286.906 799.369,286.239 799.5,285.5 Z"/></g>
<g><path style="opacity:0.004" fill="#258f89" d="M 357.5,287.5 C 358.833,288.167 358.833,288.167 357.5,287.5 Z"/></g>
<g><path style="opacity:0.008" fill="#26928c" d="M 625.5,290.5 C 626.833,291.167 626.833,291.167 625.5,290.5 Z"/></g>
<g><path style="opacity:0.004" fill="#25908c" d="M 314.5,292.5 C 314.631,293.239 314.464,293.906 314,294.5C 313.308,293.563 313.475,292.897 314.5,292.5 Z"/></g>
<g><path style="opacity:0.008" fill="#248c87" d="M 846.5,295.5 C 847.833,296.167 847.833,296.167 846.5,295.5 Z"/></g>
<g><path style="opacity:0.004" fill="#26938c" d="M 802.5,296.5 C 803.833,297.167 803.833,297.167 802.5,296.5 Z"/></g>
<g><path style="opacity:0.004" fill="#258e87" d="M 135.5,298.5 C 136.833,299.167 136.833,299.167 135.5,298.5 Z"/></g>
<g><path style="opacity:0.004" fill="#259288" d="M 313.5,298.5 C 314.833,299.167 314.833,299.167 313.5,298.5 Z"/></g>
<g><path style="opacity:0.008" fill="#26958d" d="M 800.5,300.5 C 801.833,301.167 801.833,301.167 800.5,300.5 Z"/></g>
<g><path style="opacity:0.976" fill="#1c6d60" d="M 635.5,260.5 C 635.833,260.5 636.167,260.5 636.5,260.5C 636.5,261.5 636.5,262.5 636.5,263.5C 633.069,280.218 628.236,296.552 622,312.5C 605.276,349.726 577.442,374.392 538.5,386.5C 537.584,386.457 536.917,386.124 536.5,385.5C 537.167,385.5 537.5,385.167 537.5,384.5C 544.282,383.131 550.615,380.798 556.5,377.5C 562.489,375.509 567.823,372.509 572.5,368.5C 578.463,364.84 584.13,360.674 589.5,356C 591.037,354.89 591.703,353.39 591.5,351.5C 597.436,347.89 602.103,342.89 605.5,336.5C 612.504,327.84 618.004,318.173 622,307.5C 627.423,292.068 631.923,276.401 635.5,260.5 Z"/></g>
<g><path style="opacity:0.035" fill="#299e9c" d="M 805.5,301.5 C 806.338,301.842 806.672,302.508 806.5,303.5C 805.325,303.719 804.325,303.386 803.5,302.5C 804.2,302.213 804.867,301.88 805.5,301.5 Z"/></g>
<g><path style="opacity:0.004" fill="#24938a" d="M 179.5,304.5 C 180.833,305.167 180.833,305.167 179.5,304.5 Z"/></g>
<g><path style="opacity:1" fill="#1b6d62" d="M 138.5,299.5 C 139.139,300.097 139.472,300.93 139.5,302C 138.412,307.517 137.246,313.017 136,318.5C 135.517,317.552 135.351,316.552 135.5,315.5C 136.074,310.055 137.074,304.721 138.5,299.5 Z"/></g>
<g><path style="opacity:0.008" fill="#27908b" d="M 320.5,315.5 C 321.833,316.167 321.833,316.167 320.5,315.5 Z"/></g>
<g><path style="opacity:0.004" fill="#26918d" d="M 321.5,317.5 C 322.833,318.167 322.833,318.167 321.5,317.5 Z"/></g>
<g><path style="opacity:0.004" fill="#25918a" d="M 323.5,321.5 C 324.833,322.167 324.833,322.167 323.5,321.5 Z"/></g>
<g><path style="opacity:0.004" fill="#25948b" d="M 373.5,321.5 C 374.833,322.167 374.833,322.167 373.5,321.5 Z"/></g>
<g><path style="opacity:0.702" fill="#1b6b5f" d="M 134.5,319.5 C 135.634,321.966 135.801,324.633 135,327.5C 134.193,331.449 133.693,331.449 133.5,327.5C 133.401,324.763 133.735,322.096 134.5,319.5 Z"/></g>
<g><path style="opacity:0.004" fill="#27978e" d="M 808.5,324.5 C 809.833,325.167 809.833,325.167 808.5,324.5 Z"/></g>
<g><path style="opacity:0.008" fill="#28958d" d="M 659.5,325.5 C 660.833,326.167 660.833,326.167 659.5,325.5 Z"/></g>
<g><path style="opacity:0.012" fill="#258e8a" d="M 852.5,326.5 C 853.525,326.897 853.692,327.563 853,328.5C 852.536,327.906 852.369,327.239 852.5,326.5 Z"/></g>
<g><path style="opacity:0.004" fill="#25938e" d="M 809.5,328.5 C 810.525,328.897 810.692,329.563 810,330.5C 809.536,329.906 809.369,329.239 809.5,328.5 Z"/></g>
<g><path style="opacity:0.008" fill="#278f8a" d="M 327.5,330.5 C 328.833,331.167 328.833,331.167 327.5,330.5 Z"/></g>
<g><path style="opacity:0.004" fill="#248e8d" d="M 654.5,334.5 C 655.833,335.167 655.833,335.167 654.5,334.5 Z"/></g>
<g><path style="opacity:0.004" fill="#25938e" d="M 811.5,333.5 C 811.631,334.239 811.464,334.906 811,335.5C 810.308,334.563 810.475,333.897 811.5,333.5 Z"/></g>
<g><path style="opacity:0.004" fill="#248e87" d="M 853.5,334.5 C 854.833,335.167 854.833,335.167 853.5,334.5 Z"/></g>
<g><path style="opacity:0.004" fill="#268f87" d="M 129.5,335.5 C 130.833,336.167 130.833,336.167 129.5,335.5 Z"/></g>
<g><path style="opacity:0.835" fill="#1d7064" d="M 174.5,321.5 C 173.166,331.501 171.833,341.501 170.5,351.5C 169.359,348.36 169.192,345.027 170,341.5C 171.13,334.852 172.13,328.186 173,321.5C 173.807,317.551 174.307,317.551 174.5,321.5 Z"/></g>
<g><path style="opacity:0.004" fill="#268f89" d="M 605.5,336.5 C 604.833,335.167 604.833,335.167 605.5,336.5 Z"/></g>
<g><path style="opacity:0.004" fill="#26958e" d="M 807.5,336.5 C 808.833,337.167 808.833,337.167 807.5,336.5 Z"/></g>
<g><path style="opacity:0.004" fill="#289089" d="M 129.5,338.5 C 130.833,339.167 130.833,339.167 129.5,338.5 Z"/></g>
<g><path style="opacity:0.008" fill="#259289" d="M 600.5,340.5 C 601.833,341.167 601.833,341.167 600.5,340.5 Z"/></g>
<g><path style="opacity:0.004" fill="#289691" d="M 811.5,341.5 C 810.833,340.167 810.833,340.167 811.5,341.5 Z"/></g>
<g><path style="opacity:0.004" fill="#248e88" d="M 854.5,340.5 C 855.833,341.167 855.833,341.167 854.5,340.5 Z"/></g>
<g><path style="opacity:0.004" fill="#27978d" d="M 172.5,342.5 C 173.833,343.167 173.833,343.167 172.5,342.5 Z"/></g>
<g><path style="opacity:0.008" fill="#27958e" d="M 811.5,341.5 C 812.525,341.897 812.692,342.563 812,343.5C 811.536,342.906 811.369,342.239 811.5,341.5 Z"/></g>
<g><path style="opacity:0.004" fill="#24968e" d="M 386.5,343.5 C 387.833,344.167 387.833,344.167 386.5,343.5 Z"/></g>
<g><path style="opacity:0.004" fill="#25918a" d="M 336.5,345.5 C 335.833,346.167 335.833,346.167 336.5,345.5 Z"/></g>
<g><path style="opacity:0.004" fill="#268f88" d="M 129.5,349.5 C 128.833,348.167 128.833,348.167 129.5,349.5 Z"/></g>
<g><path style="opacity:0.004" fill="#28928c" d="M 338.5,348.5 C 338.631,349.239 338.464,349.906 338,350.5C 337.308,349.563 337.475,348.897 338.5,348.5 Z"/></g>
<g><path style="opacity:0.008" fill="#25958e" d="M 171.5,349.5 C 172.525,349.897 172.692,350.563 172,351.5C 171.536,350.906 171.369,350.239 171.5,349.5 Z"/></g>
<g><path style="opacity:0.004" fill="#23928c" d="M 396.5,352.5 C 397.833,353.167 397.833,353.167 396.5,352.5 Z"/></g>
<g><path style="opacity:0.992" fill="#1a685c" d="M 816.5,428.5 C 816.5,423.5 816.5,418.5 816.5,413.5C 817.833,404.833 817.833,396.167 816.5,387.5C 816.265,371.781 815.265,356.115 813.5,340.5C 813.34,338.801 813.506,337.134 814,335.5C 818.577,369.051 819.577,402.718 817,436.5C 816.503,433.854 816.336,431.187 816.5,428.5 Z"/></g>
<g><path style="opacity:1" fill="#1d6e63" d="M 132.5,331.5 C 133.158,332.793 133.492,334.293 133.5,336C 131.308,354.609 129.641,373.109 128.5,391.5C 128.167,391.5 127.833,391.5 127.5,391.5C 128.167,377.5 128.833,363.5 129.5,349.5C 130.816,343.68 131.816,337.68 132.5,331.5 Z"/></g>
<g><path style="opacity:0.004" fill="#25958c" d="M 642.5,356.5 C 643.833,357.167 643.833,357.167 642.5,356.5 Z"/></g>
<g><path style="opacity:0.012" fill="#259690" d="M 345.5,359.5 C 344.833,360.167 344.833,360.167 345.5,359.5 Z"/></g>
<g><path style="opacity:0.992" fill="#1b685b" d="M 169.5,356.5 C 169.524,362.857 169.19,369.19 168.5,375.5C 167.236,368.295 167.402,360.961 169,353.5C 169.483,354.448 169.649,355.448 169.5,356.5 Z"/></g>
<g><path style="opacity:0.824" fill="#1c6e60" d="M 699.5,219.5 C 694.118,226.931 689.784,234.931 686.5,243.5C 684.924,246.352 683.424,249.352 682,252.5C 676.393,268.987 671.393,285.654 667,302.5C 663.121,313.309 658.954,323.975 654.5,334.5C 646.909,349.347 637.575,363.014 626.5,375.5C 625.475,375.103 625.308,374.437 626,373.5C 638.176,360.48 647.843,345.813 655,329.5C 664.973,300.942 674.64,272.275 684,243.5C 687.574,235.347 691.907,227.68 697,220.5C 697.838,219.001 698.671,218.668 699.5,219.5 Z"/></g>
<g><path style="opacity:0.004" fill="#269289" d="M 345.5,362.5 C 346.833,363.167 346.833,363.167 345.5,362.5 Z"/></g>
<g><path style="opacity:0.004" fill="#268f87" d="M 343.5,364.5 C 344.833,365.167 344.833,365.167 343.5,364.5 Z"/></g>
<g><path style="opacity:0.004" fill="#289086" d="M 347.5,364.5 C 348.833,365.167 348.833,365.167 347.5,364.5 Z"/></g>
<g><path style="opacity:0.008" fill="#25958a" d="M 415.5,367.5 C 416.833,368.167 416.833,368.167 415.5,367.5 Z"/></g>
<g><path style="opacity:0.004" fill="#25958e" d="M 572.5,368.5 C 571.833,367.167 571.833,367.167 572.5,368.5 Z"/></g>
<g><path style="opacity:0.004" fill="#25928c" d="M 352.5,371.5 C 353.833,372.167 353.833,372.167 352.5,371.5 Z"/></g>
<g><path style="opacity:0.004" fill="#27928a" d="M 354.5,373.5 C 355.833,374.167 355.833,374.167 354.5,373.5 Z"/></g>
<g><path style="opacity:0.016" fill="#238f89" d="M 357.5,374.5 C 356.833,375.167 356.833,375.167 357.5,374.5 Z"/></g>
<g><path style="opacity:0.008" fill="#25938d" d="M 429.5,376.5 C 429.897,375.475 430.563,375.308 431.5,376C 430.906,376.464 430.239,376.631 429.5,376.5 Z"/></g>
<g><path style="opacity:0.867" fill="#1a6c60" d="M 353.5,278.5 C 359.23,303.293 370.23,325.293 386.5,344.5C 397.983,358.981 412.316,369.647 429.5,376.5C 436.122,379.97 443.122,382.637 450.5,384.5C 455.276,386.279 460.276,387.612 465.5,388.5C 464.903,389.139 464.07,389.472 463,389.5C 402.253,375.923 365.753,338.923 353.5,278.5 Z"/></g>
<g><path style="opacity:0.004" fill="#26928a" d="M 556.5,377.5 C 555.833,376.167 555.833,376.167 556.5,377.5 Z"/></g>
<g><path style="opacity:0.004" fill="#269189" d="M 363.5,381.5 C 362.833,382.167 362.833,382.167 363.5,381.5 Z"/></g>
<g><path style="opacity:0.004" fill="#24928c" d="M 450.5,384.5 C 450.897,383.475 451.563,383.308 452.5,384C 451.906,384.464 451.239,384.631 450.5,384.5 Z"/></g>
<g><path style="opacity:0.004" fill="#27928b" d="M 453.5,383.5 C 454.833,384.167 454.833,384.167 453.5,383.5 Z"/></g>
<g><path style="opacity:0.01" fill="#279791" d="M 532.5,384.5 C 534.167,383.167 535.833,383.167 537.5,384.5C 535.833,384.5 534.167,384.5 532.5,384.5 Z"/></g>
<g><path style="opacity:0.004" fill="#25948c" d="M 455.5,384.5 C 456.833,385.167 456.833,385.167 455.5,384.5 Z"/></g>
<g><path style="opacity:0.004" fill="#25968c" d="M 458.5,384.5 C 459.833,385.167 459.833,385.167 458.5,384.5 Z"/></g>
<g><path style="opacity:0.008" fill="#25948a" d="M 532.5,384.5 C 531.833,385.167 531.833,385.167 532.5,384.5 Z"/></g>
<g><path style="opacity:0.004" fill="#258e88" d="M 857.5,384.5 C 858.833,385.167 858.833,385.167 857.5,384.5 Z"/></g>
<g><path style="opacity:0.012" fill="#27958c" d="M 527.5,385.5 C 528.833,386.167 528.833,386.167 527.5,385.5 Z"/></g>
<g><path style="opacity:0.004" fill="#27958e" d="M 465.5,386.5 C 466.833,387.167 466.833,387.167 465.5,386.5 Z"/></g>
<g><path style="opacity:0.004" fill="#27948d" d="M 519.5,387.5 C 519.897,386.475 520.563,386.308 521.5,387C 520.906,387.464 520.239,387.631 519.5,387.5 Z"/></g>
<g><path style="opacity:0.933" fill="#1a6456" d="M 617.5,384.5 C 615.54,386.156 613.54,387.823 611.5,389.5C 611.062,389.565 610.728,389.399 610.5,389C 612.606,386.323 614.939,384.823 617.5,384.5 Z"/></g>
<g><path style="opacity:0.767" fill="#1c7469" d="M 855.5,375.5 C 856.833,394.833 856.833,414.167 855.5,433.5C 855.784,431.585 855.451,429.919 854.5,428.5C 854.5,413.5 854.5,398.5 854.5,383.5C 855.473,381.052 855.806,378.385 855.5,375.5 Z"/></g>
<g><path style="opacity:1" fill="#1b695c" d="M 534.5,386.5 C 530.915,388.555 526.415,389.889 521,390.5C 519.93,390.472 519.097,390.139 518.5,389.5C 523.778,388.245 529.111,387.245 534.5,386.5 Z"/></g>
<g><path style="opacity:0.016" fill="#289189" d="M 373.5,390.5 C 372.833,391.167 372.833,391.167 373.5,390.5 Z"/></g>
<g><path style="opacity:0.984" fill="#1b675b" d="M 468.5,389.5 C 478.233,389.978 487.899,390.645 497.5,391.5C 498.948,393.504 491.615,393.671 475.5,392C 472.529,391.206 469.529,390.539 466.5,390C 467.094,389.536 467.761,389.369 468.5,389.5 Z"/></g>
<g><path style="opacity:0.008" fill="#27958c" d="M 598.5,400.5 C 599.833,401.167 599.833,401.167 598.5,400.5 Z"/></g>
<g><path style="opacity:0.592" fill="#146354" d="M 167.5,386.5 C 167.5,401.5 167.5,416.5 167.5,431.5C 167.665,435.182 167.499,438.848 167,442.5C 165.023,420.499 165.023,398.499 167,376.5C 167.498,379.817 167.665,383.15 167.5,386.5 Z"/></g>
<g><path style="opacity:0.101" fill="#25948e" d="M 816.5,387.5 C 817.833,396.167 817.833,404.833 816.5,413.5C 815.917,404.751 815.917,396.084 816.5,387.5 Z"/></g>
<g><path style="opacity:0.004" fill="#279088" d="M 857.5,402.5 C 858.833,403.167 858.833,403.167 857.5,402.5 Z"/></g>
<g><path style="opacity:0.004" fill="#27938c" d="M 592.5,404.5 C 593.525,404.897 593.692,405.563 593,406.5C 592.536,405.906 592.369,405.239 592.5,404.5 Z"/></g>
<g><path style="opacity:0.966" fill="#196252" d="M 127.5,391.5 C 127.833,391.5 128.167,391.5 128.5,391.5C 128.829,404.011 128.495,416.345 127.5,428.5C 127.256,416.19 127.256,403.857 127.5,391.5 Z"/></g>
<g><path style="opacity:0.004" fill="#249188" d="M 589.5,406.5 C 590.833,407.167 590.833,407.167 589.5,406.5 Z"/></g>
<g><path style="opacity:0.012" fill="#248e8c" d="M 401.5,409.5 C 401.5,409.833 401.5,410.167 401.5,410.5C 400.83,410.019 400.83,409.685 401.5,409.5 Z"/></g>
<g><path style="opacity:0.004" fill="#279288" d="M 401.5,410.5 C 402.833,411.167 402.833,411.167 401.5,410.5 Z"/></g>
<g><path style="opacity:0.004" fill="#26908a" d="M 406.5,413.5 C 407.833,414.167 407.833,414.167 406.5,413.5 Z"/></g>
<g><path style="opacity:0.004" fill="#27918a" d="M 575.5,414.5 C 576.833,415.167 576.833,415.167 575.5,414.5 Z"/></g>
<g><path style="opacity:0.004" fill="#27918b" d="M 420.5,419.5 C 421.833,420.167 421.833,420.167 420.5,419.5 Z"/></g>
<g><path style="opacity:0.008" fill="#289490" d="M 423.5,420.5 C 424.833,421.167 424.833,421.167 423.5,420.5 Z"/></g>
<g><path style="opacity:0.01" fill="#25928b" d="M 428.5,423.5 C 428.897,422.475 429.563,422.308 430.5,423C 429.906,423.464 429.239,423.631 428.5,423.5 Z"/></g>
<g><path style="opacity:0.071" fill="#1c6d5f" d="M 609.5,391.5 C 605.978,394.75 602.311,397.75 598.5,400.5C 596.147,401.34 594.147,402.674 592.5,404.5C 571.779,416.852 549.446,424.852 525.5,428.5C 524.209,428.263 523.209,428.596 522.5,429.5C 520.833,429.5 519.167,429.5 517.5,429.5C 516.448,429.649 515.448,429.483 514.5,429C 549.346,425.4 580.346,412.733 607.5,391C 608.437,390.308 609.103,390.475 609.5,391.5 Z"/></g>
<g><path style="opacity:0.004" fill="#279389" d="M 719.5,423.5 C 720.833,424.167 720.833,424.167 719.5,423.5 Z"/></g>
<g><path style="opacity:0.004" fill="#289189" d="M 441.5,426.5 C 442.833,427.167 442.833,427.167 441.5,426.5 Z"/></g>
<g><path style="opacity:0.004" fill="#28938c" d="M 721.5,426.5 C 722.833,427.167 722.833,427.167 721.5,426.5 Z"/></g>
<g><path style="opacity:0.004" fill="#29938a" d="M 537.5,427.5 C 538.833,428.167 538.833,428.167 537.5,427.5 Z"/></g>
<g><path style="opacity:0.063" fill="#299a94" d="M 522.5,429.5 C 523.209,428.596 524.209,428.263 525.5,428.5C 525.631,429.239 525.464,429.906 525,430.5C 524.329,429.748 523.496,429.414 522.5,429.5 Z"/></g>
<g><path style="opacity:0.004" fill="#27938a" d="M 537.5,428.5 C 536.833,429.167 536.833,429.167 537.5,428.5 Z"/></g>
<g><path style="opacity:0.004" fill="#29958c" d="M 719.5,428.5 C 720.833,429.167 720.833,429.167 719.5,428.5 Z"/></g>
<g><path style="opacity:0.998" fill="#22948d" d="M 893.5,656.5 C 894.404,657.209 894.737,658.209 894.5,659.5C 893.853,660.274 893.52,661.274 893.5,662.5C 895.095,670.806 896.428,679.139 897.5,687.5C 897.5,694.5 897.5,701.5 897.5,708.5C 896.217,717.358 894.55,726.191 892.5,735C 892.528,736.07 892.861,736.903 893.5,737.5C 893.672,738.492 893.338,739.158 892.5,739.5C 890.07,743.281 888.07,747.948 886.5,753.5C 886.624,754.107 886.957,754.44 887.5,754.5C 887.672,755.492 887.338,756.158 886.5,756.5C 879.949,767.848 872.949,779.515 865.5,791.5C 861.898,795.605 858.065,799.605 854,803.5C 853.308,804.437 853.475,805.103 854.5,805.5C 854.5,805.833 854.5,806.167 854.5,806.5C 853.833,806.833 853.167,807.167 852.5,807.5C 852.565,807.062 852.399,806.728 852,806.5C 816.496,841.728 773.663,858.395 723.5,856.5C 721.265,856.795 719.265,856.461 717.5,855.5C 719.199,855.66 720.866,855.494 722.5,855C 659.4,847.209 614.234,814.709 587,757.5C 579.649,740.105 575.482,722.105 574.5,703.5C 574.626,694.491 574.959,685.491 575.5,676.5C 576.762,670.124 578.096,663.624 579.5,657C 579.472,655.93 579.139,655.097 578.5,654.5C 578.263,653.209 578.596,652.209 579.5,651.5C 579.369,652.239 579.536,652.906 580,653.5C 586.619,630.373 595.952,608.373 608,587.5C 640.81,534.877 676.81,484.543 716,436.5C 724.593,427.263 734.76,425.097 746.5,430C 750.299,432.797 753.799,435.964 757,439.5C 788.539,478.369 818.539,518.369 847,559.5C 860.558,581.28 872.558,603.946 883,627.5C 886.793,637.668 890.126,648.001 893,658.5C 893.464,657.906 893.631,657.239 893.5,656.5 Z M 733.5,477.5 C 734.251,476.427 735.251,476.26 736.5,477C 739.54,480.26 742.206,483.76 744.5,487.5C 748.592,491.258 751.926,495.591 754.5,500.5C 761.648,508.797 768.315,517.464 774.5,526.5C 781.268,534.27 787.268,542.603 792.5,551.5C 794.9,553.296 796.567,555.63 797.5,558.5C 798.974,559.436 799.974,560.77 800.5,562.5C 799.287,563.497 799.454,564.497 801,565.5C 801.399,565.272 801.565,564.938 801.5,564.5C 803.822,565.802 805.155,567.802 805.5,570.5C 807.326,572.147 808.66,574.147 809.5,576.5C 811.326,578.147 812.66,580.147 813.5,582.5C 818.917,589.659 823.583,597.325 827.5,605.5C 834.292,616.415 839.626,627.081 843.5,637.5C 845.964,641.444 847.63,645.777 848.5,650.5C 850.31,653.145 851.31,656.145 851.5,659.5C 851.167,659.5 850.833,659.5 850.5,659.5C 850.351,660.552 850.517,661.552 851,662.5C 851.667,663.833 852.333,663.833 853,662.5C 855.006,669.031 856.173,675.698 856.5,682.5C 857.47,687.868 858.137,693.201 858.5,698.5C 857.673,703.346 857.006,708.346 856.5,713.5C 851.246,743.774 837.246,768.108 814.5,786.5C 812.2,788.984 809.533,790.984 806.5,792.5C 803.226,796.145 799.226,798.812 794.5,800.5C 787.714,804.656 780.381,807.656 772.5,809.5C 766.172,812.082 759.506,813.749 752.5,814.5C 750.265,814.205 748.265,814.539 746.5,815.5C 724.699,816.648 704.032,812.648 684.5,803.5C 676.903,800.34 669.57,796.007 662.5,790.5C 656.845,786.177 651.512,781.51 646.5,776.5C 640.013,770.012 634.68,762.679 630.5,754.5C 627.856,751.227 625.689,747.56 624,743.5C 618.39,730.251 614.89,716.584 613.5,702.5C 613.455,694.981 613.789,687.314 614.5,679.5C 617.455,662.963 622.455,646.963 629.5,631.5C 630.674,630.486 631.34,629.153 631.5,627.5C 642.592,606.299 654.925,585.966 668.5,566.5C 676.441,553.604 685.108,541.27 694.5,529.5C 696.934,525.618 699.601,521.952 702.5,518.5C 704.147,515.527 706.147,512.86 708.5,510.5C 710.167,507.833 711.833,505.167 713.5,502.5C 714.5,502.167 715.167,501.5 715.5,500.5C 718.152,496.518 721.152,492.851 724.5,489.5C 725.786,486.883 727.453,484.55 729.5,482.5C 729.738,480.596 730.738,479.262 732.5,478.5C 732.56,479.043 732.893,479.376 733.5,479.5C 734.773,478.743 734.773,478.077 733.5,477.5 Z"/></g>
<g><path style="opacity:0.004" fill="#24938c" d="M 458.5,430.5 C 458.897,429.475 459.563,429.308 460.5,430C 459.906,430.464 459.239,430.631 458.5,430.5 Z"/></g>
<g><path style="opacity:1" fill="#19685a" d="M 466.5,429.5 C 467.793,428.842 469.293,428.508 471,428.5C 484.66,429.084 498.16,429.751 511.5,430.5C 496.458,431.875 481.458,431.542 466.5,429.5 Z"/></g>
<g><path style="opacity:0.004" fill="#26938c" d="M 528.5,429.5 C 529.833,430.167 529.833,430.167 528.5,429.5 Z"/></g>
<g><path style="opacity:0.004" fill="#26938b" d="M 531.5,429.5 C 532.833,430.167 532.833,430.167 531.5,429.5 Z"/></g>
<g><path style="opacity:0.956" fill="#196c61" d="M 854.5,428.5 C 855.451,429.919 855.784,431.585 855.5,433.5C 854.96,452.402 853.293,471.402 850.5,490.5C 850.167,490.5 849.833,490.5 849.5,490.5C 851.718,469.881 853.385,449.215 854.5,428.5 Z"/></g>
<g><path style="opacity:0.004" fill="#26978e" d="M 760.5,439.5 C 761.833,440.167 761.833,440.167 760.5,439.5 Z"/></g>
<g><path style="opacity:0.999" fill="#1e776b" d="M 130.5,453.5 C 129.549,454.919 129.216,456.585 129.5,458.5C 128.51,452.69 128.177,446.69 128.5,440.5C 128.336,437.813 128.503,435.146 129,432.5C 129.997,439.467 130.497,446.467 130.5,453.5 Z"/></g>
<g><path style="opacity:0.008" fill="#279289" d="M 279.5,450.5 C 280.833,451.167 280.833,451.167 279.5,450.5 Z"/></g>
<g><path style="opacity:0.004" fill="#27918b" d="M 281.5,450.5 C 282.833,451.167 282.833,451.167 281.5,450.5 Z"/></g>
<g><path style="opacity:0.004" fill="#299791" d="M 812.5,451.5 C 813.833,452.167 813.833,452.167 812.5,451.5 Z"/></g>
<g><path style="opacity:0.004" fill="#29968e" d="M 695.5,454.5 C 696.833,455.167 696.833,455.167 695.5,454.5 Z"/></g>
<g><path style="opacity:0.227" fill="#218075" d="M 814.5,453.5 C 815.833,456.833 815.833,460.167 814.5,463.5C 814.167,463.5 813.833,463.5 813.5,463.5C 813.342,460.098 813.676,456.764 814.5,453.5 Z"/></g>
<g><path style="opacity:0.004" fill="#279088" d="M 127.5,461.5 C 128.833,462.167 128.833,462.167 127.5,461.5 Z"/></g>
<g><path style="opacity:1" fill="#1c6d60" d="M 286.5,493.5 C 279.402,495.347 272.735,494.347 266.5,490.5C 266.167,489.5 265.5,488.833 264.5,488.5C 262.227,485.602 260.227,482.602 258.5,479.5C 257.462,475.205 257.462,470.871 258.5,466.5C 266.027,452.492 277.027,448.992 291.5,456C 304.561,470.412 302.894,482.912 286.5,493.5 Z"/></g>
<g><path style="opacity:0.998" fill="#22948e" d="M 272.5,454.5 C 291.945,452.774 300.112,461.441 297,480.5C 291.448,491.018 282.948,494.518 271.5,491C 261.59,485.61 258.09,477.443 261,466.5C 263.691,461.311 267.524,457.311 272.5,454.5 Z"/></g>
<g><path style="opacity:0.004" fill="#25978f" d="M 171.5,463.5 C 172.833,464.167 172.833,464.167 171.5,463.5 Z"/></g>
<g><path style="opacity:0.004" fill="#279690" d="M 258.5,466.5 C 257.833,465.167 257.833,465.167 258.5,466.5 Z"/></g>
<g><path style="opacity:0.086" fill="#26938b" d="M 129.5,464.5 C 130.451,465.919 130.784,467.585 130.5,469.5C 129.761,469.631 129.094,469.464 128.5,469C 129.38,467.644 129.714,466.144 129.5,464.5 Z"/></g>
<g><path style="opacity:0.996" fill="#175a4a" d="M 130.5,453.5 C 130.836,461.689 131.502,469.855 132.5,478C 132.494,480.033 132.161,481.866 131.5,483.5C 131.5,482.5 131.5,481.5 131.5,480.5C 131.784,478.585 131.451,476.919 130.5,475.5C 130.5,473.5 130.5,471.5 130.5,469.5C 130.784,467.585 130.451,465.919 129.5,464.5C 129.5,462.5 129.5,460.5 129.5,458.5C 129.216,456.585 129.549,454.919 130.5,453.5 Z"/></g>
<g><path style="opacity:0.004" fill="#26948f" d="M 301.5,471.5 C 302.833,472.167 302.833,472.167 301.5,471.5 Z"/></g>
<g><path style="opacity:0.004" fill="#269a95" d="M 786.5,471.5 C 787.833,472.167 787.833,472.167 786.5,471.5 Z"/></g>
<g><path style="opacity:0.008" fill="#259992" d="M 788.5,472.5 C 789.833,473.167 789.833,473.167 788.5,472.5 Z"/></g>
<g><path style="opacity:0.012" fill="#28968d" d="M 681.5,474.5 C 682.833,475.167 682.833,475.167 681.5,474.5 Z"/></g>
<g><path style="opacity:0.012" fill="#259088" d="M 128.5,475.5 C 129.525,475.897 129.692,476.563 129,477.5C 128.536,476.906 128.369,476.239 128.5,475.5 Z"/></g>
<g><path style="opacity:0.069" fill="#26938e" d="M 130.5,475.5 C 131.451,476.919 131.784,478.585 131.5,480.5C 130.637,481.463 129.97,481.463 129.5,480.5C 130.309,478.929 130.643,477.262 130.5,475.5 Z"/></g>
<g><path style="opacity:0.004" fill="#25938d" d="M 853.5,478.5 C 854.833,479.167 854.833,479.167 853.5,478.5 Z"/></g>
<g><path style="opacity:0.004" fill="#259690" d="M 258.5,479.5 C 258.103,480.525 257.437,480.692 256.5,480C 257.094,479.536 257.761,479.369 258.5,479.5 Z"/></g>
<g><path style="opacity:0.004" fill="#2a9993" d="M 794.5,480.5 C 795.833,481.167 795.833,481.167 794.5,480.5 Z"/></g>
<g><path style="opacity:0.012" fill="#28968c" d="M 816.5,480.5 C 817.833,481.167 817.833,481.167 816.5,480.5 Z"/></g>
<g><path style="opacity:0.004" fill="#289992" d="M 816.5,481.5 C 815.833,482.167 815.833,482.167 816.5,481.5 Z"/></g>
<g><path style="opacity:0.004" fill="#279189" d="M 671.5,482.5 C 672.833,483.167 672.833,483.167 671.5,482.5 Z"/></g>
<g><path style="opacity:0.008" fill="#279991" d="M 817.5,482.5 C 818.833,483.167 818.833,483.167 817.5,482.5 Z"/></g>
<g><path style="opacity:0.808" fill="#1c6e60" d="M 169.5,457.5 C 171.035,472.181 172.701,486.848 174.5,501.5C 174.649,502.552 174.483,503.552 174,504.5C 170.63,488.811 169.13,473.144 169.5,457.5 Z"/></g>
<g><path style="opacity:0.863" fill="#1b6d5f" d="M 813.5,463.5 C 813.833,463.5 814.167,463.5 814.5,463.5C 814.163,467.308 814.663,470.974 816,474.5C 822.805,483.939 829.971,493.105 837.5,502C 839.5,502.667 841.5,502.667 843.5,502C 847.27,498.956 849.27,495.122 849.5,490.5C 849.833,490.5 850.167,490.5 850.5,490.5C 851.082,498.368 847.582,503.034 840,504.5C 838.013,503.782 836.179,502.782 834.5,501.5C 830.446,496.457 826.446,491.457 822.5,486.5C 819.162,481.651 815.996,476.651 813,471.5C 812.278,468.739 812.445,466.073 813.5,463.5 Z"/></g>
<g><path style="opacity:0.008" fill="#268e86" d="M 129.5,482.5 C 130.598,483.601 130.765,484.934 130,486.5C 128.489,485.436 128.323,484.103 129.5,482.5 Z"/></g>
<g><path style="opacity:0.004" fill="#259690" d="M 173.5,485.5 C 174.833,486.167 174.833,486.167 173.5,485.5 Z"/></g>
<g><path style="opacity:0.008" fill="#289990" d="M 796.5,485.5 C 797.833,486.167 797.833,486.167 796.5,485.5 Z"/></g>
<g><path style="opacity:0.004" fill="#269a93" d="M 822.5,486.5 C 821.833,487.167 821.833,487.167 822.5,486.5 Z"/></g>
<g><path style="opacity:0.004" fill="#248d86" d="M 129.5,487.5 C 130.833,488.167 130.833,488.167 129.5,487.5 Z"/></g>
<g><path style="opacity:0.004" fill="#269690" d="M 174.5,488.5 C 175.525,488.897 175.692,489.563 175,490.5C 174.536,489.906 174.369,489.239 174.5,488.5 Z"/></g>
<g><path style="opacity:0.004" fill="#279992" d="M 264.5,488.5 C 263.833,489.167 263.833,489.167 264.5,488.5 Z"/></g>
<g><path style="opacity:0.008" fill="#289890" d="M 266.5,490.5 C 266.103,491.525 265.437,491.692 264.5,491C 265.094,490.536 265.761,490.369 266.5,490.5 Z"/></g>
<g><path style="opacity:1" fill="#1d6b5e" d="M 136.5,517.5 C 134.421,507.948 133.088,498.281 132.5,488.5C 132.343,487.127 132.51,485.793 133,484.5C 134.554,494.325 136.054,504.158 137.5,514C 137.486,515.385 137.152,516.551 136.5,517.5 Z"/></g>
<g><path style="opacity:0.016" fill="#269790" d="M 289.5,492.5 C 290.833,493.167 290.833,493.167 289.5,492.5 Z"/></g>
<g><path style="opacity:0.008" fill="#299892" d="M 825.5,492.5 C 826.833,493.167 826.833,493.167 825.5,492.5 Z"/></g>
<g><path style="opacity:0.004" fill="#289991" d="M 286.5,493.5 C 287.833,494.167 287.833,494.167 286.5,493.5 Z"/></g>
<g><path style="opacity:0.004" fill="#258e86" d="M 130.5,494.5 C 131.833,495.167 131.833,495.167 130.5,494.5 Z"/></g>
<g><path style="opacity:0.009" fill="#299892" d="M 286.5,494.5 C 285.749,495.573 284.749,495.74 283.5,495C 284.448,494.517 285.448,494.351 286.5,494.5 Z"/></g>
<g><path style="opacity:0.004" fill="#27948e" d="M 292.5,494.5 C 293.833,495.167 293.833,495.167 292.5,494.5 Z"/></g>
<g><path style="opacity:0.004" fill="#269795" d="M 805.5,495.5 C 806.833,496.167 806.833,496.167 805.5,495.5 Z"/></g>
<g><path style="opacity:0.004" fill="#258f88" d="M 131.5,499.5 C 132.598,500.601 132.765,501.934 132,503.5C 131.51,502.207 131.343,500.873 131.5,499.5 Z"/></g>
<g><path style="opacity:0.008" fill="#289891" d="M 813.5,503.5 C 814.833,504.167 814.833,504.167 813.5,503.5 Z"/></g>
<g><path style="opacity:0.004" fill="#25948c" d="M 659.5,506.5 C 658.833,505.167 658.833,505.167 659.5,506.5 Z"/></g>
<g><path style="opacity:0.004" fill="#299b92" d="M 818.5,512.5 C 819.833,513.167 819.833,513.167 818.5,512.5 Z"/></g>
<g><path style="opacity:0.004" fill="#27948d" d="M 827.5,522.5 C 828.833,523.167 828.833,523.167 827.5,522.5 Z"/></g>
<g><path style="opacity:0.012" fill="#26978f" d="M 180.5,525.5 C 181.833,526.167 181.833,526.167 180.5,525.5 Z"/></g>
<g><path style="opacity:0.004" fill="#269590" d="M 315.5,527.5 C 316.833,528.167 316.833,528.167 315.5,527.5 Z"/></g>
<g><path style="opacity:0.004" fill="#26948c" d="M 317.5,527.5 C 318.833,528.167 318.833,528.167 317.5,527.5 Z"/></g>
<g><path style="opacity:0.714" fill="#1b695d" d="M 146.5,566.5 C 144.611,558.359 142.611,550.359 140.5,542.5C 139.37,535.518 138.37,528.518 137.5,521.5C 137.351,520.448 137.517,519.448 138,518.5C 141.166,533.831 144.333,549.164 147.5,564.5C 147.457,565.416 147.124,566.083 146.5,566.5 Z"/></g>
<g><path style="opacity:0.004" fill="#27948d" d="M 332.5,528.5 C 333.833,529.167 333.833,529.167 332.5,528.5 Z"/></g>
<g><path style="opacity:0.004" fill="#28958e" d="M 311.5,530.5 C 311.897,529.475 312.563,529.308 313.5,530C 312.906,530.464 312.239,530.631 311.5,530.5 Z"/></g>
<g><path style="opacity:0.998" fill="#22948e" d="M 328.5,529.5 C 329.492,529.328 330.158,529.662 330.5,530.5C 330.062,530.435 329.728,530.601 329.5,531C 342.432,537.381 345.932,547.214 340,560.5C 328.922,572.126 317.922,572.126 307,560.5C 301.34,541.321 308.507,530.987 328.5,529.5 Z"/></g>
<g><path style="opacity:0.006" fill="#248d87" d="M 137.5,533.5 C 138.776,534.386 138.776,535.386 137.5,536.5C 136.913,535.767 136.913,534.767 137.5,533.5 Z"/></g>
<g><path style="opacity:0.004" fill="#28948c" d="M 635.5,536.5 C 636.833,537.167 636.833,537.167 635.5,536.5 Z"/></g>
<g><path style="opacity:0.004" fill="#28978f" d="M 835.5,537.5 C 836.833,538.167 836.833,538.167 835.5,537.5 Z"/></g>
<g><path style="opacity:0.004" fill="#258b85" d="M 135.5,538.5 C 136.833,539.167 136.833,539.167 135.5,538.5 Z"/></g>
<g><path style="opacity:0.949" fill="#1b6b5e" d="M 858.5,698.5 C 858.137,693.201 857.47,687.868 856.5,682.5C 856.173,675.698 855.006,669.031 853,662.5C 852.333,663.833 851.667,663.833 851,662.5C 850.517,661.552 850.351,660.552 850.5,659.5C 850.833,659.5 851.167,659.5 851.5,659.5C 851.31,656.145 850.31,653.145 848.5,650.5C 847.63,645.777 845.964,641.444 843.5,637.5C 839.626,627.081 834.292,616.415 827.5,605.5C 823.583,597.325 818.917,589.659 813.5,582.5C 812.66,580.147 811.326,578.147 809.5,576.5C 808.66,574.147 807.326,572.147 805.5,570.5C 805.155,567.802 803.822,565.802 801.5,564.5C 801.672,563.508 801.338,562.842 800.5,562.5C 799.974,560.77 798.974,559.436 797.5,558.5C 796.567,555.63 794.9,553.296 792.5,551.5C 787.268,542.603 781.268,534.27 774.5,526.5C 768.315,517.464 761.648,508.797 754.5,500.5C 751.926,495.591 748.592,491.258 744.5,487.5C 742.206,483.76 739.54,480.26 736.5,477C 735.251,476.26 734.251,476.427 733.5,477.5C 732.833,477.5 732.5,477.833 732.5,478.5C 730.738,479.262 729.738,480.596 729.5,482.5C 727.453,484.55 725.786,486.883 724.5,489.5C 721.152,492.851 718.152,496.518 715.5,500.5C 714.475,500.103 714.308,499.437 715,498.5C 720.785,490.379 726.952,482.546 733.5,475C 734.833,474.333 736.167,474.333 737.5,475C 767.989,512.154 796.155,550.988 822,591.5C 835.428,614.024 846.428,637.691 855,662.5C 856.72,670.102 858.054,677.768 859,685.5C 860.03,693.38 859.864,697.714 858.5,698.5 Z"/></g>
<g><path style="opacity:0.004" fill="#248c85" d="M 135.5,541.5 C 135.897,540.475 136.563,540.308 137.5,541C 136.906,541.464 136.239,541.631 135.5,541.5 Z"/></g>
<g><path style="opacity:0.004" fill="#2a9993" d="M 262.5,540.5 C 263.833,541.167 263.833,541.167 262.5,540.5 Z"/></g>
<g><path style="opacity:0.004" fill="#248e87" d="M 140.5,542.5 C 140.44,543.043 140.107,543.376 139.5,543.5C 138.756,542.009 138.09,540.509 137.5,539C 137.833,538.833 138.167,538.667 138.5,538.5C 139.172,539.949 139.839,541.282 140.5,542.5 Z"/></g>
<g><path style="opacity:0.008" fill="#26958f" d="M 838.5,541.5 C 839.833,542.167 839.833,542.167 838.5,541.5 Z"/></g>
<g><path style="opacity:0.998" fill="#22958e" d="M 244.5,542.5 C 245.209,541.596 246.209,541.263 247.5,541.5C 268.675,542.835 275.509,553.502 268,573.5C 262.245,580.037 255.078,582.203 246.5,580C 232.804,572.383 230.137,561.883 238.5,548.5C 240.754,546.081 243.421,544.248 246.5,543C 245.906,542.536 245.239,542.369 244.5,542.5 Z"/></g>
<g><path style="opacity:0.008" fill="#289a95" d="M 266.5,543.5 C 267.833,544.167 267.833,544.167 266.5,543.5 Z"/></g>
<g><path style="opacity:0.004" fill="#279892" d="M 238.5,545.5 C 237.833,544.167 237.833,544.167 238.5,545.5 Z"/></g>
<g><path style="opacity:0.616" fill="#1c6f63" d="M 238.5,545.5 C 240.517,544.471 242.517,543.471 244.5,542.5C 245.239,542.369 245.906,542.536 246.5,543C 243.421,544.248 240.754,546.081 238.5,548.5C 230.137,561.883 232.804,572.383 246.5,580C 255.078,582.203 262.245,580.037 268,573.5C 275.509,553.502 268.675,542.835 247.5,541.5C 262.674,539.311 271.341,545.977 273.5,561.5C 270.841,578.493 261.174,584.993 244.5,581C 235.193,576.359 231.026,568.859 232,558.5C 233.121,553.592 235.287,549.259 238.5,545.5 Z"/></g>
<g><path style="opacity:0.004" fill="#27938b" d="M 841.5,546.5 C 842.833,547.167 842.833,547.167 841.5,546.5 Z"/></g>
<g><path style="opacity:0.753" fill="#1a6b5e" d="M 760.5,440.5 C 772.125,456.125 784.125,471.459 796.5,486.5C 811.756,506.693 826.756,527.027 841.5,547.5C 856.164,570.145 869.331,593.811 881,618.5C 886.471,630.747 890.638,643.413 893.5,656.5C 893.631,657.239 893.464,657.906 893,658.5C 890.126,648.001 886.793,637.668 883,627.5C 872.558,603.946 860.558,581.28 847,559.5C 818.539,518.369 788.539,478.369 757,439.5C 753.799,435.964 750.299,432.797 746.5,430C 734.76,425.097 724.593,427.263 716,436.5C 676.81,484.543 640.81,534.877 608,587.5C 595.952,608.373 586.619,630.373 580,653.5C 579.536,652.906 579.369,652.239 579.5,651.5C 581.902,641.629 584.902,631.963 588.5,622.5C 591.403,617.023 594.07,611.357 596.5,605.5C 600.496,598.174 604.496,590.841 608.5,583.5C 624.752,557.327 641.752,531.66 659.5,506.5C 677.313,483.569 695.147,460.569 713,437.5C 724.548,423.775 737.714,421.942 752.5,432C 754.667,435.333 757.334,438.166 760.5,440.5 Z"/></g>
<g><path style="opacity:1" fill="#1b6d5f" d="M 713.5,502.5 C 711.833,505.167 710.167,507.833 708.5,510.5C 706.147,512.86 704.147,515.527 702.5,518.5C 699.601,521.952 696.934,525.618 694.5,529.5C 685.108,541.27 676.441,553.604 668.5,566.5C 654.925,585.966 642.592,606.299 631.5,627.5C 630.957,627.44 630.624,627.107 630.5,626.5C 654.398,581.852 682.065,540.519 713.5,502.5 Z"/></g>
<g><path style="opacity:0.016" fill="#279791" d="M 733.5,477.5 C 734.773,478.077 734.773,478.743 733.5,479.5C 732.893,479.376 732.56,479.043 732.5,478.5C 733.167,478.5 733.5,478.167 733.5,477.5 Z"/></g>
<g><path style="opacity:0.941" fill="#1c6f63" d="M 328.5,529.5 C 308.507,530.987 301.34,541.321 307,560.5C 317.922,572.126 328.922,572.126 340,560.5C 345.932,547.214 342.432,537.381 329.5,531C 329.728,530.601 330.062,530.435 330.5,530.5C 339.907,533.447 344.574,539.947 344.5,550C 343.461,563.538 336.128,570.371 322.5,570.5C 318.976,570.599 315.643,569.933 312.5,568.5C 312.027,567.094 311.027,566.427 309.5,566.5C 300.264,555.649 300.264,544.815 309.5,534C 315.154,529.275 321.488,527.775 328.5,529.5 Z"/></g>
<g><path style="opacity:0.004" fill="#26908c" d="M 341.5,562.5 C 342.833,563.167 342.833,563.167 341.5,562.5 Z"/></g>
<g><path style="opacity:0.012" fill="#269790" d="M 304.5,563.5 C 305.833,564.167 305.833,564.167 304.5,563.5 Z"/></g>
<g><path style="opacity:0.004" fill="#279590" d="M 303.5,566.5 C 304.833,567.167 304.833,567.167 303.5,566.5 Z"/></g>
<g><path style="opacity:0.004" fill="#27948c" d="M 309.5,566.5 C 308.833,567.167 308.833,567.167 309.5,566.5 Z"/></g>
<g><path style="opacity:0.004" fill="#248f88" d="M 854.5,566.5 C 855.833,567.167 855.833,567.167 854.5,566.5 Z"/></g>
<g><path style="opacity:0.004" fill="#279490" d="M 312.5,568.5 C 312.5,568.833 312.5,569.167 312.5,569.5C 311.83,569.019 311.83,568.685 312.5,568.5 Z"/></g>
<g><path style="opacity:0.004" fill="#27958f" d="M 312.5,569.5 C 313.833,570.167 313.833,570.167 312.5,569.5 Z"/></g>
<g><path style="opacity:0.008" fill="#258f89" d="M 146.5,572.5 C 145.475,572.103 145.308,571.437 146,570.5C 146.464,571.094 146.631,571.761 146.5,572.5 Z"/></g>
<g><path style="opacity:0.004" fill="#29958e" d="M 326.5,571.5 C 327.833,572.167 327.833,572.167 326.5,571.5 Z"/></g>
<g><path style="opacity:0.004" fill="#258f86" d="M 146.5,572.5 C 146.833,572.5 147.167,572.5 147.5,572.5C 147.167,575.167 146.833,575.167 146.5,572.5 Z"/></g>
<g><path style="opacity:0.004" fill="#248b82" d="M 144.5,576.5 C 143.833,575.167 143.833,575.167 144.5,576.5 Z"/></g>
<g><path style="opacity:0.01" fill="#299893" d="M 463.5,576.5 C 463.897,575.475 464.563,575.308 465.5,576C 464.906,576.464 464.239,576.631 463.5,576.5 Z"/></g>
<g><path style="opacity:0.985" fill="#196357" d="M 501.5,575.5 C 494.167,576.833 486.833,576.833 479.5,575.5C 486.915,574.248 494.249,574.248 501.5,575.5 Z"/></g>
<g><path style="opacity:0.004" fill="#25938f" d="M 516.5,576.5 C 516.897,575.475 517.563,575.308 518.5,576C 517.906,576.464 517.239,576.631 516.5,576.5 Z"/></g>
<g><path style="opacity:0.004" fill="#238b84" d="M 144.5,576.5 C 145.833,577.167 145.833,577.167 144.5,576.5 Z"/></g>
<g><path style="opacity:0.004" fill="#258f88" d="M 147.5,577.5 C 148.833,578.167 148.833,578.167 147.5,577.5 Z"/></g>
<g><path style="opacity:1" fill="#196b5f" d="M 507.5,576.5 C 510.57,576.368 513.57,576.701 516.5,577.5C 512.277,578.728 507.944,578.561 503.5,577C 504.793,576.51 506.127,576.343 507.5,576.5 Z"/></g>
<g><path style="opacity:0.004" fill="#25948c" d="M 609.5,577.5 C 610.833,578.167 610.833,578.167 609.5,577.5 Z"/></g>
<g><path style="opacity:1" fill="#1c6f62" d="M 472.5,576.5 C 474.199,576.34 475.866,576.506 477.5,577C 469.902,578.016 462.402,579.516 455,581.5C 453.93,581.472 453.097,581.139 452.5,580.5C 458.962,578.274 465.628,576.941 472.5,576.5 Z"/></g>
<g><path style="opacity:0.004" fill="#289994" d="M 242.5,581.5 C 243.833,582.167 243.833,582.167 242.5,581.5 Z"/></g>
<g><path style="opacity:0.006" fill="#279a93" d="M 244.5,583.5 C 244.897,582.475 245.563,582.308 246.5,583C 245.906,583.464 245.239,583.631 244.5,583.5 Z"/></g>
<g><path style="opacity:0.004" fill="#259791" d="M 608.5,583.5 C 607.833,582.167 607.833,582.167 608.5,583.5 Z"/></g>
<g><path style="opacity:0.004" fill="#24938b" d="M 431.5,583.5 C 432.833,584.167 432.833,584.167 431.5,583.5 Z"/></g>
<g><path style="opacity:0.004" fill="#259892" d="M 197.5,590.5 C 196.833,589.167 196.833,589.167 197.5,590.5 Z"/></g>
<g><path style="opacity:0.004" fill="#269a94" d="M 197.5,590.5 C 198.833,591.167 198.833,591.167 197.5,590.5 Z"/></g>
<g><path style="opacity:0.008" fill="#29958f" d="M 424.5,592.5 C 423.833,591.167 423.833,591.167 424.5,592.5 Z"/></g>
<g><path style="opacity:0.004" fill="#25938b" d="M 560.5,592.5 C 561.833,593.167 561.833,593.167 560.5,592.5 Z"/></g>
<g><path style="opacity:0.004" fill="#249087" d="M 152.5,596.5 C 153.833,597.167 153.833,597.167 152.5,596.5 Z"/></g>
<g><path style="opacity:0.012" fill="#248f88" d="M 153.5,599.5 C 154.833,600.167 154.833,600.167 153.5,599.5 Z"/></g>
<g><path style="opacity:0.004" fill="#228c85" d="M 151.5,600.5 C 152.525,600.897 152.692,601.563 152,602.5C 151.536,601.906 151.369,601.239 151.5,600.5 Z"/></g>
<g><path style="opacity:0.004" fill="#28968e" d="M 596.5,605.5 C 595.833,604.167 595.833,604.167 596.5,605.5 Z"/></g>
<g><path style="opacity:0.012" fill="#258e88" d="M 155.5,605.5 C 156.525,605.897 156.692,606.563 156,607.5C 155.536,606.906 155.369,606.239 155.5,605.5 Z"/></g>
<g><path style="opacity:0.004" fill="#279288" d="M 405.5,608.5 C 404.833,607.167 404.833,607.167 405.5,608.5 Z"/></g>
<g><path style="opacity:0.416" fill="#1c7063" d="M 520.5,578.5 C 527.716,579.721 534.716,581.721 541.5,584.5C 542.086,584.291 542.586,583.957 543,583.5C 548.446,587.474 554.279,590.807 560.5,593.5C 563.305,596.831 566.472,599.831 570,602.5C 572.893,607.314 573.226,612.314 571,617.5C 567.805,625.391 563.972,632.891 559.5,640C 557.167,640.667 554.833,640.667 552.5,640C 549.236,636.227 545.57,633.06 541.5,630.5C 539.664,628.412 537.331,627.079 534.5,626.5C 525.681,621.632 516.348,618.298 506.5,616.5C 507.5,616.5 508.5,616.5 509.5,616.5C 526.53,618.348 540.863,625.515 552.5,638C 555.719,640.045 558.552,639.545 561,636.5C 564.333,628.5 567.667,620.5 571,612.5C 571.552,609.581 570.885,606.914 569,604.5C 565.466,600.631 561.633,597.131 557.5,594C 545.02,586.838 531.687,581.838 517.5,579C 518.448,578.517 519.448,578.351 520.5,578.5 Z"/></g>
<g><path style="opacity:0.004" fill="#28938f" d="M 573.5,607.5 C 574.833,608.167 574.833,608.167 573.5,607.5 Z"/></g>
<g><path style="opacity:0.961" fill="#186456" d="M 509.5,616.5 C 508.5,616.5 507.5,616.5 506.5,616.5C 498.514,615.901 490.514,615.568 482.5,615.5C 483.365,614.597 486.365,614.263 491.5,614.5C 497.74,614.333 503.74,615 509.5,616.5 Z"/></g>
<g><path style="opacity:0.004" fill="#299a94" d="M 302.5,616.5 C 302.897,615.475 303.563,615.308 304.5,616C 303.906,616.464 303.239,616.631 302.5,616.5 Z"/></g>
<g><path style="opacity:0.004" fill="#289994" d="M 314.5,615.5 C 315.833,616.167 315.833,616.167 314.5,615.5 Z"/></g>
<g><path style="opacity:0.341" fill="#299a94" d="M 314.5,616.5 C 314.5,616.833 314.5,617.167 314.5,617.5C 311.5,617.5 308.5,617.5 305.5,617.5C 305.369,616.761 305.536,616.094 306,615.5C 308.719,616.444 311.552,616.777 314.5,616.5 Z"/></g>
<g><path style="opacity:0.004" fill="#258c81" d="M 881.5,616.5 C 882.833,617.167 882.833,617.167 881.5,616.5 Z"/></g>
<g><path style="opacity:0.004" fill="#28958f" d="M 320.5,617.5 C 321.833,618.167 321.833,618.167 320.5,617.5 Z"/></g>
<g><path style="opacity:0.765" fill="#1d7063" d="M 477.5,616.5 C 463.386,618.562 450.719,623.895 439.5,632.5C 439.062,632.565 438.728,632.399 438.5,632C 449.785,621.971 462.785,616.805 477.5,616.5 Z"/></g>
<g><path style="opacity:0.004" fill="#2a9791" d="M 468.5,619.5 C 469.833,620.167 469.833,620.167 468.5,619.5 Z"/></g>
<g><path style="opacity:0.004" fill="#259186" d="M 160.5,620.5 C 161.833,621.167 161.833,621.167 160.5,620.5 Z"/></g>
<g><path style="opacity:0.816" fill="#1a6c60" d="M 175.5,505.5 C 184.069,560.04 200.569,612.04 225,661.5C 232.678,674.861 241.345,687.528 251,699.5C 257.07,706.074 263.57,712.074 270.5,717.5C 271.436,718.974 272.77,719.974 274.5,720.5C 284.717,728.772 296.384,734.105 309.5,736.5C 308.054,737.613 306.387,737.78 304.5,737C 290.611,733.556 278.278,727.223 267.5,718C 241.443,693.756 221.943,664.922 209,631.5C 192.109,590.718 180.943,548.718 175.5,505.5 Z"/></g>
<g><path style="opacity:0.004" fill="#279990" d="M 570.5,620.5 C 571.833,621.167 571.833,621.167 570.5,620.5 Z"/></g>
<g><path style="opacity:0.004" fill="#25958f" d="M 462.5,621.5 C 463.833,622.167 463.833,622.167 462.5,621.5 Z"/></g>
<g><path style="opacity:0.004" fill="#299992" d="M 588.5,622.5 C 587.833,621.167 587.833,621.167 588.5,622.5 Z"/></g>
<g><path style="opacity:0.008" fill="#288e87" d="M 161.5,622.5 C 162.833,623.167 162.833,623.167 161.5,622.5 Z"/></g>
<g><path style="opacity:0.004" fill="#269795" d="M 520.5,621.5 C 521.525,621.897 521.692,622.563 521,623.5C 520.536,622.906 520.369,622.239 520.5,621.5 Z"/></g>
<g><path style="opacity:0.918" fill="#1c6c5e" d="M 450.5,581.5 C 426.459,590.244 407.292,605.91 393,628.5C 389.332,636.954 385.499,644.62 381.5,651.5C 386.652,635.525 394.652,621.191 405.5,608.5C 411.858,603.137 418.192,597.804 424.5,592.5C 432.685,587.742 441.352,584.075 450.5,581.5 Z"/></g>
<g><path style="opacity:0.004" fill="#29988f" d="M 534.5,626.5 C 533.833,627.167 533.833,627.167 534.5,626.5 Z"/></g>
<g><path style="opacity:0.004" fill="#289890" d="M 535.5,629.5 C 536.833,630.167 536.833,630.167 535.5,629.5 Z"/></g>
<g><path style="opacity:0.012" fill="#27948f" d="M 541.5,630.5 C 540.833,631.167 540.833,631.167 541.5,630.5 Z"/></g>
<g><path style="opacity:0.004" fill="#2a988e" d="M 544.5,634.5 C 545.833,635.167 545.833,635.167 544.5,634.5 Z"/></g>
<g><path style="opacity:0.957" fill="#1c6c5f" d="M 435.5,636.5 C 428.013,645.328 422.68,655.328 419.5,666.5C 415.936,674.519 412.936,682.852 410.5,691.5C 409.402,690.399 409.235,689.066 410,687.5C 413.136,677.759 416.469,668.092 420,658.5C 423.426,649.753 428.426,642.087 435,635.5C 435.399,635.728 435.565,636.062 435.5,636.5 Z"/></g>
<g><path style="opacity:0.008" fill="#269790" d="M 331.5,640.5 C 332.833,641.167 332.833,641.167 331.5,640.5 Z"/></g>
<g><path style="opacity:0.008" fill="#258f86" d="M 170.5,642.5 C 170.631,643.239 170.464,643.906 170,644.5C 169.308,643.563 169.475,642.897 170.5,642.5 Z"/></g>
<g><path style="opacity:0.004" fill="#2a978c" d="M 289.5,644.5 C 288.833,645.167 288.833,645.167 289.5,644.5 Z"/></g>
<g><path style="opacity:0.863" fill="#1c6c5e" d="M 305.5,617.5 C 308.5,617.5 311.5,617.5 314.5,617.5C 316.5,617.833 318.5,618.167 320.5,618.5C 333.665,629.647 334.331,641.48 322.5,654C 308.352,661.548 297.352,658.381 289.5,644.5C 287.412,635.354 289.745,627.52 296.5,621C 299.148,618.95 302.148,617.784 305.5,617.5 Z"/></g>
<g><path style="opacity:0.998" fill="#22958e" d="M 304.5,618.5 C 320.965,617.468 329.132,625.134 329,641.5C 325.017,652.47 317.183,657.303 305.5,656C 292.88,651.81 288.38,643.31 292,630.5C 294.769,624.895 298.936,620.895 304.5,618.5 Z"/></g>
<g><path style="opacity:0.004" fill="#238d83" d="M 176.5,656.5 C 175.833,657.167 175.833,657.167 176.5,656.5 Z"/></g>
<g><path style="opacity:0.004" fill="#2b9992" d="M 303.5,658.5 C 304.833,659.167 304.833,659.167 303.5,658.5 Z"/></g>
<g><path style="opacity:1" fill="#1c7266" d="M 578.5,654.5 C 579.139,655.097 579.472,655.93 579.5,657C 578.096,663.624 576.762,670.124 575.5,676.5C 575.5,675.833 575.167,675.5 574.5,675.5C 575.326,668.374 576.659,661.374 578.5,654.5 Z"/></g>
<g><path style="opacity:0.004" fill="#268d87" d="M 176.5,659.5 C 177.833,660.167 177.833,660.167 176.5,659.5 Z"/></g>
<g><path style="opacity:0.004" fill="#258e85" d="M 178.5,661.5 C 177.833,662.167 177.833,662.167 178.5,661.5 Z"/></g>
<g><path style="opacity:0.667" fill="#1d7164" d="M 629.5,631.5 C 622.455,646.963 617.455,662.963 614.5,679.5C 614.768,677.901 614.434,676.568 613.5,675.5C 616.768,659.53 621.935,644.197 629,629.5C 629.464,630.094 629.631,630.761 629.5,631.5 Z"/></g>
<g><path style="opacity:0.004" fill="#26928d" d="M 421.5,662.5 C 422.833,663.167 422.833,663.167 421.5,662.5 Z"/></g>
<g><path style="opacity:0.004" fill="#248883" d="M 175.5,666.5 C 176.833,667.167 176.833,667.167 175.5,666.5 Z"/></g>
<g><path style="opacity:0.008" fill="#27938a" d="M 419.5,666.5 C 420.833,667.167 420.833,667.167 419.5,666.5 Z"/></g>
<g><path style="opacity:0.004" fill="#248b82" d="M 180.5,668.5 C 181.833,669.167 181.833,669.167 180.5,668.5 Z"/></g>
<g><path style="opacity:1" fill="#1c6d5f" d="M 380.5,653.5 C 381.097,653.735 381.43,654.235 381.5,655C 378.077,665.857 374.577,676.69 371,687.5C 365.676,706.002 355.509,721.169 340.5,733C 335.694,736.133 330.694,737.3 325.5,736.5C 337.552,734.105 346.885,727.772 353.5,717.5C 358.264,711.864 362.098,705.531 365,698.5C 370.631,683.634 375.798,668.634 380.5,653.5 Z"/></g>
<g><path style="opacity:0.004" fill="#248d86" d="M 184.5,676.5 C 185.833,677.167 185.833,677.167 184.5,676.5 Z"/></g>
<g><path style="opacity:0.004" fill="#299991" d="M 237.5,678.5 C 238.833,679.167 238.833,679.167 237.5,678.5 Z"/></g>
<g><path style="opacity:0.004" fill="#279a92" d="M 368.5,681.5 C 369.833,682.167 369.833,682.167 368.5,681.5 Z"/></g>
<g><path style="opacity:0.004" fill="#29958e" d="M 571.5,682.5 C 572.833,683.167 572.833,683.167 571.5,682.5 Z"/></g>
<g><path style="opacity:0.851" fill="#1a6759" d="M 894.5,659.5 C 896.855,668.651 898.188,677.984 898.5,687.5C 898.167,687.5 897.833,687.5 897.5,687.5C 896.428,679.139 895.095,670.806 893.5,662.5C 893.52,661.274 893.853,660.274 894.5,659.5 Z"/></g>
<g><path style="opacity:0.004" fill="#248980" d="M 191.5,688.5 C 192.833,689.167 192.833,689.167 191.5,688.5 Z"/></g>
<g><path style="opacity:0.988" fill="#1d6859" d="M 574.5,675.5 C 575.167,675.5 575.5,675.833 575.5,676.5C 574.959,685.491 574.626,694.491 574.5,703.5C 574.768,705.099 574.434,706.432 573.5,707.5C 572.668,696.805 573.002,686.139 574.5,675.5 Z"/></g>
<g><path style="opacity:0.953" fill="#165f51" d="M 613.5,675.5 C 614.434,676.568 614.768,677.901 614.5,679.5C 613.789,687.314 613.455,694.981 613.5,702.5C 613.768,704.099 613.434,705.432 612.5,706.5C 612.328,696.143 612.661,685.81 613.5,675.5 Z"/></g>
<g><path style="opacity:0.004" fill="#268c85" d="M 193.5,693.5 C 192.833,692.167 192.833,692.167 193.5,693.5 Z"/></g>
<g><path style="opacity:0.004" fill="#248983" d="M 193.5,693.5 C 194.833,694.167 194.833,694.167 193.5,693.5 Z"/></g>
<g><path style="opacity:0.004" fill="#289791" d="M 363.5,696.5 C 364.833,697.167 364.833,697.167 363.5,696.5 Z"/></g>
<g><path style="opacity:0.01" fill="#269993" d="M 359.5,697.5 C 360.525,697.897 360.692,698.563 360,699.5C 359.536,698.906 359.369,698.239 359.5,697.5 Z"/></g>
<g><path style="opacity:0.012" fill="#299890" d="M 361.5,700.5 C 362.833,701.167 362.833,701.167 361.5,700.5 Z"/></g>
<g><path style="opacity:0.962" fill="#1a5a4b" d="M 897.5,687.5 C 897.833,687.5 898.167,687.5 898.5,687.5C 899.779,694.495 899.779,701.495 898.5,708.5C 898.167,708.5 897.833,708.5 897.5,708.5C 897.5,701.5 897.5,694.5 897.5,687.5 Z"/></g>
<g><path style="opacity:0.004" fill="#269a93" d="M 359.5,702.5 C 360.833,703.167 360.833,703.167 359.5,702.5 Z"/></g>
<g><path style="opacity:0.004" fill="#248a83" d="M 200.5,703.5 C 201.833,704.167 201.833,704.167 200.5,703.5 Z"/></g>
<g><path style="opacity:0.004" fill="#279790" d="M 261.5,703.5 C 262.833,704.167 262.833,704.167 261.5,703.5 Z"/></g>
<g><path style="opacity:0.004" fill="#238a82" d="M 201.5,706.5 C 202.833,707.167 202.833,707.167 201.5,706.5 Z"/></g>
<g><path style="opacity:0.004" fill="#228680" d="M 204.5,706.5 C 203.833,707.167 203.833,707.167 204.5,706.5 Z"/></g>
<g><path style="opacity:0.004" fill="#27918a" d="M 571.5,707.5 C 572.833,708.167 572.833,708.167 571.5,707.5 Z"/></g>
<g><path style="opacity:0.016" fill="#269088" d="M 404.5,710.5 C 405.833,711.167 405.833,711.167 404.5,710.5 Z"/></g>
<g><path style="opacity:0.004" fill="#248f88" d="M 899.5,709.5 C 900.525,709.897 900.692,710.563 900,711.5C 899.536,710.906 899.369,710.239 899.5,709.5 Z"/></g>
<g><path style="opacity:0.008" fill="#258a85" d="M 208.5,713.5 C 207.833,712.167 207.833,712.167 208.5,713.5 Z"/></g>
<g><path style="opacity:0.004" fill="#238d83" d="M 403.5,712.5 C 404.833,713.167 404.833,713.167 403.5,712.5 Z"/></g>
<g><path style="opacity:0.004" fill="#228883" d="M 208.5,713.5 C 208.833,713.5 209.167,713.5 209.5,713.5C 209.315,714.17 208.981,714.17 208.5,713.5 Z"/></g>
<g><path style="opacity:0.816" fill="#1a695d" d="M 325.5,777.5 C 305,778.628 286.333,774.795 269.5,766C 268.906,765.536 268.239,765.369 267.5,765.5C 266.713,763.896 265.38,763.229 263.5,763.5C 256.205,758.179 248.871,752.845 241.5,747.5C 236.859,743.195 232.193,738.861 227.5,734.5C 227.5,733.833 227.167,733.5 226.5,733.5C 223.391,729.603 220.057,725.936 216.5,722.5C 216.262,720.596 215.262,719.262 213.5,718.5C 212.396,716.611 211.063,714.945 209.5,713.5C 208.214,710.883 206.547,708.55 204.5,706.5C 195.06,691.955 186.394,676.955 178.5,661.5C 178.598,659.447 177.931,657.78 176.5,656.5C 175.012,651.533 173.012,646.866 170.5,642.5C 161.607,619.49 153.941,596.156 147.5,572.5C 147.5,571.5 147.5,570.5 147.5,569.5C 147.369,568.761 147.536,568.094 148,567.5C 156.285,599.024 166.952,629.691 180,659.5C 194.643,692.809 215.476,721.642 242.5,746C 266.406,766.468 294.073,776.968 325.5,777.5 Z"/></g>
<g><path style="opacity:0.988" fill="#1d6d5f" d="M 897.5,708.5 C 897.833,708.5 898.167,708.5 898.5,708.5C 897.986,718.398 896.32,728.065 893.5,737.5C 892.861,736.903 892.528,736.07 892.5,735C 894.55,726.191 896.217,717.358 897.5,708.5 Z"/></g>
<g><path style="opacity:0.004" fill="#248b85" d="M 899.5,714.5 C 900.833,715.167 900.833,715.167 899.5,714.5 Z"/></g>
<g><path style="opacity:0.008" fill="#238983" d="M 208.5,715.5 C 209.833,716.167 209.833,716.167 208.5,715.5 Z"/></g>
<g><path style="opacity:0.004" fill="#27978d" d="M 270.5,716.5 C 271.833,717.167 271.833,717.167 270.5,716.5 Z"/></g>
<g><path style="opacity:0.004" fill="#26988f" d="M 353.5,717.5 C 352.833,716.167 352.833,716.167 353.5,717.5 Z"/></g>
<g><path style="opacity:0.016" fill="#248982" d="M 213.5,718.5 C 212.833,719.167 212.833,719.167 213.5,718.5 Z"/></g>
<g><path style="opacity:0.008" fill="#289088" d="M 572.5,718.5 C 573.833,719.167 573.833,719.167 572.5,718.5 Z"/></g>
<g><path style="opacity:0.008" fill="#259a93" d="M 274.5,719.5 C 275.833,720.167 275.833,720.167 274.5,719.5 Z"/></g>
<g><path style="opacity:0.004" fill="#258a84" d="M 216.5,722.5 C 215.833,723.167 215.833,723.167 216.5,722.5 Z"/></g>
<g><path style="opacity:0.873" fill="#1b6b5f" d="M 752.5,814.5 C 759.506,813.749 766.172,812.082 772.5,809.5C 780.381,807.656 787.714,804.656 794.5,800.5C 799.226,798.812 803.226,796.145 806.5,792.5C 809.533,790.984 812.2,788.984 814.5,786.5C 837.246,768.108 851.246,743.774 856.5,713.5C 857.222,713.082 857.722,712.416 858,711.5C 850.517,756.991 825.684,789.158 783.5,808C 774.605,811.521 765.438,814.021 756,815.5C 754.615,815.486 753.449,815.152 752.5,814.5 Z"/></g>
<g><path style="opacity:0.004" fill="#268c83" d="M 216.5,724.5 C 217.833,725.167 217.833,725.167 216.5,724.5 Z"/></g>
<g><path style="opacity:0.008" fill="#26998f" d="M 338.5,729.5 C 339.833,730.167 339.833,730.167 338.5,729.5 Z"/></g>
<g><path style="opacity:0.008" fill="#238c86" d="M 226.5,733.5 C 227.167,733.5 227.5,733.833 227.5,734.5C 226.749,735.573 225.749,735.74 224.5,735C 225.044,734.283 225.711,733.783 226.5,733.5 Z"/></g>
<g><path style="opacity:0.008" fill="#27928a" d="M 575.5,733.5 C 576.833,734.167 576.833,734.167 575.5,733.5 Z"/></g>
<g><path style="opacity:0.925" fill="#1b6c5f" d="M 408.5,696.5 C 401.789,719.833 389.789,739.833 372.5,756.5C 372.062,756.565 371.728,756.399 371.5,756C 388.326,739.187 400.159,719.354 407,696.5C 407.779,693.903 408.279,693.903 408.5,696.5 Z"/></g>
<g><path style="opacity:0.825" fill="#186456" d="M 892.5,739.5 C 891.428,744.715 889.762,749.715 887.5,754.5C 886.957,754.44 886.624,754.107 886.5,753.5C 888.07,747.948 890.07,743.281 892.5,739.5 Z"/></g>
<g><path style="opacity:0.004" fill="#268e87" d="M 577.5,741.5 C 578.833,742.167 578.833,742.167 577.5,741.5 Z"/></g>
<g><path style="opacity:0.004" fill="#258b84" d="M 575.5,744.5 C 576.833,745.167 576.833,745.167 575.5,744.5 Z"/></g>
<g><path style="opacity:0.008" fill="#258d85" d="M 578.5,744.5 C 579.833,745.167 579.833,745.167 578.5,744.5 Z"/></g>
<g><path style="opacity:0.004" fill="#268c83" d="M 580.5,746.5 C 579.833,747.167 579.833,747.167 580.5,746.5 Z"/></g>
<g><path style="opacity:0.008" fill="#268b84" d="M 241.5,747.5 C 240.833,748.167 240.833,748.167 241.5,747.5 Z"/></g>
<g><path style="opacity:0.008" fill="#248b84" d="M 580.5,749.5 C 581.525,749.897 581.692,750.563 581,751.5C 580.536,750.906 580.369,750.239 580.5,749.5 Z"/></g>
<g><path style="opacity:0.004" fill="#258b84" d="M 583.5,759.5 C 584.833,760.167 584.833,760.167 583.5,759.5 Z"/></g>
<g><path style="opacity:0.008" fill="#268983" d="M 583.5,761.5 C 584.833,762.167 584.833,762.167 583.5,761.5 Z"/></g>
<g><path style="opacity:0.004" fill="#268c82" d="M 586.5,763.5 C 585.833,762.167 585.833,762.167 586.5,763.5 Z"/></g>
<g><path style="opacity:0.004" fill="#238983" d="M 263.5,763.5 C 262.833,764.167 262.833,764.167 263.5,763.5 Z"/></g>
<g><path style="opacity:0.01" fill="#248b84" d="M 586.5,763.5 C 586.833,763.5 587.167,763.5 587.5,763.5C 587.5,764.5 587.5,765.5 587.5,766.5C 586.596,765.791 586.263,764.791 586.5,763.5 Z"/></g>
<g><path style="opacity:0.008" fill="#268883" d="M 267.5,765.5 C 266.833,766.167 266.833,766.167 267.5,765.5 Z"/></g>
<g><path style="opacity:0.004" fill="#258b85" d="M 587.5,766.5 C 588.833,767.167 588.833,767.167 587.5,766.5 Z"/></g>
<g><path style="opacity:0.004" fill="#22918a" d="M 882.5,766.5 C 883.833,767.167 883.833,767.167 882.5,766.5 Z"/></g>
<g><path style="opacity:0.004" fill="#238c84" d="M 279.5,771.5 C 280.833,772.167 280.833,772.167 279.5,771.5 Z"/></g>
<g><path style="opacity:0.012" fill="#238c84" d="M 281.5,772.5 C 282.833,773.167 282.833,773.167 281.5,772.5 Z"/></g>
<g><path style="opacity:0.012" fill="#238d83" d="M 283.5,773.5 C 284.833,774.167 284.833,774.167 283.5,773.5 Z"/></g>
<g><path style="opacity:0.624" fill="#19675a" d="M 370.5,758.5 C 360.312,767.093 348.646,772.76 335.5,775.5C 334.761,775.631 334.094,775.464 333.5,775C 346.919,771.925 358.919,766.092 369.5,757.5C 370.107,757.624 370.44,757.957 370.5,758.5 Z"/></g>
<g><path style="opacity:0.004" fill="#258983" d="M 878.5,774.5 C 879.833,775.167 879.833,775.167 878.5,774.5 Z"/></g>
<g><path style="opacity:0.016" fill="#248c84" d="M 593.5,776.5 C 592.833,775.167 592.833,775.167 593.5,776.5 Z"/></g>
<g><path style="opacity:0.008" fill="#228b83" d="M 593.5,776.5 C 593.833,776.5 594.167,776.5 594.5,776.5C 594.315,777.17 593.981,777.17 593.5,776.5 Z"/></g>
<g><path style="opacity:0.004" fill="#228b82" d="M 305.5,778.5 C 306.833,779.167 306.833,779.167 305.5,778.5 Z"/></g>
<g><path style="opacity:0.004" fill="#268c84" d="M 309.5,778.5 C 310.833,779.167 310.833,779.167 309.5,778.5 Z"/></g>
<g><path style="opacity:0.004" fill="#248e87" d="M 311.5,778.5 C 312.833,779.167 312.833,779.167 311.5,778.5 Z"/></g>
<g><path style="opacity:0.008" fill="#248b83" d="M 325.5,779.5 C 326.251,778.427 327.251,778.26 328.5,779C 327.552,779.483 326.552,779.649 325.5,779.5 Z"/></g>
<g><path style="opacity:0.008" fill="#25877f" d="M 592.5,780.5 C 593.833,781.167 593.833,781.167 592.5,780.5 Z"/></g>
<g><path style="opacity:0.925" fill="#1b6c5e" d="M 886.5,756.5 C 885.167,759.833 883.833,763.167 882.5,766.5C 880.659,768.849 879.326,771.515 878.5,774.5C 874.55,780.451 870.217,786.118 865.5,791.5C 872.949,779.515 879.949,767.848 886.5,756.5 Z"/></g>
<g><path style="opacity:0.008" fill="#248a82" d="M 597.5,781.5 C 596.833,782.167 596.833,782.167 597.5,781.5 Z"/></g>
<g><path style="opacity:0.016" fill="#24887f" d="M 602.5,788.5 C 601.833,789.167 601.833,789.167 602.5,788.5 Z"/></g>
<g><path style="opacity:0.851" fill="#1b6b5e" d="M 574.5,703.5 C 575.482,722.105 579.649,740.105 587,757.5C 614.234,814.709 659.4,847.209 722.5,855C 720.866,855.494 719.199,855.66 717.5,855.5C 710.131,854.76 702.798,853.76 695.5,852.5C 693.485,851.076 691.152,850.41 688.5,850.5C 683.047,848.125 677.381,846.125 671.5,844.5C 661.876,839.688 652.543,834.354 643.5,828.5C 643.158,827.662 642.492,827.328 641.5,827.5C 639.23,825.025 636.563,823.025 633.5,821.5C 628.193,816.528 622.86,811.528 617.5,806.5C 612.47,800.475 607.47,794.475 602.5,788.5C 601.567,785.63 599.9,783.296 597.5,781.5C 596.89,779.566 595.89,777.899 594.5,776.5C 592.417,772 590.084,767.666 587.5,763.5C 585.608,757.997 583.275,752.33 580.5,746.5C 579.708,740.96 578.042,735.794 575.5,731C 576.022,730.439 576.355,729.772 576.5,729C 574.893,721.916 573.893,714.75 573.5,707.5C 574.434,706.432 574.768,705.099 574.5,703.5 Z"/></g>
<g><path style="opacity:1" fill="#1a6d62" d="M 613.5,702.5 C 614.89,716.584 618.39,730.251 624,743.5C 625.689,747.56 627.856,751.227 630.5,754.5C 634.68,762.679 640.013,770.012 646.5,776.5C 651.512,781.51 656.845,786.177 662.5,790.5C 669.57,796.007 676.903,800.34 684.5,803.5C 704.032,812.648 724.699,816.648 746.5,815.5C 703.834,819.919 667,803.919 636,767.5C 622.971,749.26 615.138,728.927 612.5,706.5C 613.434,705.432 613.768,704.099 613.5,702.5 Z"/></g>
<g><path style="opacity:0.98" fill="#176354" d="M 865.5,791.5 C 862.589,796.746 858.922,801.413 854.5,805.5C 853.475,805.103 853.308,804.437 854,803.5C 858.065,799.605 861.898,795.605 865.5,791.5 Z"/></g>
<g><path style="opacity:0.004" fill="#238d86" d="M 617.5,806.5 C 616.833,807.167 616.833,807.167 617.5,806.5 Z"/></g>
<g><path style="opacity:0.012" fill="#268a83" d="M 854.5,806.5 C 855.833,807.167 855.833,807.167 854.5,806.5 Z"/></g>
<g><path style="opacity:0.004" fill="#248c86" d="M 846.5,814.5 C 847.833,815.167 847.833,815.167 846.5,814.5 Z"/></g>
<g><path style="opacity:0.012" fill="#228b83" d="M 633.5,821.5 C 632.833,822.167 632.833,822.167 633.5,821.5 Z"/></g>
<g><path style="opacity:0.004" fill="#218a82" d="M 632.5,822.5 C 631.833,823.167 631.833,823.167 632.5,822.5 Z"/></g>
<g><path style="opacity:0.008" fill="#268984" d="M 641.5,827.5 C 641.631,828.239 641.464,828.906 641,829.5C 640.308,828.563 640.475,827.897 641.5,827.5 Z"/></g>
<g><path style="opacity:0.004" fill="#258882" d="M 643.5,828.5 C 643.631,829.239 643.464,829.906 643,830.5C 642.308,829.563 642.475,828.897 643.5,828.5 Z"/></g>
<g><path style="opacity:0.008" fill="#24877f" d="M 647.5,834.5 C 648.833,835.167 648.833,835.167 647.5,834.5 Z"/></g>
<g><path style="opacity:0.776" fill="#19675a" d="M 852.5,807.5 C 850.5,809.833 848.5,812.167 846.5,814.5C 837.143,821.531 827.81,828.531 818.5,835.5C 817.508,835.328 816.842,835.662 816.5,836.5C 814.847,836.66 813.514,837.326 812.5,838.5C 798.128,845.845 783.128,851.178 767.5,854.5C 752.895,856.219 738.229,856.885 723.5,856.5C 773.663,858.395 816.496,841.728 852,806.5C 852.399,806.728 852.565,807.062 852.5,807.5 Z"/></g>
<g><path style="opacity:0.008" fill="#238b83" d="M 818.5,835.5 C 819.833,836.167 819.833,836.167 818.5,835.5 Z"/></g>
<g><path style="opacity:0.006" fill="#248a84" d="M 816.5,836.5 C 817.167,836.5 817.833,836.5 818.5,836.5C 817.833,837.833 817.167,837.833 816.5,836.5 Z"/></g>
<g><path style="opacity:0.004" fill="#288c85" d="M 655.5,837.5 C 656.833,838.167 656.833,838.167 655.5,837.5 Z"/></g>
<g><path style="opacity:0.004" fill="#248e83" d="M 812.5,838.5 C 813.833,839.167 813.833,839.167 812.5,838.5 Z"/></g>
<g><path style="opacity:0.004" fill="#248980" d="M 665.5,842.5 C 666.833,843.167 666.833,843.167 665.5,842.5 Z"/></g>
<g><path style="opacity:0.004" fill="#228882" d="M 671.5,844.5 C 670.833,845.167 670.833,845.167 671.5,844.5 Z"/></g>
<g><path style="opacity:0.004" fill="#248a83" d="M 671.5,846.5 C 672.833,847.167 672.833,847.167 671.5,846.5 Z"/></g>
<g><path style="opacity:0.004" fill="#248b84" d="M 674.5,846.5 C 675.833,847.167 675.833,847.167 674.5,846.5 Z"/></g>
<g><path style="opacity:0.012" fill="#278f87" d="M 796.5,846.5 C 797.833,847.167 797.833,847.167 796.5,846.5 Z"/></g>
<g><path style="opacity:0.004" fill="#258e84" d="M 798.5,846.5 C 799.833,847.167 799.833,847.167 798.5,846.5 Z"/></g>
<g><path style="opacity:0.004" fill="#288a81" d="M 788.5,849.5 C 789.833,850.167 789.833,850.167 788.5,849.5 Z"/></g>
<g><path style="opacity:0.004" fill="#248c81" d="M 688.5,850.5 C 687.833,851.167 687.833,851.167 688.5,850.5 Z"/></g>
<g><path style="opacity:0.004" fill="#248a81" d="M 689.5,851.5 C 690.833,852.167 690.833,852.167 689.5,851.5 Z"/></g>
<g><path style="opacity:0.004" fill="#268981" d="M 782.5,851.5 C 783.833,852.167 783.833,852.167 782.5,851.5 Z"/></g>
<g><path style="opacity:0.004" fill="#248a83" d="M 687.5,852.5 C 688.833,853.167 688.833,853.167 687.5,852.5 Z"/></g>
<g><path style="opacity:0.008" fill="#248b84" d="M 695.5,852.5 C 695.5,852.833 695.5,853.167 695.5,853.5C 694.83,853.019 694.83,852.685 695.5,852.5 Z"/></g>
<g><path style="opacity:0.012" fill="#258c86" d="M 695.5,853.5 C 698.001,853.511 698.168,854.178 696,855.5C 695.536,854.906 695.369,854.239 695.5,853.5 Z"/></g>
<g><path style="opacity:0.004" fill="#258c84" d="M 698.5,853.5 C 699.833,854.167 699.833,854.167 698.5,853.5 Z"/></g>
<g><path style="opacity:0.008" fill="#248984" d="M 774.5,853.5 C 775.833,854.167 775.833,854.167 774.5,853.5 Z"/></g>
<g><path style="opacity:0.004" fill="#24857d" d="M 685.5,854.5 C 686.833,855.167 686.833,855.167 685.5,854.5 Z"/></g>
<g><path style="opacity:0.004" fill="#258c84" d="M 700.5,854.5 C 701.833,855.167 701.833,855.167 700.5,854.5 Z"/></g>
<g><path style="opacity:0.004" fill="#228e86" d="M 767.5,854.5 C 768.833,855.167 768.833,855.167 767.5,854.5 Z"/></g>
<g><path style="opacity:0.008" fill="#268b83" d="M 721.5,857.5 C 722.833,858.167 722.833,858.167 721.5,857.5 Z"/></g>
<g><path style="opacity:0.004" fill="#268a83" d="M 726.5,857.5 C 727.833,858.167 727.833,858.167 726.5,857.5 Z"/></g>
<g><path style="opacity:0.004" fill="#278f85" d="M 734.5,857.5 C 735.833,858.167 735.833,858.167 734.5,857.5 Z"/></g>
</svg>
