<?xml version="1.0" encoding="UTF-8"?>
<!DOCTYPE svg PUBLIC "-//W3C//DTD SVG 1.1//EN" "http://www.w3.org/Graphics/SVG/1.1/DTD/svg11.dtd">
<svg xmlns="http://www.w3.org/2000/svg" version="1.1" width="1024px" height="1024px" style="shape-rendering:geometricPrecision; text-rendering:geometricPrecision; image-rendering:optimizeQuality; fill-rule:evenodd; clip-rule:evenodd" xmlns:xlink="http://www.w3.org/1999/xlink">
<g><path style="opacity:0.004" fill="#001614" d="M 275.5,1.5 C 276.833,2.16667 276.833,2.16667 275.5,1.5 Z"/></g>
<g><path style="opacity:0.004" fill="#032123" d="M 539.5,5.5 C 540.833,6.16667 540.833,6.16667 539.5,5.5 Z"/></g>
<g><path style="opacity:0.004" fill="#021b19" d="M 281.5,10.5 C 282.833,11.1667 282.833,11.1667 281.5,10.5 Z"/></g>
<g><path style="opacity:0.004" fill="#000f0e" d="M 679.5,10.5 C 680.833,11.1667 680.833,11.1667 679.5,10.5 Z"/></g>
<g><path style="opacity:0.004" fill="#000000" d="M 909.5,11.5 C 910.833,12.1667 910.833,12.1667 909.5,11.5 Z"/></g>
<g><path style="opacity:0.004" fill="#000c07" d="M 747.5,13.5 C 748.833,14.1667 748.833,14.1667 747.5,13.5 Z"/></g>
<g><path style="opacity:0.004" fill="#001312" d="M 257.5,26.5 C 258.833,27.1667 258.833,27.1667 257.5,26.5 Z"/></g>
<g><path style="opacity:0.004" fill="#001212" d="M 687.5,26.5 C 688.833,27.1667 688.833,27.1667 687.5,26.5 Z"/></g>
<g><path style="opacity:0.004" fill="#000100" d="M 171.5,37.5 C 172.833,38.1667 172.833,38.1667 171.5,37.5 Z"/></g>
<g><path style="opacity:0.004" fill="#000102" d="M 846.5,40.5 C 847.833,41.1667 847.833,41.1667 846.5,40.5 Z"/></g>
<g><path style="opacity:0.004" fill="#000000" d="M 74.5,44.5 C 75.8333,45.1667 75.8333,45.1667 74.5,44.5 Z"/></g>
<g><path style="opacity:0.004" fill="#000200" d="M 177.5,50.5 C 178.833,51.1667 178.833,51.1667 177.5,50.5 Z"/></g>
<g><path style="opacity:0.004" fill="#145f62" d="M 417.5,50.5 C 418.833,51.1667 418.833,51.1667 417.5,50.5 Z"/></g>
<g><path style="opacity:0.004" fill="#000000" d="M 1.5,58.5 C 2.83333,59.1667 2.83333,59.1667 1.5,58.5 Z"/></g>
<g><path style="opacity:0.004" fill="#000000" d="M 121.5,58.5 C 122.833,59.1667 122.833,59.1667 121.5,58.5 Z"/></g>
<g><path style="opacity:0.004" fill="#000200" d="M 177.5,66.5 C 178.833,67.1667 178.833,67.1667 177.5,66.5 Z"/></g>
<g><path style="opacity:0.004" fill="#072425" d="M 271.5,66.5 C 272.833,67.1667 272.833,67.1667 271.5,66.5 Z"/></g>
<g><path style="opacity:0.008" fill="#000001" d="M 871.5,66.5 C 872.833,67.1667 872.833,67.1667 871.5,66.5 Z"/></g>
<g><path style="opacity:0.004" fill="#000000" d="M 146.5,68.5 C 147.833,69.1667 147.833,69.1667 146.5,68.5 Z"/></g>
<g><path style="opacity:0.004" fill="#000001" d="M 147.5,97.5 C 148.833,98.1667 148.833,98.1667 147.5,97.5 Z"/></g>
<g><path style="opacity:0.004" fill="#25abb1" d="M 441.5,106.5 C 442.833,107.167 442.833,107.167 441.5,106.5 Z"/></g>
<g><path style="opacity:0.004" fill="#000002" d="M 929.5,114.5 C 930.833,115.167 930.833,115.167 929.5,114.5 Z"/></g>
<g><path style="opacity:0.004" fill="#01211e" d="M 818.5,116.5 C 819.833,117.167 819.833,117.167 818.5,116.5 Z"/></g>
<g><path style="opacity:0.004" fill="#000a06" d="M 892.5,118.5 C 893.833,119.167 893.833,119.167 892.5,118.5 Z"/></g>
<g><path style="opacity:0.004" fill="#27c0c6" d="M 379.5,119.5 C 380.833,120.167 380.833,120.167 379.5,119.5 Z"/></g>
<g><path style="opacity:0.004" fill="#27c2c8" d="M 389.5,120.5 C 387.801,120.66 386.134,120.494 384.5,120C 386.387,119.22 388.054,119.387 389.5,120.5 Z"/></g>
<g><path style="opacity:0.008" fill="#27c1c7" d="M 440.5,120.5 C 441.251,119.427 442.251,119.26 443.5,120C 442.552,120.483 441.552,120.649 440.5,120.5 Z"/></g>
<g><path style="opacity:0.012" fill="#27bfc5" d="M 445.5,120.5 C 445.897,119.475 446.563,119.308 447.5,120C 446.906,120.464 446.239,120.631 445.5,120.5 Z"/></g>
<g><path style="opacity:0.004" fill="#25bdc5" d="M 448.5,119.5 C 449.833,120.167 449.833,120.167 448.5,119.5 Z"/></g>
<g><path style="opacity:0.012" fill="#26c0c3" d="M 450.5,119.5 C 451.833,120.167 451.833,120.167 450.5,119.5 Z"/></g>
<g><path style="opacity:0.108" fill="#26c2c8" d="M 437.5,121.5 C 421.5,121.5 405.5,121.5 389.5,121.5C 389.5,121.167 389.5,120.833 389.5,120.5C 405.679,120.779 421.679,120.446 437.5,119.5C 438.167,119.667 438.833,119.833 439.5,120C 438.584,120.278 437.918,120.778 437.5,121.5 Z"/></g>
<g><path style="opacity:0.012" fill="#27bfc4" d="M 457.5,122.5 C 458.833,123.167 458.833,123.167 457.5,122.5 Z"/></g>
<g><path style="opacity:0.012" fill="#27b9bd" d="M 462.5,122.5 C 463.833,123.167 463.833,123.167 462.5,122.5 Z"/></g>
<g><path style="opacity:0.995" fill="#28d1db" d="M 389.5,121.5 C 405.5,121.5 421.5,121.5 437.5,121.5C 441.514,121.334 445.514,121.501 449.5,122C 451.852,122.24 453.852,123.073 455.5,124.5C 454.448,124.351 453.448,124.517 452.5,125C 455.883,126.686 458.883,128.853 461.5,131.5C 462.167,131.833 462.833,132.167 463.5,132.5C 463.5,133.5 463.5,134.5 463.5,135.5C 463.333,152.17 463.5,168.837 464,185.5C 464.175,190.019 464.675,194.353 465.5,198.5C 466.234,199.708 466.567,201.041 466.5,202.5C 465.715,212.203 466.882,221.87 470,231.5C 470.167,230.833 470.333,230.167 470.5,229.5C 468.739,222.601 467.739,215.601 467.5,208.5C 469.86,225.915 475.027,242.582 483,258.5C 484.699,261.921 486.865,264.921 489.5,267.5C 495.437,277.33 502.771,284.163 511.5,288C 519.368,290.606 526.702,289.773 533.5,285.5C 534.473,285.013 535.473,284.513 536.5,284C 541.671,277.997 547.004,272.163 552.5,266.5C 569.383,249.556 589.05,236.889 611.5,228.5C 615.5,227.5 619.5,226.5 623.5,225.5C 619.39,227.601 615.056,229.434 610.5,231C 612.184,233.945 614.017,234.112 616,231.5C 617.667,232.833 619.333,232.833 621,231.5C 622.586,233.386 624.086,235.386 625.5,237.5C 624.753,237.736 623.92,238.07 623,238.5C 622.517,237.552 622.351,236.552 622.5,235.5C 621.178,235.67 620.011,235.337 619,234.5C 618.044,235.579 617.211,236.745 616.5,238C 619.119,238.151 621.453,238.985 623.5,240.5C 627.796,240.787 632.129,240.453 636.5,239.5C 633.836,240.397 631.502,241.73 629.5,243.5C 609.889,248.701 593.056,257.701 579,270.5C 578.25,271.126 577.416,271.626 576.5,272C 565.831,283.003 554.831,293.669 543.5,304C 521.759,314.92 502.259,311.753 485,294.5C 468.903,278.016 458.069,258.016 452.5,234.5C 449.427,224.52 447.594,214.187 447,203.5C 446.403,183.114 445.236,162.947 443.5,143C 444.416,142.722 445.082,142.222 445.5,141.5C 444.737,140.732 443.737,140.232 442.5,140C 443.696,139.346 443.696,138.846 442.5,138.5C 425.544,139.319 408.544,139.819 391.5,140C 388.774,140.182 386.107,140.682 383.5,141.5C 383.624,142.107 383.957,142.44 384.5,142.5C 383.527,152.084 383.194,161.75 383.5,171.5C 383.167,171.5 382.833,171.5 382.5,171.5C 382.001,167.51 381.501,163.51 381,159.5C 380.759,171.64 381.259,183.973 382.5,196.5C 382.013,200.401 379.846,203.068 376,204.5C 374.242,203.531 373.742,202.364 374.5,201C 373.833,200.333 373.167,200.333 372.5,201C 372.034,202.299 372.034,203.799 372.5,205.5C 370.857,205.52 369.524,204.853 368.5,203.5C 367.833,206.977 367.166,210.311 366.5,213.5C 364.701,187.543 364.034,161.543 364.5,135.5C 364.66,133.847 365.326,132.514 366.5,131.5C 368.5,130.167 370.167,128.5 371.5,126.5C 372.453,124.39 374.119,123.223 376.5,123C 380.751,121.805 385.085,121.305 389.5,121.5 Z"/></g>
<g><path style="opacity:0.624" fill="#25c0c6" d="M 455.5,124.5 C 457.027,124.427 458.027,125.094 458.5,126.5C 456.973,126.573 455.973,125.906 455.5,124.5 Z"/></g>
<g><path style="opacity:0.004" fill="#00120e" d="M 875.5,125.5 C 876.833,126.167 876.833,126.167 875.5,125.5 Z"/></g>
<g><path style="opacity:0.027" fill="#26bec6" d="M 458.5,126.5 C 460.5,126.5 461.5,127.5 461.5,129.5C 460.167,128.833 459.167,127.833 458.5,126.5 Z"/></g>
<g><path style="opacity:0.004" fill="#000000" d="M 134.5,128.5 C 135.833,129.167 135.833,129.167 134.5,128.5 Z"/></g>
<g><path style="opacity:0.945" fill="#25c0c8" d="M 371.5,126.5 C 370.167,128.5 368.5,130.167 366.5,131.5C 367.167,128.833 368.833,127.167 371.5,126.5 Z"/></g>
<g><path style="opacity:0.98" fill="#2ddce4" d="M 455.5,124.5 C 455.973,125.906 456.973,126.573 458.5,126.5C 459.167,127.833 460.167,128.833 461.5,129.5C 461.5,130.167 461.5,130.833 461.5,131.5C 458.883,128.853 455.883,126.686 452.5,125C 453.448,124.517 454.448,124.351 455.5,124.5 Z"/></g>
<g><path style="opacity:0.863" fill="#25c2c7" d="M 461.5,129.5 C 462.906,129.973 463.573,130.973 463.5,132.5C 462.833,132.167 462.167,131.833 461.5,131.5C 461.5,130.833 461.5,130.167 461.5,129.5 Z"/></g>
<g><path style="opacity:0.004" fill="#000100" d="M 6.5,135.5 C 7.83333,136.167 7.83333,136.167 6.5,135.5 Z"/></g>
<g><path style="opacity:0.407" fill="#26cdd6" d="M 445.5,141.5 C 435.516,141.451 425.683,141.784 416,142.5C 412,141.833 408,141.167 404,140.5C 403.667,141.167 403.333,141.833 403,142.5C 396.734,141.174 390.568,141.174 384.5,142.5C 383.957,142.44 383.624,142.107 383.5,141.5C 386.107,140.682 388.774,140.182 391.5,140C 408.544,139.819 425.544,139.319 442.5,138.5C 443.696,138.846 443.696,139.346 442.5,140C 443.737,140.232 444.737,140.732 445.5,141.5 Z"/></g>
<g><path style="opacity:0.008" fill="#2ac6cd" d="M 467.5,142.5 C 468.833,143.167 468.833,143.167 467.5,142.5 Z"/></g>
<g><path style="opacity:0.004" fill="#000000" d="M 60.5,147.5 C 61.8333,148.167 61.8333,148.167 60.5,147.5 Z"/></g>
<g><path style="opacity:0.004" fill="#28c3cb" d="M 360.5,151.5 C 361.833,152.167 361.833,152.167 360.5,151.5 Z"/></g>
<g><path style="opacity:0.004" fill="#27ccd1" d="M 467.5,156.5 C 468.833,157.167 468.833,157.167 467.5,156.5 Z"/></g>
<g><path style="opacity:0.004" fill="#011516" d="M 195.5,161.5 C 196.833,162.167 196.833,162.167 195.5,161.5 Z"/></g>
<g><path style="opacity:0.998" fill="#2cdde7" d="M 463.5,135.5 C 464.373,156.334 465.04,177.334 465.5,198.5C 464.675,194.353 464.175,190.019 464,185.5C 463.5,168.837 463.333,152.17 463.5,135.5 Z"/></g>
<g><path style="opacity:0.902" fill="#25cad2" d="M 463.5,132.5 C 464.222,132.918 464.722,133.584 465,134.5C 465.594,138.321 466.094,142.155 466.5,146C 465.247,165.608 465.913,185.941 468.5,207C 467.944,207.383 467.611,207.883 467.5,208.5C 466.539,206.735 466.205,204.735 466.5,202.5C 466.567,201.041 466.234,199.708 465.5,198.5C 465.04,177.334 464.373,156.334 463.5,135.5C 463.5,134.5 463.5,133.5 463.5,132.5 Z"/></g>
<g><path style="opacity:0.004" fill="#125154" d="M 275.5,181.5 C 276.833,182.167 276.833,182.167 275.5,181.5 Z"/></g>
<g><path style="opacity:0.004" fill="#29c9d3" d="M 361.5,184.5 C 362.573,185.251 362.74,186.251 362,187.5C 361.517,186.552 361.351,185.552 361.5,184.5 Z"/></g>
<g><path style="opacity:0.004" fill="#2acad3" d="M 361.5,189.5 C 362.833,190.167 362.833,190.167 361.5,189.5 Z"/></g>
<g><path style="opacity:0.004" fill="#011514" d="M 189.5,190.5 C 190.833,191.167 190.833,191.167 189.5,190.5 Z"/></g>
<g><path style="opacity:0.213" fill="#26c6cf" d="M 364.5,135.5 C 364.034,161.543 364.701,187.543 366.5,213.5C 366.5,214.833 366.5,216.167 366.5,217.5C 364.405,202.492 363.072,187.326 362.5,172C 362.406,161.978 362.572,151.812 363,141.5C 363.191,139.292 363.691,137.292 364.5,135.5 Z"/></g>
<g><path style="opacity:0.004" fill="#2ac5ce" d="M 359.5,193.5 C 360.833,194.167 360.833,194.167 359.5,193.5 Z"/></g>
<g><path style="opacity:0.008" fill="#26cad2" d="M 361.5,194.5 C 362.833,195.167 362.833,195.167 361.5,194.5 Z"/></g>
<g><path style="opacity:0.008" fill="#29c8d2" d="M 361.5,197.5 C 362.833,198.167 362.833,198.167 361.5,197.5 Z"/></g>
<g><path style="opacity:0.004" fill="#000000" d="M 81.5,202.5 C 82.8333,203.167 82.8333,203.167 81.5,202.5 Z"/></g>
<g><path style="opacity:0.008" fill="#2bcad3" d="M 361.5,202.5 C 362.833,203.167 362.833,203.167 361.5,202.5 Z"/></g>
<g><path style="opacity:0.016" fill="#29cbd4" d="M 362.5,204.5 C 363.833,205.167 363.833,205.167 362.5,204.5 Z"/></g>
<g><path style="opacity:0.004" fill="#000f0f" d="M 963.5,205.5 C 964.833,206.167 964.833,206.167 963.5,205.5 Z"/></g>
<g><path style="opacity:0.987" fill="#2bdae4" d="M 382.5,171.5 C 382.573,189.098 383.907,206.598 386.5,224C 386.333,225.167 386.167,226.333 386,227.5C 384.042,217.254 382.875,206.92 382.5,196.5C 381.259,183.973 380.759,171.64 381,159.5C 381.501,163.51 382.001,167.51 382.5,171.5 Z"/></g>
<g><path style="opacity:0.004" fill="#2accd4" d="M 363.5,210.5 C 364.833,211.167 364.833,211.167 363.5,210.5 Z"/></g>
<g><path style="opacity:0.004" fill="#2acad3" d="M 363.5,215.5 C 364.833,216.167 364.833,216.167 363.5,215.5 Z"/></g>
<g><path style="opacity:0.004" fill="#2ac7cf" d="M 651.5,217.5 C 651.897,216.475 652.563,216.308 653.5,217C 652.906,217.464 652.239,217.631 651.5,217.5 Z"/></g>
<g><path style="opacity:0.004" fill="#2cc8cf" d="M 657.5,216.5 C 658.833,217.167 658.833,217.167 657.5,216.5 Z"/></g>
<g><path style="opacity:0.004" fill="#28c7ce" d="M 670.5,216.5 C 671.833,217.167 671.833,217.167 670.5,216.5 Z"/></g>
<g><path style="opacity:0.004" fill="#2bc9cf" d="M 675.5,216.5 C 676.833,217.167 676.833,217.167 675.5,216.5 Z"/></g>
<g><path style="opacity:0.008" fill="#28c8cc" d="M 687.5,216.5 C 688.833,217.167 688.833,217.167 687.5,216.5 Z"/></g>
<g><path style="opacity:0.004" fill="#27c6ce" d="M 692.5,216.5 C 693.833,217.167 693.833,217.167 692.5,216.5 Z"/></g>
<g><path style="opacity:0.008" fill="#2acfd8" d="M 470.5,216.5 C 471.525,216.897 471.692,217.563 471,218.5C 470.536,217.906 470.369,217.239 470.5,216.5 Z"/></g>
<g><path style="opacity:0.012" fill="#28c7ce" d="M 687.5,217.5 C 686.833,218.167 686.833,218.167 687.5,217.5 Z"/></g>
<g><path style="opacity:0.004" fill="#2acacf" d="M 631.5,218.5 C 632.833,219.167 632.833,219.167 631.5,218.5 Z"/></g>
<g><path style="opacity:0.008" fill="#29c9d4" d="M 640.5,219.5 C 639.761,219.631 639.094,219.464 638.5,219C 639.437,218.308 640.103,218.475 640.5,219.5 Z"/></g>
<g><path style="opacity:0.923" fill="#27c6ce" d="M 699.5,222.5 C 695.519,221.979 691.519,221.646 687.5,221.5C 685.031,220.683 682.365,220.183 679.5,220C 670.84,219.5 662.173,219.334 653.5,219.5C 652.209,219.263 651.209,219.596 650.5,220.5C 645.493,220.751 640.493,221.084 635.5,221.5C 637.167,220.833 638.833,220.167 640.5,219.5C 654.616,217.74 668.616,217.574 682.5,219C 688.43,219.539 694.096,220.705 699.5,222.5 Z"/></g>
<g><path style="opacity:0.004" fill="#29c7d3" d="M 691.5,218.5 C 692.833,219.167 692.833,219.167 691.5,218.5 Z"/></g>
<g><path style="opacity:0.004" fill="#29c8ce" d="M 693.5,218.5 C 694.833,219.167 694.833,219.167 693.5,218.5 Z"/></g>
<g><path style="opacity:0.004" fill="#063936" d="M 885.5,218.5 C 886.833,219.167 886.833,219.167 885.5,218.5 Z"/></g>
<g><path style="opacity:0.995" fill="#2ddce5" d="M 653.5,219.5 C 662.173,219.334 670.84,219.5 679.5,220C 682.365,220.183 685.031,220.683 687.5,221.5C 676,221.07 664.666,220.403 653.5,219.5 Z"/></g>
<g><path style="opacity:0.999" fill="#2bd9e2" d="M 650.5,220.5 C 644.408,222.334 637.741,223.668 630.5,224.5C 629.833,224.333 629.167,224.167 628.5,224C 631.004,223.302 633.337,222.469 635.5,221.5C 640.493,221.084 645.493,220.751 650.5,220.5 Z"/></g>
<g><path style="opacity:0.004" fill="#2acbd3" d="M 364.5,222.5 C 365.833,223.167 365.833,223.167 364.5,222.5 Z"/></g>
<g><path style="opacity:0.988" fill="#2adae3" d="M 466.5,202.5 C 466.205,204.735 466.539,206.735 467.5,208.5C 467.739,215.601 468.739,222.601 470.5,229.5C 470.333,230.167 470.167,230.833 470,231.5C 466.882,221.87 465.715,212.203 466.5,202.5 Z"/></g>
<g><path style="opacity:0.006" fill="#2accd2" d="M 616.5,224.5 C 616.897,223.475 617.563,223.308 618.5,224C 617.906,224.464 617.239,224.631 616.5,224.5 Z"/></g>
<g><path style="opacity:0.008" fill="#2acbd0" d="M 613.5,224.5 C 614.833,225.167 614.833,225.167 613.5,224.5 Z"/></g>
<g><path style="opacity:0.447" fill="#27c5ce" d="M 623.5,224.5 C 623.5,224.833 623.5,225.167 623.5,225.5C 619.5,226.5 615.5,227.5 611.5,228.5C 615.085,226.194 619.085,224.861 623.5,224.5 Z"/></g>
<g><path style="opacity:0.875" fill="#26c5ce" d="M 719.5,228.5 C 715.085,228.139 711.085,226.806 707.5,224.5C 708.496,224.586 709.329,224.252 710,223.5C 712.946,225.644 716.112,227.311 719.5,228.5 Z"/></g>
<g><path style="opacity:0.004" fill="#000706" d="M 1010.5,228.5 C 1011.83,229.167 1011.83,229.167 1010.5,228.5 Z"/></g>
<g><path style="opacity:0.008" fill="#2dcad3" d="M 365.5,230.5 C 366.833,231.167 366.833,231.167 365.5,230.5 Z"/></g>
<g><path style="opacity:1" fill="#2ddce5" d="M 452.5,234.5 C 451.215,222.609 451.882,222.609 454.5,234.5C 454.333,235.167 454.167,235.833 454,236.5C 453.722,235.584 453.222,234.918 452.5,234.5 Z"/></g>
<g><path style="opacity:0.004" fill="#2bc5ce" d="M 509.5,230.5 C 510.833,231.167 510.833,231.167 509.5,230.5 Z"/></g>
<g><path style="opacity:0.004" fill="#29ccd2" d="M 597.5,231.5 C 598.833,232.167 598.833,232.167 597.5,231.5 Z"/></g>
<g><path style="opacity:0.008" fill="#29c7d1" d="M 737.5,234.5 C 738.833,235.167 738.833,235.167 737.5,234.5 Z"/></g>
<g><path style="opacity:0.004" fill="#29ccd5" d="M 367.5,237.5 C 368.833,238.167 368.833,238.167 367.5,237.5 Z"/></g>
<g><path style="opacity:0.268" fill="#26c9d2" d="M 651.5,237.5 C 659.833,237.5 668.167,237.5 676.5,237.5C 681.339,238.434 686.339,239.268 691.5,240C 695.163,240.572 698.497,241.738 701.5,243.5C 677.459,236.934 653.459,236.934 629.5,243.5C 631.502,241.73 633.836,240.397 636.5,239.5C 640.842,239.261 645.176,238.927 649.5,238.5C 650.492,238.672 651.158,238.338 651.5,237.5 Z"/></g>
<g><path style="opacity:0.996" fill="#28d0da" d="M 650.5,220.5 C 651.209,219.596 652.209,219.263 653.5,219.5C 664.666,220.403 676,221.07 687.5,221.5C 691.519,221.646 695.519,221.979 699.5,222.5C 702.428,222.565 705.095,223.232 707.5,224.5C 711.085,226.806 715.085,228.139 719.5,228.5C 725.541,230.858 731.541,233.192 737.5,235.5C 745.478,240.466 753.478,245.466 761.5,250.5C 767.129,254.794 772.463,259.461 777.5,264.5C 782.5,270.167 787.833,275.5 793.5,280.5C 798.451,285.05 802.951,290.05 807,295.5C 809.421,299.071 811.587,302.738 813.5,306.5C 813.427,308.027 814.094,309.027 815.5,309.5C 817.25,310.659 818.25,312.326 818.5,314.5C 817.21,313.942 816.377,312.942 816,311.5C 815.667,313.167 815.333,314.833 815,316.5C 813.333,317.5 811.667,318.5 810,319.5C 809,318.167 808,316.833 807,315.5C 806.43,318.844 805.264,319.177 803.5,316.5C 803.167,316.833 802.833,317.167 802.5,317.5C 803.806,318.912 804.64,320.579 805,322.5C 806.362,323.925 807.862,324.758 809.5,325C 808.809,326.067 808.309,327.234 808,328.5C 807.002,325.972 806.169,325.972 805.5,328.5C 805.846,329.849 806.179,331.183 806.5,332.5C 801.691,324.898 796.858,317.231 792,309.5C 790.281,306.712 788.115,304.379 785.5,302.5C 785.5,301.833 785.167,301.5 784.5,301.5C 774.662,287.908 762.662,276.574 748.5,267.5C 735.525,257.012 720.858,249.679 704.5,245.5C 703.5,244.833 702.5,244.167 701.5,243.5C 698.497,241.738 695.163,240.572 691.5,240C 686.339,239.268 681.339,238.434 676.5,237.5C 674.066,236.538 669.566,235.871 663,235.5C 658.415,235.955 654.581,236.621 651.5,237.5C 651.158,238.338 650.492,238.672 649.5,238.5C 645.088,237.258 640.754,237.591 636.5,239.5C 632.129,240.453 627.796,240.787 623.5,240.5C 621.453,238.985 619.119,238.151 616.5,238C 617.211,236.745 618.044,235.579 619,234.5C 620.011,235.337 621.178,235.67 622.5,235.5C 622.351,236.552 622.517,237.552 623,238.5C 623.92,238.07 624.753,237.736 625.5,237.5C 624.086,235.386 622.586,233.386 621,231.5C 619.333,232.833 617.667,232.833 616,231.5C 614.017,234.112 612.184,233.945 610.5,231C 615.056,229.434 619.39,227.601 623.5,225.5C 623.5,225.167 623.5,224.833 623.5,224.5C 627.163,222.584 631.163,221.584 635.5,221.5C 633.337,222.469 631.004,223.302 628.5,224C 629.167,224.167 629.833,224.333 630.5,224.5C 637.741,223.668 644.408,222.334 650.5,220.5 Z"/></g>
<g><path style="opacity:0.996" fill="#2adae3" d="M 649.5,238.5 C 645.176,238.927 640.842,239.261 636.5,239.5C 640.754,237.591 645.088,237.258 649.5,238.5 Z"/></g>
<g><path style="opacity:0.997" fill="#2bd9e4" d="M 676.5,237.5 C 668.167,237.5 659.833,237.5 651.5,237.5C 654.581,236.621 658.415,235.955 663,235.5C 669.566,235.871 674.066,236.538 676.5,237.5 Z"/></g>
<g><path style="opacity:0.008" fill="#28c8d1" d="M 367.5,239.5 C 368.833,240.167 368.833,240.167 367.5,239.5 Z"/></g>
<g><path style="opacity:0.004" fill="#2acdd3" d="M 581.5,240.5 C 582.833,241.167 582.833,241.167 581.5,240.5 Z"/></g>
<g><path style="opacity:0.016" fill="#28c8ce" d="M 750.5,241.5 C 751.833,242.167 751.833,242.167 750.5,241.5 Z"/></g>
<g><path style="opacity:0.004" fill="#000000" d="M 23.5,242.5 C 24.8333,243.167 24.8333,243.167 23.5,242.5 Z"/></g>
<g><path style="opacity:0.012" fill="#2bccd4" d="M 369.5,242.5 C 369.631,243.239 369.464,243.906 369,244.5C 368.308,243.563 368.475,242.897 369.5,242.5 Z"/></g>
<g><path style="opacity:0.008" fill="#2ad2dc" d="M 478.5,245.5 C 479.833,246.167 479.833,246.167 478.5,245.5 Z"/></g>
<g><path style="opacity:0.004" fill="#29c8ce" d="M 756.5,245.5 C 757.833,246.167 757.833,246.167 756.5,245.5 Z"/></g>
<g><path style="opacity:0.012" fill="#28cfd9" d="M 704.5,245.5 C 707.209,247.132 706.875,247.632 703.5,247C 702.288,245.893 702.621,245.393 704.5,245.5 Z"/></g>
<g><path style="opacity:0.995" fill="#28d0db" d="M 382.5,171.5 C 382.833,171.5 383.167,171.5 383.5,171.5C 383.251,208.028 389.418,243.028 402,276.5C 411.008,297.205 423.008,315.872 438,332.5C 449,342.833 460,353.167 471,363.5C 486.199,379.707 498.533,397.374 508,416.5C 511.078,423.317 513.578,430.317 515.5,437.5C 516.596,444.756 518.263,451.756 520.5,458.5C 520.5,459.5 520.5,460.5 520.5,461.5C 520.661,474.518 520.327,487.518 519.5,500.5C 518.343,503.273 517.676,506.273 517.5,509.5C 515.631,520.458 511.631,530.458 505.5,539.5C 505.631,538.761 505.464,538.094 505,537.5C 503.748,539.001 502.748,540.668 502,542.5C 501.275,543.059 500.442,543.392 499.5,543.5C 497.37,543.242 495.204,542.909 493,542.5C 489.568,545.034 489.735,545.701 493.5,544.5C 494.287,545.242 494.953,546.075 495.5,547C 492.471,547.834 490.637,549.334 490,551.5C 489.333,547.5 488.667,547.5 488,551.5C 486.488,549.043 485.154,549.043 484,551.5C 483.667,551.167 483.333,550.833 483,550.5C 482.695,552.557 482.695,554.557 483,556.5C 482.097,555.299 480.931,554.465 479.5,554C 480.956,553.577 481.456,552.744 481,551.5C 480.282,552.451 479.449,552.617 478.5,552C 478.366,549.961 478.866,547.794 480,545.5C 482.21,544.51 482.71,543.176 481.5,541.5C 484.088,537.326 486.421,532.993 488.5,528.5C 491.71,523.414 494.376,518.081 496.5,512.5C 498.612,507.069 500.279,501.403 501.5,495.5C 502.29,494.391 502.79,493.058 503,491.5C 503.838,479.461 503.504,467.461 502,455.5C 501.667,454.5 501.333,453.5 501,452.5C 500.506,454.134 500.34,455.801 500.5,457.5C 498.228,446.685 494.562,436.352 489.5,426.5C 480.509,406.18 467.843,388.514 451.5,373.5C 451.5,372.833 451.167,372.5 450.5,372.5C 448.177,369.874 445.843,367.207 443.5,364.5C 436.833,357.167 429.833,350.167 422.5,343.5C 420.5,341.833 418.5,340.167 416.5,338.5C 415.876,336.246 414.543,334.579 412.5,333.5C 407.733,326.286 402.733,319.286 397.5,312.5C 397.672,311.508 397.338,310.842 396.5,310.5C 393.864,304.602 390.531,298.602 386.5,292.5C 385.174,288.51 383.84,284.51 382.5,280.5C 380.208,272.62 377.541,264.954 374.5,257.5C 373.833,256.5 373.167,255.5 372.5,254.5C 372.102,250.239 371.102,246.239 369.5,242.5C 368.174,234.209 367.174,225.875 366.5,217.5C 366.5,216.167 366.5,214.833 366.5,213.5C 367.166,210.311 367.833,206.977 368.5,203.5C 369.524,204.853 370.857,205.52 372.5,205.5C 372.034,203.799 372.034,202.299 372.5,201C 373.167,200.333 373.833,200.333 374.5,201C 373.742,202.364 374.242,203.531 376,204.5C 379.846,203.068 382.013,200.401 382.5,196.5C 382.875,206.92 384.042,217.254 386,227.5C 386.167,226.333 386.333,225.167 386.5,224C 383.907,206.598 382.573,189.098 382.5,171.5 Z"/></g>
<g><path style="opacity:0.004" fill="#2acfd5" d="M 568.5,247.5 C 569.833,248.167 569.833,248.167 568.5,247.5 Z"/></g>
<g><path style="opacity:0.004" fill="#27c9d4" d="M 369.5,247.5 C 370.525,247.897 370.692,248.563 370,249.5C 369.536,248.906 369.369,248.239 369.5,247.5 Z"/></g>
<g><path style="opacity:0.008" fill="#2ac6cf" d="M 761.5,249.5 C 762.833,250.167 762.833,250.167 761.5,249.5 Z"/></g>
<g><path style="opacity:0.004" fill="#000807" d="M 151.5,250.5 C 152.833,251.167 152.833,251.167 151.5,250.5 Z"/></g>
<g><path style="opacity:0.004" fill="#2ccbd2" d="M 367.5,250.5 C 368.833,251.167 368.833,251.167 367.5,250.5 Z"/></g>
<g><path style="opacity:0.008" fill="#28cad4" d="M 371.5,254.5 C 370.152,253.473 369.652,252.14 370,250.5C 371.188,251.563 371.688,252.897 371.5,254.5 Z"/></g>
<g><path style="opacity:0.02" fill="#27cdd3" d="M 371.5,254.5 C 371.833,254.5 372.167,254.5 372.5,254.5C 372.315,255.17 371.981,255.17 371.5,254.5 Z"/></g>
<g><path style="opacity:0.004" fill="#2cd3d8" d="M 482.5,254.5 C 483.833,255.167 483.833,255.167 482.5,254.5 Z"/></g>
<g><path style="opacity:0.004" fill="#2dd0d8" d="M 561.5,255.5 C 562.833,256.167 562.833,256.167 561.5,255.5 Z"/></g>
<g><path style="opacity:0.012" fill="#2bcbd4" d="M 372.5,259.5 C 373.833,260.167 373.833,260.167 372.5,259.5 Z"/></g>
<g><path style="opacity:0.004" fill="#2bcdd3" d="M 373.5,262.5 C 374.833,263.167 374.833,263.167 373.5,262.5 Z"/></g>
<g><path style="opacity:0.008" fill="#2dd6da" d="M 488.5,263.5 C 489.833,264.167 489.833,264.167 488.5,263.5 Z"/></g>
<g><path style="opacity:0.004" fill="#2ad0d7" d="M 552.5,266.5 C 551.833,265.167 551.833,265.167 552.5,266.5 Z"/></g>
<g><path style="opacity:0.008" fill="#2ad3da" d="M 489.5,266.5 C 490.833,267.167 490.833,267.167 489.5,266.5 Z"/></g>
<g><path style="opacity:0.004" fill="#28cfd9" d="M 748.5,267.5 C 749.797,270.603 749.464,270.937 747.5,268.5C 747.624,267.893 747.957,267.56 748.5,267.5 Z"/></g>
<g><path style="opacity:0.196" fill="#24c1cb" d="M 777.5,264.5 C 783.833,268.833 789.167,274.167 793.5,280.5C 787.833,275.5 782.5,270.167 777.5,264.5 Z"/></g>
<g><path style="opacity:0.486" fill="#26c7cf" d="M 374.5,257.5 C 377.541,264.954 380.208,272.62 382.5,280.5C 378.664,273.33 375.998,265.663 374.5,257.5 Z"/></g>
<g><path style="opacity:0.008" fill="#2dd2dc" d="M 493.5,270.5 C 494.525,270.897 494.692,271.563 494,272.5C 493.536,271.906 493.369,271.239 493.5,270.5 Z"/></g>
<g><path style="opacity:0.012" fill="#27cad2" d="M 376.5,271.5 C 377.833,272.167 377.833,272.167 376.5,271.5 Z"/></g>
<g><path style="opacity:0.004" fill="#2ed0d7" d="M 544.5,271.5 C 545.833,272.167 545.833,272.167 544.5,271.5 Z"/></g>
<g><path style="opacity:0.008" fill="#28c3cc" d="M 789.5,271.5 C 790.833,272.167 790.833,272.167 789.5,271.5 Z"/></g>
<g><path style="opacity:0.014" fill="#2accd2" d="M 378.5,276.5 C 377.475,276.103 377.308,275.437 378,274.5C 378.464,275.094 378.631,275.761 378.5,276.5 Z"/></g>
<g><path style="opacity:0.012" fill="#2accd5" d="M 378.5,276.5 C 379.525,276.897 379.692,277.563 379,278.5C 378.536,277.906 378.369,277.239 378.5,276.5 Z"/></g>
<g><path style="opacity:0.012" fill="#2cd6dc" d="M 505.5,282.5 C 506.833,283.167 506.833,283.167 505.5,282.5 Z"/></g>
<g><path style="opacity:0.004" fill="#2dd7d9" d="M 507.5,283.5 C 508.833,284.167 508.833,284.167 507.5,283.5 Z"/></g>
<g><path style="opacity:0.004" fill="#2bd4db" d="M 533.5,285.5 C 532.761,285.631 532.094,285.464 531.5,285C 532.437,284.308 533.103,284.475 533.5,285.5 Z"/></g>
<g><path style="opacity:0.004" fill="#2ac7cf" d="M 378.5,285.5 C 379.833,286.167 379.833,286.167 378.5,285.5 Z"/></g>
<g><path style="opacity:0.008" fill="#29d0da" d="M 517.5,288.5 C 517.897,287.475 518.563,287.308 519.5,288C 518.906,288.464 518.239,288.631 517.5,288.5 Z"/></g>
<g><path style="opacity:0.008" fill="#2bd4da" d="M 520.5,287.5 C 521.833,288.167 521.833,288.167 520.5,287.5 Z"/></g>
<g><path style="opacity:0.008" fill="#26c7cc" d="M 805.5,289.5 C 806.833,290.167 806.833,290.167 805.5,289.5 Z"/></g>
<g><path style="opacity:0.004" fill="#000808" d="M 161.5,290.5 C 162.833,291.167 162.833,291.167 161.5,290.5 Z"/></g>
<g><path style="opacity:0.008" fill="#2bcbd6" d="M 386.5,292.5 C 385.833,293.167 385.833,293.167 386.5,292.5 Z"/></g>
<g><path style="opacity:0.004" fill="#2acad4" d="M 385.5,294.5 C 386.833,295.167 386.833,295.167 385.5,294.5 Z"/></g>
<g><path style="opacity:0.004" fill="#2cd0db" d="M 784.5,301.5 C 785.167,301.5 785.5,301.833 785.5,302.5C 785.44,303.043 785.107,303.376 784.5,303.5C 783.227,302.743 783.227,302.077 784.5,301.5 Z"/></g>
<g><path style="opacity:0.012" fill="#2bc9d3" d="M 391.5,304.5 C 392.833,305.167 392.833,305.167 391.5,304.5 Z"/></g>
<g><path style="opacity:0.004" fill="#000000" d="M 75.5,305.5 C 76.8333,306.167 76.8333,306.167 75.5,305.5 Z"/></g>
<g><path style="opacity:0.437" fill="#25bec9" d="M 813.5,306.5 C 814.906,306.973 815.573,307.973 815.5,309.5C 814.094,309.027 813.427,308.027 813.5,306.5 Z"/></g>
<g><path style="opacity:0.004" fill="#29cbd1" d="M 396.5,310.5 C 395.833,311.167 395.833,311.167 396.5,310.5 Z"/></g>
<g><path style="opacity:0.004" fill="#000000" d="M 22.5,312.5 C 23.8333,313.167 23.8333,313.167 22.5,312.5 Z"/></g>
<g><path style="opacity:0.004" fill="#2acbd3" d="M 397.5,312.5 C 396.833,313.167 396.833,313.167 397.5,312.5 Z"/></g>
<g><path style="opacity:0.004" fill="#0d4649" d="M 279.5,314.5 C 280.833,315.167 280.833,315.167 279.5,314.5 Z"/></g>
<g><path style="opacity:0.218" fill="#25c2cb" d="M 818.5,314.5 C 821.593,318.347 823.926,322.68 825.5,327.5C 822.407,323.653 820.074,319.32 818.5,314.5 Z"/></g>
<g><path style="opacity:0.004" fill="#000d0d" d="M 186.5,316.5 C 187.833,317.167 187.833,317.167 186.5,316.5 Z"/></g>
<g><path style="opacity:0.004" fill="#000000" d="M 107.5,317.5 C 108.833,318.167 108.833,318.167 107.5,317.5 Z"/></g>
<g><path style="opacity:0.008" fill="#2ccbd1" d="M 399.5,317.5 C 400.833,318.167 400.833,318.167 399.5,317.5 Z"/></g>
<g><path style="opacity:0.996" fill="#28d1da" d="M 818.5,314.5 C 820.074,319.32 822.407,323.653 825.5,327.5C 832.075,340.221 837.075,353.555 840.5,367.5C 841.073,373.455 842.407,379.122 844.5,384.5C 845.243,391.215 846.243,397.882 847.5,404.5C 846.842,405.793 846.508,407.293 846.5,409C 847.824,427.306 848.824,445.473 849.5,463.5C 848.613,472.149 847.946,480.815 847.5,489.5C 845.623,496.946 844.29,504.613 843.5,512.5C 842.66,514.792 841.66,517.125 840.5,519.5C 839.749,518.624 839.249,517.624 839,516.5C 838.023,517.774 837.189,517.774 836.5,516.5C 837.617,513.721 838.783,513.388 840,515.5C 840.483,514.552 840.649,513.552 840.5,512.5C 839.448,512.649 838.448,512.483 837.5,512C 837.833,511.667 838.167,511.333 838.5,511C 837.794,509.09 836.794,507.09 835.5,505C 837.167,504.333 838.833,504.333 840.5,505C 839.833,505.333 839.167,505.667 838.5,506C 839.833,507 839.833,508 838.5,509C 839.167,509.667 839.833,509.667 840.5,509C 842.304,505.704 842.804,502.204 842,498.5C 840.796,499.471 840.296,500.471 840.5,501.5C 838.519,500.895 838.185,499.895 839.5,498.5C 837.604,497.534 835.604,497.201 833.5,497.5C 833.413,494.402 833.913,494.068 835,496.5C 836.422,496.406 837.922,496.072 839.5,495.5C 838.362,492.349 839.029,489.183 841.5,486C 840.167,485.333 839.167,484.333 838.5,483C 837.167,482.667 835.833,482.333 834.5,482C 836.025,480.991 837.692,480.491 839.5,480.5C 839.67,479.178 839.337,478.011 838.5,477C 841.89,475.994 842.89,473.994 841.5,471C 844.318,468.885 844.151,467.052 841,465.5C 839.853,466.458 838.853,466.125 838,464.5C 837.282,465.451 836.449,465.617 835.5,465C 837.962,463.784 840.629,463.118 843.5,463C 843.301,460.699 842.801,458.533 842,456.5C 841.65,458.429 840.983,460.429 840,462.5C 838.505,460.89 838.339,459.224 839.5,457.5C 835.5,454.833 835.5,452.167 839.5,449.5C 838.033,449.277 836.533,448.944 835,448.5C 833.435,453.882 832.269,459.216 831.5,464.5C 833.216,432.325 830.049,400.658 822,369.5C 820.629,364.536 818.796,359.869 816.5,355.5C 812.93,348.018 809.597,340.352 806.5,332.5C 806.179,331.183 805.846,329.849 805.5,328.5C 806.169,325.972 807.002,325.972 808,328.5C 808.309,327.234 808.809,326.067 809.5,325C 807.862,324.758 806.362,323.925 805,322.5C 804.64,320.579 803.806,318.912 802.5,317.5C 802.833,317.167 803.167,316.833 803.5,316.5C 805.264,319.177 806.43,318.844 807,315.5C 808,316.833 809,318.167 810,319.5C 811.667,318.5 813.333,317.5 815,316.5C 815.333,314.833 815.667,313.167 816,311.5C 816.377,312.942 817.21,313.942 818.5,314.5 Z"/></g>
<g><path style="opacity:0.004" fill="#28ccd2" d="M 400.5,319.5 C 401.833,320.167 401.833,320.167 400.5,319.5 Z"/></g>
<g><path style="opacity:0.004" fill="#29c7cd" d="M 825.5,322.5 C 826.833,323.167 826.833,323.167 825.5,322.5 Z"/></g>
<g><path style="opacity:0.008" fill="#29ccd2" d="M 404.5,325.5 C 405.833,326.167 405.833,326.167 404.5,325.5 Z"/></g>
<g><path style="opacity:0.004" fill="#27c7d1" d="M 399.5,327.5 C 399.897,326.475 400.563,326.308 401.5,327C 400.906,327.464 400.239,327.631 399.5,327.5 Z"/></g>
<g><path style="opacity:0.012" fill="#2acfd8" d="M 799.5,327.5 C 800.077,326.227 800.743,326.227 801.5,327.5C 801.03,328.463 800.363,328.463 799.5,327.5 Z"/></g>
<g><path style="opacity:0.012" fill="#2bced8" d="M 407.5,330.5 C 408.833,331.167 408.833,331.167 407.5,330.5 Z"/></g>
<g><path style="opacity:0.004" fill="#2bc6cb" d="M 830.5,332.5 C 831.833,333.167 831.833,333.167 830.5,332.5 Z"/></g>
<g><path style="opacity:0.004" fill="#000a09" d="M 171.5,333.5 C 172.833,334.167 172.833,334.167 171.5,333.5 Z"/></g>
<g><path style="opacity:0.012" fill="#27cfd7" d="M 412.5,333.5 C 411.833,334.167 411.833,334.167 412.5,333.5 Z"/></g>
<g><path style="opacity:0.004" fill="#000000" d="M 63.5,338.5 C 64.8333,339.167 64.8333,339.167 63.5,338.5 Z"/></g>
<g><path style="opacity:0.012" fill="#2ad0d4" d="M 416.5,338.5 C 415.833,339.167 415.833,339.167 416.5,338.5 Z"/></g>
<g><path style="opacity:0.004" fill="#177170" d="M 897.5,338.5 C 898.833,339.167 898.833,339.167 897.5,338.5 Z"/></g>
<g><path style="opacity:0.004" fill="#186e72" d="M 331.5,349.5 C 332.833,350.167 332.833,350.167 331.5,349.5 Z"/></g>
<g><path style="opacity:0.016" fill="#29cbd1" d="M 427.5,350.5 C 426.833,351.167 426.833,351.167 427.5,350.5 Z"/></g>
<g><path style="opacity:0.004" fill="#2bd0d5" d="M 430.5,353.5 C 429.833,354.167 429.833,354.167 430.5,353.5 Z"/></g>
<g><path style="opacity:0.447" fill="#27c9d2" d="M 422.5,343.5 C 429.833,350.167 436.833,357.167 443.5,364.5C 438.893,361.232 434.559,357.565 430.5,353.5C 429.833,352.167 428.833,351.167 427.5,350.5C 425.42,348.427 423.754,346.093 422.5,343.5 Z"/></g>
<g><path style="opacity:0.004" fill="#000000" d="M 95.5,362.5 C 96.8333,363.167 96.8333,363.167 95.5,362.5 Z"/></g>
<g><path style="opacity:0.004" fill="#115d5f" d="M 922.5,364.5 C 923.833,365.167 923.833,365.167 922.5,364.5 Z"/></g>
<g><path style="opacity:0.004" fill="#000000" d="M 131.5,369.5 C 132.833,370.167 132.833,370.167 131.5,369.5 Z"/></g>
<g><path style="opacity:0.706" fill="#24c0c7" d="M 840.5,367.5 C 842.592,372.874 843.925,378.54 844.5,384.5C 842.407,379.122 841.073,373.455 840.5,367.5 Z"/></g>
<g><path style="opacity:0.004" fill="#0a3636" d="M 267.5,373.5 C 268.833,374.167 268.833,374.167 267.5,373.5 Z"/></g>
<g><path style="opacity:0.008" fill="#2acfda" d="M 450.5,372.5 C 451.167,372.5 451.5,372.833 451.5,373.5C 451.44,374.043 451.107,374.376 450.5,374.5C 449.227,373.743 449.227,373.077 450.5,372.5 Z"/></g>
<g><path style="opacity:0.008" fill="#27c9cf" d="M 843.5,374.5 C 843.897,373.475 844.563,373.308 845.5,374C 844.906,374.464 844.239,374.631 843.5,374.5 Z"/></g>
<g><path style="opacity:0.008" fill="#2bc8cf" d="M 846.5,383.5 C 845.833,382.167 845.833,382.167 846.5,383.5 Z"/></g>
<g><path style="opacity:0.004" fill="#2ac7cd" d="M 846.5,383.5 C 847.833,384.167 847.833,384.167 846.5,383.5 Z"/></g>
<g><path style="opacity:0.004" fill="#29c9cc" d="M 846.5,385.5 C 847.833,386.167 847.833,386.167 846.5,385.5 Z"/></g>
<g><path style="opacity:0.008" fill="#2dced5" d="M 465.5,394.5 C 466.833,395.167 466.833,395.167 465.5,394.5 Z"/></g>
<g><path style="opacity:0.004" fill="#29c7cf" d="M 848.5,399.5 C 849.833,400.167 849.833,400.167 848.5,399.5 Z"/></g>
<g><path style="opacity:0.008" fill="#2bd0d8" d="M 473.5,403.5 C 473.897,402.475 474.563,402.308 475.5,403C 474.906,403.464 474.239,403.631 473.5,403.5 Z"/></g>
<g><path style="opacity:0.004" fill="#2bc9ce" d="M 849.5,402.5 C 850.833,403.167 850.833,403.167 849.5,402.5 Z"/></g>
<g><path style="opacity:0.004" fill="#2ed1d6" d="M 480.5,412.5 C 481.833,413.167 481.833,413.167 480.5,412.5 Z"/></g>
<g><path style="opacity:0.004" fill="#2ac8cf" d="M 850.5,412.5 C 851.833,413.167 851.833,413.167 850.5,412.5 Z"/></g>
<g><path style="opacity:0.004" fill="#29c4c9" d="M 854.5,412.5 C 855.833,413.167 855.833,413.167 854.5,412.5 Z"/></g>
<g><path style="opacity:0.004" fill="#2dd2d9" d="M 482.5,415.5 C 483.833,416.167 483.833,416.167 482.5,415.5 Z"/></g>
<g><path style="opacity:0.004" fill="#000000" d="M 87.5,418.5 C 88.8333,419.167 88.8333,419.167 87.5,418.5 Z"/></g>
<g><path style="opacity:0.004" fill="#2cd2d8" d="M 484.5,419.5 C 485.833,420.167 485.833,420.167 484.5,419.5 Z"/></g>
<g><path style="opacity:0.004" fill="#28c7ce" d="M 851.5,421.5 C 852.525,421.897 852.692,422.563 852,423.5C 851.536,422.906 851.369,422.239 851.5,421.5 Z"/></g>
<g><path style="opacity:0.004" fill="#021916" d="M 185.5,426.5 C 186.833,427.167 186.833,427.167 185.5,426.5 Z"/></g>
<g><path style="opacity:0.004" fill="#2ad1d7" d="M 489.5,426.5 C 488.833,427.167 488.833,427.167 489.5,426.5 Z"/></g>
<g><path style="opacity:0.004" fill="#09302e" d="M 996.5,427.5 C 997.833,428.167 997.833,428.167 996.5,427.5 Z"/></g>
<g><path style="opacity:0.673" fill="#28c9d0" d="M 816.5,355.5 C 818.796,359.869 820.629,364.536 822,369.5C 830.049,400.658 833.216,432.325 831.5,464.5C 830.783,470.484 830.116,476.484 829.5,482.5C 827.254,498.979 824.254,515.312 820.5,531.5C 819.5,533.5 818.5,535.5 817.5,537.5C 831.023,489.233 833.856,440.899 826,392.5C 823.537,379.952 820.37,367.619 816.5,355.5 Z"/></g>
<g><path style="opacity:0.004" fill="#000000" d="M 75.5,433.5 C 76.8333,434.167 76.8333,434.167 75.5,433.5 Z"/></g>
<g><path style="opacity:0.004" fill="#2bcfd7" d="M 489.5,434.5 C 490.833,435.167 490.833,435.167 489.5,434.5 Z"/></g>
<g><path style="opacity:0.004" fill="#062c2b" d="M 1017.5,434.5 C 1018.83,435.167 1018.83,435.167 1017.5,434.5 Z"/></g>
<g><path style="opacity:0.004" fill="#29c6cf" d="M 517.5,440.5 C 517.511,437.999 518.178,437.832 519.5,440C 518.906,440.464 518.239,440.631 517.5,440.5 Z"/></g>
<g><path style="opacity:0.004" fill="#072b2b" d="M 1019.5,441.5 C 1020.83,442.167 1020.83,442.167 1019.5,441.5 Z"/></g>
<g><path style="opacity:0.004" fill="#0f4a4a" d="M 275.5,443.5 C 276.833,444.167 276.833,444.167 275.5,443.5 Z"/></g>
<g><path style="opacity:0.004" fill="#000f0c" d="M 138.5,444.5 C 139.833,445.167 139.833,445.167 138.5,444.5 Z"/></g>
<g><path style="opacity:0.008" fill="#2bcfd5" d="M 495.5,446.5 C 496.833,447.167 496.833,447.167 495.5,446.5 Z"/></g>
<g><path style="opacity:0.004" fill="#000000" d="M 43.5,449.5 C 44.8333,450.167 44.8333,450.167 43.5,449.5 Z"/></g>
<g><path style="opacity:0.51" fill="#26c3cd" d="M 515.5,437.5 C 516.167,438.5 516.833,439.5 517.5,440.5C 518.714,446.451 519.714,452.451 520.5,458.5C 518.263,451.756 516.596,444.756 515.5,437.5 Z"/></g>
<g><path style="opacity:0.008" fill="#2ad2d6" d="M 496.5,455.5 C 497.833,456.167 497.833,456.167 496.5,455.5 Z"/></g>
<g><path style="opacity:0.983" fill="#2bdbe3" d="M 847.5,404.5 C 849.272,424.114 849.938,443.781 849.5,463.5C 848.824,445.473 847.824,427.306 846.5,409C 846.508,407.293 846.842,405.793 847.5,404.5 Z"/></g>
<g><path style="opacity:0.004" fill="#2accd1" d="M 851.5,460.5 C 852.833,461.167 852.833,461.167 851.5,460.5 Z"/></g>
<g><path style="opacity:0.004" fill="#0b3838" d="M 219.5,461.5 C 220.833,462.167 220.833,462.167 219.5,461.5 Z"/></g>
<g><path style="opacity:0.004" fill="#2ad1d7" d="M 498.5,460.5 C 499.573,461.251 499.74,462.251 499,463.5C 498.517,462.552 498.351,461.552 498.5,460.5 Z"/></g>
<g><path style="opacity:0.004" fill="#000102" d="M 59.5,465.5 C 60.8333,466.167 60.8333,466.167 59.5,465.5 Z"/></g>
<g><path style="opacity:0.152" fill="#26c4cb" d="M 844.5,384.5 C 846.45,393.278 848.45,402.112 850.5,411C 849.892,412.231 849.559,413.564 849.5,415C 852.019,439.563 851.352,464.396 847.5,489.5C 847.946,480.815 848.613,472.149 849.5,463.5C 849.938,443.781 849.272,424.114 847.5,404.5C 846.243,397.882 845.243,391.215 844.5,384.5 Z"/></g>
<g><path style="opacity:0.012" fill="#29c9d0" d="M 851.5,470.5 C 852.833,471.167 852.833,471.167 851.5,470.5 Z"/></g>
<g><path style="opacity:0.008" fill="#2ad0d7" d="M 499.5,471.5 C 500.634,473.966 500.801,476.633 500,479.5C 499.503,476.854 499.336,474.187 499.5,471.5 Z"/></g>
<g><path style="opacity:1" fill="#2ddae2" d="M 501.5,495.5 C 502.012,489.184 502.346,482.85 502.5,476.5C 502.68,469.928 502.014,463.595 500.5,457.5C 500.34,455.801 500.506,454.134 501,452.5C 501.333,453.5 501.667,454.5 502,455.5C 503.504,467.461 503.838,479.461 503,491.5C 502.79,493.058 502.29,494.391 501.5,495.5 Z"/></g>
<g><path style="opacity:0.951" fill="#26c8cf" d="M 520.5,461.5 C 522.851,474.82 522.518,487.82 519.5,500.5C 520.327,487.518 520.661,474.518 520.5,461.5 Z"/></g>
<g><path style="opacity:0.008" fill="#2ccfd6" d="M 499.5,480.5 C 500.833,481.167 500.833,481.167 499.5,480.5 Z"/></g>
<g><path style="opacity:0.004" fill="#000002" d="M 43.5,481.5 C 44.8333,482.167 44.8333,482.167 43.5,481.5 Z"/></g>
<g><path style="opacity:0.004" fill="#145c60" d="M 268.5,483.5 C 269.833,484.167 269.833,484.167 268.5,483.5 Z"/></g>
<g><path style="opacity:0.004" fill="#29c9cf" d="M 849.5,483.5 C 850.833,484.167 850.833,484.167 849.5,483.5 Z"/></g>
<g><path style="opacity:0.012" fill="#2bced3" d="M 497.5,490.5 C 498.833,491.167 498.833,491.167 497.5,490.5 Z"/></g>
<g><path style="opacity:0.984" fill="#28cbd2" d="M 500.5,457.5 C 502.014,463.595 502.68,469.928 502.5,476.5C 502.346,482.85 502.012,489.184 501.5,495.5C 500.279,501.403 498.612,507.069 496.5,512.5C 499.467,500.694 501.134,488.694 501.5,476.5C 501.453,472.733 500.786,469.233 499.5,466C 500.444,463.281 500.777,460.448 500.5,457.5 Z"/></g>
<g><path style="opacity:0.004" fill="#2bd1da" d="M 497.5,495.5 C 498.833,496.167 498.833,496.167 497.5,495.5 Z"/></g>
<g><path style="opacity:0.004" fill="#2ad0d6" d="M 497.5,497.5 C 498.525,497.897 498.692,498.563 498,499.5C 497.536,498.906 497.369,498.239 497.5,497.5 Z"/></g>
<g><path style="opacity:0.798" fill="#24c4cb" d="M 847.5,489.5 C 847.064,493.911 847.064,498.244 847.5,502.5C 847.154,503.696 846.654,503.696 846,502.5C 845.465,506.038 844.632,509.372 843.5,512.5C 844.29,504.613 845.623,496.946 847.5,489.5 Z"/></g>
<g><path style="opacity:0.004" fill="#2bc7cc" d="M 849.5,498.5 C 850.833,499.167 850.833,499.167 849.5,498.5 Z"/></g>
<g><path style="opacity:0.125" fill="#23bfc6" d="M 519.5,500.5 C 519.785,503.829 519.118,506.829 517.5,509.5C 517.676,506.273 518.343,503.273 519.5,500.5 Z"/></g>
<g><path style="opacity:0.004" fill="#2acfd8" d="M 495.5,504.5 C 496.573,505.251 496.74,506.251 496,507.5C 495.517,506.552 495.351,505.552 495.5,504.5 Z"/></g>
<g><path style="opacity:0.008" fill="#29c9d0" d="M 846.5,505.5 C 847.833,506.167 847.833,506.167 846.5,505.5 Z"/></g>
<g><path style="opacity:0.024" fill="#28c9d0" d="M 845.5,510.5 C 846.833,511.167 846.833,511.167 845.5,510.5 Z"/></g>
<g><path style="opacity:0.004" fill="#2bcad0" d="M 844.5,513.5 C 845.833,514.167 845.833,514.167 844.5,513.5 Z"/></g>
<g><path style="opacity:0.991" fill="#27ccd4" d="M 843.5,512.5 C 841.708,525.672 838.375,538.338 833.5,550.5C 833.647,547.557 834.313,544.724 835.5,542C 835.056,540.238 834.556,540.405 834,542.5C 831.879,540.155 830.712,537.321 830.5,534C 833.085,529.221 833.752,529.388 832.5,534.5C 833.498,537.028 834.331,537.028 835,534.5C 835.333,536.167 835.667,537.833 836,539.5C 838.139,533.948 839.472,528.282 840,522.5C 839,525.167 838,527.833 837,530.5C 836.846,527.768 837.346,525.102 838.5,522.5C 837.248,520.999 836.248,519.332 835.5,517.5C 835.624,516.893 835.957,516.56 836.5,516.5C 837.189,517.774 838.023,517.774 839,516.5C 839.249,517.624 839.749,518.624 840.5,519.5C 841.66,517.125 842.66,514.792 843.5,512.5 Z"/></g>
<g><path style="opacity:1" fill="#2bd7e0" d="M 829.5,482.5 C 830.147,483.274 830.48,484.274 830.5,485.5C 829.833,489.833 829.167,494.167 828.5,498.5C 828.594,500.689 829.261,502.689 830.5,504.5C 829.68,506.111 828.346,506.778 826.5,506.5C 825.572,515.206 823.572,523.54 820.5,531.5C 824.254,515.312 827.254,498.979 829.5,482.5 Z"/></g>
<g><path style="opacity:0.004" fill="#000305" d="M 7.5,522.5 C 8.83333,523.167 8.83333,523.167 7.5,522.5 Z"/></g>
<g><path style="opacity:0.016" fill="#29c6cd" d="M 842.5,524.5 C 843.833,525.167 843.833,525.167 842.5,524.5 Z"/></g>
<g><path style="opacity:0.004" fill="#29cdd0" d="M 488.5,528.5 C 487.833,527.167 487.833,527.167 488.5,528.5 Z"/></g>
<g><path style="opacity:0.004" fill="#2ac5c9" d="M 841.5,528.5 C 842.833,529.167 842.833,529.167 841.5,528.5 Z"/></g>
<g><path style="opacity:0.004" fill="#29b7bf" d="M 409.5,530.5 C 410.833,531.167 410.833,531.167 409.5,530.5 Z"/></g>
<g><path style="opacity:0.004" fill="#072b2b" d="M 987.5,537.5 C 988.833,538.167 988.833,538.167 987.5,537.5 Z"/></g>
<g><path style="opacity:0.004" fill="#000503" d="M 10.5,540.5 C 11.8333,541.167 11.8333,541.167 10.5,540.5 Z"/></g>
<g><path style="opacity:0.012" fill="#2ac9ce" d="M 838.5,540.5 C 839.833,541.167 839.833,541.167 838.5,540.5 Z"/></g>
<g><path style="opacity:0.004" fill="#0b3634" d="M 131.5,541.5 C 132.833,542.167 132.833,542.167 131.5,541.5 Z"/></g>
<g><path style="opacity:0.004" fill="#093332" d="M 970.5,548.5 C 971.833,549.167 971.833,549.167 970.5,548.5 Z"/></g>
<g><path style="opacity:0.004" fill="#2ac7ce" d="M 833.5,554.5 C 834.833,555.167 834.833,555.167 833.5,554.5 Z"/></g>
<g><path style="opacity:0.004" fill="#000c0c" d="M 19.5,557.5 C 20.8333,558.167 20.8333,558.167 19.5,557.5 Z"/></g>
<g><path style="opacity:0.004" fill="#28c8d1" d="M 830.5,563.5 C 831.833,564.167 831.833,564.167 830.5,563.5 Z"/></g>
<g><path style="opacity:0.012" fill="#2dd2d5" d="M 453.5,565.5 C 452.833,564.167 452.833,564.167 453.5,565.5 Z"/></g>
<g><path style="opacity:0.994" fill="#28d0d9" d="M 505.5,539.5 C 482.364,580.74 447.031,599.406 399.5,595.5C 400.624,594.191 402.124,593.525 404,593.5C 407.857,593.621 411.69,593.788 415.5,594C 414.366,592.984 414.699,592.317 416.5,592C 413.937,591.237 413.937,590.737 416.5,590.5C 418.459,590.875 420.293,591.541 422,592.5C 423,591.833 424,591.167 425,590.5C 428.366,591.374 431.7,592.374 435,593.5C 436.456,592.08 437.956,590.747 439.5,589.5C 438.335,588.416 437.002,587.583 435.5,587C 437.294,585.527 438.96,584.694 440.5,584.5C 439.5,583.667 438.5,582.833 437.5,582C 437.833,581.667 438.167,581.333 438.5,581C 437.207,580.51 435.873,580.343 434.5,580.5C 434.137,578.089 435.137,576.589 437.5,576C 436.552,575.517 435.552,575.351 434.5,575.5C 438.251,574.027 441.917,572.36 445.5,570.5C 448.167,568.833 450.833,567.167 453.5,565.5C 464.061,558.939 473.395,550.939 481.5,541.5C 482.71,543.176 482.21,544.51 480,545.5C 478.866,547.794 478.366,549.961 478.5,552C 479.449,552.617 480.282,552.451 481,551.5C 481.456,552.744 480.956,553.577 479.5,554C 480.931,554.465 482.097,555.299 483,556.5C 482.695,554.557 482.695,552.557 483,550.5C 483.333,550.833 483.667,551.167 484,551.5C 485.154,549.043 486.488,549.043 488,551.5C 488.667,547.5 489.333,547.5 490,551.5C 490.637,549.334 492.471,547.834 495.5,547C 494.953,546.075 494.287,545.242 493.5,544.5C 489.735,545.701 489.568,545.034 493,542.5C 495.204,542.909 497.37,543.242 499.5,543.5C 500.442,543.392 501.275,543.059 502,542.5C 502.748,540.668 503.748,539.001 505,537.5C 505.464,538.094 505.631,538.761 505.5,539.5 Z"/></g>
<g><path style="opacity:0.004" fill="#26c7cf" d="M 829.5,566.5 C 830.833,567.167 830.833,567.167 829.5,566.5 Z"/></g>
<g><path style="opacity:0.008" fill="#29cbd3" d="M 314.5,567.5 C 315.833,568.167 315.833,568.167 314.5,567.5 Z"/></g>
<g><path style="opacity:0.006" fill="#29cbd2" d="M 316.5,568.5 C 316.897,567.475 317.563,567.308 318.5,568C 317.906,568.464 317.239,568.631 316.5,568.5 Z"/></g>
<g><path style="opacity:0.012" fill="#2dd0d6" d="M 363.5,567.5 C 364.833,568.167 364.833,568.167 363.5,567.5 Z"/></g>
<g><path style="opacity:0.008" fill="#2acad2" d="M 309.5,568.5 C 310.833,569.167 310.833,569.167 309.5,568.5 Z"/></g>
<g><path style="opacity:0.004" fill="#2bcfd6" d="M 369.5,568.5 C 370.833,569.167 370.833,569.167 369.5,568.5 Z"/></g>
<g><path style="opacity:0.012" fill="#2bd1d6" d="M 441.5,568.5 C 442.833,569.167 442.833,569.167 441.5,568.5 Z"/></g>
<g><path style="opacity:0.008" fill="#2cd3d7" d="M 443.5,568.5 C 444.833,569.167 444.833,569.167 443.5,568.5 Z"/></g>
<g><path style="opacity:0.389" fill="#28cad1" d="M 365.5,569.5 C 365.158,570.338 364.492,570.672 363.5,570.5C 351.518,569.691 339.518,569.358 327.5,569.5C 321.205,570.459 314.872,571.125 308.5,571.5C 312.747,570.537 316.914,569.204 321,567.5C 334.239,568.754 347.406,568.754 360.5,567.5C 361.167,567.667 361.833,567.833 362.5,568C 361.5,568.333 360.5,568.667 359.5,569C 361.473,569.495 363.473,569.662 365.5,569.5 Z"/></g>
<g><path style="opacity:0.004" fill="#04201e" d="M 63.5,570.5 C 64.8333,571.167 64.8333,571.167 63.5,570.5 Z"/></g>
<g><path style="opacity:0.271" fill="#26c6ce" d="M 308.5,571.5 C 302.062,573.659 295.396,575.326 288.5,576.5C 294.805,573.834 301.472,572.167 308.5,571.5 Z"/></g>
<g><path style="opacity:0.035" fill="#29ccd2" d="M 367.5,570.5 C 383.13,572.827 398.797,574.827 414.5,576.5C 425.031,575.527 435.365,573.527 445.5,570.5C 441.917,572.36 438.251,574.027 434.5,575.5C 432.265,575.205 430.265,575.539 428.5,576.5C 416.467,577.74 404.467,577.407 392.5,575.5C 383.497,573.716 375.163,572.05 367.5,570.5 Z"/></g>
<g><path style="opacity:0.008" fill="#2dd1d7" d="M 404.5,573.5 C 405.833,574.167 405.833,574.167 404.5,573.5 Z"/></g>
<g><path style="opacity:0.004" fill="#2cd0d5" d="M 434.5,571.5 C 435.833,572.167 435.833,572.167 434.5,571.5 Z"/></g>
<g><path style="opacity:0.004" fill="#2cd2d9" d="M 385.5,570.5 C 386.833,571.167 386.833,571.167 385.5,570.5 Z"/></g>
<g><path style="opacity:0.996" fill="#28d0da" d="M 836.5,516.5 C 835.957,516.56 835.624,516.893 835.5,517.5C 836.248,519.332 837.248,520.999 838.5,522.5C 837.346,525.102 836.846,527.768 837,530.5C 838,527.833 839,525.167 840,522.5C 839.472,528.282 838.139,533.948 836,539.5C 835.667,537.833 835.333,536.167 835,534.5C 834.331,537.028 833.498,537.028 832.5,534.5C 833.752,529.388 833.085,529.221 830.5,534C 830.712,537.321 831.879,540.155 834,542.5C 834.556,540.405 835.056,540.238 835.5,542C 834.313,544.724 833.647,547.557 833.5,550.5C 827.087,572.977 817.753,593.977 805.5,613.5C 805.785,611.712 805.452,610.045 804.5,608.5C 803.833,608.833 803.167,609.167 802.5,609.5C 801.904,608.284 801.737,606.951 802,605.5C 800.853,606.458 799.853,606.125 799,604.5C 798.5,605 798,605.5 797.5,606C 798.91,606.368 799.91,607.201 800.5,608.5C 800.277,609.967 799.944,611.467 799.5,613C 800.126,613.75 800.626,614.584 801,615.5C 801.419,614.328 802.085,613.328 803,612.5C 803.167,612.833 803.333,613.167 803.5,613.5C 801.703,616.756 800.203,620.089 799,623.5C 795.944,622.981 792.944,623.647 790,625.5C 789.5,625 789,624.5 788.5,624C 789.517,622.951 789.684,621.784 789,620.5C 787.833,622.333 786.667,624.167 785.5,626C 788.939,628.465 788.772,630.965 785,633.5C 783.279,633.469 781.446,632.802 779.5,631.5C 780.531,630.3 781.365,628.966 782,627.5C 782.333,628.167 782.667,628.833 783,629.5C 783.684,628.216 783.517,627.049 782.5,626C 783.167,625.667 783.833,625.333 784.5,625C 782.697,624.363 781.364,623.197 780.5,621.5C 782.038,619.757 783.038,617.757 783.5,615.5C 783.833,614.167 784.167,612.833 784.5,611.5C 797.823,587.861 808.823,563.194 817.5,537.5C 818.5,535.5 819.5,533.5 820.5,531.5C 823.572,523.54 825.572,515.206 826.5,506.5C 828.346,506.778 829.68,506.111 830.5,504.5C 829.261,502.689 828.594,500.689 828.5,498.5C 829.167,494.167 829.833,489.833 830.5,485.5C 830.48,484.274 830.147,483.274 829.5,482.5C 830.116,476.484 830.783,470.484 831.5,464.5C 832.269,459.216 833.435,453.882 835,448.5C 836.533,448.944 838.033,449.277 839.5,449.5C 835.5,452.167 835.5,454.833 839.5,457.5C 838.339,459.224 838.505,460.89 840,462.5C 840.983,460.429 841.65,458.429 842,456.5C 842.801,458.533 843.301,460.699 843.5,463C 840.629,463.118 837.962,463.784 835.5,465C 836.449,465.617 837.282,465.451 838,464.5C 838.853,466.125 839.853,466.458 841,465.5C 844.151,467.052 844.318,468.885 841.5,471C 842.89,473.994 841.89,475.994 838.5,477C 839.337,478.011 839.67,479.178 839.5,480.5C 837.692,480.491 836.025,480.991 834.5,482C 835.833,482.333 837.167,482.667 838.5,483C 839.167,484.333 840.167,485.333 841.5,486C 839.029,489.183 838.362,492.349 839.5,495.5C 837.922,496.072 836.422,496.406 835,496.5C 833.913,494.068 833.413,494.402 833.5,497.5C 835.604,497.201 837.604,497.534 839.5,498.5C 838.185,499.895 838.519,500.895 840.5,501.5C 840.296,500.471 840.796,499.471 842,498.5C 842.804,502.204 842.304,505.704 840.5,509C 839.833,509.667 839.167,509.667 838.5,509C 839.833,508 839.833,507 838.5,506C 839.167,505.667 839.833,505.333 840.5,505C 838.833,504.333 837.167,504.333 835.5,505C 836.794,507.09 837.794,509.09 838.5,511C 838.167,511.333 837.833,511.667 837.5,512C 838.448,512.483 839.448,512.649 840.5,512.5C 840.649,513.552 840.483,514.552 840,515.5C 838.783,513.388 837.617,513.721 836.5,516.5 Z"/></g>
<g><path style="opacity:0.004" fill="#27c5cd" d="M 256.5,583.5 C 257.833,584.167 257.833,584.167 256.5,583.5 Z"/></g>
<g><path style="opacity:0.008" fill="#2bc8d1" d="M 265.5,584.5 C 264.761,584.631 264.094,584.464 263.5,584C 264.437,583.308 265.103,583.475 265.5,584.5 Z"/></g>
<g><path style="opacity:0.004" fill="#24a1a4" d="M 852.5,583.5 C 853.833,584.167 853.833,584.167 852.5,583.5 Z"/></g>
<g><path style="opacity:0.004" fill="#29cad3" d="M 257.5,586.5 C 258.833,587.167 258.833,587.167 257.5,586.5 Z"/></g>
<g><path style="opacity:0.004" fill="#28c6cc" d="M 821.5,586.5 C 822.833,587.167 822.833,587.167 821.5,586.5 Z"/></g>
<g><path style="opacity:0.004" fill="#29c9d1" d="M 257.5,587.5 C 257.5,587.833 257.5,588.167 257.5,588.5C 256.83,588.019 256.83,587.685 257.5,587.5 Z"/></g>
<g><path style="opacity:0.004" fill="#041a18" d="M 38.5,592.5 C 39.8333,593.167 39.8333,593.167 38.5,592.5 Z"/></g>
<g><path style="opacity:0.996" fill="#28d0da" d="M 367.5,570.5 C 375.163,572.05 383.497,573.716 392.5,575.5C 404.423,578.996 416.423,579.329 428.5,576.5C 430.265,575.539 432.265,575.205 434.5,575.5C 435.552,575.351 436.552,575.517 437.5,576C 435.137,576.589 434.137,578.089 434.5,580.5C 435.873,580.343 437.207,580.51 438.5,581C 438.167,581.333 437.833,581.667 437.5,582C 438.5,582.833 439.5,583.667 440.5,584.5C 438.96,584.694 437.294,585.527 435.5,587C 437.002,587.583 438.335,588.416 439.5,589.5C 437.956,590.747 436.456,592.08 435,593.5C 431.7,592.374 428.366,591.374 425,590.5C 424,591.167 423,591.833 422,592.5C 420.293,591.541 418.459,590.875 416.5,590.5C 413.937,590.737 413.937,591.237 416.5,592C 414.699,592.317 414.366,592.984 415.5,594C 411.69,593.788 407.857,593.621 404,593.5C 402.124,593.525 400.624,594.191 399.5,595.5C 387.147,593.863 374.814,592.03 362.5,590C 300.95,583.052 251.783,604.219 215,653.5C 210.474,661.23 205.974,668.896 201.5,676.5C 200.778,676.918 200.278,677.584 200,678.5C 200.476,672.71 198.976,667.877 195.5,664C 196.167,663.667 196.833,663.333 197.5,663C 194.782,661.928 192.115,660.762 189.5,659.5C 190.127,658.583 190.461,657.583 190.5,656.5C 195.789,645.587 202.789,635.92 211.5,627.5C 218.167,621.5 224.5,615.167 230.5,608.5C 238.937,601.062 247.937,594.396 257.5,588.5C 260.485,587.674 263.151,586.341 265.5,584.5C 272.878,581.041 280.545,578.374 288.5,576.5C 295.396,575.326 302.062,573.659 308.5,571.5C 314.872,571.125 321.205,570.459 327.5,569.5C 337.501,570.311 347.668,570.977 358,571.5C 360.033,571.494 361.866,571.161 363.5,570.5C 364.492,570.672 365.158,570.338 365.5,569.5C 366.925,567.969 367.591,568.302 367.5,570.5 Z"/></g>
<g><path style="opacity:0.999" fill="#2adae3" d="M 339.5,585.5 C 343.472,586.108 347.472,586.608 351.5,587C 342.5,587.667 333.5,587.667 324.5,587C 329.684,586.826 334.684,586.326 339.5,585.5 Z"/></g>
<g><path style="opacity:0.991" fill="#2bdae4" d="M 392.5,575.5 C 404.467,577.407 416.467,577.74 428.5,576.5C 416.423,579.329 404.423,578.996 392.5,575.5 Z"/></g>
<g><path style="opacity:0.98" fill="#2cdae4" d="M 327.5,569.5 C 339.518,569.358 351.518,569.691 363.5,570.5C 361.866,571.161 360.033,571.494 358,571.5C 347.668,570.977 337.501,570.311 327.5,569.5 Z"/></g>
<g><path style="opacity:0.008" fill="#2ac5cd" d="M 812.5,603.5 C 813.833,604.167 813.833,604.167 812.5,603.5 Z"/></g>
<g><path style="opacity:0.004" fill="#27c5cb" d="M 226.5,607.5 C 227.833,608.167 227.833,608.167 226.5,607.5 Z"/></g>
<g><path style="opacity:0.949" fill="#25c3cb" d="M 784.5,611.5 C 784.167,612.833 783.833,614.167 783.5,615.5C 782.833,615.833 782.167,616.167 781.5,616.5C 781.75,614.326 782.75,612.659 784.5,611.5 Z"/></g>
<g><path style="opacity:0.004" fill="#29c7cc" d="M 804.5,618.5 C 805.833,619.167 805.833,619.167 804.5,618.5 Z"/></g>
<g><path style="opacity:0.992" fill="#27c8d0" d="M 230.5,608.5 C 224.5,615.167 218.167,621.5 211.5,627.5C 216.833,620.167 223.167,613.833 230.5,608.5 Z"/></g>
<g><path style="opacity:0.008" fill="#29cad0" d="M 796.5,630.5 C 797.833,631.167 797.833,631.167 796.5,630.5 Z"/></g>
<g><path style="opacity:0.004" fill="#042222" d="M 26.5,636.5 C 27.8333,637.167 27.8333,637.167 26.5,636.5 Z"/></g>
<g><path style="opacity:0.004" fill="#2bc9cf" d="M 200.5,636.5 C 201.833,637.167 201.833,637.167 200.5,636.5 Z"/></g>
<g><path style="opacity:0.008" fill="#2cc7cd" d="M 795.5,637.5 C 796.833,638.167 796.833,638.167 795.5,637.5 Z"/></g>
<g><path style="opacity:0.004" fill="#25c7cc" d="M 789.5,640.5 C 790.833,641.167 790.833,641.167 789.5,640.5 Z"/></g>
<g><path style="opacity:0.004" fill="#2cc8d0" d="M 194.5,644.5 C 195.833,645.167 195.833,645.167 194.5,644.5 Z"/></g>
<g><path style="opacity:0.004" fill="#2ac9cf" d="M 193.5,646.5 C 194.833,647.167 194.833,647.167 193.5,646.5 Z"/></g>
<g><path style="opacity:0.004" fill="#2bc9d1" d="M 781.5,651.5 C 782.833,652.167 782.833,652.167 781.5,651.5 Z"/></g>
<g><path style="opacity:0.996" fill="#28d1db" d="M 432.5,727.5 C 431.471,728.126 430.471,728.959 429.5,730C 430.126,730.75 430.626,731.584 431,732.5C 435.192,729.497 436.025,729.997 433.5,734C 434.167,734.667 434.833,735.333 435.5,736C 432.795,735.502 430.462,736.502 428.5,739C 430.158,739.725 430.658,740.892 430,742.5C 429.333,743.833 428.667,743.833 428,742.5C 427.667,743.167 427.333,743.833 427,744.5C 425.084,742.791 422.918,741.457 420.5,740.5C 419.537,740.97 419.537,741.637 420.5,742.5C 419.167,742.167 417.833,741.833 416.5,741.5C 405.842,734.503 395.175,727.503 384.5,720.5C 371.312,709.637 358.145,698.637 345,687.5C 344.667,687.833 344.333,688.167 344,688.5C 343.252,686.249 341.752,684.916 339.5,684.5C 317.854,670.091 298.354,672.758 281,692.5C 271.323,705.199 265.489,719.532 263.5,735.5C 262.883,735.611 262.383,735.944 262,736.5C 261.71,738.92 261.21,741.254 260.5,743.5C 257.262,767.942 259.762,791.942 268,815.5C 268.483,814.552 268.649,813.552 268.5,812.5C 271.016,818.899 273.683,825.232 276.5,831.5C 277.555,835.275 278.888,838.942 280.5,842.5C 282.686,848.373 283.02,854.373 281.5,860.5C 280.167,865.167 277.167,868.167 272.5,869.5C 270.214,869.595 268.214,870.262 266.5,871.5C 261.415,873.64 256.415,875.973 251.5,878.5C 250.167,878.5 248.833,878.5 247.5,878.5C 241.681,879.546 236.348,881.546 231.5,884.5C 231.167,884.5 230.833,884.5 230.5,884.5C 227.215,884.928 224.215,885.928 221.5,887.5C 219.485,888.924 217.152,889.59 214.5,889.5C 214.167,889.5 213.833,889.5 213.5,889.5C 209.311,888.405 204.977,887.405 200.5,886.5C 199.537,886.97 199.537,887.637 200.5,888.5C 198.973,888.573 197.973,887.906 197.5,886.5C 196.5,884.833 195.167,883.5 193.5,882.5C 193.413,879.402 193.913,879.068 195,881.5C 195.862,879.913 196.529,878.246 197,876.5C 198.167,877.667 199.333,878.833 200.5,880C 199.483,881.049 199.316,882.216 200,883.5C 200.691,881.109 201.691,881.109 203,883.5C 203.635,882.034 204.469,880.7 205.5,879.5C 201.763,878.501 201.763,877.168 205.5,875.5C 206.647,873.235 206.814,870.902 206,868.5C 203.605,863.411 201.439,858.245 199.5,853C 199.667,852.167 199.833,851.333 200,850.5C 200.67,853.174 201.837,855.507 203.5,857.5C 205.558,861.29 207.391,865.29 209,869.5C 209.561,870.022 210.228,870.355 211,870.5C 228.694,865.218 245.86,858.884 262.5,851.5C 249.9,825.391 242.566,798.391 240.5,770.5C 241.167,771.5 241.833,772.5 242.5,773.5C 242.337,775.857 242.503,778.19 243,780.5C 243.184,772.921 243.684,765.421 244.5,758C 243.955,752.67 243.289,747.17 242.5,741.5C 243.635,733.602 244.468,733.602 245,741.5C 245.333,739.833 245.667,738.167 246,736.5C 246.556,738.595 247.056,738.762 247.5,737C 246.281,734.616 246.281,732.283 247.5,730C 247.167,729.833 246.833,729.667 246.5,729.5C 245.719,730.729 245.219,732.062 245,733.5C 245.219,725.951 246.719,718.617 249.5,711.5C 249.376,710.893 249.043,710.56 248.5,710.5C 256.197,687.309 270.864,670.142 292.5,659C 303.741,654.271 315.241,653.438 327,656.5C 336.895,659.356 346.395,663.856 355.5,670C 370.167,682 384.833,694 399.5,706C 410.224,713.688 421.224,720.855 432.5,727.5 Z"/></g>
<g><path style="opacity:0.851" fill="#27c5cd" d="M 749.5,659.5 C 746.899,663.771 743.566,667.437 739.5,670.5C 742.101,666.229 745.434,662.563 749.5,659.5 Z"/></g>
<g><path style="opacity:0.004" fill="#29c4ca" d="M 766.5,670.5 C 767.833,671.167 767.833,671.167 766.5,670.5 Z"/></g>
<g><path style="opacity:0.012" fill="#29c7d0" d="M 180.5,674.5 C 179.475,674.103 179.308,673.437 180,672.5C 180.464,673.094 180.631,673.761 180.5,674.5 Z"/></g>
<g><path style="opacity:0.004" fill="#2fd7dd" d="M 304.5,678.5 C 303.833,677.167 303.833,677.167 304.5,678.5 Z"/></g>
<g><path style="opacity:0.012" fill="#2cd2db" d="M 306.5,677.5 C 307.833,678.167 307.833,678.167 306.5,677.5 Z"/></g>
<g><path style="opacity:0.004" fill="#2fdadf" d="M 321.5,677.5 C 322.833,678.167 322.833,678.167 321.5,677.5 Z"/></g>
<g><path style="opacity:0.004" fill="#2bd7de" d="M 323.5,677.5 C 324.833,678.167 324.833,678.167 323.5,677.5 Z"/></g>
<g><path style="opacity:0.008" fill="#2bd8dc" d="M 304.5,678.5 C 305.833,679.167 305.833,679.167 304.5,678.5 Z"/></g>
<g><path style="opacity:0.016" fill="#2cd8dd" d="M 325.5,678.5 C 326.833,679.167 326.833,679.167 325.5,678.5 Z"/></g>
<g><path style="opacity:0.059" fill="#26c3cc" d="M 759.5,676.5 C 758.585,678.754 757.252,680.754 755.5,682.5C 754.5,683.167 753.5,683.833 752.5,684.5C 754.094,681.236 756.427,678.569 759.5,676.5 Z"/></g>
<g><path style="opacity:0.008" fill="#2bcacd" d="M 755.5,682.5 C 756.833,683.167 756.833,683.167 755.5,682.5 Z"/></g>
<g><path style="opacity:0.004" fill="#2bd8e0" d="M 336.5,683.5 C 337.833,684.167 337.833,684.167 336.5,683.5 Z"/></g>
<g><path style="opacity:0.008" fill="#2dd9e0" d="M 336.5,684.5 C 336.5,684.833 336.5,685.167 336.5,685.5C 335.83,685.019 335.83,684.685 336.5,684.5 Z"/></g>
<g><path style="opacity:0.008" fill="#29c8cc" d="M 757.5,684.5 C 758.833,685.167 758.833,685.167 757.5,684.5 Z"/></g>
<g><path style="opacity:0.69" fill="#26c5ce" d="M 179.5,679.5 C 179.128,683.297 177.794,686.63 175.5,689.5C 175.872,685.703 177.206,682.37 179.5,679.5 Z"/></g>
<g><path style="opacity:0.008" fill="#2bd7dc" d="M 336.5,685.5 C 337.833,686.167 337.833,686.167 336.5,685.5 Z"/></g>
<g><path style="opacity:0.004" fill="#2bd5da" d="M 339.5,684.5 C 339.5,685.167 339.5,685.833 339.5,686.5C 338.167,685.833 338.167,685.167 339.5,684.5 Z"/></g>
<g><path style="opacity:0.016" fill="#2bd5dc" d="M 336.5,686.5 C 335.833,687.167 335.833,687.167 336.5,686.5 Z"/></g>
<g><path style="opacity:0.008" fill="#2ed6dc" d="M 339.5,686.5 C 340.833,687.167 340.833,687.167 339.5,686.5 Z"/></g>
<g><path style="opacity:0.02" fill="#2cd3d9" d="M 345.5,690.5 C 346.833,691.167 346.833,691.167 345.5,690.5 Z"/></g>
<g><path style="opacity:0.078" fill="#26c6cd" d="M 749.5,687.5 C 748.833,688.5 748.167,689.5 747.5,690.5C 745.754,692.252 743.754,693.585 741.5,694.5C 743.61,691.381 746.277,689.048 749.5,687.5 Z"/></g>
<g><path style="opacity:0.004" fill="#28c9cd" d="M 747.5,690.5 C 748.833,691.167 748.833,691.167 747.5,690.5 Z"/></g>
<g><path style="opacity:0.008" fill="#28c9ce" d="M 741.5,696.5 C 742.833,697.167 742.833,697.167 741.5,696.5 Z"/></g>
<g><path style="opacity:0.008" fill="#28c8d3" d="M 169.5,699.5 C 170.833,700.167 170.833,700.167 169.5,699.5 Z"/></g>
<g><path style="opacity:0.004" fill="#2bd0d8" d="M 351.5,701.5 C 352.525,701.897 352.692,702.563 352,703.5C 351.536,702.906 351.369,702.239 351.5,701.5 Z"/></g>
<g><path style="opacity:0.008" fill="#2fd5dc" d="M 276.5,702.5 C 277.833,703.167 277.833,703.167 276.5,702.5 Z"/></g>
<g><path style="opacity:0.004" fill="#29c8d1" d="M 168.5,703.5 C 169.573,704.251 169.74,705.251 169,706.5C 168.517,705.552 168.351,704.552 168.5,703.5 Z"/></g>
<g><path style="opacity:0.004" fill="#2cd6d9" d="M 277.5,705.5 C 278.833,706.167 278.833,706.167 277.5,705.5 Z"/></g>
<g><path style="opacity:0.004" fill="#2cd5dd" d="M 272.5,708.5 C 273.833,709.167 273.833,709.167 272.5,708.5 Z"/></g>
<g><path style="opacity:0.995" fill="#28d0d9" d="M 805.5,613.5 C 802.755,619.325 799.755,624.992 796.5,630.5C 793.687,633.446 791.354,636.779 789.5,640.5C 786.601,643.952 783.934,647.618 781.5,651.5C 776.15,657.522 771.15,663.855 766.5,670.5C 764.167,672.5 761.833,674.5 759.5,676.5C 756.427,678.569 754.094,681.236 752.5,684.5C 751.833,685.833 750.833,686.833 749.5,687.5C 746.277,689.048 743.61,691.381 741.5,694.5C 741.5,695.167 741.5,695.833 741.5,696.5C 732.868,703.131 724.535,710.131 716.5,717.5C 712.608,719.062 709.275,721.395 706.5,724.5C 704.973,724.427 703.973,725.094 703.5,726.5C 685.283,738.794 665.617,749.46 644.5,758.5C 643.5,758.5 642.5,758.5 641.5,758.5C 640.5,758.5 639.5,758.5 638.5,758.5C 639.091,757.849 639.757,757.182 640.5,756.5C 639.098,755.158 639.431,754.324 641.5,754C 641.018,752.992 640.852,751.825 641,750.5C 640.346,751.696 639.846,751.696 639.5,750.5C 640.365,749.417 641.365,749.251 642.5,750C 644.249,752.591 646.249,753.258 648.5,752C 647.552,751.517 646.552,751.351 645.5,751.5C 645.657,750.127 645.49,748.793 645,747.5C 644.667,747.833 644.333,748.167 644,748.5C 642.97,746.224 641.47,745.557 639.5,746.5C 640.025,747.192 640.692,747.692 641.5,748C 639.866,748.494 638.199,748.66 636.5,748.5C 636.762,747.022 636.429,745.689 635.5,744.5C 634.304,744.846 634.304,745.346 635.5,746C 634.833,746.167 634.167,746.333 633.5,746.5C 631.631,745.953 629.798,745.62 628,745.5C 622.295,747.718 616.462,749.552 610.5,751C 609.167,752.667 609.167,754.333 610.5,756C 609.5,758 608.5,758 607.5,756C 608.451,755.282 608.617,754.449 608,753.5C 607.333,754.833 606.667,754.833 606,753.5C 605.333,754.833 604.667,756.167 604,757.5C 602.913,755.068 602.413,755.402 602.5,758.5C 600.488,757.986 598.488,757.82 596.5,758C 597.333,758.833 598.167,759.667 599,760.5C 601.129,759.137 601.629,759.471 600.5,761.5C 597.284,762.328 594.284,762.662 591.5,762.5C 593.837,763.517 595.504,765.184 596.5,767.5C 598.529,766.371 598.863,766.871 597.5,769C 603.295,768.674 608.961,767.507 614.5,765.5C 613.376,764.086 612.376,762.586 611.5,761C 613,760.167 614.167,759 615,757.5C 615.903,758.701 617.069,759.535 618.5,760C 616.151,762.357 616.817,764.024 620.5,765C 618.509,765.374 616.842,766.207 615.5,767.5C 613.095,768.768 610.428,769.435 607.5,769.5C 598.587,770.538 589.921,772.205 581.5,774.5C 579.833,774.5 578.167,774.5 576.5,774.5C 576.5,774.167 576.5,773.833 576.5,773.5C 581.362,773.757 584.862,771.757 587,767.5C 589.072,770.154 590.739,769.82 592,766.5C 593.281,767.647 593.614,767.313 593,765.5C 591.933,764.809 590.766,764.309 589.5,764C 590.517,762.951 590.684,761.784 590,760.5C 588.701,760.966 587.201,760.966 585.5,760.5C 585.5,759.5 585.5,758.5 585.5,757.5C 582.15,757.665 578.817,757.498 575.5,757C 583.107,756.183 590.44,754.683 597.5,752.5C 601.837,752.416 605.837,751.416 609.5,749.5C 647.531,738.153 681.864,719.987 712.5,695C 721.396,686.598 730.396,678.431 739.5,670.5C 743.566,667.437 746.899,663.771 749.5,659.5C 760.909,645.664 771.576,631.33 781.5,616.5C 782.167,616.167 782.833,615.833 783.5,615.5C 783.038,617.757 782.038,619.757 780.5,621.5C 781.364,623.197 782.697,624.363 784.5,625C 783.833,625.333 783.167,625.667 782.5,626C 783.517,627.049 783.684,628.216 783,629.5C 782.667,628.833 782.333,628.167 782,627.5C 781.365,628.966 780.531,630.3 779.5,631.5C 781.446,632.802 783.279,633.469 785,633.5C 788.772,630.965 788.939,628.465 785.5,626C 786.667,624.167 787.833,622.333 789,620.5C 789.684,621.784 789.517,622.951 788.5,624C 789,624.5 789.5,625 790,625.5C 792.944,623.647 795.944,622.981 799,623.5C 800.203,620.089 801.703,616.756 803.5,613.5C 803.333,613.167 803.167,612.833 803,612.5C 802.085,613.328 801.419,614.328 801,615.5C 800.626,614.584 800.126,613.75 799.5,613C 799.944,611.467 800.277,609.967 800.5,608.5C 799.91,607.201 798.91,606.368 797.5,606C 798,605.5 798.5,605 799,604.5C 799.853,606.125 800.853,606.458 802,605.5C 801.737,606.951 801.904,608.284 802.5,609.5C 803.167,609.167 803.833,608.833 804.5,608.5C 805.452,610.045 805.785,611.712 805.5,613.5 Z"/></g>
<g><path style="opacity:0.004" fill="#28d4dc" d="M 270.5,712.5 C 271.833,713.167 271.833,713.167 270.5,712.5 Z"/></g>
<g><path style="opacity:0.004" fill="#2cd4dd" d="M 269.5,717.5 C 270.833,718.167 270.833,718.167 269.5,717.5 Z"/></g>
<g><path style="opacity:0.008" fill="#29c8cd" d="M 716.5,717.5 C 717.833,718.167 717.833,718.167 716.5,717.5 Z"/></g>
<g><path style="opacity:0.027" fill="#2dd7dc" d="M 269.5,718.5 C 268.833,719.167 268.833,719.167 269.5,718.5 Z"/></g>
<g><path style="opacity:0.004" fill="#29cfd5" d="M 384.5,720.5 C 383.833,721.167 383.833,721.167 384.5,720.5 Z"/></g>
<g><path style="opacity:0.024" fill="#2accd6" d="M 385.5,722.5 C 386.833,723.167 386.833,723.167 385.5,722.5 Z"/></g>
<g><path style="opacity:0.004" fill="#28c7cf" d="M 706.5,724.5 C 707.833,725.167 707.833,725.167 706.5,724.5 Z"/></g>
<g><path style="opacity:0.012" fill="#29c7cf" d="M 703.5,726.5 C 704.833,727.167 704.833,727.167 703.5,726.5 Z"/></g>
<g><path style="opacity:0.01" fill="#2acbd0" d="M 163.5,733.5 C 164.525,733.897 164.692,734.563 164,735.5C 163.536,734.906 163.369,734.239 163.5,733.5 Z"/></g>
<g><path style="opacity:0.004" fill="#29cdd1" d="M 163.5,737.5 C 164.833,738.167 164.833,738.167 163.5,737.5 Z"/></g>
<g><path style="opacity:0.02" fill="#2acdd2" d="M 409.5,738.5 C 410.833,739.167 410.833,739.167 409.5,738.5 Z"/></g>
<g><path style="opacity:0.004" fill="#2ac8cf" d="M 686.5,738.5 C 687.833,739.167 687.833,739.167 686.5,738.5 Z"/></g>
<g><path style="opacity:0.008" fill="#2acad2" d="M 162.5,740.5 C 163.833,741.167 163.833,741.167 162.5,740.5 Z"/></g>
<g><path style="opacity:0.012" fill="#29cdd3" d="M 416.5,741.5 C 416.5,741.833 416.5,742.167 416.5,742.5C 415.83,742.019 415.83,741.685 416.5,741.5 Z"/></g>
<g><path style="opacity:0.004" fill="#2acbcf" d="M 681.5,741.5 C 682.833,742.167 682.833,742.167 681.5,741.5 Z"/></g>
<g><path style="opacity:0.008" fill="#28c9cc" d="M 685.5,741.5 C 686.833,742.167 686.833,742.167 685.5,741.5 Z"/></g>
<g><path style="opacity:0.008" fill="#2bced7" d="M 416.5,742.5 C 417.833,743.167 417.833,743.167 416.5,742.5 Z"/></g>
<g><path style="opacity:0.008" fill="#29ccd2" d="M 162.5,743.5 C 163.833,744.167 163.833,744.167 162.5,743.5 Z"/></g>
<g><path style="opacity:0.004" fill="#2ad2da" d="M 262.5,745.5 C 263.833,746.167 263.833,746.167 262.5,745.5 Z"/></g>
<g><path style="opacity:0.016" fill="#29d2da" d="M 262.5,747.5 C 263.833,748.167 263.833,748.167 262.5,747.5 Z"/></g>
<g><path style="opacity:0.994" fill="#28d0da" d="M 432.5,727.5 C 443.735,732.937 455.402,738.271 467.5,743.5C 469.46,744.138 471.293,744.138 473,743.5C 475.768,745.665 478.935,747.165 482.5,748C 491.293,750.198 499.96,752.365 508.5,754.5C 518.343,755.184 528.01,756.184 537.5,757.5C 537.5,757.833 537.5,758.167 537.5,758.5C 540.604,759.233 545.104,759.566 551,759.5C 556.167,759.333 561.333,759.167 566.5,759C 569.016,758.909 570.682,758.409 571.5,757.5C 571.5,757.167 571.5,756.833 571.5,756.5C 579.996,754.904 588.662,753.571 597.5,752.5C 590.44,754.683 583.107,756.183 575.5,757C 578.817,757.498 582.15,757.665 585.5,757.5C 585.5,758.5 585.5,759.5 585.5,760.5C 587.201,760.966 588.701,760.966 590,760.5C 590.684,761.784 590.517,762.951 589.5,764C 590.766,764.309 591.933,764.809 593,765.5C 593.614,767.313 593.281,767.647 592,766.5C 590.739,769.82 589.072,770.154 587,767.5C 584.862,771.757 581.362,773.757 576.5,773.5C 557.656,774.455 538.99,774.788 520.5,774.5C 519.209,774.263 518.209,774.596 517.5,775.5C 516.041,775.567 514.708,775.234 513.5,774.5C 500.217,771.774 486.884,768.774 473.5,765.5C 465.074,763.12 456.741,760.453 448.5,757.5C 438.88,753.024 429.547,748.024 420.5,742.5C 419.537,741.637 419.537,740.97 420.5,740.5C 422.918,741.457 425.084,742.791 427,744.5C 427.333,743.833 427.667,743.167 428,742.5C 428.667,743.833 429.333,743.833 430,742.5C 430.658,740.892 430.158,739.725 428.5,739C 430.462,736.502 432.795,735.502 435.5,736C 434.833,735.333 434.167,734.667 433.5,734C 436.025,729.997 435.192,729.497 431,732.5C 430.626,731.584 430.126,730.75 429.5,730C 430.471,728.959 431.471,728.126 432.5,727.5 Z"/></g>
<g><path style="opacity:0.98" fill="#2bdbe4" d="M 467.5,743.5 C 469.598,744.935 471.931,746.102 474.5,747C 470.857,747.186 467.523,746.186 464.5,744C 465.448,743.517 466.448,743.351 467.5,743.5 Z"/></g>
<g><path style="opacity:0.008" fill="#2bc9d1" d="M 162.5,747.5 C 163.525,747.897 163.692,748.563 163,749.5C 162.536,748.906 162.369,748.239 162.5,747.5 Z"/></g>
<g><path style="opacity:0.004" fill="#2aced3" d="M 427.5,748.5 C 428.833,749.167 428.833,749.167 427.5,748.5 Z"/></g>
<g><path style="opacity:0.008" fill="#29c8cb" d="M 668.5,748.5 C 669.833,749.167 669.833,749.167 668.5,748.5 Z"/></g>
<g><path style="opacity:0.004" fill="#2bd1db" d="M 262.5,749.5 C 263.833,750.167 263.833,750.167 262.5,749.5 Z"/></g>
<g><path style="opacity:0.008" fill="#28cbce" d="M 668.5,749.5 C 667.833,750.167 667.833,750.167 668.5,749.5 Z"/></g>
<g><path style="opacity:0.008" fill="#2acbd1" d="M 162.5,750.5 C 163.833,751.167 163.833,751.167 162.5,750.5 Z"/></g>
<g><path style="opacity:0.882" fill="#27c8ce" d="M 609.5,749.5 C 605.837,751.416 601.837,752.416 597.5,752.5C 601.239,750.898 605.239,749.898 609.5,749.5 Z"/></g>
<g><path style="opacity:0.008" fill="#27c7cb" d="M 664.5,750.5 C 665.833,751.167 665.833,751.167 664.5,750.5 Z"/></g>
<g><path style="opacity:0.359" fill="#27ccd5" d="M 248.5,710.5 C 249.043,710.56 249.376,710.893 249.5,711.5C 246.719,718.617 245.219,725.951 245,733.5C 245.219,732.062 245.719,730.729 246.5,729.5C 246.833,729.667 247.167,729.833 247.5,730C 246.281,732.283 246.281,734.616 247.5,737C 247.056,738.762 246.556,738.595 246,736.5C 245.667,738.167 245.333,739.833 245,741.5C 244.468,733.602 243.635,733.602 242.5,741.5C 241.388,752.175 241.388,762.841 242.5,773.5C 241.833,772.5 241.167,771.5 240.5,770.5C 240.661,762.427 240.327,754.594 239.5,747C 241.912,734.8 244.912,722.633 248.5,710.5 Z"/></g>
<g><path style="opacity:0.01" fill="#28d1da" d="M 262.5,752.5 C 263.525,752.897 263.692,753.563 263,754.5C 262.536,753.906 262.369,753.239 262.5,752.5 Z"/></g>
<g><path style="opacity:0.989" fill="#2ad6e1" d="M 242.5,741.5 C 243.289,747.17 243.955,752.67 244.5,758C 243.684,765.421 243.184,772.921 243,780.5C 242.503,778.19 242.337,775.857 242.5,773.5C 241.388,762.841 241.388,752.175 242.5,741.5 Z"/></g>
<g><path style="opacity:1" fill="#2bd8e1" d="M 508.5,754.5 C 510.292,755.309 512.292,755.809 514.5,756C 505.666,755.968 497,754.635 488.5,752C 495.131,752.756 501.798,753.59 508.5,754.5 Z"/></g>
<g><path style="opacity:0.004" fill="#146163" d="M 778.5,756.5 C 779.833,757.167 779.833,757.167 778.5,756.5 Z"/></g>
<g><path style="opacity:0.388" fill="#27cbd4" d="M 263.5,735.5 C 262.676,738.764 262.342,742.098 262.5,745.5C 260.074,765.498 261.74,785.165 267.5,804.5C 267.674,806.861 268.007,809.194 268.5,811.5C 264.558,801.311 262.058,790.645 261,779.5C 260.689,773.814 260.189,768.147 259.5,762.5C 259.991,756.36 260.324,750.026 260.5,743.5C 261.21,741.254 261.71,738.92 262,736.5C 262.383,735.944 262.883,735.611 263.5,735.5 Z"/></g>
<g><path style="opacity:0.006" fill="#29d0d9" d="M 262.5,757.5 C 263.525,757.897 263.692,758.563 263,759.5C 262.536,758.906 262.369,758.239 262.5,757.5 Z"/></g>
<g><path style="opacity:0.773" fill="#25c7cf" d="M 571.5,756.5 C 571.5,756.833 571.5,757.167 571.5,757.5C 560.187,758.326 548.854,758.66 537.5,758.5C 537.5,758.167 537.5,757.833 537.5,757.5C 548.844,757.469 560.178,757.136 571.5,756.5 Z"/></g>
<g><path style="opacity:0.008" fill="#29cbd3" d="M 448.5,757.5 C 448.631,758.239 448.464,758.906 448,759.5C 447.308,758.563 447.475,757.897 448.5,757.5 Z"/></g>
<g><path style="opacity:0.994" fill="#2bdae3" d="M 571.5,757.5 C 570.682,758.409 569.016,758.909 566.5,759C 561.333,759.167 556.167,759.333 551,759.5C 545.104,759.566 540.604,759.233 537.5,758.5C 548.854,758.66 560.187,758.326 571.5,757.5 Z"/></g>
<g><path style="opacity:0.996" fill="#28d0da" d="M 638.5,758.5 C 635.167,760.167 631.833,761.833 628.5,763.5C 624.405,765.279 620.072,766.612 615.5,767.5C 616.842,766.207 618.509,765.374 620.5,765C 616.817,764.024 616.151,762.357 618.5,760C 617.069,759.535 615.903,758.701 615,757.5C 614.167,759 613,760.167 611.5,761C 612.376,762.586 613.376,764.086 614.5,765.5C 608.961,767.507 603.295,768.674 597.5,769C 598.863,766.871 598.529,766.371 596.5,767.5C 595.504,765.184 593.837,763.517 591.5,762.5C 594.284,762.662 597.284,762.328 600.5,761.5C 601.629,759.471 601.129,759.137 599,760.5C 598.167,759.667 597.333,758.833 596.5,758C 598.488,757.82 600.488,757.986 602.5,758.5C 602.413,755.402 602.913,755.068 604,757.5C 604.667,756.167 605.333,754.833 606,753.5C 606.667,754.833 607.333,754.833 608,753.5C 608.617,754.449 608.451,755.282 607.5,756C 608.5,758 609.5,758 610.5,756C 609.167,754.333 609.167,752.667 610.5,751C 616.462,749.552 622.295,747.718 628,745.5C 629.798,745.62 631.631,745.953 633.5,746.5C 634.167,746.333 634.833,746.167 635.5,746C 634.304,745.346 634.304,744.846 635.5,744.5C 636.429,745.689 636.762,747.022 636.5,748.5C 638.199,748.66 639.866,748.494 641.5,748C 640.692,747.692 640.025,747.192 639.5,746.5C 641.47,745.557 642.97,746.224 644,748.5C 644.333,748.167 644.667,747.833 645,747.5C 645.49,748.793 645.657,750.127 645.5,751.5C 646.552,751.351 647.552,751.517 648.5,752C 646.249,753.258 644.249,752.591 642.5,750C 641.365,749.251 640.365,749.417 639.5,750.5C 639.846,751.696 640.346,751.696 641,750.5C 640.852,751.825 641.018,752.992 641.5,754C 639.431,754.324 639.098,755.158 640.5,756.5C 639.757,757.182 639.091,757.849 638.5,758.5 Z"/></g>
<g><path style="opacity:0.004" fill="#2bccd3" d="M 644.5,758.5 C 645.833,759.167 645.833,759.167 644.5,758.5 Z"/></g>
<g><path style="opacity:0.004" fill="#29d1db" d="M 262.5,761.5 C 263.525,761.897 263.692,762.563 263,763.5C 262.536,762.906 262.369,762.239 262.5,761.5 Z"/></g>
<g><path style="opacity:0.004" fill="#27c6ce" d="M 638.5,758.5 C 639.5,758.5 640.5,758.5 641.5,758.5C 637.556,760.964 633.223,762.63 628.5,763.5C 631.833,761.833 635.167,760.167 638.5,758.5 Z"/></g>
<g><path style="opacity:0.004" fill="#2acad0" d="M 161.5,762.5 C 162.833,763.167 162.833,763.167 161.5,762.5 Z"/></g>
<g><path style="opacity:0.012" fill="#28c8ce" d="M 468.5,765.5 C 469.833,766.167 469.833,766.167 468.5,765.5 Z"/></g>
<g><path style="opacity:0.008" fill="#29d0da" d="M 262.5,766.5 C 263.833,767.167 263.833,767.167 262.5,766.5 Z"/></g>
<g><path style="opacity:0.008" fill="#28cace" d="M 623.5,767.5 C 623.897,766.475 624.563,766.308 625.5,767C 624.906,767.464 624.239,767.631 623.5,767.5 Z"/></g>
<g><path style="opacity:0.013" fill="#2ad0d8" d="M 262.5,769.5 C 263.573,770.251 263.74,771.251 263,772.5C 262.517,771.552 262.351,770.552 262.5,769.5 Z"/></g>
<g><path style="opacity:0.198" fill="#26c6ce" d="M 473.5,765.5 C 486.884,768.774 500.217,771.774 513.5,774.5C 499.649,773.266 486.315,770.266 473.5,765.5 Z"/></g>
<g><path style="opacity:0.008" fill="#29c7ce" d="M 488.5,772.5 C 488.897,771.475 489.563,771.308 490.5,772C 489.906,772.464 489.239,772.631 488.5,772.5 Z"/></g>
<g><path style="opacity:0.918" fill="#26c7ce" d="M 607.5,769.5 C 599.157,772.227 590.49,773.893 581.5,774.5C 589.921,772.205 598.587,770.538 607.5,769.5 Z"/></g>
<g><path style="opacity:0.004" fill="#2ccbd2" d="M 162.5,772.5 C 163.833,773.167 163.833,773.167 162.5,772.5 Z"/></g>
<g><path style="opacity:0.016" fill="#28c7ce" d="M 600.5,772.5 C 601.833,773.167 601.833,773.167 600.5,772.5 Z"/></g>
<g><path style="opacity:0.016" fill="#2bd2da" d="M 262.5,773.5 C 263.833,774.167 263.833,774.167 262.5,773.5 Z"/></g>
<g><path style="opacity:0.016" fill="#28c9cd" d="M 598.5,773.5 C 599.833,774.167 599.833,774.167 598.5,773.5 Z"/></g>
<g><path style="opacity:0.995" fill="#2adde6" d="M 520.5,774.5 C 538.99,774.788 557.656,774.455 576.5,773.5C 576.5,773.833 576.5,774.167 576.5,774.5C 557.828,775.803 539.162,775.803 520.5,774.5 Z"/></g>
<g><path style="opacity:0.008" fill="#2acace" d="M 591.5,774.5 C 592.833,775.167 592.833,775.167 591.5,774.5 Z"/></g>
<g><path style="opacity:0.014" fill="#27c8ce" d="M 517.5,775.5 C 518.209,774.596 519.209,774.263 520.5,774.5C 539.162,775.803 557.828,775.803 576.5,774.5C 578.167,774.5 579.833,774.5 581.5,774.5C 560.18,778.128 538.847,778.462 517.5,775.5 Z"/></g>
<g><path style="opacity:0.987" fill="#2ddae3" d="M 165.5,745.5 C 166.262,757.172 166.929,769.006 167.5,781C 167.492,782.707 167.158,784.207 166.5,785.5C 165.618,772.189 165.285,758.856 165.5,745.5 Z"/></g>
<g><path style="opacity:0.004" fill="#29cbce" d="M 544.5,778.5 C 545.833,779.167 545.833,779.167 544.5,778.5 Z"/></g>
<g><path style="opacity:0.004" fill="#2bcacf" d="M 550.5,778.5 C 551.833,779.167 551.833,779.167 550.5,778.5 Z"/></g>
<g><path style="opacity:0.004" fill="#2accd1" d="M 163.5,782.5 C 164.833,783.167 164.833,783.167 163.5,782.5 Z"/></g>
<g><path style="opacity:0.639" fill="#27c6ce" d="M 166.5,730.5 C 166.587,735.537 166.254,740.537 165.5,745.5C 165.285,758.856 165.618,772.189 166.5,785.5C 167.909,796.876 169.575,808.209 171.5,819.5C 167.944,819.725 167.61,818.892 170.5,817C 166.114,797.758 163.947,778.258 164,758.5C 162,757.5 162,756.5 164,755.5C 164.216,746.956 165.049,738.623 166.5,730.5 Z"/></g>
<g><path style="opacity:0.008" fill="#28c9cf" d="M 163.5,785.5 C 164.833,786.167 164.833,786.167 163.5,785.5 Z"/></g>
<g><path style="opacity:0.976" fill="#2bdae4" d="M 260.5,743.5 C 260.324,750.026 259.991,756.36 259.5,762.5C 260.189,768.147 260.689,773.814 261,779.5C 262.058,790.645 264.558,801.311 268.5,811.5C 268.5,811.833 268.5,812.167 268.5,812.5C 268.649,813.552 268.483,814.552 268,815.5C 259.762,791.942 257.262,767.942 260.5,743.5 Z"/></g>
<g><path style="opacity:0.004" fill="#2ac8d0" d="M 159.5,788.5 C 160.833,789.167 160.833,789.167 159.5,788.5 Z"/></g>
<g><path style="opacity:0.004" fill="#093331" d="M 26.5,789.5 C 27.8333,790.167 27.8333,790.167 26.5,789.5 Z"/></g>
<g><path style="opacity:0.004" fill="#2dced5" d="M 268.5,791.5 C 269.833,792.167 269.833,792.167 268.5,791.5 Z"/></g>
<g><path style="opacity:0.004" fill="#000000" d="M 1013.5,791.5 C 1014.83,792.167 1014.83,792.167 1013.5,791.5 Z"/></g>
<g><path style="opacity:0.012" fill="#2bcfd6" d="M 265.5,794.5 C 266.833,795.167 266.833,795.167 265.5,794.5 Z"/></g>
<g><path style="opacity:0.01" fill="#29d0d8" d="M 267.5,804.5 C 267.369,803.761 267.536,803.094 268,802.5C 268.692,803.437 268.525,804.103 267.5,804.5 Z"/></g>
<g><path style="opacity:0.004" fill="#032523" d="M 809.5,810.5 C 810.833,811.167 810.833,811.167 809.5,810.5 Z"/></g>
<g><path style="opacity:0.004" fill="#011a1a" d="M 831.5,810.5 C 832.833,811.167 832.833,811.167 831.5,810.5 Z"/></g>
<g><path style="opacity:0.008" fill="#2ac7d2" d="M 167.5,812.5 C 168.833,813.167 168.833,813.167 167.5,812.5 Z"/></g>
<g><path style="opacity:0.004" fill="#2ac9d0" d="M 167.5,814.5 C 168.833,815.167 168.833,815.167 167.5,814.5 Z"/></g>
<g><path style="opacity:0.996" fill="#27d0da" d="M 190.5,656.5 C 190.461,657.583 190.127,658.583 189.5,659.5C 192.115,660.762 194.782,661.928 197.5,663C 196.833,663.333 196.167,663.667 195.5,664C 198.976,667.877 200.476,672.71 200,678.5C 200.278,677.584 200.778,676.918 201.5,676.5C 181.727,725.292 179.227,775.959 194,828.5C 197.188,838.198 200.355,847.865 203.5,857.5C 201.837,855.507 200.67,853.174 200,850.5C 199.833,851.333 199.667,852.167 199.5,853C 201.439,858.245 203.605,863.411 206,868.5C 206.814,870.902 206.647,873.235 205.5,875.5C 201.763,877.168 201.763,878.501 205.5,879.5C 204.469,880.7 203.635,882.034 203,883.5C 201.691,881.109 200.691,881.109 200,883.5C 199.316,882.216 199.483,881.049 200.5,880C 199.333,878.833 198.167,877.667 197,876.5C 196.529,878.246 195.862,879.913 195,881.5C 193.913,879.068 193.413,879.402 193.5,882.5C 188.764,874.352 185.097,865.686 182.5,856.5C 180.739,849.216 178.405,842.216 175.5,835.5C 174.566,834.432 174.232,833.099 174.5,831.5C 174.281,827.2 173.281,823.2 171.5,819.5C 169.575,808.209 167.909,796.876 166.5,785.5C 167.158,784.207 167.492,782.707 167.5,781C 166.929,769.006 166.262,757.172 165.5,745.5C 166.254,740.537 166.587,735.537 166.5,730.5C 167.476,716.277 170.476,702.61 175.5,689.5C 177.794,686.63 179.128,683.297 179.5,679.5C 179.629,677.784 179.962,676.117 180.5,674.5C 183.312,668.21 186.645,662.21 190.5,656.5 Z"/></g>
<g><path style="opacity:1" fill="#2ddde7" d="M 187.5,808.5 C 189.282,812.577 190.115,816.91 190,821.5C 188.588,817.272 187.754,812.939 187.5,808.5 Z"/></g>
<g><path style="opacity:0.886" fill="#24c3ca" d="M 171.5,819.5 C 173.281,823.2 174.281,827.2 174.5,831.5C 173.833,830.5 173.167,829.5 172.5,828.5C 172.037,825.518 171.704,822.518 171.5,819.5 Z"/></g>
<g><path style="opacity:0.012" fill="#2ac8cf" d="M 169.5,822.5 C 170.833,823.167 170.833,823.167 169.5,822.5 Z"/></g>
<g><path style="opacity:0.004" fill="#062727" d="M 19.5,825.5 C 20.8333,826.167 20.8333,826.167 19.5,825.5 Z"/></g>
<g><path style="opacity:0.004" fill="#29c5ce" d="M 168.5,828.5 C 169.833,829.167 169.833,829.167 168.5,828.5 Z"/></g>
<g><path style="opacity:0.012" fill="#29c6cf" d="M 172.5,828.5 C 172.103,829.525 171.437,829.692 170.5,829C 171.094,828.536 171.761,828.369 172.5,828.5 Z"/></g>
<g><path style="opacity:0.004" fill="#2bced3" d="M 277.5,831.5 C 276.833,830.167 276.833,830.167 277.5,831.5 Z"/></g>
<g><path style="opacity:0.004" fill="#2ac9cf" d="M 277.5,831.5 C 278.833,832.167 278.833,832.167 277.5,831.5 Z"/></g>
<g><path style="opacity:0.004" fill="#042122" d="M 9.5,834.5 C 10.8333,835.167 10.8333,835.167 9.5,834.5 Z"/></g>
<g><path style="opacity:0.016" fill="#2ac6ce" d="M 173.5,838.5 C 174.833,839.167 174.833,839.167 173.5,838.5 Z"/></g>
<g><path style="opacity:0.008" fill="#25c3ca" d="M 282.5,840.5 C 282.897,839.475 283.563,839.308 284.5,840C 283.906,840.464 283.239,840.631 282.5,840.5 Z"/></g>
<g><path style="opacity:0.006" fill="#28c9d0" d="M 176.5,845.5 C 175.475,845.103 175.308,844.437 176,843.5C 176.464,844.094 176.631,844.761 176.5,845.5 Z"/></g>
<g><path style="opacity:0.016" fill="#28c6ce" d="M 176.5,845.5 C 176.833,845.5 177.167,845.5 177.5,845.5C 177.167,848.167 176.833,848.167 176.5,845.5 Z"/></g>
<g><path style="opacity:0.004" fill="#26c2c9" d="M 284.5,846.5 C 285.833,847.167 285.833,847.167 284.5,846.5 Z"/></g>
<g><path style="opacity:0.596" fill="#24c5cd" d="M 175.5,835.5 C 178.405,842.216 180.739,849.216 182.5,856.5C 181.833,855.833 181.167,855.167 180.5,854.5C 180.072,851.215 179.072,848.215 177.5,845.5C 176.626,842.211 175.959,838.877 175.5,835.5 Z"/></g>
<g><path style="opacity:0.005" fill="#29c5cb" d="M 175.5,851.5 C 176.251,850.427 177.251,850.26 178.5,851C 177.552,851.483 176.552,851.649 175.5,851.5 Z"/></g>
<g><path style="opacity:0.959" fill="#25c5cd" d="M 280.5,842.5 C 282.776,845.72 284.11,849.387 284.5,853.5C 283.942,856.127 282.942,858.46 281.5,860.5C 283.02,854.373 282.686,848.373 280.5,842.5 Z"/></g>
<g><path style="opacity:0.004" fill="#176b6c" d="M 114.5,852.5 C 115.833,853.167 115.833,853.167 114.5,852.5 Z"/></g>
<g><path style="opacity:0.008" fill="#28c6cd" d="M 179.5,854.5 C 178.833,853.167 178.833,853.167 179.5,854.5 Z"/></g>
<g><path style="opacity:0.008" fill="#28c5cc" d="M 179.5,854.5 C 179.833,854.5 180.167,854.5 180.5,854.5C 180.167,857.167 179.833,857.167 179.5,854.5 Z"/></g>
<g><path style="opacity:0.012" fill="#28c5cb" d="M 180.5,859.5 C 181.833,860.167 181.833,860.167 180.5,859.5 Z"/></g>
<g><path style="opacity:0.004" fill="#000000" d="M 871.5,866.5 C 872.833,867.167 872.833,867.167 871.5,866.5 Z"/></g>
<g><path style="opacity:0.008" fill="#22bdc6" d="M 272.5,869.5 C 272.631,870.239 272.464,870.906 272,871.5C 270.374,871.146 268.541,871.146 266.5,871.5C 268.214,870.262 270.214,869.595 272.5,869.5 Z"/></g>
<g><path style="opacity:0.004" fill="#24bac3" d="M 186.5,877.5 C 187.833,878.167 187.833,878.167 186.5,877.5 Z"/></g>
<g><path style="opacity:0.012" fill="#29c7ce" d="M 251.5,878.5 C 252.239,878.369 252.906,878.536 253.5,879C 252.563,879.692 251.897,879.525 251.5,878.5 Z"/></g>
<g><path style="opacity:0.027" fill="#25c3ca" d="M 247.5,878.5 C 242.475,881.068 237.141,883.068 231.5,884.5C 236.348,881.546 241.681,879.546 247.5,878.5 Z"/></g>
<g><path style="opacity:0.012" fill="#28c6cc" d="M 241.5,882.5 C 242.833,883.167 242.833,883.167 241.5,882.5 Z"/></g>
<g><path style="opacity:0.004" fill="#000000" d="M 863.5,882.5 C 864.833,883.167 864.833,883.167 863.5,882.5 Z"/></g>
<g><path style="opacity:0.004" fill="#22b4bc" d="M 193.5,882.5 C 195.167,883.5 196.5,884.833 197.5,886.5C 195.167,886.167 193.833,884.833 193.5,882.5 Z"/></g>
<g><path style="opacity:0.008" fill="#29c5ca" d="M 238.5,883.5 C 239.833,884.167 239.833,884.167 238.5,883.5 Z"/></g>
<g><path style="opacity:0.004" fill="#0d4c4c" d="M 364.5,883.5 C 365.833,884.167 365.833,884.167 364.5,883.5 Z"/></g>
<g><path style="opacity:0.004" fill="#26bac1" d="M 191.5,883.5 C 192.525,883.897 192.692,884.563 192,885.5C 191.536,884.906 191.369,884.239 191.5,883.5 Z"/></g>
<g><path style="opacity:0.008" fill="#28c5ca" d="M 240.5,884.5 C 241.833,885.167 241.833,885.167 240.5,884.5 Z"/></g>
<g><path style="opacity:0.008" fill="#23c1c8" d="M 230.5,884.5 C 228.754,885.218 228.088,886.218 228.5,887.5C 226.273,886.947 223.939,886.947 221.5,887.5C 224.215,885.928 227.215,884.928 230.5,884.5 Z"/></g>
<g><path style="opacity:0.004" fill="#29c6ca" d="M 231.5,885.5 C 232.833,886.167 232.833,886.167 231.5,885.5 Z"/></g>
<g><path style="opacity:0.012" fill="#24babe" d="M 193.5,886.5 C 194.833,887.167 194.833,887.167 193.5,886.5 Z"/></g>
<g><path style="opacity:0.004" fill="#0a3131" d="M 621.5,886.5 C 622.833,887.167 622.833,887.167 621.5,886.5 Z"/></g>
<g><path style="opacity:1" fill="#2cdde7" d="M 213.5,889.5 C 209.131,889.533 204.798,889.2 200.5,888.5C 199.537,887.637 199.537,886.97 200.5,886.5C 204.977,887.405 209.311,888.405 213.5,889.5 Z"/></g>
<g><path style="opacity:0.608" fill="#26c4cc" d="M 200.5,888.5 C 204.798,889.2 209.131,889.533 213.5,889.5C 213.833,889.5 214.167,889.5 214.5,889.5C 212.866,890.161 211.033,890.494 209,890.5C 205.85,890.64 203.017,889.973 200.5,888.5 Z"/></g>
<g><path style="opacity:0.004" fill="#00100d" d="M -0.5,890.5 C 0.833333,891.167 0.833333,891.167 -0.5,890.5 Z"/></g>
<g><path style="opacity:0.008" fill="#23b8bf" d="M 199.5,890.5 C 200.833,891.167 200.833,891.167 199.5,890.5 Z"/></g>
<g><path style="opacity:0.012" fill="#26bac1" d="M 201.5,890.5 C 202.833,891.167 202.833,891.167 201.5,890.5 Z"/></g>
<g><path style="opacity:0.008" fill="#29bdc5" d="M 211.5,891.5 C 212.833,892.167 212.833,892.167 211.5,891.5 Z"/></g>
<g><path style="opacity:0.004" fill="#25b7bb" d="M 205.5,893.5 C 206.833,894.167 206.833,894.167 205.5,893.5 Z"/></g>
<g><path style="opacity:0.004" fill="#000300" d="M 803.5,909.5 C 804.833,910.167 804.833,910.167 803.5,909.5 Z"/></g>
<g><path style="opacity:0.004" fill="#000000" d="M 894.5,919.5 C 895.833,920.167 895.833,920.167 894.5,919.5 Z"/></g>
<g><path style="opacity:0.004" fill="#000000" d="M 899.5,925.5 C 900.833,926.167 900.833,926.167 899.5,925.5 Z"/></g>
<g><path style="opacity:0.004" fill="#146b6f" d="M 198.5,928.5 C 199.833,929.167 199.833,929.167 198.5,928.5 Z"/></g>
<g><path style="opacity:0.004" fill="#000e0b" d="M 38.5,931.5 C 39.8333,932.167 39.8333,932.167 38.5,931.5 Z"/></g>
<g><path style="opacity:0.004" fill="#000707" d="M 695.5,954.5 C 696.833,955.167 696.833,955.167 695.5,954.5 Z"/></g>
<g><path style="opacity:0.004" fill="#000000" d="M 825.5,962.5 C 826.833,963.167 826.833,963.167 825.5,962.5 Z"/></g>
<g><path style="opacity:0.004" fill="#000706" d="M 45.5,966.5 C 46.8333,967.167 46.8333,967.167 45.5,966.5 Z"/></g>
<g><path style="opacity:0.004" fill="#000000" d="M 1012.5,968.5 C 1013.83,969.167 1013.83,969.167 1012.5,968.5 Z"/></g>
<g><path style="opacity:0.004" fill="#052421" d="M 329.5,970.5 C 330.833,971.167 330.833,971.167 329.5,970.5 Z"/></g>
<g><path style="opacity:0.004" fill="#000502" d="M 639.5,970.5 C 640.833,971.167 640.833,971.167 639.5,970.5 Z"/></g>
<g><path style="opacity:0.004" fill="#010d0c" d="M 394.5,972.5 C 395.833,973.167 395.833,973.167 394.5,972.5 Z"/></g>
<g><path style="opacity:0.004" fill="#000000" d="M 818.5,972.5 C 819.833,973.167 819.833,973.167 818.5,972.5 Z"/></g>
<g><path style="opacity:0.004" fill="#000102" d="M 665.5,976.5 C 666.833,977.167 666.833,977.167 665.5,976.5 Z"/></g>
<g><path style="opacity:0.004" fill="#000100" d="M 697.5,978.5 C 698.833,979.167 698.833,979.167 697.5,978.5 Z"/></g>
<g><path style="opacity:0.004" fill="#021c1d" d="M 326.5,984.5 C 327.833,985.167 327.833,985.167 326.5,984.5 Z"/></g>
<g><path style="opacity:0.004" fill="#000000" d="M 722.5,991.5 C 723.833,992.167 723.833,992.167 722.5,991.5 Z"/></g>
<g><path style="opacity:0.004" fill="#000000" d="M 38.5,992.5 C 39.8333,993.167 39.8333,993.167 38.5,992.5 Z"/></g>
<g><path style="opacity:0.004" fill="#000000" d="M 654.5,1000.5 C 655.833,1001.17 655.833,1001.17 654.5,1000.5 Z"/></g>
<g><path style="opacity:0.004" fill="#000000" d="M 891.5,1001.5 C 892.833,1002.17 892.833,1002.17 891.5,1001.5 Z"/></g>
<g><path style="opacity:0.004" fill="#000100" d="M 467.5,1005.5 C 468.833,1006.17 468.833,1006.17 467.5,1005.5 Z"/></g>
<g><path style="opacity:0.004" fill="#000000" d="M 963.5,1009.5 C 964.833,1010.17 964.833,1010.17 963.5,1009.5 Z"/></g>
<g><path style="opacity:0.004" fill="#000001" d="M 415.5,1010.5 C 416.833,1011.17 416.833,1011.17 415.5,1010.5 Z"/></g>
<g><path style="opacity:0.004" fill="#000000" d="M 483.5,1010.5 C 484.833,1011.17 484.833,1011.17 483.5,1010.5 Z"/></g>
<g><path style="opacity:0.004" fill="#031d1d" d="M 289.5,1018.5 C 290.833,1019.17 290.833,1019.17 289.5,1018.5 Z"/></g>
</svg>
