<?xml version="1.0" encoding="UTF-8"?>
<!DOCTYPE svg PUBLIC "-//W3C//DTD SVG 1.1//EN" "http://www.w3.org/Graphics/SVG/1.1/DTD/svg11.dtd">
<svg xmlns="http://www.w3.org/2000/svg" version="1.1" width="1024px" height="1024px" style="shape-rendering:geometricPrecision; text-rendering:geometricPrecision; image-rendering:optimizeQuality; fill-rule:evenodd; clip-rule:evenodd" xmlns:xlink="http://www.w3.org/1999/xlink">
<g><path style="opacity:0.004" fill="#263937" d="M 871.5,66.5 C 872.833,67.1667 872.833,67.1667 871.5,66.5 Z"/></g>
<g><path style="opacity:0.004" fill="#89dbdc" d="M 579.5,97.5 C 580.833,98.1667 580.833,98.1667 579.5,97.5 Z"/></g>
<g><path style="opacity:0.004" fill="#86dada" d="M 591.5,98.5 C 592.833,99.1667 592.833,99.1667 591.5,98.5 Z"/></g>
<g><path style="opacity:0.934" fill="#86dcdc" d="M 593.5,101.5 C 590.14,101.384 586.807,101.051 583.5,100.5C 531.15,100.193 478.817,100.527 426.5,101.5C 433.171,100.037 440.005,99.0368 447,98.5C 486.065,99.7044 526.065,99.7044 567,98.5C 575.992,98.9773 584.826,99.9773 593.5,101.5 Z"/></g>
<g><path style="opacity:0.984" fill="#8ce7e8" d="M 583.5,100.5 C 533.668,101.333 483.668,101.833 433.5,102C 428.062,103.621 422.729,104.121 417.5,103.5C 420.37,102.366 423.37,101.7 426.5,101.5C 478.817,100.527 531.15,100.193 583.5,100.5 Z"/></g>
<g><path style="opacity:0.996" fill="#86e1e3" d="M 583.5,100.5 C 586.807,101.051 590.14,101.384 593.5,101.5C 619.182,105.665 639.849,117.998 655.5,138.5C 655.427,140.027 656.094,141.027 657.5,141.5C 667.244,153.381 672.911,167.048 674.5,182.5C 674.168,223.003 674.501,263.337 675.5,303.5C 676.371,313.229 676.704,323.396 676.5,334C 725.5,334.333 774.5,334.667 823.5,335C 836.906,336.301 849.239,340.468 860.5,347.5C 858.944,348.291 857.61,348.624 856.5,348.5C 857.277,350.539 858.443,351.205 860,350.5C 863.916,353.184 868.082,355.35 872.5,357C 872.043,357.414 871.709,357.914 871.5,358.5C 872.833,359.167 874.167,359.833 875.5,360.5C 877.667,363.5 879.833,366.5 882,369.5C 882.667,368.167 883.333,368.167 884,369.5C 884.464,368.906 884.631,368.239 884.5,367.5C 894.856,378.879 901.523,392.212 904.5,407.5C 905.404,423.479 905.738,439.479 905.5,455.5C 904.761,455.369 904.094,455.536 903.5,456C 904.321,477.998 904.321,499.332 903.5,520C 903.808,521.459 904.475,522.626 905.5,523.5C 905.194,526.385 905.527,529.052 906.5,531.5C 906.731,543.588 906.731,555.588 906.5,567.5C 905.512,572.64 905.179,577.974 905.5,583.5C 899.116,617.391 879.782,640.558 847.5,653C 843.93,654.31 840.263,655.143 836.5,655.5C 833.391,655.264 830.391,655.597 827.5,656.5C 791.764,655.83 755.931,655.164 720,654.5C 706.735,655.158 693.569,655.825 680.5,656.5C 679.209,656.263 678.209,656.596 677.5,657.5C 676.596,658.209 676.263,659.209 676.5,660.5C 675.732,659.737 675.232,658.737 675,657.5C 674.333,673.5 674.333,689.5 675,705.5C 675.176,701.312 675.676,697.312 676.5,693.5C 676.5,704.5 676.5,715.5 676.5,726.5C 675.989,729.963 674.989,733.296 673.5,736.5C 672.262,736.81 672.262,737.31 673.5,738C 672.5,738.333 671.5,738.667 670.5,739C 673.624,740.541 673.957,742.375 671.5,744.5C 672.025,745.192 672.692,745.692 673.5,746C 672.692,746.308 672.025,746.808 671.5,747.5C 673.042,749.879 673.709,752.546 673.5,755.5C 672.755,759.542 672.755,763.209 673.5,766.5C 670.833,767.833 670.833,769.167 673.5,770.5C 672.359,771.425 672.359,772.259 673.5,773C 672.833,773.333 672.167,773.667 671.5,774C 671.877,777.088 671.877,780.255 671.5,783.5C 671.709,784.994 672.376,786.161 673.5,787C 671.109,787.691 671.109,788.691 673.5,790C 672.833,790.333 672.167,790.667 671.5,791C 673.004,792.491 673.837,794.324 674,796.5C 674.464,795.906 674.631,795.239 674.5,794.5C 674.833,794.5 675.167,794.5 675.5,794.5C 675.002,797.487 674.502,800.487 674,803.5C 673.689,798.941 672.855,798.608 671.5,802.5C 672.167,804.167 672.833,805.833 673.5,807.5C 673.333,808.167 673.167,808.833 673,809.5C 672.346,808.304 671.846,808.304 671.5,809.5C 671.872,812.383 671.872,815.383 671.5,818.5C 668.487,828.192 664.153,837.192 658.5,845.5C 645.111,861.375 628.444,872.542 608.5,879C 602.924,880.485 597.257,881.318 591.5,881.5C 583.564,880.705 575.73,880.705 568,881.5C 564.724,881.442 561.724,880.776 559,879.5C 555.379,879.459 551.712,880.126 548,881.5C 545.363,881.343 542.863,880.677 540.5,879.5C 539.452,880.383 538.285,881.05 537,881.5C 533.614,880.913 530.28,880.246 527,879.5C 518.358,880.077 509.192,880.743 499.5,881.5C 496.46,881.583 493.627,880.916 491,879.5C 479.273,881.3 467.44,881.8 455.5,881C 454.892,880.13 454.059,879.63 453,879.5C 450.667,880.167 448.333,880.833 446,881.5C 444.989,881.108 444.489,880.441 444.5,879.5C 440.759,881.331 436.759,881.997 432.5,881.5C 418.92,881.363 406.254,877.863 394.5,871C 383.737,864.066 374.071,855.899 365.5,846.5C 365.167,845.5 364.5,844.833 363.5,844.5C 359.422,837.346 355.589,830.013 352,822.5C 349.71,816.339 348.21,810.005 347.5,803.5C 346.305,787.72 346.305,772.22 347.5,757C 346.845,747.402 346.178,737.902 345.5,728.5C 345.5,723.833 345.5,719.167 345.5,714.5C 346.224,710.635 346.891,706.635 347.5,702.5C 346.308,691.149 346.308,679.649 347.5,668C 346.877,665.393 346.21,662.893 345.5,660.5C 345.5,659.5 345.5,658.5 345.5,657.5C 318.833,657.5 292.167,657.5 265.5,657.5C 287.663,656.668 309.996,656.168 332.5,656C 287.168,655.5 241.835,655.333 196.5,655.5C 193.5,655.5 190.5,655.5 187.5,655.5C 173.979,653.403 161.979,648.069 151.5,639.5C 152.082,637.331 152.082,634.998 151.5,632.5C 149.234,632.859 147.401,632.192 146,630.5C 145.667,631.167 145.333,631.833 145,632.5C 144.095,629.018 142.428,626.018 140,623.5C 139.764,625.119 138.931,626.119 137.5,626.5C 128.488,616.806 122.488,605.473 119.5,592.5C 119.5,590.5 119.5,588.5 119.5,586.5C 118.861,579.339 118.195,572.172 117.5,565C 118.054,562.505 118.054,560.172 117.5,558C 117.759,556.739 118.426,555.739 119.5,555C 118.167,553 118.167,551 119.5,549C 118.833,548.667 118.167,548.333 117.5,548C 118.381,547.292 119.047,546.458 119.5,545.5C 119.828,533.988 119.495,522.654 118.5,511.5C 119.269,508.829 119.602,506.329 119.5,504C 118.584,503.722 117.918,503.222 117.5,502.5C 118.809,500.429 119.475,497.929 119.5,495C 119.497,492.31 119.164,489.81 118.5,487.5C 118.5,487.167 118.5,486.833 118.5,486.5C 119.437,479.95 119.437,472.95 118.5,465.5C 118.5,465.167 118.5,464.833 118.5,464.5C 118.223,461.157 118.556,457.324 119.5,453C 119.453,450.705 118.787,448.871 117.5,447.5C 117.383,445.516 118.05,443.85 119.5,442.5C 118.607,439.916 118.274,437.249 118.5,434.5C 119.492,427.018 119.825,419.352 119.5,411.5C 119.5,410.167 119.5,408.833 119.5,407.5C 119.5,405.833 119.5,404.167 119.5,402.5C 120.238,398.285 121.572,394.285 123.5,390.5C 124.847,391.171 126.014,391.171 127,390.5C 127.029,386.279 128.529,382.779 131.5,380C 132.833,380 134.167,380 135.5,380C 134.448,378.284 135.114,377.284 137.5,377C 137.153,375.431 136.986,373.598 137,371.5C 138.147,370.542 139.147,370.875 140,372.5C 141.887,370.974 142.887,368.974 143,366.5C 144.062,364.792 145.229,364.126 146.5,364.5C 145.624,363.749 144.624,363.249 143.5,363C 144.893,360.317 146.226,360.15 147.5,362.5C 148.724,361.234 150.057,360.067 151.5,359C 151.034,357.701 151.034,356.201 151.5,354.5C 151.5,354.167 151.5,353.833 151.5,353.5C 153.5,352.5 155.5,351.5 157.5,350.5C 159.027,350.573 160.027,349.906 160.5,348.5C 167.525,343.824 175.192,340.491 183.5,338.5C 187.544,338.156 191.544,337.49 195.5,336.5C 196.5,336.667 197.5,336.833 198.5,337C 193.719,337.699 193.553,338.199 198,338.5C 199.167,338.167 200.333,337.833 201.5,337.5C 201.291,336.914 200.957,336.414 200.5,336C 203.036,335.814 205.369,335.314 207.5,334.5C 253.5,334.5 299.5,334.5 345.5,334.5C 345.5,329.5 345.5,324.5 345.5,319.5C 346.239,319.631 346.906,319.464 347.5,319C 347.378,296.372 347.045,272.206 346.5,246.5C 346.404,244.074 347.07,241.907 348.5,240C 348.167,239.667 347.833,239.333 347.5,239C 349.864,237.988 351.198,236.655 351.5,235C 350.874,234.25 350.374,233.416 350,232.5C 349.282,233.451 348.449,233.617 347.5,233C 347.224,231.305 347.557,229.472 348.5,227.5C 346.172,223.558 346.005,219.558 348,215.5C 349,216.5 350,217.5 351,218.5C 351.264,216.361 350.431,214.694 348.5,213.5C 348.167,211.333 347.833,209.167 347.5,207C 346.985,198.859 346.985,190.359 347.5,181.5C 350.869,161.428 359.536,144.095 373.5,129.5C 385.983,117.254 400.65,108.587 417.5,103.5C 422.729,104.121 428.062,103.621 433.5,102C 483.668,101.833 533.668,101.333 583.5,100.5 Z M 589.5,126.5 C 595.197,127.849 600.863,129.682 606.5,132C 610.411,133.444 613.744,135.611 616.5,138.5C 630.445,147.06 640.112,159.06 645.5,174.5C 648.542,182.085 649.875,190.085 649.5,198.5C 649.5,233.5 649.5,268.5 649.5,303.5C 649.209,320.535 649.542,337.535 650.5,354.5C 651.806,356.473 653.473,358.139 655.5,359.5C 657.744,360.93 660.244,361.93 663,362.5C 713.332,361.89 763.498,361.557 813.5,361.5C 820.599,362.087 827.933,363.087 835.5,364.5C 844.988,368.074 853.321,373.408 860.5,380.5C 861.5,380.833 862.167,381.5 862.5,382.5C 871.899,391.63 877.899,402.63 880.5,415.5C 881.459,467.488 881.792,519.488 881.5,571.5C 880.176,587.646 873.843,601.48 862.5,613C 861.906,613.464 861.239,613.631 860.5,613.5C 854.165,620.495 846.498,625.495 837.5,628.5C 831.716,629.579 826.049,630.579 820.5,631.5C 769.674,631.388 719.007,631.055 668.5,630.5C 664.191,630.855 660.191,631.855 656.5,633.5C 652.635,634.706 650.635,637.373 650.5,641.5C 649.501,686.664 649.168,731.997 649.5,777.5C 651.206,792.93 648.706,807.597 642,821.5C 639.86,825.462 637.027,828.796 633.5,831.5C 631.522,835.478 628.522,838.478 624.5,840.5C 623.167,841.833 621.833,843.167 620.5,844.5C 610.163,850.39 599.163,854.057 587.5,855.5C 536.832,855.667 486.166,855.5 435.5,855C 422.772,854.261 411.439,850.095 401.5,842.5C 402.547,841.922 402.38,841.256 401,840.5C 400.601,840.728 400.435,841.062 400.5,841.5C 384.497,830.532 375.331,815.199 373,795.5C 372.5,751.168 372.333,706.835 372.5,662.5C 372.666,655.159 372.5,647.826 372,640.5C 370.147,635.473 366.647,632.473 361.5,631.5C 308.638,630.886 255.638,630.886 202.5,631.5C 190.306,630.101 178.972,626.101 168.5,619.5C 152.083,605.998 143.083,588.665 141.5,567.5C 141.817,522.008 141.983,474.675 142,425.5C 142.583,421.168 143.083,416.835 143.5,412.5C 148.184,395.813 157.85,382.813 172.5,373.5C 173.574,372.115 174.907,370.949 176.5,370C 181.59,367.782 186.59,365.616 191.5,363.5C 197.342,362.975 203.175,362.309 209,361.5C 258.387,361.887 308.553,361.887 359.5,361.5C 359.435,361.938 359.601,362.272 360,362.5C 361.302,361.915 362.469,361.249 363.5,360.5C 367.833,359.5 370.5,356.833 371.5,352.5C 372.499,298.336 372.832,244.003 372.5,189.5C 379.647,155.687 399.981,134.687 433.5,126.5C 484.994,125.182 536.994,125.182 589.5,126.5 Z"/></g>
<g><path style="opacity:0.004" fill="#8adad7" d="M 617.5,106.5 C 618.833,107.167 618.833,107.167 617.5,106.5 Z"/></g>
<g><path style="opacity:0.74" fill="#85dcde" d="M 589.5,126.5 C 536.994,125.182 484.994,125.182 433.5,126.5C 435.969,125.683 438.635,125.183 441.5,125C 489.5,124.333 537.5,124.333 585.5,125C 587.736,125.079 589.07,125.579 589.5,126.5 Z"/></g>
<g><path style="opacity:0.004" fill="#86d6d7" d="M 373.5,129.5 C 372.833,128.167 372.833,128.167 373.5,129.5 Z"/></g>
<g><path style="opacity:0.008" fill="#8ad5d5" d="M 364.5,136.5 C 365.833,137.167 365.833,137.167 364.5,136.5 Z"/></g>
<g><path style="opacity:0.4" fill="#86d7d8" d="M 655.5,138.5 C 656.906,138.973 657.573,139.973 657.5,141.5C 656.094,141.027 655.427,140.027 655.5,138.5 Z"/></g>
<g><path style="opacity:0.004" fill="#85d2d3" d="M 343.5,170.5 C 344.833,171.167 344.833,171.167 343.5,170.5 Z"/></g>
<g><path style="opacity:0.004" fill="#86d6d6" d="M 346.5,172.5 C 347.833,173.167 347.833,173.167 346.5,172.5 Z"/></g>
<g><path style="opacity:0.008" fill="#86d4d6" d="M 345.5,175.5 C 346.833,176.167 346.833,176.167 345.5,175.5 Z"/></g>
<g><path style="opacity:0.004" fill="#4a6c6b" d="M 189.5,190.5 C 190.833,191.167 190.833,191.167 189.5,190.5 Z"/></g>
<g><path style="opacity:0.004" fill="#89d9db" d="M 343.5,193.5 C 344.525,193.897 344.692,194.563 344,195.5C 343.536,194.906 343.369,194.239 343.5,193.5 Z"/></g>
<g><path style="opacity:0.004" fill="#88dbda" d="M 343.5,198.5 C 344.833,199.167 344.833,199.167 343.5,198.5 Z"/></g>
<g><path style="opacity:0.004" fill="#89dcdc" d="M 343.5,204.5 C 344.833,205.167 344.833,205.167 343.5,204.5 Z"/></g>
<g><path style="opacity:0.653" fill="#87dddf" d="M 347.5,181.5 C 346.985,190.359 346.985,198.859 347.5,207C 347.833,209.167 348.167,211.333 348.5,213.5C 350.431,214.694 351.264,216.361 351,218.5C 350,217.5 349,216.5 348,215.5C 346.005,219.558 346.172,223.558 348.5,227.5C 347.557,229.472 347.224,231.305 347.5,233C 348.449,233.617 349.282,233.451 350,232.5C 350.374,233.416 350.874,234.25 351.5,235C 351.198,236.655 349.864,237.988 347.5,239C 347.833,239.333 348.167,239.667 348.5,240C 347.07,241.907 346.404,244.074 346.5,246.5C 347.045,272.206 347.378,296.372 347.5,319C 346.906,319.464 346.239,319.631 345.5,319.5C 345.333,276.165 345.5,232.832 346,189.5C 346.183,186.635 346.683,183.969 347.5,181.5 Z"/></g>
<g><path style="opacity:0.006" fill="#87dadb" d="M 343.5,209.5 C 344.525,209.897 344.692,210.563 344,211.5C 343.536,210.906 343.369,210.239 343.5,209.5 Z"/></g>
<g><path style="opacity:0.32" fill="#89dddf" d="M 649.5,198.5 C 649.848,216.396 650.848,234.229 652.5,252C 651.692,252.308 651.025,252.808 650.5,253.5C 651.111,266.302 651.444,279.135 651.5,292C 650.862,295.935 650.196,299.769 649.5,303.5C 649.5,268.5 649.5,233.5 649.5,198.5 Z"/></g>
<g><path style="opacity:0.004" fill="#88dbdd" d="M 343.5,217.5 C 344.525,217.897 344.692,218.563 344,219.5C 343.536,218.906 343.369,218.239 343.5,217.5 Z"/></g>
<g><path style="opacity:0.004" fill="#89dadc" d="M 343.5,224.5 C 344.833,225.167 344.833,225.167 343.5,224.5 Z"/></g>
<g><path style="opacity:0.004" fill="#88dcdc" d="M 343.5,229.5 C 344.833,230.167 344.833,230.167 343.5,229.5 Z"/></g>
<g><path style="opacity:0.004" fill="#89ddde" d="M 343.5,243.5 C 344.833,244.167 344.833,244.167 343.5,243.5 Z"/></g>
<g><path style="opacity:0.004" fill="#88dddd" d="M 343.5,245.5 C 344.525,245.897 344.692,246.563 344,247.5C 343.536,246.906 343.369,246.239 343.5,245.5 Z"/></g>
<g><path style="opacity:0.008" fill="#89dee0" d="M 343.5,252.5 C 344.525,252.897 344.692,253.563 344,254.5C 343.536,253.906 343.369,253.239 343.5,252.5 Z"/></g>
<g><path style="opacity:0.004" fill="#8bddde" d="M 343.5,258.5 C 344.833,259.167 344.833,259.167 343.5,258.5 Z"/></g>
<g><path style="opacity:0.004" fill="#8adedf" d="M 343.5,262.5 C 344.833,263.167 344.833,263.167 343.5,262.5 Z"/></g>
<g><path style="opacity:0.961" fill="#86dede" d="M 674.5,182.5 C 675.812,188.955 676.479,195.622 676.5,202.5C 676.438,237.241 676.105,270.907 675.5,303.5C 674.501,263.337 674.168,223.003 674.5,182.5 Z"/></g>
<g><path style="opacity:0.004" fill="#8bdfe0" d="M 343.5,266.5 C 344.833,267.167 344.833,267.167 343.5,266.5 Z"/></g>
<g><path style="opacity:0.008" fill="#8bdbdf" d="M 343.5,270.5 C 344.833,271.167 344.833,271.167 343.5,270.5 Z"/></g>
<g><path style="opacity:0.004" fill="#8addde" d="M 343.5,274.5 C 344.833,275.167 344.833,275.167 343.5,274.5 Z"/></g>
<g><path style="opacity:0.004" fill="#8ae0dd" d="M 343.5,279.5 C 344.833,280.167 344.833,280.167 343.5,279.5 Z"/></g>
<g><path style="opacity:0.008" fill="#8adedd" d="M 343.5,281.5 C 344.833,282.167 344.833,282.167 343.5,281.5 Z"/></g>
<g><path style="opacity:0.004" fill="#8adedf" d="M 343.5,291.5 C 344.833,292.167 344.833,292.167 343.5,291.5 Z"/></g>
<g><path style="opacity:0.008" fill="#8de0e1" d="M 343.5,310.5 C 344.525,310.897 344.692,311.563 344,312.5C 343.536,311.906 343.369,311.239 343.5,310.5 Z"/></g>
<g><path style="opacity:0.004" fill="#8ce2e1" d="M 343.5,316.5 C 344.833,317.167 344.833,317.167 343.5,316.5 Z"/></g>
<g><path style="opacity:0.624" fill="#87dedf" d="M 372.5,189.5 C 372.832,244.003 372.499,298.336 371.5,352.5C 371.742,347.504 371.075,342.671 369.5,338C 372.057,334.57 372.057,331.07 369.5,327.5C 371.156,324.34 370.823,321.506 368.5,319C 369.328,318.085 370.328,317.419 371.5,317C 370.947,312.114 370.947,307.447 371.5,303C 370.773,300.876 370.106,298.709 369.5,296.5C 370.193,287.187 370.86,277.853 371.5,268.5C 371.121,263.475 370.121,258.642 368.5,254C 369.573,252.687 370.24,251.187 370.5,249.5C 370.249,241.947 369.916,234.614 369.5,227.5C 370.04,226.252 370.707,225.085 371.5,224C 369.201,221.465 369.201,218.798 371.5,216C 369.327,214.135 368.993,211.969 370.5,209.5C 369.788,206.352 369.121,203.186 368.5,200C 369.009,198.831 369.842,197.998 371,197.5C 371.183,194.635 371.683,191.969 372.5,189.5 Z"/></g>
<g><path style="opacity:0.006" fill="#88dadb" d="M 187.5,336.5 C 186.448,336.649 185.448,336.483 184.5,336C 185.749,335.26 186.749,335.427 187.5,336.5 Z"/></g>
<g><path style="opacity:0.991" fill="#87dedf" d="M 207.5,334.5 C 205.369,335.314 203.036,335.814 200.5,336C 200.957,336.414 201.291,336.914 201.5,337.5C 200.333,337.833 199.167,338.167 198,338.5C 193.553,338.199 193.719,337.699 198.5,337C 197.5,336.833 196.5,336.667 195.5,336.5C 191.544,337.49 187.544,338.156 183.5,338.5C 184.833,337.833 186.167,337.167 187.5,336.5C 194.115,335.365 200.782,334.698 207.5,334.5 Z"/></g>
<g><path style="opacity:0.986" fill="#89e1e1" d="M 860.5,347.5 C 869.991,352.319 877.991,358.986 884.5,367.5C 884.631,368.239 884.464,368.906 884,369.5C 883.333,368.167 882.667,368.167 882,369.5C 879.833,366.5 877.667,363.5 875.5,360.5C 874.167,359.833 872.833,359.167 871.5,358.5C 871.709,357.914 872.043,357.414 872.5,357C 868.082,355.35 863.916,353.184 860,350.5C 858.443,351.205 857.277,350.539 856.5,348.5C 857.61,348.624 858.944,348.291 860.5,347.5 Z"/></g>
<g><path style="opacity:0.922" fill="#89d9d9" d="M 160.5,348.5 C 160.027,349.906 159.027,350.573 157.5,350.5C 157.973,349.094 158.973,348.427 160.5,348.5 Z"/></g>
<g><path style="opacity:0.004" fill="#84d2cf" d="M 876.5,351.5 C 877.833,352.167 877.833,352.167 876.5,351.5 Z"/></g>
<g><path style="opacity:0.004" fill="#88d5d6" d="M 151.5,353.5 C 150.475,353.103 150.308,352.437 151,351.5C 151.464,352.094 151.631,352.761 151.5,353.5 Z"/></g>
<g><path style="opacity:0.004" fill="#89d6d4" d="M 873.5,352.5 C 874.833,353.167 874.833,353.167 873.5,352.5 Z"/></g>
<g><path style="opacity:0.991" fill="#88e0e0" d="M 151.5,354.5 C 151.034,356.201 151.034,357.701 151.5,359C 150.057,360.067 148.724,361.234 147.5,362.5C 146.226,360.15 144.893,360.317 143.5,363C 144.624,363.249 145.624,363.749 146.5,364.5C 145.229,364.126 144.062,364.792 143,366.5C 142.887,368.974 141.887,370.974 140,372.5C 139.147,370.875 138.147,370.542 137,371.5C 136.986,373.598 137.153,375.431 137.5,377C 135.114,377.284 134.448,378.284 135.5,380C 134.167,380 132.833,380 131.5,380C 128.529,382.779 127.029,386.279 127,390.5C 126.014,391.171 124.847,391.171 123.5,390.5C 129.465,375.916 138.798,363.916 151.5,354.5 Z"/></g>
<g><path style="opacity:0.012" fill="#8bd6d6" d="M 140.5,359.5 C 141.833,360.167 141.833,360.167 140.5,359.5 Z"/></g>
<g><path style="opacity:0.973" fill="#8be3e4" d="M 305.5,360.5 C 324.833,359.167 344.167,359.167 363.5,360.5C 362.469,361.249 361.302,361.915 360,362.5C 359.601,362.272 359.435,361.938 359.5,361.5C 341.674,360.503 323.674,360.17 305.5,360.5 Z"/></g>
<g><path style="opacity:0.965" fill="#85dbdb" d="M 305.5,360.5 C 323.674,360.17 341.674,360.503 359.5,361.5C 308.553,361.887 258.387,361.887 209,361.5C 203.175,362.309 197.342,362.975 191.5,363.5C 195.388,362.429 199.221,361.096 203,359.5C 237.094,360.496 271.26,360.829 305.5,360.5 Z"/></g>
<g><path style="opacity:0.961" fill="#84dada" d="M 655.5,359.5 C 708.144,360.483 760.81,360.816 813.5,360.5C 813.5,360.833 813.5,361.167 813.5,361.5C 763.498,361.557 713.332,361.89 663,362.5C 660.244,361.93 657.744,360.93 655.5,359.5 Z"/></g>
<g><path style="opacity:0.055" fill="#8adfdf" d="M 813.5,361.5 C 813.5,361.167 813.5,360.833 813.5,360.5C 821.247,360.345 828.58,361.678 835.5,364.5C 827.933,363.087 820.599,362.087 813.5,361.5 Z"/></g>
<g><path style="opacity:0.004" fill="#86d3d1" d="M 131.5,369.5 C 132.833,370.167 132.833,370.167 131.5,369.5 Z"/></g>
<g><path style="opacity:0.337" fill="#89dbdb" d="M 119.5,402.5 C 119.5,404.167 119.5,405.833 119.5,407.5C 118.833,408.5 118.167,409.5 117.5,410.5C 117.565,407.572 118.232,404.905 119.5,402.5 Z"/></g>
<g><path style="opacity:0.004" fill="#88d8d8" d="M 113.5,418.5 C 114.833,419.167 114.833,419.167 113.5,418.5 Z"/></g>
<g><path style="opacity:0.99" fill="#87dfde" d="M 119.5,411.5 C 119.825,419.352 119.492,427.018 118.5,434.5C 117.179,426.684 117.513,419.018 119.5,411.5 Z"/></g>
<g><path style="opacity:1" fill="#8be3e1" d="M 119.5,407.5 C 119.5,408.833 119.5,410.167 119.5,411.5C 117.513,419.018 117.179,426.684 118.5,434.5C 118.274,437.249 118.607,439.916 119.5,442.5C 118.05,443.85 117.383,445.516 117.5,447.5C 117.178,453.358 117.511,459.025 118.5,464.5C 118.5,464.833 118.5,465.167 118.5,465.5C 117.81,472.292 117.81,479.292 118.5,486.5C 118.5,486.833 118.5,487.167 118.5,487.5C 118.657,488.873 118.49,490.207 118,491.5C 117.667,490.833 117.333,490.167 117,489.5C 116.829,481.656 116.329,473.989 115.5,466.5C 115.333,450.163 115.5,433.83 116,417.5C 116.186,414.964 116.686,412.631 117.5,410.5C 118.167,409.5 118.833,408.5 119.5,407.5 Z"/></g>
<g><path style="opacity:0.954" fill="#86dcdc" d="M 904.5,407.5 C 905.302,408.952 905.802,410.618 906,412.5C 906.5,438.831 906.667,465.165 906.5,491.5C 905.505,479.678 905.172,467.678 905.5,455.5C 905.738,439.479 905.404,423.479 904.5,407.5 Z"/></g>
<g><path style="opacity:0.008" fill="#8bdbdb" d="M 113.5,450.5 C 114.833,451.167 114.833,451.167 113.5,450.5 Z"/></g>
<g><path style="opacity:0.994" fill="#87e0df" d="M 117.5,447.5 C 118.787,448.871 119.453,450.705 119.5,453C 118.556,457.324 118.223,461.157 118.5,464.5C 117.511,459.025 117.178,453.358 117.5,447.5 Z"/></g>
<g><path style="opacity:0.988" fill="#89e3e2" d="M 905.5,455.5 C 905.172,467.678 905.505,479.678 906.5,491.5C 906.5,491.833 906.5,492.167 906.5,492.5C 905.506,502.653 905.172,512.986 905.5,523.5C 904.475,522.626 903.808,521.459 903.5,520C 904.321,499.332 904.321,477.998 903.5,456C 904.094,455.536 904.761,455.369 905.5,455.5 Z"/></g>
<g><path style="opacity:0.995" fill="#87e0de" d="M 118.5,465.5 C 119.437,472.95 119.437,479.95 118.5,486.5C 117.81,479.292 117.81,472.292 118.5,465.5 Z"/></g>
<g><path style="opacity:0.016" fill="#8addd9" d="M 113.5,482.5 C 114.833,483.167 114.833,483.167 113.5,482.5 Z"/></g>
<g><path style="opacity:0.922" fill="#89e0df" d="M 115.5,466.5 C 116.329,473.989 116.829,481.656 117,489.5C 117.333,490.167 117.667,490.833 118,491.5C 118.49,490.207 118.657,488.873 118.5,487.5C 119.164,489.81 119.497,492.31 119.5,495C 119.475,497.929 118.809,500.429 117.5,502.5C 116.164,502.086 115.497,507.086 115.5,517.5C 115.5,500.5 115.5,483.5 115.5,466.5 Z"/></g>
<g><path style="opacity:0.008" fill="#87deda" d="M 113.5,498.5 C 114.833,499.167 114.833,499.167 113.5,498.5 Z"/></g>
<g><path style="opacity:0.98" fill="#83dede" d="M 138.5,441.5 C 139.663,464.663 139.83,487.996 139,511.5C 138.789,505.782 138.289,500.115 137.5,494.5C 137.279,482.885 137.613,471.885 138.5,461.5C 137.975,460.808 137.308,460.308 136.5,460C 138.43,454.126 139.097,447.96 138.5,441.5 Z"/></g>
<g><path style="opacity:0.99" fill="#8be4e3" d="M 117.5,502.5 C 117.918,503.222 118.584,503.722 119.5,504C 119.602,506.329 119.269,508.829 118.5,511.5C 117.175,516.901 117.175,522.401 118.5,528C 118,528.5 117.5,529 117,529.5C 116.823,525.644 116.323,521.977 115.5,518.5C 115.5,518.167 115.5,517.833 115.5,517.5C 115.497,507.086 116.164,502.086 117.5,502.5 Z"/></g>
<g><path style="opacity:0.008" fill="#8bdddb" d="M 113.5,506.5 C 114.833,507.167 114.833,507.167 113.5,506.5 Z"/></g>
<g><path style="opacity:0.004" fill="#8adddc" d="M 113.5,508.5 C 114.833,509.167 114.833,509.167 113.5,508.5 Z"/></g>
<g><path style="opacity:0.995" fill="#88dfdf" d="M 118.5,511.5 C 119.495,522.654 119.828,533.988 119.5,545.5C 118.778,545.082 118.278,544.416 118,543.5C 117.216,540.24 117.383,537.073 118.5,534C 117.874,533.25 117.374,532.416 117,531.5C 116.823,535.356 116.323,539.023 115.5,542.5C 115.5,534.5 115.5,526.5 115.5,518.5C 116.323,521.977 116.823,525.644 117,529.5C 117.5,529 118,528.5 118.5,528C 117.175,522.401 117.175,516.901 118.5,511.5 Z"/></g>
<g><path style="opacity:0.008" fill="#8adbd9" d="M 113.5,514.5 C 114.833,515.167 114.833,515.167 113.5,514.5 Z"/></g>
<g><path style="opacity:0.971" fill="#87dede" d="M 906.5,492.5 C 906.586,505.333 906.586,518.333 906.5,531.5C 905.527,529.052 905.194,526.385 905.5,523.5C 905.172,512.986 905.506,502.653 906.5,492.5 Z"/></g>
<g><path style="opacity:0.982" fill="#86dfdf" d="M 883.5,458.5 C 884.267,459.172 884.934,460.005 885.5,461C 885.45,467.19 885.116,473.69 884.5,480.5C 885.5,480.5 886.5,480.5 887.5,480.5C 885.032,482.937 884.032,485.937 884.5,489.5C 884.726,495.058 884.726,500.058 884.5,504.5C 885.025,505.192 885.692,505.692 886.5,506C 883.906,508.072 883.906,510.239 886.5,512.5C 886.457,514.561 885.791,516.728 884.5,519C 884.612,524.609 884.612,530.609 884.5,537C 886.932,538.087 886.598,538.587 883.5,538.5C 883.5,511.833 883.5,485.167 883.5,458.5 Z"/></g>
<g><path style="opacity:0.842" fill="#84dcdd" d="M 143.5,412.5 C 143.083,416.835 142.583,421.168 142,425.5C 141.983,474.675 141.817,522.008 141.5,567.5C 140.344,522.849 140.178,474.183 141,421.5C 141.204,418.203 142.037,415.203 143.5,412.5 Z"/></g>
<g><path style="opacity:0.016" fill="#88dcd9" d="M 113.5,530.5 C 114.833,531.167 114.833,531.167 113.5,530.5 Z"/></g>
<g><path style="opacity:0.747" fill="#85dddd" d="M 880.5,415.5 C 881.317,417.969 881.817,420.635 882,423.5C 882.832,473.002 882.665,522.335 881.5,571.5C 881.792,519.488 881.459,467.488 880.5,415.5 Z"/></g>
<g><path style="opacity:0.004" fill="#88dad9" d="M 113.5,556.5 C 114.833,557.167 114.833,557.167 113.5,556.5 Z"/></g>
<g><path style="opacity:0.995" fill="#8be4e3" d="M 119.5,545.5 C 119.047,546.458 118.381,547.292 117.5,548C 118.167,548.333 118.833,548.667 119.5,549C 118.167,551 118.167,553 119.5,555C 118.426,555.739 117.759,556.739 117.5,558C 118.054,560.172 118.054,562.505 117.5,565C 118.195,572.172 118.861,579.339 119.5,586.5C 117.941,583.132 117.108,579.465 117,575.5C 116.83,566.657 116.33,557.99 115.5,549.5C 115.5,547.167 115.5,544.833 115.5,542.5C 116.323,539.023 116.823,535.356 117,531.5C 117.374,532.416 117.874,533.25 118.5,534C 117.383,537.073 117.216,540.24 118,543.5C 118.278,544.416 118.778,545.082 119.5,545.5 Z"/></g>
<g><path style="opacity:0.004" fill="#85dad9" d="M 113.5,565.5 C 114.525,565.897 114.692,566.563 114,567.5C 113.536,566.906 113.369,566.239 113.5,565.5 Z"/></g>
<g><path style="opacity:0.727" fill="#87dcdc" d="M 906.5,567.5 C 906.474,568.816 906.807,570.316 907.5,572C 906.862,575.935 906.196,579.769 905.5,583.5C 905.179,577.974 905.512,572.64 906.5,567.5 Z"/></g>
<g><path style="opacity:0.007" fill="#86d9d8" d="M 114.5,579.5 C 115.598,580.601 115.765,581.934 115,583.5C 114.51,582.207 114.343,580.873 114.5,579.5 Z"/></g>
<g><path style="opacity:0.071" fill="#89dcdb" d="M 115.5,549.5 C 116.33,557.99 116.83,566.657 117,575.5C 117.108,579.465 117.941,583.132 119.5,586.5C 119.5,588.5 119.5,590.5 119.5,592.5C 118.5,589.833 117.5,587.167 116.5,584.5C 115.698,572.852 115.365,561.185 115.5,549.5 Z"/></g>
<g><path style="opacity:0.004" fill="#89dad9" d="M 116.5,584.5 C 115.833,585.167 115.833,585.167 116.5,584.5 Z"/></g>
<g><path style="opacity:0.008" fill="#84d7d4" d="M 894.5,621.5 C 895.833,622.167 895.833,622.167 894.5,621.5 Z"/></g>
<g><path style="opacity:0.982" fill="#8ae2e2" d="M 168.5,619.5 C 178.972,626.101 190.306,630.101 202.5,631.5C 199.833,631.5 197.167,631.5 194.5,631.5C 189.435,630.562 184.602,630.562 180,631.5C 179.5,631.167 179,630.833 178.5,630.5C 179.833,629.5 179.833,628.5 178.5,627.5C 175.677,624.755 172.344,623.089 168.5,622.5C 168.5,621.5 168.5,620.5 168.5,619.5 Z"/></g>
<g><path style="opacity:0.847" fill="#8be0e0" d="M 837.5,628.5 C 837.953,629.458 838.619,630.292 839.5,631C 835.514,631.499 831.514,631.666 827.5,631.5C 825.167,631.5 822.833,631.5 820.5,631.5C 826.049,630.579 831.716,629.579 837.5,628.5 Z"/></g>
<g><path style="opacity:0.9" fill="#8ae6e8" d="M 361.5,631.5 C 362.167,632.167 362.833,632.833 363.5,633.5C 361.833,633.5 360.167,633.5 358.5,633.5C 306.833,633.5 255.167,633.5 203.5,633.5C 200.273,633.324 197.273,632.657 194.5,631.5C 197.167,631.5 199.833,631.5 202.5,631.5C 255.638,630.886 308.638,630.886 361.5,631.5 Z"/></g>
<g><path style="opacity:0.932" fill="#8be6e8" d="M 820.5,631.5 C 822.833,631.5 825.167,631.5 827.5,631.5C 821.395,632.996 815.062,633.663 808.5,633.5C 778.833,633.5 749.167,633.5 719.5,633.5C 718.833,633.5 718.167,633.5 717.5,633.5C 699.5,633.5 681.5,633.5 663.5,633.5C 660.921,633.865 658.588,633.865 656.5,633.5C 660.191,631.855 664.191,630.855 668.5,630.5C 719.007,631.055 769.674,631.388 820.5,631.5 Z"/></g>
<g><path style="opacity:0.992" fill="#89e0e1" d="M 151.5,639.5 C 146.206,635.873 141.539,631.54 137.5,626.5C 138.931,626.119 139.764,625.119 140,623.5C 142.428,626.018 144.095,629.018 145,632.5C 145.333,631.833 145.667,631.167 146,630.5C 147.401,632.192 149.234,632.859 151.5,632.5C 152.082,634.998 152.082,637.331 151.5,639.5 Z"/></g>
<g><path style="opacity:0.979" fill="#83dcde" d="M 203.5,633.5 C 255.167,633.5 306.833,633.5 358.5,633.5C 357.035,637.047 354.868,637.38 352,634.5C 350.674,634.755 349.674,635.422 349,636.5C 347.647,635.296 345.981,634.629 344,634.5C 320.74,634.222 297.407,634.556 274,635.5C 250.402,634.838 226.902,634.171 203.5,633.5 Z"/></g>
<g><path style="opacity:0.984" fill="#82dbde" d="M 663.5,633.5 C 681.5,633.5 699.5,633.5 717.5,633.5C 717.217,634.289 716.717,634.956 716,635.5C 698.402,634.84 680.902,634.173 663.5,633.5 Z"/></g>
<g><path style="opacity:0.984" fill="#82dbdd" d="M 719.5,633.5 C 749.167,633.5 778.833,633.5 808.5,633.5C 804.435,634.193 800.268,634.86 796,635.5C 776.667,634.167 757.333,634.167 738,635.5C 731.734,634.851 725.567,634.185 719.5,633.5 Z"/></g>
<g><path style="opacity:0.984" fill="#88e0df" d="M 361.5,631.5 C 366.647,632.473 370.147,635.473 372,640.5C 372.5,647.826 372.666,655.159 372.5,662.5C 370.489,661.583 369.489,659.917 369.5,657.5C 369.667,656.167 369.833,654.833 370,653.5C 370.889,654.888 371.389,654.722 371.5,653C 370.206,652.894 369.539,651.894 369.5,650C 372.331,647.298 371.998,644.965 368.5,643C 369.333,640.919 369.333,638.752 368.5,636.5C 365.927,636.852 363.594,636.352 361.5,635C 362.416,634.722 363.082,634.222 363.5,633.5C 362.833,632.833 362.167,632.167 361.5,631.5 Z"/></g>
<g><path style="opacity:0.004" fill="#87d7d9" d="M 153.5,644.5 C 154.833,645.167 154.833,645.167 153.5,644.5 Z"/></g>
<g><path style="opacity:0.008" fill="#87d9d4" d="M 863.5,646.5 C 864.833,647.167 864.833,647.167 863.5,646.5 Z"/></g>
<g><path style="opacity:0.004" fill="#88dad5" d="M 855.5,650.5 C 856.833,651.167 856.833,651.167 855.5,650.5 Z"/></g>
<g><path style="opacity:0.008" fill="#88dad8" d="M 168.5,651.5 C 169.833,652.167 169.833,652.167 168.5,651.5 Z"/></g>
<g><path style="opacity:0.004" fill="#87d7d5" d="M 850.5,653.5 C 851.833,654.167 851.833,654.167 850.5,653.5 Z"/></g>
<g><path style="opacity:0.004" fill="#86d8d7" d="M 170.5,654.5 C 171.833,655.167 171.833,655.167 170.5,654.5 Z"/></g>
<g><path style="opacity:0.012" fill="#86d9d9" d="M 176.5,654.5 C 177.833,655.167 177.833,655.167 176.5,654.5 Z"/></g>
<g><path style="opacity:0.982" fill="#8de5e5" d="M 196.5,655.5 C 241.835,655.333 287.168,655.5 332.5,656C 309.996,656.168 287.663,656.668 265.5,657.5C 265.167,657.5 264.833,657.5 264.5,657.5C 241.833,656.833 219.167,656.167 196.5,655.5 Z"/></g>
<g><path style="opacity:0.99" fill="#8de5e4" d="M 827.5,656.5 C 778.5,656.5 729.5,656.5 680.5,656.5C 693.569,655.825 706.735,655.158 720,654.5C 755.931,655.164 791.764,655.83 827.5,656.5 Z"/></g>
<g><path style="opacity:0.517" fill="#89dedd" d="M 187.5,655.5 C 190.5,655.5 193.5,655.5 196.5,655.5C 219.167,656.167 241.833,656.833 264.5,657.5C 240.498,657.667 216.498,657.5 192.5,657C 190.618,656.802 188.952,656.302 187.5,655.5 Z"/></g>
<g><path style="opacity:0.528" fill="#88dcdb" d="M 836.5,655.5 C 834.708,656.309 832.708,656.809 830.5,657C 779.501,657.5 728.501,657.667 677.5,657.5C 678.209,656.596 679.209,656.263 680.5,656.5C 729.5,656.5 778.5,656.5 827.5,656.5C 830.391,655.597 833.391,655.264 836.5,655.5 Z"/></g>
<g><path style="opacity:0.004" fill="#8ad9d7" d="M 190.5,657.5 C 191.833,658.167 191.833,658.167 190.5,657.5 Z"/></g>
<g><path style="opacity:0.004" fill="#89dbda" d="M 197.5,658.5 C 198.833,659.167 198.833,659.167 197.5,658.5 Z"/></g>
<g><path style="opacity:0.004" fill="#89ddda" d="M 205.5,658.5 C 206.833,659.167 206.833,659.167 205.5,658.5 Z"/></g>
<g><path style="opacity:0.004" fill="#8adcdb" d="M 209.5,658.5 C 210.833,659.167 210.833,659.167 209.5,658.5 Z"/></g>
<g><path style="opacity:0.008" fill="#89dfde" d="M 257.5,658.5 C 258.833,659.167 258.833,659.167 257.5,658.5 Z"/></g>
<g><path style="opacity:0.004" fill="#8ae0dc" d="M 265.5,658.5 C 266.833,659.167 266.833,659.167 265.5,658.5 Z"/></g>
<g><path style="opacity:0.004" fill="#8ce1dd" d="M 293.5,658.5 C 294.833,659.167 294.833,659.167 293.5,658.5 Z"/></g>
<g><path style="opacity:0.004" fill="#8be0dd" d="M 309.5,658.5 C 310.833,659.167 310.833,659.167 309.5,658.5 Z"/></g>
<g><path style="opacity:0.004" fill="#8de2df" d="M 677.5,658.5 C 678.833,659.167 678.833,659.167 677.5,658.5 Z"/></g>
<g><path style="opacity:0.004" fill="#8ce0de" d="M 681.5,658.5 C 682.833,659.167 682.833,659.167 681.5,658.5 Z"/></g>
<g><path style="opacity:0.008" fill="#8ee0df" d="M 685.5,658.5 C 686.833,659.167 686.833,659.167 685.5,658.5 Z"/></g>
<g><path style="opacity:0.004" fill="#8be1dd" d="M 713.5,658.5 C 714.833,659.167 714.833,659.167 713.5,658.5 Z"/></g>
<g><path style="opacity:0.004" fill="#8edfdb" d="M 733.5,658.5 C 734.833,659.167 734.833,659.167 733.5,658.5 Z"/></g>
<g><path style="opacity:0.016" fill="#8cddde" d="M 737.5,658.5 C 738.833,659.167 738.833,659.167 737.5,658.5 Z"/></g>
<g><path style="opacity:0.004" fill="#8ddedc" d="M 785.5,658.5 C 786.833,659.167 786.833,659.167 785.5,658.5 Z"/></g>
<g><path style="opacity:0.008" fill="#8adbda" d="M 817.5,658.5 C 818.833,659.167 818.833,659.167 817.5,658.5 Z"/></g>
<g><path style="opacity:0.004" fill="#88dbd9" d="M 825.5,658.5 C 826.833,659.167 826.833,659.167 825.5,658.5 Z"/></g>
<g><path style="opacity:0.004" fill="#8be2e3" d="M 679.5,660.5 C 680.833,661.167 680.833,661.167 679.5,660.5 Z"/></g>
<g><path style="opacity:0.004" fill="#8be2de" d="M 343.5,670.5 C 344.833,671.167 344.833,671.167 343.5,670.5 Z"/></g>
<g><path style="opacity:0.008" fill="#8bdddd" d="M 343.5,672.5 C 344.833,673.167 344.833,673.167 343.5,672.5 Z"/></g>
<g><path style="opacity:0.755" fill="#8ae4e4" d="M 676.5,660.5 C 676.5,671.5 676.5,682.5 676.5,693.5C 675.676,697.312 675.176,701.312 675,705.5C 674.333,689.5 674.333,673.5 675,657.5C 675.232,658.737 675.732,659.737 676.5,660.5 Z"/></g>
<g><path style="opacity:0.004" fill="#8ce0de" d="M 343.5,674.5 C 344.833,675.167 344.833,675.167 343.5,674.5 Z"/></g>
<g><path style="opacity:0.328" fill="#87ddde" d="M 345.5,660.5 C 346.21,662.893 346.877,665.393 347.5,668C 346.308,679.649 346.308,691.149 347.5,702.5C 346.891,706.635 346.224,710.635 345.5,714.5C 345.5,696.5 345.5,678.5 345.5,660.5 Z"/></g>
<g><path style="opacity:0.004" fill="#8bdfdf" d="M 343.5,678.5 C 344.833,679.167 344.833,679.167 343.5,678.5 Z"/></g>
<g><path style="opacity:0.004" fill="#8adedf" d="M 343.5,686.5 C 344.573,687.251 344.74,688.251 344,689.5C 343.517,688.552 343.351,687.552 343.5,686.5 Z"/></g>
<g><path style="opacity:0.004" fill="#87e2e0" d="M 677.5,687.5 C 678.833,688.167 678.833,688.167 677.5,687.5 Z"/></g>
<g><path style="opacity:0.004" fill="#8ae0e0" d="M 343.5,690.5 C 344.833,691.167 344.833,691.167 343.5,690.5 Z"/></g>
<g><path style="opacity:0.008" fill="#89dfde" d="M 343.5,694.5 C 344.833,695.167 344.833,695.167 343.5,694.5 Z"/></g>
<g><path style="opacity:0.012" fill="#8bdfdb" d="M 343.5,696.5 C 344.833,697.167 344.833,697.167 343.5,696.5 Z"/></g>
<g><path style="opacity:0.004" fill="#8ae0e0" d="M 343.5,702.5 C 344.525,702.897 344.692,703.563 344,704.5C 343.536,703.906 343.369,703.239 343.5,702.5 Z"/></g>
<g><path style="opacity:0.004" fill="#89e0dd" d="M 677.5,703.5 C 678.833,704.167 678.833,704.167 677.5,703.5 Z"/></g>
<g><path style="opacity:0.004" fill="#89e1e0" d="M 343.5,705.5 C 344.525,705.897 344.692,706.563 344,707.5C 343.536,706.906 343.369,706.239 343.5,705.5 Z"/></g>
<g><path style="opacity:0.008" fill="#89dfdf" d="M 677.5,710.5 C 678.833,711.167 678.833,711.167 677.5,710.5 Z"/></g>
<g><path style="opacity:0.004" fill="#89dddd" d="M 343.5,721.5 C 344.525,721.897 344.692,722.563 344,723.5C 343.536,722.906 343.369,722.239 343.5,721.5 Z"/></g>
<g><path style="opacity:0.292" fill="#86dbdc" d="M 650.5,641.5 C 650.172,667.074 650.505,692.574 651.5,718C 650.839,737.931 650.172,757.764 649.5,777.5C 649.168,731.997 649.501,686.664 650.5,641.5 Z"/></g>
<g><path style="opacity:0.004" fill="#88dedb" d="M 343.5,724.5 C 344.833,725.167 344.833,725.167 343.5,724.5 Z"/></g>
<g><path style="opacity:0.008" fill="#89dcde" d="M 343.5,726.5 C 344.833,727.167 344.833,727.167 343.5,726.5 Z"/></g>
<g><path style="opacity:0.004" fill="#8adfe0" d="M 343.5,732.5 C 344.833,733.167 344.833,733.167 343.5,732.5 Z"/></g>
<g><path style="opacity:0.004" fill="#8ae0dd" d="M 343.5,734.5 C 344.833,735.167 344.833,735.167 343.5,734.5 Z"/></g>
<g><path style="opacity:0.012" fill="#89dbdb" d="M 343.5,736.5 C 344.833,737.167 344.833,737.167 343.5,736.5 Z"/></g>
<g><path style="opacity:0.004" fill="#88dddd" d="M 343.5,740.5 C 344.833,741.167 344.833,741.167 343.5,740.5 Z"/></g>
<g><path style="opacity:0.008" fill="#8bdddc" d="M 343.5,742.5 C 344.833,743.167 344.833,743.167 343.5,742.5 Z"/></g>
<g><path style="opacity:0.004" fill="#89e0dd" d="M 677.5,743.5 C 678.833,744.167 678.833,744.167 677.5,743.5 Z"/></g>
<g><path style="opacity:0.004" fill="#8adfdd" d="M 677.5,746.5 C 678.833,747.167 678.833,747.167 677.5,746.5 Z"/></g>
<g><path style="opacity:0.008" fill="#89dede" d="M 343.5,746.5 C 344.525,746.897 344.692,747.563 344,748.5C 343.536,747.906 343.369,747.239 343.5,746.5 Z"/></g>
<g><path style="opacity:0.008" fill="#89dddd" d="M 343.5,750.5 C 344.833,751.167 344.833,751.167 343.5,750.5 Z"/></g>
<g><path style="opacity:0.004" fill="#88e0dd" d="M 677.5,750.5 C 678.525,750.897 678.692,751.563 678,752.5C 677.536,751.906 677.369,751.239 677.5,750.5 Z"/></g>
<g><path style="opacity:0.431" fill="#89e1e0" d="M 676.5,726.5 C 676.5,742.167 676.5,757.833 676.5,773.5C 675.833,768.833 675.167,764.167 674.5,759.5C 674.825,751.648 674.492,743.982 673.5,736.5C 674.989,733.296 675.989,729.963 676.5,726.5 Z"/></g>
<g><path style="opacity:0.004" fill="#86dfdc" d="M 677.5,753.5 C 678.833,754.167 678.833,754.167 677.5,753.5 Z"/></g>
<g><path style="opacity:0.005" fill="#88dbdc" d="M 677.5,766.5 C 678.573,767.251 678.74,768.251 678,769.5C 677.517,768.552 677.351,767.552 677.5,766.5 Z"/></g>
<g><path style="opacity:0.008" fill="#88dbdb" d="M 677.5,770.5 C 678.833,771.167 678.833,771.167 677.5,770.5 Z"/></g>
<g><path style="opacity:0.982" fill="#82dede" d="M 673.5,736.5 C 674.492,743.982 674.825,751.648 674.5,759.5C 674.5,771.167 674.5,782.833 674.5,794.5C 674.631,795.239 674.464,795.906 674,796.5C 673.837,794.324 673.004,792.491 671.5,791C 672.167,790.667 672.833,790.333 673.5,790C 671.109,788.691 671.109,787.691 673.5,787C 672.376,786.161 671.709,784.994 671.5,783.5C 671.877,780.255 671.877,777.088 671.5,774C 672.167,773.667 672.833,773.333 673.5,773C 672.359,772.259 672.359,771.425 673.5,770.5C 670.833,769.167 670.833,767.833 673.5,766.5C 672.755,763.209 672.755,759.542 673.5,755.5C 673.709,752.546 673.042,749.879 671.5,747.5C 672.025,746.808 672.692,746.308 673.5,746C 672.692,745.692 672.025,745.192 671.5,744.5C 673.957,742.375 673.624,740.541 670.5,739C 671.5,738.667 672.5,738.333 673.5,738C 672.262,737.31 672.262,736.81 673.5,736.5 Z"/></g>
<g><path style="opacity:0.016" fill="#87dbd9" d="M 677.5,774.5 C 678.833,775.167 678.833,775.167 677.5,774.5 Z"/></g>
<g><path style="opacity:0.004" fill="#88dddd" d="M 343.5,776.5 C 344.833,777.167 344.833,777.167 343.5,776.5 Z"/></g>
<g><path style="opacity:0.263" fill="#87dcdc" d="M 345.5,728.5 C 346.178,737.902 346.845,747.402 347.5,757C 346.305,772.22 346.305,787.72 347.5,803.5C 346.683,801.031 346.183,798.365 346,795.5C 345.5,773.169 345.333,750.836 345.5,728.5 Z"/></g>
<g><path style="opacity:0.012" fill="#8adddd" d="M 343.5,778.5 C 344.833,779.167 344.833,779.167 343.5,778.5 Z"/></g>
<g><path style="opacity:0.004" fill="#88dedc" d="M 677.5,778.5 C 678.833,779.167 678.833,779.167 677.5,778.5 Z"/></g>
<g><path style="opacity:0.004" fill="#89dddc" d="M 343.5,780.5 C 344.573,781.251 344.74,782.251 344,783.5C 343.517,782.552 343.351,781.552 343.5,780.5 Z"/></g>
<g><path style="opacity:0.008" fill="#86dcdc" d="M 677.5,782.5 C 678.833,783.167 678.833,783.167 677.5,782.5 Z"/></g>
<g><path style="opacity:0.004" fill="#8adedb" d="M 343.5,784.5 C 344.833,785.167 344.833,785.167 343.5,784.5 Z"/></g>
<g><path style="opacity:1" fill="#8ae6e6" d="M 674.5,759.5 C 675.167,764.167 675.833,768.833 676.5,773.5C 676.5,774.167 676.5,774.833 676.5,775.5C 675.51,781.645 675.177,787.978 675.5,794.5C 675.167,794.5 674.833,794.5 674.5,794.5C 674.5,782.833 674.5,771.167 674.5,759.5 Z"/></g>
<g><path style="opacity:0.498" fill="#87dddc" d="M 676.5,775.5 C 677.63,790.305 675.963,804.639 671.5,818.5C 671.872,815.383 671.872,812.383 671.5,809.5C 671.846,808.304 672.346,808.304 673,809.5C 673.167,808.833 673.333,808.167 673.5,807.5C 672.833,805.833 672.167,804.167 671.5,802.5C 672.855,798.608 673.689,798.941 674,803.5C 674.502,800.487 675.002,797.487 675.5,794.5C 675.177,787.978 675.51,781.645 676.5,775.5 Z"/></g>
<g><path style="opacity:0.004" fill="#88dada" d="M 677.5,790.5 C 678.833,791.167 678.833,791.167 677.5,790.5 Z"/></g>
<g><path style="opacity:0.004" fill="#85dada" d="M 345.5,805.5 C 346.833,806.167 346.833,806.167 345.5,805.5 Z"/></g>
<g><path style="opacity:0.004" fill="#85d8d9" d="M 345.5,807.5 C 346.833,808.167 346.833,808.167 345.5,807.5 Z"/></g>
<g><path style="opacity:0.004" fill="#87d8d6" d="M 351.5,825.5 C 352.833,826.167 352.833,826.167 351.5,825.5 Z"/></g>
<g><path style="opacity:0.008" fill="#87d7d3" d="M 668.5,829.5 C 669.833,830.167 669.833,830.167 668.5,829.5 Z"/></g>
<g><path style="opacity:0.004" fill="#86d7d7" d="M 363.5,844.5 C 362.833,845.167 362.833,845.167 363.5,844.5 Z"/></g>
<g><path style="opacity:0.016" fill="#83d7d4" d="M 658.5,845.5 C 659.833,846.167 659.833,846.167 658.5,845.5 Z"/></g>
<g><path style="opacity:0.004" fill="#86d6d5" d="M 365.5,846.5 C 364.833,847.167 364.833,847.167 365.5,846.5 Z"/></g>
<g><path style="opacity:0.945" fill="#8ae1e1" d="M 620.5,844.5 C 622.942,844.119 623.609,844.786 622.5,846.5C 617.871,847.565 613.705,849.565 610,852.5C 609.667,852.167 609.333,851.833 609,851.5C 608.044,852.579 607.211,853.745 606.5,855C 600.175,855.5 593.842,855.666 587.5,855.5C 599.163,854.057 610.163,850.39 620.5,844.5 Z"/></g>
<g><path style="opacity:0.02" fill="#87d7d7" d="M 383.5,866.5 C 384.833,867.167 384.833,867.167 383.5,866.5 Z"/></g>
<g><path style="opacity:0.024" fill="#84d7d6" d="M 385.5,866.5 C 386.833,867.167 386.833,867.167 385.5,866.5 Z"/></g>
<g><path style="opacity:0.004" fill="#87d8d7" d="M 615.5,877.5 C 616.833,878.167 616.833,878.167 615.5,877.5 Z"/></g>
<g><path style="opacity:0.186" fill="#89dede" d="M 591.5,881.5 C 538.5,882.833 485.5,882.833 432.5,881.5C 436.759,881.997 440.759,881.331 444.5,879.5C 444.489,880.441 444.989,881.108 446,881.5C 448.333,880.833 450.667,880.167 453,879.5C 454.059,879.63 454.892,880.13 455.5,881C 467.44,881.8 479.273,881.3 491,879.5C 493.627,880.916 496.46,881.583 499.5,881.5C 509.192,880.743 518.358,880.077 527,879.5C 530.28,880.246 533.614,880.913 537,881.5C 538.285,881.05 539.452,880.383 540.5,879.5C 542.863,880.677 545.363,881.343 548,881.5C 551.712,880.126 555.379,879.459 559,879.5C 561.724,880.776 564.724,881.442 568,881.5C 575.73,880.705 583.564,880.705 591.5,881.5 Z"/></g>
<g><path style="opacity:0.008" fill="#86d9d8" d="M 425.5,882.5 C 426.833,883.167 426.833,883.167 425.5,882.5 Z"/></g>
<g><path style="opacity:0.004" fill="#87dad8" d="M 451.5,883.5 C 452.833,884.167 452.833,884.167 451.5,883.5 Z"/></g>
<g><path style="opacity:0.004" fill="#86d8da" d="M 474.5,883.5 C 475.833,884.167 475.833,884.167 474.5,883.5 Z"/></g>
<g><path style="opacity:0.004" fill="#8adbda" d="M 513.5,883.5 C 514.833,884.167 514.833,884.167 513.5,883.5 Z"/></g>
<g><path style="opacity:0.008" fill="#8adad8" d="M 569.5,883.5 C 570.833,884.167 570.833,884.167 569.5,883.5 Z"/></g>
<g><path style="opacity:0.004" fill="#88dbd9" d="M 574.5,883.5 C 575.833,884.167 575.833,884.167 574.5,883.5 Z"/></g>
<g><path style="opacity:0.004" fill="#86d7d5" d="M 451.5,885.5 C 452.833,886.167 452.833,886.167 451.5,885.5 Z"/></g>
</svg>
