<?xml version="1.0" encoding="UTF-8"?>
<!DOCTYPE svg PUBLIC "-//W3C//DTD SVG 1.1//EN" "http://www.w3.org/Graphics/SVG/1.1/DTD/svg11.dtd">
<svg xmlns="http://www.w3.org/2000/svg" version="1.1" width="1024px" height="1024px" style="shape-rendering:geometricPrecision; text-rendering:geometricPrecision; image-rendering:optimizeQuality; fill-rule:evenodd; clip-rule:evenodd" xmlns:xlink="http://www.w3.org/1999/xlink">
<g><path style="opacity:0.004" fill="#509592" d="M 278.5,104.5 C 278.897,103.475 279.563,103.308 280.5,104C 279.906,104.464 279.239,104.631 278.5,104.5 Z"/></g>
<g><path style="opacity:0.008" fill="#519794" d="M 284.5,104.5 C 284.897,103.475 285.563,103.308 286.5,104C 285.906,104.464 285.239,104.631 284.5,104.5 Z"/></g>
<g><path style="opacity:0.004" fill="#509794" d="M 290.5,103.5 C 291.833,104.167 291.833,104.167 290.5,103.5 Z"/></g>
<g><path style="opacity:0.008" fill="#509593" d="M 292.5,104.5 C 292.897,103.475 293.563,103.308 294.5,104C 293.906,104.464 293.239,104.631 292.5,104.5 Z"/></g>
<g><path style="opacity:0.004" fill="#4f9490" d="M 506.5,104.5 C 507.833,105.167 507.833,105.167 506.5,104.5 Z"/></g>
<g><path style="opacity:0.024" fill="#4f9391" d="M 523.5,105.5 C 521.167,105.5 518.833,105.5 516.5,105.5C 517.997,104.694 519.664,104.028 521.5,103.5C 522.522,103.855 523.189,104.522 523.5,105.5 Z"/></g>
<g><path style="opacity:0.004" fill="#4f9694" d="M 531.5,104.5 C 532.833,105.167 532.833,105.167 531.5,104.5 Z"/></g>
<g><path style="opacity:0.149" fill="#366864" d="M 312.5,112.5 C 313.167,113.5 313.833,114.5 314.5,115.5C 303.795,108.629 292.128,105.296 279.5,105.5C 290.903,103.822 301.903,106.156 312.5,112.5 Z"/></g>
<g><path style="opacity:0.004" fill="#529792" d="M 504.5,105.5 C 505.833,106.167 505.833,106.167 504.5,105.5 Z"/></g>
<g><path style="opacity:0.016" fill="#539792" d="M 537.5,106.5 C 538.833,107.167 538.833,107.167 537.5,106.5 Z"/></g>
<g><path style="opacity:0.004" fill="#51928e" d="M 265.5,107.5 C 266.833,108.167 266.833,108.167 265.5,107.5 Z"/></g>
<g><path style="opacity:0.984" fill="#32615d" d="M 516.5,105.5 C 518.833,105.5 521.167,105.5 523.5,105.5C 526.237,105.401 528.904,105.735 531.5,106.5C 519.434,105.164 507.768,107.164 496.5,112.5C 502.233,107.81 508.9,105.476 516.5,105.5 Z"/></g>
<g><path style="opacity:0.998" fill="#4e9e9e" d="M 277.5,106.5 C 277.842,105.662 278.508,105.328 279.5,105.5C 292.128,105.296 303.795,108.629 314.5,115.5C 326.529,126.59 331.862,140.257 330.5,156.5C 330.672,157.492 330.338,158.158 329.5,158.5C 327.308,163.112 324.641,168.112 321.5,173.5C 321.5,174.167 321.167,174.5 320.5,174.5C 309.647,185.227 296.647,190.227 281.5,189.5C 280.508,189.672 279.842,189.338 279.5,188.5C 278.435,187.135 276.435,186.302 273.5,186C 271.288,185.211 269.288,185.378 267.5,186.5C 265.5,186.5 263.5,186.5 261.5,186.5C 262.952,185.698 264.618,185.198 266.5,185C 255.785,183.928 246.118,186.428 237.5,192.5C 235.063,192.886 233.063,194.053 231.5,196C 231.728,196.399 232.062,196.565 232.5,196.5C 232.158,197.338 231.492,197.672 230.5,197.5C 225.5,200.5 221.5,204.5 218.5,209.5C 214.99,212.358 212.657,216.024 211.5,220.5C 211.672,221.492 211.338,222.158 210.5,222.5C 206.742,227.63 204.409,233.463 203.5,240C 203.528,241.07 203.861,241.903 204.5,242.5C 204.672,243.492 204.338,244.158 203.5,244.5C 201.951,247.295 201.118,250.961 201,255.5C 200.182,267.538 200.348,276.872 201.5,283.5C 202.468,285.607 202.802,287.941 202.5,290.5C 201.845,309.485 203.345,328.485 207,347.5C 207.464,346.906 207.631,346.239 207.5,345.5C 208.404,346.209 208.737,347.209 208.5,348.5C 209.547,367.075 213.047,385.408 219,403.5C 219.399,403.272 219.565,402.938 219.5,402.5C 220.338,402.842 220.672,403.508 220.5,404.5C 219.402,405.601 219.235,406.934 220,408.5C 224.907,425.557 231.574,441.89 240,457.5C 243.03,462.916 246.53,467.916 250.5,472.5C 259.039,486.042 269.705,497.709 282.5,507.5C 283.167,507.5 283.5,507.833 283.5,508.5C 284.585,510.587 286.251,511.92 288.5,512.5C 290.304,515.098 292.638,517.265 295.5,519C 296.745,519.791 298.078,520.291 299.5,520.5C 300.659,522.25 302.326,523.25 304.5,523.5C 328.508,538.781 354.842,547.614 383.5,550C 411.561,553.02 438.894,550.02 465.5,541C 465.272,540.601 464.938,540.435 464.5,540.5C 464.842,539.662 465.508,539.328 466.5,539.5C 466.735,540.097 467.235,540.43 468,540.5C 518.208,521.627 554.208,487.627 576,438.5C 591.632,400.161 600.132,360.494 601.5,319.5C 602.39,310.014 603.39,300.681 604.5,291.5C 604.338,293.527 604.505,295.527 605,297.5C 607.539,276.715 606.872,256.048 603,235.5C 599.571,219.61 591.404,206.943 578.5,197.5C 567.734,187.311 555.067,183.311 540.5,185.5C 536.061,185.754 531.728,186.588 527.5,188C 514.299,189.865 502.299,187.032 491.5,179.5C 489.167,179.167 487.833,177.833 487.5,175.5C 472.601,153.529 474.601,133.196 493.5,114.5C 493.973,113.094 494.973,112.427 496.5,112.5C 507.768,107.164 519.434,105.164 531.5,106.5C 532.492,106.328 533.158,106.662 533.5,107.5C 536.023,109.433 539.357,111.099 543.5,112.5C 546.37,113.433 548.704,115.1 550.5,117.5C 552.628,120.13 554.961,122.63 557.5,125C 571.529,127.954 584.862,132.787 597.5,139.5C 601.976,143.575 606.976,146.908 612.5,149.5C 618.427,155.089 624.427,160.756 630.5,166.5C 631.419,169.089 633.086,171.089 635.5,172.5C 636.08,174.749 637.413,176.415 639.5,177.5C 644.834,186.835 649.667,196.501 654,206.5C 657.227,216.969 659.56,227.635 661,238.5C 661.483,237.552 661.649,236.552 661.5,235.5C 662.434,236.568 662.768,237.901 662.5,239.5C 661.167,258.833 661.167,278.167 662.5,297.5C 662.232,304.683 661.565,311.683 660.5,318.5C 660.657,317.127 660.49,315.793 660,314.5C 658.151,336.627 655.317,358.627 651.5,380.5C 651.52,381.726 651.853,382.726 652.5,383.5C 652.672,384.492 652.338,385.158 651.5,385.5C 650.047,388.715 648.881,392.715 648,397.5C 647.211,399.712 647.378,401.712 648.5,403.5C 648.672,404.492 648.338,405.158 647.5,405.5C 644.578,413.552 641.911,422.386 639.5,432C 639.57,432.765 639.903,433.265 640.5,433.5C 640.672,434.492 640.338,435.158 639.5,435.5C 639.565,435.062 639.399,434.728 639,434.5C 634.784,446.32 630.284,457.987 625.5,469.5C 625.672,470.492 625.338,471.158 624.5,471.5C 621.073,476.016 618.407,481.016 616.5,486.5C 613.084,490.323 610.418,494.657 608.5,499.5C 605.395,502.275 603.062,505.608 601.5,509.5C 599.984,512.533 597.984,515.2 595.5,517.5C 593.086,518.911 591.419,520.911 590.5,523.5C 587.757,525.239 585.757,527.573 584.5,530.5C 584.5,531.167 584.167,531.5 583.5,531.5C 578.5,535.833 573.833,540.5 569.5,545.5C 569.5,546.167 569.167,546.5 568.5,546.5C 565.236,548.094 562.569,550.427 560.5,553.5C 554.208,557.791 548.208,562.458 542.5,567.5C 538.148,569.673 534.148,572.34 530.5,575.5C 508.308,587.522 485.641,596.856 462.5,603.5C 462.158,604.338 461.492,604.672 460.5,604.5C 459.903,603.861 459.07,603.528 458,603.5C 449.823,604.882 441.656,606.215 433.5,607.5C 432.682,610.107 432.182,612.774 432,615.5C 431.631,629.842 431.131,644.176 430.5,658.5C 430.5,670.833 430.5,683.167 430.5,695.5C 430.241,724.794 436.741,752.461 450,778.5C 453.45,785.09 457.616,791.09 462.5,796.5C 463.08,798.749 464.413,800.415 466.5,801.5C 467.419,804.089 469.086,806.089 471.5,807.5C 475.167,813.167 479.833,817.833 485.5,821.5C 504.12,839.154 526.12,851.154 551.5,857.5C 552.416,857.457 553.083,857.124 553.5,856.5C 554.492,856.328 555.158,856.662 555.5,857.5C 556.027,858.709 557.527,859.375 560,859.5C 561.07,859.472 561.903,859.139 562.5,858.5C 563.791,858.263 564.791,858.596 565.5,859.5C 564.761,859.369 564.094,859.536 563.5,860C 581.722,863.601 600.055,864.268 618.5,862C 622.031,861.667 624.697,860.833 626.5,859.5C 627.209,858.596 628.209,858.263 629.5,858.5C 630.097,859.139 630.93,859.472 632,859.5C 671.143,851.198 702.643,831.198 726.5,799.5C 745.981,775.083 756.648,747.083 758.5,715.5C 758.5,701.833 758.5,688.167 758.5,674.5C 748.082,671.295 738.082,666.961 728.5,661.5C 721.455,655.448 714.455,649.448 707.5,643.5C 706.527,640.865 704.86,638.865 702.5,637.5C 694.281,624.423 687.948,611.09 683.5,597.5C 682.662,597.158 682.328,596.492 682.5,595.5C 683.147,594.726 683.48,593.726 683.5,592.5C 683,589.5 682.5,586.5 682,583.5C 681.517,584.448 681.351,585.448 681.5,586.5C 680.549,585.081 680.216,583.415 680.5,581.5C 680.832,564.889 683.499,548.556 688.5,532.5C 694.036,521.971 700.369,511.971 707.5,502.5C 711.167,499.5 714.5,496.167 717.5,492.5C 734.159,478.99 752.492,470.323 772.5,466.5C 773.209,465.596 774.209,465.263 775.5,465.5C 798.334,465.033 820.001,470.033 840.5,480.5C 850.39,487.381 859.724,495.048 868.5,503.5C 872.122,509.122 876.122,514.455 880.5,519.5C 886.091,530.607 890.091,542.274 892.5,554.5C 893.633,574.108 891.3,593.441 885.5,612.5C 884.572,616.362 883.072,620.029 881,623.5C 877.893,628.056 875.06,632.723 872.5,637.5C 870.086,638.911 868.419,640.911 867.5,643.5C 865.833,645.833 863.833,647.833 861.5,649.5C 856.462,652.687 851.795,656.353 847.5,660.5C 845.973,660.427 844.973,661.094 844.5,662.5C 844.158,663.338 843.492,663.672 842.5,663.5C 834.494,667.67 826.161,671.004 817.5,673.5C 816.833,673.5 816.5,673.833 816.5,674.5C 815.669,688.994 815.169,703.661 815,718.5C 814.254,727.223 813.087,735.889 811.5,744.5C 811.52,745.726 811.853,746.726 812.5,747.5C 812.672,748.492 812.338,749.158 811.5,749.5C 806.211,767.647 799.544,785.98 791.5,804.5C 788.665,808.164 786.332,812.164 784.5,816.5C 781.34,820.148 778.673,824.148 776.5,828.5C 774.984,831.533 772.984,834.2 770.5,836.5C 768.413,837.585 767.08,839.251 766.5,841.5C 763.427,843.569 761.094,846.236 759.5,849.5C 755.728,855.027 751.061,859.694 745.5,863.5C 742.573,864.757 740.239,866.757 738.5,869.5C 736.251,870.08 734.585,871.413 733.5,873.5C 732.415,875.587 730.749,876.92 728.5,877.5C 720.558,882.114 712.892,887.114 705.5,892.5C 667.579,913.354 626.913,923.02 583.5,921.5C 575.464,920.668 567.297,919.668 559,918.5C 557.615,918.514 556.449,918.848 555.5,919.5C 554.508,919.672 553.842,919.338 553.5,918.5C 546.41,916.051 538.576,913.718 530,911.5C 529.235,911.57 528.735,911.903 528.5,912.5C 527.833,912.5 527.5,912.167 527.5,911.5C 502.384,901.945 479.05,889.278 457.5,873.5C 453.466,869.464 449.132,865.798 444.5,862.5C 440.833,858.167 436.833,854.167 432.5,850.5C 430.856,850.19 429.856,849.19 429.5,847.5C 428.243,844.573 426.243,842.239 423.5,840.5C 419.543,834.543 415.21,828.877 410.5,823.5C 408.251,817.995 405.251,812.995 401.5,808.5C 396.754,798.671 392.254,788.671 388,778.5C 384.711,767.831 381.544,757.831 378.5,748.5C 378.167,748.5 377.833,748.5 377.5,748.5C 377.599,745.763 377.265,743.096 376.5,740.5C 377.652,736.946 377.485,733.28 376,729.5C 375.536,730.094 375.369,730.761 375.5,731.5C 373.918,723.376 372.918,715.042 372.5,706.5C 373.497,689.341 373.83,672.008 373.5,654.5C 373.832,638.422 373.499,623.088 372.5,608.5C 371.209,608.737 370.209,608.404 369.5,607.5C 328.912,601.677 290.912,586.344 255.5,561.5C 254.738,559.738 253.404,558.738 251.5,558.5C 250.415,556.413 248.749,555.08 246.5,554.5C 240.85,548.364 234.85,542.697 228.5,537.5C 225.899,533.229 222.566,529.563 218.5,526.5C 217.581,523.911 215.914,521.911 213.5,520.5C 211.738,519.738 210.738,518.404 210.5,516.5C 205.078,507.985 199.411,499.652 193.5,491.5C 177.233,461.204 165.399,429.204 158,395.5C 157.536,396.094 157.369,396.761 157.5,397.5C 157.167,397.5 156.833,397.5 156.5,397.5C 156.5,396.5 156.5,395.5 156.5,394.5C 157.139,393.903 157.472,393.07 157.5,392C 156.588,388.184 155.754,384.351 155,380.5C 154.536,381.094 154.369,381.761 154.5,382.5C 153.596,381.791 153.263,380.791 153.5,379.5C 154.124,379.083 154.457,378.416 154.5,377.5C 152.6,363.708 150.266,350.708 147.5,338.5C 147.167,338.5 146.833,338.5 146.5,338.5C 146.5,337.5 146.5,336.5 146.5,335.5C 147.577,328.974 147.411,322.307 146,315.5C 145.517,316.448 145.351,317.448 145.5,318.5C 144.566,317.432 144.232,316.099 144.5,314.5C 145.164,312.19 145.497,309.69 145.5,307C 145.078,297.66 144.412,288.493 143.5,279.5C 139.566,238.541 149.899,201.874 174.5,169.5C 195.224,146.132 220.89,130.965 251.5,124C 253.833,120.333 256.833,117.333 260.5,115C 266.478,111.343 272.144,108.509 277.5,106.5 Z M 784.5,522.5 C 788.452,523.272 792.452,523.605 796.5,523.5C 796.842,524.338 797.508,524.672 798.5,524.5C 805.033,526.102 811.033,528.769 816.5,532.5C 819.167,535.5 821.833,538.5 824.5,541.5C 823.167,541.833 823.167,542.167 824.5,542.5C 824.328,543.492 824.662,544.158 825.5,544.5C 825.833,545.833 826.167,545.833 826.5,544.5C 827.338,544.842 827.672,545.508 827.5,546.5C 831.146,550.797 833.48,555.797 834.5,561.5C 834.263,562.791 834.596,563.791 835.5,564.5C 835.666,569.511 835.499,574.511 835,579.5C 834.721,582.457 833.887,585.123 832.5,587.5C 832.657,588.873 832.49,590.207 832,591.5C 829.311,596.333 826.478,601 823.5,605.5C 822.5,605.833 821.833,606.5 821.5,607.5C 807.284,619.804 790.95,623.804 772.5,619.5C 772.158,618.662 771.492,618.328 770.5,618.5C 765.628,616.571 761.295,613.905 757.5,610.5C 756.395,609.4 755.062,608.733 753.5,608.5C 752.243,605.573 750.243,603.239 747.5,601.5C 747.573,599.973 746.906,598.973 745.5,598.5C 735.091,576.369 737.424,555.702 752.5,536.5C 754.062,536.267 755.395,535.6 756.5,534.5C 757.167,533.5 757.833,532.5 758.5,531.5C 764.938,527.451 771.938,524.784 779.5,523.5C 781.415,523.784 783.081,523.451 784.5,522.5 Z"/></g>
<g><path style="opacity:0.004" fill="#509590" d="M 264.5,110.5 C 263.833,109.167 263.833,109.167 264.5,110.5 Z"/></g>
<g><path style="opacity:0.969" fill="#32635f" d="M 533.5,107.5 C 537.42,108.127 540.753,109.793 543.5,112.5C 539.357,111.099 536.023,109.433 533.5,107.5 Z"/></g>
<g><path style="opacity:0.008" fill="#4f938d" d="M 312.5,111.5 C 313.833,112.167 313.833,112.167 312.5,111.5 Z"/></g>
<g><path style="opacity:0.004" fill="#4e918c" d="M 318.5,116.5 C 319.833,117.167 319.833,117.167 318.5,116.5 Z"/></g>
<g><path style="opacity:0.004" fill="#509792" d="M 322.5,119.5 C 323.833,120.167 323.833,120.167 322.5,119.5 Z"/></g>
<g><path style="opacity:0.004" fill="#4e9596" d="M 558.5,121.5 C 557.475,121.103 557.308,120.437 558,119.5C 558.464,120.094 558.631,120.761 558.5,121.5 Z"/></g>
<g><path style="opacity:0.008" fill="#509595" d="M 246.5,121.5 C 247.833,122.167 247.833,122.167 246.5,121.5 Z"/></g>
<g><path style="opacity:0.004" fill="#539c98" d="M 558.5,121.5 C 559.833,122.167 559.833,122.167 558.5,121.5 Z"/></g>
<g><path style="opacity:0.004" fill="#4e9491" d="M 566.5,123.5 C 567.833,124.167 567.833,124.167 566.5,123.5 Z"/></g>
<g><path style="opacity:0.004" fill="#4e948f" d="M 480.5,127.5 C 479.833,126.167 479.833,126.167 480.5,127.5 Z"/></g>
<g><path style="opacity:1" fill="#326561" d="M 314.5,115.5 C 316.062,115.733 317.395,116.4 318.5,117.5C 328.937,128.479 332.937,141.479 330.5,156.5C 331.862,140.257 326.529,126.59 314.5,115.5 Z"/></g>
<g><path style="opacity:0.008" fill="#4e9390" d="M 578.5,127.5 C 579.833,128.167 579.833,128.167 578.5,127.5 Z"/></g>
<g><path style="opacity:0.976" fill="#326461" d="M 550.5,117.5 C 553.225,118.713 555.559,120.546 557.5,123C 571.957,126.071 585.29,131.571 597.5,139.5C 584.862,132.787 571.529,127.954 557.5,125C 554.961,122.63 552.628,120.13 550.5,117.5 Z"/></g>
<g><path style="opacity:0.69" fill="#346865" d="M 597.5,139.5 C 603.369,141.596 608.369,144.929 612.5,149.5C 606.976,146.908 601.976,143.575 597.5,139.5 Z"/></g>
<g><path style="opacity:0.967" fill="#31605b" d="M 493.5,114.5 C 474.601,133.196 472.601,153.529 487.5,175.5C 486.448,175.649 485.448,175.483 484.5,175C 485.566,173.841 485.233,173.008 483.5,172.5C 481.481,168.461 479.481,164.461 477.5,160.5C 474.838,149.142 475.838,138.142 480.5,127.5C 482.223,125.747 483.723,123.747 485,121.5C 487.436,118.553 490.269,116.22 493.5,114.5 Z"/></g>
<g><path style="opacity:0.494" fill="#336662" d="M 612.5,149.5 C 617.53,152.684 622.196,156.351 626.5,160.5C 628.252,162.246 629.585,164.246 630.5,166.5C 624.427,160.756 618.427,155.089 612.5,149.5 Z"/></g>
<g><path style="opacity:0.004" fill="#4e918d" d="M 183.5,152.5 C 184.525,152.897 184.692,153.563 184,154.5C 183.536,153.906 183.369,153.239 183.5,152.5 Z"/></g>
<g><path style="opacity:0.004" fill="#4f928f" d="M 474.5,153.5 C 475.833,154.167 475.833,154.167 474.5,153.5 Z"/></g>
<g><path style="opacity:0.004" fill="#4f9592" d="M 331.5,155.5 C 332.525,155.897 332.692,156.563 332,157.5C 331.536,156.906 331.369,156.239 331.5,155.5 Z"/></g>
<g><path style="opacity:0.008" fill="#519490" d="M 475.5,157.5 C 476.525,157.897 476.692,158.563 476,159.5C 475.536,158.906 475.369,158.239 475.5,157.5 Z"/></g>
<g><path style="opacity:0.004" fill="#4d9692" d="M 626.5,159.5 C 627.833,160.167 627.833,160.167 626.5,159.5 Z"/></g>
<g><path style="opacity:0.059" fill="#33635f" d="M 329.5,158.5 C 328.645,164.547 325.979,169.547 321.5,173.5C 324.641,168.112 327.308,163.112 329.5,158.5 Z"/></g>
<g><path style="opacity:0.004" fill="#519591" d="M 477.5,160.5 C 476.833,161.167 476.833,161.167 477.5,160.5 Z"/></g>
<g><path style="opacity:1" fill="#336561" d="M 277.5,106.5 C 272.144,108.509 266.478,111.343 260.5,115C 256.833,117.333 253.833,120.333 251.5,124C 220.89,130.965 195.224,146.132 174.5,169.5C 194.285,145.255 219.618,129.588 250.5,122.5C 254.826,118.019 259.492,114.019 264.5,110.5C 268.576,108.364 272.91,107.03 277.5,106.5 Z"/></g>
<g><path style="opacity:0.004" fill="#51918e" d="M 329.5,162.5 C 330.833,163.167 330.833,163.167 329.5,162.5 Z"/></g>
<g><path style="opacity:0.665" fill="#346863" d="M 630.5,166.5 C 633.107,167.712 634.774,169.712 635.5,172.5C 633.086,171.089 631.419,169.089 630.5,166.5 Z"/></g>
<g><path style="opacity:0.004" fill="#509793" d="M 483.5,172.5 C 482.833,173.167 482.833,173.167 483.5,172.5 Z"/></g>
<g><path style="opacity:0.996" fill="#305f5d" d="M 635.5,172.5 C 637.587,173.585 638.92,175.251 639.5,177.5C 637.413,176.415 636.08,174.749 635.5,172.5 Z"/></g>
<g><path style="opacity:0.004" fill="#4e918e" d="M 640.5,175.5 C 641.833,176.167 641.833,176.167 640.5,175.5 Z"/></g>
<g><path style="opacity:1" fill="#2e5d58" d="M 174.5,169.5 C 149.899,201.874 139.566,238.541 143.5,279.5C 143.167,279.5 142.833,279.5 142.5,279.5C 138.29,242.349 146.457,208.349 167,177.5C 169,174.334 171.5,171.668 174.5,169.5 Z"/></g>
<g><path style="opacity:0.467" fill="#356864" d="M 320.5,174.5 C 319.797,176.716 318.464,178.549 316.5,180C 306.163,188.169 294.496,191.336 281.5,189.5C 296.647,190.227 309.647,185.227 320.5,174.5 Z"/></g>
<g><path style="opacity:0.02" fill="#4d9290" d="M 645.5,183.5 C 646.833,184.167 646.833,184.167 645.5,183.5 Z"/></g>
<g><path style="opacity:0.992" fill="#39706d" d="M 540.5,185.5 C 555.067,183.311 567.734,187.311 578.5,197.5C 576.833,196.833 575.167,196.167 573.5,195.5C 564.12,188.492 553.454,185.492 541.5,186.5C 541.5,185.833 541.167,185.5 540.5,185.5 Z"/></g>
<g><path style="opacity:0.475" fill="#366a66" d="M 261.5,186.5 C 253.029,186.658 245.029,188.658 237.5,192.5C 246.118,186.428 255.785,183.928 266.5,185C 264.618,185.198 262.952,185.698 261.5,186.5 Z"/></g>
<g><path style="opacity:0.427" fill="#32635d" d="M 267.5,186.5 C 269.288,185.378 271.288,185.211 273.5,186C 276.435,186.302 278.435,187.135 279.5,188.5C 275.443,188.152 271.443,187.486 267.5,186.5 Z"/></g>
<g><path style="opacity:0.008" fill="#539a97" d="M 540.5,187.5 C 541.833,188.167 541.833,188.167 540.5,187.5 Z"/></g>
<g><path style="opacity:1" fill="#33625d" d="M 491.5,179.5 C 502.299,187.032 514.299,189.865 527.5,188C 531.728,186.588 536.061,185.754 540.5,185.5C 541.167,185.5 541.5,185.833 541.5,186.5C 535.443,187.352 529.443,188.519 523.5,190C 511.193,191.098 500.526,187.598 491.5,179.5 Z"/></g>
<g><path style="opacity:0.004" fill="#549997" d="M 274.5,190.5 C 274.897,189.475 275.563,189.308 276.5,190C 275.906,190.464 275.239,190.631 274.5,190.5 Z"/></g>
<g><path style="opacity:0.008" fill="#529794" d="M 293.5,190.5 C 294.833,191.167 294.833,191.167 293.5,190.5 Z"/></g>
<g><path style="opacity:0.443" fill="#305f5a" d="M 237.5,192.5 C 236.055,194.063 234.389,195.396 232.5,196.5C 232.062,196.565 231.728,196.399 231.5,196C 233.063,194.053 235.063,192.886 237.5,192.5 Z"/></g>
<g><path style="opacity:0.004" fill="#529895" d="M 573.5,195.5 C 572.833,196.167 572.833,196.167 573.5,195.5 Z"/></g>
<g><path style="opacity:0.008" fill="#4f918d" d="M 153.5,196.5 C 154.833,197.167 154.833,197.167 153.5,196.5 Z"/></g>
<g><path style="opacity:0.004" fill="#539c98" d="M 230.5,198.5 C 231.833,199.167 231.833,199.167 230.5,198.5 Z"/></g>
<g><path style="opacity:0.01" fill="#4e9490" d="M 653.5,200.5 C 653.369,199.761 653.536,199.094 654,198.5C 654.692,199.437 654.525,200.103 653.5,200.5 Z"/></g>
<g><path style="opacity:0.004" fill="#56a3a3" d="M 584.5,204.5 C 583.833,205.167 583.833,205.167 584.5,204.5 Z"/></g>
<g><path style="opacity:0.008" fill="#509894" d="M 222.5,206.5 C 223.833,207.167 223.833,207.167 222.5,206.5 Z"/></g>
<g><path style="opacity:0.608" fill="#32635f" d="M 639.5,177.5 C 641.5,179.833 643.5,182.167 645.5,184.5C 647.99,190 650.656,195.333 653.5,200.5C 657.816,211.784 660.483,223.451 661.5,235.5C 661.649,236.552 661.483,237.552 661,238.5C 659.56,227.635 657.227,216.969 654,206.5C 649.667,196.501 644.834,186.835 639.5,177.5 Z"/></g>
<g><path style="opacity:0.388" fill="#346764" d="M 230.5,197.5 C 230.5,197.833 230.5,198.167 230.5,198.5C 227.5,200.833 224.833,203.5 222.5,206.5C 221.167,207.5 219.833,208.5 218.5,209.5C 221.5,204.5 225.5,200.5 230.5,197.5 Z"/></g>
<g><path style="opacity:0.012" fill="#529390" d="M 148.5,208.5 C 149.833,209.167 149.833,209.167 148.5,208.5 Z"/></g>
<g><path style="opacity:0.439" fill="#316361" d="M 218.5,209.5 C 216.554,213.439 214.221,217.106 211.5,220.5C 212.657,216.024 214.99,212.358 218.5,209.5 Z"/></g>
<g><path style="opacity:0.004" fill="#539797" d="M 591.5,217.5 C 592.833,218.167 592.833,218.167 591.5,217.5 Z"/></g>
<g><path style="opacity:0.008" fill="#529a94" d="M 594.5,218.5 C 593.833,219.167 593.833,219.167 594.5,218.5 Z"/></g>
<g><path style="opacity:0.004" fill="#529796" d="M 595.5,220.5 C 595.631,221.239 595.464,221.906 595,222.5C 594.308,221.563 594.475,220.897 595.5,220.5 Z"/></g>
<g><path style="opacity:0.004" fill="#539897" d="M 591.5,222.5 C 592.833,223.167 592.833,223.167 591.5,222.5 Z"/></g>
<g><path style="opacity:0.004" fill="#519492" d="M 661.5,222.5 C 662.833,223.167 662.833,223.167 661.5,222.5 Z"/></g>
<g><path style="opacity:0.588" fill="#326460" d="M 210.5,222.5 C 208.023,228.265 206.357,234.265 205.5,240.5C 204.662,240.842 204.328,241.508 204.5,242.5C 203.861,241.903 203.528,241.07 203.5,240C 204.409,233.463 206.742,227.63 210.5,222.5 Z"/></g>
<g><path style="opacity:0.004" fill="#519b97" d="M 600.5,239.5 C 601.833,240.167 601.833,240.167 600.5,239.5 Z"/></g>
<g><path style="opacity:0.012" fill="#4e9896" d="M 205.5,240.5 C 206.833,241.167 206.833,241.167 205.5,240.5 Z"/></g>
<g><path style="opacity:0.345" fill="#356762" d="M 578.5,197.5 C 591.404,206.943 599.571,219.61 603,235.5C 606.872,256.048 607.539,276.715 605,297.5C 604.505,295.527 604.338,293.527 604.5,291.5C 604.667,277.829 604.5,264.163 604,250.5C 603.814,247.964 603.314,245.631 602.5,243.5C 601.947,235.182 599.614,227.516 595.5,220.5C 595.672,219.508 595.338,218.842 594.5,218.5C 592.323,212.993 588.99,208.326 584.5,204.5C 582.5,202.167 580.5,199.833 578.5,197.5 Z"/></g>
<g><path style="opacity:0.008" fill="#529a98" d="M 602.5,243.5 C 602.657,244.873 602.49,246.207 602,247.5C 601.235,245.934 601.402,244.601 602.5,243.5 Z"/></g>
<g><path style="opacity:0.012" fill="#539997" d="M 204.5,246.5 C 205.833,247.167 205.833,247.167 204.5,246.5 Z"/></g>
<g><path style="opacity:0.02" fill="#2e5d57" d="M 203.5,244.5 C 201.919,257.445 201.252,270.445 201.5,283.5C 200.348,276.872 200.182,267.538 201,255.5C 201.118,250.961 201.951,247.295 203.5,244.5 Z"/></g>
<g><path style="opacity:0.006" fill="#559c99" d="M 203.5,253.5 C 204.525,253.897 204.692,254.563 204,255.5C 203.536,254.906 203.369,254.239 203.5,253.5 Z"/></g>
<g><path style="opacity:0.008" fill="#549794" d="M 140.5,254.5 C 141.833,255.167 141.833,255.167 140.5,254.5 Z"/></g>
<g><path style="opacity:0.004" fill="#519792" d="M 602.5,264.5 C 603.833,265.167 603.833,265.167 602.5,264.5 Z"/></g>
<g><path style="opacity:0.427" fill="#36706d" d="M 662.5,239.5 C 663.819,258.831 663.819,278.165 662.5,297.5C 661.167,278.167 661.167,258.833 662.5,239.5 Z"/></g>
<g><path style="opacity:0.004" fill="#519593" d="M 602.5,277.5 C 603.833,278.167 603.833,278.167 602.5,277.5 Z"/></g>
<g><path style="opacity:0.004" fill="#50928e" d="M 140.5,280.5 C 141.833,281.167 141.833,281.167 140.5,280.5 Z"/></g>
<g><path style="opacity:0.161" fill="#386c69" d="M 142.5,279.5 C 142.833,279.5 143.167,279.5 143.5,279.5C 144.412,288.493 145.078,297.66 145.5,307C 145.497,309.69 145.164,312.19 144.5,314.5C 143.626,302.847 142.959,291.181 142.5,279.5 Z"/></g>
<g><path style="opacity:0.006" fill="#509695" d="M 203.5,289.5 C 204.525,289.897 204.692,290.563 204,291.5C 203.536,290.906 203.369,290.239 203.5,289.5 Z"/></g>
<g><path style="opacity:0.004" fill="#529895" d="M 601.5,296.5 C 602.833,297.167 602.833,297.167 601.5,296.5 Z"/></g>
<g><path style="opacity:0.004" fill="#559b96" d="M 601.5,300.5 C 602.833,301.167 602.833,301.167 601.5,300.5 Z"/></g>
<g><path style="opacity:0.004" fill="#4f928e" d="M 662.5,312.5 C 663.833,313.167 663.833,313.167 662.5,312.5 Z"/></g>
<g><path style="opacity:0.004" fill="#4f938e" d="M 662.5,314.5 C 663.833,315.167 663.833,315.167 662.5,314.5 Z"/></g>
<g><path style="opacity:0.004" fill="#519895" d="M 205.5,315.5 C 206.833,316.167 206.833,316.167 205.5,315.5 Z"/></g>
<g><path style="opacity:0.004" fill="#529896" d="M 599.5,318.5 C 600.833,319.167 600.833,319.167 599.5,318.5 Z"/></g>
<g><path style="opacity:0.263" fill="#33635f" d="M 146.5,335.5 C 146.362,330.225 145.695,325.059 144.5,320C 145.056,319.617 145.389,319.117 145.5,318.5C 145.351,317.448 145.517,316.448 146,315.5C 147.411,322.307 147.577,328.974 146.5,335.5 Z"/></g>
<g><path style="opacity:0.004" fill="#509592" d="M 661.5,327.5 C 662.833,328.167 662.833,328.167 661.5,327.5 Z"/></g>
<g><path style="opacity:0.004" fill="#519693" d="M 144.5,332.5 C 145.598,333.601 145.765,334.934 145,336.5C 144.51,335.207 144.343,333.873 144.5,332.5 Z"/></g>
<g><path style="opacity:1" fill="#356a67" d="M 202.5,290.5 C 203.572,308.889 205.239,327.223 207.5,345.5C 207.631,346.239 207.464,346.906 207,347.5C 203.345,328.485 201.845,309.485 202.5,290.5 Z"/></g>
<g><path style="opacity:0.012" fill="#519692" d="M 660.5,334.5 C 661.833,335.167 661.833,335.167 660.5,334.5 Z"/></g>
<g><path style="opacity:0.004" fill="#529693" d="M 146.5,338.5 C 146.662,340.527 146.495,342.527 146,344.5C 145.211,342.288 145.378,340.288 146.5,338.5 Z"/></g>
<g><path style="opacity:0.004" fill="#519895" d="M 659.5,342.5 C 660.833,343.167 660.833,343.167 659.5,342.5 Z"/></g>
<g><path style="opacity:0.063" fill="#336460" d="M 153.5,379.5 C 152.402,373.002 151.068,366.668 149.5,360.5C 148.739,353.176 148.073,345.842 147.5,338.5C 150.266,350.708 152.6,363.708 154.5,377.5C 154.457,378.416 154.124,379.083 153.5,379.5 Z"/></g>
<g><path style="opacity:0.004" fill="#539792" d="M 596.5,344.5 C 597.833,345.167 597.833,345.167 596.5,344.5 Z"/></g>
<g><path style="opacity:0.004" fill="#509491" d="M 659.5,346.5 C 660.833,347.167 660.833,347.167 659.5,346.5 Z"/></g>
<g><path style="opacity:0.007" fill="#509491" d="M 146.5,347.5 C 147.613,348.946 147.78,350.613 147,352.5C 146.506,350.866 146.34,349.199 146.5,347.5 Z"/></g>
<g><path style="opacity:0.004" fill="#4f9593" d="M 595.5,350.5 C 596.833,351.167 596.833,351.167 595.5,350.5 Z"/></g>
<g><path style="opacity:1" fill="#326460" d="M 601.5,319.5 C 600.132,360.494 591.632,400.161 576,438.5C 554.208,487.627 518.208,521.627 468,540.5C 467.235,540.43 466.735,540.097 466.5,539.5C 487.359,532.412 506.025,521.745 522.5,507.5C 523.5,507.167 524.167,506.5 524.5,505.5C 535.198,496.768 544.531,486.768 552.5,475.5C 554.218,473.777 555.551,471.777 556.5,469.5C 559.579,466.35 561.913,462.683 563.5,458.5C 574.447,440.187 582.614,420.187 588,398.5C 594.592,372.522 599.092,346.188 601.5,319.5 Z"/></g>
<g><path style="opacity:0.004" fill="#529591" d="M 658.5,350.5 C 659.833,351.167 659.833,351.167 658.5,350.5 Z"/></g>
<g><path style="opacity:0.278" fill="#31635f" d="M 208.5,348.5 C 211.217,366.702 214.884,384.702 219.5,402.5C 219.565,402.938 219.399,403.272 219,403.5C 213.047,385.408 209.547,367.075 208.5,348.5 Z"/></g>
<g><path style="opacity:0.376" fill="#336560" d="M 660.5,318.5 C 659.228,340.345 656.561,362.012 652.5,383.5C 651.853,382.726 651.52,381.726 651.5,380.5C 655.317,358.627 658.151,336.627 660,314.5C 660.49,315.793 660.657,317.127 660.5,318.5 Z"/></g>
<g><path style="opacity:0.004" fill="#549994" d="M 149.5,360.5 C 148.833,361.167 148.833,361.167 149.5,360.5 Z"/></g>
<g><path style="opacity:0.004" fill="#519794" d="M 212.5,364.5 C 213.833,365.167 213.833,365.167 212.5,364.5 Z"/></g>
<g><path style="opacity:0.004" fill="#539894" d="M 151.5,378.5 C 152.833,379.167 152.833,379.167 151.5,378.5 Z"/></g>
<g><path style="opacity:0.004" fill="#4f9493" d="M 653.5,382.5 C 654.833,383.167 654.833,383.167 653.5,382.5 Z"/></g>
<g><path style="opacity:0.976" fill="#29524d" d="M 156.5,394.5 C 155.514,390.557 154.848,386.557 154.5,382.5C 154.369,381.761 154.536,381.094 155,380.5C 155.754,384.351 156.588,388.184 157.5,392C 157.472,393.07 157.139,393.903 156.5,394.5 Z"/></g>
<g><path style="opacity:0.004" fill="#519893" d="M 153.5,389.5 C 154.833,390.167 154.833,390.167 153.5,389.5 Z"/></g>
<g><path style="opacity:0.004" fill="#4f918f" d="M 151.5,391.5 C 152.525,391.897 152.692,392.563 152,393.5C 151.536,392.906 151.369,392.239 151.5,391.5 Z"/></g>
<g><path style="opacity:0.004" fill="#4f9290" d="M 154.5,395.5 C 155.833,396.167 155.833,396.167 154.5,395.5 Z"/></g>
<g><path style="opacity:0.933" fill="#32605b" d="M 651.5,385.5 C 650.931,391.578 649.931,397.578 648.5,403.5C 647.378,401.712 647.211,399.712 648,397.5C 648.881,392.715 650.047,388.715 651.5,385.5 Z"/></g>
<g><path style="opacity:0.012" fill="#4f9292" d="M 156.5,397.5 C 156.631,398.239 156.464,398.906 156,399.5C 155.308,398.563 155.475,397.897 156.5,397.5 Z"/></g>
<g><path style="opacity:0.01" fill="#509693" d="M 220.5,399.5 C 221.525,399.897 221.692,400.563 221,401.5C 220.536,400.906 220.369,400.239 220.5,399.5 Z"/></g>
<g><path style="opacity:0.69" fill="#30625e" d="M 220.5,404.5 C 223.265,414.136 226.599,423.469 230.5,432.5C 231.932,437.478 233.932,442.144 236.5,446.5C 240.658,455.485 245.325,464.152 250.5,472.5C 246.53,467.916 243.03,462.916 240,457.5C 231.574,441.89 224.907,425.557 220,408.5C 219.235,406.934 219.402,405.601 220.5,404.5 Z"/></g>
<g><path style="opacity:0.424" fill="#356762" d="M 647.5,405.5 C 645.793,414.995 643.46,424.329 640.5,433.5C 639.903,433.265 639.57,432.765 639.5,432C 641.911,422.386 644.578,413.552 647.5,405.5 Z"/></g>
<g><path style="opacity:0.004" fill="#509490" d="M 576.5,415.5 C 577.833,416.167 577.833,416.167 576.5,415.5 Z"/></g>
<g><path style="opacity:0.004" fill="#529691" d="M 579.5,419.5 C 580.833,420.167 580.833,420.167 579.5,419.5 Z"/></g>
<g><path style="opacity:0.004" fill="#529994" d="M 160.5,420.5 C 161.833,421.167 161.833,421.167 160.5,420.5 Z"/></g>
<g><path style="opacity:0.004" fill="#549a97" d="M 644.5,422.5 C 645.833,423.167 645.833,423.167 644.5,422.5 Z"/></g>
<g><path style="opacity:0.004" fill="#509695" d="M 228.5,424.5 C 229.525,424.897 229.692,425.563 229,426.5C 228.536,425.906 228.369,425.239 228.5,424.5 Z"/></g>
<g><path style="opacity:0.004" fill="#519591" d="M 159.5,426.5 C 160.833,427.167 160.833,427.167 159.5,426.5 Z"/></g>
<g><path style="opacity:0.008" fill="#539693" d="M 165.5,430.5 C 165.103,431.525 164.437,431.692 163.5,431C 164.094,430.536 164.761,430.369 165.5,430.5 Z"/></g>
<g><path style="opacity:0.008" fill="#509795" d="M 230.5,431.5 C 231.833,432.167 231.833,432.167 230.5,431.5 Z"/></g>
<g><path style="opacity:0.004" fill="#549692" d="M 640.5,436.5 C 641.833,437.167 641.833,437.167 640.5,436.5 Z"/></g>
<g><path style="opacity:0.557" fill="#30605c" d="M 193.5,491.5 C 191.926,490.016 190.593,488.349 189.5,486.5C 179.811,468.466 171.811,449.799 165.5,430.5C 162.363,419.619 159.696,408.619 157.5,397.5C 157.369,396.761 157.536,396.094 158,395.5C 165.399,429.204 177.233,461.204 193.5,491.5 Z"/></g>
<g><path style="opacity:0.961" fill="#31605b" d="M 639.5,435.5 C 636.457,447.575 631.79,458.909 625.5,469.5C 630.284,457.987 634.784,446.32 639,434.5C 639.399,434.728 639.565,435.062 639.5,435.5 Z"/></g>
<g><path style="opacity:0.008" fill="#519c99" d="M 236.5,445.5 C 237.833,446.167 237.833,446.167 236.5,445.5 Z"/></g>
<g><path style="opacity:0.004" fill="#529390" d="M 172.5,454.5 C 173.833,455.167 173.833,455.167 172.5,454.5 Z"/></g>
<g><path style="opacity:0.004" fill="#509992" d="M 559.5,456.5 C 560.833,457.167 560.833,457.167 559.5,456.5 Z"/></g>
<g><path style="opacity:0.004" fill="#509996" d="M 563.5,458.5 C 562.833,457.167 562.833,457.167 563.5,458.5 Z"/></g>
<g><path style="opacity:0.004" fill="#529996" d="M 773.5,463.5 C 774.833,464.167 774.833,464.167 773.5,463.5 Z"/></g>
<g><path style="opacity:0.004" fill="#549c98" d="M 775.5,463.5 C 776.833,464.167 776.833,464.167 775.5,463.5 Z"/></g>
<g><path style="opacity:0.004" fill="#549f9c" d="M 782.5,464.5 C 781.833,463.167 781.833,463.167 782.5,464.5 Z"/></g>
<g><path style="opacity:0.004" fill="#529b99" d="M 794.5,463.5 C 795.833,464.167 795.833,464.167 794.5,463.5 Z"/></g>
<g><path style="opacity:0.006" fill="#549895" d="M 796.5,464.5 C 796.897,463.475 797.563,463.308 798.5,464C 797.906,464.464 797.239,464.631 796.5,464.5 Z"/></g>
<g><path style="opacity:0.004" fill="#529895" d="M 805.5,463.5 C 806.833,464.167 806.833,464.167 805.5,463.5 Z"/></g>
<g><path style="opacity:0.004" fill="#539b98" d="M 767.5,464.5 C 768.833,465.167 768.833,465.167 767.5,464.5 Z"/></g>
<g><path style="opacity:0.02" fill="#56a19f" d="M 791.5,465.5 C 788.5,465.5 785.5,465.5 782.5,465.5C 782.5,465.167 782.5,464.833 782.5,464.5C 785.586,463.847 788.586,464.18 791.5,465.5 Z"/></g>
<g><path style="opacity:0.008" fill="#4f9691" d="M 177.5,466.5 C 178.833,467.167 178.833,467.167 177.5,466.5 Z"/></g>
<g><path style="opacity:0.008" fill="#569b97" d="M 759.5,466.5 C 760.833,467.167 760.833,467.167 759.5,466.5 Z"/></g>
<g><path style="opacity:0.004" fill="#529993" d="M 812.5,466.5 C 813.833,467.167 813.833,467.167 812.5,466.5 Z"/></g>
<g><path style="opacity:0.004" fill="#529992" d="M 556.5,469.5 C 555.833,468.167 555.833,468.167 556.5,469.5 Z"/></g>
<g><path style="opacity:0.004" fill="#549893" d="M 752.5,468.5 C 753.833,469.167 753.833,469.167 752.5,468.5 Z"/></g>
<g><path style="opacity:0.008" fill="#4e938f" d="M 179.5,470.5 C 180.833,471.167 180.833,471.167 179.5,470.5 Z"/></g>
<g><path style="opacity:0.012" fill="#559d99" d="M 746.5,472.5 C 745.761,472.631 745.094,472.464 744.5,472C 745.437,471.308 746.103,471.475 746.5,472.5 Z"/></g>
<g><path style="opacity:0.008" fill="#539c99" d="M 552.5,475.5 C 551.833,474.167 551.833,474.167 552.5,475.5 Z"/></g>
<g><path style="opacity:0.004" fill="#549996" d="M 737.5,474.5 C 738.833,475.167 738.833,475.167 737.5,474.5 Z"/></g>
<g><path style="opacity:1" fill="#31615d" d="M 775.5,465.5 C 777.833,465.5 780.167,465.5 782.5,465.5C 785.5,465.5 788.5,465.5 791.5,465.5C 798.538,465.791 805.538,466.458 812.5,467.5C 818.029,469.737 823.695,471.903 829.5,474C 833.56,475.689 837.227,477.856 840.5,480.5C 820.001,470.033 798.334,465.033 775.5,465.5 Z"/></g>
<g><path style="opacity:0.004" fill="#529e98" d="M 731.5,480.5 C 730.833,479.167 730.833,479.167 731.5,480.5 Z"/></g>
<g><path style="opacity:0.004" fill="#4d9494" d="M 842.5,480.5 C 842.897,479.475 843.563,479.308 844.5,480C 843.906,480.464 843.239,480.631 842.5,480.5 Z"/></g>
<g><path style="opacity:0.333" fill="#32635e" d="M 624.5,471.5 C 624.245,474.016 623.411,476.35 622,478.5C 620.391,481.407 618.558,484.073 616.5,486.5C 618.407,481.016 621.073,476.016 624.5,471.5 Z"/></g>
<g><path style="opacity:1" fill="#326561" d="M 772.5,466.5 C 752.492,470.323 734.159,478.99 717.5,492.5C 718.5,491.167 719.5,489.833 720.5,488.5C 724.19,485.801 727.857,483.135 731.5,480.5C 736.693,478.072 741.693,475.405 746.5,472.5C 754.919,469.473 763.585,467.473 772.5,466.5 Z"/></g>
<g><path style="opacity:0.008" fill="#509390" d="M 185.5,482.5 C 186.833,483.167 186.833,483.167 185.5,482.5 Z"/></g>
<g><path style="opacity:0.004" fill="#529694" d="M 189.5,486.5 C 188.833,487.167 188.833,487.167 189.5,486.5 Z"/></g>
<g><path style="opacity:1" fill="#32645f" d="M 250.5,472.5 C 257.468,481.403 265.135,489.736 273.5,497.5C 276.5,500.833 279.5,504.167 282.5,507.5C 269.705,497.709 259.039,486.042 250.5,472.5 Z"/></g>
<g><path style="opacity:0.008" fill="#519c97" d="M 720.5,488.5 C 719.833,487.167 719.833,487.167 720.5,488.5 Z"/></g>
<g><path style="opacity:1" fill="#356966" d="M 840.5,480.5 C 841.167,480.5 841.833,480.5 842.5,480.5C 846.1,482.92 849.6,485.586 853,488.5C 859.021,492.009 864.187,497.009 868.5,503.5C 859.724,495.048 850.39,487.381 840.5,480.5 Z"/></g>
<g><path style="opacity:0.431" fill="#336562" d="M 616.5,486.5 C 614.618,491.368 611.952,495.701 608.5,499.5C 610.418,494.657 613.084,490.323 616.5,486.5 Z"/></g>
<g><path style="opacity:0.004" fill="#529493" d="M 192.5,494.5 C 193.833,495.167 193.833,495.167 192.5,494.5 Z"/></g>
<g><path style="opacity:0.004" fill="#509696" d="M 273.5,496.5 C 274.833,497.167 274.833,497.167 273.5,496.5 Z"/></g>
<g><path style="opacity:0.004" fill="#549a96" d="M 611.5,497.5 C 612.833,498.167 612.833,498.167 611.5,497.5 Z"/></g>
<g><path style="opacity:0.941" fill="#30605c" d="M 717.5,492.5 C 714.5,496.167 711.167,499.5 707.5,502.5C 709.833,498.167 713.167,494.833 717.5,492.5 Z"/></g>
<g><path style="opacity:0.004" fill="#529995" d="M 524.5,505.5 C 523.833,504.167 523.833,504.167 524.5,505.5 Z"/></g>
<g><path style="opacity:0.588" fill="#30625d" d="M 608.5,499.5 C 606.938,503.392 604.605,506.725 601.5,509.5C 603.062,505.608 605.395,502.275 608.5,499.5 Z"/></g>
<g><path style="opacity:0.408" fill="#31615d" d="M 193.5,491.5 C 199.411,499.652 205.078,507.985 210.5,516.5C 207.343,512.843 204.01,509.343 200.5,506C 200.833,505.667 201.167,505.333 201.5,505C 198.181,500.857 195.514,496.357 193.5,491.5 Z"/></g>
<g><path style="opacity:0.008" fill="#549c99" d="M 522.5,507.5 C 521.833,506.167 521.833,506.167 522.5,507.5 Z"/></g>
<g><path style="opacity:0.004" fill="#4f918c" d="M 873.5,506.5 C 874.833,507.167 874.833,507.167 873.5,506.5 Z"/></g>
<g><path style="opacity:0.545" fill="#2e5e5b" d="M 283.5,508.5 C 285.749,509.08 287.415,510.413 288.5,512.5C 286.251,511.92 284.585,510.587 283.5,508.5 Z"/></g>
<g><path style="opacity:0.004" fill="#4e9895" d="M 290.5,511.5 C 291.833,512.167 291.833,512.167 290.5,511.5 Z"/></g>
<g><path style="opacity:0.004" fill="#509897" d="M 292.5,512.5 C 293.833,513.167 293.833,513.167 292.5,512.5 Z"/></g>
<g><path style="opacity:0.596" fill="#326563" d="M 288.5,512.5 C 289.167,512.5 289.833,512.5 290.5,512.5C 293.5,515.167 296.5,517.833 299.5,520.5C 298.078,520.291 296.745,519.791 295.5,519C 292.638,517.265 290.304,515.098 288.5,512.5 Z"/></g>
<g><path style="opacity:0.004" fill="#539895" d="M 510.5,514.5 C 511.833,515.167 511.833,515.167 510.5,514.5 Z"/></g>
<g><path style="opacity:1" fill="#356965" d="M 868.5,503.5 C 870.167,504.833 871.833,506.167 873.5,507.5C 873.916,509.752 875.249,511.252 877.5,512C 877.167,512.333 876.833,512.667 876.5,513C 878.734,514.638 880.067,516.805 880.5,519.5C 876.122,514.455 872.122,509.122 868.5,503.5 Z"/></g>
<g><path style="opacity:0.008" fill="#569d99" d="M 596.5,518.5 C 597.833,519.167 597.833,519.167 596.5,518.5 Z"/></g>
<g><path style="opacity:0.996" fill="#326360" d="M 707.5,502.5 C 700.369,511.971 694.036,521.971 688.5,532.5C 692.429,520.919 698.762,510.919 707.5,502.5 Z"/></g>
<g><path style="opacity:0.016" fill="#4e9693" d="M 882.5,519.5 C 883.833,520.167 883.833,520.167 882.5,519.5 Z"/></g>
<g><path style="opacity:0.357" fill="#2a5756" d="M 299.5,520.5 C 301.674,520.75 303.341,521.75 304.5,523.5C 302.326,523.25 300.659,522.25 299.5,520.5 Z"/></g>
<g><path style="opacity:0.404" fill="#32605c" d="M 595.5,517.5 C 594.581,520.089 592.914,522.089 590.5,523.5C 591.419,520.911 593.086,518.911 595.5,517.5 Z"/></g>
<g><path style="opacity:0.004" fill="#529895" d="M 307.5,522.5 C 308.833,523.167 308.833,523.167 307.5,522.5 Z"/></g>
<g><path style="opacity:0.235" fill="#356764" d="M 796.5,523.5 C 792.452,523.605 788.452,523.272 784.5,522.5C 783.448,522.649 782.448,522.483 781.5,522C 783.5,521.833 785.5,521.667 787.5,521.5C 791.403,521.308 794.403,521.974 796.5,523.5 Z"/></g>
<g><path style="opacity:0.004" fill="#509491" d="M 885.5,522.5 C 886.833,523.167 886.833,523.167 885.5,522.5 Z"/></g>
<g><path style="opacity:0.267" fill="#2f5f5a" d="M 213.5,520.5 C 215.914,521.911 217.581,523.911 218.5,526.5C 216.086,525.089 214.419,523.089 213.5,520.5 Z"/></g>
<g><path style="opacity:0.91" fill="#336561" d="M 779.5,523.5 C 771.938,524.784 764.938,527.451 758.5,531.5C 764.477,525.66 771.477,522.993 779.5,523.5 Z"/></g>
<g><path style="opacity:0.004" fill="#539593" d="M 310.5,524.5 C 311.833,525.167 311.833,525.167 310.5,524.5 Z"/></g>
<g><path style="opacity:1" fill="#31615d" d="M 798.5,524.5 C 805.538,524.342 811.538,527.009 816.5,532.5C 811.033,528.769 805.033,526.102 798.5,524.5 Z"/></g>
<g><path style="opacity:0.247" fill="#336865" d="M 590.5,523.5 C 589.243,526.427 587.243,528.761 584.5,530.5C 585.757,527.573 587.757,525.239 590.5,523.5 Z"/></g>
<g><path style="opacity:0.004" fill="#529a9a" d="M 317.5,528.5 C 318.833,529.167 318.833,529.167 317.5,528.5 Z"/></g>
<g><path style="opacity:0.008" fill="#549796" d="M 322.5,530.5 C 323.833,531.167 323.833,531.167 322.5,530.5 Z"/></g>
<g><path style="opacity:0.392" fill="#2e5e5a" d="M 218.5,526.5 C 222.566,529.563 225.899,533.229 228.5,537.5C 224.434,534.437 221.101,530.771 218.5,526.5 Z"/></g>
<g><path style="opacity:0.004" fill="#4d8f8b" d="M 215.5,532.5 C 216.833,533.167 216.833,533.167 215.5,532.5 Z"/></g>
<g><path style="opacity:0.227" fill="#326360" d="M 816.5,532.5 C 826.133,539.227 832.466,548.394 835.5,560C 835.43,560.765 835.097,561.265 834.5,561.5C 833.48,555.797 831.146,550.797 827.5,546.5C 827.672,545.508 827.338,544.842 826.5,544.5C 826.167,543.167 825.833,543.167 825.5,544.5C 824.662,544.158 824.328,543.492 824.5,542.5C 825.833,542.167 825.833,541.833 824.5,541.5C 821.833,538.5 819.167,535.5 816.5,532.5 Z"/></g>
<g><path style="opacity:0.008" fill="#529a99" d="M 333.5,536.5 C 333.897,535.475 334.563,535.308 335.5,536C 334.906,536.464 334.239,536.631 333.5,536.5 Z"/></g>
<g><path style="opacity:0.008" fill="#539592" d="M 890.5,535.5 C 891.525,535.897 891.692,536.563 891,537.5C 890.536,536.906 890.369,536.239 890.5,535.5 Z"/></g>
<g><path style="opacity:0.992" fill="#336561" d="M 228.5,537.5 C 234.85,542.697 240.85,548.364 246.5,554.5C 242.728,551.906 239.061,549.073 235.5,546C 232.577,543.584 230.243,540.75 228.5,537.5 Z"/></g>
<g><path style="opacity:0.451" fill="#2f605d" d="M 304.5,523.5 C 306.5,524.167 308.5,524.833 310.5,525.5C 312.336,527.588 314.669,528.921 317.5,529.5C 322.531,532.345 327.864,534.678 333.5,536.5C 338.165,538.922 343.165,540.589 348.5,541.5C 352.163,543.416 356.163,544.416 360.5,544.5C 395.378,552.127 430.045,550.793 464.5,540.5C 464.938,540.435 465.272,540.601 465.5,541C 438.894,550.02 411.561,553.02 383.5,550C 354.842,547.614 328.508,538.781 304.5,523.5 Z"/></g>
<g><path style="opacity:0.004" fill="#559b96" d="M 679.5,537.5 C 680.833,538.167 680.833,538.167 679.5,537.5 Z"/></g>
<g><path style="opacity:0.059" fill="#3b726f" d="M 583.5,531.5 C 580.902,535.438 577.902,539.105 574.5,542.5C 573.078,543.925 571.411,544.925 569.5,545.5C 573.833,540.5 578.5,535.833 583.5,531.5 Z"/></g>
<g><path style="opacity:0.004" fill="#519892" d="M 348.5,540.5 C 349.833,541.167 349.833,541.167 348.5,540.5 Z"/></g>
<g><path style="opacity:0.004" fill="#539b97" d="M 682.5,540.5 C 683.833,541.167 683.833,541.167 682.5,540.5 Z"/></g>
<g><path style="opacity:0.012" fill="#539693" d="M 574.5,542.5 C 575.833,543.167 575.833,543.167 574.5,542.5 Z"/></g>
<g><path style="opacity:0.012" fill="#509998" d="M 360.5,543.5 C 361.833,544.167 361.833,544.167 360.5,543.5 Z"/></g>
<g><path style="opacity:0.008" fill="#529291" d="M 892.5,542.5 C 893.525,542.897 893.692,543.563 893,544.5C 892.536,543.906 892.369,543.239 892.5,542.5 Z"/></g>
<g><path style="opacity:0.004" fill="#4d918e" d="M 231.5,544.5 C 232.833,545.167 232.833,545.167 231.5,544.5 Z"/></g>
<g><path style="opacity:0.004" fill="#4f918d" d="M 236.5,548.5 C 237.833,549.167 237.833,549.167 236.5,548.5 Z"/></g>
<g><path style="opacity:0.404" fill="#30605d" d="M 688.5,532.5 C 683.499,548.556 680.832,564.889 680.5,581.5C 679.511,567.218 681.011,553.218 685,539.5C 685.898,536.931 687.065,534.598 688.5,532.5 Z"/></g>
<g><path style="opacity:0.322" fill="#306460" d="M 568.5,546.5 C 566.431,549.573 563.764,551.906 560.5,553.5C 562.569,550.427 565.236,548.094 568.5,546.5 Z"/></g>
<g><path style="opacity:1" fill="#2d5955" d="M 246.5,554.5 C 248.749,555.08 250.415,556.413 251.5,558.5C 249.251,557.92 247.585,556.587 246.5,554.5 Z"/></g>
<g><path style="opacity:0.004" fill="#559890" d="M 561.5,554.5 C 562.833,555.167 562.833,555.167 561.5,554.5 Z"/></g>
<g><path style="opacity:0.004" fill="#50928d" d="M 244.5,555.5 C 245.833,556.167 245.833,556.167 244.5,555.5 Z"/></g>
<g><path style="opacity:1" fill="#2e5a57" d="M 251.5,558.5 C 253.404,558.738 254.738,559.738 255.5,561.5C 253.596,561.262 252.262,560.262 251.5,558.5 Z"/></g>
<g><path style="opacity:0.706" fill="#346662" d="M 560.5,553.5 C 555.364,559.306 549.364,563.973 542.5,567.5C 548.208,562.458 554.208,557.791 560.5,553.5 Z"/></g>
<g><path style="opacity:0.004" fill="#529790" d="M 553.5,562.5 C 554.833,563.167 554.833,563.167 553.5,562.5 Z"/></g>
<g><path style="opacity:0.008" fill="#519492" d="M 264.5,570.5 C 265.833,571.167 265.833,571.167 264.5,570.5 Z"/></g>
<g><path style="opacity:0.004" fill="#4f9694" d="M 538.5,571.5 C 539.833,572.167 539.833,572.167 538.5,571.5 Z"/></g>
<g><path style="opacity:0.012" fill="#509491" d="M 537.5,572.5 C 537.833,572.5 538.167,572.5 538.5,572.5C 538.315,573.17 537.981,573.17 537.5,572.5 Z"/></g>
<g><path style="opacity:0.259" fill="#316360" d="M 542.5,567.5 C 541.473,569.194 540.139,570.527 538.5,571.5C 537.833,571.5 537.5,571.833 537.5,572.5C 535.973,572.427 534.973,573.094 534.5,574.5C 533.167,574.833 531.833,575.167 530.5,575.5C 534.148,572.34 538.148,569.673 542.5,567.5 Z"/></g>
<g><path style="opacity:0.004" fill="#529994" d="M 534.5,574.5 C 535.833,575.167 535.833,575.167 534.5,574.5 Z"/></g>
<g><path style="opacity:0.263" fill="#346763" d="M 752.5,536.5 C 737.424,555.702 735.091,576.369 745.5,598.5C 742.31,594.786 740.143,590.453 739,585.5C 735.592,569.206 738.592,554.206 748,540.5C 749.371,538.959 750.871,537.625 752.5,536.5 Z"/></g>
<g><path style="opacity:0.349" fill="#336561" d="M 823.5,605.5 C 826.478,601 829.311,596.333 832,591.5C 832.49,590.207 832.657,588.873 832.5,587.5C 833.887,585.123 834.721,582.457 835,579.5C 835.499,574.511 835.666,569.511 835.5,564.5C 836.304,565.727 836.638,568.394 836.5,572.5C 837.042,585.561 832.709,596.561 823.5,605.5 Z"/></g>
<g><path style="opacity:0.267" fill="#32625e" d="M 682.5,595.5 C 681.841,592.545 681.508,589.545 681.5,586.5C 681.351,585.448 681.517,584.448 682,583.5C 682.5,586.5 683,589.5 683.5,592.5C 683.48,593.726 683.147,594.726 682.5,595.5 Z"/></g>
<g><path style="opacity:0.349" fill="#326360" d="M 880.5,519.5 C 881.167,519.833 881.833,520.167 882.5,520.5C 900.751,557.892 899.418,594.559 878.5,630.5C 877.662,630.842 877.328,631.508 877.5,632.5C 876.061,634.36 874.395,636.027 872.5,637.5C 875.06,632.723 877.893,628.056 881,623.5C 883.072,620.029 884.572,616.362 885.5,612.5C 889.534,603.705 892.034,594.372 893,584.5C 893.666,574.481 893.499,564.481 892.5,554.5C 890.091,542.274 886.091,530.607 880.5,519.5 Z"/></g>
<g><path style="opacity:0.549" fill="#336460" d="M 530.5,575.5 C 509.774,589.185 487.107,598.519 462.5,603.5C 485.641,596.856 508.308,587.522 530.5,575.5 Z"/></g>
<g><path style="opacity:1" fill="#30605c" d="M 255.5,561.5 C 290.912,586.344 328.912,601.677 369.5,607.5C 365.158,607.261 360.824,606.927 356.5,606.5C 327.071,600.854 299.405,590.354 273.5,575C 267.033,571.021 261.033,566.521 255.5,561.5 Z"/></g>
<g><path style="opacity:0.012" fill="#519796" d="M 312.5,595.5 C 313.833,596.167 313.833,596.167 312.5,595.5 Z"/></g>
<g><path style="opacity:0.004" fill="#529795" d="M 491.5,596.5 C 492.833,597.167 492.833,597.167 491.5,596.5 Z"/></g>
<g><path style="opacity:0.988" fill="#59afb0" d="M 892.5,554.5 C 893.499,564.481 893.666,574.481 893,584.5C 892.034,594.372 889.534,603.705 885.5,612.5C 891.3,593.441 893.633,574.108 892.5,554.5 Z"/></g>
<g><path style="opacity:0.004" fill="#519a96" d="M 681.5,599.5 C 682.833,600.167 682.833,600.167 681.5,599.5 Z"/></g>
<g><path style="opacity:0.716" fill="#326562" d="M 747.5,601.5 C 750.243,603.239 752.243,605.573 753.5,608.5C 750.757,606.761 748.757,604.427 747.5,601.5 Z"/></g>
<g><path style="opacity:0.008" fill="#519c96" d="M 343.5,604.5 C 344.833,605.167 344.833,605.167 343.5,604.5 Z"/></g>
<g><path style="opacity:0.004" fill="#519997" d="M 464.5,604.5 C 465.833,605.167 465.833,605.167 464.5,604.5 Z"/></g>
<g><path style="opacity:0.012" fill="#4f9894" d="M 347.5,605.5 C 348.833,606.167 348.833,606.167 347.5,605.5 Z"/></g>
<g><path style="opacity:0.004" fill="#529999" d="M 352.5,606.5 C 353.833,607.167 353.833,607.167 352.5,606.5 Z"/></g>
<g><path style="opacity:0.004" fill="#539b9a" d="M 356.5,606.5 C 355.833,607.167 355.833,607.167 356.5,606.5 Z"/></g>
<g><path style="opacity:0.004" fill="#559c99" d="M 453.5,607.5 C 453.897,606.475 454.563,606.308 455.5,607C 454.906,607.464 454.239,607.631 453.5,607.5 Z"/></g>
<g><path style="opacity:1" fill="#2d5c58" d="M 821.5,607.5 C 809.506,619.976 794.84,624.809 777.5,622C 774.749,621.876 773.082,621.043 772.5,619.5C 790.95,623.804 807.284,619.804 821.5,607.5 Z"/></g>
<g><path style="opacity:0.004" fill="#51918d" d="M 888.5,612.5 C 889.833,613.167 889.833,613.167 888.5,612.5 Z"/></g>
<g><path style="opacity:0.71" fill="#326664" d="M 753.5,608.5 C 755.062,608.733 756.395,609.4 757.5,610.5C 761.295,613.905 765.628,616.571 770.5,618.5C 770.44,619.043 770.107,619.376 769.5,619.5C 763.023,617.28 757.69,613.613 753.5,608.5 Z"/></g>
<g><path style="opacity:0.345" fill="#356964" d="M 460.5,604.5 C 451.622,606.568 442.622,607.902 433.5,608.5C 433.223,627.479 432.556,646.479 431.5,665.5C 431.802,662.941 431.468,660.607 430.5,658.5C 431.131,644.176 431.631,629.842 432,615.5C 432.182,612.774 432.682,610.107 433.5,607.5C 441.656,606.215 449.823,604.882 458,603.5C 459.07,603.528 459.903,603.861 460.5,604.5 Z"/></g>
<g><path style="opacity:0.008" fill="#529998" d="M 690.5,620.5 C 689.833,621.167 689.833,621.167 690.5,620.5 Z"/></g>
<g><path style="opacity:0.404" fill="#366a66" d="M 702.5,637.5 C 700.609,635.558 698.609,633.725 696.5,632C 696.833,631.667 697.167,631.333 697.5,631C 695.267,627.349 692.934,623.849 690.5,620.5C 688.772,615.485 686.939,610.485 685,605.5C 684.444,607.595 683.944,607.762 683.5,606C 684.31,603.217 684.31,600.383 683.5,597.5C 687.948,611.09 694.281,624.423 702.5,637.5 Z"/></g>
<g><path style="opacity:0.008" fill="#51928e" d="M 881.5,626.5 C 882.833,627.167 882.833,627.167 881.5,626.5 Z"/></g>
<g><path style="opacity:0.004" fill="#539a96" d="M 369.5,627.5 C 370.833,628.167 370.833,628.167 369.5,627.5 Z"/></g>
<g><path style="opacity:0.004" fill="#519797" d="M 878.5,630.5 C 879.833,631.167 879.833,631.167 878.5,630.5 Z"/></g>
<g><path style="opacity:0.004" fill="#4f9290" d="M 877.5,632.5 C 878.833,633.167 878.833,633.167 877.5,632.5 Z"/></g>
<g><path style="opacity:0.278" fill="#356763" d="M 702.5,637.5 C 704.86,638.865 706.527,640.865 707.5,643.5C 705.11,642.109 703.443,640.109 702.5,637.5 Z"/></g>
<g><path style="opacity:0.404" fill="#336662" d="M 872.5,637.5 C 871.581,640.089 869.914,642.089 867.5,643.5C 868.419,640.911 870.086,638.911 872.5,637.5 Z"/></g>
<g><path style="opacity:0.004" fill="#519691" d="M 369.5,642.5 C 370.833,643.167 370.833,643.167 369.5,642.5 Z"/></g>
<g><path style="opacity:1" fill="#2c5c57" d="M 373.5,654.5 C 372.505,642.678 372.172,630.678 372.5,618.5C 371.632,615.065 371.632,611.731 372.5,608.5C 373.499,623.088 373.832,638.422 373.5,654.5 Z"/></g>
<g><path style="opacity:0.004" fill="#519793" d="M 369.5,650.5 C 370.833,651.167 370.833,651.167 369.5,650.5 Z"/></g>
<g><path style="opacity:0.004" fill="#529792" d="M 433.5,650.5 C 434.833,651.167 434.833,651.167 433.5,650.5 Z"/></g>
<g><path style="opacity:0.004" fill="#519793" d="M 714.5,653.5 C 715.833,654.167 715.833,654.167 714.5,653.5 Z"/></g>
<g><path style="opacity:0.357" fill="#31635f" d="M 861.5,649.5 C 857.568,654.129 852.901,657.796 847.5,660.5C 851.795,656.353 856.462,652.687 861.5,649.5 Z"/></g>
<g><path style="opacity:0.602" fill="#39706b" d="M 372.5,618.5 C 372.172,630.678 372.505,642.678 373.5,654.5C 373.83,672.008 373.497,689.341 372.5,706.5C 371.278,677.006 371.278,647.673 372.5,618.5 Z"/></g>
<g><path style="opacity:1" fill="#356863" d="M 707.5,643.5 C 714.455,649.448 721.455,655.448 728.5,661.5C 726.031,660.431 723.698,659.098 721.5,657.5C 716.452,653.119 711.785,648.452 707.5,643.5 Z"/></g>
<g><path style="opacity:0.004" fill="#519997" d="M 721.5,657.5 C 720.833,658.167 720.833,658.167 721.5,657.5 Z"/></g>
<g><path style="opacity:0.008" fill="#509491" d="M 369.5,658.5 C 370.573,659.251 370.74,660.251 370,661.5C 369.517,660.552 369.351,659.552 369.5,658.5 Z"/></g>
<g><path style="opacity:0.161" fill="#2d605f" d="M 847.5,660.5 C 847.027,661.906 846.027,662.573 844.5,662.5C 844.973,661.094 845.973,660.427 847.5,660.5 Z"/></g>
<g><path style="opacity:0.004" fill="#519693" d="M 369.5,663.5 C 370.833,664.167 370.833,664.167 369.5,663.5 Z"/></g>
<g><path style="opacity:0.004" fill="#509591" d="M 369.5,667.5 C 370.833,668.167 370.833,668.167 369.5,667.5 Z"/></g>
<g><path style="opacity:0.004" fill="#519694" d="M 834.5,669.5 C 835.833,670.167 835.833,670.167 834.5,669.5 Z"/></g>
<g><path style="opacity:0.004" fill="#509691" d="M 369.5,670.5 C 370.833,671.167 370.833,671.167 369.5,670.5 Z"/></g>
<g><path style="opacity:0.004" fill="#519995" d="M 735.5,670.5 C 736.833,671.167 736.833,671.167 735.5,670.5 Z"/></g>
<g><path style="opacity:0.992" fill="#366c68" d="M 728.5,661.5 C 738.082,666.961 748.082,671.295 758.5,674.5C 757.566,675.568 757.232,676.901 757.5,678.5C 756.833,677.5 756.167,676.5 755.5,675.5C 747.057,672.173 738.724,668.34 730.5,664C 729.619,663.292 728.953,662.458 728.5,661.5 Z"/></g>
<g><path style="opacity:0.922" fill="#2f5c58" d="M 842.5,663.5 C 835.306,668.761 827.306,672.428 818.5,674.5C 817.833,674.5 817.5,674.167 817.5,673.5C 826.161,671.004 834.494,667.67 842.5,663.5 Z"/></g>
<g><path style="opacity:0.954" fill="#24524f" d="M 430.5,658.5 C 431.468,660.607 431.802,662.941 431.5,665.5C 431.763,672.73 431.763,680.063 431.5,687.5C 431.806,690.385 431.473,693.052 430.5,695.5C 430.5,683.167 430.5,670.833 430.5,658.5 Z"/></g>
<g><path style="opacity:0.016" fill="#529c96" d="M 818.5,675.5 C 819.833,676.167 819.833,676.167 818.5,675.5 Z"/></g>
<g><path style="opacity:0.004" fill="#559b96" d="M 820.5,675.5 C 821.833,676.167 821.833,676.167 820.5,675.5 Z"/></g>
<g><path style="opacity:0.008" fill="#549e9b" d="M 752.5,676.5 C 753.833,677.167 753.833,677.167 752.5,676.5 Z"/></g>
<g><path style="opacity:0.016" fill="#549c99" d="M 755.5,675.5 C 755.649,676.552 755.483,677.552 755,678.5C 754.26,677.251 754.427,676.251 755.5,675.5 Z"/></g>
<g><path style="opacity:0.004" fill="#529793" d="M 818.5,677.5 C 819.833,678.167 819.833,678.167 818.5,677.5 Z"/></g>
<g><path style="opacity:0.804" fill="#274c44" d="M 758.5,674.5 C 758.5,688.167 758.5,701.833 758.5,715.5C 757.833,715.5 757.5,715.167 757.5,714.5C 757.43,702.35 757.43,690.35 757.5,678.5C 757.232,676.901 757.566,675.568 758.5,674.5 Z"/></g>
<g><path style="opacity:0.322" fill="#417a75" d="M 817.5,673.5 C 817.5,674.167 817.833,674.5 818.5,674.5C 818.5,674.833 818.5,675.167 818.5,675.5C 817.833,687.5 817.167,699.5 816.5,711.5C 816.5,699.167 816.5,686.833 816.5,674.5C 816.5,673.833 816.833,673.5 817.5,673.5 Z"/></g>
<g><path style="opacity:0.004" fill="#539793" d="M 755.5,701.5 C 756.833,702.167 756.833,702.167 755.5,701.5 Z"/></g>
<g><path style="opacity:0.004" fill="#50938f" d="M 370.5,704.5 C 371.833,705.167 371.833,705.167 370.5,704.5 Z"/></g>
<g><path style="opacity:0.012" fill="#519792" d="M 370.5,708.5 C 371.833,709.167 371.833,709.167 370.5,708.5 Z"/></g>
<g><path style="opacity:0.004" fill="#509390" d="M 368.5,711.5 C 369.833,712.167 369.833,712.167 368.5,711.5 Z"/></g>
<g><path style="opacity:0.988" fill="#31645f" d="M 431.5,687.5 C 431.288,714.567 435.788,740.567 445,765.5C 450.351,776.212 456.184,786.545 462.5,796.5C 457.616,791.09 453.45,785.09 450,778.5C 436.741,752.461 430.241,724.794 430.5,695.5C 431.473,693.052 431.806,690.385 431.5,687.5 Z"/></g>
<g><path style="opacity:0.004" fill="#519792" d="M 754.5,716.5 C 755.833,717.167 755.833,717.167 754.5,716.5 Z"/></g>
<g><path style="opacity:0.004" fill="#4e918e" d="M 367.5,720.5 C 368.833,721.167 368.833,721.167 367.5,720.5 Z"/></g>
<g><path style="opacity:0.212" fill="#336560" d="M 816.5,674.5 C 816.5,686.833 816.5,699.167 816.5,711.5C 816.384,723.641 815.051,735.641 812.5,747.5C 811.853,746.726 811.52,745.726 811.5,744.5C 813.087,735.889 814.254,727.223 815,718.5C 815.169,703.661 815.669,688.994 816.5,674.5 Z"/></g>
<g><path style="opacity:0.004" fill="#529994" d="M 435.5,724.5 C 436.833,725.167 436.833,725.167 435.5,724.5 Z"/></g>
<g><path style="opacity:0.004" fill="#529795" d="M 753.5,724.5 C 754.525,724.897 754.692,725.563 754,726.5C 753.536,725.906 753.369,725.239 753.5,724.5 Z"/></g>
<g><path style="opacity:0.004" fill="#539491" d="M 372.5,726.5 C 373.833,727.167 373.833,727.167 372.5,726.5 Z"/></g>
<g><path style="opacity:0.004" fill="#529996" d="M 436.5,729.5 C 437.833,730.167 437.833,730.167 436.5,729.5 Z"/></g>
<g><path style="opacity:0.004" fill="#519995" d="M 437.5,734.5 C 438.833,735.167 438.833,735.167 437.5,734.5 Z"/></g>
<g><path style="opacity:1" fill="#2f605d" d="M 376.5,740.5 C 375.841,737.545 375.508,734.545 375.5,731.5C 375.369,730.761 375.536,730.094 376,729.5C 377.485,733.28 377.652,736.946 376.5,740.5 Z"/></g>
<g><path style="opacity:0.004" fill="#559b98" d="M 751.5,736.5 C 752.833,737.167 752.833,737.167 751.5,736.5 Z"/></g>
<g><path style="opacity:0.008" fill="#559e9a" d="M 751.5,738.5 C 752.833,739.167 752.833,739.167 751.5,738.5 Z"/></g>
<g><path style="opacity:0.004" fill="#4f9491" d="M 438.5,741.5 C 439.833,742.167 439.833,742.167 438.5,741.5 Z"/></g>
<g><path style="opacity:1" fill="#356965" d="M 757.5,714.5 C 757.5,715.167 757.833,715.5 758.5,715.5C 756.648,747.083 745.981,775.083 726.5,799.5C 735.549,786.072 743.049,771.739 749,756.5C 753.033,742.607 755.866,728.607 757.5,714.5 Z"/></g>
<g><path style="opacity:0.004" fill="#519790" d="M 377.5,748.5 C 376.833,749.167 376.833,749.167 377.5,748.5 Z"/></g>
<g><path style="opacity:0.012" fill="#509591" d="M 812.5,750.5 C 813.833,751.167 813.833,751.167 812.5,750.5 Z"/></g>
<g><path style="opacity:0.012" fill="#509490" d="M 377.5,752.5 C 376.833,751.167 376.833,751.167 377.5,752.5 Z"/></g>
<g><path style="opacity:0.424" fill="#32625d" d="M 811.5,749.5 C 807.97,769.1 801.303,787.433 791.5,804.5C 799.544,785.98 806.211,767.647 811.5,749.5 Z"/></g>
<g><path style="opacity:0.004" fill="#4f9795" d="M 377.5,752.5 C 377.833,752.5 378.167,752.5 378.5,752.5C 378.315,753.17 377.981,753.17 377.5,752.5 Z"/></g>
<g><path style="opacity:0.004" fill="#50948f" d="M 812.5,752.5 C 813.833,753.167 813.833,753.167 812.5,752.5 Z"/></g>
<g><path style="opacity:0.004" fill="#519692" d="M 377.5,754.5 C 378.833,755.167 378.833,755.167 377.5,754.5 Z"/></g>
<g><path style="opacity:0.004" fill="#539793" d="M 746.5,756.5 C 747.833,757.167 747.833,757.167 746.5,756.5 Z"/></g>
<g><path style="opacity:0.004" fill="#509391" d="M 379.5,757.5 C 379.631,758.239 379.464,758.906 379,759.5C 378.308,758.563 378.475,757.897 379.5,757.5 Z"/></g>
<g><path style="opacity:0.004" fill="#51928f" d="M 379.5,762.5 C 380.833,763.167 380.833,763.167 379.5,762.5 Z"/></g>
<g><path style="opacity:0.004" fill="#52928f" d="M 380.5,766.5 C 381.833,767.167 381.833,767.167 380.5,766.5 Z"/></g>
<g><path style="opacity:0.004" fill="#509592" d="M 805.5,775.5 C 806.833,776.167 806.833,776.167 805.5,775.5 Z"/></g>
<g><path style="opacity:0.008" fill="#4f938e" d="M 803.5,782.5 C 804.833,783.167 804.833,783.167 803.5,782.5 Z"/></g>
<g><path style="opacity:0.004" fill="#4f9490" d="M 388.5,784.5 C 387.833,785.167 387.833,785.167 388.5,784.5 Z"/></g>
<g><path style="opacity:0.012" fill="#51948e" d="M 801.5,786.5 C 802.833,787.167 802.833,787.167 801.5,786.5 Z"/></g>
<g><path style="opacity:0.004" fill="#539995" d="M 459.5,788.5 C 460.833,789.167 460.833,789.167 459.5,788.5 Z"/></g>
<g><path style="opacity:0.224" fill="#30615c" d="M 401.5,808.5 C 398.833,804.5 396.167,800.5 393.5,796.5C 392.352,792.213 390.685,788.213 388.5,784.5C 385.33,775.459 382.33,766.459 379.5,757.5C 379.784,755.585 379.451,753.919 378.5,752.5C 378.5,751.167 378.5,749.833 378.5,748.5C 381.544,757.831 384.711,767.831 388,778.5C 392.254,788.671 396.754,798.671 401.5,808.5 Z"/></g>
<g><path style="opacity:0.004" fill="#509a97" d="M 462.5,792.5 C 463.833,793.167 463.833,793.167 462.5,792.5 Z"/></g>
<g><path style="opacity:0.008" fill="#50958f" d="M 393.5,796.5 C 392.833,797.167 392.833,797.167 393.5,796.5 Z"/></g>
<g><path style="opacity:1" fill="#326765" d="M 462.5,796.5 C 464.587,797.585 465.92,799.251 466.5,801.5C 464.413,800.415 463.08,798.749 462.5,796.5 Z"/></g>
<g><path style="opacity:0.004" fill="#4e9994" d="M 719.5,799.5 C 720.833,800.167 720.833,800.167 719.5,799.5 Z"/></g>
<g><path style="opacity:0.004" fill="#529a97" d="M 468.5,800.5 C 469.833,801.167 469.833,801.167 468.5,800.5 Z"/></g>
<g><path style="opacity:1" fill="#316561" d="M 466.5,801.5 C 467.5,802.167 468.5,802.833 469.5,803.5C 470.6,804.605 471.267,805.938 471.5,807.5C 469.086,806.089 467.419,804.089 466.5,801.5 Z"/></g>
<g><path style="opacity:0.004" fill="#4e9794" d="M 469.5,802.5 C 470.833,803.167 470.833,803.167 469.5,802.5 Z"/></g>
<g><path style="opacity:0.004" fill="#509a96" d="M 473.5,807.5 C 474.833,808.167 474.833,808.167 473.5,807.5 Z"/></g>
<g><path style="opacity:0.004" fill="#4e8e8b" d="M 399.5,809.5 C 400.833,810.167 400.833,810.167 399.5,809.5 Z"/></g>
<g><path style="opacity:0.008" fill="#529b95" d="M 711.5,809.5 C 712.833,810.167 712.833,810.167 711.5,809.5 Z"/></g>
<g><path style="opacity:0.008" fill="#519c96" d="M 476.5,810.5 C 477.833,811.167 477.833,811.167 476.5,810.5 Z"/></g>
<g><path style="opacity:0.004" fill="#509590" d="M 400.5,812.5 C 401.833,813.167 401.833,813.167 400.5,812.5 Z"/></g>
<g><path style="opacity:0.541" fill="#33625e" d="M 791.5,804.5 C 790.191,809.121 787.858,813.121 784.5,816.5C 786.332,812.164 788.665,808.164 791.5,804.5 Z"/></g>
<g><path style="opacity:0.004" fill="#509592" d="M 403.5,814.5 C 402.833,815.167 402.833,815.167 403.5,814.5 Z"/></g>
<g><path style="opacity:0.004" fill="#519995" d="M 707.5,818.5 C 706.833,817.167 706.833,817.167 707.5,818.5 Z"/></g>
<g><path style="opacity:0.984" fill="#346663" d="M 401.5,808.5 C 405.251,812.995 408.251,817.995 410.5,823.5C 410.167,823.5 409.833,823.5 409.5,823.5C 407.735,820.291 405.735,817.291 403.5,814.5C 402.37,812.685 401.704,810.685 401.5,808.5 Z"/></g>
<g><path style="opacity:0.747" fill="#2f615d" d="M 471.5,807.5 C 472.167,807.833 472.833,808.167 473.5,808.5C 474.167,809.833 475.167,810.833 476.5,811.5C 479.5,814.833 482.5,818.167 485.5,821.5C 479.833,817.833 475.167,813.167 471.5,807.5 Z"/></g>
<g><path style="opacity:0.647" fill="#326460" d="M 784.5,816.5 C 782.822,821.197 780.156,825.197 776.5,828.5C 778.673,824.148 781.34,820.148 784.5,816.5 Z"/></g>
<g><path style="opacity:0.008" fill="#4f9392" d="M 409.5,823.5 C 408.833,824.167 408.833,824.167 409.5,823.5 Z"/></g>
<g><path style="opacity:0.004" fill="#4e928d" d="M 409.5,826.5 C 410.833,827.167 410.833,827.167 409.5,826.5 Z"/></g>
<g><path style="opacity:0.008" fill="#529c97" d="M 494.5,826.5 C 495.833,827.167 495.833,827.167 494.5,826.5 Z"/></g>
<g><path style="opacity:0.004" fill="#529b96" d="M 696.5,827.5 C 695.833,826.167 695.833,826.167 696.5,827.5 Z"/></g>
<g><path style="opacity:0.008" fill="#509b99" d="M 500.5,831.5 C 501.833,832.167 501.833,832.167 500.5,831.5 Z"/></g>
<g><path style="opacity:0.541" fill="#33645f" d="M 410.5,823.5 C 415.21,828.877 419.543,834.543 423.5,840.5C 422.167,839.5 420.833,838.5 419.5,837.5C 416.474,832.816 413.474,828.149 410.5,823.5 Z"/></g>
<g><path style="opacity:0.008" fill="#51948f" d="M 419.5,837.5 C 418.833,838.167 418.833,838.167 419.5,837.5 Z"/></g>
<g><path style="opacity:0.216" fill="#356965" d="M 770.5,836.5 C 769.92,838.749 768.587,840.415 766.5,841.5C 767.08,839.251 768.413,837.585 770.5,836.5 Z"/></g>
<g><path style="opacity:0.004" fill="#539e9d" d="M 515.5,840.5 C 516.833,841.167 516.833,841.167 515.5,840.5 Z"/></g>
<g><path style="opacity:0.004" fill="#529b96" d="M 519.5,842.5 C 520.833,843.167 520.833,843.167 519.5,842.5 Z"/></g>
<g><path style="opacity:0.278" fill="#2f5f5b" d="M 423.5,840.5 C 426.243,842.239 428.243,844.573 429.5,847.5C 426.757,845.761 424.757,843.427 423.5,840.5 Z"/></g>
<g><path style="opacity:0.004" fill="#529a96" d="M 523.5,844.5 C 524.833,845.167 524.833,845.167 523.5,844.5 Z"/></g>
<g><path style="opacity:0.184" fill="#346661" d="M 766.5,841.5 C 764.906,844.764 762.573,847.431 759.5,849.5C 761.094,846.236 763.427,843.569 766.5,841.5 Z"/></g>
<g><path style="opacity:0.004" fill="#4f9a97" d="M 533.5,848.5 C 534.833,849.167 534.833,849.167 533.5,848.5 Z"/></g>
<g><path style="opacity:0.008" fill="#529c98" d="M 655.5,848.5 C 656.833,849.167 656.833,849.167 655.5,848.5 Z"/></g>
<g><path style="opacity:1" fill="#316461" d="M 726.5,799.5 C 702.643,831.198 671.143,851.198 632,859.5C 630.93,859.472 630.097,859.139 629.5,858.5C 654.595,853.781 676.929,843.447 696.5,827.5C 701.043,825.628 704.71,822.628 707.5,818.5C 714.194,812.473 720.527,806.14 726.5,799.5 Z"/></g>
<g><path style="opacity:0.561" fill="#316461" d="M 485.5,821.5 C 488.482,823.474 491.482,825.474 494.5,827.5C 496.091,829.633 498.091,831.299 500.5,832.5C 505.226,836.355 510.226,839.021 515.5,840.5C 514.167,840.833 514.167,841.167 515.5,841.5C 516.514,842.674 517.847,843.34 519.5,843.5C 520.514,844.674 521.847,845.34 523.5,845.5C 526.551,847.352 529.884,848.686 533.5,849.5C 539.802,852.602 546.468,854.935 553.5,856.5C 553.083,857.124 552.416,857.457 551.5,857.5C 526.12,851.154 504.12,839.154 485.5,821.5 Z"/></g>
<g><path style="opacity:0.012" fill="#4f9694" d="M 536.5,849.5 C 537.833,850.167 537.833,850.167 536.5,849.5 Z"/></g>
<g><path style="opacity:0.004" fill="#519995" d="M 539.5,850.5 C 540.833,851.167 540.833,851.167 539.5,850.5 Z"/></g>
<g><path style="opacity:0.004" fill="#539997" d="M 649.5,850.5 C 650.833,851.167 650.833,851.167 649.5,850.5 Z"/></g>
<g><path style="opacity:0.031" fill="#356762" d="M 432.5,850.5 C 436.833,854.167 440.833,858.167 444.5,862.5C 439.5,859.5 435.5,855.5 432.5,850.5 Z"/></g>
<g><path style="opacity:0.004" fill="#539a96" d="M 556.5,855.5 C 557.833,856.167 557.833,856.167 556.5,855.5 Z"/></g>
<g><path style="opacity:0.012" fill="#529c9a" d="M 631.5,856.5 C 632.251,855.427 633.251,855.26 634.5,856C 633.552,856.483 632.552,856.649 631.5,856.5 Z"/></g>
<g><path style="opacity:0.2" fill="#30615e" d="M 555.5,857.5 C 557.861,857.674 560.194,858.007 562.5,858.5C 561.903,859.139 561.07,859.472 560,859.5C 557.527,859.375 556.027,858.709 555.5,857.5 Z"/></g>
<g><path style="opacity:0.004" fill="#519794" d="M 575.5,858.5 C 576.833,859.167 576.833,859.167 575.5,858.5 Z"/></g>
<g><path style="opacity:0.004" fill="#529792" d="M 614.5,858.5 C 615.833,859.167 615.833,859.167 614.5,858.5 Z"/></g>
<g><path style="opacity:0.004" fill="#539996" d="M 617.5,858.5 C 618.833,859.167 618.833,859.167 617.5,858.5 Z"/></g>
<g><path style="opacity:0.004" fill="#519792" d="M 593.5,858.5 C 594.525,858.897 594.692,859.563 594,860.5C 593.536,859.906 593.369,859.239 593.5,858.5 Z"/></g>
<g><path style="opacity:0.947" fill="#2f615d" d="M 565.5,859.5 C 585.839,862.127 606.172,862.127 626.5,859.5C 624.697,860.833 622.031,861.667 618.5,862C 600.055,864.268 581.722,863.601 563.5,860C 564.094,859.536 564.761,859.369 565.5,859.5 Z"/></g>
<g><path style="opacity:0.322" fill="#31605d" d="M 444.5,862.5 C 449.132,865.798 453.466,869.464 457.5,873.5C 452.281,870.954 447.948,867.287 444.5,862.5 Z"/></g>
<g><path style="opacity:0.055" fill="#346763" d="M 745.5,863.5 C 743.833,865.5 742.167,867.5 740.5,869.5C 739.833,869.5 739.167,869.5 738.5,869.5C 740.239,866.757 742.573,864.757 745.5,863.5 Z"/></g>
<g><path style="opacity:0.016" fill="#4e938f" d="M 740.5,869.5 C 741.833,870.167 741.833,870.167 740.5,869.5 Z"/></g>
<g><path style="opacity:0.078" fill="#356763" d="M 738.5,869.5 C 737.415,871.587 735.749,872.92 733.5,873.5C 734.585,871.413 736.251,870.08 738.5,869.5 Z"/></g>
<g><path style="opacity:0.004" fill="#4d8f8c" d="M 464.5,880.5 C 463.833,881.167 463.833,881.167 464.5,880.5 Z"/></g>
<g><path style="opacity:0.004" fill="#4f928b" d="M 465.5,882.5 C 466.833,883.167 466.833,883.167 465.5,882.5 Z"/></g>
<g><path style="opacity:0.592" fill="#326360" d="M 728.5,877.5 C 721.648,883.673 713.982,888.673 705.5,892.5C 712.892,887.114 720.558,882.114 728.5,877.5 Z"/></g>
<g><path style="opacity:0.008" fill="#4e8f8b" d="M 470.5,885.5 C 471.833,886.167 471.833,886.167 470.5,885.5 Z"/></g>
<g><path style="opacity:0.008" fill="#509291" d="M 480.5,891.5 C 480.833,891.5 481.167,891.5 481.5,891.5C 481.5,891.833 481.5,892.167 481.5,892.5C 481.167,892.167 480.833,891.833 480.5,891.5 Z"/></g>
<g><path style="opacity:0.31" fill="#32625f" d="M 457.5,873.5 C 479.05,889.278 502.384,901.945 527.5,911.5C 516.844,908.339 506.511,904.339 496.5,899.5C 491.698,896.597 486.698,893.93 481.5,891.5C 481.167,890.167 480.833,890.167 480.5,891.5C 475.745,887.093 470.412,883.426 464.5,880.5C 461.973,878.395 459.64,876.061 457.5,873.5 Z"/></g>
<g><path style="opacity:0.008" fill="#529491" d="M 481.5,892.5 C 482.833,893.167 482.833,893.167 481.5,892.5 Z"/></g>
<g><path style="opacity:0.008" fill="#4e908d" d="M 706.5,893.5 C 707.833,894.167 707.833,894.167 706.5,893.5 Z"/></g>
<g><path style="opacity:0.008" fill="#51918d" d="M 492.5,899.5 C 493.833,900.167 493.833,900.167 492.5,899.5 Z"/></g>
<g><path style="opacity:0.004" fill="#4f9895" d="M 496.5,899.5 C 495.833,900.167 495.833,900.167 496.5,899.5 Z"/></g>
<g><path style="opacity:0.004" fill="#4f9490" d="M 691.5,902.5 C 691.897,901.475 692.563,901.308 693.5,902C 692.906,902.464 692.239,902.631 691.5,902.5 Z"/></g>
<g><path style="opacity:0.008" fill="#509693" d="M 513.5,908.5 C 514.833,909.167 514.833,909.167 513.5,908.5 Z"/></g>
<g><path style="opacity:0.008" fill="#4d9290" d="M 516.5,909.5 C 517.833,910.167 517.833,910.167 516.5,909.5 Z"/></g>
<g><path style="opacity:0.208" fill="#31605c" d="M 705.5,892.5 C 684.746,905.313 662.579,913.98 639,918.5C 620.678,922.041 602.178,923.374 583.5,922.5C 583.5,922.167 583.5,921.833 583.5,921.5C 626.913,923.02 667.579,913.354 705.5,892.5 Z"/></g>
<g><path style="opacity:0.557" fill="#315f5b" d="M 528.5,912.5 C 528.735,911.903 529.235,911.57 530,911.5C 538.576,913.718 546.41,916.051 553.5,918.5C 544.971,917.284 536.638,915.284 528.5,912.5 Z"/></g>
<g><path style="opacity:0.004" fill="#519390" d="M 527.5,913.5 C 528.833,914.167 528.833,914.167 527.5,913.5 Z"/></g>
<g><path style="opacity:0.008" fill="#51918e" d="M 529.5,914.5 C 530.833,915.167 530.833,915.167 529.5,914.5 Z"/></g>
<g><path style="opacity:0.004" fill="#519494" d="M 537.5,917.5 C 537.897,916.475 538.563,916.308 539.5,917C 538.906,917.464 538.239,917.631 537.5,917.5 Z"/></g>
<g><path style="opacity:0.008" fill="#519590" d="M 652.5,916.5 C 653.833,917.167 653.833,917.167 652.5,916.5 Z"/></g>
<g><path style="opacity:0.004" fill="#4f9290" d="M 541.5,917.5 C 542.833,918.167 542.833,918.167 541.5,917.5 Z"/></g>
<g><path style="opacity:0.008" fill="#539794" d="M 643.5,919.5 C 643.897,918.475 644.563,918.308 645.5,919C 644.906,919.464 644.239,919.631 643.5,919.5 Z"/></g>
<g><path style="opacity:0.125" fill="#376965" d="M 555.5,919.5 C 556.449,918.848 557.615,918.514 559,918.5C 567.297,919.668 575.464,920.668 583.5,921.5C 583.5,921.833 583.5,922.167 583.5,922.5C 580.881,922.232 578.381,922.565 576,923.5C 569.456,921.391 562.623,920.058 555.5,919.5 Z"/></g>
<g><path style="opacity:0.004" fill="#51928e" d="M 567.5,922.5 C 568.833,923.167 568.833,923.167 567.5,922.5 Z"/></g>
<g><path style="opacity:0.016" fill="#51928e" d="M 569.5,922.5 C 570.833,923.167 570.833,923.167 569.5,922.5 Z"/></g>
<g><path style="opacity:0.004" fill="#539592" d="M 573.5,922.5 C 574.833,923.167 574.833,923.167 573.5,922.5 Z"/></g>
<g><path style="opacity:0.008" fill="#52948f" d="M 580.5,923.5 C 581.833,924.167 581.833,924.167 580.5,923.5 Z"/></g>
<g><path style="opacity:0.008" fill="#51948e" d="M 609.5,923.5 C 610.833,924.167 610.833,924.167 609.5,923.5 Z"/></g>
</svg>
