<?xml version="1.0" encoding="UTF-8"?>
<!DOCTYPE svg PUBLIC "-//W3C//DTD SVG 1.1//EN" "http://www.w3.org/Graphics/SVG/1.1/DTD/svg11.dtd">
<svg xmlns="http://www.w3.org/2000/svg" version="1.1" width="1024px" height="1024px" style="shape-rendering:geometricPrecision; text-rendering:geometricPrecision; image-rendering:optimizeQuality; fill-rule:evenodd; clip-rule:evenodd" xmlns:xlink="http://www.w3.org/1999/xlink">
<g><path style="opacity:0.004" fill="#2b879a" d="M 436.5,128.5 C 437.833,129.167 437.833,129.167 436.5,128.5 Z"/></g>
<g><path style="opacity:0.997" fill="#1e94b0" d="M 360.5,125.5 C 363.012,124.133 365.345,124.466 367.5,126.5C 366.761,126.369 366.094,126.536 365.5,127C 368.171,128.25 370.337,130.083 372,132.5C 372.412,139.525 373.079,146.525 374,153.5C 374.499,149.514 374.666,145.514 374.5,141.5C 375.486,145.97 375.819,150.637 375.5,155.5C 374.167,159.5 374.167,163.5 375.5,167.5C 375.626,177.849 376.126,188.182 377,198.5C 377.333,198.833 377.667,199.167 378,199.5C 378.495,197.527 378.662,195.527 378.5,193.5C 379.167,194.5 379.833,195.5 380.5,196.5C 379.588,197.738 379.421,199.072 380,200.5C 392.852,175.962 406.352,151.795 420.5,128C 432.811,125.644 437.644,130.477 435,142.5C 430.833,150.167 426.667,157.833 422.5,165.5C 422.624,166.107 422.957,166.44 423.5,166.5C 423.34,168.153 422.674,169.486 421.5,170.5C 421.607,168.621 421.107,168.288 420,169.5C 406.986,192.865 393.986,216.199 381,239.5C 380.439,253.347 381.772,267.013 385,280.5C 385.49,279.207 385.657,277.873 385.5,276.5C 386.451,277.919 386.784,279.585 386.5,281.5C 385.632,284.327 385.632,287.327 386.5,290.5C 384.261,288.795 381.761,287.462 379,286.5C 377.667,289.167 376.333,291.833 375,294.5C 373.992,294.018 372.825,293.852 371.5,294C 370.663,292.989 370.33,291.822 370.5,290.5C 368.876,290.64 367.71,289.973 367,288.5C 366.601,288.728 366.435,289.062 366.5,289.5C 366.167,289.5 365.833,289.5 365.5,289.5C 364.786,281.763 363.619,274.096 362,266.5C 361.51,267.793 361.343,269.127 361.5,270.5C 360.549,269.081 360.216,267.415 360.5,265.5C 361.156,264.378 361.489,263.045 361.5,261.5C 361.239,255.292 360.072,249.292 358,243.5C 333.893,212.061 310.56,180.061 288,147.5C 286.431,142.375 287.931,138.541 292.5,136C 296.261,135.262 299.928,135.595 303.5,137C 320.366,159.234 336.866,181.734 353,204.5C 355.179,205.84 355.679,205.507 354.5,203.5C 355.434,202.432 355.768,201.099 355.5,199.5C 356.268,200.263 356.768,201.263 357,202.5C 356.913,197.527 356.579,192.527 356,187.5C 355.501,191.152 355.335,194.818 355.5,198.5C 354.517,194.702 354.183,190.702 354.5,186.5C 355.165,183.016 355.499,179.349 355.5,175.5C 354.002,160.862 353.502,146.195 354,131.5C 356.672,128.16 360.172,126.326 364.5,126C 363.207,125.51 361.873,125.343 360.5,125.5 Z"/></g>
<g><path style="opacity:1" fill="#187182" d="M 367.5,126.5 C 373.787,129.415 376.12,134.415 374.5,141.5C 374.666,145.514 374.499,149.514 374,153.5C 373.079,146.525 372.412,139.525 372,132.5C 370.337,130.083 368.171,128.25 365.5,127C 366.094,126.536 366.761,126.369 367.5,126.5 Z"/></g>
<g><path style="opacity:0.004" fill="#2b8ea2" d="M 312.5,143.5 C 313.833,144.167 313.833,144.167 312.5,143.5 Z"/></g>
<g><path style="opacity:0.004" fill="#288a9d" d="M 435.5,146.5 C 436.833,147.167 436.833,147.167 435.5,146.5 Z"/></g>
<g><path style="opacity:0.004" fill="#298da2" d="M 434.5,149.5 C 435.833,150.167 435.833,150.167 434.5,149.5 Z"/></g>
<g><path style="opacity:1" fill="#1b7586" d="M 360.5,125.5 C 361.873,125.343 363.207,125.51 364.5,126C 360.172,126.326 356.672,128.16 354,131.5C 353.502,146.195 354.002,160.862 355.5,175.5C 355.499,179.349 355.165,183.016 354.5,186.5C 353.102,169.292 351.769,152.125 350.5,135C 351.726,129.607 355.06,126.44 360.5,125.5 Z"/></g>
<g><path style="opacity:0.004" fill="#2a8da1" d="M 290.5,156.5 C 289.833,157.167 289.833,157.167 290.5,156.5 Z"/></g>
<g><path style="opacity:0.004" fill="#2a91a6" d="M 290.5,158.5 C 291.833,159.167 291.833,159.167 290.5,158.5 Z"/></g>
<g><path style="opacity:0.004" fill="#2791a7" d="M 429.5,158.5 C 430.833,159.167 430.833,159.167 429.5,158.5 Z"/></g>
<g><path style="opacity:1" fill="#1a707f" d="M 435.5,146.5 C 431.5,153.167 427.5,159.833 423.5,166.5C 422.957,166.44 422.624,166.107 422.5,165.5C 426.667,157.833 430.833,150.167 435,142.5C 437.644,130.477 432.811,125.644 420.5,128C 406.352,151.795 392.852,175.962 380,200.5C 379.421,199.072 379.588,197.738 380.5,196.5C 383.833,189.833 387.167,183.167 390.5,176.5C 399.226,161.39 407.726,146.057 416,130.5C 421.657,123.617 427.991,122.951 435,128.5C 436.943,130.99 438.109,133.823 438.5,137C 437.794,140.285 436.794,143.452 435.5,146.5 Z"/></g>
<g><path style="opacity:0.792" fill="#207d8f" d="M 375.5,155.5 C 376.272,159.452 376.605,163.452 376.5,167.5C 376.167,167.5 375.833,167.5 375.5,167.5C 374.167,163.5 374.167,159.5 375.5,155.5 Z"/></g>
<g><path style="opacity:0.004" fill="#2695ab" d="M 333.5,167.5 C 334.833,168.167 334.833,168.167 333.5,167.5 Z"/></g>
<g><path style="opacity:0.004" fill="#2a8fa7" d="M 300.5,170.5 C 299.833,171.167 299.833,171.167 300.5,170.5 Z"/></g>
<g><path style="opacity:0.004" fill="#2696ae" d="M 390.5,176.5 C 389.833,175.167 389.833,175.167 390.5,176.5 Z"/></g>
<g><path style="opacity:0.008" fill="#2893a8" d="M 306.5,178.5 C 305.833,179.167 305.833,179.167 306.5,178.5 Z"/></g>
<g><path style="opacity:0.004" fill="#2791a7" d="M 303.5,180.5 C 304.833,181.167 304.833,181.167 303.5,180.5 Z"/></g>
<g><path style="opacity:0.004" fill="#2991a9" d="M 309.5,182.5 C 308.833,183.167 308.833,183.167 309.5,182.5 Z"/></g>
<g><path style="opacity:0.004" fill="#2796ad" d="M 341.5,182.5 C 342.833,183.167 342.833,183.167 341.5,182.5 Z"/></g>
<g><path style="opacity:0.992" fill="#1b7181" d="M 312.5,144.5 C 326.525,164.185 340.525,183.851 354.5,203.5C 355.679,205.507 355.179,205.84 353,204.5C 336.866,181.734 320.366,159.234 303.5,137C 299.928,135.595 296.261,135.262 292.5,136C 287.931,138.541 286.431,142.375 288,147.5C 310.56,180.061 333.893,212.061 358,243.5C 360.072,249.292 361.239,255.292 361.5,261.5C 361.489,263.045 361.156,264.378 360.5,265.5C 359.44,260.585 358.606,255.585 358,250.5C 357.76,248.148 356.927,246.148 355.5,244.5C 354.974,242.77 353.974,241.436 352.5,240.5C 347.653,232.804 342.32,225.471 336.5,218.5C 335.974,216.77 334.974,215.436 333.5,214.5C 332.974,212.77 331.974,211.436 330.5,210.5C 323.975,200.771 316.975,191.437 309.5,182.5C 309.262,180.596 308.262,179.262 306.5,178.5C 305.471,175.109 303.471,172.443 300.5,170.5C 297.655,165.473 294.321,160.806 290.5,156.5C 288.155,152.637 286.488,148.471 285.5,144C 287.354,135.074 292.688,131.74 301.5,134C 302.833,134.667 304.167,135.333 305.5,136C 307.698,139.023 310.031,141.856 312.5,144.5 Z"/></g>
<g><path style="opacity:0.004" fill="#2895ab" d="M 412.5,188.5 C 413.833,189.167 413.833,189.167 412.5,188.5 Z"/></g>
<g><path style="opacity:0.004" fill="#2596ae" d="M 379.5,189.5 C 380.833,190.167 380.833,190.167 379.5,189.5 Z"/></g>
<g><path style="opacity:1" fill="#0e5360" d="M 355.5,199.5 C 355.5,199.167 355.5,198.833 355.5,198.5C 355.335,194.818 355.501,191.152 356,187.5C 356.579,192.527 356.913,197.527 357,202.5C 356.768,201.263 356.268,200.263 355.5,199.5 Z"/></g>
<g><path style="opacity:0.008" fill="#2598b1" d="M 351.5,192.5 C 352.833,193.167 352.833,193.167 351.5,192.5 Z"/></g>
<g><path style="opacity:0.004" fill="#2899b1" d="M 352.5,196.5 C 353.833,197.167 353.833,197.167 352.5,196.5 Z"/></g>
<g><path style="opacity:0.998" fill="#197484" d="M 375.5,167.5 C 375.833,167.5 376.167,167.5 376.5,167.5C 377.73,176.329 378.397,184.996 378.5,193.5C 378.662,195.527 378.495,197.527 378,199.5C 377.667,199.167 377.333,198.833 377,198.5C 376.126,188.182 375.626,177.849 375.5,167.5 Z"/></g>
<g><path style="opacity:0.004" fill="#2891ab" d="M 406.5,198.5 C 407.833,199.167 407.833,199.167 406.5,198.5 Z"/></g>
<g><path style="opacity:0.012" fill="#2794ac" d="M 320.5,199.5 C 321.833,200.167 321.833,200.167 320.5,199.5 Z"/></g>
<g><path style="opacity:0.004" fill="#2892aa" d="M 320.5,200.5 C 320.5,200.833 320.5,201.167 320.5,201.5C 319.83,201.019 319.83,200.685 320.5,200.5 Z"/></g>
<g><path style="opacity:0.004" fill="#2892aa" d="M 320.5,201.5 C 321.833,202.167 321.833,202.167 320.5,201.5 Z"/></g>
<g><path style="opacity:0.004" fill="#2995aa" d="M 325.5,206.5 C 326.833,207.167 326.833,207.167 325.5,206.5 Z"/></g>
<g><path style="opacity:0.969" fill="#1d7281" d="M 597.5,292.5 C 596.778,292.918 596.278,293.584 596,294.5C 602.299,268.43 610.133,242.764 619.5,217.5C 617.574,210.363 612.907,207.53 605.5,209C 601.074,211.998 598.241,216.165 597,221.5C 587.382,248.354 579.382,275.688 573,303.5C 572.51,302.207 572.343,300.873 572.5,299.5C 579.104,267.378 588.771,236.712 601.5,207.5C 602.086,207.709 602.586,208.043 603,208.5C 611.733,204.743 617.9,207.243 621.5,216C 613.005,241.32 605.005,266.82 597.5,292.5 Z"/></g>
<g><path style="opacity:0.008" fill="#2794a7" d="M 330.5,210.5 C 329.833,211.167 329.833,211.167 330.5,210.5 Z"/></g>
<g><path style="opacity:0.004" fill="#2792a8" d="M 333.5,214.5 C 332.833,215.167 332.833,215.167 333.5,214.5 Z"/></g>
<g><path style="opacity:0.997" fill="#1e94b0" d="M 597.5,292.5 C 597.279,295.067 596.612,297.401 595.5,299.5C 595.587,296.402 595.087,296.068 594,298.5C 593.246,302.351 592.412,306.184 591.5,310C 591.833,310.833 592.167,311.667 592.5,312.5C 592.787,311.8 593.12,311.133 593.5,310.5C 593.833,310.5 594.167,310.5 594.5,310.5C 594.56,311.043 594.893,311.376 595.5,311.5C 611.265,299.904 626.598,287.738 641.5,275C 649.222,268.945 657.222,263.278 665.5,258C 664.552,257.517 663.552,257.351 662.5,257.5C 662.5,257.167 662.5,256.833 662.5,256.5C 665.005,255.583 667.338,255.583 669.5,256.5C 668.448,256.351 667.448,256.517 666.5,257C 677.813,258.985 680.646,264.818 675,274.5C 652.833,292 630.667,309.5 608.5,327C 609.714,328.569 611.381,329.402 613.5,329.5C 636.513,327.814 659.513,325.981 682.5,324C 680.19,323.503 677.857,323.337 675.5,323.5C 677.948,322.527 680.615,322.194 683.5,322.5C 691.99,323.33 700.657,323.83 709.5,324C 713.745,328.493 714.579,333.66 712,339.5C 711.097,340.701 709.931,341.535 708.5,342C 703.833,342.667 699.167,343.333 694.5,344C 697.482,344.498 700.482,344.665 703.5,344.5C 692.04,346.205 680.373,347.205 668.5,347.5C 658.804,346.376 649.137,346.71 639.5,348.5C 619.807,349.288 600.14,350.454 580.5,352C 559.333,362.081 538.667,372.915 518.5,384.5C 516.223,384.137 515.556,383.137 516.5,381.5C 516.192,380.692 515.692,380.025 515,379.5C 514.667,380.833 514.333,382.167 514,383.5C 513.692,382.692 513.192,382.025 512.5,381.5C 512.891,382.718 512.224,383.552 510.5,384C 511.337,385.011 511.67,386.178 511.5,387.5C 510.5,387.5 509.5,387.5 508.5,387.5C 508.5,386.167 508.5,384.833 508.5,383.5C 503.479,385.601 501.979,384.268 504,379.5C 504.333,380.5 504.667,381.5 505,382.5C 505.635,381.034 506.469,379.7 507.5,378.5C 506.653,377.155 505.487,376.155 504,375.5C 503.217,373.567 503.717,372.067 505.5,371C 505.272,370.601 504.938,370.435 504.5,370.5C 524.463,358.179 545.13,346.846 566.5,336.5C 569.23,331.657 569.896,326.657 568.5,321.5C 568.205,319.265 568.539,317.265 569.5,315.5C 569.34,317.199 569.506,318.866 570,320.5C 571.684,315.08 572.184,309.746 571.5,304.5C 571.216,302.585 571.549,300.919 572.5,299.5C 572.343,300.873 572.51,302.207 573,303.5C 579.382,275.688 587.382,248.354 597,221.5C 598.241,216.165 601.074,211.998 605.5,209C 612.907,207.53 617.574,210.363 619.5,217.5C 610.133,242.764 602.299,268.43 596,294.5C 596.278,293.584 596.778,292.918 597.5,292.5 Z"/></g>
<g><path style="opacity:0.004" fill="#2c8aa1" d="M 591.5,217.5 C 592.833,218.167 592.833,218.167 591.5,217.5 Z"/></g>
<g><path style="opacity:0.004" fill="#2893aa" d="M 336.5,218.5 C 335.833,219.167 335.833,219.167 336.5,218.5 Z"/></g>
<g><path style="opacity:0.004" fill="#278ea5" d="M 395.5,218.5 C 396.833,219.167 396.833,219.167 395.5,218.5 Z"/></g>
<g><path style="opacity:0.008" fill="#2e879a" d="M 192.5,220.5 C 193.601,219.402 194.934,219.235 196.5,220C 195.207,220.49 193.873,220.657 192.5,220.5 Z"/></g>
<g><path style="opacity:0.016" fill="#2b95ac" d="M 336.5,220.5 C 337.833,221.167 337.833,221.167 336.5,220.5 Z"/></g>
<g><path style="opacity:0.004" fill="#2894ad" d="M 336.5,221.5 C 336.631,222.239 336.464,222.906 336,223.5C 335.308,222.563 335.475,221.897 336.5,221.5 Z"/></g>
<g><path style="opacity:0.004" fill="#2c8da2" d="M 592.5,222.5 C 593.833,223.167 593.833,223.167 592.5,222.5 Z"/></g>
<g><path style="opacity:0.957" fill="#1b717f" d="M 237.5,311.5 C 237.587,314.598 237.087,314.932 236,312.5C 226.243,284.889 215.91,257.555 205,230.5C 200.672,223.304 194.838,221.804 187.5,226C 185.014,230.696 184.848,235.53 187,240.5C 195.677,260.21 203.343,280.21 210,300.5C 209.722,299.584 209.222,298.918 208.5,298.5C 208.068,297.29 207.401,296.29 206.5,295.5C 206.371,293.784 206.038,292.117 205.5,290.5C 205.672,289.508 205.338,288.842 204.5,288.5C 202.347,282.2 199.68,276.2 196.5,270.5C 194.933,264.121 192.6,258.121 189.5,252.5C 187.772,247.485 185.939,242.485 184,237.5C 181.704,225.569 186.538,220.402 198.5,222C 200.421,222.36 202.088,223.194 203.5,224.5C 216.22,252.943 227.554,281.943 237.5,311.5 Z"/></g>
<g><path style="opacity:0.969" fill="#1b7483" d="M 421.5,170.5 C 418.471,176.517 415.471,182.517 412.5,188.5C 410,191.494 408,194.827 406.5,198.5C 402.329,204.838 398.663,211.504 395.5,218.5C 392.377,221.976 390.043,225.976 388.5,230.5C 384.398,234.927 382.398,240.261 382.5,246.5C 383.238,256.254 384.238,266.254 385.5,276.5C 385.657,277.873 385.49,279.207 385,280.5C 381.772,267.013 380.439,253.347 381,239.5C 393.986,216.199 406.986,192.865 420,169.5C 421.107,168.288 421.607,168.621 421.5,170.5 Z"/></g>
<g><path style="opacity:0.008" fill="#2a96ad" d="M 388.5,230.5 C 389.833,231.167 389.833,231.167 388.5,230.5 Z"/></g>
<g><path style="opacity:0.008" fill="#2b8ea2" d="M 589.5,231.5 C 590.833,232.167 590.833,232.167 589.5,231.5 Z"/></g>
<g><path style="opacity:0.997" fill="#1e94b0" d="M 237.5,311.5 C 238.738,313.214 239.405,315.214 239.5,317.5C 237.868,314.791 237.368,315.125 238,318.5C 238.763,321.47 240.263,323.97 242.5,326C 266.876,347.533 294.21,364.533 324.5,377C 325.833,377.667 327.167,377.667 328.5,377C 327.584,376.722 326.918,376.222 326.5,375.5C 328.36,376.071 330.027,376.071 331.5,375.5C 331.369,376.239 331.536,376.906 332,377.5C 335.365,373.307 338.865,369.307 342.5,365.5C 343.802,366.807 345.135,366.807 346.5,365.5C 347.685,364.147 349.019,362.98 350.5,362C 348.405,361.444 348.238,360.944 350,360.5C 351.225,360.862 352.391,361.362 353.5,362C 352.019,362.98 350.685,364.147 349.5,365.5C 351.168,370.492 350.168,374.825 346.5,378.5C 347.315,380.276 348.482,380.943 350,380.5C 350.198,382.382 350.698,384.048 351.5,385.5C 336.047,406.426 331.214,429.759 337,455.5C 337.483,454.552 337.649,453.552 337.5,452.5C 338.434,453.568 338.768,454.901 338.5,456.5C 337.861,457.097 337.528,457.93 337.5,459C 343.926,483.252 358.259,501.085 380.5,512.5C 378.174,515.135 375.841,517.802 373.5,520.5C 372.158,519.098 371.324,519.431 371,521.5C 370,520.167 369,518.833 368,517.5C 367.333,518.833 366.667,518.833 366,517.5C 360.473,520.754 360.973,523.587 367.5,526C 367.272,526.399 366.938,526.565 366.5,526.5C 354.942,520.462 344.942,512.295 336.5,502C 334.833,501.333 333.167,501.333 331.5,502C 325.327,504.588 319.327,507.421 313.5,510.5C 312.448,510.649 311.448,510.483 310.5,510C 311.833,509 311.833,508 310.5,507C 311.253,505.513 312.086,505.346 313,506.5C 313.869,503.237 315.203,502.904 317,505.5C 317.915,504.672 318.581,503.672 319,502.5C 321.064,503.591 323.231,503.758 325.5,503C 324.373,501.247 323.373,499.413 322.5,497.5C 326.407,495.435 326.074,493.935 321.5,493C 325.301,491.551 325.467,489.717 322,487.5C 321.667,488.167 321.333,488.833 321,489.5C 319.16,488.167 318.66,488.334 319.5,490C 318.874,490.75 318.374,491.584 318,492.5C 315.944,491.798 314.111,492.465 312.5,494.5C 310,493.791 307.667,493.458 305.5,493.5C 311.14,490.68 316.807,487.847 322.5,485C 321.552,484.517 320.552,484.351 319.5,484.5C 320.209,483.596 321.209,483.263 322.5,483.5C 322.5,482.5 322.5,481.5 322.5,480.5C 323.222,480.918 323.722,481.584 324,482.5C 321.802,474.073 319.302,465.74 316.5,457.5C 315.323,446.37 314.323,435.37 313.5,424.5C 313.205,422.265 313.539,420.265 314.5,418.5C 314.34,420.199 314.506,421.866 315,423.5C 316.161,415.025 318.328,406.858 321.5,399C 320.663,397.989 320.33,396.822 320.5,395.5C 308.129,391.982 296.462,386.816 285.5,380C 267.314,368.742 249.647,356.742 232.5,344C 227.615,343.535 222.948,344.035 218.5,345.5C 210.387,345.908 202.387,347.074 194.5,349C 195.793,349.49 197.127,349.657 198.5,349.5C 197.081,350.451 195.415,350.784 193.5,350.5C 192.551,349.848 191.385,349.514 190,349.5C 174.224,352.201 158.39,354.535 142.5,356.5C 132.587,356.011 129.087,351.011 132,341.5C 133.214,339.951 134.714,338.785 136.5,338C 143.484,336.574 150.484,335.24 157.5,334C 155.866,333.506 154.199,333.34 152.5,333.5C 154.607,332.532 156.941,332.198 159.5,332.5C 160.274,333.147 161.274,333.48 162.5,333.5C 167.186,332.775 171.853,331.941 176.5,331C 175.207,330.51 173.873,330.343 172.5,330.5C 175.909,329.097 179.575,328.43 183.5,328.5C 184.097,329.139 184.93,329.472 186,329.5C 192.824,328.279 199.657,327.113 206.5,326C 207.451,325.282 207.617,324.449 207,323.5C 187.763,311.269 168.263,299.436 148.5,288C 145.171,283.863 144.671,279.363 147,274.5C 151.77,271.01 156.936,270.51 162.5,273C 177.45,282.054 192.283,291.221 207,300.5C 207.464,299.906 207.631,299.239 207.5,298.5C 207.833,298.5 208.167,298.5 208.5,298.5C 209.222,298.918 209.722,299.584 210,300.5C 203.343,280.21 195.677,260.21 187,240.5C 184.848,235.53 185.014,230.696 187.5,226C 194.838,221.804 200.672,223.304 205,230.5C 215.91,257.555 226.243,284.889 236,312.5C 237.087,314.932 237.587,314.598 237.5,311.5 Z M 206.5,295.5 C 207.401,296.29 208.068,297.29 208.5,298.5C 208.167,298.5 207.833,298.5 207.5,298.5C 206.5,298.167 205.833,297.5 205.5,296.5C 206.167,296.5 206.5,296.167 206.5,295.5 Z"/></g>
<g><path style="opacity:0.004" fill="#2392aa" d="M 352.5,240.5 C 351.833,241.167 351.833,241.167 352.5,240.5 Z"/></g>
<g><path style="opacity:0.004" fill="#2491a7" d="M 614.5,240.5 C 615.833,241.167 615.833,241.167 614.5,240.5 Z"/></g>
<g><path style="opacity:0.008" fill="#2892a7" d="M 212.5,241.5 C 213.833,242.167 213.833,242.167 212.5,241.5 Z"/></g>
<g><path style="opacity:0.004" fill="#2994a9" d="M 585.5,242.5 C 586.833,243.167 586.833,243.167 585.5,242.5 Z"/></g>
<g><path style="opacity:0.004" fill="#2793aa" d="M 613.5,243.5 C 614.833,244.167 614.833,244.167 613.5,243.5 Z"/></g>
<g><path style="opacity:0.008" fill="#2794ab" d="M 352.5,244.5 C 353.833,245.167 353.833,245.167 352.5,244.5 Z"/></g>
<g><path style="opacity:0.004" fill="#2695ac" d="M 355.5,244.5 C 354.833,245.167 354.833,245.167 355.5,244.5 Z"/></g>
<g><path style="opacity:0.004" fill="#2994ab" d="M 612.5,246.5 C 613.833,247.167 613.833,247.167 612.5,246.5 Z"/></g>
<g><path style="opacity:0.004" fill="#2a92a9" d="M 583.5,248.5 C 584.833,249.167 584.833,249.167 583.5,248.5 Z"/></g>
<g><path style="opacity:0.008" fill="#2b90aa" d="M 186.5,249.5 C 187.833,250.167 187.833,250.167 186.5,249.5 Z"/></g>
<g><path style="opacity:0.008" fill="#298da3" d="M 189.5,252.5 C 188.833,253.167 188.833,253.167 189.5,252.5 Z"/></g>
<g><path style="opacity:0.008" fill="#288fa2" d="M 662.5,256.5 C 661.833,255.167 661.833,255.167 662.5,256.5 Z"/></g>
<g><path style="opacity:0.004" fill="#288fa4" d="M 660.5,257.5 C 659.833,256.167 659.833,256.167 660.5,257.5 Z"/></g>
<g><path style="opacity:0.012" fill="#2794aa" d="M 192.5,263.5 C 193.833,264.167 193.833,264.167 192.5,263.5 Z"/></g>
<g><path style="opacity:0.004" fill="#2994a9" d="M 385.5,264.5 C 386.833,265.167 386.833,265.167 385.5,264.5 Z"/></g>
<g><path style="opacity:0.004" fill="#2793aa" d="M 192.5,264.5 C 192.631,265.239 192.464,265.906 192,266.5C 191.308,265.563 191.475,264.897 192.5,264.5 Z"/></g>
<g><path style="opacity:0.004" fill="#2a93aa" d="M 576.5,265.5 C 577.833,266.167 577.833,266.167 576.5,265.5 Z"/></g>
<g><path style="opacity:0.004" fill="#2992a9" d="M 578.5,265.5 C 579.833,266.167 579.833,266.167 578.5,265.5 Z"/></g>
<g><path style="opacity:0.012" fill="#2794ab" d="M 193.5,266.5 C 194.833,267.167 194.833,267.167 193.5,266.5 Z"/></g>
<g><path style="opacity:0.004" fill="#2a92a8" d="M 576.5,266.5 C 575.833,267.167 575.833,267.167 576.5,266.5 Z"/></g>
<g><path style="opacity:0.004" fill="#2695ab" d="M 195.5,270.5 C 194.475,270.103 194.308,269.437 195,268.5C 195.464,269.094 195.631,269.761 195.5,270.5 Z"/></g>
<g><path style="opacity:0.008" fill="#2793aa" d="M 195.5,270.5 C 195.833,270.5 196.167,270.5 196.5,270.5C 196.315,271.17 195.981,271.17 195.5,270.5 Z"/></g>
<g><path style="opacity:0.99" fill="#1c7484" d="M 365.5,289.5 C 365.5,290.833 365.5,292.167 365.5,293.5C 365.167,293.5 364.833,293.5 364.5,293.5C 363.174,285.878 362.174,278.211 361.5,270.5C 361.343,269.127 361.51,267.793 362,266.5C 363.619,274.096 364.786,281.763 365.5,289.5 Z"/></g>
<g><path style="opacity:0.006" fill="#2795ac" d="M 199.5,281.5 C 200.525,281.897 200.692,282.563 200,283.5C 199.536,282.906 199.369,282.239 199.5,281.5 Z"/></g>
<g><path style="opacity:0.992" fill="#1b7383" d="M 669.5,256.5 C 676.26,257.426 679.926,260.926 680.5,267C 680.091,269.321 679.257,271.487 678,273.5C 666.336,283.066 654.836,292.733 643.5,302.5C 632.713,310.407 622.047,318.573 611.5,327C 632.401,326.162 653.235,324.662 674,322.5C 674.383,323.056 674.883,323.389 675.5,323.5C 677.857,323.337 680.19,323.503 682.5,324C 659.513,325.981 636.513,327.814 613.5,329.5C 611.381,329.402 609.714,328.569 608.5,327C 630.667,309.5 652.833,292 675,274.5C 680.646,264.818 677.813,258.985 666.5,257C 667.448,256.517 668.448,256.351 669.5,256.5 Z"/></g>
<g><path style="opacity:0.008" fill="#2796ac" d="M 626.5,284.5 C 625.833,283.167 625.833,283.167 626.5,284.5 Z"/></g>
<g><path style="opacity:0.008" fill="#2797ae" d="M 623.5,284.5 C 624.833,285.167 624.833,285.167 623.5,284.5 Z"/></g>
<g><path style="opacity:1" fill="#1a7182" d="M 660.5,257.5 C 661.167,257.5 661.833,257.5 662.5,257.5C 663.552,257.351 664.552,257.517 665.5,258C 657.222,263.278 649.222,268.945 641.5,275C 626.598,287.738 611.265,299.904 595.5,311.5C 594.893,311.376 594.56,311.043 594.5,310.5C 597.833,307.5 601.167,304.5 604.5,301.5C 612.203,296.315 619.537,290.648 626.5,284.5C 638.237,275.97 649.57,266.97 660.5,257.5 Z"/></g>
<g><path style="opacity:0.008" fill="#2894a9" d="M 192.5,287.5 C 193.833,288.167 193.833,288.167 192.5,287.5 Z"/></g>
<g><path style="opacity:0.005" fill="#2998af" d="M 202.5,288.5 C 199.397,289.797 199.063,289.464 201.5,287.5C 202.107,287.624 202.44,287.957 202.5,288.5 Z"/></g>
<g><path style="opacity:0.004" fill="#2995ae" d="M 389.5,287.5 C 390.833,288.167 390.833,288.167 389.5,287.5 Z"/></g>
<g><path style="opacity:0.004" fill="#2695ad" d="M 616.5,287.5 C 617.833,288.167 617.833,288.167 616.5,287.5 Z"/></g>
<g><path style="opacity:0.004" fill="#2a95ab" d="M 194.5,288.5 C 195.833,289.167 195.833,289.167 194.5,288.5 Z"/></g>
<g><path style="opacity:0.016" fill="#2798ae" d="M 202.5,288.5 C 203.167,288.5 203.5,288.833 203.5,289.5C 203.167,289.167 202.833,288.833 202.5,288.5 Z"/></g>
<g><path style="opacity:0.059" fill="#2ca0b8" d="M 204.5,288.5 C 205.338,288.842 205.672,289.508 205.5,290.5C 204.033,293.258 203.367,292.925 203.5,289.5C 204.167,289.5 204.5,289.167 204.5,288.5 Z"/></g>
<g><path style="opacity:0.004" fill="#2794ab" d="M 361.5,290.5 C 362.833,291.167 362.833,291.167 361.5,290.5 Z"/></g>
<g><path style="opacity:0.98" fill="#196d79" d="M 386.5,281.5 C 387.917,284.998 388.583,288.665 388.5,292.5C 388.649,293.552 388.483,294.552 388,295.5C 387.392,293.846 386.892,292.179 386.5,290.5C 385.632,287.327 385.632,284.327 386.5,281.5 Z"/></g>
<g><path style="opacity:0.004" fill="#2998b0" d="M 615.5,290.5 C 616.833,291.167 616.833,291.167 615.5,290.5 Z"/></g>
<g><path style="opacity:0.004" fill="#2898ae" d="M 200.5,292.5 C 201.833,293.167 201.833,293.167 200.5,292.5 Z"/></g>
<g><path style="opacity:0.008" fill="#2791aa" d="M 364.5,293.5 C 364.631,294.239 364.464,294.906 364,295.5C 363.308,294.563 363.475,293.897 364.5,293.5 Z"/></g>
<g><path style="opacity:0.004" fill="#2a96ae" d="M 161.5,298.5 C 160.833,299.167 160.833,299.167 161.5,298.5 Z"/></g>
<g><path style="opacity:0.992" fill="#1a727f" d="M 595.5,299.5 C 595.089,303.221 594.422,306.888 593.5,310.5C 593.12,311.133 592.787,311.8 592.5,312.5C 592.167,311.667 591.833,310.833 591.5,310C 592.412,306.184 593.246,302.351 594,298.5C 595.087,296.068 595.587,296.402 595.5,299.5 Z"/></g>
<g><path style="opacity:0.004" fill="#2997ac" d="M 160.5,300.5 C 161.833,301.167 161.833,301.167 160.5,300.5 Z"/></g>
<g><path style="opacity:0.004" fill="#2a97ab" d="M 604.5,301.5 C 603.833,300.167 603.833,300.167 604.5,301.5 Z"/></g>
<g><path style="opacity:0.004" fill="#2b95ad" d="M 236.5,302.5 C 237.833,303.167 237.833,303.167 236.5,302.5 Z"/></g>
<g><path style="opacity:0.004" fill="#2996ae" d="M 643.5,302.5 C 644.833,303.167 644.833,303.167 643.5,302.5 Z"/></g>
<g><path style="opacity:0.004" fill="#2b98af" d="M 568.5,303.5 C 569.833,304.167 569.833,304.167 568.5,303.5 Z"/></g>
<g><path style="opacity:0.004" fill="#2896ae" d="M 597.5,303.5 C 598.833,304.167 598.833,304.167 597.5,303.5 Z"/></g>
<g><path style="opacity:0.992" fill="#1b7485" d="M 192.5,288.5 C 194.822,290.664 197.489,292.331 200.5,293.5C 201.659,295.25 203.326,296.25 205.5,296.5C 205.833,297.5 206.5,298.167 207.5,298.5C 207.631,299.239 207.464,299.906 207,300.5C 192.283,291.221 177.45,282.054 162.5,273C 156.936,270.51 151.77,271.01 147,274.5C 144.671,279.363 145.171,283.863 148.5,288C 168.263,299.436 187.763,311.269 207,323.5C 207.617,324.449 207.451,325.282 206.5,326C 199.657,327.113 192.824,328.279 186,329.5C 184.93,329.472 184.097,329.139 183.5,328.5C 190.374,327.015 197.374,325.515 204.5,324C 196.778,319.477 189.112,314.977 181.5,310.5C 181.158,309.662 180.492,309.328 179.5,309.5C 174.033,305.047 168.033,301.381 161.5,298.5C 157.732,295.775 153.732,293.275 149.5,291C 143.463,286.362 141.963,280.529 145,273.5C 150.16,268.087 155.993,267.253 162.5,271C 172.391,277.109 182.391,282.942 192.5,288.5 Z"/></g>
<g><path style="opacity:0.949" fill="#1b7484" d="M 389.5,296.5 C 391.996,305.346 394.33,314.346 396.5,323.5C 396.649,324.552 396.483,325.552 396,326.5C 393.265,317.392 390.765,308.225 388.5,299C 388.528,297.93 388.861,297.097 389.5,296.5 Z"/></g>
<g><path style="opacity:1" fill="#196f7f" d="M 365.5,289.5 C 365.833,289.5 366.167,289.5 366.5,289.5C 369.157,302.294 371.99,314.96 375,327.5C 374.722,326.584 374.222,325.918 373.5,325.5C 370.21,315.006 367.543,304.34 365.5,293.5C 365.5,292.167 365.5,290.833 365.5,289.5 Z"/></g>
<g><path style="opacity:0.004" fill="#2893aa" d="M 179.5,309.5 C 178.833,310.167 178.833,310.167 179.5,309.5 Z"/></g>
<g><path style="opacity:0.004" fill="#2a97b2" d="M 181.5,310.5 C 180.833,311.167 180.833,311.167 181.5,310.5 Z"/></g>
<g><path style="opacity:0.961" fill="#1c7888" d="M 571.5,304.5 C 572.184,309.746 571.684,315.08 570,320.5C 569.506,318.866 569.34,317.199 569.5,315.5C 569.251,311.542 569.918,307.876 571.5,304.5 Z"/></g>
<g><path style="opacity:0.004" fill="#2799b0" d="M 189.5,317.5 C 190.833,318.167 190.833,318.167 189.5,317.5 Z"/></g>
<g><path style="opacity:0.004" fill="#2996ac" d="M 245.5,319.5 C 246.833,320.167 246.833,320.167 245.5,319.5 Z"/></g>
<g><path style="opacity:0.004" fill="#2b95ad" d="M 369.5,318.5 C 370.525,318.897 370.692,319.563 370,320.5C 369.536,319.906 369.369,319.239 369.5,318.5 Z"/></g>
<g><path style="opacity:0.004" fill="#2a98ae" d="M 638.5,319.5 C 639.833,320.167 639.833,320.167 638.5,319.5 Z"/></g>
<g><path style="opacity:0.004" fill="#2793a8" d="M 693.5,319.5 C 694.833,320.167 694.833,320.167 693.5,319.5 Z"/></g>
<g><path style="opacity:0.004" fill="#2995ac" d="M 622.5,320.5 C 623.833,321.167 623.833,321.167 622.5,320.5 Z"/></g>
<g><path style="opacity:0.033" fill="#33a4ba" d="M 707.5,321.5 C 703.5,321.5 699.5,321.5 695.5,321.5C 695.783,320.711 696.283,320.044 697,319.5C 700.603,320.135 704.103,320.802 707.5,321.5 Z"/></g>
<g><path style="opacity:0.004" fill="#2c99b0" d="M 655.5,322.5 C 656.833,323.167 656.833,323.167 655.5,322.5 Z"/></g>
<g><path style="opacity:1" fill="#1f7381" d="M 695.5,321.5 C 699.5,321.5 703.5,321.5 707.5,321.5C 713.013,323.02 716.013,326.687 716.5,332.5C 715.976,340.693 711.642,344.693 703.5,344.5C 700.482,344.665 697.482,344.498 694.5,344C 699.167,343.333 703.833,342.667 708.5,342C 709.931,341.535 711.097,340.701 712,339.5C 714.579,333.66 713.745,328.493 709.5,324C 700.657,323.83 691.99,323.33 683.5,322.5C 687.452,321.728 691.452,321.395 695.5,321.5 Z"/></g>
<g><path style="opacity:0.004" fill="#2899b0" d="M 192.5,324.5 C 193.833,325.167 193.833,325.167 192.5,324.5 Z"/></g>
<g><path style="opacity:0.012" fill="#2996ae" d="M 371.5,326.5 C 372.833,327.167 372.833,327.167 371.5,326.5 Z"/></g>
<g><path style="opacity:0.012" fill="#2799af" d="M 173.5,327.5 C 174.833,328.167 174.833,328.167 173.5,327.5 Z"/></g>
<g><path style="opacity:0.004" fill="#2b96ab" d="M 175.5,327.5 C 176.833,328.167 176.833,328.167 175.5,327.5 Z"/></g>
<g><path style="opacity:1" fill="#186c7c" d="M 172.5,330.5 C 173.873,330.343 175.207,330.51 176.5,331C 171.853,331.941 167.186,332.775 162.5,333.5C 161.274,333.48 160.274,333.147 159.5,332.5C 163.618,331.291 167.951,330.624 172.5,330.5 Z"/></g>
<g><path style="opacity:0.953" fill="#1b7688" d="M 398.5,328.5 C 399.234,329.708 399.567,331.041 399.5,332.5C 419.379,330.487 438.712,332.821 457.5,339.5C 466.073,344.067 474.406,349.067 482.5,354.5C 488.177,359.178 493.177,364.511 497.5,370.5C 497.44,371.043 497.107,371.376 496.5,371.5C 482.259,354.207 464.259,342.707 442.5,337C 427.897,335.146 413.23,333.979 398.5,333.5C 397.071,331.669 396.571,329.669 397,327.5C 397.383,328.056 397.883,328.389 398.5,328.5 Z"/></g>
<g><path style="opacity:0.008" fill="#2690a9" d="M 259.5,335.5 C 260.833,336.167 260.833,336.167 259.5,335.5 Z"/></g>
<g><path style="opacity:0.004" fill="#2f9bb3" d="M 560.5,336.5 C 559.833,335.167 559.833,335.167 560.5,336.5 Z"/></g>
<g><path style="opacity:0.004" fill="#2a93aa" d="M 457.5,338.5 C 458.833,339.167 458.833,339.167 457.5,338.5 Z"/></g>
<g><path style="opacity:0.004" fill="#2c96ab" d="M 553.5,338.5 C 554.833,339.167 554.833,339.167 553.5,338.5 Z"/></g>
<g><path style="opacity:0.008" fill="#2c8593" d="M 715.5,338.5 C 716.833,339.167 716.833,339.167 715.5,338.5 Z"/></g>
<g><path style="opacity:0.004" fill="#2e8697" d="M 128.5,343.5 C 127.833,342.167 127.833,342.167 128.5,343.5 Z"/></g>
<g><path style="opacity:0.016" fill="#2d98ad" d="M 545.5,344.5 C 544.833,343.167 544.833,343.167 545.5,344.5 Z"/></g>
<g><path style="opacity:1" fill="#1a7383" d="M 568.5,321.5 C 569.896,326.657 569.23,331.657 566.5,336.5C 545.13,346.846 524.463,358.179 504.5,370.5C 503.417,370.539 502.417,370.873 501.5,371.5C 500.537,371.03 500.537,370.363 501.5,369.5C 515.065,361.688 529.065,353.688 543.5,345.5C 544.492,345.672 545.158,345.338 545.5,344.5C 550.984,342.593 555.984,339.927 560.5,336.5C 562.679,336.16 564.512,335.16 566,333.5C 566.943,329.504 567.776,325.504 568.5,321.5 Z"/></g>
<g><path style="opacity:1" fill="#1b7282" d="M 314.5,418.5 C 314.939,412.304 316.273,406.304 318.5,400.5C 318.376,399.893 318.043,399.56 317.5,399.5C 317.918,398.778 318.584,398.278 319.5,398C 317.975,396.991 316.308,396.491 314.5,396.5C 307.911,393.518 301.244,390.518 294.5,387.5C 281.841,379.837 269.175,372.17 256.5,364.5C 251.473,360.147 246.14,356.147 240.5,352.5C 234.898,346.251 227.565,344.251 218.5,346.5C 218.5,346.167 218.5,345.833 218.5,345.5C 222.948,344.035 227.615,343.535 232.5,344C 249.647,356.742 267.314,368.742 285.5,380C 296.462,386.816 308.129,391.982 320.5,395.5C 320.33,396.822 320.663,397.989 321.5,399C 318.328,406.858 316.161,415.025 315,423.5C 314.506,421.866 314.34,420.199 314.5,418.5 Z"/></g>
<g><path style="opacity:0.004" fill="#2894a9" d="M 543.5,345.5 C 542.833,344.167 542.833,344.167 543.5,345.5 Z"/></g>
<g><path style="opacity:1" fill="#1a7080" d="M 218.5,345.5 C 218.5,345.833 218.5,346.167 218.5,346.5C 211.935,347.927 205.268,348.927 198.5,349.5C 197.127,349.657 195.793,349.49 194.5,349C 202.387,347.074 210.387,345.908 218.5,345.5 Z"/></g>
<g><path style="opacity:1" fill="#196a77" d="M 668.5,347.5 C 662.879,348.354 657.212,348.687 651.5,348.5C 647.5,348.5 643.5,348.5 639.5,348.5C 649.137,346.71 658.804,346.376 668.5,347.5 Z"/></g>
<g><path style="opacity:0.004" fill="#2892a9" d="M 672.5,348.5 C 673.833,349.167 673.833,349.167 672.5,348.5 Z"/></g>
<g><path style="opacity:0.008" fill="#2997ae" d="M 207.5,349.5 C 208.833,350.167 208.833,350.167 207.5,349.5 Z"/></g>
<g><path style="opacity:0.004" fill="#2b95ad" d="M 221.5,349.5 C 222.833,350.167 222.833,350.167 221.5,349.5 Z"/></g>
<g><path style="opacity:0.01" fill="#2b94ab" d="M 231.5,349.5 C 232.525,349.897 232.692,350.563 232,351.5C 231.536,350.906 231.369,350.239 231.5,349.5 Z"/></g>
<g><path style="opacity:0.012" fill="#2791a7" d="M 658.5,350.5 C 658.897,349.475 659.563,349.308 660.5,350C 659.906,350.464 659.239,350.631 658.5,350.5 Z"/></g>
<g><path style="opacity:0.004" fill="#2a92a8" d="M 667.5,349.5 C 668.833,350.167 668.833,350.167 667.5,349.5 Z"/></g>
<g><path style="opacity:0.004" fill="#2996ae" d="M 203.5,351.5 C 203.897,350.475 204.563,350.308 205.5,351C 204.906,351.464 204.239,351.631 203.5,351.5 Z"/></g>
<g><path style="opacity:0.006" fill="#2993ac" d="M 643.5,351.5 C 643.897,350.475 644.563,350.308 645.5,351C 644.906,351.464 644.239,351.631 643.5,351.5 Z"/></g>
<g><path style="opacity:0.004" fill="#2892a9" d="M 240.5,352.5 C 239.833,353.167 239.833,353.167 240.5,352.5 Z"/></g>
<g><path style="opacity:0.004" fill="#2a92a8" d="M 482.5,353.5 C 483.833,354.167 483.833,354.167 482.5,353.5 Z"/></g>
<g><path style="opacity:0.004" fill="#2d8799" d="M 130.5,354.5 C 129.833,355.167 129.833,355.167 130.5,354.5 Z"/></g>
<g><path style="opacity:0.004" fill="#2c95aa" d="M 177.5,354.5 C 178.833,355.167 178.833,355.167 177.5,354.5 Z"/></g>
<g><path style="opacity:0.89" fill="#1d7686" d="M 639.5,348.5 C 643.5,348.5 647.5,348.5 651.5,348.5C 628.003,350.568 604.336,352.401 580.5,354C 568.17,359.162 556.504,365.329 545.5,372.5C 534.833,378.167 524.167,383.833 513.5,389.5C 512.761,389.631 512.094,389.464 511.5,389C 513.898,387.476 516.231,385.976 518.5,384.5C 538.667,372.915 559.333,362.081 580.5,352C 600.14,350.454 619.807,349.288 639.5,348.5 Z"/></g>
<g><path style="opacity:0.963" fill="#1d707f" d="M 152.5,333.5 C 154.199,333.34 155.866,333.506 157.5,334C 150.484,335.24 143.484,336.574 136.5,338C 134.714,338.785 133.214,339.951 132,341.5C 129.087,351.011 132.587,356.011 142.5,356.5C 158.39,354.535 174.224,352.201 190,349.5C 191.385,349.514 192.551,349.848 193.5,350.5C 174.709,354.521 155.709,357.021 136.5,358C 134.308,357.074 132.308,355.907 130.5,354.5C 128.908,351.034 128.242,347.367 128.5,343.5C 129.983,339.853 132.65,337.353 136.5,336C 141.792,334.84 147.125,334.007 152.5,333.5 Z"/></g>
<g><path style="opacity:0.953" fill="#1d7888" d="M 407.5,353.5 C 408.919,354.451 410.585,354.784 412.5,354.5C 369.587,360.243 344.421,384.576 337,427.5C 336.427,435.849 336.593,444.182 337.5,452.5C 337.649,453.552 337.483,454.552 337,455.5C 331.214,429.759 336.047,406.426 351.5,385.5C 365.592,367.112 384.259,356.446 407.5,353.5 Z"/></g>
<g><path style="opacity:0.98" fill="#197080" d="M 342.5,365.5 C 338.865,369.307 335.365,373.307 332,377.5C 331.536,376.906 331.369,376.239 331.5,375.5C 338.641,364.86 347.641,356.027 358.5,349C 364.833,345.5 371.167,342 377.5,338.5C 376.518,335.904 375.851,333.238 375.5,330.5C 375.369,329.761 375.536,329.094 376,328.5C 378.455,332.186 379.455,336.186 379,340.5C 364.977,346.251 352.811,354.584 342.5,365.5 Z"/></g>
<g><path style="opacity:0.004" fill="#2994a9" d="M 562.5,363.5 C 563.833,364.167 563.833,364.167 562.5,363.5 Z"/></g>
<g><path style="opacity:0.012" fill="#2b96ae" d="M 256.5,364.5 C 255.833,365.167 255.833,365.167 256.5,364.5 Z"/></g>
<g><path style="opacity:0.008" fill="#2a92a9" d="M 560.5,364.5 C 561.833,365.167 561.833,365.167 560.5,364.5 Z"/></g>
<g><path style="opacity:0.945" fill="#1a7283" d="M 239.5,317.5 C 241.109,320.53 243.109,323.363 245.5,326C 250.345,329.356 255.012,332.856 259.5,336.5C 279.538,353.153 301.871,366.153 326.5,375.5C 326.918,376.222 327.584,376.722 328.5,377C 327.167,377.667 325.833,377.667 324.5,377C 294.21,364.533 266.876,347.533 242.5,326C 240.263,323.97 238.763,321.47 238,318.5C 237.368,315.125 237.868,314.791 239.5,317.5 Z"/></g>
<g><path style="opacity:0.997" fill="#1e95b0" d="M 386.5,290.5 C 386.892,292.179 387.392,293.846 388,295.5C 388.483,294.552 388.649,293.552 388.5,292.5C 389.434,293.568 389.768,294.901 389.5,296.5C 388.861,297.097 388.528,297.93 388.5,299C 390.765,308.225 393.265,317.392 396,326.5C 396.483,325.552 396.649,324.552 396.5,323.5C 397.537,324.93 398.204,326.597 398.5,328.5C 397.883,328.389 397.383,328.056 397,327.5C 396.571,329.669 397.071,331.669 398.5,333.5C 413.23,333.979 427.897,335.146 442.5,337C 464.259,342.707 482.259,354.207 496.5,371.5C 497.107,371.376 497.44,371.043 497.5,370.5C 498.708,369.766 500.041,369.433 501.5,369.5C 500.537,370.363 500.537,371.03 501.5,371.5C 502.417,370.873 503.417,370.539 504.5,370.5C 504.938,370.435 505.272,370.601 505.5,371C 503.717,372.067 503.217,373.567 504,375.5C 505.487,376.155 506.653,377.155 507.5,378.5C 506.469,379.7 505.635,381.034 505,382.5C 504.667,381.5 504.333,380.5 504,379.5C 501.979,384.268 503.479,385.601 508.5,383.5C 508.5,384.833 508.5,386.167 508.5,387.5C 509.5,387.5 510.5,387.5 511.5,387.5C 511.67,386.178 511.337,385.011 510.5,384C 512.224,383.552 512.891,382.718 512.5,381.5C 513.192,382.025 513.692,382.692 514,383.5C 514.333,382.167 514.667,380.833 515,379.5C 515.692,380.025 516.192,380.692 516.5,381.5C 515.556,383.137 516.223,384.137 518.5,384.5C 516.231,385.976 513.898,387.476 511.5,389C 512.094,389.464 512.761,389.631 513.5,389.5C 512.449,390.222 511.782,391.222 511.5,392.5C 510.778,392.082 510.278,391.416 510,390.5C 509.833,391 509.667,391.5 509.5,392C 513.336,400.508 516.169,409.341 518,418.5C 518.49,417.207 518.657,415.873 518.5,414.5C 519.451,415.919 519.784,417.585 519.5,419.5C 518.506,428.652 518.173,437.985 518.5,447.5C 516.474,468.257 508.808,486.591 495.5,502.5C 510.673,521.013 528.006,537.013 547.5,550.5C 547.631,551.239 547.464,551.906 547,552.5C 544.585,551.986 543.251,550.986 543,549.5C 541.278,549.611 541.112,550.111 542.5,551C 540.167,551.333 537.833,551.667 535.5,552C 536.167,553 536.833,554 537.5,555C 536.333,555.5 535.5,556.333 535,557.5C 533.467,557.056 531.967,556.723 530.5,556.5C 529.575,557.357 528.908,558.357 528.5,559.5C 510.701,547.378 494.701,533.044 480.5,516.5C 456.34,534.221 429.34,542.221 399.5,540.5C 397.585,540.784 395.919,540.451 394.5,539.5C 395.552,539.649 396.552,539.483 397.5,539C 386.176,536.995 375.843,532.829 366.5,526.5C 366.938,526.565 367.272,526.399 367.5,526C 360.973,523.587 360.473,520.754 366,517.5C 366.667,518.833 367.333,518.833 368,517.5C 369,518.833 370,520.167 371,521.5C 371.324,519.431 372.158,519.098 373.5,520.5C 375.841,517.802 378.174,515.135 380.5,512.5C 393.627,518.031 407.294,520.198 421.5,519C 417.312,518.824 413.312,518.324 409.5,517.5C 415.863,517.593 422.196,517.26 428.5,516.5C 427.737,517.268 426.737,517.768 425.5,518C 455.87,514.306 478.036,498.806 492,471.5C 500.053,453.895 501.553,435.895 496.5,417.5C 488.655,385.818 468.988,365.318 437.5,356C 435.613,355.22 433.946,355.387 432.5,356.5C 430.901,356.768 429.568,356.434 428.5,355.5C 429.552,355.649 430.552,355.483 431.5,355C 423.571,353.637 415.571,353.137 407.5,353.5C 384.259,356.446 365.592,367.112 351.5,385.5C 350.698,384.048 350.198,382.382 350,380.5C 348.482,380.943 347.315,380.276 346.5,378.5C 350.168,374.825 351.168,370.492 349.5,365.5C 350.685,364.147 352.019,362.98 353.5,362C 352.391,361.362 351.225,360.862 350,360.5C 348.238,360.944 348.405,361.444 350.5,362C 349.019,362.98 347.685,364.147 346.5,365.5C 345.135,366.807 343.802,366.807 342.5,365.5C 352.811,354.584 364.977,346.251 379,340.5C 379.455,336.186 378.455,332.186 376,328.5C 375.536,329.094 375.369,329.761 375.5,330.5C 374.069,329.22 373.402,327.553 373.5,325.5C 374.222,325.918 374.722,326.584 375,327.5C 371.99,314.96 369.157,302.294 366.5,289.5C 366.435,289.062 366.601,288.728 367,288.5C 367.71,289.973 368.876,290.64 370.5,290.5C 370.33,291.822 370.663,292.989 371.5,294C 372.825,293.852 373.992,294.018 375,294.5C 376.333,291.833 377.667,289.167 379,286.5C 381.761,287.462 384.261,288.795 386.5,290.5 Z"/></g>
<g><path style="opacity:0.976" fill="#1a6672" d="M 407.5,353.5 C 415.571,353.137 423.571,353.637 431.5,355C 430.552,355.483 429.552,355.649 428.5,355.5C 423.12,355.676 417.787,355.342 412.5,354.5C 410.585,354.784 408.919,354.451 407.5,353.5 Z"/></g>
<g><path style="opacity:0.004" fill="#2892ac" d="M 255.5,366.5 C 256.833,367.167 256.833,367.167 255.5,366.5 Z"/></g>
<g><path style="opacity:0.004" fill="#2892a7" d="M 545.5,372.5 C 546.833,373.167 546.833,373.167 545.5,372.5 Z"/></g>
<g><path style="opacity:0.004" fill="#2993a7" d="M 550.5,372.5 C 551.833,373.167 551.833,373.167 550.5,372.5 Z"/></g>
<g><path style="opacity:0.996" fill="#1c7585" d="M 432.5,356.5 C 433.946,355.387 435.613,355.22 437.5,356C 468.988,365.318 488.655,385.818 496.5,417.5C 496.5,418.833 496.5,420.167 496.5,421.5C 487.985,387.318 466.652,365.651 432.5,356.5 Z"/></g>
<g><path style="opacity:0.004" fill="#2893ab" d="M 294.5,387.5 C 294.103,388.525 293.437,388.692 292.5,388C 293.094,387.536 293.761,387.369 294.5,387.5 Z"/></g>
<g><path style="opacity:0.004" fill="#2b97ad" d="M 512.5,391.5 C 513.833,392.167 513.833,392.167 512.5,391.5 Z"/></g>
<g><path style="opacity:0.006" fill="#2997ad" d="M 311.5,396.5 C 312.525,396.897 312.692,397.563 312,398.5C 311.536,397.906 311.369,397.239 311.5,396.5 Z"/></g>
<g><path style="opacity:0.016" fill="#2794aa" d="M 314.5,396.5 C 314.5,396.833 314.5,397.167 314.5,397.5C 313.83,397.019 313.83,396.685 314.5,396.5 Z"/></g>
<g><path style="opacity:0.004" fill="#2b97ab" d="M 314.5,397.5 C 315.833,398.167 315.833,398.167 314.5,397.5 Z"/></g>
<g><path style="opacity:0.004" fill="#2b96af" d="M 317.5,399.5 C 316.833,400.167 316.833,400.167 317.5,399.5 Z"/></g>
<g><path style="opacity:0.98" fill="#1b7180" d="M 511.5,392.5 C 515.373,399.318 517.706,406.651 518.5,414.5C 518.657,415.873 518.49,417.207 518,418.5C 516.169,409.341 513.336,400.508 509.5,392C 509.667,391.5 509.833,391 510,390.5C 510.278,391.416 510.778,392.082 511.5,392.5 Z"/></g>
<g><path style="opacity:0.004" fill="#2c96aa" d="M 314.5,405.5 C 315.833,406.167 315.833,406.167 314.5,405.5 Z"/></g>
<g><path style="opacity:0.004" fill="#2997ae" d="M 312.5,413.5 C 313.833,414.167 313.833,414.167 312.5,413.5 Z"/></g>
<g><path style="opacity:0.004" fill="#2996ad" d="M 311.5,420.5 C 312.833,421.167 312.833,421.167 311.5,420.5 Z"/></g>
<g><path style="opacity:0.997" fill="#1c7180" d="M 313.5,424.5 C 314.323,435.37 315.323,446.37 316.5,457.5C 316.167,457.5 315.833,457.5 315.5,457.5C 315.768,455.901 315.434,454.568 314.5,453.5C 312.598,443.882 312.265,434.215 313.5,424.5 Z"/></g>
<g><path style="opacity:0.994" fill="#1e8296" d="M 519.5,419.5 C 520.369,421.717 520.702,424.05 520.5,426.5C 519.167,432.833 519.167,439.167 520.5,445.5C 520.795,447.735 520.461,449.735 519.5,451.5C 519.768,449.901 519.434,448.568 518.5,447.5C 518.173,437.985 518.506,428.652 519.5,419.5 Z"/></g>
<g><path style="opacity:0.992" fill="#206e78" d="M 520.5,426.5 C 521.779,432.841 521.779,439.174 520.5,445.5C 519.167,439.167 519.167,432.833 520.5,426.5 Z"/></g>
<g><path style="opacity:0.008" fill="#2995ac" d="M 313.5,456.5 C 312.833,455.167 312.833,455.167 313.5,456.5 Z"/></g>
<g><path style="opacity:0.012" fill="#30a4bd" d="M 314.5,453.5 C 315.434,454.568 315.768,455.901 315.5,457.5C 314.508,457.672 313.842,457.338 313.5,456.5C 314.404,455.791 314.737,454.791 314.5,453.5 Z"/></g>
<g><path style="opacity:0.008" fill="#2a96ad" d="M 313.5,459.5 C 314.833,460.167 314.833,460.167 313.5,459.5 Z"/></g>
<g><path style="opacity:0.008" fill="#2a96ab" d="M 311.5,464.5 C 312.833,465.167 312.833,465.167 311.5,464.5 Z"/></g>
<g><path style="opacity:0.988" fill="#1b7484" d="M 315.5,457.5 C 315.833,457.5 316.167,457.5 316.5,457.5C 319.302,465.74 321.802,474.073 324,482.5C 323.722,481.584 323.222,480.918 322.5,480.5C 318.792,473.356 316.459,465.689 315.5,457.5 Z"/></g>
<g><path style="opacity:1" fill="#1a707e" d="M 496.5,417.5 C 501.553,435.895 500.053,453.895 492,471.5C 478.036,498.806 455.87,514.306 425.5,518C 426.737,517.768 427.737,517.268 428.5,516.5C 471.558,507.011 494.558,480.345 497.5,436.5C 497.277,431.486 496.944,426.486 496.5,421.5C 496.5,420.167 496.5,418.833 496.5,417.5 Z"/></g>
<g><path style="opacity:0.004" fill="#2a90a5" d="M 514.5,475.5 C 515.833,476.167 515.833,476.167 514.5,475.5 Z"/></g>
<g><path style="opacity:0.008" fill="#2b94a9" d="M 145.5,479.5 C 146.833,480.167 146.833,480.167 145.5,479.5 Z"/></g>
<g><path style="opacity:0.004" fill="#2791a7" d="M 149.5,480.5 C 150.833,481.167 150.833,481.167 149.5,480.5 Z"/></g>
<g><path style="opacity:0.008" fill="#328796" d="M 128.5,484.5 C 129.833,485.167 129.833,485.167 128.5,484.5 Z"/></g>
<g><path style="opacity:0.997" fill="#1e94b0" d="M 251.5,509.5 C 253.099,509.232 254.432,509.566 255.5,510.5C 252.402,510.413 252.068,510.913 254.5,512C 258.351,512.754 262.184,513.588 266,514.5C 267.888,514.204 269.722,513.704 271.5,513C 282.404,505.716 293.737,499.216 305.5,493.5C 307.667,493.458 310,493.791 312.5,494.5C 314.111,492.465 315.944,491.798 318,492.5C 318.374,491.584 318.874,490.75 319.5,490C 318.66,488.334 319.16,488.167 321,489.5C 321.333,488.833 321.667,488.167 322,487.5C 325.467,489.717 325.301,491.551 321.5,493C 326.074,493.935 326.407,495.435 322.5,497.5C 323.373,499.413 324.373,501.247 325.5,503C 323.231,503.758 321.064,503.591 319,502.5C 318.581,503.672 317.915,504.672 317,505.5C 315.203,502.904 313.869,503.237 313,506.5C 312.086,505.346 311.253,505.513 310.5,507C 311.833,508 311.833,509 310.5,510C 311.448,510.483 312.448,510.649 313.5,510.5C 300.414,517.408 288.247,525.741 277,535.5C 264.077,555.673 251.91,576.34 240.5,597.5C 240.624,598.107 240.957,598.44 241.5,598.5C 241.34,600.153 240.674,601.486 239.5,602.5C 239.607,600.621 239.107,600.288 238,601.5C 231.667,612.833 225.333,624.167 219,635.5C 213.608,644.924 206.941,645.924 199,638.5C 198.333,635.167 198.333,631.833 199,628.5C 213.873,603.26 228.373,577.76 242.5,552C 242.333,551.5 242.167,551 242,550.5C 241.722,551.416 241.222,552.082 240.5,552.5C 240.167,551.167 239.833,551.167 239.5,552.5C 237.883,553.038 236.216,553.371 234.5,553.5C 234.918,552.778 235.584,552.278 236.5,552C 235.167,551.333 233.833,551.333 232.5,552C 209.284,559.739 185.951,567.072 162.5,574C 153.242,577.162 147.575,574.162 145.5,565C 145.951,562.432 146.951,560.098 148.5,558C 160.392,553.693 172.392,549.693 184.5,546C 183.906,545.536 183.239,545.369 182.5,545.5C 183.78,544.069 185.447,543.402 187.5,543.5C 187.082,544.222 186.416,544.722 185.5,545C 201.258,540.973 216.924,536.306 232.5,531C 231.552,530.517 230.552,530.351 229.5,530.5C 230.167,529.833 230.833,529.167 231.5,528.5C 232.873,528.657 234.207,528.49 235.5,528C 228.255,525.687 220.921,524.021 213.5,523C 214.416,523.278 215.082,523.778 215.5,524.5C 213.214,524.405 211.214,523.738 209.5,522.5C 210.552,522.649 211.552,522.483 212.5,522C 187.081,514.978 161.748,507.645 136.5,500C 135.667,499.167 134.833,498.333 134,497.5C 131.793,484.829 136.96,480.329 149.5,484C 182.784,493.154 216.117,501.987 249.5,510.5C 250.416,510.457 251.083,510.124 251.5,509.5 Z"/></g>
<g><path style="opacity:0.831" fill="#1b7484" d="M 338.5,456.5 C 346.717,488.217 366.717,508.05 398.5,516C 402.145,516.719 405.812,517.219 409.5,517.5C 413.312,518.324 417.312,518.824 421.5,519C 407.294,520.198 393.627,518.031 380.5,512.5C 358.259,501.085 343.926,483.252 337.5,459C 337.528,457.93 337.861,457.097 338.5,456.5 Z"/></g>
<g><path style="opacity:0.008" fill="#2993a7" d="M 176.5,487.5 C 177.833,488.167 177.833,488.167 176.5,487.5 Z"/></g>
<g><path style="opacity:0.012" fill="#2893a7" d="M 205.5,495.5 C 206.833,496.167 206.833,496.167 205.5,495.5 Z"/></g>
<g><path style="opacity:0.008" fill="#2793aa" d="M 292.5,497.5 C 291.833,496.167 291.833,496.167 292.5,497.5 Z"/></g>
<g><path style="opacity:1" fill="#1a7080" d="M 319.5,484.5 C 320.552,484.351 321.552,484.517 322.5,485C 316.807,487.847 311.14,490.68 305.5,493.5C 293.737,499.216 282.404,505.716 271.5,513C 269.722,513.704 267.888,514.204 266,514.5C 262.184,513.588 258.351,512.754 254.5,512C 252.068,510.913 252.402,510.413 255.5,510.5C 259.527,511.209 263.527,511.709 267.5,512C 276.191,507.659 284.525,502.825 292.5,497.5C 301.378,492.894 310.378,488.561 319.5,484.5 Z"/></g>
<g><path style="opacity:0.004" fill="#2c889c" d="M 133.5,500.5 C 132.833,501.167 132.833,501.167 133.5,500.5 Z"/></g>
<g><path style="opacity:1" fill="#1c7383" d="M 205.5,496.5 C 215.614,499.613 225.947,502.279 236.5,504.5C 241.548,506.012 246.548,507.679 251.5,509.5C 251.083,510.124 250.416,510.457 249.5,510.5C 216.117,501.987 182.784,493.154 149.5,484C 136.96,480.329 131.793,484.829 134,497.5C 134.833,498.333 135.667,499.167 136.5,500C 161.748,507.645 187.081,514.978 212.5,522C 211.552,522.483 210.552,522.649 209.5,522.5C 202.541,520.677 195.541,519.01 188.5,517.5C 170.088,512.31 151.754,506.643 133.5,500.5C 128.05,490.357 130.883,483.69 142,480.5C 163.164,485.916 184.33,491.249 205.5,496.5 Z"/></g>
<g><path style="opacity:0.008" fill="#2895aa" d="M 236.5,504.5 C 236.897,503.475 237.563,503.308 238.5,504C 237.906,504.464 237.239,504.631 236.5,504.5 Z"/></g>
<g><path style="opacity:0.008" fill="#2c97ad" d="M 501.5,503.5 C 502.833,504.167 502.833,504.167 501.5,503.5 Z"/></g>
<g><path style="opacity:0.012" fill="#2997ab" d="M 502.5,505.5 C 503.833,506.167 503.833,506.167 502.5,505.5 Z"/></g>
<g><path style="opacity:0.004" fill="#2b90a5" d="M 144.5,506.5 C 145.833,507.167 145.833,507.167 144.5,506.5 Z"/></g>
<g><path style="opacity:0.012" fill="#2998ad" d="M 249.5,506.5 C 250.833,507.167 250.833,507.167 249.5,506.5 Z"/></g>
<g><path style="opacity:0.004" fill="#2792a8" d="M 509.5,511.5 C 510.833,512.167 510.833,512.167 509.5,511.5 Z"/></g>
<g><path style="opacity:0.02" fill="#2894ac" d="M 510.5,514.5 C 511.833,515.167 511.833,515.167 510.5,514.5 Z"/></g>
<g><path style="opacity:0.004" fill="#2693ab" d="M 178.5,517.5 C 179.833,518.167 179.833,518.167 178.5,517.5 Z"/></g>
<g><path style="opacity:0.004" fill="#2594ac" d="M 188.5,517.5 C 188.103,518.525 187.437,518.692 186.5,518C 187.094,517.536 187.761,517.369 188.5,517.5 Z"/></g>
<g><path style="opacity:0.855" fill="#1b7382" d="M 366.5,526.5 C 375.843,532.829 386.176,536.995 397.5,539C 396.552,539.483 395.552,539.649 394.5,539.5C 373.754,535.297 356.087,525.63 341.5,510.5C 340.5,508.833 339.167,507.5 337.5,506.5C 337.167,505.167 336.833,505.167 336.5,506.5C 335.596,505.791 335.263,504.791 335.5,503.5C 315.647,510.508 297.48,520.508 281,533.5C 276.754,538.991 272.754,544.658 269,550.5C 260.059,566.726 250.892,582.726 241.5,598.5C 240.957,598.44 240.624,598.107 240.5,597.5C 251.91,576.34 264.077,555.673 277,535.5C 288.247,525.741 300.414,517.408 313.5,510.5C 319.327,507.421 325.327,504.588 331.5,502C 333.167,501.333 334.833,501.333 336.5,502C 344.942,512.295 354.942,520.462 366.5,526.5 Z"/></g>
<g><path style="opacity:0.004" fill="#2793ab" d="M 344.5,515.5 C 345.833,516.167 345.833,516.167 344.5,515.5 Z"/></g>
<g><path style="opacity:0.008" fill="#2690a8" d="M 341.5,510.5 C 340.833,511.167 340.833,511.167 341.5,510.5 Z"/></g>
<g><path style="opacity:0.004" fill="#2895aa" d="M 336.5,508.5 C 337.833,509.167 337.833,509.167 336.5,508.5 Z"/></g>
<g><path style="opacity:0.004" fill="#2a97aa" d="M 336.5,506.5 C 336.833,506.5 337.167,506.5 337.5,506.5C 337.315,507.17 336.981,507.17 336.5,506.5 Z"/></g>
<g><path style="opacity:0.004" fill="#2793ac" d="M 180.5,518.5 C 181.833,519.167 181.833,519.167 180.5,518.5 Z"/></g>
<g><path style="opacity:0.004" fill="#2890a9" d="M 517.5,519.5 C 518.833,520.167 518.833,520.167 517.5,519.5 Z"/></g>
<g><path style="opacity:0.004" fill="#2795ad" d="M 201.5,522.5 C 202.833,523.167 202.833,523.167 201.5,522.5 Z"/></g>
<g><path style="opacity:0.012" fill="#2892a9" d="M 518.5,522.5 C 519.833,523.167 519.833,523.167 518.5,522.5 Z"/></g>
<g><path style="opacity:0.008" fill="#2696b0" d="M 211.5,525.5 C 210.833,524.167 210.833,524.167 211.5,525.5 Z"/></g>
<g><path style="opacity:0.004" fill="#298ea5" d="M 520.5,524.5 C 521.833,525.167 521.833,525.167 520.5,524.5 Z"/></g>
<g><path style="opacity:0.004" fill="#2596ae" d="M 211.5,525.5 C 212.833,526.167 212.833,526.167 211.5,525.5 Z"/></g>
<g><path style="opacity:0.973" fill="#187080" d="M 231.5,528.5 C 226.073,527.477 220.74,526.143 215.5,524.5C 215.082,523.778 214.416,523.278 213.5,523C 220.921,524.021 228.255,525.687 235.5,528C 234.207,528.49 232.873,528.657 231.5,528.5 Z"/></g>
<g><path style="opacity:0.008" fill="#2890a8" d="M 525.5,527.5 C 526.833,528.167 526.833,528.167 525.5,527.5 Z"/></g>
<g><path style="opacity:0.004" fill="#2796ab" d="M 216.5,533.5 C 215.833,532.167 215.833,532.167 216.5,533.5 Z"/></g>
<g><path style="opacity:0.973" fill="#197181" d="M 229.5,530.5 C 230.552,530.351 231.552,530.517 232.5,531C 216.924,536.306 201.258,540.973 185.5,545C 186.416,544.722 187.082,544.222 187.5,543.5C 197.375,540.543 207.042,537.209 216.5,533.5C 220.892,532.652 225.225,531.652 229.5,530.5 Z"/></g>
<g><path style="opacity:0.004" fill="#2991a9" d="M 367.5,532.5 C 368.833,533.167 368.833,533.167 367.5,532.5 Z"/></g>
<g><path style="opacity:0.008" fill="#2b91a5" d="M 373.5,534.5 C 374.833,535.167 374.833,535.167 373.5,534.5 Z"/></g>
<g><path style="opacity:0.008" fill="#299bb0" d="M 205.5,535.5 C 206.833,536.167 206.833,536.167 205.5,535.5 Z"/></g>
<g><path style="opacity:0.004" fill="#2b90a7" d="M 533.5,535.5 C 534.833,536.167 534.833,536.167 533.5,535.5 Z"/></g>
<g><path style="opacity:0.008" fill="#2b92a5" d="M 537.5,538.5 C 538.833,539.167 538.833,539.167 537.5,538.5 Z"/></g>
<g><path style="opacity:0.004" fill="#268fa7" d="M 408.5,542.5 C 409.833,543.167 409.833,543.167 408.5,542.5 Z"/></g>
<g><path style="opacity:0.004" fill="#2890a5" d="M 546.5,543.5 C 547.833,544.167 547.833,544.167 546.5,543.5 Z"/></g>
<g><path style="opacity:0.004" fill="#2a99ae" d="M 169.5,546.5 C 170.833,547.167 170.833,547.167 169.5,546.5 Z"/></g>
<g><path style="opacity:0.706" fill="#1b7180" d="M 528.5,559.5 C 538.584,567.387 549.25,574.554 560.5,581C 592.015,596.257 623.681,611.257 655.5,626C 691.231,645.064 719.064,672.231 739,707.5C 743.18,715.539 746.68,723.872 749.5,732.5C 748.662,732.842 748.328,733.508 748.5,734.5C 746.556,729.001 744.222,723.668 741.5,718.5C 741.672,717.508 741.338,716.842 740.5,716.5C 740.672,715.508 740.338,714.842 739.5,714.5C 739.179,712.952 738.179,712.285 736.5,712.5C 736.918,711.778 737.584,711.278 738.5,711C 736.85,707.515 734.85,704.349 732.5,701.5C 732.25,699.326 731.25,697.659 729.5,696.5C 725.05,687.934 719.384,680.268 712.5,673.5C 711.833,672.167 710.833,671.167 709.5,670.5C 706.833,666.5 703.5,663.167 699.5,660.5C 679.055,641.81 656.389,626.976 631.5,616C 622.252,611.864 612.918,608.031 603.5,604.5C 598.689,601.93 593.689,599.597 588.5,597.5C 576.716,591.774 565.049,585.774 553.5,579.5C 542.19,571.866 530.856,564.2 519.5,556.5C 510.526,548.529 501.526,540.529 492.5,532.5C 488.912,527.407 484.745,522.74 480,518.5C 455.789,537.418 428.956,544.751 399.5,540.5C 429.34,542.221 456.34,534.221 480.5,516.5C 494.701,533.044 510.701,547.378 528.5,559.5 Z"/></g>
<g><path style="opacity:0.004" fill="#2992a9" d="M 499.5,541.5 C 500.833,542.167 500.833,542.167 499.5,541.5 Z"/></g>
<g><path style="opacity:0.004" fill="#2b94aa" d="M 456.5,533.5 C 457.833,534.167 457.833,534.167 456.5,533.5 Z"/></g>
<g><path style="opacity:0.004" fill="#2d90a3" d="M 492.5,532.5 C 491.833,533.167 491.833,533.167 492.5,532.5 Z"/></g>
<g><path style="opacity:0.008" fill="#2a93a8" d="M 479.5,526.5 C 480.833,527.167 480.833,527.167 479.5,526.5 Z"/></g>
<g><path style="opacity:0.004" fill="#2b93a9" d="M 480.5,524.5 C 481.833,525.167 481.833,525.167 480.5,524.5 Z"/></g>
<g><path style="opacity:0.008" fill="#2b96a9" d="M 481.5,522.5 C 482.833,523.167 482.833,523.167 481.5,522.5 Z"/></g>
<g><path style="opacity:1" fill="#1b7283" d="M 518.5,447.5 C 519.434,448.568 519.768,449.901 519.5,451.5C 517.309,470.375 510.309,487.209 498.5,502C 499.315,503.98 500.648,505.48 502.5,506.5C 504.43,510.1 507.097,513.1 510.5,515.5C 512.833,518.5 515.5,521.167 518.5,523.5C 518.833,524.5 519.5,525.167 520.5,525.5C 524.515,529.513 528.848,533.179 533.5,536.5C 534.262,538.262 535.596,539.262 537.5,539.5C 553.751,552.641 571.418,563.808 590.5,573C 601.236,577.41 611.903,581.91 622.5,586.5C 623.614,588.353 622.948,588.853 620.5,588C 594.699,578.101 570.366,565.601 547.5,550.5C 528.006,537.013 510.673,521.013 495.5,502.5C 508.808,486.591 516.474,468.257 518.5,447.5 Z"/></g>
<g><path style="opacity:0.016" fill="#2a97ae" d="M 233.5,554.5 C 234.833,555.167 234.833,555.167 233.5,554.5 Z"/></g>
<g><path style="opacity:0.004" fill="#2693ab" d="M 235.5,554.5 C 236.833,555.167 236.833,555.167 235.5,554.5 Z"/></g>
<g><path style="opacity:0.004" fill="#2990a5" d="M 519.5,556.5 C 518.833,557.167 518.833,557.167 519.5,556.5 Z"/></g>
<g><path style="opacity:0.004" fill="#2897ae" d="M 234.5,557.5 C 235.833,558.167 235.833,558.167 234.5,557.5 Z"/></g>
<g><path style="opacity:0.004" fill="#2996ae" d="M 231.5,558.5 C 232.833,559.167 232.833,559.167 231.5,558.5 Z"/></g>
<g><path style="opacity:0.914" fill="#1c7384" d="M 182.5,545.5 C 183.239,545.369 183.906,545.536 184.5,546C 172.392,549.693 160.392,553.693 148.5,558C 146.951,560.098 145.951,562.432 145.5,565C 147.575,574.162 153.242,577.162 162.5,574C 185.951,567.072 209.284,559.739 232.5,552C 233.833,551.333 235.167,551.333 236.5,552C 235.584,552.278 234.918,552.778 234.5,553.5C 233.833,553.5 233.5,553.833 233.5,554.5C 210.811,561.229 188.144,568.063 165.5,575C 160.572,576.418 155.572,576.751 150.5,576C 142.451,570.587 141.451,564.087 147.5,556.5C 158.992,552.225 170.658,548.558 182.5,545.5 Z"/></g>
<g><path style="opacity:0.008" fill="#2897ae" d="M 200.5,565.5 C 201.833,566.167 201.833,566.167 200.5,565.5 Z"/></g>
<g><path style="opacity:0.004" fill="#2998b1" d="M 196.5,566.5 C 197.833,567.167 197.833,567.167 196.5,566.5 Z"/></g>
<g><path style="opacity:0.004" fill="#2a8ea2" d="M 537.5,570.5 C 538.833,571.167 538.833,571.167 537.5,570.5 Z"/></g>
<g><path style="opacity:0.004" fill="#2a8da3" d="M 538.5,573.5 C 539.833,574.167 539.833,574.167 538.5,573.5 Z"/></g>
<g><path style="opacity:0.004" fill="#2a8fa6" d="M 553.5,579.5 C 552.833,580.167 552.833,580.167 553.5,579.5 Z"/></g>
<g><path style="opacity:0.008" fill="#2a95ad" d="M 215.5,588.5 C 216.833,589.167 216.833,589.167 215.5,588.5 Z"/></g>
<g><path style="opacity:0.997" fill="#1e94b0" d="M 547.5,550.5 C 570.366,565.601 594.699,578.101 620.5,588C 622.948,588.853 623.614,588.353 622.5,586.5C 624.153,586.66 625.486,587.326 626.5,588.5C 624.621,588.393 624.288,588.893 625.5,590C 667.688,607.079 704.354,632.079 735.5,665C 743.589,665.083 751.589,664.249 759.5,662.5C 761.592,662.561 763.092,663.561 764,665.5C 764.903,664.299 766.069,663.465 767.5,663C 766.167,662.333 766.167,661.667 767.5,661C 771.653,660.616 775.653,659.616 779.5,658C 778.207,657.51 776.873,657.343 775.5,657.5C 776.919,656.549 778.585,656.216 780.5,656.5C 808.288,653.35 831.454,641.017 850,619.5C 856.662,611.517 862.328,602.85 867,593.5C 871.128,586.511 876.961,584.678 884.5,588C 887.394,590.909 888.227,594.409 887,598.5C 882.501,606.836 877.501,614.836 872,622.5C 871.308,623.437 871.475,624.103 872.5,624.5C 872.068,625.71 871.401,626.71 870.5,627.5C 870.607,625.621 870.107,625.288 869,626.5C 865.375,632.06 861.042,637.06 856,641.5C 855.308,642.437 855.475,643.103 856.5,643.5C 856.5,644.167 856.5,644.833 856.5,645.5C 855.957,645.56 855.624,645.893 855.5,646.5C 862.071,648.476 868.738,650.143 875.5,651.5C 876.416,651.457 877.083,651.124 877.5,650.5C 879.099,650.232 880.432,650.566 881.5,651.5C 878.402,651.413 878.068,651.913 880.5,653C 888.723,654.844 896.556,657.678 904,661.5C 906.763,667.585 905.596,672.752 900.5,677C 901.094,677.464 901.761,677.631 902.5,677.5C 901.486,678.674 900.153,679.34 898.5,679.5C 898.611,678.883 898.944,678.383 899.5,678C 886.485,674.829 873.485,671.496 860.5,668C 848.292,664.478 835.958,663.811 823.5,666C 808.882,670.54 794.215,674.873 779.5,679C 780.448,679.483 781.448,679.649 782.5,679.5C 781.432,680.434 780.099,680.768 778.5,680.5C 775.595,679.299 772.595,679.466 769.5,681C 770.448,681.483 771.448,681.649 772.5,681.5C 771.432,682.434 770.099,682.768 768.5,682.5C 767.551,681.848 766.385,681.514 765,681.5C 761.143,682.105 757.31,682.772 753.5,683.5C 752.167,683.5 750.833,683.5 749.5,683.5C 749.343,684.873 749.51,686.207 750,687.5C 759.625,705.371 768.291,723.704 776,742.5C 790.056,755.726 804.556,768.392 819.5,780.5C 826.859,778.881 833.859,776.381 840.5,773C 839.906,772.536 839.239,772.369 838.5,772.5C 839.167,771.833 839.833,771.167 840.5,770.5C 841.167,770.5 841.833,770.5 842.5,770.5C 841.537,771.363 841.537,772.03 842.5,772.5C 848.068,768.435 854.068,767.268 860.5,769C 861.701,769.903 862.535,771.069 863,772.5C 864.534,777.84 863.367,782.34 859.5,786C 856.833,787.333 854.167,788.667 851.5,790C 850.262,790.69 850.262,791.19 851.5,791.5C 851.158,792.338 850.492,792.672 849.5,792.5C 848.749,791.427 847.749,791.26 846.5,792C 841.613,794.277 836.613,796.277 831.5,798C 830.484,798.519 829.818,799.353 829.5,800.5C 835.823,812.986 841.49,825.819 846.5,839C 844.401,847.717 839.068,850.384 830.5,847C 829.213,845.59 828.046,844.09 827,842.5C 818.782,824.396 809.782,806.73 800,789.5C 793.669,784.666 787.503,779.666 781.5,774.5C 779.706,772.203 777.706,770.037 775.5,768C 773.741,767.202 772.074,767.369 770.5,768.5C 765.3,788.241 755.466,805.241 741,819.5C 740.51,820.793 740.343,822.127 740.5,823.5C 737.528,838.544 736.195,853.544 736.5,868.5C 736.218,876.067 735.218,883.401 733.5,890.5C 733.657,889.127 733.49,887.793 733,886.5C 731.05,895.728 725.55,898.561 716.5,895C 714.959,893.421 713.792,891.587 713,889.5C 714.054,872.572 715.887,855.739 718.5,839C 717.906,838.536 717.239,838.369 716.5,838.5C 716.167,838.5 715.833,838.5 715.5,838.5C 715.918,837.778 716.584,837.278 717.5,837C 706.64,839.834 695.64,842.5 684.5,845C 685.793,845.49 687.127,845.657 688.5,845.5C 688.5,845.833 688.5,846.167 688.5,846.5C 686.833,846.5 685.167,846.5 683.5,846.5C 678.008,846.031 672.341,845.865 666.5,846C 658.588,843.395 656.421,838.228 660,830.5C 661.214,828.951 662.714,827.785 664.5,827C 663.906,826.536 663.239,826.369 662.5,826.5C 663.469,825.691 664.302,824.691 665,823.5C 667.719,824.444 670.552,824.777 673.5,824.5C 671.031,825.317 668.365,825.817 665.5,826C 678.759,826.882 691.426,824.548 703.5,819C 702.906,818.536 702.239,818.369 701.5,818.5C 702.514,817.326 703.847,816.66 705.5,816.5C 704.537,817.363 704.537,818.03 705.5,818.5C 727.06,808.789 741.226,792.789 748,770.5C 747.617,771.056 747.117,771.389 746.5,771.5C 746.796,769.597 747.463,767.93 748.5,766.5C 748.351,767.552 748.517,768.552 749,769.5C 752.135,757.201 752.302,744.868 749.5,732.5C 746.68,723.872 743.18,715.539 739,707.5C 719.064,672.231 691.231,645.064 655.5,626C 623.681,611.257 592.015,596.257 560.5,581C 549.25,574.554 538.584,567.387 528.5,559.5C 528.908,558.357 529.575,557.357 530.5,556.5C 531.967,556.723 533.467,557.056 535,557.5C 535.5,556.333 536.333,555.5 537.5,555C 536.833,554 536.167,553 535.5,552C 537.833,551.667 540.167,551.333 542.5,551C 541.112,550.111 541.278,549.611 543,549.5C 543.251,550.986 544.585,551.986 547,552.5C 547.464,551.906 547.631,551.239 547.5,550.5 Z"/></g>
<g><path style="opacity:0.012" fill="#2a8ea6" d="M 588.5,597.5 C 588.103,598.525 587.437,598.692 586.5,598C 587.094,597.536 587.761,597.369 588.5,597.5 Z"/></g>
<g><path style="opacity:0.004" fill="#298b9f" d="M 657.5,601.5 C 658.833,602.167 658.833,602.167 657.5,601.5 Z"/></g>
<g><path style="opacity:0.016" fill="#2d91a5" d="M 603.5,604.5 C 602.833,605.167 602.833,605.167 603.5,604.5 Z"/></g>
<g><path style="opacity:0.004" fill="#2790a5" d="M 237.5,607.5 C 238.833,608.167 238.833,608.167 237.5,607.5 Z"/></g>
<g><path style="opacity:0.004" fill="#278ea5" d="M 670.5,607.5 C 671.833,608.167 671.833,608.167 670.5,607.5 Z"/></g>
<g><path style="opacity:0.004" fill="#2b93a7" d="M 853.5,607.5 C 854.833,608.167 854.833,608.167 853.5,607.5 Z"/></g>
<g><path style="opacity:0.004" fill="#2992a6" d="M 673.5,610.5 C 674.833,611.167 674.833,611.167 673.5,610.5 Z"/></g>
<g><path style="opacity:0.008" fill="#2a93ab" d="M 878.5,617.5 C 879.833,618.167 879.833,618.167 878.5,617.5 Z"/></g>
<g><path style="opacity:0.966" fill="#1b707f" d="M 878.5,617.5 C 876.5,619.833 874.5,622.167 872.5,624.5C 871.475,624.103 871.308,623.437 872,622.5C 877.501,614.836 882.501,606.836 887,598.5C 888.227,594.409 887.394,590.909 884.5,588C 876.961,584.678 871.128,586.511 867,593.5C 862.328,602.85 856.662,611.517 850,619.5C 831.454,641.017 808.288,653.35 780.5,656.5C 808.634,651.525 831.8,638.192 850,616.5C 857.079,607.346 863.413,597.68 869,587.5C 877.218,581.41 883.884,582.743 889,591.5C 889.823,595.738 889.156,599.738 887,603.5C 883.893,608.056 881.06,612.723 878.5,617.5 Z"/></g>
<g><path style="opacity:0.004" fill="#2b8fa4" d="M 637.5,621.5 C 638.525,621.897 638.692,622.563 638,623.5C 637.536,622.906 637.369,622.239 637.5,621.5 Z"/></g>
<g><path style="opacity:0.004" fill="#2b8fa2" d="M 197.5,623.5 C 198.833,624.167 198.833,624.167 197.5,623.5 Z"/></g>
<g><path style="opacity:1" fill="#1b6e7c" d="M 239.5,602.5 C 238.559,604.05 237.893,605.716 237.5,607.5C 230.192,619.436 222.859,631.436 215.5,643.5C 207.811,647.273 201.644,645.606 197,638.5C 196.146,634.375 196.48,630.375 198,626.5C 212.632,602.232 226.465,577.565 239.5,552.5C 239.833,552.5 240.167,552.5 240.5,552.5C 241.222,552.082 241.722,551.416 242,550.5C 242.167,551 242.333,551.5 242.5,552C 228.373,577.76 213.873,603.26 199,628.5C 198.333,631.833 198.333,635.167 199,638.5C 206.941,645.924 213.608,644.924 219,635.5C 225.333,624.167 231.667,612.833 238,601.5C 239.107,600.288 239.607,600.621 239.5,602.5 Z"/></g>
<g><path style="opacity:0.016" fill="#2a90a2" d="M 649.5,626.5 C 650.833,627.167 650.833,627.167 649.5,626.5 Z"/></g>
<g><path style="opacity:0.008" fill="#2b90a6" d="M 823.5,633.5 C 824.833,634.167 824.833,634.167 823.5,633.5 Z"/></g>
<g><path style="opacity:0.004" fill="#2d92a7" d="M 663.5,634.5 C 664.833,635.167 664.833,635.167 663.5,634.5 Z"/></g>
<g><path style="opacity:0.004" fill="#2a90a7" d="M 825.5,634.5 C 826.833,635.167 826.833,635.167 825.5,634.5 Z"/></g>
<g><path style="opacity:0.008" fill="#2a93a9" d="M 666.5,636.5 C 667.833,637.167 667.833,637.167 666.5,636.5 Z"/></g>
<g><path style="opacity:0.008" fill="#2b93a8" d="M 663.5,637.5 C 664.833,638.167 664.833,638.167 663.5,637.5 Z"/></g>
<g><path style="opacity:0.98" fill="#1a7484" d="M 870.5,627.5 C 866.177,633.155 861.51,638.488 856.5,643.5C 855.475,643.103 855.308,642.437 856,641.5C 861.042,637.06 865.375,632.06 869,626.5C 870.107,625.288 870.607,625.621 870.5,627.5 Z"/></g>
<g><path style="opacity:0.008" fill="#2693ab" d="M 862.5,641.5 C 863.833,642.167 863.833,642.167 862.5,641.5 Z"/></g>
<g><path style="opacity:0.012" fill="#2a8698" d="M 200.5,644.5 C 201.833,645.167 201.833,645.167 200.5,644.5 Z"/></g>
<g><path style="opacity:0.004" fill="#298799" d="M 200.5,645.5 C 199.833,646.167 199.833,646.167 200.5,645.5 Z"/></g>
<g><path style="opacity:0.004" fill="#28899d" d="M 208.5,646.5 C 209.833,647.167 209.833,647.167 208.5,646.5 Z"/></g>
<g><path style="opacity:1" fill="#1b7385" d="M 626.5,588.5 C 636.952,592.892 647.285,597.559 657.5,602.5C 662.502,606.003 667.835,609.003 673.5,611.5C 696.684,625.836 717.684,643.003 736.5,663C 743.167,662.835 749.834,662.335 756.5,661.5C 757.791,661.263 758.791,661.596 759.5,662.5C 751.589,664.249 743.589,665.083 735.5,665C 704.354,632.079 667.688,607.079 625.5,590C 624.288,588.893 624.621,588.393 626.5,588.5 Z"/></g>
<g><path style="opacity:0.996" fill="#1b7586" d="M 877.5,650.5 C 877.083,651.124 876.416,651.457 875.5,651.5C 868.738,650.143 862.071,648.476 855.5,646.5C 855.624,645.893 855.957,645.56 856.5,645.5C 858.144,645.714 859.644,645.38 861,644.5C 861.519,645.516 862.353,646.182 863.5,646.5C 868.374,647.548 873.041,648.881 877.5,650.5 Z"/></g>
<g><path style="opacity:0.012" fill="#2b97ad" d="M 793.5,650.5 C 794.833,651.167 794.833,651.167 793.5,650.5 Z"/></g>
<g><path style="opacity:0.004" fill="#2d93a9" d="M 687.5,651.5 C 688.833,652.167 688.833,652.167 687.5,651.5 Z"/></g>
<g><path style="opacity:0.008" fill="#2c94a9" d="M 687.5,653.5 C 688.833,654.167 688.833,654.167 687.5,653.5 Z"/></g>
<g><path style="opacity:0.992" fill="#1e7180" d="M 881.5,651.5 C 887.89,652.963 894.223,654.63 900.5,656.5C 906.919,659.48 909.085,664.48 907,671.5C 906.208,674.106 904.708,676.106 902.5,677.5C 901.761,677.631 901.094,677.464 900.5,677C 905.596,672.752 906.763,667.585 904,661.5C 896.556,657.678 888.723,654.844 880.5,653C 878.068,651.913 878.402,651.413 881.5,651.5 Z"/></g>
<g><path style="opacity:0.012" fill="#298c9e" d="M 900.5,655.5 C 901.833,656.167 901.833,656.167 900.5,655.5 Z"/></g>
<g><path style="opacity:0.004" fill="#2a93ad" d="M 696.5,659.5 C 697.833,660.167 697.833,660.167 696.5,659.5 Z"/></g>
<g><path style="opacity:0.008" fill="#2b93aa" d="M 699.5,660.5 C 699.631,661.239 699.464,661.906 699,662.5C 698.308,661.563 698.475,660.897 699.5,660.5 Z"/></g>
<g><path style="opacity:0.988" fill="#1e8296" d="M 775.5,657.5 C 776.873,657.343 778.207,657.51 779.5,658C 775.653,659.616 771.653,660.616 767.5,661C 766.167,661.667 766.167,662.333 767.5,663C 766.069,663.465 764.903,664.299 764,665.5C 763.092,663.561 761.592,662.561 759.5,662.5C 758.791,661.596 757.791,661.263 756.5,661.5C 762.61,659.677 768.943,658.343 775.5,657.5 Z"/></g>
<g><path style="opacity:0.004" fill="#2a92ac" d="M 704.5,667.5 C 705.833,668.167 705.833,668.167 704.5,667.5 Z"/></g>
<g><path style="opacity:0.004" fill="#2a8fa6" d="M 709.5,670.5 C 708.833,671.167 708.833,671.167 709.5,670.5 Z"/></g>
<g><path style="opacity:0.004" fill="#2a8da5" d="M 712.5,673.5 C 711.833,674.167 711.833,674.167 712.5,673.5 Z"/></g>
<g><path style="opacity:0.994" fill="#1c7485" d="M 898.5,679.5 C 892.68,678.748 887.014,678.081 881.5,677.5C 881.611,676.883 881.944,676.383 882.5,676C 867.078,671.394 851.411,667.894 835.5,665.5C 817.862,670.326 800.196,674.993 782.5,679.5C 781.448,679.649 780.448,679.483 779.5,679C 794.215,674.873 808.882,670.54 823.5,666C 835.958,663.811 848.292,664.478 860.5,668C 873.485,671.496 886.485,674.829 899.5,678C 898.944,678.383 898.611,678.883 898.5,679.5 Z"/></g>
<g><path style="opacity:0.004" fill="#2896b0" d="M 855.5,670.5 C 856.833,671.167 856.833,671.167 855.5,670.5 Z"/></g>
<g><path style="opacity:0.008" fill="#2693aa" d="M 848.5,669.5 C 848.897,668.475 849.563,668.308 850.5,669C 849.906,669.464 849.239,669.631 848.5,669.5 Z"/></g>
<g><path style="opacity:0.008" fill="#2b95ad" d="M 825.5,668.5 C 826.833,669.167 826.833,669.167 825.5,668.5 Z"/></g>
<g><path style="opacity:0.006" fill="#2994ab" d="M 840.5,668.5 C 840.897,667.475 841.563,667.308 842.5,668C 841.906,668.464 841.239,668.631 840.5,668.5 Z"/></g>
<g><path style="opacity:0.004" fill="#2991a6" d="M 873.5,674.5 C 874.833,675.167 874.833,675.167 873.5,674.5 Z"/></g>
<g><path style="opacity:0.012" fill="#2c91aa" d="M 880.5,677.5 C 879.833,676.167 879.833,676.167 880.5,677.5 Z"/></g>
<g><path style="opacity:0.004" fill="#2890a8" d="M 880.5,677.5 C 880.833,677.5 881.167,677.5 881.5,677.5C 881.315,678.17 880.981,678.17 880.5,677.5 Z"/></g>
<g><path style="opacity:1" fill="#1b6a7a" d="M 778.5,680.5 C 776.621,681.341 774.621,681.675 772.5,681.5C 771.448,681.649 770.448,681.483 769.5,681C 772.595,679.466 775.595,679.299 778.5,680.5 Z"/></g>
<g><path style="opacity:0.953" fill="#1a6d7a" d="M 768.5,682.5 C 764.924,683.485 761.258,684.152 757.5,684.5C 755.901,684.768 754.568,684.434 753.5,683.5C 757.31,682.772 761.143,682.105 765,681.5C 766.385,681.514 767.551,681.848 768.5,682.5 Z"/></g>
<g><path style="opacity:0.008" fill="#2793a9" d="M 729.5,696.5 C 728.833,697.167 728.833,697.167 729.5,696.5 Z"/></g>
<g><path style="opacity:0.012" fill="#2896ae" d="M 758.5,696.5 C 759.833,697.167 759.833,697.167 758.5,696.5 Z"/></g>
<g><path style="opacity:0.004" fill="#2794ab" d="M 731.5,701.5 C 730.833,700.167 730.833,700.167 731.5,701.5 Z"/></g>
<g><path style="opacity:0.004" fill="#2994aa" d="M 731.5,701.5 C 731.833,701.5 732.167,701.5 732.5,701.5C 732.315,702.17 731.981,702.17 731.5,701.5 Z"/></g>
<g><path style="opacity:0.004" fill="#2a96ae" d="M 735.5,709.5 C 736.833,710.167 736.833,710.167 735.5,709.5 Z"/></g>
<g><path style="opacity:0.008" fill="#2a92a8" d="M 736.5,712.5 C 736.631,713.239 736.464,713.906 736,714.5C 735.308,713.563 735.475,712.897 736.5,712.5 Z"/></g>
<g><path style="opacity:0.004" fill="#2a92aa" d="M 738.5,714.5 C 737.833,713.167 737.833,713.167 738.5,714.5 Z"/></g>
<g><path style="opacity:0.004" fill="#2896ac" d="M 766.5,713.5 C 767.833,714.167 767.833,714.167 766.5,713.5 Z"/></g>
<g><path style="opacity:0.008" fill="#2992aa" d="M 738.5,714.5 C 738.833,714.5 739.167,714.5 739.5,714.5C 739.315,715.17 738.981,715.17 738.5,714.5 Z"/></g>
<g><path style="opacity:0.008" fill="#2993a9" d="M 740.5,716.5 C 740.5,717.167 740.5,717.833 740.5,718.5C 738.067,718.214 738.067,717.548 740.5,716.5 Z"/></g>
<g><path style="opacity:0.008" fill="#2a93ab" d="M 740.5,718.5 C 740.833,718.5 741.167,718.5 741.5,718.5C 741.315,719.17 740.981,719.17 740.5,718.5 Z"/></g>
<g><path style="opacity:0.004" fill="#2a97ad" d="M 774.5,732.5 C 775.833,733.167 775.833,733.167 774.5,732.5 Z"/></g>
<g><path style="opacity:0.006" fill="#2a94aa" d="M 747.5,741.5 C 748.525,741.897 748.692,742.563 748,743.5C 747.536,742.906 747.369,742.239 747.5,741.5 Z"/></g>
<g><path style="opacity:0.979" fill="#216e78" d="M 749.5,732.5 C 752.302,744.868 752.135,757.201 749,769.5C 748.517,768.552 748.351,767.552 748.5,766.5C 748.802,761.909 749.469,757.409 750.5,753C 749.744,747.089 749.078,740.922 748.5,734.5C 748.328,733.508 748.662,732.842 749.5,732.5 Z"/></g>
<g><path style="opacity:0.004" fill="#2a96ad" d="M 800.5,759.5 C 801.833,760.167 801.833,760.167 800.5,759.5 Z"/></g>
<g><path style="opacity:0.553" fill="#3294a7" d="M 859.5,766.5 C 856.833,766.5 854.167,766.5 851.5,766.5C 854.289,764.286 856.956,764.286 859.5,766.5 Z"/></g>
<g><path style="opacity:0.004" fill="#2a94ab" d="M 843.5,767.5 C 844.833,768.167 844.833,768.167 843.5,767.5 Z"/></g>
<g><path style="opacity:0.996" fill="#1a7484" d="M 753.5,683.5 C 754.568,684.434 755.901,684.768 757.5,684.5C 755.631,685.165 753.631,685.831 751.5,686.5C 756.529,695.895 761.529,705.228 766.5,714.5C 769.501,723.331 773.001,731.997 777,740.5C 788.251,750.862 799.751,760.862 811.5,770.5C 814.516,774.097 818.016,776.431 822,777.5C 822.945,777.095 823.612,776.428 824,775.5C 824.561,776.022 825.228,776.355 826,776.5C 830.165,775.056 834.332,773.722 838.5,772.5C 839.239,772.369 839.906,772.536 840.5,773C 833.859,776.381 826.859,778.881 819.5,780.5C 804.556,768.392 790.056,755.726 776,742.5C 768.291,723.704 759.625,705.371 750,687.5C 749.51,686.207 749.343,684.873 749.5,683.5C 750.833,683.5 752.167,683.5 753.5,683.5 Z"/></g>
<g><path style="opacity:0.008" fill="#2896af" d="M 811.5,769.5 C 812.833,770.167 812.833,770.167 811.5,769.5 Z"/></g>
<g><path style="opacity:0.008" fill="#2794aa" d="M 840.5,770.5 C 839.833,769.167 839.833,769.167 840.5,770.5 Z"/></g>
<g><path style="opacity:0.937" fill="#1d7787" d="M 781.5,774.5 C 781.5,775.167 781.5,775.833 781.5,776.5C 779.037,774.539 776.703,772.372 774.5,770C 773.552,769.517 772.552,769.351 771.5,769.5C 770.851,773.951 769.684,778.284 768,782.5C 765.584,787.935 763.084,793.269 760.5,798.5C 756.916,804.092 752.916,809.426 748.5,814.5C 746.364,816.812 744.364,819.312 742.5,822C 742.966,823.299 742.966,824.799 742.5,826.5C 742.167,826.5 741.833,826.5 741.5,826.5C 741.737,825.209 741.404,824.209 740.5,823.5C 740.343,822.127 740.51,820.793 741,819.5C 755.466,805.241 765.3,788.241 770.5,768.5C 772.074,767.369 773.741,767.202 775.5,768C 777.706,770.037 779.706,772.203 781.5,774.5 Z"/></g>
<g><path style="opacity:1" fill="#1d6f7d" d="M 851.5,766.5 C 854.167,766.5 856.833,766.5 859.5,766.5C 863.768,768.336 866.101,771.669 866.5,776.5C 865.197,785.136 860.197,790.136 851.5,791.5C 850.262,791.19 850.262,790.69 851.5,790C 854.167,788.667 856.833,787.333 859.5,786C 863.367,782.34 864.534,777.84 863,772.5C 862.535,771.069 861.701,769.903 860.5,769C 854.068,767.268 848.068,768.435 842.5,772.5C 841.537,772.03 841.537,771.363 842.5,770.5C 845.378,768.895 848.378,767.561 851.5,766.5 Z"/></g>
<g><path style="opacity:0.012" fill="#2a95ae" d="M 793.5,787.5 C 792.833,788.167 792.833,788.167 793.5,787.5 Z"/></g>
<g><path style="opacity:0.012" fill="#2896b2" d="M 797.5,790.5 C 796.833,791.167 796.833,791.167 797.5,790.5 Z"/></g>
<g><path style="opacity:0.004" fill="#2990a3" d="M 857.5,790.5 C 858.833,791.167 858.833,791.167 857.5,790.5 Z"/></g>
<g><path style="opacity:0.012" fill="#2a96ac" d="M 800.5,794.5 C 799.833,795.167 799.833,795.167 800.5,794.5 Z"/></g>
<g><path style="opacity:0.004" fill="#2a95aa" d="M 801.5,796.5 C 800.833,797.167 800.833,797.167 801.5,796.5 Z"/></g>
<g><path style="opacity:0.004" fill="#2b94aa" d="M 728.5,799.5 C 727.833,798.167 727.833,798.167 728.5,799.5 Z"/></g>
<g><path style="opacity:0.004" fill="#2a95ab" d="M 760.5,798.5 C 761.833,799.167 761.833,799.167 760.5,798.5 Z"/></g>
<g><path style="opacity:0.004" fill="#2b94a9" d="M 725.5,802.5 C 724.833,801.167 724.833,801.167 725.5,802.5 Z"/></g>
<g><path style="opacity:0.965" fill="#1b707e" d="M 705.5,816.5 C 713.02,812.969 719.686,808.302 725.5,802.5C 726.833,801.833 727.833,800.833 728.5,799.5C 737.003,791.841 743.003,782.508 746.5,771.5C 747.117,771.389 747.617,771.056 748,770.5C 741.226,792.789 727.06,808.789 705.5,818.5C 704.537,818.03 704.537,817.363 705.5,816.5 Z"/></g>
<g><path style="opacity:0.004" fill="#2c90a7" d="M 803.5,802.5 C 804.833,803.167 804.833,803.167 803.5,802.5 Z"/></g>
<g><path style="opacity:0.004" fill="#2893ab" d="M 837.5,807.5 C 838.833,808.167 838.833,808.167 837.5,807.5 Z"/></g>
<g><path style="opacity:0.004" fill="#2997af" d="M 748.5,814.5 C 749.833,815.167 749.833,815.167 748.5,814.5 Z"/></g>
<g><path style="opacity:0.008" fill="#2a97ac" d="M 701.5,815.5 C 702.833,816.167 702.833,816.167 701.5,815.5 Z"/></g>
<g><path style="opacity:0.008" fill="#2996ac" d="M 699.5,816.5 C 700.833,817.167 700.833,817.167 699.5,816.5 Z"/></g>
<g><path style="opacity:0.004" fill="#2c92a8" d="M 811.5,818.5 C 812.833,819.167 812.833,819.167 811.5,818.5 Z"/></g>
<g><path style="opacity:0.004" fill="#2b92a7" d="M 812.5,820.5 C 813.833,821.167 813.833,821.167 812.5,820.5 Z"/></g>
<g><path style="opacity:1" fill="#1c707f" d="M 781.5,774.5 C 787.503,779.666 793.669,784.666 800,789.5C 809.782,806.73 818.782,824.396 827,842.5C 828.046,844.09 829.213,845.59 830.5,847C 839.068,850.384 844.401,847.717 846.5,839C 841.49,825.819 835.823,812.986 829.5,800.5C 829.818,799.353 830.484,798.519 831.5,798C 836.613,796.277 841.613,794.277 846.5,792C 847.749,791.26 848.749,791.427 849.5,792.5C 843.926,795.693 837.926,798.027 831.5,799.5C 837.586,812.503 843.252,825.669 848.5,839C 846.741,847.747 841.408,851.414 832.5,850C 830.004,848.334 827.671,846.5 825.5,844.5C 824.674,841.515 823.341,838.849 821.5,836.5C 820.624,832.418 818.957,828.751 816.5,825.5C 812.262,815.355 807.262,805.688 801.5,796.5C 801.672,795.508 801.338,794.842 800.5,794.5C 800.262,792.596 799.262,791.262 797.5,790.5C 796.738,788.738 795.404,787.738 793.5,787.5C 789.526,783.862 785.526,780.195 781.5,776.5C 781.5,775.833 781.5,775.167 781.5,774.5 Z"/></g>
<g><path style="opacity:0.008" fill="#2a899a" d="M 662.5,823.5 C 663.833,824.167 663.833,824.167 662.5,823.5 Z"/></g>
<g><path style="opacity:0.949" fill="#1b6f7e" d="M 701.5,818.5 C 702.239,818.369 702.906,818.536 703.5,819C 691.426,824.548 678.759,826.882 665.5,826C 668.365,825.817 671.031,825.317 673.5,824.5C 683.036,823.393 692.369,821.393 701.5,818.5 Z"/></g>
<g><path style="opacity:0.004" fill="#2993aa" d="M 816.5,825.5 C 815.833,826.167 815.833,826.167 816.5,825.5 Z"/></g>
<g><path style="opacity:0.004" fill="#2791a9" d="M 742.5,826.5 C 743.525,826.897 743.692,827.563 743,828.5C 742.536,827.906 742.369,827.239 742.5,826.5 Z"/></g>
<g><path style="opacity:1" fill="#1e7482" d="M 740.5,823.5 C 741.404,824.209 741.737,825.209 741.5,826.5C 741.5,828.5 741.5,830.5 741.5,832.5C 739.839,844.376 738.172,856.376 736.5,868.5C 736.195,853.544 737.528,838.544 740.5,823.5 Z"/></g>
<g><path style="opacity:0.006" fill="#2693ab" d="M 742.5,829.5 C 743.525,829.897 743.692,830.563 743,831.5C 742.536,830.906 742.369,830.239 742.5,829.5 Z"/></g>
<g><path style="opacity:0.004" fill="#2b91a9" d="M 817.5,830.5 C 818.833,831.167 818.833,831.167 817.5,830.5 Z"/></g>
<g><path style="opacity:0.004" fill="#2793ab" d="M 741.5,832.5 C 742.833,833.167 742.833,833.167 741.5,832.5 Z"/></g>
<g><path style="opacity:0.004" fill="#2a90a6" d="M 815.5,832.5 C 816.833,833.167 816.833,833.167 815.5,832.5 Z"/></g>
<g><path style="opacity:0.004" fill="#2891a6" d="M 817.5,834.5 C 818.833,835.167 818.833,835.167 817.5,834.5 Z"/></g>
<g><path style="opacity:0.008" fill="#2a8fa5" d="M 819.5,834.5 C 820.833,835.167 820.833,835.167 819.5,834.5 Z"/></g>
<g><path style="opacity:0.947" fill="#1e6f7e" d="M 662.5,826.5 C 663.239,826.369 663.906,826.536 664.5,827C 662.714,827.785 661.214,828.951 660,830.5C 656.421,838.228 658.588,843.395 666.5,846C 672.341,845.865 678.008,846.031 683.5,846.5C 675.238,849.481 667.238,848.981 659.5,845C 655.265,840.094 654.765,834.928 658,829.5C 659.129,827.859 660.629,826.859 662.5,826.5 Z"/></g>
<g><path style="opacity:0.004" fill="#298fa4" d="M 821.5,836.5 C 820.833,837.167 820.833,837.167 821.5,836.5 Z"/></g>
<g><path style="opacity:0.004" fill="#2995ab" d="M 741.5,838.5 C 742.833,839.167 742.833,839.167 741.5,838.5 Z"/></g>
<g><path style="opacity:0.004" fill="#2a8296" d="M 655.5,841.5 C 656.833,842.167 656.833,842.167 655.5,841.5 Z"/></g>
<g><path style="opacity:0.005" fill="#2994aa" d="M 713.5,842.5 C 714.598,843.601 714.765,844.934 714,846.5C 713.51,845.207 713.343,843.873 713.5,842.5 Z"/></g>
<g><path style="opacity:1" fill="#1b6d7d" d="M 715.5,838.5 C 706.78,841.85 697.78,844.183 688.5,845.5C 687.127,845.657 685.793,845.49 684.5,845C 695.64,842.5 706.64,839.834 717.5,837C 716.584,837.278 715.918,837.778 715.5,838.5 Z"/></g>
<g><path style="opacity:0.004" fill="#2b8ea0" d="M 825.5,844.5 C 824.833,845.167 824.833,845.167 825.5,844.5 Z"/></g>
<g><path style="opacity:0.004" fill="#2796ad" d="M 688.5,846.5 C 689.833,847.167 689.833,847.167 688.5,846.5 Z"/></g>
<g><path style="opacity:0.008" fill="#2992aa" d="M 691.5,847.5 C 691.897,846.475 692.563,846.308 693.5,847C 692.906,847.464 692.239,847.631 691.5,847.5 Z"/></g>
<g><path style="opacity:0.004" fill="#2a95ac" d="M 739.5,854.5 C 740.833,855.167 740.833,855.167 739.5,854.5 Z"/></g>
<g><path style="opacity:0.004" fill="#2893aa" d="M 711.5,861.5 C 712.833,862.167 712.833,862.167 711.5,861.5 Z"/></g>
<g><path style="opacity:0.941" fill="#1e7180" d="M 716.5,838.5 C 717.239,838.369 717.906,838.536 718.5,839C 715.887,855.739 714.054,872.572 713,889.5C 713.792,891.587 714.959,893.421 716.5,895C 725.55,898.561 731.05,895.728 733,886.5C 733.49,887.793 733.657,889.127 733.5,890.5C 733.415,892.929 732.415,894.929 730.5,896.5C 721.412,901.272 714.912,898.939 711,889.5C 712.259,872.428 714.093,855.428 716.5,838.5 Z"/></g>
</svg>
