<?xml version="1.0" encoding="UTF-8"?>
<svg version="1.1" xmlns="http://www.w3.org/2000/svg" width="1024" height="1024">
<path d="M0 0 C2.46305393 0.39053544 4.79834745 0.42401605 7.28808594 0.36279297 C7.28808594 1.02279297 7.28808594 1.68279297 7.28808594 2.36279297 C8.49851562 2.45689453 9.70894531 2.55099609 10.95605469 2.64794922 C17.34261652 3.36614181 23.42260216 5.07608858 29.60058594 6.80029297 C31.49417847 7.32719727 31.49417847 7.32719727 33.42602539 7.86474609 C53.26905875 13.4723681 72.6706248 20.48749844 91.28808594 29.36279297 C92.29597168 29.84071289 93.30385742 30.31863281 94.34228516 30.81103516 C101.6746335 34.29317203 108.99216269 37.8049493 116.28808594 41.36279297 C117.46407349 41.93380737 117.46407349 41.93380737 118.66381836 42.51635742 C122.0455599 44.17772149 125.27297614 45.87440324 128.35058594 48.05029297 C131.6494133 50.30976376 135.00898428 52.40819991 138.45556641 54.43554688 C157.42233786 65.59275874 175.0225118 78.79745195 191.8815918 92.90698242 C192.55971924 93.47376709 193.23784668 94.04055176 193.93652344 94.62451172 C194.5364209 95.12942139 195.13631836 95.63433105 195.75439453 96.15454102 C197.28977683 97.44789253 197.28977683 97.44789253 199.28808594 98.36279297 C199.28808594 99.02279297 199.28808594 99.68279297 199.28808594 100.36279297 C199.83335937 100.58966797 200.37863281 100.81654297 200.94042969 101.05029297 C203.97413211 102.74633958 206.34269204 104.99144132 208.85058594 107.36279297 C209.91539502 108.35529715 210.98050616 109.34747735 212.04589844 110.33935547 C212.85269043 111.09394043 212.85269043 111.09394043 213.67578125 111.86376953 C217.0198948 114.97292416 220.42479932 118.01551484 223.81542969 121.07373047 C226.37407063 123.44239333 228.836182 125.88402936 231.28808594 128.36279297 C232.09761719 129.16458984 232.90714844 129.96638672 233.74121094 130.79248047 C242.08979492 139.21789191 249.93395916 148.05712942 257.28808594 157.36279297 C258.105271 158.38711426 258.105271 158.38711426 258.93896484 159.43212891 C279.54521972 185.29161394 279.54521972 185.29161394 279.16308594 195.80029297 C274.81271062 213.51253533 257.52009382 229.88660844 245.49780273 242.94921875 C243.37732359 245.2653227 241.291201 247.60864919 239.20605469 249.95654297 C234.11157872 255.61898592 228.796294 261.03833093 223.41308594 266.42529297 C222.03830078 267.81844727 222.03830078 267.81844727 220.63574219 269.23974609 C215.23864924 274.64822532 209.69168003 279.65213946 203.69384766 284.38793945 C201.24469803 286.32321387 201.24469803 286.32321387 199.09716797 288.61694336 C197.28808594 290.36279297 197.28808594 290.36279297 195.28808594 290.36279297 C195.28808594 291.02279297 195.28808594 291.68279297 195.28808594 292.36279297 C193.62915039 293.84545898 193.62915039 293.84545898 191.33886719 295.55419922 C190.51467285 296.17697754 189.69047852 296.79975586 188.84130859 297.44140625 C187.99874512 298.07546387 187.15618164 298.70952148 186.28808594 299.36279297 C184.81999708 300.51361311 183.35503733 301.66843856 181.89355469 302.82763672 C173.56105938 309.38941862 165.20466443 315.61472123 156.28808594 321.36279297 C155.1649773 322.12023055 154.04398225 322.88080888 152.92480469 323.64404297 C136.26689801 334.98279009 118.92447194 344.87026584 100.96777344 353.99951172 C98.43424608 355.28843453 95.9075035 356.5898048 93.38183594 357.89404297 C91.93435662 358.63448189 90.48646937 359.37412415 89.03808594 360.11279297 C88.3887207 360.44827148 87.73935547 360.78375 87.0703125 361.12939453 C84.25855328 362.54520159 82.48507676 363.36279297 79.28808594 363.36279297 C78.95808594 364.02279297 78.62808594 364.68279297 78.28808594 365.36279297 C73.10998788 367.717197 67.65533862 369.48512213 62.28808594 371.36279297 C61.19544434 371.74564453 60.10280273 372.12849609 58.97705078 372.52294922 C26.86954172 383.68773504 -5.71360925 391.70903419 -39.71191406 394.36279297 C-40.40526855 394.41918945 -41.09862305 394.47558594 -41.81298828 394.53369141 C-51.44905581 395.29734693 -61.04732653 395.56274995 -70.71191406 395.36279297 C-71.71327393 395.3519165 -71.71327393 395.3519165 -72.73486328 395.34082031 C-104.63365972 394.90283358 -136.79925287 388.39650469 -167.21948242 379.19116211 C-168.01878174 378.95131592 -168.81808105 378.71146973 -169.64160156 378.46435547 C-170.33495605 378.25117676 -171.02831055 378.03799805 -171.74267578 377.81835938 C-174.02455214 377.21253379 -174.02455214 377.21253379 -177.71191406 377.36279297 C-177.71191406 376.70279297 -177.71191406 376.04279297 -177.71191406 375.36279297 C-178.92234375 375.13720703 -180.13277344 374.91162109 -181.37988281 374.67919922 C-187.84835226 373.23600957 -193.8848394 370.75737794 -200.02441406 368.30029297 C-200.64029388 368.05536102 -201.25617371 367.81042908 -201.89071655 367.55807495 C-225.72897571 358.07257143 -249.14480875 347.35732904 -270.71191406 333.36279297 C-272.03167949 332.52469129 -273.35203011 331.68751065 -274.67285156 330.85107422 C-293.19294714 319.06439585 -310.91073652 306.30883937 -327.58300781 292.01904297 C-330.47206702 289.54906195 -333.42963496 287.17277473 -336.39941406 284.80029297 C-341.03310439 281.03541958 -345.21434864 276.9626005 -349.38378906 272.69482422 C-351.40806777 270.66714907 -353.46967073 268.7816191 -355.64941406 266.92529297 C-362.91292858 260.6910214 -369.64506396 253.78779954 -375.84863281 246.50341797 C-377.72027929 244.3531826 -379.65671411 242.27245611 -381.60668945 240.19335938 C-410.2709746 209.50031218 -410.2709746 209.50031218 -411.71191406 195.36279297 C-411.25728829 182.1547178 -400.66885017 171.04485576 -392.71191406 161.36279297 C-391.88691406 160.35474609 -391.06191406 159.34669922 -390.21191406 158.30810547 C-388.71392455 156.48116556 -387.21281603 154.65677682 -385.70800781 152.83544922 C-383.88495254 150.57714396 -382.16314524 148.27584902 -380.46191406 145.92529297 C-378.18381108 142.83581084 -375.74735152 140.73191489 -372.71191406 138.36279297 C-371.65418624 137.18907776 -370.61883919 135.99504613 -369.59863281 134.78857422 C-365.59445246 130.15843019 -361.31322856 125.852247 -356.96191406 121.55029297 C-356.2078125 120.80070312 -355.45371094 120.05111328 -354.67675781 119.27880859 C-353.28632331 117.897018 -351.89485499 116.51626624 -350.50195312 115.13696289 C-349.36713148 114.01220172 -348.23818902 112.88145177 -347.11743164 111.74267578 C-345.11720013 109.77892582 -342.90267917 108.11104222 -340.71191406 106.36279297 C-339.01424717 104.90308247 -337.33284566 103.42576216 -335.65087891 101.94799805 C-328.42290347 95.60118485 -321.02987544 89.53630149 -313.40722656 83.67138672 C-311.72026183 82.36923652 -310.04330893 81.05510172 -308.36816406 79.73779297 C-302.35894381 75.03140158 -296.23872664 70.58040221 -289.84082031 66.40966797 C-287.66162344 64.98407601 -285.50729524 63.5433662 -283.36425781 62.06591797 C-226.96872183 23.36279297 -226.96872183 23.36279297 -208.71191406 23.36279297 C-208.38191406 22.70279297 -208.05191406 22.04279297 -207.71191406 21.36279297 C-205.91235352 20.67822266 -205.91235352 20.67822266 -203.51269531 20.03466797 C-199.3534224 18.85830795 -195.27380773 17.55248876 -191.19238281 16.12841797 C-163.89023688 6.67225975 -136.33122492 0.2884686 -107.71191406 -3.63720703 C-106.76429199 -3.76998047 -105.81666992 -3.90275391 -104.84033203 -4.03955078 C-70.7471907 -8.5963964 -33.66267943 -6.94082791 0 0 Z M-117.71191406 35.36279297 C-118.43652832 35.60400879 -119.16114258 35.84522461 -119.90771484 36.09375 C-140.381047 42.95276411 -158.36338664 54.36888161 -174.71191406 68.36279297 C-175.44796875 68.96478516 -176.18402344 69.56677734 -176.94238281 70.18701172 C-178.57286752 71.5311039 -180.14994058 72.93966157 -181.71191406 74.36279297 C-181.71191406 75.02279297 -181.71191406 75.68279297 -181.71191406 76.36279297 C-182.57429688 76.71083984 -182.57429688 76.71083984 -183.45410156 77.06591797 C-188.28425347 79.84033048 -191.37200897 84.99071923 -194.71191406 89.36279297 C-195.12280273 89.9001709 -195.53369141 90.43754883 -195.95703125 90.99121094 C-213.99864104 114.84654228 -225.58730586 142.45582874 -228.71191406 172.36279297 C-228.82148438 173.36439453 -228.93105469 174.36599609 -229.04394531 175.39794922 C-233.48756577 223.21130532 -219.84548285 268.08652333 -189.71191406 305.36279297 C-183.92275078 312.25111624 -177.75447237 318.74428138 -170.71191406 324.36279297 C-169.86628906 325.04599609 -169.02066406 325.72919922 -168.14941406 326.43310547 C-130.95791874 355.43842927 -84.63470087 363.95141407 -38.55175781 358.33154297 C2.97440419 352.76173213 40.05688948 330.74267534 65.55517578 297.57055664 C78.48314954 280.13574075 87.71117781 260.29691019 93.28808594 239.36279297 C93.48772949 238.61626465 93.68737305 237.86973633 93.89306641 237.10058594 C104.86141812 194.60632204 98.66370637 148.15244246 76.87402344 110.04248047 C67.03183333 93.5124721 54.30717554 77.46817919 39.28808594 65.36279297 C38.58167969 64.79173828 37.87527344 64.22068359 37.14746094 63.63232422 C17.88761074 48.37933097 -3.07478882 38.00318854 -26.71191406 31.36279297 C-27.74590332 31.07154541 -27.74590332 31.07154541 -28.80078125 30.77441406 C-33.06383576 29.63119175 -37.33936899 28.90887353 -41.71191406 28.36279297 C-42.59943359 28.24677734 -43.48695313 28.13076172 -44.40136719 28.01123047 C-69.45411824 24.92680532 -93.8388004 27.11608825 -117.71191406 35.36279297 Z M73.28808594 55.36279297 C74.13757813 56.33216797 74.98707031 57.30154297 75.86230469 58.30029297 C89.94271545 74.74601459 101.04728564 92.85611999 110.28808594 112.36279297 C110.81144531 113.44431641 111.33480469 114.52583984 111.87402344 115.64013672 C132.64916358 160.9827045 133.53893765 215.49753101 116.29931641 262.03173828 C107.16588112 285.44708755 93.95576473 310.47815948 75.54199219 328.02685547 C74.05996376 329.30046994 74.05996376 329.30046994 74.28808594 331.36279297 C73.62808594 331.69279297 72.96808594 332.02279297 72.28808594 332.36279297 C91.60049982 328.17998477 110.88132698 314.78594584 127.28808594 304.36279297 C128.02591309 303.89631348 128.76374023 303.42983398 129.52392578 302.94921875 C144.44854937 293.4464168 158.80873731 282.81827438 172.28808594 271.36279297 C173.4521142 270.38488763 174.6161791 269.4070259 175.78027344 268.42919922 C181.63776054 263.48277331 187.33856687 258.50320844 192.66699219 252.97998047 C194.28808594 251.36279297 194.28808594 251.36279297 197.28808594 248.98779297 C198.27808594 248.18341797 198.27808594 248.18341797 199.28808594 247.36279297 C199.28808594 246.70279297 199.28808594 246.04279297 199.28808594 245.36279297 C199.86558594 245.11529297 200.44308594 244.86779297 201.03808594 244.61279297 C203.61748573 243.17979308 205.34930186 241.5785462 207.28808594 239.36279297 C207.28808594 238.70279297 207.28808594 238.04279297 207.28808594 237.36279297 C207.86558594 237.11529297 208.44308594 236.86779297 209.03808594 236.61279297 C211.61748573 235.17979308 213.34930186 233.5785462 215.28808594 231.36279297 C215.28808594 230.70279297 215.28808594 230.04279297 215.28808594 229.36279297 C216.27808594 229.03279297 217.26808594 228.70279297 218.28808594 228.36279297 C219.76808791 226.97961432 219.76808791 226.97961432 221.22558594 225.17529297 C221.83144531 224.45986328 222.43730469 223.74443359 223.06152344 223.00732422 C223.79628906 222.13462891 224.53105469 221.26193359 225.28808594 220.36279297 C226.25790009 219.24036675 227.22936871 218.11936872 228.20214844 216.99951172 C230.8021102 214.00374458 233.37565201 210.98693243 235.93457031 207.95605469 C237.08516969 206.60165145 238.25496117 205.26358992 239.42871094 203.92919922 C239.98042969 203.26791016 240.53214844 202.60662109 241.10058594 201.92529297 C241.79087891 201.12285156 241.79087891 201.12285156 242.49511719 200.30419922 C243.81775468 197.06601777 243.11804216 194.70042808 242.28808594 191.36279297 C240.42385444 188.20236467 240.42385444 188.20236467 237.91308594 185.23779297 C237.47407959 184.68937744 237.03507324 184.14096191 236.58276367 183.57592773 C235.16903368 181.82266323 233.73307622 180.09036338 232.28808594 178.36279297 C231.7929248 177.76998535 231.29776367 177.17717773 230.78759766 176.56640625 C228.42061435 173.74278505 226.03743616 170.93427015 223.63574219 168.14013672 C221.28808594 165.36279297 221.28808594 165.36279297 219.59667969 162.99169922 C219.16484375 162.45416016 218.73300781 161.91662109 218.28808594 161.36279297 C217.62808594 161.36279297 216.96808594 161.36279297 216.28808594 161.36279297 C216.01629517 160.76633972 215.74450439 160.16988647 215.46447754 159.55535889 C214.31039368 157.40437028 213.17961329 156.00100331 211.46582031 154.28173828 C210.89762573 153.70723938 210.32943115 153.13274048 209.74401855 152.54083252 C209.12949829 151.93036072 208.51497803 151.31988892 207.88183594 150.69091797 C207.24250122 150.0496698 206.6031665 149.40842163 205.94445801 148.7477417 C204.58847817 147.39040167 203.22997257 146.03558086 201.86914062 144.68310547 C199.816402 142.64096287 197.77440727 140.58852577 195.73339844 138.53466797 C188.88692913 131.6811419 181.98800653 125.2617393 174.28808594 119.36279297 C171.94689204 117.39525145 169.65100645 115.37771486 167.35058594 113.36279297 C161.55378672 108.34717846 155.5622412 103.77118975 149.28808594 99.36279297 C148.20985768 98.57826246 147.13310215 97.79170497 146.05761719 97.00341797 C137.39482049 90.67953919 128.45538642 84.92487624 119.28808594 79.36279297 C118.65128906 78.9715625 118.01449219 78.58033203 117.35839844 78.17724609 C107.74295878 72.28043055 97.85218967 66.94417485 87.85058594 61.73779297 C87.24201752 61.41975708 86.6334491 61.10172119 86.00643921 60.77404785 C84.27086388 59.86898945 82.53150167 58.97120424 80.79199219 58.07373047 C79.77951416 57.55085449 78.76703613 57.02797852 77.72387695 56.48925781 C75.43281514 55.22287619 75.43281514 55.22287619 73.28808594 55.36279297 Z M-218.71191406 60.73779297 C-219.41687012 61.0979248 -220.12182617 61.45805664 -220.84814453 61.82910156 C-222.36249545 62.6050034 -223.87530642 63.38391674 -225.38671875 64.16552734 C-227.65721277 65.33462674 -229.93732968 66.48276752 -232.21972656 67.62841797 C-251.52006923 77.42369692 -269.40232413 89.4117638 -286.71191406 102.36279297 C-287.30794434 102.80574707 -287.90397461 103.24870117 -288.51806641 103.70507812 C-300.65852677 112.75220619 -312.02087272 122.67017191 -323.09082031 132.98779297 C-324.79885275 134.53545873 -326.55639532 136.03066695 -328.36425781 137.46044922 C-330.44051162 139.14287119 -332.02691656 140.74441287 -333.71191406 142.80029297 C-337.02698734 146.68968815 -340.57917514 150.2748201 -344.21191406 153.86279297 C-348.92543062 158.53443819 -353.47007221 163.25262113 -357.71191406 168.36279297 C-358.39382813 169.16716797 -359.07574219 169.97154297 -359.77832031 170.80029297 C-362.13552814 173.62074338 -364.43493073 176.47714742 -366.71191406 179.36279297 C-367.40148193 180.23556885 -367.40148193 180.23556885 -368.10498047 181.12597656 C-369.53755768 182.96008373 -370.94033172 184.81367658 -372.33691406 186.67529297 C-372.78719971 187.24973145 -373.23748535 187.82416992 -373.70141602 188.41601562 C-375.71032326 191.15244306 -376.69941877 192.96034041 -376.80566406 196.38232422 C-375.41951726 200.15957425 -373.25125634 202.80372716 -370.58691406 205.73779297 C-369.83051636 206.59848389 -369.83051636 206.59848389 -369.05883789 207.4765625 C-368.05924316 208.6122252 -367.05490182 209.74373105 -366.04541016 210.87060547 C-364.46808384 212.63563997 -362.93564239 214.43697005 -361.39941406 216.23779297 C-352.56991201 226.22255697 -343.34781832 235.83548915 -333.95828247 245.29266357 C-332.56646038 246.69541643 -331.17903324 248.10252574 -329.79174805 249.50976562 C-324.48734724 254.82140036 -319.01806544 259.72968028 -313.14086914 264.40136719 C-310.8748063 266.2312545 -308.72279108 268.13379453 -306.58691406 270.11279297 C-299.67271145 276.32196956 -292.15641715 281.81268862 -284.71191406 287.36279297 C-284.10686035 287.81444824 -283.50180664 288.26610352 -282.87841797 288.73144531 C-263.98922552 302.74322275 -243.70403635 314.67451756 -222.52441406 324.86279297 C-221.65123535 325.28447754 -220.77805664 325.70616211 -219.87841797 326.140625 C-215.21141489 328.34446246 -210.72235161 330.1152686 -205.71191406 331.36279297 C-208.44640519 327.66753469 -211.18392175 324.00552871 -214.10253906 320.45263672 C-236.39403267 293.27693475 -250.09470965 261.72030266 -256.71191406 227.36279297 C-256.95941406 226.10208984 -257.20691406 224.84138672 -257.46191406 223.54248047 C-265.55346697 172.40836138 -251.25526389 117.91419324 -221.39550781 76.12060547 C-217.09897439 70.2901151 -212.60041333 64.707133 -207.71191406 59.36279297 C-208.04191406 58.70279297 -208.37191406 58.04279297 -208.71191406 57.36279297 C-212.62798198 57.36279297 -215.31342947 58.98296606 -218.71191406 60.73779297 Z " fill="#21ABBA" transform="translate(577.7119140625,314.63720703125)"/>
<path d="M0 0 C14.51545223 1.33423857 28.35670234 2.66258988 42 8 C42.64018066 8.2367041 43.28036133 8.4734082 43.93994141 8.71728516 C71.24067967 18.88709545 91.76551268 39.864258 104 66 C115.36679874 90.88886061 114.83673618 122.91950935 105.50390625 148.3828125 C100.67338052 160.0011679 95.11053482 170.28328726 87 180 C86.20207031 180.98484375 85.40414062 181.9696875 84.58203125 182.984375 C66.62757969 203.95387061 39.98860205 216.03689479 12.8125 218.8515625 C-17.56105821 220.45461141 -45.12811663 210.7664829 -68 191 C-69.13888672 190.01580078 -69.13888672 190.01580078 -70.30078125 189.01171875 C-86.12325096 174.20391644 -98.13933033 151.5837682 -100 130 C-100.66 129.67 -101.32 129.34 -102 129 C-102.7117077 97.38649154 -100.57415873 71.62412246 -82 45 C-81.46761719 44.20078125 -80.93523437 43.4015625 -80.38671875 42.578125 C-79.32148133 41.00697837 -78.17276014 39.49260381 -77 38 C-76.34 38 -75.68 38 -75 38 C-74.7525 37.4225 -74.505 36.845 -74.25 36.25 C-72.81700012 33.67060021 -71.21575324 31.93878408 -69 30 C-68.34 30 -67.68 30 -67 30 C-67 29.34 -67 28.68 -67 28 C-48.13206893 12.10276446 -25.10287584 1.16323747 0 2 C0 1.34 0 0.68 0 0 Z M28 55 C22.7686148 62.26581277 22.13519025 68.17089583 23 77 C25.16585161 84.42866862 29.26406884 89.29706497 36 93 C43.31017544 96.64838114 50.4570858 96.70849895 58.23046875 94.3125 C64.87658686 91.43294399 70.20279336 85.66731446 73 79 C74.85322542 71.05760533 73.6777131 64.19375296 69.96484375 56.9921875 C66.41319437 51.42994339 61.20183244 48.06727748 55 46 C43.52662637 45.1107042 35.69471318 46.02283462 28 55 Z " fill="#21ACBB" transform="translate(507,400)"/>
<path d="M0 0 C0 4.14613757 -1.6678128 5.09808719 -4.5 8.0625 C-5.4292629 9.05525597 -6.3563162 10.05008444 -7.28125 11.046875 C-7.74402344 11.54509766 -8.20679688 12.04332031 -8.68359375 12.55664062 C-12.00635388 16.19984499 -15.00885156 20.08421349 -18 24 C-18.43973145 24.56187012 -18.87946289 25.12374023 -19.33251953 25.70263672 C-20.7619794 27.53770766 -22.16430286 29.39103335 -23.5625 31.25 C-24.2440918 32.11782104 -24.2440918 32.11782104 -24.93945312 33.00317383 C-26.96582011 35.75465458 -27.98636168 37.57775775 -28.09765625 41.0234375 C-26.70645581 44.79601663 -24.53793207 47.44248716 -21.875 50.375 C-21.37073486 50.94879395 -20.86646973 51.52258789 -20.34692383 52.11376953 C-19.3473291 53.24943223 -18.34298776 54.38093808 -17.33349609 55.5078125 C-15.75616978 57.272847 -14.22372833 59.07417708 -12.6875 60.875 C-3.56514579 71.19372854 5.98865785 81.09937463 15.6875 90.875 C16.54166504 91.74213623 17.39583008 92.60927246 18.27587891 93.50268555 C23.45451766 98.6887663 28.81857914 103.45639724 34.5534668 108.02099609 C36.82425547 109.85784002 38.9831406 111.76562208 41.125 113.75 C48.03920262 119.95917659 55.55549691 125.44989566 63 131 C63.60505371 131.45165527 64.21010742 131.90331055 64.83349609 132.36865234 C87.36729239 149.0839534 113.93135778 166.86171541 141 175 C140.32195312 174.22398437 139.64390625 173.44796875 138.9453125 172.6484375 C118.42887846 148.94303599 91.6301881 111.87548561 93 79 C95.66833289 81.66833289 95.95806081 84.49793025 96.75 88.0625 C104.36949512 119.93990617 120.60145244 149.23842056 143.28515625 172.87890625 C145.04098802 175.05069817 145.43860101 176.33117408 146 179 C137.60830896 177.14836803 130.11219381 173.96870387 122.43920898 170.17675781 C120.57331594 169.25534114 118.70057676 168.34926689 116.82617188 167.4453125 C104.58963739 161.4997111 93.06627488 154.54659282 81.69189453 147.10546875 C80.09902806 146.06470405 78.50085319 145.03207671 76.90234375 144 C69.90136606 139.42492103 63.24850102 134.48202251 56.6796875 129.31640625 C54.99140456 127.99326358 53.29377528 126.68301032 51.59375 125.375 C31.01295549 109.47668547 10.64766376 91.82211576 -6.26953125 72.01171875 C-8.24226891 69.71835556 -10.27531845 67.48627783 -12.3125 65.25 C-30.97587349 44.5413253 -30.97587349 44.5413253 -31.0234375 39.53125 C-29.66777508 36.17831394 -27.76279143 33.38733306 -25.625 30.5 C-25.18309326 29.89269043 -24.74118652 29.28538086 -24.28588867 28.65966797 C-19.50175213 22.1739268 -14.29799585 16.0675824 -9 10 C-8.28070313 9.16855469 -7.56140625 8.33710938 -6.8203125 7.48046875 C-4.59879243 4.92249439 -2.39606337 2.39606337 0 0 Z " fill="#1F8A90" transform="translate(230,470)"/>
<path d="M0 0 C8.71651854 0.46488099 16.56016126 3.20877912 24.75 6 C25.4839801 6.24776184 26.21796021 6.49552368 26.97418213 6.75079346 C48.79932399 14.13383019 69.34565 23.85677864 90 34 C90.80026611 34.38953857 91.60053223 34.77907715 92.42504883 35.18041992 C95.79049668 36.833411 98.99976186 38.52212463 102.0625 40.6875 C105.36132736 42.94697079 108.72089834 45.04540694 112.16748047 47.07275391 C131.13425193 58.22996577 148.73442586 71.43465898 165.59350586 85.54418945 C166.2716333 86.11097412 166.94976074 86.67775879 167.6484375 87.26171875 C168.24833496 87.76662842 168.84823242 88.27153809 169.46630859 88.79174805 C171.00169089 90.08509956 171.00169089 90.08509956 173 91 C173 91.66 173 92.32 173 93 C173.54527344 93.226875 174.09054687 93.45375 174.65234375 93.6875 C177.68604618 95.38354661 180.0546061 97.62864835 182.5625 100 C183.62730908 100.99250418 184.69242022 101.98468438 185.7578125 102.9765625 C186.29567383 103.47961914 186.83353516 103.98267578 187.38769531 104.50097656 C190.73180886 107.61013119 194.13671338 110.65272187 197.52734375 113.7109375 C200.08598469 116.07960036 202.54809606 118.52123639 205 121 C205.80953125 121.80179687 206.6190625 122.60359375 207.453125 123.4296875 C215.80170898 131.85509894 223.64587322 140.69433645 231 150 C231.54479004 150.68288086 232.08958008 151.36576172 232.65087891 152.06933594 C253.25713378 177.92882097 253.25713378 177.92882097 252.875 188.4375 C251.27837384 194.93804937 248.00190379 200.66412828 244 206 C243.34 206 242.68 206 242 206 C243.45383624 201.88079732 245.56662319 198.61081721 248 195 C250.09353973 188.71938081 249.92661601 182.15242035 247.125 176.125 C243.45900883 169.59042252 238.69420992 163.81085474 234 158 C232.88044922 156.58847656 232.88044922 156.58847656 231.73828125 155.1484375 C226.97642135 149.21534815 221.95568988 143.58306045 216.7734375 138.01953125 C214.70281288 135.7909872 212.70727715 133.50848118 210.72265625 131.203125 C206.69669036 126.58410673 202.40466707 122.25768141 198.0625 117.9375 C197.30259766 117.17373047 196.54269531 116.40996094 195.75976562 115.62304688 C191.56132903 111.43178096 187.27618635 107.40928276 182.7800293 103.53930664 C180.42327338 101.50126713 178.1535854 99.37472593 175.875 97.25 C170.58939352 92.42560295 165.04694289 88.01844578 159.38671875 83.64453125 C156.46179119 81.37972944 153.63404531 79.0178454 150.8125 76.625 C124.00563712 54.60647866 92.35536095 37.46832223 61 23 C60.22785156 22.64035156 59.45570313 22.28070313 58.66015625 21.91015625 C47.70662637 16.83114519 36.43679095 12.84541377 25 9 C24.16484863 8.71705078 23.32969727 8.43410156 22.46923828 8.14257812 C15.01617394 5.61789449 7.58228563 3.11114619 0 1 C0 0.67 0 0.34 0 0 Z " fill="#1F8A90" transform="translate(604,322)"/>
<path d="M0 0 C0.99 0.495 0.99 0.495 2 1 C-2.78797832 7.91448265 -7.88863286 14.27583547 -13.6171875 20.43359375 C-15.69164532 22.66788684 -17.70075284 24.93806777 -19.6875 27.25 C-22.9571367 31.01200552 -26.44223295 34.51276137 -30 38 C-33.05966494 41.04859924 -36.10349644 44.11250713 -39.14453125 47.1796875 C-40.70045899 48.74485315 -42.2564502 50.3099557 -43.8125 51.875 C-44.96588867 53.04095703 -44.96588867 53.04095703 -46.14257812 54.23046875 C-50.92923271 59.03732019 -55.8551352 63.58190168 -61 68 C-62.13368102 69.00928589 -63.2652586 70.02094033 -64.39453125 71.03515625 C-74.12588847 79.6921807 -84.40301476 87.43758416 -95 95 C-95.59522461 95.42764648 -96.19044922 95.85529297 -96.80371094 96.29589844 C-116.68789442 110.54324432 -137.82042936 123.05682833 -160.0625 133.25 C-160.88935303 133.63309326 -161.71620605 134.01618652 -162.56811523 134.41088867 C-166.4904378 136.15636923 -169.60780595 137.53024475 -174 137 C-171.75460717 133.35123665 -169.34352738 130.21318266 -166.4375 127.0625 C-145.61221774 103.95764139 -131.32038824 75.81314511 -123 46 C-122.66355469 44.80503906 -122.32710937 43.61007812 -121.98046875 42.37890625 C-120.20729798 35.66182092 -119.03479248 28.86615248 -118 22 C-117.67 22 -117.34 22 -117 22 C-116.63216304 29.49059095 -117.61120608 36.07470362 -119.5 43.3125 C-119.76844727 44.3543042 -120.03689453 45.3961084 -120.31347656 46.46948242 C-129.24409259 79.94913254 -146.96680837 107.67053308 -169 134 C-150.59503769 126.09504873 -132.65275649 117.19365737 -116 106 C-114.90558594 105.28972656 -113.81117188 104.57945312 -112.68359375 103.84765625 C-98.20229647 94.41029659 -84.17399417 84.19597463 -71 73 C-69.83597174 72.02209466 -68.67190684 71.04423293 -67.5078125 70.06640625 C-61.71635124 65.17609483 -56.07450203 60.25518626 -50.80078125 54.80078125 C-48.88403994 52.88403994 -46.87591838 51.13215962 -44.8125 49.375 C-41.47888716 46.51483801 -38.80720538 43.38304238 -36 40 C-34.89263821 39.02133885 -33.76630491 38.06385615 -32.625 37.125 C-29.40080741 34.44047913 -26.72388822 31.52178074 -24.01171875 28.328125 C-22.05262278 26.06089937 -20.03324858 23.85888559 -17.99316406 21.66455078 C-11.57457635 14.75744939 -5.6373618 7.56231461 0 0 Z " fill="#1F8B90" transform="translate(821,512)"/>
<path d="M0 0 C0.66 0.33 1.32 0.66 2 1 C1.20335937 2.051875 1.20335937 2.051875 0.390625 3.125 C-8.63878206 14.81658256 -8.63878206 14.81658256 -11 29 C-9.08384548 34.31638951 -6.40989704 38.75574488 -3.1875 43.375 C-2.47823364 44.39787109 -2.47823364 44.39787109 -1.75463867 45.44140625 C5.66270435 55.95858803 13.78459749 66.32894953 23.15283203 75.18383789 C24.90341809 76.90503928 26.48474701 78.68192149 28.0703125 80.5546875 C32.62054488 85.79513382 37.52156213 90.66752562 42.4375 95.5625 C43.34048828 96.46935547 44.24347656 97.37621094 45.17382812 98.31054688 C50.28820928 103.41752125 55.50381625 108.30891141 61 113 C62.20340137 114.05679903 63.40524561 115.11537404 64.60546875 116.17578125 C72.50645917 123.11164034 80.54606391 129.74674923 89 136 C89.65806641 136.48936035 90.31613281 136.9787207 90.99414062 137.48291016 C122.0616376 160.51101098 155.85768173 181.00535816 192 195 C192.66966797 195.26184082 193.33933594 195.52368164 194.02929688 195.79345703 C205.24420569 200.15756732 216.62896243 204.06576138 228 208 C225.10765685 208.82638376 223.11257569 209 220 209 C220 208.34 220 207.68 220 207 C218.78957031 206.77441406 217.57914063 206.54882812 216.33203125 206.31640625 C209.8635618 204.8732166 203.82707467 202.39458498 197.6875 199.9375 C197.07162018 199.69256805 196.45574036 199.44763611 195.82119751 199.19528198 C171.98293835 189.70977846 148.56710531 178.99453607 127 165 C125.68023457 164.16189832 124.35988395 163.32471768 123.0390625 162.48828125 C104.51896693 150.70160288 86.80117755 137.9460464 70.12890625 123.65625 C67.23984704 121.18626898 64.28227911 118.80998176 61.3125 116.4375 C56.67880967 112.67262661 52.49756542 108.59980753 48.328125 104.33203125 C46.3038463 102.3043561 44.24224333 100.41882613 42.0625 98.5625 C34.79898548 92.32822843 28.0668501 85.42500657 21.86328125 78.140625 C19.99163477 75.99038963 18.05519995 73.90966314 16.10522461 71.83056641 C-12.55906054 41.13751921 -12.55906054 41.13751921 -14 27 C-13.64353648 16.64379669 -6.80824199 7.29454499 0 0 Z " fill="#21888C" transform="translate(180,483)"/>
<path d="M0 0 C-2.25605548 2.25605548 -3.71470852 2.73571576 -6.71484375 3.7421875 C-7.69735107 4.07968018 -8.6798584 4.41717285 -9.69213867 4.76489258 C-10.76310791 5.13122803 -11.83407715 5.49756348 -12.9375 5.875 C-34.92796438 13.61955798 -55.82259318 23.33898168 -76 35 C-76.85142578 35.48968262 -77.70285156 35.97936523 -78.58007812 36.48388672 C-100.64666727 49.24665653 -121.69491845 63.77624294 -141.00390625 80.4375 C-143.70879036 82.75093413 -146.46294539 84.97462055 -149.25 87.1875 C-161.06228349 96.83505044 -171.83079333 107.7476816 -182.625 118.5 C-183.86817993 119.73617065 -183.86817993 119.73617065 -185.13647461 120.99731445 C-189.44705184 125.31928026 -193.58665109 129.70668857 -197.50537109 134.38867188 C-199 136 -199 136 -202 138 C-199.2774929 132.10123462 -196.06849154 128.00764448 -191 124 C-189.93933749 122.82398369 -188.90123766 121.62745535 -187.87890625 120.41796875 C-183.87769149 115.79010816 -179.59870362 111.48687278 -175.25 107.1875 C-174.49589844 106.43791016 -173.74179688 105.68832031 -172.96484375 104.91601562 C-171.57440925 103.53422503 -170.18294093 102.15347327 -168.79003906 100.77416992 C-167.65521742 99.64940875 -166.52627496 98.5186588 -165.40551758 97.37988281 C-163.40528606 95.41613285 -161.19076511 93.74824925 -159 92 C-157.30233311 90.5402895 -155.6209316 89.06296919 -153.93896484 87.58520508 C-146.71098941 81.23839188 -139.31796137 75.17350852 -131.6953125 69.30859375 C-130.00834776 68.00644355 -128.33139487 66.69230876 -126.65625 65.375 C-120.64702974 60.66860862 -114.52681258 56.21760925 -108.12890625 52.046875 C-105.94970937 50.62128304 -103.79538118 49.18057323 -101.65234375 47.703125 C-45.25680777 9 -45.25680777 9 -27 9 C-26.67 8.34 -26.34 7.68 -26 7 C-24.1015625 6.2890625 -24.1015625 6.2890625 -21.625 5.625 C-16.80760047 4.27723399 -12.1948482 2.60417204 -7.54296875 0.76953125 C-4.89197969 -0.03268818 -2.75270765 -0.14331871 0 0 Z " fill="#218B91" transform="translate(396,329)"/>
<path d="M0 0 C0 3 0 3 -1.1105957 4.48291016 C-1.88536255 5.25320557 -1.88536255 5.25320557 -2.67578125 6.0390625 C-3.25150879 6.61543457 -3.82723633 7.19180664 -4.42041016 7.78564453 C-5.0447998 8.39263184 -5.66918945 8.99961914 -6.3125 9.625 C-6.94462402 10.24874512 -7.57674805 10.87249023 -8.22802734 11.51513672 C-12.84160694 16.01259299 -17.61627242 20.16529487 -22.6953125 24.1328125 C-25.06036525 25.97361222 -25.06036525 25.97361222 -27.1796875 28.2421875 C-29 30 -29 30 -31 30 C-31 30.66 -31 31.32 -31 32 C-32.65893555 33.48266602 -32.65893555 33.48266602 -34.94921875 35.19140625 C-36.18551025 36.12557373 -36.18551025 36.12557373 -37.44677734 37.07861328 C-38.71062256 38.02969971 -38.71062256 38.02969971 -40 39 C-41.46808886 40.15082015 -42.9330486 41.30564559 -44.39453125 42.46484375 C-52.72702656 49.02662565 -61.08342151 55.25192826 -70 61 C-71.12310864 61.75743758 -72.24410368 62.51801591 -73.36328125 63.28125 C-90.02118793 74.61999712 -107.363614 84.50747287 -125.3203125 93.63671875 C-127.85383986 94.92564156 -130.38058243 96.22701183 -132.90625 97.53125 C-134.35372932 98.27168892 -135.80161657 99.01133118 -137.25 99.75 C-137.89936523 100.08547852 -138.54873047 100.42095703 -139.21777344 100.76660156 C-142.02953266 102.18240862 -143.80300918 103 -147 103 C-147.33 103.66 -147.66 104.32 -148 105 C-157.9681821 109.53238387 -168.69275957 112.63674856 -179.0625 116.125 C-180.30346436 116.54458984 -181.54442871 116.96417969 -182.82299805 117.39648438 C-189.17379529 119.51160685 -195.54622573 121.51549817 -201.99609375 123.3046875 C-203.17228271 123.63194824 -204.34847168 123.95920898 -205.56030273 124.29638672 C-209.1320131 125.02700417 -212.3646275 125.12578742 -216 125 C-213.07018832 123.04679221 -211.19015889 122.39548812 -207.828125 121.5546875 C-206.78317871 121.2868042 -205.73823242 121.0189209 -204.66162109 120.74291992 C-203.53578613 120.45650635 -202.40995117 120.17009277 -201.25 119.875 C-176.44452595 113.35563457 -152.04495548 104.52334227 -129.25 92.6875 C-126.9691102 91.50319183 -124.69128395 90.35927522 -122.375 89.25 C-85.88162721 71.68170708 -51.75915456 47.3866743 -22 20 C-20.33503464 18.49811181 -18.66833245 16.99814706 -17 15.5 C-16.1853125 14.76652344 -15.370625 14.03304687 -14.53125 13.27734375 C-12.76143939 11.68506044 -10.99051451 10.09401513 -9.21875 8.50390625 C-7.87296875 7.29541016 -7.87296875 7.29541016 -6.5 6.0625 C-5.6853125 5.33160156 -4.870625 4.60070312 -4.03125 3.84765625 C-2.65711081 2.5977181 -1.3135075 1.3135075 0 0 Z " fill="#21898F" transform="translate(804,575)"/>
<path d="M0 0 C5.80386629 1.40863068 10.64328921 3.71462117 15.875 6.5625 C17.57406433 7.47554782 19.27328606 8.38830281 20.97265625 9.30078125 C22.24326904 9.98648193 22.24326904 9.98648193 23.53955078 10.68603516 C25.76275801 11.87330459 27.99798963 13.02875196 30.24609375 14.16796875 C47.40884382 22.91276918 63.53454464 33.54265886 79 45 C80.51400391 46.10214844 80.51400391 46.10214844 82.05859375 47.2265625 C88.55831863 52.01049525 94.74387841 57.07927801 100.86328125 62.33203125 C103.60819447 64.68350413 106.41954726 66.9394097 109.25 69.1875 C147.8870658 100.66119739 147.8870658 100.66119739 152 113 C152.99 113.33 153.98 113.66 155 114 C156.84263669 116.10964296 158.55746805 118.21297987 160.25 120.4375 C160.73581543 121.06769043 161.22163086 121.69788086 161.72216797 122.34716797 C173.11120127 137.20915806 173.11120127 137.20915806 174 142 C171.09994021 139.23985538 168.77799206 136.41210257 166.5 133.125 C162.64848279 127.7256089 158.43634529 122.73261167 154.03710938 117.77197266 C151.59776324 114.99471189 149.40561956 112.44630819 148 109 C147.34 109 146.68 109 146 109 C144.70629883 107.68945312 144.70629883 107.68945312 143.14453125 105.78125 C138.48195769 100.30239449 133.42363269 95.23757606 128.34008789 90.15478516 C126.69581076 88.50832181 125.05971926 86.85400916 123.42382812 85.19921875 C117.93111161 79.67744517 112.38580005 74.49012922 106.21362305 69.71679688 C103.05440051 67.26663112 100.06884589 64.63323689 97.0625 62 C91.26570078 56.98438549 85.27415526 52.40839678 79 48 C77.92177174 47.21546949 76.84501621 46.428912 75.76953125 45.640625 C67.10673455 39.31674623 58.16730049 33.56208328 49 28 C48.36320313 27.60876953 47.72640625 27.21753906 47.0703125 26.81445312 C36.38058889 20.2588165 25.33535841 14.43964556 14.17651367 8.73339844 C13.06123291 8.16266602 11.94595215 7.59193359 10.796875 7.00390625 C9.80010742 6.49674072 8.80333984 5.9895752 7.77636719 5.46704102 C5.11897927 4.06286901 2.52821326 2.62589868 0 1 C0 0.67 0 0.34 0 0 Z " fill="#1F8A8F" transform="translate(648,367)"/>
<path d="M0 0 C2 1 2 1 3.04296875 4 C3.42865719 5.33213078 3.80982386 6.66557551 4.1875 8 C13.25722959 38.20977747 30.12011681 67.069099 55 87 C56.27037109 88.02673828 56.27037109 88.02673828 57.56640625 89.07421875 C71.20586792 99.70743172 85.66651258 107.11158157 101.82128906 113.16357422 C104.92170003 114.35384853 107.95859134 115.66683561 111 117 C104.16325481 119.27891506 95.71953392 114.48087173 89.4909668 111.41625977 C86.64652669 109.97112862 83.82427113 108.484058 81 107 C79.62672358 106.35050976 78.25203766 105.70397717 76.875 105.0625 C40.06977275 86.54217243 14.9890192 48.9717428 1.96484375 10.98046875 C0.72900842 7.05453606 0 4.16523644 0 0 Z " fill="#1F8C91" transform="translate(352,551)"/>
<path d="M0 0 C7.02411982 3.70503023 11.92093513 8.15075058 15.23828125 15.46875 C17.52231763 22.95475471 17.30251432 30.727593 14.0625 37.875 C10.07927651 44.70819184 4.68376401 48.96452801 -2.875 51.375 C-5.61051607 51.70657771 -8.02669475 51.90123924 -10.75 51.875 C-11.45181396 51.86855469 -12.15362793 51.86210937 -12.87670898 51.85546875 C-21.29922541 51.55942932 -26.1162363 48.49535102 -31.75 42.5 C-37.38370785 35.48073987 -38.76035673 29.2160975 -37.875 20.375 C-36.63087133 13.41460445 -33.2977152 7.94640722 -27.875 3.375 C-25.65234375 2.65625 -25.65234375 2.65625 -23.875 2.375 C-24.26171875 2.81070312 -24.6484375 3.24640625 -25.046875 3.6953125 C-31.97747893 11.62090413 -35.33803486 17.250654 -35.20703125 27.9453125 C-34.60172508 34.19776922 -32.48819074 39.02557057 -27.78515625 43.25390625 C-20.66191072 48.30714881 -14.24010165 49.94949171 -5.5859375 48.90625 C1.95193077 47.4290885 6.80547606 43.64793923 11.125 37.375 C14.10767943 32.20502231 14.67166963 26.52290595 13.65625 20.67578125 C12.29328204 15.72020752 10.6199067 12.23144878 7.125 8.375 C7.125 7.715 7.125 7.055 7.125 6.375 C6.073125 5.9728125 6.073125 5.9728125 5 5.5625 C2.125 4.375 2.125 4.375 -0.4375 2.8125 C-4.99668656 0.90593108 -8.87000999 1.04418704 -13.75 1.1875 C-15.06871094 1.20780273 -15.06871094 1.20780273 -16.4140625 1.22851562 C-18.56797552 1.26363377 -20.72157004 1.31743306 -22.875 1.375 C-17.53300105 -3.96699895 -6.51639736 -2.70767546 0 0 Z " fill="#218D92" transform="translate(565.875,445.625)"/>
<path d="M0 0 C18.15558055 3.3285231 36.75022655 13.41132882 51 25 C52.0209375 25.81984375 53.041875 26.6396875 54.09375 27.484375 C71.03022747 41.31401102 84.85595586 57.13432122 96 76 C96.88558594 77.49080078 96.88558594 77.49080078 97.7890625 79.01171875 C101.01086582 84.63884098 101.01086582 84.63884098 102 87 C101.505 88.485 101.505 88.485 101 90 C100.64397705 89.35675781 100.2879541 88.71351563 99.92114258 88.05078125 C92.28621409 74.35601748 84.40504991 61.74092861 74 50 C73.1646875 49.02675781 72.329375 48.05351562 71.46875 47.05078125 C59.08201454 32.8611819 43.43841453 21.47904203 26.75 12.875 C25.7501709 12.35437988 24.7503418 11.83375977 23.72021484 11.29736328 C17.07134627 7.89619064 10.48483262 5.06334942 3.3515625 2.8671875 C1 2 1 2 0 0 Z " fill="#208B90" transform="translate(560,348)"/>
<path d="M0 0 C0 4.22937514 -2.38389987 6.42032715 -4.875 9.625 C-26.02735705 37.77324611 -35.79257749 69.34528064 -38.125 104.3125 C-38.25455078 106.15618164 -38.25455078 106.15618164 -38.38671875 108.03710938 C-38.59594825 111.02444164 -38.8003089 114.01201764 -39 117 C-39.33 117 -39.66 117 -40 117 C-41.2066139 85.34216402 -35.3667137 55.85612093 -20 28 C-19.49726563 27.08089844 -18.99453125 26.16179687 -18.4765625 25.21484375 C-13.29070561 16.17540812 -6.79089175 7.88619687 0 0 Z " fill="#1F878B" transform="translate(387,397)"/>
<path d="M0 0 C6.05152162 0.51053332 10.91186714 1.82335443 16.4375 4.3125 C17.20666748 4.65571289 17.97583496 4.99892578 18.76831055 5.35253906 C45.3235314 17.76824815 64.65703418 40.2726881 75 67.4375 C76.7334373 72.54505272 77.53597128 76.64028718 77 82 C75.0934625 79.14019376 74.35046116 76.84143199 73.50463867 73.55493164 C69.7262369 59.03175065 63.01962435 46.20839334 53 35 C52.26394531 34.11054688 51.52789063 33.22109375 50.76953125 32.3046875 C37.34968598 16.58617379 19.16925662 7.82740647 0 1 C0 0.67 0 0.34 0 0 Z " fill="#1F8A90" transform="translate(539,406)"/>
<path d="M0 0 C0.33 0 0.66 0 1 0 C1.72289919 17.73362087 -10.03584683 36.86454973 -21 50 C-21.79792969 50.98484375 -22.59585938 51.9696875 -23.41796875 52.984375 C-34.32048382 65.71772089 -51.89090849 79.87098262 -69 82 C-67.39037985 78.78075971 -63.9493475 78.22119333 -60.75 76.9375 C-35.08826298 66.1461458 -16.53073044 44.85302886 -5.80078125 19.6171875 C-3.21791004 13.242613 -1.50315412 6.70485852 0 0 Z " fill="#208C91" transform="translate(615,530)"/>
<path d="M0 0 C0.99 0.495 0.99 0.495 2 1 C-2.67519126 3.91584297 -7.40531205 6.70357457 -12.2734375 9.28515625 C-35.30742631 21.54031285 -56.786344 36.52837619 -77 53 C-78.87373862 54.50157536 -80.7487206 56.00160065 -82.625 57.5 C-83.46289062 58.1703125 -84.30078125 58.840625 -85.1640625 59.53125 C-86.07285156 60.25828125 -86.07285156 60.25828125 -87 61 C-87.66 60.67 -88.32 60.34 -89 60 C-81.69261112 53.10976521 -74.17223048 46.85565659 -66 41 C-65.03634521 40.30753174 -65.03634521 40.30753174 -64.05322266 39.60107422 C-59.06439435 36.02549167 -54.04144784 32.50090744 -49 29 C-48.37754395 28.5654248 -47.75508789 28.13084961 -47.11376953 27.68310547 C-36.917468 20.59472307 -26.26969418 14.39560694 -15.42626953 8.35253906 C-13.22605655 7.12601663 -11.03253867 5.88832542 -8.83984375 4.6484375 C-7.66469754 3.99365066 -6.48896969 3.33990592 -5.3125 2.6875 C-3.82169922 1.85798828 -3.82169922 1.85798828 -2.30078125 1.01171875 C-1.54152344 0.67785156 -0.78226562 0.34398437 0 0 Z " fill="#1F888D" transform="translate(354,376)"/>
<path d="M0 0 C21.40761056 9.24205214 36.90216552 49.6264674 45 70 C46.53905454 74.24279899 47.21569621 77.47037953 47 82 C44.74385921 78.61578882 43.64215303 75.19526972 42.375 71.375 C35.59580163 51.68584996 19.90003185 11.95001593 0 2 C0 1.34 0 0.68 0 0 Z " fill="#1F8A8E" transform="translate(650,371)"/>
<path d="M0 0 C-1.39798828 0.69222656 -1.39798828 0.69222656 -2.82421875 1.3984375 C-30.31370041 15.33011987 -48.55700704 37.19394602 -59 66 C-59.33 66 -59.66 66 -60 66 C-59.14603723 53.47521264 -51.85788793 43.06902239 -45 33 C-44.46503906 32.19433594 -43.93007813 31.38867188 -43.37890625 30.55859375 C-42.31446884 28.99510259 -41.16857016 27.48727112 -40 26 C-39.34 26 -38.68 26 -38 26 C-37.7525 25.4225 -37.505 24.845 -37.25 24.25 C-35.81700012 21.67060021 -34.21575324 19.93878408 -32 18 C-31.34 18 -30.68 18 -30 18 C-30 17.34 -30 16.68 -30 16 C-27.7665528 14.15537154 -25.53463211 12.43950739 -23.1875 10.75 C-22.16885864 10.01281738 -22.16885864 10.01281738 -21.12963867 9.26074219 C-5.32571105 -2.00785428 -5.32571105 -2.00785428 0 0 Z " fill="#208C91" transform="translate(470,412)"/>
<path d="M0 0 C0.99 0.495 0.99 0.495 2 1 C-0.01740481 3.35717826 -2.03879176 5.71074268 -4.0625 8.0625 C-4.62388672 8.71927734 -5.18527344 9.37605469 -5.76367188 10.05273438 C-20.63705547 27.30585934 -44.63516954 48.43587332 -68 52 C-68 51.34 -68 50.68 -68 50 C-67.00742187 49.5875 -66.01484375 49.175 -64.9921875 48.75 C-39.08265131 37.81805877 -17.92238382 21.69551725 0 0 Z " fill="#219097" transform="translate(642,613)"/>
<path d="M0 0 C1.91804478 2.87706718 2.51754606 4.58788986 3.3125 7.875 C7.97197863 25.36525969 15.79287038 39.41777501 28.3984375 52.29296875 C30.47371085 54.4523748 32.28466696 56.5553587 34 59 C25.95597189 57.52003812 21.20735759 48.95059626 16.77416992 42.67675781 C8.33759691 30.38259352 -0.62540651 15.32245939 0 0 Z " fill="#208B90" transform="translate(408,532)"/>
<path d="M0 0 C0.33 0 0.66 0 1 0 C1.01981934 0.97122803 1.03963867 1.94245605 1.06005859 2.94311523 C1.13761341 6.63554762 1.22606237 10.32766001 1.31738281 14.01977539 C1.35506738 15.60109017 1.39001048 17.18247326 1.421875 18.76391602 C1.61090877 28.04133912 2.07986236 37.1697099 3.32040405 46.37217712 C3.84288921 50.28133582 4.09406877 54.05637702 4 58 C3.34 57.67 2.68 57.34 2 57 C1.31338992 54.12442658 0.79872242 51.35668739 0.375 48.4375 C0.17825684 47.08410522 0.17825684 47.08410522 -0.02246094 45.70336914 C-1.1577752 36.78525446 -1.27100953 27.91249259 -1.25 18.9375 C-1.24870087 17.87074539 -1.24870087 17.87074539 -1.24737549 16.78244019 C-1.2069223 3.92370681 -1.2069223 3.92370681 0 0 Z " fill="#238D91" transform="translate(319,490)"/>
<path d="M0 0 C4.23047685 0.4467269 8.45906184 0.90940173 12.6875 1.375 C13.88568359 1.50132812 15.08386719 1.62765625 16.31835938 1.7578125 C18.05375977 1.95117188 18.05375977 1.95117188 19.82421875 2.1484375 C21.41882935 2.32125244 21.41882935 2.32125244 23.0456543 2.49755859 C25.94044714 2.98987193 28.32790137 3.80328 31 5 C31 5.33 31 5.66 31 6 C30.15151489 5.8928064 30.15151489 5.8928064 29.28588867 5.78344727 C19.63935996 4.72819979 10.00141208 4.88969138 0.3125 4.9375 C-1.4680977 4.94252582 -3.24869677 4.94708681 -5.02929688 4.95117188 C-9.35289909 4.96209 -13.67643403 4.97929479 -18 5 C-17.67 4.34 -17.34 3.68 -17 3 C-11.31648386 1.9850864 -5.76082132 1.87998289 0 2 C0 1.34 0 0.68 0 0 Z " fill="#239097" transform="translate(507,400)"/>
<path d="M0 0 C0.99 0.495 0.99 0.495 2 1 C2.41064453 3.01855469 2.41064453 3.01855469 2.6328125 5.671875 C2.71684326 6.6400415 2.80087402 7.60820801 2.88745117 8.60571289 C2.96584229 9.64332764 3.0442334 10.68094238 3.125 11.75 C3.20919189 12.80243896 3.29338379 13.85487793 3.38012695 14.93920898 C3.94096728 22.30854857 4.31672346 29.60978585 4 37 C3.94714844 38.26070312 3.89429688 39.52140625 3.83984375 40.8203125 C3.29044118 50.70955882 3.29044118 50.70955882 1 53 C1.00523682 52.28271729 1.01047363 51.56543457 1.01586914 50.82641602 C1.12240646 33.85461667 0.84087463 16.95167463 0 0 Z " fill="#23898B" transform="translate(703,480)"/>
<path d="M0 0 C0.33 0.66 0.66 1.32 1 2 C0.39865234 2.82177734 0.39865234 2.82177734 -0.21484375 3.66015625 C-10.57405798 18.1066795 -19.11714123 33.61626256 -26 50 C-26.93269496 47.47319153 -27.08248971 46.25655743 -26.24658203 43.65673828 C-25.83778809 42.80321777 -25.42899414 41.94969727 -25.0078125 41.0703125 C-24.55438477 40.11656738 -24.10095703 39.16282227 -23.63378906 38.18017578 C-22.88693848 36.66786377 -22.88693848 36.66786377 -22.125 35.125 C-21.62194336 34.0922998 -21.11888672 33.05959961 -20.60058594 31.99560547 C-14.88415336 20.45621172 -8.19592308 9.96160426 0 0 Z " fill="#208A8D" transform="translate(360,385)"/>
<path d="M0 0 C0.66 0 1.32 0 2 0 C0.09458645 7.32028277 -2.62226741 13.77810001 -6.1875 20.4375 C-6.67001221 21.35039795 -7.15252441 22.2632959 -7.6496582 23.20385742 C-11.25665177 29.90631162 -15.17373458 36.09508501 -20 42 C-20.33 41.34 -20.66 40.68 -21 40 C-19.44140439 37.28926607 -17.82444627 34.68323663 -16.125 32.0625 C-9.78255276 22.02012111 -3.77105047 11.31315141 0 0 Z " fill="#1F898E" transform="translate(665,570)"/>
<path d="M0 0 C4.22815542 2.17269354 7.71636972 5.0869322 11.125 8.375 C10.795 9.365 10.465 10.355 10.125 11.375 C8.625 10 8.625 10 7.125 8.375 C7.125 7.715 7.125 7.055 7.125 6.375 C6.42375 6.106875 5.7225 5.83875 5 5.5625 C2.125 4.375 2.125 4.375 -0.4375 2.8125 C-4.99668656 0.90593108 -8.87000999 1.04418704 -13.75 1.1875 C-15.06871094 1.20780273 -15.06871094 1.20780273 -16.4140625 1.22851562 C-18.56797552 1.26363377 -20.72157004 1.31743306 -22.875 1.375 C-17.53300105 -3.96699895 -6.51639736 -2.70767546 0 0 Z " fill="#219399" transform="translate(565.875,445.625)"/>
<path d="M0 0 C0.66 0.33 1.32 0.66 2 1 C1.68546875 1.8971875 1.3709375 2.794375 1.046875 3.71875 C-2.15225402 13.04633099 -4.74265279 22.40312163 -7 32 C-7.33 32 -7.66 32 -8 32 C-8.54231961 25.11747115 -6.55404866 19.16476253 -4.5625 12.625 C-4.23701172 11.52027344 -3.91152344 10.41554688 -3.57617188 9.27734375 C-1.15279908 1.15279908 -1.15279908 1.15279908 0 0 Z " fill="#208688" transform="translate(331,437)"/>
<path d="M0 0 C-1.28519565 2.86697492 -2.57129254 4.97607712 -5 7 C-5.66 7 -6.32 7 -7 7 C-7.2371875 7.56203125 -7.474375 8.1240625 -7.71875 8.703125 C-9.28947697 11.51894042 -11.21471464 13.47955416 -13.5 15.75 C-14.2940625 16.54921875 -15.088125 17.3484375 -15.90625 18.171875 C-18 20 -18 20 -20 20 C-18.57937485 16.7731002 -16.85754559 14.60057488 -14.375 12.109375 C-13.66859375 11.40039062 -12.9621875 10.69140625 -12.234375 9.9609375 C-11.49703125 9.23132813 -10.7596875 8.50171875 -10 7.75 C-9.26265625 7.00492187 -8.5253125 6.25984375 -7.765625 5.4921875 C-6.70601562 4.43644531 -6.70601562 4.43644531 -5.625 3.359375 C-4.97789062 2.71452148 -4.33078125 2.06966797 -3.6640625 1.40527344 C-2 0 -2 0 0 0 Z " fill="#218E95" transform="translate(254,447)"/>
<path d="M0 0 C0.33 0.66 0.66 1.32 1 2 C-3.81899793 8.04457024 -8.75066914 13.95636675 -13.9375 19.6875 C-14.40969971 20.21633789 -14.88189941 20.74517578 -15.3684082 21.29003906 C-16.53653439 22.56682322 -17.76372411 23.78908361 -19 25 C-19.66 25 -20.32 25 -21 25 C-19.47544717 21.34273939 -17.29302019 19.15002074 -14.4375 16.4375 C-9.15688871 11.27987238 -4.56359351 5.79818886 0 0 Z " fill="#228689" transform="translate(833,543)"/>
<path d="M0 0 C4.52134218 3.71754802 8.77415761 7.64047364 12.9375 11.75 C13.43419189 12.23380127 13.93088379 12.71760254 14.44262695 13.21606445 C15.66847329 14.43848364 16.83934827 15.71551743 18 17 C18 17.66 18 18.32 18 19 C14.84795019 17.60652624 12.73828227 15.97514921 10.328125 13.5234375 C9.33232422 12.51796875 9.33232422 12.51796875 8.31640625 11.4921875 C7.63449219 10.79351563 6.95257813 10.09484375 6.25 9.375 C5.55261719 8.66859375 4.85523438 7.9621875 4.13671875 7.234375 C2.41987512 5.49401297 0.70788168 3.74915019 -1 2 C-0.67 1.34 -0.34 0.68 0 0 Z " fill="#228E95" transform="translate(208,565)"/>
<path d="M0 0 C1.78299349 2.62204925 1.99870694 4.03361957 1.875 7.25 C0.3360518 13.84549229 -2.95137378 19.60183171 -7 25 C-7.66 25 -8.32 25 -9 25 C-7.96251278 22.06045288 -6.93183533 19.91266402 -5 17.4375 C-2.53178755 13.19525984 -2.03593448 9.42889086 -1.39453125 4.609375 C-1 2 -1 2 0 0 Z " fill="#238B8F" transform="translate(855,503)"/>
<path d="M0 0 C3.04332765 1.3584202 5.12309151 2.88463024 7.453125 5.2578125 C8.071875 5.88300781 8.690625 6.50820313 9.328125 7.15234375 C9.96234375 7.80332031 10.5965625 8.45429687 11.25 9.125 C11.8996875 9.78371094 12.549375 10.44242188 13.21875 11.12109375 C14.81711727 12.74296643 16.41061897 14.3693281 18 16 C17.34 16.66 16.68 17.32 16 18 C13.32529045 15.38308836 10.66165519 12.75518292 8 10.125 C7.236875 9.37863281 6.47375 8.63226562 5.6875 7.86328125 C4.965625 7.14785156 4.24375 6.43242188 3.5 5.6953125 C2.8296875 5.03547363 2.159375 4.37563477 1.46875 3.69580078 C0 2 0 2 0 0 Z " fill="#1F9199" transform="translate(232,549)"/>
<path d="M0 0 C4.88141177 1.53262536 9.51287948 3.44058193 14.1875 5.5 C14.89841797 5.80808594 15.60933594 6.11617187 16.34179688 6.43359375 C19.41487149 7.78077416 22.20125961 9.13417307 25 11 C18.69297801 10.53885666 14.13196686 8.99516428 8.5625 6.0625 C7.84384766 5.70220703 7.12519531 5.34191406 6.38476562 4.97070312 C1.14098214 2.28196429 1.14098214 2.28196429 0 0 Z " fill="#218F94" transform="translate(456,602)"/>
<path d="M0 0 C0.66 0 1.32 0 2 0 C6.59225513 16.70842825 6.59225513 16.70842825 6 25 C5.67 25 5.34 25 5 25 C4.15924782 21.58511508 3.32870007 18.16782787 2.5 14.75 C2.26152344 13.78191406 2.02304687 12.81382812 1.77734375 11.81640625 C1.55175781 10.88183594 1.32617188 9.94726562 1.09375 8.984375 C0.77954102 7.69611816 0.77954102 7.69611816 0.45898438 6.38183594 C0 4 0 4 0 0 Z " fill="#208A8F" transform="translate(697,454)"/>
<path d="M0 0 C0.66 0.33 1.32 0.66 2 1 C0.28840909 2.71159091 -1.42341166 4.42293889 -3.13671875 6.1328125 C-4.60071994 7.59988287 -6.05266675 9.07898342 -7.5 10.5625 C-10.54274135 13.52917282 -13.74506545 16.27035748 -17 19 C-14.2436502 13.294717 -10.50344641 9.43714249 -5.68359375 5.42578125 C-3.67423361 3.72411895 -1.82435839 1.89733273 0 0 Z " fill="#1C8488" transform="translate(796,542)"/>
<path d="M0 0 C0 3 0 3 -1.28515625 4.62573242 C-2.16494141 5.4819519 -2.16494141 5.4819519 -3.0625 6.35546875 C-3.69414063 6.97744141 -4.32578125 7.59941406 -4.9765625 8.24023438 C-5.64429688 8.88283203 -6.31203125 9.52542969 -7 10.1875 C-8.00160156 11.16879883 -8.00160156 11.16879883 -9.0234375 12.16992188 C-10.67578441 13.78686135 -12.33471601 15.39640491 -14 17 C-14.66 16.34 -15.32 15.68 -16 15 C-10.72 10.05 -5.44 5.1 0 0 Z " fill="#228C91" transform="translate(804,575)"/>
<path d="M0 0 C0.66 0.33 1.32 0.66 2 1 C0.9171875 1.7425 0.9171875 1.7425 -0.1875 2.5 C-4.91274385 6.70021675 -7.94724271 12.02834243 -10 18 C-10.33 18 -10.66 18 -11 18 C-10.73124573 11.54989753 -8.36586822 7.70327724 -4 3 C-2.69132673 1.96793796 -1.36357761 0.95834956 0 0 Z " fill="#208B8F" transform="translate(540,448)"/>
<path d="M0 0 C0 3 0 3 -1.57421875 4.6484375 C-2.27160156 5.21820313 -2.96898437 5.78796875 -3.6875 6.375 C-6.96864369 9.11997101 -10.02336286 11.93034295 -13 15 C-13.66 14.67 -14.32 14.34 -15 14 C-13.44073252 12.41348318 -11.87743482 10.83092685 -10.3125 9.25 C-9.44238281 8.36828125 -8.57226562 7.4865625 -7.67578125 6.578125 C-5.21997532 4.21194702 -2.69858952 2.08107444 0 0 Z " fill="#1C7C7D" transform="translate(405,379)"/>
<path d="M0 0 C4.34863652 0.56444825 7.17827655 2.15427964 10.8125 4.5625 C12.27623047 5.52349609 12.27623047 5.52349609 13.76953125 6.50390625 C14.50558594 6.99761719 15.24164062 7.49132812 16 8 C15.34 8.66 14.68 9.32 14 10 C11.66390677 8.52504318 9.33109833 7.04531255 7 5.5625 C6.33226562 5.14162109 5.66453125 4.72074219 4.9765625 4.28710938 C3.30037435 3.21811183 1.64799163 2.11197395 0 1 C0 0.67 0 0.34 0 0 Z " fill="#218D94" transform="translate(700,396)"/>
<path d="M0 0 C3.66786393 1.50349377 5.68910393 3.63728792 8.25 6.625 C8.95640625 7.44226563 9.6628125 8.25953125 10.390625 9.1015625 C10.92171875 9.72804688 11.4528125 10.35453125 12 11 C11.34 11.66 10.68 12.32 10 13 C9.44570313 12.28972656 8.89140625 11.57945312 8.3203125 10.84765625 C7.59585938 9.92855469 6.87140625 9.00945312 6.125 8.0625 C5.40570312 7.14597656 4.68640625 6.22945313 3.9453125 5.28515625 C2.20579164 2.93990515 2.20579164 2.93990515 0 2 C0 1.34 0 0.68 0 0 Z " fill="#209298" transform="translate(650,371)"/>
<path d="M0 0 C-4.42255509 3.89184848 -9.19294072 5 -15 5 C-15 4.34 -15 3.68 -15 3 C-13.44033782 2.491217 -11.87710759 1.99336531 -10.3125 1.5 C-9.44238281 1.2215625 -8.57226562 0.943125 -7.67578125 0.65625 C-5.00608323 0.00149195 -2.73603316 -0.11831495 0 0 Z " fill="#238C93" transform="translate(412,324)"/>
<path d="M0 0 C4.875 3.5 4.875 3.5 6 8 C3.36 7.34 0.72 6.68 -2 6 C-2 5.34 -2 4.68 -2 4 C-1.01 4 -0.02 4 1 4 C0.34 3.01 -0.32 2.02 -1 1 C-0.67 0.67 -0.34 0.34 0 0 Z " fill="#1F949B" transform="translate(370,641)"/>
<path d="M0 0 C3.35250701 0.57575664 4.93818629 1.59306263 7.25 4.0625 C8.03117188 4.88427734 8.03117188 4.88427734 8.828125 5.72265625 C9.21484375 6.14417969 9.6015625 6.56570313 10 7 C9.67 7.99 9.34 8.98 9 10 C7.49702124 8.52386015 5.99768715 7.04400843 4.5 5.5625 C3.6646875 4.73878906 2.829375 3.91507812 1.96875 3.06640625 C0 1 0 1 0 0 Z " fill="#23959C" transform="translate(773,453)"/>
<path d="M0 0 C5.08938811 1.59043379 8.87456643 4.7446951 13 8 C12.01 8.33 11.02 8.66 10 9 C7.7734375 7.63671875 7.7734375 7.63671875 5.375 5.6875 C4.57835937 5.05199219 3.78171875 4.41648437 2.9609375 3.76171875 C1 2 1 2 0 0 Z " fill="#20898E" transform="translate(442,592)"/>
<path d="M0 0 C0.33 0.99 0.66 1.98 1 3 C-0.58203125 5.48046875 -0.58203125 5.48046875 -2.8125 8.1875 C-3.90498047 9.53908203 -3.90498047 9.53908203 -5.01953125 10.91796875 C-5.99986328 11.94857422 -5.99986328 11.94857422 -7 13 C-7.66 13 -8.32 13 -9 13 C-7.50923566 9.7173068 -5.61379679 7.06922559 -3.375 4.25 C-2.74335937 3.45078125 -2.11171875 2.6515625 -1.4609375 1.828125 C-0.97882812 1.22484375 -0.49671875 0.6215625 0 0 Z " fill="#21898C" transform="translate(844,529)"/>
<path d="M0 0 C0.33 0.99 0.66 1.98 1 3 C-2.3 6.3 -5.6 9.6 -9 13 C-9 8.86218946 -7.28490393 7.79080004 -4.5 4.8125 C-3.6646875 3.91144531 -2.829375 3.01039063 -1.96875 2.08203125 C-0.99421875 1.05142578 -0.99421875 1.05142578 0 0 Z " fill="#25B4C4" transform="translate(806,533)"/>
<path d="M0 0 C0.66 0.33 1.32 0.66 2 1 C0.68 4.96 -0.64 8.92 -2 13 C-2.66 13 -3.32 13 -4 13 C-3.71517632 11.58194169 -3.42181856 10.16559621 -3.125 8.75 C-2.96257812 7.96109375 -2.80015625 7.1721875 -2.6328125 6.359375 C-2.00849925 4.03168856 -1.15161458 2.10968048 0 0 Z " fill="#219096" transform="translate(331,437)"/>
<path d="M0 0 C0.33 0 0.66 0 1 0 C2.5912689 4.873261 3.21192221 8.80790596 3 14 C2.01 14.495 2.01 14.495 1 15 C0.15318867 9.91913204 -0.09038099 5.15171623 0 0 Z " fill="#249195" transform="translate(704,497)"/>
<path d="M0 0 C0.66 0.33 1.32 0.66 2 1 C-0.97 4.3 -3.94 7.6 -7 11 C-7 7.22089522 -6.00296038 6.53893899 -3.5 3.8125 C-2.8503125 3.09707031 -2.200625 2.38164063 -1.53125 1.64453125 C-1.0259375 1.10183594 -0.520625 0.55914063 0 0 Z " fill="#1F898C" transform="translate(642,613)"/>
<path d="M0 0 C1.46067199 0.45082469 2.91848032 0.91093537 4.375 1.375 C5.18710937 1.63023437 5.99921875 1.88546875 6.8359375 2.1484375 C9 3 9 3 11 5 C9 6 9 6 6.6171875 5.22265625 C5.71226562 4.83980469 4.80734375 4.45695312 3.875 4.0625 C2.50988281 3.49208984 2.50988281 3.49208984 1.1171875 2.91015625 C0.41851563 2.60980469 -0.28015625 2.30945313 -1 2 C-0.67 1.34 -0.34 0.68 0 0 Z " fill="#229199" transform="translate(656,339)"/>
<path d="M0 0 C1.98362069 2.91708924 1.9876191 4.12380904 1.625 7.75 C1.41875 8.8225 1.2125 9.895 1 11 C-1 9 -1 9 -1.1875 5.5 C-1 2 -1 2 0 0 Z " fill="#289BA3" transform="translate(855,503)"/>
<path d="M0 0 C2.64 1.98 5.28 3.96 8 6 C7.67 6.99 7.34 7.98 7 9 C4.36 6.69 1.72 4.38 -1 2 C-0.67 1.34 -0.34 0.68 0 0 Z " fill="#22959B" transform="translate(753,433)"/>
<path d="M0 0 C3.25597758 0.24118352 4.7276304 1.52224212 6.8125 3.875 C7.534375 4.90625 8.25625 5.9375 9 7 C8.67 7.99 8.34 8.98 8 10 C6.66370254 8.52351062 5.33103329 7.0437367 4 5.5625 C3.2575 4.73878906 2.515 3.91507813 1.75 3.06640625 C0 1 0 1 0 0 Z " fill="#238C91" transform="translate(189,546)"/>
<path d="M0 0 C4.31392226 0.4793247 6.16569547 1.7457985 9 5 C8.67 5.99 8.34 6.98 8 8 C6.5 6.625 6.5 6.625 5 5 C5 4.34 5 3.68 5 3 C2.525 2.01 2.525 2.01 0 1 C0 0.67 0 0.34 0 0 Z " fill="#23959A" transform="translate(568,449)"/>
<path d="M0 0 C0.66 0.66 1.32 1.32 2 2 C-0.31 4.64 -2.62 7.28 -5 10 C-5.33 9.34 -5.66 8.68 -6 8 C-4.02 5.36 -2.04 2.72 0 0 Z " fill="#228E92" transform="translate(661,631)"/>
<path d="M0 0 C0.66 0.33 1.32 0.66 2 1 C-0.64 3.97 -3.28 6.94 -6 10 C-6 6.41087588 -5.33563446 5.89142971 -3 3.3125 C-2.443125 2.68988281 -1.88625 2.06726563 -1.3125 1.42578125 C-0.879375 0.95527344 -0.44625 0.48476563 0 0 Z " fill="#1F8A8D" transform="translate(370,373)"/>
<path d="M0 0 C0.33 0.66 0.66 1.32 1 2 C-1.31 4.64 -3.62 7.28 -6 10 C-6 6.41087588 -5.33563446 5.89142971 -3 3.3125 C-2.443125 2.68988281 -1.88625 2.06726563 -1.3125 1.42578125 C-0.879375 0.95527344 -0.44625 0.48476563 0 0 Z " fill="#1D8488" transform="translate(596,574)"/>
<path d="M0 0 C0.66 0.66 1.32 1.32 2 2 C0.35 3.65 -1.3 5.3 -3 7 C-3.99 6.67 -4.98 6.34 -6 6 C-4.02 4.02 -2.04 2.04 0 0 Z " fill="#22939A" transform="translate(802,535)"/>
<path d="M0 0 C0.33 0.99 0.66 1.98 1 3 C-0.32 4.32 -1.64 5.64 -3 7 C-3.99 6.67 -4.98 6.34 -6 6 C-4.02 4.02 -2.04 2.04 0 0 Z " fill="#24989F" transform="translate(438,430)"/>
<path d="M0 0 C0.99 0.33 1.98 0.66 3 1 C1.37660195 2.70884005 -0.29319053 4.37446717 -2 6 C-2.66 6 -3.32 6 -4 6 C-2.84826645 3.53199953 -1.95216435 1.95216435 0 0 Z " fill="#239298" transform="translate(816,562)"/>
<path d="M0 0 C0.66 0.33 1.32 0.66 2 1 C0.02 3.31 -1.96 5.62 -4 8 C-4.33 7.34 -4.66 6.68 -5 6 C-3.35 4.02 -1.7 2.04 0 0 Z " fill="#22898D" transform="translate(187,474)"/>
<path d="M0 0 C0 3 0 3 -1.3125 4.38671875 C-2.875 5.59114583 -4.4375 6.79557292 -6 8 C-6 5 -6 5 -4.6875 3.61328125 C-3.125 2.40885417 -1.5625 1.20442708 0 0 Z " fill="#218E94" transform="translate(405,379)"/>
<path d="M0 0 C0 0.66 0 1.32 0 2 C-4.15267176 5.11450382 -4.15267176 5.11450382 -7.3125 4.6875 C-7.869375 4.460625 -8.42625 4.23375 -9 4 C-2.25 0 -2.25 0 0 0 Z " fill="#239299" transform="translate(325,359)"/>
<path d="M0 0 C4 1 4 1 4 1 Z " fill="#29AEBE" transform="translate(500,343)"/>
<path d="M0 0 C0.33 0.66 0.66 1.32 1 2 C0.34 1.67 -0.32 1.34 -1 1 C-0.67 0.67 -0.34 0.34 0 0 Z " fill="#2CAEB9" transform="translate(656,642)"/>
<path d="M0 0 C3 1 3 1 3 1 Z " fill="#28B0BB" transform="translate(549,447)"/>
<path d="M0 0 C0.66 0.66 1.32 1.32 2 2 C1.34 2 0.68 2 0 2 C0 1.34 0 0.68 0 0 Z " fill="#2BAFBB" transform="translate(696,395)"/>
<path d="M0 0 C2 1 2 1 2 1 Z " fill="#2BA6B1" transform="translate(473,708)"/>
<path d="M0 0 C2 1 2 1 2 1 Z " fill="#29A4AF" transform="translate(465,707)"/>
<path d="M0 0 C2 1 2 1 2 1 Z " fill="#28A4AF" transform="translate(434,701)"/>
<path d="M0 0 C2 1 2 1 2 1 Z " fill="#2CA4AE" transform="translate(596,700)"/>
<path d="M0 0 C2 1 2 1 2 1 Z " fill="#2BA7B1" transform="translate(429,700)"/>
<path d="M0 0 C2 1 2 1 2 1 Z " fill="#2AA4AD" transform="translate(401,692)"/>
<path d="M0 0 C2 1 2 1 2 1 Z " fill="#29A3AF" transform="translate(347,671)"/>
<path d="M0 0 C2 1 2 1 2 1 Z " fill="#29B0BA" transform="translate(563,665)"/>
<path d="M0 0 C2 1 2 1 2 1 Z " fill="#2AB0BC" transform="translate(352,624)"/>
<path d="" fill="#2AADB8" transform="translate(0,0)"/>
<path d="M0 0 C2 1 2 1 2 1 Z " fill="#29B0BB" transform="translate(363,576)"/>
<path d="" fill="#2AAFBC" transform="translate(0,0)"/>
<path d="M0 0 C2 1 2 1 2 1 Z " fill="#2DA3AD" transform="translate(171,526)"/>
<path d="" fill="#2DA1AA" transform="translate(0,0)"/>
<path d="" fill="#2AADB8" transform="translate(0,0)"/>
<path d="M0 0 C2 1 2 1 2 1 Z " fill="#2AB0BB" transform="translate(408,467)"/>
<path d="" fill="#2AADBB" transform="translate(0,0)"/>
<path d="M0 0 C2 1 2 1 2 1 Z " fill="#29B0BD" transform="translate(496,400)"/>
<path d="M0 0 C2 1 2 1 2 1 Z " fill="#2BAFBC" transform="translate(493,400)"/>
<path d="M0 0 C2 1 2 1 2 1 Z " fill="#2BA6B1" transform="translate(347,345)"/>
<path d="M0 0 C2 1 2 1 2 1 Z " fill="#27AEBD" transform="translate(521,343)"/>
<path d="M0 0 C2 1 2 1 2 1 Z " fill="#2BA6AF" transform="translate(411,321)"/>
<path d="" fill="#29A5AD" transform="translate(0,0)"/>
<path d="" fill="#29A3AF" transform="translate(0,0)"/>
<path d="" fill="#2BA7B0" transform="translate(0,0)"/>
<path d="" fill="#2AA3AE" transform="translate(0,0)"/>
<path d="" fill="#2AA6B1" transform="translate(0,0)"/>
<path d="" fill="#28A5AF" transform="translate(0,0)"/>
<path d="" fill="#2BA1AC" transform="translate(0,0)"/>
<path d="" fill="#2DA7B1" transform="translate(0,0)"/>
<path d="" fill="#2CA6AF" transform="translate(0,0)"/>
<path d="" fill="#2AA5AF" transform="translate(0,0)"/>
<path d="" fill="#2AB0BA" transform="translate(0,0)"/>
<path d="" fill="#29B0BA" transform="translate(0,0)"/>
<path d="" fill="#2BB3BF" transform="translate(0,0)"/>
<path d="" fill="#29B0BA" transform="translate(0,0)"/>
<path d="" fill="#29B1BC" transform="translate(0,0)"/>
<path d="" fill="#26AAB7" transform="translate(0,0)"/>
<path d="" fill="#28A3AF" transform="translate(0,0)"/>
<path d="" fill="#30B1BD" transform="translate(0,0)"/>
<path d="" fill="#2DA5AE" transform="translate(0,0)"/>
<path d="" fill="#2BAFBA" transform="translate(0,0)"/>
<path d="" fill="#2AB0BB" transform="translate(0,0)"/>
<path d="" fill="#2AAEBC" transform="translate(0,0)"/>
<path d="" fill="#2BADBA" transform="translate(0,0)"/>
<path d="" fill="#2CB1BD" transform="translate(0,0)"/>
<path d="" fill="#29AFBD" transform="translate(0,0)"/>
<path d="" fill="#2BA9B6" transform="translate(0,0)"/>
<path d="" fill="#29AFBC" transform="translate(0,0)"/>
<path d="" fill="#28B1BB" transform="translate(0,0)"/>
<path d="" fill="#28ADBB" transform="translate(0,0)"/>
<path d="" fill="#2BB0B9" transform="translate(0,0)"/>
<path d="" fill="#2BADBA" transform="translate(0,0)"/>
<path d="" fill="#27ADB8" transform="translate(0,0)"/>
<path d="" fill="#2DB0B9" transform="translate(0,0)"/>
<path d="" fill="#29AEB9" transform="translate(0,0)"/>
<path d="" fill="#28B0BB" transform="translate(0,0)"/>
<path d="" fill="#2AAFBA" transform="translate(0,0)"/>
<path d="" fill="#2DA3AF" transform="translate(0,0)"/>
<path d="" fill="#2BA5AF" transform="translate(0,0)"/>
<path d="" fill="#2AA6B2" transform="translate(0,0)"/>
<path d="" fill="#2BB1BB" transform="translate(0,0)"/>
<path d="" fill="#2AA5AF" transform="translate(0,0)"/>
<path d="" fill="#2DADB8" transform="translate(0,0)"/>
<path d="" fill="#2AB0BA" transform="translate(0,0)"/>
<path d="" fill="#2CAFBB" transform="translate(0,0)"/>
<path d="" fill="#2AAFBC" transform="translate(0,0)"/>
<path d="" fill="#29AEBA" transform="translate(0,0)"/>
<path d="" fill="#29B1BF" transform="translate(0,0)"/>
<path d="" fill="#2BAEB7" transform="translate(0,0)"/>
<path d="" fill="#2AABB8" transform="translate(0,0)"/>
<path d="" fill="#29ACB8" transform="translate(0,0)"/>
<path d="" fill="#2CAEB9" transform="translate(0,0)"/>
<path d="" fill="#2BB1BC" transform="translate(0,0)"/>
<path d="" fill="#2AACBA" transform="translate(0,0)"/>
<path d="" fill="#29ABB7" transform="translate(0,0)"/>
<path d="" fill="#2AADBA" transform="translate(0,0)"/>
<path d="" fill="#2CA5AF" transform="translate(0,0)"/>
<path d="" fill="#2BAFBB" transform="translate(0,0)"/>
<path d="" fill="#29ADB8" transform="translate(0,0)"/>
<path d="" fill="#2AABB8" transform="translate(0,0)"/>
<path d="" fill="#2CA4AF" transform="translate(0,0)"/>
<path d="" fill="#28B1C0" transform="translate(0,0)"/>
<path d="" fill="#28AEBB" transform="translate(0,0)"/>
<path d="" fill="#2AA5AF" transform="translate(0,0)"/>
<path d="" fill="#2CB0BE" transform="translate(0,0)"/>
<path d="" fill="#2CB1BB" transform="translate(0,0)"/>
<path d="" fill="#29B0BC" transform="translate(0,0)"/>
<path d="" fill="#29AFBA" transform="translate(0,0)"/>
<path d="" fill="#2BAFBA" transform="translate(0,0)"/>
<path d="" fill="#27ADBA" transform="translate(0,0)"/>
<path d="" fill="#2BA4AF" transform="translate(0,0)"/>
<path d="" fill="#2CB1BD" transform="translate(0,0)"/>
<path d="" fill="#30A5AE" transform="translate(0,0)"/>
<path d="" fill="#2CB0BC" transform="translate(0,0)"/>
<path d="" fill="#2DA6B1" transform="translate(0,0)"/>
<path d="" fill="#2AADB9" transform="translate(0,0)"/>
<path d="" fill="#2DA1AD" transform="translate(0,0)"/>
<path d="" fill="#29ADBA" transform="translate(0,0)"/>
<path d="" fill="#2BB0BB" transform="translate(0,0)"/>
<path d="" fill="#2AB1BC" transform="translate(0,0)"/>
<path d="" fill="#2FA2A9" transform="translate(0,0)"/>
<path d="" fill="#2AAEBB" transform="translate(0,0)"/>
<path d="" fill="#2BB2BD" transform="translate(0,0)"/>
<path d="" fill="#29B1BE" transform="translate(0,0)"/>
<path d="" fill="#29ADB9" transform="translate(0,0)"/>
<path d="" fill="#33A2AB" transform="translate(0,0)"/>
<path d="" fill="#2AADB7" transform="translate(0,0)"/>
<path d="" fill="#2AB0BC" transform="translate(0,0)"/>
<path d="" fill="#2AA2AB" transform="translate(0,0)"/>
<path d="" fill="#2BAFBB" transform="translate(0,0)"/>
<path d="" fill="#27AEB8" transform="translate(0,0)"/>
<path d="" fill="#29B0BA" transform="translate(0,0)"/>
<path d="" fill="#2DAFBC" transform="translate(0,0)"/>
<path d="" fill="#2AB3BD" transform="translate(0,0)"/>
<path d="" fill="#2DA7B0" transform="translate(0,0)"/>
<path d="" fill="#29A9B7" transform="translate(0,0)"/>
<path d="" fill="#2AAFBB" transform="translate(0,0)"/>
<path d="" fill="#2BB3BF" transform="translate(0,0)"/>
<path d="" fill="#2AABB7" transform="translate(0,0)"/>
<path d="" fill="#2AAFBD" transform="translate(0,0)"/>
<path d="" fill="#2AAFBC" transform="translate(0,0)"/>
<path d="" fill="#2BB0BD" transform="translate(0,0)"/>
<path d="" fill="#2AA6B2" transform="translate(0,0)"/>
<path d="" fill="#2CB2BE" transform="translate(0,0)"/>
<path d="" fill="#27AFBB" transform="translate(0,0)"/>
<path d="" fill="#29B1BE" transform="translate(0,0)"/>
<path d="" fill="#29ADB8" transform="translate(0,0)"/>
<path d="" fill="#2CB1BE" transform="translate(0,0)"/>
<path d="" fill="#2EADB9" transform="translate(0,0)"/>
<path d="" fill="#28AFB9" transform="translate(0,0)"/>
<path d="" fill="#2AB1BD" transform="translate(0,0)"/>
<path d="" fill="#2CAFB7" transform="translate(0,0)"/>
<path d="" fill="#2BAEBB" transform="translate(0,0)"/>
<path d="" fill="#2AAFBB" transform="translate(0,0)"/>
<path d="" fill="#29ADB9" transform="translate(0,0)"/>
<path d="" fill="#28AFC1" transform="translate(0,0)"/>
<path d="" fill="#29ADB7" transform="translate(0,0)"/>
<path d="" fill="#28ADB9" transform="translate(0,0)"/>
<path d="" fill="#2AAEBB" transform="translate(0,0)"/>
<path d="" fill="#2CAEB8" transform="translate(0,0)"/>
<path d="" fill="#2BAEB9" transform="translate(0,0)"/>
<path d="" fill="#27B1BD" transform="translate(0,0)"/>
<path d="" fill="#28B2BD" transform="translate(0,0)"/>
<path d="" fill="#27ADBB" transform="translate(0,0)"/>
<path d="" fill="#29AFBE" transform="translate(0,0)"/>
<path d="" fill="#2CB1BE" transform="translate(0,0)"/>
<path d="" fill="#2AAFBB" transform="translate(0,0)"/>
<path d="" fill="#29AEBC" transform="translate(0,0)"/>
<path d="" fill="#28A7B2" transform="translate(0,0)"/>
<path d="" fill="#29AEBB" transform="translate(0,0)"/>
<path d="" fill="#2BAFBB" transform="translate(0,0)"/>
<path d="" fill="#2BB3BE" transform="translate(0,0)"/>
<path d="" fill="#2AB0BD" transform="translate(0,0)"/>
<path d="" fill="#2BB2BE" transform="translate(0,0)"/>
<path d="" fill="#2AB2BD" transform="translate(0,0)"/>
<path d="" fill="#2AB3BD" transform="translate(0,0)"/>
<path d="" fill="#2CB1BF" transform="translate(0,0)"/>
<path d="" fill="#27AEBD" transform="translate(0,0)"/>
<path d="" fill="#29B0BA" transform="translate(0,0)"/>
<path d="" fill="#28A5B0" transform="translate(0,0)"/>
<path d="" fill="#28ACB9" transform="translate(0,0)"/>
<path d="" fill="#2AAFB8" transform="translate(0,0)"/>
<path d="" fill="#2BAEB9" transform="translate(0,0)"/>
<path d="" fill="#2AAEBB" transform="translate(0,0)"/>
<path d="" fill="#28AEBC" transform="translate(0,0)"/>
<path d="" fill="#29AFB9" transform="translate(0,0)"/>
<path d="" fill="#2BB1BD" transform="translate(0,0)"/>
<path d="" fill="#2BAAB4" transform="translate(0,0)"/>
<path d="" fill="#2DA6AE" transform="translate(0,0)"/>
<path d="" fill="#2AADB8" transform="translate(0,0)"/>
<path d="" fill="#28ADB9" transform="translate(0,0)"/>
<path d="" fill="#2AA4AE" transform="translate(0,0)"/>
<path d="" fill="#29A8B2" transform="translate(0,0)"/>
<path d="" fill="#29ACB8" transform="translate(0,0)"/>
<path d="" fill="#2AADBC" transform="translate(0,0)"/>
<path d="" fill="#2AA6AE" transform="translate(0,0)"/>
<path d="" fill="#2AA7AF" transform="translate(0,0)"/>
<path d="" fill="#29B0BB" transform="translate(0,0)"/>
<path d="" fill="#2AAEB9" transform="translate(0,0)"/>
<path d="" fill="#2CB1BE" transform="translate(0,0)"/>
<path d="" fill="#28A6AE" transform="translate(0,0)"/>
<path d="" fill="#2AB0BC" transform="translate(0,0)"/>
<path d="" fill="#2BB1BE" transform="translate(0,0)"/>
<path d="" fill="#2BB0BE" transform="translate(0,0)"/>
<path d="" fill="#2AB0BC" transform="translate(0,0)"/>
<path d="" fill="#28AFBC" transform="translate(0,0)"/>
<path d="" fill="#2CAEBA" transform="translate(0,0)"/>
<path d="" fill="#26ADBD" transform="translate(0,0)"/>
<path d="" fill="#2AADBC" transform="translate(0,0)"/>
<path d="" fill="#2DA3AF" transform="translate(0,0)"/>
<path d="" fill="#2BA7AF" transform="translate(0,0)"/>
<path d="" fill="#2BA4B0" transform="translate(0,0)"/>
<path d="" fill="#2EA8B0" transform="translate(0,0)"/>
<path d="" fill="#29A5B0" transform="translate(0,0)"/>
<path d="" fill="#2EA7B1" transform="translate(0,0)"/>
<path d="" fill="#2BA6AF" transform="translate(0,0)"/>
<path d="" fill="#2DA6B0" transform="translate(0,0)"/>
<path d="" fill="#2CA6B0" transform="translate(0,0)"/>
<path d="" fill="#2BA5B0" transform="translate(0,0)"/>
</svg>
