<?xml version="1.0" encoding="UTF-8"?>
<!DOCTYPE svg PUBLIC "-//W3C//DTD SVG 1.1//EN" "http://www.w3.org/Graphics/SVG/1.1/DTD/svg11.dtd">
<svg xmlns="http://www.w3.org/2000/svg" version="1.1" width="1024px" height="1024px" style="shape-rendering:geometricPrecision; text-rendering:geometricPrecision; image-rendering:optimizeQuality; fill-rule:evenodd; clip-rule:evenodd" xmlns:xlink="http://www.w3.org/1999/xlink">
<g><path style="opacity:0.008" fill="#017886" d="M 615.5,112.5 C 616.833,113.167 616.833,113.167 615.5,112.5 Z"/></g>
<g><path style="opacity:1" fill="#025c69" d="M 639.5,113.5 C 639.5,113.833 639.5,114.167 639.5,114.5C 633.974,114.821 628.64,114.488 623.5,113.5C 628.964,112.243 634.297,112.243 639.5,113.5 Z"/></g>
<g><path style="opacity:0.004" fill="#017383" d="M 607.5,114.5 C 608.833,115.167 608.833,115.167 607.5,114.5 Z"/></g>
<g><path style="opacity:0.012" fill="#037784" d="M 609.5,114.5 C 610.833,115.167 610.833,115.167 609.5,114.5 Z"/></g>
<g><path style="opacity:0.996" fill="#02626e" d="M 639.5,114.5 C 639.5,114.167 639.5,113.833 639.5,113.5C 669.13,117.622 688.63,133.955 698,162.5C 698.953,165.432 699.453,168.432 699.5,171.5C 699.657,172.873 699.49,174.207 699,175.5C 693.513,141.18 673.68,120.846 639.5,114.5 Z"/></g>
<g><path style="opacity:0.999" fill="#007e8d" d="M 623.5,113.5 C 628.64,114.488 633.974,114.821 639.5,114.5C 673.68,120.846 693.513,141.18 699,175.5C 699.49,174.207 699.657,172.873 699.5,171.5C 700.451,172.919 700.784,174.585 700.5,176.5C 699.696,201.944 689.029,222.111 668.5,237C 661.158,240.838 653.492,243.838 645.5,246C 646.448,246.483 647.448,246.649 648.5,246.5C 647.432,247.434 646.099,247.768 644.5,247.5C 611.699,249.685 587.532,236.352 572,207.5C 560.983,176.207 567.817,149.707 592.5,128C 598.711,124.286 604.377,120.786 609.5,117.5C 613.734,115.045 618.4,113.711 623.5,113.5 Z"/></g>
<g><path style="opacity:0.016" fill="#027685" d="M 600.5,120.5 C 599.761,120.631 599.094,120.464 598.5,120C 599.437,119.308 600.103,119.475 600.5,120.5 Z"/></g>
<g><path style="opacity:0.004" fill="#000102" d="M 259.5,141.5 C 260.833,142.167 260.833,142.167 259.5,141.5 Z"/></g>
<g><path style="opacity:0.004" fill="#007787" d="M 563.5,170.5 C 564.833,171.167 564.833,171.167 563.5,170.5 Z"/></g>
<g><path style="opacity:0.004" fill="#007a89" d="M 563.5,190.5 C 564.833,191.167 564.833,191.167 563.5,190.5 Z"/></g>
<g><path style="opacity:0.012" fill="#007987" d="M 568.5,207.5 C 569.833,208.167 569.833,208.167 568.5,207.5 Z"/></g>
<g><path style="opacity:0.004" fill="#017785" d="M 568.5,208.5 C 568.649,209.552 568.483,210.552 568,211.5C 567.26,210.251 567.427,209.251 568.5,208.5 Z"/></g>
<g><path style="opacity:0.855" fill="#03646e" d="M 700.5,176.5 C 700.919,200.652 691.919,220.318 673.5,235.5C 666.033,241.065 657.7,244.732 648.5,246.5C 647.448,246.649 646.448,246.483 645.5,246C 653.492,243.838 661.158,240.838 668.5,237C 689.029,222.111 699.696,201.944 700.5,176.5 Z"/></g>
<g><path style="opacity:0.004" fill="#007c8d" d="M 578.5,222.5 C 577.833,223.167 577.833,223.167 578.5,222.5 Z"/></g>
<g><path style="opacity:0.996" fill="#03606b" d="M 609.5,117.5 C 604.377,120.786 598.711,124.286 592.5,128C 567.817,149.707 560.983,176.207 572,207.5C 587.532,236.352 611.699,249.685 644.5,247.5C 627.418,250.15 611.418,247.15 596.5,238.5C 590.124,233.636 584.124,228.303 578.5,222.5C 559.572,193.829 560.072,165.496 580,137.5C 585.89,130.502 592.723,124.836 600.5,120.5C 603.406,119.213 606.406,118.213 609.5,117.5 Z"/></g>
<g><path style="opacity:0.004" fill="#038593" d="M 673.5,235.5 C 674.833,236.167 674.833,236.167 673.5,235.5 Z"/></g>
<g><path style="opacity:0.012" fill="#02808e" d="M 596.5,238.5 C 595.833,239.167 595.833,239.167 596.5,238.5 Z"/></g>
<g><path style="opacity:0.008" fill="#03818f" d="M 601.5,242.5 C 602.833,243.167 602.833,243.167 601.5,242.5 Z"/></g>
<g><path style="opacity:0.008" fill="#018898" d="M 660.5,244.5 C 661.833,245.167 661.833,245.167 660.5,244.5 Z"/></g>
<g><path style="opacity:0.004" fill="#038a98" d="M 656.5,245.5 C 657.833,246.167 657.833,246.167 656.5,245.5 Z"/></g>
<g><path style="opacity:0.012" fill="#048897" d="M 652.5,246.5 C 653.833,247.167 653.833,247.167 652.5,246.5 Z"/></g>
<g><path style="opacity:0.004" fill="#038593" d="M 691.5,248.5 C 692.833,249.167 692.833,249.167 691.5,248.5 Z"/></g>
<g><path style="opacity:0.004" fill="#058995" d="M 687.5,249.5 C 688.833,250.167 688.833,250.167 687.5,249.5 Z"/></g>
<g><path style="opacity:0.008" fill="#068798" d="M 679.5,250.5 C 680.833,251.167 680.833,251.167 679.5,250.5 Z"/></g>
<g><path style="opacity:0.999" fill="#007d8d" d="M 691.5,251.5 C 692.568,250.566 693.901,250.232 695.5,250.5C 711.227,250.353 726.227,253.853 740.5,261C 750.045,267.544 757.878,275.711 764,285.5C 792.904,353.968 821.237,422.635 849,491.5C 851.425,498.823 853.258,506.157 854.5,513.5C 853.226,563.855 853.226,614.188 854.5,664.5C 872.326,730.975 889.326,797.641 905.5,864.5C 900.975,890.847 885.641,901.013 859.5,895C 847.402,889.234 840.236,879.734 838,866.5C 837.536,867.094 837.369,867.761 837.5,868.5C 836.596,867.791 836.263,866.791 836.5,865.5C 837.124,865.083 837.457,864.416 837.5,863.5C 821.621,801.981 805.121,740.648 788,679.5C 784.017,658.774 780.517,638.108 777.5,617.5C 777.477,612.126 776.977,606.793 776,601.5C 775.51,602.793 775.343,604.127 775.5,605.5C 774.549,604.081 774.216,602.415 774.5,600.5C 775.777,595.61 775.61,590.61 774,585.5C 773.51,586.793 773.343,588.127 773.5,589.5C 772.833,587.5 772.167,585.5 771.5,583.5C 771.587,580.402 771.087,580.068 770,582.5C 762.943,607.84 755.777,633.173 748.5,658.5C 748.543,659.416 748.876,660.083 749.5,660.5C 749.204,662.403 748.537,664.07 747.5,665.5C 747.631,664.761 747.464,664.094 747,663.5C 746.202,666.893 745.202,670.226 744,673.5C 743.22,675.387 743.387,677.054 744.5,678.5C 744.737,679.791 744.404,680.791 743.5,681.5C 743.631,680.761 743.464,680.094 743,679.5C 741.393,683.259 741.226,686.926 742.5,690.5C 742.784,692.415 742.451,694.081 741.5,695.5C 741.649,694.448 741.483,693.448 741,692.5C 738.713,701.226 737.879,709.893 738.5,718.5C 738.784,720.415 738.451,722.081 737.5,723.5C 737.657,722.127 737.49,720.793 737,719.5C 735.093,726.589 734.593,733.589 735.5,740.5C 735.784,742.415 735.451,744.081 734.5,745.5C 734.318,740.206 733.818,740.206 733,745.5C 730.164,767.525 727.164,789.525 724,811.5C 723.195,814.696 723.362,817.696 724.5,820.5C 724.784,822.415 724.451,824.081 723.5,825.5C 723.318,820.206 722.818,820.206 722,825.5C 721.067,834.862 719.901,844.195 718.5,853.5C 718.511,855.045 718.844,856.378 719.5,857.5C 719.784,859.415 719.451,861.081 718.5,862.5C 718.657,861.127 718.49,859.793 718,858.5C 717.405,866.998 715.238,874.998 711.5,882.5C 711.624,883.107 711.957,883.44 712.5,883.5C 712.167,884.5 711.5,885.167 710.5,885.5C 710.565,885.062 710.399,884.728 710,884.5C 693.378,901.09 676.211,901.756 658.5,886.5C 653.372,880.286 650.705,873.119 650.5,865C 651.537,860.332 651.537,855.832 650.5,851.5C 650.216,849.585 650.549,847.919 651.5,846.5C 651.343,847.873 651.51,849.207 652,850.5C 653.588,845.723 653.755,841.057 652.5,836.5C 652.69,831.63 653.356,826.964 654.5,822.5C 654.343,823.873 654.51,825.207 655,826.5C 657,812.499 659,798.499 661,784.5C 661.81,780.642 661.643,776.976 660.5,773.5C 660.198,770.941 660.532,768.607 661.5,766.5C 661.338,768.527 661.505,770.527 662,772.5C 663.417,767.368 663.584,762.368 662.5,757.5C 662.216,755.585 662.549,753.919 663.5,752.5C 663.351,753.552 663.517,754.552 664,755.5C 666.184,746.085 667.017,736.752 666.5,727.5C 666.5,727.167 666.5,726.833 666.5,726.5C 667.338,726.158 667.672,725.492 667.5,724.5C 514.667,723.334 361.667,723.167 208.5,724C 207.503,776.762 207.169,829.595 207.5,882.5C 206.109,889.549 201.775,892.882 194.5,892.5C 187.067,891.905 182.567,887.905 181,880.5C 180.536,881.094 180.369,881.761 180.5,882.5C 179.831,830.764 179.165,778.931 178.5,727C 178.833,726.667 179.167,726.333 179.5,726C 172.654,725.828 165.987,725.328 159.5,724.5C 166.175,724.666 172.842,724.5 179.5,724C 170.783,723.839 162.116,723.173 153.5,722C 141.34,715.2 137.173,705.033 141,691.5C 144.167,683.828 149.667,678.828 157.5,676.5C 182.294,675.852 206.961,675.185 231.5,674.5C 234.713,674.81 237.713,674.477 240.5,673.5C 241.239,673.631 241.906,673.464 242.5,673C 240.942,672.79 239.609,672.29 238.5,671.5C 239.552,671.649 240.552,671.483 241.5,671C 239.122,670.489 236.788,669.822 234.5,669C 232.934,668.235 231.601,668.402 230.5,669.5C 229.833,669.5 229.167,669.5 228.5,669.5C 228.5,669.167 228.5,668.833 228.5,668.5C 214.319,663.671 199.319,659.171 183.5,655C 181.613,654.22 179.946,654.387 178.5,655.5C 177.209,655.737 176.209,655.404 175.5,654.5C 178.097,654.279 178.097,653.779 175.5,653C 167.216,651.127 159.216,648.461 151.5,645C 139.64,635.034 136.806,622.868 143,608.5C 167.749,567.999 192.749,527.666 218,487.5C 228.417,473.38 242.25,465.046 259.5,462.5C 263.5,462.5 267.5,462.5 271.5,462.5C 286.596,464.637 299.096,471.637 309,483.5C 315,491.5 321,499.5 327,507.5C 328.307,509.192 329.807,510.525 331.5,511.5C 342.447,528.377 354.614,544.377 368,559.5C 368.239,558.212 367.739,557.212 366.5,556.5C 367.609,556.443 368.609,556.11 369.5,555.5C 369.435,555.938 369.601,556.272 370,556.5C 392.028,532.474 414.028,508.474 436,484.5C 433.823,480.26 431.49,475.926 429,471.5C 425.026,455.615 430.526,444.448 445.5,438C 444.906,437.536 444.239,437.369 443.5,437.5C 444.209,436.596 445.209,436.263 446.5,436.5C 446.917,437.124 447.584,437.457 448.5,437.5C 463.191,433.437 477.858,429.27 492.5,425C 491.906,424.536 491.239,424.369 490.5,424.5C 491.209,423.596 492.209,423.263 493.5,423.5C 493.917,424.124 494.584,424.457 495.5,424.5C 512.545,419.822 529.545,414.989 546.5,410C 545.906,409.536 545.239,409.369 544.5,409.5C 544.369,408.761 544.536,408.094 545,407.5C 545.671,408.252 546.504,408.586 547.5,408.5C 551.577,409.184 555.577,408.351 559.5,406C 559.272,405.601 558.938,405.435 558.5,405.5C 558.842,404.662 559.508,404.328 560.5,404.5C 564.842,404.764 568.675,403.098 572,399.5C 591.01,372.146 609.01,344.146 626,315.5C 631.621,286.208 648.454,266.375 676.5,256C 682.4,254.239 688.4,252.905 694.5,252C 693.552,251.517 692.552,251.351 691.5,251.5 Z M 651.5,387.5 C 651.833,387.5 652.167,387.5 652.5,387.5C 652.5,388.167 652.5,388.833 652.5,389.5C 652.833,389.5 653.167,389.5 653.5,389.5C 655.167,394.167 656.833,398.833 658.5,403.5C 663.933,413.455 668.599,423.788 672.5,434.5C 673.931,435.78 674.598,437.447 674.5,439.5C 677.923,444.747 680.589,450.413 682.5,456.5C 685.145,462.064 687.812,467.731 690.5,473.5C 689.572,474.768 689.405,476.101 690,477.5C 690.805,475.099 691.638,475.266 692.5,478C 692.167,478.333 691.833,478.667 691.5,479C 696.038,485.579 699.372,492.745 701.5,500.5C 702.674,501.514 703.34,502.847 703.5,504.5C 702.963,509.851 702.296,515.184 701.5,520.5C 695.325,551.044 689.658,581.711 684.5,612.5C 683.833,614.167 683.167,615.833 682.5,617.5C 657.67,618.663 632.67,618.83 607.5,618C 610.331,616.334 612.664,614.168 614.5,611.5C 623.044,600.369 623.71,588.702 616.5,576.5C 606.819,565.482 597.486,554.149 588.5,542.5C 584.155,538.153 580.155,533.486 576.5,528.5C 560.736,509.979 544.736,491.646 528.5,473.5C 530.249,472.015 532.249,471.015 534.5,470.5C 541.89,468.703 549.223,466.703 556.5,464.5C 558.403,464.204 560.07,463.537 561.5,462.5C 566.622,461.57 571.622,460.236 576.5,458.5C 577.492,458.672 578.158,458.338 578.5,457.5C 581.267,457.142 583.933,456.475 586.5,455.5C 588.403,455.204 590.07,454.537 591.5,453.5C 599.918,450.738 606.585,445.738 611.5,438.5C 611.833,438.5 612.167,438.5 612.5,438.5C 612.833,437.833 613.167,437.167 613.5,436.5C 615.833,433.167 618.167,429.833 620.5,426.5C 621.401,425.71 622.068,424.71 622.5,423.5C 631.804,410.01 640.97,396.344 650,382.5C 651.009,384.025 651.509,385.692 651.5,387.5 Z M 493.5,527.5 C 503.544,538.875 513.211,550.542 522.5,562.5C 523.5,562.833 524.167,563.5 524.5,564.5C 526.633,566.091 528.299,568.091 529.5,570.5C 532.295,572.751 534.628,575.418 536.5,578.5C 545.06,587.94 553.393,597.606 561.5,607.5C 562.488,608.795 563.488,610.128 564.5,611.5C 566.633,613.091 568.299,615.091 569.5,617.5C 568.833,617.5 568.167,617.5 567.5,617.5C 518.167,618.833 468.833,618.833 419.5,617.5C 425.183,611.146 430.516,604.48 435.5,597.5C 437.727,595.393 439.727,593.06 441.5,590.5C 448.519,582.143 455.185,573.476 461.5,564.5C 464.848,561.149 467.848,557.482 470.5,553.5C 475.51,547.46 480.51,541.46 485.5,535.5C 485.5,534.833 485.5,534.167 485.5,533.5C 487.5,532.024 489.167,530.191 490.5,528C 491.448,527.517 492.448,527.351 493.5,527.5 Z M 257.5,578.5 C 259.167,579.5 260.5,580.833 261.5,582.5C 263.156,584.46 264.823,586.46 266.5,588.5C 282.405,605.788 298.405,623.788 314.5,642.5C 316.167,643.833 317.833,645.167 319.5,646.5C 321.091,649.431 323.091,652.098 325.5,654.5C 330.167,659.833 335.167,664.833 340.5,669.5C 342.404,669.738 343.738,670.738 344.5,672.5C 334.249,673.475 323.915,673.808 313.5,673.5C 312.833,673.167 312.167,672.833 311.5,672.5C 301.013,673.494 290.346,673.828 279.5,673.5C 279.833,672.833 280.167,672.167 280.5,671.5C 297.257,655.707 297.59,639.541 281.5,623C 279.5,622 277.5,621 275.5,620C 255.272,614.027 234.939,608.527 214.5,603.5C 213.391,602.71 212.058,602.21 210.5,602C 209.402,601.23 209.402,600.397 210.5,599.5C 215.527,591.483 220.527,583.483 225.5,575.5C 226.5,575.167 227.167,574.5 227.5,573.5C 231.323,567.862 235.157,562.195 239,556.5C 245.754,563.413 251.92,570.747 257.5,578.5 Z"/></g>
<g><path style="opacity:0.004" fill="#038594" d="M 625.5,307.5 C 624.833,306.167 624.833,306.167 625.5,307.5 Z"/></g>
<g><path style="opacity:0.004" fill="#027c8d" d="M 779.5,314.5 C 780.833,315.167 780.833,315.167 779.5,314.5 Z"/></g>
<g><path style="opacity:0.012" fill="#037c8b" d="M 781.5,318.5 C 782.833,319.167 782.833,319.167 781.5,318.5 Z"/></g>
<g><path style="opacity:0.012" fill="#007785" d="M 229.5,319.5 C 230.833,320.167 230.833,320.167 229.5,319.5 Z"/></g>
<g><path style="opacity:0.004" fill="#007b85" d="M 235.5,320.5 C 236.833,321.167 236.833,321.167 235.5,320.5 Z"/></g>
<g><path style="opacity:0.004" fill="#007a8a" d="M 238.5,321.5 C 239.833,322.167 239.833,322.167 238.5,321.5 Z"/></g>
<g><path style="opacity:0.999" fill="#007e8d" d="M 283.5,379.5 C 284.12,389.022 283.12,398.356 280.5,407.5C 280.543,408.416 280.876,409.083 281.5,409.5C 281.204,411.403 280.537,413.07 279.5,414.5C 279.631,413.761 279.464,413.094 279,412.5C 276.97,417.428 274.47,422.094 271.5,426.5C 271.624,427.107 271.957,427.44 272.5,427.5C 272.167,428.5 271.5,429.167 270.5,429.5C 269.671,428.668 268.838,429.001 268,430.5C 266.207,433.295 264.04,435.795 261.5,438C 261.728,438.399 262.062,438.565 262.5,438.5C 262.167,439.5 261.5,440.167 260.5,440.5C 257.975,440.423 255.642,441.59 253.5,444C 247.726,447.222 241.726,449.888 235.5,452C 236.094,452.464 236.761,452.631 237.5,452.5C 233.089,454.13 228.422,455.13 223.5,455.5C 179.329,453.664 155.329,430.664 151.5,386.5C 152.067,380.428 153.067,374.428 154.5,368.5C 154.457,367.584 154.124,366.917 153.5,366.5C 153.328,365.508 153.662,364.842 154.5,364.5C 175.245,324.958 206.912,313.458 249.5,330C 267.932,341.721 279.266,358.221 283.5,379.5 Z"/></g>
<g><path style="opacity:0.004" fill="#007c89" d="M 250.5,327.5 C 251.833,328.167 251.833,328.167 250.5,327.5 Z"/></g>
<g><path style="opacity:0.69" fill="#02646f" d="M 250.5,328.5 C 269.268,339.964 280.601,356.63 284.5,378.5C 283.833,378.5 283.5,378.833 283.5,379.5C 279.266,358.221 267.932,341.721 249.5,330C 206.912,313.458 175.245,324.958 154.5,364.5C 163.022,341.783 178.689,327.616 201.5,322C 218.612,318.216 234.945,320.383 250.5,328.5 Z"/></g>
<g><path style="opacity:0.008" fill="#037f8d" d="M 604.5,343.5 C 605.833,344.167 605.833,344.167 604.5,343.5 Z"/></g>
<g><path style="opacity:1" fill="#03606a" d="M 691.5,251.5 C 692.552,251.351 693.552,251.517 694.5,252C 688.4,252.905 682.4,254.239 676.5,256C 648.454,266.375 631.621,286.208 626,315.5C 609.01,344.146 591.01,372.146 572,399.5C 568.675,403.098 564.842,404.764 560.5,404.5C 564.685,402.506 568.518,399.839 572,396.5C 582.686,381.117 592.852,365.451 602.5,349.5C 610.904,339.043 618.071,327.709 624,315.5C 624.822,312.883 625.322,310.216 625.5,307.5C 635.481,274.864 657.481,256.197 691.5,251.5 Z"/></g>
<g><path style="opacity:0.004" fill="#007584" d="M 159.5,346.5 C 160.833,347.167 160.833,347.167 159.5,346.5 Z"/></g>
<g><path style="opacity:0.004" fill="#057e8d" d="M 602.5,349.5 C 601.833,348.167 601.833,348.167 602.5,349.5 Z"/></g>
<g><path style="opacity:0.008" fill="#037e8d" d="M 798.5,360.5 C 799.833,361.167 799.833,361.167 798.5,360.5 Z"/></g>
<g><path style="opacity:0.004" fill="#047b86" d="M 281.5,362.5 C 282.833,363.167 282.833,363.167 281.5,362.5 Z"/></g>
<g><path style="opacity:0.008" fill="#007f8d" d="M 804.5,374.5 C 803.833,373.167 803.833,373.167 804.5,374.5 Z"/></g>
<g><path style="opacity:0.004" fill="#027d8c" d="M 804.5,374.5 C 805.833,375.167 805.833,375.167 804.5,374.5 Z"/></g>
<g><path style="opacity:0.004" fill="#007e8c" d="M 805.5,377.5 C 806.833,378.167 806.833,378.167 805.5,377.5 Z"/></g>
<g><path style="opacity:0.937" fill="#025f68" d="M 798.5,360.5 C 797.167,360.833 797.167,361.167 798.5,361.5C 799.599,366.144 801.266,370.478 803.5,374.5C 818.434,413.038 833.934,451.372 850,489.5C 852.939,496.921 854.772,504.588 855.5,512.5C 854.833,512.5 854.5,512.833 854.5,513.5C 853.258,506.157 851.425,498.823 849,491.5C 821.237,422.635 792.904,353.968 764,285.5C 757.878,275.711 750.045,267.544 740.5,261C 726.227,253.853 711.227,250.353 695.5,250.5C 727.205,247.934 751.038,260.267 767,287.5C 777.006,312.164 787.506,336.498 798.5,360.5 Z"/></g>
<g><path style="opacity:0.004" fill="#027683" d="M 149.5,383.5 C 148.833,382.167 148.833,382.167 149.5,383.5 Z"/></g>
<g><path style="opacity:0.004" fill="#007785" d="M 147.5,389.5 C 148.833,390.167 148.833,390.167 147.5,389.5 Z"/></g>
<g><path style="opacity:0.953" fill="#03626c" d="M 652.5,387.5 C 652.167,387.5 651.833,387.5 651.5,387.5C 651.509,385.692 651.009,384.025 650,382.5C 640.97,396.344 631.804,410.01 622.5,423.5C 621.475,423.103 621.308,422.437 622,421.5C 631.429,408.307 640.095,394.641 648,380.5C 649,379.167 650,379.167 651,380.5C 651.97,382.274 652.804,384.107 653.5,386C 653.43,386.765 653.097,387.265 652.5,387.5 Z"/></g>
<g><path style="opacity:0.004" fill="#038190" d="M 285.5,398.5 C 286.833,399.167 286.833,399.167 285.5,398.5 Z"/></g>
<g><path style="opacity:0.006" fill="#018694" d="M 562.5,401.5 C 562.897,400.475 563.563,400.308 564.5,401C 563.906,401.464 563.239,401.631 562.5,401.5 Z"/></g>
<g><path style="opacity:0.898" fill="#046069" d="M 284.5,378.5 C 286.034,389.09 285.034,399.424 281.5,409.5C 280.876,409.083 280.543,408.416 280.5,407.5C 283.12,398.356 284.12,389.022 283.5,379.5C 283.5,378.833 283.833,378.5 284.5,378.5 Z"/></g>
<g><path style="opacity:0.99" fill="#02606b" d="M 558.5,405.5 C 558.938,405.435 559.272,405.601 559.5,406C 555.577,408.351 551.577,409.184 547.5,408.5C 551.095,407.303 554.761,406.303 558.5,405.5 Z"/></g>
<g><path style="opacity:0.004" fill="#018592" d="M 539.5,408.5 C 540.833,409.167 540.833,409.167 539.5,408.5 Z"/></g>
<g><path style="opacity:1" fill="#035e68" d="M 703.5,504.5 C 703.34,502.847 702.674,501.514 701.5,500.5C 699.372,492.745 696.038,485.579 691.5,479C 691.833,478.667 692.167,478.333 692.5,478C 691.638,475.266 690.805,475.099 690,477.5C 689.405,476.101 689.572,474.768 690.5,473.5C 687.812,467.731 685.145,462.064 682.5,456.5C 680.589,450.413 677.923,444.747 674.5,439.5C 674.598,437.447 673.931,435.78 672.5,434.5C 668.599,423.788 663.933,413.455 658.5,403.5C 656.833,398.833 655.167,394.167 653.5,389.5C 655.62,391.616 657.453,394.616 659,398.5C 675.062,433.954 690.562,469.62 705.5,505.5C 705.333,506.5 705.167,507.5 705,508.5C 704.79,506.942 704.29,505.609 703.5,504.5 Z"/></g>
<g><path style="opacity:0.004" fill="#018391" d="M 506.5,415.5 C 507.833,416.167 507.833,416.167 506.5,415.5 Z"/></g>
<g><path style="opacity:0.012" fill="#038393" d="M 512.5,415.5 C 513.833,416.167 513.833,416.167 512.5,415.5 Z"/></g>
<g><path style="opacity:1" fill="#02646f" d="M 544.5,409.5 C 545.239,409.369 545.906,409.536 546.5,410C 529.545,414.989 512.545,419.822 495.5,424.5C 494.584,424.457 493.917,424.124 493.5,423.5C 510.347,418.371 527.347,413.704 544.5,409.5 Z"/></g>
<g><path style="opacity:0.004" fill="#04808a" d="M 495.5,418.5 C 496.833,419.167 496.833,419.167 495.5,418.5 Z"/></g>
<g><path style="opacity:0.953" fill="#025f68" d="M 279.5,414.5 C 277.942,419.284 275.609,423.618 272.5,427.5C 271.957,427.44 271.624,427.107 271.5,426.5C 274.47,422.094 276.97,417.428 279,412.5C 279.464,413.094 279.631,413.761 279.5,414.5 Z"/></g>
<g><path style="opacity:0.016" fill="#057c8a" d="M 159.5,426.5 C 160.833,427.167 160.833,427.167 159.5,426.5 Z"/></g>
<g><path style="opacity:0.004" fill="#037a89" d="M 162.5,428.5 C 161.833,429.167 161.833,429.167 162.5,428.5 Z"/></g>
<g><path style="opacity:0.973" fill="#03646f" d="M 270.5,429.5 C 268.57,433.1 265.903,436.1 262.5,438.5C 262.062,438.565 261.728,438.399 261.5,438C 264.04,435.795 266.207,433.295 268,430.5C 268.838,429.001 269.671,428.668 270.5,429.5 Z"/></g>
<g><path style="opacity:0.016" fill="#03808e" d="M 458.5,432.5 C 457.761,432.631 457.094,432.464 456.5,432C 457.437,431.308 458.103,431.475 458.5,432.5 Z"/></g>
<g><path style="opacity:0.788" fill="#025e67" d="M 620.5,426.5 C 618.167,429.833 615.833,433.167 613.5,436.5C 612.957,436.44 612.624,436.107 612.5,435.5C 615.195,431.97 617.695,428.304 620,424.5C 620.464,425.094 620.631,425.761 620.5,426.5 Z"/></g>
<g><path style="opacity:0.988" fill="#03616a" d="M 490.5,424.5 C 491.239,424.369 491.906,424.536 492.5,425C 477.858,429.27 463.191,433.437 448.5,437.5C 447.584,437.457 446.917,437.124 446.5,436.5C 450.643,435.341 454.643,434.008 458.5,432.5C 469.216,430.039 479.882,427.373 490.5,424.5 Z"/></g>
<g><path style="opacity:0.004" fill="#038796" d="M 266.5,436.5 C 267.833,437.167 267.833,437.167 266.5,436.5 Z"/></g>
<g><path style="opacity:0.008" fill="#017b89" d="M 441.5,437.5 C 440.833,436.167 440.833,436.167 441.5,437.5 Z"/></g>
<g><path style="opacity:0.004" fill="#027f8f" d="M 178.5,444.5 C 177.833,445.167 177.833,445.167 178.5,444.5 Z"/></g>
<g><path style="opacity:0.012" fill="#038292" d="M 181.5,446.5 C 180.833,447.167 180.833,447.167 181.5,446.5 Z"/></g>
<g><path style="opacity:0.812" fill="#03606b" d="M 260.5,440.5 C 253.87,446.316 246.204,450.316 237.5,452.5C 236.761,452.631 236.094,452.464 235.5,452C 241.726,449.888 247.726,447.222 253.5,444C 255.642,441.59 257.975,440.423 260.5,440.5 Z"/></g>
<g><path style="opacity:0.933" fill="#03626b" d="M 611.5,438.5 C 606.585,445.738 599.918,450.738 591.5,453.5C 590.761,453.631 590.094,453.464 589.5,453C 593.5,451 597.5,449 601.5,447C 605,444.167 608.167,441 611,437.5C 611.399,437.728 611.565,438.062 611.5,438.5 Z"/></g>
<g><path style="opacity:0.004" fill="#008496" d="M 194.5,452.5 C 194.5,452.833 194.5,453.167 194.5,453.5C 193.83,453.019 193.83,452.685 194.5,452.5 Z"/></g>
<g><path style="opacity:0.008" fill="#038396" d="M 194.5,453.5 C 195.833,454.167 195.833,454.167 194.5,453.5 Z"/></g>
<g><path style="opacity:1" fill="#025e69" d="M 153.5,366.5 C 154.124,366.917 154.457,367.584 154.5,368.5C 153.067,374.428 152.067,380.428 151.5,386.5C 155.329,430.664 179.329,453.664 223.5,455.5C 213.779,456.347 204.112,455.347 194.5,452.5C 190.211,450.58 185.877,448.58 181.5,446.5C 181.027,445.094 180.027,444.427 178.5,444.5C 172.499,439.167 167.166,433.833 162.5,428.5C 155.272,417.652 151.105,405.652 150,392.5C 149.444,394.595 148.944,394.762 148.5,393C 149.167,392 149.833,391 150.5,390C 150.065,387.785 149.731,385.619 149.5,383.5C 150.334,377.823 151.668,372.156 153.5,366.5 Z"/></g>
<g><path style="opacity:1" fill="#045e6a" d="M 586.5,455.5 C 583.933,456.475 581.267,457.142 578.5,457.5C 578.062,457.565 577.728,457.399 577.5,457C 580.403,454.712 583.403,454.212 586.5,455.5 Z"/></g>
<g><path style="opacity:0.004" fill="#058793" d="M 263.5,458.5 C 264.833,459.167 264.833,459.167 263.5,458.5 Z"/></g>
<g><path style="opacity:0.647" fill="#036670" d="M 576.5,458.5 C 571.622,460.236 566.622,461.57 561.5,462.5C 560.761,462.631 560.094,462.464 559.5,462C 563.787,460.512 568.12,459.178 572.5,458C 574.066,457.235 575.399,457.402 576.5,458.5 Z"/></g>
<g><path style="opacity:0.965" fill="#055761" d="M 273.5,461.5 C 273.158,462.338 272.492,462.672 271.5,462.5C 267.5,462.5 263.5,462.5 259.5,462.5C 258.833,462.5 258.5,462.167 258.5,461.5C 263.477,460.31 268.477,460.31 273.5,461.5 Z"/></g>
<g><path style="opacity:1" fill="#04616c" d="M 556.5,464.5 C 549.223,466.703 541.89,468.703 534.5,470.5C 531.903,470.279 531.903,469.779 534.5,469C 541.167,467.167 547.833,465.333 554.5,463.5C 555.416,463.543 556.083,463.876 556.5,464.5 Z"/></g>
<g><path style="opacity:0.667" fill="#02636e" d="M 273.5,461.5 C 284.868,463.018 294.868,467.518 303.5,475C 313.688,486.557 323.021,498.724 331.5,511.5C 329.807,510.525 328.307,509.192 327,507.5C 321,499.5 315,491.5 309,483.5C 299.096,471.637 286.596,464.637 271.5,462.5C 272.492,462.672 273.158,462.338 273.5,461.5 Z"/></g>
<g><path style="opacity:0.004" fill="#058793" d="M 299.5,469.5 C 300.833,470.167 300.833,470.167 299.5,469.5 Z"/></g>
<g><path style="opacity:0.012" fill="#038390" d="M 229.5,472.5 C 228.833,471.167 228.833,471.167 229.5,472.5 Z"/></g>
<g><path style="opacity:0.004" fill="#02828f" d="M 423.5,472.5 C 424.833,473.167 424.833,473.167 423.5,472.5 Z"/></g>
<g><path style="opacity:0.753" fill="#03616a" d="M 441.5,437.5 C 442.167,437.5 442.833,437.5 443.5,437.5C 444.239,437.369 444.906,437.536 445.5,438C 430.526,444.448 425.026,455.615 429,471.5C 431.49,475.926 433.823,480.26 436,484.5C 414.028,508.474 392.028,532.474 370,556.5C 369.601,556.272 369.435,555.938 369.5,555.5C 374.5,549.5 379.5,543.5 384.5,537.5C 387.881,535.12 390.547,532.12 392.5,528.5C 402.212,519.123 411.212,509.123 419.5,498.5C 424.996,493.837 429.996,488.67 434.5,483C 424.809,472.209 423.309,460.376 430,447.5C 433.398,443.569 437.231,440.235 441.5,437.5 Z"/></g>
<g><path style="opacity:0.004" fill="#048190" d="M 313.5,484.5 C 314.833,485.167 314.833,485.167 313.5,484.5 Z"/></g>
<g><path style="opacity:0.008" fill="#018193" d="M 416.5,495.5 C 417.833,496.167 417.833,496.167 416.5,495.5 Z"/></g>
<g><path style="opacity:0.004" fill="#038495" d="M 419.5,498.5 C 418.833,497.167 418.833,497.167 419.5,498.5 Z"/></g>
<g><path style="opacity:0.004" fill="#017f8d" d="M 854.5,498.5 C 855.833,499.167 855.833,499.167 854.5,498.5 Z"/></g>
<g><path style="opacity:0.004" fill="#028494" d="M 409.5,503.5 C 410.833,504.167 410.833,504.167 409.5,503.5 Z"/></g>
<g><path style="opacity:0.008" fill="#008390" d="M 202.5,504.5 C 203.833,505.167 203.833,505.167 202.5,504.5 Z"/></g>
<g><path style="opacity:0.004" fill="#028391" d="M 192.5,520.5 C 193.833,521.167 193.833,521.167 192.5,520.5 Z"/></g>
<g><path style="opacity:0.016" fill="#068691" d="M 392.5,528.5 C 391.833,527.167 391.833,527.167 392.5,528.5 Z"/></g>
<g><path style="opacity:0.004" fill="#028492" d="M 348.5,528.5 C 349.833,529.167 349.833,529.167 348.5,528.5 Z"/></g>
<g><path style="opacity:0.004" fill="#067d88" d="M 184.5,536.5 C 183.833,535.167 183.833,535.167 184.5,536.5 Z"/></g>
<g><path style="opacity:0.008" fill="#048594" d="M 352.5,535.5 C 353.833,536.167 353.833,536.167 352.5,535.5 Z"/></g>
<g><path style="opacity:0.008" fill="#048594" d="M 355.5,535.5 C 356.833,536.167 356.833,536.167 355.5,535.5 Z"/></g>
<g><path style="opacity:0.004" fill="#018894" d="M 384.5,537.5 C 383.833,536.167 383.833,536.167 384.5,537.5 Z"/></g>
<g><path style="opacity:0.004" fill="#058593" d="M 354.5,537.5 C 355.833,538.167 355.833,538.167 354.5,537.5 Z"/></g>
<g><path style="opacity:0.702" fill="#03636e" d="M 485.5,533.5 C 485.5,534.167 485.5,534.833 485.5,535.5C 480.51,541.46 475.51,547.46 470.5,553.5C 469.475,553.103 469.308,552.437 470,551.5C 475,545.167 480,538.833 485,532.5C 485.399,532.728 485.565,533.062 485.5,533.5 Z"/></g>
<g><path style="opacity:1" fill="#02616c" d="M 331.5,511.5 C 338.72,519.577 345.72,527.911 352.5,536.5C 357.157,543.138 361.824,549.804 366.5,556.5C 367.739,557.212 368.239,558.212 368,559.5C 354.614,544.377 342.447,528.377 331.5,511.5 Z"/></g>
<g><path style="opacity:0.004" fill="#048493" d="M 376.5,543.5 C 377.833,544.167 377.833,544.167 376.5,543.5 Z"/></g>
<g><path style="opacity:0.949" fill="#035d67" d="M 258.5,461.5 C 258.5,462.167 258.833,462.5 259.5,462.5C 242.25,465.046 228.417,473.38 218,487.5C 192.749,527.666 167.749,567.999 143,608.5C 136.806,622.868 139.64,635.034 151.5,645C 159.216,648.461 167.216,651.127 175.5,653C 178.097,653.779 178.097,654.279 175.5,654.5C 167.216,652.929 159.216,650.429 151.5,647C 145.35,642.834 141.017,637.334 138.5,630.5C 138.183,624.091 138.683,617.757 140,611.5C 154.856,586.445 169.69,561.445 184.5,536.5C 194.892,520.734 205.059,504.734 215,488.5C 219.699,482.971 224.532,477.638 229.5,472.5C 238.16,466.343 247.827,462.676 258.5,461.5 Z"/></g>
<g><path style="opacity:0.004" fill="#048893" d="M 363.5,549.5 C 364.833,550.167 364.833,550.167 363.5,549.5 Z"/></g>
<g><path style="opacity:0.008" fill="#008798" d="M 368.5,551.5 C 369.833,552.167 369.833,552.167 368.5,551.5 Z"/></g>
<g><path style="opacity:1" fill="#016571" d="M 855.5,512.5 C 855.58,562.448 855.58,612.448 855.5,662.5C 855.672,663.492 855.338,664.158 854.5,664.5C 853.226,614.188 853.226,563.855 854.5,513.5C 854.5,512.833 854.833,512.5 855.5,512.5 Z"/></g>
<g><path style="opacity:0.565" fill="#03626c" d="M 569.5,617.5 C 568.299,615.091 566.633,613.091 564.5,611.5C 563.488,610.128 562.488,608.795 561.5,607.5C 553.393,597.606 545.06,587.94 536.5,578.5C 534.628,575.418 532.295,572.751 529.5,570.5C 528.299,568.091 526.633,566.091 524.5,564.5C 524.167,563.5 523.5,562.833 522.5,562.5C 513.211,550.542 503.544,538.875 493.5,527.5C 492.942,526.21 491.942,525.377 490.5,525C 492.367,524.289 493.867,524.789 495,526.5C 519.959,556.461 545.292,586.127 571,615.5C 571.528,616.816 571.028,617.483 569.5,617.5 Z"/></g>
<g><path style="opacity:0.82" fill="#03616c" d="M 319.5,646.5 C 317.833,645.167 316.167,643.833 314.5,642.5C 298.405,623.788 282.405,605.788 266.5,588.5C 264.823,586.46 263.156,584.46 261.5,582.5C 260.5,580.833 259.167,579.5 257.5,578.5C 251.92,570.747 245.754,563.413 239,556.5C 235.157,562.195 231.323,567.862 227.5,573.5C 226.957,573.44 226.624,573.107 226.5,572.5C 230.042,566.582 233.708,560.749 237.5,555C 238.167,554.333 238.833,554.333 239.5,555C 264.296,583.465 289.463,611.631 315,639.5C 316.75,641.734 318.25,644.068 319.5,646.5 Z"/></g>
<g><path style="opacity:1" fill="#04606b" d="M 701.5,520.5 C 702.139,521.097 702.472,521.93 702.5,523C 696.92,553.566 691.087,584.066 685,614.5C 684.536,613.906 684.369,613.239 684.5,612.5C 689.658,581.711 695.325,551.044 701.5,520.5 Z"/></g>
<g><path style="opacity:0.929" fill="#036069" d="M 461.5,564.5 C 455.185,573.476 448.519,582.143 441.5,590.5C 440.475,590.103 440.308,589.437 441,588.5C 447.907,580.349 454.574,572.016 461,563.5C 461.399,563.728 461.565,564.062 461.5,564.5 Z"/></g>
<g><path style="opacity:1" fill="#03626c" d="M 528.5,473.5 C 544.736,491.646 560.736,509.979 576.5,528.5C 580.155,533.486 584.155,538.153 588.5,542.5C 597.486,554.149 606.819,565.482 616.5,576.5C 623.71,588.702 623.044,600.369 614.5,611.5C 613.957,611.44 613.624,611.107 613.5,610.5C 618.825,603.388 620.658,595.388 619,586.5C 618.275,584.051 617.275,581.717 616,579.5C 587.44,543.719 557.94,508.719 527.5,474.5C 527.624,473.893 527.957,473.56 528.5,473.5 Z"/></g>
<g><path style="opacity:0.949" fill="#03606b" d="M 225.5,575.5 C 220.527,583.483 215.527,591.483 210.5,599.5C 209.761,599.631 209.094,599.464 208.5,599C 213.667,591.167 218.833,583.333 224,575.5C 224.69,574.262 225.19,574.262 225.5,575.5 Z"/></g>
<g><path style="opacity:1" fill="#03646e" d="M 771.5,583.5 C 764.696,608.959 757.363,634.626 749.5,660.5C 748.876,660.083 748.543,659.416 748.5,658.5C 755.777,633.173 762.943,607.84 770,582.5C 771.087,580.068 771.587,580.402 771.5,583.5 Z"/></g>
<g><path style="opacity:0.982" fill="#025a64" d="M 774.5,600.5 C 773.756,596.881 773.423,593.215 773.5,589.5C 773.343,588.127 773.51,586.793 774,585.5C 775.61,590.61 775.777,595.61 774.5,600.5 Z"/></g>
<g><path style="opacity:0.004" fill="#048b9c" d="M 771.5,595.5 C 772.833,596.167 772.833,596.167 771.5,595.5 Z"/></g>
<g><path style="opacity:0.933" fill="#03626d" d="M 435.5,597.5 C 430.516,604.48 425.183,611.146 419.5,617.5C 418.475,617.103 418.308,616.437 419,615.5C 424.709,609.46 430.043,603.126 435,596.5C 435.399,596.728 435.565,597.062 435.5,597.5 Z"/></g>
<g><path style="opacity:0.994" fill="#035760" d="M 777.5,617.5 C 777.167,617.5 776.833,617.5 776.5,617.5C 775.838,613.534 775.505,609.534 775.5,605.5C 775.343,604.127 775.51,602.793 776,601.5C 776.977,606.793 777.477,612.126 777.5,617.5 Z"/></g>
<g><path style="opacity:0.788" fill="#03626d" d="M 214.5,603.5 C 234.939,608.527 255.272,614.027 275.5,620C 277.5,621 279.5,622 281.5,623C 297.59,639.541 297.257,655.707 280.5,671.5C 279.761,671.631 279.094,671.464 278.5,671C 294.542,656.594 295.542,641.26 281.5,625C 278.167,623.333 274.833,621.667 271.5,620C 251.437,614.984 231.437,609.651 211.5,604C 212.448,603.517 213.448,603.351 214.5,603.5 Z"/></g>
<g><path style="opacity:0.004" fill="#047d87" d="M 136.5,628.5 C 137.833,629.167 137.833,629.167 136.5,628.5 Z"/></g>
<g><path style="opacity:0.005" fill="#017785" d="M 138.5,630.5 C 138.483,632.028 137.816,632.528 136.5,632C 137.044,631.283 137.711,630.783 138.5,630.5 Z"/></g>
<g><path style="opacity:0.004" fill="#048596" d="M 756.5,639.5 C 757.833,640.167 757.833,640.167 756.5,639.5 Z"/></g>
<g><path style="opacity:0.004" fill="#018594" d="M 775.5,640.5 C 776.833,641.167 776.833,641.167 775.5,640.5 Z"/></g>
<g><path style="opacity:0.012" fill="#028695" d="M 777.5,639.5 C 778.525,639.897 778.692,640.563 778,641.5C 777.536,640.906 777.369,640.239 777.5,639.5 Z"/></g>
<g><path style="opacity:0.004" fill="#048694" d="M 755.5,642.5 C 756.833,643.167 756.833,643.167 755.5,642.5 Z"/></g>
<g><path style="opacity:0.008" fill="#038797" d="M 777.5,642.5 C 778.833,643.167 778.833,643.167 777.5,642.5 Z"/></g>
<g><path style="opacity:0.996" fill="#03646d" d="M 319.5,646.5 C 326.557,653.055 333.557,659.888 340.5,667C 343.833,669 347.167,671 350.5,673C 348.575,672.865 346.575,672.698 344.5,672.5C 343.738,670.738 342.404,669.738 340.5,669.5C 335.167,664.833 330.167,659.833 325.5,654.5C 323.091,652.098 321.091,649.431 319.5,646.5 Z"/></g>
<g><path style="opacity:0.004" fill="#048595" d="M 775.5,648.5 C 776.833,649.167 776.833,649.167 775.5,648.5 Z"/></g>
<g><path style="opacity:0.004" fill="#048999" d="M 168.5,654.5 C 169.833,655.167 169.833,655.167 168.5,654.5 Z"/></g>
<g><path style="opacity:0.008" fill="#038897" d="M 170.5,654.5 C 171.833,655.167 171.833,655.167 170.5,654.5 Z"/></g>
<g><path style="opacity:0.004" fill="#038898" d="M 779.5,654.5 C 780.833,655.167 780.833,655.167 779.5,654.5 Z"/></g>
<g><path style="opacity:0.733" fill="#035c65" d="M 178.5,655.5 C 179.946,654.387 181.613,654.22 183.5,655C 199.319,659.171 214.319,663.671 228.5,668.5C 211.728,664.576 195.061,660.243 178.5,655.5 Z"/></g>
<g><path style="opacity:0.996" fill="#015963" d="M 230.5,669.5 C 231.601,668.402 232.934,668.235 234.5,669C 236.788,669.822 239.122,670.489 241.5,671C 240.552,671.483 239.552,671.649 238.5,671.5C 235.733,671.142 233.067,670.475 230.5,669.5 Z"/></g>
<g><path style="opacity:0.008" fill="#028a9b" d="M 228.5,669.5 C 228.918,670.222 229.584,670.722 230.5,671C 228.711,671.52 227.044,671.187 225.5,670C 226.448,669.517 227.448,669.351 228.5,669.5 Z"/></g>
<g><path style="opacity:0.004" fill="#068898" d="M 165.5,671.5 C 166.833,672.167 166.833,672.167 165.5,671.5 Z"/></g>
<g><path style="opacity:0.008" fill="#028899" d="M 173.5,671.5 C 174.833,672.167 174.833,672.167 173.5,671.5 Z"/></g>
<g><path style="opacity:0.008" fill="#048b9c" d="M 177.5,671.5 C 178.833,672.167 178.833,672.167 177.5,671.5 Z"/></g>
<g><path style="opacity:0.012" fill="#048b9b" d="M 181.5,671.5 C 182.833,672.167 182.833,672.167 181.5,671.5 Z"/></g>
<g><path style="opacity:0.008" fill="#038b99" d="M 197.5,671.5 C 198.833,672.167 198.833,672.167 197.5,671.5 Z"/></g>
<g><path style="opacity:0.004" fill="#058b9b" d="M 200.5,671.5 C 201.833,672.167 201.833,672.167 200.5,671.5 Z"/></g>
<g><path style="opacity:0.004" fill="#028a99" d="M 205.5,672.5 C 205.897,671.475 206.563,671.308 207.5,672C 206.906,672.464 206.239,672.631 205.5,672.5 Z"/></g>
<g><path style="opacity:0.004" fill="#03899a" d="M 208.5,672.5 C 208.897,671.475 209.563,671.308 210.5,672C 209.906,672.464 209.239,672.631 208.5,672.5 Z"/></g>
<g><path style="opacity:0.012" fill="#05909f" d="M 217.5,671.5 C 218.833,672.167 218.833,672.167 217.5,671.5 Z"/></g>
<g><path style="opacity:0.012" fill="#028d99" d="M 221.5,671.5 C 222.833,672.167 222.833,672.167 221.5,671.5 Z"/></g>
<g><path style="opacity:0.006" fill="#058c9b" d="M 224.5,672.5 C 224.897,671.475 225.563,671.308 226.5,672C 225.906,672.464 225.239,672.631 224.5,672.5 Z"/></g>
<g><path style="opacity:0.004" fill="#028190" d="M 158.5,673.5 C 157.833,672.167 157.833,672.167 158.5,673.5 Z"/></g>
<g><path style="opacity:0.748" fill="#015662" d="M 240.5,673.5 C 237.713,674.477 234.713,674.81 231.5,674.5C 209.993,674.831 188.66,674.497 167.5,673.5C 192.185,673.395 216.518,673.395 240.5,673.5 Z"/></g>
<g><path style="opacity:0.773" fill="#005561" d="M 344.5,672.5 C 345.263,673.268 346.263,673.768 347.5,674C 346.207,674.49 344.873,674.657 343.5,674.5C 333.319,674.827 323.319,674.494 313.5,673.5C 323.915,673.808 334.249,673.475 344.5,672.5 Z"/></g>
<g><path style="opacity:0.792" fill="#04626a" d="M 747.5,665.5 C 746.707,669.88 745.707,674.213 744.5,678.5C 743.387,677.054 743.22,675.387 744,673.5C 745.202,670.226 746.202,666.893 747,663.5C 747.464,664.094 747.631,664.761 747.5,665.5 Z"/></g>
<g><path style="opacity:1" fill="#016672" d="M 158.5,673.5 C 161.5,673.5 164.5,673.5 167.5,673.5C 188.66,674.497 209.993,674.831 231.5,674.5C 206.961,675.185 182.294,675.852 157.5,676.5C 157.158,675.662 156.492,675.328 155.5,675.5C 156.5,674.833 157.5,674.167 158.5,673.5 Z"/></g>
<g><path style="opacity:1" fill="#01626f" d="M 311.5,672.5 C 312.167,672.833 312.833,673.167 313.5,673.5C 323.319,674.494 333.319,674.827 343.5,674.5C 333.005,675.167 322.339,675.5 311.5,675.5C 300.478,675.499 289.812,674.832 279.5,673.5C 290.346,673.828 301.013,673.494 311.5,672.5 Z"/></g>
<g><path style="opacity:0.004" fill="#05818f" d="M 861.5,678.5 C 862.833,679.167 862.833,679.167 861.5,678.5 Z"/></g>
<g><path style="opacity:0.008" fill="#028796" d="M 784.5,679.5 C 785.833,680.167 785.833,680.167 784.5,679.5 Z"/></g>
<g><path style="opacity:0.004" fill="#048794" d="M 785.5,682.5 C 786.525,682.897 786.692,683.563 786,684.5C 785.536,683.906 785.369,683.239 785.5,682.5 Z"/></g>
<g><path style="opacity:1" fill="#025b64" d="M 743.5,681.5 C 743.736,684.609 743.403,687.609 742.5,690.5C 741.226,686.926 741.393,683.259 743,679.5C 743.464,680.094 743.631,680.761 743.5,681.5 Z"/></g>
<g><path style="opacity:0.004" fill="#037986" d="M 138.5,687.5 C 139.833,688.167 139.833,688.167 138.5,687.5 Z"/></g>
<g><path style="opacity:0.008" fill="#048897" d="M 785.5,690.5 C 786.833,691.167 786.833,691.167 785.5,690.5 Z"/></g>
<g><path style="opacity:0.008" fill="#027784" d="M 136.5,692.5 C 137.833,693.167 137.833,693.167 136.5,692.5 Z"/></g>
<g><path style="opacity:0.004" fill="#078596" d="M 788.5,694.5 C 789.833,695.167 789.833,695.167 788.5,694.5 Z"/></g>
<g><path style="opacity:0.99" fill="#045860" d="M 155.5,675.5 C 156.492,675.328 157.158,675.662 157.5,676.5C 149.667,678.828 144.167,683.828 141,691.5C 137.173,705.033 141.34,715.2 153.5,722C 162.116,723.173 170.783,723.839 179.5,724C 172.842,724.5 166.175,724.666 159.5,724.5C 150.364,723.534 143.864,718.867 140,710.5C 135.457,696.796 138.957,685.63 150.5,677C 152.154,676.392 153.821,675.892 155.5,675.5 Z"/></g>
<g><path style="opacity:0.004" fill="#047d8c" d="M 867.5,698.5 C 868.833,699.167 868.833,699.167 867.5,698.5 Z"/></g>
<g><path style="opacity:1" fill="#055e66" d="M 741.5,695.5 C 740.908,703.235 739.908,710.901 738.5,718.5C 737.879,709.893 738.713,701.226 741,692.5C 741.483,693.448 741.649,694.448 741.5,695.5 Z"/></g>
<g><path style="opacity:0.004" fill="#037886" d="M 136.5,703.5 C 137.833,704.167 137.833,704.167 136.5,703.5 Z"/></g>
<g><path style="opacity:0.004" fill="#028795" d="M 741.5,706.5 C 742.833,707.167 742.833,707.167 741.5,706.5 Z"/></g>
<g><path style="opacity:0.671" fill="#035e67" d="M 855.5,662.5 C 870.072,716.24 884.072,770.24 897.5,824.5C 897.328,825.492 897.662,826.158 898.5,826.5C 901.819,838.949 904.819,851.449 907.5,864C 903.84,889.667 889.173,901.001 863.5,898C 859.735,896.583 856.069,895.083 852.5,893.5C 844.184,887.208 839.184,878.875 837.5,868.5C 837.369,867.761 837.536,867.094 838,866.5C 840.236,879.734 847.402,889.234 859.5,895C 885.641,901.013 900.975,890.847 905.5,864.5C 889.326,797.641 872.326,730.975 854.5,664.5C 855.338,664.158 855.672,663.492 855.5,662.5 Z"/></g>
<g><path style="opacity:0.004" fill="#038596" d="M 741.5,710.5 C 742.833,711.167 742.833,711.167 741.5,710.5 Z"/></g>
<g><path style="opacity:0.012" fill="#038694" d="M 793.5,712.5 C 792.833,711.167 792.833,711.167 793.5,712.5 Z"/></g>
<g><path style="opacity:0.004" fill="#038491" d="M 793.5,712.5 C 794.833,713.167 794.833,713.167 793.5,712.5 Z"/></g>
<g><path style="opacity:0.004" fill="#058691" d="M 791.5,714.5 C 792.833,715.167 792.833,715.167 791.5,714.5 Z"/></g>
<g><path style="opacity:0.012" fill="#058393" d="M 795.5,715.5 C 795.5,716.5 795.5,717.5 795.5,718.5C 793.727,717.686 793.227,716.352 794,714.5C 794.383,715.056 794.883,715.389 795.5,715.5 Z"/></g>
<g><path style="opacity:0.008" fill="#068792" d="M 791.5,716.5 C 792.833,717.167 792.833,717.167 791.5,716.5 Z"/></g>
<g><path style="opacity:0.004" fill="#048593" d="M 791.5,718.5 C 792.833,719.167 792.833,719.167 791.5,718.5 Z"/></g>
<g><path style="opacity:0.008" fill="#05838e" d="M 795.5,718.5 C 795.833,718.5 796.167,718.5 796.5,718.5C 796.315,719.17 795.981,719.17 795.5,718.5 Z"/></g>
<g><path style="opacity:0.075" fill="#068996" d="M 209.5,725.5 C 361.999,724.5 514.666,724.167 667.5,724.5C 667.672,725.492 667.338,726.158 666.5,726.5C 514.334,725.5 362.001,725.167 209.5,725.5 Z"/></g>
<g><path style="opacity:0.988" fill="#05626a" d="M 737.5,723.5 C 737.242,729.231 736.575,734.898 735.5,740.5C 734.593,733.589 735.093,726.589 737,719.5C 737.49,720.793 737.657,722.127 737.5,723.5 Z"/></g>
<g><path style="opacity:0.004" fill="#048997" d="M 215.5,726.5 C 216.833,727.167 216.833,727.167 215.5,726.5 Z"/></g>
<g><path style="opacity:0.004" fill="#028695" d="M 220.5,726.5 C 221.833,727.167 221.833,727.167 220.5,726.5 Z"/></g>
<g><path style="opacity:0.008" fill="#038695" d="M 231.5,726.5 C 232.833,727.167 232.833,727.167 231.5,726.5 Z"/></g>
<g><path style="opacity:0.008" fill="#048695" d="M 239.5,726.5 C 240.833,727.167 240.833,727.167 239.5,726.5 Z"/></g>
<g><path style="opacity:0.004" fill="#038595" d="M 247.5,726.5 C 248.833,727.167 248.833,727.167 247.5,726.5 Z"/></g>
<g><path style="opacity:0.004" fill="#048295" d="M 259.5,726.5 C 260.833,727.167 260.833,727.167 259.5,726.5 Z"/></g>
<g><path style="opacity:0.004" fill="#048395" d="M 263.5,727.5 C 263.897,726.475 264.563,726.308 265.5,727C 264.906,727.464 264.239,727.631 263.5,727.5 Z"/></g>
<g><path style="opacity:0.004" fill="#038391" d="M 268.5,727.5 C 268.897,726.475 269.563,726.308 270.5,727C 269.906,727.464 269.239,727.631 268.5,727.5 Z"/></g>
<g><path style="opacity:0.004" fill="#028493" d="M 271.5,726.5 C 272.833,727.167 272.833,727.167 271.5,726.5 Z"/></g>
<g><path style="opacity:0.008" fill="#05848f" d="M 276.5,726.5 C 277.833,727.167 277.833,727.167 276.5,726.5 Z"/></g>
<g><path style="opacity:0.008" fill="#048493" d="M 279.5,726.5 C 280.833,727.167 280.833,727.167 279.5,726.5 Z"/></g>
<g><path style="opacity:0.004" fill="#028392" d="M 287.5,727.5 C 287.897,726.475 288.563,726.308 289.5,727C 288.906,727.464 288.239,727.631 287.5,727.5 Z"/></g>
<g><path style="opacity:0.004" fill="#048291" d="M 292.5,726.5 C 293.833,727.167 293.833,727.167 292.5,726.5 Z"/></g>
<g><path style="opacity:0.004" fill="#038190" d="M 295.5,727.5 C 296.251,726.427 297.251,726.26 298.5,727C 297.552,727.483 296.552,727.649 295.5,727.5 Z"/></g>
<g><path style="opacity:0.008" fill="#048190" d="M 300.5,727.5 C 301.946,726.387 303.613,726.22 305.5,727C 303.866,727.494 302.199,727.66 300.5,727.5 Z"/></g>
<g><path style="opacity:0.004" fill="#048291" d="M 306.5,726.5 C 307.833,727.167 307.833,727.167 306.5,726.5 Z"/></g>
<g><path style="opacity:0.004" fill="#04818f" d="M 308.5,727.5 C 308.897,726.475 309.563,726.308 310.5,727C 309.906,727.464 309.239,727.631 308.5,727.5 Z"/></g>
<g><path style="opacity:0.008" fill="#048390" d="M 311.5,726.5 C 312.833,727.167 312.833,727.167 311.5,726.5 Z"/></g>
<g><path style="opacity:0.004" fill="#018592" d="M 313.5,726.5 C 314.833,727.167 314.833,727.167 313.5,726.5 Z"/></g>
<g><path style="opacity:0.012" fill="#05828f" d="M 316.5,726.5 C 317.833,727.167 317.833,727.167 316.5,726.5 Z"/></g>
<g><path style="opacity:0.004" fill="#058192" d="M 319.5,726.5 C 320.833,727.167 320.833,727.167 319.5,726.5 Z"/></g>
<g><path style="opacity:0.004" fill="#038090" d="M 323.5,727.5 C 323.897,726.475 324.563,726.308 325.5,727C 324.906,727.464 324.239,727.631 323.5,727.5 Z"/></g>
<g><path style="opacity:0.004" fill="#038190" d="M 327.5,726.5 C 328.833,727.167 328.833,727.167 327.5,726.5 Z"/></g>
<g><path style="opacity:0.004" fill="#04818f" d="M 332.5,726.5 C 333.833,727.167 333.833,727.167 332.5,726.5 Z"/></g>
<g><path style="opacity:0.006" fill="#028190" d="M 335.5,727.5 C 335.897,726.475 336.563,726.308 337.5,727C 336.906,727.464 336.239,727.631 335.5,727.5 Z"/></g>
<g><path style="opacity:0.008" fill="#048090" d="M 340.5,726.5 C 341.833,727.167 341.833,727.167 340.5,726.5 Z"/></g>
<g><path style="opacity:0.008" fill="#048290" d="M 343.5,726.5 C 344.833,727.167 344.833,727.167 343.5,726.5 Z"/></g>
<g><path style="opacity:0.004" fill="#037e8e" d="M 346.5,726.5 C 347.833,727.167 347.833,727.167 346.5,726.5 Z"/></g>
<g><path style="opacity:0.008" fill="#02818e" d="M 348.5,726.5 C 349.833,727.167 349.833,727.167 348.5,726.5 Z"/></g>
<g><path style="opacity:0.004" fill="#047f8e" d="M 350.5,727.5 C 350.897,726.475 351.563,726.308 352.5,727C 351.906,727.464 351.239,727.631 350.5,727.5 Z"/></g>
<g><path style="opacity:0.004" fill="#05808d" d="M 356.5,726.5 C 357.833,727.167 357.833,727.167 356.5,726.5 Z"/></g>
<g><path style="opacity:0.008" fill="#037f8f" d="M 359.5,727.5 C 359.897,726.475 360.563,726.308 361.5,727C 360.906,727.464 360.239,727.631 359.5,727.5 Z"/></g>
<g><path style="opacity:0.008" fill="#06818c" d="M 364.5,726.5 C 365.833,727.167 365.833,727.167 364.5,726.5 Z"/></g>
<g><path style="opacity:0.01" fill="#028190" d="M 367.5,727.5 C 367.897,726.475 368.563,726.308 369.5,727C 368.906,727.464 368.239,727.631 367.5,727.5 Z"/></g>
<g><path style="opacity:0.016" fill="#067f8f" d="M 372.5,726.5 C 373.833,727.167 373.833,727.167 372.5,726.5 Z"/></g>
<g><path style="opacity:0.004" fill="#03808f" d="M 374.5,726.5 C 375.833,727.167 375.833,727.167 374.5,726.5 Z"/></g>
<g><path style="opacity:0.004" fill="#047f90" d="M 377.5,727.5 C 377.897,726.475 378.563,726.308 379.5,727C 378.906,727.464 378.239,727.631 377.5,727.5 Z"/></g>
<g><path style="opacity:0.004" fill="#03808f" d="M 383.5,726.5 C 384.833,727.167 384.833,727.167 383.5,726.5 Z"/></g>
<g><path style="opacity:0.004" fill="#047e8f" d="M 391.5,726.5 C 392.833,727.167 392.833,727.167 391.5,726.5 Z"/></g>
<g><path style="opacity:0.012" fill="#047f8e" d="M 396.5,726.5 C 397.833,727.167 397.833,727.167 396.5,726.5 Z"/></g>
<g><path style="opacity:0.004" fill="#05828f" d="M 399.5,726.5 C 400.833,727.167 400.833,727.167 399.5,726.5 Z"/></g>
<g><path style="opacity:0.004" fill="#038391" d="M 401.5,726.5 C 402.833,727.167 402.833,727.167 401.5,726.5 Z"/></g>
<g><path style="opacity:0.004" fill="#038190" d="M 403.5,727.5 C 403.897,726.475 404.563,726.308 405.5,727C 404.906,727.464 404.239,727.631 403.5,727.5 Z"/></g>
<g><path style="opacity:0.004" fill="#037f8e" d="M 407.5,727.5 C 407.897,726.475 408.563,726.308 409.5,727C 408.906,727.464 408.239,727.631 407.5,727.5 Z"/></g>
<g><path style="opacity:0.008" fill="#06808f" d="M 412.5,726.5 C 413.833,727.167 413.833,727.167 412.5,726.5 Z"/></g>
<g><path style="opacity:0.006" fill="#047e8e" d="M 415.5,727.5 C 415.897,726.475 416.563,726.308 417.5,727C 416.906,727.464 416.239,727.631 415.5,727.5 Z"/></g>
<g><path style="opacity:0.004" fill="#037f8d" d="M 420.5,727.5 C 420.897,726.475 421.563,726.308 422.5,727C 421.906,727.464 421.239,727.631 420.5,727.5 Z"/></g>
<g><path style="opacity:0.004" fill="#018290" d="M 423.5,726.5 C 424.833,727.167 424.833,727.167 423.5,726.5 Z"/></g>
<g><path style="opacity:0.012" fill="#058090" d="M 428.5,726.5 C 429.833,727.167 429.833,727.167 428.5,726.5 Z"/></g>
<g><path style="opacity:0.004" fill="#038090" d="M 431.5,727.5 C 431.897,726.475 432.563,726.308 433.5,727C 432.906,727.464 432.239,727.631 431.5,727.5 Z"/></g>
<g><path style="opacity:0.01" fill="#03808e" d="M 435.5,727.5 C 435.897,726.475 436.563,726.308 437.5,727C 436.906,727.464 436.239,727.631 435.5,727.5 Z"/></g>
<g><path style="opacity:0.004" fill="#057f8d" d="M 439.5,726.5 C 440.833,727.167 440.833,727.167 439.5,726.5 Z"/></g>
<g><path style="opacity:0.004" fill="#05818e" d="M 444.5,726.5 C 445.833,727.167 445.833,727.167 444.5,726.5 Z"/></g>
<g><path style="opacity:0.008" fill="#04808f" d="M 447.5,726.5 C 448.833,727.167 448.833,727.167 447.5,726.5 Z"/></g>
<g><path style="opacity:0.008" fill="#05828f" d="M 452.5,726.5 C 453.833,727.167 453.833,727.167 452.5,726.5 Z"/></g>
<g><path style="opacity:0.004" fill="#04818c" d="M 455.5,726.5 C 456.833,727.167 456.833,727.167 455.5,726.5 Z"/></g>
<g><path style="opacity:0.004" fill="#03808f" d="M 460.5,727.5 C 461.946,726.387 463.613,726.22 465.5,727C 463.866,727.494 462.199,727.66 460.5,727.5 Z"/></g>
<g><path style="opacity:0.004" fill="#03818f" d="M 466.5,726.5 C 467.833,727.167 467.833,727.167 466.5,726.5 Z"/></g>
<g><path style="opacity:0.012" fill="#04828d" d="M 468.5,726.5 C 469.833,727.167 469.833,727.167 468.5,726.5 Z"/></g>
<g><path style="opacity:0.004" fill="#047f90" d="M 470.5,727.5 C 470.897,726.475 471.563,726.308 472.5,727C 471.906,727.464 471.239,727.631 470.5,727.5 Z"/></g>
<g><path style="opacity:0.004" fill="#058190" d="M 476.5,726.5 C 477.833,727.167 477.833,727.167 476.5,726.5 Z"/></g>
<g><path style="opacity:0.005" fill="#038290" d="M 479.5,727.5 C 481.288,726.378 483.288,726.211 485.5,727C 483.527,727.495 481.527,727.662 479.5,727.5 Z"/></g>
<g><path style="opacity:0.008" fill="#058291" d="M 487.5,726.5 C 488.833,727.167 488.833,727.167 487.5,726.5 Z"/></g>
<g><path style="opacity:0.012" fill="#048190" d="M 489.5,727.5 C 490.601,726.402 491.934,726.235 493.5,727C 492.207,727.49 490.873,727.657 489.5,727.5 Z"/></g>
<g><path style="opacity:0.014" fill="#038290" d="M 495.5,727.5 C 495.897,726.475 496.563,726.308 497.5,727C 496.906,727.464 496.239,727.631 495.5,727.5 Z"/></g>
<g><path style="opacity:0.008" fill="#048291" d="M 498.5,726.5 C 499.833,727.167 499.833,727.167 498.5,726.5 Z"/></g>
<g><path style="opacity:0.016" fill="#04838e" d="M 500.5,726.5 C 501.833,727.167 501.833,727.167 500.5,726.5 Z"/></g>
<g><path style="opacity:0.008" fill="#057f8f" d="M 503.5,727.5 C 504.251,726.427 505.251,726.26 506.5,727C 505.552,727.483 504.552,727.649 503.5,727.5 Z"/></g>
<g><path style="opacity:0.004" fill="#048192" d="M 508.5,726.5 C 509.833,727.167 509.833,727.167 508.5,726.5 Z"/></g>
<g><path style="opacity:0.01" fill="#028090" d="M 511.5,727.5 C 511.897,726.475 512.563,726.308 513.5,727C 512.906,727.464 512.239,727.631 511.5,727.5 Z"/></g>
<g><path style="opacity:0.008" fill="#068290" d="M 516.5,726.5 C 517.833,727.167 517.833,727.167 516.5,726.5 Z"/></g>
<g><path style="opacity:0.006" fill="#02818f" d="M 519.5,727.5 C 521.288,726.378 523.288,726.211 525.5,727C 523.527,727.495 521.527,727.662 519.5,727.5 Z"/></g>
<g><path style="opacity:0.004" fill="#048392" d="M 532.5,726.5 C 533.833,727.167 533.833,727.167 532.5,726.5 Z"/></g>
<g><path style="opacity:0.005" fill="#038290" d="M 535.5,727.5 C 536.251,726.427 537.251,726.26 538.5,727C 537.552,727.483 536.552,727.649 535.5,727.5 Z"/></g>
<g><path style="opacity:0.012" fill="#048292" d="M 540.5,726.5 C 541.833,727.167 541.833,727.167 540.5,726.5 Z"/></g>
<g><path style="opacity:0.008" fill="#03808f" d="M 543.5,727.5 C 544.251,726.427 545.251,726.26 546.5,727C 545.552,727.483 544.552,727.649 543.5,727.5 Z"/></g>
<g><path style="opacity:0.012" fill="#05818f" d="M 548.5,726.5 C 549.833,727.167 549.833,727.167 548.5,726.5 Z"/></g>
<g><path style="opacity:0.016" fill="#03818f" d="M 551.5,727.5 C 551.897,726.475 552.563,726.308 553.5,727C 552.906,727.464 552.239,727.631 551.5,727.5 Z"/></g>
<g><path style="opacity:0.004" fill="#047f8e" d="M 557.5,726.5 C 558.833,727.167 558.833,727.167 557.5,726.5 Z"/></g>
<g><path style="opacity:0.006" fill="#038191" d="M 559.5,727.5 C 559.897,726.475 560.563,726.308 561.5,727C 560.906,727.464 560.239,727.631 559.5,727.5 Z"/></g>
<g><path style="opacity:0.01" fill="#038090" d="M 567.5,727.5 C 567.897,726.475 568.563,726.308 569.5,727C 568.906,727.464 568.239,727.631 567.5,727.5 Z"/></g>
<g><path style="opacity:0.004" fill="#03818e" d="M 571.5,727.5 C 572.251,726.427 573.251,726.26 574.5,727C 573.552,727.483 572.552,727.649 571.5,727.5 Z"/></g>
<g><path style="opacity:0.008" fill="#048191" d="M 575.5,727.5 C 575.897,726.475 576.563,726.308 577.5,727C 576.906,727.464 576.239,727.631 575.5,727.5 Z"/></g>
<g><path style="opacity:0.006" fill="#048290" d="M 578.5,727.5 C 582.311,726.355 586.311,726.188 590.5,727C 586.514,727.499 582.514,727.666 578.5,727.5 Z"/></g>
<g><path style="opacity:0.006" fill="#048291" d="M 591.5,727.5 C 591.897,726.475 592.563,726.308 593.5,727C 592.906,727.464 592.239,727.631 591.5,727.5 Z"/></g>
<g><path style="opacity:0.004" fill="#058393" d="M 596.5,726.5 C 597.833,727.167 597.833,727.167 596.5,726.5 Z"/></g>
<g><path style="opacity:0.004" fill="#038592" d="M 599.5,726.5 C 600.833,727.167 600.833,727.167 599.5,726.5 Z"/></g>
<g><path style="opacity:0.004" fill="#048491" d="M 604.5,726.5 C 605.833,727.167 605.833,727.167 604.5,726.5 Z"/></g>
<g><path style="opacity:0.01" fill="#058594" d="M 607.5,727.5 C 607.897,726.475 608.563,726.308 609.5,727C 608.906,727.464 608.239,727.631 607.5,727.5 Z"/></g>
<g><path style="opacity:0.004" fill="#048292" d="M 610.5,727.5 C 611.251,726.427 612.251,726.26 613.5,727C 612.552,727.483 611.552,727.649 610.5,727.5 Z"/></g>
<g><path style="opacity:0.004" fill="#038494" d="M 623.5,727.5 C 623.897,726.475 624.563,726.308 625.5,727C 624.906,727.464 624.239,727.631 623.5,727.5 Z"/></g>
<g><path style="opacity:0.008" fill="#048392" d="M 628.5,726.5 C 629.833,727.167 629.833,727.167 628.5,726.5 Z"/></g>
<g><path style="opacity:0.008" fill="#038593" d="M 631.5,727.5 C 632.251,726.427 633.251,726.26 634.5,727C 633.552,727.483 632.552,727.649 631.5,727.5 Z"/></g>
<g><path style="opacity:0.004" fill="#068590" d="M 636.5,726.5 C 637.833,727.167 637.833,727.167 636.5,726.5 Z"/></g>
<g><path style="opacity:0.004" fill="#058795" d="M 639.5,726.5 C 640.833,727.167 640.833,727.167 639.5,726.5 Z"/></g>
<g><path style="opacity:0.004" fill="#058695" d="M 644.5,726.5 C 645.833,727.167 645.833,727.167 644.5,726.5 Z"/></g>
<g><path style="opacity:0.004" fill="#048594" d="M 177.5,730.5 C 178.833,731.167 178.833,731.167 177.5,730.5 Z"/></g>
<g><path style="opacity:0.008" fill="#028594" d="M 663.5,732.5 C 664.833,733.167 664.833,733.167 663.5,732.5 Z"/></g>
<g><path style="opacity:0.984" fill="#03626c" d="M 666.5,727.5 C 667.017,736.752 666.184,746.085 664,755.5C 663.517,754.552 663.351,753.552 663.5,752.5C 664.039,744.069 665.039,735.736 666.5,727.5 Z"/></g>
<g><path style="opacity:0.004" fill="#037b89" d="M 876.5,737.5 C 877.833,738.167 877.833,738.167 876.5,737.5 Z"/></g>
<g><path style="opacity:0.004" fill="#078493" d="M 800.5,738.5 C 801.833,739.167 801.833,739.167 800.5,738.5 Z"/></g>
<g><path style="opacity:0.008" fill="#058394" d="M 801.5,741.5 C 802.525,741.897 802.692,742.563 802,743.5C 801.536,742.906 801.369,742.239 801.5,741.5 Z"/></g>
<g><path style="opacity:0.004" fill="#037d8c" d="M 878.5,744.5 C 879.833,745.167 879.833,745.167 878.5,744.5 Z"/></g>
<g><path style="opacity:0.012" fill="#068696" d="M 803.5,750.5 C 804.833,751.167 804.833,751.167 803.5,750.5 Z"/></g>
<g><path style="opacity:1" fill="#03636c" d="M 734.5,745.5 C 731.725,770.588 728.392,795.588 724.5,820.5C 723.362,817.696 723.195,814.696 724,811.5C 727.164,789.525 730.164,767.525 733,745.5C 733.818,740.206 734.318,740.206 734.5,745.5 Z"/></g>
<g><path style="opacity:0.004" fill="#048593" d="M 805.5,758.5 C 806.833,759.167 806.833,759.167 805.5,758.5 Z"/></g>
<g><path style="opacity:1" fill="#03616b" d="M 776.5,617.5 C 776.833,617.5 777.167,617.5 777.5,617.5C 780.517,638.108 784.017,658.774 788,679.5C 805.121,740.648 821.621,801.981 837.5,863.5C 837.457,864.416 837.124,865.083 836.5,865.5C 836.011,864.005 835.345,862.671 834.5,861.5C 833.259,853.53 831.259,845.864 828.5,838.5C 828.435,835.572 827.768,832.905 826.5,830.5C 824.99,822.794 823.323,815.127 821.5,807.5C 820.325,807.719 819.325,807.386 818.5,806.5C 819.167,806.167 819.833,805.833 820.5,805.5C 819.534,800.943 818.201,796.609 816.5,792.5C 810.41,767.579 803.743,742.913 796.5,718.5C 796.737,717.209 796.404,716.209 795.5,715.5C 791.029,698.281 786.862,680.948 783,663.5C 780.412,648.216 778.245,632.883 776.5,617.5 Z"/></g>
<g><path style="opacity:1" fill="#035a61" d="M 662.5,757.5 C 663.584,762.368 663.417,767.368 662,772.5C 661.505,770.527 661.338,768.527 661.5,766.5C 661.368,763.43 661.701,760.43 662.5,757.5 Z"/></g>
<g><path style="opacity:0.004" fill="#027d8a" d="M 884.5,767.5 C 885.833,768.167 885.833,768.167 884.5,767.5 Z"/></g>
<g><path style="opacity:0.004" fill="#068391" d="M 177.5,770.5 C 178.833,771.167 178.833,771.167 177.5,770.5 Z"/></g>
<g><path style="opacity:0.008" fill="#048793" d="M 658.5,771.5 C 659.833,772.167 659.833,772.167 658.5,771.5 Z"/></g>
<g><path style="opacity:0.008" fill="#058392" d="M 809.5,770.5 C 810.525,770.897 810.692,771.563 810,772.5C 809.536,771.906 809.369,771.239 809.5,770.5 Z"/></g>
<g><path style="opacity:0.004" fill="#008393" d="M 659.5,776.5 C 658.833,775.167 658.833,775.167 659.5,776.5 Z"/></g>
<g><path style="opacity:0.012" fill="#028492" d="M 807.5,776.5 C 808.833,777.167 808.833,777.167 807.5,776.5 Z"/></g>
<g><path style="opacity:0.008" fill="#058492" d="M 810.5,776.5 C 811.833,777.167 811.833,777.167 810.5,776.5 Z"/></g>
<g><path style="opacity:0.004" fill="#068190" d="M 177.5,778.5 C 178.833,779.167 178.833,779.167 177.5,778.5 Z"/></g>
<g><path style="opacity:0.004" fill="#058492" d="M 655.5,778.5 C 656.833,779.167 656.833,779.167 655.5,778.5 Z"/></g>
<g><path style="opacity:0.004" fill="#058793" d="M 657.5,778.5 C 658.833,779.167 658.833,779.167 657.5,778.5 Z"/></g>
<g><path style="opacity:0.004" fill="#058492" d="M 809.5,778.5 C 810.833,779.167 810.833,779.167 809.5,778.5 Z"/></g>
<g><path style="opacity:0.004" fill="#038694" d="M 731.5,782.5 C 732.833,783.167 732.833,783.167 731.5,782.5 Z"/></g>
<g><path style="opacity:0.004" fill="#068493" d="M 812.5,782.5 C 813.833,783.167 813.833,783.167 812.5,782.5 Z"/></g>
<g><path style="opacity:0.006" fill="#058290" d="M 177.5,786.5 C 178.525,786.897 178.692,787.563 178,788.5C 177.536,787.906 177.369,787.239 177.5,786.5 Z"/></g>
<g><path style="opacity:0.004" fill="#037d8a" d="M 889.5,786.5 C 890.833,787.167 890.833,787.167 889.5,786.5 Z"/></g>
<g><path style="opacity:0.984" fill="#035e68" d="M 660.5,773.5 C 661.643,776.976 661.81,780.642 661,784.5C 659,798.499 657,812.499 655,826.5C 654.51,825.207 654.343,823.873 654.5,822.5C 656.167,807.167 657.833,791.834 659.5,776.5C 660.404,775.791 660.737,774.791 660.5,773.5 Z"/></g>
<g><path style="opacity:0.004" fill="#06808e" d="M 177.5,791.5 C 178.833,792.167 178.833,792.167 177.5,791.5 Z"/></g>
<g><path style="opacity:0.004" fill="#048193" d="M 816.5,792.5 C 815.833,793.167 815.833,793.167 816.5,792.5 Z"/></g>
<g><path style="opacity:0.004" fill="#06828f" d="M 177.5,794.5 C 178.833,795.167 178.833,795.167 177.5,794.5 Z"/></g>
<g><path style="opacity:0.004" fill="#048390" d="M 655.5,793.5 C 656.525,793.897 656.692,794.563 656,795.5C 655.536,794.906 655.369,794.239 655.5,793.5 Z"/></g>
<g><path style="opacity:0.004" fill="#068594" d="M 815.5,794.5 C 816.833,795.167 816.833,795.167 815.5,794.5 Z"/></g>
<g><path style="opacity:0.012" fill="#007c8a" d="M 891.5,794.5 C 892.833,795.167 892.833,795.167 891.5,794.5 Z"/></g>
<g><path style="opacity:0.004" fill="#028292" d="M 817.5,800.5 C 816.475,800.103 816.308,799.437 817,798.5C 817.464,799.094 817.631,799.761 817.5,800.5 Z"/></g>
<g><path style="opacity:0.008" fill="#048090" d="M 817.5,800.5 C 818.833,801.167 818.833,801.167 817.5,800.5 Z"/></g>
<g><path style="opacity:0.004" fill="#058190" d="M 177.5,802.5 C 178.833,803.167 178.833,803.167 177.5,802.5 Z"/></g>
<g><path style="opacity:0.004" fill="#028492" d="M 817.5,802.5 C 818.833,803.167 818.833,803.167 817.5,802.5 Z"/></g>
<g><path style="opacity:0.004" fill="#027b8a" d="M 893.5,802.5 C 894.833,803.167 894.833,803.167 893.5,802.5 Z"/></g>
<g><path style="opacity:0.004" fill="#06818f" d="M 177.5,810.5 C 178.833,811.167 178.833,811.167 177.5,810.5 Z"/></g>
<g><path style="opacity:0.004" fill="#048592" d="M 820.5,813.5 C 821.833,814.167 821.833,814.167 820.5,813.5 Z"/></g>
<g><path style="opacity:0.004" fill="#06808b" d="M 177.5,818.5 C 178.833,819.167 178.833,819.167 177.5,818.5 Z"/></g>
<g><path style="opacity:0.004" fill="#047e88" d="M 897.5,818.5 C 898.833,819.167 898.833,819.167 897.5,818.5 Z"/></g>
<g><path style="opacity:0.008" fill="#038494" d="M 725.5,822.5 C 726.833,823.167 726.833,823.167 725.5,822.5 Z"/></g>
<g><path style="opacity:0.004" fill="#077d8c" d="M 177.5,824.5 C 178.833,825.167 178.833,825.167 177.5,824.5 Z"/></g>
<g><path style="opacity:0.004" fill="#04828d" d="M 823.5,824.5 C 824.833,825.167 824.833,825.167 823.5,824.5 Z"/></g>
<g><path style="opacity:0.247" fill="#02808e" d="M 897.5,824.5 C 900.925,824.367 901.258,825.033 898.5,826.5C 897.662,826.158 897.328,825.492 897.5,824.5 Z"/></g>
<g><path style="opacity:0.004" fill="#047d8c" d="M 177.5,826.5 C 178.525,826.897 178.692,827.563 178,828.5C 177.536,827.906 177.369,827.239 177.5,826.5 Z"/></g>
<g><path style="opacity:0.004" fill="#048590" d="M 824.5,828.5 C 825.833,829.167 825.833,829.167 824.5,828.5 Z"/></g>
<g><path style="opacity:0.975" fill="#015e67" d="M 667.5,724.5 C 514.666,724.167 361.999,724.5 209.5,725.5C 209.832,778.669 209.499,831.669 208.5,884.5C 208.672,883.508 208.338,882.842 207.5,882.5C 207.169,829.595 207.503,776.762 208.5,724C 361.667,723.167 514.667,723.334 667.5,724.5 Z"/></g>
<g><path style="opacity:0.006" fill="#038190" d="M 826.5,830.5 C 826.798,833.336 826.131,833.836 824.5,832C 825.044,831.283 825.711,830.783 826.5,830.5 Z"/></g>
<g><path style="opacity:0.004" fill="#037c8a" d="M 648.5,831.5 C 649.833,832.167 649.833,832.167 648.5,831.5 Z"/></g>
<g><path style="opacity:0.004" fill="#04808d" d="M 177.5,834.5 C 178.833,835.167 178.833,835.167 177.5,834.5 Z"/></g>
<g><path style="opacity:0.004" fill="#037d8a" d="M 647.5,834.5 C 648.833,835.167 648.833,835.167 647.5,834.5 Z"/></g>
<g><path style="opacity:0.008" fill="#038590" d="M 723.5,835.5 C 724.833,836.167 724.833,836.167 723.5,835.5 Z"/></g>
<g><path style="opacity:1" fill="#035f67" d="M 723.5,825.5 C 722.657,836.242 721.324,846.908 719.5,857.5C 718.844,856.378 718.511,855.045 718.5,853.5C 719.901,844.195 721.067,834.862 722,825.5C 722.818,820.206 723.318,820.206 723.5,825.5 Z"/></g>
<g><path style="opacity:0.008" fill="#058493" d="M 723.5,838.5 C 724.833,839.167 724.833,839.167 723.5,838.5 Z"/></g>
<g><path style="opacity:0.012" fill="#03828f" d="M 828.5,838.5 C 827.833,839.167 827.833,839.167 828.5,838.5 Z"/></g>
<g><path style="opacity:0.004" fill="#04808f" d="M 649.5,841.5 C 650.833,842.167 650.833,842.167 649.5,841.5 Z"/></g>
<g><path style="opacity:0.988" fill="#02606a" d="M 652.5,836.5 C 653.755,841.057 653.588,845.723 652,850.5C 651.51,849.207 651.343,847.873 651.5,846.5C 651.342,843.098 651.676,839.764 652.5,836.5 Z"/></g>
<g><path style="opacity:0.004" fill="#03818c" d="M 831.5,854.5 C 832.833,855.167 832.833,855.167 831.5,854.5 Z"/></g>
<g><path style="opacity:0.008" fill="#047a89" d="M 177.5,858.5 C 178.833,859.167 178.833,859.167 177.5,858.5 Z"/></g>
<g><path style="opacity:0.004" fill="#017582" d="M 907.5,858.5 C 908.833,859.167 908.833,859.167 907.5,858.5 Z"/></g>
<g><path style="opacity:0.004" fill="#047f8e" d="M 834.5,861.5 C 834.631,862.239 834.464,862.906 834,863.5C 833.308,862.563 833.475,861.897 834.5,861.5 Z"/></g>
<g><path style="opacity:0.004" fill="#037f8d" d="M 833.5,866.5 C 834.833,867.167 834.833,867.167 833.5,866.5 Z"/></g>
<g><path style="opacity:0.008" fill="#047e8b" d="M 835.5,870.5 C 836.833,871.167 836.833,871.167 835.5,870.5 Z"/></g>
<g><path style="opacity:0.733" fill="#02616b" d="M 718.5,862.5 C 718.822,870.221 716.822,877.221 712.5,883.5C 711.957,883.44 711.624,883.107 711.5,882.5C 715.238,874.998 717.405,866.998 718,858.5C 718.49,859.793 718.657,861.127 718.5,862.5 Z"/></g>
<g><path style="opacity:0.008" fill="#067583" d="M 649.5,878.5 C 650.833,879.167 650.833,879.167 649.5,878.5 Z"/></g>
<g><path style="opacity:0.008" fill="#037d8a" d="M 716.5,878.5 C 717.833,879.167 717.833,879.167 716.5,878.5 Z"/></g>
<g><path style="opacity:0.733" fill="#035c66" d="M 650.5,851.5 C 651.537,855.832 651.537,860.332 650.5,865C 650.705,873.119 653.372,880.286 658.5,886.5C 676.211,901.756 693.378,901.09 710,884.5C 710.399,884.728 710.565,885.062 710.5,885.5C 697.427,900.434 682.093,903.267 664.5,894C 650.362,882.945 645.695,868.779 650.5,851.5 Z"/></g>
<g><path style="opacity:0.004" fill="#00707d" d="M 655.5,888.5 C 656.833,889.167 656.833,889.167 655.5,888.5 Z"/></g>
<g><path style="opacity:0.008" fill="#067683" d="M 847.5,890.5 C 848.833,891.167 848.833,891.167 847.5,890.5 Z"/></g>
<g><path style="opacity:0.886" fill="#035e66" d="M 207.5,882.5 C 208.338,882.842 208.672,883.508 208.5,884.5C 206.936,888.729 204.269,892.063 200.5,894.5C 189.949,896.566 183.282,892.566 180.5,882.5C 180.369,881.761 180.536,881.094 181,880.5C 182.567,887.905 187.067,891.905 194.5,892.5C 201.775,892.882 206.109,889.549 207.5,882.5 Z"/></g>
<g><path style="opacity:0.004" fill="#027582" d="M 852.5,893.5 C 852.5,893.833 852.5,894.167 852.5,894.5C 851.83,894.019 851.83,893.685 852.5,893.5 Z"/></g>
<g><path style="opacity:0.004" fill="#007280" d="M 892.5,893.5 C 893.833,894.167 893.833,894.167 892.5,893.5 Z"/></g>
<g><path style="opacity:0.004" fill="#006a76" d="M 200.5,894.5 C 201.833,895.167 201.833,895.167 200.5,894.5 Z"/></g>
<g><path style="opacity:0.008" fill="#067382" d="M 852.5,894.5 C 853.833,895.167 853.833,895.167 852.5,894.5 Z"/></g>
<g><path style="opacity:0.004" fill="#007080" d="M 674.5,899.5 C 675.833,900.167 675.833,900.167 674.5,899.5 Z"/></g>
<g><path style="opacity:0.004" fill="#017381" d="M 679.5,900.5 C 678.833,899.167 678.833,899.167 679.5,900.5 Z"/></g>
<g><path style="opacity:0.012" fill="#00737d" d="M 689.5,899.5 C 690.833,900.167 690.833,900.167 689.5,899.5 Z"/></g>
<g><path style="opacity:0.006" fill="#037480" d="M 864.5,900.5 C 864.897,899.475 865.563,899.308 866.5,900C 865.906,900.464 865.239,900.631 864.5,900.5 Z"/></g>
<g><path style="opacity:0.004" fill="#02737f" d="M 679.5,900.5 C 680.239,900.369 680.906,900.536 681.5,901C 680.563,901.692 679.897,901.525 679.5,900.5 Z"/></g>
<g><path style="opacity:0.004" fill="#001010" d="M 307.5,933.5 C 308.833,934.167 308.833,934.167 307.5,933.5 Z"/></g>
</svg>
