<?xml version="1.0" encoding="UTF-8"?>
<svg version="1.1" xmlns="http://www.w3.org/2000/svg" width="1024" height="1024">
<path d="M0 0 C10.70862011 5.71947204 20.00071222 12.91609552 29 21 C29.88300781 21.7734375 30.76601563 22.546875 31.67578125 23.34375 C50.77376083 40.21412698 66.68974629 59.9623706 81.36914062 80.70751953 C83.59839017 83.84115025 85.86367349 86.948036 88.12695312 90.05712891 C92.87199893 96.58225418 97.49480401 103.1544344 101.92578125 109.8984375 C105.96933254 115.94472701 110.21629369 121.85057766 114.42675781 127.78125 C116.49372462 130.69630188 118.55211483 133.61735482 120.61035156 136.53857422 C122.60259083 139.36508776 124.59816462 142.18923397 126.59472656 145.01269531 C127.49819319 146.29035659 128.40122432 147.56832599 129.30371094 148.84667969 C138.26911932 161.53542707 147.37215868 174.12831391 157.453125 185.9609375 C159 188 159 188 159 190 C159.66 190 160.32 190 161 190 C162.19918248 191.39330602 163.33060521 192.8448065 164.4375 194.3125 C175.55518872 208.17374739 188.61702846 220.58474475 203 231 C203.85464844 231.63808594 204.70929688 232.27617187 205.58984375 232.93359375 C210.34068079 236.39084793 215.29451605 239.43390889 220.375 242.375 C220.97054688 242.72135498 221.56609375 243.06770996 222.1796875 243.42456055 C225.06951606 245.06199324 227.70842874 246.43248771 231 247 C231 247.66 231 248.32 231 249 C231.53625 249.15855469 232.0725 249.31710937 232.625 249.48046875 C233.40875 249.71378906 234.1925 249.94710937 235 250.1875 C235.91136719 250.45820313 236.82273437 250.72890625 237.76171875 251.0078125 C240.10595115 251.72606947 242.44090968 252.47482827 244.76953125 253.2421875 C263.76283757 259.49576907 282.81213356 260.14236633 302.71484375 259.953125 C304.00132812 259.94200684 305.2878125 259.93088867 306.61328125 259.91943359 C309.10178256 259.8905197 311.5901726 259.8473272 314.078125 259.78759766 C324.74268896 259.64845562 332.80907213 261.18211644 341.0625 268.125 C341.62904297 268.58003906 342.19558594 269.03507812 342.77929688 269.50390625 C346.53736413 272.53736413 346.53736413 272.53736413 348 274 C355.5789184 274.1647591 360.29074226 269.50501786 366 265 C367.09662162 264.15880574 368.19430724 263.31899702 369.29296875 262.48046875 C376.46781428 256.96387335 383.36804767 251.18575951 390.11425781 245.15161133 C391.00709473 244.36113403 391.00709473 244.36113403 391.91796875 243.5546875 C392.70337036 242.85061768 392.70337036 242.85061768 393.50463867 242.13232422 C395 241 395 241 398 240 C398 239.34 398 238.68 398 238 C399.43359375 236.58984375 399.43359375 236.58984375 401.4375 234.9375 C408.05360027 229.28818903 414.02652106 223.3208819 419.4375 216.5 C425.17792966 209.36704028 431.81767597 201.33731884 441 199 C445.78775511 198.75106993 448.98018158 199.28395728 452.9375 202.0625 C460.75864528 213.20170692 456.65692245 229.48889216 454.55224609 241.96826172 C451.57449775 258.31559989 447.33778365 274.2762408 442 290 C441.26626439 292.18158312 440.53385013 294.36359832 439.80297852 296.54614258 C439.16950979 298.43012464 438.52651749 300.31089703 437.8828125 302.19140625 C436.9000463 304.82731571 436.9000463 304.82731571 437 307 C436.34 307 435.68 307 435 307 C434.82911865 307.54744873 434.6582373 308.09489746 434.48217773 308.65893555 C432.68968036 314.23618859 430.52744714 319.50325491 428.0625 324.8125 C407.76188885 365.24407828 407.76188885 365.24407828 399 409 C398.36333558 410.34791715 397.69502818 411.68122858 397 413 C390.71253843 444.14964621 394.69146082 477.03016376 400 508 C400.14663086 508.87350098 400.29326172 509.74700195 400.44433594 510.64697266 C407.9954643 554.68940842 425.28754933 596.19093805 444.625 636.1875 C445.02671417 637.02138245 445.42842834 637.85526489 445.84231567 638.7144165 C446.98389381 641.07759527 448.1346055 643.43605946 449.2890625 645.79296875 C449.63437515 646.50820206 449.97968781 647.22343536 450.33546448 647.96034241 C451.95799618 651.62458915 451.95799618 651.62458915 455 654 C455.33638787 655.66605285 455.66907274 657.33285392 456 659 C456.89872429 660.95366572 457.86897689 662.87514042 458.88671875 664.76953125 C459.48911377 665.89520508 460.09150879 667.02087891 460.7121582 668.18066406 C461.37002774 669.39159009 462.02848796 670.60219537 462.6875 671.8125 C463.01825531 672.42428101 463.34901062 673.03606201 463.68978882 673.66638184 C468.60834502 682.76369034 473.64564275 691.79134172 478.8125 700.75 C479.40442139 701.78487549 479.99634277 702.81975098 480.60620117 703.88598633 C481.1551001 704.82595459 481.70399902 705.76592285 482.26953125 706.734375 C482.75010986 707.56163086 483.23068848 708.38888672 483.72583008 709.24121094 C484.14630615 709.82161133 484.56678223 710.40201172 485 711 C485.66 711 486.32 711 487 711 C487.1134375 711.72960937 487.226875 712.45921875 487.34375 713.2109375 C488.02053154 716.08725904 489.03298642 718.07478453 490.5 720.625 C493.50823602 726.49280921 494.96369405 732.51121454 493.5546875 739.07421875 C491.95808698 743.30429255 489.54935291 746.28134671 486 749 C478.3675567 752.29890954 470.87714255 752.3922786 462.6875 752.25 C461.32455322 752.23788049 459.96159638 752.22685329 458.59863281 752.21679688 C450.92989917 752.14615046 443.26396646 751.96492005 435.59765625 751.765625 C433.03942331 751.69980246 430.48118768 751.63409491 427.92294312 751.56872559 C426.13550688 751.52276778 424.34809207 751.47596905 422.56069946 751.42834473 C408.55261876 751.06402855 394.55104052 750.95970985 380.5390625 750.96875 C379.26673515 750.96951286 379.26673515 750.96951286 377.96870422 750.97029114 C369.36632234 750.97697139 360.76402086 750.99517831 352.1616993 751.02805328 C348.91652439 751.03975124 345.67134573 751.04784753 342.42615891 751.05543518 C340.15920368 751.06237144 337.89232537 751.07498953 335.62539673 751.08776855 C334.25400872 751.09135945 332.88261993 751.09467167 331.51123047 751.09765625 C330.32125458 751.10289307 329.13127869 751.10812988 327.90524292 751.11352539 C325 751 325 751 322 750 C320.38904142 749.91277548 318.77468984 749.88232728 317.16137695 749.88647461 C316.1805867 749.88655014 315.19979645 749.88662567 314.18928528 749.88670349 C312.60478828 749.89444542 312.60478828 749.89444542 310.98828125 749.90234375 C309.36323921 749.90446617 309.36323921 749.90446617 307.70536804 749.90663147 C304.24105075 749.91223441 300.7767978 749.92478742 297.3125 749.9375 C294.96549572 749.94251462 292.61849044 749.94707759 290.27148438 749.95117188 C284.51430092 749.96220479 278.75715506 749.9789458 273 750 C273 750.33 273 750.66 273 751 C268.71 751 264.42 751 260 751 C260 750.67 260 750.34 260 750 C258.8025415 750.00888245 257.60508301 750.01776489 256.37133789 750.0269165 C245.07188366 750.10809613 233.77248881 750.16801055 222.47280884 750.20724869 C216.66387757 750.22809978 210.85518222 750.2563726 205.04638672 750.30175781 C199.43779184 750.34530327 193.82942353 750.36915575 188.22067261 750.37950897 C186.0836938 750.38688467 183.94672701 750.40128771 181.80984497 750.42292023 C178.81046 750.45206936 175.81200443 750.45595113 172.8125 750.45410156 C171.93424057 750.46848267 171.05598114 750.48286377 170.15110779 750.49768066 C164.36924978 750.45924546 159.78262475 749.38698299 155 746 C153.4140625 743.484375 153.4140625 743.484375 152.625 740.75 C152.33109375 739.78835938 152.0371875 738.82671875 151.734375 737.8359375 C151.09157959 735.35365311 150.46930443 732.86927766 149.875 730.375 C149.441875 728.704375 149.441875 728.704375 149 727 C148.34 726.67 147.68 726.34 147 726 C147.21527344 725.09507812 147.43054688 724.19015625 147.65234375 723.2578125 C148.45277029 717.64776825 146.82590065 712.31784873 145.5625 706.875 C145.08011601 704.74841595 144.60208702 702.62083825 144.12890625 700.4921875 C143.91306885 699.55745605 143.69723145 698.62272461 143.47485352 697.65966797 C143.00785721 695.04400847 142.91329346 692.65039986 143 690 C142.34 689.67 141.68 689.34 141 689 C140.11426218 686.53961718 139.9203945 684.19006028 139.6640625 681.58203125 C137.20319314 661.82578762 129.81402611 637.54111372 117 622 C116.29875 621.01 115.5975 620.02 114.875 619 C112.73038374 616.71240932 110.90629352 616.07073972 108 615 C107.01 613.515 107.01 613.515 106 612 C105.34 612.33 104.68 612.66 104 613 C104 612.01 104 611.02 104 610 C102.41701974 609.5196682 100.83360022 609.04078388 99.25 608.5625 C98.36828125 608.29566406 97.4865625 608.02882813 96.578125 607.75390625 C81.36930251 603.30647786 63.94651881 605.60531063 48.58007812 608.52050781 C43.48351662 609.46767348 38.36654619 610.2938608 33.25 611.125 C31.65248901 611.38615601 31.65248901 611.38615601 30.02270508 611.65258789 C22.94027008 612.7784514 15.95624939 613.53570917 8.79296875 613.82421875 C6.12991468 613.89266576 6.12991468 613.89266576 4.15649414 614.5234375 C-13.54273192 618.43478011 -37.93065882 611.32162181 -53 602 C-62.84265423 594.82473174 -69.0159471 585.79122774 -72 574 C-72.43510313 570.7990034 -72.52454111 567.66545227 -72.5 564.4375 C-72.49572998 563.57125 -72.49145996 562.705 -72.48706055 561.8125 C-72.17343412 549.73732843 -67.71252848 539.53129685 -63.01171875 528.54296875 C-60.98797624 523.4562646 -60.30470129 518.52194407 -61.8203125 513.17578125 C-65.36051273 506.64633911 -72.5119753 502.01280685 -78.4375 497.75 C-82.83367993 494.5699764 -85.26478841 491.20563477 -87 486 C-87.75873743 477.35039335 -85.09128243 470.46833722 -79.8125 463.625 C-79.30332031 463.01914062 -78.79414063 462.41328125 -78.26953125 461.7890625 C-76.8988232 459.85741855 -76.42287791 458.3130912 -76 456 C-77.0828125 455.38511719 -77.0828125 455.38511719 -78.1875 454.7578125 C-79.5796875 453.94957031 -79.5796875 453.94957031 -81 453.125 C-81.928125 452.59132813 -82.85625 452.05765625 -83.8125 451.5078125 C-84.534375 451.01023437 -85.25625 450.51265625 -86 450 C-86 449.34 -86 448.68 -86 448 C-86.99 447.67 -87.98 447.34 -89 447 C-93.3173404 440.46231311 -93.94619886 434.72729067 -93 427 C-91.27051709 419.5632235 -87.54110512 412.94194486 -83.73046875 406.3894043 C-80.65865006 400.95290074 -79.31934216 396.46738467 -81 390.375 C-86.15338532 381.67866228 -95.81318072 379.576198 -105 377 C-106.62088378 376.72457163 -108.2457715 376.47077024 -109.875 376.25 C-119.93089163 374.45853023 -131.74366618 368.02127489 -137.9140625 359.859375 C-139.37846122 357.35198727 -140.2497965 354.79621303 -141 352 C-141.66 351.67 -142.32 351.34 -143 351 C-141.63884986 334.27729833 -133.64356977 322.96030873 -123.67529297 310.16992188 C-118.31008601 303.22064187 -113.17294515 296.09283187 -108 289 C-107.47905762 288.28730957 -106.95811523 287.57461914 -106.42138672 286.84033203 C-94.21458651 270.0741291 -83.29742382 252.54337725 -74 234 C-73.39800781 232.83082031 -72.79601562 231.66164063 -72.17578125 230.45703125 C-60.11847339 206.04436972 -53.09781997 179.15690174 -55.5 151.875 C-59.72532686 100.43623825 -42.65345411 39.98018117 -14 -3 C-8.88656745 -4.70447752 -4.73544019 -2.18304344 0 0 Z M43.0625 224.5 C40.75492709 227.29705808 40.21515276 229.15284942 40.4453125 232.78125 C42.06720462 239.26881849 47.16091129 244.63301751 52 249 C52.51175781 249.53882813 53.02351562 250.07765625 53.55078125 250.6328125 C56.7488148 253.79408705 59.04738559 255.41969171 63.625 255.625 C67.79337707 255.34046914 70.0947313 254.086848 73 251 C74.49590709 248.00818583 74.42743011 246.3583794 74 243 C72.29202222 239.77849115 70.37629032 236.77028664 68 234 C67.34 234 66.68 234 66 234 C65.7628125 233.40574219 65.525625 232.81148437 65.28125 232.19921875 C63.71935671 229.51828605 62.11092597 228.46128279 59.5 226.8125 C58.7059375 226.30332031 57.911875 225.79414063 57.09375 225.26953125 C52.29936776 222.36248978 48.21278754 221.87006594 43.0625 224.5 Z M86 268 C85.69461883 273.39506731 87.72059691 276.82001505 90.98828125 280.87890625 C96.08715357 286.25499881 103.74443726 294.27746764 111.38671875 295.328125 C112.14597656 295.30234375 112.90523437 295.2765625 113.6875 295.25 C114.45449219 295.23453125 115.22148437 295.2190625 116.01171875 295.203125 C118.07281011 295.11109304 118.07281011 295.11109304 120 294 C120 293.34 120 292.68 120 292 C120.99 291.67 121.98 291.34 123 291 C123.59501865 286.91987212 123.87885704 283.45168351 121.6875 279.83203125 C119.88817615 277.75557939 118.01438533 275.86795653 116 274 C115.43667969 273.4534375 114.87335938 272.906875 114.29296875 272.34375 C108.89015238 267.38378743 102.77378481 262.82492733 95.25 262.375 C90.71500498 262.66937687 88.49275447 264.09468467 86 268 Z M140 301 C138.3832293 304.23354139 138.52368071 306.42760535 139 310 C144.06986324 317.25545799 155.10867126 321.00652208 163.25 323.4375 C169.09249645 324.31387447 173.79263885 324.17125285 179.0625 321.375 C181.27671118 319.05139058 181.27671118 319.05139058 181.625 315.5625 C180.81626702 310.95272203 179.71953547 309.82684696 176 307 C166.3168974 301.24155314 150.4174395 293.7879265 140 301 Z M270 315 C268.19243069 317.98641886 267.98530254 319.63256356 268.125 323.125 C269.16455018 326.54066488 269.99231593 327.19538956 273 329 C283.97547434 331.09686343 296.97210475 326.7019201 306.36328125 321.24609375 C309.03147095 319.2147035 309.93920212 317.39952892 310.4375 314.125 C310.18918322 310.90331185 310.18918322 310.90331185 308.3125 308.125 C297.63851995 301.2775411 279.30640683 307.97157932 270 315 Z M202 321 C201.52407039 325.94316024 201.52407039 325.94316024 203.5625 330.3125 C209.41269965 334.36263822 215.7655181 334.28932043 222.625 334.1875 C223.87410156 334.1865332 223.87410156 334.1865332 225.1484375 334.18554688 C232.18990571 334.13509049 237.64537088 333.05511016 244 330 C245.6051527 326.78969461 245.60629614 323.47372024 245 320 C239.91394597 315.07801223 231.2676112 314.86846486 224.5625 314.75 C216.78503954 314.88644667 207.85121051 315.14878949 202 321 Z M287.890625 385.21875 C284.7254535 389.8749527 282.87869647 394.2100187 283.125 399.875 C284.13908898 402.33778753 284.79886699 403.48197723 287 405 C290.93117537 406.37134025 292.79448293 406.07193098 296.75 404.6875 C305.01368881 400.08774999 312.77898619 391.98322947 316 383 C316.60127985 379.95026524 316.48351985 378.16974125 316 375 C313.51850104 371.77405135 311.42697268 370.27843369 307.4375 369.5 C298.95079392 370.73442998 292.91902977 378.81896211 287.890625 385.21875 Z M243.4375 429.5 C242.93710205 429.95020508 242.4367041 430.40041016 241.92114258 430.86425781 C238.21848726 434.38358824 235.37639797 438.05584602 234.71484375 443.23046875 C235.13829291 446.952364 235.6222519 448.67891412 238.5 451.125 C244.03102355 452.50775589 248.20817423 451.45958611 253.2265625 448.8359375 C261.12920447 443.83744664 270.67389769 437.4833402 273 428 C272.87793359 424.82627341 272.54552715 422.87890485 270.875 420.1875 C261.08213427 413.98535171 250.67794943 422.96167498 243.4375 429.5 Z M198.375 451.5625 C197.33037598 451.83332397 197.33037598 451.83332397 196.26464844 452.10961914 C187.62399623 454.48352256 179.25928499 457.40592946 174 465 C173.20214079 468.54604095 173.82257334 469.71485001 175.75 472.8125 C180.74465345 476.17428597 185.15256708 475.74209489 191 475 C199.60020195 473.11776721 209.75392008 470.48722812 215.125 463.0625 C216.13749392 459.51877129 216.09203334 457.51010717 215 454 C213.35131099 451.48357994 212.28975208 451.07383312 209.36328125 450.328125 C205.43163862 449.94455011 202.14477748 450.56528889 198.375 451.5625 Z M109 476 C107.12716901 478.96531574 106.99245622 480.62281106 107.0625 484.125 C107.75869603 487.12858335 107.75869603 487.12858335 110.1875 488.8125 C120.25605141 493.06366615 132.94836213 490.09665872 142.74609375 486.125 C145.9711851 484.51524903 147.97741524 482.99900499 150 480 C150.83345815 476.45704496 150.83345815 476.45704496 150 473 C147.11644213 469.90059039 145.44652423 469.05852278 141.21484375 468.50390625 C139.78894133 468.49791086 138.3627387 468.51858776 136.9375 468.5625 C135.81239014 468.58231934 135.81239014 468.58231934 134.66455078 468.60253906 C125.52738466 468.89533439 116.47649887 470.47389214 109 476 Z M43 475 C40.67122638 477.87594836 40.67122638 477.87594836 41.0625 481.4375 C41.72276619 485.04123644 41.72276619 485.04123644 44.0625 487.3125 C54.07067555 493.06187744 67.68812308 492.86892894 78.73046875 490.765625 C81.31917071 489.89232795 82.98336515 488.83737841 85 487 C86.11562369 483.57875401 86.25060999 481.71841529 85.0625 478.3125 C80.95218215 473.70396181 74.93140036 472.76358258 69 472 C65.47832596 471.81256485 61.96366087 471.76957619 58.4375 471.75 C57.50486328 471.729375 56.57222656 471.70875 55.61132812 471.6875 C48.80207034 471.64202094 48.80207034 471.64202094 43 475 Z M276 499 C275.21625 500.010625 274.4325 501.02125 273.625 502.0625 C271.45464141 505.98584052 271.07145234 508.4985027 271 513 C271.81207646 515.96493065 271.81207646 515.96493065 274 518 C277.72314876 519.61570606 280.05743901 520.17312345 284.0625 519.4375 C287.65699531 517.67849166 290.09996056 515.76194232 293 513 C293 512.34 293 511.68 293 511 C293.56332031 510.79632812 294.12664062 510.59265625 294.70703125 510.3828125 C297.85305519 508.48555104 299.6507147 505.8537775 301.6875 502.875 C302.08743164 502.29041016 302.48736328 501.70582031 302.89941406 501.10351562 C305.90234397 496.52449024 307.38974118 493.45637653 307 488 C305.42569236 484.37909244 304.31117074 483.20744716 301 481 C289.36287668 478.75423936 282.06657126 490.51325403 276 499 Z M237.5078125 556.20703125 C235.54952196 559.63066332 234.71406259 562.34828797 234.9375 566.3125 C235.64895834 570.07240146 235.64895834 570.07240146 238.3125 571.9375 C242.53058986 573.78003876 242.53058986 573.78003876 246.9296875 573.3984375 C256.31379819 568.46141541 265.54056324 560.37831027 269 550 C269.59653934 544.11923885 269.59653934 544.11923885 267 539 C263.90732329 536.93821553 261.84057047 536.1886745 258.1015625 536.46875 C248.93447346 538.78608106 242.4875078 548.84177512 237.5078125 556.20703125 Z M193 597 C193 597.66 193 598.32 193 599 C192.01 599.33 191.02 599.66 190 600 C187.81312706 604.59243318 187.70642455 608.10289293 189 613 C191.10426839 615.33807599 192.76243486 615.92441109 195.75 616.875 C204.26358625 617.20244563 209.62807418 612.22758536 215.875 607.05859375 C216.57625 606.37925781 217.2775 605.69992187 218 605 C218 604.34 218 603.68 218 603 C218.66 603 219.32 603 220 603 C221.32627781 601.54688391 221.32627781 601.54688391 222.5625 599.6875 C222.99691406 599.07261719 223.43132812 598.45773437 223.87890625 597.82421875 C226.26703318 593.93831187 226.39148889 590.46297329 226 586 C224.71107713 583.37716666 224.71107713 583.37716666 222 582 C210.88149113 579.13963672 200.0307899 589.44841085 193 597 Z " fill="#2A8D94" transform="translate(336,137)"/>
<path d="M0 0 C0.33 0 0.66 0 1 0 C1.24234375 1.16917969 1.4846875 2.33835937 1.734375 3.54296875 C2.07219355 5.09130378 2.41077563 6.63947236 2.75 8.1875 C2.90726562 8.95642578 3.06453125 9.72535156 3.2265625 10.51757812 C4.28496579 15.26003902 5.49043762 18.44207751 9 22 C11.27503391 23.13751696 12.49753405 23.12116873 15.02282715 23.11352539 C16.29086575 23.1134154 16.29086575 23.1134154 17.58452129 23.11330318 C18.51762536 23.1081397 19.45072943 23.10297621 20.41210938 23.09765625 C21.39813802 23.09622148 22.38416666 23.0947867 23.40007496 23.09330845 C25.56539527 23.08952522 27.73071241 23.0834147 29.89602089 23.07531929 C33.39871776 23.06229562 36.90138217 23.05526833 40.40409851 23.04978943 C45.45701827 23.04139433 50.50992464 23.03061538 55.56283569 23.01803589 C68.92338388 22.98603086 82.28394981 22.97641834 95.64453125 22.97265625 C96.66009012 22.97231884 96.66009012 22.97231884 97.69616532 22.97197461 C124.83424995 22.96387906 151.9694834 23.11890183 179.10610962 23.40527344 C182.14494847 23.43705498 185.18379891 23.4673582 188.22265625 23.49731445 C212.15873482 23.73636397 236.07627974 24.18272398 260 25 C260 25.33 260 25.66 260 26 C208.0275827 27.09813315 208.0275827 27.09813315 187.875 27.125 C186.58142578 27.12951172 185.28785156 27.13402344 183.95507812 27.13867188 C182.79169922 27.13673828 181.62832031 27.13480469 180.4296875 27.1328125 C179.44210449 27.13168457 178.45452148 27.13055664 177.43701172 27.12939453 C175 27 175 27 172 26 C170.38904142 25.91277548 168.77468984 25.88232728 167.16137695 25.88647461 C166.1805867 25.88655014 165.19979645 25.88662567 164.18928528 25.88670349 C162.60478828 25.89444542 162.60478828 25.89444542 160.98828125 25.90234375 C159.90491989 25.9037587 158.82155853 25.90517365 157.70536804 25.90663147 C154.24105075 25.91223441 150.7767978 25.92478742 147.3125 25.9375 C144.96549572 25.94251462 142.61849044 25.94707759 140.27148438 25.95117188 C134.51430092 25.96220479 128.75715506 25.9789458 123 26 C123 26.33 123 26.66 123 27 C118.71 27 114.42 27 110 27 C110 26.67 110 26.34 110 26 C108.20381226 26.01332367 108.20381226 26.01332367 106.37133789 26.0269165 C95.07188366 26.10809613 83.77248881 26.16801055 72.47280884 26.20724869 C66.66387757 26.22809978 60.85518222 26.2563726 55.04638672 26.30175781 C49.43779184 26.34530327 43.82942353 26.36915575 38.22067261 26.37950897 C36.0836938 26.38688467 33.94672701 26.40128771 31.80984497 26.42292023 C28.81046 26.45206936 25.81200443 26.45595113 22.8125 26.45410156 C21.49511086 26.47567322 21.49511086 26.47567322 20.15110779 26.49768066 C14.38127789 26.45932542 9.76122912 25.40625037 5 22 C3.37890625 19.34375 3.37890625 19.34375 2.5625 16.5 C2.27503906 15.5615625 1.98757813 14.623125 1.69140625 13.65625 C1.34916016 12.34140625 1.34916016 12.34140625 1 11 C0.8040625 10.30390625 0.608125 9.6078125 0.40625 8.890625 C-0.22867578 5.93577811 -0.05786257 3.00885368 0 0 Z " fill="#1B6364" transform="translate(486,861)"/>
<path d="M0 0 C0.33 0.66 0.66 1.32 1 2 C0.24976563 2.56589844 -0.50046875 3.13179688 -1.2734375 3.71484375 C-3.84361804 5.86893489 -5.61497005 7.89814115 -7.625 10.5625 C-17.16453832 22.45491103 -28.3862862 33.6101722 -40.41796875 42.98046875 C-42.86394252 44.89358288 -45.22123642 46.88800528 -47.57055664 48.91796875 C-53.04719285 53.64128839 -58.66794964 58.13908453 -64.4375 62.5 C-65.09967529 63.00442627 -65.76185059 63.50885254 -66.4440918 64.02856445 C-75.82121947 71.03675857 -75.82121947 71.03675857 -80.546875 70.95703125 C-83.71106367 69.72259459 -85.71972365 67.94773224 -88.25 65.6875 C-98.45387926 57.06083326 -107.52784773 55.8239606 -120.5 55.9375 C-121.49451172 55.94128662 -122.48902344 55.94507324 -123.51367188 55.94897461 C-126.67582652 55.96113293 -129.83788743 55.97975477 -133 56 C-137.16666445 56.02667682 -141.33328188 56.04663515 -145.5 56.0625 C-146.44810547 56.07079834 -147.39621094 56.07909668 -148.37304688 56.08764648 C-153.36553434 56.10601439 -158.07950564 55.85838294 -163 55 C-163 54.67 -163 54.34 -163 54 C-155.74089539 53.93010643 -148.48186482 53.87699093 -141.22249031 53.84456348 C-137.85067884 53.82899011 -134.47909969 53.80790718 -131.10742188 53.77368164 C-127.21999098 53.73707548 -123.332885 53.72022214 -119.4453125 53.70703125 C-117.65252365 53.68380547 -117.65252365 53.68380547 -115.82351685 53.66011047 C-105.31342998 53.65802221 -97.06727938 55.28613104 -88.9375 62.125 C-88.37095703 62.58003906 -87.80441406 63.03507812 -87.22070312 63.50390625 C-83.46263587 66.53736413 -83.46263587 66.53736413 -82 68 C-74.4210816 68.1647591 -69.70925774 63.50501786 -64 59 C-62.90337838 58.15880574 -61.80569276 57.31899702 -60.70703125 56.48046875 C-53.53218572 50.96387335 -46.63195233 45.18575951 -39.88574219 39.15161133 C-39.29051758 38.62462646 -38.69529297 38.0976416 -38.08203125 37.5546875 C-37.55843018 37.08530762 -37.0348291 36.61592773 -36.49536133 36.13232422 C-35 35 -35 35 -32 34 C-32 33.34 -32 32.68 -32 32 C-30.56640625 30.58984375 -30.56640625 30.58984375 -28.5625 28.9375 C-20.90684938 22.40054481 -14.36721971 15.32195641 -8.0859375 7.46484375 C-5.6110578 4.54040725 -3.06578804 2.27968854 0 0 Z " fill="#1C6060" transform="translate(766,343)"/>
<path d="M0 0 C0 3.74465214 -1.213322 5.68957824 -2.9375 9 C-6.84425111 16.53642767 -8.0088464 22.48414952 -7 31 C-4.23472733 38.14538014 1.25862502 42.70298874 8 46 C14.94355527 48.88753026 22.12430755 51.1771161 29.33984375 53.27734375 C38.55465054 55.97123158 47.42628375 58.61490782 53 67 C54.62477104 71.87431312 54.64544995 76.07912216 52.46875 80.74609375 C51.82682333 81.98409519 51.17031145 83.21463452 50.5 84.4375 C50.16613281 85.07365234 49.83226562 85.70980469 49.48828125 86.36523438 C48.67159878 87.91693107 47.8375666 89.45947571 47 91 C46.67 90.34 46.34 89.68 46 89 C46.9609375 86.86328125 46.9609375 86.86328125 48.375 84.3125 C51.27287615 78.67864023 52.73682882 74.67100447 51 68.375 C45.84661468 59.67866228 36.18681928 57.576198 27 55 C25.37911622 54.72457163 23.7542285 54.47077024 22.125 54.25 C12.06910837 52.45853023 0.25633382 46.02127489 -5.9140625 37.859375 C-7.37846122 35.35198727 -8.2497965 32.79621303 -9 30 C-9.66 29.67 -10.32 29.34 -11 29 C-10.17262889 18.83515496 -7.48795817 7.48795817 0 0 Z " fill="#1A5959" transform="translate(204,459)"/>
<path d="M0 0 C3 2 3 2 5 4 C4.67 4.66 4.34 5.32 4 6 C3.62875 5.525625 3.2575 5.05125 2.875 4.5625 C0.26732629 2.38943858 -1.62343913 2.30624622 -5 2 C-7.64197399 2.40840749 -10.05785922 2.88364839 -12.625 3.5625 C-13.66853638 3.83223633 -13.66853638 3.83223633 -14.7331543 4.10742188 C-22.44939851 6.22286671 -31.6289867 8.84743278 -36 16 C-36.58333333 18.5 -36.58333333 18.5 -36 21 C-33.93819592 23.59634588 -32.72595833 24.84926667 -29.44140625 25.53125 C-19.07180126 25.41868984 -6.01366823 23.20692311 2 16 C3.52962985 13.07845617 4.38734798 10.23226753 5 7 C5.33 7 5.66 7 6 7 C6.42178719 11.21787194 6.33170898 13.44715171 4.125 17.125 C-2.81417621 24.41405064 -14.0848847 27.38446818 -23.80859375 28.25 C-28.21758855 28.35482008 -32.11058144 28.30934227 -36 26 C-38.49667754 22.25498368 -38.83085985 19.33005806 -38 15 C-36.08961886 10.43418909 -32.73616001 8.21299108 -28.3203125 6.30078125 C-19.34311014 2.73568229 -9.76131882 -0.96012972 0 0 Z " fill="#1D605F" transform="translate(547,586)"/>
<path d="M0 0 C1.27617188 -0.01160156 1.27617188 -0.01160156 2.578125 -0.0234375 C9.29022397 -0.00284824 15.46897621 0.35173216 21 4.5 C23.39392589 7.7916481 23.59335226 9.2660634 23 13.25 C22.12370337 16.03821656 21.23961068 17.06121582 18.9375 18.875 C8.08118999 23.95667703 -5.66376989 23.71325056 -17 20.25 C-19.880638 18.92970758 -21.43792879 17.96536336 -23.375 15.5 C-24.32835544 12.06792041 -23.91654656 9.67177384 -23 6.25 C-17.17768493 -0.27805023 -8.12439721 -0.07385816 0 0 Z M-22 7.25 C-22.47592961 12.19316024 -22.47592961 12.19316024 -20.4375 16.5625 C-14.58730035 20.61263822 -8.2344819 20.53932043 -1.375 20.4375 C-0.12589844 20.4365332 -0.12589844 20.4365332 1.1484375 20.43554688 C8.18990571 20.38509049 13.64537088 19.30511016 20 16.25 C21.6051527 13.03969461 21.60629614 9.72372024 21 6.25 C15.91394597 1.32801223 7.2676112 1.11846486 0.5625 1 C-7.21496046 1.13644667 -16.14878949 1.39878949 -22 7.25 Z " fill="#1C6060" transform="translate(560,450.75)"/>
<path d="M0 0 C10.5892607 3.90209044 21.81708762 11.63417524 27 22 C27.38482057 26.07909806 27.44121857 28.29089873 25.25 31.8125 C22.6543994 34.33600059 20.61568488 35.85171535 16.95703125 36.1875 C10.34665067 35.60954323 6.17318074 33.02467572 1 29 C-0.03125 28.21625 -1.0625 27.4325 -2.125 26.625 C-12.62620932 17.03693931 -12.62620932 17.03693931 -13.3125 9.625 C-12.94884973 5.40665686 -11.95115008 3.95115008 -9 1 C-5.91262689 -0.54368655 -3.32836522 -0.59042305 0 0 Z M-12 7 C-12.30538117 12.39506731 -10.27940309 15.82001505 -7.01171875 19.87890625 C-1.91284643 25.25499881 5.74443726 33.27746764 13.38671875 34.328125 C14.14597656 34.30234375 14.90523438 34.2765625 15.6875 34.25 C16.45449219 34.23453125 17.22148437 34.2190625 18.01171875 34.203125 C20.07281011 34.11109304 20.07281011 34.11109304 22 33 C22 32.34 22 31.68 22 31 C22.99 30.67 23.98 30.34 25 30 C25.59501865 25.91987212 25.87885704 22.45168351 23.6875 18.83203125 C21.88817615 16.75557939 20.01438533 14.86795653 18 13 C17.43667969 12.4534375 16.87335938 11.906875 16.29296875 11.34375 C10.89015238 6.38378743 4.77378481 1.82492733 -2.75 1.375 C-7.28499502 1.66937687 -9.50724553 3.09468467 -12 7 Z " fill="#1B5E5E" transform="translate(434,398)"/>
<path d="M0 0 C2.32397162 1.13666409 4.59294311 2.32932271 6.85546875 3.5859375 C21.98219431 11.70790738 36.62607254 13.63100992 53.625 13.3125 C55.20311298 13.30095363 56.78123997 13.29118502 58.359375 13.28320312 C67.9371478 13.20754401 77.45169342 12.75278941 87 12 C83.85538568 14.09640954 82.67972679 14.32053683 79.03515625 14.59765625 C77.58786133 14.71657227 77.58786133 14.71657227 76.11132812 14.83789062 C75.10521484 14.91201172 74.09910156 14.98613281 73.0625 15.0625 C71.07399733 15.21723236 69.08570363 15.37468011 67.09765625 15.53515625 C66.21601807 15.600979 65.33437988 15.66680176 64.42602539 15.73461914 C62.05114853 15.93041323 62.05114853 15.93041323 60.01245117 16.54150391 C43.12662754 20.38859559 20.76055846 13.35977644 5.79296875 5.78125 C3.1058243 4.06749074 1.67278795 2.67646072 0 0 Z " fill="#195B5B" transform="translate(280,735)"/>
<path d="M0 0 C0.33 0 0.66 0 1 0 C1.24234375 1.16917969 1.4846875 2.33835937 1.734375 3.54296875 C2.07219355 5.09130378 2.41077563 6.63947236 2.75 8.1875 C2.90726562 8.95642578 3.06453125 9.72535156 3.2265625 10.51757812 C4.28496579 15.26003902 5.49043762 18.44207751 9 22 C11.97689758 23.48844879 14.6986382 23.16591605 18.02001953 23.20532227 C18.74207581 23.21522186 19.46413208 23.22512146 20.20806885 23.23532104 C22.59961648 23.26696031 24.99118399 23.29170299 27.3828125 23.31640625 C29.03905764 23.33697369 30.69529751 23.3579701 32.35153198 23.37937927 C36.71461724 23.43462167 41.07775004 23.48402137 45.44091797 23.53222656 C49.89164469 23.58242577 54.34230223 23.63812007 58.79296875 23.69335938 C67.52858736 23.80096747 76.26426379 23.90240653 85 24 C85 24.33 85 24.66 85 25 C77.63920648 25.14487046 70.27836272 25.28695701 62.91748047 25.42724609 C60.42137479 25.4751307 57.92528057 25.52361715 55.42919922 25.57275391 C48.33989478 25.71209443 41.25062566 25.83412091 34.1607666 25.94140625 C31.27483819 25.9949051 28.39167533 26.07786366 25.50683594 26.171875 C23.91862991 26.20877131 22.33041444 26.24526506 20.7421875 26.28125 C20.05883331 26.31287231 19.37547913 26.34449463 18.67141724 26.3770752 C13.43057327 26.46110401 9.27446634 24.93785098 5 22 C3.37890625 19.34375 3.37890625 19.34375 2.5625 16.5 C2.27503906 15.5615625 1.98757813 14.623125 1.69140625 13.65625 C1.34916016 12.34140625 1.34916016 12.34140625 1 11 C0.8040625 10.30390625 0.608125 9.6078125 0.40625 8.890625 C-0.22867578 5.93577811 -0.05786257 3.00885368 0 0 Z " fill="#165353" transform="translate(486,861)"/>
<path d="M0 0 C2.74483673 1.24765306 4.47294058 2.35315435 6.375 4.6875 C7.59819623 9.21332604 6.93127687 13.06184444 4.94140625 17.203125 C-0.49446273 26.01138861 -9.1794728 34.34379653 -19 38 C-21.98745903 38.53795154 -23.92013249 38.42480931 -27 38 C-29 36.5 -29 36.5 -30 35 C-28.2675 35.3403125 -28.2675 35.3403125 -26.5 35.6875 C-19.0317126 36.55224907 -14.23866703 33.37831346 -8.5625 28.9375 C-5.28837065 26.36328683 -5.28837065 26.36328683 -3 23 C-2.34 23 -1.68 23 -1 23 C-0.731875 22.46375 -0.46375 21.9275 -0.1875 21.375 C0.69215034 19.61569932 1.640975 17.8906202 2.625 16.1875 C4.22444843 12.47968774 4.45277906 9.99954832 4 6 C2.47452555 3.98486708 1.51447059 3.13326648 -0.9453125 2.49609375 C-7.76320157 2.31281716 -11.74635724 4.82689369 -17 9 C-17.66 8.67 -18.32 8.34 -19 8 C-13.61891433 3.29155004 -7.43774205 -1.1569821 0 0 Z " fill="#1E6565" transform="translate(557,717)"/>
<path d="M0 0 C9.62227356 0.4276566 18.05000483 6.16430618 24.8828125 12.64453125 C34.63582943 23.49521244 42.60157097 40.38543183 44 55 C41.77343666 52.77343666 41.29209475 51.36833069 40.30078125 48.4140625 C39.98222168 47.48859619 39.66366211 46.56312988 39.33544922 45.60961914 C38.99787598 44.62469482 38.66030273 43.63977051 38.3125 42.625 C34.41420502 31.59999551 29.98375974 19.9910791 21 12 C18.36777038 10.74563813 18.36777038 10.74563813 16 10 C15.34 9.01 14.68 8.02 14 7 C13.01 7.495 13.01 7.495 12 8 C12 7.01 12 6.02 12 5 C11.30132812 4.80664062 10.60265625 4.61328125 9.8828125 4.4140625 C8.51769531 4.02347656 8.51769531 4.02347656 7.125 3.625 C5.76761719 3.24214844 5.76761719 3.24214844 4.3828125 2.8515625 C2 2 2 2 0 0 Z " fill="#1A5B5B" transform="translate(428,742)"/>
<path d="M0 0 C17.82 0 35.64 0 54 0 C54 0.33 54 0.66 54 1 C52.02 1.33 50.04 1.66 48 2 C48.495 2.99 48.495 2.99 49 4 C44.71 4 40.42 4 36 4 C36 3.67 36 3.34 36 3 C35.30028076 2.97494385 34.60056152 2.9498877 33.87963867 2.92407227 C30.64880582 2.80662133 27.41816098 2.68458364 24.1875 2.5625 C22.53717773 2.50352539 22.53717773 2.50352539 20.85351562 2.44335938 C13.87496137 2.1757452 6.94750339 1.71160177 0 1 C0 0.67 0 0.34 0 0 Z " fill="#1E696B" transform="translate(560,884)"/>
<path d="M0 0 C0.495 0.99 0.495 0.99 1 2 C-3.57029003 11.50356339 -11.47947636 21.18709705 -21 26 C-24.77141127 26.78707713 -28.3400847 26.70122952 -31.9140625 25.19140625 C-34.36631951 23.51201697 -35.82477376 21.79435895 -36.46875 18.875 C-36.72074407 12.65914623 -35.05789199 8.23428273 -30.8125 3.625 C-30.214375 3.08875 -29.61625 2.5525 -29 2 C-30.12992765 4.86827787 -31.30655018 7.61310036 -32.6875 10.375 C-34.18121877 14.50050898 -34.07446372 16.78479619 -33 21 C-30.596171 23.403829 -28.6297064 23.88121132 -25.28125 24.21484375 C-19.13500425 23.63600211 -14.34723453 18.61323748 -10.375 14.25 C-6.62231862 9.71514382 -3.28837327 4.87758709 0 0 Z " fill="#1D6161" transform="translate(642,632)"/>
<path d="M0 0 C26.4 0 52.8 0 80 0 C80 0.33 80 0.66 80 1 C74.72 1 69.44 1 64 1 C64 1.66 64 2.32 64 3 C62.22925083 3.02705729 60.45838289 3.04642195 58.6875 3.0625 C57.70136719 3.07410156 56.71523438 3.08570313 55.69921875 3.09765625 C53 3 53 3 50 2 C48.35912211 1.88507216 46.7142222 1.82367646 45.06958008 1.79467773 C43.56836357 1.7647599 43.56836357 1.7647599 42.03681946 1.73423767 C40.95861435 1.71752518 39.88040924 1.70081268 38.76953125 1.68359375 C37.11119514 1.6524221 37.11119514 1.6524221 35.4193573 1.62062073 C31.8838021 1.55517668 28.34817194 1.49626397 24.8125 1.4375 C22.41730992 1.3943099 20.02212745 1.35069546 17.62695312 1.30664062 C11.75138158 1.19950052 5.87573528 1.09772443 0 1 C0 0.67 0 0.34 0 0 Z " fill="#144E4D" transform="translate(608,885)"/>
<path d="M0 0 C3.31470237 2.58708477 6.22695619 5.15886253 8.9375 8.375 C18.83178442 19.90380278 29.82705719 29.95027781 42 39 C42.87527344 39.66257812 43.75054688 40.32515625 44.65234375 41.0078125 C46.42705402 42.34898195 48.21186602 43.67678085 50 45 C49.01 45.495 49.01 45.495 48 46 C35.51696248 36.846805 24.17506174 27.23033633 13.1875 16.3125 C12.45732666 15.58716064 11.72715332 14.86182129 10.97485352 14.11450195 C0 3.10424976 0 3.10424976 0 0 Z " fill="#1A5A59" transform="translate(497,329)"/>
<path d="M0 0 C7.09774436 -0.60150376 7.09774436 -0.60150376 11 2 C13.07484854 5.11227281 13.749857 7.14565898 13.46875 10.8984375 C11.28289559 20.69835145 1.57968077 27.86722929 -6.4375 33 C-11.02257095 35.75678587 -14.65685589 36.10081404 -20 36 C-17.49605928 34.64369878 -15.17293868 33.73882274 -12.4375 32.875 C-3.01868736 29.38915906 5.52700284 22.19099493 10.4375 13.4375 C11.18301952 10.20691542 11.02920461 8.15622746 10 5 C6.86771202 2.47676802 3.94914145 1.56416306 0 1 C0 0.67 0 0.34 0 0 Z " fill="#1D605F" transform="translate(597,554)"/>
<path d="M0 0 C0.33 0.66 0.66 1.32 1 2 C0.67 2.70125 0.34 3.4025 0 4.125 C-1.34043104 7.97873924 -1.39478285 11.13944034 0 15 C2.41136461 17.45664477 2.41136461 17.45664477 6 18 C15.73438667 16.55722483 21.06347137 10.24478799 26.6796875 2.79296875 C27.11539063 2.20128906 27.55109375 1.60960937 28 1 C28.66 1.33 29.32 1.66 30 2 C17.76426754 18.56991562 17.76426754 18.56991562 8.3125 20.1875 C3.88916221 20.37341963 1.34359045 18.92564164 -2 16 C-3.5955739 12.80885219 -3.38584417 9.47259755 -3 6 C-1.5 2.5 -1.5 2.5 0 0 Z " fill="#1D6261" transform="translate(573,692)"/>
<path d="M0 0 C4.42688329 3.46901965 7.86355779 7.02615657 11.25 11.5 C11.7138208 12.10150879 12.1776416 12.70301758 12.65551758 13.32275391 C13.62109849 14.57652157 14.58372501 15.83256982 15.54345703 17.09082031 C17.00038014 19.00049828 18.46564047 20.90347899 19.93359375 22.8046875 C22.29538008 25.86498406 24.64971433 28.9308634 27 32 C26.67 32.66 26.34 33.32 26 34 C18.36202386 24.53976559 18.36202386 24.53976559 15 19.8125 C12.34087006 16.20887036 9.24905292 13.47070553 5.8359375 10.59375 C3.52626877 8.58876097 1.66579035 6.56809346 0 4 C0 2.68 0 1.36 0 0 Z " fill="#216E70" transform="translate(387,181)"/>
<path d="M0 0 C0.66 0 1.32 0 2 0 C5.30943208 4.06204436 8.11335435 8.67234537 8 14 C6.73145955 17.3475373 5.0537992 20.13437922 2.25 22.4375 C-2.91948611 23.72987153 -6.56483004 23.78793645 -11.1875 21.25 C-12.115625 20.5075 -13.04375 19.765 -14 19 C-14.94875 18.29875 -15.8975 17.5975 -16.875 16.875 C-17.57625 16.25625 -18.2775 15.6375 -19 15 C-19 14.34 -19 13.68 -19 13 C-16.14052562 14.20977762 -14.58267798 15.40761685 -12.3125 17.625 C-9.0741188 20.38666519 -6.31273888 20.7390348 -2.125 20.484375 C1.47333839 19.66416551 2.98051521 17.99665484 5 15 C5.70211781 11.7702581 5.59332465 9.9779627 3.8671875 7.1328125 C2.97445515 5.90339252 2.05064378 4.69579399 1.09375 3.515625 C0 2 0 2 0 0 Z " fill="#1B5C5D" transform="translate(404,371)"/>
<path d="M0 0 C0.66 0.33 1.32 0.66 2 1 C-3.6246909 8.21803337 -12.49948838 17.89147909 -22.03515625 19.30078125 C-27.55640535 19.33269598 -27.55640535 19.33269598 -30 17.5 C-30.33 17.005 -30.66 16.51 -31 16 C-29.2675 16.3403125 -29.2675 16.3403125 -27.5 16.6875 C-20.0317126 17.55224907 -15.23866703 14.37831346 -9.5625 9.9375 C-6.28837065 7.36328683 -6.28837065 7.36328683 -4 4 C-3.34 4 -2.68 4 -2 4 C-1.34 2.68 -0.68 1.36 0 0 Z " fill="#1A5859" transform="translate(558,736)"/>
<path d="M0 0 C-1.423125 0.6496875 -1.423125 0.6496875 -2.875 1.3125 C-6.20041937 2.79302201 -6.20041937 2.79302201 -8 6 C-8.15483439 9.50260082 -8.15483439 9.50260082 -7 13 C-2.25085606 17.62416647 3.67873546 18.14516707 10 19 C10 19.33 10 19.66 10 20 C3.14084663 20.4355018 -2.09759885 19.73111616 -8 16 C-10.45665197 12.31502204 -10.70086491 9.28028214 -10 5 C-7.07237418 0.41338621 -5.3233159 -1.59699477 0 0 Z " fill="#1A5D5D" transform="translate(386,609)"/>
<path d="M0 0 C1 2 1 2 0.2578125 4.2421875 C-0.11601562 5.11101563 -0.48984375 5.97984375 -0.875 6.875 C-3.92540237 14.0210475 -5.37434921 20.25177489 -2.625 27.75 C-2.08875 28.8225 -1.5525 29.895 -1 31 C-0.608125 31.804375 -0.21625 32.60875 0.1875 33.4375 C0.455625 33.953125 0.72375 34.46875 1 35 C-2 34 -2 34 -4.1875 30.6875 C-7.63824186 23.22643651 -6.79207652 15.51761222 -4.125 7.9375 C-2.94902588 4.97143195 -1.78142251 2.67213377 0 0 Z " fill="#165050" transform="translate(249,550)"/>
<path d="M0 0 C0 0.33 0 0.66 0 1 C-11.98403293 2.28811102 -23.96380629 2.10026305 -36 2 C-36 1.67 -36 1.34 -36 1 C-23.74180945 -0.59271153 -12.32179422 -1.58990893 0 0 Z " fill="#195D5E" transform="translate(427,741)"/>
<path d="M0 0 C3.11682419 1.38049749 5.19592249 2.96792685 7.56640625 5.40625 C8.21673828 6.06753906 8.86707031 6.72882813 9.53710938 7.41015625 C10.20548828 8.09980469 10.87386719 8.78945312 11.5625 9.5 C12.89483725 10.86682728 14.22938615 12.2315031 15.56640625 13.59375 C16.15365479 14.19896484 16.74090332 14.80417969 17.34594727 15.42773438 C19.11908186 17.20303483 19.11908186 17.20303483 22 19 C21.67 19.99 21.34 20.98 21 22 C18.16451176 19.16991269 15.33727446 16.33213515 12.51953125 13.484375 C11.28389291 12.23954488 10.04821518 10.99475385 8.8125 9.75 C8.18408203 9.11320313 7.55566406 8.47640625 6.90820312 7.8203125 C6.30556641 7.21445313 5.70292969 6.60859375 5.08203125 5.984375 C4.53780518 5.43491211 3.9935791 4.88544922 3.43286133 4.31933594 C2.0161937 2.89273848 2.0161937 2.89273848 0 2 C0 1.34 0 0.68 0 0 Z " fill="#2E979D" transform="translate(365,161)"/>
<path d="M0 0 C0.598125 0.639375 1.19625 1.27875 1.8125 1.9375 C6.34670163 4.87139517 10.69835408 4.81430312 16 5 C16 5.66 16 6.32 16 7 C4.82493564 7.39058477 4.82493564 7.39058477 1 5 C-0.3125 2.875 -0.3125 2.875 -1 1 C-0.67 0.67 -0.34 0.34 0 0 Z " fill="#1F6A69" transform="translate(510,607)"/>
<path d="M0 0 C2.82149293 1.19370855 4.46551537 2.43377569 6.75 4.5625 C10.28232492 7.64196275 13.40628926 7.76239427 18 8 C18 8.33 18 8.66 18 9 C13.79222731 10.00986544 11.75344383 10.40685967 7.875 8.3125 C6.92625 7.549375 5.9775 6.78625 5 6 C4.05125 5.29875 3.1025 4.5975 2.125 3.875 C1.42375 3.25625 0.7225 2.6375 0 2 C0 1.34 0 0.68 0 0 Z " fill="#1F6869" transform="translate(385,384)"/>
<path d="M0 0 C2.34917898 2.15341406 3.82443004 4.21667937 5.25 7.0625 C5.60578125 7.75472656 5.9615625 8.44695313 6.328125 9.16015625 C6.54984375 9.76730469 6.7715625 10.37445312 7 11 C6.67 11.66 6.34 12.32 6 13 C4.98868775 11.59138651 3.99133233 10.17274547 3 8.75 C2.1646875 7.56664062 2.1646875 7.56664062 1.3125 6.359375 C0 4 0 4 0 0 Z " fill="#31A1A6" transform="translate(792,801)"/>
<path d="M0 0 C0.66 0.33 1.32 0.66 2 1 C0.90653119 2.34212062 -0.2001575 3.67347975 -1.3125 5 C-2.23482422 6.11375 -2.23482422 6.11375 -3.17578125 7.25 C-5 9 -5 9 -8 9 C-6.71937515 7.2925002 -5.38232443 5.62626404 -4 4 C-3.34 4 -2.68 4 -2 4 C-1.34 2.68 -0.68 1.36 0 0 Z " fill="#1C6162" transform="translate(558,736)"/>
<path d="M0 0 C0 3 0 3 -1.53125 4.82421875 C-2.1809375 5.43910156 -2.830625 6.05398438 -3.5 6.6875 C-4.1496875 7.31011719 -4.799375 7.93273437 -5.46875 8.57421875 C-5.9740625 9.04472656 -6.479375 9.51523437 -7 10 C-7.99 9.34 -8.98 8.68 -10 8 C-9.44570313 7.59007812 -8.89140625 7.18015625 -8.3203125 6.7578125 C-7.59585938 6.21898437 -6.87140625 5.68015625 -6.125 5.125 C-5.04605469 4.32449219 -5.04605469 4.32449219 -3.9453125 3.5078125 C-1.91747368 2.00126838 -1.91747368 2.00126838 0 0 Z " fill="#2E999F" transform="translate(631,649)"/>
<path d="M0 0 C0.99 0.495 0.99 0.495 2 1 C2.12375 1.5775 2.2475 2.155 2.375 2.75 C3.2186215 5.7870374 4.96509718 7.63688705 7 10 C6.67 10.66 6.34 11.32 6 12 C0.09230769 6.83076923 0.09230769 6.83076923 -0.375 2.625 C-0.25125 1.75875 -0.1275 0.8925 0 0 Z " fill="#1E6567" transform="translate(422,408)"/>
<path d="M0 0 C0.66 0 1.32 0 2 0 C2.45375 1.0725 2.9075 2.145 3.375 3.25 C4.50088537 5.88062317 5.67920206 8.46000396 7 11 C4 10 4 10 2.83203125 8.22265625 C2.49558594 7.50980469 2.15914062 6.79695312 1.8125 6.0625 C1.46832031 5.35222656 1.12414062 4.64195312 0.76953125 3.91015625 C0 2 0 2 0 0 Z " fill="#1A5858" transform="translate(243,574)"/>
<path d="M0 0 C1.29608947 0.93137592 2.58671632 1.8703566 3.875 2.8125 C4.59429688 3.33457031 5.31359375 3.85664063 6.0546875 4.39453125 C8 6 8 6 10 9 C5.57238086 7.60846256 3.0443745 5.47928514 0 2 C0 1.34 0 0.68 0 0 Z " fill="#1D6161" transform="translate(521,354)"/>
<path d="M0 0 C1.98 0 3.96 0 6 0 C6 0.33 6 0.66 6 1 C4.02 1 2.04 1 0 1 C0 0.67 0 0.34 0 0 Z " fill="#2B8890" transform="translate(404,743)"/>
<path d="M0 0 C4 1 4 1 4 1 Z " fill="#28848B" transform="translate(563,887)"/>
<path d="M0 0 C4 1 4 1 4 1 Z " fill="#2A878C" transform="translate(540,887)"/>
<path d="M0 0 C4 1 4 1 4 1 Z " fill="#2D8A8F" transform="translate(467,607)"/>
<path d="M0 0 C4 1 4 1 4 1 Z " fill="#2E8B8E" transform="translate(655,395)"/>
<path d="M0 0 C1.485 0.99 1.485 0.99 3 2 C2.01 2 1.02 2 0 2 C0 1.34 0 0.68 0 0 Z " fill="#2C8C92" transform="translate(396,366)"/>
<path d="M0 0 C3 1 3 1 3 1 Z " fill="#2B8B91" transform="translate(628,887)"/>
<path d="M0 0 C3 1 3 1 3 1 Z " fill="#28878C" transform="translate(616,887)"/>
<path d="M0 0 C3 1 3 1 3 1 Z " fill="#288489" transform="translate(588,887)"/>
<path d="M0 0 C3 1 3 1 3 1 Z " fill="#2B858C" transform="translate(580,887)"/>
<path d="M0 0 C3 1 3 1 3 1 Z " fill="#278288" transform="translate(572,887)"/>
<path d="M0 0 C3 1 3 1 3 1 Z " fill="#268389" transform="translate(568,887)"/>
<path d="M0 0 C3 1 3 1 3 1 Z " fill="#28858B" transform="translate(556,887)"/>
<path d="M0 0 C3 1 3 1 3 1 Z " fill="#258085" transform="translate(304,749)"/>
<path d="M0 0 C0.66 0 1.32 0 2 0 C1.67 0.66 1.34 1.32 1 2 C0.67 1.34 0.34 0.68 0 0 Z " fill="#319394" transform="translate(601,677)"/>
<path d="M0 0 C3 1 3 1 3 1 Z " fill="#2E9297" transform="translate(602,557)"/>
<path d="M0 0 C3 1 3 1 3 1 Z " fill="#2F9195" transform="translate(609,464)"/>
<path d="" fill="#2E8F95" transform="translate(0,0)"/>
<path d="M0 0 C3 1 3 1 3 1 Z " fill="#2D9095" transform="translate(492,456)"/>
<path d="M0 0 C3 1 3 1 3 1 Z " fill="#2D8D90" transform="translate(488,437)"/>
<path d="M0 0 C3 1 3 1 3 1 Z " fill="#2C8E93" transform="translate(436,424)"/>
<path d="M0 0 C2 1 2 1 2 1 Z " fill="#2B8B90" transform="translate(645,887)"/>
<path d="M0 0 C2 1 2 1 2 1 Z " fill="#2C8A90" transform="translate(637,887)"/>
<path d="M0 0 C2 1 2 1 2 1 Z " fill="#2A868E" transform="translate(620,887)"/>
<path d="M0 0 C2 1 2 1 2 1 Z " fill="#27868C" transform="translate(592,887)"/>
<path d="M0 0 C2 1 2 1 2 1 Z " fill="#29858C" transform="translate(576,887)"/>
<path d="M0 0 C2 1 2 1 2 1 Z " fill="#27848B" transform="translate(560,887)"/>
<path d="M0 0 C2 1 2 1 2 1 Z " fill="#29858A" transform="translate(549,887)"/>
<path d="" fill="#2B898D" transform="translate(0,0)"/>
<path d="M0 0 C2 1 2 1 2 1 Z " fill="#2C8A8E" transform="translate(814,834)"/>
<path d="" fill="#2A8589" transform="translate(0,0)"/>
<path d="" fill="#2C8F93" transform="translate(0,0)"/>
<path d="" fill="#29858B" transform="translate(0,0)"/>
<path d="M0 0 C2 1 2 1 2 1 Z " fill="#288086" transform="translate(316,751)"/>
<path d="M0 0 C2 1 2 1 2 1 Z " fill="#248083" transform="translate(307,750)"/>
<path d="M0 0 C2 1 2 1 2 1 Z " fill="#2B888D" transform="translate(435,747)"/>
<path d="M0 0 C2 1 2 1 2 1 Z " fill="#267F85" transform="translate(295,746)"/>
<path d="M0 0 C2 1 2 1 2 1 Z " fill="#2A8A92" transform="translate(418,743)"/>
<path d="M0 0 C2 1 2 1 2 1 Z " fill="#2A8D95" transform="translate(401,743)"/>
<path d="" fill="#2D8A8F" transform="translate(0,0)"/>
<path d="" fill="#2D8A8F" transform="translate(0,0)"/>
<path d="M0 0 C2 1 2 1 2 1 Z " fill="#2E8E92" transform="translate(602,680)"/>
<path d="" fill="#2D8B8F" transform="translate(0,0)"/>
<path d="" fill="#308E93" transform="translate(0,0)"/>
<path d="" fill="#309094" transform="translate(0,0)"/>
<path d="M0 0 C2 1 2 1 2 1 Z " fill="#2D8F94" transform="translate(533,608)"/>
<path d="M0 0 C2 1 2 1 2 1 Z " fill="#2E9096" transform="translate(547,590)"/>
<path d="" fill="#2A858A" transform="translate(0,0)"/>
<path d="" fill="#2F8E93" transform="translate(0,0)"/>
<path d="" fill="#2F9094" transform="translate(0,0)"/>
<path d="" fill="#287B80" transform="translate(0,0)"/>
<path d="M0 0 C2 1 2 1 2 1 Z " fill="#308F92" transform="translate(542,467)"/>
<path d="M0 0 C2 1 2 1 2 1 Z " fill="#2F8F94" transform="translate(617,464)"/>
<path d="" fill="#2E8C91" transform="translate(0,0)"/>
<path d="M0 0 C2 1 2 1 2 1 Z " fill="#2D9093" transform="translate(577,456)"/>
<path d="M0 0 C2 1 2 1 2 1 Z " fill="#2C8D93" transform="translate(561,453)"/>
<path d="M0 0 C2 1 2 1 2 1 Z " fill="#2E8E92" transform="translate(625,445)"/>
<path d="M0 0 C2 1 2 1 2 1 Z " fill="#2D8C8F" transform="translate(506,443)"/>
<path d="" fill="#2E8D93" transform="translate(0,0)"/>
<path d="M0 0 C2 1 2 1 2 1 Z " fill="#2C8D92" transform="translate(493,438)"/>
<path d="M0 0 C2 1 2 1 2 1 Z " fill="#2F9599" transform="translate(456,427)"/>
<path d="" fill="#2E8A8F" transform="translate(0,0)"/>
<path d="" fill="#2F9095" transform="translate(0,0)"/>
<path d="" fill="#2E8C92" transform="translate(0,0)"/>
<path d="" fill="#2C8B8F" transform="translate(0,0)"/>
<path d="M0 0 C2 1 2 1 2 1 Z " fill="#2D9095" transform="translate(710,393)"/>
<path d="M0 0 C2 1 2 1 2 1 Z " fill="#2D8C8F" transform="translate(595,393)"/>
<path d="M0 0 C2 1 2 1 2 1 Z " fill="#2D8D93" transform="translate(589,392)"/>
<path d="M0 0 C2 1 2 1 2 1 Z " fill="#2C898F" transform="translate(264,361)"/>
<path d="" fill="#278689" transform="translate(0,0)"/>
<path d="" fill="#2A8085" transform="translate(0,0)"/>
<path d="" fill="#2A8E92" transform="translate(0,0)"/>
<path d="" fill="#26898E" transform="translate(0,0)"/>
<path d="" fill="#29888D" transform="translate(0,0)"/>
<path d="" fill="#29868F" transform="translate(0,0)"/>
<path d="" fill="#26848C" transform="translate(0,0)"/>
<path d="" fill="#2A888F" transform="translate(0,0)"/>
<path d="" fill="#2C878F" transform="translate(0,0)"/>
<path d="" fill="#28848A" transform="translate(0,0)"/>
<path d="" fill="#288185" transform="translate(0,0)"/>
<path d="" fill="#2D898D" transform="translate(0,0)"/>
<path d="" fill="#2E898B" transform="translate(0,0)"/>
<path d="" fill="#2C8B8C" transform="translate(0,0)"/>
<path d="" fill="#318B8E" transform="translate(0,0)"/>
<path d="" fill="#288487" transform="translate(0,0)"/>
<path d="" fill="#2F8A92" transform="translate(0,0)"/>
<path d="" fill="#2F8C92" transform="translate(0,0)"/>
<path d="" fill="#2A8D91" transform="translate(0,0)"/>
<path d="" fill="#2D8990" transform="translate(0,0)"/>
<path d="" fill="#298587" transform="translate(0,0)"/>
<path d="" fill="#2A858B" transform="translate(0,0)"/>
<path d="" fill="#2C8B92" transform="translate(0,0)"/>
<path d="" fill="#2B898E" transform="translate(0,0)"/>
<path d="" fill="#2B888B" transform="translate(0,0)"/>
<path d="" fill="#2A858A" transform="translate(0,0)"/>
<path d="" fill="#2D8D90" transform="translate(0,0)"/>
<path d="" fill="#2C8A90" transform="translate(0,0)"/>
<path d="" fill="#2A878C" transform="translate(0,0)"/>
<path d="" fill="#2E8D90" transform="translate(0,0)"/>
<path d="" fill="#288990" transform="translate(0,0)"/>
<path d="" fill="#2C878D" transform="translate(0,0)"/>
<path d="" fill="#2D8A90" transform="translate(0,0)"/>
<path d="" fill="#2A8B8F" transform="translate(0,0)"/>
<path d="" fill="#2B848A" transform="translate(0,0)"/>
<path d="" fill="#29878C" transform="translate(0,0)"/>
<path d="" fill="#2A898D" transform="translate(0,0)"/>
<path d="" fill="#27878F" transform="translate(0,0)"/>
<path d="" fill="#2B8B95" transform="translate(0,0)"/>
<path d="" fill="#2A8A8F" transform="translate(0,0)"/>
<path d="" fill="#2A868C" transform="translate(0,0)"/>
<path d="" fill="#29868B" transform="translate(0,0)"/>
<path d="" fill="#318C8F" transform="translate(0,0)"/>
<path d="" fill="#2C8A8E" transform="translate(0,0)"/>
<path d="" fill="#287D81" transform="translate(0,0)"/>
<path d="" fill="#2B8D91" transform="translate(0,0)"/>
<path d="" fill="#2E8D93" transform="translate(0,0)"/>
<path d="" fill="#2C8A90" transform="translate(0,0)"/>
<path d="" fill="#2B868D" transform="translate(0,0)"/>
<path d="" fill="#2B898E" transform="translate(0,0)"/>
<path d="" fill="#2E898D" transform="translate(0,0)"/>
<path d="" fill="#277D82" transform="translate(0,0)"/>
<path d="" fill="#258084" transform="translate(0,0)"/>
<path d="" fill="#27767F" transform="translate(0,0)"/>
<path d="" fill="#2E8D90" transform="translate(0,0)"/>
<path d="" fill="#2F8C8C" transform="translate(0,0)"/>
<path d="" fill="#2D8B8F" transform="translate(0,0)"/>
<path d="" fill="#287A80" transform="translate(0,0)"/>
<path d="" fill="#247F84" transform="translate(0,0)"/>
<path d="" fill="#2E9095" transform="translate(0,0)"/>
<path d="" fill="#2E8C92" transform="translate(0,0)"/>
<path d="" fill="#2D8A8E" transform="translate(0,0)"/>
<path d="" fill="#287C7F" transform="translate(0,0)"/>
<path d="" fill="#287F86" transform="translate(0,0)"/>
<path d="" fill="#2B8B8F" transform="translate(0,0)"/>
<path d="" fill="#2E8B90" transform="translate(0,0)"/>
<path d="" fill="#309092" transform="translate(0,0)"/>
<path d="" fill="#2F959B" transform="translate(0,0)"/>
<path d="" fill="#2F9194" transform="translate(0,0)"/>
<path d="" fill="#2E8F93" transform="translate(0,0)"/>
<path d="" fill="#2F9094" transform="translate(0,0)"/>
<path d="" fill="#2D8F94" transform="translate(0,0)"/>
<path d="" fill="#2D9194" transform="translate(0,0)"/>
<path d="" fill="#2F8D93" transform="translate(0,0)"/>
<path d="" fill="#2F8F95" transform="translate(0,0)"/>
<path d="" fill="#2F8B90" transform="translate(0,0)"/>
<path d="" fill="#2E8F92" transform="translate(0,0)"/>
<path d="" fill="#318E91" transform="translate(0,0)"/>
<path d="" fill="#2E8F94" transform="translate(0,0)"/>
<path d="" fill="#2D8F94" transform="translate(0,0)"/>
<path d="" fill="#2E8C8E" transform="translate(0,0)"/>
<path d="" fill="#2A8E8F" transform="translate(0,0)"/>
<path d="" fill="#319194" transform="translate(0,0)"/>
<path d="" fill="#2E9197" transform="translate(0,0)"/>
<path d="" fill="#309195" transform="translate(0,0)"/>
<path d="" fill="#2C8C90" transform="translate(0,0)"/>
<path d="" fill="#2D8C8D" transform="translate(0,0)"/>
<path d="" fill="#309095" transform="translate(0,0)"/>
<path d="" fill="#2F8F92" transform="translate(0,0)"/>
<path d="" fill="#329094" transform="translate(0,0)"/>
<path d="" fill="#2A8589" transform="translate(0,0)"/>
<path d="" fill="#2F9094" transform="translate(0,0)"/>
<path d="" fill="#2C8489" transform="translate(0,0)"/>
<path d="" fill="#2D8D8F" transform="translate(0,0)"/>
<path d="" fill="#2C8F91" transform="translate(0,0)"/>
<path d="" fill="#308E94" transform="translate(0,0)"/>
<path d="" fill="#2D8C90" transform="translate(0,0)"/>
<path d="" fill="#2D8D92" transform="translate(0,0)"/>
<path d="" fill="#2D8F95" transform="translate(0,0)"/>
<path d="" fill="#2E8B90" transform="translate(0,0)"/>
<path d="" fill="#2C8A90" transform="translate(0,0)"/>
<path d="" fill="#2F8F94" transform="translate(0,0)"/>
<path d="" fill="#2D8E94" transform="translate(0,0)"/>
<path d="" fill="#308C90" transform="translate(0,0)"/>
<path d="" fill="#2F9095" transform="translate(0,0)"/>
<path d="" fill="#2F9093" transform="translate(0,0)"/>
<path d="" fill="#2C8F91" transform="translate(0,0)"/>
<path d="" fill="#2D8F93" transform="translate(0,0)"/>
<path d="" fill="#2D8D8F" transform="translate(0,0)"/>
<path d="" fill="#2A8991" transform="translate(0,0)"/>
<path d="" fill="#2C8389" transform="translate(0,0)"/>
<path d="" fill="#2B9498" transform="translate(0,0)"/>
<path d="" fill="#2E919C" transform="translate(0,0)"/>
<path d="" fill="#2F9197" transform="translate(0,0)"/>
<path d="" fill="#319599" transform="translate(0,0)"/>
<path d="" fill="#309299" transform="translate(0,0)"/>
<path d="" fill="#2D8186" transform="translate(0,0)"/>
<path d="" fill="#288287" transform="translate(0,0)"/>
<path d="" fill="#2F9094" transform="translate(0,0)"/>
<path d="" fill="#298287" transform="translate(0,0)"/>
<path d="" fill="#309095" transform="translate(0,0)"/>
<path d="" fill="#2E9093" transform="translate(0,0)"/>
<path d="" fill="#2F9092" transform="translate(0,0)"/>
<path d="" fill="#308F92" transform="translate(0,0)"/>
<path d="" fill="#2E8F93" transform="translate(0,0)"/>
<path d="" fill="#2C8E92" transform="translate(0,0)"/>
<path d="" fill="#308D8E" transform="translate(0,0)"/>
<path d="" fill="#329295" transform="translate(0,0)"/>
<path d="" fill="#2C8F94" transform="translate(0,0)"/>
<path d="" fill="#2A8688" transform="translate(0,0)"/>
<path d="" fill="#2C8B8D" transform="translate(0,0)"/>
<path d="" fill="#2F8E92" transform="translate(0,0)"/>
<path d="" fill="#2F9094" transform="translate(0,0)"/>
<path d="" fill="#2E9195" transform="translate(0,0)"/>
<path d="" fill="#2F9092" transform="translate(0,0)"/>
<path d="" fill="#2D9194" transform="translate(0,0)"/>
<path d="" fill="#2C8B8F" transform="translate(0,0)"/>
<path d="" fill="#2E8F93" transform="translate(0,0)"/>
<path d="" fill="#2C868A" transform="translate(0,0)"/>
<path d="" fill="#28838B" transform="translate(0,0)"/>
<path d="" fill="#2B9095" transform="translate(0,0)"/>
<path d="" fill="#297F85" transform="translate(0,0)"/>
<path d="" fill="#2E8D92" transform="translate(0,0)"/>
<path d="" fill="#277F81" transform="translate(0,0)"/>
<path d="" fill="#287C81" transform="translate(0,0)"/>
<path d="" fill="#2A8185" transform="translate(0,0)"/>
<path d="" fill="#2F9196" transform="translate(0,0)"/>
<path d="" fill="#2E8085" transform="translate(0,0)"/>
<path d="" fill="#309093" transform="translate(0,0)"/>
<path d="" fill="#2C9094" transform="translate(0,0)"/>
<path d="" fill="#308E93" transform="translate(0,0)"/>
<path d="" fill="#309095" transform="translate(0,0)"/>
<path d="" fill="#2F8D93" transform="translate(0,0)"/>
<path d="" fill="#2E8C90" transform="translate(0,0)"/>
<path d="" fill="#328F94" transform="translate(0,0)"/>
<path d="" fill="#2F9093" transform="translate(0,0)"/>
<path d="" fill="#2E9295" transform="translate(0,0)"/>
<path d="" fill="#2F8E94" transform="translate(0,0)"/>
<path d="" fill="#2E8C93" transform="translate(0,0)"/>
<path d="" fill="#2F8B8F" transform="translate(0,0)"/>
<path d="" fill="#318E93" transform="translate(0,0)"/>
<path d="" fill="#2F9196" transform="translate(0,0)"/>
<path d="" fill="#319295" transform="translate(0,0)"/>
<path d="" fill="#2C8B8F" transform="translate(0,0)"/>
<path d="" fill="#2C8E94" transform="translate(0,0)"/>
<path d="" fill="#2B8B90" transform="translate(0,0)"/>
<path d="" fill="#2E9198" transform="translate(0,0)"/>
<path d="" fill="#288185" transform="translate(0,0)"/>
<path d="" fill="#2D8F90" transform="translate(0,0)"/>
<path d="" fill="#2A898E" transform="translate(0,0)"/>
<path d="" fill="#2E8D91" transform="translate(0,0)"/>
<path d="" fill="#2F9196" transform="translate(0,0)"/>
<path d="" fill="#2F9297" transform="translate(0,0)"/>
<path d="" fill="#2E8E93" transform="translate(0,0)"/>
<path d="" fill="#2C868B" transform="translate(0,0)"/>
<path d="" fill="#2D8C92" transform="translate(0,0)"/>
<path d="" fill="#2B8D93" transform="translate(0,0)"/>
<path d="" fill="#2D8E92" transform="translate(0,0)"/>
<path d="" fill="#308D90" transform="translate(0,0)"/>
<path d="" fill="#2D9296" transform="translate(0,0)"/>
<path d="" fill="#2E9193" transform="translate(0,0)"/>
<path d="" fill="#2E8E91" transform="translate(0,0)"/>
<path d="" fill="#2F8E93" transform="translate(0,0)"/>
<path d="" fill="#2F8F93" transform="translate(0,0)"/>
<path d="" fill="#309193" transform="translate(0,0)"/>
<path d="" fill="#2D9194" transform="translate(0,0)"/>
<path d="" fill="#29868C" transform="translate(0,0)"/>
<path d="" fill="#2F9195" transform="translate(0,0)"/>
<path d="" fill="#2E8E90" transform="translate(0,0)"/>
<path d="" fill="#2E898F" transform="translate(0,0)"/>
<path d="" fill="#2F8F95" transform="translate(0,0)"/>
<path d="" fill="#2F9296" transform="translate(0,0)"/>
<path d="" fill="#2F9195" transform="translate(0,0)"/>
<path d="" fill="#2B8A91" transform="translate(0,0)"/>
<path d="" fill="#2D878A" transform="translate(0,0)"/>
<path d="" fill="#2D9190" transform="translate(0,0)"/>
<path d="" fill="#2C8C8E" transform="translate(0,0)"/>
<path d="" fill="#308D90" transform="translate(0,0)"/>
<path d="" fill="#2E8B8E" transform="translate(0,0)"/>
<path d="" fill="#2F8F93" transform="translate(0,0)"/>
<path d="" fill="#308E8F" transform="translate(0,0)"/>
<path d="" fill="#2B878B" transform="translate(0,0)"/>
<path d="" fill="#2E8D91" transform="translate(0,0)"/>
<path d="" fill="#2D8A8E" transform="translate(0,0)"/>
<path d="" fill="#2D8D93" transform="translate(0,0)"/>
<path d="" fill="#2D8B8E" transform="translate(0,0)"/>
<path d="" fill="#2C8589" transform="translate(0,0)"/>
<path d="" fill="#2B8C92" transform="translate(0,0)"/>
<path d="" fill="#2D8F96" transform="translate(0,0)"/>
<path d="" fill="#2F8B90" transform="translate(0,0)"/>
<path d="" fill="#2B898F" transform="translate(0,0)"/>
<path d="" fill="#288890" transform="translate(0,0)"/>
<path d="" fill="#2D8A90" transform="translate(0,0)"/>
<path d="" fill="#2C898D" transform="translate(0,0)"/>
<path d="" fill="#2D8A8F" transform="translate(0,0)"/>
<path d="" fill="#2F868D" transform="translate(0,0)"/>
<path d="" fill="#2E898D" transform="translate(0,0)"/>
<path d="" fill="#2E8A8D" transform="translate(0,0)"/>
<path d="" fill="#308B91" transform="translate(0,0)"/>
<path d="" fill="#2C888D" transform="translate(0,0)"/>
<path d="" fill="#28868B" transform="translate(0,0)"/>
<path d="" fill="#2D8A8F" transform="translate(0,0)"/>
<path d="" fill="#2B898E" transform="translate(0,0)"/>
<path d="" fill="#2B888D" transform="translate(0,0)"/>
<path d="" fill="#2E8A90" transform="translate(0,0)"/>
<path d="" fill="#2A888E" transform="translate(0,0)"/>
<path d="" fill="#2B868D" transform="translate(0,0)"/>
<path d="" fill="#2B888B" transform="translate(0,0)"/>
<path d="" fill="#2E8D90" transform="translate(0,0)"/>
<path d="" fill="#248189" transform="translate(0,0)"/>
<path d="" fill="#288489" transform="translate(0,0)"/>
<path d="" fill="#298085" transform="translate(0,0)"/>
</svg>
