<?xml version="1.0" encoding="UTF-8"?>
<!DOCTYPE svg PUBLIC "-//W3C//DTD SVG 1.1//EN" "http://www.w3.org/Graphics/SVG/1.1/DTD/svg11.dtd">
<svg xmlns="http://www.w3.org/2000/svg" version="1.1" width="1024px" height="1024px" style="shape-rendering:geometricPrecision; text-rendering:geometricPrecision; image-rendering:optimizeQuality; fill-rule:evenodd; clip-rule:evenodd" xmlns:xlink="http://www.w3.org/1999/xlink">
<g><path style="opacity:0.004" fill="#288782" d="M 145.5,108.5 C 146.833,109.167 146.833,109.167 145.5,108.5 Z"/></g>
<g><path style="opacity:0.004" fill="#2a8780" d="M 152.5,108.5 C 153.833,109.167 153.833,109.167 152.5,108.5 Z"/></g>
<g><path style="opacity:0.004" fill="#278881" d="M 874.5,108.5 C 875.833,109.167 875.833,109.167 874.5,108.5 Z"/></g>
<g><path style="opacity:0.992" fill="#1f7d71" d="M 835.5,118.5 C 837.12,144.665 835.787,170.665 831.5,196.5C 830.848,195.551 830.514,194.385 830.5,193C 833.414,168.921 834.58,144.755 834,120.5C 830.527,112.905 824.694,110.405 816.5,113C 813.667,114.5 811.5,116.667 810,119.5C 809.667,127.833 809.333,136.167 809,144.5C 808.5,136.507 808.334,128.507 808.5,120.5C 810.224,113.689 814.724,110.022 822,109.5C 828.052,110.419 832.552,113.419 835.5,118.5 Z"/></g>
<g><path style="opacity:0.973" fill="#1c7367" d="M 214.5,122.5 C 214.666,132.839 214.5,143.172 214,153.5C 213.667,142.833 213.333,132.167 213,121.5C 212.27,117.104 209.77,114.27 205.5,113C 197.077,110.629 191.243,113.462 188,121.5C 187.536,120.906 187.369,120.239 187.5,119.5C 189.571,113.696 193.737,110.363 200,109.5C 208.181,110.184 213.014,114.518 214.5,122.5 Z"/></g>
<g><path style="opacity:0.998" fill="#1e9893" d="M 165.5,164.5 C 166.479,167.625 166.813,170.958 166.5,174.5C 167.601,226.874 186.935,271.374 224.5,308C 230.784,313.388 237.617,317.888 245,321.5C 245.772,321.355 246.439,321.022 247,320.5C 250.036,313.479 253.87,306.979 258.5,301C 232.761,285.264 214.261,263.43 203,235.5C 198.852,223.553 195.352,211.553 192.5,199.5C 191.208,189.537 190.208,179.537 189.5,169.5C 188.998,153.653 187.998,137.986 186.5,122.5C 186.263,121.209 186.596,120.209 187.5,119.5C 187.369,120.239 187.536,120.906 188,121.5C 191.243,113.462 197.077,110.629 205.5,113C 209.77,114.27 212.27,117.104 213,121.5C 213.333,132.167 213.667,142.833 214,153.5C 214.5,143.172 214.666,132.839 214.5,122.5C 215.495,133.654 215.828,144.988 215.5,156.5C 214.117,187.237 220.95,216.237 236,243.5C 245.167,258 257,269.833 271.5,279C 273.167,279.667 274.833,279.667 276.5,279C 310.831,245.158 351.498,222.158 398.5,210C 406.863,208.127 415.196,206.127 423.5,204C 422.552,203.517 421.552,203.351 420.5,203.5C 421.568,202.566 422.901,202.232 424.5,202.5C 425.097,203.139 425.93,203.472 427,203.5C 439.123,201.38 451.29,199.547 463.5,198C 461.527,197.505 459.527,197.338 457.5,197.5C 459.607,196.532 461.941,196.198 464.5,196.5C 471.991,197.14 479.658,197.14 487.5,196.5C 510.348,196.649 533.015,196.649 555.5,196.5C 561.051,196.527 566.384,197.194 571.5,198.5C 570.127,198.343 568.793,198.51 567.5,199C 572.277,200.588 576.943,200.755 581.5,199.5C 583.735,199.205 585.735,199.539 587.5,200.5C 581.792,200.492 581.459,200.992 586.5,202C 597.283,203.59 607.95,205.757 618.5,208.5C 619.416,208.457 620.083,208.124 620.5,207.5C 622.099,207.232 623.432,207.566 624.5,208.5C 623.448,208.351 622.448,208.517 621.5,209C 658.393,218.715 692.059,234.715 722.5,257C 731.267,263.763 739.433,271.263 747,279.5C 747.399,279.272 747.565,278.938 747.5,278.5C 748.708,277.766 750.041,277.433 751.5,277.5C 751.897,278.525 752.563,278.692 753.5,278C 777.86,261.124 793.694,238.29 801,209.5C 804.497,198.558 805.997,187.558 805.5,176.5C 805.187,172.958 805.521,169.625 806.5,166.5C 806.336,169.187 806.503,171.854 807,174.5C 808.477,165.023 808.644,155.689 807.5,146.5C 807.174,137.651 807.507,128.984 808.5,120.5C 808.334,128.507 808.5,136.507 809,144.5C 809.333,136.167 809.667,127.833 810,119.5C 811.5,116.667 813.667,114.5 816.5,113C 824.694,110.405 830.527,112.905 834,120.5C 834.58,144.755 833.414,168.921 830.5,193C 830.514,194.385 830.848,195.551 831.5,196.5C 831.784,198.415 831.451,200.081 830.5,201.5C 830.657,200.127 830.49,198.793 830,197.5C 824.891,232.889 809.391,262.723 783.5,287C 778.111,291.389 772.444,295.389 766.5,299C 765.426,299.739 764.759,300.739 764.5,302C 768.371,307.568 771.871,313.402 775,319.5C 775.739,320.574 776.739,321.241 778,321.5C 800.683,307.832 818.683,289.498 832,266.5C 848.047,236.31 856.213,204.31 856.5,170.5C 856.19,167.287 856.523,164.287 857.5,161.5C 857.338,163.527 857.505,165.527 858,167.5C 858.499,162.177 858.666,156.844 858.5,151.5C 859.833,142.167 859.833,132.833 858.5,123.5C 858.232,121.901 858.566,120.568 859.5,119.5C 859.351,120.552 859.517,121.552 860,122.5C 863.694,112.579 870.527,109.745 880.5,114C 882.049,115.214 883.215,116.714 884,118.5C 884.961,124.288 885.795,129.955 886.5,135.5C 886.825,143.352 886.492,151.018 885.5,158.5C 885.666,152.158 885.5,145.825 885,139.5C 884.325,161.266 882.492,182.933 879.5,204.5C 879.511,206.045 879.844,207.378 880.5,208.5C 880.784,210.415 880.451,212.081 879.5,213.5C 879.543,209.107 879.043,208.774 878,212.5C 868.659,267.795 840.825,310.961 794.5,342C 795.094,342.464 795.761,342.631 796.5,342.5C 793.536,343.808 791.203,345.808 789.5,348.5C 788.903,348.735 788.57,349.235 788.5,350C 791.216,358.031 793.383,366.198 795,374.5C 795.483,373.552 795.649,372.552 795.5,371.5C 796.925,374.903 797.758,378.57 798,382.5C 800.148,395.684 799.981,408.684 797.5,421.5C 797.662,419.473 797.495,417.473 797,415.5C 795.404,434.716 790.904,453.216 783.5,471C 783.57,471.765 783.903,472.265 784.5,472.5C 784.34,474.153 783.674,475.486 782.5,476.5C 782.631,475.761 782.464,475.094 782,474.5C 767.725,504.187 748.225,530.02 723.5,552C 708.688,565.15 693.021,577.15 676.5,588C 677.094,588.464 677.761,588.631 678.5,588.5C 677.833,589.167 677.167,589.833 676.5,590.5C 676.167,590.5 675.833,590.5 675.5,590.5C 675.44,589.957 675.107,589.624 674.5,589.5C 648.329,606.418 622.329,623.585 596.5,641C 596.728,641.399 597.062,641.565 597.5,641.5C 597.167,642.5 596.5,643.167 595.5,643.5C 595.103,642.475 594.437,642.308 593.5,643C 592.5,644 591.5,645 590.5,646C 590.728,646.399 591.062,646.565 591.5,646.5C 591.167,647.5 590.5,648.167 589.5,648.5C 589.103,647.475 588.437,647.308 587.5,648C 571.181,664.811 562.015,684.978 560,708.5C 559.2,720.493 558.534,732.493 558,744.5C 555.823,749.85 551.99,753.184 546.5,754.5C 537.795,755.423 531.462,752.089 527.5,744.5C 527.5,737.5 527.5,730.5 527.5,723.5C 526.274,675.786 544.941,637.953 583.5,610C 614.104,590.393 644.438,570.393 674.5,550C 698.628,532.206 719.794,511.372 738,487.5C 753.173,465.488 762.339,441.155 765.5,414.5C 766.034,399.711 765.034,385.044 762.5,370.5C 755.438,340.532 740.771,315.032 718.5,294C 694.847,272.414 667.681,256.581 637,246.5C 636.235,246.57 635.735,246.903 635.5,247.5C 634.508,247.672 633.842,247.338 633.5,246.5C 634.738,246.19 634.738,245.69 633.5,245C 624.544,242.344 615.544,239.844 606.5,237.5C 605.584,237.543 604.917,237.876 604.5,238.5C 603.178,238.33 602.011,238.663 601,239.5C 600.536,238.906 600.369,238.239 600.5,237.5C 604.449,237.307 604.449,236.807 600.5,236C 598.613,235.22 596.946,235.387 595.5,236.5C 593.585,236.784 591.919,236.451 590.5,235.5C 595.794,235.318 595.794,234.818 590.5,234C 587.657,233.554 584.824,233.054 582,232.5C 580.93,232.528 580.097,232.861 579.5,233.5C 577.265,233.795 575.265,233.461 573.5,232.5C 575.199,232.66 576.866,232.494 578.5,232C 573.833,231.333 569.167,230.667 564.5,230C 560.973,229.192 557.64,229.359 554.5,230.5C 550.958,230.813 547.625,230.479 544.5,229.5C 547.187,229.664 549.854,229.497 552.5,229C 520.801,225.686 489.134,226.019 457.5,230C 459.473,230.495 461.473,230.662 463.5,230.5C 459.02,231.521 454.353,232.187 449.5,232.5C 444.254,231.816 438.92,232.316 433.5,234C 434.448,234.483 435.448,234.649 436.5,234.5C 435.432,235.434 434.099,235.768 432.5,235.5C 385.105,242.026 343.105,260.859 306.5,292C 295.793,301.865 286.793,313.032 279.5,325.5C 279.624,326.107 279.957,326.44 280.5,326.5C 280.068,327.71 279.401,328.71 278.5,329.5C 278.631,328.761 278.464,328.094 278,327.5C 266.255,347.236 259.421,368.57 257.5,391.5C 257.301,401.527 257.634,411.527 258.5,421.5C 263.155,449.472 274.322,474.472 292,496.5C 309.334,517.068 328.834,535.234 350.5,551C 377.491,569.497 404.824,587.497 432.5,605C 450.667,616.5 465.5,631.333 477,649.5C 482.74,659.974 487.073,670.974 490,682.5C 490.483,681.552 490.649,680.552 490.5,679.5C 491.434,680.568 491.768,681.901 491.5,683.5C 491.15,691.406 491.984,699.406 494,707.5C 494.495,705.527 494.662,703.527 494.5,701.5C 495.473,703.948 495.806,706.615 495.5,709.5C 494.669,721.326 494.169,733.326 494,745.5C 491.948,750.264 488.448,753.264 483.5,754.5C 471.21,755.734 464.543,750.401 463.5,738.5C 463.566,729.148 463.232,719.815 462.5,710.5C 460.285,678.893 446.285,654.06 420.5,636C 389.329,615.915 358.329,595.582 327.5,575C 296.811,552.647 271.311,525.48 251,493.5C 232.113,459.559 223.613,423.226 225.5,384.5C 225.194,381.615 225.527,378.948 226.5,376.5C 226.34,378.199 226.506,379.866 227,381.5C 228.483,370.1 230.983,358.933 234.5,348C 234.472,346.93 234.139,346.097 233.5,345.5C 189.459,318.172 160.959,279.172 148,228.5C 139.498,192.652 136.165,156.319 138,119.5C 142.017,112.862 147.85,110.696 155.5,113C 158.728,114.563 160.895,117.063 162,120.5C 162.525,137.866 163.525,155.2 165,172.5C 165.497,169.854 165.664,167.187 165.5,164.5 Z"/></g>
<g><path style="opacity:0.973" fill="#1f7b6f" d="M 886.5,135.5 C 885.795,129.955 884.961,124.288 884,118.5C 883.215,116.714 882.049,115.214 880.5,114C 870.527,109.745 863.694,112.579 860,122.5C 859.517,121.552 859.351,120.552 859.5,119.5C 861.67,113.559 866.003,110.226 872.5,109.5C 882.565,111.235 887.565,117.235 887.5,127.5C 887.297,130.197 886.964,132.864 886.5,135.5 Z"/></g>
<g><path style="opacity:0.004" fill="#269087" d="M 835.5,117.5 C 836.833,118.167 836.833,118.167 835.5,117.5 Z"/></g>
<g><path style="opacity:0.995" fill="#1e7a6e" d="M 858.5,123.5 C 859.833,132.833 859.833,142.167 858.5,151.5C 858.167,151.5 857.833,151.5 857.5,151.5C 857.39,142.146 857.723,132.812 858.5,123.5 Z"/></g>
<g><path style="opacity:0.004" fill="#269891" d="M 855.5,144.5 C 856.833,145.167 856.833,145.167 855.5,144.5 Z"/></g>
<g><path style="opacity:0.004" fill="#27918b" d="M 805.5,145.5 C 806.833,146.167 806.833,146.167 805.5,145.5 Z"/></g>
<g><path style="opacity:0.916" fill="#1f8176" d="M 186.5,122.5 C 187.998,137.986 188.998,153.653 189.5,169.5C 188.532,171.607 188.198,173.941 188.5,176.5C 187.143,163.121 186.143,149.621 185.5,136C 185.261,131.518 185.594,127.018 186.5,122.5 Z"/></g>
<g><path style="opacity:0.004" fill="#259793" d="M 855.5,147.5 C 856.833,148.167 856.833,148.167 855.5,147.5 Z"/></g>
<g><path style="opacity:0.004" fill="#259b93" d="M 855.5,149.5 C 856.833,150.167 856.833,150.167 855.5,149.5 Z"/></g>
<g><path style="opacity:0.984" fill="#1c786b" d="M 807.5,146.5 C 808.644,155.689 808.477,165.023 807,174.5C 806.503,171.854 806.336,169.187 806.5,166.5C 806.454,159.809 806.788,153.143 807.5,146.5 Z"/></g>
<g><path style="opacity:0.988" fill="#1d7c6f" d="M 885.5,158.5 C 885.387,175.152 883.721,191.819 880.5,208.5C 879.844,207.378 879.511,206.045 879.5,204.5C 882.492,182.933 884.325,161.266 885,139.5C 885.5,145.825 885.666,152.158 885.5,158.5 Z"/></g>
<g><path style="opacity:0.004" fill="#259892" d="M 836.5,160.5 C 837.525,160.897 837.692,161.563 837,162.5C 836.536,161.906 836.369,161.239 836.5,160.5 Z"/></g>
<g><path style="opacity:1" fill="#1a6b5c" d="M 857.5,151.5 C 857.833,151.5 858.167,151.5 858.5,151.5C 858.666,156.844 858.499,162.177 858,167.5C 857.505,165.527 857.338,163.527 857.5,161.5C 857.163,158.344 857.163,155.011 857.5,151.5 Z"/></g>
<g><path style="opacity:0.004" fill="#26948e" d="M 217.5,168.5 C 218.833,169.167 218.833,169.167 217.5,168.5 Z"/></g>
<g><path style="opacity:0.004" fill="#269d97" d="M 185.5,172.5 C 186.833,173.167 186.833,173.167 185.5,172.5 Z"/></g>
<g><path style="opacity:0.008" fill="#24958f" d="M 135.5,173.5 C 136.833,174.167 136.833,174.167 135.5,173.5 Z"/></g>
<g><path style="opacity:0.004" fill="#239c93" d="M 186.5,179.5 C 187.833,180.167 187.833,180.167 186.5,179.5 Z"/></g>
<g><path style="opacity:1" fill="#1e786a" d="M 189.5,169.5 C 190.208,179.537 191.208,189.537 192.5,199.5C 192.167,199.5 191.833,199.5 191.5,199.5C 189.664,191.981 188.664,184.315 188.5,176.5C 188.198,173.941 188.532,171.607 189.5,169.5 Z"/></g>
<g><path style="opacity:0.004" fill="#259b95" d="M 183.5,184.5 C 184.833,185.167 184.833,185.167 183.5,184.5 Z"/></g>
<g><path style="opacity:0.008" fill="#269a94" d="M 852.5,185.5 C 853.833,186.167 853.833,186.167 852.5,185.5 Z"/></g>
<g><path style="opacity:0.004" fill="#25958d" d="M 136.5,189.5 C 137.833,190.167 137.833,190.167 136.5,189.5 Z"/></g>
<g><path style="opacity:0.004" fill="#279d96" d="M 187.5,190.5 C 188.833,191.167 188.833,191.167 187.5,190.5 Z"/></g>
<g><path style="opacity:0.004" fill="#25958d" d="M 137.5,192.5 C 136.833,191.167 136.833,191.167 137.5,192.5 Z"/></g>
<g><path style="opacity:0.008" fill="#25938e" d="M 137.5,192.5 C 138.833,193.167 138.833,193.167 137.5,192.5 Z"/></g>
<g><path style="opacity:0.008" fill="#26938b" d="M 486.5,192.5 C 487.833,193.167 487.833,193.167 486.5,192.5 Z"/></g>
<g><path style="opacity:0.004" fill="#249087" d="M 502.5,192.5 C 503.833,193.167 503.833,193.167 502.5,192.5 Z"/></g>
<g><path style="opacity:0.004" fill="#259188" d="M 518.5,192.5 C 519.833,193.167 519.833,193.167 518.5,192.5 Z"/></g>
<g><path style="opacity:0.008" fill="#25938b" d="M 522.5,192.5 C 523.833,193.167 523.833,193.167 522.5,192.5 Z"/></g>
<g><path style="opacity:0.004" fill="#25968e" d="M 524.5,192.5 C 525.833,193.167 525.833,193.167 524.5,192.5 Z"/></g>
<g><path style="opacity:0.004" fill="#24948b" d="M 526.5,193.5 C 526.897,192.475 527.563,192.308 528.5,193C 527.906,193.464 527.239,193.631 526.5,193.5 Z"/></g>
<g><path style="opacity:0.008" fill="#259691" d="M 137.5,194.5 C 138.525,194.897 138.692,195.563 138,196.5C 137.536,195.906 137.369,195.239 137.5,194.5 Z"/></g>
<g><path style="opacity:0.999" fill="#1d7d72" d="M 481.5,195.5 C 506.062,194.03 530.728,194.363 555.5,196.5C 533.015,196.649 510.348,196.649 487.5,196.5C 485.735,195.539 483.735,195.205 481.5,195.5 Z"/></g>
<g><path style="opacity:1" fill="#1c7367" d="M 481.5,195.5 C 483.735,195.205 485.735,195.539 487.5,196.5C 479.658,197.14 471.991,197.14 464.5,196.5C 470.13,195.708 475.797,195.375 481.5,195.5 Z"/></g>
<g><path style="opacity:0.004" fill="#24938c" d="M 883.5,197.5 C 884.833,198.167 884.833,198.167 883.5,197.5 Z"/></g>
<g><path style="opacity:0.006" fill="#23918b" d="M 427.5,200.5 C 427.897,199.475 428.563,199.308 429.5,200C 428.906,200.464 428.239,200.631 427.5,200.5 Z"/></g>
<g><path style="opacity:0.998" fill="#1a766a" d="M 457.5,197.5 C 459.527,197.338 461.527,197.505 463.5,198C 451.29,199.547 439.123,201.38 427,203.5C 425.93,203.472 425.097,203.139 424.5,202.5C 435.336,199.999 446.336,198.333 457.5,197.5 Z"/></g>
<g><path style="opacity:1" fill="#1b796e" d="M 571.5,198.5 C 574.939,198.253 578.272,198.586 581.5,199.5C 576.943,200.755 572.277,200.588 567.5,199C 568.793,198.51 570.127,198.343 571.5,198.5 Z"/></g>
<g><path style="opacity:0.004" fill="#23918a" d="M 602.5,200.5 C 603.833,201.167 603.833,201.167 602.5,200.5 Z"/></g>
<g><path style="opacity:0.004" fill="#24908a" d="M 610.5,202.5 C 611.833,203.167 611.833,203.167 610.5,202.5 Z"/></g>
<g><path style="opacity:0.008" fill="#25938f" d="M 138.5,200.5 C 139.598,201.601 139.765,202.934 139,204.5C 138.51,203.207 138.343,201.873 138.5,200.5 Z"/></g>
<g><path style="opacity:1" fill="#1e7f74" d="M 587.5,200.5 C 593.563,201.066 599.563,202.066 605.5,203.5C 606.442,203.392 607.275,203.059 608,202.5C 611.972,204.699 616.139,206.366 620.5,207.5C 620.083,208.124 619.416,208.457 618.5,208.5C 607.95,205.757 597.283,203.59 586.5,202C 581.459,200.992 581.792,200.492 587.5,200.5 Z"/></g>
<g><path style="opacity:0.004" fill="#25948c" d="M 882.5,204.5 C 883.833,205.167 883.833,205.167 882.5,204.5 Z"/></g>
<g><path style="opacity:0.01" fill="#24938e" d="M 139.5,205.5 C 140.525,205.897 140.692,206.563 140,207.5C 139.536,206.906 139.369,206.239 139.5,205.5 Z"/></g>
<g><path style="opacity:0.009" fill="#22908a" d="M 628.5,208.5 C 629.251,207.427 630.251,207.26 631.5,208C 630.552,208.483 629.552,208.649 628.5,208.5 Z"/></g>
<g><path style="opacity:0.008" fill="#27938c" d="M 139.5,208.5 C 140.833,209.167 140.833,209.167 139.5,208.5 Z"/></g>
<g><path style="opacity:0.004" fill="#229188" d="M 635.5,208.5 C 636.833,209.167 636.833,209.167 635.5,208.5 Z"/></g>
<g><path style="opacity:0.004" fill="#24918c" d="M 639.5,210.5 C 640.833,211.167 640.833,211.167 639.5,210.5 Z"/></g>
<g><path style="opacity:0.004" fill="#25928c" d="M 140.5,212.5 C 141.833,213.167 141.833,213.167 140.5,212.5 Z"/></g>
<g><path style="opacity:0.004" fill="#22938d" d="M 652.5,215.5 C 653.833,216.167 653.833,216.167 652.5,215.5 Z"/></g>
<g><path style="opacity:0.006" fill="#23918b" d="M 659.5,219.5 C 659.897,218.475 660.563,218.308 661.5,219C 660.906,219.464 660.239,219.631 659.5,219.5 Z"/></g>
<g><path style="opacity:0.918" fill="#1d7b6f" d="M 544.5,229.5 C 517.478,228.05 490.478,228.383 463.5,230.5C 461.473,230.662 459.473,230.495 457.5,230C 489.134,226.019 520.801,225.686 552.5,229C 549.854,229.497 547.187,229.664 544.5,229.5 Z"/></g>
<g><path style="opacity:0.004" fill="#24958f" d="M 498.5,230.5 C 498.897,229.475 499.563,229.308 500.5,230C 499.906,230.464 499.239,230.631 498.5,230.5 Z"/></g>
<g><path style="opacity:0.012" fill="#22918d" d="M 506.5,230.5 C 507.601,229.402 508.934,229.235 510.5,230C 509.207,230.49 507.873,230.657 506.5,230.5 Z"/></g>
<g><path style="opacity:0.01" fill="#22948e" d="M 514.5,230.5 C 514.897,229.475 515.563,229.308 516.5,230C 515.906,230.464 515.239,230.631 514.5,230.5 Z"/></g>
<g><path style="opacity:0.004" fill="#22938c" d="M 522.5,229.5 C 523.833,230.167 523.833,230.167 522.5,229.5 Z"/></g>
<g><path style="opacity:0.012" fill="#229590" d="M 479.5,231.5 C 479.897,230.475 480.563,230.308 481.5,231C 480.906,231.464 480.239,231.631 479.5,231.5 Z"/></g>
<g><path style="opacity:0.008" fill="#239490" d="M 483.5,231.5 C 484.251,230.427 485.251,230.26 486.5,231C 485.552,231.483 484.552,231.649 483.5,231.5 Z"/></g>
<g><path style="opacity:0.004" fill="#23938f" d="M 536.5,230.5 C 537.833,231.167 537.833,231.167 536.5,230.5 Z"/></g>
<g><path style="opacity:0.004" fill="#22908c" d="M 540.5,230.5 C 541.833,231.167 541.833,231.167 540.5,230.5 Z"/></g>
<g><path style="opacity:0.984" fill="#1c7a6f" d="M 554.5,230.5 C 557.64,229.359 560.973,229.192 564.5,230C 569.167,230.667 573.833,231.333 578.5,232C 576.866,232.494 575.199,232.66 573.5,232.5C 567.128,232.125 560.795,231.459 554.5,230.5 Z"/></g>
<g><path style="opacity:0.004" fill="#249791" d="M 784.5,231.5 C 785.833,232.167 785.833,232.167 784.5,231.5 Z"/></g>
<g><path style="opacity:0.006" fill="#26918c" d="M 143.5,232.5 C 144.525,232.897 144.692,233.563 144,234.5C 143.536,233.906 143.369,233.239 143.5,232.5 Z"/></g>
<g><path style="opacity:0.008" fill="#24918b" d="M 145.5,232.5 C 146.833,233.167 146.833,233.167 145.5,232.5 Z"/></g>
<g><path style="opacity:0.992" fill="#1e7a6e" d="M 449.5,232.5 C 445.257,233.681 440.924,234.348 436.5,234.5C 435.448,234.649 434.448,234.483 433.5,234C 438.92,232.316 444.254,231.816 449.5,232.5 Z"/></g>
<g><path style="opacity:0.988" fill="#1e7c70" d="M 579.5,233.5 C 580.097,232.861 580.93,232.528 582,232.5C 584.824,233.054 587.657,233.554 590.5,234C 595.794,234.818 595.794,235.318 590.5,235.5C 586.709,235.341 583.042,234.675 579.5,233.5 Z"/></g>
<g><path style="opacity:0.004" fill="#27948b" d="M 145.5,234.5 C 146.833,235.167 146.833,235.167 145.5,234.5 Z"/></g>
<g><path style="opacity:0.004" fill="#26958f" d="M 445.5,234.5 C 446.833,235.167 446.833,235.167 445.5,234.5 Z"/></g>
<g><path style="opacity:0.012" fill="#25968e" d="M 575.5,235.5 C 576.251,234.427 577.251,234.26 578.5,235C 577.552,235.483 576.552,235.649 575.5,235.5 Z"/></g>
<g><path style="opacity:0.98" fill="#1b7a6e" d="M 595.5,236.5 C 596.946,235.387 598.613,235.22 600.5,236C 604.449,236.807 604.449,237.307 600.5,237.5C 598.708,237.634 597.042,237.301 595.5,236.5 Z"/></g>
<g><path style="opacity:0.012" fill="#24938c" d="M 147.5,236.5 C 146.833,237.167 146.833,237.167 147.5,236.5 Z"/></g>
<g><path style="opacity:0.004" fill="#26978f" d="M 432.5,236.5 C 433.833,237.167 433.833,237.167 432.5,236.5 Z"/></g>
<g><path style="opacity:0.004" fill="#249591" d="M 428.5,237.5 C 429.833,238.167 429.833,238.167 428.5,237.5 Z"/></g>
<g><path style="opacity:0.004" fill="#269793" d="M 591.5,238.5 C 591.897,237.475 592.563,237.308 593.5,238C 592.906,238.464 592.239,238.631 591.5,238.5 Z"/></g>
<g><path style="opacity:0.008" fill="#269590" d="M 594.5,237.5 C 595.833,238.167 595.833,238.167 594.5,237.5 Z"/></g>
<g><path style="opacity:0.016" fill="#299e99" d="M 148.5,236.5 C 149.404,237.209 149.737,238.209 149.5,239.5C 148.761,239.631 148.094,239.464 147.5,239C 148.252,238.329 148.586,237.496 148.5,236.5 Z"/></g>
<g><path style="opacity:0.004" fill="#26958f" d="M 425.5,238.5 C 426.833,239.167 426.833,239.167 425.5,238.5 Z"/></g>
<g><path style="opacity:0.933" fill="#1c7b6f" d="M 633.5,246.5 C 623.686,243.966 614.02,241.299 604.5,238.5C 604.917,237.876 605.584,237.543 606.5,237.5C 615.544,239.844 624.544,242.344 633.5,245C 634.738,245.69 634.738,246.19 633.5,246.5 Z"/></g>
<g><path style="opacity:0.008" fill="#269790" d="M 400.5,244.5 C 401.833,245.167 401.833,245.167 400.5,244.5 Z"/></g>
<g><path style="opacity:0.984" fill="#1e7d70" d="M 805.5,176.5 C 805.997,187.558 804.497,198.558 801,209.5C 793.694,238.29 777.86,261.124 753.5,278C 752.563,278.692 751.897,278.525 751.5,277.5C 751.833,276.833 752.167,276.167 752.5,275.5C 775.165,260.57 790.332,239.904 798,213.5C 801.47,201.319 803.97,188.985 805.5,176.5 Z"/></g>
<g><path style="opacity:0.008" fill="#24938f" d="M 397.5,245.5 C 398.833,246.167 398.833,246.167 397.5,245.5 Z"/></g>
<g><path style="opacity:0.988" fill="#1e7e72" d="M 215.5,156.5 C 216.467,180.973 221.3,204.64 230,227.5C 232.354,232.887 235.188,237.887 238.5,242.5C 245.383,254.719 254.716,264.719 266.5,272.5C 268.812,274.636 271.312,276.636 274,278.5C 274.717,277.956 275.217,277.289 275.5,276.5C 293.014,259.809 312.68,245.142 334.5,232.5C 339.484,230.674 344.151,228.341 348.5,225.5C 356.07,222.871 363.404,219.871 370.5,216.5C 386.843,210.914 403.51,206.581 420.5,203.5C 421.552,203.351 422.552,203.517 423.5,204C 415.196,206.127 406.863,208.127 398.5,210C 351.498,222.158 310.831,245.158 276.5,279C 274.833,279.667 273.167,279.667 271.5,279C 257,269.833 245.167,258 236,243.5C 220.95,216.237 214.117,187.237 215.5,156.5 Z"/></g>
<g><path style="opacity:0.004" fill="#239993" d="M 243.5,248.5 C 244.833,249.167 244.833,249.167 243.5,248.5 Z"/></g>
<g><path style="opacity:0.012" fill="#269b93" d="M 238.5,241.5 C 239.833,242.167 239.833,242.167 238.5,241.5 Z"/></g>
<g><path style="opacity:0.004" fill="#279a95" d="M 237.5,239.5 C 238.833,240.167 238.833,240.167 237.5,239.5 Z"/></g>
<g><path style="opacity:0.004" fill="#24978d" d="M 334.5,232.5 C 333.833,231.167 333.833,231.167 334.5,232.5 Z"/></g>
<g><path style="opacity:0.004" fill="#24958e" d="M 348.5,225.5 C 347.833,224.167 347.833,224.167 348.5,225.5 Z"/></g>
<g><path style="opacity:0.004" fill="#26938e" d="M 363.5,217.5 C 364.833,218.167 364.833,218.167 363.5,217.5 Z"/></g>
<g><path style="opacity:0.004" fill="#24978f" d="M 370.5,216.5 C 369.761,216.631 369.094,216.464 368.5,216C 369.437,215.308 370.103,215.475 370.5,216.5 Z"/></g>
<g><path style="opacity:0.004" fill="#25958f" d="M 383.5,210.5 C 384.833,211.167 384.833,211.167 383.5,210.5 Z"/></g>
<g><path style="opacity:0.004" fill="#24958f" d="M 385.5,209.5 C 386.833,210.167 386.833,210.167 385.5,209.5 Z"/></g>
<g><path style="opacity:0.012" fill="#24978e" d="M 392.5,208.5 C 392.897,207.475 393.563,207.308 394.5,208C 393.906,208.464 393.239,208.631 392.5,208.5 Z"/></g>
<g><path style="opacity:0.004" fill="#26938b" d="M 402.5,204.5 C 403.833,205.167 403.833,205.167 402.5,204.5 Z"/></g>
<g><path style="opacity:0.98" fill="#1d7c6f" d="M 879.5,213.5 C 871.421,262.353 848.421,302.353 810.5,333.5C 805.851,336.474 801.184,339.474 796.5,342.5C 795.761,342.631 795.094,342.464 794.5,342C 840.825,310.961 868.659,267.795 878,212.5C 879.043,208.774 879.543,209.107 879.5,213.5 Z"/></g>
<g><path style="opacity:0.984" fill="#1d7d70" d="M 432.5,235.5 C 402.075,241.525 373.075,251.692 345.5,266C 343.316,267.363 341.316,268.863 339.5,270.5C 336.296,271.383 333.629,273.05 331.5,275.5C 325.959,278.436 320.959,282.103 316.5,286.5C 301.994,297.668 289.994,311.001 280.5,326.5C 279.957,326.44 279.624,326.107 279.5,325.5C 286.793,313.032 295.793,301.865 306.5,292C 343.105,260.859 385.105,242.026 432.5,235.5 Z"/></g>
<g><path style="opacity:0.996" fill="#1f7d71" d="M 152.5,109.5 C 157.729,111.56 161.563,115.226 164,120.5C 164.586,135.166 165.086,149.833 165.5,164.5C 165.664,167.187 165.497,169.854 165,172.5C 163.525,155.2 162.525,137.866 162,120.5C 160.895,117.063 158.728,114.563 155.5,113C 147.85,110.696 142.017,112.862 138,119.5C 136.165,156.319 139.498,192.652 148,228.5C 160.959,279.172 189.459,318.172 233.5,345.5C 232.833,345.5 232.167,345.5 231.5,345.5C 226.334,342.752 221.334,339.752 216.5,336.5C 216.027,335.094 215.027,334.427 213.5,334.5C 212.738,332.738 211.404,331.738 209.5,331.5C 199.467,322.467 190.133,312.801 181.5,302.5C 167.099,284.041 156.433,263.041 149.5,239.5C 149.737,238.209 149.404,237.209 148.5,236.5C 148.167,236.5 147.833,236.5 147.5,236.5C 138.173,198.068 134.339,159.068 136,119.5C 139.331,112.745 144.831,109.412 152.5,109.5 Z"/></g>
<g><path style="opacity:0.008" fill="#299994" d="M 372.5,254.5 C 373.833,255.167 373.833,255.167 372.5,254.5 Z"/></g>
<g><path style="opacity:0.004" fill="#25928a" d="M 152.5,255.5 C 153.833,256.167 153.833,256.167 152.5,255.5 Z"/></g>
<g><path style="opacity:0.004" fill="#25918b" d="M 152.5,256.5 C 151.833,257.167 151.833,257.167 152.5,256.5 Z"/></g>
<g><path style="opacity:0.004" fill="#22948f" d="M 656.5,256.5 C 655.833,257.167 655.833,257.167 656.5,256.5 Z"/></g>
<g><path style="opacity:0.008" fill="#258f8a" d="M 868.5,256.5 C 869.833,257.167 869.833,257.167 868.5,256.5 Z"/></g>
<g><path style="opacity:0.012" fill="#24928a" d="M 153.5,258.5 C 154.833,259.167 154.833,259.167 153.5,258.5 Z"/></g>
<g><path style="opacity:0.996" fill="#1d7f74" d="M 624.5,208.5 C 636.36,211.565 648.027,215.231 659.5,219.5C 688.201,230.896 714.534,247.062 738.5,268C 742.085,271.078 745.085,274.578 747.5,278.5C 747.565,278.938 747.399,279.272 747,279.5C 739.433,271.263 731.267,263.763 722.5,257C 692.059,234.715 658.393,218.715 621.5,209C 622.448,208.517 623.448,208.351 624.5,208.5 Z"/></g>
<g><path style="opacity:0.008" fill="#249691" d="M 662.5,260.5 C 663.833,261.167 663.833,261.167 662.5,260.5 Z"/></g>
<g><path style="opacity:0.004" fill="#25948c" d="M 155.5,261.5 C 156.833,262.167 156.833,262.167 155.5,261.5 Z"/></g>
<g><path style="opacity:0.008" fill="#269993" d="M 667.5,262.5 C 668.833,263.167 668.833,263.167 667.5,262.5 Z"/></g>
<g><path style="opacity:0.004" fill="#279891" d="M 279.5,263.5 C 280.833,264.167 280.833,264.167 279.5,263.5 Z"/></g>
<g><path style="opacity:0.008" fill="#229592" d="M 672.5,264.5 C 671.833,265.167 671.833,265.167 672.5,264.5 Z"/></g>
<g><path style="opacity:0.004" fill="#269891" d="M 339.5,270.5 C 340.833,271.167 340.833,271.167 339.5,270.5 Z"/></g>
<g><path style="opacity:0.012" fill="#239d94" d="M 266.5,271.5 C 267.833,272.167 267.833,272.167 266.5,271.5 Z"/></g>
<g><path style="opacity:0.004" fill="#269a93" d="M 746.5,272.5 C 747.833,273.167 747.833,273.167 746.5,272.5 Z"/></g>
<g><path style="opacity:0.008" fill="#269c93" d="M 752.5,275.5 C 751.833,274.167 751.833,274.167 752.5,275.5 Z"/></g>
<g><path style="opacity:0.008" fill="#249991" d="M 275.5,276.5 C 274.833,275.167 274.833,275.167 275.5,276.5 Z"/></g>
<g><path style="opacity:0.004" fill="#259992" d="M 331.5,275.5 C 332.833,276.167 332.833,276.167 331.5,275.5 Z"/></g>
<g><path style="opacity:0.004" fill="#24968f" d="M 699.5,281.5 C 698.833,282.167 698.833,282.167 699.5,281.5 Z"/></g>
<g><path style="opacity:0.004" fill="#259992" d="M 316.5,286.5 C 317.833,287.167 317.833,287.167 316.5,286.5 Z"/></g>
<g><path style="opacity:0.004" fill="#239791" d="M 711.5,294.5 C 712.833,295.167 712.833,295.167 711.5,294.5 Z"/></g>
<g><path style="opacity:1" fill="#1e7f72" d="M 166.5,174.5 C 169.337,208.185 178.837,239.852 195,269.5C 207.643,289.977 224.143,306.643 244.5,319.5C 246.11,317.275 247.443,314.941 248.5,312.5C 250.199,309.084 252.533,305.584 255.5,302C 252.738,298.781 249.405,296.281 245.5,294.5C 244.738,292.738 243.404,291.738 241.5,291.5C 225.701,277.556 213.035,261.222 203.5,242.5C 203.672,241.508 203.338,240.842 202.5,240.5C 200.5,234.167 198.5,227.834 196.5,221.5C 196.737,220.209 196.404,219.209 195.5,218.5C 193.66,212.302 192.327,205.969 191.5,199.5C 191.833,199.5 192.167,199.5 192.5,199.5C 195.352,211.553 198.852,223.553 203,235.5C 214.261,263.43 232.761,285.264 258.5,301C 253.87,306.979 250.036,313.479 247,320.5C 246.439,321.022 245.772,321.355 245,321.5C 237.617,317.888 230.784,313.388 224.5,308C 186.935,271.374 167.601,226.874 166.5,174.5 Z"/></g>
<g><path style="opacity:0.008" fill="#289d97" d="M 245.5,294.5 C 244.833,295.167 244.833,295.167 245.5,294.5 Z"/></g>
<g><path style="opacity:0.004" fill="#269e98" d="M 241.5,291.5 C 241.631,292.239 241.464,292.906 241,293.5C 240.308,292.563 240.475,291.897 241.5,291.5 Z"/></g>
<g><path style="opacity:0.008" fill="#259a96" d="M 207.5,256.5 C 208.833,257.167 208.833,257.167 207.5,256.5 Z"/></g>
<g><path style="opacity:0.004" fill="#289a96" d="M 186.5,249.5 C 187.833,250.167 187.833,250.167 186.5,249.5 Z"/></g>
<g><path style="opacity:0.007" fill="#239a95" d="M 203.5,242.5 C 203.489,245.001 202.822,245.168 201.5,243C 202.094,242.536 202.761,242.369 203.5,242.5 Z"/></g>
<g><path style="opacity:0.004" fill="#259b95" d="M 199.5,241.5 C 200.833,242.167 200.833,242.167 199.5,241.5 Z"/></g>
<g><path style="opacity:0.008" fill="#249993" d="M 201.5,240.5 C 201.833,240.5 202.167,240.5 202.5,240.5C 202.315,241.17 201.981,241.17 201.5,240.5 Z"/></g>
<g><path style="opacity:0.008" fill="#259b96" d="M 201.5,240.5 C 200.761,240.631 200.094,240.464 199.5,240C 200.437,239.308 201.103,239.475 201.5,240.5 Z"/></g>
<g><path style="opacity:0.004" fill="#259b95" d="M 195.5,221.5 C 195.631,222.239 195.464,222.906 195,223.5C 194.308,222.563 194.475,221.897 195.5,221.5 Z"/></g>
<g><path style="opacity:0.129" fill="#28a19d" d="M 195.5,218.5 C 196.404,219.209 196.737,220.209 196.5,221.5C 196.167,221.5 195.833,221.5 195.5,221.5C 194.909,220.849 194.243,220.182 193.5,219.5C 194.2,219.213 194.867,218.88 195.5,218.5 Z"/></g>
<g><path style="opacity:0.008" fill="#279a96" d="M 191.5,217.5 C 192.833,218.167 192.833,218.167 191.5,217.5 Z"/></g>
<g><path style="opacity:1" fill="#1d7d70" d="M 856.5,170.5 C 856.213,204.31 848.047,236.31 832,266.5C 818.683,289.498 800.683,307.832 778,321.5C 776.739,321.241 775.739,320.574 775,319.5C 771.871,313.402 768.371,307.568 764.5,302C 764.759,300.739 765.426,299.739 766.5,299C 772.444,295.389 778.111,291.389 783.5,287C 809.391,262.723 824.891,232.889 830,197.5C 830.49,198.793 830.657,200.127 830.5,201.5C 823.97,244.624 802.636,277.957 766.5,301.5C 770.17,307.509 773.837,313.509 777.5,319.5C 783.76,316.215 789.426,312.215 794.5,307.5C 797.432,306.2 799.766,304.2 801.5,301.5C 807.919,296.418 813.252,290.418 817.5,283.5C 834.173,262.708 845.006,239.041 850,212.5C 852.711,198.571 854.877,184.571 856.5,170.5 Z"/></g>
<g><path style="opacity:0.004" fill="#269e98" d="M 817.5,283.5 C 816.833,282.167 816.833,282.167 817.5,283.5 Z"/></g>
<g><path style="opacity:0.004" fill="#259c95" d="M 825.5,263.5 C 826.833,264.167 826.833,264.167 825.5,263.5 Z"/></g>
<g><path style="opacity:0.004" fill="#279d96" d="M 808.5,262.5 C 809.833,263.167 809.833,263.167 808.5,262.5 Z"/></g>
<g><path style="opacity:0.004" fill="#279c96" d="M 834.5,252.5 C 835.833,253.167 835.833,253.167 834.5,252.5 Z"/></g>
<g><path style="opacity:0.008" fill="#289b94" d="M 824.5,228.5 C 825.833,229.167 825.833,229.167 824.5,228.5 Z"/></g>
<g><path style="opacity:0.008" fill="#259e98" d="M 801.5,301.5 C 800.833,300.167 800.833,300.167 801.5,301.5 Z"/></g>
<g><path style="opacity:0.004" fill="#26948d" d="M 179.5,302.5 C 178.833,301.167 178.833,301.167 179.5,302.5 Z"/></g>
<g><path style="opacity:0.008" fill="#25978f" d="M 722.5,301.5 C 721.833,302.167 721.833,302.167 722.5,301.5 Z"/></g>
<g><path style="opacity:0.004" fill="#23918d" d="M 179.5,302.5 C 180.167,302.5 180.833,302.5 181.5,302.5C 180.833,303.833 180.167,303.833 179.5,302.5 Z"/></g>
<g><path style="opacity:0.004" fill="#269c96" d="M 791.5,305.5 C 792.833,306.167 792.833,306.167 791.5,305.5 Z"/></g>
<g><path style="opacity:0.004" fill="#259d97" d="M 794.5,307.5 C 793.833,306.167 793.833,306.167 794.5,307.5 Z"/></g>
<g><path style="opacity:0.004" fill="#249691" d="M 729.5,309.5 C 728.833,310.167 728.833,310.167 729.5,309.5 Z"/></g>
<g><path style="opacity:0.004" fill="#259f9a" d="M 248.5,312.5 C 247.833,311.167 247.833,311.167 248.5,312.5 Z"/></g>
<g><path style="opacity:0.008" fill="#25948f" d="M 192.5,317.5 C 193.833,318.167 193.833,318.167 192.5,317.5 Z"/></g>
<g><path style="opacity:0.004" fill="#25948f" d="M 737.5,319.5 C 737.217,320.289 736.717,320.956 736,321.5C 735.472,320.184 735.972,319.517 737.5,319.5 Z"/></g>
<g><path style="opacity:0.004" fill="#28968f" d="M 744.5,330.5 C 743.833,331.167 743.833,331.167 744.5,330.5 Z"/></g>
<g><path style="opacity:0.004" fill="#269790" d="M 209.5,331.5 C 209.5,331.833 209.5,332.167 209.5,332.5C 208.83,332.019 208.83,331.685 209.5,331.5 Z"/></g>
<g><path style="opacity:0.012" fill="#269590" d="M 209.5,332.5 C 210.833,333.167 210.833,333.167 209.5,332.5 Z"/></g>
<g><path style="opacity:0.008" fill="#26958c" d="M 810.5,333.5 C 811.833,334.167 811.833,334.167 810.5,333.5 Z"/></g>
<g><path style="opacity:0.008" fill="#269690" d="M 213.5,334.5 C 212.833,335.167 212.833,335.167 213.5,334.5 Z"/></g>
<g><path style="opacity:0.004" fill="#249490" d="M 216.5,336.5 C 215.833,337.167 215.833,337.167 216.5,336.5 Z"/></g>
<g><path style="opacity:0.851" fill="#1f8175" d="M 278.5,329.5 C 264.948,353.71 258.614,379.71 259.5,407.5C 258.833,402.167 258.167,396.833 257.5,391.5C 259.421,368.57 266.255,347.236 278,327.5C 278.464,328.094 278.631,328.761 278.5,329.5 Z"/></g>
<g><path style="opacity:0.004" fill="#289892" d="M 752.5,346.5 C 751.833,347.167 751.833,347.167 752.5,346.5 Z"/></g>
<g><path style="opacity:0.02" fill="#2ba6a2" d="M 231.5,345.5 C 232.167,345.5 232.833,345.5 233.5,345.5C 233.768,347.099 233.434,348.432 232.5,349.5C 232.567,348.041 232.234,346.708 231.5,345.5 Z"/></g>
<g><path style="opacity:0.004" fill="#249894" d="M 269.5,350.5 C 270.833,351.167 270.833,351.167 269.5,350.5 Z"/></g>
<g><path style="opacity:0.004" fill="#279891" d="M 752.5,351.5 C 753.833,352.167 753.833,352.167 752.5,351.5 Z"/></g>
<g><path style="opacity:0.004" fill="#259691" d="M 752.5,352.5 C 751.833,353.167 751.833,353.167 752.5,352.5 Z"/></g>
<g><path style="opacity:1" fill="#1f7f72" d="M 762.5,370.5 C 761.596,371.209 761.263,372.209 761.5,373.5C 758.819,363.453 755.819,354.453 752.5,346.5C 750.388,340.789 747.721,335.456 744.5,330.5C 742.742,325.862 740.409,322.196 737.5,319.5C 735.303,315.762 732.636,312.429 729.5,309.5C 727.883,306.216 725.55,303.549 722.5,301.5C 719.704,298.203 716.704,295.036 713.5,292C 709.239,287.898 704.572,284.398 699.5,281.5C 691.351,274.586 682.351,268.92 672.5,264.5C 667.719,260.895 662.386,258.229 656.5,256.5C 649.616,253.225 642.616,250.225 635.5,247.5C 635.735,246.903 636.235,246.57 637,246.5C 667.681,256.581 694.847,272.414 718.5,294C 740.771,315.032 755.438,340.532 762.5,370.5 Z"/></g>
<g><path style="opacity:0.004" fill="#249890" d="M 795.5,362.5 C 796.833,363.167 796.833,363.167 795.5,362.5 Z"/></g>
<g><path style="opacity:1" fill="#1d7769" d="M 233.5,345.5 C 234.139,346.097 234.472,346.93 234.5,348C 230.983,358.933 228.483,370.1 227,381.5C 226.506,379.866 226.34,378.199 226.5,376.5C 227.482,367.252 229.482,358.252 232.5,349.5C 233.434,348.432 233.768,347.099 233.5,345.5 Z"/></g>
<g><path style="opacity:0.984" fill="#1f7e71" d="M 789.5,348.5 C 792.572,355.782 794.572,363.449 795.5,371.5C 795.649,372.552 795.483,373.552 795,374.5C 793.383,366.198 791.216,358.031 788.5,350C 788.57,349.235 788.903,348.735 789.5,348.5 Z"/></g>
<g><path style="opacity:0.004" fill="#23958f" d="M 761.5,391.5 C 762.833,392.167 762.833,392.167 761.5,391.5 Z"/></g>
<g><path style="opacity:0.998" fill="#1b6d5d" d="M 762.5,370.5 C 765.034,385.044 766.034,399.711 765.5,414.5C 764.833,406.833 764.167,399.167 763.5,391.5C 762.74,385.511 762.073,379.511 761.5,373.5C 761.263,372.209 761.596,371.209 762.5,370.5 Z"/></g>
<g><path style="opacity:0.976" fill="#1b6d5e" d="M 257.5,391.5 C 258.167,396.833 258.833,402.167 259.5,407.5C 259.5,410.5 259.5,413.5 259.5,416.5C 259.784,418.415 259.451,420.081 258.5,421.5C 257.634,411.527 257.301,401.527 257.5,391.5 Z"/></g>
<g><path style="opacity:0.006" fill="#22928d" d="M 798.5,425.5 C 799.525,425.897 799.692,426.563 799,427.5C 798.536,426.906 798.369,426.239 798.5,425.5 Z"/></g>
<g><path style="opacity:0.004" fill="#25938c" d="M 224.5,430.5 C 225.833,431.167 225.833,431.167 224.5,430.5 Z"/></g>
<g><path style="opacity:1" fill="#1d7c70" d="M 797.5,421.5 C 795.825,439.2 791.492,456.2 784.5,472.5C 783.903,472.265 783.57,471.765 783.5,471C 790.904,453.216 795.404,434.716 797,415.5C 797.495,417.473 797.662,419.473 797.5,421.5 Z"/></g>
<g><path style="opacity:0.008" fill="#24928a" d="M 227.5,445.5 C 228.833,446.167 228.833,446.167 227.5,445.5 Z"/></g>
<g><path style="opacity:0.008" fill="#259790" d="M 754.5,451.5 C 753.833,450.167 753.833,450.167 754.5,451.5 Z"/></g>
<g><path style="opacity:0.012" fill="#2a9a92" d="M 752.5,456.5 C 751.833,455.167 751.833,455.167 752.5,456.5 Z"/></g>
<g><path style="opacity:0.004" fill="#28928b" d="M 231.5,458.5 C 232.833,459.167 232.833,459.167 231.5,458.5 Z"/></g>
<g><path style="opacity:0.004" fill="#25938c" d="M 232.5,461.5 C 233.833,462.167 233.833,462.167 232.5,461.5 Z"/></g>
<g><path style="opacity:0.012" fill="#269791" d="M 747.5,463.5 C 748.833,464.167 748.833,464.167 747.5,463.5 Z"/></g>
<g><path style="opacity:0.004" fill="#238e8a" d="M 231.5,465.5 C 232.251,464.427 233.251,464.26 234.5,465C 233.552,465.483 232.552,465.649 231.5,465.5 Z"/></g>
<g><path style="opacity:0.004" fill="#248f89" d="M 233.5,466.5 C 234.833,467.167 234.833,467.167 233.5,466.5 Z"/></g>
<g><path style="opacity:0.004" fill="#27968f" d="M 277.5,468.5 C 278.833,469.167 278.833,469.167 277.5,468.5 Z"/></g>
<g><path style="opacity:0.012" fill="#259089" d="M 236.5,470.5 C 235.833,469.167 235.833,469.167 236.5,470.5 Z"/></g>
<g><path style="opacity:0.004" fill="#258c89" d="M 239.5,481.5 C 240.833,482.167 240.833,482.167 239.5,481.5 Z"/></g>
<g><path style="opacity:0.012" fill="#238f88" d="M 241.5,482.5 C 242.833,483.167 242.833,483.167 241.5,482.5 Z"/></g>
<g><path style="opacity:0.004" fill="#22908a" d="M 248.5,495.5 C 249.833,496.167 249.833,496.167 248.5,495.5 Z"/></g>
<g><path style="opacity:0.004" fill="#258f89" d="M 257.5,509.5 C 258.833,510.167 258.833,510.167 257.5,509.5 Z"/></g>
<g><path style="opacity:0.004" fill="#258f89" d="M 271.5,527.5 C 272.833,528.167 272.833,528.167 271.5,527.5 Z"/></g>
<g><path style="opacity:0.004" fill="#25948d" d="M 329.5,530.5 C 330.833,531.167 330.833,531.167 329.5,530.5 Z"/></g>
<g><path style="opacity:0.004" fill="#25928b" d="M 336.5,535.5 C 337.833,536.167 337.833,536.167 336.5,535.5 Z"/></g>
<g><path style="opacity:0.004" fill="#24928c" d="M 681.5,535.5 C 682.833,536.167 682.833,536.167 681.5,535.5 Z"/></g>
<g><path style="opacity:0.004" fill="#259289" d="M 282.5,538.5 C 281.833,539.167 281.833,539.167 282.5,538.5 Z"/></g>
<g><path style="opacity:0.004" fill="#24938e" d="M 681.5,538.5 C 682.833,539.167 682.833,539.167 681.5,538.5 Z"/></g>
<g><path style="opacity:0.004" fill="#24958e" d="M 345.5,543.5 C 346.833,544.167 346.833,544.167 345.5,543.5 Z"/></g>
<g><path style="opacity:0.929" fill="#1d7e73" d="M 259.5,416.5 C 264.51,450.521 278.677,480.188 302,505.5C 310.734,514.737 319.9,523.404 329.5,531.5C 334.427,536.302 339.76,540.635 345.5,544.5C 369.129,562.32 393.795,578.654 419.5,593.5C 427.764,599.533 435.764,605.199 443.5,610.5C 446.851,613.848 450.518,616.848 454.5,619.5C 462.578,627.24 469.911,635.573 476.5,644.5C 483.099,655.368 487.765,667.035 490.5,679.5C 490.649,680.552 490.483,681.552 490,682.5C 487.073,670.974 482.74,659.974 477,649.5C 465.5,631.333 450.667,616.5 432.5,605C 404.824,587.497 377.491,569.497 350.5,551C 328.834,535.234 309.334,517.068 292,496.5C 274.322,474.472 263.155,449.472 258.5,421.5C 259.451,420.081 259.784,418.415 259.5,416.5 Z"/></g>
<g><path style="opacity:0.008" fill="#269088" d="M 297.5,554.5 C 298.833,555.167 298.833,555.167 297.5,554.5 Z"/></g>
<g><path style="opacity:0.004" fill="#26958e" d="M 361.5,554.5 C 362.833,555.167 362.833,555.167 361.5,554.5 Z"/></g>
<g><path style="opacity:0.004" fill="#24958d" d="M 653.5,559.5 C 654.833,560.167 654.833,560.167 653.5,559.5 Z"/></g>
<g><path style="opacity:0.984" fill="#1e7b6e" d="M 782.5,476.5 C 769.525,504.583 751.525,529.083 728.5,550C 719.269,558.074 709.935,565.907 700.5,573.5C 693.451,578.094 686.117,583.094 678.5,588.5C 677.761,588.631 677.094,588.464 676.5,588C 693.021,577.15 708.688,565.15 723.5,552C 748.225,530.02 767.725,504.187 782,474.5C 782.464,475.094 782.631,475.761 782.5,476.5 Z"/></g>
<g><path style="opacity:0.004" fill="#26958d" d="M 385.5,570.5 C 386.833,571.167 386.833,571.167 385.5,570.5 Z"/></g>
<g><path style="opacity:0.004" fill="#24938a" d="M 700.5,573.5 C 701.833,574.167 701.833,574.167 700.5,573.5 Z"/></g>
<g><path style="opacity:0.005" fill="#24908b" d="M 327.5,580.5 C 331.243,580.459 331.41,581.126 328,582.5C 327.536,581.906 327.369,581.239 327.5,580.5 Z"/></g>
<g><path style="opacity:0.992" fill="#1e7f73" d="M 763.5,391.5 C 764.167,399.167 764.833,406.833 765.5,414.5C 762.339,441.155 753.173,465.488 738,487.5C 719.794,511.372 698.628,532.206 674.5,550C 644.438,570.393 614.104,590.393 583.5,610C 544.941,637.953 526.274,675.786 527.5,723.5C 527.737,722.209 527.404,721.209 526.5,720.5C 525.264,680.553 539.264,646.887 568.5,619.5C 572.146,617.183 575.48,614.516 578.5,611.5C 603.796,594.18 629.463,577.346 655.5,561C 684.273,541.996 709.773,519.163 732,492.5C 740.322,481.346 747.155,469.346 752.5,456.5C 753.537,455.07 754.204,453.403 754.5,451.5C 761.957,432.311 764.957,412.311 763.5,391.5 Z"/></g>
<g><path style="opacity:0.004" fill="#26978e" d="M 676.5,590.5 C 677.833,591.167 677.833,591.167 676.5,590.5 Z"/></g>
<g><path style="opacity:0.004" fill="#23958e" d="M 419.5,592.5 C 418.833,591.167 418.833,591.167 419.5,592.5 Z"/></g>
<g><path style="opacity:0.004" fill="#23918a" d="M 600.5,591.5 C 601.833,592.167 601.833,592.167 600.5,591.5 Z"/></g>
<g><path style="opacity:0.004" fill="#25918d" d="M 604.5,591.5 C 605.833,592.167 605.833,592.167 604.5,591.5 Z"/></g>
<g><path style="opacity:0.004" fill="#23958e" d="M 419.5,592.5 C 420.833,593.167 420.833,593.167 419.5,592.5 Z"/></g>
<g><path style="opacity:0.004" fill="#279490" d="M 353.5,595.5 C 352.833,596.167 352.833,596.167 353.5,595.5 Z"/></g>
<g><path style="opacity:0.004" fill="#26948c" d="M 666.5,597.5 C 667.833,598.167 667.833,598.167 666.5,597.5 Z"/></g>
<g><path style="opacity:0.004" fill="#248f89" d="M 351.5,598.5 C 352.833,599.167 352.833,599.167 351.5,598.5 Z"/></g>
<g><path style="opacity:0.012" fill="#28928c" d="M 356.5,598.5 C 357.833,599.167 357.833,599.167 356.5,598.5 Z"/></g>
<g><path style="opacity:0.939" fill="#1e7d71" d="M 225.5,384.5 C 223.613,423.226 232.113,459.559 251,493.5C 271.311,525.48 296.811,552.647 327.5,575C 358.329,595.582 389.329,615.915 420.5,636C 446.285,654.06 460.285,678.893 462.5,710.5C 461.523,713.287 461.19,716.287 461.5,719.5C 461.038,704.982 458.038,690.982 452.5,677.5C 452.672,676.508 452.338,675.842 451.5,675.5C 451.672,674.508 451.338,673.842 450.5,673.5C 447.399,666.29 443.066,659.957 437.5,654.5C 435.167,651.5 432.5,648.833 429.5,646.5C 428.738,644.738 427.404,643.738 425.5,643.5C 419.423,637.762 412.756,632.762 405.5,628.5C 401.231,624.906 396.898,622.239 392.5,620.5C 379.773,611.78 366.773,603.446 353.5,595.5C 328.413,578.429 304.747,559.429 282.5,538.5C 276.618,530.648 269.785,522.315 262,513.5C 252.359,500.513 244.693,486.847 239,472.5C 238.005,471.934 237.172,471.267 236.5,470.5C 237.043,470.44 237.376,470.107 237.5,469.5C 226.084,442.551 222.084,414.218 225.5,384.5 Z"/></g>
<g><path style="opacity:0.004" fill="#25948c" d="M 580.5,607.5 C 581.833,608.167 581.833,608.167 580.5,607.5 Z"/></g>
<g><path style="opacity:1" fill="#1e7c70" d="M 675.5,590.5 C 649.537,607.487 623.537,624.487 597.5,641.5C 597.062,641.565 596.728,641.399 596.5,641C 622.329,623.585 648.329,606.418 674.5,589.5C 675.107,589.624 675.44,589.957 675.5,590.5 Z"/></g>
<g><path style="opacity:0.004" fill="#23938e" d="M 443.5,609.5 C 444.833,610.167 444.833,610.167 443.5,609.5 Z"/></g>
<g><path style="opacity:0.004" fill="#22948e" d="M 578.5,611.5 C 577.833,610.167 577.833,610.167 578.5,611.5 Z"/></g>
<g><path style="opacity:0.008" fill="#25928d" d="M 376.5,611.5 C 377.773,612.077 377.773,612.743 376.5,613.5C 375.537,613.03 375.537,612.363 376.5,611.5 Z"/></g>
<g><path style="opacity:0.004" fill="#27928d" d="M 378.5,612.5 C 379.833,613.167 379.833,613.167 378.5,612.5 Z"/></g>
<g><path style="opacity:0.004" fill="#26948d" d="M 381.5,614.5 C 382.833,615.167 382.833,615.167 381.5,614.5 Z"/></g>
<g><path style="opacity:0.004" fill="#22938d" d="M 453.5,615.5 C 454.833,616.167 454.833,616.167 453.5,615.5 Z"/></g>
<g><path style="opacity:0.004" fill="#239690" d="M 454.5,618.5 C 455.833,619.167 455.833,619.167 454.5,618.5 Z"/></g>
<g><path style="opacity:0.008" fill="#24978f" d="M 568.5,619.5 C 567.833,618.167 567.833,618.167 568.5,619.5 Z"/></g>
<g><path style="opacity:0.008" fill="#27958f" d="M 392.5,620.5 C 391.833,621.167 391.833,621.167 392.5,620.5 Z"/></g>
<g><path style="opacity:0.008" fill="#27978f" d="M 400.5,626.5 C 401.833,627.167 401.833,627.167 400.5,626.5 Z"/></g>
<g><path style="opacity:0.004" fill="#22908d" d="M 405.5,628.5 C 404.833,629.167 404.833,629.167 405.5,628.5 Z"/></g>
<g><path style="opacity:0.008" fill="#259890" d="M 469.5,633.5 C 470.833,634.167 470.833,634.167 469.5,633.5 Z"/></g>
<g><path style="opacity:0.004" fill="#249791" d="M 425.5,643.5 C 425.5,643.833 425.5,644.167 425.5,644.5C 424.83,644.019 424.83,643.685 425.5,643.5 Z"/></g>
<g><path style="opacity:0.004" fill="#269891" d="M 476.5,643.5 C 477.833,644.167 477.833,644.167 476.5,643.5 Z"/></g>
<g><path style="opacity:0.937" fill="#207c6a" d="M 595.5,643.5 C 594.205,644.488 592.872,645.488 591.5,646.5C 591.062,646.565 590.728,646.399 590.5,646C 591.5,645 592.5,644 593.5,643C 594.437,642.308 595.103,642.475 595.5,643.5 Z"/></g>
<g><path style="opacity:0.004" fill="#259690" d="M 424.5,644.5 C 423.833,645.167 423.833,645.167 424.5,644.5 Z"/></g>
<g><path style="opacity:0.004" fill="#27958f" d="M 425.5,644.5 C 426.833,645.167 426.833,645.167 425.5,644.5 Z"/></g>
<g><path style="opacity:0.004" fill="#24938d" d="M 423.5,646.5 C 424.833,647.167 424.833,647.167 423.5,646.5 Z"/></g>
<g><path style="opacity:0.004" fill="#279592" d="M 429.5,646.5 C 428.833,647.167 428.833,647.167 429.5,646.5 Z"/></g>
<g><path style="opacity:0.004" fill="#24948f" d="M 432.5,651.5 C 433.525,651.897 433.692,652.563 433,653.5C 432.536,652.906 432.369,652.239 432.5,651.5 Z"/></g>
<g><path style="opacity:0.016" fill="#25938b" d="M 437.5,654.5 C 436.833,655.167 436.833,655.167 437.5,654.5 Z"/></g>
<g><path style="opacity:0.016" fill="#25978f" d="M 450.5,673.5 C 450.5,674.167 450.5,674.833 450.5,675.5C 449.167,674.833 449.167,674.167 450.5,673.5 Z"/></g>
<g><path style="opacity:0.012" fill="#249891" d="M 450.5,675.5 C 450.833,675.5 451.167,675.5 451.5,675.5C 451.315,676.17 450.981,676.17 450.5,675.5 Z"/></g>
<g><path style="opacity:0.008" fill="#259790" d="M 452.5,677.5 C 452.631,678.239 452.464,678.906 452,679.5C 451.308,678.563 451.475,677.897 452.5,677.5 Z"/></g>
<g><path style="opacity:0.992" fill="#1e7d71" d="M 589.5,648.5 C 574.848,663.138 566.014,680.805 563,701.5C 561.585,715.467 560.585,729.467 560,743.5C 558.57,750.431 554.404,754.431 547.5,755.5C 547.5,754.833 547.167,754.5 546.5,754.5C 551.99,753.184 555.823,749.85 558,744.5C 558.534,732.493 559.2,720.493 560,708.5C 562.015,684.978 571.181,664.811 587.5,648C 588.437,647.308 589.103,647.475 589.5,648.5 Z"/></g>
<g><path style="opacity:0.894" fill="#1d8377" d="M 491.5,683.5 C 493.344,689.233 494.344,695.233 494.5,701.5C 494.662,703.527 494.495,705.527 494,707.5C 491.984,699.406 491.15,691.406 491.5,683.5 Z"/></g>
<g><path style="opacity:0.004" fill="#25958f" d="M 458.5,709.5 C 459.833,710.167 459.833,710.167 458.5,709.5 Z"/></g>
<g><path style="opacity:0.004" fill="#25948c" d="M 562.5,716.5 C 563.833,717.167 563.833,717.167 562.5,716.5 Z"/></g>
<g><path style="opacity:1" fill="#1f786a" d="M 462.5,710.5 C 463.232,719.815 463.566,729.148 463.5,738.5C 463.737,739.791 463.404,740.791 462.5,741.5C 461.536,734.254 461.203,726.92 461.5,719.5C 461.19,716.287 461.523,713.287 462.5,710.5 Z"/></g>
<g><path style="opacity:0.004" fill="#259b95" d="M 523.5,726.5 C 524.833,727.167 524.833,727.167 523.5,726.5 Z"/></g>
<g><path style="opacity:0.004" fill="#279a95" d="M 523.5,734.5 C 524.833,735.167 524.833,735.167 523.5,734.5 Z"/></g>
<g><path style="opacity:0.984" fill="#1e7a6b" d="M 526.5,720.5 C 527.404,721.209 527.737,722.209 527.5,723.5C 527.5,730.5 527.5,737.5 527.5,744.5C 527.167,744.5 526.833,744.5 526.5,744.5C 525.167,736.5 525.167,728.5 526.5,720.5 Z"/></g>
<g><path style="opacity:1" fill="#207d70" d="M 463.5,738.5 C 464.543,750.401 471.21,755.734 483.5,754.5C 483.5,754.833 483.5,755.167 483.5,755.5C 476.225,757.333 470.058,755.333 465,749.5C 463.293,747.091 462.46,744.425 462.5,741.5C 463.404,740.791 463.737,739.791 463.5,738.5 Z"/></g>
<g><path style="opacity:0.992" fill="#1d7e72" d="M 495.5,709.5 C 496.582,721.474 496.749,733.474 496,745.5C 493.737,751.268 489.57,754.601 483.5,755.5C 483.5,755.167 483.5,754.833 483.5,754.5C 488.448,753.264 491.948,750.264 494,745.5C 494.169,733.326 494.669,721.326 495.5,709.5 Z"/></g>
<g><path style="opacity:0.851" fill="#1f7a6c" d="M 526.5,744.5 C 526.833,744.5 527.167,744.5 527.5,744.5C 531.462,752.089 537.795,755.423 546.5,754.5C 547.167,754.5 547.5,754.833 547.5,755.5C 537.323,757.911 530.323,754.245 526.5,744.5 Z"/></g>
<g><path style="opacity:0.004" fill="#259990" d="M 536.5,756.5 C 537.833,757.167 537.833,757.167 536.5,756.5 Z"/></g>
<g><path style="opacity:0.008" fill="#229189" d="M 542.5,757.5 C 543.833,758.167 543.833,758.167 542.5,757.5 Z"/></g>
<g><path style="opacity:0.004" fill="#22948e" d="M 478.5,757.5 C 479.525,757.897 479.692,758.563 479,759.5C 478.536,758.906 478.369,758.239 478.5,757.5 Z"/></g>
<g><path style="opacity:0.004" fill="#269992" d="M 504.5,771.5 C 503.833,770.167 503.833,770.167 504.5,771.5 Z"/></g>
<g><path style="opacity:0.998" fill="#1e9893" d="M 553.5,894.5 C 553.167,895.5 552.5,896.167 551.5,896.5C 551.44,895.957 551.107,895.624 550.5,895.5C 542.353,903.576 532.686,909.076 521.5,912C 522.448,912.483 523.448,912.649 524.5,912.5C 523.432,913.434 522.099,913.768 520.5,913.5C 493.27,915.143 473.437,903.81 461,879.5C 458.098,869.391 456.765,859.057 457,848.5C 456.768,849.737 456.268,850.737 455.5,851.5C 455.565,848.572 456.232,845.905 457.5,843.5C 457.351,844.552 457.517,845.552 458,846.5C 460.321,837.529 463.988,829.195 469,821.5C 479.088,806.99 489.422,792.657 500,778.5C 508.38,770.202 516.38,770.535 524,779.5C 534.722,793.89 545.056,808.556 555,823.5C 566.233,840.651 568.566,858.984 562,878.5C 559.499,883.506 556.499,888.173 553,892.5C 552.308,893.437 552.475,894.103 553.5,894.5 Z M 516.5,818.5 C 518.326,820.147 519.66,822.147 520.5,824.5C 521.5,824.833 522.167,825.5 522.5,826.5C 521.287,827.497 521.454,828.497 523,829.5C 523.399,829.272 523.565,828.938 523.5,828.5C 533.317,838.473 537.817,850.473 537,864.5C 534.348,872.318 529.181,877.652 521.5,880.5C 506.183,885.771 494.683,881.104 487,866.5C 484.399,856.246 486.232,846.913 492.5,838.5C 498.052,828.778 504.218,819.444 511,810.5C 513.594,812.704 515.428,815.37 516.5,818.5 Z"/></g>
<g><path style="opacity:0.004" fill="#25968e" d="M 536.5,791.5 C 537.833,792.167 537.833,792.167 536.5,791.5 Z"/></g>
<g><path style="opacity:0.008" fill="#26968c" d="M 480.5,796.5 C 481.833,797.167 481.833,797.167 480.5,796.5 Z"/></g>
<g><path style="opacity:0.008" fill="#23958e" d="M 541.5,798.5 C 542.833,799.167 542.833,799.167 541.5,798.5 Z"/></g>
<g><path style="opacity:0.004" fill="#269087" d="M 557.5,815.5 C 558.833,816.167 558.833,816.167 557.5,815.5 Z"/></g>
<g><path style="opacity:1" fill="#1d7b6f" d="M 536.5,792.5 C 537.786,795.117 539.453,797.45 541.5,799.5C 547.645,809.11 553.812,818.777 560,828.5C 562.483,833.477 564.65,838.477 566.5,843.5C 570.783,862.703 566.449,879.703 553.5,894.5C 552.475,894.103 552.308,893.437 553,892.5C 556.499,888.173 559.499,883.506 562,878.5C 568.566,858.984 566.233,840.651 555,823.5C 545.056,808.556 534.722,793.89 524,779.5C 516.38,770.535 508.38,770.202 500,778.5C 489.422,792.657 479.088,806.99 469,821.5C 463.988,829.195 460.321,837.529 458,846.5C 457.517,845.552 457.351,844.552 457.5,843.5C 458.992,836.851 461.325,830.517 464.5,824.5C 474.749,809.736 485.249,795.069 496,780.5C 498.396,777.001 501.229,774.001 504.5,771.5C 507.003,770.916 509.503,770.249 512,769.5C 514.584,770.104 517.084,770.937 519.5,772C 525.066,778.996 530.733,785.83 536.5,792.5 Z"/></g>
<g><path style="opacity:0.012" fill="#279388" d="M 464.5,824.5 C 463.833,823.167 463.833,823.167 464.5,824.5 Z"/></g>
<g><path style="opacity:0.908" fill="#1e7f73" d="M 510.5,808.5 C 512.017,808.511 513.184,809.177 514,810.5C 523.267,822.696 531.267,835.696 538,849.5C 541.915,870.109 533.415,882.109 512.5,885.5C 494.961,884.294 485.295,874.961 483.5,857.5C 484.22,851.172 486.053,845.172 489,839.5C 495.997,829.011 503.164,818.678 510.5,808.5 Z M 516.5,818.5 C 518.326,820.147 519.66,822.147 520.5,824.5C 521.5,824.833 522.167,825.5 522.5,826.5C 521.287,827.497 521.454,828.497 523,829.5C 523.399,829.272 523.565,828.938 523.5,828.5C 533.317,838.473 537.817,850.473 537,864.5C 534.348,872.318 529.181,877.652 521.5,880.5C 506.183,885.771 494.683,881.104 487,866.5C 484.399,856.246 486.232,846.913 492.5,838.5C 498.052,828.778 504.218,819.444 511,810.5C 513.594,812.704 515.428,815.37 516.5,818.5 Z"/></g>
<g><path style="opacity:0.004" fill="#218e87" d="M 566.5,843.5 C 566.369,842.761 566.536,842.094 567,841.5C 567.692,842.437 567.525,843.103 566.5,843.5 Z"/></g>
<g><path style="opacity:0.004" fill="#268e84" d="M 457.5,876.5 C 456.833,877.167 456.833,877.167 457.5,876.5 Z"/></g>
<g><path style="opacity:0.004" fill="#268e86" d="M 463.5,890.5 C 464.833,891.167 464.833,891.167 463.5,890.5 Z"/></g>
<g><path style="opacity:0.008" fill="#248c86" d="M 465.5,893.5 C 466.833,894.167 466.833,894.167 465.5,893.5 Z"/></g>
<g><path style="opacity:0.992" fill="#1d776c" d="M 551.5,896.5 C 547.46,900.542 543.127,904.209 538.5,907.5C 534.042,909.728 529.375,911.395 524.5,912.5C 523.448,912.649 522.448,912.483 521.5,912C 532.686,909.076 542.353,903.576 550.5,895.5C 551.107,895.624 551.44,895.957 551.5,896.5 Z"/></g>
<g><path style="opacity:0.008" fill="#238b83" d="M 481.5,906.5 C 480.833,907.167 480.833,907.167 481.5,906.5 Z"/></g>
<g><path style="opacity:0.008" fill="#248983" d="M 538.5,907.5 C 539.833,908.167 539.833,908.167 538.5,907.5 Z"/></g>
<g><path style="opacity:0.008" fill="#248980" d="M 481.5,909.5 C 480.833,908.167 480.833,908.167 481.5,909.5 Z"/></g>
<g><path style="opacity:0.945" fill="#1e7a6e" d="M 520.5,913.5 C 506.65,915.93 493.65,913.597 481.5,906.5C 470.778,899.264 462.778,889.264 457.5,876.5C 455.819,868.269 455.153,859.936 455.5,851.5C 456.268,850.737 456.768,849.737 457,848.5C 456.765,859.057 458.098,869.391 461,879.5C 473.437,903.81 493.27,915.143 520.5,913.5 Z"/></g>
<g><path style="opacity:0.004" fill="#248680" d="M 481.5,909.5 C 482.756,909.461 483.756,909.961 484.5,911C 483.002,911.585 482.002,911.085 481.5,909.5 Z"/></g>
<g><path style="opacity:0.004" fill="#238580" d="M 505.5,916.5 C 505.897,915.475 506.563,915.308 507.5,916C 506.906,916.464 506.239,916.631 505.5,916.5 Z"/></g>
<g><path style="opacity:0.004" fill="#23867f" d="M 514.5,917.5 C 515.833,918.167 515.833,918.167 514.5,917.5 Z"/></g>
</svg>
