<?xml version="1.0" standalone="no"?>
<!DOCTYPE svg PUBLIC "-//W3C//DTD SVG 20010904//EN"
 "http://www.w3.org/TR/2001/REC-SVG-20010904/DTD/svg10.dtd">
<svg version="1.0" xmlns="http://www.w3.org/2000/svg"
 width="1650.000000pt" height="2210.000000pt" viewBox="0 0 1650.000000 2210.000000"
 preserveAspectRatio="xMidYMid meet">

<g transform="translate(0.000000,2210.000000) scale(0.100000,-0.100000)"
fill="#000000" stroke="none">
<path d="M9630 21534 c-36 -19 -139 -69 -230 -111 -91 -42 -300 -139 -465
-216 -165 -77 -376 -176 -470 -220 -306 -142 -352 -156 -747 -226 -503 -90
-1008 -358 -1412 -751 -481 -468 -804 -1046 -1050 -1880 -206 -696 -292 -1264
-266 -1746 17 -321 57 -614 145 -1069 75 -392 79 -423 77 -690 -1 -179 -12
-394 -46 -845 -67 -901 -69 -945 -63 -1330 10 -558 61 -938 193 -1437 47 -179
71 -352 89 -643 25 -412 55 -733 105 -1150 54 -447 99 -972 140 -1635 28 -458
35 -724 21 -895 -44 -558 -30 -793 67 -1081 50 -147 86 -228 242 -539 162
-323 237 -508 350 -868 428 -1355 821 -2289 1325 -3147 45 -77 99 -170 119
-207 21 -38 40 -68 43 -68 2 0 -45 96 -106 213 -610 1167 -928 1933 -1316
3172 -143 458 -224 663 -366 928 -49 93 -118 235 -153 315 -115 265 -160 439
-175 669 -9 135 -6 217 20 630 14 226 8 433 -36 1098 -40 606 -70 930 -120
1320 -46 354 -145 1396 -145 1523 0 9 21 -41 46 -113 69 -199 76 -216 80 -213
2 2 -19 82 -47 178 -149 518 -253 992 -288 1305 -61 544 -57 951 20 1995 32
430 45 953 27 1075 -8 49 -8 49 12 -15 12 -36 35 -111 52 -167 17 -57 33 -101
35 -100 2 2 -15 77 -37 166 -125 498 -218 1044 -251 1471 -16 219 -6 641 20
835 66 485 240 1144 424 1600 393 978 1022 1637 1855 1941 136 50 292 89 512
129 233 42 288 58 468 134 173 74 813 381 1038 499 185 96 362 205 332 202 -2
0 -32 -16 -68 -36z"/>
<path d="M8350 20684 c-154 -32 -247 -63 -280 -91 -22 -18 -40 -23 -86 -23
-70 0 -269 -32 -374 -59 -214 -57 -511 -185 -705 -304 -503 -308 -929 -789
-1161 -1310 -132 -297 -208 -542 -344 -1103 -129 -529 -162 -736 -179 -1099
-26 -553 79 -1157 267 -1531 56 -111 61 -129 73 -224 25 -216 -6 -557 -96
-1070 -50 -288 -118 -747 -136 -920 -16 -149 -16 -623 0 -770 37 -358 86 -637
161 -910 58 -213 74 -290 99 -490 29 -224 29 -236 51 -680 27 -552 34 -653 80
-1120 81 -834 94 -1013 105 -1425 4 -126 10 -320 16 -430 8 -179 17 -277 60
-672 l12 -111 -26 -31 c-49 -59 -62 -120 -62 -296 0 -235 16 -282 190 -556 51
-80 111 -182 134 -227 97 -192 213 -524 302 -856 88 -335 119 -408 423 -1016
155 -311 319 -648 363 -750 45 -102 120 -275 168 -385 138 -316 331 -721 488
-1017 144 -273 187 -350 187 -335 0 4 -65 136 -144 295 -79 158 -184 375 -233
482 -50 107 -107 231 -128 275 -20 44 -104 235 -185 425 -198 460 -249 570
-505 1079 -119 239 -237 483 -261 543 -24 59 -75 219 -114 355 -78 279 -141
483 -193 623 -53 145 -52 145 19 0 36 -74 106 -234 156 -355 130 -317 306
-708 308 -683 0 4 -18 47 -41 95 -72 155 -165 372 -249 583 -170 428 -272 624
-487 939 -62 90 -130 236 -142 305 -14 78 -14 261 0 328 17 79 34 105 126 195
64 64 92 100 118 155 19 40 35 79 35 88 1 31 29 -22 40 -74 8 -38 7 -76 -3
-149 -18 -129 -9 -187 49 -306 63 -129 158 -225 301 -305 114 -65 186 -90 283
-101 36 -4 72 -11 81 -16 15 -8 114 -240 121 -284 3 -19 -2 -20 -72 -17 -41 1
-91 5 -110 7 l-35 5 28 -15 c18 -11 58 -17 117 -18 l89 -2 20 -75 c47 -175 63
-285 81 -585 6 -93 12 -185 15 -203 7 -55 -10 -36 -58 66 -61 129 -65 141 -93
257 -19 78 -23 88 -19 45 11 -100 37 -179 106 -321 l69 -141 15 -176 c48 -550
163 -1120 316 -1568 206 -604 567 -1308 911 -1771 103 -139 99 -121 -11 44
-352 529 -646 1128 -849 1728 -85 250 -134 436 -197 750 -59 293 -86 466 -110
702 -22 225 -57 725 -50 731 3 3 5 -6 5 -20 0 -35 35 -179 103 -423 31 -110
68 -247 82 -304 103 -412 259 -868 428 -1257 93 -213 225 -496 238 -509 14
-14 -2 27 -39 102 -33 65 -136 293 -207 457 -158 367 -285 745 -415 1236 -28
107 -67 249 -86 315 -19 66 -34 126 -33 135 1 18 3 13 73 -230 119 -408 222
-712 326 -960 284 -677 583 -1248 916 -1745 62 -93 125 -183 139 -200 14 -16
-17 33 -68 110 -259 387 -531 864 -703 1235 -225 486 -338 762 -444 1080 -122
367 -306 1020 -383 1356 -32 141 -99 318 -187 501 -82 170 -118 225 -171 259
-62 39 -80 41 -25 3 42 -28 58 -50 100 -131 27 -54 47 -100 43 -104 -11 -11
-130 12 -195 39 -164 66 -292 165 -370 286 -82 126 -94 186 -77 386 9 115 -3
171 -60 285 -56 111 -68 168 -62 294 5 120 14 155 106 415 63 177 130 449 222
895 86 420 209 1063 209 1094 0 12 3 22 8 22 4 0 15 -48 24 -107 21 -137 95
-455 158 -688 75 -274 231 -692 364 -977 62 -133 224 -421 325 -578 178 -274
210 -343 261 -550 29 -114 34 -154 34 -258 l1 -124 -45 -17 c-25 -10 -65 -30
-88 -45 -24 -15 -46 -26 -48 -23 -2 2 8 31 23 63 27 57 28 65 28 224 1 91 4
179 8 195 5 17 -4 3 -19 -30 -25 -54 -27 -72 -29 -185 -1 -108 -4 -132 -24
-178 -28 -63 -31 -62 -91 50 l-41 77 22 88 c19 79 20 96 10 161 -12 82 -34
129 -100 222 -26 36 -60 88 -75 115 -16 28 -68 88 -115 135 -113 112 -148 156
-215 270 -61 103 -104 204 -142 339 -20 70 -23 77 -18 36 3 -27 19 -101 35
-162 48 -189 131 -331 288 -496 53 -56 116 -129 138 -163 23 -33 66 -95 96
-137 31 -42 61 -94 68 -114 17 -49 16 -167 0 -217 l-14 -40 -35 70 c-19 38
-64 137 -99 219 -66 155 -90 197 -72 129 67 -257 240 -611 442 -904 153 -223
471 -606 728 -879 507 -540 758 -845 1012 -1232 118 -180 322 -521 376 -628
17 -33 34 -61 36 -61 9 0 -70 149 -165 315 -323 560 -600 921 -1180 1540 -179
191 -228 246 -260 290 -32 43 703 -680 858 -845 526 -559 826 -966 1217 -1655
95 -167 350 -676 415 -827 19 -43 35 -76 37 -74 5 5 -59 169 -127 321 -61 137
-63 143 -81 295 -31 263 -89 677 -120 858 -16 95 -29 178 -29 184 0 6 -3 9 -6
6 -3 -4 10 -104 30 -225 52 -322 130 -913 121 -922 -9 -8 -135 266 -135 294 0
21 -3 26 -9 16 -7 -10 -19 5 -46 60 -21 41 -75 140 -121 221 -63 109 -84 156
-85 185 -1 32 -2 34 -8 13 -7 -24 -9 -22 -45 35 -47 73 -51 87 -60 200 -20
248 -50 499 -87 718 -23 133 -43 244 -46 247 -6 5 -7 10 43 -300 28 -180 84
-665 84 -734 0 -12 -34 31 -83 104 -100 151 -282 397 -400 540 -64 77 -87 113
-88 135 -1 17 -3 22 -6 13 -2 -10 -8 -18 -11 -17 -4 0 -52 52 -107 116 -55 63
-123 138 -151 166 l-52 52 13 105 c8 58 13 130 13 160 0 30 -7 -14 -16 -98 -8
-83 -18 -152 -23 -152 -4 0 -24 20 -44 44 l-36 44 21 113 c32 184 60 424 59
507 l-2 77 -8 -105 c-14 -176 -68 -562 -81 -575 -2 -3 -23 15 -46 38 l-43 43
12 53 c6 29 9 55 6 58 -3 2 -9 -16 -12 -41 -4 -26 -11 -48 -14 -51 -4 -2 -31
20 -60 49 l-52 53 20 59 c30 90 72 265 67 278 -2 6 -5 4 -5 -5 -1 -19 -65
-253 -81 -293 l-11 -29 -122 119 c-508 496 -832 842 -832 888 0 6 20 21 45 33
27 14 37 23 25 23 -11 0 -35 -9 -54 -21 -18 -11 -37 -17 -40 -12 -89 106 -201
273 -201 298 0 15 160 90 221 104 95 22 144 15 237 -36 125 -68 177 -120 202
-200 12 -40 20 -93 20 -137 l-1 -71 -22 55 c-15 36 -33 62 -56 77 -52 35 -82
30 -127 -19 -20 -24 -47 -48 -58 -55 -17 -10 -18 -12 -4 -13 9 0 35 22 58 50
52 63 85 67 135 17 48 -48 66 -118 58 -227 -8 -113 10 -171 117 -388 61 -126
84 -163 97 -160 24 4 104 143 153 264 45 114 94 313 136 549 31 181 43 473 25
662 -38 416 -212 1060 -431 1593 -80 195 -118 290 -265 665 -105 269 -245 699
-315 970 -103 398 -174 869 -217 1435 -20 269 -22 925 -4 1235 33 553 135
1239 251 1685 22 85 71 276 109 425 l69 270 48 42 c27 24 52 43 55 43 4 0 1
-21 -7 -47 -28 -94 -104 -390 -133 -523 -80 -362 -176 -1157 -170 -1408 1 -31
5 -1 10 68 31 494 102 1018 190 1400 49 214 132 537 140 543 61 45 107 76 110
72 3 -2 -8 -77 -23 -167 -47 -278 -100 -745 -97 -853 1 -22 12 64 24 190 25
253 61 518 111 813 4 27 16 40 73 77 73 46 151 88 155 83 3 -4 44 -626 56
-848 8 -148 8 -145 4 60 -2 118 -13 328 -24 465 -11 138 -20 271 -20 296 0 46
1 47 48 67 26 12 60 30 76 41 17 11 33 18 36 16 4 -3 10 -37 14 -77 3 -40 27
-244 51 -453 25 -209 52 -436 60 -505 15 -133 57 -584 74 -810 24 -304 51
-877 65 -1345 2 -60 2 75 0 300 -4 527 -21 871 -65 1370 -23 257 -25 224 42
700 50 364 80 644 86 818 l6 168 28 14 28 15 4 -43 4 -42 1 45 2 46 85 42 85
42 0 -173 c0 -265 31 -663 105 -1362 14 -126 25 -241 26 -255 1 -18 3 -20 6
-7 4 17 -2 89 -47 512 -48 456 -80 901 -80 1132 l0 152 38 6 c20 4 45 9 55 12
10 2 17 -1 17 -9 0 -9 2 -10 8 -1 4 6 30 13 57 15 l50 3 6 -220 c13 -415 63
-792 229 -1725 16 -91 50 -305 74 -476 148 -1022 150 -1585 10 -2674 -49 -387
-103 -703 -175 -1035 -33 -152 -215 -886 -255 -1028 -38 -135 -112 -524 -130
-686 -21 -185 -25 -633 -6 -811 24 -232 103 -596 182 -843 42 -130 162 -417
167 -401 2 5 -22 81 -53 169 -68 195 -124 397 -124 447 0 32 32 185 47 224 3
8 12 13 19 10 9 -3 14 2 14 13 0 10 7 21 15 25 12 4 15 -7 17 -67 l2 -72 5 70
c5 53 10 70 21 70 11 0 14 -10 13 -35 l-2 -35 11 35 c11 34 12 32 24 -55 20
-139 67 -288 166 -529 147 -360 235 -610 328 -939 22 -78 38 -124 34 -102 -22
150 -185 638 -327 985 -89 217 -128 327 -158 444 -24 92 -20 111 5 28 22 -69
129 -346 191 -492 25 -58 83 -208 129 -335 118 -321 165 -442 166 -427 0 11
-84 245 -171 476 -16 43 -28 80 -26 82 6 7 168 -366 224 -516 171 -458 245
-767 493 -2050 28 -146 80 -402 115 -570 35 -168 81 -404 102 -525 21 -121 39
-212 41 -203 4 20 -42 299 -113 688 -30 162 -68 376 -85 475 -190 1096 -297
1587 -439 2008 -87 257 -115 325 -346 827 -138 299 -232 535 -270 675 l-27 99
17 93 c28 150 3 244 -113 425 -33 51 -65 111 -71 133 -36 138 -95 445 -111
587 l-20 167 25 128 c24 125 97 422 189 773 180 690 287 1316 367 2150 31 317
33 359 33 770 1 444 -2 504 -50 960 -20 187 -61 474 -119 825 -26 154 -47 296
-47 315 0 45 54 579 92 905 60 516 73 615 81 615 15 0 124 -97 196 -174 76
-81 161 -191 358 -465 175 -242 260 -344 410 -490 131 -127 345 -299 345 -277
0 3 -40 37 -89 76 -116 91 -319 304 -430 450 -48 63 -154 210 -236 325 -201
286 -263 365 -372 472 -106 105 -179 158 -297 215 l-81 39 290 -3 c160 -3 252
-1 205 3 -47 4 -130 7 -186 8 -107 1 -316 12 -312 17 2 1 80 10 173 19 138 14
227 16 470 11 165 -3 314 -8 330 -11 l30 -5 -28 9 c-111 37 -648 38 -932 3
-186 -23 -332 -36 -325 -28 3 3 78 36 167 75 280 121 500 237 814 426 187 113
449 265 517 299 30 15 52 30 49 33 -3 3 -71 -29 -151 -71 -139 -73 -251 -137
-616 -351 -188 -110 -453 -242 -680 -340 -85 -37 -162 -69 -170 -72 -8 -3 50
33 130 79 173 99 298 181 480 314 267 194 553 424 605 485 l20 24 -20 -16
c-11 -9 -76 -60 -145 -114 -69 -54 -154 -122 -190 -150 -199 -157 -439 -319
-645 -434 -82 -46 -202 -114 -265 -151 -63 -36 -171 -92 -240 -125 -373 -175
-728 -361 -843 -442 -27 -19 -51 -33 -53 -30 -9 9 209 157 411 278 476 285
802 516 1120 794 145 126 407 377 401 383 -3 2 -68 -55 -144 -129 -361 -350
-809 -687 -1312 -989 -267 -160 -493 -318 -487 -339 1 -5 -27 -30 -63 -57 -36
-27 -99 -83 -139 -124 -41 -41 -67 -61 -56 -45 36 58 258 371 299 420 208 256
288 339 561 590 72 66 177 165 235 220 58 55 215 204 349 330 229 217 440 436
581 605 73 88 32 46 -137 -141 -153 -168 -339 -352 -758 -744 -181 -171 -372
-350 -424 -400 -214 -204 -4 30 419 466 430 444 645 688 866 981 297 395 513
791 714 1313 230 599 312 785 395 898 37 49 181 162 298 232 36 22 64 41 63
43 -4 4 -178 -100 -223 -134 -18 -13 -50 -36 -70 -51 l-37 -28 20 34 c10 19
51 69 89 110 39 42 57 66 39 54 -48 -34 -103 -99 -187 -219 -131 -190 -202
-339 -357 -749 -373 -988 -706 -1479 -1670 -2470 -375 -386 -630 -674 -830
-940 -148 -197 -318 -456 -390 -592 -35 -68 -65 -121 -68 -118 -22 21 180 540
315 809 135 269 369 638 669 1056 295 410 624 888 624 907 0 3 -40 -52 -88
-123 -122 -179 -278 -401 -418 -595 -325 -450 -550 -789 -702 -1054 -157 -274
-349 -731 -409 -970 -28 -111 -52 -155 -271 -501 -161 -255 -378 -644 -477
-856 -47 -102 -94 -255 -120 -389 -22 -119 -33 -342 -40 -804 -11 -721 -30
-1090 -91 -1680 -31 -309 -51 -450 -119 -870 -55 -338 -82 -475 -229 -1195
-100 -493 -128 -602 -208 -808 -123 -321 -135 -463 -56 -664 l31 -77 -22 -53
c-12 -29 -30 -64 -40 -77 l-19 -24 -8 44 c-12 59 -6 1905 6 2084 10 136 25
612 34 1040 3 145 2 179 -4 110 -4 -55 -13 -318 -21 -585 -8 -291 -16 -465
-21 -435 -4 28 -15 196 -24 375 -20 366 -25 439 -48 595 -8 61 -16 142 -16
180 0 43 -4 65 -9 57 -10 -17 -14 -4 -37 148 -10 63 -23 120 -30 127 -13 14
-41 142 -53 243 -6 51 -9 62 -10 35 -1 -36 -3 -38 -13 -20 -7 11 -20 52 -29
90 -10 39 -18 63 -19 55 -1 -26 -14 5 -68 160 -91 265 -181 695 -231 1095 -5
41 -9 55 -10 35 -3 -82 64 -493 114 -708 14 -58 24 -107 21 -109 -5 -6 -60
198 -105 392 -99 427 -143 987 -111 1401 14 177 61 507 125 889 88 519 108
685 109 885 1 96 -2 202 -7 235 l-7 60 41 -69 41 -68 -5 -222 c-5 -228 -20
-365 -91 -871 -19 -137 -37 -279 -40 -315 -8 -98 69 411 103 685 43 338 54
485 48 598 -4 53 -3 97 1 97 4 0 41 -48 84 -105 76 -104 76 -105 84 -182 9
-99 -1 -524 -16 -666 -6 -59 -10 -113 -7 -120 13 -38 32 290 32 553 l0 295 69
-80 c38 -44 96 -108 128 -142 36 -38 58 -70 58 -85 0 -16 3 -19 9 -10 6 10 22
-3 58 -47 47 -55 51 -65 57 -128 7 -74 -7 -368 -24 -498 -15 -112 -65 -389
-107 -593 -19 -95 -33 -175 -31 -177 5 -5 82 335 107 475 48 260 62 387 70
630 l6 204 86 -114 c88 -119 181 -266 194 -310 4 -14 11 -27 14 -30 4 -3 22
-39 41 -80 l35 -75 3 -335 c3 -272 0 -383 -17 -592 -20 -243 -24 -326 -16
-303 2 6 14 127 26 270 23 263 32 813 15 895 -5 26 -4 31 3 20 12 -17 106
-294 132 -390 9 -36 18 -55 18 -44 1 12 -10 59 -23 105 -13 46 -38 136 -55
201 -40 150 -72 238 -133 368 -27 58 -74 173 -105 255 -30 83 -83 211 -118
285 -86 184 -374 767 -374 758 -1 -10 49 -117 186 -398 184 -375 247 -512 286
-623 20 -53 34 -97 32 -97 -2 0 -18 24 -35 53 -61 98 -188 254 -410 501 -318
353 -516 667 -618 977 -47 145 -110 417 -117 508 -3 35 -9 79 -14 99 -33 125
-45 600 -22 837 24 252 98 675 146 840 l15 50 -5 -55 c-26 -281 -31 -562 -15
-800 12 -177 36 -382 55 -470 15 -70 15 -60 -15 165 -54 420 -52 774 5 1215
20 155 151 650 171 650 4 0 4 -7 1 -15 -12 -29 -57 -365 -72 -531 -15 -174
-19 -582 -6 -779 3 -55 6 80 6 300 0 417 6 503 56 830 48 320 80 425 205 676
143 287 341 567 539 759 l67 65 -67 -102 c-67 -104 -169 -306 -224 -446 -40
-101 -116 -361 -146 -502 -53 -244 -107 -643 -104 -767 1 -30 7 8 15 87 65
657 214 1189 442 1570 62 104 160 231 222 289 83 77 262 204 403 288 120 71
354 184 363 175 3 -2 -19 -20 -48 -38 -216 -138 -459 -392 -636 -664 -63 -98
-192 -333 -192 -351 0 -5 28 43 61 106 158 298 377 577 597 761 244 203 424
288 725 339 156 26 218 26 242 0 17 -19 17 -20 -1 -26 -226 -80 -456 -256
-693 -529 -96 -111 -252 -325 -237 -325 3 0 29 35 59 78 224 317 518 593 762
714 112 56 139 63 185 44 22 -9 66 -18 97 -21 l58 -5 -72 20 c-95 25 -153 56
-153 82 0 31 283 106 486 128 113 12 218 1 429 -45 174 -38 203 -38 55 0 -330
84 -492 95 -710 49z m1267 -5206 c-3 -13 -8 -61 -11 -108 l-5 -85 15 100 c8
55 17 101 19 103 2 3 16 1 31 -2 21 -6 25 -11 20 -29 -8 -34 -44 -324 -50
-402 -5 -68 -5 -68 4 -15 5 30 18 129 30 220 25 201 27 210 43 210 39 -1 40
-10 13 -221 -14 -112 -28 -238 -30 -279 -6 -92 -3 -76 35 220 17 129 32 241
34 248 4 10 11 9 35 -3 34 -18 36 -29 20 -136 -11 -77 -70 -714 -69 -744 2
-48 10 16 34 275 31 331 54 550 60 568 7 20 47 -5 41 -26 -13 -44 -111 -938
-137 -1247 -13 -151 -13 -153 -27 -75 -85 483 -138 932 -149 1258 l-6 192 28
0 c23 0 26 -3 22 -22z m-611 -260 c-11 -204 -79 -814 -91 -827 -8 -7 -4 808 3
864 5 36 12 51 24 53 15 3 18 -8 21 -90 l3 -93 2 97 c2 80 5 99 20 107 9 6 19
11 21 11 2 0 1 -55 -3 -122z m-112 -958 l-7 -75 -9 55 c-4 30 -15 100 -23 155
-20 134 -83 650 -91 747 -6 67 -5 78 10 84 9 4 18 5 20 3 2 -2 9 -96 16 -209
12 -199 36 -426 39 -365 0 17 -3 66 -9 110 -5 44 -14 170 -20 279 -10 199 -9
215 22 216 4 0 9 -53 11 -117 l3 -118 2 122 c2 104 5 123 20 132 16 9 17 -17
20 -467 2 -262 0 -511 -4 -552z m-927 343 c-3 -10 -5 -4 -5 12 0 17 2 24 5 18
2 -7 2 -21 0 -30z m-30 -80 c-3 -43 -17 -116 -31 -163 -14 -47 -24 -71 -21
-55 2 17 11 80 20 140 19 133 24 155 32 155 3 0 3 -35 0 -77z m-37 -39 c-18
-129 -60 -377 -65 -382 -7 -8 -6 36 6 193 6 78 9 151 7 161 -2 11 -12 -84 -21
-211 -17 -218 -52 -445 -69 -445 -4 0 -9 37 -11 83 -2 50 -4 22 -5 -73 -3
-148 -26 -325 -32 -240 -2 19 -7 -21 -11 -90 -13 -193 -21 -206 -43 -66 -10
64 -21 115 -23 112 -2 -2 5 -69 16 -148 18 -125 19 -153 8 -225 -12 -82 -27
-120 -27 -69 0 35 -22 168 -27 163 -2 -2 4 -62 12 -133 11 -92 13 -151 7 -204
-6 -52 -10 -67 -15 -50 -3 14 -18 78 -32 143 -15 65 -29 116 -32 113 -3 -2 6
-53 21 -113 14 -59 30 -146 35 -192 13 -103 0 -138 -18 -49 -15 77 -61 231
-67 226 -2 -3 7 -42 20 -89 13 -46 27 -100 31 -119 3 -19 9 -44 12 -55 3 -11
3 -18 0 -15 -10 10 -188 573 -233 741 -43 159 -50 219 -25 219 5 0 15 -32 22
-70 17 -97 23 -81 8 23 -11 75 -11 88 3 104 8 10 18 26 21 36 4 9 11 17 17 17
5 0 10 7 10 16 0 8 11 31 24 51 l24 35 6 -43 c13 -97 14 -100 10 -19 -4 80 -2
88 24 125 l27 40 7 -105 c11 -149 17 -148 11 2 l-6 127 29 43 29 43 7 -80 c12
-126 16 -130 10 -8 -5 109 -4 112 24 160 l29 48 7 -75 c12 -119 17 -124 11
-10 -5 103 -4 106 24 150 16 25 38 59 49 75 l19 30 6 -70 5 -70 2 84 c2 82 3
86 40 130 21 25 48 61 61 79 13 18 25 31 27 29 2 -2 -1 -39 -6 -83z m-596
-1066 c21 -79 74 -251 116 -383 150 -462 160 -500 159 -606 l-1 -94 -23 110
c-28 138 -31 122 -6 -38 17 -104 20 -181 21 -517 2 -452 5 -586 19 -755 6 -66
15 -187 21 -270 18 -240 50 -469 111 -790 66 -350 194 -795 344 -1200 81 -218
95 -261 95 -292 0 -12 5 -22 12 -20 14 3 22 -34 42 -188 42 -314 43 -573 5
-1145 -6 -93 -9 -311 -6 -500 4 -308 6 -347 31 -485 15 -82 30 -161 33 -175 6
-24 5 -24 -13 -9 -10 10 -62 39 -114 65 -98 50 -156 60 -236 42 l-31 -7 -7 99
c-7 118 -47 342 -75 423 -35 100 -117 258 -202 387 -198 302 -348 592 -482
930 -170 432 -280 813 -376 1300 -48 247 -53 297 -37 404 16 104 26 133 26 73
0 -38 57 -383 85 -517 22 -108 77 -311 82 -306 2 2 -12 66 -32 142 -41 158
-107 518 -125 674 -9 88 -9 125 5 230 9 68 18 126 19 128 2 1 6 -37 10 -85 21
-276 63 -530 127 -773 35 -135 79 -273 85 -267 2 2 -5 29 -16 61 -22 64 -69
253 -105 421 -32 148 -51 280 -74 525 -19 191 -19 214 -6 340 9 74 20 201 25
282 21 320 30 465 30 502 0 22 2 37 5 35 2 -3 27 -169 55 -370 48 -342 114
-708 175 -967 15 -62 29 -111 31 -109 3 2 -11 71 -30 153 -54 234 -112 555
-168 937 l-53 352 3 365 c7 844 27 1258 63 1294 5 6 9 22 9 36 0 54 104 315
121 304 5 -3 9 4 9 16 0 12 7 35 17 53 l16 32 13 -30 c15 -35 19 -19 4 19 -7
20 -4 35 17 73 15 26 29 50 33 53 3 3 14 24 24 48 19 43 31 52 39 30 2 -7 2
-1 0 14 -4 25 23 88 37 88 4 0 23 -64 44 -142z m-1650 -2655 c29 -89 41 -164
61 -383 13 -147 14 -149 9 -40 -3 63 -9 153 -15 199 -5 46 -8 85 -6 88 9 9 98
-267 107 -332 28 -209 69 -710 89 -1090 7 -124 8 -135 9 -60 3 154 -43 791
-73 1030 -4 34 -4 36 5 16 29 -68 100 -508 125 -779 31 -338 36 -518 65 -2272
6 -322 13 -603 16 -626 5 -38 3 -43 -47 -95 -35 -35 -55 -49 -56 -39 -1 8 -16
157 -33 330 -22 233 -34 435 -45 775 -17 530 -29 703 -90 1315 -61 606 -71
742 -100 1285 -24 448 -39 667 -51 728 -10 51 4 27 30 -50z m2631 -2450 c13
-39 47 -126 75 -193 27 -68 50 -128 50 -134 0 -6 10 -29 21 -51 24 -45 70
-170 72 -196 1 -10 4 -16 7 -14 9 6 151 -435 150 -467 0 -42 -55 -184 -100
-259 -52 -88 -152 -179 -236 -215 -35 -15 -67 -24 -71 -21 -8 9 25 662 39 762
20 143 -8 767 -38 850 -4 11 -4 17 -1 14 4 -3 18 -37 32 -76z m1091 -793 c9
-47 34 -160 56 -251 40 -171 54 -204 157 -365 56 -89 77 -223 50 -330 -13 -49
-16 -52 -66 -57 -17 -2 -39 -9 -47 -17 -24 -19 -21 5 6 49 16 25 17 32 6 23
-21 -17 -62 -125 -86 -227 l-19 -80 -12 40 c-79 277 -124 786 -102 1153 7 108
15 215 19 237 6 39 6 38 14 -25 5 -36 15 -103 24 -150z m-658 -451 l22 -90
-47 -62 c-41 -54 -199 -250 -241 -299 -8 -10 -12 -18 -9 -18 8 0 212 241 257
303 18 26 37 47 42 47 26 0 -2 -61 -82 -173 -95 -135 -143 -207 -136 -207 2 0
52 69 111 153 60 83 111 156 115 160 5 5 13 -13 18 -39 10 -46 9 -50 -23 -94
-26 -36 -82 -125 -152 -242 -2 -5 -2 -8 0 -8 2 0 41 58 86 130 45 71 86 132
91 135 5 3 14 -12 20 -34 10 -37 8 -43 -38 -118 -65 -106 -114 -193 -109 -193
3 0 38 54 77 120 40 66 77 120 81 120 5 0 9 -12 10 -27 0 -16 3 -41 7 -58 3
-16 6 -54 7 -82 0 -29 4 -53 9 -53 5 0 6 -92 3 -207 -4 -179 -10 -238 -41
-421 -41 -238 -70 -356 -116 -482 -35 -94 -120 -270 -131 -270 -4 0 -10 12
-13 28 -4 15 -34 83 -66 152 -88 185 -97 226 -80 386 15 150 9 215 -26 299
-14 33 -32 76 -39 96 -25 65 -57 330 -62 515 l-6 180 44 13 c75 22 117 49 195
123 79 75 139 165 170 256 10 28 21 52 24 52 3 0 16 -41 28 -91z"/>
<path d="M9681 14834 c0 -11 3 -14 6 -6 3 7 2 16 -1 19 -3 4 -6 -2 -5 -13z"/>
<path d="M9742 14490 c0 -19 2 -27 5 -17 2 9 2 25 0 35 -3 9 -5 1 -5 -18z"/>
<path d="M8953 15035 c0 -27 2 -38 4 -22 2 15 2 37 0 50 -2 12 -4 0 -4 -28z"/>
<path d="M8853 14575 c0 -27 2 -38 4 -22 2 15 2 37 0 50 -2 12 -4 0 -4 -28z"/>
<path d="M8862 14470 c0 -19 2 -27 5 -17 2 9 2 25 0 35 -3 9 -5 1 -5 -18z"/>
<path d="M7733 14025 c0 -33 2 -45 4 -27 2 18 2 45 0 60 -2 15 -4 0 -4 -33z"/>
<path d="M7402 13745 c-1 -16 5 -61 12 -100 8 -38 14 -59 14 -45 0 14 -5 59
-13 100 -7 41 -13 62 -13 45z"/>
<path d="M7471 13704 c0 -11 3 -14 6 -6 3 7 2 16 -1 19 -3 4 -6 -2 -5 -13z"/>
<path d="M7693 13645 c0 -22 2 -30 4 -17 2 12 2 30 0 40 -3 9 -5 -1 -4 -23z"/>
<path d="M7432 13550 c0 -14 2 -19 5 -12 2 6 2 18 0 25 -3 6 -5 1 -5 -13z"/>
<path d="M7361 13504 c0 -11 3 -14 6 -6 3 7 2 16 -1 19 -3 4 -6 -2 -5 -13z"/>
<path d="M7441 13494 c0 -11 3 -14 6 -6 3 7 2 16 -1 19 -3 4 -6 -2 -5 -13z"/>
<path d="M7521 13184 c0 -11 3 -14 6 -6 3 7 2 16 -1 19 -3 4 -6 -2 -5 -13z"/>
<path d="M7531 13144 c0 -11 3 -14 6 -6 3 7 2 16 -1 19 -3 4 -6 -2 -5 -13z"/>
<path d="M7231 13420 c0 -8 4 -24 9 -35 5 -13 9 -14 9 -5 0 8 -4 24 -9 35 -5
13 -9 14 -9 5z"/>
<path d="M7170 13368 c1 -14 89 -270 89 -262 1 15 -79 264 -84 264 -3 0 -5 -1
-5 -2z"/>
<path d="M7251 13350 c0 -8 4 -24 9 -35 5 -13 9 -14 9 -5 0 8 -4 24 -9 35 -5
13 -9 14 -9 5z"/>
<path d="M7272 13275 c18 -74 93 -315 96 -307 3 10 -87 314 -96 322 -3 3 -3
-4 0 -15z"/>
<path d="M7121 13184 c0 -11 3 -14 6 -6 3 7 2 16 -1 19 -3 4 -6 -2 -5 -13z"/>
<path d="M7131 13144 c0 -11 3 -14 6 -6 3 7 2 16 -1 19 -3 4 -6 -2 -5 -13z"/>
<path d="M7061 13142 c-1 -18 53 -206 56 -196 2 5 -10 54 -26 109 -16 55 -30
94 -30 87z"/>
<path d="M7145 13090 c8 -51 67 -271 72 -267 2 2 -15 71 -37 153 -22 82 -38
133 -35 114z"/>
<path d="M7261 13074 c0 -11 3 -14 6 -6 3 7 2 16 -1 19 -3 4 -6 -2 -5 -13z"/>
<path d="M7271 13034 c0 -11 3 -14 6 -6 3 7 2 16 -1 19 -3 4 -6 -2 -5 -13z"/>
<path d="M7371 12940 c0 -8 4 -24 9 -35 5 -13 9 -14 9 -5 0 8 -4 24 -9 35 -5
13 -9 14 -9 5z"/>
<path d="M7391 12864 c0 -11 3 -14 6 -6 3 7 2 16 -1 19 -3 4 -6 -2 -5 -13z"/>
<path d="M7400 12836 c0 -17 43 -176 47 -173 4 5 -36 169 -43 176 -2 2 -4 1
-4 -3z"/>
<path d="M6933 12650 c0 -47 2 -66 4 -42 2 23 2 61 0 85 -2 23 -4 4 -4 -43z"/>
<path d="M7061 12644 c0 -11 3 -14 6 -6 3 7 2 16 -1 19 -3 4 -6 -2 -5 -13z"/>
<path d="M7451 12634 c0 -11 3 -14 6 -6 3 7 2 16 -1 19 -3 4 -6 -2 -5 -13z"/>
<path d="M7072 12600 c0 -14 2 -19 5 -12 2 6 2 18 0 25 -3 6 -5 1 -5 -13z"/>
<path d="M7461 12594 c0 -11 3 -14 6 -6 3 7 2 16 -1 19 -3 4 -6 -2 -5 -13z"/>
<path d="M7521 12574 c0 -11 3 -14 6 -6 3 7 2 16 -1 19 -3 4 -6 -2 -5 -13z"/>
<path d="M7082 12550 c0 -14 2 -19 5 -12 2 6 2 18 0 25 -3 6 -5 1 -5 -13z"/>
<path d="M7472 12555 c0 -11 4 -31 8 -45 6 -20 8 -21 8 -5 0 11 -4 31 -8 45
-6 20 -8 21 -8 5z"/>
<path d="M6947 12420 c3 -80 9 -176 13 -215 13 -129 10 14 -5 195 l-14 165 6
-145z"/>
<path d="M7092 12500 c0 -14 2 -19 5 -12 2 6 2 18 0 25 -3 6 -5 1 -5 -13z"/>
<path d="M7492 12460 c0 -14 2 -19 5 -12 2 6 2 18 0 25 -3 6 -5 1 -5 -13z"/>
<path d="M7101 12444 c0 -11 3 -14 6 -6 3 7 2 16 -1 19 -3 4 -6 -2 -5 -13z"/>
<path d="M7431 12434 c0 -11 3 -14 6 -6 3 7 2 16 -1 19 -3 4 -6 -2 -5 -13z"/>
<path d="M7502 12410 c0 -14 2 -19 5 -12 2 6 2 18 0 25 -3 6 -5 1 -5 -13z"/>
<path d="M7441 12394 c0 -11 3 -14 6 -6 3 7 2 16 -1 19 -3 4 -6 -2 -5 -13z"/>
<path d="M7512 12360 c0 -14 2 -19 5 -12 2 6 2 18 0 25 -3 6 -5 1 -5 -13z"/>
<path d="M7451 12354 c0 -11 3 -14 6 -6 3 7 2 16 -1 19 -3 4 -6 -2 -5 -13z"/>
<path d="M7341 12324 c0 -11 3 -14 6 -6 3 7 2 16 -1 19 -3 4 -6 -2 -5 -13z"/>
<path d="M7461 12314 c0 -11 3 -14 6 -6 3 7 2 16 -1 19 -3 4 -6 -2 -5 -13z"/>
<path d="M7522 12320 c-1 -8 5 -42 12 -75 8 -33 14 -49 14 -35 0 28 -25 133
-26 110z"/>
<path d="M7552 12160 c0 -14 2 -19 5 -12 2 6 2 18 0 25 -3 6 -5 1 -5 -13z"/>
<path d="M6971 12089 c0 -24 5 -66 9 -94 6 -37 7 -26 3 40 -6 94 -14 130 -12
54z"/>
<path d="M7401 12054 c0 -11 3 -14 6 -6 3 7 2 16 -1 19 -3 4 -6 -2 -5 -13z"/>
<path d="M6872 12020 c0 -19 2 -27 5 -17 2 9 2 25 0 35 -3 9 -5 1 -5 -18z"/>
<path d="M7410 12024 c0 -21 75 -345 78 -336 1 5 -14 83 -34 173 -32 147 -44
191 -44 163z"/>
<path d="M6883 11915 c0 -27 2 -38 4 -22 2 15 2 37 0 50 -2 12 -4 0 -4 -28z"/>
<path d="M6992 11915 c0 -16 3 -50 7 -75 6 -33 9 -37 9 -15 0 17 -3 50 -7 75
-6 33 -9 37 -9 15z"/>
<path d="M6893 11815 c0 -27 3 -81 7 -120 7 -68 7 -69 7 -15 0 30 -3 84 -7
120 -7 61 -7 62 -7 15z"/>
<path d="M7012 11760 c0 -19 2 -27 5 -17 2 9 2 25 0 35 -3 9 -5 1 -5 -18z"/>
<path d="M7022 11685 c0 -16 2 -22 5 -12 2 9 2 23 0 30 -3 6 -5 -1 -5 -18z"/>
<path d="M7492 11650 c0 -14 2 -19 5 -12 2 6 2 18 0 25 -3 6 -5 1 -5 -13z"/>
<path d="M7032 11610 c0 -14 2 -19 5 -12 2 6 2 18 0 25 -3 6 -5 1 -5 -13z"/>
<path d="M6916 11545 c10 -154 99 -713 112 -701 2 2 -12 96 -32 208 -20 111
-47 286 -61 388 -14 102 -22 149 -19 105z"/>
<path d="M7502 11600 c33 -167 52 -250 55 -246 6 6 -46 259 -54 266 -3 3 -4
-6 -1 -20z"/>
<path d="M7411 11564 c0 -11 3 -14 6 -6 3 7 2 16 -1 19 -3 4 -6 -2 -5 -13z"/>
<path d="M7042 11540 c0 -14 2 -19 5 -12 2 6 2 18 0 25 -3 6 -5 1 -5 -13z"/>
<path d="M7421 11504 c0 -11 3 -14 6 -6 3 7 2 16 -1 19 -3 4 -6 -2 -5 -13z"/>
<path d="M7052 11480 c0 -14 2 -19 5 -12 2 6 2 18 0 25 -3 6 -5 1 -5 -13z"/>
<path d="M7432 11440 c0 -14 2 -19 5 -12 2 6 2 18 0 25 -3 6 -5 1 -5 -13z"/>
<path d="M7062 11420 c0 -14 2 -19 5 -12 2 6 2 18 0 25 -3 6 -5 1 -5 -13z"/>
<path d="M7442 11380 c0 -14 2 -19 5 -12 2 6 2 18 0 25 -3 6 -5 1 -5 -13z"/>
<path d="M7072 11370 c0 -14 2 -19 5 -12 2 6 2 18 0 25 -3 6 -5 1 -5 -13z"/>
<path d="M7082 11320 c0 -14 2 -19 5 -12 2 6 2 18 0 25 -3 6 -5 1 -5 -13z"/>
<path d="M7451 11324 c0 -11 3 -14 6 -6 3 7 2 16 -1 19 -3 4 -6 -2 -5 -13z"/>
<path d="M7561 11324 c0 -11 3 -14 6 -6 3 7 2 16 -1 19 -3 4 -6 -2 -5 -13z"/>
<path d="M7091 11274 c0 -11 3 -14 6 -6 3 7 2 16 -1 19 -3 4 -6 -2 -5 -13z"/>
<path d="M7551 10834 c0 -11 3 -14 6 -6 3 7 2 16 -1 19 -3 4 -6 -2 -5 -13z"/>
<path d="M7032 10810 c0 -14 2 -19 5 -12 2 6 2 18 0 25 -3 6 -5 1 -5 -13z"/>
<path d="M7041 10754 c0 -11 3 -14 6 -6 3 7 2 16 -1 19 -3 4 -6 -2 -5 -13z"/>
<path d="M7052 10710 c0 -14 2 -19 5 -12 2 6 2 18 0 25 -3 6 -5 1 -5 -13z"/>
<path d="M7061 10664 c0 -11 3 -14 6 -6 3 7 2 16 -1 19 -3 4 -6 -2 -5 -13z"/>
<path d="M7071 10624 c0 -11 3 -14 6 -6 3 7 2 16 -1 19 -3 4 -6 -2 -5 -13z"/>
<path d="M7081 10584 c0 -11 3 -14 6 -6 3 7 2 16 -1 19 -3 4 -6 -2 -5 -13z"/>
<path d="M6813 10470 c0 -30 2 -43 4 -27 2 15 2 39 0 55 -2 15 -4 2 -4 -28z"/>
<path d="M6821 10367 c-2 -72 46 -454 56 -444 2 3 -3 54 -12 113 -9 60 -22
168 -29 239 -8 72 -14 113 -15 92z"/>
<path d="M7541 10054 c0 -11 3 -14 6 -6 3 7 2 16 -1 19 -3 4 -6 -2 -5 -13z"/>
<path d="M7551 10014 c0 -11 3 -14 6 -6 3 7 2 16 -1 19 -3 4 -6 -2 -5 -13z"/>
<path d="M6882 9890 c0 -14 2 -19 5 -12 2 6 2 18 0 25 -3 6 -5 1 -5 -13z"/>
<path d="M7111 9694 c0 -11 3 -14 6 -6 3 7 2 16 -1 19 -3 4 -6 -2 -5 -13z"/>
<path d="M7641 9624 c0 -11 3 -14 6 -6 3 7 2 16 -1 19 -3 4 -6 -2 -5 -13z"/>
<path d="M7651 9590 c0 -8 11 -58 24 -110 13 -52 22 -77 19 -55 -6 48 -42 187
-43 165z"/>
<path d="M7701 9364 c0 -11 3 -14 6 -6 3 7 2 16 -1 19 -3 4 -6 -2 -5 -13z"/>
<path d="M7711 9314 c0 -11 3 -14 6 -6 3 7 2 16 -1 19 -3 4 -6 -2 -5 -13z"/>
<path d="M7721 9264 c0 -11 3 -14 6 -6 3 7 2 16 -1 19 -3 4 -6 -2 -5 -13z"/>
<path d="M7732 9220 c0 -14 2 -19 5 -12 2 6 2 18 0 25 -3 6 -5 1 -5 -13z"/>
<path d="M7741 9179 c-1 -9 13 -83 29 -165 109 -536 165 -913 260 -1744 38
-331 47 -399 49 -359 3 52 -106 966 -150 1265 -47 324 -185 1058 -188 1003z"/>
<path d="M7431 9114 c0 -11 3 -14 6 -6 3 7 2 16 -1 19 -3 4 -6 -2 -5 -13z"/>
<path d="M7871 9114 c0 -11 3 -14 6 -6 3 7 2 16 -1 19 -3 4 -6 -2 -5 -13z"/>
<path d="M7882 9075 c0 -11 6 -42 13 -70 7 -27 13 -41 13 -30 0 11 -6 43 -13
70 -7 28 -13 41 -13 30z"/>
<path d="M7442 9060 c0 -14 2 -19 5 -12 2 6 2 18 0 25 -3 6 -5 1 -5 -13z"/>
<path d="M8001 8994 c0 -11 3 -14 6 -6 3 7 2 16 -1 19 -3 4 -6 -2 -5 -13z"/>
<path d="M8010 8967 c0 -5 20 -127 69 -422 l10 -60 -5 64 c-6 74 -62 412 -69
420 -3 2 -5 2 -5 -2z"/>
<path d="M7912 8930 c0 -14 2 -19 5 -12 2 6 2 18 0 25 -3 6 -5 1 -5 -13z"/>
<path d="M7922 8880 c0 -14 2 -19 5 -12 2 6 2 18 0 25 -3 6 -5 1 -5 -13z"/>
<path d="M6931 8834 c-1 -15 40 -136 45 -131 2 2 -7 35 -20 73 -14 38 -25 64
-25 58z"/>
<path d="M7931 8824 c0 -11 3 -14 6 -6 3 7 2 16 -1 19 -3 4 -6 -2 -5 -13z"/>
<path d="M7511 8704 c0 -11 3 -14 6 -6 3 7 2 16 -1 19 -3 4 -6 -2 -5 -13z"/>
<path d="M7521 8664 c0 -11 3 -14 6 -6 3 7 2 16 -1 19 -3 4 -6 -2 -5 -13z"/>
<path d="M7531 8630 c0 -8 6 -37 13 -65 8 -27 15 -43 15 -35 0 8 -6 38 -13 65
-8 28 -15 43 -15 35z"/>
<path d="M8172 8510 c0 -19 2 -27 5 -17 2 9 2 25 0 35 -3 9 -5 1 -5 -18z"/>
<path d="M7561 8494 c0 -11 3 -14 6 -6 3 7 2 16 -1 19 -3 4 -6 -2 -5 -13z"/>
<path d="M8093 8445 c0 -22 2 -30 4 -17 2 12 2 30 0 40 -3 9 -5 -1 -4 -23z"/>
<path d="M7571 8454 c0 -11 3 -14 6 -6 3 7 2 16 -1 19 -3 4 -6 -2 -5 -13z"/>
<path d="M8180 8459 c-1 -43 35 -441 38 -426 4 21 -28 430 -34 436 -2 2 -4 -2
-4 -10z"/>
<path d="M7581 8414 c0 -11 3 -14 6 -6 3 7 2 16 -1 19 -3 4 -6 -2 -5 -13z"/>
<path d="M7431 8394 c-2 -22 90 -307 179 -554 193 -538 296 -849 397 -1204 31
-110 58 -195 60 -190 7 20 -139 511 -243 824 -58 173 -152 443 -209 600 -57
157 -121 341 -143 410 -22 69 -41 120 -41 114z"/>
<path d="M8101 8375 c0 -16 4 -62 9 -100 23 -181 43 -464 50 -715 l8 -275 -3
295 c-3 281 -17 494 -49 725 -8 55 -14 87 -15 70z"/>
<path d="M7771 8354 c0 -11 3 -14 6 -6 3 7 2 16 -1 19 -3 4 -6 -2 -5 -13z"/>
<path d="M7781 8314 c0 -11 3 -14 6 -6 3 7 2 16 -1 19 -3 4 -6 -2 -5 -13z"/>
<path d="M7791 8274 c0 -11 3 -14 6 -6 3 7 2 16 -1 19 -3 4 -6 -2 -5 -13z"/>
<path d="M7072 8265 c0 -5 6 -26 13 -45 7 -19 14 -28 14 -20 0 8 -6 29 -14 45
-7 17 -13 26 -13 20z"/>
<path d="M7641 8184 c0 -11 3 -14 6 -6 3 7 2 16 -1 19 -3 4 -6 -2 -5 -13z"/>
<path d="M7652 8150 c0 -8 6 -31 13 -50 7 -19 13 -28 13 -20 0 8 -6 31 -13 50
-7 19 -13 28 -13 20z"/>
<path d="M7691 8014 c0 -11 3 -14 6 -6 3 7 2 16 -1 19 -3 4 -6 -2 -5 -13z"/>
<path d="M7151 8017 c-2 -15 67 -174 144 -335 71 -147 162 -319 262 -492 77
-135 45 -63 -51 113 -111 205 -229 439 -289 574 -65 148 -66 149 -66 140z"/>
<path d="M7270 7958 c0 -11 34 -85 199 -432 240 -501 290 -617 382 -896 32
-96 58 -171 58 -165 1 5 -20 77 -45 160 -49 161 -118 335 -219 560 -93 206
-374 785 -375 773z"/>
<path d="M7871 7894 c0 -11 3 -14 6 -6 3 7 2 16 -1 19 -3 4 -6 -2 -5 -13z"/>
<path d="M7881 7844 c0 -11 3 -14 6 -6 3 7 2 16 -1 19 -3 4 -6 -2 -5 -13z"/>
<path d="M7892 7800 c0 -14 2 -19 5 -12 2 6 2 18 0 25 -3 6 -5 1 -5 -13z"/>
<path d="M7761 7770 c0 -8 4 -24 9 -35 5 -13 9 -14 9 -5 0 8 -4 24 -9 35 -5
13 -9 14 -9 5z"/>
<path d="M7901 7754 c0 -11 3 -14 6 -6 3 7 2 16 -1 19 -3 4 -6 -2 -5 -13z"/>
<path d="M7912 7710 c0 -14 2 -19 5 -12 2 6 2 18 0 25 -3 6 -5 1 -5 -13z"/>
<path d="M7921 7664 c0 -11 3 -14 6 -6 3 7 2 16 -1 19 -3 4 -6 -2 -5 -13z"/>
<path d="M7560 7535 c0 -5 5 -17 10 -25 5 -8 10 -10 10 -5 0 6 -5 17 -10 25
-5 8 -10 11 -10 5z"/>
<path d="M7630 7365 c0 -5 5 -17 10 -25 5 -8 10 -10 10 -5 0 6 -5 17 -10 25
-5 8 -10 11 -10 5z"/>
<path d="M7654 7310 c9 -32 39 -101 43 -97 2 3 -8 29 -22 58 -14 30 -23 47
-21 39z"/>
<path d="M8082 6840 c0 -14 2 -19 5 -12 2 6 2 18 0 25 -3 6 -5 1 -5 -13z"/>
<path d="M8091 6764 c0 -11 3 -14 6 -6 3 7 2 16 -1 19 -3 4 -6 -2 -5 -13z"/>
<path d="M8101 6694 c0 -11 3 -14 6 -6 3 7 2 16 -1 19 -3 4 -6 -2 -5 -13z"/>
<path d="M8112 6630 c0 -14 2 -19 5 -12 2 6 2 18 0 25 -3 6 -5 1 -5 -13z"/>
<path d="M8121 6574 c0 -11 3 -14 6 -6 3 7 2 16 -1 19 -3 4 -6 -2 -5 -13z"/>
<path d="M8131 6514 c0 -11 3 -14 6 -6 3 7 2 16 -1 19 -3 4 -6 -2 -5 -13z"/>
<path d="M8071 6414 c0 -11 3 -14 6 -6 3 7 2 16 -1 19 -3 4 -6 -2 -5 -13z"/>
<path d="M8101 6294 c0 -11 3 -14 6 -6 3 7 2 16 -1 19 -3 4 -6 -2 -5 -13z"/>
<path d="M8111 6254 c0 -11 3 -14 6 -6 3 7 2 16 -1 19 -3 4 -6 -2 -5 -13z"/>
<path d="M8121 6204 c0 -11 3 -14 6 -6 3 7 2 16 -1 19 -3 4 -6 -2 -5 -13z"/>
<path d="M5733 10160 c0 -36 2 -50 4 -32 2 17 2 47 0 65 -2 17 -4 3 -4 -33z"/>
<path d="M5742 10030 c0 -30 6 -136 13 -235 l14 -180 -6 145 c-6 178 -20 351
-21 270z"/>
<path d="M5773 9535 c0 -44 2 -61 4 -37 2 23 2 59 0 80 -2 20 -4 1 -4 -43z"/>
<path d="M5783 9375 c0 -38 2 -53 4 -32 2 20 2 52 0 70 -2 17 -4 1 -4 -38z"/>
<path d="M5792 9235 c0 -16 2 -22 5 -12 2 9 2 23 0 30 -3 6 -5 -1 -5 -18z"/>
<path d="M5901 7550 c-3 -129 62 -1123 68 -1020 0 14 -6 120 -14 235 -8 116
-21 341 -30 500 -16 300 -21 362 -24 285z"/>
<path d="M5972 6475 c0 -16 2 -22 5 -12 2 9 2 23 0 30 -3 6 -5 -1 -5 -18z"/>
<path d="M8362 8015 c0 -16 3 -50 7 -75 6 -33 9 -37 9 -15 0 17 -3 50 -7 75
-6 33 -9 37 -9 15z"/>
<path d="M8333 7985 c0 -27 2 -38 4 -22 2 15 2 37 0 50 -2 12 -4 0 -4 -28z"/>
<path d="M8383 7855 c0 -22 2 -30 4 -17 2 12 2 30 0 40 -3 9 -5 -1 -4 -23z"/>
<path d="M8432 7850 c0 -14 2 -19 5 -12 2 6 2 18 0 25 -3 6 -5 1 -5 -13z"/>
<path d="M8333 7815 c0 -22 2 -30 4 -17 2 12 2 30 0 40 -3 9 -5 -1 -4 -23z"/>
<path d="M8442 7785 c0 -16 2 -22 5 -12 2 9 2 23 0 30 -3 6 -5 -1 -5 -18z"/>
<path d="M8392 7770 c0 -19 2 -27 5 -17 2 9 2 25 0 35 -3 9 -5 1 -5 -18z"/>
<path d="M8344 7665 c0 -49 1 -71 3 -48 2 23 2 64 0 90 -2 26 -3 8 -3 -42z"/>
<path d="M8452 7700 c0 -19 2 -27 5 -17 2 9 2 25 0 35 -3 9 -5 1 -5 -18z"/>
<path d="M8402 7670 c0 -19 2 -27 5 -17 2 9 2 25 0 35 -3 9 -5 1 -5 -18z"/>
<path d="M8463 7625 c0 -22 2 -30 4 -17 2 12 2 30 0 40 -3 9 -5 -1 -4 -23z"/>
<path d="M8413 7565 c0 -22 2 -30 4 -17 2 12 2 30 0 40 -3 9 -5 -1 -4 -23z"/>
<path d="M8472 7545 c0 -22 6 -87 13 -145 7 -58 12 -87 13 -65 0 22 -6 87 -13
145 -7 58 -12 87 -13 65z"/>
<path d="M8562 7350 c0 -14 2 -19 5 -12 2 6 2 18 0 25 -3 6 -5 1 -5 -13z"/>
<path d="M8571 7294 c0 -11 3 -14 6 -6 3 7 2 16 -1 19 -3 4 -6 -2 -5 -13z"/>
<path d="M8293 7205 c0 -44 2 -61 4 -37 2 23 2 59 0 80 -2 20 -4 1 -4 -43z"/>
<path d="M8503 7230 c0 -25 2 -35 4 -22 2 12 2 32 0 45 -2 12 -4 2 -4 -23z"/>
<path d="M8581 7234 c0 -11 3 -14 6 -6 3 7 2 16 -1 19 -3 4 -6 -2 -5 -13z"/>
<path d="M9391 7024 c0 -11 3 -14 6 -6 3 7 2 16 -1 19 -3 4 -6 -2 -5 -13z"/>
<path d="M8590 6890 c-17 -22 -29 -40 -27 -40 3 0 20 18 37 40 17 22 29 40 27
40 -3 0 -20 -18 -37 -40z"/>
<path d="M8484 6778 l-19 -23 23 19 c21 18 27 26 19 26 -2 0 -12 -10 -23 -22z"/>
<path d="M8495 6534 c-9 -15 -12 -23 -6 -20 11 7 35 46 28 46 -3 0 -12 -12
-22 -26z"/>
<path d="M8726 6409 c-15 -34 -25 -63 -23 -66 2 -2 16 24 31 58 15 34 25 63
23 66 -2 2 -16 -24 -31 -58z"/>
<path d="M8806 6415 c-9 -26 -7 -32 5 -12 6 10 9 21 6 23 -2 3 -7 -2 -11 -11z"/>
<path d="M8776 6340 c-22 -56 -19 -65 5 -11 11 24 18 46 15 48 -2 2 -11 -14
-20 -37z"/>
<path d="M8686 6315 c-9 -26 -7 -32 5 -12 6 10 9 21 6 23 -2 3 -7 -2 -11 -11z"/>
<path d="M8726 6209 c-15 -39 -25 -73 -23 -76 2 -2 16 29 31 69 14 39 24 73
22 75 -2 2 -15 -29 -30 -68z"/>
<path d="M8686 6105 c-3 -9 -6 -22 -5 -28 0 -7 5 -1 10 12 5 13 8 26 5 28 -2
2 -6 -3 -10 -12z"/>
<path d="M9660 20580 c264 -12 460 -43 849 -135 286 -67 295 -62 15 10 -139
35 -334 78 -435 96 -161 28 -210 32 -394 34 l-210 3 175 -8z"/>
<path d="M8297 20390 c-197 -100 -391 -275 -571 -515 -71 -95 -106 -147 -185
-275 -39 -64 7 -1 85 115 204 307 415 516 656 653 100 56 109 70 15 22z"/>
<path d="M10825 20375 c28 -7 59 -13 70 -13 11 0 -2 6 -30 13 -27 7 -59 13
-70 13 -11 0 3 -6 30 -13z"/>
<path d="M10928 20353 c6 -2 18 -2 25 0 6 3 1 5 -13 5 -14 0 -19 -2 -12 -5z"/>
<path d="M9330 20339 c-41 -4 -100 -13 -130 -18 l-55 -10 60 5 c154 13 498 15
601 5 132 -14 327 -53 408 -81 33 -11 61 -18 64 -16 7 8 -187 64 -293 85 -55
11 -140 25 -190 31 -104 11 -355 11 -465 -1z"/>
<path d="M10988 20343 c7 -3 16 -2 19 1 4 3 -2 6 -13 5 -11 0 -14 -3 -6 -6z"/>
<path d="M9419 20254 c-153 -112 -391 -390 -488 -573 -26 -48 0 -16 43 54 107
170 289 379 430 492 91 73 91 73 84 73 -3 0 -34 -21 -69 -46z"/>
<path d="M9669 20211 c-151 -185 -306 -468 -450 -823 -64 -158 -209 -571 -208
-591 0 -7 31 78 70 188 199 572 389 963 586 1208 30 38 53 70 51 71 -1 2 -24
-22 -49 -53z"/>
<path d="M9180 20208 c-89 -56 -297 -269 -401 -408 -97 -130 -211 -309 -286
-450 -62 -115 -176 -360 -170 -366 2 -2 28 49 57 114 115 250 253 486 399 682
103 139 302 345 391 408 36 25 69 49 75 54 21 18 -4 6 -65 -34z"/>
<path d="M10050 20158 c-64 -219 -193 -592 -304 -877 -31 -79 -55 -145 -53
-147 8 -8 180 438 263 681 64 187 127 405 119 413 -2 2 -13 -29 -25 -70z"/>
<path d="M8727 20078 c-163 -232 -403 -726 -517 -1068 -121 -364 -210 -775
-254 -1170 -19 -170 -39 -461 -34 -486 2 -10 7 31 11 91 42 624 158 1190 348
1696 119 318 331 745 483 972 37 54 6 25 -37 -35z"/>
<path d="M10849 19897 c35 -43 38 -70 16 -164 -18 -76 -203 -535 -329 -817
-14 -33 -25 -61 -23 -63 13 -13 328 748 358 866 28 110 26 134 -17 179 l-37
37 32 -38z"/>
<path d="M10336 19429 c-9 -34 -15 -63 -13 -66 2 -2 12 24 21 58 10 33 16 63
13 65 -2 2 -11 -24 -21 -57z"/>
<path d="M10296 19292 c-59 -190 -235 -600 -391 -912 -42 -85 -72 -150 -67
-145 13 12 182 351 250 501 96 210 242 597 230 610 -3 2 -12 -22 -22 -54z"/>
<path d="M6406 19195 c-9 -26 -7 -32 5 -12 6 10 9 21 6 23 -2 3 -7 -2 -11 -11z"/>
<path d="M11080 19019 c-45 -67 -106 -170 -135 -230 -76 -150 -196 -411 -192
-415 2 -2 55 103 118 233 95 198 214 411 285 511 9 12 14 22 11 22 -3 0 -42
-55 -87 -121z"/>
<path d="M9676 19105 c-9 -26 -7 -32 5 -12 6 10 9 21 6 23 -2 3 -7 -2 -11 -11z"/>
<path d="M9652 19045 c-17 -37 -14 -45 4 -12 9 16 14 31 11 33 -2 2 -9 -7 -15
-21z"/>
<path d="M8291 18909 c-6 -18 -9 -34 -7 -36 2 -2 9 10 15 28 6 18 9 34 7 36
-2 2 -9 -10 -15 -28z"/>
<path d="M8251 18799 c-11 -34 -19 -64 -17 -66 2 -2 13 24 25 58 11 34 19 64
17 66 -2 2 -13 -24 -25 -58z"/>
<path d="M10467 18764 c-20 -41 -37 -78 -37 -82 1 -4 19 28 41 72 22 43 39 80
37 82 -2 2 -21 -30 -41 -72z"/>
<path d="M8986 18724 c-4 -14 -5 -28 -3 -31 3 -2 8 8 11 23 4 14 5 28 3 31 -3
2 -8 -8 -11 -23z"/>
<path d="M8936 18564 c-15 -47 -26 -87 -24 -89 2 -3 17 34 32 81 15 47 26 87
24 89 -2 3 -17 -34 -32 -81z"/>
<path d="M10425 18254 c-168 -368 -399 -754 -673 -1124 -149 -201 -412 -518
-614 -743 -54 -59 -98 -110 -98 -114 0 -4 6 -1 13 7 7 8 58 65 113 125 507
559 912 1122 1156 1608 68 136 169 359 165 364 -2 2 -30 -54 -62 -123z"/>
<path d="M10702 18274 c-18 -35 -32 -68 -32 -72 1 -4 17 24 36 62 19 37 34 70
32 72 -2 2 -18 -26 -36 -62z"/>
<path d="M8836 18234 c-10 -31 -16 -58 -14 -60 3 -2 12 21 22 52 10 31 16 58
14 60 -3 2 -12 -21 -22 -52z"/>
<path d="M8271 18264 c0 -11 3 -14 6 -6 3 7 2 16 -1 19 -3 4 -6 -2 -5 -13z"/>
<path d="M8236 18133 c-109 -434 -198 -979 -286 -1758 -46 -411 -89 -717 -126
-908 -33 -173 -116 -505 -159 -637 -36 -113 -78 -270 -73 -275 6 -7 131 400
173 565 98 387 137 625 215 1328 80 720 176 1325 266 1686 14 54 23 100 21
103 -2 2 -17 -45 -31 -104z"/>
<path d="M5883 17850 c0 -30 2 -43 4 -27 2 15 2 39 0 55 -2 15 -4 2 -4 -28z"/>
<path d="M6162 17735 c0 -16 2 -22 5 -12 2 9 2 23 0 30 -3 6 -5 -1 -5 -18z"/>
<path d="M6150 17669 c0 -13 -7 -89 -16 -169 -21 -204 -29 -724 -15 -940 35
-521 131 -1066 307 -1742 41 -161 104 -405 140 -542 55 -214 74 -280 74 -253
0 5 -68 286 -105 432 -257 1015 -340 1449 -397 2065 -18 206 -15 725 6 963 10
109 15 201 12 204 -3 4 -6 -5 -6 -18z"/>
<path d="M11600 17507 c-305 -202 -512 -376 -962 -811 -148 -144 -366 -352
-484 -464 -118 -112 -214 -206 -214 -209 0 -4 12 4 28 18 237 215 435 401 657
615 496 479 725 674 1010 864 44 29 84 57 90 61 25 23 -11 2 -125 -74z"/>
<path d="M8814 17043 c-26 -49 -71 -131 -99 -183 -316 -575 -491 -920 -651
-1282 -113 -255 -195 -451 -190 -455 2 -2 25 47 51 109 193 461 452 989 779
1588 114 208 167 310 162 310 -3 0 -26 -39 -52 -87z"/>
<path d="M10109 17083 l-24 -28 28 24 c15 14 27 26 27 28 0 8 -8 1 -31 -24z"/>
<path d="M5573 16990 c0 -30 2 -43 4 -27 2 15 2 39 0 55 -2 15 -4 2 -4 -28z"/>
<path d="M10054 17018 l-19 -23 23 19 c12 11 22 21 22 23 0 8 -8 2 -26 -19z"/>
<path d="M5582 16895 c0 -16 2 -22 5 -12 2 9 2 23 0 30 -3 6 -5 -1 -5 -18z"/>
<path d="M10214 16508 l-19 -23 23 19 c21 18 27 26 19 26 -2 0 -12 -10 -23
-22z"/>
<path d="M9585 16333 c-56 -52 -562 -491 -644 -558 -262 -215 -567 -498 -662
-614 -24 -30 33 22 126 115 94 94 298 280 455 414 487 417 808 702 789 700 -2
-1 -31 -26 -64 -57z"/>
<path d="M7102 16360 c0 -14 2 -19 5 -12 2 6 2 18 0 25 -3 6 -5 1 -5 -13z"/>
<path d="M5492 16350 c0 -14 2 -19 5 -12 2 6 2 18 0 25 -3 6 -5 1 -5 -13z"/>
<path d="M5321 16334 c0 -11 3 -14 6 -6 3 7 2 16 -1 19 -3 4 -6 -2 -5 -13z"/>
<path d="M5802 16305 c0 -16 2 -22 5 -12 2 9 2 23 0 30 -3 6 -5 -1 -5 -18z"/>
<path d="M5331 16294 c0 -11 3 -14 6 -6 3 7 2 16 -1 19 -3 4 -6 -2 -5 -13z"/>
<path d="M5501 16294 c0 -11 3 -14 6 -6 3 7 2 16 -1 19 -3 4 -6 -2 -5 -13z"/>
<path d="M5342 16255 c0 -11 3 -29 8 -40 11 -25 11 1 0 35 -6 20 -8 21 -8 5z"/>
<path d="M5812 16245 c0 -16 2 -22 5 -12 2 9 2 23 0 30 -3 6 -5 -1 -5 -18z"/>
<path d="M7113 16165 c0 -44 2 -61 4 -37 2 23 2 59 0 80 -2 20 -4 1 -4 -43z"/>
<path d="M5821 16199 c-1 -21 41 -230 69 -340 63 -247 199 -649 436 -1284 37
-99 104 -288 150 -420 46 -132 83 -233 83 -225 1 19 -144 443 -234 685 -314
848 -401 1124 -493 1555 -6 25 -10 38 -11 29z"/>
<path d="M5361 16174 c0 -11 3 -14 6 -6 3 7 2 16 -1 19 -3 4 -6 -2 -5 -13z"/>
<path d="M5371 16134 c0 -11 3 -14 6 -6 3 7 2 16 -1 19 -3 4 -6 -2 -5 -13z"/>
<path d="M5381 16094 c0 -11 3 -14 6 -6 3 7 2 16 -1 19 -3 4 -6 -2 -5 -13z"/>
<path d="M5391 16054 c0 -11 3 -14 6 -6 3 7 2 16 -1 19 -3 4 -6 -2 -5 -13z"/>
<path d="M7122 15525 c-1 -280 -6 -602 -11 -715 -12 -224 -12 -225 -42 -548
-11 -123 -19 -228 -17 -234 5 -13 32 235 48 422 30 364 44 951 32 1330 -8 241
-8 228 -10 -255z"/>
<path d="M5411 15984 c0 -11 3 -14 6 -6 3 7 2 16 -1 19 -3 4 -6 -2 -5 -13z"/>
<path d="M5421 15954 c-2 -23 120 -366 179 -504 92 -219 355 -720 377 -720 3
0 -8 21 -23 48 -85 142 -124 215 -209 387 -116 235 -180 388 -261 620 -35 99
-63 175 -63 169z"/>
<path d="M5342 15870 c0 -8 8 -37 18 -65 10 -27 18 -43 18 -35 0 8 -8 38 -18
65 -10 28 -18 43 -18 35z"/>
<path d="M5406 15665 c9 -50 123 -332 181 -450 64 -128 207 -381 235 -416 l20
-24 -18 30 c-145 240 -254 457 -349 700 -35 88 -66 167 -69 175 -3 8 -4 2 0
-15z"/>
<path d="M6452 15655 c0 -16 2 -22 5 -12 2 9 2 23 0 30 -3 6 -5 -1 -5 -18z"/>
<path d="M6461 15563 c-3 -96 64 -616 115 -890 47 -254 198 -862 211 -849 3 2
-16 78 -41 168 -115 412 -196 839 -256 1363 -16 132 -29 226 -29 208z"/>
<path d="M10353 15503 c15 -2 37 -2 50 0 12 2 0 4 -28 4 -27 0 -38 -2 -22 -4z"/>
<path d="M10453 15493 c9 -2 25 -2 35 0 9 3 1 5 -18 5 -19 0 -27 -2 -17 -5z"/>
<path d="M10533 15483 c9 -2 23 -2 30 0 6 3 -1 5 -18 5 -16 0 -22 -2 -12 -5z"/>
<path d="M10598 15473 c6 -2 18 -2 25 0 6 3 1 5 -13 5 -14 0 -19 -2 -12 -5z"/>
<path d="M9425 15310 c5 -162 43 -501 91 -815 60 -398 101 -682 130 -917 16
-125 30 -225 33 -223 10 10 -62 559 -144 1100 -45 294 -88 652 -105 870 l-9
120 4 -135z"/>
<path d="M8573 15321 c-165 -112 -252 -183 -368 -302 l-110 -113 120 115 c108
103 183 162 398 313 37 26 67 49 67 52 0 6 1 7 -107 -65z"/>
<path d="M7572 15330 c0 -14 2 -19 5 -12 2 6 2 18 0 25 -3 6 -5 1 -5 -13z"/>
<path d="M7527 15089 c-21 -116 -37 -212 -35 -215 6 -6 81 402 77 415 -2 6
-21 -84 -42 -200z"/>
<path d="M9101 15224 c0 -17 -17 -253 -36 -525 -19 -272 -34 -512 -34 -534 2
-50 20 169 54 663 14 211 24 393 22 405 -3 16 -5 14 -6 -9z"/>
<path d="M8653 15105 c0 -22 2 -30 4 -17 2 12 2 30 0 40 -3 9 -5 -1 -4 -23z"/>
<path d="M7856 15095 c-9 -26 -7 -32 5 -12 6 10 9 21 6 23 -2 3 -7 -2 -11 -11z"/>
<path d="M8662 15020 c0 -19 2 -27 5 -17 2 9 2 25 0 35 -3 9 -5 1 -5 -18z"/>
<path d="M7826 15015 c-9 -26 -7 -32 5 -12 6 10 9 21 6 23 -2 3 -7 -2 -11 -11z"/>
<path d="M7781 14899 c-17 -45 -30 -83 -28 -85 2 -2 18 33 36 77 17 45 30 83
28 85 -2 2 -18 -33 -36 -77z"/>
<path d="M8671 14955 c-1 -11 8 -94 19 -185 107 -882 124 -1093 141 -1705 5
-214 12 -391 14 -394 11 -11 -8 682 -26 949 -24 361 -48 599 -100 1015 -39
310 -47 362 -48 320z"/>
<path d="M7482 14840 c0 -14 2 -19 5 -12 2 6 2 18 0 25 -3 6 -5 1 -5 -13z"/>
<path d="M7431 14633 c-23 -98 -69 -276 -102 -397 -32 -120 -59 -221 -58 -225
0 -3 9 19 20 49 41 114 194 721 187 742 -2 5 -23 -71 -47 -169z"/>
<path d="M7676 14609 c-20 -56 -35 -104 -33 -106 2 -2 20 42 41 98 20 56 34
104 32 106 -2 2 -20 -42 -40 -98z"/>
<path d="M6015 14664 c10 -17 26 -41 37 -55 l20 -24 -17 31 c-10 17 -26 41
-37 55 l-20 24 17 -31z"/>
<path d="M10411 14518 c-119 -639 -153 -1225 -131 -2283 18 -904 -3 -1460 -86
-2265 -83 -802 -169 -1299 -320 -1833 -63 -225 -121 -472 -140 -602 -26 -172
-15 -445 25 -635 66 -317 130 -496 411 -1150 149 -348 203 -488 279 -725 165
-519 292 -1061 416 -1780 81 -471 171 -892 278 -1294 57 -215 75 -246 27 -45
-17 71 -42 183 -56 249 -76 367 -128 627 -163 826 -22 123 -61 341 -86 484
-97 547 -193 969 -310 1365 -110 375 -196 608 -405 1095 -140 326 -247 605
-284 740 -72 266 -102 485 -93 700 7 168 24 275 83 500 187 723 198 768 263
1140 86 482 160 1217 202 2010 8 136 11 416 8 735 -7 918 -3 1618 9 1805 22
322 52 657 71 795 22 155 34 280 28 280 -3 0 -14 -51 -26 -112z"/>
<path d="M7546 14423 c-63 -194 -104 -299 -181 -460 -41 -84 -72 -153 -70
-153 7 0 77 135 124 241 51 116 174 466 169 481 -2 5 -21 -44 -42 -109z"/>
<path d="M7566 14295 c-9 -26 -7 -32 5 -12 6 10 9 21 6 23 -2 3 -7 -2 -11 -11z"/>
<path d="M6132 14220 c0 -14 2 -19 5 -12 2 6 2 18 0 25 -3 6 -5 1 -5 -13z"/>
<path d="M6148 13998 c4 -172 -5 -358 -25 -508 -3 -25 -3 -43 0 -40 25 23 48
595 29 705 -4 22 -6 -49 -4 -157z"/>
<path d="M9023 14040 c0 -25 2 -35 4 -22 2 12 2 32 0 45 -2 12 -4 2 -4 -23z"/>
<path d="M6641 13994 c0 -11 3 -14 6 -6 3 7 2 16 -1 19 -3 4 -6 -2 -5 -13z"/>
<path d="M7042 13970 c0 -19 2 -27 5 -17 2 9 2 25 0 35 -3 9 -5 1 -5 -18z"/>
<path d="M7212 13853 c-28 -80 -50 -148 -49 -150 4 -4 92 227 102 270 16 60
-3 19 -53 -120z"/>
<path d="M8613 13930 c0 -36 2 -50 4 -32 2 17 2 47 0 65 -2 17 -4 3 -4 -33z"/>
<path d="M6651 13954 c0 -11 3 -14 6 -6 3 7 2 16 -1 19 -3 4 -6 -2 -5 -13z"/>
<path d="M6661 13914 c0 -11 3 -14 6 -6 3 7 2 16 -1 19 -3 4 -6 -2 -5 -13z"/>
<path d="M6561 13900 c0 -8 4 -24 9 -35 5 -13 9 -14 9 -5 0 8 -4 24 -9 35 -5
13 -9 14 -9 5z"/>
<path d="M7031 13894 c0 -11 3 -14 6 -6 3 7 2 16 -1 19 -3 4 -6 -2 -5 -13z"/>
<path d="M8173 13830 c0 -36 2 -50 4 -32 2 17 2 47 0 65 -2 17 -4 3 -4 -33z"/>
<path d="M8163 13670 c0 -41 2 -58 4 -37 2 20 2 54 0 75 -2 20 -4 3 -4 -38z"/>
<path d="M5822 13690 c0 -19 2 -27 5 -17 2 9 2 25 0 35 -3 9 -5 1 -5 -18z"/>
<path d="M6821 13694 c0 -11 3 -14 6 -6 3 7 2 16 -1 19 -3 4 -6 -2 -5 -13z"/>
<path d="M9432 13620 c0 -19 2 -27 5 -17 2 9 2 25 0 35 -3 9 -5 1 -5 -18z"/>
<path d="M5812 13615 c0 -16 2 -22 5 -12 2 9 2 23 0 30 -3 6 -5 -1 -5 -18z"/>
<path d="M5801 13554 c0 -11 3 -14 6 -6 3 7 2 16 -1 19 -3 4 -6 -2 -5 -13z"/>
<path d="M6920 13552 c0 -5 10 -17 22 -28 l21 -19 -18 28 c-18 28 -25 33 -25
19z"/>
<path d="M6981 13544 c0 -11 3 -14 6 -6 3 7 2 16 -1 19 -3 4 -6 -2 -5 -13z"/>
<path d="M7062 13530 c-25 -33 -30 -56 -6 -25 18 24 36 55 31 55 -2 0 -13 -13
-25 -30z"/>
<path d="M8153 13475 c0 -33 2 -45 4 -27 2 18 2 45 0 60 -2 15 -4 0 -4 -33z"/>
<path d="M6544 13420 c0 -52 1 -74 3 -47 2 26 2 68 0 95 -2 26 -3 4 -3 -48z"/>
<path d="M5522 13330 c0 -14 2 -19 5 -12 2 6 2 18 0 25 -3 6 -5 1 -5 -13z"/>
<path d="M9683 13285 c0 -27 2 -38 4 -22 2 15 2 37 0 50 -2 12 -4 0 -4 -28z"/>
<path d="M6531 13277 c0 -20 -15 -144 -31 -274 -17 -130 -29 -241 -27 -247 9
-26 71 498 64 536 -3 15 -5 10 -6 -15z"/>
<path d="M9693 13175 c0 -22 2 -30 4 -17 2 12 2 30 0 40 -3 9 -5 -1 -4 -23z"/>
<path d="M6741 13034 c0 -11 3 -14 6 -6 3 7 2 16 -1 19 -3 4 -6 -2 -5 -13z"/>
<path d="M6748 12580 c-7 -360 -21 -570 -64 -927 -29 -252 -110 -757 -160
-1006 -19 -99 -34 -181 -31 -183 5 -5 62 280 106 526 61 342 105 663 137 1010
15 164 32 860 22 905 -2 11 -7 -135 -10 -325z"/>
<path d="M6072 12790 c0 -14 2 -19 5 -12 2 6 2 18 0 25 -3 6 -5 1 -5 -13z"/>
<path d="M6462 12710 c0 -19 2 -27 5 -17 2 9 2 25 0 35 -3 9 -5 1 -5 -18z"/>
<path d="M6451 12644 c0 -11 3 -14 6 -6 3 7 2 16 -1 19 -3 4 -6 -2 -5 -13z"/>
<path d="M6593 12240 c0 -25 2 -35 4 -22 2 12 2 32 0 45 -2 12 -4 2 -4 -23z"/>
<path d="M5687 12113 c-17 -273 -3 -629 39 -978 25 -209 91 -603 93 -554 1 14
-10 88 -24 164 -68 382 -99 743 -100 1153 0 177 0 322 -1 322 -1 0 -4 -48 -7
-107z"/>
<path d="M5443 12020 c0 -30 2 -43 4 -27 2 15 2 39 0 55 -2 15 -4 2 -4 -28z"/>
<path d="M5971 11924 c0 -11 3 -14 6 -6 3 7 2 16 -1 19 -3 4 -6 -2 -5 -13z"/>
<path d="M5960 11883 c0 -5 -16 -102 -35 -214 -64 -380 -92 -695 -80 -929 13
-274 21 -274 17 0 -5 332 10 519 69 887 22 140 38 257 35 261 -3 3 -6 1 -6 -5z"/>
<path d="M5562 11710 c0 -14 2 -19 5 -12 2 6 2 18 0 25 -3 6 -5 1 -5 -13z"/>
<path d="M5572 11635 c0 -16 3 -50 7 -75 6 -33 9 -37 9 -15 0 17 -3 50 -7 75
-6 33 -9 37 -9 15z"/>
<path d="M5591 11496 c-3 -62 87 -537 133 -701 27 -97 15 -25 -25 151 -22 99
-56 267 -74 374 -18 107 -34 187 -34 176z"/>
<path d="M9637 11028 c-14 -560 -110 -1382 -237 -2024 -28 -142 -49 -265 -48
-272 6 -28 109 516 152 803 65 423 100 717 126 1060 12 155 26 675 18 675 -3
0 -8 -109 -11 -242z"/>
<path d="M7731 10984 c-3 -72 62 -565 110 -834 22 -127 85 -390 95 -399 4 -3
4 8 -1 24 -73 300 -146 726 -180 1055 -16 153 -23 195 -24 154z"/>
<path d="M5952 10930 c0 -19 2 -27 5 -17 2 9 2 25 0 35 -3 9 -5 1 -5 -18z"/>
<path d="M5936 10789 c-8 -109 -7 -589 2 -714 4 -49 7 111 7 357 0 247 0 448
-1 448 -1 0 -4 -41 -8 -91z"/>
<path d="M5741 10724 c0 -11 3 -14 6 -6 3 7 2 16 -1 19 -3 4 -6 -2 -5 -13z"/>
<path d="M5751 10684 c0 -11 3 -14 6 -6 3 7 2 16 -1 19 -3 4 -6 -2 -5 -13z"/>
<path d="M8333 10580 c0 -36 2 -50 4 -32 2 17 2 47 0 65 -2 17 -4 3 -4 -33z"/>
<path d="M8341 10439 c-3 -145 73 -808 140 -1203 69 -412 171 -891 209 -977
l11 -24 -6 25 c-3 14 -21 88 -40 165 -130 536 -250 1297 -295 1875 -15 190
-17 205 -19 139z"/>
<path d="M5873 10410 c0 -30 2 -43 4 -27 2 15 2 39 0 55 -2 15 -4 2 -4 -28z"/>
<path d="M6482 10430 c0 -14 2 -19 5 -12 2 6 2 18 0 25 -3 6 -5 1 -5 -13z"/>
<path d="M8946 10333 c-3 -65 -8 -280 -10 -478 -2 -198 -2 -306 0 -240 1 66 8
279 15 473 6 194 9 355 7 358 -3 2 -8 -49 -12 -113z"/>
<path d="M6152 10380 c0 -14 2 -19 5 -12 2 6 2 18 0 25 -3 6 -5 1 -5 -13z"/>
<path d="M5882 10310 c0 -19 2 -27 5 -17 2 9 2 25 0 35 -3 9 -5 1 -5 -18z"/>
<path d="M6142 10315 c0 -16 2 -22 5 -12 2 9 2 23 0 30 -3 6 -5 -1 -5 -18z"/>
<path d="M6132 10240 c0 -19 2 -27 5 -17 2 9 2 25 0 35 -3 9 -5 1 -5 -18z"/>
<path d="M6123 10155 c0 -22 2 -30 4 -17 2 12 2 30 0 40 -3 9 -5 -1 -4 -23z"/>
<path d="M7992 10095 c0 -16 2 -22 5 -12 2 9 2 23 0 30 -3 6 -5 -1 -5 -18z"/>
<path d="M6113 10055 c0 -27 2 -38 4 -22 2 15 2 37 0 50 -2 12 -4 0 -4 -28z"/>
<path d="M8001 10040 c-2 -41 105 -553 149 -715 103 -377 308 -925 346 -925 3
0 -6 19 -20 43 -34 57 -141 336 -209 542 -96 290 -158 530 -221 862 -45 229
-43 224 -45 193z"/>
<path d="M9712 10030 c0 -14 2 -19 5 -12 2 6 2 18 0 25 -3 6 -5 1 -5 -13z"/>
<path d="M6103 9935 c0 -33 2 -45 4 -27 2 18 2 45 0 60 -2 15 -4 0 -4 -33z"/>
<path d="M9702 9960 c0 -19 2 -27 5 -17 2 9 2 25 0 35 -3 9 -5 1 -5 -18z"/>
<path d="M9252 9955 c0 -16 2 -22 5 -12 2 9 2 23 0 30 -3 6 -5 -1 -5 -18z"/>
<path d="M9673 9794 c-32 -189 -108 -526 -158 -698 -24 -83 -42 -152 -40 -154
2 -2 20 47 40 110 62 190 193 804 183 855 -2 9 -13 -42 -25 -113z"/>
<path d="M9243 9785 c0 -22 2 -30 4 -17 2 12 2 30 0 40 -3 9 -5 -1 -4 -23z"/>
<path d="M6501 9744 c0 -11 3 -14 6 -6 3 7 2 16 -1 19 -3 4 -6 -2 -5 -13z"/>
<path d="M6491 9684 c0 -11 3 -14 6 -6 3 7 2 16 -1 19 -3 4 -6 -2 -5 -13z"/>
<path d="M9233 9615 c0 -33 2 -45 4 -27 2 18 2 45 0 60 -2 15 -4 0 -4 -33z"/>
<path d="M6481 9624 c0 -11 3 -14 6 -6 3 7 2 16 -1 19 -3 4 -6 -2 -5 -13z"/>
<path d="M6472 9570 c0 -14 2 -19 5 -12 2 6 2 18 0 25 -3 6 -5 1 -5 -13z"/>
<path d="M6462 9510 c0 -14 2 -19 5 -12 2 6 2 18 0 25 -3 6 -5 1 -5 -13z"/>
<path d="M9223 9455 c0 -38 2 -53 4 -32 2 20 2 52 0 70 -2 17 -4 1 -4 -38z"/>
<path d="M6452 9450 c0 -14 2 -19 5 -12 2 6 2 18 0 25 -3 6 -5 1 -5 -13z"/>
<path d="M8934 9300 c0 -96 2 -136 3 -87 2 48 2 126 0 175 -1 48 -3 8 -3 -88z"/>
<path d="M6261 9444 c0 -11 3 -14 6 -6 3 7 2 16 -1 19 -3 4 -6 -2 -5 -13z"/>
<path d="M6252 9390 c0 -14 2 -19 5 -12 2 6 2 18 0 25 -3 6 -5 1 -5 -13z"/>
<path d="M6442 9390 c0 -14 2 -19 5 -12 2 6 2 18 0 25 -3 6 -5 1 -5 -13z"/>
<path d="M9213 9315 c0 -33 2 -45 4 -27 2 18 2 45 0 60 -2 15 -4 0 -4 -33z"/>
<path d="M6216 9193 c-63 -399 -118 -872 -115 -987 1 -23 10 49 20 159 21 220
66 570 105 824 14 90 23 165 21 167 -2 3 -16 -71 -31 -163z"/>
<path d="M6407 9227 c-15 -72 -60 -267 -98 -432 -97 -417 -178 -871 -193
-1085 -3 -41 6 4 19 100 53 367 96 590 213 1100 60 259 95 427 90 440 -2 5
-16 -50 -31 -123z"/>
<path d="M6506 9165 c-21 -108 -160 -739 -211 -953 -36 -154 -109 -585 -102
-605 2 -6 20 90 41 214 20 123 79 412 132 641 101 448 167 765 161 782 -2 6
-11 -30 -21 -79z"/>
<path d="M9202 9205 c-3 -68 -61 -545 -77 -635 -15 -85 -18 -117 -11 -109 17
19 100 683 93 749 l-4 35 -1 -40z"/>
<path d="M9332 9200 c0 -14 2 -19 5 -12 2 6 2 18 0 25 -3 6 -5 1 -5 -13z"/>
<path d="M9287 8914 c-22 -129 -37 -237 -35 -240 6 -6 81 452 77 465 -2 6 -21
-95 -42 -225z"/>
<path d="M8722 8925 c0 -16 2 -22 5 -12 2 9 2 23 0 30 -3 6 -5 -1 -5 -18z"/>
<path d="M8732 8845 c0 -16 2 -22 5 -12 2 9 2 23 0 30 -3 6 -5 -1 -5 -18z"/>
<path d="M9436 8834 c-4 -14 -5 -28 -3 -31 3 -2 8 8 11 23 4 14 5 28 3 31 -3
2 -8 -8 -11 -23z"/>
<path d="M8742 8755 c0 -16 2 -22 5 -12 2 9 2 23 0 30 -3 6 -5 -1 -5 -18z"/>
<path d="M9402 8723 c-6 -20 -10 -39 -8 -41 2 -2 9 13 16 33 7 20 10 38 8 41
-3 2 -10 -13 -16 -33z"/>
<path d="M9342 8690 c0 -14 2 -19 5 -12 2 6 2 18 0 25 -3 6 -5 1 -5 -13z"/>
<path d="M8751 8674 c0 -11 3 -14 6 -6 3 7 2 16 -1 19 -3 4 -6 -2 -5 -13z"/>
<path d="M9315 8582 c-10 -42 -20 -84 -22 -92 -4 -13 -3 -13 5 0 12 19 46 159
40 165 -2 3 -13 -30 -23 -73z"/>
<path d="M9242 8625 c0 -16 2 -22 5 -12 2 9 2 23 0 30 -3 6 -5 -1 -5 -18z"/>
<path d="M9232 8570 c0 -14 2 -19 5 -12 2 6 2 18 0 25 -3 6 -5 1 -5 -13z"/>
<path d="M8356 8517 c3 -10 9 -15 12 -12 3 3 0 11 -7 18 -10 9 -11 8 -5 -6z"/>
<path d="M9221 8504 c0 -11 3 -14 6 -6 3 7 2 16 -1 19 -3 4 -6 -2 -5 -13z"/>
<path d="M9182 8465 c0 -16 2 -22 5 -12 2 9 2 23 0 30 -3 6 -5 -1 -5 -18z"/>
<path d="M9212 8450 c0 -14 2 -19 5 -12 2 6 2 18 0 25 -3 6 -5 1 -5 -13z"/>
<path d="M9101 8424 c0 -11 3 -14 6 -6 3 7 2 16 -1 19 -3 4 -6 -2 -5 -13z"/>
<path d="M9201 8394 c0 -11 3 -14 6 -6 3 7 2 16 -1 19 -3 4 -6 -2 -5 -13z"/>
<path d="M8791 8384 c0 -11 3 -14 6 -6 3 7 2 16 -1 19 -3 4 -6 -2 -5 -13z"/>
<path d="M9032 8335 c0 -16 2 -22 5 -12 2 9 2 23 0 30 -3 6 -5 -1 -5 -18z"/>
<path d="M9192 8340 c0 -14 2 -19 5 -12 2 6 2 18 0 25 -3 6 -5 1 -5 -13z"/>
<path d="M6915 8080 c3 -257 14 -361 50 -470 8 -25 12 -33 10 -18 -42 229 -47
280 -55 503 l-8 240 3 -255z"/>
<path d="M8762 8290 c0 -14 2 -19 5 -12 2 6 2 18 0 25 -3 6 -5 1 -5 -13z"/>
<path d="M8450 8297 c0 -4 6 -20 14 -35 7 -15 44 -108 81 -207 244 -654 322
-956 400 -1536 13 -101 22 -150 19 -109 -27 378 -124 834 -266 1255 -96 283
-246 666 -248 632z"/>
<path d="M9182 8265 c0 -16 2 -22 5 -12 2 9 2 23 0 30 -3 6 -5 -1 -5 -18z"/>
<path d="M9172 8170 c0 -19 2 -27 5 -17 2 9 2 25 0 35 -3 9 -5 1 -5 -18z"/>
<path d="M9261 8174 c0 -11 3 -14 6 -6 3 7 2 16 -1 19 -3 4 -6 -2 -5 -13z"/>
<path d="M6502 8035 c-2 -108 -14 -282 -27 -405 -4 -43 -4 -43 5 -10 15 56 32
316 28 430 l-4 105 -2 -120z"/>
<path d="M6093 8075 c0 -38 2 -53 4 -32 2 20 2 52 0 70 -2 17 -4 1 -4 -38z"/>
<path d="M9251 8094 c0 -11 3 -14 6 -6 3 7 2 16 -1 19 -3 4 -6 -2 -5 -13z"/>
<path d="M9233 7855 c0 -33 2 -45 4 -27 2 18 2 45 0 60 -2 15 -4 0 -4 -33z"/>
<path d="M9224 7610 c0 -74 1 -105 3 -67 2 37 2 97 0 135 -2 37 -3 6 -3 -68z"/>
<path d="M6102 7570 c0 -19 2 -27 5 -17 2 9 2 25 0 35 -3 9 -5 1 -5 -18z"/>
<path d="M6182 7565 c0 -16 2 -22 5 -12 2 9 2 23 0 30 -3 6 -5 -1 -5 -18z"/>
<path d="M6461 7554 c0 -11 3 -14 6 -6 3 7 2 16 -1 19 -3 4 -6 -2 -5 -13z"/>
<path d="M6172 7495 c0 -16 2 -22 5 -12 2 9 2 23 0 30 -3 6 -5 -1 -5 -18z"/>
<path d="M9122 7405 c0 -16 2 -22 5 -12 2 9 2 23 0 30 -3 6 -5 -1 -5 -18z"/>
<path d="M9133 7235 c0 -22 2 -30 4 -17 2 12 2 30 0 40 -3 9 -5 -1 -4 -23z"/>
<path d="M9223 7150 c0 -25 2 -35 4 -22 2 12 2 32 0 45 -2 12 -4 2 -4 -23z"/>
<path d="M9143 7130 c0 -25 2 -35 4 -22 2 12 2 32 0 45 -2 12 -4 2 -4 -23z"/>
<path d="M6294 7115 c-30 -45 -63 -151 -68 -216 -3 -35 -3 -53 0 -39 17 85 48
189 69 231 27 52 26 65 -1 24z"/>
<path d="M9153 7045 c0 -22 2 -30 4 -17 2 12 2 30 0 40 -3 9 -5 -1 -4 -23z"/>
<path d="M9061 7014 c0 -11 3 -14 6 -6 3 7 2 16 -1 19 -3 4 -6 -2 -5 -13z"/>
<path d="M9166 6940 c5 -64 41 -249 43 -220 0 8 -11 76 -24 150 -16 84 -23
110 -19 70z"/>
<path d="M7531 6873 c18 -21 38 -42 43 -48 15 -17 -5 18 -31 53 -13 17 -29 32
-35 32 -7 0 4 -17 23 -37z"/>
<path d="M6240 6738 c0 -3 14 -46 31 -95 17 -48 42 -128 55 -178 22 -80 23
-84 18 -35 -5 56 -61 238 -88 288 -9 15 -15 24 -16 20z"/>
<path d="M7150 6717 c0 -14 71 -149 76 -144 3 3 -4 24 -16 47 -28 55 -60 107
-60 97z"/>
<path d="M7221 6694 c0 -11 3 -14 6 -6 3 7 2 16 -1 19 -3 4 -6 -2 -5 -13z"/>
<path d="M9212 6680 c0 -14 2 -19 5 -12 2 6 2 18 0 25 -3 6 -5 1 -5 -13z"/>
<path d="M9222 6630 c0 -14 2 -19 5 -12 2 6 2 18 0 25 -3 6 -5 1 -5 -13z"/>
<path d="M9231 6574 c0 -11 3 -14 6 -6 3 7 2 16 -1 19 -3 4 -6 -2 -5 -13z"/>
<path d="M7100 6510 c24 -51 154 -270 158 -265 5 4 -129 241 -154 271 -14 18
-14 17 -4 -6z"/>
<path d="M7199 6475 c18 -33 38 -64 44 -70 6 -5 -4 17 -22 50 -18 33 -38 65
-44 70 -6 6 4 -17 22 -50z"/>
<path d="M9251 6474 c0 -11 3 -14 6 -6 3 7 2 16 -1 19 -3 4 -6 -2 -5 -13z"/>
<path d="M9171 6424 c0 -11 3 -14 6 -6 3 7 2 16 -1 19 -3 4 -6 -2 -5 -13z"/>
<path d="M7072 6375 c19 -27 58 -89 87 -137 29 -49 55 -88 58 -88 3 0 -1 10
-9 23 -8 12 -36 59 -63 105 -27 46 -62 97 -78 115 -25 28 -24 25 5 -18z"/>
<path d="M9616 6325 c4 -106 19 -184 74 -407 44 -173 191 -686 210 -728 l10
-25 -4 25 c-3 14 -48 174 -99 355 -125 437 -167 622 -191 835 -2 19 -2 -5 0
-55z"/>
<path d="M9513 6375 c0 -22 2 -30 4 -17 2 12 2 30 0 40 -3 9 -5 -1 -4 -23z"/>
<path d="M9181 6384 c0 -11 3 -14 6 -6 3 7 2 16 -1 19 -3 4 -6 -2 -5 -13z"/>
<path d="M9271 6384 c0 -11 3 -14 6 -6 3 7 2 16 -1 19 -3 4 -6 -2 -5 -13z"/>
<path d="M9281 6350 c0 -8 4 -24 9 -35 5 -13 9 -14 9 -5 0 8 -4 24 -9 35 -5
13 -9 14 -9 5z"/>
<path d="M6076 6314 c-56 -42 -106 -108 -106 -138 1 -16 5 -12 16 14 8 19 45
63 82 97 75 70 78 81 8 27z"/>
<path d="M6912 6280 c150 -167 286 -370 273 -410 -11 -35 -61 -85 -105 -105
-43 -19 -45 -22 -31 -44 14 -23 84 13 132 67 22 25 41 43 44 41 2 -3 27 -54
55 -113 l51 -109 -28 -30 c-15 -16 -54 -49 -86 -74 -32 -25 -56 -48 -53 -51 9
-8 76 40 127 92 l47 46 22 -53 c53 -126 111 -286 226 -622 67 -198 136 -397
153 -443 17 -46 26 -80 19 -76 -6 4 4 -21 24 -57 20 -35 48 -93 63 -129 15
-36 80 -173 145 -305 192 -391 388 -698 634 -995 77 -93 306 -353 340 -385
l20 -20 -15 20 c-9 11 -76 90 -149 175 -331 385 -529 672 -716 1035 -183 356
-289 617 -476 1180 -202 607 -296 832 -453 1082 -80 129 -196 262 -281 323
l-49 35 67 -75z"/>
<path d="M7016 6311 c64 -74 125 -154 160 -212 36 -58 56 -80 33 -36 -32 60
-116 174 -167 225 -31 32 -43 42 -26 23z"/>
<path d="M9301 6274 c0 -11 3 -14 6 -6 3 7 2 16 -1 19 -3 4 -6 -2 -5 -13z"/>
<path d="M6331 6270 c-2 -50 82 -172 142 -208 63 -38 81 -33 21 6 -69 45 -102
84 -138 163 -14 30 -25 47 -25 39z"/>
<path d="M9573 6240 c-1 -25 3 -72 7 -105 6 -54 7 -56 7 -15 1 25 -3 72 -7
105 -6 54 -7 56 -7 15z"/>
<path d="M5965 6020 c5 -181 17 -236 77 -362 28 -59 53 -106 55 -104 2 1 -17
46 -42 99 -54 114 -73 197 -85 372 l-9 130 4 -135z"/>
<path d="M7545 6030 c25 -49 47 -90 50 -90 3 0 -15 41 -40 90 -25 50 -47 90
-50 90 -3 0 15 -40 40 -90z"/>
<path d="M9593 6035 c0 -22 2 -30 4 -17 2 12 2 30 0 40 -3 9 -5 -1 -4 -23z"/>
<path d="M6982 6014 c-23 -28 -31 -32 -35 -20 -4 9 -17 15 -29 15 l-23 -2 22
-4 c14 -3 25 -14 29 -29 l6 -25 15 28 c8 15 24 38 35 51 12 12 19 22 15 22 -3
0 -19 -16 -35 -36z"/>
<path d="M9171 6004 c0 -11 3 -14 6 -6 3 7 2 16 -1 19 -3 4 -6 -2 -5 -13z"/>
<path d="M9602 5970 c-1 -14 5 -54 12 -90 8 -36 14 -56 14 -45 1 11 -5 52 -12
90 -8 39 -14 59 -14 45z"/>
<path d="M9181 5944 c0 -11 3 -14 6 -6 3 7 2 16 -1 19 -3 4 -6 -2 -5 -13z"/>
<path d="M6970 5905 c0 -5 5 -17 10 -25 5 -8 10 -10 10 -5 0 6 -5 17 -10 25
-5 8 -10 11 -10 5z"/>
<path d="M7626 5878 c129 -253 433 -689 707 -1015 213 -254 441 -544 586 -745
34 -49 65 -88 67 -88 19 0 -307 435 -514 686 -423 513 -594 748 -791 1087 -61
103 -90 143 -55 75z"/>
<path d="M9074 5785 c0 -55 1 -76 3 -47 2 29 2 74 0 100 -2 26 -3 2 -3 -53z"/>
<path d="M6435 5798 c28 -92 136 -223 209 -253 57 -24 52 -13 -8 18 -62 33
-101 77 -157 182 -41 76 -56 94 -44 53z"/>
<path d="M9632 5790 c0 -14 2 -19 5 -12 2 6 2 18 0 25 -3 6 -5 1 -5 -13z"/>
<path d="M9642 5745 c0 -11 3 -29 8 -40 11 -25 11 1 0 35 -6 20 -8 21 -8 5z"/>
<path d="M8857 5633 c-13 -89 -93 -393 -136 -513 -44 -125 -49 -159 -7 -55 59
149 162 547 154 599 -2 12 -7 -2 -11 -31z"/>
<path d="M9063 5615 c0 -38 2 -53 4 -32 2 20 2 52 0 70 -2 17 -4 1 -4 -38z"/>
<path d="M6416 5615 c9 -70 60 -162 126 -231 67 -70 166 -141 236 -167 64 -26
75 -20 12 6 -162 67 -321 235 -366 387 l-14 45 6 -40z"/>
<path d="M7447 5615 c9 -19 18 -33 21 -31 4 5 -26 66 -33 66 -3 0 3 -16 12
-35z"/>
<path d="M7743 5579 c100 -169 403 -609 430 -626 7 -4 0 9 -14 28 -85 113
-189 265 -282 409 -59 91 -116 176 -128 190 l-21 25 15 -26z"/>
<path d="M6708 5523 c7 -3 16 -2 19 1 4 3 -2 6 -13 5 -11 0 -14 -3 -6 -6z"/>
<path d="M6753 5513 c9 -2 25 -2 35 0 9 3 1 5 -18 5 -19 0 -27 -2 -17 -5z"/>
<path d="M6833 5513 c9 -2 23 -2 30 0 6 3 -1 5 -18 5 -16 0 -22 -2 -12 -5z"/>
<path d="M7522 5455 c0 -13 56 -133 57 -120 0 6 -13 37 -29 70 -15 33 -28 56
-28 50z"/>
<path d="M7191 5348 c-1 -4 8 -31 20 -60 11 -28 68 -189 126 -357 58 -169 110
-313 115 -321 11 -18 14 -26 -52 170 -113 337 -207 592 -209 568z"/>
<path d="M7580 5315 c0 -5 5 -17 10 -25 5 -8 10 -10 10 -5 0 6 -5 17 -10 25
-5 8 -10 11 -10 5z"/>
<path d="M8088 5253 c11 -16 37 -46 57 -68 20 -22 13 -10 -16 28 -52 66 -79
93 -41 40z"/>
<path d="M7161 5239 c-1 -20 98 -369 110 -389 12 -19 14 -25 -51 205 -56 200
-58 206 -59 184z"/>
<path d="M7645 5143 c4 -10 18 -49 32 -86 14 -37 28 -66 30 -63 5 5 -56 166
-64 166 -3 0 -2 -8 2 -17z"/>
<path d="M8208 5105 c16 -22 49 -60 72 -85 l42 -45 -44 54 c-23 30 -56 68 -71
85 l-29 31 30 -40z"/>
<path d="M7740 5125 c0 -5 5 -17 10 -25 5 -8 10 -10 10 -5 0 6 -5 17 -10 25
-5 8 -10 11 -10 5z"/>
<path d="M8806 4982 c-59 -179 -62 -189 -36 -133 24 51 94 270 88 276 -2 2
-26 -62 -52 -143z"/>
<path d="M7860 5074 c0 -14 309 -637 395 -795 195 -358 493 -859 512 -859 5 0
-25 52 -57 100 -50 74 -227 377 -400 685 -19 33 -128 245 -242 470 -114 226
-207 405 -208 399z"/>
<path d="M7772 5055 c0 -13 56 -133 57 -120 0 6 -13 37 -29 70 -15 33 -28 56
-28 50z"/>
<path d="M7379 5017 c5 -12 40 -89 78 -172 38 -82 77 -169 88 -193 10 -23 20
-41 22 -39 4 4 -102 248 -141 325 -30 60 -32 69 -9 51 13 -11 13 -8 -2 13 -26
36 -47 45 -36 15z"/>
<path d="M8350 4935 c19 -19 36 -35 39 -35 3 0 -10 16 -29 35 -19 19 -36 35
-39 35 -3 0 10 -16 29 -35z"/>
<path d="M10196 4940 c4 -14 13 -38 20 -55 11 -24 13 -25 8 -5 -4 14 -13 39
-20 55 -11 24 -13 25 -8 5z"/>
<path d="M7460 4920 c6 -11 13 -20 16 -20 2 0 0 9 -6 20 -6 11 -13 20 -16 20
-2 0 0 -9 6 -20z"/>
<path d="M6982 4910 c0 -14 2 -19 5 -12 2 6 2 18 0 25 -3 6 -5 1 -5 -13z"/>
<path d="M8220 4876 c0 -2 8 -10 18 -17 15 -13 16 -12 3 4 -13 16 -21 21 -21
13z"/>
<path d="M7523 4808 c19 -35 65 -117 102 -183 36 -66 71 -124 77 -130 6 -5
-11 31 -37 80 -65 123 -166 295 -172 295 -3 0 11 -28 30 -62z"/>
<path d="M7751 4850 c0 -8 6 -28 14 -45 17 -39 18 -21 0 25 -7 19 -14 28 -14
20z"/>
<path d="M9264 4740 c0 -63 1 -89 3 -57 2 31 2 83 0 115 -2 31 -3 5 -3 -58z"/>
<path d="M7871 4825 c0 -5 8 -26 19 -45 11 -19 19 -30 19 -25 0 6 -8 26 -19
45 -11 19 -19 31 -19 25z"/>
<path d="M9021 4804 c0 -11 3 -14 6 -6 3 7 2 16 -1 19 -3 4 -6 -2 -5 -13z"/>
<path d="M7305 4795 c49 -148 153 -445 188 -535 277 -709 690 -1363 1256
-1987 333 -369 477 -565 714 -973 121 -208 129 -219 68 -94 -84 171 -258 458
-380 624 -82 112 -270 348 -395 495 -408 479 -642 806 -898 1255 -116 203
-312 628 -445 965 -52 131 -99 246 -104 255 -8 12 -9 11 -4 -5z"/>
<path d="M8460 4806 c0 -2 8 -10 18 -17 15 -13 16 -12 3 4 -13 16 -21 21 -21
13z"/>
<path d="M10171 4774 c0 -11 3 -14 6 -6 3 7 2 16 -1 19 -3 4 -6 -2 -5 -13z"/>
<path d="M9203 4735 c0 -27 2 -38 4 -22 2 15 2 37 0 50 -2 12 -4 0 -4 -28z"/>
<path d="M7786 4750 c3 -14 11 -32 16 -40 6 -10 7 -7 2 10 -3 14 -11 32 -16
40 -6 10 -7 7 -2 -10z"/>
<path d="M9012 4750 c0 -14 2 -19 5 -12 2 6 2 18 0 25 -3 6 -5 1 -5 -13z"/>
<path d="M7911 4735 c0 -5 6 -21 14 -35 8 -14 14 -20 14 -15 0 6 -6 21 -14 35
-8 14 -14 21 -14 15z"/>
<path d="M10180 4734 c1 -18 48 -189 49 -176 1 15 -38 175 -45 181 -2 2 -4 0
-4 -5z"/>
<path d="M9002 4700 c0 -14 2 -19 5 -12 2 6 2 18 0 25 -3 6 -5 1 -5 -13z"/>
<path d="M9861 4654 c0 -11 3 -14 6 -6 3 7 2 16 -1 19 -3 4 -6 -2 -5 -13z"/>
<path d="M9871 4614 c0 -11 3 -14 6 -6 3 7 2 16 -1 19 -3 4 -6 -2 -5 -13z"/>
<path d="M9274 4470 c0 -80 2 -112 3 -72 2 39 2 105 0 145 -1 39 -3 7 -3 -73z"/>
<path d="M9882 4575 c0 -11 6 -42 13 -70 7 -27 13 -41 13 -30 0 11 -6 43 -13
70 -7 28 -13 41 -13 30z"/>
<path d="M8250 4530 c6 -11 13 -20 16 -20 2 0 0 9 -6 20 -6 11 -13 20 -16 20
-2 0 0 -9 6 -20z"/>
<path d="M10231 4524 c0 -11 3 -14 6 -6 3 7 2 16 -1 19 -3 4 -6 -2 -5 -13z"/>
<path d="M7872 4525 c0 -13 56 -133 57 -120 0 6 -13 37 -29 70 -15 33 -28 56
-28 50z"/>
<path d="M8001 4525 c0 -5 6 -21 14 -35 8 -14 14 -20 14 -15 0 6 -6 21 -14 35
-8 14 -14 21 -14 15z"/>
<path d="M9442 4430 c0 -14 2 -19 5 -12 2 6 2 18 0 25 -3 6 -5 1 -5 -13z"/>
<path d="M9912 4425 c0 -16 2 -22 5 -12 2 9 2 23 0 30 -3 6 -5 -1 -5 -18z"/>
<path d="M7252 4395 c0 -16 2 -22 5 -12 2 9 2 23 0 30 -3 6 -5 -1 -5 -18z"/>
<path d="M9362 4380 c0 -19 2 -27 5 -17 2 9 2 25 0 35 -3 9 -5 1 -5 -18z"/>
<path d="M9922 4370 c0 -14 2 -19 5 -12 2 6 2 18 0 25 -3 6 -5 1 -5 -13z"/>
<path d="M9452 4350 c0 -14 2 -19 5 -12 2 6 2 18 0 25 -3 6 -5 1 -5 -13z"/>
<path d="M8370 4320 c6 -11 13 -20 16 -20 2 0 0 9 -6 20 -6 11 -13 20 -16 20
-2 0 0 -9 6 -20z"/>
<path d="M9932 4310 c0 -14 2 -19 5 -12 2 6 2 18 0 25 -3 6 -5 1 -5 -13z"/>
<path d="M7263 4280 c0 -25 2 -35 4 -22 2 12 2 32 0 45 -2 12 -4 2 -4 -23z"/>
<path d="M9373 4285 c0 -22 2 -30 4 -17 2 12 2 30 0 40 -3 9 -5 -1 -4 -23z"/>
<path d="M9462 4265 c0 -16 2 -22 5 -12 2 9 2 23 0 30 -3 6 -5 -1 -5 -18z"/>
<path d="M7980 4265 c0 -5 5 -17 10 -25 5 -8 10 -10 10 -5 0 6 -5 17 -10 25
-5 8 -10 11 -10 5z"/>
<path d="M7272 4205 c-5 -90 114 -715 197 -1043 59 -231 131 -475 138 -468 2
2 -21 86 -51 187 -106 361 -229 945 -279 1324 l-4 30 -1 -30z"/>
<path d="M9382 4190 c0 -19 2 -27 5 -17 2 9 2 25 0 35 -3 9 -5 1 -5 -18z"/>
<path d="M9472 4180 c0 -19 2 -27 5 -17 2 9 2 25 0 35 -3 9 -5 1 -5 -18z"/>
<path d="M8011 4195 c0 -5 6 -21 14 -35 8 -14 14 -20 14 -15 0 6 -6 21 -14 35
-8 14 -14 21 -14 15z"/>
<path d="M8480 4130 c6 -11 13 -20 16 -20 2 0 0 9 -6 20 -6 11 -13 20 -16 20
-2 0 0 -9 6 -20z"/>
<path d="M9482 4100 c0 -19 2 -27 5 -17 2 9 2 25 0 35 -3 9 -5 1 -5 -18z"/>
<path d="M10062 4020 c0 -14 2 -19 5 -12 2 6 2 18 0 25 -3 6 -5 1 -5 -13z"/>
<path d="M10072 3960 c0 -14 2 -19 5 -12 2 6 2 18 0 25 -3 6 -5 1 -5 -13z"/>
<path d="M8590 3940 c6 -11 13 -20 16 -20 2 0 0 9 -6 20 -6 11 -13 20 -16 20
-2 0 0 -9 6 -20z"/>
<path d="M10081 3905 c0 -33 57 -432 58 -404 1 28 -47 396 -54 414 -2 6 -4 1
-4 -10z"/>
<path d="M8699 3765 c5 -11 17 -29 26 -40 l16 -20 -10 20 c-5 11 -17 29 -26
40 l-16 20 10 -20z"/>
<path d="M9881 3724 c0 -11 3 -14 6 -6 3 7 2 16 -1 19 -3 4 -6 -2 -5 -13z"/>
<path d="M10311 3604 c0 -11 3 -14 6 -6 3 7 2 16 -1 19 -3 4 -6 -2 -5 -13z"/>
<path d="M10322 3550 c0 -14 2 -19 5 -12 2 6 2 18 0 25 -3 6 -5 1 -5 -13z"/>
<path d="M9190 3495 c17 -25 33 -45 36 -45 3 0 -9 20 -26 45 -17 25 -33 45
-36 45 -3 0 9 -20 26 -45z"/>
<path d="M10332 3505 c-1 -11 8 -65 18 -120 11 -57 17 -77 14 -45 -6 65 -31
194 -32 165z"/>
<path d="M7991 3468 c53 -100 200 -345 272 -453 139 -209 377 -526 525 -700
89 -104 434 -486 506 -560 101 -103 19 -9 -398 459 -302 339 -612 767 -846
1169 -34 59 -64 107 -66 107 -3 0 1 -10 7 -22z"/>
<path d="M10421 3474 c0 -11 3 -14 6 -6 3 7 2 16 -1 19 -3 4 -6 -2 -5 -13z"/>
<path d="M10143 3435 c0 -22 2 -30 4 -17 2 12 2 30 0 40 -3 9 -5 -1 -4 -23z"/>
<path d="M9246 3413 c60 -94 87 -133 92 -133 2 0 -4 12 -14 28 -60 93 -87 132
-92 132 -2 0 4 -12 14 -27z"/>
<path d="M8780 3390 c6 -11 13 -20 16 -20 2 0 0 9 -6 20 -6 11 -13 20 -16 20
-2 0 0 -9 6 -20z"/>
<path d="M8240 3370 c6 -11 13 -20 16 -20 2 0 0 9 -6 20 -6 11 -13 20 -16 20
-2 0 0 -9 6 -20z"/>
<path d="M10153 3350 c0 -25 2 -35 4 -22 2 12 2 32 0 45 -2 12 -4 2 -4 -23z"/>
<path d="M10163 3255 c0 -22 2 -30 4 -17 2 12 2 30 0 40 -3 9 -5 -1 -4 -23z"/>
<path d="M8310 3260 c6 -11 13 -20 16 -20 2 0 0 9 -6 20 -6 11 -13 20 -16 20
-2 0 0 -9 6 -20z"/>
<path d="M10372 3250 c0 -19 2 -27 5 -17 2 9 2 25 0 35 -3 9 -5 1 -5 -18z"/>
<path d="M9352 3248 c8 -13 34 -53 57 -90 24 -38 45 -68 47 -68 6 0 3 5 -59
103 -27 42 -51 77 -54 77 -3 0 1 -10 9 -22z"/>
<path d="M8381 3153 c102 -151 305 -414 517 -670 98 -119 383 -434 423 -468
13 -11 -31 39 -97 111 -294 319 -661 774 -842 1042 -24 34 -45 62 -48 62 -2 0
19 -35 47 -77z"/>
<path d="M10382 3170 c0 -19 2 -27 5 -17 2 9 2 25 0 35 -3 9 -5 1 -5 -18z"/>
<path d="M10173 3150 c0 -25 2 -35 4 -22 2 12 2 32 0 45 -2 12 -4 2 -4 -23z"/>
<path d="M10392 3085 c0 -16 2 -22 5 -12 2 9 2 23 0 30 -3 6 -5 -1 -5 -18z"/>
<path d="M9465 3070 c19 -37 117 -190 121 -190 3 0 2 6 -2 13 -50 86 -146 229
-119 177z"/>
<path d="M7985 2787 c110 -219 192 -367 202 -367 3 0 -10 26 -28 58 -18 31
-86 158 -150 282 -65 124 -123 232 -129 240 -6 8 41 -88 105 -213z"/>
<path d="M10402 2980 c0 -19 2 -27 5 -17 2 9 2 25 0 35 -3 9 -5 1 -5 -18z"/>
<path d="M10413 2885 c0 -22 2 -30 4 -17 2 12 2 30 0 40 -3 9 -5 -1 -4 -23z"/>
<path d="M9608 2840 c11 -19 56 -95 101 -167 127 -208 344 -590 449 -790 53
-101 97 -181 99 -179 16 15 -573 1054 -650 1148 -18 22 -18 21 1 -12z"/>
<path d="M10423 2780 c0 -25 2 -35 4 -22 2 12 2 32 0 45 -2 12 -4 2 -4 -23z"/>
<path d="M10433 2670 c0 -25 2 -35 4 -22 2 12 2 32 0 45 -2 12 -4 2 -4 -23z"/>
<path d="M7611 2674 c-1 -15 78 -244 90 -264 8 -12 9 -11 5 5 -12 44 -95 269
-95 259z"/>
<path d="M9639 2575 c18 -33 38 -64 44 -70 5 -5 -5 17 -23 50 -18 33 -38 65
-43 70 -6 6 4 -17 22 -50z"/>
<path d="M7771 2468 c-1 -12 31 -89 35 -85 3 2 -4 24 -15 48 -11 24 -20 41
-20 37z"/>
<path d="M8217 2360 c25 -45 71 -109 60 -85 -8 21 -80 135 -84 135 -2 0 8 -23
24 -50z"/>
<path d="M9765 2340 c14 -27 28 -50 30 -50 3 0 -6 23 -20 50 -14 28 -28 50
-30 50 -3 0 6 -22 20 -50z"/>
<path d="M7810 2365 c0 -5 5 -17 10 -25 5 -8 10 -10 10 -5 0 6 -5 17 -10 25
-5 8 -10 11 -10 5z"/>
<path d="M7850 2265 c0 -22 241 -497 325 -640 132 -225 361 -574 436 -665 32
-39 11 -5 -87 140 -254 376 -384 596 -551 930 -67 135 -123 240 -123 235z"/>
<path d="M8070 2256 c0 -10 70 -146 75 -146 3 0 -11 33 -31 73 -38 74 -44 85
-44 73z"/>
<path d="M9886 2107 c3 -10 9 -15 12 -12 3 3 0 11 -7 18 -10 9 -11 8 -5 -6z"/>
<path d="M9321 1783 c21 -27 225 -265 329 -383 51 -58 128 -149 171 -202 44
-53 85 -100 92 -104 6 -4 5 1 -4 12 -169 205 -231 279 -324 384 -60 69 -146
167 -189 218 -44 50 -82 92 -84 92 -3 0 2 -8 9 -17z"/>
<path d="M10952 1680 c0 -14 2 -19 5 -12 2 6 2 18 0 25 -3 6 -5 1 -5 -13z"/>
<path d="M10320 1565 c0 -5 5 -17 10 -25 5 -8 10 -10 10 -5 0 6 -5 17 -10 25
-5 8 -10 11 -10 5z"/>
<path d="M9920 1076 c0 -2 8 -10 18 -17 15 -13 16 -12 3 4 -13 16 -21 21 -21
13z"/>
<path d="M9965 1020 c10 -11 20 -20 23 -20 3 0 -3 9 -13 20 -10 11 -20 20 -23
20 -3 0 3 -9 13 -20z"/>
</g>
</svg>
