<?xml version="1.0" standalone="no"?>
<!DOCTYPE svg PUBLIC "-//W3C//DTD SVG 20010904//EN"
 "http://www.w3.org/TR/2001/REC-SVG-20010904/DTD/svg10.dtd">
<svg version="1.0" xmlns="http://www.w3.org/2000/svg"
 width="1650.000000pt" height="2210.000000pt" viewBox="0 0 1650.000000 2210.000000"
 preserveAspectRatio="xMidYMid meet">

<g transform="translate(0.000000,2210.000000) scale(0.100000,-0.100000)"
fill="#000000" stroke="none">
<path d="M7900 21365 c0 -6 494 -337 595 -399 101 -61 238 -130 413 -207 362
-160 591 -306 850 -539 400 -361 610 -742 795 -1445 121 -457 171 -821 184
-1320 13 -548 -42 -1017 -207 -1750 -249 -1104 -261 -1224 -242 -2280 15 -799
2 -2504 -22 -2830 -30 -405 -66 -699 -146 -1181 -55 -330 -80 -526 -80 -618 0
-33 -2 -57 -5 -54 -8 8 -75 310 -95 428 -10 58 -19 93 -19 79 -3 -84 100 -549
205 -927 84 -300 131 -452 319 -1032 203 -623 270 -861 349 -1230 86 -404 158
-969 187 -1480 16 -270 13 -1127 -4 -1865 -18 -724 -9 -1141 34 -1505 16 -139
60 -404 70 -420 6 -10 8 0 4 30 -80 669 -93 1002 -70 1903 20 777 23 1601 6
1867 -36 569 -101 1093 -187 1489 -77 358 -153 624 -369 1291 -265 818 -361
1148 -377 1302 -16 145 -4 264 76 753 97 596 125 845 158 1400 13 222 18 1957
9 2985 -7 733 17 919 244 1895 168 725 230 1344 195 1940 -28 476 -91 842
-222 1300 -115 400 -257 709 -438 950 -147 195 -325 372 -535 530 -198 149
-365 244 -670 380 -203 90 -374 181 -525 278 -344 222 -480 302 -480 282z"/>
<path d="M8316 20769 c61 -63 138 -150 171 -194 378 -502 610 -1223 710 -2205
25 -250 25 -975 0 -1200 -48 -422 -82 -618 -206 -1156 -44 -192 -89 -405 -100
-474 -54 -324 -44 -679 28 -957 11 -40 15 -71 10 -68 -4 3 1 -14 12 -39 21
-49 133 -498 173 -698 44 -220 96 -542 121 -756 58 -494 77 -889 77 -1622 0
-584 -9 -857 -42 -1310 -11 -146 -22 -305 -24 -355 -5 -89 -5 -89 4 -20 64
504 99 1740 71 2465 -31 780 -113 1359 -305 2141 -41 168 -82 346 -90 396 -27
150 -37 370 -26 540 13 211 37 342 160 868 153 657 208 1151 197 1745 -10 545
-71 1014 -192 1485 -161 629 -392 1082 -711 1397 -142 140 -170 152 -38 17z"/>
<path d="M6721 19514 c0 -11 3 -14 6 -6 3 7 2 16 -1 19 -3 4 -6 -2 -5 -13z"/>
<path d="M6732 19460 c0 -14 2 -19 5 -12 2 6 2 18 0 25 -3 6 -5 1 -5 -13z"/>
<path d="M6741 19414 c0 -11 3 -14 6 -6 3 7 2 16 -1 19 -3 4 -6 -2 -5 -13z"/>
<path d="M6751 19374 c0 -11 3 -14 6 -6 3 7 2 16 -1 19 -3 4 -6 -2 -5 -13z"/>
<path d="M6761 19334 c0 -11 3 -14 6 -6 3 7 2 16 -1 19 -3 4 -6 -2 -5 -13z"/>
<path d="M6771 19294 c0 -11 3 -14 6 -6 3 7 2 16 -1 19 -3 4 -6 -2 -5 -13z"/>
<path d="M6781 19254 c0 -11 3 -14 6 -6 3 7 2 16 -1 19 -3 4 -6 -2 -5 -13z"/>
<path d="M6801 19194 c-1 -14 59 -190 98 -289 60 -151 154 -340 326 -655 94
-173 189 -348 210 -388 21 -40 39 -71 41 -69 5 4 -119 241 -265 507 -183 332
-277 534 -367 785 -24 66 -43 115 -43 109z"/>
<path d="M5280 18729 c0 -25 64 -251 113 -394 45 -132 136 -353 188 -457 58
-114 106 -334 146 -658 16 -127 18 -235 18 -855 0 -685 -3 -798 -40 -1520 -32
-635 -39 -830 -39 -1245 0 -736 43 -1204 154 -1660 35 -144 58 -276 80 -444
61 -471 95 -663 180 -1011 144 -586 340 -1118 657 -1780 69 -143 129 -270 134
-283 5 -14 3 -47 -6 -91 -29 -137 -58 -193 -179 -335 -37 -43 -76 -96 -88
-119 -32 -62 -35 -161 -8 -277 12 -52 26 -135 31 -183 10 -101 33 -152 86
-196 58 -48 114 -63 250 -68 l122 -5 35 -75 c55 -115 74 -192 91 -356 27 -259
46 -309 198 -514 57 -76 117 -159 135 -185 60 -87 153 -290 282 -612 361 -901
492 -1370 770 -2736 54 -267 126 -609 160 -760 71 -318 217 -910 226 -919 4
-3 4 5 1 19 -62 244 -236 1075 -386 1850 -144 743 -318 1424 -488 1915 -135
390 -362 957 -459 1145 -32 61 -105 172 -174 265 -184 246 -200 285 -220 535
-12 151 -31 226 -89 352 -62 134 -75 194 -74 338 0 69 6 145 13 170 81 307 69
708 -32 1100 -22 85 -62 241 -89 345 -100 386 -138 604 -249 1430 -22 160 -37
252 -34 205 5 -89 52 -486 59 -507 8 -23 -10 -13 -28 15 -9 15 -42 54 -73 87
-31 33 -50 51 -43 40 7 -11 32 -41 55 -66 87 -96 91 -105 129 -371 19 -134 43
-286 54 -338 11 -52 18 -96 17 -98 -5 -4 -152 179 -231 285 -37 51 -70 93 -72
93 -14 0 180 -259 257 -343 l53 -58 42 -187 c24 -103 50 -211 59 -241 24 -83
21 -81 -40 15 -51 83 -281 394 -291 394 -6 0 52 -82 148 -211 180 -239 212
-301 264 -504 61 -243 79 -387 78 -650 0 -126 -4 -250 -10 -275 l-9 -45 -8 85
c-21 240 -101 467 -331 945 -365 758 -583 1382 -730 2092 -39 187 -118 723
-114 778 0 5 17 -35 38 -90 64 -169 182 -425 196 -425 3 0 -11 32 -30 71 -78
154 -176 419 -241 649 -88 311 -141 649 -164 1035 -41 692 -41 762 20 2105 34
759 40 971 40 1420 0 590 -21 902 -79 1208 -10 50 -17 92 -15 92 1 0 29 -44
62 -98 56 -93 60 -105 86 -237 61 -323 76 -519 77 -1055 1 -212 5 -448 8 -525
8 -146 4 656 -4 970 -4 183 -19 319 -56 532 -11 65 -23 134 -26 153 -5 29 7
17 72 -80 88 -130 157 -219 261 -333 l71 -78 41 -147 c69 -243 199 -874 257
-1242 13 -80 23 -135 24 -123 5 116 -193 1118 -273 1386 -18 59 -32 107 -31
107 0 0 49 -46 108 -102 l106 -103 61 -245 c34 -135 102 -402 151 -594 99
-381 130 -520 184 -809 l35 -192 4 -495 c4 -526 14 -694 62 -1060 14 -107 30
-238 35 -290 5 -52 14 -104 19 -115 5 -11 19 -69 31 -130 31 -162 107 -361
164 -430 9 -11 -2 14 -24 56 -91 170 -140 383 -195 859 -52 446 -60 592 -61
1120 0 531 5 628 55 1030 27 214 58 531 75 768 4 50 9 92 12 92 2 0 47 -26 99
-57 67 -42 94 -64 94 -78 0 -16 2 -17 9 -6 10 16 9 17 244 -131 81 -51 206
-135 277 -187 148 -107 138 -90 210 -340 72 -250 129 -526 169 -832 11 -79 20
-130 20 -112 2 55 -39 351 -70 513 -38 192 -87 391 -134 534 -19 59 -35 111
-35 113 0 7 78 -56 166 -133 43 -38 74 -75 81 -96 7 -18 28 -75 48 -126 90
-234 198 -749 260 -1244 50 -409 68 -614 88 -1043 3 -45 4 -39 5 26 6 286 -74
1081 -153 1509 -64 350 -141 651 -205 802 -16 40 -27 74 -24 77 22 22 129
-210 202 -439 160 -496 281 -1203 322 -1880 14 -226 14 -841 0 -1040 -53 -758
-128 -1258 -460 -3080 -92 -502 -121 -692 -146 -930 -19 -190 -23 -422 -8
-495 10 -46 11 -36 18 110 4 88 10 173 13 190 l6 30 40 -45 c56 -63 83 -128
112 -268 27 -135 57 -204 107 -248 55 -48 287 -171 388 -205 79 -27 110 -32
180 -32 47 1 93 3 103 4 15 3 25 -11 49 -71 l31 -75 -12 -140 c-7 -77 -23
-252 -37 -390 -92 -952 -143 -1531 -144 -1634 0 -38 -13 10 -45 170 -45 221
-66 392 -68 544 -1 112 3 138 56 380 83 375 187 951 187 1033 0 16 -7 35 -15
42 -9 7 -91 39 -183 70 -92 32 -225 79 -297 105 -71 25 -195 64 -274 86 -80
22 -153 45 -163 50 -11 6 -24 8 -31 6 -25 -8 64 -49 203 -93 80 -25 244 -81
365 -124 121 -44 253 -89 294 -101 l74 -22 -7 -66 c-8 -94 -106 -623 -166
-907 -28 -131 -60 -279 -70 -329 -32 -150 -120 -558 -126 -585 -5 -19 -11 -5
-25 60 -26 122 -69 264 -129 430 -45 124 -200 580 -200 587 0 1 18 12 41 23
50 26 45 37 -6 15 -21 -8 -39 -14 -40 -13 -2 2 -23 71 -49 154 -72 235 -128
390 -181 502 -26 56 -50 100 -53 98 -2 -3 43 -148 101 -323 58 -175 144 -435
190 -578 47 -143 126 -377 177 -520 80 -227 158 -497 161 -559 1 -21 1 -21 6
-1 34 147 124 499 128 503 3 3 5 -9 5 -28 0 -56 29 -236 80 -490 l48 -245 6
-450 c3 -247 10 -522 16 -610 50 -767 175 -1806 286 -2378 20 -103 38 -186 41
-184 2 3 -12 108 -31 233 -99 647 -208 1585 -251 2169 -25 342 -35 752 -25
1094 13 415 23 569 90 1261 16 173 41 441 55 595 32 361 48 491 55 447 3 -18
9 -31 14 -30 5 2 32 -69 61 -157 48 -149 132 -370 392 -1025 334 -844 482
-1300 619 -1905 129 -571 188 -1080 244 -2085 l9 -155 -5 185 c-5 184 -25 532
-44 770 -61 753 -183 1377 -407 2095 -96 307 -190 562 -483 1305 -262 665
-315 808 -307 817 3 2 8 -6 12 -19 4 -13 63 -140 130 -283 363 -770 417 -889
550 -1221 411 -1023 591 -1922 720 -3599 14 -181 32 -416 40 -521 8 -105 15
-201 15 -213 0 -11 4 -21 9 -21 4 0 7 30 4 68 -2 37 -15 249 -30 472 -22 342
-26 493 -28 970 -8 1715 -117 3061 -321 3973 -116 522 -303 949 -599 1370
l-86 122 3 175 c4 263 -13 298 -211 428 -137 89 -198 148 -269 257 -260 396
-451 1056 -577 1992 l-26 192 30 223 c141 1035 159 1750 65 2613 -64 591 -217
1256 -370 1615 l-24 55 66 -70 c159 -171 324 -406 449 -642 22 -40 40 -71 42
-69 7 6 -56 135 -122 252 -115 203 -229 362 -369 514 -77 83 -83 104 -151 475
-130 708 -266 1182 -510 1780 -116 283 -253 587 -255 564 0 -3 18 -46 41 -95
105 -228 241 -560 334 -819 147 -407 250 -794 350 -1313 35 -186 75 -375 88
-420 23 -79 23 -82 4 -65 -10 10 -51 61 -91 113 -81 108 -234 293 -376 455
-117 133 -212 259 -354 468 -59 86 -109 157 -112 157 -4 0 53 -89 169 -260 90
-133 182 -254 283 -371 178 -206 364 -433 364 -444 0 -4 -30 20 -67 52 -118
103 -243 200 -407 316 -308 217 -513 388 -800 668 -382 373 -662 717 -870
1072 -31 53 -59 97 -62 97 -11 0 122 -222 223 -369 265 -389 660 -815 1074
-1159 65 -53 116 -98 114 -100 -2 -2 -34 16 -72 39 -37 23 -113 69 -168 103
-470 285 -836 593 -1099 921 -133 167 -361 527 -467 738 -104 207 -212 474
-286 707 -23 74 -42 128 -43 119z m1327 -2142 c91 -73 244 -182 360 -256 l83
-53 -6 -76 c-22 -309 -49 -594 -70 -746 -13 -99 -30 -242 -36 -318 -7 -76 -16
-138 -20 -138 -4 0 -8 10 -8 22 0 38 -78 410 -124 591 -25 95 -94 366 -155
602 -61 237 -111 431 -111 433 0 8 18 -5 87 -61z m2052 -6067 c49 -423 189
-1044 312 -1390 76 -212 236 -520 322 -620 49 -57 137 -128 223 -180 96 -59
159 -123 174 -179 6 -23 9 -103 8 -188 l-3 -147 -101 150 c-56 82 -118 178
-138 214 -55 99 -44 40 12 -71 61 -118 102 -181 218 -340 201 -276 299 -435
418 -680 94 -193 153 -349 221 -586 181 -628 315 -1777 355 -3043 6 -179 15
-433 20 -565 5 -132 9 -321 8 -420 l-1 -180 -13 110 c-8 61 -25 205 -40 320
-78 635 -193 1215 -334 1678 -156 515 -323 931 -660 1642 -291 614 -441 949
-544 1215 -37 95 -116 254 -141 285 -12 15 -12 11 3 -20 11 -22 30 -71 42
-109 13 -39 40 -112 61 -163 26 -64 34 -95 26 -100 -20 -13 -161 -5 -227 12
-63 16 -216 88 -330 155 -111 65 -140 109 -170 258 -34 166 -64 235 -136 312
l-63 67 14 129 c24 217 73 512 180 1094 70 382 173 956 221 1238 21 122 41
219 44 215 4 -5 12 -55 19 -113z m-1696 -2322 c25 -68 55 -166 68 -218 25
-102 28 -180 18 -550 -2 -109 0 -178 8 -202 l11 -38 -92 0 c-108 0 -176 17
-235 61 -52 37 -67 71 -81 183 -6 48 -20 127 -31 174 -39 161 -16 243 105 382
72 82 149 221 161 288 4 23 10 42 15 42 4 0 28 -55 53 -122z"/>
<path d="M8701 9354 c0 -11 3 -14 6 -6 3 7 2 16 -1 19 -3 4 -6 -2 -5 -13z"/>
<path d="M8711 9314 c0 -11 3 -14 6 -6 3 7 2 16 -1 19 -3 4 -6 -2 -5 -13z"/>
<path d="M8721 9274 c0 -11 3 -14 6 -6 3 7 2 16 -1 19 -3 4 -6 -2 -5 -13z"/>
<path d="M8786 9060 c11 -48 142 -308 192 -381 27 -41 80 -108 117 -149 115
-129 148 -186 191 -330 12 -41 23 -67 23 -56 1 28 -57 196 -85 244 -14 23 -61
84 -106 135 -110 126 -191 249 -258 392 -31 66 -62 131 -68 145 l-12 25 6 -25z"/>
<path d="M9526 8277 c3 -10 9 -15 12 -12 3 3 0 11 -7 18 -10 9 -11 8 -5 -6z"/>
<path d="M9311 8104 c0 -11 3 -14 6 -6 3 7 2 16 -1 19 -3 4 -6 -2 -5 -13z"/>
<path d="M8353 8021 c53 -59 72 -112 82 -226 3 -38 11 -92 17 -120 10 -48 53
-145 63 -145 3 0 -2 14 -11 31 -32 63 -46 117 -59 237 -16 139 -43 204 -106
251 -30 23 -28 20 14 -28z"/>
<path d="M9470 7964 c0 -12 131 -225 245 -399 198 -303 289 -472 395 -732 30
-73 56 -131 58 -128 7 7 -109 288 -173 416 -69 139 -120 226 -233 399 -42 63
-124 191 -184 284 -59 93 -108 165 -108 160z"/>
<path d="M9340 7905 c13 -14 26 -25 28 -25 3 0 -5 11 -18 25 -13 14 -26 25
-28 25 -3 0 5 -11 18 -25z"/>
<path d="M9371 7788 c56 -94 96 -182 122 -264 27 -85 62 -253 54 -260 -5 -6
-143 179 -226 304 -69 103 -93 126 -32 30 101 -159 244 -348 262 -348 27 0
-40 287 -93 401 -33 71 -104 189 -113 189 -2 0 9 -23 26 -52z"/>
<path d="M9150 7691 c0 -6 4 -13 10 -16 6 -3 7 1 4 9 -7 18 -14 21 -14 7z"/>
<path d="M9150 7599 c0 -4 20 -67 45 -140 56 -164 153 -364 329 -682 161 -290
265 -493 331 -644 27 -62 51 -110 53 -108 5 5 -111 271 -168 385 -27 53 -85
163 -130 245 -46 83 -123 224 -173 314 -104 189 -179 352 -232 501 -35 99 -54
143 -55 129z"/>
<path d="M9636 7455 c26 -44 52 -84 57 -90 18 -18 -57 115 -81 143 -12 15 -1
-9 24 -53z"/>
<path d="M8878 7273 c6 -2 18 -2 25 0 6 3 1 5 -13 5 -14 0 -19 -2 -12 -5z"/>
<path d="M10207 6580 c3 -14 12 -41 20 -60 11 -30 12 -31 8 -6 -4 16 -13 43
-20 60 -11 23 -13 25 -8 6z"/>
<path d="M10261 5950 c0 -8 4 -24 9 -35 5 -13 9 -14 9 -5 0 8 -4 24 -9 35 -5
13 -9 14 -9 5z"/>
<path d="M10280 5886 c0 -4 20 -82 45 -174 50 -184 121 -523 159 -763 26 -157
115 -853 117 -912 1 -23 3 -26 6 -9 5 26 -14 205 -63 577 -43 334 -73 510
-130 780 -49 231 -134 549 -134 501z"/>
<path d="M10613 3960 c0 -25 2 -35 4 -22 2 12 2 32 0 45 -2 12 -4 2 -4 -23z"/>
<path d="M10622 3855 c0 -16 2 -22 5 -12 2 9 2 23 0 30 -3 6 -5 -1 -5 -18z"/>
<path d="M6691 7709 c-1 -74 22 -139 69 -191 47 -52 52 -46 9 8 -43 54 -61 98
-69 174 l-7 65 -2 -56z"/>
<path d="M6835 7377 c10 -15 27 -32 39 -38 21 -10 21 -10 1 8 -11 10 -28 27
-39 38 -18 20 -18 19 -1 -8z"/>
<path d="M7510 17716 c0 -10 70 -146 75 -146 3 0 -11 33 -31 73 -38 74 -44 85
-44 73z"/>
<path d="M7660 17395 c0 -5 5 -17 10 -25 5 -8 10 -10 10 -5 0 6 -5 17 -10 25
-5 8 -10 11 -10 5z"/>
<path d="M8898 16860 c-7 -293 -19 -426 -68 -748 -50 -333 -70 -527 -74 -707
l-4 -170 8 150 c9 177 20 273 65 580 68 455 88 704 83 1000 -3 162 -3 158 -10
-105z"/>
<path d="M5441 16619 c-1 -3 8 -31 18 -62 28 -81 57 -224 72 -352 15 -136 16
-524 0 -705 -15 -177 -57 -943 -76 -1385 -63 -1473 82 -2720 486 -4180 28 -99
98 -349 156 -555 161 -574 226 -859 258 -1135 19 -166 19 -283 -1 -503 -24
-264 -14 -459 40 -747 29 -150 45 -310 71 -685 14 -206 32 -442 40 -525 93
-926 286 -1670 737 -2840 50 -130 120 -302 381 -945 183 -452 317 -796 408
-1052 43 -120 79 -208 87 -208 20 0 15 20 -42 187 -113 331 -189 525 -646
1658 -349 865 -516 1352 -660 1925 -156 619 -206 971 -265 1850 -20 300 -38
460 -75 679 -55 323 -61 440 -35 686 29 280 16 504 -46 825 -37 191 -122 533
-194 780 -348 1204 -480 1811 -595 2725 -99 799 -99 1976 1 3375 31 438 16
731 -51 995 -24 93 -67 214 -69 194z"/>
<path d="M7273 16045 c0 -27 2 -38 4 -22 2 15 2 37 0 50 -2 12 -4 0 -4 -28z"/>
<path d="M7263 15930 c0 -30 2 -43 4 -27 2 15 2 39 0 55 -2 15 -4 2 -4 -28z"/>
<path d="M7253 15820 c0 -25 2 -35 4 -22 2 12 2 32 0 45 -2 12 -4 2 -4 -23z"/>
<path d="M7243 15720 c0 -25 2 -35 4 -22 2 12 2 32 0 45 -2 12 -4 2 -4 -23z"/>
<path d="M7233 15630 c0 -25 2 -35 4 -22 2 12 2 32 0 45 -2 12 -4 2 -4 -23z"/>
<path d="M7216 15513 c-3 -38 -8 -153 -10 -258 -2 -104 -2 -149 0 -100 2 50 8
163 15 253 11 161 8 236 -5 105z"/>
<path d="M5943 15530 c0 -25 2 -35 4 -22 2 12 2 32 0 45 -2 12 -4 2 -4 -23z"/>
<path d="M6572 15340 c0 -19 2 -27 5 -17 2 9 2 25 0 35 -3 9 -5 1 -5 -18z"/>
<path d="M6582 15250 c0 -14 2 -19 5 -12 2 6 2 18 0 25 -3 6 -5 1 -5 -13z"/>
<path d="M6592 15165 c0 -16 2 -22 5 -12 2 9 2 23 0 30 -3 6 -5 -1 -5 -18z"/>
<path d="M6602 15070 c0 -14 2 -19 5 -12 2 6 2 18 0 25 -3 6 -5 1 -5 -13z"/>
<path d="M8213 14420 c0 -30 2 -43 4 -27 2 15 2 39 0 55 -2 15 -4 2 -4 -28z"/>
<path d="M8223 14315 c0 -27 2 -38 4 -22 2 15 2 37 0 50 -2 12 -4 0 -4 -28z"/>
<path d="M8233 14205 c0 -27 2 -38 4 -22 2 15 2 37 0 50 -2 12 -4 0 -4 -28z"/>
<path d="M7552 13710 c0 -19 2 -27 5 -17 2 9 2 25 0 35 -3 9 -5 1 -5 -18z"/>
<path d="M7543 13570 c0 -30 2 -43 4 -27 2 15 2 39 0 55 -2 15 -4 2 -4 -28z"/>
<path d="M6341 13504 c0 -11 3 -14 6 -6 3 7 2 16 -1 19 -3 4 -6 -2 -5 -13z"/>
<path d="M7507 13225 c-45 -469 -52 -614 -38 -818 7 -98 18 -215 26 -260 7
-45 12 -83 10 -85 -1 -2 -29 23 -60 55 -64 64 -56 49 23 -41 33 -38 52 -69 52
-85 0 -19 3 -22 9 -12 12 18 57 -44 128 -177 29 -53 53 -94 53 -91 0 3 -12 34
-26 70 -23 57 -63 123 -139 229 -37 52 -55 198 -62 485 -6 247 1 380 38 758
11 115 19 220 17 235 -2 15 -16 -103 -31 -263z"/>
<path d="M6356 13430 c16 -111 120 -500 200 -746 48 -148 102 -321 121 -384
47 -160 91 -409 102 -575 l10 -140 -4 143 c-8 253 -53 454 -215 952 -45 140
-113 377 -151 525 -38 149 -66 250 -63 225z"/>
<path d="M8624 12695 c0 -126 2 -177 3 -112 2 65 2 168 0 230 -1 62 -3 9 -3
-118z"/>
<path d="M7008 12650 c-7 -91 -39 -235 -73 -329 -8 -24 -13 -46 -11 -48 2 -2
18 38 35 89 37 112 63 259 59 330 -2 43 -4 35 -10 -42z"/>
<path d="M5771 12694 c0 -11 3 -14 6 -6 3 7 2 16 -1 19 -3 4 -6 -2 -5 -13z"/>
<path d="M5781 12654 c0 -11 3 -14 6 -6 3 7 2 16 -1 19 -3 4 -6 -2 -5 -13z"/>
<path d="M5791 12620 c-1 -9 24 -108 55 -220 63 -233 138 -432 226 -600 70
-134 149 -270 155 -270 3 0 -24 53 -58 118 -189 352 -238 478 -353 897 -13 50
-25 83 -25 75z"/>
<path d="M7082 12545 c0 -16 2 -22 5 -12 2 9 2 23 0 30 -3 6 -5 -1 -5 -18z"/>
<path d="M6821 12464 c0 -11 3 -14 6 -6 3 7 2 16 -1 19 -3 4 -6 -2 -5 -13z"/>
<path d="M7093 12420 c0 -30 2 -43 4 -27 2 15 2 39 0 55 -2 15 -4 2 -4 -28z"/>
<path d="M6831 12424 c0 -11 3 -14 6 -6 3 7 2 16 -1 19 -3 4 -6 -2 -5 -13z"/>
<path d="M6842 12390 c-1 -8 5 -44 13 -80 7 -36 13 -51 13 -35 0 31 -25 142
-26 115z"/>
<path d="M8613 12325 c0 -22 2 -30 4 -17 2 12 2 30 0 40 -3 9 -5 -1 -4 -23z"/>
<path d="M7102 12315 c0 -22 3 -65 8 -95 6 -48 7 -50 8 -15 0 22 -3 65 -8 95
-6 48 -7 50 -8 15z"/>
<path d="M6871 12164 c0 -11 3 -14 6 -6 3 7 2 16 -1 19 -3 4 -6 -2 -5 -13z"/>
<path d="M7123 12120 c0 -25 2 -35 4 -22 2 12 2 32 0 45 -2 12 -4 2 -4 -23z"/>
<path d="M7133 12035 c0 -22 2 -30 4 -17 2 12 2 30 0 40 -3 9 -5 -1 -4 -23z"/>
<path d="M7143 11945 c0 -22 2 -30 4 -17 2 12 2 30 0 40 -3 9 -5 -1 -4 -23z"/>
<path d="M8226 11863 c-16 -65 -50 -185 -77 -268 -95 -298 -179 -614 -179
-678 0 -12 -5 -28 -11 -34 -8 -8 -7 -48 5 -150 64 -551 70 -685 72 -1643 1
-481 5 -922 8 -980 12 -183 50 -460 62 -448 2 2 -3 44 -11 93 -34 214 -38 345
-42 1280 -3 517 -5 978 -6 1025 -1 80 3 96 66 281 37 107 67 200 67 205 -1 14
-88 -223 -111 -301 -11 -38 -23 -77 -26 -85 -3 -8 -16 91 -28 220 -13 129 -29
285 -36 347 -11 99 -11 122 5 213 19 106 91 375 152 565 44 135 127 452 122
466 -2 6 -16 -43 -32 -108z"/>
<path d="M7531 11904 c0 -11 3 -14 6 -6 3 7 2 16 -1 19 -3 4 -6 -2 -5 -13z"/>
<path d="M7151 11878 c-2 -50 85 -628 87 -583 1 11 -18 153 -43 315 -24 162
-44 283 -44 268z"/>
<path d="M7541 11834 c0 -11 3 -14 6 -6 3 7 2 16 -1 19 -3 4 -6 -2 -5 -13z"/>
<path d="M7551 11784 c0 -11 3 -14 6 -6 3 7 2 16 -1 19 -3 4 -6 -2 -5 -13z"/>
<path d="M7561 11734 c0 -11 3 -14 6 -6 3 7 2 16 -1 19 -3 4 -6 -2 -5 -13z"/>
<path d="M7710 11695 c0 -5 5 -17 10 -25 5 -8 10 -10 10 -5 0 6 -5 17 -10 25
-5 8 -10 11 -10 5z"/>
<path d="M7844 11435 c0 -49 1 -71 3 -48 2 23 2 64 0 90 -2 26 -3 8 -3 -42z"/>
<path d="M6620 11440 c11 -22 23 -40 25 -40 3 0 -4 18 -15 40 -11 22 -23 40
-25 40 -3 0 4 -18 15 -40z"/>
<path d="M6656 11377 c3 -10 9 -15 12 -12 3 3 0 11 -7 18 -10 9 -11 8 -5 -6z"/>
<path d="M7242 11245 c0 -16 2 -22 5 -12 2 9 2 23 0 30 -3 6 -5 -1 -5 -18z"/>
<path d="M6472 11177 c7 -12 46 -79 87 -147 73 -124 109 -175 77 -112 -15 28
-39 70 -148 250 -22 36 -36 44 -16 9z"/>
<path d="M7931 10974 c0 -11 3 -14 6 -6 3 7 2 16 -1 19 -3 4 -6 -2 -5 -13z"/>
<path d="M7942 10910 c0 -14 2 -19 5 -12 2 6 2 18 0 25 -3 6 -5 1 -5 -13z"/>
<path d="M7661 10294 c0 -11 3 -14 6 -6 3 7 2 16 -1 19 -3 4 -6 -2 -5 -13z"/>
<path d="M7672 10215 c0 -16 2 -22 5 -12 2 9 2 23 0 30 -3 6 -5 -1 -5 -18z"/>
<path d="M7682 10135 c0 -16 2 -22 5 -12 2 9 2 23 0 30 -3 6 -5 -1 -5 -18z"/>
<path d="M7692 10040 c0 -14 2 -19 5 -12 2 6 2 18 0 25 -3 6 -5 1 -5 -13z"/>
<path d="M7702 9935 c0 -16 2 -22 5 -12 2 9 2 23 0 30 -3 6 -5 -1 -5 -18z"/>
<path d="M8126 9884 c-9 -26 -14 -49 -12 -51 2 -2 11 17 20 43 9 26 14 49 12
51 -2 2 -11 -17 -20 -43z"/>
<path d="M6519 9865 c5 -11 17 -29 26 -40 l16 -20 -10 20 c-5 11 -17 29 -26
40 l-16 20 10 -20z"/>
<path d="M7712 9810 c0 -19 2 -27 5 -17 2 9 2 25 0 35 -3 9 -5 1 -5 -18z"/>
<path d="M8280 9746 c0 -4 -15 -60 -34 -124 -19 -64 -46 -169 -60 -232 -35
-158 -98 -509 -94 -522 2 -6 14 47 27 118 49 274 92 475 131 613 22 79 38 146
35 149 -3 3 -5 2 -5 -2z"/>
<path d="M7723 9655 c0 -22 2 -30 4 -17 2 12 2 30 0 40 -3 9 -5 -1 -4 -23z"/>
<path d="M9233 9595 c0 -27 2 -38 4 -22 2 15 2 37 0 50 -2 12 -4 0 -4 -28z"/>
<path d="M7052 9610 c0 -14 2 -19 5 -12 2 6 2 18 0 25 -3 6 -5 1 -5 -13z"/>
<path d="M7062 9560 c0 -14 17 -108 38 -210 21 -102 38 -176 38 -165 1 11 -17
106 -38 210 -21 105 -38 179 -38 165z"/>
<path d="M9223 9500 c0 -25 2 -35 4 -22 2 12 2 32 0 45 -2 12 -4 2 -4 -23z"/>
<path d="M9891 9524 c0 -11 3 -14 6 -6 3 7 2 16 -1 19 -3 4 -6 -2 -5 -13z"/>
<path d="M7733 9450 c0 -41 2 -58 4 -37 2 20 2 54 0 75 -2 20 -4 3 -4 -38z"/>
<path d="M9903 9410 c0 -25 2 -35 4 -22 2 12 2 32 0 45 -2 12 -4 2 -4 -23z"/>
<path d="M9213 9405 c0 -22 2 -30 4 -17 2 12 2 30 0 40 -3 9 -5 -1 -4 -23z"/>
<path d="M6610 9416 c0 -2 8 -10 18 -17 15 -13 16 -12 3 4 -13 16 -21 21 -21
13z"/>
<path d="M9203 9315 c0 -22 2 -30 4 -17 2 12 2 30 0 40 -3 9 -5 -1 -4 -23z"/>
<path d="M9913 9315 c0 -22 2 -30 4 -17 2 12 2 30 0 40 -3 9 -5 -1 -4 -23z"/>
<path d="M7744 9205 c0 -60 1 -84 3 -52 2 32 2 81 0 110 -2 29 -3 3 -3 -58z"/>
<path d="M9192 9235 c0 -16 2 -22 5 -12 2 9 2 23 0 30 -3 6 -5 -1 -5 -18z"/>
<path d="M9182 9160 c0 -14 2 -19 5 -12 2 6 2 18 0 25 -3 6 -5 1 -5 -13z"/>
<path d="M7141 9151 c-1 -8 21 -130 49 -270 27 -141 56 -297 64 -346 7 -50 14
-79 15 -65 1 37 -23 185 -75 445 -46 235 -52 261 -53 236z"/>
<path d="M7752 9000 c-3 -141 44 -756 55 -723 3 7 -3 85 -11 175 -13 138 -27
343 -39 578 -2 36 -4 26 -5 -30z"/>
<path d="M8081 8824 c0 -11 3 -14 6 -6 3 7 2 16 -1 19 -3 4 -6 -2 -5 -13z"/>
<path d="M7273 8400 c0 -25 2 -35 4 -22 2 12 2 32 0 45 -2 12 -4 2 -4 -23z"/>
<path d="M7916 8180 c2 -129 8 -253 13 -275 9 -37 10 -35 4 15 -3 30 -9 154
-13 275 l-8 220 4 -235z"/>
<path d="M7284 8180 c0 -91 2 -128 3 -82 2 45 2 119 0 165 -1 45 -3 8 -3 -83z"/>
<path d="M7812 8230 c0 -19 2 -27 5 -17 2 9 2 25 0 35 -3 9 -5 1 -5 -18z"/>
<path d="M7822 8160 c0 -14 2 -19 5 -12 2 6 2 18 0 25 -3 6 -5 1 -5 -13z"/>
<path d="M7434 7970 c0 -58 1 -81 3 -52 2 28 2 76 0 105 -2 28 -3 5 -3 -53z"/>
<path d="M7213 7885 c0 -44 2 -61 4 -37 2 23 2 59 0 80 -2 20 -4 1 -4 -43z"/>
<path d="M7690 7584 c-92 -24 -99 -24 -210 -13 -103 11 -121 10 -167 -5 -60
-20 -114 -73 -133 -130 -7 -21 -10 -40 -7 -42 3 -3 8 8 12 24 9 43 68 107 117
126 35 15 64 16 187 11 130 -6 154 -4 216 14 90 27 179 28 222 1 51 -30 67
-64 74 -154 l6 -81 1 70 c2 81 -23 144 -71 179 -42 31 -132 31 -247 0z"/>
<path d="M8130 7257 c0 -17 57 -53 68 -43 3 3 0 6 -7 6 -6 0 -23 12 -36 26
-19 20 -25 23 -25 11z"/>
<path d="M8460 7256 c0 -2 8 -10 18 -17 15 -13 16 -12 3 4 -13 16 -21 21 -21
13z"/>
<path d="M8080 7222 c0 -31 92 -122 123 -122 5 0 -5 10 -24 23 -18 12 -48 42
-66 65 -18 24 -33 39 -33 34z"/>
<path d="M8080 7118 c0 -26 48 -77 94 -100 45 -22 41 -17 -17 26 -21 16 -47
42 -58 60 -12 19 -19 25 -19 14z"/>
<path d="M8498 7053 c7 -3 16 -2 19 1 4 3 -2 6 -13 5 -11 0 -14 -3 -6 -6z"/>
<path d="M8538 7043 c7 -3 16 -2 19 1 4 3 -2 6 -13 5 -11 0 -14 -3 -6 -6z"/>
<path d="M8080 7037 c-1 -36 71 -137 114 -159 12 -6 6 4 -15 25 -20 19 -50 59
-68 89 -17 29 -31 49 -31 45z"/>
<path d="M8608 7023 c7 -3 16 -2 19 1 4 3 -2 6 -13 5 -11 0 -14 -3 -6 -6z"/>
<path d="M8685 7000 c11 -5 27 -9 35 -9 9 0 8 4 -5 9 -11 5 -27 9 -35 9 -9 0
-8 -4 5 -9z"/>
<path d="M8748 6983 c7 -3 16 -2 19 1 4 3 -2 6 -13 5 -11 0 -14 -3 -6 -6z"/>
<path d="M8979 6833 c-13 -16 -12 -17 4 -4 16 13 21 21 13 21 -2 0 -10 -8 -17
-17z"/>
<path d="M8883 6721 c-46 -49 -83 -93 -83 -96 0 -8 119 118 152 161 36 45 13
24 -69 -65z"/>
<path d="M9222 6750 c-2 -70 16 -279 73 -850 71 -720 94 -1039 135 -1940 23
-497 42 -795 70 -1094 26 -279 83 -782 88 -768 2 6 -13 163 -32 349 -65 617
-81 837 -116 1608 -36 801 -63 1171 -150 2045 -27 272 -53 542 -58 600 -6 74
-9 89 -10 50z"/>
<path d="M9241 6784 c-1 -27 51 -343 95 -574 36 -192 147 -697 208 -950 51
-211 151 -720 178 -900 12 -85 24 -148 26 -139 4 23 -54 384 -95 589 -38 192
-69 335 -197 907 -47 210 -108 507 -136 660 -69 386 -77 431 -79 407z"/>
<path d="M7326 6648 c36 -62 100 -145 170 -222 46 -51 108 -132 138 -180 48
-76 125 -252 166 -379 6 -21 14 -36 16 -34 9 9 -98 293 -138 367 -49 93 -93
152 -198 265 -45 49 -98 113 -118 142 -19 29 -37 53 -39 53 -2 0 -1 -6 3 -12z"/>
<path d="M8719 6543 c-13 -16 -12 -17 4 -4 9 7 17 15 17 17 0 8 -8 3 -21 -13z"/>
<path d="M8951 6424 c0 -11 3 -14 6 -6 3 7 2 16 -1 19 -3 4 -6 -2 -5 -13z"/>
<path d="M8927 6338 c-9 -37 -17 -73 -16 -80 0 -7 9 19 20 57 10 39 17 74 16
80 -2 5 -11 -21 -20 -57z"/>
<path d="M8388 6309 l-33 -31 38 27 c20 15 37 29 37 31 0 10 -12 2 -42 -27z"/>
<path d="M8901 6224 c0 -11 3 -14 6 -6 3 7 2 16 -1 19 -3 4 -6 -2 -5 -13z"/>
<path d="M8891 6184 c0 -11 3 -14 6 -6 3 7 2 16 -1 19 -3 4 -6 -2 -5 -13z"/>
<path d="M8599 6083 c-13 -16 -12 -17 4 -4 9 7 17 15 17 17 0 8 -8 3 -21 -13z"/>
<path d="M8871 6084 c0 -11 3 -14 6 -6 3 7 2 16 -1 19 -3 4 -6 -2 -5 -13z"/>
<path d="M8861 6034 c0 -11 3 -14 6 -6 3 7 2 16 -1 19 -3 4 -6 -2 -5 -13z"/>
<path d="M8831 5909 c-13 -55 -21 -103 -19 -105 3 -2 15 41 27 97 13 55 21
103 19 105 -3 2 -15 -41 -27 -97z"/>
<path d="M8386 5775 c2 -93 10 -201 18 -240 17 -84 20 -57 5 35 -6 36 -15 135
-19 220 l-8 155 4 -170z"/>
<path d="M8801 5774 c0 -11 3 -14 6 -6 3 7 2 16 -1 19 -3 4 -6 -2 -5 -13z"/>
<path d="M8421 5444 c0 -11 3 -14 6 -6 3 7 2 16 -1 19 -3 4 -6 -2 -5 -13z"/>
<path d="M8431 5394 c0 -11 3 -14 6 -6 3 7 2 16 -1 19 -3 4 -6 -2 -5 -13z"/>
<path d="M9182 4180 c-1 -135 3 -326 8 -425 15 -288 33 -550 38 -536 2 6 -4
140 -13 296 -9 156 -20 424 -24 597 l-8 313 -1 -245z"/>
<path d="M9752 4175 c0 -16 5 -66 13 -110 7 -44 13 -66 13 -50 0 17 -5 66 -13
110 -7 44 -13 67 -13 50z"/>
<path d="M9782 3945 c0 -16 2 -22 5 -12 2 9 2 23 0 30 -3 6 -5 -1 -5 -18z"/>
<path d="M9233 3145 c0 -27 2 -38 4 -22 2 15 2 37 0 50 -2 12 -4 0 -4 -28z"/>
<path d="M10092 2890 c0 -14 2 -19 5 -12 2 6 2 18 0 25 -3 6 -5 1 -5 -13z"/>
<path d="M10103 2805 c0 -22 2 -30 4 -17 2 12 2 30 0 40 -3 9 -5 -1 -4 -23z"/>
<path d="M10113 2720 c0 -25 2 -35 4 -22 2 12 2 32 0 45 -2 12 -4 2 -4 -23z"/>
<path d="M10123 2625 c0 -27 2 -38 4 -22 2 15 2 37 0 50 -2 12 -4 0 -4 -28z"/>
<path d="M10131 2549 c0 -14 6 -120 14 -235 18 -257 31 -549 45 -974 15 -452
16 -473 18 -320 2 163 -12 576 -34 985 -15 285 -40 600 -43 544z"/>
<path d="M9593 2045 c0 -22 2 -30 4 -17 2 12 2 30 0 40 -3 9 -5 -1 -4 -23z"/>
<path d="M9602 1960 c0 -19 2 -27 5 -17 2 9 2 25 0 35 -3 9 -5 1 -5 -18z"/>
<path d="M9612 1885 c0 -16 2 -22 5 -12 2 9 2 23 0 30 -3 6 -5 -1 -5 -18z"/>
<path d="M9622 1820 c0 -14 2 -19 5 -12 2 6 2 18 0 25 -3 6 -5 1 -5 -13z"/>
<path d="M9632 1755 c0 -16 2 -22 5 -12 2 9 2 23 0 30 -3 6 -5 -1 -5 -18z"/>
<path d="M9642 1690 c0 -14 2 -19 5 -12 2 6 2 18 0 25 -3 6 -5 1 -5 -13z"/>
<path d="M9651 1634 c0 -11 3 -14 6 -6 3 7 2 16 -1 19 -3 4 -6 -2 -5 -13z"/>
<path d="M10574 1370 c0 -63 1 -89 3 -57 2 31 2 83 0 115 -2 31 -3 5 -3 -58z"/>
</g>
</svg>
