<?xml version="1.0" standalone="no"?>
<!DOCTYPE svg PUBLIC "-//W3C//DTD SVG 20010904//EN"
 "http://www.w3.org/TR/2001/REC-SVG-20010904/DTD/svg10.dtd">
<svg version="1.0" xmlns="http://www.w3.org/2000/svg"
 width="1052.000000pt" height="2328.000000pt" viewBox="0 0 1052.000000 2328.000000"
 preserveAspectRatio="xMidYMid meet">

<g transform="translate(0.000000,2328.000000) scale(0.100000,-0.100000)"
fill="#000000" stroke="none">
<path d="M5055 23079 c-207 -27 -374 -95 -488 -199 -37 -34 -79 -82 -93 -105
-18 -31 -37 -48 -67 -60 -105 -42 -213 -146 -270 -260 -35 -71 -47 -120 -63
-269 -26 -251 -15 -413 41 -579 28 -80 30 -91 15 -82 -5 3 -25 -1 -44 -10 -86
-41 -89 -187 -8 -405 27 -74 57 -160 67 -190 41 -126 72 -162 148 -170 l52 -5
17 -100 c22 -129 48 -206 109 -331 l49 -101 0 -121 c0 -128 -18 -249 -46 -308
-36 -77 -145 -139 -574 -329 -146 -65 -337 -153 -425 -198 -196 -98 -250 -118
-409 -156 -150 -36 -259 -77 -352 -133 -253 -151 -383 -331 -504 -698 -73
-221 -92 -329 -97 -565 -4 -159 -1 -245 17 -420 25 -253 24 -266 -31 -555 -67
-358 -90 -550 -114 -950 -8 -140 -19 -282 -26 -315 -14 -78 -70 -226 -129
-345 -201 -401 -270 -645 -360 -1255 -63 -429 -105 -664 -160 -885 -41 -162
-248 -791 -268 -814 -9 -10 -46 -37 -82 -60 -36 -23 -113 -81 -171 -128 -58
-48 -132 -103 -165 -123 -82 -52 -107 -77 -175 -176 -33 -48 -88 -120 -122
-160 -35 -41 -87 -110 -116 -154 -30 -44 -82 -108 -117 -141 -68 -65 -77 -91
-49 -131 23 -33 96 -57 148 -49 76 12 162 60 220 123 73 81 178 183 188 183
13 0 10 -76 -6 -155 -7 -38 -57 -200 -109 -360 -159 -483 -191 -613 -172 -689
9 -35 61 -66 110 -66 67 0 90 35 194 297 96 242 189 449 197 441 3 -2 -4 -38
-15 -79 -11 -41 -29 -106 -39 -146 -11 -40 -29 -125 -41 -190 -11 -65 -35
-176 -51 -248 -41 -172 -38 -250 8 -297 26 -26 40 -31 75 -31 58 0 91 24 117
82 25 58 126 402 187 636 24 93 49 174 55 180 8 7 10 0 6 -25 -13 -79 -49
-444 -64 -646 -10 -133 19 -184 105 -184 56 0 86 21 111 79 20 46 82 379 122
650 11 74 24 141 28 150 12 21 20 -66 30 -326 10 -258 19 -291 82 -307 48 -12
89 8 111 54 24 50 36 145 48 396 14 291 22 351 69 545 74 306 87 422 70 639
l-12 156 26 45 c15 25 49 113 76 196 27 82 71 197 96 254 63 140 301 614 414
824 136 252 244 474 300 615 58 148 225 667 246 766 8 38 21 159 30 269 19
228 22 247 71 387 48 140 95 329 135 540 18 98 36 175 40 170 8 -8 55 -261
130 -687 45 -255 51 -312 56 -475 6 -222 -7 -331 -72 -585 -57 -224 -63 -260
-75 -458 -11 -190 -26 -268 -104 -540 -67 -233 -77 -279 -111 -522 -14 -104
-48 -302 -75 -440 -100 -505 -115 -652 -115 -1115 1 -454 18 -674 96 -1260 72
-544 170 -1046 314 -1605 139 -540 150 -632 150 -1215 l0 -445 -28 -150 c-101
-535 -124 -705 -133 -990 -10 -280 14 -519 92 -935 39 -209 37 -197 249 -1095
166 -703 198 -865 217 -1092 12 -146 6 -266 -26 -523 l-12 -95 -69 -71 c-39
-38 -106 -108 -150 -155 l-80 -84 -120 -39 c-142 -46 -180 -71 -195 -127 -20
-72 19 -138 90 -154 18 -4 37 -19 50 -40 29 -47 104 -80 251 -109 166 -33 237
-56 317 -104 37 -22 85 -47 106 -56 175 -73 466 -87 633 -30 83 28 128 67 165
141 47 96 45 179 -12 418 -48 205 -52 276 -24 405 26 122 23 235 -10 340 -14
47 -40 139 -57 205 -54 209 -51 418 16 1305 31 404 34 427 95 764 80 447 84
484 84 741 0 292 -22 459 -125 949 -21 104 -39 206 -39 227 0 21 23 111 50
201 152 491 210 1008 182 1628 -18 389 1 653 93 1310 54 381 84 628 106 870
13 153 16 485 5 638 l-8 112 112 0 c103 0 112 -1 105 -17 -14 -35 -18 -488 -6
-653 17 -233 54 -559 111 -960 88 -622 105 -888 88 -1354 -17 -447 10 -812 87
-1192 32 -158 47 -215 119 -453 14 -47 26 -108 26 -136 0 -28 -20 -146 -44
-261 -49 -227 -88 -458 -107 -624 -16 -134 -15 -460 0 -570 17 -123 67 -420
102 -604 32 -172 47 -322 78 -761 63 -880 60 -975 -36 -1299 -53 -180 -56
-242 -23 -421 26 -140 23 -183 -20 -356 -65 -258 -70 -361 -22 -456 62 -121
181 -167 432 -167 202 0 283 19 475 113 84 42 168 75 210 84 39 9 113 25 166
37 104 23 182 63 200 104 7 14 26 28 48 35 97 29 120 144 43 214 -11 10 -76
38 -144 61 -69 23 -141 55 -161 70 -20 16 -69 66 -108 113 -40 46 -94 104
-122 127 -46 41 -49 46 -51 97 -1 30 -11 127 -21 216 -17 143 -18 179 -7 315
15 196 49 399 111 663 27 116 81 345 120 510 38 165 99 422 135 570 149 619
205 1033 193 1425 -8 248 -25 394 -92 760 -30 162 -59 341 -64 396 -12 116 -5
754 10 939 12 146 52 351 124 633 173 671 275 1212 354 1872 56 463 75 783 68
1154 -7 402 -23 544 -117 1020 -27 138 -63 350 -79 471 -31 217 -45 278 -134
586 -50 170 -77 326 -77 441 0 117 -18 230 -65 418 -76 304 -80 330 -79 575 0
217 1 224 47 490 72 409 128 709 136 718 4 4 19 -59 34 -140 46 -243 76 -369
132 -543 63 -196 60 -184 80 -430 19 -235 29 -279 146 -641 140 -435 177 -519
450 -1035 183 -346 367 -722 427 -869 22 -55 56 -152 76 -215 19 -63 47 -133
62 -154 l27 -39 -12 -112 c-22 -219 -12 -344 46 -595 70 -301 71 -315 87 -609
19 -340 28 -402 66 -445 23 -24 36 -31 68 -31 49 0 78 24 92 74 5 20 14 150
20 290 11 246 20 320 34 255 3 -16 13 -76 21 -134 28 -188 95 -564 111 -619
17 -60 60 -110 96 -112 51 -3 74 4 100 28 38 36 42 82 24 258 -8 83 -18 186
-21 230 -4 44 -13 129 -21 188 -26 195 -15 204 30 27 64 -248 199 -687 221
-722 46 -69 147 -70 192 -2 26 41 22 163 -10 289 -14 55 -37 165 -52 245 -14
80 -39 190 -55 245 -37 130 -43 158 -32 151 14 -8 122 -258 182 -421 95 -254
130 -305 210 -305 119 0 137 101 61 344 -21 67 -44 145 -51 175 -7 29 -35 115
-62 190 -28 75 -66 186 -85 246 -35 111 -71 300 -60 311 10 10 73 -45 164
-144 71 -76 101 -101 152 -125 106 -50 224 -39 256 24 20 38 9 62 -55 124 -29
28 -78 88 -110 135 -32 47 -79 109 -105 139 -25 30 -78 98 -115 152 -82 115
-112 146 -194 201 -33 23 -110 80 -171 128 -60 48 -139 106 -175 130 -36 24
-71 51 -77 59 -13 17 -167 472 -226 671 -68 226 -113 452 -191 977 -102 677
-145 837 -326 1213 -168 349 -183 404 -200 770 -13 282 -42 539 -87 790 -19
107 -43 242 -54 300 -23 133 -23 170 1 420 43 442 16 695 -112 1044 -158 434
-386 640 -823 745 -159 39 -198 54 -395 152 -85 42 -274 130 -420 194 -426
189 -558 263 -595 336 -25 48 -44 152 -51 285 l-7 121 55 119 c65 140 89 213
113 347 l17 97 51 0 c44 0 53 4 82 35 20 21 42 61 55 102 13 38 45 128 72 201
76 209 87 336 32 401 -13 16 -38 32 -54 36 -17 4 -30 9 -30 11 0 2 9 35 19 74
33 119 44 244 39 467 -6 232 -16 282 -86 418 -43 84 -210 256 -342 354 -154
115 -371 205 -554 230 -90 13 -310 12 -411 0z m422 -34 c129 -21 242 -58 358
-119 87 -45 209 -125 202 -132 -1 -2 -53 18 -115 43 -63 24 -115 43 -118 41
-2 -3 40 -24 95 -47 272 -116 423 -266 489 -485 21 -69 25 -107 29 -267 8
-280 -20 -466 -87 -586 -16 -28 -55 -125 -85 -214 -68 -197 -89 -239 -221
-449 -177 -282 -220 -329 -324 -354 l-25 -7 25 18 c93 66 160 155 214 286 27
67 7 39 -40 -55 -26 -51 -60 -110 -77 -131 -28 -37 -160 -137 -179 -137 -5 0
4 19 20 43 35 50 57 93 66 127 4 14 -7 0 -25 -30 -62 -106 -98 -141 -172 -169
l-28 -11 28 38 28 37 -34 -28 c-30 -25 -102 -67 -115 -67 -3 0 15 21 40 46 39
41 84 110 84 130 0 3 -19 -20 -43 -52 -79 -107 -148 -136 -281 -120 -73 10
-137 53 -198 134 -53 70 -64 70 -19 0 43 -67 120 -137 165 -149 23 -6 80 -8
135 -5 53 3 107 5 120 6 35 0 143 30 168 45 15 10 23 11 25 3 6 -18 228 59
261 90 35 33 116 152 234 342 120 194 127 207 199 414 35 99 72 188 82 199 24
24 68 25 90 3 13 -12 18 -39 20 -104 3 -97 -3 -122 -87 -359 -59 -166 -73
-196 -103 -217 -50 -35 -128 -5 -115 44 3 14 1 20 -6 17 -8 -3 -11 -22 -9 -52
5 -101 -49 -319 -113 -458 l-25 -52 0 125 c0 80 -4 119 -10 109 -25 -43 -40
-501 -19 -613 5 -31 8 -63 6 -69 -6 -18 -94 124 -122 195 -13 35 -24 55 -25
45 0 -23 43 -132 75 -189 39 -70 132 -176 195 -222 80 -59 188 -113 505 -254
149 -66 342 -155 430 -199 202 -100 240 -115 400 -154 213 -51 324 -101 462
-206 147 -111 238 -244 332 -480 80 -202 123 -384 142 -593 12 -135 9 -194
-25 -584 -15 -170 -11 -230 34 -460 68 -353 94 -564 115 -947 8 -152 21 -307
29 -345 21 -98 62 -204 156 -398 191 -395 245 -589 335 -1206 64 -439 116
-721 171 -930 14 -52 75 -244 135 -426 121 -367 112 -350 239 -434 36 -24 106
-76 155 -115 50 -40 125 -96 168 -124 63 -42 91 -70 140 -138 34 -47 89 -119
122 -161 95 -118 90 -110 71 -130 -24 -28 -19 -38 7 -14 l23 22 37 -57 c30
-46 36 -62 31 -89 -10 -56 48 -144 95 -144 9 0 2 9 -17 20 -34 21 -74 92 -65
117 4 9 15 5 44 -17 62 -50 90 -89 80 -109 -19 -35 -43 -46 -100 -45 -93 0
-153 35 -271 157 -56 58 -120 118 -142 133 -37 26 -40 31 -35 64 3 19 3 29 0
23 -11 -29 -22 -10 -26 45 -3 31 -3 -17 -2 -108 3 -197 19 -269 124 -558 38
-103 76 -218 85 -257 10 -38 33 -118 52 -177 19 -59 34 -120 34 -135 l0 -27
-16 22 c-18 27 -69 30 -103 6 -20 -14 -22 -23 -19 -69 2 -41 0 -51 -9 -43 -21
17 -46 96 -39 122 5 19 3 24 -8 20 -10 -4 -24 22 -51 93 -96 251 -165 405
-218 483 -29 43 -38 50 -43 36 -10 -25 14 -156 47 -265 16 -52 41 -158 55
-235 14 -78 36 -184 49 -237 14 -52 27 -122 30 -155 l5 -59 -19 42 c-22 48
-47 59 -96 43 -37 -12 -42 -23 -48 -95 l-3 -40 -13 30 c-11 25 -114 378 -211
725 -12 41 -33 101 -48 134 -21 47 -27 55 -33 40 -12 -31 -10 -162 5 -269 8
-55 17 -140 21 -190 4 -49 13 -148 21 -220 19 -180 19 -191 -9 -135 -19 40
-26 45 -59 48 -55 5 -78 -11 -78 -55 0 -24 -3 -34 -10 -27 -9 9 -65 316 -115
632 -25 156 -57 254 -76 235 -20 -20 -49 -329 -49 -538 0 -49 -5 -97 -10 -105
-8 -12 -10 -10 -10 10 -1 59 -10 70 -55 70 -45 0 -55 -10 -55 -53 0 -13 -4
-17 -9 -11 -11 10 -27 195 -36 414 -9 209 -20 297 -59 455 -74 301 -90 445
-72 664 9 125 13 142 25 128 7 -10 18 -17 23 -17 4 0 -14 29 -41 65 -43 55
-57 86 -96 211 -26 81 -67 194 -91 251 -53 123 -298 612 -450 898 -211 397
-282 565 -413 978 -100 317 -116 388 -131 602 -14 198 -23 241 -81 423 -51
161 -96 352 -150 637 l-32 170 37 175 c72 341 106 524 137 737 27 192 36 231
80 352 73 201 69 228 -7 46 l-66 -160 -48 -285 c-47 -278 -81 -446 -195 -955
-111 -500 -148 -643 -245 -935 -54 -162 -101 -311 -104 -330 -14 -79 197 550
239 713 16 59 30 105 32 103 2 -2 -15 -111 -37 -242 -67 -382 -72 -431 -67
-609 6 -184 19 -264 88 -540 43 -175 51 -220 59 -360 14 -234 25 -293 106
-578 65 -228 78 -289 110 -505 19 -136 48 -312 65 -392 153 -747 171 -1170 84
-2030 -74 -724 -148 -1142 -355 -1990 -158 -648 -155 -623 -155 -1245 l0 -490
47 -240 c77 -394 91 -489 108 -769 17 -269 -4 -543 -71 -926 -36 -207 -59
-312 -177 -810 -143 -600 -220 -928 -242 -1035 -58 -280 -83 -595 -60 -775 26
-211 25 -279 -5 -381 -15 -52 -29 -105 -31 -119 -5 -29 52 87 69 143 7 20 15
37 18 37 5 0 58 -54 196 -200 28 -30 76 -79 107 -108 53 -52 57 -54 95 -47 62
10 142 -17 181 -62 27 -31 31 -41 26 -72 -6 -43 -41 -74 -73 -68 -18 3 -27 -2
-38 -22 -37 -71 -92 -99 -270 -135 -66 -14 -146 -34 -177 -45 -32 -11 -58 -17
-58 -14 0 4 10 18 23 32 18 21 19 23 2 11 -11 -8 -42 -34 -68 -57 -162 -142
-507 -193 -756 -112 -80 27 -132 76 -156 149 -24 73 -16 176 30 365 49 207 53
273 25 421 -28 151 -24 228 25 389 49 166 76 302 82 425 10 208 -70 1351 -112
1593 -121 691 -131 776 -122 1021 3 89 15 231 27 316 27 201 160 860 204 1015
19 66 33 121 31 123 -4 5 -64 -154 -82 -220 -15 -54 -33 -77 -33 -43 0 9 -15
64 -34 123 -74 228 -120 454 -158 772 -22 185 -23 222 -20 730 4 674 -3 779
-93 1410 -46 324 -85 644 -106 880 -14 154 -17 522 -5 653 l8 87 46 -34 c177
-128 427 -199 702 -200 208 0 363 28 533 95 103 41 109 56 8 19 -160 -58 -264
-74 -491 -74 -175 0 -220 3 -310 22 -365 79 -576 241 -612 468 -10 66 -5 1054
6 1144 10 78 -4 29 -17 -65 l-14 -90 -12 88 c-7 48 -15 86 -18 83 -3 -3 -1
-56 5 -118 6 -64 9 -322 7 -594 l-2 -482 -26 -56 c-71 -155 -210 -263 -432
-335 -167 -54 -250 -66 -465 -65 -216 1 -327 17 -482 72 -46 16 -92 32 -103
36 -11 4 2 -5 28 -19 71 -38 238 -91 352 -111 136 -23 369 -23 495 0 183 33
373 109 460 183 23 20 44 33 47 29 14 -14 25 -266 19 -476 -6 -291 -30 -509
-126 -1195 -87 -618 -92 -712 -82 -1540 4 -349 -30 -701 -98 -1015 -35 -158
-120 -444 -130 -433 -4 4 -12 28 -19 53 -21 72 -73 211 -77 207 -3 -2 13 -69
36 -148 40 -144 155 -714 184 -910 26 -180 36 -306 36 -470 0 -227 -15 -343
-105 -844 -44 -240 -86 -716 -126 -1425 -16 -291 -2 -413 80 -700 48 -167 52
-236 20 -386 -27 -127 -22 -192 27 -399 32 -132 39 -178 39 -265 0 -89 -3
-111 -22 -146 -43 -81 -122 -122 -273 -145 -222 -32 -497 32 -630 147 -25 22
-54 46 -65 54 -17 12 -16 10 3 -11 33 -37 28 -41 -27 -19 -27 10 -100 29 -163
41 -190 36 -238 58 -285 133 -15 22 -28 36 -30 29 -5 -15 -31 -6 -61 20 -29
26 -30 84 -2 120 28 36 121 69 183 65 31 -2 51 1 54 8 2 7 -6 10 -23 6 -20 -4
-25 -2 -19 7 4 8 18 11 34 7 23 -5 43 12 186 159 88 91 163 165 166 165 4 0
10 -12 14 -27 10 -43 67 -175 72 -169 3 2 -9 53 -26 113 -36 126 -38 181 -15
356 29 217 8 521 -55 827 -11 52 -45 201 -75 330 -386 1638 -403 1724 -413
2175 -8 357 8 508 111 1061 52 280 55 345 46 824 -10 520 -12 537 -125 990
-238 955 -340 1546 -417 2425 -21 237 -18 913 5 1090 23 183 58 389 102 604
19 95 48 268 65 384 37 255 53 328 123 572 69 235 84 315 92 480 9 183 20 254
76 471 99 390 103 572 19 1049 -27 160 -50 295 -49 300 0 6 22 -64 48 -155 26
-91 82 -264 123 -385 42 -121 83 -240 91 -265 9 -25 16 -37 16 -26 1 10 -43
152 -98 315 -114 341 -146 464 -271 1026 -118 532 -152 701 -185 920 -14 99
-31 198 -36 220 -12 49 -140 367 -146 361 -4 -4 30 -109 86 -266 21 -60 39
-149 61 -305 18 -121 52 -317 76 -435 25 -118 56 -273 71 -343 l26 -128 -27
-142 c-62 -316 -100 -480 -151 -637 -65 -203 -72 -235 -85 -435 -7 -88 -17
-194 -25 -236 -17 -102 -173 -598 -242 -774 -56 -142 -212 -463 -331 -680 -93
-170 -352 -691 -405 -816 -25 -57 -63 -163 -86 -234 -37 -120 -62 -170 -123
-250 -14 -19 -16 -25 -5 -16 10 8 21 11 25 7 10 -10 20 -144 21 -271 1 -136
-17 -257 -69 -473 -52 -213 -56 -248 -70 -532 -11 -250 -26 -389 -41 -404 -5
-6 -9 2 -9 21 0 53 -8 63 -52 63 -34 0 -41 -4 -52 -31 -13 -30 -13 -31 -19 -8
-4 13 -7 80 -7 149 -1 215 -27 460 -49 460 -22 0 -45 -89 -76 -291 -37 -247
-94 -559 -105 -578 -7 -13 -9 -10 -10 15 0 55 -44 82 -101 62 -22 -7 -32 -20
-41 -51 -20 -69 -21 -13 -4 151 8 81 18 181 21 222 3 41 13 140 21 220 10 97
13 161 7 195 l-9 50 -32 -66 c-17 -37 -52 -142 -76 -235 -24 -93 -65 -241 -90
-329 -85 -294 -106 -347 -106 -269 0 49 -21 80 -60 89 -46 10 -67 -2 -84 -48
l-14 -42 -1 40 c-1 22 12 94 28 160 16 66 37 163 46 215 8 52 33 160 55 240
49 182 62 257 52 294 l-8 29 -32 -49 c-59 -93 -167 -341 -287 -661 -33 -88
-51 -106 -42 -41 5 37 2 51 -14 72 -26 33 -73 35 -107 4 l-24 -23 7 35 c3 19
19 76 35 125 16 50 36 119 45 155 9 36 50 162 91 280 104 297 124 381 130 560
3 95 1 138 -5 125 -5 -11 -10 -33 -11 -50 -1 -29 -1 -29 -16 -10 -14 19 -15
17 -9 -20 6 -39 5 -41 -44 -79 -28 -21 -89 -80 -136 -130 -90 -99 -156 -141
-237 -152 -49 -7 -133 20 -109 35 10 7 9 9 -3 14 -9 4 -16 11 -16 18 0 11 110
118 123 119 12 0 8 -39 -8 -69 -8 -16 -28 -40 -45 -55 -20 -16 -26 -26 -17
-26 9 0 32 19 51 42 31 36 36 49 36 92 0 42 6 60 36 104 l37 53 24 -23 25 -23
-18 31 -18 31 65 79 c36 44 89 113 117 154 72 105 79 112 178 179 49 32 116
82 149 111 33 28 106 83 163 121 56 39 110 82 119 96 25 38 227 657 268 818
49 197 96 455 155 855 97 652 141 809 345 1240 143 301 158 359 175 690 20
380 41 566 107 920 58 314 61 371 33 650 -41 412 -13 677 106 997 159 430 389
642 802 739 162 38 191 49 407 154 110 54 319 151 465 215 412 182 500 234
597 357 67 84 98 141 128 228 35 104 31 110 -9 11 -19 -45 -51 -107 -71 -137
-37 -53 -62 -71 -51 -36 26 83 33 299 15 497 -16 188 -27 212 -28 65 l-2 -125
-19 35 c-61 111 -133 395 -123 481 3 22 0 40 -7 44 -9 5 -10 1 -6 -13 10 -29
-25 -62 -65 -62 -65 0 -80 21 -140 195 -21 60 -52 151 -70 200 -26 73 -32 106
-33 175 -1 110 16 143 72 138 47 -4 67 -38 123 -213 53 -169 85 -237 203 -430
177 -290 195 -309 340 -369 99 -41 154 -45 66 -4 -72 32 -136 99 -221 227 -38
57 -69 101 -69 96 0 -16 96 -168 143 -226 46 -56 47 -60 19 -45 -51 26 -117
111 -225 289 -157 258 -163 272 -222 450 -30 91 -66 190 -81 219 -77 152 -107
277 -107 453 -1 136 12 232 44 337 21 70 19 84 -4 36 -24 -48 -22 -6 2 65 51
146 168 273 294 318 22 8 43 23 49 34 44 86 149 181 263 238 57 28 155 59 155
49 0 -4 -19 -18 -41 -32 -55 -34 -131 -117 -160 -177 -27 -55 -33 -173 -11
-208 11 -18 12 -16 6 15 -23 114 12 209 110 305 81 79 164 121 266 133 119 15
307 13 407 -3z m-150 -11921 c39 -57 42 -54 -66 -54 l-101 0 29 41 c17 22 37
64 47 92 24 75 25 76 49 10 12 -33 30 -73 42 -89z m-3725 -899 c7 -44 5 -52
-13 -67 -48 -41 -85 -12 -75 58 8 60 12 66 49 62 30 -3 32 -6 39 -53z m7403
22 c4 -19 5 -47 3 -63 -2 -23 -8 -30 -31 -32 -39 -5 -57 14 -57 58 0 58 8 70
46 70 30 0 34 -3 39 -33z m-8561 13 c23 -8 26 -15 26 -60 0 -70 -12 -90 -55
-90 -37 0 -75 28 -75 55 0 9 7 30 16 48 31 61 40 66 88 47z m9692 2 c17 -11
44 -68 44 -93 0 -33 -29 -59 -65 -59 -42 0 -54 16 -62 78 -5 44 -3 51 18 66
25 17 47 20 65 8z m-8912 -255 c10 -60 -3 -94 -40 -103 -15 -4 -39 -3 -53 3
-24 8 -26 13 -24 67 3 73 14 88 67 84 40 -3 41 -4 50 -51z m8180 31 c8 -13 18
-43 22 -67 6 -36 4 -46 -11 -58 -27 -19 -72 -16 -95 7 -23 23 -28 108 -8 128
21 21 76 15 92 -10z m-8600 -30 c21 -29 20 -97 0 -126 -13 -19 -24 -22 -57
-20 -33 2 -44 9 -56 30 -14 24 -13 32 2 82 18 55 18 56 57 56 29 0 43 -6 54
-22z m9028 -35 c14 -42 15 -58 6 -77 -21 -47 -105 -54 -122 -11 -3 9 -6 41 -6
70 0 62 14 76 70 72 33 -2 36 -5 52 -54z m-2736 -8595 c4 -5 -4 -8 -17 -6 -12
1 -24 8 -26 15 -5 14 34 6 43 -9z"/>
<path d="M4895 22901 c-82 -62 -128 -133 -145 -220 -5 -28 -5 -61 0 -77 7 -26
8 -24 9 18 2 88 36 155 122 241 43 42 75 77 71 77 -4 0 -30 -18 -57 -39z"/>
<path d="M5214 22800 c-40 -10 -95 -30 -124 -45 -93 -47 -190 -155 -190 -212
0 -9 12 6 26 35 46 92 158 171 295 208 43 12 103 18 184 18 78 1 106 3 80 8
-73 13 -198 7 -271 -12z"/>
<path d="M5182 22684 c-88 -23 -165 -71 -198 -122 -13 -21 -8 -18 27 13 86 80
220 121 364 112 46 -2 67 -1 50 3 -50 13 -187 10 -243 -6z"/>
<path d="M4501 22630 c37 -4 77 -13 89 -20 12 -6 24 -9 27 -6 12 11 -54 29
-117 32 l-65 3 66 -9z"/>
<path d="M5075 22560 c-22 -11 -31 -18 -21 -15 153 44 272 20 391 -77 l50 -41
-39 41 c-21 22 -66 55 -100 73 -54 29 -72 33 -151 36 -75 3 -97 0 -130 -17z"/>
<path d="M4455 22541 c-65 -16 -175 -87 -175 -113 0 -5 16 4 35 21 66 57 111
74 215 80 63 3 87 7 70 12 -32 9 -106 9 -145 0z"/>
<path d="M4593 22449 c-65 -25 -141 -92 -175 -156 -37 -69 -45 -108 -9 -44 63
110 109 152 218 197 70 28 40 31 -34 3z"/>
<path d="M4678 22410 c-74 -49 -132 -139 -143 -222 -6 -39 -4 -37 18 24 32 86
77 148 140 193 62 43 49 47 -15 5z"/>
<path d="M6278 22385 c57 -94 74 -164 81 -335 6 -147 7 -152 15 -86 10 78 2
198 -18 271 -16 61 -68 166 -92 185 -9 8 -3 -7 14 -35z"/>
<path d="M6320 21996 c0 -90 -25 -221 -60 -317 -16 -46 -28 -84 -26 -86 6 -6
55 117 72 182 16 60 32 285 20 285 -3 0 -6 -29 -6 -64z"/>
<path d="M4132 22000 c0 -14 2 -19 5 -12 2 6 2 18 0 25 -3 6 -5 1 -5 -13z"/>
<path d="M4125 21897 c6 -102 27 -182 76 -285 36 -79 137 -252 146 -252 2 0
-32 69 -76 153 -91 175 -116 242 -136 370 l-14 92 4 -78z"/>
<path d="M6350 21343 c0 -49 -4 -113 -9 -143 -22 -128 -22 -129 -5 -80 16 45
33 310 20 310 -3 0 -6 -39 -6 -87z"/>
<path d="M4172 21317 c-2 -97 21 -257 34 -244 3 2 0 26 -7 53 -6 27 -14 105
-18 174 l-8 125 -1 -108z"/>
<path d="M4740 20672 c0 -20 67 -113 123 -169 48 -49 78 -70 135 -94 41 -17
76 -28 79 -25 3 2 -31 23 -74 45 -89 44 -184 130 -228 205 -26 45 -35 54 -35
38z"/>
<path d="M5284 19740 c0 -69 1 -97 3 -62 2 34 2 90 0 125 -2 34 -3 6 -3 -63z"/>
<path d="M5331 19324 c0 -11 3 -14 6 -6 3 7 2 16 -1 19 -3 4 -6 -2 -5 -13z"/>
<path d="M5311 19248 c-7 -29 -15 -93 -17 -143 l-3 -90 13 100 c8 55 17 119
21 143 11 59 1 52 -14 -10z"/>
<path d="M6245 18944 c-55 -28 -77 -58 -142 -194 -137 -281 -136 -265 -49
-810 14 -85 41 -274 61 -420 38 -288 63 -393 123 -521 53 -113 91 -162 147
-189 60 -29 130 -23 217 19 35 16 108 46 163 66 104 38 365 161 400 190 11 8
-27 -8 -85 -36 -93 -46 -362 -159 -378 -159 -3 0 30 37 74 83 73 75 130 145
177 220 33 51 9 27 -48 -50 -80 -107 -220 -242 -291 -280 -168 -90 -250 -60
-343 124 -75 151 -93 228 -146 633 -14 107 -44 305 -66 440 -44 271 -50 391
-24 479 9 29 50 123 91 207 69 143 78 157 121 184 50 32 48 40 -2 14z"/>
<path d="M4286 18928 c44 -34 50 -43 115 -178 128 -266 132 -302 65 -707 -25
-148 -58 -377 -76 -510 -36 -285 -63 -400 -123 -526 -48 -102 -92 -158 -137
-177 -47 -19 -136 -8 -204 26 -74 36 -205 159 -294 274 -77 100 -93 118 -64
70 44 -73 109 -155 183 -231 41 -44 74 -79 72 -79 -14 0 -277 112 -368 157
-131 64 -112 44 25 -26 93 -48 333 -151 352 -151 5 0 37 -13 71 -30 84 -40
161 -55 213 -41 119 32 233 265 274 561 11 74 31 221 45 325 14 105 41 282 60
395 48 292 50 314 31 411 -23 116 -164 403 -215 437 -44 29 -62 29 -25 0z"/>
<path d="M3360 18905 c0 -15 389 -179 670 -282 145 -53 235 -63 267 -29 17 18
17 18 -4 7 -31 -16 -90 -14 -154 5 -96 29 -662 245 -728 279 -28 14 -51 23
-51 20z"/>
<path d="M7060 18860 c-81 -35 -644 -248 -685 -259 -50 -14 -122 -14 -130 -1
-3 6 -12 10 -18 10 -7 -1 -1 -10 13 -21 50 -42 120 -22 570 157 156 63 289
119 294 124 14 14 8 12 -44 -10z"/>
<path d="M5311 18735 c-1 -22 -8 -65 -16 -95 -20 -75 -19 -127 7 -252 21 -98
21 -112 9 -190 -20 -125 -25 -261 -12 -341 13 -86 14 -110 6 -337 -7 -222 -8
-210 6 -305 11 -74 9 -128 -7 -295 -4 -42 0 -102 10 -167 20 -125 20 -272 1
-381 -13 -77 -13 -90 6 -193 l20 -111 -22 -109 -22 -109 24 -115 24 -115 -22
-88 c-35 -139 -35 -144 -13 -241 24 -101 23 -161 -4 -279 -16 -71 -16 -76 4
-148 26 -93 29 -220 6 -283 -19 -51 -20 -102 -5 -151 24 -81 28 -149 12 -208
-12 -43 -16 -109 -18 -262 0 -113 -4 -241 -7 -285 -5 -60 -3 -52 7 30 9 63 14
182 13 280 -1 133 3 181 15 220 22 65 21 102 -4 205 l-20 85 22 89 c25 101 23
196 -7 291 -18 55 -18 60 1 143 28 134 29 155 4 263 -24 107 -23 127 17 274
17 62 15 83 -18 235 -10 46 -9 68 7 144 22 110 22 167 0 273 -15 75 -15 88 -1
166 19 101 20 237 4 344 -14 85 -15 198 -4 338 6 64 4 116 -7 182 -10 62 -13
114 -8 160 11 107 7 420 -7 506 -12 70 -11 94 8 225 20 140 21 151 5 222 -40
190 -39 177 -21 274 10 50 16 105 14 121 -4 26 -5 25 -7 -10z"/>
<path d="M3340 18735 c142 -31 232 -65 376 -141 153 -81 213 -102 341 -119
117 -15 160 -33 204 -83 53 -60 80 -149 92 -307 2 -22 4 -8 5 31 4 171 -49
293 -151 345 -20 11 -83 26 -140 34 -128 18 -178 35 -352 122 -147 74 -226
102 -364 127 -124 24 -131 18 -11 -9z"/>
<path d="M7166 18744 c-118 -21 -245 -67 -370 -133 -136 -73 -206 -97 -333
-115 -54 -8 -110 -19 -125 -25 -46 -17 -114 -88 -137 -141 -19 -44 -47 -228
-36 -238 5 -6 13 31 19 98 8 82 33 143 78 195 54 61 80 73 200 90 130 18 185
37 356 124 158 80 224 104 372 136 116 26 100 31 -24 9z"/>
<path d="M5233 18335 c0 -33 2 -45 4 -27 2 18 2 45 0 60 -2 15 -4 0 -4 -33z"/>
<path d="M5233 17855 c0 -33 2 -45 4 -27 2 18 2 45 0 60 -2 15 -4 0 -4 -33z"/>
<path d="M5223 17600 c0 -41 2 -58 4 -37 2 20 2 54 0 75 -2 20 -4 3 -4 -38z"/>
<path d="M5223 17245 c0 -22 2 -30 4 -17 2 12 2 30 0 40 -3 9 -5 -1 -4 -23z"/>
<path d="M5212 17170 c0 -14 2 -19 5 -12 2 6 2 18 0 25 -3 6 -5 1 -5 -13z"/>
<path d="M4656 17070 c3 -14 11 -32 16 -40 6 -10 7 -7 2 10 -3 14 -11 32 -16
40 -6 10 -7 7 -2 -10z"/>
<path d="M5800 16907 c-25 -61 -93 -209 -152 -327 -58 -118 -98 -204 -87 -192
51 63 302 612 287 627 -2 3 -24 -46 -48 -108z"/>
<path d="M4680 17006 c0 -38 176 -429 247 -551 81 -138 71 -107 -31 95 -58
113 -128 261 -156 330 -51 122 -60 141 -60 126z"/>
<path d="M5223 16840 c0 -25 2 -35 4 -22 2 12 2 32 0 45 -2 12 -4 2 -4 -23z"/>
<path d="M5232 16729 c-1 -31 -4 -85 -7 -120 l-4 -64 10 60 c5 33 8 87 6 120
l-3 60 -2 -56z"/>
<path d="M5213 16495 c0 -22 2 -30 4 -17 2 12 2 30 0 40 -3 9 -5 -1 -4 -23z"/>
<path d="M5222 16244 c-1 -44 -4 -123 -7 -175 l-4 -94 10 70 c5 39 8 117 6
175 -3 97 -3 99 -5 24z"/>
<path d="M5225 15625 c3 -176 -1 -269 -12 -350 -9 -70 -12 -128 -7 -160 7 -48
12 -367 14 -930 0 -148 4 -301 9 -340 6 -53 5 458 -1 850 -1 17 -1 107 0 200
0 94 0 213 0 265 0 52 3 174 6 270 4 96 2 234 -3 305 -9 119 -9 110 -6 -110z"/>
<path d="M4754 15305 c-135 -161 -303 -297 -484 -394 -107 -57 -112 -66 -13
-21 144 65 349 222 465 356 57 66 132 164 125 164 -2 0 -43 -47 -93 -105z"/>
<path d="M5709 15370 c125 -183 374 -393 572 -484 114 -52 136 -53 29 -1 -187
91 -373 234 -513 395 -117 136 -123 141 -88 90z"/>
<path d="M4140 14850 c-8 -5 -10 -10 -5 -10 6 0 17 5 25 10 8 5 11 10 5 10 -5
0 -17 -5 -25 -10z"/>
<path d="M2216 14798 c-18 -43 -30 -84 -23 -78 9 8 47 110 41 110 -3 0 -11
-15 -18 -32z"/>
<path d="M2777 14790 c-16 -89 -39 -124 -121 -179 -42 -29 -76 -56 -76 -61 0
-13 104 54 148 94 36 33 66 115 60 163 -3 23 -5 20 -11 -17z"/>
<path d="M8312 14763 c13 -34 24 -60 27 -58 5 6 -29 97 -40 110 -5 5 1 -18 13
-52z"/>
<path d="M7744 14768 c6 -79 33 -117 127 -176 85 -54 68 -28 -23 35 -56 38
-72 62 -93 133 l-15 55 4 -47z"/>
<path d="M3825 13704 c-137 -30 -350 -111 -410 -158 -11 -9 23 4 75 28 204 96
427 143 629 134 58 -3 93 -1 76 2 -55 14 -297 9 -370 -6z"/>
<path d="M6495 13710 c197 -11 409 -67 589 -157 39 -19 67 -30 61 -25 -20 22
-193 100 -285 131 -151 49 -227 61 -373 59 l-132 -1 140 -7z"/>
<path d="M6318 13703 c6 -2 18 -2 25 0 6 3 1 5 -13 5 -14 0 -19 -2 -12 -5z"/>
<path d="M4640 13545 c13 -14 26 -25 28 -25 3 0 -5 11 -18 25 -13 14 -26 25
-28 25 -3 0 5 -11 18 -25z"/>
<path d="M5864 13528 l-29 -33 33 29 c30 28 37 36 29 36 -2 0 -16 -15 -33 -32z"/>
<path d="M4918 13105 c35 -32 84 -87 109 -122 24 -35 47 -63 49 -63 2 0 -5 18
-16 40 -25 49 -127 158 -172 184 -23 14 -15 3 30 -39z"/>
<path d="M5614 13122 c-51 -37 -113 -107 -143 -163 -28 -52 -20 -45 42 37 25
34 69 82 98 108 59 53 60 59 3 18z"/>
<path d="M5221 12504 c0 -11 3 -14 6 -6 3 7 2 16 -1 19 -3 4 -6 -2 -5 -13z"/>
<path d="M9670 11122 c0 -21 30 -67 54 -82 l21 -13 -21 24 c-12 13 -29 38 -37
54 -9 17 -16 24 -17 17z"/>
<path d="M817 11072 l-28 -47 31 33 c16 18 30 39 30 47 0 21 -2 19 -33 -33z"/>
<path d="M9391 11036 c-1 -24 38 -94 58 -101 13 -5 12 -3 -1 12 -9 10 -26 38
-37 63 -11 25 -20 37 -20 26z"/>
<path d="M1116 11023 c-4 -12 -18 -38 -31 -57 -13 -20 -20 -36 -15 -36 16 0
62 77 58 97 -4 16 -5 15 -12 -4z"/>
<path d="M1599 10989 c-11 -36 -12 -46 -2 -38 12 11 29 76 22 84 -2 1 -11 -19
-20 -46z"/>
<path d="M8900 11026 c0 -21 29 -91 35 -85 4 5 -23 90 -31 98 -2 2 -4 -3 -4
-13z"/>
<path d="M1364 10974 c-14 -34 -17 -50 -8 -43 15 12 37 74 32 88 -2 5 -13 -15
-24 -45z"/>
<path d="M9131 11017 c-1 -23 24 -83 38 -91 7 -5 6 5 -3 26 -8 18 -19 44 -24
58 -8 18 -11 20 -11 7z"/>
<path d="M540 10670 c8 -5 20 -10 25 -10 6 0 3 5 -5 10 -8 5 -19 10 -25 10 -5
0 -3 -5 5 -10z"/>
<path d="M9960 10670 c-8 -5 -10 -10 -5 -10 6 0 17 5 25 10 8 5 11 10 5 10 -5
0 -17 -5 -25 -10z"/>
<path d="M9985 10619 c-22 -10 -34 -19 -27 -19 15 0 72 28 72 35 0 6 3 7 -45
-16z"/>
<path d="M520 10615 c14 -8 34 -14 45 -14 13 0 8 5 -15 14 -46 18 -61 18 -30
0z"/>
<path d="M1573 10623 c9 -2 23 -2 30 0 6 3 -1 5 -18 5 -16 0 -22 -2 -12 -5z"/>
<path d="M8933 10623 c9 -2 23 -2 30 0 6 3 -1 5 -18 5 -16 0 -22 -2 -12 -5z"/>
<path d="M1558 10573 c12 -2 30 -2 40 0 9 3 -1 5 -23 4 -22 0 -30 -2 -17 -4z"/>
<path d="M8928 10573 c12 -2 30 -2 40 0 9 3 -1 5 -23 4 -22 0 -30 -2 -17 -4z"/>
<path d="M9635 10495 c-39 -17 -21 -18 25 0 19 7 28 14 20 14 -8 0 -28 -6 -45
-14z"/>
<path d="M875 10490 c27 -12 43 -12 25 0 -8 5 -22 9 -30 9 -10 0 -8 -3 5 -9z"/>
<path d="M9318 10483 c7 -3 16 -2 19 1 4 3 -2 6 -13 5 -11 0 -14 -3 -6 -6z"/>
<path d="M1203 10473 c15 -2 39 -2 55 0 15 2 2 4 -28 4 -30 0 -43 -2 -27 -4z"/>
<path d="M9263 10473 c9 -2 23 -2 30 0 6 3 -1 5 -18 5 -16 0 -22 -2 -12 -5z"/>
<path d="M834 10445 c11 -8 29 -15 40 -15 25 0 19 4 -24 18 -32 11 -33 10 -16
-3z"/>
<path d="M9660 10445 c-23 -9 -28 -14 -15 -14 11 0 31 6 45 14 31 18 16 18
-30 0z"/>
<path d="M9295 10430 l-40 -7 35 -1 c19 -1 42 3 50 8 16 11 14 11 -45 0z"/>
<path d="M1213 10423 c15 -2 37 -2 50 0 12 2 0 4 -28 4 -27 0 -38 -2 -22 -4z"/>
<path d="M4442 7300 c0 -14 2 -19 5 -12 2 6 2 18 0 25 -3 6 -5 1 -5 -13z"/>
<path d="M6081 7304 c0 -11 3 -14 6 -6 3 7 2 16 -1 19 -3 4 -6 -2 -5 -13z"/>
<path d="M6062 7198 c-7 -46 -26 -150 -42 -232 -16 -83 -28 -151 -26 -153 6
-6 34 106 55 217 20 107 37 250 29 250 -2 0 -9 -37 -16 -82z"/>
<path d="M4455 7207 c7 -90 31 -224 57 -320 26 -97 34 -95 12 2 -9 40 -29 143
-45 230 -19 105 -27 134 -24 88z"/>
<path d="M3842 6918 c-65 -14 -45 -19 29 -7 169 28 426 -33 573 -137 42 -30
47 -32 27 -10 -57 62 -187 123 -323 151 -77 17 -240 18 -306 3z"/>
<path d="M6350 6909 c-41 -10 -104 -33 -139 -49 -63 -30 -165 -100 -156 -108
2 -2 19 7 37 21 78 59 226 117 352 138 63 11 189 8 256 -6 14 -2 7 2 -15 9
-62 22 -243 19 -335 -5z"/>
<path d="M7091 5068 c-40 -161 -110 -364 -161 -466 -70 -140 -132 -206 -220
-233 -24 -7 -24 -7 -2 -8 67 -3 169 95 233 221 51 102 121 308 154 453 14 65
24 119 22 121 -2 2 -14 -37 -26 -88z"/>
<path d="M3425 5085 c15 -81 64 -262 95 -345 88 -238 183 -363 286 -375 31 -4
34 -3 14 3 -89 31 -151 94 -214 220 -52 103 -115 281 -152 427 -27 104 -41
139 -29 70z"/>
<path d="M6461 4744 c0 -11 3 -14 6 -6 3 7 2 16 -1 19 -3 4 -6 -2 -5 -13z"/>
<path d="M4060 4742 c-1 -28 53 -170 91 -242 80 -149 188 -265 282 -305 58
-24 57 -17 -3 16 -128 70 -260 251 -341 469 -15 41 -28 69 -29 62z"/>
<path d="M6422 4637 c-69 -177 -204 -360 -308 -418 -58 -33 -69 -44 -28 -29
48 18 69 33 128 89 91 87 171 218 226 369 34 92 20 84 -18 -11z"/>
<path d="M3878 4363 c7 -3 16 -2 19 1 4 3 -2 6 -13 5 -11 0 -14 -3 -6 -6z"/>
<path d="M6638 4363 c6 -2 18 -2 25 0 6 3 1 5 -13 5 -14 0 -19 -2 -12 -5z"/>
<path d="M6517 3042 c-103 -326 -183 -676 -213 -937 -22 -191 -15 -485 16
-639 21 -105 68 -272 75 -264 2 1 -8 44 -21 93 -44 165 -58 293 -58 520 0 235
14 356 69 633 40 197 88 393 146 596 22 76 38 140 36 142 -2 2 -25 -62 -50
-144z"/>
<path d="M4531 3103 c-32 -226 -36 -293 -36 -658 0 -348 2 -393 23 -535 24
-157 78 -386 106 -450 22 -51 20 -37 -19 122 -43 173 -70 359 -86 573 -14 199
-6 675 15 874 17 157 15 200 -3 74z"/>
<path d="M5980 3159 c0 -13 7 -80 15 -149 22 -175 30 -657 16 -855 -15 -208
-44 -409 -81 -564 -17 -68 -28 -126 -26 -128 9 -9 55 156 80 283 70 365 80
837 25 1264 -19 154 -29 206 -29 149z"/>
<path d="M3971 3159 c-1 -3 22 -89 49 -190 69 -250 137 -560 167 -759 21 -136
25 -204 26 -390 1 -242 -10 -350 -58 -526 -13 -49 -22 -91 -20 -93 5 -4 50
147 65 214 42 189 52 484 25 704 -28 226 -92 520 -170 786 -43 145 -83 266
-84 254z"/>
</g>
</svg>
