<?xml version="1.0" standalone="no"?>
<!DOCTYPE svg PUBLIC "-//W3C//DTD SVG 20010904//EN"
 "http://www.w3.org/TR/2001/REC-SVG-20010904/DTD/svg10.dtd">
<svg version="1.0" xmlns="http://www.w3.org/2000/svg"
 width="1052.000000pt" height="2328.000000pt" viewBox="0 0 1052.000000 2328.000000"
 preserveAspectRatio="xMidYMid meet">

<g transform="translate(0.000000,2328.000000) scale(0.100000,-0.100000)"
fill="#000000" stroke="none">
<path d="M5038 23004 c-155 -24 -315 -86 -459 -179 -87 -56 -274 -270 -323
-370 -65 -131 -96 -293 -96 -505 0 -121 19 -320 35 -371 5 -16 1 -19 -25 -19
-42 0 -66 -14 -87 -53 -26 -46 -23 -234 5 -337 31 -116 122 -341 149 -368 21
-21 31 -24 72 -19 l48 6 12 -85 c14 -100 43 -199 79 -269 25 -48 26 -57 30
-281 7 -379 27 -358 -683 -732 -322 -169 -368 -189 -518 -223 -395 -89 -566
-167 -733 -333 -105 -105 -154 -177 -230 -335 -227 -469 -277 -760 -211 -1233
13 -90 12 -103 -8 -205 -12 -59 -38 -169 -58 -243 -64 -243 -106 -518 -137
-905 -27 -345 -40 -404 -136 -616 -134 -300 -166 -375 -209 -494 -90 -249
-148 -527 -220 -1055 -56 -408 -141 -786 -240 -1065 -25 -71 -66 -201 -91
-288 -70 -247 -71 -247 -204 -326 -30 -18 -125 -85 -210 -149 -151 -114 -156
-120 -210 -209 -30 -51 -87 -128 -125 -172 -38 -44 -86 -112 -106 -150 -20
-38 -61 -99 -93 -134 -51 -58 -56 -68 -56 -111 0 -42 3 -48 32 -66 23 -14 51
-20 88 -20 101 0 207 69 280 182 39 59 142 156 148 139 6 -18 -37 -234 -66
-336 -165 -566 -213 -812 -174 -882 30 -55 111 -65 166 -22 39 30 50 59 111
267 54 187 134 426 141 419 2 -1 -3 -25 -12 -52 -40 -133 -174 -699 -174 -735
0 -87 46 -142 120 -144 50 -1 87 26 117 86 12 25 52 151 87 279 101 367 139
499 143 495 5 -5 -78 -392 -118 -549 -38 -150 -36 -198 10 -239 66 -59 155
-23 199 80 24 56 118 406 161 602 41 188 41 187 35 70 -3 -58 -15 -159 -27
-225 -12 -66 -22 -155 -22 -197 0 -94 20 -123 84 -123 46 0 74 22 102 78 30
58 84 256 118 434 17 89 54 237 81 330 104 348 134 516 119 660 -18 176 -14
214 40 341 27 65 84 205 126 312 98 247 164 386 376 786 285 540 380 769 524
1270 72 251 99 400 115 629 13 190 25 252 91 473 28 92 70 248 95 347 24 99
47 191 51 205 5 22 7 19 15 -20 26 -135 65 -309 113 -505 78 -317 90 -407 89
-665 -1 -199 -4 -236 -43 -499 -45 -305 -52 -410 -37 -641 l8 -135 -36 -135
c-20 -74 -51 -187 -70 -250 -48 -163 -80 -330 -116 -600 -17 -129 -53 -386
-81 -570 -27 -184 -56 -395 -64 -469 -65 -610 -28 -1444 101 -2326 91 -620
183 -1016 320 -1387 l46 -123 8 -355 c5 -195 14 -463 21 -595 l11 -240 -60
-370 c-84 -513 -102 -680 -102 -959 0 -340 42 -609 200 -1276 289 -1218 352
-1513 380 -1767 10 -91 9 -111 -10 -200 -36 -169 -41 -218 -30 -295 6 -40 15
-89 21 -108 10 -33 8 -41 -25 -97 -42 -72 -69 -132 -101 -225 -26 -75 -67
-132 -225 -314 -242 -278 -259 -304 -279 -420 -15 -81 1 -133 46 -154 18 -8
37 -27 43 -42 19 -45 55 -70 107 -76 30 -3 61 -15 82 -31 30 -22 44 -26 105
-26 54 0 78 -5 100 -19 17 -12 51 -22 85 -24 47 -3 62 0 92 21 34 23 37 23 47
7 6 -10 36 -30 67 -45 50 -25 63 -27 139 -23 137 7 230 66 279 177 11 25 41
65 67 88 74 66 101 137 107 284 5 104 8 119 25 125 31 9 138 115 161 158 35
66 29 166 -22 366 -24 91 -43 183 -42 205 0 22 9 91 20 154 31 168 28 206 -25
375 -104 334 -109 434 -60 1096 43 575 51 638 116 970 144 724 144 945 5 1715
-49 272 -46 341 30 605 24 85 55 202 70 259 85 337 125 810 125 1479 0 538 22
837 95 1276 65 396 96 683 115 1056 10 198 9 290 -6 473 l-6 67 48 0 49 0 1
-347 c0 -452 26 -729 120 -1298 64 -392 74 -529 84 -1170 16 -1015 46 -1282
206 -1815 41 -138 47 -169 51 -280 5 -111 2 -143 -26 -291 -82 -436 -106 -673
-98 -977 6 -255 16 -327 102 -757 67 -340 68 -345 107 -845 23 -300 32 -480
32 -650 1 -265 -8 -322 -84 -565 -55 -173 -56 -196 -29 -350 33 -178 30 -221
-20 -404 -77 -277 -54 -374 115 -486 l54 -36 0 -92 c0 -147 26 -221 105 -297
25 -25 57 -68 71 -96 51 -109 163 -174 295 -174 77 0 130 17 170 56 l27 25 38
-20 c21 -12 57 -21 79 -21 40 0 117 29 129 48 4 7 18 7 43 0 43 -12 113 5 139
33 10 12 30 19 51 19 59 0 102 25 121 70 10 22 24 40 33 40 26 0 60 46 66 88
6 47 -9 126 -37 184 -21 46 -127 180 -268 341 -131 150 -175 215 -210 314 -18
49 -55 128 -82 175 l-49 86 15 54 c29 105 29 202 0 325 -14 61 -26 139 -26
172 0 133 53 435 145 831 20 85 59 254 86 375 28 121 92 398 144 615 163 686
195 882 202 1243 8 344 -12 549 -104 1077 -52 297 -54 340 -34 699 6 112 11
300 11 416 0 273 12 395 49 488 115 291 220 716 296 1194 122 777 173 1410
162 2017 -7 383 -21 525 -97 1017 -16 107 -48 329 -70 494 -47 351 -82 532
-144 734 -87 284 -82 234 -75 656 2 147 -2 204 -19 310 -96 581 -92 803 23
1265 24 96 60 252 80 345 50 234 47 224 52 200 22 -109 78 -322 135 -515 78
-268 93 -344 108 -560 6 -85 15 -184 21 -220 28 -168 153 -603 242 -840 102
-271 171 -418 385 -820 180 -339 276 -539 356 -745 37 -93 92 -231 124 -305
63 -149 64 -155 48 -375 -12 -157 14 -297 119 -646 24 -81 58 -216 75 -300 60
-293 102 -444 142 -501 27 -39 85 -55 126 -34 45 23 60 77 44 164 -23 127 -50
327 -56 407 l-5 80 16 -65 c42 -182 155 -624 169 -666 40 -121 92 -171 168
-161 93 13 109 95 57 291 -37 136 -123 528 -118 533 4 3 134 -448 178 -617 25
-95 61 -185 87 -213 50 -55 120 -58 171 -6 56 56 54 79 -43 469 -47 192 -91
361 -96 376 -6 15 -9 28 -7 30 7 8 65 -152 107 -296 94 -322 89 -310 130 -354
34 -36 44 -41 84 -41 36 0 51 6 73 28 27 26 28 32 28 120 -1 76 -10 129 -53
307 -29 118 -75 289 -102 380 -45 150 -78 293 -94 409 l-7 43 66 -58 c37 -32
76 -76 87 -97 28 -55 104 -128 161 -156 87 -42 189 -40 233 4 38 38 31 64 -44
156 -38 46 -86 116 -106 155 -21 40 -66 104 -101 143 -36 39 -85 107 -110 150
-25 43 -65 96 -88 118 -64 58 -316 242 -388 283 -35 20 -71 49 -80 65 -10 17
-36 93 -59 170 -22 77 -72 235 -110 350 -128 389 -175 604 -256 1175 -91 646
-158 886 -376 1355 -78 166 -106 238 -131 340 -20 80 -24 115 -42 355 -28 372
-67 620 -149 956 -30 122 -57 242 -61 265 -4 24 1 98 9 164 60 453 11 737
-204 1181 -149 310 -254 423 -505 544 -145 70 -200 88 -424 140 -96 23 -200
51 -231 63 -71 29 -596 307 -750 397 -139 82 -196 131 -235 201 l-30 54 3 235
2 235 36 78 c23 50 43 116 56 185 11 59 22 117 24 129 3 18 9 20 43 16 53 -7
77 9 110 75 44 88 111 279 127 360 18 95 18 233 0 276 -17 41 -51 66 -88 66
-16 0 -28 1 -28 3 0 2 7 48 14 103 24 159 29 299 17 424 -25 249 -85 393 -234
560 -117 132 -189 190 -302 245 -231 111 -490 149 -747 109z m447 -38 c266
-60 427 -155 590 -349 138 -164 192 -300 215 -537 20 -208 -11 -480 -66 -587
-19 -35 -37 -82 -40 -104 -12 -73 -21 -39 -26 94 -5 123 -8 140 -48 252 l-42
120 -7 190 c-6 162 -10 197 -27 236 -31 66 -78 114 -142 146 -51 25 -67 28
-152 27 -68 0 -123 -8 -195 -27 -225 -58 -363 -60 -575 -6 -149 39 -298 45
-362 17 -57 -26 -133 -102 -159 -161 -21 -46 -24 -73 -29 -242 -7 -186 -8
-193 -44 -299 -35 -103 -55 -231 -56 -368 0 -16 -4 -28 -10 -28 -5 0 -10 11
-10 23 0 29 -35 133 -55 163 -31 47 -49 209 -49 429 0 185 2 221 22 300 46
183 153 348 328 503 106 95 301 178 509 218 89 17 333 11 430 -10z m378 -542
c64 -23 113 -69 149 -141 32 -66 32 -68 38 -252 6 -183 7 -188 45 -296 35
-101 39 -122 46 -255 4 -80 8 -146 8 -147 1 -2 8 -3 16 -3 19 0 20 21 -15
-209 -90 -579 -89 -574 -150 -689 -57 -108 -305 -367 -431 -451 -110 -74 -276
-106 -427 -82 -92 14 -138 30 -209 72 -117 70 -395 361 -456 477 -49 93 -61
144 -102 417 -19 132 -43 288 -51 347 -14 94 -14 109 -2 122 11 11 17 49 21
143 5 115 9 141 47 258 43 130 43 131 45 295 2 173 10 217 50 280 86 134 213
161 469 98 121 -30 144 -33 291 -33 145 1 172 4 290 32 183 45 240 47 328 17z
m-1645 -917 c44 -47 57 -103 119 -551 16 -115 16 -119 -2 -132 -26 -19 -59
-17 -78 4 -20 22 -88 185 -122 293 -50 158 -56 330 -14 383 26 33 68 34 97 3z
m2141 4 c27 -27 35 -78 28 -185 -6 -105 -36 -214 -101 -369 -48 -117 -68 -147
-98 -147 -39 0 -57 18 -52 53 13 100 66 461 75 512 12 68 41 129 66 144 28 16
61 13 82 -8z m-1624 -1406 c192 -188 269 -226 480 -233 138 -4 210 7 299 47
84 38 239 173 393 344 l71 78 -6 -263 c-5 -273 5 -437 33 -533 13 -45 14 -46
9 -10 -13 90 -19 183 -14 239 l5 60 29 -42 c55 -80 164 -148 631 -395 345
-182 372 -193 535 -228 364 -77 597 -188 756 -362 133 -145 303 -509 381 -812
22 -87 26 -128 30 -305 4 -177 1 -233 -21 -415 -36 -301 -38 -323 -20 -232 9
43 17 77 19 75 2 -2 28 -106 59 -233 88 -364 120 -572 151 -988 23 -314 46
-400 180 -686 204 -435 269 -666 360 -1293 93 -638 133 -825 265 -1223 44
-132 96 -297 116 -367 20 -69 44 -140 54 -156 10 -16 53 -50 99 -77 45 -26
121 -77 169 -114 256 -196 229 -170 304 -294 26 -43 75 -108 109 -144 60 -65
129 -186 129 -227 0 -32 48 -103 85 -126 20 -12 34 -27 32 -34 -6 -19 -50 -36
-93 -36 -115 0 -287 155 -270 244 5 27 4 28 -6 11 -6 -11 -12 -22 -14 -24 -2
-2 -34 24 -71 58 -74 67 -152 111 -192 110 -25 -1 -25 -1 4 -11 60 -21 72 -41
95 -166 26 -144 61 -283 105 -427 45 -147 136 -526 142 -596 11 -111 -29 -165
-100 -136 -46 20 -69 64 -114 221 -42 151 -99 319 -153 459 -32 83 -46 107
-58 105 -29 -5 -25 -62 12 -191 19 -67 53 -198 76 -292 22 -93 50 -201 61
-238 57 -191 37 -287 -57 -287 -64 0 -91 48 -149 262 -61 223 -166 581 -181
618 -27 65 -54 62 -54 -6 0 -48 85 -455 125 -599 33 -119 33 -178 0 -210 -28
-29 -45 -31 -85 -10 -53 27 -80 100 -169 460 -33 132 -68 278 -78 324 -17 77
-21 85 -45 92 -15 4 -29 4 -32 1 -16 -16 8 -272 45 -466 20 -103 20 -114 6
-149 -16 -38 -40 -47 -82 -31 -43 17 -103 204 -160 500 -20 100 -56 246 -81
325 -105 331 -133 509 -110 687 18 138 13 171 -47 307 -24 55 -66 156 -92 225
-108 287 -194 470 -389 833 -233 432 -333 655 -446 997 -145 435 -190 630
-210 919 -14 192 -29 274 -90 477 -110 364 -185 685 -174 744 3 19 9 224 13
455 l7 420 38 77 c35 73 96 240 96 262 0 6 -24 -43 -54 -109 -185 -419 -431
-646 -776 -717 -83 -18 -121 -19 -300 -15 -207 6 -312 18 -539 63 -137 27
-221 62 -291 120 l-45 38 34 -37 c77 -82 216 -130 517 -177 188 -30 500 -38
618 -16 119 23 233 66 325 123 90 56 234 192 297 280 25 35 48 63 51 63 8 0
-6 -580 -18 -760 -12 -182 -52 -404 -134 -735 -86 -347 -99 -440 -99 -695 0
-210 11 -335 57 -605 18 -113 21 -171 22 -435 1 -326 0 -318 60 -509 80 -256
109 -402 169 -846 25 -181 63 -449 85 -595 77 -513 94 -841 71 -1340 -26 -547
-80 -1050 -171 -1595 -85 -505 -155 -775 -316 -1210 -84 -228 -115 -328 -127
-415 -3 -25 7 2 23 60 29 101 77 237 90 252 7 8 -4 -457 -20 -842 l-11 -275
51 -305 c97 -583 122 -867 102 -1179 -20 -319 -58 -538 -196 -1116 -105 -441
-138 -581 -169 -725 -14 -63 -45 -200 -70 -305 -88 -378 -138 -670 -139 -815
0 -45 9 -111 22 -165 26 -102 29 -209 11 -303 -13 -65 -17 -70 -40 -50 -7 7
-1 -9 15 -37 91 -165 115 -214 162 -340 30 -77 50 -124 47 -105 -6 34 -5 34
39 -26 25 -33 76 -94 113 -135 188 -209 273 -333 288 -421 6 -34 5 -37 -25
-43 -51 -11 -60 17 -14 43 11 6 14 12 8 12 -7 0 -22 -9 -34 -21 -29 -29 -9
-53 39 -44 34 6 34 6 27 -22 -14 -59 -58 -73 -76 -25 -50 137 -105 229 -152
254 -14 7 -10 0 11 -20 32 -30 85 -132 116 -226 28 -83 1 -138 -70 -140 -36
-1 -37 0 -49 49 -20 74 -111 237 -158 282 -38 35 -36 24 5 -22 28 -33 116
-201 128 -246 6 -23 9 -52 6 -65 -11 -42 -94 -69 -153 -50 -18 6 -23 15 -23
42 0 55 -168 349 -188 329 -3 -3 4 -15 16 -28 19 -20 39 -56 121 -214 55 -106
31 -169 -70 -180 -35 -4 -51 0 -79 19 -31 21 -36 30 -41 79 -7 69 -17 86 -77
140 -26 24 -61 68 -77 97 -16 29 -35 58 -43 65 -9 6 -3 -9 11 -34 29 -49 35
-74 15 -64 -7 4 19 -23 59 -59 77 -72 99 -114 88 -169 -26 -122 -229 -156
-366 -61 -49 33 -75 76 -106 168 -13 39 -21 56 -18 37 l5 -34 -32 25 c-18 14
-48 55 -67 91 -33 63 -34 70 -42 229 -5 90 -15 188 -23 218 l-13 55 5 -89 5
-89 -44 31 c-64 43 -116 104 -128 149 -21 73 -12 138 47 353 l29 105 11 -85
11 -85 -4 110 c-2 61 -16 173 -29 250 -36 196 -34 238 15 392 86 271 108 447
90 729 -22 355 -62 861 -77 979 -8 66 -39 244 -69 395 -80 405 -95 510 -102
725 -8 273 17 515 99 960 24 130 31 199 31 290 0 118 -1 124 -66 350 -36 127
-77 286 -92 354 -63 300 -93 720 -105 1481 -11 643 -21 773 -96 1205 -82 480
-130 1115 -107 1434 l8 114 40 12 c114 34 202 107 254 210 17 33 42 112 56
175 14 63 35 153 46 200 23 103 100 264 171 357 71 96 76 103 34 58 -60 -66
-145 -198 -182 -285 -19 -44 -49 -142 -65 -218 -36 -163 -58 -228 -101 -300
-90 -149 -282 -217 -460 -162 -171 53 -249 166 -312 455 -28 127 -46 180 -84
260 -46 94 -149 244 -189 276 -10 8 -1 -7 20 -34 65 -80 145 -215 176 -295 16
-43 39 -126 51 -187 66 -337 133 -442 325 -507 l50 -17 8 -88 c10 -108 2 -574
-13 -738 -17 -195 -58 -517 -90 -705 -79 -480 -89 -605 -100 -1285 -15 -987
-46 -1264 -196 -1775 -51 -175 -57 -207 -61 -310 -5 -114 1 -163 51 -445 8
-44 26 -159 40 -255 69 -475 58 -689 -64 -1300 -66 -330 -73 -391 -115 -935
-31 -397 -36 -500 -32 -665 6 -213 17 -274 91 -515 20 -66 39 -138 42 -160 3
-23 -7 -116 -25 -224 -20 -119 -30 -213 -29 -265 2 -73 2 -75 5 -21 2 33 7 63
11 67 4 4 25 -61 46 -145 63 -251 48 -333 -78 -427 -31 -22 -58 -40 -62 -40
-3 0 -4 35 0 78 4 59 3 70 -5 47 -5 -16 -14 -108 -20 -204 -12 -206 -26 -255
-94 -321 l-45 -44 -1 29 c0 21 -7 7 -21 -42 -36 -129 -127 -200 -269 -211
-114 -8 -184 38 -196 127 -8 57 10 92 78 151 33 28 57 56 53 61 -3 5 6 30 20
54 13 25 21 45 17 45 -4 0 -20 -24 -36 -52 -15 -29 -53 -78 -85 -108 -59 -56
-80 -99 -80 -166 0 -75 -132 -99 -195 -36 -22 22 -26 33 -22 62 4 30 102 229
153 310 10 15 4 11 -15 -10 -46 -51 -161 -273 -161 -310 0 -24 -6 -33 -27 -41
-35 -13 -84 -4 -117 22 -20 16 -26 29 -26 61 l0 40 33 -8 c17 -5 50 -8 72 -9
34 0 40 3 43 23 5 33 -25 62 -62 61 l-31 -1 34 -8 c33 -8 51 -24 51 -47 0 -20
-19 -25 -63 -19 -75 12 -75 14 -28 112 23 49 57 107 75 129 52 64 52 75 0 20
-52 -55 -138 -219 -149 -285 -6 -33 -11 -40 -30 -40 -66 0 -102 49 -91 122 10
59 81 206 119 247 21 22 25 30 12 23 -11 -6 -30 -21 -42 -34 -23 -25 -97 -174
-108 -221 -9 -33 -38 -36 -59 -5 -28 40 -21 58 21 55 32 -2 38 1 41 20 3 23
-29 48 -51 39 -7 -2 -5 -5 4 -5 9 -1 22 -8 29 -16 18 -22 0 -38 -35 -29 -26 6
-27 9 -21 50 7 55 43 126 92 184 22 25 59 70 84 100 24 30 76 91 116 135 39
44 88 103 109 130 l38 50 -7 -40 c-11 -59 -4 -43 44 90 46 130 97 242 156 345
21 36 30 59 21 52 -14 -12 -17 -9 -27 25 -26 91 -24 195 5 343 l29 142 -17
141 c-9 78 -27 203 -41 278 -28 151 -163 750 -281 1244 -212 892 -245 1088
-245 1481 0 316 23 532 111 1049 34 205 40 260 40 378 -1 76 -4 143 -7 148 -5
9 -23 850 -18 857 4 7 47 -116 80 -228 18 -63 33 -108 33 -100 2 40 -55 235
-119 410 -197 535 -299 972 -394 1695 -80 605 -100 894 -100 1465 -1 535 3
583 79 1090 24 162 56 381 70 485 61 455 90 600 170 860 69 225 80 302 64 457
-15 159 -8 297 30 553 47 321 54 408 48 617 -5 209 -25 346 -78 548 -72 278
-136 588 -154 745 -6 57 -25 837 -20 843 1 1 19 -23 39 -53 50 -76 165 -195
245 -255 85 -62 213 -124 316 -151 154 -41 476 -36 760 11 255 43 368 85 440
161 l40 43 -44 -38 c-63 -55 -149 -91 -286 -120 -232 -48 -346 -60 -585 -60
-204 -1 -233 1 -310 22 -313 84 -557 324 -726 711 -26 61 -49 109 -51 107 -7
-6 69 -210 103 -277 l34 -69 0 -272 c0 -150 5 -357 11 -460 l10 -188 -46 -207
c-26 -115 -69 -282 -97 -373 -96 -315 -103 -350 -123 -602 -22 -285 -48 -403
-177 -813 -115 -366 -218 -600 -474 -1081 -192 -361 -265 -515 -358 -754 -42
-107 -100 -249 -129 -315 -49 -112 -52 -125 -50 -195 9 -379 9 -366 -25 -510
-18 -74 -55 -207 -82 -295 -27 -88 -65 -245 -86 -350 -41 -214 -94 -394 -131
-443 -20 -27 -31 -33 -56 -30 -63 6 -68 54 -27 273 11 61 23 172 26 248 l7
138 -29 -7 c-16 -4 -30 -8 -32 -9 -2 -2 -20 -81 -42 -176 -51 -233 -146 -581
-170 -629 -20 -40 -63 -80 -86 -80 -44 0 -84 44 -84 93 0 12 18 92 39 177 42
169 121 545 121 579 0 30 -29 39 -47 15 -16 -22 -32 -73 -124 -399 -106 -376
-127 -441 -155 -474 -32 -39 -80 -42 -119 -8 -50 42 -46 77 49 452 47 187 95
374 106 415 22 78 20 120 -5 120 -8 0 -21 -13 -30 -30 -39 -76 -122 -322 -206
-613 -37 -129 -109 -188 -165 -132 -25 25 -26 30 -22 113 6 98 66 368 133 592
58 194 80 282 105 425 12 66 26 128 32 138 12 22 74 50 90 41 7 -4 8 -3 4 4
-4 7 -15 12 -24 12 -61 0 -235 -132 -291 -219 -90 -140 -238 -214 -330 -167
-38 20 -37 27 9 58 47 32 77 79 90 141 14 68 52 132 131 219 35 39 89 112 119
162 51 83 64 98 175 183 66 51 160 118 208 150 183 120 167 101 215 253 24 74
79 243 122 375 133 406 176 602 260 1180 105 719 147 868 403 1432 104 228
128 328 147 618 25 373 63 621 145 956 30 123 55 232 55 244 0 36 18 -4 25
-58 4 -26 9 -46 12 -43 3 2 -8 100 -23 218 -36 272 -41 580 -11 718 59 271
242 687 370 840 77 91 187 173 322 240 122 61 233 96 497 158 146 34 190 55
618 282 331 176 429 239 501 318 l51 57 -6 -125 c-3 -69 -10 -145 -16 -169 -6
-24 -9 -46 -6 -48 2 -3 13 31 23 74 16 68 18 124 18 430 l0 353 54 -63 c29
-34 109 -116 176 -182z m-4610 -8819 c-20 -42 -97 -115 -103 -97 -4 12 107
145 115 137 3 -2 -3 -20 -12 -40z m10289 -27 c32 -38 56 -73 52 -76 -9 -9 -52
23 -80 59 -22 29 -45 88 -34 88 2 0 30 -32 62 -71z"/>
<path d="M4625 21702 c-61 -21 -107 -53 -135 -92 -26 -37 -18 -37 56 -2 53 24
69 27 164 26 71 0 133 -8 193 -22 121 -30 155 -29 163 3 11 46 -22 63 -179 91
-108 19 -200 17 -262 -4z m320 -23 c94 -20 122 -36 111 -65 -7 -19 -22 -18
-176 15 -133 29 -248 28 -324 -4 l-58 -24 23 26 c76 81 210 97 424 52z"/>
<path d="M5565 21701 c-49 -11 -102 -24 -117 -30 -28 -11 -46 -50 -33 -72 10
-14 77 -8 210 21 128 28 224 24 315 -13 35 -14 66 -25 68 -23 9 10 -74 87
-116 106 -66 32 -205 36 -327 11z m316 -23 c26 -11 60 -33 75 -50 l29 -30 -45
23 c-71 36 -212 38 -360 5 -127 -29 -146 -31 -155 -16 -16 26 17 49 92 66 170
38 280 38 364 2z"/>
<path d="M4720 21551 c-39 -12 -85 -38 -101 -57 -9 -11 1 -8 26 9 88 57 196
59 294 7 51 -27 54 -28 26 -5 -57 47 -171 68 -245 46z"/>
<path d="M5595 21542 c-27 -9 -61 -26 -75 -36 -28 -20 -25 -19 45 13 35 17 68
24 115 25 71 0 114 -13 170 -51 l35 -24 -35 31 c-38 34 -113 60 -169 60 -20
-1 -58 -8 -86 -18z"/>
<path d="M4729 21506 c-46 -16 -100 -49 -124 -76 -27 -30 -11 -24 44 15 26 19
51 35 55 35 3 0 6 -15 6 -33 0 -18 7 -43 16 -55 13 -19 13 -22 0 -22 -25 0
-70 20 -85 38 -10 13 -12 13 -9 2 9 -28 68 -53 139 -58 86 -6 199 21 198 47 0
10 -2 11 -6 4 -6 -17 -66 -31 -136 -32 -49 0 -62 3 -83 24 -30 30 -32 80 -5
95 22 12 101 13 117 2 20 -14 24 -43 9 -78 -8 -19 -10 -34 -6 -34 15 0 33 59
27 86 l-7 26 32 -19 c17 -10 37 -26 43 -35 6 -10 16 -18 22 -18 7 0 14 -7 18
-15 3 -8 11 -15 18 -15 21 0 -74 89 -117 110 -47 23 -113 25 -166 6z"/>
<path d="M5601 21505 c-38 -17 -131 -92 -131 -106 0 -6 26 11 58 37 l57 47 6
-41 c3 -22 11 -47 18 -56 12 -14 11 -16 -7 -16 -28 0 -75 19 -84 33 -6 9 -8 9
-8 -1 0 -27 71 -46 170 -46 96 -1 139 12 169 48 7 8 20 12 29 9 44 -14 -62 67
-112 86 -66 24 -117 26 -165 6z m141 -22 c41 -37 0 -113 -62 -113 -60 0 -103
76 -64 114 21 22 102 21 126 -1z m78 -29 c34 -23 38 -29 28 -42 -15 -17 -69
-42 -93 -42 -15 0 -15 2 -1 22 9 12 16 37 16 55 0 18 2 33 5 33 3 0 23 -12 45
-26z"/>
<path d="M5341 21456 c-13 -51 -13 -266 -1 -341 5 -31 6 9 3 105 -3 95 -1 178
6 214 13 71 8 85 -8 22z"/>
<path d="M5014 20955 c-19 -47 -11 -99 19 -120 33 -23 39 -18 12 10 -27 26
-34 80 -14 117 6 11 8 22 5 25 -3 4 -13 -11 -22 -32z"/>
<path d="M5450 20965 c18 -47 12 -94 -15 -120 -14 -15 -19 -25 -11 -25 18 0
43 30 51 62 7 28 -9 93 -26 103 -5 4 -5 -5 1 -20z"/>
<path d="M5083 20873 c-25 -9 -13 -25 13 -19 20 5 37 0 67 -21 55 -38 111 -38
156 0 27 23 40 27 65 21 27 -6 29 -5 17 10 -19 23 -35 20 -83 -14 -28 -21 -53
-30 -78 -30 -26 0 -48 9 -75 30 -36 29 -56 34 -82 23z"/>
<path d="M5085 20600 c-22 -11 -31 -17 -20 -14 78 26 92 27 136 12 39 -13 49
-13 87 0 40 13 48 13 98 -6 29 -11 52 -16 49 -12 -2 4 -25 15 -51 25 -41 16
-53 16 -100 5 -42 -10 -60 -11 -79 -2 -37 17 -74 14 -120 -8z"/>
<path d="M4990 20524 l-95 -13 130 4 c105 4 139 2 177 -12 45 -16 50 -16 83 0
30 14 58 16 168 12 l132 -4 -120 14 c-107 14 -124 14 -160 0 -51 -19 -73 -19
-118 0 -41 17 -65 17 -197 -1z"/>
<path d="M5055 20404 c67 -50 259 -58 350 -14 25 12 45 24 43 25 -2 2 -28 -5
-58 -15 -77 -27 -221 -27 -298 0 -42 14 -52 16 -37 4z"/>
<path d="M5207 20303 c18 -2 50 -2 70 0 21 2 7 4 -32 4 -38 0 -55 -2 -38 -4z"/>
<path d="M4136 21454 c-12 -11 -16 -33 -14 -77 l1 -62 6 62 c3 34 9 65 13 68
14 14 37 -4 58 -45 l21 -41 -23 -47 c-29 -60 -36 -163 -15 -213 10 -25 29 -44
62 -63 26 -14 49 -26 51 -26 10 0 2 44 -12 72 -12 23 -14 45 -9 88 5 47 2 71
-20 136 -43 129 -86 182 -119 148z m118 -194 c9 -33 14 -65 11 -70 -12 -20 -7
-87 10 -119 9 -18 14 -35 11 -38 -3 -3 -23 6 -45 20 -48 32 -65 78 -58 157 5
58 31 125 46 116 5 -3 16 -33 25 -66z"/>
<path d="M6301 21451 c-51 -51 -94 -179 -96 -281 0 -41 -4 -88 -8 -105 l-8
-30 17 30 c13 22 18 55 19 120 1 58 7 102 17 125 l16 35 18 -40 c10 -22 19
-71 21 -110 5 -85 -16 -127 -78 -154 -23 -10 -37 -21 -32 -24 15 -10 92 42
108 73 34 65 24 177 -22 246 -14 22 -13 27 11 69 40 68 62 61 76 -23 l8 -47 1
40 c1 42 -16 86 -36 92 -6 2 -21 -5 -32 -16z"/>
<path d="M4805 19733 c3 -10 21 -61 40 -113 102 -293 236 -611 279 -665 9 -11
1 9 -18 45 -35 66 -165 388 -251 623 -26 70 -49 127 -52 127 -3 0 -2 -8 2 -17z"/>
<path d="M5630 19628 c-146 -384 -205 -531 -244 -605 -24 -45 -42 -83 -40 -83
10 0 62 95 97 175 64 148 240 616 233 622 -2 2 -22 -47 -46 -109z"/>
<path d="M6838 19153 c7 -3 16 -2 19 1 4 3 -2 6 -13 5 -11 0 -14 -3 -6 -6z"/>
<path d="M3740 19119 c263 -92 449 -130 765 -154 296 -23 386 -48 485 -132 36
-32 41 -33 26 -11 -22 34 -108 93 -163 112 -70 25 -148 36 -362 51 -304 22
-418 43 -671 120 -166 51 -206 58 -80 14z"/>
<path d="M6690 19114 c-240 -78 -390 -107 -647 -124 -256 -17 -366 -35 -442
-71 -65 -29 -132 -84 -153 -124 -6 -11 9 0 33 24 86 87 204 123 450 141 333
24 480 50 719 130 96 32 168 58 160 58 -8 0 -62 -15 -120 -34z"/>
<path d="M3330 19030 c159 -10 225 -23 443 -89 203 -61 378 -94 673 -126 127
-14 253 -32 280 -40 26 -8 50 -12 52 -10 10 9 -109 35 -230 50 -73 9 -191 23
-263 31 -178 22 -342 56 -520 109 -216 65 -273 75 -430 80 l-140 4 135 -9z"/>
<path d="M6985 19024 c-44 -7 -139 -31 -210 -53 -261 -80 -396 -106 -715 -141
-107 -12 -215 -26 -240 -31 -60 -13 -142 -40 -137 -45 2 -2 23 2 45 10 59 21
130 33 347 56 309 34 427 57 670 130 199 60 259 72 405 80 l135 7 -110 0 c-60
1 -146 -5 -190 -13z"/>
<path d="M6848 18721 c175 -106 297 -228 373 -374 22 -43 69 -165 104 -272 58
-175 107 -295 120 -295 3 0 -5 21 -19 48 -13 26 -49 128 -81 227 -94 296 -143
384 -292 525 -79 75 -212 167 -269 186 -10 3 19 -17 64 -45z"/>
<path d="M3635 18732 c-178 -98 -312 -235 -398 -407 -19 -39 -61 -151 -92
-250 -32 -99 -68 -204 -81 -232 -13 -29 -21 -53 -19 -53 13 0 53 102 115 292
44 134 86 240 112 287 76 133 207 255 404 378 36 22 9 13 -41 -15z"/>
<path d="M4790 18756 c0 -2 7 -7 16 -10 8 -3 12 -2 9 4 -6 10 -25 14 -25 6z"/>
<path d="M4830 18737 c0 -3 12 -12 26 -22 15 -9 23 -12 20 -6 -7 11 -46 35
-46 28z"/>
<path d="M5436 18285 c-9 -26 -7 -32 5 -12 6 10 9 21 6 23 -2 3 -7 -2 -11 -11z"/>
<path d="M5043 18267 c23 -60 59 -190 72 -263 26 -134 31 -462 11 -650 -19
-178 -19 -212 0 -94 33 200 28 630 -8 790 -14 63 -69 230 -75 230 -3 0 -3 -6
0 -13z"/>
<path d="M5391 18153 c-69 -236 -80 -564 -29 -931 6 -45 13 -80 15 -78 3 2 -4
66 -13 143 -13 97 -18 205 -18 368 0 240 11 340 55 492 10 37 17 69 15 71 -3
2 -14 -27 -25 -65z"/>
<path d="M7570 17418 c216 -92 322 -170 465 -338 35 -42 36 -43 9 -5 -113 161
-263 278 -429 335 -62 21 -86 26 -45 8z"/>
<path d="M2810 17387 c-41 -18 -102 -51 -135 -74 -68 -46 -179 -156 -226 -223
l-32 -45 43 50 c117 136 242 232 379 291 42 19 69 34 61 34 -8 0 -49 -15 -90
-33z"/>
<path d="M5102 17150 c0 -14 2 -19 5 -12 2 6 2 18 0 25 -3 6 -5 1 -5 -13z"/>
<path d="M5381 17104 c0 -11 3 -14 6 -6 3 7 2 16 -1 19 -3 4 -6 -2 -5 -13z"/>
<path d="M3760 17054 c-56 -23 -67 -83 -24 -133 52 -62 215 -81 257 -30 35 43
10 107 -55 140 -42 22 -148 35 -178 23z m135 -15 c78 -22 129 -103 90 -142
-46 -47 -188 -26 -245 35 -33 36 -22 96 20 111 26 9 94 7 135 -4z"/>
<path d="M6575 17045 c-48 -17 -105 -76 -104 -107 1 -18 3 -16 10 9 9 31 53
72 94 88 11 4 47 11 80 15 l60 7 -50 1 c-27 1 -68 -5 -90 -13z"/>
<path d="M6740 17032 c13 -11 23 -29 23 -45 0 -60 -56 -101 -160 -116 -51 -8
-53 -9 -18 -10 95 -2 185 54 187 117 1 31 -24 72 -45 72 -5 0 1 -8 13 -18z"/>
<path d="M6494 16893 c11 -13 26 -23 35 -22 14 0 14 1 1 6 -8 3 -24 13 -35 22
-20 16 -20 16 -1 -6z"/>
<path d="M4935 16111 c-88 -25 -155 -58 -295 -146 -152 -95 -210 -123 -286
-135 l-59 -9 62 3 c76 5 129 28 288 128 155 97 206 123 307 152 46 14 74 25
63 25 -11 0 -47 -8 -80 -18z"/>
<path d="M5468 16123 c7 -3 16 -2 19 1 4 3 -2 6 -13 5 -11 0 -14 -3 -6 -6z"/>
<path d="M5560 16096 c86 -30 150 -63 284 -147 164 -103 205 -121 283 -125
l68 -3 -65 10 c-73 11 -148 46 -290 136 -144 91 -281 154 -329 152 -9 0 13
-11 49 -23z"/>
<path d="M4268 15833 c7 -3 16 -2 19 1 4 3 -2 6 -13 5 -11 0 -14 -3 -6 -6z"/>
<path d="M6208 15833 c7 -3 16 -2 19 1 4 3 -2 6 -13 5 -11 0 -14 -3 -6 -6z"/>
<path d="M8402 15658 c-17 -139 -34 -205 -82 -308 -22 -47 -33 -76 -24 -65 26
33 72 135 89 200 18 70 39 234 33 261 -2 11 -10 -29 -16 -88z"/>
<path d="M2075 15650 c5 -121 24 -193 79 -302 24 -49 41 -88 38 -88 -3 0 -20
12 -37 28 -17 15 -7 4 23 -25 41 -39 95 -73 226 -138 94 -48 160 -77 146 -66
-14 11 -72 44 -130 73 -134 67 -220 117 -218 126 1 4 -16 45 -39 92 -47 97
-69 179 -83 306 l-9 89 4 -95z"/>
<path d="M4305 15493 c-11 -37 -18 -101 -20 -178 l-3 -120 8 112 c5 61 16 139
25 173 21 79 13 89 -10 13z"/>
<path d="M6155 15530 c25 -114 35 -183 36 -253 1 -75 2 -79 11 -42 12 51 -5
192 -32 266 -11 30 -18 43 -15 29z"/>
<path d="M8324 15289 c-25 -28 -141 -98 -255 -154 -52 -26 -106 -56 -120 -67
-13 -10 48 17 136 61 112 56 177 95 215 130 30 28 52 50 49 51 -3 0 -14 -9
-25 -21z"/>
<path d="M4885 15203 c-16 -2 -84 -17 -149 -34 -66 -16 -136 -29 -155 -30 -20
-1 -47 -5 -61 -10 -55 -19 130 4 220 28 52 13 140 30 195 38 86 11 92 13 40
12 -33 0 -73 -2 -90 -4z"/>
<path d="M5545 15196 c55 -8 143 -26 195 -39 90 -24 285 -47 230 -28 -14 5
-43 9 -66 10 -22 1 -94 15 -160 31 -70 18 -156 32 -209 35 l-90 4 100 -13z"/>
<path d="M4279 14863 c-9 -68 -10 -109 -1 -179 11 -86 49 -231 58 -222 2 3 -2
23 -10 45 -27 76 -39 190 -34 318 3 69 4 125 2 125 -1 0 -8 -39 -15 -87z"/>
<path d="M6188 14807 c4 -134 -6 -229 -33 -312 -5 -15 -4 -17 3 -5 6 8 18 44
28 80 20 71 25 301 8 353 -6 18 -8 -21 -6 -116z"/>
<path d="M4528 14383 c7 -3 16 -2 19 1 4 3 -2 6 -13 5 -11 0 -14 -3 -6 -6z"/>
<path d="M5885 14379 c-22 -6 -87 -14 -145 -19 l-105 -9 115 4 c63 2 135 10
160 18 51 17 36 20 -25 6z"/>
<path d="M4585 14369 c17 -5 82 -12 145 -14 112 -4 113 -3 25 4 -49 4 -115 11
-145 14 -45 5 -49 5 -25 -4z"/>
<path d="M5205 14204 c-40 -13 -83 -49 -73 -60 4 -3 24 6 45 20 45 31 77 33
121 6 32 -20 32 -20 17 -50 -9 -17 -13 -30 -11 -30 3 0 12 13 20 29 14 27 14
31 -4 54 -29 37 -68 47 -115 31z"/>
<path d="M4343 14155 c0 -22 2 -30 4 -17 2 12 2 30 0 40 -3 9 -5 -1 -4 -23z"/>
<path d="M6142 14045 c-8 -275 -76 -645 -176 -960 -19 -60 -33 -111 -31 -113
6 -7 92 268 123 398 61 247 96 514 90 665 l-4 80 -2 -70z"/>
<path d="M4331 14030 c-3 -158 39 -441 100 -685 31 -124 118 -399 124 -393 2
2 -18 74 -45 160 -87 282 -143 563 -161 807 -12 173 -16 199 -18 111z"/>
<path d="M3480 13572 c21 -42 81 -101 159 -155 133 -94 183 -158 300 -382 57
-110 123 -230 146 -266 48 -74 144 -180 219 -241 36 -30 27 -18 -32 41 -122
122 -180 205 -295 428 -58 111 -118 221 -135 245 -40 57 -122 134 -202 190
-73 52 -103 78 -143 128 -17 21 -24 25 -17 12z"/>
<path d="M6968 13539 c-20 -26 -81 -79 -135 -117 -158 -113 -182 -144 -321
-415 -112 -217 -160 -292 -264 -405 l-81 -87 94 95 c114 114 147 164 275 411
54 105 119 216 144 247 25 31 85 87 134 123 96 73 147 119 178 162 34 48 15
37 -24 -14z"/>
<path d="M1052 12149 c31 -4 73 -15 93 -23 19 -8 33 -11 30 -6 -9 15 -104 40
-144 39 -28 -1 -23 -3 21 -10z"/>
<path d="M9370 12148 c-19 -5 -39 -14 -45 -19 -5 -5 5 -5 22 1 17 7 53 15 80
20 41 6 43 8 13 8 -19 0 -51 -4 -70 -10z"/>
<path d="M1523 12016 c27 -7 70 -28 95 -46 l47 -32 -29 30 c-29 31 -101 63
-140 61 -12 0 1 -6 27 -13z"/>
<path d="M8922 12018 c-17 -6 -49 -26 -70 -45 l-37 -34 35 24 c34 25 94 51
135 60 15 4 14 5 -5 5 -14 0 -40 -5 -58 -10z"/>
<path d="M9230 11763 c0 -6 17 -36 38 -69 95 -146 296 -268 462 -279 l65 -5
-70 14 c-185 37 -361 148 -454 287 -23 34 -41 57 -41 52z"/>
<path d="M1228 11732 c-79 -134 -271 -265 -445 -303 -86 -19 -86 -19 -27 -14
120 9 259 76 367 175 55 50 134 156 125 166 -2 2 -11 -9 -20 -24z"/>
<path d="M1311 11612 c-1 -48 25 -189 40 -212 8 -12 9 -11 5 5 -22 87 -28 119
-35 180 -7 55 -9 61 -10 27z"/>
<path d="M9162 11580 c-1 -25 -9 -74 -17 -109 -9 -35 -13 -66 -11 -68 9 -9 37
146 33 183 l-4 39 -1 -45z"/>
<path d="M381 11395 c1 -19 18 -51 18 -35 0 8 -4 22 -9 30 -5 8 -9 11 -9 5z"/>
<path d="M1188 11343 c7 -3 16 -2 19 1 4 3 -2 6 -13 5 -11 0 -14 -3 -6 -6z"/>
<path d="M1129 11336 c-8 -8 -194 -37 -289 -45 -86 -7 -89 -8 -31 -10 35 0
109 6 165 14 107 16 215 43 180 44 -11 1 -23 -1 -25 -3z"/>
<path d="M9355 11325 c76 -22 244 -45 321 -44 64 2 61 2 -35 10 -57 5 -141 15
-185 23 -141 26 -155 27 -101 11z"/>
<path d="M1116 11184 c-44 -8 -82 -17 -85 -21 -3 -3 8 -3 24 0 112 22 248 29
346 18 116 -13 142 -9 46 8 -85 15 -234 12 -331 -5z"/>
<path d="M9022 11189 c-84 -17 -55 -21 52 -8 91 12 173 8 341 -16 17 -2 5 2
-25 11 -68 19 -297 27 -368 13z"/>
<path d="M998 11153 c7 -3 16 -2 19 1 4 3 -2 6 -13 5 -11 0 -14 -3 -6 -6z"/>
<path d="M9458 11153 c7 -3 16 -2 19 1 4 3 -2 6 -13 5 -11 0 -14 -3 -6 -6z"/>
<path d="M635 11031 c3 -6 25 -20 48 -32 29 -14 36 -15 22 -4 -29 24 -78 49
-70 36z"/>
<path d="M9802 11014 c-24 -14 -41 -28 -38 -31 6 -6 86 43 86 52 0 8 -2 7 -48
-21z"/>
<path d="M826 10931 c11 -10 125 -41 145 -40 8 0 -6 7 -31 15 -66 21 -124 34
-114 25z"/>
<path d="M9575 10915 c-38 -12 -66 -23 -61 -24 16 -2 130 31 141 40 14 14 -3
10 -80 -16z"/>
<path d="M1395 10920 c-18 -8 -18 -9 5 -8 14 0 39 4 55 8 l30 8 -35 0 c-19 0
-44 -3 -55 -8z"/>
<path d="M9025 10919 c22 -4 51 -8 65 -7 l25 0 -25 8 c-14 4 -43 8 -65 8 l-40
0 40 -9z"/>
<path d="M1128 10883 c17 -2 47 -2 65 0 17 2 3 4 -33 4 -36 0 -50 -2 -32 -4z"/>
<path d="M9287 10883 c18 -2 50 -2 70 0 21 2 7 4 -32 4 -38 0 -55 -2 -38 -4z"/>
<path d="M500 10754 c0 -5 31 -18 70 -28 22 -6 22 -5 7 4 -21 14 -77 31 -77
24z"/>
<path d="M9925 10740 c-22 -11 -29 -17 -15 -14 29 8 80 33 65 33 -5 0 -28 -8
-50 -19z"/>
<path d="M1400 10700 c14 -4 32 -8 40 -9 13 -1 13 0 0 9 -8 5 -26 9 -40 9
l-25 -1 25 -8z"/>
<path d="M9045 10700 l-20 -9 20 1 c11 0 31 4 45 8 l25 8 -25 0 c-14 0 -34 -3
-45 -8z"/>
<path d="M810 10595 c24 -8 46 -13 48 -11 5 5 -59 26 -77 25 -9 0 4 -7 29 -14z"/>
<path d="M9650 10595 c-32 -18 -26 -18 30 -1 32 11 38 15 20 15 -14 0 -36 -6
-50 -14z"/>
<path d="M1071 10596 c2 -2 20 -6 39 -10 25 -4 31 -3 20 4 -14 9 -69 15 -59 6z"/>
<path d="M9350 10590 c-13 -9 -13 -10 0 -9 8 1 26 5 40 9 l25 8 -25 1 c-14 0
-32 -4 -40 -9z"/>
<path d="M1350 10490 c8 -5 29 -9 45 -9 26 0 27 2 10 9 -11 5 -31 9 -45 9 -20
1 -22 -1 -10 -9z"/>
<path d="M9085 10490 c-25 -11 1 -11 35 0 20 6 21 8 5 8 -11 0 -29 -3 -40 -8z"/>
<path d="M430 10487 c8 -8 100 -47 100 -42 0 3 -12 11 -27 18 -32 17 -81 32
-73 24z"/>
<path d="M10015 10478 c-29 -11 -75 -38 -64 -38 4 0 31 11 60 24 55 25 57 33
4 14z"/>
<path d="M3363 10295 c0 -22 2 -30 4 -17 2 12 2 30 0 40 -3 9 -5 -1 -4 -23z"/>
<path d="M998 10313 c12 -2 30 -2 40 0 9 3 -1 5 -23 4 -22 0 -30 -2 -17 -4z"/>
<path d="M9448 10313 c12 -2 32 -2 45 0 12 2 2 4 -23 4 -25 0 -35 -2 -22 -4z"/>
<path d="M9772 10310 c-18 -4 -36 -11 -40 -15 -10 -10 61 5 73 16 5 5 7 9 5 8
-3 -1 -20 -5 -38 -9z"/>
<path d="M691 10306 c2 -2 18 -6 34 -10 22 -5 26 -4 15 4 -14 9 -59 15 -49 6z"/>
<path d="M7113 10265 c0 -27 2 -38 4 -22 2 15 2 37 0 50 -2 12 -4 0 -4 -28z"/>
<path d="M3373 10185 c0 -27 2 -38 4 -22 2 15 2 37 0 50 -2 12 -4 0 -4 -28z"/>
<path d="M7103 10150 c0 -25 2 -35 4 -22 2 12 2 32 0 45 -2 12 -4 2 -4 -23z"/>
<path d="M3381 10100 c-1 -75 69 -549 120 -810 59 -299 101 -447 219 -765 137
-370 159 -467 140 -593 -11 -69 -62 -190 -106 -252 l-25 -35 30 34 c41 47 88
137 106 206 31 122 15 242 -65 465 -133 368 -221 645 -255 800 -42 189 -115
614 -143 835 -11 83 -20 134 -21 115z"/>
<path d="M7093 10060 c0 -25 2 -35 4 -22 2 12 2 32 0 45 -2 12 -4 2 -4 -23z"/>
<path d="M7077 9950 c-13 -110 -87 -547 -118 -700 -55 -268 -101 -420 -252
-830 -103 -281 -122 -384 -96 -512 13 -66 69 -181 110 -228 l31 -35 -32 48
c-81 123 -114 243 -100 367 11 93 25 143 98 340 146 397 199 573 251 830 54
266 125 722 119 763 -2 12 -7 -7 -11 -43z"/>
<path d="M4741 9034 c0 -11 3 -14 6 -6 3 7 2 16 -1 19 -3 4 -6 -2 -5 -13z"/>
<path d="M5732 9030 c0 -14 2 -19 5 -12 2 6 2 18 0 25 -3 6 -5 1 -5 -13z"/>
<path d="M4752 8980 c0 -14 2 -19 5 -12 2 6 2 18 0 25 -3 6 -5 1 -5 -13z"/>
<path d="M5722 8970 c0 -14 2 -19 5 -12 2 6 2 18 0 25 -3 6 -5 1 -5 -13z"/>
<path d="M4761 8943 c0 -7 17 -117 38 -245 56 -326 64 -409 64 -608 0 -277
-52 -512 -145 -650 -25 -36 -26 -41 -8 -25 33 29 95 166 120 265 47 184 60
392 40 615 -13 145 -105 689 -109 648z"/>
<path d="M5712 8920 c0 -14 2 -19 5 -12 2 6 2 18 0 25 -3 6 -5 1 -5 -13z"/>
<path d="M5671 8711 c-53 -297 -64 -410 -65 -616 0 -198 11 -289 55 -445 26
-95 80 -208 114 -240 24 -22 23 -19 -8 27 -46 69 -91 186 -117 309 -17 75 -23
147 -27 297 -6 226 2 326 53 626 19 113 33 209 31 215 -2 5 -18 -72 -36 -173z"/>
<path d="M6332 7990 c0 -14 2 -19 5 -12 2 6 2 18 0 25 -3 6 -5 1 -5 -13z"/>
<path d="M4150 7957 c0 -34 33 -161 60 -228 66 -163 207 -314 320 -343 14 -4
-1 7 -32 25 -79 44 -130 90 -183 163 -62 87 -111 194 -140 306 -13 52 -24 87
-25 77z"/>
<path d="M6320 7940 c0 -42 -71 -234 -111 -303 -52 -88 -147 -183 -224 -225
-33 -18 -49 -30 -35 -26 119 31 262 188 328 361 32 83 59 199 48 210 -3 3 -6
-4 -6 -17z"/>
<path d="M3982 7461 c-18 -5 -36 -12 -40 -16 -4 -3 7 -3 23 2 79 21 248 1 330
-39 216 -107 194 -380 -45 -551 -15 -10 -7 -8 19 5 89 47 176 174 188 275 17
151 -60 261 -217 308 -64 19 -211 28 -258 16z"/>
<path d="M6284 7455 c-127 -28 -228 -107 -254 -200 -38 -135 55 -328 191 -398
30 -15 46 -22 35 -15 -108 74 -184 166 -207 252 -53 189 59 324 296 357 49 6
93 6 136 0 77 -13 90 -7 19 8 -66 14 -139 13 -216 -4z"/>
<path d="M3571 7294 c0 -11 3 -14 6 -6 3 7 2 16 -1 19 -3 4 -6 -2 -5 -13z"/>
<path d="M6901 7284 c0 -11 3 -14 6 -6 3 7 2 16 -1 19 -3 4 -6 -2 -5 -13z"/>
<path d="M3701 7250 c0 -14 6 -90 14 -170 9 -80 15 -224 14 -321 l-2 -175 38
-90 c20 -49 49 -116 63 -149 14 -33 32 -102 40 -153 19 -114 27 -114 12 -1
-12 91 -36 165 -96 299 l-38 85 -2 210 c-2 145 -8 253 -22 350 -11 77 -20 129
-21 115z"/>
<path d="M6754 7098 c-12 -100 -19 -219 -19 -343 l0 -190 -38 -85 c-66 -146
-85 -205 -91 -271 -3 -35 -3 -53 0 -39 17 86 40 156 84 254 65 147 70 175 63
335 -4 93 0 191 11 309 10 96 16 176 13 178 -2 2 -12 -64 -23 -148z"/>
<path d="M3801 7108 c-2 -75 84 -209 159 -248 14 -6 1 9 -28 35 -61 55 -96
110 -116 185 -10 37 -15 46 -15 28z"/>
<path d="M6668 7087 c-11 -61 -48 -124 -104 -177 -63 -60 -56 -67 9 -9 54 47
110 152 105 195 -3 27 -4 27 -10 -9z"/>
<path d="M4541 6984 c0 -11 3 -14 6 -6 3 7 2 16 -1 19 -3 4 -6 -2 -5 -13z"/>
<path d="M4506 6823 c-50 -246 -78 -311 -190 -433 -64 -70 -100 -129 -111
-185 -4 -19 2 -13 15 20 24 56 74 126 121 170 48 46 107 141 128 211 22 70 74
331 69 346 -2 6 -16 -52 -32 -129z"/>
<path d="M5941 6954 c-1 -6 12 -78 29 -161 44 -226 74 -295 174 -403 80 -86
86 -94 112 -157 19 -44 23 -49 18 -23 -11 57 -40 106 -115 187 -105 116 -123
160 -197 483 -11 47 -20 80 -21 74z"/>
<path d="M6592 6115 c0 -16 2 -22 5 -12 2 9 2 23 0 30 -3 6 -5 -1 -5 -18z"/>
<path d="M5876 5960 c153 -346 212 -531 256 -813 26 -168 36 -686 19 -1019 -6
-122 -13 -268 -16 -323 l-4 -100 9 85 c16 159 30 414 36 675 12 497 -34 856
-151 1171 -45 119 -170 403 -185 418 -6 6 10 -36 36 -94z"/>
<path d="M4587 5943 c-153 -329 -225 -565 -264 -875 -20 -160 -23 -700 -4
-983 16 -263 33 -466 38 -461 2 2 -3 111 -12 242 -23 330 -31 923 -16 1106 29
335 93 569 262 952 27 60 47 111 45 113 -1 2 -23 -41 -49 -94z"/>
<path d="M6123 3650 c0 -25 2 -35 4 -22 2 12 2 32 0 45 -2 12 -4 2 -4 -23z"/>
<path d="M4363 3555 c0 -22 2 -30 4 -17 2 12 2 30 0 40 -3 9 -5 -1 -4 -23z"/>
<path d="M3417 448 c25 -12 38 -41 27 -59 -4 -7 -23 -9 -48 -6 l-41 5 34 -11
c37 -12 64 -2 69 27 5 21 -25 56 -47 55 -11 0 -9 -4 6 -11z"/>
<path d="M7040 442 c-47 -38 5 -86 67 -64 26 9 24 10 -17 9 -41 -2 -45 0 -48
24 -2 18 3 29 20 37 13 6 18 11 12 11 -7 1 -22 -7 -34 -17z"/>
<path d="M4157 430 c41 -9 83 -37 83 -53 0 -7 -6 -21 -13 -31 -12 -16 -15 -16
-62 5 -58 26 -166 32 -187 11 -11 -11 -8 -12 17 -5 49 13 119 6 175 -18 52
-22 53 -22 67 -3 7 10 12 28 11 39 -4 25 -64 65 -97 64 -24 -1 -23 -2 6 -9z"/>
<path d="M6269 417 c-41 -27 -46 -46 -21 -77 l18 -23 65 26 c35 15 55 26 44
26 -11 1 -40 -8 -64 -19 -24 -11 -45 -19 -46 -18 -1 2 -8 13 -14 25 -10 19 -8
26 9 43 11 11 32 22 47 26 45 10 50 12 22 13 -14 1 -41 -9 -60 -22z"/>
<path d="M6860 402 c-18 -15 -22 -24 -16 -47 7 -27 9 -27 57 -22 27 3 57 11
67 17 15 10 15 11 -3 5 -10 -3 -38 -9 -62 -12 -34 -4 -44 -2 -49 11 -9 24 22
54 60 59 l31 4 -31 1 c-18 1 -42 -6 -54 -16z"/>
<path d="M3790 363 c26 -13 36 -26 38 -47 l4 -28 -69 5 -68 5 57 -10 c71 -13
88 -7 88 30 0 34 -13 48 -55 57 -30 6 -29 6 5 -12z"/>
<path d="M6435 370 c22 -4 49 -10 60 -14 20 -8 20 -7 1 8 -12 9 -37 15 -60 15
l-41 -2 40 -7z"/>
<path d="M6660 360 c-23 -23 -26 -68 -5 -76 8 -3 43 -1 77 5 l63 10 -68 -5
c-57 -5 -68 -3 -74 12 -9 24 9 47 48 61 33 11 33 12 7 12 -16 1 -37 -8 -48
-19z"/>
</g>
</svg>
