<?xml version="1.0" standalone="no"?>
<!DOCTYPE svg PUBLIC "-//W3C//DTD SVG 20010904//EN"
 "http://www.w3.org/TR/2001/REC-SVG-20010904/DTD/svg10.dtd">
<svg version="1.0" xmlns="http://www.w3.org/2000/svg"
 width="1331.000000pt" height="1858.000000pt" viewBox="0 0 1331.000000 1858.000000"
 preserveAspectRatio="xMidYMid meet">

<g transform="translate(0.000000,1858.000000) scale(0.100000,-0.100000)"
fill="#000000" stroke="none">
<path d="M8698 18456 c-258 -46 -471 -175 -586 -355 -73 -114 -142 -303 -200
-551 -82 -346 -122 -754 -102 -1033 18 -263 46 -390 152 -712 124 -377 142
-471 142 -750 1 -242 -4 -272 -67 -363 -39 -59 -80 -75 -176 -70 -95 5 -143
27 -186 87 -71 97 -91 222 -75 454 7 89 14 281 17 427 5 251 3 275 -23 460
-33 235 -39 542 -14 720 10 72 15 181 14 350 -1 205 -5 276 -27 435 -28 202
-47 272 -101 369 -106 189 -344 290 -607 256 -295 -38 -483 -146 -570 -327
-56 -117 -68 -236 -49 -466 16 -186 43 -338 118 -677 46 -207 55 -358 37 -645
-17 -269 -19 -494 -5 -635 27 -287 32 -356 33 -475 1 -139 -12 -197 -56 -257
-27 -36 -78 -39 -101 -6 -19 27 -22 200 -6 408 11 143 1 317 -25 435 -7 33
-21 111 -30 173 -19 122 -17 306 5 592 26 330 -32 619 -181 899 -99 186 -173
271 -286 327 -49 24 -73 29 -152 32 -111 5 -159 -7 -261 -60 -117 -61 -246
-199 -312 -333 -66 -132 -94 -300 -78 -462 12 -119 18 -148 96 -472 53 -216
62 -276 28 -195 -117 284 -254 404 -459 404 -184 0 -346 -104 -468 -303 -107
-172 -237 -710 -237 -979 0 -38 -3 -68 -8 -68 -4 0 -23 11 -43 24 -63 43 -130
59 -227 54 -94 -5 -128 -17 -188 -70 -73 -65 -101 -126 -139 -313 -22 -105
-56 -213 -122 -390 -56 -148 -91 -370 -124 -782 -13 -170 -13 -169 33 -633 5
-58 7 -152 4 -209 -5 -83 -45 -362 -81 -566 -10 -56 -35 -469 -35 -585 0 -276
39 -563 156 -1155 13 -66 31 -160 39 -210 9 -49 27 -155 41 -235 14 -80 29
-176 34 -215 5 -38 21 -153 35 -255 14 -102 29 -221 34 -265 20 -163 46 -369
82 -635 12 -88 55 -337 74 -430 38 -182 59 -273 81 -355 36 -130 97 -347 170
-600 155 -544 209 -843 288 -1610 9 -82 23 -213 31 -290 9 -77 20 -176 25
-220 12 -106 45 -324 70 -460 46 -244 62 -403 56 -555 -5 -149 -13 -194 -60
-315 -15 -38 -36 -92 -46 -120 -10 -27 -33 -88 -50 -135 -78 -207 -110 -385
-110 -614 0 -177 11 -267 60 -469 21 -88 110 -363 150 -467 36 -90 119 -334
135 -397 63 -235 79 -417 71 -783 -5 -240 -41 -720 -61 -807 -3 -13 -2 -23 3
-23 16 0 66 357 93 658 11 131 8 600 -5 652 -6 22 -5 22 3 4 18 -40 68 -292
90 -454 l9 -65 1 61 c1 82 -27 282 -60 420 -21 90 -118 418 -147 499 -16 44
-53 145 -81 225 -29 80 -58 161 -66 180 -33 87 -45 124 -79 258 -53 208 -66
290 -73 457 -4 113 -1 179 11 265 23 162 100 428 156 543 74 150 152 389 194
597 60 295 76 455 74 735 l-1 230 -8 -190 c-10 -264 -41 -516 -91 -740 -15
-68 -59 -239 -62 -243 -2 -1 -6 66 -9 150 -6 163 -13 218 -58 478 -52 305 -94
625 -119 920 -12 143 -51 478 -75 646 -14 95 -21 136 -65 384 -22 127 -86 380
-159 635 -60 207 -101 350 -117 410 -9 33 -24 89 -34 125 -33 120 -81 324
-100 425 -47 258 -81 491 -134 920 -60 483 -82 641 -135 950 -32 185 -39 222
-91 480 -83 408 -120 720 -120 1008 0 222 23 549 50 717 19 116 26 164 51 325
13 90 11 279 -5 407 -42 333 -42 439 5 853 28 245 47 332 119 530 34 93 73
219 87 280 41 176 42 181 63 207 11 14 41 36 67 48 93 44 209 24 286 -48 31
-29 35 -71 16 -179 -9 -53 -16 -68 -46 -92 -38 -31 -81 -46 -160 -57 -82 -10
-138 2 -178 40 -39 37 -46 33 -15 -7 33 -41 98 -61 180 -53 82 7 169 37 197
69 32 33 53 110 53 187 0 59 -3 73 -26 100 -15 17 -50 43 -78 57 -69 36 -179
37 -246 3 -40 -20 -43 -21 -30 -4 73 96 117 119 235 119 78 0 97 -4 147 -28
31 -15 70 -43 86 -61 28 -33 29 -36 36 -187 11 -242 35 -399 120 -793 21 -99
22 -112 9 -155 -58 -190 -78 -424 -59 -681 13 -168 40 -339 53 -326 3 2 0 36
-6 75 -6 38 -11 92 -11 119 0 43 5 54 38 88 20 22 48 62 62 90 l25 49 3 -50
c2 -27 2 -112 0 -187 -2 -75 0 -131 4 -124 14 26 30 203 30 341 0 241 -29 421
-142 890 -33 136 -53 244 -75 390 -26 177 -34 545 -15 700 25 212 69 421 132
630 64 213 186 372 346 451 68 35 87 39 164 42 80 4 93 1 150 -25 76 -36 118
-70 168 -138 38 -52 97 -160 111 -205 4 -14 20 -61 37 -105 53 -146 65 -237
59 -445 -5 -173 -8 -195 -43 -330 -38 -142 -38 -149 -39 -325 0 -398 35 -820
80 -955 13 -39 14 -40 9 -10 -5 33 -34 261 -34 267 0 2 9 -1 21 -7 43 -23 109
16 140 84 l19 41 -3 -210 c-2 -131 0 -195 6 -170 4 22 11 136 14 254 6 230 -2
330 -42 556 -77 428 -85 510 -85 878 0 337 -5 384 -76 658 -88 347 -97 400
-98 584 0 161 1 174 28 250 70 201 210 361 386 441 58 26 76 29 165 29 88 0
107 -3 158 -27 111 -52 207 -175 308 -393 124 -268 162 -534 128 -895 -20
-214 -14 -407 16 -575 50 -276 54 -365 35 -670 -11 -173 0 -395 24 -495 12
-48 14 -51 14 -20 0 19 -3 73 -7 120 -9 95 -6 107 15 85 42 -42 116 -20 153
46 13 22 25 39 27 37 2 -3 -3 -49 -11 -103 -20 -134 -17 -159 6 -50 11 50 23
142 28 205 8 121 -1 416 -19 560 -18 147 -23 417 -11 585 34 458 27 556 -63
955 -67 296 -80 402 -81 640 0 190 2 221 19 265 28 71 62 122 117 176 113 110
321 181 529 181 235 0 410 -94 492 -264 46 -95 62 -159 89 -353 29 -206 32
-588 6 -790 -9 -71 -17 -196 -17 -277 0 -131 7 -213 41 -458 20 -151 22 -372
4 -679 -14 -254 -15 -334 -6 -490 14 -227 26 -329 52 -443 31 -137 51 -178 25
-51 -16 78 -42 390 -33 399 3 3 13 -11 22 -31 22 -46 84 -99 134 -113 65 -20
195 -15 242 8 39 20 99 91 99 117 0 7 5 13 11 13 6 0 8 -8 5 -17 -3 -10 -8
-45 -12 -78 -8 -73 -41 -218 -60 -264 -16 -38 -18 -63 -4 -41 23 35 60 174 79
290 30 187 41 390 30 543 -17 230 -43 344 -163 707 -51 154 -86 290 -113 435
-26 144 -26 603 0 790 60 421 129 690 232 900 78 159 182 260 350 340 138 65
210 79 400 79 157 0 177 -2 255 -27 280 -89 485 -278 643 -594 48 -95 79 -178
148 -393 22 -69 72 -222 110 -340 89 -275 84 -261 109 -354 101 -383 117 -759
46 -1120 -76 -383 -86 -467 -93 -811 -6 -313 4 -527 37 -785 17 -139 31 -232
85 -585 22 -141 42 -348 56 -571 16 -253 -4 -556 -55 -846 -80 -448 -148 -720
-319 -1278 -179 -581 -183 -596 -227 -805 -12 -55 -28 -129 -35 -165 -25 -115
-68 -410 -105 -715 -11 -93 -25 -204 -30 -245 -6 -41 -15 -120 -20 -175 -5
-55 -16 -167 -24 -250 -23 -227 -35 -554 -41 -1148 -5 -500 -20 -854 -45
-1054 -5 -46 -14 -118 -19 -160 -6 -43 -17 -118 -26 -168 -30 -168 -35 -195
-44 -248 -9 -48 -49 -255 -85 -437 -50 -248 -75 -456 -83 -669 l-6 -174 -17
49 c-65 190 -108 395 -134 649 -2 22 -3 -14 -1 -80 4 -122 34 -334 62 -435 40
-147 138 -436 185 -545 62 -147 126 -361 154 -522 58 -334 18 -692 -119 -1055
-43 -113 -62 -156 -195 -444 -158 -340 -266 -658 -322 -948 -29 -149 -23 -140
20 31 40 153 141 471 161 502 8 12 9 5 5 -29 -22 -170 -28 -308 -23 -506 6
-217 12 -297 42 -544 43 -349 54 -420 66 -420 4 0 6 6 4 12 -8 23 -39 399 -60
718 -24 363 -17 562 26 815 28 159 35 180 146 415 20 41 52 111 73 155 142
302 213 553 240 854 30 324 -41 668 -231 1126 -31 76 -33 88 -37 225 -7 261
21 476 143 1095 122 617 165 1069 165 1744 0 381 18 964 35 1151 37 398 89
826 146 1205 49 328 111 584 247 1020 152 488 251 835 282 995 5 25 20 97 34
160 141 662 149 1068 37 1840 -55 374 -71 489 -80 569 -53 436 -34 974 47
1386 62 312 76 462 62 680 -24 363 -64 518 -357 1395 -101 305 -236 523 -423
686 -92 80 -272 169 -401 199 -98 23 -274 28 -371 11z m-3557 -3431 c17 -85
77 -445 90 -546 22 -171 -19 -319 -87 -319 -38 0 -46 35 -55 270 -5 118 -12
266 -15 329 -6 110 4 227 27 326 16 65 23 73 26 30 2 -22 8 -62 14 -90z
m-1041 -1302 c46 -243 38 -359 -33 -472 l-35 -54 -8 34 c-13 57 -6 337 11 439
9 52 19 112 22 133 3 20 9 37 13 37 4 0 18 -53 30 -117z"/>
<path d="M8720 18081 c-188 -24 -376 -105 -500 -217 -34 -31 -43 -35 -51 -23
-13 21 -12 -3 7 -107 10 -57 16 -143 16 -239 -1 -82 3 -168 7 -190 5 -25 7 9
5 90 l-4 130 15 -75 c72 -374 149 -512 322 -577 132 -49 197 -58 403 -58 172
1 205 3 280 24 106 28 214 84 246 127 51 66 64 122 64 274 0 130 -28 381 -59
520 -5 25 -13 77 -17 115 -4 39 -10 62 -12 53 -3 -16 -9 -14 -48 13 -63 43
-176 94 -265 119 -84 23 -298 34 -409 21z m400 -46 c78 -21 210 -82 266 -123
l41 -30 17 -113 c9 -63 23 -154 31 -204 37 -238 43 -414 16 -506 -45 -152
-309 -240 -650 -217 -122 8 -245 34 -328 69 -91 39 -179 168 -223 325 -21 80
-52 253 -76 439 l-16 129 54 51 c86 79 256 157 417 190 94 20 365 14 451 -10z"/>
<path d="M8831 17089 c-53 -10 -144 -40 -139 -45 2 -2 33 6 68 18 55 19 89 22
219 22 85 1 142 4 125 7 -43 10 -222 8 -273 -2z"/>
<path d="M9195 17060 c70 -23 79 -24 45 -5 -14 7 -43 16 -65 19 -32 5 -28 3
20 -14z"/>
<path d="M8620 17015 c-25 -13 -40 -24 -35 -24 6 0 30 11 55 24 25 13 41 24
35 24 -5 0 -30 -11 -55 -24z"/>
<path d="M9271 17036 c10 -9 69 -36 69 -32 0 6 -55 36 -66 36 -4 0 -5 -2 -3
-4z"/>
<path d="M6820 18020 c-108 -20 -200 -70 -269 -145 -47 -51 -56 -78 -47 -148
15 -132 60 -210 139 -242 34 -14 73 -17 207 -17 183 1 334 24 396 62 47 30 69
94 67 195 -2 126 -14 151 -105 211 -42 28 -100 58 -130 68 -62 20 -194 29
-258 16z m270 -50 c60 -26 158 -88 180 -115 20 -24 20 -207 1 -252 -32 -76
-143 -105 -411 -107 -163 -1 -190 1 -223 18 -50 25 -81 81 -103 183 -20 97
-18 104 54 177 46 47 137 98 208 115 22 6 84 9 139 7 78 -2 112 -8 155 -26z"/>
<path d="M6953 17613 c9 -2 25 -2 35 0 9 3 1 5 -18 5 -19 0 -27 -2 -17 -5z"/>
<path d="M6878 17603 c6 -2 18 -2 25 0 6 3 1 5 -13 5 -14 0 -19 -2 -12 -5z"/>
<path d="M7048 17603 c7 -3 16 -2 19 1 4 3 -2 6 -13 5 -11 0 -14 -3 -6 -6z"/>
<path d="M6838 17593 c7 -3 16 -2 19 1 4 3 -2 6 -13 5 -11 0 -14 -3 -6 -6z"/>
<path d="M7088 17593 c7 -3 16 -2 19 1 4 3 -2 6 -13 5 -11 0 -14 -3 -6 -6z"/>
<path d="M9431 17984 c0 -11 3 -14 6 -6 3 7 2 16 -1 19 -3 4 -6 -2 -5 -13z"/>
<path d="M5445 17376 c-87 -18 -168 -61 -231 -121 l-54 -53 0 -79 c0 -85 20
-218 46 -301 44 -138 213 -178 439 -104 66 22 89 35 132 78 69 69 78 102 78
296 0 143 -2 159 -21 185 -29 40 -121 82 -212 99 -91 16 -99 16 -177 0z m178
-30 c89 -17 170 -56 194 -93 15 -23 18 -49 18 -163 -1 -143 -11 -196 -48 -251
-47 -70 -149 -115 -285 -125 -157 -12 -219 11 -261 95 -26 52 -61 242 -61 333
0 45 2 49 59 96 73 61 149 99 221 111 79 13 80 12 163 -3z"/>
<path d="M5498 16843 c7 -3 16 -2 19 1 4 3 -2 6 -13 5 -11 0 -14 -3 -6 -6z"/>
<path d="M5440 16825 c-14 -8 -20 -14 -15 -14 6 0 21 6 35 14 14 8 21 14 15
14 -5 0 -21 -6 -35 -14z"/>
<path d="M5389 16793 c-13 -16 -12 -17 4 -4 16 13 21 21 13 21 -2 0 -10 -8
-17 -17z"/>
<path d="M6915 16980 c-73 -12 -177 -58 -235 -103 -30 -24 -24 -22 65 24 144
74 278 86 422 37 87 -29 87 -20 1 15 -71 28 -178 39 -253 27z"/>
<path d="M6915 16856 c-33 -7 -69 -17 -80 -24 -26 -15 -20 -15 39 3 27 8 88
15 135 16 58 1 78 4 61 9 -35 11 -85 10 -155 -4z"/>
<path d="M8580 16796 c0 -2 7 -7 16 -10 8 -3 12 -2 9 4 -6 10 -25 14 -25 6z"/>
<path d="M9290 16790 c-8 -5 -10 -10 -5 -10 6 0 17 5 25 10 8 5 11 10 5 10 -5
0 -17 -5 -25 -10z"/>
<path d="M8695 16750 c11 -5 29 -8 40 -8 16 0 15 2 -5 8 -34 11 -60 11 -35 0z"/>
<path d="M9140 16750 c-20 -6 -21 -8 -5 -8 11 0 29 3 40 8 25 11 -1 11 -35 0z"/>
<path d="M4525 16293 c-119 -13 -216 -68 -268 -153 -18 -29 -22 -49 -21 -125
1 -101 19 -155 63 -183 37 -25 228 -29 349 -8 166 29 184 47 217 234 13 73 13
85 0 105 -49 75 -226 142 -340 130z m153 -47 c86 -29 160 -78 168 -111 8 -34
-11 -146 -34 -199 -24 -53 -54 -71 -143 -85 -84 -14 -308 -14 -347 0 -36 12
-47 40 -57 139 -9 84 6 137 47 176 107 99 230 126 366 80z"/>
<path d="M4485 15931 c-12 -5 9 -7 50 -4 91 6 105 11 30 12 -33 0 -69 -4 -80
-8z"/>
<path d="M4414 15904 c-19 -15 -19 -15 1 -6 11 5 27 12 35 15 13 5 13 6 -1 6
-8 1 -24 -6 -35 -15z"/>
<path d="M4670 15910 c8 -5 20 -10 25 -10 6 0 3 5 -5 10 -8 5 -19 10 -25 10
-5 0 -3 -5 5 -10z"/>
<path d="M5478 16236 c-31 -13 -75 -38 -97 -55 -48 -39 -56 -55 -8 -19 55 43
114 68 179 77 57 8 180 1 251 -15 18 -3 30 -4 27 -1 -13 14 -149 37 -218 37
-57 0 -91 -6 -134 -24z"/>
<path d="M5520 16149 c-16 -5 -4 -6 35 -2 33 3 62 7 64 9 8 8 -74 2 -99 -7z"/>
<path d="M5450 16130 c-18 -12 -2 -12 25 0 13 6 15 9 5 9 -8 0 -22 -4 -30 -9z"/>
<path d="M7327 15909 c17 -48 29 -107 33 -169 l7 -95 1 87 c2 71 -3 100 -24
160 -14 40 -30 77 -35 82 -4 5 4 -24 18 -65z"/>
<path d="M9055 15880 c104 -9 243 -35 298 -57 21 -9 40 -13 43 -10 10 10 -167
59 -241 68 -38 4 -97 8 -130 7 -51 -1 -47 -2 30 -8z"/>
<path d="M8843 15869 c-18 -5 -33 -12 -33 -15 0 -3 10 -2 22 2 12 4 45 10 73
14 47 7 48 8 10 8 -22 0 -55 -4 -72 -9z"/>
<path d="M8467 15724 c-27 -14 -47 -28 -44 -30 3 -3 16 1 29 9 12 8 49 21 80
28 64 14 164 2 276 -33 35 -10 69 -17 75 -15 7 2 -26 17 -73 32 -65 21 -110
28 -190 31 -98 4 -108 2 -153 -22z"/>
<path d="M9311 15745 c19 -18 328 -86 384 -84 17 1 -6 7 -50 14 -44 7 -133 27
-197 44 -113 30 -147 36 -137 26z"/>
<path d="M7165 15708 c-87 -28 -213 -34 -309 -14 -86 18 -118 20 -71 5 82 -27
198 -38 273 -28 68 9 182 44 182 55 0 6 -10 4 -75 -18z"/>
<path d="M8915 15670 c11 -5 29 -9 40 -9 l20 0 -20 9 c-11 5 -29 9 -40 9 l-20
0 20 -9z"/>
<path d="M8988 15653 c7 -3 16 -2 19 1 4 3 -2 6 -13 5 -11 0 -14 -3 -6 -6z"/>
<path d="M7095 15602 c-28 -11 -73 -16 -150 -16 -78 0 -98 -2 -70 -7 88 -17
212 -4 251 26 23 17 20 17 -31 -3z"/>
<path d="M8860 15600 c8 -5 22 -9 30 -9 10 0 8 3 -5 9 -27 12 -43 12 -25 0z"/>
<path d="M8965 15575 c34 -8 104 -14 160 -13 l100 1 -110 7 c-60 4 -132 10
-160 13 -49 6 -49 6 10 -8z"/>
<path d="M6660 15554 c0 -14 46 -175 58 -204 19 -46 12 -11 -19 98 -30 102
-39 127 -39 106z"/>
<path d="M7331 15514 c0 -11 3 -14 6 -6 3 7 2 16 -1 19 -3 4 -6 -2 -5 -13z"/>
<path d="M7296 15379 c-62 -248 -72 -304 -92 -524 -18 -205 -18 -352 1 -540
21 -220 31 -264 87 -430 47 -136 51 -158 52 -243 1 -87 -1 -95 -23 -113 -32
-26 -49 -24 -134 15 -150 71 -255 70 -390 -2 -64 -35 -68 -35 -85 -19 -14 15
-17 35 -16 110 1 84 5 103 48 216 61 162 84 252 101 391 27 217 14 491 -35
780 -21 121 -63 287 -76 298 -8 8 -6 1 30 -153 61 -261 90 -648 65 -873 -19
-176 -35 -237 -128 -493 -50 -138 -45 -287 10 -304 23 -8 23 -17 4 -70 -8 -22
-14 -74 -15 -115 0 -44 -8 -104 -20 -145 -30 -106 -27 -190 14 -315 58 -178
61 -210 61 -595 0 -338 -11 -583 -40 -900 -8 -82 -17 -188 -20 -235 -3 -47
-11 -122 -16 -167 -5 -45 -14 -123 -19 -175 -5 -51 -20 -190 -34 -308 -14
-118 -32 -278 -41 -355 -31 -266 -81 -602 -110 -735 -9 -41 -20 -95 -24 -120
-17 -89 -71 -327 -95 -417 -28 -105 -47 -205 -78 -413 -20 -132 -21 -175 -17
-475 2 -181 4 -447 3 -590 0 -210 2 -242 9 -165 4 52 6 262 4 465 -7 606 11
808 110 1195 33 130 56 230 108 480 28 133 68 381 85 525 6 55 18 145 25 200
8 55 17 129 20 165 3 36 12 115 20 175 24 189 44 365 55 495 6 69 13 136 15
150 3 14 10 88 15 165 6 77 17 223 25 325 55 720 42 1105 -45 1337 -30 81 -35
165 -15 268 10 50 17 114 16 144 -2 57 13 139 34 181 8 15 41 39 82 60 64 33
74 35 163 35 90 -1 100 -3 187 -42 80 -37 96 -41 125 -32 56 16 73 51 72 144
-2 68 -10 104 -54 233 -60 179 -76 254 -95 457 -19 189 -19 346 0 555 17 192
34 298 76 468 17 67 29 128 27 134 -2 6 -17 -40 -32 -103z"/>
<path d="M4359 15425 c-73 -20 -149 -70 -209 -140 -14 -16 2 -5 35 23 33 29
85 65 115 80 49 24 67 27 155 27 88 0 107 -3 159 -28 67 -31 89 -29 27 2 -49
25 -153 51 -201 50 -19 0 -56 -7 -81 -14z"/>
<path d="M8739 15405 c33 -25 151 -63 235 -76 99 -16 367 -6 426 15 l45 16
-40 -5 c-22 -3 -74 -10 -115 -16 -86 -13 -240 -6 -352 16 -67 12 -104 24 -203
60 -16 6 -16 4 4 -10z"/>
<path d="M9470 15370 c-21 -7 -21 -8 -5 -9 11 0 27 4 35 9 18 11 5 11 -30 0z"/>
<path d="M4697 15349 c7 -7 15 -10 18 -7 3 3 -2 9 -12 12 -14 6 -15 5 -6 -5z"/>
<path d="M5346 15268 c-8 -13 -17 -43 -20 -68 -5 -44 -5 -44 5 -10 6 19 17 50
25 68 16 37 11 42 -10 10z"/>
<path d="M5945 15219 c-11 -17 -106 -57 -191 -80 -64 -17 -96 -21 -169 -16
-65 3 -82 2 -60 -5 61 -19 185 -12 265 15 100 34 211 97 171 97 -5 0 -13 -5
-16 -11z"/>
<path d="M5468 15133 c7 -3 16 -2 19 1 4 3 -2 6 -13 5 -11 0 -14 -3 -6 -6z"/>
<path d="M8460 15103 c0 -5 9 -37 20 -73 28 -90 67 -296 80 -412 44 -415 -46
-899 -227 -1221 -59 -105 -102 -204 -124 -284 -22 -79 -22 -134 -3 -328 l6
-61 -66 -97 c-85 -125 -110 -175 -132 -266 -15 -62 -16 -85 -7 -138 16 -91 61
-178 135 -260 95 -105 103 -156 73 -458 -21 -210 -19 -200 -65 -490 -64 -401
-183 -898 -275 -1145 -7 -19 -21 -60 -33 -90 -102 -282 -227 -542 -319 -665
-35 -45 -116 -132 -180 -193 -84 -78 -130 -130 -158 -179 -42 -69 -110 -231
-102 -240 3 -2 11 13 18 34 43 133 121 260 203 333 220 195 315 334 469 685
132 299 260 727 341 1135 119 600 167 1122 110 1208 -10 15 -36 47 -59 72
-120 129 -163 286 -116 421 27 79 50 121 146 269 96 146 150 205 228 250 28
16 48 30 42 30 -26 0 -117 -65 -168 -119 -31 -34 -58 -61 -60 -61 -7 0 -22
163 -20 227 3 117 28 186 158 433 30 58 59 119 64 135 5 17 21 62 35 100 68
183 115 474 116 715 0 203 -40 465 -102 673 -18 60 -28 82 -28 60z"/>
<path d="M5780 15036 c-43 -16 -78 -20 -163 -21 -60 0 -98 -3 -85 -7 50 -14
166 -8 232 12 36 11 68 25 71 30 3 6 5 9 3 9 -2 -1 -28 -11 -58 -23z"/>
<path d="M9694 15006 c-3 -21 -4 -39 -1 -42 2 -3 8 11 11 32 4 20 5 38 2 41
-2 3 -8 -11 -12 -31z"/>
<path d="M9675 14900 c-4 -28 -5 -53 -2 -56 2 -3 7 19 11 47 4 28 5 53 3 56
-3 2 -8 -19 -12 -47z"/>
<path d="M5937 14808 c-56 -220 -61 -266 -61 -533 0 -212 3 -269 22 -375 29
-167 45 -225 93 -339 76 -182 99 -300 63 -335 -20 -21 -43 -20 -112 4 -132 47
-231 35 -332 -40 -30 -22 -59 -40 -67 -40 -24 0 -43 57 -43 128 0 47 10 106
34 190 51 181 62 325 47 581 -13 219 -29 343 -62 481 -20 86 -79 254 -86 246
-2 -2 5 -28 16 -57 62 -171 98 -410 117 -764 8 -157 -9 -305 -52 -474 -43
-163 -48 -260 -18 -312 27 -45 68 -53 104 -21 88 82 202 103 326 60 124 -43
164 -22 164 86 0 69 -21 141 -81 282 -129 302 -157 828 -64 1218 14 60 24 110
22 112 -2 3 -16 -42 -30 -98z"/>
<path d="M5400 14859 c0 -4 7 -22 15 -40 8 -19 14 -27 14 -19 0 14 -28 72 -29
59z"/>
<path d="M9656 14763 c-3 -26 -9 -196 -12 -376 -10 -515 28 -844 135 -1182 67
-213 83 -267 96 -330 23 -108 19 -160 -24 -312 -50 -175 -58 -221 -65 -363 -5
-102 -16 -172 -45 -290 -17 -70 -93 -247 -146 -340 -86 -150 -189 -366 -229
-480 -21 -58 -44 -121 -51 -141 -23 -61 -121 -407 -159 -559 -54 -221 -147
-655 -182 -850 -78 -442 -85 -523 -82 -951 3 -336 2 -359 -20 -458 -24 -111
-29 -171 -6 -81 40 159 46 239 48 645 l3 400 36 205 c20 113 54 291 76 395 22
105 53 255 70 335 42 201 59 273 126 520 119 438 205 669 339 910 181 325 246
527 246 766 0 100 10 155 64 335 18 64 37 134 41 156 10 60 -17 195 -75 378
-70 218 -93 305 -131 500 -18 95 -38 311 -50 557 -10 196 -10 289 0 449 12
190 10 267 -3 162z"/>
<path d="M4811 14798 c-1 -4 8 -31 20 -60 11 -29 25 -80 29 -113 l9 -60 -3 66
c-2 45 -12 84 -29 120 -14 30 -26 51 -26 47z"/>
<path d="M3543 14703 c15 -2 39 -2 55 0 15 2 2 4 -28 4 -30 0 -43 -2 -27 -4z"/>
<path d="M3470 14685 c-14 -8 -20 -14 -15 -14 6 0 21 6 35 14 14 8 21 14 15
14 -5 0 -21 -6 -35 -14z"/>
<path d="M4757 14444 c-60 -40 -132 -73 -215 -99 -42 -13 -70 -24 -61 -24 54
-2 235 72 290 119 42 36 36 38 -14 4z"/>
<path d="M3442 14308 c-54 -8 -129 -35 -121 -43 3 -2 24 3 49 11 90 31 169 28
285 -10 11 -3 -2 5 -30 18 -59 28 -111 35 -183 24z"/>
<path d="M4664 14280 c-105 -46 -225 -59 -324 -35 -24 6 -24 6 -5 -7 14 -9 54
-13 125 -12 92 0 114 4 173 28 37 16 70 32 73 37 6 11 8 11 -42 -11z"/>
<path d="M4837 14152 c-40 -223 -49 -322 -49 -502 0 -315 50 -535 183 -800 74
-150 85 -209 44 -236 -24 -15 -29 -15 -96 10 -136 50 -242 26 -334 -77 -52
-59 -55 -61 -72 -44 -26 26 -23 175 6 362 27 173 25 289 -9 509 -38 244 -90
412 -210 679 -39 87 -31 43 11 -59 139 -336 188 -554 196 -864 4 -168 2 -212
-16 -319 -28 -165 -28 -279 0 -315 11 -14 27 -26 35 -26 8 0 15 -10 15 -22 1
-20 2 -21 6 -4 17 67 103 149 180 172 66 20 109 17 178 -11 76 -31 100 -31
132 1 40 40 28 96 -56 275 -39 81 -79 174 -90 206 -39 119 -73 298 -81 434 -9
140 1 402 19 499 23 129 43 271 39 275 -3 3 -16 -62 -31 -143z"/>
<path d="M3433 14223 c9 -2 23 -2 30 0 6 3 -1 5 -18 5 -16 0 -22 -2 -12 -5z"/>
<path d="M3315 14199 c-27 -11 -57 -28 -65 -37 -14 -14 -13 -15 2 -3 10 7 50
24 90 37 40 12 62 23 48 23 -14 0 -47 -9 -75 -20z"/>
<path d="M4221 14205 c0 -5 11 -30 24 -55 13 -25 24 -40 24 -35 0 6 -11 30
-24 55 -13 25 -24 41 -24 35z"/>
<path d="M3660 13654 c-38 -56 -104 -104 -193 -140 -87 -36 -93 -43 -14 -19
88 27 168 81 212 145 15 22 26 42 24 45 -3 2 -15 -12 -29 -31z"/>
<path d="M6928 13673 c23 -2 59 -2 80 0 20 2 1 4 -43 4 -44 0 -61 -2 -37 -4z"/>
<path d="M6823 13654 c-17 -7 -35 -18 -38 -24 -4 -7 10 -3 31 8 22 11 46 22
54 25 13 5 13 5 0 5 -8 0 -29 -6 -47 -14z"/>
<path d="M3555 13394 c-47 -29 -120 -52 -207 -64 l-63 -9 75 4 c83 4 169 31
215 70 38 31 31 31 -20 -1z"/>
<path d="M7297 13304 c-3 -48 -1 -123 5 -167 16 -120 8 -170 -41 -267 -98
-191 -124 -327 -161 -840 -11 -151 -25 -351 -30 -445 -5 -93 -12 -192 -15
-220 -3 -27 -17 -264 -31 -525 -35 -627 -38 -1253 -9 -1554 10 -110 21 -194
23 -188 2 6 -4 105 -13 219 -15 198 -22 822 -10 897 2 17 9 139 15 271 10 243
28 555 55 945 8 118 17 260 20 315 16 283 50 665 67 760 17 98 57 234 89 301
74 159 83 215 55 356 -7 38 -11 102 -8 148 2 44 2 80 0 80 -3 0 -8 -39 -11
-86z"/>
<path d="M5735 13343 c-52 -11 -115 -35 -125 -47 -6 -8 5 -6 28 5 22 11 68 24
103 30 35 6 65 12 68 15 5 5 -47 3 -74 -3z"/>
<path d="M3682 13080 c0 -14 2 -19 5 -12 2 6 2 18 0 25 -3 6 -5 1 -5 -13z"/>
<path d="M5556 13069 c-3 -17 -6 -73 -6 -125 0 -51 -7 -123 -16 -160 -14 -62
-14 -74 1 -132 8 -34 32 -98 51 -140 54 -116 90 -247 109 -397 3 -27 13 -95
21 -150 55 -393 108 -1633 93 -2205 -9 -345 -23 -515 -75 -930 -46 -366 -49
-613 -9 -880 14 -96 30 -191 35 -210 l10 -35 -4 40 c-3 22 -11 84 -20 138 -8
53 -21 171 -27 262 -11 142 -11 192 4 372 10 114 24 249 31 298 84 530 104
1165 67 2015 -31 703 -63 1090 -112 1367 -28 158 -44 213 -83 292 -69 135 -90
234 -67 307 17 53 23 137 10 128 -9 -5 -11 14 -6 84 7 94 4 116 -7 61z"/>
<path d="M6051 13054 c0 -11 3 -14 6 -6 3 7 2 16 -1 19 -3 4 -6 -2 -5 -13z"/>
<path d="M3672 13030 c0 -14 2 -19 5 -12 2 6 2 18 0 25 -3 6 -5 1 -5 -13z"/>
<path d="M6054 12987 c-8 -27 -7 -48 7 -98 26 -91 23 -144 -13 -287 l-33 -127
0 -315 c0 -368 20 -804 71 -1570 8 -124 19 -289 24 -367 12 -177 48 -545 59
-598 15 -68 12 1 -3 116 -14 99 -43 534 -66 994 -6 116 -15 287 -20 380 -30
510 -42 809 -43 1060 l0 280 32 120 c42 160 47 218 25 275 -9 25 -20 73 -23
108 -6 63 -6 63 -17 29z"/>
<path d="M3655 12923 c-19 -195 42 -568 117 -718 11 -22 44 -72 74 -112 96
-129 140 -265 99 -306 -22 -22 -43 -21 -102 4 -118 51 -265 10 -344 -97 -22
-30 -44 -54 -50 -54 -5 0 -23 7 -38 15 -65 33 -77 151 -34 342 24 108 26 135
25 313 -1 107 -5 222 -10 255 -5 40 -8 -29 -7 -200 0 -240 -2 -267 -23 -350
-54 -206 -33 -352 54 -385 34 -13 57 -1 95 49 20 26 59 58 94 77 51 29 70 34
125 34 85 0 137 -24 183 -85 73 -95 87 -169 72 -365 -12 -161 20 -300 186
-790 50 -146 196 -582 325 -970 130 -388 261 -768 291 -845 65 -166 184 -416
236 -498 20 -31 37 -61 37 -66 0 -5 8 -15 17 -22 11 -9 6 5 -12 36 -148 253
-271 550 -410 990 -26 83 -167 507 -312 944 -145 437 -275 838 -289 890 -52
196 -65 314 -42 410 9 39 9 63 -1 104 -14 63 -60 163 -90 194 -26 27 -26 33
-3 33 10 0 29 10 41 22 51 46 6 206 -94 333 -75 96 -102 158 -152 345 -24 93
-44 279 -44 418 -1 72 -2 132 -4 132 -2 0 -7 -35 -10 -77z"/>
<path d="M3342 12855 c0 -16 2 -22 5 -12 2 9 2 23 0 30 -3 6 -5 -1 -5 -18z"/>
<path d="M3351 12810 c0 -8 6 -53 13 -100 9 -57 14 -72 15 -45 0 37 -26 178
-28 145z"/>
<path d="M4690 12708 c-19 -5 -42 -16 -50 -25 -11 -11 -6 -11 20 3 26 14 57
18 120 18 50 0 75 3 60 7 -36 10 -109 9 -150 -3z"/>
<path d="M4888 12693 c7 -3 16 -2 19 1 4 3 -2 6 -13 5 -11 0 -14 -3 -6 -6z"/>
<path d="M5046 12497 c3 -10 9 -15 12 -12 3 3 0 11 -7 18 -10 9 -11 8 -5 -6z"/>
<path d="M5077 12355 c11 -84 8 -145 -15 -264 -29 -153 -30 -349 -1 -516 11
-66 29 -178 40 -250 11 -71 24 -155 29 -185 5 -30 16 -101 25 -157 22 -146 69
-418 105 -608 12 -60 25 -135 30 -165 12 -77 67 -348 91 -450 43 -179 98 -396
108 -420 19 -48 11 -1 -24 137 -66 262 -136 610 -175 868 -5 33 -19 112 -30
175 -29 159 -91 539 -135 820 -20 129 -41 258 -46 285 -6 28 -13 106 -16 175
-6 122 -2 160 38 395 8 51 7 72 -11 135 -16 62 -19 66 -13 25z"/>
<path d="M4542 12247 c-2 -156 8 -193 90 -330 24 -39 53 -92 65 -117 48 -105
119 -391 168 -680 9 -52 22 -133 30 -180 13 -74 28 -169 65 -405 37 -237 111
-787 150 -1125 12 -96 25 -205 30 -242 10 -68 18 -141 45 -408 8 -80 15 -239
15 -355 0 -115 7 -282 15 -370 21 -228 91 -632 145 -835 39 -149 43 -161 47
-156 2 2 -7 48 -21 103 -63 249 -94 428 -147 853 -5 47 -14 243 -19 435 -6
193 -12 364 -15 380 -2 17 -12 95 -20 175 -36 330 -83 710 -121 990 -13 102
-29 219 -35 260 -9 70 -59 406 -79 530 -74 469 -136 768 -202 963 -29 88 -58
147 -108 222 -61 91 -80 160 -90 315 l-7 115 -1 -138z"/>
<path d="M8193 12230 c0 -30 2 -43 4 -27 2 15 2 39 0 55 -2 15 -4 2 -4 -28z"/>
<path d="M8203 12125 c0 -27 2 -38 4 -22 2 15 2 37 0 50 -2 12 -4 0 -4 -28z"/>
<path d="M8212 12020 c0 -19 2 -27 5 -17 2 9 2 25 0 35 -3 9 -5 1 -5 -18z"/>
<path d="M8222 11950 c0 -14 2 -19 5 -12 2 6 2 18 0 25 -3 6 -5 1 -5 -13z"/>
<path d="M3619 11877 c-56 -22 -98 -50 -114 -76 -5 -8 9 0 31 17 80 64 192 87
289 58 53 -16 50 -5 -4 13 -53 17 -140 12 -202 -12z"/>
<path d="M9462 11588 c-80 -83 -99 -107 -167 -212 -65 -99 -160 -284 -170
-331 -4 -16 9 4 28 46 83 186 201 370 311 486 38 40 66 73 64 73 -3 0 -32 -28
-66 -62z"/>
<path d="M3451 11464 c-3 -157 35 -267 126 -367 86 -95 153 -197 219 -335 30
-62 54 -115 54 -118 0 -3 11 -29 24 -57 92 -202 259 -703 364 -1092 127 -467
209 -806 282 -1165 12 -58 26 -124 31 -147 16 -74 57 -305 68 -388 6 -44 15
-113 21 -152 6 -40 15 -177 20 -305 6 -128 14 -271 19 -318 21 -191 79 -409
176 -660 44 -113 223 -485 230 -478 3 3 -16 47 -42 99 -100 195 -203 449 -262
644 -64 211 -101 476 -101 731 0 150 -21 355 -59 584 -26 157 -76 401 -160
785 -11 50 -43 180 -71 290 -28 110 -67 263 -86 340 -93 368 -219 770 -326
1040 -22 55 -48 120 -58 145 -106 269 -208 445 -315 550 -30 30 -64 69 -75 85
-32 53 -62 164 -70 264 -7 94 -7 95 -9 25z"/>
<path d="M9096 10954 c-10 -31 -16 -58 -14 -60 3 -2 12 21 22 52 10 31 16 58
14 60 -3 2 -12 -21 -22 -52z"/>
<path d="M6903 10765 c0 -38 2 -53 4 -32 2 20 2 52 0 70 -2 17 -4 1 -4 -38z"/>
<path d="M6894 10600 c0 -52 1 -74 3 -47 2 26 2 68 0 95 -2 26 -3 4 -3 -48z"/>
<path d="M9021 10674 c0 -11 3 -14 6 -6 3 7 2 16 -1 19 -3 4 -6 -2 -5 -13z"/>
<path d="M9011 10634 c0 -11 3 -14 6 -6 3 7 2 16 -1 19 -3 4 -6 -2 -5 -13z"/>
<path d="M6885 10110 c0 -195 1 -275 2 -177 2 97 2 257 0 355 -1 97 -2 17 -2
-178z"/>
<path d="M6013 10120 c0 -30 2 -43 4 -27 2 15 2 39 0 55 -2 15 -4 2 -4 -28z"/>
<path d="M5221 10064 c0 -11 3 -14 6 -6 3 7 2 16 -1 19 -3 4 -6 -2 -5 -13z"/>
<path d="M5232 10025 c0 -11 4 -31 8 -45 6 -20 8 -21 8 -5 0 11 -4 31 -8 45
-6 20 -8 21 -8 5z"/>
<path d="M6027 9925 c3 -55 7 -102 9 -104 7 -7 2 91 -6 149 -6 40 -7 27 -3
-45z"/>
<path d="M5252 9930 c0 -14 4 -36 8 -50 l8 -25 0 25 c0 14 -4 36 -8 50 l-8 25
0 -25z"/>
<path d="M5272 9835 c0 -11 4 -31 8 -45 6 -20 8 -21 8 -5 0 11 -4 31 -8 45 -6
20 -8 21 -8 5z"/>
<path d="M6041 9740 c-1 -63 56 -436 66 -426 3 2 -5 60 -16 128 -12 68 -27
170 -35 228 -7 58 -14 89 -15 70z"/>
<path d="M5291 9743 c-2 -20 62 -278 66 -267 2 6 -12 71 -31 145 -19 74 -35
128 -35 122z"/>
<path d="M6893 9635 c0 -44 3 -109 7 -145 l7 -65 0 55 c1 30 -2 96 -6 145 l-8
90 0 -80z"/>
<path d="M6182 9540 c0 -19 6 -57 13 -85 17 -66 17 -38 1 50 -9 46 -14 58 -14
35z"/>
<path d="M5362 9450 c-1 -17 66 -220 67 -205 0 6 -14 57 -33 115 -19 58 -34
98 -34 90z"/>
<path d="M6912 9380 c0 -19 2 -27 5 -17 2 9 2 25 0 35 -3 9 -5 1 -5 -18z"/>
<path d="M4501 9390 c-1 -17 37 -140 38 -125 1 6 -8 39 -18 75 -11 36 -20 58
-20 50z"/>
<path d="M6212 9375 c0 -16 2 -22 5 -12 2 9 2 23 0 30 -3 6 -5 -1 -5 -18z"/>
<path d="M6221 9324 c0 -11 3 -14 6 -6 3 7 2 16 -1 19 -3 4 -6 -2 -5 -13z"/>
<path d="M6922 9310 c0 -14 2 -19 5 -12 2 6 2 18 0 25 -3 6 -5 1 -5 -13z"/>
<path d="M5501 9300 c-1 -20 60 -203 65 -197 3 2 -11 51 -30 108 -19 57 -35
97 -35 89z"/>
<path d="M6111 9275 c1 -25 27 -106 28 -85 0 8 -6 35 -13 60 -8 25 -15 36 -15
25z"/>
<path d="M4541 9235 c-2 -15 61 -226 66 -222 2 2 -8 46 -22 98 -27 96 -43 142
-44 124z"/>
<path d="M5430 9220 c0 -8 5 -22 10 -30 9 -13 10 -13 10 0 0 8 -5 22 -10 30
-9 13 -10 13 -10 0z"/>
<path d="M5451 9165 c1 -19 18 -51 18 -35 0 8 -4 22 -9 30 -5 8 -9 11 -9 5z"/>
<path d="M6140 9154 c0 -10 5 -26 10 -34 8 -11 9 -7 4 15 -8 37 -14 45 -14 19z"/>
<path d="M5470 9105 c0 -5 5 -17 10 -25 5 -8 10 -10 10 -5 0 6 -5 17 -10 25
-5 8 -10 11 -10 5z"/>
<path d="M7042 9050 c0 -19 2 -27 5 -17 2 9 2 25 0 35 -3 9 -5 1 -5 -18z"/>
<path d="M5582 9045 c0 -5 6 -26 13 -45 7 -19 14 -28 14 -20 0 8 -6 29 -14 45
-7 17 -13 26 -13 20z"/>
<path d="M5501 9020 c0 -8 4 -22 9 -30 12 -18 12 -2 0 25 -6 13 -9 15 -9 5z"/>
<path d="M4611 8990 c-2 -29 106 -345 161 -475 42 -99 100 -217 104 -212 2 2
-10 32 -27 67 -55 115 -101 232 -170 435 -37 110 -68 193 -68 185z"/>
<path d="M5520 8965 c0 -5 5 -17 10 -25 5 -8 10 -10 10 -5 0 6 -5 17 -10 25
-5 8 -10 11 -10 5z"/>
<path d="M7032 8300 c0 -14 2 -19 5 -12 2 6 2 18 0 25 -3 6 -5 1 -5 -13z"/>
<path d="M4881 8285 c10 -26 63 -115 66 -111 2 2 -10 28 -28 57 -30 53 -46 74
-38 54z"/>
<path d="M5105 8106 c10 -14 19 -26 22 -26 7 0 -17 39 -28 46 -6 3 -3 -5 6
-20z"/>
<path d="M8826 7924 c-9 -37 -15 -68 -13 -70 2 -2 12 25 22 61 9 36 16 68 13
70 -2 2 -12 -25 -22 -61z"/>
<path d="M8796 7825 c-9 -26 -7 -32 5 -12 6 10 9 21 6 23 -2 3 -7 -2 -11 -11z"/>
<path d="M5772 7660 c0 -14 2 -19 5 -12 2 6 2 18 0 25 -3 6 -5 1 -5 -13z"/>
<path d="M8331 7594 c0 -11 3 -14 6 -6 3 7 2 16 -1 19 -3 4 -6 -2 -5 -13z"/>
<path d="M8316 7555 c-9 -26 -7 -32 5 -12 6 10 9 21 6 23 -2 3 -7 -2 -11 -11z"/>
<path d="M8301 7504 c0 -11 3 -14 6 -6 3 7 2 16 -1 19 -3 4 -6 -2 -5 -13z"/>
<path d="M8290 7468 c0 -3 -14 -58 -31 -122 -16 -65 -29 -122 -27 -128 3 -7
18 46 36 117 17 71 29 131 27 134 -3 2 -5 2 -5 -1z"/>
<path d="M4177 7105 c-10 -93 -25 -222 -34 -285 -11 -80 -16 -192 -16 -370 0
-223 3 -279 27 -445 14 -104 30 -203 35 -220 l9 -30 1 30 c0 17 -4 50 -9 75
-18 86 -50 464 -50 589 0 125 16 327 46 596 8 77 14 160 12 185 -2 28 -10 -21
-21 -125z"/>
<path d="M8191 7045 c-50 -238 -80 -361 -108 -445 -32 -95 -122 -286 -162
-346 -17 -25 -31 -48 -31 -51 0 -3 -68 -94 -152 -202 -210 -271 -261 -357
-358 -601 -62 -156 -225 -658 -217 -666 2 -3 44 116 92 263 48 147 105 313
127 368 39 99 127 281 164 340 27 43 154 217 220 300 189 240 301 453 364 690
30 117 101 475 98 494 -2 9 -19 -56 -37 -144z"/>
<path d="M5833 6950 c0 -30 2 -43 4 -27 2 15 2 39 0 55 -2 15 -4 2 -4 -28z"/>
<path d="M5841 6845 c0 -27 6 -108 13 -180 40 -358 51 -820 27 -1100 -26 -310
-106 -744 -168 -913 -9 -23 -14 -45 -11 -47 7 -7 63 172 98 312 113 455 143
1009 86 1603 -15 151 -30 298 -35 325 l-9 50 -1 -50z"/>
<path d="M7661 6814 c0 -11 3 -14 6 -6 3 7 2 16 -1 19 -3 4 -6 -2 -5 -13z"/>
<path d="M7645 6725 c-3 -31 -4 -59 -2 -62 3 -2 9 21 12 52 4 31 5 58 2 61 -2
3 -8 -20 -12 -51z"/>
<path d="M7625 6605 c-3 -26 -4 -49 -2 -51 3 -3 8 16 12 41 3 26 4 49 2 51 -3
3 -8 -16 -12 -41z"/>
<path d="M7587 6412 c-15 -64 -30 -128 -34 -142 -3 -14 -3 -23 0 -19 10 8 68
249 65 265 -2 8 -15 -39 -31 -104z"/>
<path d="M5522 6425 c0 -11 4 -33 8 -50 7 -27 8 -27 8 -5 0 14 -4 36 -8 50 -6
20 -8 21 -8 5z"/>
<path d="M5090 6334 c0 -5 12 -52 26 -104 111 -418 156 -602 210 -850 131
-605 122 -1041 -29 -1389 l-15 -34 -13 24 c-32 58 -49 103 -49 133 0 98 -43
162 -193 289 -113 95 -153 112 -257 112 -165 -1 -261 -77 -319 -254 -18 -55
-21 -89 -21 -230 0 -145 -3 -179 -25 -266 -24 -95 -88 -241 -167 -380 -89
-157 -138 -318 -138 -453 0 -75 30 -252 54 -319 20 -56 72 -159 128 -254 76
-129 156 -356 188 -539 4 -25 19 -110 33 -190 31 -171 53 -351 67 -528 6 -70
17 -194 24 -277 8 -82 20 -235 26 -340 28 -458 27 -454 29 -215 1 195 -9 399
-39 795 -18 235 -50 473 -99 732 -15 77 -67 282 -85 331 -8 23 -13 42 -11 42
8 0 90 -139 132 -224 52 -104 117 -293 134 -392 7 -38 14 -64 16 -57 7 19 -24
163 -57 269 -42 130 -134 319 -212 436 -223 329 -288 496 -288 737 0 143 23
213 149 466 151 301 162 340 170 615 l6 215 40 80 c61 122 145 175 279 175 72
0 131 -32 256 -140 109 -93 143 -146 156 -235 7 -51 29 -109 60 -156 16 -26
16 -28 -6 -59 l-23 -33 -21 26 c-12 15 -36 67 -55 117 -18 50 -35 89 -37 87
-9 -8 66 -191 87 -213 20 -22 21 -27 9 -49 -8 -14 -51 -69 -98 -123 -161 -186
-211 -323 -212 -572 0 -222 35 -380 135 -610 93 -215 124 -293 159 -394 20
-60 35 -111 32 -114 -3 -3 -2 -10 3 -16 10 -11 55 -168 64 -220 3 -16 1 -43
-4 -60 -24 -84 -61 -297 -76 -436 -13 -120 -16 -249 -15 -565 2 -604 16 -676
24 -125 6 411 21 672 47 850 24 161 33 216 40 223 8 8 43 -172 66 -338 26
-190 45 -439 60 -774 8 -178 18 -327 21 -330 10 -9 -6 591 -21 819 -40 572
-137 992 -332 1435 -129 293 -155 402 -156 640 0 135 3 183 18 235 38 137 91
224 238 395 161 186 242 339 326 610 41 134 60 233 93 485 16 128 16 767 -1
915 -28 251 -44 370 -49 375 -5 6 -1 -54 24 -300 30 -306 22 -818 -17 -1100
-32 -226 -104 -480 -180 -632 -34 -68 -44 -75 -24 -17 50 142 75 321 75 542
-1 384 -72 750 -302 1532 -45 156 -58 194 -58 169z"/>
<path d="M5542 6320 c-1 -14 5 -59 12 -100 9 -47 14 -62 14 -40 0 19 -5 64
-13 100 -7 36 -13 54 -13 40z"/>
<path d="M7517 6163 c-15 -43 -30 -87 -33 -98 -5 -17 -4 -17 5 -4 17 26 63
159 59 170 -2 6 -16 -25 -31 -68z"/>
<path d="M8352 5998 c-62 -287 -60 -769 4 -1098 51 -260 142 -508 271 -736 46
-81 108 -222 134 -304 10 -30 18 -48 18 -39 1 21 -40 139 -74 214 -50 111 -50
112 19 48 35 -33 81 -73 103 -89 105 -79 202 -192 246 -285 71 -152 57 -296
-60 -589 -51 -128 -93 -282 -92 -335 1 -18 10 6 24 60 26 105 55 188 79 230
16 28 17 28 12 5 -13 -66 -17 -245 -6 -340 22 -203 24 -349 6 -420 -35 -137
-103 -230 -225 -312 -113 -76 -156 -113 -215 -186 -106 -132 -190 -299 -246
-492 -33 -110 -41 -125 -35 -60 43 453 99 697 211 925 24 50 36 79 25 66 -59
-76 -146 -299 -182 -463 -31 -146 -67 -418 -79 -598 -6 -91 -13 -176 -15 -190
-20 -104 -45 -413 -49 -595 -5 -235 -3 -226 29 135 27 296 55 470 111 685 51
196 55 208 126 350 82 163 189 287 327 375 166 107 244 231 271 431 10 72 8
108 -9 247 -23 180 -27 351 -10 451 6 36 27 122 47 191 31 107 36 140 36 230
1 202 -71 329 -289 508 -172 141 -223 207 -320 407 -95 197 -150 386 -188 650
-30 206 -32 691 -3 858 19 113 18 156 -2 65z"/>
<path d="M7392 5838 c-88 -224 -185 -503 -180 -518 2 -5 29 68 62 163 32 94
92 257 133 360 41 104 73 191 70 193 -3 3 -41 -86 -85 -198z"/>
<path d="M5090 5861 c0 -6 4 -13 10 -16 6 -3 7 1 4 9 -7 18 -14 21 -14 7z"/>
<path d="M5116 5817 c3 -10 9 -15 12 -12 3 3 0 11 -7 18 -10 9 -11 8 -5 -6z"/>
<path d="M4202 5730 c0 -14 4 -36 8 -50 6 -20 8 -21 8 -5 0 11 -4 34 -8 50 -7
27 -8 27 -8 5z"/>
<path d="M4222 5630 c0 -14 2 -19 5 -12 2 6 2 18 0 25 -3 6 -5 1 -5 -13z"/>
<path d="M4231 5584 c0 -11 3 -14 6 -6 3 7 2 16 -1 19 -3 4 -6 -2 -5 -13z"/>
<path d="M7191 5259 c-7 -22 -11 -43 -8 -45 2 -2 9 14 16 37 7 22 11 43 8 45
-2 2 -9 -14 -16 -37z"/>
<path d="M7166 5174 c-4 -14 -5 -28 -3 -31 3 -2 8 8 11 23 4 14 5 28 3 31 -3
2 -8 -8 -11 -23z"/>
<path d="M7146 5104 c-4 -14 -5 -28 -3 -31 3 -2 8 8 11 23 4 14 5 28 3 31 -3
2 -8 -8 -11 -23z"/>
<path d="M7131 5034 c0 -11 3 -14 6 -6 3 7 2 16 -1 19 -3 4 -6 -2 -5 -13z"/>
<path d="M7116 4984 c-4 -14 -5 -28 -3 -31 3 -2 8 8 11 23 4 14 5 28 3 31 -3
2 -8 -8 -11 -23z"/>
<path d="M7101 4924 c0 -11 3 -14 6 -6 3 7 2 16 -1 19 -3 4 -6 -2 -5 -13z"/>
<path d="M7146 4705 c-9 -26 -7 -32 5 -12 6 10 9 21 6 23 -2 3 -7 -2 -11 -11z"/>
<path d="M7031 4684 c0 -11 3 -14 6 -6 3 7 2 16 -1 19 -3 4 -6 -2 -5 -13z"/>
<path d="M6966 4495 c-9 -26 -7 -32 5 -12 6 10 9 21 6 23 -2 3 -7 -2 -11 -11z"/>
<path d="M6896 4335 c-9 -26 -7 -32 5 -12 6 10 9 21 6 23 -2 3 -7 -2 -11 -11z"/>
<path d="M4562 3963 c-1 -78 -9 -172 -17 -210 -25 -118 -82 -245 -159 -356
-54 -79 -62 -92 -49 -84 23 14 118 164 158 250 62 134 76 211 73 392 l-4 150
-2 -142z"/>
<path d="M5515 3860 c-9 -16 -13 -30 -11 -30 3 0 12 14 21 30 9 17 13 30 11
30 -3 0 -12 -13 -21 -30z"/>
<path d="M5440 3746 c-30 -41 -100 -121 -155 -178 -80 -82 -110 -121 -144
-189 -24 -48 -44 -105 -47 -130 -4 -43 -4 -42 14 16 20 66 64 156 94 195 11
14 57 63 102 110 75 76 162 185 187 232 18 34 3 17 -51 -56z"/>
<path d="M8599 3513 c-116 -131 -157 -268 -145 -488 6 -114 54 -378 55 -306 1
18 -5 59 -13 90 -44 174 -45 378 -3 499 21 62 64 135 117 205 12 15 20 27 17
27 -2 0 -15 -12 -28 -27z"/>
<path d="M4308 3278 c-20 -31 -45 -88 -52 -118 l-6 -25 12 25 c6 14 25 51 40
83 29 58 32 75 6 35z"/>
<path d="M5080 3155 c-17 -214 31 -375 226 -770 171 -348 230 -489 291 -695
15 -52 29 -88 31 -80 4 24 -101 333 -159 467 -28 65 -98 210 -154 323 -180
359 -212 456 -224 675 -5 81 -9 111 -11 80z"/>
<path d="M4226 3064 c-4 -20 -5 -38 -3 -40 3 -3 8 11 11 32 4 20 5 38 3 40 -3
3 -8 -11 -11 -32z"/>
<path d="M8912 2720 c0 -19 2 -27 5 -17 2 9 2 25 0 35 -3 9 -5 1 -5 -18z"/>
<path d="M8513 2610 c0 -36 2 -50 4 -32 2 17 2 47 0 65 -2 17 -4 3 -4 -33z"/>
<path d="M8496 2488 c-3 -18 -17 -57 -31 -87 -14 -30 -23 -56 -21 -58 7 -7 57
108 63 145 3 17 3 32 0 32 -2 0 -8 -15 -11 -32z"/>
<path d="M8402 2264 c-18 -35 -32 -68 -32 -72 1 -4 17 24 36 62 19 37 34 70
32 72 -2 2 -18 -26 -36 -62z"/>
<path d="M5187 1903 c-61 -216 -99 -618 -96 -992 2 -118 4 -87 14 164 17 408
33 559 82 774 25 113 25 146 0 54z"/>
<path d="M5631 1579 c1 -23 67 -265 68 -249 1 17 -58 252 -65 259 -2 2 -4 -2
-3 -10z"/>
<path d="M4702 1445 c0 -16 2 -22 5 -12 2 9 2 23 0 30 -3 6 -5 -1 -5 -18z"/>
<path d="M5702 1280 c0 -14 2 -19 5 -12 2 6 2 18 0 25 -3 6 -5 1 -5 -13z"/>
<path d="M5711 1234 c0 -11 3 -14 6 -6 3 7 2 16 -1 19 -3 4 -6 -2 -5 -13z"/>
<path d="M5721 1194 c0 -11 3 -14 6 -6 3 7 2 16 -1 19 -3 4 -6 -2 -5 -13z"/>
<path d="M5732 1150 c0 -14 2 -19 5 -12 2 6 2 18 0 25 -3 6 -5 1 -5 -13z"/>
<path d="M8672 810 c0 -14 2 -19 5 -12 2 6 2 18 0 25 -3 6 -5 1 -5 -13z"/>
<path d="M5802 775 c0 -16 2 -22 5 -12 2 9 2 23 0 30 -3 6 -5 -1 -5 -18z"/>
</g>
</svg>
