<?xml version="1.0" standalone="no"?>
<!DOCTYPE svg PUBLIC "-//W3C//DTD SVG 20010904//EN"
 "http://www.w3.org/TR/2001/REC-SVG-20010904/DTD/svg10.dtd">
<svg version="1.0" xmlns="http://www.w3.org/2000/svg"
 width="1331.000000pt" height="1858.000000pt" viewBox="0 0 1331.000000 1858.000000"
 preserveAspectRatio="xMidYMid meet">

<g transform="translate(0.000000,1858.000000) scale(0.100000,-0.100000)"
fill="#000000" stroke="none">
<path d="M8875 18471 c-216 -29 -420 -123 -567 -260 -172 -161 -234 -297 -318
-704 -16 -78 -43 -207 -59 -287 -38 -184 -50 -280 -58 -460 -9 -226 20 -430
91 -627 13 -37 41 -115 61 -172 105 -296 169 -612 170 -846 0 -154 -11 -210
-51 -273 -21 -33 -74 -62 -111 -62 -74 0 -201 79 -231 144 -33 71 -41 153 -46
461 -5 282 -22 505 -57 720 -16 103 -22 354 -10 465 6 58 22 179 36 270 68
453 -9 923 -182 1107 -57 60 -156 120 -247 149 -70 22 -98 26 -211 26 -181 -1
-305 -31 -450 -110 -129 -70 -242 -191 -292 -314 -15 -35 -18 -72 -18 -203 1
-88 6 -191 13 -230 33 -189 73 -342 140 -535 130 -371 142 -462 142 -1039 0
-467 -7 -556 -47 -617 -30 -47 -82 -55 -98 -16 -4 9 -11 112 -15 227 -5 116
-15 251 -23 300 -43 249 -46 407 -12 670 14 110 15 148 5 245 -23 228 -72 414
-166 637 -89 208 -152 289 -274 346 -60 29 -73 31 -170 31 -88 -1 -118 -5
-185 -28 -268 -92 -457 -262 -529 -476 -26 -75 -29 -99 -29 -210 -1 -178 42
-396 116 -592 14 -38 24 -68 22 -68 -2 0 -22 35 -46 78 -146 267 -328 385
-542 352 -244 -37 -494 -283 -583 -574 -66 -215 -85 -404 -60 -580 20 -135 20
-132 -1 -114 -109 95 -334 103 -492 17 -116 -63 -260 -292 -349 -554 -107
-314 -158 -604 -149 -843 4 -121 10 -158 51 -317 58 -224 65 -294 65 -685 0
-281 -2 -324 -20 -400 -97 -411 -132 -755 -111 -1087 21 -322 57 -559 157
-1043 50 -245 73 -368 110 -590 69 -422 170 -1073 205 -1330 9 -64 14 -97 45
-335 9 -66 20 -149 26 -185 5 -36 14 -101 20 -145 41 -318 145 -828 235 -1158
156 -564 224 -892 264 -1262 5 -49 14 -128 20 -175 9 -79 26 -240 50 -485 28
-287 73 -860 90 -1140 12 -189 23 -359 40 -610 15 -210 63 -565 95 -690 2 -11
14 -60 26 -110 25 -108 93 -340 121 -410 111 -281 195 -449 321 -640 167 -254
350 -451 576 -619 198 -148 505 -290 726 -335 22 -5 74 -16 115 -24 309 -65
687 -64 969 4 310 74 647 242 881 438 75 62 237 225 285 286 22 28 43 52 46
55 4 3 36 50 73 106 199 306 317 632 390 1084 42 261 56 518 56 1075 0 226 5
487 10 580 13 221 20 286 94 835 14 102 34 264 45 360 11 96 26 220 33 275 8
67 13 296 14 695 2 647 5 742 35 990 22 190 32 288 54 525 30 335 35 392 45
550 17 247 67 623 125 935 9 47 22 123 31 170 21 119 82 419 104 515 63 273
88 370 137 540 79 276 137 457 300 945 229 688 268 836 332 1280 59 404 33
929 -77 1555 -50 284 -66 486 -66 840 -1 455 19 603 133 1018 91 333 87 705
-13 1097 -48 186 -78 274 -181 535 -24 61 -58 151 -76 200 -119 331 -163 414
-301 566 -98 107 -267 203 -432 244 -109 27 -292 39 -391 26z m296 -56 c211
-39 345 -106 481 -241 124 -123 187 -234 282 -503 35 -97 85 -228 111 -291 46
-113 99 -256 115 -315 5 -16 22 -77 39 -135 51 -181 91 -452 91 -630 0 -161
-44 -433 -93 -580 -26 -77 -48 -170 -68 -290 -21 -132 -49 -495 -49 -645 0
-116 25 -503 40 -615 12 -91 48 -325 55 -360 3 -16 -2 -10 -14 15 -24 49 -27
33 -5 -21 49 -118 69 -245 90 -589 23 -375 13 -682 -32 -940 -65 -380 -100
-509 -313 -1145 -201 -599 -311 -954 -365 -1176 -8 -32 -28 -108 -45 -167 -17
-60 -29 -112 -27 -116 3 -4 -1 -32 -8 -62 -30 -122 -84 -399 -145 -744 -61
-341 -97 -639 -121 -1010 -12 -177 -36 -436 -71 -760 -38 -362 -49 -480 -50
-565 0 -61 -3 -79 -10 -65 -7 15 -8 10 -4 -20 3 -22 8 -231 11 -465 8 -542 -2
-697 -86 -1322 -55 -413 -69 -526 -79 -633 -18 -179 -31 -401 -32 -545 -1
-143 -7 -141 -29 10 -17 112 -71 324 -110 430 -58 159 -153 325 -255 445 -53
62 -170 177 -193 188 -9 5 10 -17 43 -50 268 -260 399 -530 499 -1025 35 -171
46 -302 46 -553 0 -377 -24 -656 -81 -940 -103 -514 -273 -868 -574 -1194 -74
-79 -256 -232 -355 -295 -375 -242 -718 -346 -1142 -346 -248 0 -436 24 -668
86 -258 69 -541 216 -725 375 -86 75 -155 139 -198 184 -57 59 -221 261 -264
325 -142 212 -280 499 -369 768 -39 118 -108 380 -123 468 -6 32 -19 111 -30
174 -32 191 -65 569 -91 1045 -10 186 -31 465 -50 695 -6 63 -15 166 -20 228
-22 255 -33 363 -71 697 -50 446 -73 609 -109 770 -14 65 -5 51 30 -42 31 -84
144 -322 193 -408 12 -22 29 -51 36 -63 7 -13 15 -22 17 -19 3 2 -12 33 -32
67 -71 121 -167 341 -247 565 -49 135 -86 262 -147 500 -113 440 -149 593
-180 770 -5 28 -16 88 -25 135 -27 143 -58 352 -95 640 -36 279 -150 1053
-186 1260 -15 86 -29 175 -44 285 -14 102 -69 415 -91 518 -11 53 -22 116 -23
140 -2 23 -15 87 -30 143 -25 97 -38 155 -56 259 -5 28 -16 89 -24 137 -57
318 -83 690 -67 957 19 316 76 638 131 739 17 31 28 57 26 60 -3 2 -10 -8 -18
-22 -11 -21 -13 24 -11 297 2 419 -6 513 -63 717 -82 294 -73 553 35 960 35
131 101 311 152 417 124 254 259 359 454 356 121 -2 207 -44 316 -153 72 -72
112 -132 151 -222 38 -91 78 -280 78 -375 0 -78 -32 -282 -55 -353 -8 -25 -24
-88 -36 -140 -28 -129 -37 -434 -17 -533 l15 -67 -52 -40 c-28 -22 -91 -62
-139 -90 -49 -28 -95 -57 -103 -66 -8 -8 -27 -21 -41 -28 -24 -13 -142 -130
-183 -183 -23 -28 -69 -108 -69 -118 0 -4 22 21 49 57 73 96 178 186 299 257
258 151 322 208 402 356 68 127 168 284 228 360 74 94 200 217 256 250 25 15
46 29 46 32 0 2 -3 3 -7 1 -5 -2 -30 -15 -58 -29 -51 -25 -260 -221 -305 -287
-17 -26 -25 -31 -31 -20 -6 9 -9 6 -9 -10 0 -13 -13 -42 -29 -65 -15 -23 -37
-58 -47 -77 l-19 -35 -6 185 c-5 140 -13 216 -32 310 -20 100 -24 142 -20 210
3 47 11 91 17 99 8 11 8 13 -1 7 -10 -5 -13 9 -13 63 0 157 -65 368 -149 481
-14 19 -43 55 -63 80 -47 57 -64 111 -79 257 -25 221 28 509 126 691 91 168
235 302 390 362 47 18 80 24 150 24 81 0 96 -3 155 -31 181 -88 365 -385 415
-669 19 -109 19 -254 1 -364 -8 -47 -22 -125 -30 -175 -32 -183 -19 -383 43
-675 12 -52 21 -102 21 -111 0 -12 -31 -30 -102 -59 -118 -48 -192 -83 -163
-75 208 53 279 80 345 133 54 44 44 35 172 157 143 138 151 144 258 199 96 49
82 56 -20 10 -73 -33 -139 -84 -237 -184 -82 -84 -106 -95 -84 -43 32 79 32
253 1 408 -43 215 -46 240 -60 493 -14 239 -41 349 -179 707 -42 107 -77 255
-96 398 -19 147 -19 188 0 285 42 211 198 380 445 485 258 109 456 56 573
-154 63 -113 159 -368 180 -479 3 -14 15 -70 27 -125 28 -125 32 -395 7 -484
-26 -95 -7 -522 29 -621 3 -8 9 -120 14 -249 7 -214 10 -236 29 -262 l21 -28
-34 -7 c-19 -3 -45 -3 -58 1 -18 6 -20 5 -11 -5 7 -7 45 -13 100 -14 82 -1 90
1 124 27 20 15 42 42 49 60 6 18 17 41 23 52 15 27 21 944 6 1070 -10 89 -29
198 -50 285 -6 25 -44 144 -85 265 -119 357 -147 500 -148 745 l-1 165 33 68
c62 126 223 255 382 307 82 26 227 50 305 50 199 -1 405 -111 478 -256 98
-195 150 -515 127 -783 -6 -75 -18 -172 -26 -216 -22 -128 -44 -333 -44 -420
0 -86 24 -362 41 -460 20 -125 39 -387 39 -560 l0 -180 -25 30 c-31 39 -32 29
-1 -13 17 -24 26 -52 30 -100 4 -37 9 -85 12 -107 l5 -40 -33 36 c-49 55 -61
70 -117 150 -57 80 -64 82 -24 5 74 -140 257 -358 333 -396 54 -26 80 -30 238
-36 221 -7 413 -46 544 -109 59 -29 72 -31 43 -9 -97 75 -359 154 -512 154
-29 0 -53 3 -53 6 0 4 13 22 30 40 34 40 48 86 60 203 9 86 0 259 -19 371 -35
198 -79 377 -132 529 -161 465 -164 478 -163 776 1 244 5 284 64 575 104 518
142 642 240 785 36 52 144 158 201 196 214 145 499 208 740 164z m-3836 -2634
c19 -84 35 -249 35 -355 0 -44 10 -135 21 -201 64 -378 67 -442 33 -565 -17
-58 -53 -130 -65 -130 -16 0 -46 129 -75 317 -24 159 -21 318 11 498 42 238
43 331 9 525 l-4 25 10 -24 c6 -13 17 -54 25 -90z m-1025 -1655 c7 -46 10
-169 8 -272 -3 -173 -5 -192 -25 -229 -32 -58 -60 -91 -70 -82 -4 5 -8 108 -8
230 0 198 3 233 24 327 13 58 28 116 33 130 l10 25 9 -22 c4 -13 13 -60 19
-107z"/>
<path d="M6559 17773 l-34 -38 38 34 c20 19 37 36 37 38 0 8 -8 0 -41 -34z"/>
<path d="M9830 17756 c0 -2 8 -10 18 -17 15 -13 16 -12 3 4 -13 16 -21 21 -21
13z"/>
<path d="M9980 17340 c6 -11 13 -20 16 -20 2 0 0 9 -6 20 -6 11 -13 20 -16 20
-2 0 0 -9 6 -20z"/>
<path d="M6511 17244 c0 -11 3 -14 6 -6 3 7 2 16 -1 19 -3 4 -6 -2 -5 -13z"/>
<path d="M6522 17190 c0 -14 2 -19 5 -12 2 6 2 18 0 25 -3 6 -5 1 -5 -13z"/>
<path d="M8011 17194 c0 -11 3 -14 6 -6 3 7 2 16 -1 19 -3 4 -6 -2 -5 -13z"/>
<path d="M6530 17144 c0 -10 5 -26 10 -34 8 -11 9 -7 4 15 -8 37 -14 45 -14
19z"/>
<path d="M7981 17084 c0 -11 3 -14 6 -6 3 7 2 16 -1 19 -3 4 -6 -2 -5 -13z"/>
<path d="M6550 17077 c0 -7 7 -22 15 -33 13 -17 14 -16 4 14 -11 33 -19 41
-19 19z"/>
<path d="M6201 17055 c0 -5 6 -19 14 -29 8 -11 15 -15 15 -10 0 6 -7 19 -15
30 -8 10 -14 15 -14 9z"/>
<path d="M7972 17040 c0 -14 2 -19 5 -12 2 6 2 18 0 25 -3 6 -5 1 -5 -13z"/>
<path d="M7535 17019 c-9 -17 -15 -33 -13 -35 3 -2 12 12 21 31 21 43 13 47
-8 4z"/>
<path d="M6586 17007 c3 -10 9 -15 12 -12 3 3 0 11 -7 18 -10 9 -11 8 -5 -6z"/>
<path d="M7961 16994 c0 -11 3 -14 6 -6 3 7 2 16 -1 19 -3 4 -6 -2 -5 -13z"/>
<path d="M7641 16984 c0 -11 3 -14 6 -6 3 7 2 16 -1 19 -3 4 -6 -2 -5 -13z"/>
<path d="M7484 16923 c-35 -60 -122 -146 -174 -173 -22 -11 -40 -23 -40 -25 0
-3 22 6 49 19 53 27 143 120 179 185 32 57 20 51 -14 -6z"/>
<path d="M7618 16925 c-8 -19 -12 -35 -8 -35 8 0 33 61 27 66 -2 2 -10 -12
-19 -31z"/>
<path d="M7951 16944 c0 -11 3 -14 6 -6 3 7 2 16 -1 19 -3 4 -6 -2 -5 -13z"/>
<path d="M7515 16753 c-21 -27 -28 -39 -16 -28 23 19 66 75 59 75 -2 0 -21
-21 -43 -47z"/>
<path d="M10112 16735 c0 -16 2 -22 5 -12 2 9 2 23 0 30 -3 6 -5 -1 -5 -18z"/>
<path d="M7569 16733 c-13 -16 -12 -17 4 -4 16 13 21 21 13 21 -2 0 -10 -8
-17 -17z"/>
<path d="M8041 16689 c1 -19 5 -47 10 -64 5 -20 6 -9 2 30 -6 66 -14 88 -12
34z"/>
<path d="M10122 16665 c0 -16 2 -22 5 -12 2 9 2 23 0 30 -3 6 -5 -1 -5 -18z"/>
<path d="M7410 16665 c-11 -13 -10 -14 4 -9 9 3 16 10 16 15 0 13 -6 11 -20
-6z"/>
<path d="M7345 16650 c-3 -5 -2 -10 4 -10 5 0 13 5 16 10 3 6 2 10 -4 10 -5 0
-13 -4 -16 -10z"/>
<path d="M7310 16639 c0 -5 5 -7 10 -4 6 3 10 8 10 11 0 2 -4 4 -10 4 -5 0
-10 -5 -10 -11z"/>
<path d="M10133 16595 c0 -22 2 -30 4 -17 2 12 2 30 0 40 -3 9 -5 -1 -4 -23z"/>
<path d="M6696 16589 c71 -34 191 -60 272 -58 46 1 36 4 -53 14 -106 13 -179
31 -237 61 -15 8 -31 14 -35 13 -4 0 19 -14 53 -30z"/>
<path d="M6948 16613 c6 -2 18 -2 25 0 6 3 1 5 -13 5 -14 0 -19 -2 -12 -5z"/>
<path d="M7090 16611 c-92 -5 -99 -7 -55 -13 44 -6 193 7 204 18 2 2 -7 3 -20
2 -13 -1 -71 -4 -129 -7z"/>
<path d="M7300 16585 c-7 -9 -8 -15 -2 -15 5 0 12 7 16 15 3 8 4 15 2 15 -2 0
-9 -7 -16 -15z"/>
<path d="M8062 16570 c0 -14 2 -19 5 -12 2 6 2 18 0 25 -3 6 -5 1 -5 -13z"/>
<path d="M7038 16543 c6 -2 18 -2 25 0 6 3 1 5 -13 5 -14 0 -19 -2 -12 -5z"/>
<path d="M8072 16520 c0 -14 2 -19 5 -12 2 6 2 18 0 25 -3 6 -5 1 -5 -13z"/>
<path d="M6242 16470 c0 -19 2 -27 5 -17 2 9 2 25 0 35 -3 9 -5 1 -5 -18z"/>
<path d="M8081 16483 c-1 -16 40 -126 44 -121 2 2 -7 33 -20 68 -13 36 -24 60
-24 53z"/>
<path d="M6226 16394 c-4 -20 -5 -38 -3 -40 3 -3 8 11 11 32 4 20 5 38 3 40
-3 3 -8 -11 -11 -32z"/>
<path d="M7532 16360 c0 -14 2 -19 5 -12 2 6 2 18 0 25 -3 6 -5 1 -5 -13z"/>
<path d="M6206 16325 c-9 -26 -7 -32 5 -12 6 10 9 21 6 23 -2 3 -7 -2 -11 -11z"/>
<path d="M8136 16327 c3 -10 9 -15 12 -12 3 3 0 11 -7 18 -10 9 -11 8 -5 -6z"/>
<path d="M10126 16264 c-4 -37 -5 -69 -2 -71 2 -3 7 25 11 62 4 36 5 68 3 71
-3 2 -8 -25 -12 -62z"/>
<path d="M4334 16248 c-37 -40 -58 -68 -52 -68 3 0 24 23 47 50 48 56 50 67 5
18z"/>
<path d="M6176 16243 c-6 -14 -5 -15 5 -6 7 7 10 15 7 18 -3 3 -9 -2 -12 -12z"/>
<path d="M6050 16168 c-29 -35 -41 -52 -26 -38 28 25 91 100 84 100 -2 0 -28
-28 -58 -62z"/>
<path d="M10112 16160 c0 -14 2 -19 5 -12 2 6 2 18 0 25 -3 6 -5 1 -5 -13z"/>
<path d="M4263 16158 c-15 -20 -25 -38 -20 -38 3 0 12 11 21 25 17 26 16 35
-1 13z"/>
<path d="M6702 16145 c0 -16 2 -22 5 -12 2 9 2 23 0 30 -3 6 -5 -1 -5 -18z"/>
<path d="M10101 16114 c0 -11 3 -14 6 -6 3 7 2 16 -1 19 -3 4 -6 -2 -5 -13z"/>
<path d="M4210 16070 c-11 -22 -18 -40 -15 -40 2 0 14 18 25 40 11 22 18 40
15 40 -2 0 -14 -18 -25 -40z"/>
<path d="M6296 16042 c-22 -27 -24 -32 -7 -17 20 17 47 55 39 55 -2 0 -16 -17
-32 -38z"/>
<path d="M4176 16005 c-9 -26 -7 -32 5 -12 6 10 9 21 6 23 -2 3 -7 -2 -11 -11z"/>
<path d="M6025 15926 c-168 -87 -342 -100 -530 -41 -13 4 -11 1 5 -9 29 -17
132 -37 205 -40 49 -2 180 15 220 29 41 14 161 75 185 95 34 27 30 25 -85 -34z"/>
<path d="M5447 15899 c7 -7 15 -10 18 -7 3 3 -2 9 -12 12 -14 6 -15 5 -6 -5z"/>
<path d="M8754 15895 c-45 -7 -155 -34 -243 -60 -89 -26 -168 -44 -176 -41 -8
3 -15 2 -15 -3 0 -5 -21 -12 -46 -16 -25 -3 -43 -9 -40 -12 9 -9 137 17 258
53 196 58 281 73 418 75 94 1 115 3 85 10 -56 11 -145 9 -241 -6z"/>
<path d="M9100 15874 c25 -7 50 -13 55 -13 18 1 -59 27 -80 28 -11 0 0 -7 25
-15z"/>
<path d="M7203 15863 c20 -2 54 -2 75 0 20 2 3 4 -38 4 -41 0 -58 -2 -37 -4z"/>
<path d="M8460 15860 c-8 -5 -10 -10 -5 -10 6 0 17 5 25 10 8 5 11 10 5 10 -5
0 -17 -5 -25 -10z"/>
<path d="M8390 15825 c-14 -8 -20 -14 -14 -15 5 0 19 7 30 15 24 18 16 19 -16
0z"/>
<path d="M6048 15823 c7 -3 16 -2 19 1 4 3 -2 6 -13 5 -11 0 -14 -3 -6 -6z"/>
<path d="M5965 15810 l-30 -8 30 0 c17 0 39 3 50 8 l20 9 -20 -1 c-11 0 -33
-4 -50 -8z"/>
<path d="M7133 15803 c15 -2 39 -2 55 0 15 2 2 4 -28 4 -30 0 -43 -2 -27 -4z"/>
<path d="M5172 15775 c0 -16 2 -22 5 -12 2 9 2 23 0 30 -3 6 -5 -1 -5 -18z"/>
<path d="M5696 15789 c5 -9 221 -5 231 5 3 3 -48 5 -115 4 -67 -1 -119 -5
-116 -9z"/>
<path d="M6945 15790 l-30 -8 30 0 c17 0 53 3 80 8 l50 7 -50 0 c-27 1 -63 -3
-80 -7z"/>
<path d="M6868 15773 c7 -3 16 -2 19 1 4 3 -2 6 -13 5 -11 0 -14 -3 -6 -6z"/>
<path d="M8865 15745 l-60 -13 65 6 c176 18 339 -1 545 -63 192 -59 277 -75
375 -73 l95 1 -105 7 c-96 7 -192 27 -303 65 -231 77 -457 103 -612 70z"/>
<path d="M5183 15680 c0 -25 2 -35 4 -22 2 12 2 32 0 45 -2 12 -4 2 -4 -23z"/>
<path d="M5548 15713 c6 -2 18 -2 25 0 6 3 1 5 -13 5 -14 0 -19 -2 -12 -5z"/>
<path d="M5633 15703 c15 -2 37 -2 50 0 12 2 0 4 -28 4 -27 0 -38 -2 -22 -4z"/>
<path d="M5481 15674 c0 -11 3 -14 6 -6 3 7 2 16 -1 19 -3 4 -6 -2 -5 -13z"/>
<path d="M5171 15605 c0 -17 -5 -46 -11 -64 -5 -19 -8 -37 -5 -39 8 -8 26 80
22 106 -4 26 -4 26 -6 -3z"/>
<path d="M7621 15584 c0 -11 3 -14 6 -6 3 7 2 16 -1 19 -3 4 -6 -2 -5 -13z"/>
<path d="M6712 15485 c-1 -49 -6 -115 -11 -145 -22 -129 -22 -126 -12 -104 17
39 32 177 29 259 l-4 80 -2 -90z"/>
<path d="M5518 15514 c4 -21 7 -55 7 -76 0 -20 3 -34 8 -31 4 2 7 -8 7 -23 0
-15 3 -25 6 -22 7 8 -17 170 -27 182 -5 5 -5 -8 -1 -30z"/>
<path d="M5121 15423 c-10 -26 -10 -27 4 -9 8 11 15 23 15 28 0 15 -7 8 -19
-19z"/>
<path d="M6312 15415 c0 -16 2 -22 5 -12 2 9 2 23 0 30 -3 6 -5 -1 -5 -18z"/>
<path d="M8321 15404 c0 -11 3 -14 6 -6 3 7 2 16 -1 19 -3 4 -6 -2 -5 -13z"/>
<path d="M5035 15384 c-9 -15 -12 -23 -6 -20 11 7 35 46 28 46 -3 0 -12 -12
-22 -26z"/>
<path d="M7586 15337 c3 -10 9 -15 12 -12 3 3 0 11 -7 18 -10 9 -11 8 -5 -6z"/>
<path d="M5552 15315 c0 -16 2 -22 5 -12 2 9 2 23 0 30 -3 6 -5 -1 -5 -18z"/>
<path d="M4959 15283 l-34 -38 38 34 c20 19 37 36 37 38 0 8 -8 0 -41 -34z"/>
<path d="M8412 15280 c0 -14 2 -19 5 -12 2 6 2 18 0 25 -3 6 -5 1 -5 -13z"/>
<path d="M5554 15107 c0 -103 2 -144 7 -112 10 67 11 275 2 275 -5 0 -8 -73
-9 -163z"/>
<path d="M8348 15248 c-4 -10 -3 -20 2 -23 6 -4 10 -21 11 -38 0 -30 1 -31 10
-8 6 14 6 28 0 35 -5 6 -11 20 -13 31 -3 18 -4 18 -10 3z"/>
<path d="M6351 15240 c0 -8 4 -22 9 -30 12 -18 12 -2 0 25 -6 13 -9 15 -9 5z"/>
<path d="M5095 15200 c-29 -32 -154 -97 -221 -116 -32 -8 -97 -20 -144 -24
l-85 -9 105 4 c117 5 174 22 267 78 51 31 116 87 101 87 -3 0 -13 -9 -23 -20z"/>
<path d="M8411 15159 c55 -51 75 -65 44 -30 -16 18 -39 37 -50 43 -14 8 -12 4
6 -13z"/>
<path d="M6888 15153 c17 -2 47 -2 65 0 17 2 3 4 -33 4 -36 0 -50 -2 -32 -4z"/>
<path d="M6793 15143 c9 -2 25 -2 35 0 9 3 1 5 -18 5 -19 0 -27 -2 -17 -5z"/>
<path d="M7669 15122 c6 -12 16 -24 22 -28 8 -4 8 -1 0 14 -6 12 -16 24 -22
28 -8 4 -8 1 0 -14z"/>
<path d="M8496 15086 c3 -8 14 -16 25 -19 25 -7 24 -3 -6 17 -19 13 -23 13
-19 2z"/>
<path d="M4555 15070 c19 -8 73 -14 64 -6 -2 2 -22 6 -44 9 -28 5 -34 4 -20
-3z"/>
<path d="M7105 15065 c39 -7 99 -17 135 -24 36 -6 115 -10 175 -10 95 2 103 3
55 9 -30 5 -87 8 -127 9 -39 1 -107 8 -150 16 -43 8 -96 14 -118 14 -33 -1
-28 -4 30 -14z"/>
<path d="M4290 15055 c0 -7 61 -37 66 -33 2 3 -12 12 -31 21 -19 9 -35 15 -35
12z"/>
<path d="M5050 15039 c-19 -11 -29 -19 -22 -19 15 0 72 28 72 35 0 8 -13 4
-50 -16z"/>
<path d="M4778 15033 c7 -3 16 -2 19 1 4 3 -2 6 -13 5 -11 0 -14 -3 -6 -6z"/>
<path d="M6078 15023 c7 -3 16 -2 19 1 4 3 -2 6 -13 5 -11 0 -14 -3 -6 -6z"/>
<path d="M4945 15004 l-40 -14 40 6 c42 6 85 24 55 23 -8 -1 -33 -7 -55 -15z"/>
<path d="M5942 14999 c-35 -11 -62 -23 -59 -25 4 -5 52 8 137 36 20 7 21 8 5
9 -11 0 -49 -9 -83 -20z"/>
<path d="M4400 15000 c8 -5 22 -9 30 -9 10 0 8 3 -5 9 -27 12 -43 12 -25 0z"/>
<path d="M4853 14983 c9 -2 25 -2 35 0 9 3 1 5 -18 5 -19 0 -27 -2 -17 -5z"/>
<path d="M5808 14944 c-27 -13 -48 -27 -48 -29 0 -5 99 42 109 51 13 11 -20 0
-61 -22z"/>
<path d="M4425 14916 c51 -25 185 -40 241 -28 l49 10 -60 -4 c-52 -5 -179 12
-240 30 -11 4 -6 0 10 -8z"/>
<path d="M8425 14919 l-70 -5 65 -3 c100 -3 161 -9 213 -22 26 -6 50 -9 53 -6
3 3 -21 10 -53 16 -32 6 -76 14 -98 19 -22 4 -71 4 -110 1z"/>
<path d="M5542 14890 c0 -14 2 -19 5 -12 2 6 2 18 0 25 -3 6 -5 1 -5 -13z"/>
<path d="M5918 14903 c7 -3 16 -2 19 1 4 3 -2 6 -13 5 -11 0 -14 -3 -6 -6z"/>
<path d="M8715 14870 c11 -5 27 -9 35 -9 9 0 8 4 -5 9 -11 5 -27 9 -35 9 -9 0
-8 -4 5 -9z"/>
<path d="M6758 14843 c6 -2 18 -2 25 0 6 3 1 5 -13 5 -14 0 -19 -2 -12 -5z"/>
<path d="M6658 14833 c7 -3 16 -2 19 1 4 3 -2 6 -13 5 -11 0 -14 -3 -6 -6z"/>
<path d="M5162 14800 c0 -19 2 -27 5 -17 2 9 2 25 0 35 -3 9 -5 1 -5 -18z"/>
<path d="M6575 14815 c-39 -14 -40 -14 -5 -8 41 7 82 22 60 22 -8 0 -33 -7
-55 -14z"/>
<path d="M6480 14785 c-33 -19 -21 -19 21 0 19 8 27 14 19 14 -8 0 -26 -6 -40
-14z"/>
<path d="M6430 14760 c-9 -6 -10 -10 -3 -10 6 0 15 5 18 10 8 12 4 12 -15 0z"/>
<path d="M8818 14743 c7 -3 16 -2 19 1 4 3 -2 6 -13 5 -11 0 -14 -3 -6 -6z"/>
<path d="M5172 14720 c0 -24 25 -115 27 -95 0 6 -6 35 -14 65 -7 30 -13 44
-13 30z"/>
<path d="M8873 14733 c9 -2 23 -2 30 0 6 3 -1 5 -18 5 -16 0 -22 -2 -12 -5z"/>
<path d="M6350 14720 c-9 -6 -10 -10 -3 -10 6 0 15 5 18 10 8 12 4 12 -15 0z"/>
<path d="M8931 14726 c2 -2 22 -6 44 -9 28 -5 34 -4 20 3 -19 8 -73 14 -64 6z"/>
<path d="M6306 14695 c-11 -8 -15 -15 -9 -15 6 0 16 7 23 15 16 19 11 19 -14
0z"/>
<path d="M8993 14623 c9 -2 23 -2 30 0 6 3 -1 5 -18 5 -16 0 -22 -2 -12 -5z"/>
<path d="M9115 14591 c44 -15 118 -49 165 -75 47 -26 144 -72 215 -103 72 -30
158 -69 193 -88 69 -37 82 -38 25 -2 -69 43 -127 73 -218 112 -49 21 -136 63
-193 93 -100 53 -207 92 -247 91 -11 0 16 -13 60 -28z"/>
<path d="M5201 14595 c1 -19 18 -51 18 -35 0 8 -4 22 -9 30 -5 8 -9 11 -9 5z"/>
<path d="M9311 14575 c3 -2 36 -11 75 -20 38 -8 105 -23 149 -34 44 -10 94
-21 110 -25 29 -6 29 -6 5 4 -25 11 -312 80 -332 80 -6 0 -9 -2 -7 -5z"/>
<path d="M4471 14535 c0 -5 6 -30 13 -55 8 -25 15 -36 15 -25 -1 21 -27 98
-28 80z"/>
<path d="M5220 14531 c0 -6 4 -13 10 -16 6 -3 7 1 4 9 -7 18 -14 21 -14 7z"/>
<path d="M4432 14450 c0 -14 2 -19 5 -12 2 6 2 18 0 25 -3 6 -5 1 -5 -13z"/>
<path d="M4176 14434 c-4 -14 -5 -28 -3 -31 3 -2 8 8 11 23 4 14 5 28 3 31 -3
2 -8 -8 -11 -23z"/>
<path d="M4371 14445 c1 -19 18 -51 18 -35 0 8 -4 22 -9 30 -5 8 -9 11 -9 5z"/>
<path d="M4502 14410 c0 -14 4 -38 8 -55 l8 -30 0 30 c0 17 -4 41 -8 55 l-8
25 0 -25z"/>
<path d="M5653 14423 c15 -2 37 -2 50 0 12 2 0 4 -28 4 -27 0 -38 -2 -22 -4z"/>
<path d="M5525 14410 c-42 -11 -1 -11 50 -1 34 7 35 9 10 9 -16 0 -43 -4 -60
-8z"/>
<path d="M4441 14384 c0 -11 3 -14 6 -6 3 7 2 16 -1 19 -3 4 -6 -2 -5 -13z"/>
<path d="M5440 14390 c-13 -9 -13 -10 0 -9 8 0 24 4 35 9 l20 9 -20 0 c-11 0
-27 -4 -35 -9z"/>
<path d="M4155 14370 c-4 -12 -5 -24 -2 -27 3 -2 8 5 12 17 4 12 5 24 2 27 -3
2 -8 -5 -12 -17z"/>
<path d="M4390 14356 c0 -14 5 -26 10 -26 6 0 10 9 10 19 0 11 -4 23 -10 26
-6 4 -10 -5 -10 -19z"/>
<path d="M5325 14346 c-106 -51 -253 -162 -305 -231 -8 -11 19 11 60 49 89 82
189 149 273 183 68 27 78 33 56 33 -8 -1 -45 -16 -84 -34z"/>
<path d="M4825 14325 c-27 -19 -66 -48 -85 -65 -29 -26 42 22 125 84 38 28 10
15 -40 -19z"/>
<path d="M5558 14333 c12 -2 32 -2 45 0 12 2 2 4 -23 4 -25 0 -35 -2 -22 -4z"/>
<path d="M4126 14299 c-8 -19 -31 -59 -52 -89 -21 -30 -30 -49 -20 -41 23 20
100 150 92 158 -3 3 -12 -9 -20 -28z"/>
<path d="M4527 14210 c3 -63 7 -117 9 -119 7 -8 2 144 -6 189 -5 29 -6 5 -3
-70z"/>
<path d="M9820 14280 c25 -24 60 -59 78 -79 l34 -36 -26 36 c-14 20 -50 55
-78 78 l-53 43 45 -42z"/>
<path d="M4458 14180 c2 -74 6 -137 8 -139 7 -8 2 185 -6 229 -5 27 -6 -8 -2
-90z"/>
<path d="M4418 14180 c2 -58 6 -107 8 -109 7 -8 3 135 -5 174 -5 25 -7 2 -3
-65z"/>
<path d="M7479 14263 c-13 -16 -12 -17 4 -4 16 13 21 21 13 21 -2 0 -10 -8
-17 -17z"/>
<path d="M4669 14203 l-24 -28 28 24 c25 23 32 31 24 31 -2 0 -14 -12 -28 -27z"/>
<path d="M3192 14140 c0 -19 2 -27 5 -17 2 9 2 25 0 35 -3 9 -5 1 -5 -18z"/>
<path d="M7400 14150 c-6 -11 -8 -20 -6 -20 3 0 10 9 16 20 6 11 8 20 6 20 -3
0 -10 -9 -16 -20z"/>
<path d="M4383 14085 c0 -44 2 -61 4 -37 2 23 2 59 0 80 -2 20 -4 1 -4 -43z"/>
<path d="M3202 14040 c0 -14 2 -19 5 -12 2 6 2 18 0 25 -3 6 -5 1 -5 -13z"/>
<path d="M4059 13972 c-13 -10 -51 -35 -84 -55 -33 -20 -54 -37 -48 -37 12 0
163 98 163 106 0 7 -7 4 -31 -14z"/>
<path d="M10111 13925 c0 -5 6 -21 14 -35 8 -14 14 -20 14 -15 0 6 -6 21 -14
35 -8 14 -14 21 -14 15z"/>
<path d="M3780 13872 c-107 -44 -179 -50 -275 -24 -38 10 -79 22 -90 27 -13 5
-17 5 -10 -2 29 -28 113 -47 210 -48 95 0 104 2 178 37 42 20 77 39 77 43 0 3
-1 4 -2 4 -2 -1 -41 -17 -88 -37z"/>
<path d="M3360 13896 c0 -2 7 -7 16 -10 8 -3 12 -2 9 4 -6 10 -25 14 -25 6z"/>
<path d="M3850 13864 c-31 -8 -37 -13 -20 -13 14 0 39 6 55 14 37 17 24 16
-35 -1z"/>
<path d="M4121 13814 c0 -11 3 -14 6 -6 3 7 2 16 -1 19 -3 4 -6 -2 -5 -13z"/>
<path d="M9935 13806 c10 -14 19 -26 22 -26 7 0 -17 39 -28 46 -6 3 -3 -5 6
-20z"/>
<path d="M4081 13804 c0 -11 3 -14 6 -6 3 7 2 16 -1 19 -3 4 -6 -2 -5 -13z"/>
<path d="M3330 13781 c20 -14 141 -35 165 -28 13 3 7 5 -15 6 -31 1 -87 12
-145 27 -16 4 -17 3 -5 -5z"/>
<path d="M3668 13763 c7 -3 16 -2 19 1 4 3 -2 6 -13 5 -11 0 -14 -3 -6 -6z"/>
<path d="M3603 13753 c9 -2 23 -2 30 0 6 3 -1 5 -18 5 -16 0 -22 -2 -12 -5z"/>
<path d="M4459 13723 c-13 -16 -12 -17 4 -4 16 13 21 21 13 21 -2 0 -10 -8
-17 -17z"/>
<path d="M9990 13720 c6 -11 13 -20 16 -20 2 0 0 9 -6 20 -6 11 -13 20 -16 20
-2 0 0 -9 6 -20z"/>
<path d="M7412 13695 c-17 -37 -14 -45 4 -12 9 16 14 31 11 33 -2 2 -9 -7 -15
-21z"/>
<path d="M4103 13685 c-3 -9 -3 -18 -1 -21 3 -3 8 4 11 16 6 23 -1 27 -10 5z"/>
<path d="M4424 13678 l-19 -23 23 19 c12 11 22 21 22 23 0 8 -8 2 -26 -19z"/>
<path d="M10038 13640 c17 -30 51 -93 76 -140 25 -47 46 -81 46 -77 0 14 -109
221 -131 247 -13 16 -10 5 9 -30z"/>
<path d="M7386 13635 c-9 -26 -7 -32 5 -12 6 10 9 21 6 23 -2 3 -7 -2 -11 -11z"/>
<path d="M4051 13626 c-7 -8 -8 -17 -3 -20 6 -3 12 3 15 14 6 24 4 25 -12 6z"/>
<path d="M4090 13595 c-11 -13 -10 -14 4 -9 9 3 16 10 16 15 0 13 -6 11 -20
-6z"/>
<path d="M7346 13514 c-41 -125 -67 -225 -63 -238 2 -5 11 21 21 59 10 39 31
112 48 163 16 52 28 95 26 97 -2 3 -17 -34 -32 -81z"/>
<path d="M3992 13560 c0 -14 2 -19 5 -12 2 6 2 18 0 25 -3 6 -5 1 -5 -13z"/>
<path d="M4040 13560 c0 -5 5 -10 10 -10 6 0 10 5 10 10 0 6 -4 10 -10 10 -5
0 -10 -4 -10 -10z"/>
<path d="M3980 13515 c-7 -9 -8 -15 -2 -15 5 0 12 7 16 15 3 8 4 15 2 15 -2 0
-9 -7 -16 -15z"/>
<path d="M6480 13525 c0 -5 5 -17 10 -25 5 -8 10 -10 10 -5 0 6 -5 17 -10 25
-5 8 -10 11 -10 5z"/>
<path d="M3191 13504 c0 -11 3 -14 6 -6 3 7 2 16 -1 19 -3 4 -6 -2 -5 -13z"/>
<path d="M3977 13483 c-4 -3 -7 -11 -7 -17 0 -6 5 -5 12 2 6 6 9 14 7 17 -3 3
-9 2 -12 -2z"/>
<path d="M9981 13474 c0 -11 3 -14 6 -6 3 7 2 16 -1 19 -3 4 -6 -2 -5 -13z"/>
<path d="M4460 13470 c-8 -5 -10 -10 -5 -10 6 0 17 5 25 10 8 5 11 10 5 10 -5
0 -17 -5 -25 -10z"/>
<path d="M4410 13450 c-8 -5 -10 -10 -5 -10 6 0 17 5 25 10 8 5 11 10 5 10 -5
0 -17 -5 -25 -10z"/>
<path d="M3204 13245 c0 -115 2 -161 3 -102 2 59 2 154 0 210 -1 56 -3 8 -3
-108z"/>
<path d="M3861 13434 c0 -11 3 -14 6 -6 3 7 2 16 -1 19 -3 4 -6 -2 -5 -13z"/>
<path d="M4010 13435 c-7 -9 -8 -15 -2 -15 5 0 12 7 16 15 3 8 4 15 2 15 -2 0
-9 -7 -16 -15z"/>
<path d="M6510 13445 c0 -5 5 -17 10 -25 5 -8 10 -10 10 -5 0 6 -5 17 -10 25
-5 8 -10 11 -10 5z"/>
<path d="M4365 13430 c-3 -5 -2 -10 4 -10 5 0 13 5 16 10 3 6 2 10 -4 10 -5 0
-13 -4 -16 -10z"/>
<path d="M3959 13403 c-13 -16 -12 -17 4 -4 9 7 17 15 17 17 0 8 -8 3 -21 -13z"/>
<path d="M4235 13364 c-118 -67 -205 -125 -225 -150 -17 -22 -14 -20 55 33 22
17 96 63 165 102 69 39 120 71 115 71 -6 0 -55 -25 -110 -56z"/>
<path d="M3851 13403 c-1 -6 -4 -20 -7 -30 -5 -17 -5 -17 6 0 6 10 9 23 6 30
-3 9 -5 9 -5 0z"/>
<path d="M10002 13390 c0 -14 2 -19 5 -12 2 6 2 18 0 25 -3 6 -5 1 -5 -13z"/>
<path d="M10160 13405 c0 -5 5 -17 10 -25 5 -8 10 -10 10 -5 0 6 -5 17 -10 25
-5 8 -10 11 -10 5z"/>
<path d="M6531 13390 c0 -8 4 -24 9 -35 5 -13 9 -14 9 -5 0 8 -4 24 -9 35 -5
13 -9 14 -9 5z"/>
<path d="M3889 13363 c-13 -17 -13 -17 6 -3 11 8 22 16 24 17 2 2 0 3 -6 3 -6
0 -17 -8 -24 -17z"/>
<path d="M6551 13320 c0 -8 6 -35 13 -60 8 -25 15 -38 15 -30 0 8 -6 35 -13
60 -8 25 -15 38 -15 30z"/>
<path d="M10017 13265 c3 -38 7 -72 9 -74 7 -8 2 84 -7 114 -5 19 -6 4 -2 -40z"/>
<path d="M7261 13204 c-7 -30 -11 -57 -8 -60 2 -2 9 21 16 52 7 30 11 57 8 60
-2 2 -9 -21 -16 -52z"/>
<path d="M7181 13224 c0 -11 3 -14 6 -6 3 7 2 16 -1 19 -3 4 -6 -2 -5 -13z"/>
<path d="M6582 13195 c0 -11 4 -31 8 -45 l8 -25 0 25 c0 14 -3 34 -8 45 l-9
20 1 -20z"/>
<path d="M3949 13163 l-34 -38 38 34 c20 19 37 36 37 38 0 8 -8 0 -41 -34z"/>
<path d="M10034 13015 c0 -82 2 -115 3 -72 2 43 2 110 0 150 -1 40 -3 5 -3
-78z"/>
<path d="M3630 13140 c-8 -5 -10 -10 -5 -10 6 0 17 5 25 10 8 5 11 10 5 10 -5
0 -17 -5 -25 -10z"/>
<path d="M3516 13094 c-37 -19 -66 -37 -64 -39 2 -2 39 14 82 36 43 21 72 39
65 39 -8 -1 -45 -17 -83 -36z"/>
<path d="M7242 13100 c0 -14 2 -19 5 -12 2 6 2 18 0 25 -3 6 -5 1 -5 -13z"/>
<path d="M7156 13069 c-4 -23 -5 -44 -2 -46 2 -2 7 14 11 37 4 23 5 43 2 46
-2 3 -7 -14 -11 -37z"/>
<path d="M6602 13080 c-1 -14 3 -43 7 -65 6 -26 9 -31 9 -15 1 14 -3 43 -7 65
-6 26 -9 31 -9 15z"/>
<path d="M7232 13045 c0 -16 2 -22 5 -12 2 9 2 23 0 30 -3 6 -5 -1 -5 -18z"/>
<path d="M3405 13024 l-30 -26 33 22 c17 12 32 23 32 26 0 7 -4 5 -35 -22z"/>
<path d="M7122 12904 c-13 -58 -21 -108 -19 -110 5 -5 33 110 44 178 11 75 -3
36 -25 -68z"/>
<path d="M6623 12885 c0 -22 2 -30 4 -17 2 12 2 30 0 40 -3 9 -5 -1 -4 -23z"/>
<path d="M10016 12771 c-3 -41 -4 -76 -2 -78 6 -6 19 123 14 139 -3 7 -8 -20
-12 -61z"/>
<path d="M3270 12734 c-50 -59 -87 -114 -77 -114 3 0 17 19 32 42 15 23 48 64
73 90 25 26 41 48 36 47 -5 0 -34 -29 -64 -65z"/>
<path d="M7085 12755 c-42 -177 -148 -438 -219 -540 -68 -99 -126 -177 -169
-230 l-49 -60 46 48 c94 98 196 247 264 382 53 107 148 393 139 418 -3 7 -8
-1 -12 -18z"/>
<path d="M10001 12634 c0 -11 3 -14 6 -6 3 7 2 16 -1 19 -3 4 -6 -2 -5 -13z"/>
<path d="M9981 12544 c0 -11 3 -14 6 -6 3 7 2 16 -1 19 -3 4 -6 -2 -5 -13z"/>
<path d="M6697 12177 l-17 -32 20 24 c17 20 26 41 18 41 -2 0 -11 -15 -21 -33z"/>
<path d="M3156 12183 c-6 -14 -5 -15 5 -6 7 7 10 15 7 18 -3 3 -9 -2 -12 -12z"/>
<path d="M6550 12012 c-69 -70 -168 -167 -220 -215 l-95 -89 100 88 c130 114
234 215 297 287 27 31 48 57 46 57 -1 -1 -59 -58 -128 -128z"/>
<path d="M10075 12099 c-4 -6 -5 -12 -2 -15 2 -3 7 2 10 11 7 17 1 20 -8 4z"/>
<path d="M10035 12009 c-4 -6 -5 -12 -2 -15 2 -3 7 2 10 11 7 17 1 20 -8 4z"/>
<path d="M10015 11969 c-4 -6 -5 -12 -2 -15 2 -3 7 2 10 11 7 17 1 20 -8 4z"/>
<path d="M3161 11924 c0 -11 3 -14 6 -6 3 7 2 16 -1 19 -3 4 -6 -2 -5 -13z"/>
<path d="M10066 11913 c-6 -14 -5 -15 5 -6 7 7 10 15 7 18 -3 3 -9 -2 -12 -12z"/>
<path d="M9976 11893 c-6 -14 -5 -15 5 -6 7 7 10 15 7 18 -3 3 -9 -2 -12 -12z"/>
<path d="M3142 11820 c0 -14 2 -19 5 -12 2 6 2 18 0 25 -3 6 -5 1 -5 -13z"/>
<path d="M9760 11793 c0 -15 -153 -144 -230 -194 -83 -54 -192 -104 -300 -140
-47 -15 -78 -28 -70 -28 29 -1 171 49 252 90 46 23 119 66 163 97 91 64 203
167 192 178 -4 4 -7 3 -7 -3z"/>
<path d="M6968 11773 c12 -2 30 -2 40 0 9 3 -1 5 -23 4 -22 0 -30 -2 -17 -4z"/>
<path d="M7061 11776 c2 -2 42 -6 89 -9 59 -3 73 -3 45 3 -40 9 -142 13 -134
6z"/>
<path d="M6908 11763 c7 -3 16 -2 19 1 4 3 -2 6 -13 5 -11 0 -14 -3 -6 -6z"/>
<path d="M7612 11743 c56 -45 66 -50 24 -11 -23 21 -45 38 -49 38 -5 0 6 -12
25 -27z"/>
<path d="M6123 11692 c-34 -37 -96 -110 -137 -162 -152 -189 -173 -213 -271
-309 -201 -195 -352 -284 -758 -450 -78 -31 -186 -72 -240 -91 -53 -18 -95
-35 -93 -37 3 -4 150 44 251 81 279 103 537 231 675 335 124 93 282 253 400
406 102 132 118 152 194 232 33 35 55 63 50 63 -5 -1 -37 -31 -71 -68z"/>
<path d="M6858 11753 c7 -3 16 -2 19 1 4 3 -2 6 -13 5 -11 0 -14 -3 -6 -6z"/>
<path d="M7260 11750 c14 -4 34 -8 45 -8 16 0 15 2 -5 8 -14 4 -34 8 -45 8
-16 0 -15 -2 5 -8z"/>
<path d="M7350 11730 c8 -5 20 -10 25 -10 6 0 3 5 -5 10 -8 5 -19 10 -25 10
-5 0 -3 -5 5 -10z"/>
<path d="M7410 11705 c14 -8 30 -14 35 -14 6 0 -1 6 -15 14 -14 8 -29 14 -35
14 -5 0 1 -6 15 -14z"/>
<path d="M7460 11686 c0 -2 7 -7 16 -10 8 -3 12 -2 9 4 -6 10 -25 14 -25 6z"/>
<path d="M7690 11686 c0 -3 20 -19 45 -36 25 -17 45 -29 45 -26 0 3 -20 19
-45 36 -25 17 -45 29 -45 26z"/>
<path d="M7500 11666 c0 -2 7 -7 16 -10 8 -3 12 -2 9 4 -6 10 -25 14 -25 6z"/>
<path d="M7552 11634 c10 -10 20 -16 22 -13 3 3 -5 11 -17 18 -21 13 -21 12
-5 -5z"/>
<path d="M9875 11551 c-49 -47 -85 -79 -193 -170 -29 -24 -52 -48 -52 -54 0
-6 6 -4 13 5 6 9 59 56 117 106 97 83 180 162 169 162 -2 0 -26 -22 -54 -49z"/>
<path d="M9585 11483 c-109 -101 -228 -172 -380 -224 -86 -30 -91 -37 -10 -15
126 34 283 126 392 230 37 36 66 65 63 65 -3 0 -32 -25 -65 -56z"/>
<path d="M8256 11445 c10 -8 24 -14 29 -14 6 0 1 6 -9 14 -11 8 -24 15 -30 15
-5 0 -1 -7 10 -15z"/>
<path d="M8321 11416 c43 -25 136 -53 269 -83 94 -20 395 -23 485 -4 73 15
188 51 182 57 -2 3 -42 -6 -88 -19 -135 -39 -317 -52 -474 -34 -110 13 -269
51 -380 91 -11 4 -8 0 6 -8z"/>
<path d="M9080 11420 c-20 -6 -21 -8 -5 -8 11 0 31 4 45 8 20 6 21 8 5 8 -11
0 -31 -4 -45 -8z"/>
<path d="M9305 11410 c-22 -10 -33 -19 -25 -19 8 0 31 8 50 19 45 24 28 24
-25 0z"/>
<path d="M9859 11403 c-13 -16 -12 -17 4 -4 16 13 21 21 13 21 -2 0 -10 -8
-17 -17z"/>
<path d="M9003 11403 c9 -2 23 -2 30 0 6 3 -1 5 -18 5 -16 0 -22 -2 -12 -5z"/>
<path d="M9769 11303 c-81 -84 -242 -209 -228 -176 2 4 19 37 38 73 18 36 30
61 25 57 -5 -5 -27 -43 -49 -85 -22 -42 -49 -81 -60 -87 -11 -6 -59 -32 -106
-58 -105 -58 -305 -134 -459 -176 -63 -17 -155 -42 -205 -55 -49 -14 -83 -25
-75 -25 27 -2 332 79 454 120 67 22 177 68 246 102 153 76 145 73 134 56 -4
-8 10 4 32 26 22 22 66 58 97 79 55 38 146 121 197 179 41 48 16 29 -41 -30z"/>
<path d="M3182 11290 c0 -14 2 -19 5 -12 2 6 2 18 0 25 -3 6 -5 1 -5 -13z"/>
<path d="M9814 11228 l-19 -23 23 19 c21 18 27 26 19 26 -2 0 -12 -10 -23 -22z"/>
<path d="M9070 11220 c-20 -6 -21 -8 -5 -8 11 0 29 3 40 8 25 11 -1 11 -35 0z"/>
<path d="M3191 11204 c0 -11 3 -14 6 -6 3 7 2 16 -1 19 -3 4 -6 -2 -5 -13z"/>
<path d="M8978 11203 c6 -2 18 -2 25 0 6 3 1 5 -13 5 -14 0 -19 -2 -12 -5z"/>
<path d="M9726 11155 c-21 -19 -79 -63 -128 -97 -116 -82 -131 -93 -99 -77 63
30 297 212 269 209 -2 -1 -21 -16 -42 -35z"/>
<path d="M3202 11160 c0 -14 2 -19 5 -12 2 6 2 18 0 25 -3 6 -5 1 -5 -13z"/>
<path d="M3221 11074 c0 -11 3 -14 6 -6 3 7 2 16 -1 19 -3 4 -6 -2 -5 -13z"/>
<path d="M9445 10983 c-16 -26 -31 -50 -34 -53 -4 -3 -15 -21 -25 -40 -10 -20
-37 -62 -60 -95 -35 -51 -52 -64 -126 -101 -101 -50 -278 -117 -410 -155 -52
-15 -90 -28 -83 -28 45 -3 324 90 461 154 50 24 92 40 92 36 0 -4 -32 -52 -71
-106 -61 -85 -114 -156 -289 -382 -134 -174 -240 -318 -307 -418 -132 -197
-313 -475 -313 -480 0 -2 -24 -42 -54 -88 -91 -139 -227 -424 -307 -646 -94
-258 -165 -542 -209 -836 -11 -77 -26 -171 -33 -210 -17 -100 -16 -634 1 -745
32 -199 89 -456 100 -446 2 3 -5 41 -17 85 -46 171 -91 514 -91 696 0 277 65
745 146 1060 14 51 66 227 94 315 38 118 167 418 237 550 98 184 286 476 303
472 8 -2 10 3 7 13 -4 8 -3 15 1 15 5 0 16 17 26 38 35 73 268 413 355 518 14
17 35 44 46 59 11 16 36 49 55 74 130 168 249 330 330 452 14 22 52 53 95 78
39 24 85 54 101 67 16 13 -8 1 -54 -27 -45 -29 -84 -50 -86 -48 -7 7 102 172
126 192 13 10 17 16 11 12 -17 -8 -16 1 3 31 9 13 14 27 12 30 -3 3 -18 -17
-33 -43z"/>
<path d="M3242 10990 c0 -8 4 -26 8 -40 6 -20 8 -21 8 -5 0 11 -3 29 -8 40 -5
12 -8 14 -8 5z"/>
<path d="M7208 10943 c7 -3 16 -2 19 1 4 3 -2 6 -13 5 -11 0 -14 -3 -6 -6z"/>
<path d="M7258 10933 c6 -2 18 -2 25 0 6 3 1 5 -13 5 -14 0 -19 -2 -12 -5z"/>
<path d="M7308 10923 c6 -2 18 -2 25 0 6 3 1 5 -13 5 -14 0 -19 -2 -12 -5z"/>
<path d="M7350 10916 c0 -3 26 -10 58 -16 108 -23 267 -82 388 -144 242 -126
375 -165 579 -171 l130 -3 -125 8 c-206 14 -332 53 -570 174 -119 60 -237 105
-357 135 -82 21 -103 25 -103 17z"/>
<path d="M8243 10883 c9 -2 25 -2 35 0 9 3 1 5 -18 5 -19 0 -27 -2 -17 -5z"/>
<path d="M8623 10883 c9 -2 25 -2 35 0 9 3 1 5 -18 5 -19 0 -27 -2 -17 -5z"/>
<path d="M9509 10873 c-13 -16 -12 -17 4 -4 16 13 21 21 13 21 -2 0 -10 -8
-17 -17z"/>
<path d="M8388 10873 c28 -2 76 -2 105 0 28 2 5 3 -53 3 -58 0 -81 -1 -52 -3z"/>
<path d="M4640 10780 c-8 -5 -10 -10 -5 -10 6 0 17 5 25 10 8 5 11 10 5 10 -5
0 -17 -5 -25 -10z"/>
<path d="M4560 10753 c-25 -9 -40 -18 -34 -20 6 -2 31 5 55 16 53 24 41 26
-21 4z"/>
<path d="M4430 10710 c-30 -10 -49 -18 -42 -19 17 -1 122 29 122 35 0 7 -23 3
-80 -16z"/>
<path d="M4318 10685 c-2 -3 -45 -14 -94 -24 -49 -10 -80 -19 -69 -20 23 -1
207 37 214 45 2 2 -7 4 -21 4 -13 0 -27 -2 -30 -5z"/>
<path d="M3902 10633 c37 -2 100 -2 140 0 40 1 10 3 -67 3 -77 0 -110 -1 -73
-3z"/>
<path d="M4570 10630 c-18 -12 -2 -12 25 0 13 6 15 9 5 9 -8 0 -22 -4 -30 -9z"/>
<path d="M8658 10503 c7 -3 16 -2 19 1 4 3 -2 6 -13 5 -11 0 -14 -3 -6 -6z"/>
<path d="M6390 10480 c-9 -6 -10 -10 -3 -10 6 0 15 5 18 10 8 12 4 12 -15 0z"/>
<path d="M6345 10460 c-3 -6 1 -7 9 -4 18 7 21 14 7 14 -6 0 -13 -4 -16 -10z"/>
<path d="M9175 10364 c-18 -16 -22 -22 -9 -15 18 9 53 42 43 41 -2 -1 -17 -12
-34 -26z"/>
<path d="M6170 10360 c-9 -6 -10 -10 -3 -10 6 0 15 5 18 10 8 12 4 12 -15 0z"/>
<path d="M3783 10353 c9 -2 23 -2 30 0 6 3 -1 5 -18 5 -16 0 -22 -2 -12 -5z"/>
<path d="M9114 10318 l-19 -23 23 19 c21 18 27 26 19 26 -2 0 -12 -10 -23 -22z"/>
<path d="M3210 10318 c0 -24 135 -362 169 -423 28 -51 23 -35 -34 100 -26 61
-65 157 -87 215 -37 97 -48 122 -48 108z"/>
<path d="M4120 10240 c-8 -5 -10 -10 -5 -10 6 0 17 5 25 10 8 5 11 10 5 10 -5
0 -17 -5 -25 -10z"/>
<path d="M6209 10233 c-13 -16 -12 -17 4 -4 9 7 17 15 17 17 0 8 -8 3 -21 -13z"/>
<path d="M8999 10233 c-13 -16 -12 -17 4 -4 9 7 17 15 17 17 0 8 -8 3 -21 -13z"/>
<path d="M4068 10223 c6 -2 18 -2 25 0 6 3 1 5 -13 5 -14 0 -19 -2 -12 -5z"/>
<path d="M6144 10178 l-19 -23 23 19 c21 18 27 26 19 26 -2 0 -12 -10 -23 -22z"/>
<path d="M6074 10118 l-19 -23 23 19 c21 18 27 26 19 26 -2 0 -12 -10 -23 -22z"/>
<path d="M6004 10058 l-29 -33 33 29 c30 28 37 36 29 36 -2 0 -16 -15 -33 -32z"/>
<path d="M5870 9933 l-95 -97 95 89 c85 81 109 106 98 105 -1 0 -46 -44 -98
-97z"/>
<path d="M3400 9846 c0 -10 40 -86 45 -86 2 0 -4 18 -14 40 -18 40 -31 60 -31
46z"/>
<path d="M3450 9741 c0 -6 4 -13 10 -16 6 -3 7 1 4 9 -7 18 -14 21 -14 7z"/>
<path d="M5854 9648 l-19 -23 23 19 c21 18 27 26 19 26 -2 0 -12 -10 -23 -22z"/>
<path d="M9406 9535 c-9 -26 -7 -32 5 -12 6 10 9 21 6 23 -2 3 -7 -2 -11 -11z"/>
<path d="M5740 9500 c-12 -16 -19 -30 -16 -30 2 0 14 14 26 30 12 17 19 30 16
30 -2 0 -14 -13 -26 -30z"/>
<path d="M9386 9475 c-9 -26 -7 -32 5 -12 6 10 9 21 6 23 -2 3 -7 -2 -11 -11z"/>
<path d="M9356 9395 c-9 -26 -7 -32 5 -12 6 10 9 21 6 23 -2 3 -7 -2 -11 -11z"/>
<path d="M9287 9213 c-9 -21 -28 -65 -41 -97 -14 -33 -24 -61 -22 -63 2 -2 22
40 45 93 23 53 40 99 38 101 -3 2 -12 -13 -20 -34z"/>
<path d="M9196 9005 c-22 -52 -19 -58 5 -12 11 22 18 41 15 44 -3 3 -12 -12
-20 -32z"/>
<path d="M8231 8934 c0 -11 3 -14 6 -6 3 7 2 16 -1 19 -3 4 -6 -2 -5 -13z"/>
<path d="M9151 8909 c-12 -23 -19 -44 -18 -46 2 -1 13 16 25 39 13 22 20 43
18 45 -3 3 -14 -14 -25 -38z"/>
<path d="M9226 8915 c-9 -26 -7 -32 5 -12 6 10 9 21 6 23 -2 3 -7 -2 -11 -11z"/>
<path d="M9206 8865 c-9 -26 -7 -32 5 -12 6 10 9 21 6 23 -2 3 -7 -2 -11 -11z"/>
<path d="M9107 8815 c-9 -19 -15 -35 -12 -35 7 0 37 61 33 66 -3 2 -12 -12
-21 -31z"/>
<path d="M9186 8815 c-9 -26 -7 -32 5 -12 6 10 9 21 6 23 -2 3 -7 -2 -11 -11z"/>
<path d="M3602 8760 c0 -14 2 -19 5 -12 2 6 2 18 0 25 -3 6 -5 1 -5 -13z"/>
<path d="M9152 8735 c-30 -62 -27 -71 4 -12 14 27 24 51 22 53 -3 2 -14 -17
-26 -41z"/>
<path d="M9076 8753 c-6 -14 -5 -15 5 -6 7 7 10 15 7 18 -3 3 -9 -2 -12 -12z"/>
<path d="M9056 8715 c-9 -26 -7 -32 5 -12 6 10 9 21 6 23 -2 3 -7 -2 -11 -11z"/>
<path d="M3611 8704 c0 -11 3 -14 6 -6 3 7 2 16 -1 19 -3 4 -6 -2 -5 -13z"/>
<path d="M9116 8655 c-9 -26 -7 -32 5 -12 6 10 9 21 6 23 -2 3 -7 -2 -11 -11z"/>
<path d="M9025 8649 c-4 -6 -5 -12 -2 -15 2 -3 7 2 10 11 7 17 1 20 -8 4z"/>
<path d="M3622 8620 c0 -14 2 -19 5 -12 2 6 2 18 0 25 -3 6 -5 1 -5 -13z"/>
<path d="M9095 8609 c-4 -6 -5 -12 -2 -15 2 -3 7 2 10 11 7 17 1 20 -8 4z"/>
<path d="M3632 8570 c0 -14 2 -19 5 -12 2 6 2 18 0 25 -3 6 -5 1 -5 -13z"/>
<path d="M9042 8494 c-23 -46 -42 -88 -41 -92 0 -4 20 33 45 82 25 48 44 90
42 92 -2 2 -23 -35 -46 -82z"/>
<path d="M3642 8500 c0 -19 2 -27 5 -17 2 9 2 25 0 35 -3 9 -5 1 -5 -18z"/>
<path d="M8101 8494 c0 -11 3 -14 6 -6 3 7 2 16 -1 19 -3 4 -6 -2 -5 -13z"/>
<path d="M3652 8430 c-1 -14 3 -43 7 -65 6 -26 9 -31 9 -15 1 14 -3 43 -7 65
-6 26 -9 31 -9 15z"/>
<path d="M7971 8424 c0 -11 3 -14 6 -6 3 7 2 16 -1 19 -3 4 -6 -2 -5 -13z"/>
<path d="M5481 8394 c0 -11 3 -14 6 -6 3 7 2 16 -1 19 -3 4 -6 -2 -5 -13z"/>
<path d="M7961 8384 c0 -11 3 -14 6 -6 3 7 2 16 -1 19 -3 4 -6 -2 -5 -13z"/>
<path d="M8985 8379 c-4 -6 -5 -12 -2 -15 2 -3 7 2 10 11 7 17 1 20 -8 4z"/>
<path d="M9080 8388 c0 -3 -7 -22 -15 -42 -8 -20 -13 -36 -10 -36 8 0 36 73
30 78 -3 3 -5 3 -5 0z"/>
<path d="M8061 8334 c0 -11 3 -14 6 -6 3 7 2 16 -1 19 -3 4 -6 -2 -5 -13z"/>
<path d="M8965 8339 c-4 -6 -5 -12 -2 -15 2 -3 7 2 10 11 7 17 1 20 -8 4z"/>
<path d="M7941 8294 c0 -11 3 -14 6 -6 3 7 2 16 -1 19 -3 4 -6 -2 -5 -13z"/>
<path d="M3672 8265 c-1 -16 3 -48 7 -70 8 -35 9 -36 9 -10 1 17 -3 48 -7 70
-8 35 -9 36 -9 10z"/>
<path d="M9030 8269 c-7 -11 -10 -23 -7 -25 2 -2 9 7 15 21 14 30 7 33 -8 4z"/>
<path d="M5462 8260 c0 -14 2 -19 5 -12 2 6 2 18 0 25 -3 6 -5 1 -5 -13z"/>
<path d="M7931 8254 c0 -11 3 -14 6 -6 3 7 2 16 -1 19 -3 4 -6 -2 -5 -13z"/>
<path d="M7916 8184 c-4 -20 -5 -38 -3 -40 3 -3 8 11 11 32 4 20 5 38 3 40 -3
3 -8 -11 -11 -32z"/>
<path d="M8985 8179 c-4 -6 -5 -12 -2 -15 2 -3 7 2 10 11 7 17 1 20 -8 4z"/>
<path d="M5448 8088 c-4 -131 -3 -557 1 -553 5 6 10 615 5 615 -2 0 -5 -28 -6
-62z"/>
<path d="M3692 8115 c0 -16 3 -50 7 -75 6 -33 9 -37 9 -15 0 17 -3 50 -7 75
-6 33 -9 37 -9 15z"/>
<path d="M7896 8074 c-4 -20 -5 -38 -3 -40 3 -3 8 11 11 32 4 20 5 38 3 40 -3
3 -8 -11 -11 -32z"/>
<path d="M9032 8055 c-17 -37 -14 -45 4 -12 9 16 14 31 11 33 -2 2 -9 -7 -15
-21z"/>
<path d="M7882 7990 c0 -19 2 -27 5 -17 2 9 2 25 0 35 -3 9 -5 1 -5 -18z"/>
<path d="M3717 7915 c3 -33 11 -94 18 -135 13 -71 13 -72 8 -15 -3 33 -11 94
-18 135 -13 71 -13 72 -8 15z"/>
<path d="M7872 7925 c0 -16 2 -22 5 -12 2 9 2 23 0 30 -3 6 -5 -1 -5 -18z"/>
<path d="M8960 7895 c0 -8 2 -15 4 -15 2 0 6 7 10 15 3 8 1 15 -4 15 -6 0 -10
-7 -10 -15z"/>
<path d="M7862 7820 c0 -19 2 -27 5 -17 2 9 2 25 0 35 -3 9 -5 1 -5 -18z"/>
<path d="M7852 7750 c0 -14 2 -19 5 -12 2 6 2 18 0 25 -3 6 -5 1 -5 -13z"/>
<path d="M9012 7725 c-17 -37 -14 -45 4 -12 9 16 14 31 11 33 -2 2 -9 -7 -15
-21z"/>
<path d="M7843 7665 c0 -22 2 -30 4 -17 2 12 2 30 0 40 -3 9 -5 -1 -4 -23z"/>
<path d="M3752 7670 c-1 -14 5 -54 13 -90 7 -36 13 -54 14 -40 0 14 -6 54 -13
90 -8 36 -14 54 -14 40z"/>
<path d="M8986 7665 c-9 -26 -7 -32 5 -12 6 10 9 21 6 23 -2 3 -7 -2 -11 -11z"/>
<path d="M5432 7495 c0 -16 2 -22 5 -12 2 9 2 23 0 30 -3 6 -5 -1 -5 -18z"/>
<path d="M3782 7490 c0 -14 4 -38 8 -55 7 -27 8 -27 8 -5 0 14 -4 39 -8 55 -7
27 -8 27 -8 5z"/>
<path d="M3802 7370 c0 -14 4 -36 8 -50 6 -20 8 -21 8 -5 0 11 -4 34 -8 50 -7
27 -8 27 -8 5z"/>
<path d="M8972 7280 c0 -19 2 -27 5 -17 2 9 2 25 0 35 -3 9 -5 1 -5 -18z"/>
<path d="M3821 7264 c0 -11 3 -14 6 -6 3 7 2 16 -1 19 -3 4 -6 -2 -5 -13z"/>
<path d="M3831 7224 c0 -11 3 -14 6 -6 3 7 2 16 -1 19 -3 4 -6 -2 -5 -13z"/>
<path d="M8982 7180 c0 -14 2 -19 5 -12 2 6 2 18 0 25 -3 6 -5 1 -5 -13z"/>
<path d="M3841 7154 c0 -11 3 -14 6 -6 3 7 2 16 -1 19 -3 4 -6 -2 -5 -13z"/>
<path d="M5312 7135 c0 -22 3 -62 8 -90 6 -40 7 -43 8 -15 0 19 -3 60 -8 90
-6 48 -7 50 -8 15z"/>
<path d="M3862 7080 c0 -14 2 -19 5 -12 2 6 2 18 0 25 -3 6 -5 1 -5 -13z"/>
<path d="M5332 6955 c0 -16 4 -41 8 -55 l8 -25 0 25 c0 14 -4 39 -8 55 l-8 30
0 -30z"/>
<path d="M3901 6904 c0 -11 3 -14 6 -6 3 7 2 16 -1 19 -3 4 -6 -2 -5 -13z"/>
<path d="M5352 6850 c0 -14 3 -34 8 -45 l9 -20 -1 20 c0 11 -4 31 -8 45 l-8
25 0 -25z"/>
<path d="M8961 6805 c1 -19 18 -51 18 -35 0 8 -4 22 -9 30 -5 8 -9 11 -9 5z"/>
<path d="M5371 6772 c-1 -20 42 -159 46 -147 1 6 -8 44 -21 85 -14 41 -25 69
-25 62z"/>
<path d="M8981 6740 c0 -8 4 -24 9 -35 5 -13 9 -14 9 -5 0 8 -4 24 -9 35 -5
13 -9 14 -9 5z"/>
<path d="M9004 6660 c9 -54 45 -174 41 -134 -3 22 -14 67 -25 100 -11 32 -18
48 -16 34z"/>
<path d="M5424 6585 c10 -40 26 -78 31 -73 6 6 -25 98 -32 98 -3 0 -2 -11 1
-25z"/>
<path d="M5460 6495 c0 -13 82 -216 86 -212 4 4 -72 206 -81 215 -3 3 -5 2 -5
-3z"/>
<path d="M7781 6315 c0 -11 4 -27 9 -35 9 -13 10 -13 9 0 0 8 -4 24 -9 35 l-9
20 0 -20z"/>
<path d="M5551 6260 c0 -8 4 -22 9 -30 12 -18 12 -2 0 25 -6 13 -9 15 -9 5z"/>
<path d="M7801 6250 c0 -8 4 -24 9 -35 5 -13 9 -14 9 -5 0 8 -4 24 -9 35 -5
13 -9 14 -9 5z"/>
<path d="M7822 6175 c0 -5 6 -26 13 -45 7 -19 14 -28 14 -20 0 8 -6 29 -14 45
-7 17 -13 26 -13 20z"/>
<path d="M5481 6110 c0 -8 4 -22 9 -30 12 -18 12 -2 0 25 -6 13 -9 15 -9 5z"/>
<path d="M8962 6090 c0 -19 2 -27 5 -17 2 9 2 25 0 35 -3 9 -5 1 -5 -18z"/>
<path d="M7850 6085 c0 -5 5 -17 10 -25 5 -8 10 -10 10 -5 0 6 -5 17 -10 25
-5 8 -10 11 -10 5z"/>
<path d="M5500 6049 c0 -4 7 -22 15 -40 8 -19 14 -27 14 -19 0 14 -28 72 -29
59z"/>
<path d="M8973 5990 c0 -30 2 -43 4 -27 2 15 2 39 0 55 -2 15 -4 2 -4 -28z"/>
<path d="M5531 5965 c1 -19 18 -51 18 -35 0 8 -4 22 -9 30 -5 8 -9 11 -9 5z"/>
<path d="M5551 5895 c1 -19 18 -51 18 -35 0 8 -4 22 -9 30 -5 8 -9 11 -9 5z"/>
<path d="M8984 5700 c0 -102 2 -143 3 -92 2 50 2 134 0 185 -1 50 -3 9 -3 -93z"/>
<path d="M5572 5815 c0 -11 4 -31 8 -45 6 -20 8 -21 8 -5 0 11 -4 31 -8 45 -6
20 -8 21 -8 5z"/>
<path d="M5592 5710 c0 -14 4 -36 8 -50 l8 -25 0 25 c0 14 -4 36 -8 50 l-8 25
0 -25z"/>
<path d="M5612 5600 c0 -19 2 -27 5 -17 2 9 2 25 0 35 -3 9 -5 1 -5 -18z"/>
<path d="M5622 5525 c0 -16 2 -22 5 -12 2 9 2 23 0 30 -3 6 -5 -1 -5 -18z"/>
<path d="M8046 5497 c3 -10 9 -15 12 -12 3 3 0 11 -7 18 -10 9 -11 8 -5 -6z"/>
<path d="M8967 5371 c-4 -63 -6 -116 -3 -118 6 -7 18 157 14 197 -2 19 -7 -16
-11 -79z"/>
<path d="M5633 5435 c0 -22 2 -30 4 -17 2 12 2 30 0 40 -3 9 -5 -1 -4 -23z"/>
<path d="M8060 5465 c0 -5 5 -17 10 -25 5 -8 10 -10 10 -5 0 6 -5 17 -10 25
-5 8 -10 11 -10 5z"/>
<path d="M4290 5401 c5 -11 15 -23 21 -27 6 -3 3 5 -6 20 -20 30 -30 35 -15 7z"/>
<path d="M8102 5375 c12 -24 23 -43 26 -41 4 5 -36 86 -43 86 -3 0 5 -20 17
-45z"/>
<path d="M4190 5326 c0 -11 40 -86 45 -86 3 0 -4 19 -16 43 -23 45 -29 54 -29
43z"/>
<path d="M8131 5315 c0 -5 20 -48 44 -95 24 -47 44 -80 44 -75 0 6 -20 48 -44
95 -24 47 -44 81 -44 75z"/>
<path d="M7820 5256 c0 -2 8 -10 18 -17 15 -13 16 -12 3 4 -13 16 -21 21 -21
13z"/>
<path d="M4246 5234 c-3 -8 3 -32 14 -52 31 -57 87 -143 100 -156 7 -6 -6 19
-28 56 -57 93 -80 141 -75 156 7 18 -4 15 -11 -4z"/>
<path d="M5713 5185 c0 -27 2 -38 4 -22 2 15 2 37 0 50 -2 12 -4 0 -4 -28z"/>
<path d="M7860 5211 c0 -12 168 -182 385 -389 167 -159 216 -215 305 -344 29
-43 55 -78 57 -78 7 0 -15 35 -71 116 -84 122 -197 243 -396 424 -137 124
-189 174 -239 233 -22 27 -41 44 -41 38z"/>
<path d="M8099 5152 c11 -16 28 -35 38 -43 9 -8 2 5 -17 29 -38 48 -52 57 -21
14z"/>
<path d="M8952 5155 c0 -16 2 -22 5 -12 2 9 2 23 0 30 -3 6 -5 -1 -5 -18z"/>
<path d="M8220 5125 c0 -5 5 -17 10 -25 5 -8 10 -10 10 -5 0 6 -5 17 -10 25
-5 8 -10 11 -10 5z"/>
<path d="M5702 5095 c0 -16 2 -22 5 -12 2 9 2 23 0 30 -3 6 -5 -1 -5 -18z"/>
<path d="M8230 5001 c41 -47 82 -93 92 -101 33 -30 187 -210 228 -266 48 -66
60 -81 60 -72 0 16 -149 201 -240 298 -185 197 -217 229 -140 141z"/>
<path d="M4170 5051 c0 -6 4 -13 10 -16 6 -3 7 1 4 9 -7 18 -14 21 -14 7z"/>
<path d="M5686 5004 c-4 -20 -5 -38 -3 -40 3 -3 8 11 11 32 4 20 5 38 3 40 -3
3 -8 -11 -11 -32z"/>
<path d="M8932 5020 c0 -14 2 -19 5 -12 2 6 2 18 0 25 -3 6 -5 1 -5 -13z"/>
<path d="M4190 5016 c0 -11 40 -86 45 -86 3 0 -4 19 -16 43 -23 45 -29 54 -29
43z"/>
<path d="M4302 4950 c0 -14 2 -19 5 -12 2 6 2 18 0 25 -3 6 -5 1 -5 -13z"/>
<path d="M4240 4911 c0 -6 4 -13 10 -16 6 -3 7 1 4 9 -7 18 -14 21 -14 7z"/>
<path d="M4293 4816 c17 -35 37 -67 43 -69 12 -6 -6 33 -45 96 -35 57 -34 44
2 -27z"/>
<path d="M6508 4843 c6 -2 18 -2 25 0 6 3 1 5 -13 5 -14 0 -19 -2 -12 -5z"/>
<path d="M6345 4810 c-13 -5 -14 -9 -5 -9 8 0 24 4 35 9 13 5 14 9 5 9 -8 0
-24 -4 -35 -9z"/>
<path d="M6290 4790 c-8 -5 -10 -10 -5 -10 6 0 17 5 25 10 8 5 11 10 5 10 -5
0 -17 -5 -25 -10z"/>
<path d="M6210 4760 c-19 -11 -30 -19 -25 -19 6 0 26 8 45 19 19 11 31 19 25
19 -5 0 -26 -8 -45 -19z"/>
<path d="M6138 4724 c-38 -20 -36 -28 2 -9 17 9 30 18 30 20 0 7 -1 6 -32 -11z"/>
<path d="M4378 4685 c6 -11 25 -36 42 -55 l32 -35 -33 45 c-40 55 -55 72 -41
45z"/>
<path d="M6074 4684 c-18 -14 -18 -15 4 -4 12 6 22 13 22 15 0 8 -5 6 -26 -11z"/>
<path d="M4305 4555 c15 -27 32 -54 38 -60 6 -5 -2 13 -18 40 -15 28 -32 55
-38 60 -6 6 2 -12 18 -40z"/>
<path d="M7035 4525 c-236 -38 -509 -146 -745 -297 -30 -19 -97 -59 -147 -87
-99 -56 -129 -81 -40 -35 28 16 117 66 197 112 205 119 297 163 445 214 208
72 332 92 574 92 113 1 187 4 165 8 -63 11 -362 6 -449 -7z"/>
<path d="M7604 4499 c43 -11 81 -18 83 -15 5 5 -122 36 -144 35 -10 0 18 -9
61 -20z"/>
<path d="M4380 4426 c0 -2 8 -10 18 -17 15 -13 16 -12 3 4 -13 16 -21 21 -21
13z"/>
<path d="M4410 4386 c0 -2 8 -10 18 -17 15 -13 16 -12 3 4 -13 16 -21 21 -21
13z"/>
<path d="M7695 4375 c17 -8 37 -14 45 -14 8 0 -1 7 -20 14 -46 18 -64 17 -25
0z"/>
<path d="M8625 4363 c8 -18 18 -33 20 -33 10 0 4 16 -16 40 l-20 25 16 -32z"/>
<path d="M4322 4325 c0 -16 2 -22 5 -12 2 9 2 23 0 30 -3 6 -5 -1 -5 -18z"/>
<path d="M7175 4335 c-33 -7 -71 -19 -85 -25 l-25 -11 25 6 c137 31 192 37
300 32 192 -9 287 -46 519 -202 78 -53 140 -92 137 -86 -9 13 -239 171 -300
205 -27 15 -90 42 -140 59 -82 28 -104 31 -231 33 -93 2 -160 -2 -200 -11z"/>
<path d="M7865 4307 c44 -23 98 -55 120 -71 l40 -29 -40 36 c-37 33 -170 107
-191 107 -5 0 27 -20 71 -43z"/>
<path d="M8650 4317 c0 -7 70 -131 70 -124 0 11 -59 127 -65 127 -3 0 -5 -1
-5 -3z"/>
<path d="M7020 4290 c-18 -12 -2 -12 25 0 13 6 15 9 5 9 -8 0 -22 -4 -30 -9z"/>
<path d="M6970 4270 c-8 -5 -10 -10 -5 -10 6 0 17 5 25 10 8 5 11 10 5 10 -5
0 -17 -5 -25 -10z"/>
<path d="M4324 4110 c0 -91 2 -128 3 -82 2 45 2 119 0 165 -1 45 -3 8 -3 -83z"/>
<path d="M6925 4250 c-3 -6 1 -7 9 -4 18 7 21 14 7 14 -6 0 -13 -4 -16 -10z"/>
<path d="M5278 4233 c7 -3 16 -2 19 1 4 3 -2 6 -13 5 -11 0 -14 -3 -6 -6z"/>
<path d="M5100 4180 c-8 -5 -10 -10 -5 -10 6 0 17 5 25 10 8 5 11 10 5 10 -5
0 -17 -5 -25 -10z"/>
<path d="M5015 4142 c-66 -37 -193 -121 -201 -133 -3 -6 30 14 73 43 43 29
105 67 138 85 33 18 56 33 50 33 -5 0 -32 -13 -60 -28z"/>
<path d="M6015 4070 c-3 -6 1 -7 9 -4 18 7 21 14 7 14 -6 0 -13 -4 -16 -10z"/>
<path d="M6207 3999 c-38 -23 -66 -43 -64 -45 4 -4 120 66 136 81 12 12 -9 2
-72 -36z"/>
<path d="M4989 3993 c-13 -16 -12 -17 4 -4 9 7 17 15 17 17 0 8 -8 3 -21 -13z"/>
<path d="M4895 3921 c-38 -32 -90 -81 -115 -107 -43 -47 -42 -46 15 7 33 31
74 68 90 82 68 57 90 76 85 77 -3 0 -36 -27 -75 -59z"/>
<path d="M6045 3904 c-44 -25 -95 -52 -114 -60 -19 -8 -31 -17 -28 -20 6 -6
175 82 212 110 34 26 13 17 -70 -30z"/>
<path d="M4981 3814 c-97 -70 -223 -196 -281 -280 -54 -78 -144 -258 -137
-277 1 -5 11 12 22 39 68 181 199 348 395 504 73 59 75 60 69 60 -3 0 -34 -21
-68 -46z"/>
<path d="M5860 3810 c-8 -5 -55 -24 -103 -41 -48 -17 -85 -34 -83 -37 3 -2 47
12 98 32 92 36 132 56 113 56 -5 0 -17 -5 -25 -10z"/>
<path d="M4314 3655 c0 -66 1 -92 3 -57 2 34 2 88 0 120 -2 31 -3 3 -3 -63z"/>
<path d="M5605 3720 c-25 -11 1 -11 35 0 20 6 21 8 5 8 -11 0 -29 -3 -40 -8z"/>
<path d="M5558 3703 c7 -3 16 -2 19 1 4 3 -2 6 -13 5 -11 0 -14 -3 -6 -6z"/>
<path d="M8190 3661 c5 -11 15 -23 21 -27 6 -3 3 5 -6 20 -20 30 -30 35 -15 7z"/>
<path d="M8220 3616 c0 -11 30 -66 36 -66 2 0 -3 15 -12 33 -19 36 -24 44 -24
33z"/>
<path d="M8265 3525 c23 -66 84 -218 85 -208 0 18 -54 163 -74 198 -10 17 -14
21 -11 10z"/>
<path d="M5012 3476 c-70 -61 -113 -111 -160 -184 -41 -63 -99 -198 -90 -207
2 -3 17 28 32 68 40 101 124 224 207 301 79 73 87 91 11 22z"/>
<path d="M8353 3273 c4 -16 12 -57 19 -93 6 -36 14 -57 16 -48 4 20 -27 168
-35 168 -3 0 -3 -12 0 -27z"/>
<path d="M8398 3030 c9 -109 9 -484 0 -575 -6 -63 -6 -66 5 -30 15 53 15 582
-1 645 -10 39 -10 34 -4 -40z"/>
<path d="M4736 2998 c-10 -42 -16 -87 -13 -100 3 -19 5 -18 6 7 0 17 8 57 16
90 9 32 14 63 12 69 -2 6 -12 -23 -21 -66z"/>
<path d="M4713 2805 c0 -33 2 -45 4 -27 2 18 2 45 0 60 -2 15 -4 0 -4 -33z"/>
<path d="M4794 2670 c0 -52 1 -74 3 -47 2 26 2 68 0 95 -2 26 -3 4 -3 -48z"/>
<path d="M4712 2630 c0 -19 2 -27 5 -17 2 9 2 25 0 35 -3 9 -5 1 -5 -18z"/>
<path d="M4801 2494 c1 -16 5 -40 9 -54 6 -17 7 -9 3 25 -6 56 -14 74 -12 29z"/>
<path d="M4822 2390 c0 -14 2 -19 5 -12 2 6 2 18 0 25 -3 6 -5 1 -5 -13z"/>
<path d="M8371 2299 c-7 -38 -11 -72 -9 -75 3 -2 11 27 18 66 7 39 11 72 8 75
-3 3 -10 -27 -17 -66z"/>
<path d="M4831 2344 c0 -11 3 -14 6 -6 3 7 2 16 -1 19 -3 4 -6 -2 -5 -13z"/>
<path d="M8763 2285 c0 -22 2 -30 4 -17 2 12 2 30 0 40 -3 9 -5 -1 -4 -23z"/>
<path d="M8751 2204 c0 -11 3 -14 6 -6 3 7 2 16 -1 19 -3 4 -6 -2 -5 -13z"/>
<path d="M8351 2194 c0 -11 3 -14 6 -6 3 7 2 16 -1 19 -3 4 -6 -2 -5 -13z"/>
<path d="M8741 2154 c0 -11 3 -14 6 -6 3 7 2 16 -1 19 -3 4 -6 -2 -5 -13z"/>
<path d="M8341 2144 c0 -11 3 -14 6 -6 3 7 2 16 -1 19 -3 4 -6 -2 -5 -13z"/>
<path d="M8726 2064 c-4 -20 -5 -38 -3 -40 3 -3 8 11 11 32 4 20 5 38 3 40 -3
3 -8 -11 -11 -32z"/>
<path d="M8712 1990 c0 -14 2 -19 5 -12 2 6 2 18 0 25 -3 6 -5 1 -5 -13z"/>
<path d="M8701 1944 c0 -11 3 -14 6 -6 3 7 2 16 -1 19 -3 4 -6 -2 -5 -13z"/>
<path d="M8686 1874 c-4 -14 -5 -28 -3 -31 3 -2 8 8 11 23 4 14 5 28 3 31 -3
2 -8 -8 -11 -23z"/>
<path d="M8601 1814 c0 -11 3 -14 6 -6 3 7 2 16 -1 19 -3 4 -6 -2 -5 -13z"/>
<path d="M8671 1814 c0 -11 3 -14 6 -6 3 7 2 16 -1 19 -3 4 -6 -2 -5 -13z"/>
<path d="M8591 1774 c0 -11 3 -14 6 -6 3 7 2 16 -1 19 -3 4 -6 -2 -5 -13z"/>
<path d="M8581 1735 c-1 -11 -4 -31 -6 -45 l-6 -25 11 25 c6 13 9 33 7 45 -4
19 -4 19 -6 0z"/>
<path d="M4910 1671 c0 -6 4 -13 10 -16 6 -3 7 1 4 9 -7 18 -14 21 -14 7z"/>
<path d="M8561 1644 c0 -11 3 -14 6 -6 3 7 2 16 -1 19 -3 4 -6 -2 -5 -13z"/>
<path d="M4940 1616 c0 -11 30 -66 36 -66 2 0 -3 15 -12 33 -19 36 -24 44 -24
33z"/>
<path d="M8541 1564 c0 -11 3 -14 6 -6 3 7 2 16 -1 19 -3 4 -6 -2 -5 -13z"/>
<path d="M4980 1531 c0 -5 5 -13 10 -16 6 -3 10 -2 10 4 0 5 -4 13 -10 16 -5
3 -10 2 -10 -4z"/>
<path d="M8526 1525 c-3 -9 -6 -22 -5 -28 0 -7 5 -1 10 12 5 13 8 26 5 28 -2
2 -6 -3 -10 -12z"/>
<path d="M5000 1495 c0 -2 30 -53 66 -112 187 -306 426 -547 684 -690 113 -62
373 -164 386 -150 2 2 -40 18 -94 36 -163 54 -349 152 -487 256 -71 54 -280
268 -337 345 -71 98 -126 180 -172 258 -34 56 -46 71 -46 57z"/>
<path d="M8511 1473 c-1 -6 -4 -20 -7 -30 -5 -17 -5 -17 6 0 6 10 9 23 6 30
-3 9 -5 9 -5 0z"/>
<path d="M8491 1413 c-1 -6 -4 -20 -7 -30 -5 -17 -5 -17 6 0 6 10 9 23 6 30
-3 9 -5 9 -5 0z"/>
<path d="M8452 1308 c-12 -28 -20 -53 -18 -55 2 -2 13 19 25 48 12 28 21 53
19 55 -3 2 -14 -20 -26 -48z"/>
<path d="M8136 1325 c-9 -26 -7 -32 5 -12 6 10 9 21 6 23 -2 3 -7 -2 -11 -11z"/>
<path d="M8090 1230 c-105 -208 -281 -414 -452 -528 -68 -45 -88 -63 -45 -41
135 71 340 277 435 438 59 100 103 184 98 189 -3 2 -19 -24 -36 -58z"/>
<path d="M8407 1205 c-9 -19 -15 -35 -12 -35 7 0 37 61 33 66 -3 2 -12 -12
-21 -31z"/>
<path d="M4950 1191 c5 -11 15 -23 21 -27 6 -3 3 5 -6 20 -20 30 -30 35 -15 7z"/>
<path d="M5022 1088 c51 -73 214 -263 255 -298 16 -14 58 -50 94 -81 63 -54
164 -129 244 -180 50 -31 220 -119 232 -119 4 0 -39 25 -97 56 -286 153 -517
352 -708 612 -66 88 -80 96 -20 10z"/>
<path d="M8024 818 l-19 -23 23 19 c12 11 22 21 22 23 0 8 -8 2 -26 -19z"/>
<path d="M7935 723 c-131 -123 -236 -197 -430 -299 -126 -68 -113 -70 18 -4
161 82 327 202 442 319 69 71 54 63 -30 -16z"/>
<path d="M7535 640 c-3 -6 1 -7 9 -4 18 7 21 14 7 14 -6 0 -13 -4 -16 -10z"/>
<path d="M7480 610 c-9 -6 -10 -10 -3 -10 6 0 15 5 18 10 8 12 4 12 -15 0z"/>
<path d="M5720 561 c14 -11 30 -21 35 -21 11 0 -7 14 -40 31 -13 7 -12 3 5
-10z"/>
<path d="M5777 529 c7 -7 15 -10 18 -7 3 3 -2 9 -12 12 -14 6 -15 5 -6 -5z"/>
<path d="M6168 533 c7 -3 16 -2 19 1 4 3 -2 6 -13 5 -11 0 -14 -3 -6 -6z"/>
<path d="M6208 523 c7 -3 16 -2 19 1 4 3 -2 6 -13 5 -11 0 -14 -3 -6 -6z"/>
<path d="M5810 516 c0 -2 7 -7 16 -10 8 -3 12 -2 9 4 -6 10 -25 14 -25 6z"/>
<path d="M5870 485 c14 -8 30 -14 35 -14 6 0 -1 6 -15 14 -14 8 -29 14 -35 14
-5 0 1 -6 15 -14z"/>
<path d="M5925 463 c11 -12 137 -55 142 -49 2 2 -22 13 -54 24 -32 11 -67 23
-78 27 -14 5 -17 5 -10 -2z"/>
<path d="M5880 395 c14 -8 30 -14 35 -14 6 0 -1 6 -15 14 -14 8 -29 14 -35 14
-5 0 1 -6 15 -14z"/>
<path d="M6130 390 c30 -10 66 -19 80 -18 14 0 1 7 -30 15 -86 23 -110 24 -50
3z"/>
<path d="M6255 361 c32 -14 266 -43 310 -38 38 3 37 4 -10 6 -27 1 -93 8 -145
16 -177 26 -176 26 -155 16z"/>
<path d="M7335 345 c-27 -13 -45 -23 -40 -24 6 0 33 11 60 24 28 13 46 23 40
24 -5 0 -32 -11 -60 -24z"/>
<path d="M7240 310 c-18 -12 -2 -12 25 0 13 6 15 9 5 9 -8 0 -22 -4 -30 -9z"/>
</g>
</svg>
