<?xml version="1.0" standalone="no"?>
<!DOCTYPE svg PUBLIC "-//W3C//DTD SVG 20010904//EN"
 "http://www.w3.org/TR/2001/REC-SVG-20010904/DTD/svg10.dtd">
<svg version="1.0" xmlns="http://www.w3.org/2000/svg"
 width="1792.000000pt" height="2400.000000pt" viewBox="0 0 1792.000000 2400.000000"
 preserveAspectRatio="xMidYMid meet">

<g transform="translate(0.000000,2400.000000) scale(0.100000,-0.100000)"
fill="#000000" stroke="none">
<path d="M8735 23296 c-98 -16 -155 -34 -305 -98 -131 -56 -208 -97 -263 -142
-55 -44 -172 -179 -224 -259 -145 -221 -190 -549 -136 -981 3 -30 2 -47 -3
-43 -18 11 -73 -25 -88 -58 -32 -67 -15 -190 55 -401 49 -147 95 -241 132
-268 16 -12 44 -20 69 -21 l42 -1 27 -109 c35 -136 70 -221 125 -295 l42 -58
12 -169 c14 -192 4 -314 -32 -411 -31 -84 -131 -179 -274 -259 -169 -95 -447
-228 -564 -268 -58 -20 -199 -56 -315 -81 -286 -60 -371 -85 -504 -150 -102
-50 -124 -66 -206 -147 -107 -107 -157 -186 -216 -342 -50 -133 -112 -371
-135 -526 -24 -152 -24 -463 0 -705 21 -211 18 -241 -44 -589 -55 -305 -85
-511 -115 -785 -45 -408 -58 -454 -225 -795 -154 -314 -215 -467 -290 -734
-30 -108 -40 -157 -155 -739 -90 -456 -149 -656 -352 -1197 l-98 -260 -70 -48
c-91 -62 -259 -201 -360 -299 -61 -58 -93 -99 -135 -174 -30 -54 -84 -137
-119 -184 -35 -47 -81 -121 -102 -164 -22 -43 -61 -102 -87 -130 -72 -76 -86
-100 -72 -126 15 -28 68 -50 122 -50 93 0 241 102 299 206 34 59 143 182 154
173 9 -10 -49 -288 -100 -478 -43 -159 -62 -242 -104 -461 -41 -212 -37 -288
16 -329 31 -25 54 -26 99 -5 43 21 84 102 120 239 68 261 156 535 162 505 1
-9 -9 -58 -23 -110 -37 -138 -70 -280 -94 -405 -12 -60 -29 -141 -37 -180 -9
-40 -14 -101 -12 -142 3 -59 8 -76 27 -97 53 -56 134 -39 172 37 12 23 41 114
64 202 23 88 60 228 83 310 22 83 46 175 53 205 7 30 15 48 16 39 4 -18 -56
-334 -93 -484 -13 -55 -24 -120 -24 -143 0 -97 59 -149 133 -118 40 16 60 43
87 115 22 57 141 519 171 661 11 52 23 98 27 102 13 13 2 -204 -19 -353 -21
-155 -18 -212 17 -250 19 -21 73 -26 105 -9 47 26 91 175 139 475 34 206 40
236 99 460 68 261 76 323 76 580 0 127 4 241 9 255 24 70 208 495 276 635 77
162 112 228 370 705 213 393 274 532 467 1060 90 247 111 322 124 460 33 358
28 332 143 712 68 225 126 458 156 628 14 76 19 94 25 88 2 -2 22 -116 45
-253 22 -138 60 -358 85 -490 72 -392 79 -452 80 -655 0 -231 -5 -250 -162
-560 -219 -433 -253 -517 -318 -785 -19 -77 -55 -201 -80 -275 -58 -170 -98
-331 -130 -532 -14 -86 -43 -241 -64 -345 -108 -514 -137 -801 -128 -1247 10
-517 64 -842 322 -1941 157 -670 253 -1019 350 -1270 47 -124 61 -187 75 -360
30 -366 38 -769 20 -970 -6 -60 -33 -265 -60 -455 -65 -455 -74 -563 -67 -849
5 -257 22 -380 93 -706 41 -190 174 -703 279 -1080 251 -896 293 -1128 245
-1355 -24 -117 -22 -184 10 -297 l19 -65 -38 -77 c-21 -42 -53 -112 -71 -156
-50 -122 -90 -175 -256 -338 -171 -168 -201 -215 -210 -320 -7 -78 15 -127 62
-141 20 -6 35 -19 42 -38 12 -34 63 -58 122 -58 22 0 40 -4 40 -8 0 -4 14 -16
31 -26 22 -13 46 -17 94 -14 49 2 67 -1 82 -15 45 -40 168 -39 223 2 24 17 31
18 37 7 4 -8 25 -24 46 -36 94 -55 269 -28 352 55 24 23 48 59 53 79 6 20 23
47 39 60 16 13 42 48 58 78 30 53 30 53 27 203 l-2 149 54 56 c93 94 105 157
61 330 -56 222 -57 225 -34 362 25 152 21 210 -26 348 -83 245 -100 374 -92
690 8 266 49 769 83 995 115 779 118 804 117 1050 0 238 -12 354 -75 725 -39
224 -42 260 -42 415 l0 170 66 256 c37 141 76 307 87 370 49 272 70 617 71
1174 1 548 15 762 85 1290 96 723 105 821 106 1085 1 225 -12 376 -47 544 -14
65 -23 120 -21 122 2 2 28 0 57 -6 69 -13 156 -13 220 1 28 6 53 9 55 7 3 -2
-4 -40 -15 -84 -43 -182 -54 -298 -54 -564 0 -284 9 -387 79 -910 94 -699 105
-818 105 -1200 1 -379 17 -1010 30 -1130 20 -196 52 -364 120 -640 38 -151 74
-313 81 -359 16 -111 7 -242 -31 -471 -62 -373 -81 -522 -87 -715 -8 -249 5
-376 102 -1015 62 -409 98 -849 98 -1195 1 -296 -10 -367 -84 -586 -56 -166
-59 -207 -33 -367 19 -117 15 -178 -25 -332 -52 -200 -40 -274 61 -372 l49
-47 -7 -130 c-9 -163 1 -203 66 -275 27 -28 55 -69 64 -91 36 -86 127 -143
242 -153 75 -6 161 17 193 52 l23 25 28 -21 c55 -40 158 -41 216 -3 20 13 49
18 100 19 60 1 76 5 96 24 16 15 37 22 62 22 52 0 102 26 116 60 8 19 22 31
41 35 43 10 62 46 62 115 -1 117 -43 190 -180 316 -131 121 -220 226 -255 304
-17 36 -55 118 -86 182 l-56 118 19 57 c26 82 31 223 11 311 -20 90 -20 224 0
361 18 125 139 605 258 1026 168 596 300 1152 343 1440 13 90 17 185 18 380 0
290 -3 326 -77 830 -37 260 -52 394 -57 524 -11 322 17 873 54 1054 9 42 29
108 45 148 101 245 275 913 489 1874 141 638 185 981 185 1455 1 412 -23 612
-147 1225 -24 121 -52 267 -61 325 -21 134 -67 317 -112 445 -19 55 -55 179
-79 275 -73 290 -111 383 -328 811 -58 113 -118 243 -133 290 -27 79 -28 94
-28 244 1 181 13 277 84 670 27 149 65 371 85 495 20 124 39 234 43 244 6 13
17 -27 36 -125 36 -193 70 -323 165 -645 92 -314 96 -332 116 -564 18 -216 38
-299 145 -585 45 -121 101 -273 125 -337 84 -228 176 -413 440 -893 115 -208
312 -598 354 -700 18 -44 62 -148 97 -232 107 -251 106 -248 93 -380 -20 -191
13 -439 96 -733 19 -69 44 -186 56 -260 24 -161 72 -405 94 -476 31 -104 85
-154 145 -133 59 21 76 121 45 269 -18 84 -31 373 -17 350 6 -8 18 -53 27
-100 28 -143 154 -629 178 -688 38 -97 120 -131 178 -73 26 27 29 35 29 99 0
42 -12 119 -29 193 -44 185 -83 387 -79 407 3 9 10 -5 16 -33 7 -27 29 -113
51 -190 42 -152 96 -350 117 -431 18 -69 52 -116 96 -132 44 -17 79 -4 112 41
28 37 26 136 -4 267 -11 52 -32 154 -45 225 -13 72 -39 186 -58 255 -47 172
-51 196 -26 140 24 -53 98 -289 140 -445 64 -238 113 -305 203 -275 68 22 83
119 47 293 -11 50 -27 133 -36 182 -9 50 -39 178 -66 285 -54 208 -109 460
-109 500 0 22 5 20 56 -30 30 -30 71 -80 90 -112 40 -65 137 -158 197 -190 32
-17 60 -22 114 -23 62 0 75 3 97 24 14 14 26 33 26 43 0 10 -30 51 -67 90 -43
47 -78 98 -98 143 -18 39 -59 106 -93 150 -33 44 -85 125 -117 180 -32 55 -66
112 -76 126 -29 41 -287 265 -380 329 -112 78 -123 89 -142 141 -9 24 -61 166
-116 314 -173 469 -230 668 -312 1084 -116 594 -139 698 -189 856 -70 220
-124 354 -250 610 -173 353 -182 385 -225 755 -40 348 -61 494 -116 801 -60
340 -67 449 -45 678 39 398 9 717 -100 1063 -81 257 -170 402 -314 513 -138
107 -290 164 -612 231 -122 25 -251 55 -287 66 -99 31 -330 131 -476 207 -405
212 -464 289 -465 609 0 73 5 176 11 228 9 88 13 99 50 147 50 66 91 164 125
300 25 100 28 106 49 101 33 -8 89 19 119 59 28 37 88 187 132 332 22 72 27
111 28 197 1 99 -1 108 -23 132 -13 14 -37 28 -53 31 -24 6 -29 11 -24 28 17
70 28 268 23 416 -12 351 -88 539 -310 765 -84 86 -116 111 -182 144 -142 70
-318 139 -400 157 -107 23 -391 29 -500 11z m325 -16 c159 -12 240 -33 420
-109 155 -66 221 -105 286 -168 66 -64 167 -187 202 -246 45 -74 99 -229 119
-340 20 -113 22 -399 3 -537 -11 -84 -17 -103 -54 -158 -39 -60 -41 -62 -44
-35 -8 79 -37 209 -68 306 -20 59 -44 158 -54 219 -26 152 -43 204 -88 273
-78 121 -214 214 -362 249 -80 19 -231 20 -365 2 -84 -12 -117 -12 -205 0
-208 27 -357 14 -475 -42 -130 -61 -241 -175 -284 -289 -12 -31 -30 -108 -42
-173 -11 -64 -38 -171 -59 -237 -21 -67 -46 -169 -56 -229 -17 -105 -18 -107
-32 -79 -8 15 -25 39 -37 53 -35 38 -49 151 -50 400 0 172 4 232 18 300 41
191 97 310 206 442 139 168 198 209 449 312 142 59 208 76 335 85 56 5 104 9
107 9 3 1 61 -3 130 -8z m-228 -561 c113 -12 165 -10 336 10 211 26 407 -40
543 -181 74 -79 106 -151 136 -314 14 -76 40 -187 59 -246 76 -243 87 -426 40
-653 -60 -286 -125 -528 -166 -610 -60 -121 -161 -230 -355 -384 -179 -143
-266 -175 -465 -175 -171 0 -240 19 -367 102 -238 157 -425 353 -483 510 -28
74 -146 562 -160 659 -24 176 -6 349 60 558 21 66 45 165 54 220 23 138 50
215 100 283 100 135 243 216 411 231 86 8 83 8 257 -10z m-976 -1001 c38 -45
53 -88 60 -161 l5 -62 -36 66 c-20 36 -49 81 -65 100 -29 34 -29 34 -29 9 -1
-16 2 -21 7 -12 6 8 22 -12 50 -60 57 -101 67 -131 53 -169 -16 -47 -13 -91 9
-119 29 -37 26 -64 -5 -58 -13 3 -22 1 -19 -3 9 -15 44 -10 51 8 4 9 -3 33
-15 54 -26 44 -28 87 -7 115 14 18 14 18 15 -4 0 -13 16 -95 35 -183 19 -88
35 -167 35 -175 0 -19 -49 -18 -78 1 -48 34 -109 179 -163 383 -38 149 -40
242 -4 277 34 35 67 32 101 -7z m2302 9 c12 -13 25 -37 28 -55 10 -50 -14
-183 -58 -320 -71 -225 -117 -302 -179 -302 -36 0 -40 9 -28 53 5 19 23 102
40 183 16 82 31 150 34 152 2 2 9 -15 16 -37 7 -23 14 -39 16 -37 3 2 -1 21
-7 43 -6 21 -14 75 -16 120 -4 68 -2 90 15 127 39 90 96 119 139 73z m-1663
-1418 c176 -132 278 -169 463 -169 234 0 352 58 635 314 l88 79 -8 -84 c-12
-131 -9 -347 6 -409 40 -163 139 -254 461 -423 273 -144 463 -213 729 -267
249 -51 383 -90 496 -146 221 -107 347 -269 444 -566 113 -350 145 -681 105
-1089 -20 -200 -14 -333 21 -529 63 -349 78 -445 120 -785 68 -548 67 -548
245 -915 219 -452 291 -676 384 -1181 116 -629 185 -882 396 -1444 122 -327
112 -309 194 -362 84 -54 130 -91 292 -235 119 -105 146 -139 214 -263 18 -33
61 -99 96 -146 64 -86 144 -234 144 -266 0 -14 2 -15 9 -5 6 10 22 -2 60 -44
28 -32 51 -63 51 -69 0 -7 -9 -20 -19 -29 -29 -27 -111 -23 -174 8 -65 31
-158 119 -187 175 -21 42 -169 205 -200 221 -8 4 -35 4 -60 0 -35 -6 -38 -8
-15 -9 64 -3 75 -10 75 -51 0 -57 43 -264 115 -550 106 -427 136 -624 102
-690 -9 -18 -22 -26 -46 -28 -62 -6 -100 55 -147 236 -28 109 -159 524 -175
553 -13 26 -27 24 -41 -7 -10 -21 -7 -43 14 -127 66 -258 88 -355 122 -532 40
-211 42 -240 22 -290 -27 -63 -98 -57 -138 12 -11 17 -32 82 -47 145 -16 62
-45 167 -64 233 -19 66 -54 198 -78 294 -30 122 -49 182 -65 200 -40 47 -45
18 -19 -134 13 -77 40 -214 60 -305 20 -91 43 -196 51 -235 26 -117 3 -185
-61 -185 -32 0 -62 24 -83 65 -20 41 -127 456 -186 726 -18 81 -34 112 -68
130 -20 11 -20 10 -13 -158 4 -92 13 -202 21 -243 8 -41 14 -108 14 -147 0
-79 -18 -113 -60 -113 -65 0 -112 149 -175 555 -14 94 -37 206 -50 250 -33
110 -81 323 -96 425 -13 85 -17 277 -10 420 4 85 5 84 -152 455 -111 263 -221
482 -469 935 -221 403 -278 525 -413 885 -184 489 -205 567 -225 815 -15 194
-26 245 -114 542 -120 410 -211 812 -207 918 1 25 17 86 36 135 66 177 79 326
48 555 -21 156 -14 200 61 406 64 176 90 298 33 154 -19 -47 -46 -113 -60
-147 -15 -34 -38 -99 -51 -144 l-23 -82 -7 47 c-4 26 -9 46 -12 44 -2 -3 8
-90 22 -194 45 -324 24 -523 -74 -709 -44 -84 -170 -214 -255 -264 -142 -83
-336 -121 -519 -102 -287 31 -493 125 -680 312 -113 112 -114 99 -2 -20 132
-140 293 -232 503 -289 84 -22 117 -25 266 -26 137 -1 184 3 240 18 151 40
274 113 374 222 38 42 61 61 61 50 0 -39 -75 -502 -126 -781 -63 -340 -90
-528 -100 -696 -12 -211 15 -305 186 -644 202 -398 244 -502 300 -740 17 -71
50 -189 75 -261 66 -197 120 -424 145 -607 5 -43 30 -171 54 -285 76 -354 99
-500 121 -772 32 -386 9 -832 -66 -1275 -67 -396 -338 -1563 -464 -2000 -87
-300 -152 -481 -225 -626 -17 -32 -28 -59 -25 -59 2 0 18 27 35 60 17 33 33
60 36 60 3 0 3 -4 0 -8 -9 -14 -34 -284 -47 -494 -6 -112 -9 -307 -6 -450 4
-235 8 -278 55 -608 28 -195 57 -402 64 -460 18 -142 18 -625 0 -745 -51 -341
-205 -972 -412 -1695 -64 -224 -158 -600 -180 -721 -34 -189 -36 -296 -10
-434 24 -127 22 -180 -7 -289 l-16 -59 -24 29 c-14 17 1 -22 37 -96 34 -68 79
-163 100 -211 53 -122 78 -155 252 -330 168 -168 194 -207 203 -305 7 -71 -8
-108 -47 -112 -21 -3 -27 2 -33 25 -10 34 -10 34 -20 58 -14 33 -79 124 -93
130 -16 6 -9 -6 29 -55 30 -38 69 -139 69 -178 0 -38 -18 -60 -55 -71 -37 -10
-75 -5 -75 11 0 23 -104 218 -127 239 -24 22 -24 20 5 -23 18 -26 32 -50 32
-55 0 -4 16 -41 37 -80 46 -90 41 -120 -23 -142 -58 -20 -112 -8 -120 27 -4
15 -15 38 -24 52 -10 14 -37 64 -60 112 -23 47 -49 93 -58 102 -18 16 73 -180
96 -207 7 -8 17 -29 22 -46 7 -26 5 -36 -14 -58 -19 -22 -33 -27 -82 -31 -50
-3 -64 0 -94 20 -30 21 -36 31 -41 76 -8 60 -21 84 -79 138 -23 21 -51 53 -62
69 -18 27 -19 28 -12 5 9 -33 22 -50 67 -90 182 -159 -46 -326 -276 -202 -56
30 -79 59 -98 120 -8 28 -21 47 -34 52 -28 11 -71 75 -85 129 -9 32 -9 70 0
153 12 109 3 279 -10 198 l-5 -35 -51 51 c-40 39 -54 61 -63 102 -14 58 -11
91 26 232 32 127 34 131 44 95 15 -53 0 124 -22 260 -23 150 -20 179 44 361
66 185 72 240 72 599 -1 393 -33 804 -90 1153 -85 519 -109 763 -102 1021 6
226 17 315 79 681 36 208 42 266 42 385 l0 140 -76 310 c-141 570 -144 604
-158 1580 -5 352 -14 687 -20 745 -6 58 -37 305 -70 550 -88 664 -95 738 -95
1030 0 270 7 349 52 560 25 123 27 126 69 163 24 21 71 75 105 120 34 45 50
71 34 57 -26 -23 -27 -23 -16 -3 23 45 10 36 -26 -17 -63 -96 -110 -145 -165
-176 -51 -28 -58 -29 -183 -29 -114 0 -135 3 -170 21 -48 26 -128 109 -174
182 -32 51 -52 72 -31 33 17 -32 11 -36 -17 -10 -48 44 71 -105 133 -166 l61
-60 26 -135 c42 -215 51 -311 50 -545 -1 -247 -10 -350 -84 -915 -27 -212 -56
-434 -64 -495 -28 -216 -36 -409 -45 -1035 -12 -849 -23 -956 -156 -1481 l-67
-264 -1 -160 c0 -141 4 -185 37 -370 116 -660 114 -867 -13 -1671 -89 -559
-130 -1311 -86 -1569 9 -55 39 -166 66 -247 56 -165 61 -212 35 -358 -16 -89
-30 -313 -16 -250 9 41 10 39 45 -96 46 -178 30 -277 -55 -345 l-39 -31 0 38
c0 20 -3 34 -7 30 -5 -4 -8 -99 -8 -211 l0 -203 -30 -44 c-17 -23 -40 -47 -52
-53 -14 -6 -26 -26 -34 -54 -28 -98 -130 -163 -259 -164 -117 0 -189 58 -177
145 4 31 18 53 66 103 78 81 79 99 2 26 -70 -66 -83 -90 -91 -156 -4 -42 -10
-53 -39 -72 -61 -41 -184 -21 -197 31 -3 15 19 69 70 172 41 82 65 137 53 122
-27 -34 -147 -264 -147 -283 0 -24 -83 -30 -127 -9 -51 26 -55 62 -14 140 17
31 31 62 31 69 0 6 19 38 41 71 37 53 38 56 11 30 -27 -25 -120 -196 -136
-248 -4 -13 -16 -18 -41 -18 -46 0 -73 15 -85 46 -13 33 24 146 67 203 18 24
33 49 33 55 0 14 -67 -63 -75 -86 -4 -10 -10 -18 -15 -18 -4 0 -7 -8 -6 -17 0
-10 -9 -20 -24 -24 -16 -4 -19 -7 -7 -8 19 -1 20 -5 11 -38 -9 -32 -49 -30
-70 2 -25 38 -15 150 18 206 13 23 95 112 180 198 162 163 205 220 253 336 15
39 55 124 87 190 33 66 50 109 39 95 -23 -29 -23 -29 -46 70 -20 89 -19 153 6
273 25 118 22 196 -12 397 -22 135 -105 468 -199 805 -144 517 -174 629 -248
930 -130 523 -165 749 -165 1060 0 252 21 449 120 1125 31 205 18 859 -22
1215 l-6 50 21 -38 c27 -50 36 -48 10 3 -32 62 -135 335 -168 445 -173 567
-478 1885 -541 2335 -42 302 -46 359 -46 740 1 468 19 642 110 1065 19 88 50
253 70 366 39 234 86 429 145 604 22 66 60 199 84 295 56 226 80 284 263 648
185 368 204 420 210 597 8 193 -13 354 -112 885 -24 129 -58 330 -75 445 -17
116 -33 222 -36 238 -8 39 6 33 49 -23 73 -95 225 -189 374 -232 68 -20 99
-23 253 -22 156 1 186 4 273 27 239 64 485 230 582 392 16 27 14 26 -11 -5
-161 -196 -384 -327 -641 -376 -120 -23 -305 -23 -408 0 -163 36 -325 136
-420 260 -90 117 -136 243 -155 422 -12 109 -8 170 21 382 11 79 18 153 16
165 -4 19 -4 18 -6 -5 -2 -40 -18 -43 -24 -4 -3 19 -32 101 -65 182 -33 82
-65 166 -72 187 -6 21 -14 36 -16 34 -10 -10 27 -137 74 -262 69 -179 76 -224
57 -360 -21 -145 -21 -328 0 -430 9 -44 32 -120 52 -170 41 -107 41 -108 -11
-380 -43 -221 -71 -331 -167 -648 -85 -283 -105 -378 -119 -575 -15 -205 -42
-310 -180 -677 -154 -414 -239 -601 -438 -965 -201 -369 -296 -550 -360 -685
-65 -139 -224 -507 -259 -600 -12 -31 -16 -95 -18 -290 -2 -236 -3 -258 -32
-390 -16 -77 -46 -201 -66 -275 -20 -74 -52 -232 -72 -351 -40 -244 -65 -354
-98 -419 -42 -85 -109 -76 -123 17 -4 28 0 87 10 152 16 100 37 417 28 434 -2
4 -16 -2 -32 -13 -24 -17 -32 -34 -45 -98 -31 -140 -104 -435 -149 -597 -38
-138 -48 -163 -75 -187 -37 -33 -73 -36 -101 -8 -27 27 -27 115 -1 218 45 177
120 568 121 625 0 28 -29 19 -50 -15 -11 -18 -29 -73 -40 -123 -32 -141 -69
-281 -100 -385 -16 -52 -38 -135 -50 -185 -41 -180 -67 -225 -131 -225 -46 0
-69 40 -69 119 0 73 78 465 134 676 40 147 45 202 20 212 -11 4 -22 -1 -31
-12 -17 -24 -88 -243 -143 -440 -23 -82 -48 -172 -56 -200 -30 -108 -77 -156
-137 -141 -30 7 -47 48 -47 115 0 67 56 364 101 536 55 209 127 527 135 597 7
62 7 62 79 71 21 3 17 4 -14 6 -42 1 -44 2 -25 16 14 12 9 11 -18 -2 -44 -21
-192 -178 -231 -245 -33 -56 -124 -140 -184 -168 -52 -24 -139 -27 -171 -4
-12 8 -22 19 -22 24 0 14 111 135 121 132 5 -1 9 5 9 13 0 29 68 151 134 239
36 49 85 123 108 165 23 42 54 94 70 116 43 62 294 276 436 375 77 52 67 32
226 460 180 488 229 670 356 1340 103 540 172 750 394 1200 160 323 172 370
231 865 41 341 50 405 105 710 59 326 63 384 43 593 -21 230 -21 551 0 695 52
343 152 631 274 785 77 96 153 156 278 217 118 58 215 87 446 134 80 16 183
39 230 51 246 62 748 313 879 440 122 119 144 199 137 498 l-5 202 82 -77 c44
-42 122 -107 171 -144z"/>
<path d="M8264 21972 c-51 -18 -154 -86 -154 -102 0 -5 26 3 58 18 98 45 167
43 375 -14 146 -39 179 -45 192 -34 55 46 -22 87 -243 130 -125 24 -162 25
-228 2z m285 -28 c123 -29 191 -57 191 -78 0 -28 -26 -25 -210 25 -163 45
-259 53 -323 26 -48 -21 -38 -3 14 23 87 45 151 46 328 4z"/>
<path d="M9427 21975 c-114 -22 -238 -66 -254 -91 -12 -19 -12 -24 3 -38 20
-20 34 -18 199 32 105 32 133 37 220 37 87 0 108 -4 160 -28 l60 -27 -37 33
c-99 88 -196 111 -351 82z m210 -11 c27 -9 60 -25 73 -36 21 -16 22 -19 5 -13
-98 32 -175 26 -356 -30 -124 -38 -179 -44 -179 -20 0 31 105 70 265 99 106
19 134 19 192 0z"/>
<path d="M8361 21789 c-48 -14 -34 -20 19 -8 63 15 166 6 225 -19 31 -14 42
-16 30 -7 -50 39 -193 57 -274 34z"/>
<path d="M9365 21791 c-38 -9 -103 -40 -111 -53 -3 -5 17 3 46 17 36 18 78 29
134 34 76 8 77 8 21 9 -33 0 -73 -3 -90 -7z"/>
<path d="M9521 21786 c2 -2 18 -6 34 -10 22 -5 26 -4 15 4 -14 9 -59 15 -49 6z"/>
<path d="M8349 21736 c-41 -15 -89 -47 -110 -73 -7 -10 -9 -15 -5 -11 5 4 26
-8 47 -27 21 -18 55 -38 76 -44 53 -15 157 -13 228 4 33 8 75 14 93 15 17 0
32 4 32 9 0 5 -25 32 -56 60 -82 75 -206 103 -305 67z m16 -27 c-14 -21 -7
-81 12 -101 18 -21 18 -21 -15 -15 -44 9 -94 45 -90 66 2 9 23 26 48 39 51 25
54 26 45 11z m166 1 c46 -25 7 -114 -55 -126 -38 -7 -90 15 -100 41 -10 27 -7
70 6 83 15 15 122 16 149 2z m65 -13 c26 -15 97 -77 93 -81 -5 -3 -133 -26
-147 -26 -5 0 -1 17 9 37 11 21 16 46 13 60 -7 26 1 28 32 10z"/>
<path d="M8435 21698 c-4 -9 -5 -25 -3 -35 4 -24 51 -25 56 0 2 9 -2 17 -9 17
-6 0 -18 8 -25 18 -12 16 -13 16 -19 0z"/>
<path d="M9356 21734 c-33 -10 -64 -31 -97 -64 -54 -54 -60 -70 -26 -70 12 0
54 -7 92 -15 139 -29 254 -15 307 39 18 17 35 30 40 29 4 -2 8 2 8 7 0 15 -87
68 -130 80 -50 14 -137 11 -194 -6z m167 -26 c14 -7 17 -19 15 -51 -3 -35 -8
-44 -37 -61 -31 -18 -37 -18 -75 -5 -75 26 -90 108 -23 128 34 10 90 6 120
-11z m95 -20 c17 -11 32 -23 32 -27 0 -21 -78 -71 -110 -71 -6 0 -2 15 7 34
12 27 14 40 5 66 -11 30 -10 31 11 24 12 -3 37 -15 55 -26z m-249 -82 c17 -20
4 -20 -87 -3 l-63 12 33 32 c18 17 47 39 63 47 l30 16 5 -44 c3 -24 12 -51 19
-60z"/>
<path d="M9423 21684 c-9 -24 5 -46 29 -42 32 4 33 31 3 45 -21 9 -27 9 -32
-3z"/>
<path d="M9052 21625 c0 -16 2 -22 5 -12 2 9 2 23 0 30 -3 6 -5 -1 -5 -18z"/>
<path d="M9043 21515 c0 -38 2 -53 4 -32 2 20 2 52 0 70 -2 17 -4 1 -4 -38z"/>
<path d="M8726 21150 c-6 -31 5 -74 23 -84 6 -4 4 8 -3 26 -8 18 -12 45 -9 61
3 15 3 27 0 27 -2 0 -7 -14 -11 -30z"/>
<path d="M9176 21149 c4 -21 1 -46 -7 -60 -11 -22 -11 -23 4 -10 18 15 22 67
7 91 -6 10 -8 4 -4 -21z"/>
<path d="M8800 21090 c0 -5 13 -10 30 -10 16 0 44 -9 62 -20 42 -25 83 -25
131 0 20 11 48 20 62 20 14 0 25 5 25 10 0 18 -37 11 -87 -16 -55 -29 -97 -28
-140 5 -26 22 -83 29 -83 11z"/>
<path d="M8815 20845 c-41 -14 -156 -74 -144 -75 4 0 41 16 83 36 69 33 82 36
134 30 75 -8 69 -8 133 0 50 6 63 3 138 -30 46 -20 85 -35 87 -33 2 2 -32 21
-76 41 -58 28 -91 37 -122 36 -104 -4 -125 -4 -158 3 -22 4 -50 1 -75 -8z"/>
<path d="M8685 20750 c-86 -7 -84 -7 55 -9 195 -2 260 -3 430 0 l145 1 -115 9
c-80 7 -137 6 -185 -2 -52 -8 -81 -8 -110 0 -42 11 -71 11 -220 1z"/>
<path d="M9155 20635 c-108 -52 -282 -54 -391 -5 -65 28 -53 13 14 -18 52 -25
68 -27 177 -27 114 0 123 2 188 32 37 18 67 34 67 37 0 7 5 9 -55 -19z"/>
<path d="M7782 21608 c-1 -20 -5 -45 -8 -55 -5 -14 -4 -15 5 -7 7 7 11 29 8
55 -3 42 -4 42 -5 7z"/>
<path d="M7782 21500 c0 -19 2 -27 5 -17 2 9 2 25 0 35 -3 9 -5 1 -5 -18z"/>
<path d="M10088 21658 c-26 -34 -78 -131 -78 -145 0 -4 19 24 41 62 22 39 50
80 62 93 11 12 16 22 10 22 -6 0 -22 -15 -35 -32z"/>
<path d="M10122 21630 c0 -19 3 -57 8 -85 7 -49 7 -49 8 -10 0 22 -3 60 -7 85
-8 41 -9 42 -9 10z"/>
<path d="M10121 21464 c0 -11 3 -14 6 -6 3 7 2 16 -1 19 -3 4 -6 -2 -5 -13z"/>
<path d="M9992 21312 c-28 -42 -25 -66 8 -69 25 -3 25 -3 3 7 -29 12 -29 23
-1 60 12 16 20 32 17 34 -2 2 -14 -12 -27 -32z"/>
<path d="M8602 19750 c0 -8 8 -37 18 -65 10 -27 18 -43 18 -35 0 8 -8 38 -18
65 -10 28 -18 43 -18 35z"/>
<path d="M7355 19320 c131 -9 159 -14 345 -59 231 -56 288 -63 595 -71 327 -8
357 -14 396 -76 27 -45 21 -69 -37 -133 -47 -52 -49 -73 -2 -23 37 38 68 93
68 119 0 12 -12 36 -27 54 -50 58 -70 62 -383 70 -310 8 -382 17 -665 84 -121
29 -175 37 -280 40 l-130 4 120 -9z"/>
<path d="M10438 19319 c-31 -4 -124 -24 -207 -44 -255 -59 -313 -66 -631 -74
-241 -6 -301 -10 -325 -23 -65 -35 -94 -92 -70 -141 25 -52 78 -106 110 -112
l30 -6 -30 14 c-33 15 -77 62 -100 108 -17 33 -9 63 26 96 45 41 74 45 379 53
321 8 356 13 644 81 124 30 205 43 296 48 125 8 125 8 30 8 -52 0 -121 -3
-152 -8z"/>
<path d="M7158 19313 c12 -2 30 -2 40 0 9 3 -1 5 -23 4 -22 0 -30 -2 -17 -4z"/>
<path d="M10718 19313 c12 -2 30 -2 40 0 9 3 -1 5 -23 4 -22 0 -30 -2 -17 -4z"/>
<path d="M7088 19303 c6 -2 18 -2 25 0 6 3 1 5 -13 5 -14 0 -19 -2 -12 -5z"/>
<path d="M10808 19303 c7 -3 16 -2 19 1 4 3 -2 6 -13 5 -11 0 -14 -3 -6 -6z"/>
<path d="M7160 19200 c-52 -6 -43 -7 45 -4 162 5 279 -10 485 -66 226 -61 320
-77 509 -90 198 -13 248 -27 327 -86 46 -36 53 -29 8 7 -79 64 -141 80 -387
99 -149 11 -268 33 -447 82 -63 17 -142 37 -175 44 -74 17 -278 25 -365 14z"/>
<path d="M10455 19200 c-33 -6 -127 -28 -208 -50 -208 -57 -322 -79 -467 -91
-273 -21 -324 -34 -400 -100 -39 -34 -23 -29 27 9 54 40 142 61 305 72 170 11
285 29 421 65 50 14 135 36 187 50 143 38 255 48 417 36 153 -12 208 -12 123
-1 -99 14 -344 19 -405 10z"/>
<path d="M10930 19200 c-9 -6 -10 -10 -3 -10 6 0 15 5 18 10 8 12 4 12 -15 0z"/>
<path d="M7028 19183 c12 -2 30 -2 40 0 9 3 -1 5 -23 4 -22 0 -30 -2 -17 -4z"/>
<path d="M9012 19063 c-12 -8 -37 -19 -55 -23 l-32 -8 32 -1 c21 -1 42 8 60
24 32 28 29 32 -5 8z"/>
<path d="M8897 19049 c7 -7 15 -10 18 -7 3 3 -2 9 -12 12 -14 6 -15 5 -6 -5z"/>
<path d="M10668 18805 c33 -38 85 -109 116 -157 31 -49 58 -88 61 -88 14 0
-119 190 -173 248 l-64 67 60 -70z"/>
<path d="M7235 18803 c-21 -27 -28 -39 -16 -28 23 19 66 75 59 75 -2 0 -21
-21 -43 -47z"/>
<path d="M7159 18707 c-36 -51 -86 -136 -72 -122 15 14 112 165 107 165 -2 0
-18 -19 -35 -43z"/>
<path d="M6694 17868 l-19 -23 23 19 c21 18 27 26 19 26 -2 0 -12 -10 -23 -22z"/>
<path d="M11255 17830 c10 -11 20 -20 23 -20 3 0 -3 9 -13 20 -10 11 -20 20
-23 20 -3 0 3 -9 13 -20z"/>
<path d="M6550 17747 c-58 -52 -120 -114 -139 -138 -21 -26 6 -5 65 53 54 53
119 114 144 137 25 22 43 41 40 41 -3 0 -52 -42 -110 -93z"/>
<path d="M11359 17743 c36 -34 95 -93 130 -130 45 -48 52 -54 23 -18 -41 51
-132 140 -188 185 -17 14 -1 -3 35 -37z"/>
<path d="M7705 17245 c20 -15 39 -24 42 -22 5 5 -60 47 -72 47 -4 0 9 -11 30
-25z"/>
<path d="M10435 17251 c66 -41 95 -92 95 -167 0 -83 -59 -159 -140 -182 -20
-6 -26 -10 -15 -11 33 -1 99 34 127 67 73 87 45 247 -52 297 -41 21 -51 19
-15 -4z"/>
<path d="M7431 17231 c-114 -107 -60 -309 89 -335 29 -5 25 -3 -17 14 -75 30
-123 97 -123 174 0 43 27 103 62 138 44 44 35 52 -11 9z"/>
<path d="M10182 17233 c-24 -24 -24 -25 -2 -8 42 33 44 35 37 35 -4 0 -19 -12
-35 -27z"/>
<path d="M7532 17160 c-27 -11 -55 -71 -45 -97 13 -38 36 -53 78 -53 23 0 50
7 61 16 19 15 19 16 -1 8 -11 -4 -38 -8 -60 -8 -32 -1 -42 4 -54 25 -20 36 -7
75 32 99 33 21 28 25 -11 10z"/>
<path d="M10345 17163 c58 -14 86 -91 47 -126 -23 -21 -70 -22 -102 -1 l-25
16 24 -21 c35 -31 94 -28 120 5 12 15 21 38 21 51 0 32 -51 83 -82 82 -20 -1
-21 -2 -3 -6z"/>
<path d="M7775 17001 c-3 -11 -25 -37 -48 -57 -39 -34 -39 -35 -9 -18 33 19
79 80 69 90 -3 3 -8 -4 -12 -15z"/>
<path d="M10138 16985 c11 -22 48 -58 72 -69 8 -4 4 1 -10 13 -14 11 -35 32
-48 48 -14 16 -19 19 -14 8z"/>
<path d="M10630 16227 c-36 -34 -81 -75 -100 -90 l-35 -29 41 29 c46 32 95 74
138 121 48 52 26 36 -44 -31z"/>
<path d="M7264 16233 c27 -29 70 -66 95 -83 l46 -32 -40 34 c-22 18 -65 55
-95 83 l-55 49 49 -51z"/>
<path d="M8535 15962 c-55 -54 -127 -122 -160 -151 -44 -40 -48 -45 -15 -20
44 33 290 268 280 269 -3 0 -50 -44 -105 -98z"/>
<path d="M9414 15924 c72 -71 147 -140 166 -153 27 -18 25 -14 -10 15 -25 21
-99 90 -166 153 l-120 116 130 -131z"/>
<path d="M7240 15990 c11 -16 26 -33 32 -36 7 -4 -1 9 -16 29 -34 44 -46 50
-16 7z"/>
<path d="M10649 15973 c-13 -16 -12 -17 4 -4 16 13 21 21 13 21 -2 0 -10 -8
-17 -17z"/>
<path d="M5990 15626 c0 -10 70 -146 75 -146 3 0 -11 33 -31 73 -38 74 -44 85
-44 73z"/>
<path d="M11873 15537 c-24 -45 -36 -73 -27 -62 19 24 77 136 72 140 -2 2 -22
-33 -45 -78z"/>
<path d="M6010 15280 c8 -5 20 -10 25 -10 6 0 3 5 -5 10 -8 5 -19 10 -25 10
-5 0 -3 -5 5 -10z"/>
<path d="M11798 15239 c-54 -27 -98 -51 -98 -54 0 -5 199 92 209 101 15 14
-27 -4 -111 -47z"/>
<path d="M8906 14219 c-14 -11 -26 -29 -26 -40 0 -18 3 -17 25 9 14 16 37 33
51 36 59 15 101 -54 70 -115 -20 -40 -20 -45 -1 -29 39 32 36 128 -5 150 -31
17 -86 11 -114 -11z"/>
<path d="M9922 14200 c0 -19 2 -27 5 -17 2 9 2 25 0 35 -3 9 -5 1 -5 -18z"/>
<path d="M7983 14165 c0 -22 2 -30 4 -17 2 12 2 30 0 40 -3 9 -5 -1 -4 -23z"/>
<path d="M9937 14025 c7 -171 -13 -317 -76 -565 -63 -247 -65 -253 -46 -205
27 68 104 395 120 505 16 112 18 237 5 335 -5 39 -6 14 -3 -70z"/>
<path d="M7966 14026 c-6 -89 6 -249 24 -326 12 -50 12 -15 0 55 -6 33 -10
129 -10 213 0 83 -2 152 -4 152 -2 0 -6 -42 -10 -94z"/>
<path d="M8002 13640 c0 -14 2 -19 5 -12 2 6 2 18 0 25 -3 6 -5 1 -5 -13z"/>
<path d="M8011 13594 c0 -11 3 -14 6 -6 3 7 2 16 -1 19 -3 4 -6 -2 -5 -13z"/>
<path d="M6969 13584 c14 -30 101 -106 201 -176 47 -33 110 -83 140 -112 42
-39 38 -34 -15 22 -38 41 -83 81 -100 89 -49 26 -178 128 -208 164 -15 19 -23
24 -18 13z"/>
<path d="M10904 13549 c-35 -37 -176 -145 -201 -154 -10 -3 -31 -22 -47 -42
-28 -33 -25 -32 40 16 125 93 209 162 227 187 25 33 17 30 -19 -7z"/>
<path d="M8021 13560 c-1 -18 67 -281 74 -288 3 -3 5 -1 4 4 -1 21 -77 298
-78 284z"/>
<path d="M10539 13233 c-13 -16 -12 -17 4 -4 16 13 21 21 13 21 -2 0 -10 -8
-17 -17z"/>
<path d="M7391 13192 c17 -29 34 -52 36 -52 7 0 -41 81 -55 92 -7 7 1 -12 19
-40z"/>
<path d="M10510 13190 c-6 -11 -8 -20 -6 -20 3 0 10 9 16 20 6 11 8 20 6 20
-3 0 -10 -9 -16 -20z"/>
<path d="M7500 12966 c0 -5 16 -41 35 -80 47 -95 164 -231 315 -367 69 -62
190 -178 270 -258 79 -80 126 -123 103 -96 -74 89 -205 219 -364 363 -169 152
-263 263 -321 375 -20 40 -37 68 -38 63z"/>
<path d="M10368 12887 c-39 -79 -137 -195 -261 -310 -157 -143 -397 -384 -437
-437 -41 -55 -30 -45 95 90 54 58 174 175 268 260 181 164 290 288 339 384 16
32 28 60 26 62 -2 2 -16 -20 -30 -49z"/>
<path d="M12930 11964 c0 -23 60 -103 123 -160 66 -62 191 -134 231 -134 11 1
-2 9 -31 19 -105 36 -243 147 -294 236 -16 28 -29 45 -29 39z"/>
<path d="M4970 11953 c0 -20 -74 -110 -125 -152 -61 -51 -143 -99 -199 -117
-22 -7 -32 -13 -21 -13 35 -1 158 64 223 118 62 52 141 155 129 168 -4 3 -7 2
-7 -4z"/>
<path d="M4568 11663 c6 -2 18 -2 25 0 6 3 1 5 -13 5 -14 0 -19 -2 -12 -5z"/>
<path d="M13323 11663 c9 -2 23 -2 30 0 6 3 -1 5 -18 5 -16 0 -22 -2 -12 -5z"/>
<path d="M4758 11543 c7 -3 16 -2 19 1 4 3 -2 6 -13 5 -11 0 -14 -3 -6 -6z"/>
<path d="M13148 11543 c7 -3 16 -2 19 1 4 3 -2 6 -13 5 -11 0 -14 -3 -6 -6z"/>
<path d="M4718 11533 c7 -3 16 -2 19 1 4 3 -2 6 -13 5 -11 0 -14 -3 -6 -6z"/>
<path d="M13188 11533 c7 -3 16 -2 19 1 4 3 -2 6 -13 5 -11 0 -14 -3 -6 -6z"/>
<path d="M4678 11523 c7 -3 16 -2 19 1 4 3 -2 6 -13 5 -11 0 -14 -3 -6 -6z"/>
<path d="M13228 11523 c7 -3 16 -2 19 1 4 3 -2 6 -13 5 -11 0 -14 -3 -6 -6z"/>
<path d="M4628 11513 c7 -3 16 -2 19 1 4 3 -2 6 -13 5 -11 0 -14 -3 -6 -6z"/>
<path d="M13278 11513 c7 -3 16 -2 19 1 4 3 -2 6 -13 5 -11 0 -14 -3 -6 -6z"/>
<path d="M4568 11503 c7 -3 16 -2 19 1 4 3 -2 6 -13 5 -11 0 -14 -3 -6 -6z"/>
<path d="M13328 11503 c7 -3 16 -2 19 1 4 3 -2 6 -13 5 -11 0 -14 -3 -6 -6z"/>
<path d="M5113 11453 c26 -2 67 -2 90 0 23 2 2 3 -48 3 -49 0 -68 -1 -42 -3z"/>
<path d="M12708 11453 c23 -2 61 -2 85 0 23 2 4 4 -43 4 -47 0 -66 -2 -42 -4z"/>
<path d="M4993 11443 c15 -2 37 -2 50 0 12 2 0 4 -28 4 -27 0 -38 -2 -22 -4z"/>
<path d="M12863 11443 c15 -2 37 -2 50 0 12 2 0 4 -28 4 -27 0 -38 -2 -22 -4z"/>
<path d="M4923 11433 c9 -2 23 -2 30 0 6 3 -1 5 -18 5 -16 0 -22 -2 -12 -5z"/>
<path d="M12953 11433 c9 -2 25 -2 35 0 9 3 1 5 -18 5 -19 0 -27 -2 -17 -5z"/>
<path d="M4858 11423 c6 -2 18 -2 25 0 6 3 1 5 -13 5 -14 0 -19 -2 -12 -5z"/>
<path d="M13028 11423 c7 -3 16 -2 19 1 4 3 -2 6 -13 5 -11 0 -14 -3 -6 -6z"/>
<path d="M3867 11387 c-9 -17 -24 -43 -33 -57 l-16 -25 21 25 c26 30 54 80 49
86 -3 2 -12 -11 -21 -29z"/>
<path d="M13078 11413 c7 -3 16 -2 19 1 4 3 -2 6 -13 5 -11 0 -14 -3 -6 -6z"/>
<path d="M14040 11380 c6 -11 13 -20 16 -20 2 0 0 9 -6 20 -6 11 -13 20 -16
20 -2 0 0 -9 6 -20z"/>
<path d="M14080 11325 c13 -14 26 -25 28 -25 3 0 -5 11 -18 25 -13 14 -26 25
-28 25 -3 0 5 -11 18 -25z"/>
<path d="M11013 11210 c0 -47 2 -66 4 -42 2 23 2 61 0 85 -2 23 -4 4 -4 -43z"/>
<path d="M6903 11070 c0 -25 2 -35 4 -22 2 12 2 32 0 45 -2 12 -4 2 -4 -23z"/>
<path d="M11002 11020 c0 -19 2 -27 5 -17 2 9 2 25 0 35 -3 9 -5 1 -5 -18z"/>
<path d="M6912 10950 c0 -14 2 -19 5 -12 2 6 2 18 0 25 -3 6 -5 1 -5 -13z"/>
<path d="M10993 10905 c0 -22 2 -30 4 -17 2 12 2 30 0 40 -3 9 -5 -1 -4 -23z"/>
<path d="M6922 10860 c0 -14 2 -19 5 -12 2 6 2 18 0 25 -3 6 -5 1 -5 -13z"/>
<path d="M10982 10815 c0 -16 2 -22 5 -12 2 9 2 23 0 30 -3 6 -5 -1 -5 -18z"/>
<path d="M6932 10780 c0 -19 2 -27 5 -17 2 9 2 25 0 35 -3 9 -5 1 -5 -18z"/>
<path d="M10952 10610 c-36 -259 -69 -425 -143 -720 -38 -151 -71 -286 -74
-300 l-6 -25 12 25 c18 42 136 517 163 660 32 169 78 486 74 508 -2 9 -13 -57
-26 -148z"/>
<path d="M6942 10700 c0 -19 2 -27 5 -17 2 9 2 25 0 35 -3 9 -5 1 -5 -18z"/>
<path d="M6951 10640 c-3 -82 70 -466 145 -764 55 -219 203 -698 230 -746 8
-14 13 -18 10 -10 -3 8 -41 127 -86 263 -125 383 -211 738 -274 1132 -13 83
-25 139 -25 125z"/>
<path d="M9711 10589 c-6 -18 -11 -37 -10 -43 0 -6 7 7 15 28 8 22 12 41 10
43 -2 2 -9 -10 -15 -28z"/>
<path d="M8201 10574 c-1 -5 10 -41 23 -80 14 -38 25 -64 25 -58 1 5 -10 41
-23 80 -14 38 -25 64 -25 58z"/>
<path d="M9676 10474 c-10 -31 -16 -58 -14 -60 3 -2 12 21 22 52 10 31 16 58
14 60 -3 2 -12 -21 -22 -52z"/>
<path d="M8266 10370 c3 -14 11 -32 16 -40 6 -10 7 -7 2 10 -3 14 -11 32 -16
40 -6 10 -7 7 -2 -10z"/>
<path d="M9616 10294 c-9 -26 -16 -52 -15 -58 0 -6 9 13 20 43 10 30 17 56 15
58 -2 2 -11 -17 -20 -43z"/>
<path d="M8301 10270 c0 -8 4 -24 9 -35 5 -13 9 -14 9 -5 0 8 -4 24 -9 35 -5
13 -9 14 -9 5z"/>
<path d="M9562 10104 c-18 -66 -32 -127 -31 -135 0 -8 16 42 34 111 19 69 33
129 31 135 -1 5 -17 -45 -34 -111z"/>
<path d="M8320 10206 c0 -17 53 -216 57 -213 4 5 -46 209 -53 216 -2 2 -4 1
-4 -3z"/>
<path d="M8381 9964 c0 -11 3 -14 6 -6 3 7 2 16 -1 19 -3 4 -6 -2 -5 -13z"/>
<path d="M9521 9934 c0 -11 3 -14 6 -6 3 7 2 16 -1 19 -3 4 -6 -2 -5 -13z"/>
<path d="M8391 9924 c0 -11 3 -14 6 -6 3 7 2 16 -1 19 -3 4 -6 -2 -5 -13z"/>
<path d="M8401 9884 c0 -11 3 -14 6 -6 3 7 2 16 -1 19 -3 4 -6 -2 -5 -13z"/>
<path d="M8421 9814 c0 -11 3 -14 6 -6 3 7 2 16 -1 19 -3 4 -6 -2 -5 -13z"/>
<path d="M9481 9784 c0 -11 3 -14 6 -6 3 7 2 16 -1 19 -3 4 -6 -2 -5 -13z"/>
<path d="M8431 9774 c0 -11 3 -14 6 -6 3 7 2 16 -1 19 -3 4 -6 -2 -5 -13z"/>
<path d="M9466 9724 c-4 -20 -5 -38 -3 -40 3 -3 8 11 11 32 4 20 5 38 3 40 -3
3 -8 -11 -11 -32z"/>
<path d="M8440 9739 c1 -25 58 -285 59 -268 1 9 -11 74 -25 145 -24 119 -35
158 -34 123z"/>
<path d="M9430 9555 c-12 -64 -21 -118 -18 -120 2 -2 14 48 27 111 12 64 20
118 18 120 -2 3 -15 -47 -27 -111z"/>
<path d="M10656 9356 c-87 -268 -79 -244 -68 -226 15 23 145 421 139 426 -3 3
-35 -87 -71 -200z"/>
<path d="M8502 9430 c0 -14 2 -19 5 -12 2 6 2 18 0 25 -3 6 -5 1 -5 -13z"/>
<path d="M9402 9400 c0 -14 2 -19 5 -12 2 6 2 18 0 25 -3 6 -5 1 -5 -13z"/>
<path d="M8511 9374 c0 -11 3 -14 6 -6 3 7 2 16 -1 19 -3 4 -6 -2 -5 -13z"/>
<path d="M9391 9344 c0 -11 3 -14 6 -6 3 7 2 16 -1 19 -3 4 -6 -2 -5 -13z"/>
<path d="M7346 9080 c3 -14 11 -32 16 -40 6 -10 7 -7 2 10 -3 14 -11 32 -16
40 -6 10 -7 7 -2 -10z"/>
<path d="M10541 9029 c-6 -18 -9 -34 -7 -36 2 -2 9 10 15 28 6 18 9 34 7 36
-2 2 -9 -10 -15 -28z"/>
<path d="M7372 9008 c3 -7 13 -37 23 -66 9 -29 19 -52 21 -49 5 5 -36 127 -43
127 -3 0 -3 -6 -1 -12z"/>
<path d="M10506 8934 c-9 -26 -14 -49 -12 -51 2 -2 11 17 20 43 9 26 14 49 12
51 -2 2 -11 -17 -20 -43z"/>
<path d="M8030 7976 c0 -25 70 -145 129 -218 79 -99 151 -148 219 -148 71 0
118 35 136 100 4 17 0 13 -13 -12 -12 -20 -33 -46 -48 -58 -40 -31 -118 -24
-176 16 -59 42 -156 161 -205 252 -23 42 -42 73 -42 68z"/>
<path d="M9846 7912 c-13 -26 -45 -75 -70 -108 -100 -133 -169 -184 -249 -184
-54 0 -86 23 -112 79 -10 23 -20 39 -22 37 -9 -8 37 -85 63 -105 19 -15 41
-21 79 -21 69 0 127 38 212 140 55 66 144 210 129 210 -3 0 -17 -21 -30 -48z"/>
<path d="M7778 7752 c-10 -4 26 -7 80 -7 80 0 106 -4 152 -24 88 -39 176 -100
199 -140 11 -20 21 -31 21 -26 1 46 -107 133 -219 176 -58 23 -199 36 -233 21z"/>
<path d="M9922 7740 c-95 -34 -199 -105 -224 -154 -6 -11 6 -2 26 21 26 29 67
58 131 89 82 41 105 48 182 54 l88 7 -75 1 c-51 1 -92 -5 -128 -18z"/>
<path d="M10145 7740 c27 -12 43 -12 25 0 -8 5 -22 9 -30 9 -10 0 -8 -3 5 -9z"/>
<path d="M7411 7394 c0 -11 3 -14 6 -6 3 7 2 16 -1 19 -3 4 -6 -2 -5 -13z"/>
<path d="M9690 7357 c0 -27 125 -203 156 -220 9 -5 -12 25 -45 66 -34 42 -73
95 -86 119 -14 24 -25 39 -25 35z"/>
<path d="M8202 7324 c-7 -14 -38 -58 -69 -97 -81 -103 -80 -102 -66 -93 15 9
124 151 142 184 7 13 11 26 8 28 -2 2 -9 -7 -15 -22z"/>
<path d="M7431 7324 c0 -11 3 -14 6 -6 3 7 2 16 -1 19 -3 4 -6 -2 -5 -13z"/>
<path d="M7636 7230 c45 -66 63 -87 40 -45 -10 17 -31 46 -48 65 -24 28 -23
24 8 -20z"/>
<path d="M10450 7238 c-8 -28 -12 -94 -11 -185 1 -128 -1 -148 -23 -207 -14
-37 -40 -87 -58 -112 -64 -89 -88 -128 -88 -144 1 -8 7 0 15 19 8 18 32 54 54
80 46 55 83 125 105 200 13 44 15 80 10 175 -4 81 -3 135 5 165 16 56 8 64 -9
9z"/>
<path d="M7457 7245 c4 -16 7 -104 7 -195 1 -165 1 -165 34 -234 18 -38 47
-88 66 -110 18 -23 43 -57 55 -76 11 -19 21 -30 21 -24 0 7 -16 34 -35 60
-114 160 -137 230 -129 398 4 95 2 130 -10 166 -9 25 -13 32 -9 15z"/>
<path d="M10267 7228 c-27 -37 -45 -69 -30 -53 18 19 64 85 59 85 -3 0 -16
-15 -29 -32z"/>
<path d="M8267 7113 c-9 -26 -23 -84 -32 -128 -21 -109 -61 -189 -131 -266
-90 -97 -97 -115 -10 -25 93 97 127 164 156 305 12 57 26 115 31 129 5 14 8
27 5 29 -2 2 -11 -17 -19 -44z"/>
<path d="M9634 7137 c3 -10 15 -64 26 -119 37 -178 62 -228 171 -333 l73 -70
-59 65 c-119 132 -136 164 -170 327 -13 62 -29 120 -35 130 -11 17 -11 17 -6
0z"/>
<path d="M7641 6574 c0 -11 3 -14 6 -6 3 7 2 16 -1 19 -3 4 -6 -2 -5 -13z"/>
<path d="M9791 5804 c0 -11 3 -14 6 -6 3 7 2 16 -1 19 -3 4 -6 -2 -5 -13z"/>
<path d="M8111 5774 c0 -11 3 -14 6 -6 3 7 2 16 -1 19 -3 4 -6 -2 -5 -13z"/>
<path d="M9802 5760 c0 -14 2 -19 5 -12 2 6 2 18 0 25 -3 6 -5 1 -5 -13z"/>
<path d="M8102 5720 c0 -14 2 -19 5 -12 2 6 2 18 0 25 -3 6 -5 1 -5 -13z"/>
<path d="M9814 5693 c26 -175 39 -358 45 -648 l7 -330 2 256 c1 140 -3 316 -8
390 -12 152 -38 361 -47 369 -3 3 -3 -14 1 -37z"/>
<path d="M8081 5598 c-7 -51 -14 -129 -15 -173 -2 -44 -2 -64 0 -45 3 19 11
95 20 168 8 74 13 136 11 138 -2 3 -10 -37 -16 -88z"/>
<path d="M8054 5225 c0 -60 1 -84 3 -52 2 32 2 81 0 110 -2 29 -3 3 -3 -58z"/>
<path d="M8041 5034 c0 -11 3 -14 6 -6 3 7 2 16 -1 19 -3 4 -6 -2 -5 -13z"/>
<path d="M8041 4994 c0 -11 3 -14 6 -6 3 7 2 16 -1 19 -3 4 -6 -2 -5 -13z"/>
<path d="M8054 4775 c0 -60 1 -84 3 -52 2 32 2 81 0 110 -2 29 -3 3 -3 -58z"/>
<path d="M9853 4620 c0 -30 2 -43 4 -27 2 15 2 39 0 55 -2 15 -4 2 -4 -28z"/>
<path d="M8063 4585 c0 -33 2 -45 4 -27 2 18 2 45 0 60 -2 15 -4 0 -4 -33z"/>
<path d="M9843 4485 c0 -22 2 -30 4 -17 2 12 2 30 0 40 -3 9 -5 -1 -4 -23z"/>
<path d="M8073 4455 c0 -22 2 -30 4 -17 2 12 2 30 0 40 -3 9 -5 -1 -4 -23z"/>
<path d="M9832 4380 c0 -19 2 -27 5 -17 2 9 2 25 0 35 -3 9 -5 1 -5 -18z"/>
<path d="M8081 4344 c0 -11 3 -14 6 -6 3 7 2 16 -1 19 -3 4 -6 -2 -5 -13z"/>
<path d="M10771 1114 c0 -11 3 -14 6 -6 3 7 2 16 -1 19 -3 4 -6 -2 -5 -13z"/>
<path d="M7283 1063 c9 -2 23 -2 30 0 6 3 -1 5 -18 5 -16 0 -22 -2 -12 -5z"/>
<path d="M10622 1063 c15 -2 35 -14 43 -26 8 -12 15 -17 15 -11 0 19 -36 44
-61 43 -22 -2 -22 -2 3 -6z"/>
<path d="M8040 1049 c13 -6 32 -15 40 -22 9 -7 5 -2 -8 11 -13 12 -31 22 -40
21 -11 0 -9 -4 8 -10z"/>
<path d="M9878 1053 c7 -3 16 -2 19 1 4 3 -2 6 -13 5 -11 0 -14 -3 -6 -6z"/>
<path d="M9958 1053 c7 -3 16 -2 19 1 4 3 -2 6 -13 5 -11 0 -14 -3 -6 -6z"/>
<path d="M9840 1040 c-9 -6 -10 -10 -3 -10 6 0 15 5 18 10 8 12 4 12 -15 0z"/>
<path d="M7412 1008 c-15 -15 -16 -35 -2 -43 6 -3 7 1 4 10 -4 8 -1 22 6 30
15 18 9 20 -8 3z"/>
<path d="M9811 984 c0 -11 3 -14 6 -6 3 7 2 16 -1 19 -3 4 -6 -2 -5 -13z"/>
<path d="M9938 993 c12 -2 30 -2 40 0 9 3 -1 5 -23 4 -22 0 -30 -2 -17 -4z"/>
</g>
</svg>
