<?xml version="1.0" standalone="no"?>
<!DOCTYPE svg PUBLIC "-//W3C//DTD SVG 20010904//EN"
 "http://www.w3.org/TR/2001/REC-SVG-20010904/DTD/svg10.dtd">
<svg version="1.0" xmlns="http://www.w3.org/2000/svg"
 width="1792.000000pt" height="2400.000000pt" viewBox="0 0 1792.000000 2400.000000"
 preserveAspectRatio="xMidYMid meet">

<g transform="translate(0.000000,2400.000000) scale(0.100000,-0.100000)"
fill="#000000" stroke="none">
<path d="M8815 23304 c-289 -44 -490 -136 -651 -299 -152 -153 -249 -350 -299
-605 -23 -121 -30 -342 -13 -467 l14 -103 -28 0 c-34 0 -66 -33 -74 -78 -19
-97 36 -378 106 -547 45 -105 81 -145 141 -152 l46 -5 12 -65 c28 -151 85
-291 175 -428 52 -78 52 -82 36 -260 -6 -64 -17 -119 -26 -132 -21 -33 -106
-98 -223 -170 -314 -196 -626 -332 -948 -413 -287 -72 -523 -203 -641 -355
-93 -122 -173 -320 -241 -597 -68 -277 -73 -325 -81 -788 -7 -414 -8 -430 -38
-605 -17 -99 -54 -344 -82 -545 -65 -463 -84 -578 -121 -720 -41 -160 -67
-225 -184 -460 -235 -472 -276 -597 -470 -1450 -108 -475 -156 -641 -327
-1130 -138 -397 -159 -450 -171 -443 -5 3 -8 2 -4 -3 10 -16 -16 -39 -122
-109 -75 -49 -149 -111 -257 -218 -144 -140 -156 -155 -205 -250 -28 -55 -78
-140 -109 -189 -32 -48 -66 -111 -75 -140 -23 -69 -57 -132 -100 -186 -19 -24
-35 -52 -35 -61 0 -31 37 -54 93 -59 44 -3 62 1 117 30 55 28 74 46 128 118
34 47 71 96 81 110 16 20 12 -5 -20 -135 -22 -88 -53 -209 -70 -270 -29 -105
-83 -342 -116 -509 -8 -45 -13 -112 -11 -152 4 -91 29 -124 91 -124 62 0 97
44 131 166 97 344 112 365 33 48 -30 -121 -57 -238 -61 -262 -20 -132 86 -212
169 -129 25 25 40 55 60 123 35 122 128 385 133 380 2 -3 -19 -80 -47 -172
-53 -176 -61 -239 -35 -279 43 -66 144 -42 189 45 28 54 149 382 187 505 53
173 60 191 53 140 -3 -22 -26 -112 -52 -200 -67 -233 -61 -305 23 -305 80 0
137 102 254 458 43 130 99 289 124 352 51 124 104 320 137 507 15 85 22 168
24 293 2 133 6 183 17 205 9 17 41 104 73 195 82 233 138 353 455 966 349 675
453 891 617 1289 137 330 159 405 202 681 34 219 88 466 132 609 43 139 112
412 148 589 17 82 32 150 34 153 3 2 7 -16 11 -39 156 -955 179 -1132 180
-1338 1 -240 -8 -272 -189 -680 -98 -222 -153 -377 -196 -559 -17 -69 -48
-169 -69 -221 -102 -255 -154 -461 -190 -758 -24 -190 -47 -331 -95 -582 -96
-497 -105 -1151 -24 -1700 52 -349 229 -1152 444 -2010 174 -697 206 -894 226
-1423 15 -399 4 -571 -71 -1102 -74 -524 -80 -586 -80 -870 0 -430 44 -714
214 -1380 46 -181 120 -472 164 -645 186 -726 244 -1159 199 -1468 -10 -62
-17 -139 -17 -170 l0 -57 -101 -94 c-111 -102 -133 -114 -233 -132 -87 -15
-125 -45 -133 -106 -6 -49 11 -99 38 -114 11 -5 25 -24 33 -42 18 -45 78 -100
145 -133 119 -60 179 -101 262 -180 47 -44 106 -95 130 -111 128 -87 345 -112
534 -62 127 35 194 115 217 261 10 65 8 96 -17 273 -37 257 -37 349 -2 479 42
154 38 201 -37 444 -55 177 -56 382 -6 932 10 118 26 337 35 485 18 317 35
481 75 740 52 340 55 382 55 730 0 388 -20 579 -106 1060 -36 204 -36 216 46
552 137 564 147 684 143 1753 -3 837 -8 756 82 1465 71 564 83 727 77 985 -5
205 -22 355 -51 465 l-13 50 36 41 c20 22 48 54 64 72 22 26 35 32 66 32 42 0
53 -8 126 -87 l48 -53 -22 -107 c-32 -164 -41 -269 -41 -494 0 -240 14 -408
75 -879 91 -703 102 -905 85 -1545 -10 -359 -10 -517 -1 -720 19 -409 37 -531
142 -965 89 -371 88 -358 45 -590 -78 -424 -108 -717 -109 -1045 0 -258 9
-371 58 -695 42 -277 61 -458 75 -705 6 -104 24 -350 40 -545 54 -657 51 -749
-30 -1005 -41 -127 -42 -133 -37 -235 4 -69 13 -128 27 -170 29 -89 28 -201
-5 -420 -39 -256 -30 -358 41 -461 53 -77 187 -122 359 -121 197 0 285 36 434
176 103 96 154 132 277 194 81 41 145 99 159 143 4 13 21 36 38 50 25 21 30
33 31 71 1 25 -5 57 -13 71 -15 28 -83 67 -117 67 -62 0 -127 33 -197 98 -40
37 -87 80 -106 96 -33 27 -34 29 -37 109 -1 45 -10 128 -18 184 -9 57 -16 138
-16 182 0 166 41 473 101 756 39 181 66 291 270 1085 165 640 216 944 226
1335 7 307 -4 455 -72 920 -79 547 -80 557 -79 945 1 606 35 852 214 1570 197
788 393 1658 444 1970 95 580 96 1229 1 1730 -14 74 -36 196 -50 270 -14 74
-37 223 -50 330 -46 359 -82 508 -200 820 -24 63 -53 158 -65 210 -36 157
-113 372 -218 610 -164 371 -178 427 -169 691 6 181 14 244 98 769 55 347 89
543 94 549 2 1 7 -14 10 -35 19 -112 110 -496 145 -614 68 -230 129 -496 160
-705 42 -282 71 -374 230 -755 153 -363 253 -571 553 -1150 301 -581 405 -797
461 -955 26 -71 62 -170 80 -220 33 -87 35 -95 39 -270 8 -283 64 -549 171
-819 35 -89 87 -235 116 -326 85 -270 149 -401 213 -440 42 -26 53 -25 82 5
38 37 34 102 -19 281 -24 82 -46 169 -49 194 -3 25 -3 36 0 25 70 -248 224
-645 270 -696 55 -61 126 -61 158 0 24 47 19 84 -35 260 -28 90 -49 166 -47
168 5 4 87 -222 128 -352 23 -74 40 -108 64 -132 41 -41 90 -45 132 -9 24 21
28 32 31 92 3 58 -6 106 -53 294 -70 282 -68 271 -50 232 9 -18 27 -79 41
-135 57 -232 93 -297 163 -297 77 0 108 60 97 185 -6 72 -80 421 -117 555 -29
105 -118 464 -115 467 1 1 32 -40 70 -92 75 -105 110 -139 175 -168 60 -26
146 -20 173 13 24 29 24 30 -17 86 -19 27 -42 59 -51 72 -9 12 -33 64 -54 116
-20 51 -60 126 -87 167 -28 41 -72 116 -98 168 -25 51 -67 116 -93 144 -101
108 -295 278 -389 340 -54 35 -104 75 -111 87 -29 48 -308 870 -372 1095 -22
77 -85 337 -140 579 -173 761 -227 924 -456 1376 -161 319 -189 422 -274 1006
-28 192 -68 464 -90 604 -53 346 -59 417 -53 696 7 271 -5 432 -43 624 -43
215 -116 460 -179 596 -120 261 -337 416 -730 520 -261 69 -406 124 -655 249
-216 108 -402 223 -494 306 -46 43 -48 46 -56 119 -5 41 -9 113 -10 159 l0 85
49 70 c86 125 125 218 166 391 l21 90 36 6 c50 8 83 32 112 81 33 59 90 225
115 339 52 242 36 359 -50 359 -27 0 -30 3 -26 23 16 62 29 263 23 355 -32
511 -274 876 -678 1023 -142 52 -238 70 -408 74 -85 2 -168 1 -185 -1z m335
-39 c367 -56 611 -226 768 -533 97 -188 135 -361 135 -602 0 -282 -58 -508
-178 -696 -21 -32 -81 -104 -135 -159 -75 -78 -110 -125 -161 -214 -109 -192
-151 -213 -299 -146 -93 42 -144 45 -216 11 -86 -40 -104 -41 -184 -7 -94 40
-134 39 -230 -4 -149 -67 -190 -49 -294 135 -59 104 -88 141 -174 229 -164
166 -237 311 -288 576 -25 126 -25 406 -1 530 39 197 110 372 201 492 68 90
192 202 278 251 120 68 298 125 453 145 73 10 238 6 325 -8z m-1283 -1480 c12
-9 31 -43 43 -82 65 -198 122 -295 249 -421 81 -80 111 -120 177 -231 93 -158
123 -186 198 -186 38 0 69 9 118 33 97 48 121 50 212 13 43 -17 89 -31 103
-31 13 0 55 14 93 30 83 36 108 37 185 4 121 -52 143 -58 185 -45 50 15 94 65
171 197 48 82 89 136 169 219 123 130 178 220 234 383 28 83 43 112 61 122 73
39 93 -55 55 -255 -45 -231 -114 -411 -168 -439 -61 -31 -96 -18 -104 39 -3
17 -5 -4 -6 -45 -1 -140 -91 -397 -177 -510 l-27 -35 5 170 c3 95 1 152 -3
130 -18 -90 -32 -336 -28 -476 5 -146 5 -149 -14 -132 -26 23 -95 166 -112
233 -8 30 -15 46 -15 35 -1 -31 24 -118 52 -179 76 -166 192 -269 502 -447
236 -135 485 -240 730 -309 303 -84 450 -146 575 -241 167 -127 264 -318 364
-714 70 -280 89 -482 79 -830 -7 -253 -3 -292 67 -745 27 -173 65 -430 85
-570 72 -512 110 -649 269 -961 226 -444 278 -603 461 -1403 58 -256 128 -538
156 -627 87 -282 314 -941 344 -999 18 -33 57 -68 135 -120 96 -64 202 -155
316 -272 84 -85 110 -119 147 -193 25 -49 69 -127 99 -172 30 -45 71 -122 91
-170 21 -48 57 -115 82 -148 25 -33 45 -67 45 -77 0 -22 -38 -32 -91 -25 -70
9 -121 53 -224 192 -53 72 -101 137 -106 146 -5 9 -15 56 -24 105 -8 48 -18
90 -21 93 -26 24 73 -475 151 -759 45 -162 113 -485 121 -569 5 -49 2 -76 -9
-103 -14 -33 -20 -38 -50 -38 -59 0 -80 39 -136 249 -23 84 -59 200 -82 259
-23 59 -65 175 -95 257 l-54 150 6 -65 c6 -71 19 -127 69 -300 67 -226 155
-603 155 -660 0 -74 -19 -102 -68 -98 -48 4 -73 42 -113 172 -17 56 -56 169
-86 251 -30 83 -83 234 -118 336 -58 171 -98 269 -110 269 -7 0 2 -37 40 -160
18 -58 47 -168 64 -245 17 -77 54 -217 81 -311 28 -95 50 -183 50 -197 0 -14
-10 -38 -23 -52 -49 -57 -109 -3 -167 152 -18 48 -53 137 -77 197 -24 60 -64
179 -88 265 -46 158 -95 271 -140 326 l-25 30 19 -50 c10 -27 26 -97 36 -155
9 -58 37 -175 62 -260 52 -179 64 -268 39 -292 -57 -58 -130 69 -247 432 -34
107 -84 249 -111 314 -57 139 -87 239 -122 405 -40 187 -59 362 -52 473 6 81
4 105 -13 150 -10 29 -45 125 -76 213 -80 223 -146 364 -441 932 -352 680
-482 952 -649 1363 -120 292 -146 383 -180 630 -25 173 -82 437 -130 600 -78
265 -96 335 -165 668 l-38 183 18 122 c10 67 30 214 44 327 43 338 64 458 111
625 24 88 42 161 40 163 -5 5 -89 -263 -108 -343 -26 -107 -66 -345 -102 -600
-19 -137 -70 -468 -114 -735 -129 -784 -148 -934 -138 -1115 8 -143 41 -261
124 -450 172 -393 221 -525 272 -738 16 -67 55 -187 86 -267 83 -211 128 -402
170 -711 20 -144 52 -346 71 -448 82 -427 94 -532 101 -911 12 -618 -32 -931
-281 -2000 -120 -515 -127 -544 -227 -944 -188 -753 -226 -1051 -216 -1704 4
-276 9 -376 26 -487 11 -77 38 -261 60 -410 65 -442 80 -675 62 -970 -26 -418
-59 -581 -380 -1830 -184 -718 -238 -1117 -196 -1440 22 -168 17 -265 -18
-364 -15 -41 -25 -77 -22 -79 6 -6 64 100 71 130 3 16 10 28 15 28 5 0 48 -36
96 -81 102 -94 121 -106 215 -125 90 -19 107 -28 124 -69 17 -41 6 -76 -29
-100 -14 -9 -27 -29 -30 -45 -9 -41 -62 -90 -148 -134 -124 -64 -170 -97 -269
-189 -156 -145 -256 -183 -460 -174 -306 13 -397 140 -341 477 49 302 49 375
1 550 -30 107 -23 212 24 345 80 227 84 382 26 1040 -11 121 -26 342 -35 490
-18 302 -32 443 -74 720 -51 335 -56 393 -55 710 0 380 14 516 113 1080 49
274 70 437 51 385 -5 -14 -14 -52 -21 -85 l-12 -60 -10 40 c-5 22 -35 153 -67
290 -132 561 -142 689 -138 1755 3 821 7 748 -77 1400 -81 626 -99 900 -76
1160 11 127 44 326 56 338 2 3 31 -11 62 -30 184 -113 400 -179 642 -197 220
-17 429 21 606 109 55 27 113 60 130 73 17 14 -20 0 -90 -34 -171 -84 -279
-110 -477 -116 -222 -7 -399 25 -614 111 -189 75 -367 222 -415 342 l-24 59 0
643 c0 353 -1 639 -2 635 -2 -5 -6 -39 -11 -78 l-8 -70 -13 88 c-7 48 -15 86
-18 84 -2 -3 1 -42 7 -88 7 -56 10 -276 8 -649 -3 -561 -3 -565 -25 -613 -61
-131 -169 -230 -348 -317 -343 -168 -732 -197 -1058 -80 -46 17 -114 48 -153
70 -46 27 -59 32 -39 15 40 -33 147 -89 232 -121 321 -121 814 -70 1116 117
29 18 58 32 65 32 6 0 12 4 12 9 0 4 4 8 9 8 14 0 50 -209 62 -360 20 -243 5
-460 -76 -1110 -92 -741 -102 -920 -84 -1535 10 -340 10 -485 0 -692 -19 -412
-42 -580 -137 -978 -30 -126 -58 -249 -61 -273 -3 -23 -8 -41 -10 -38 -2 2
-12 38 -22 80 -10 42 -21 79 -24 82 -9 9 3 -69 58 -376 144 -796 157 -1195 61
-1830 -41 -272 -54 -393 -71 -671 -8 -145 -24 -370 -35 -499 -35 -420 -40
-502 -40 -644 0 -170 16 -276 64 -426 53 -164 55 -208 16 -365 -29 -117 -32
-140 -27 -230 3 -55 16 -163 27 -240 53 -347 6 -464 -206 -519 -72 -19 -229
-21 -306 -5 -97 20 -172 64 -271 158 -98 94 -152 132 -285 201 -87 45 -137 93
-147 142 -4 15 -11 28 -16 28 -20 0 -49 42 -49 71 0 50 43 84 124 98 91 16
112 28 223 128 52 47 98 82 102 77 4 -5 15 -29 24 -54 9 -25 28 -58 42 -75
l25 -30 -29 85 c-42 126 -45 169 -20 348 16 121 20 185 16 282 -14 305 -89
711 -237 1285 -269 1037 -323 1295 -350 1650 -24 335 -11 548 70 1115 78 549
84 623 77 1030 -11 590 -35 751 -228 1540 -103 420 -225 926 -232 970 -3 14
-12 52 -21 85 -8 33 -17 77 -20 97 -2 21 -7 41 -9 45 -3 5 -26 105 -51 223
-135 633 -161 860 -161 1390 0 401 12 542 71 865 57 306 72 400 94 575 39 306
79 471 178 732 33 86 68 194 77 239 34 166 108 375 227 638 120 265 154 371
168 521 18 190 -6 385 -174 1410 -25 151 -61 392 -81 536 -46 344 -93 574
-155 768 -28 87 -53 156 -55 154 -2 -2 14 -64 36 -138 51 -176 80 -333 124
-675 19 -154 41 -319 49 -367 12 -83 11 -92 -16 -225 -54 -261 -110 -495 -158
-658 -62 -209 -110 -426 -150 -680 -37 -234 -66 -331 -187 -624 -174 -422
-298 -683 -660 -1380 -286 -550 -345 -676 -430 -925 -24 -70 -51 -142 -61
-160 -13 -25 -18 -72 -23 -231 -12 -336 -73 -601 -217 -935 -6 -14 -27 -79
-47 -145 -118 -393 -195 -539 -262 -490 -28 20 -19 103 26 253 42 136 81 310
81 356 0 14 9 48 20 76 31 79 23 81 -26 5 -31 -48 -56 -106 -80 -185 -104
-336 -225 -659 -265 -701 -35 -38 -82 -40 -105 -4 -23 35 -15 87 36 255 23 74
55 194 71 265 16 72 45 182 64 245 18 63 36 133 40 155 l6 40 -26 -48 c-14
-27 -57 -139 -95 -250 -38 -111 -107 -314 -154 -452 -90 -263 -102 -285 -157
-285 -42 0 -64 40 -62 110 1 58 90 426 173 715 27 94 51 198 53 233 3 35 4 62
2 60 -2 -2 -19 -48 -38 -103 -19 -55 -52 -143 -72 -195 -59 -151 -93 -256
-125 -382 -46 -183 -79 -235 -141 -226 -57 8 -63 103 -18 322 17 83 49 221 71
306 89 342 158 665 163 755 l5 90 -19 -101 -18 -100 -104 -139 c-77 -103 -117
-147 -152 -169 -56 -34 -132 -45 -161 -23 -19 14 -19 16 -3 38 65 91 91 134
117 202 16 42 56 117 89 165 32 48 79 128 104 177 52 103 63 117 207 251 149
139 175 160 265 219 87 57 104 73 130 124 25 50 245 684 314 905 71 226 85
282 191 746 173 755 220 899 432 1323 199 398 214 456 308 1127 23 162 56 390
75 505 59 366 59 361 60 750 1 421 6 468 81 773 131 533 254 704 619 853 53
21 154 54 225 74 205 55 345 103 490 167 296 130 589 307 710 428 85 85 161
236 174 345 6 44 4 42 -13 -23 -26 -95 -119 -269 -135 -251 -2 2 1 36 6 74 11
84 1 372 -18 505 l-13 95 5 -167 c2 -93 2 -168 0 -168 -3 0 -25 33 -50 73 -85
137 -149 338 -149 467 1 58 -1 67 -7 41 -9 -38 -24 -51 -60 -51 -39 0 -68 26
-99 88 -93 187 -161 539 -117 607 19 29 33 31 63 10z m1117 -10187 c23 -33 20
-38 -25 -38 l-40 0 18 30 c21 36 27 37 47 8z"/>
<path d="M7885 21585 c4 -151 25 -245 66 -295 17 -21 16 -16 -6 27 -33 70 -45
128 -55 281 l-9 127 4 -140z"/>
<path d="M10038 21630 c-4 -30 -8 -78 -8 -107 0 -67 -17 -148 -41 -195 -11
-21 -17 -38 -14 -38 4 0 17 24 31 54 27 59 47 198 42 288 l-3 53 -7 -55z"/>
<path d="M8973 19330 c0 -47 2 -66 4 -42 2 23 2 61 0 85 -2 23 -4 4 -4 -43z"/>
<path d="M8020 19346 c25 -13 53 -32 62 -43 24 -26 167 -336 184 -398 18 -63
18 -147 -1 -311 -34 -305 -141 -941 -181 -1074 -34 -114 -86 -178 -163 -201
-93 -28 -254 72 -379 236 l-23 30 18 -35 c10 -19 52 -68 93 -110 78 -79 164
-133 233 -145 85 -16 182 58 226 172 47 123 164 807 202 1177 21 209 15 238
-93 464 -83 173 -99 200 -133 224 -22 14 -51 29 -65 33 -14 3 -6 -5 20 -19z"/>
<path d="M9911 19359 c-64 -26 -82 -50 -172 -237 -110 -228 -117 -260 -101
-445 15 -162 70 -548 118 -815 61 -348 97 -458 171 -522 39 -35 102 -54 146
-44 91 19 224 117 289 213 26 38 20 34 -38 -28 -118 -127 -238 -188 -319 -161
-78 26 -127 94 -165 232 -53 189 -170 933 -186 1175 -8 118 5 192 51 283 18
36 52 109 75 164 50 115 74 146 132 174 43 21 43 29 -1 11z"/>
<path d="M7260 19206 c0 -2 57 -23 128 -46 70 -24 200 -72 290 -107 182 -72
290 -99 346 -89 38 7 76 37 76 59 0 6 -6 3 -12 -8 -17 -31 -28 -35 -94 -35
-71 0 -131 16 -278 77 -100 41 -427 153 -447 153 -5 0 -9 -2 -9 -4z"/>
<path d="M10475 19151 c-93 -32 -215 -76 -270 -98 -141 -57 -199 -73 -271 -73
-62 0 -94 15 -94 42 0 6 -3 8 -6 5 -4 -4 1 -17 9 -31 23 -35 87 -43 176 -22
39 8 150 46 248 84 98 38 229 86 291 106 61 21 112 40 112 42 0 10 -35 0 -195
-55z"/>
<path d="M8983 16885 c0 -1644 3 -2187 9 -1865 11 595 11 3148 0 3730 -6 327
-9 -196 -9 -1865z"/>
<path d="M7238 19083 c6 -2 18 -2 25 0 6 3 1 5 -13 5 -14 0 -19 -2 -12 -5z"/>
<path d="M10678 19083 c7 -3 16 -2 19 1 4 3 -2 6 -13 5 -11 0 -14 -3 -6 -6z"/>
<path d="M7338 19056 c35 -13 104 -49 155 -79 110 -66 172 -88 330 -116 128
-23 177 -43 218 -88 56 -60 78 -131 89 -288 l7 -110 1 100 c3 176 -39 291
-125 345 -44 28 -71 36 -276 76 -62 12 -115 31 -175 62 -169 88 -217 110 -252
116 -23 4 -14 -2 28 -18z"/>
<path d="M10575 19060 c-27 -10 -95 -43 -150 -74 -115 -65 -156 -79 -315 -107
-135 -24 -173 -39 -218 -82 -69 -66 -103 -178 -100 -332 l1 -90 8 110 c15 188
60 289 149 335 21 11 90 28 153 40 163 28 223 49 342 120 58 34 131 70 163 81
31 10 48 18 37 18 -11 0 -42 -9 -70 -19z"/>
<path d="M6562 15191 c-29 -88 -54 -124 -126 -180 -32 -25 -65 -57 -74 -71
-15 -25 -15 -25 9 1 13 15 48 43 77 62 75 49 112 110 137 225 11 54 0 36 -23
-37z"/>
<path d="M11341 15244 c-2 -23 32 -121 56 -162 15 -27 45 -56 78 -77 29 -19
68 -51 85 -72 l33 -38 -20 35 c-10 19 -46 55 -80 80 -73 54 -96 85 -127 176
-14 38 -25 64 -25 58z"/>
<path d="M7565 14130 c-38 -5 -88 -14 -110 -19 -36 -9 -36 -10 -5 -5 19 2 108
7 196 11 129 4 183 2 265 -12 286 -48 513 -167 732 -387 65 -65 109 -104 96
-86 -44 64 -225 235 -304 287 -145 95 -315 165 -480 196 -100 19 -297 27 -390
15z"/>
<path d="M10065 14129 c-343 -40 -664 -221 -869 -489 -11 -14 25 20 80 75 217
216 451 340 743 390 99 18 313 20 412 4 39 -6 73 -9 75 -6 8 8 -148 28 -256
32 -58 2 -141 -1 -185 -6z"/>
<path d="M7388 14093 c7 -3 16 -2 19 1 4 3 -2 6 -13 5 -11 0 -14 -3 -6 -6z"/>
<path d="M10528 14093 c7 -3 16 -2 19 1 4 3 -2 6 -13 5 -11 0 -14 -3 -6 -6z"/>
<path d="M7488 7527 c2 -128 -1 -282 -7 -342 -6 -60 -9 -110 -7 -112 2 -2 10
36 17 84 16 100 18 505 3 566 -6 25 -8 -41 -6 -196z"/>
<path d="M10425 7643 c-9 -101 1 -438 14 -503 6 -31 7 -5 3 80 -4 69 -6 212
-5 318 1 105 0 192 -2 192 -2 0 -6 -39 -10 -87z"/>
<path d="M9771 7363 c-5 -117 -58 -423 -87 -506 -22 -62 -9 -56 15 7 40 108
90 424 78 501 l-4 30 -2 -32z"/>
<path d="M8151 7328 c-2 -122 44 -384 86 -489 20 -52 27 -44 9 9 -25 70 -57
233 -76 389 -13 106 -18 132 -19 91z"/>
<path d="M10452 7070 c0 -14 2 -19 5 -12 2 6 2 18 0 25 -3 6 -5 1 -5 -13z"/>
<path d="M7602 6921 c-18 -5 -35 -10 -37 -12 -2 -2 54 -5 123 -5 199 -2 350
-50 438 -141 33 -33 41 -38 26 -17 -31 45 -89 93 -136 114 -113 48 -336 81
-414 61z"/>
<path d="M10155 6924 c-69 -11 -193 -44 -237 -63 -49 -21 -131 -90 -150 -125
-6 -12 9 0 33 26 84 89 242 140 441 142 79 1 118 4 105 9 -27 10 -151 17 -192
11z"/>
<path d="M7734 2850 c2 -8 24 -67 49 -130 88 -223 154 -479 176 -682 27 -243
3 -587 -54 -763 -6 -18 -5 -18 5 -2 18 28 57 194 69 297 15 121 16 369 1 485
-23 191 -78 402 -151 590 -37 92 -105 239 -95 205z"/>
<path d="M9551 2849 c-1 -4 10 -56 24 -116 107 -476 111 -946 9 -1285 -34
-115 -22 -109 16 7 107 335 105 828 -5 1256 -23 90 -43 152 -44 138z"/>
<path d="M8360 2827 c0 -3 -11 -48 -25 -99 -65 -239 -103 -616 -85 -837 18
-216 54 -393 100 -493 11 -24 18 -34 14 -23 -126 420 -131 831 -13 1353 12 51
18 96 15 99 -3 4 -6 4 -6 0z"/>
<path d="M10126 2710 c-63 -148 -121 -327 -146 -448 -26 -128 -50 -336 -50
-432 0 -168 30 -382 72 -518 26 -85 32 -75 7 13 -59 213 -72 567 -31 809 35
203 100 431 172 607 17 40 28 74 26 76 -2 2 -25 -46 -50 -107z"/>
</g>
</svg>
