<?xml version="1.0" standalone="no"?>
<!DOCTYPE svg PUBLIC "-//W3C//DTD SVG 20010904//EN"
 "http://www.w3.org/TR/2001/REC-SVG-20010904/DTD/svg10.dtd">
<svg version="1.0" xmlns="http://www.w3.org/2000/svg"
 width="1331.000000pt" height="1858.000000pt" viewBox="0 0 1331.000000 1858.000000"
 preserveAspectRatio="xMidYMid meet">

<g transform="translate(0.000000,1858.000000) scale(0.100000,-0.100000)"
fill="#000000" stroke="none">
<path d="M6574 18340 c-184 -48 -332 -179 -438 -388 -43 -86 -83 -268 -101
-462 -9 -96 -20 -215 -25 -265 -35 -362 -41 -454 -42 -690 0 -143 5 -377 12
-520 11 -209 11 -298 1 -455 -13 -205 -33 -433 -51 -585 -50 -415 -54 -911
-10 -1335 65 -642 85 -1484 38 -1575 -49 -93 -170 -134 -282 -96 -43 15 -133
93 -146 126 -9 24 -54 236 -75 360 -9 50 -21 115 -26 145 -30 168 -107 663
-139 900 -41 301 -50 359 -64 442 -24 139 -36 187 -77 333 -31 113 -57 207
-100 375 -71 272 -117 593 -149 1045 -33 456 -76 748 -161 1086 -66 264 -125
385 -244 505 -117 118 -202 153 -365 154 -155 0 -262 -43 -365 -145 -70 -69
-91 -99 -127 -177 -33 -69 -53 -138 -72 -243 -34 -186 -41 -302 -41 -660 1
-365 2 -381 50 -775 40 -326 56 -544 65 -895 17 -703 20 -727 117 -1240 56
-298 182 -1033 202 -1185 7 -47 16 -110 21 -140 27 -162 32 -390 21 -910 -22
-1023 -39 -1183 -188 -1785 -37 -152 -66 -215 -125 -276 -34 -35 -43 -39 -86
-39 -60 0 -121 37 -174 107 -52 68 -181 312 -401 758 -51 105 -121 233 -153
285 -69 109 -75 122 -104 245 -37 155 -89 305 -156 445 -85 176 -232 412 -333
536 -14 17 -35 42 -45 55 -99 124 -278 310 -396 411 -274 233 -563 318 -859
252 -245 -55 -418 -306 -357 -517 15 -53 131 -287 279 -568 45 -85 74 -154 88
-210 25 -105 45 -159 102 -279 66 -141 82 -193 131 -437 25 -122 57 -257 72
-300 42 -126 126 -289 219 -428 144 -216 224 -360 287 -519 17 -45 33 -81 74
-171 117 -259 211 -524 290 -824 66 -246 120 -404 182 -526 40 -79 247 -384
283 -415 8 -7 161 -198 184 -230 11 -15 79 -106 151 -201 236 -315 423 -586
558 -809 158 -263 234 -371 405 -579 75 -93 200 -217 326 -325 233 -200 301
-272 400 -424 152 -237 222 -493 285 -1057 6 -55 15 -136 20 -180 25 -218 31
-285 45 -465 47 -608 62 -870 75 -1290 12 -368 16 -415 40 -415 12 0 16 19 18
95 6 168 -31 988 -63 1400 -22 289 -45 539 -55 605 -4 33 -11 92 -15 130 -46
514 -117 850 -227 1070 -54 106 -164 266 -235 340 -32 34 -134 128 -228 210
-230 203 -278 254 -503 540 -17 21 -209 313 -242 368 -60 99 -290 448 -354
537 -106 148 -426 572 -491 650 -282 340 -388 539 -485 910 -61 233 -162 549
-206 645 -13 28 -39 91 -60 140 -20 50 -44 108 -54 130 -10 22 -37 84 -59 138
-55 130 -154 331 -188 384 -16 24 -63 95 -107 159 -74 110 -196 333 -196 358
1 34 191 192 329 274 58 34 36 34 -34 0 -59 -30 -182 -123 -248 -188 -31 -32
-59 -55 -61 -51 -19 35 -75 261 -101 411 -30 169 -84 324 -165 471 -5 9 -14
35 -20 58 -6 23 -14 50 -17 59 -4 12 2 10 21 -8 24 -21 36 -25 87 -23 137 4
388 176 434 297 14 36 17 65 13 134 -3 48 -10 98 -16 112 -6 14 -24 61 -41
105 -78 211 -175 409 -211 435 -81 56 -268 90 -399 72 -91 -13 -144 -36 -213
-94 -27 -22 -48 -35 -48 -29 0 20 62 117 103 159 141 147 423 178 692 77 149
-56 288 -157 481 -350 348 -345 610 -750 716 -1105 26 -89 76 -280 72 -280 -1
0 -24 9 -50 20 -62 27 -125 41 -142 31 -9 -5 8 -14 50 -25 114 -32 159 -60
197 -124 82 -137 157 -275 203 -372 183 -386 345 -683 409 -754 63 -70 124
-99 194 -94 34 2 55 -1 55 -7 0 -17 -153 -324 -200 -400 -23 -38 -45 -74 -48
-79 -3 -5 0 -6 7 -2 35 22 180 274 248 431 12 28 29 59 38 70 16 20 16 20 11
-5 -23 -97 -49 -243 -61 -345 -17 -139 -20 -465 -5 -465 6 0 10 34 10 83 0
104 28 340 59 507 14 75 36 161 118 460 87 319 97 360 133 572 53 310 66 503
81 1183 15 683 11 872 -21 1094 -22 151 -41 269 -49 316 -6 28 -19 111 -31
185 -36 237 -51 323 -70 420 -19 96 -79 411 -105 550 -53 289 -75 529 -75 837
0 338 -21 691 -60 1013 -64 530 -64 521 -64 875 -1 326 4 412 36 620 24 163
66 271 140 366 108 139 217 192 391 191 94 0 105 -3 171 -36 39 -19 92 -54
118 -78 63 -59 138 -171 182 -272 103 -240 214 -887 241 -1401 7 -139 39 -437
61 -575 35 -221 79 -408 169 -721 37 -128 75 -303 100 -454 41 -259 51 -328
70 -480 25 -201 57 -413 85 -565 6 -30 22 -127 35 -215 56 -357 119 -598 215
-825 29 -68 64 -126 46 -75 -8 20 -73 233 -84 270 -5 19 -5 19 21 2 86 -56
100 -61 187 -61 87 -1 141 17 184 60 10 9 19 14 21 12 11 -11 -33 -288 -59
-373 -8 -27 -13 -51 -11 -53 6 -7 44 74 55 120 73 290 85 401 84 833 -1 350
-16 620 -64 1180 -35 414 -37 829 -5 1115 72 642 80 836 61 1535 -9 325 -2
533 25 780 5 50 16 155 24 235 30 293 36 339 60 433 81 321 304 518 590 520
154 1 266 -40 371 -135 121 -111 171 -253 194 -553 14 -181 13 -1108 -1 -1408
-9 -188 -9 -304 0 -485 17 -349 41 -630 72 -837 54 -357 61 -431 66 -695 3
-189 0 -336 -12 -515 -22 -327 -31 -1080 -16 -1279 24 -316 63 -552 125 -766
25 -87 83 -226 91 -219 2 3 -9 43 -26 91 -26 76 -89 349 -89 387 0 10 9 6 28
-11 15 -14 37 -31 49 -37 31 -16 109 -14 142 3 90 47 132 246 181 876 44 563
51 639 60 725 28 244 49 357 135 750 84 381 130 746 155 1210 5 105 14 282 20
395 6 113 18 286 26 385 9 99 24 286 34 415 28 352 70 480 198 608 52 52 82
74 134 95 225 90 473 35 611 -135 147 -181 187 -348 168 -702 -6 -115 -11
-382 -11 -595 -1 -311 -4 -423 -20 -576 -48 -461 -53 -574 -51 -1180 1 -596
-4 -709 -45 -995 -16 -115 -30 -197 -94 -555 -5 -27 -20 -111 -34 -185 -135
-723 -150 -1270 -47 -1655 22 -79 52 -162 70 -191 11 -18 12 -17 8 6 -3 14
-14 61 -26 105 -24 88 -46 219 -56 333 l-7 73 63 -65 c73 -73 119 -92 207 -83
90 9 146 62 221 207 81 157 137 295 246 605 51 145 103 290 147 405 12 30 79
174 149 320 200 415 248 553 344 985 101 461 154 649 246 877 128 321 215 444
364 517 183 90 431 17 501 -148 20 -48 18 -49 -19 -2 -74 93 -178 136 -311
129 -134 -8 -209 -55 -238 -153 -38 -123 -68 -313 -68 -430 0 -111 13 -150 74
-213 67 -71 240 -125 326 -102 64 17 96 46 133 119 44 89 96 253 121 386 8 44
17 91 20 105 3 14 3 -60 1 -165 -3 -167 -19 -341 -54 -585 -6 -36 -15 -103
-21 -150 -39 -300 -86 -494 -203 -835 -50 -145 -120 -421 -173 -680 -57 -283
-97 -410 -253 -800 -151 -376 -190 -484 -296 -805 -116 -355 -155 -518 -175
-735 -6 -71 -23 -211 -36 -310 -23 -175 -30 -220 -74 -450 -11 -60 -29 -159
-41 -220 -11 -60 -24 -135 -30 -165 -5 -30 -14 -80 -19 -110 -5 -30 -20 -120
-33 -200 -31 -179 -54 -329 -67 -440 -6 -47 -17 -134 -25 -195 -8 -60 -19
-148 -25 -195 -25 -194 -106 -700 -131 -815 -106 -494 -257 -989 -447 -1465
-109 -274 -127 -355 -158 -705 -11 -137 -15 -268 -12 -467 1 -152 2 -276 2
-275 -4 6 -94 279 -104 317 -7 25 -15 40 -17 33 -6 -17 27 -137 102 -363 147
-447 162 -603 98 -1030 -23 -156 -23 -560 1 -790 19 -192 33 -331 46 -485 5
-60 14 -153 20 -205 5 -52 13 -129 16 -170 8 -107 11 -120 34 -120 16 0 20 7
20 38 0 45 -30 371 -70 775 -16 157 -29 346 -36 522 -6 159 1 269 41 600 17
143 19 299 4 398 -9 61 -28 166 -79 422 -33 172 -39 448 -15 750 14 182 18
218 36 335 19 125 29 159 87 305 185 461 376 1061 442 1385 5 25 19 88 30 140
49 224 102 548 150 920 10 80 28 213 40 295 11 83 25 182 30 220 24 173 71
450 144 840 8 44 26 141 40 215 34 181 62 370 76 510 6 63 16 162 21 220 6 58
24 161 41 230 44 187 272 862 383 1135 207 510 236 607 352 1185 24 118 80
311 150 515 88 258 122 412 168 750 14 105 30 217 35 250 14 83 50 472 50 533
0 78 -28 219 -54 270 -86 169 -277 253 -478 211 -115 -25 -233 -108 -307 -218
-145 -212 -283 -582 -371 -991 -78 -362 -151 -646 -195 -764 -19 -52 -35 -96
-35 -100 0 -5 -9 -26 -74 -168 -13 -29 -64 -136 -114 -238 -119 -244 -157
-336 -258 -635 -56 -164 -86 -247 -109 -300 -7 -16 -34 -82 -60 -145 -94 -231
-167 -349 -231 -376 -79 -33 -153 -5 -242 90 -67 72 -72 87 -72 236 0 88 23
442 35 535 27 213 64 444 121 750 126 685 126 674 134 1530 8 704 12 823 46
1095 10 85 19 315 27 720 15 751 15 850 -3 930 -31 148 -117 307 -215 399
-111 104 -220 145 -385 145 -232 0 -395 -98 -499 -299 -59 -113 -87 -259 -111
-580 -6 -77 -15 -180 -20 -230 -11 -109 -26 -352 -40 -650 -30 -633 -79 -1043
-175 -1465 -77 -340 -115 -569 -140 -857 -31 -356 -45 -522 -60 -723 -8 -113
-20 -239 -26 -280 -42 -301 -57 -357 -104 -404 -48 -48 -125 -25 -180 54 -32
46 -38 72 -62 265 -23 189 -25 1000 -3 1305 9 127 14 345 14 570 0 341 -2 378
-27 555 -72 516 -90 699 -107 1111 -6 135 -5 305 0 440 19 440 22 737 11 1103
-16 507 -36 636 -125 788 -118 202 -402 308 -652 243z m4886 -3602 c62 -29
122 -83 146 -130 12 -24 15 -49 11 -97 -9 -119 -75 -360 -126 -458 -48 -93
-46 -91 -78 -63 l-28 25 24 -27 24 -28 -36 -15 c-91 -38 -234 3 -324 92 -49
48 -52 60 -20 66 19 4 19 4 -5 6 -24 1 -28 6 -33 44 -15 100 54 507 93 550 43
48 107 67 212 64 67 -2 97 -9 140 -29z m-10301 -2919 c88 -16 144 -41 169 -77
21 -28 103 -199 142 -292 66 -158 92 -240 97 -307 l6 -72 -106 0 c-116 0 -144
-5 -199 -33 -56 -28 -46 -29 20 -2 48 20 74 24 170 24 113 0 113 0 107 -22
-21 -69 -101 -150 -212 -215 -93 -54 -130 -70 -184 -78 -45 -7 -46 -6 -86 42
-41 50 -58 77 -138 228 -260 488 -295 564 -282 617 16 63 137 163 222 184 65
16 191 17 274 3z"/>
<path d="M11173 14103 c9 -2 23 -2 30 0 6 3 -1 5 -18 5 -16 0 -22 -2 -12 -5z"/>
<path d="M11280 14070 c35 -17 72 -38 82 -47 10 -9 18 -12 18 -7 0 14 -99 72
-135 79 -18 3 -4 -7 35 -25z"/>
<path d="M1186 10985 c-16 -14 -25 -25 -19 -25 5 0 20 11 33 25 30 32 23 32
-14 0z"/>
<path d="M1121 10910 c-12 -22 -20 -40 -18 -40 2 0 16 18 31 40 14 22 23 40
18 40 -5 0 -18 -18 -31 -40z"/>
<path d="M1086 10835 c-9 -26 -7 -32 5 -12 6 10 9 21 6 23 -2 3 -7 -2 -11 -11z"/>
<path d="M6623 18246 c-90 -18 -201 -77 -267 -141 -87 -86 -90 -95 -83 -265 8
-183 22 -301 48 -413 18 -75 28 -94 65 -136 52 -58 123 -95 223 -116 92 -19
162 -19 259 1 167 34 220 87 255 254 42 198 56 546 25 605 -37 70 -147 161
-228 188 -107 36 -195 43 -297 23z m244 -46 c108 -30 187 -81 247 -162 l28
-39 -16 -197 c-18 -216 -50 -428 -72 -481 -14 -32 -15 -33 -36 -17 -52 36
-125 75 -153 81 -20 4 -14 -1 18 -15 51 -21 92 -45 120 -71 16 -15 16 -16 0
-32 -41 -36 -165 -67 -267 -67 -67 0 -196 29 -243 54 -39 21 -96 76 -111 106
-24 52 -42 152 -62 345 -29 291 -30 282 31 349 128 140 331 197 516 146z"/>
<path d="M6616 17401 c-17 -3 26 -6 94 -6 68 0 111 3 94 6 -16 4 -58 7 -94 7
-36 0 -78 -3 -94 -7z"/>
<path d="M6503 17370 c-58 -26 -55 -32 5 -10 26 9 54 20 62 23 11 4 9 5 -5 6
-11 0 -39 -9 -62 -19z"/>
<path d="M4005 17352 c-88 -33 -134 -61 -190 -117 -79 -79 -115 -146 -115
-215 0 -130 69 -444 119 -540 75 -146 281 -180 531 -89 82 30 148 82 173 137
19 43 21 64 21 222 -1 167 -10 262 -35 378 -9 45 -21 63 -69 112 -36 36 -83
70 -126 91 -61 30 -80 34 -164 36 -73 3 -107 -1 -145 -15z m310 -56 c76 -38
138 -84 155 -115 16 -31 43 -400 36 -506 -6 -102 -20 -165 -37 -165 -6 0 -27
9 -49 20 -22 11 -45 20 -52 20 -7 -1 1 -7 17 -14 17 -8 39 -21 50 -29 l20 -16
-20 -15 c-47 -36 -164 -76 -254 -86 -125 -14 -271 10 -271 44 0 20 146 106
179 106 8 0 12 3 8 6 -11 12 -83 -19 -143 -62 -33 -23 -65 -39 -72 -35 -40 24
-110 270 -139 483 -16 123 -16 128 3 170 26 58 118 149 184 183 84 43 136 55
227 52 71 -3 92 -8 158 -41z"/>
<path d="M4128 16562 c-10 -4 36 -7 102 -7 66 0 112 3 102 7 -9 4 -55 7 -102
7 -47 0 -93 -3 -102 -7z"/>
<path d="M8744 17246 c-100 -26 -213 -97 -243 -153 -14 -28 -15 -389 0 -504
13 -105 44 -198 81 -243 33 -41 119 -99 170 -115 69 -23 155 -30 230 -19 153
21 229 87 262 229 30 133 56 350 56 479 l0 128 -39 49 c-45 57 -124 113 -196
138 -64 23 -249 29 -321 11z m306 -49 c36 -13 84 -36 108 -51 54 -34 122 -103
122 -125 0 -27 -29 -310 -39 -391 -29 -216 -70 -329 -110 -297 -14 10 -14 10
-4 -4 16 -19 11 -25 -44 -49 -150 -66 -326 -39 -444 67 -84 76 -104 160 -114
496 l-8 228 29 30 c34 36 106 75 184 100 84 27 236 25 320 -4z"/>
<path d="M8780 16420 c-29 -7 -26 -8 20 -4 49 4 95 -1 195 -20 17 -3 10 1 -15
10 -56 18 -154 25 -200 14z"/>
<path d="M8718 16403 c7 -3 16 -2 19 1 4 3 -2 6 -13 5 -11 0 -14 -3 -6 -6z"/>
<path d="M9030 16386 c0 -2 18 -13 40 -25 49 -25 53 -20 6 8 -32 20 -46 25
-46 17z"/>
<path d="M6500 16611 c-24 -5 -4 -8 65 -7 55 1 132 -2 170 -6 52 -6 62 -5 40
3 -39 13 -230 20 -275 10z"/>
<path d="M6438 16593 c7 -3 16 -2 19 1 4 3 -2 6 -13 5 -11 0 -14 -3 -6 -6z"/>
<path d="M6855 16575 c27 -8 51 -12 53 -10 5 5 -69 25 -88 24 -8 0 7 -7 35
-14z"/>
<path d="M6317 16426 c-94 -39 -94 -46 1 -16 96 30 176 26 311 -15 126 -39
206 -44 342 -24 65 10 83 10 125 -4 l49 -17 -25 20 c-36 28 -84 33 -201 20
-121 -13 -160 -9 -289 31 -124 38 -228 40 -313 5z"/>
<path d="M6555 16228 c52 -19 82 -22 220 -22 91 -1 167 3 177 9 12 7 -27 9
-128 6 -85 -2 -171 2 -207 8 -111 21 -123 21 -62 -1z"/>
<path d="M4155 15746 c-89 -18 -163 -44 -232 -83 -86 -47 -89 -60 -6 -19 116
57 270 96 383 96 40 0 70 4 70 10 0 14 -140 11 -215 -4z"/>
<path d="M4491 15644 c-102 -43 -182 -61 -324 -70 -112 -7 -130 -24 -27 -24
154 0 263 26 420 99 94 44 37 39 -69 -5z"/>
<path d="M8515 15545 l-30 -14 30 7 c53 12 118 5 220 -24 89 -25 117 -28 250
-28 83 0 158 4 167 9 11 7 -34 10 -145 11 -140 1 -176 4 -267 27 -117 30 -180
33 -225 12z"/>
<path d="M8679 15383 c29 -14 81 -32 115 -40 71 -16 211 -19 246 -3 21 8 17 9
-25 7 -82 -6 -215 11 -300 38 -44 14 -82 25 -85 24 -3 0 19 -12 49 -26z"/>
<path d="M6555 14431 c-76 -10 -167 -37 -227 -67 -65 -33 -70 -48 -6 -19 87
40 166 56 300 62 160 7 286 -9 382 -49 100 -41 104 -42 79 -24 -35 26 -122 63
-185 80 -69 18 -262 27 -343 17z"/>
<path d="M4325 14255 c-5 -2 -23 -6 -39 -10 -15 -3 -27 -8 -25 -10 2 -2 31 3
64 10 33 7 49 13 35 13 -14 0 -29 -1 -35 -3z"/>
<path d="M6335 14185 c-83 -13 -173 -40 -190 -57 -5 -5 4 -4 20 2 58 22 201
50 260 50 33 0 98 -7 144 -15 92 -16 113 -15 54 3 -30 9 -207 35 -208 31 0 -1
-36 -7 -80 -14z"/>
<path d="M7032 14080 c-24 -5 -67 -18 -95 -28 -29 -11 -82 -25 -119 -32 -69
-14 -94 -11 -358 36 l-25 4 25 -10 c52 -23 208 -50 292 -50 70 0 104 6 180 31
116 38 179 45 241 26 53 -17 60 -14 19 7 -38 19 -108 26 -160 16z"/>
<path d="M4810 14075 c0 -2 12 -11 28 -19 38 -20 105 -88 141 -143 34 -51 40
-50 15 0 -28 55 -82 114 -128 141 -44 26 -56 30 -56 21z"/>
<path d="M4400 14021 c-172 -46 -308 -118 -395 -212 l-40 -43 43 35 c79 62
106 80 173 114 91 47 227 90 329 104 175 26 184 29 85 29 -69 1 -115 -6 -195
-27z"/>
<path d="M6241 13914 c59 -71 326 -154 494 -154 107 0 301 49 321 81 4 8 3 9
-5 5 -6 -4 -44 -17 -84 -29 -60 -18 -98 -21 -237 -22 -160 0 -168 1 -270 33
-58 19 -133 49 -168 67 -35 18 -57 27 -51 19z"/>
<path d="M4535 13785 c-57 -13 -250 -79 -321 -110 -19 -8 -50 -22 -69 -30 -75
-34 -27 -21 154 40 104 36 231 74 282 85 51 12 95 23 98 26 9 9 -86 2 -144
-11z"/>
<path d="M8450 13770 c-15 -5 26 -9 110 -9 134 -2 193 -11 321 -49 76 -23 131
-47 174 -76 25 -17 28 -17 16 -2 -32 39 -180 98 -319 127 -96 19 -254 24 -302
9z"/>
<path d="M4865 13612 c-163 -91 -354 -151 -545 -172 -86 -10 -122 -9 -200 3
-52 9 -104 18 -115 21 -11 4 -2 -2 20 -12 166 -78 470 -42 755 91 41 19 91 49
110 65 43 38 39 39 -25 4z"/>
<path d="M8331 13549 c-35 -4 -65 -9 -66 -11 -2 -2 60 -3 138 -3 111 -1 164
-6 245 -24 57 -13 105 -21 108 -18 9 8 -128 45 -209 56 -88 12 -123 12 -216 0z"/>
<path d="M8166 13490 c9 -39 47 -103 64 -108 10 -3 8 3 -6 19 -12 13 -31 44
-43 69 -11 25 -18 34 -15 20z"/>
<path d="M8455 13382 c19 -18 140 -78 205 -102 51 -19 88 -24 170 -26 101 -2
102 -2 30 5 -96 10 -178 32 -282 77 -114 49 -135 57 -123 46z"/>
<path d="M8854 13383 c4 -5 51 -11 104 -14 76 -5 109 -12 151 -32 45 -22 51
-23 36 -7 -32 36 -118 60 -212 60 -48 0 -83 -3 -79 -7z"/>
<path d="M11005 13364 c11 -4 62 -19 113 -36 52 -16 96 -27 99 -25 6 7 -145
55 -192 61 -22 3 -31 3 -20 0z"/>
<path d="M10827 13301 c28 -10 92 -45 142 -79 138 -94 189 -114 331 -126 l65
-5 -60 15 c-183 46 -209 56 -297 116 -107 71 -162 98 -203 97 -26 0 -22 -3 22
-18z"/>
<path d="M4615 13279 c-75 -22 -261 -30 -365 -17 l-55 7 45 -16 c57 -20 251
-22 334 -4 60 13 153 50 126 49 -8 0 -46 -9 -85 -19z"/>
<path d="M8360 13176 c0 -10 85 -57 141 -79 87 -35 127 -44 245 -57 112 -13
224 -2 273 26 l26 15 -26 -5 c-111 -23 -173 -25 -286 -10 -137 17 -201 34
-300 80 -40 18 -73 31 -73 30z"/>
<path d="M10480 12185 c14 -3 56 -10 94 -16 122 -20 204 -66 325 -183 46 -45
78 -70 71 -56 -7 14 -45 57 -84 96 -54 54 -91 81 -157 113 -77 37 -94 41 -180
45 -52 3 -83 3 -69 1z"/>
<path d="M10277 12004 c91 -85 354 -256 369 -241 3 3 -21 20 -53 38 -67 37
-247 157 -313 207 l-45 34 42 -38z"/>
<path d="M10455 11985 c39 -14 105 -43 147 -65 43 -22 81 -40 85 -40 23 1
-135 90 -191 108 -91 30 -128 27 -41 -3z"/>
<path d="M10720 11865 c0 -4 124 -78 180 -107 19 -10 46 -26 60 -35 l25 -17
-24 27 c-27 30 -241 147 -241 132z"/>
<path d="M10453 11655 c61 -58 187 -126 267 -144 25 -6 77 -10 115 -9 39 0 57
3 40 5 -94 12 -198 39 -260 67 -63 29 -159 90 -193 123 -7 7 -16 13 -20 13 -4
-1 19 -25 51 -55z"/>
<path d="M6510 11623 c-1 -132 -47 -348 -124 -588 -53 -164 -84 -291 -74 -300
3 -3 11 21 18 52 7 32 32 114 55 183 56 162 91 285 110 384 16 86 32 316 22
316 -4 0 -7 -21 -7 -47z"/>
<path d="M7032 11550 c0 -14 2 -19 5 -12 2 6 2 18 0 25 -3 6 -5 1 -5 -13z"/>
<path d="M8731 11524 c0 -11 3 -14 6 -6 3 7 2 16 -1 19 -3 4 -6 -2 -5 -13z"/>
<path d="M8711 11378 c-24 -243 -13 -508 29 -668 8 -29 8 -26 4 20 -3 30 -10
87 -16 127 -6 43 -9 182 -6 357 2 157 3 286 3 286 -1 0 -7 -55 -14 -122z"/>
<path d="M7156 10923 c36 -84 78 -203 101 -288 41 -148 36 -349 -13 -478 -18
-48 -18 -57 0 -31 29 41 57 147 62 237 10 152 -29 326 -114 510 -22 48 -43 87
-46 87 -4 0 1 -17 10 -37z"/>
<path d="M8722 10474 c52 -88 89 -235 95 -379 5 -106 2 -132 -21 -223 -14 -56
-33 -119 -41 -139 -24 -58 -8 -51 19 8 58 129 61 143 61 324 0 139 -3 180 -18
225 -24 69 -76 178 -90 187 -5 3 -8 2 -5 -3z"/>
<path d="M10307 10373 c-100 -263 -138 -453 -135 -683 l1 -125 12 176 c16 217
44 355 119 584 19 60 34 110 32 112 -1 2 -14 -27 -29 -64z"/>
<path d="M1905 10283 c-129 -30 -346 -141 -400 -204 l-20 -24 20 15 c11 8 32
24 46 35 46 37 239 128 332 156 77 23 92 38 22 22z"/>
<path d="M2042 10062 c-76 -124 -248 -285 -400 -376 -74 -44 -77 -56 -6 -22
162 79 356 263 428 404 27 53 12 48 -22 -6z"/>
<path d="M4640 10096 c0 -4 16 -38 37 -74 42 -78 123 -240 148 -297 29 -67
102 -288 121 -366 10 -40 19 -68 21 -62 12 36 -94 363 -169 520 -42 89 -158
293 -158 279z"/>
<path d="M7166 9873 c-28 -94 -73 -444 -85 -668 -61 -1134 -68 -2206 -16
-2660 l14 -120 -5 95 c-2 52 -9 160 -14 240 -13 189 -13 1091 0 1408 5 136 14
373 20 527 19 490 54 938 89 1140 9 50 8 72 -3 38z"/>
<path d="M2006 9614 c-89 -96 -169 -163 -242 -205 -42 -24 -145 -32 -194 -15
-21 8 -23 7 -13 -6 7 -8 31 -20 54 -27 106 -32 273 66 418 246 34 42 76 103
69 103 -1 -1 -43 -44 -92 -96z"/>
<path d="M5441 9524 c0 -11 3 -14 6 -6 3 7 2 16 -1 19 -3 4 -6 -2 -5 -13z"/>
<path d="M8642 9433 c-49 -125 -117 -318 -157 -448 -64 -205 -146 -506 -144
-529 1 -13 22 49 54 164 75 272 134 461 229 730 59 165 68 211 18 83z"/>
<path d="M5452 9445 c0 -16 3 -50 7 -75 8 -42 9 -43 9 -10 1 19 -3 53 -7 75
-8 35 -9 36 -9 10z"/>
<path d="M5472 9280 c0 -19 3 -55 7 -80 8 -42 9 -42 9 -10 0 19 -3 55 -7 80
-8 42 -9 42 -9 10z"/>
<path d="M4971 9254 c0 -11 3 -14 6 -6 3 7 2 16 -1 19 -3 4 -6 -2 -5 -13z"/>
<path d="M5492 9105 c0 -22 3 -62 8 -90 7 -48 7 -49 8 -10 0 22 -3 63 -8 90
-7 48 -7 49 -8 10z"/>
<path d="M5513 8895 c0 -22 2 -30 4 -17 2 12 2 30 0 40 -3 9 -5 -1 -4 -23z"/>
<path d="M9975 8919 c-4 -6 -5 -12 -2 -15 2 -3 7 2 10 11 7 17 1 20 -8 4z"/>
<path d="M9916 8807 c-82 -151 -150 -301 -257 -571 -42 -104 -182 -520 -422
-1256 -158 -481 -211 -653 -222 -715 -12 -64 3 -35 25 49 21 79 529 1610 593
1786 83 229 193 490 281 669 31 63 54 116 52 118 -2 3 -25 -33 -50 -80z"/>
<path d="M5523 8815 c0 -22 2 -30 4 -17 2 12 2 30 0 40 -3 9 -5 -1 -4 -23z"/>
<path d="M5533 8725 c0 -22 2 -30 4 -17 2 12 2 30 0 40 -3 9 -5 -1 -4 -23z"/>
<path d="M8331 8424 c0 -11 3 -14 6 -6 3 7 2 16 -1 19 -3 4 -6 -2 -5 -13z"/>
<path d="M8321 8384 c0 -11 3 -14 6 -6 3 7 2 16 -1 19 -3 4 -6 -2 -5 -13z"/>
<path d="M8222 7788 c-59 -284 -102 -499 -116 -578 -10 -52 -26 -140 -36 -195
-19 -104 -52 -313 -70 -448 -5 -43 -9 -108 -9 -145 1 -58 3 -50 15 58 15 146
54 385 113 698 11 59 34 181 51 272 17 91 40 214 51 273 11 60 19 111 16 113
-2 3 -9 -19 -15 -48z"/>
<path d="M5731 7784 c0 -11 3 -14 6 -6 3 7 2 16 -1 19 -3 4 -6 -2 -5 -13z"/>
<path d="M5742 7720 c0 -14 2 -19 5 -12 2 6 2 18 0 25 -3 6 -5 1 -5 -13z"/>
<path d="M5751 7674 c0 -11 3 -14 6 -6 3 7 2 16 -1 19 -3 4 -6 -2 -5 -13z"/>
<path d="M5761 7615 c0 -5 8 -57 19 -115 14 -75 18 -87 14 -43 -5 56 -31 181
-33 158z"/>
<path d="M5801 7370 c-1 -14 3 -41 8 -60 5 -19 15 -68 21 -108 7 -40 15 -71
18 -68 5 6 -22 170 -38 231 -8 28 -8 28 -9 5z"/>
<path d="M5851 7110 c-2 -25 33 -196 36 -180 2 8 -6 56 -16 105 -11 50 -20 83
-20 75z"/>
<path d="M5892 6890 c0 -14 2 -19 5 -12 2 6 2 18 0 25 -3 6 -5 1 -5 -13z"/>
<path d="M5901 6845 c0 -11 6 -42 13 -70 18 -65 19 -37 1 35 -7 30 -14 46 -14
35z"/>
<path d="M5931 6694 c0 -11 3 -14 6 -6 3 7 2 16 -1 19 -3 4 -6 -2 -5 -13z"/>
<path d="M5941 6654 c0 -11 3 -14 6 -6 3 7 2 16 -1 19 -3 4 -6 -2 -5 -13z"/>
<path d="M3547 6398 c33 -40 88 -111 124 -158 36 -47 88 -114 115 -149 27 -35
78 -103 114 -150 401 -527 457 -593 690 -811 282 -265 426 -495 571 -915 21
-60 38 -103 38 -93 1 20 -76 249 -114 338 -15 36 -45 99 -66 140 -123 238
-191 321 -534 650 -141 136 -227 241 -613 750 -160 210 -369 470 -379 470 -2
0 22 -33 54 -72z"/>
<path d="M7082 6395 c0 -16 2 -22 5 -12 2 9 2 23 0 30 -3 6 -5 -1 -5 -18z"/>
<path d="M8994 6186 c-3 -21 -4 -39 -1 -42 3 -4 9 10 13 30 3 21 4 39 1 42 -3
4 -9 -10 -13 -30z"/>
<path d="M8976 6084 c-4 -20 -5 -38 -3 -40 3 -3 8 11 11 32 4 20 5 38 3 40 -3
3 -8 -11 -11 -32z"/>
<path d="M5201 4090 c0 -8 4 -24 9 -35 5 -13 9 -14 9 -5 0 8 -4 24 -9 35 -5
13 -9 14 -9 5z"/>
</g>
</svg>
