<?xml version="1.0" standalone="no"?>
<!DOCTYPE svg PUBLIC "-//W3C//DTD SVG 20010904//EN"
 "http://www.w3.org/TR/2001/REC-SVG-20010904/DTD/svg10.dtd">
<svg version="1.0" xmlns="http://www.w3.org/2000/svg"
 width="1331.000000pt" height="1858.000000pt" viewBox="0 0 1331.000000 1858.000000"
 preserveAspectRatio="xMidYMid meet">

<g transform="translate(0.000000,1858.000000) scale(0.100000,-0.100000)"
fill="#000000" stroke="none">
<path d="M6513 18261 c-146 -42 -252 -116 -338 -237 -91 -126 -128 -249 -169
-550 -65 -474 -66 -501 -66 -1257 0 -614 -2 -724 -22 -1005 -41 -576 -32
-1000 43 -1907 36 -434 39 -485 45 -696 8 -254 -12 -428 -50 -442 -35 -14
-176 -19 -209 -8 -125 42 -199 256 -316 921 -11 63 -27 153 -36 200 -9 47 -20
108 -25 135 -5 28 -16 86 -24 130 -8 44 -17 94 -20 110 -56 311 -123 608 -190
850 -148 533 -230 963 -271 1420 -47 525 -153 993 -278 1229 -71 134 -217 241
-362 267 -235 41 -454 -67 -574 -283 -32 -59 -80 -209 -91 -289 -6 -39 -13
-81 -15 -93 -13 -56 -35 -367 -35 -501 0 -222 21 -432 84 -830 21 -128 26
-166 37 -279 24 -244 55 -592 68 -771 28 -359 45 -516 81 -725 11 -63 31 -185
45 -270 30 -178 44 -258 79 -460 14 -80 49 -282 76 -450 28 -168 59 -357 70
-420 39 -225 50 -367 60 -749 5 -211 12 -445 16 -520 7 -139 1 -218 -36 -481
-51 -357 -98 -555 -187 -790 -30 -80 -62 -167 -70 -195 -48 -160 -90 -253
-119 -262 -7 -2 -72 45 -145 106 -131 107 -135 111 -169 188 -19 43 -83 166
-143 273 -113 201 -196 363 -263 510 -21 47 -77 146 -125 220 -68 106 -93 154
-114 225 -33 109 -118 300 -181 409 -55 95 -164 265 -185 286 -8 8 -27 33 -44
55 -53 71 -257 275 -366 366 -359 299 -655 426 -905 389 -191 -29 -342 -120
-406 -245 -26 -49 -34 -145 -19 -216 23 -107 178 -449 267 -591 13 -21 24 -40
24 -43 0 -3 24 -45 54 -93 33 -54 61 -112 71 -152 9 -36 31 -105 50 -155 47
-125 80 -239 110 -380 62 -297 107 -408 294 -728 148 -253 254 -475 369 -777
96 -253 129 -355 217 -672 160 -577 177 -611 510 -1037 66 -84 147 -188 180
-230 33 -43 103 -131 155 -197 83 -103 182 -233 379 -501 25 -34 75 -104 109
-155 98 -143 292 -420 316 -450 11 -15 37 -48 56 -75 123 -171 210 -264 518
-559 183 -174 272 -343 331 -629 60 -286 60 -732 1 -1188 -5 -42 -15 -112 -20
-155 -6 -42 -24 -171 -40 -287 -47 -321 -88 -618 -105 -745 -9 -63 -20 -144
-25 -180 -5 -36 -19 -141 -30 -235 -11 -93 -27 -222 -35 -285 -9 -63 -20 -151
-25 -195 -6 -44 -17 -128 -25 -186 -19 -133 -19 -129 4 -129 26 0 22 -21 72
390 11 91 31 251 45 355 13 105 29 224 34 265 12 96 47 347 115 830 52 364 60
422 85 615 5 44 17 165 25 268 40 503 -8 918 -141 1205 -64 140 -118 203 -431
505 -124 118 -238 250 -347 400 -103 143 -108 149 -238 338 -134 195 -152 220
-277 392 -69 95 -160 217 -203 272 -127 163 -270 344 -318 404 -25 31 -90 115
-145 186 -322 418 -342 459 -479 970 -73 272 -169 571 -237 740 -99 245 -133
321 -205 465 -46 91 -117 221 -158 290 -54 92 -71 128 -64 138 8 9 7 11 -5 7
-12 -5 -29 22 -76 118 -61 126 -107 263 -136 404 -43 207 -63 279 -135 473
-28 76 -31 97 -34 215 -3 142 -12 176 -131 480 -70 181 -96 223 -166 273 -61
44 -119 120 -119 157 0 34 39 97 89 143 50 48 160 105 231 121 100 23 272 11
396 -27 104 -32 326 -163 459 -271 38 -31 83 -67 100 -80 68 -55 325 -322 386
-401 150 -193 292 -463 368 -699 21 -68 49 -122 109 -213 43 -68 89 -146 102
-173 74 -164 182 -378 258 -509 47 -83 116 -212 154 -287 l67 -137 98 -79
c262 -211 322 -236 584 -252 l126 -8 134 -66 c74 -37 141 -67 149 -67 7 0 -26
20 -75 45 -49 25 -96 52 -105 60 -37 33 -112 56 -215 65 -120 11 -165 17 -215
32 -51 15 -141 60 -138 68 2 4 26 27 54 51 29 24 98 86 155 138 208 187 398
299 644 380 118 39 137 55 33 27 -161 -43 -320 -110 -444 -187 -78 -48 -244
-179 -319 -250 -27 -26 -51 -47 -52 -46 -3 4 82 257 114 337 51 126 71 190
103 323 33 133 35 143 69 352 62 381 63 402 51 915 -13 568 -26 746 -70 990
-5 30 -21 125 -35 210 -48 304 -75 467 -101 610 -14 80 -31 181 -39 225 -7 44
-25 148 -40 230 -82 469 -92 554 -135 1060 -13 153 -35 397 -55 615 -22 224
-31 301 -74 580 -49 312 -55 389 -55 660 1 299 23 524 70 710 53 211 222 386
403 420 220 41 409 -51 526 -255 121 -213 223 -682 275 -1265 10 -106 29 -259
56 -435 25 -171 123 -618 174 -800 36 -128 118 -430 123 -455 47 -228 75 -371
218 -1150 110 -596 155 -745 255 -844 l43 -43 -97 -12 c-116 -16 -239 -50
-324 -91 -70 -33 -69 -33 58 9 136 45 352 82 433 75 43 -4 100 0 161 10 52 9
138 20 190 23 113 7 95 21 -29 22 -75 1 -82 3 -76 19 16 39 35 215 35 327 0
110 -14 348 -40 665 -15 184 -29 374 -40 560 -5 91 -16 226 -22 300 -17 177
-17 855 0 1015 25 248 35 580 37 1255 1 575 4 718 18 830 9 74 21 171 26 215
50 413 106 579 240 718 53 56 151 117 231 143 85 29 284 26 365 -6 156 -60
243 -163 290 -344 42 -160 48 -315 46 -1051 -2 -708 6 -980 40 -1340 20 -210
24 -250 54 -505 45 -392 53 -542 65 -1365 12 -814 27 -1081 74 -1305 8 -36 12
-67 11 -69 -2 -1 -21 11 -42 27 -46 37 -147 88 -188 97 -19 3 -11 -2 20 -15
56 -24 197 -115 235 -152 64 -62 161 -102 223 -91 38 6 170 -25 289 -67 43
-15 75 -23 72 -19 -8 14 -187 78 -250 90 l-62 11 24 36 c62 92 93 287 190
1202 28 269 60 453 130 750 37 156 85 392 104 505 6 39 13 84 16 100 42 260
65 533 89 1075 14 311 72 936 101 1095 50 266 211 405 469 405 191 0 327 -73
428 -229 50 -77 69 -120 94 -216 16 -62 18 -112 17 -420 -2 -335 -13 -631 -34
-890 -5 -66 -17 -203 -25 -305 -24 -287 -34 -505 -45 -1040 -12 -597 -20 -703
-90 -1285 -17 -138 -29 -226 -55 -390 -60 -375 -85 -625 -94 -940 l-6 -220
-43 63 c-57 83 -97 170 -121 262 -23 90 -27 61 -6 -42 25 -118 79 -219 193
-362 83 -104 123 -143 178 -169 65 -32 108 -39 158 -26 105 28 187 183 491
929 101 247 147 353 238 540 125 259 207 460 247 605 4 17 21 75 38 130 16 55
37 136 47 180 66 305 155 601 262 875 116 296 242 468 381 520 47 18 73 21
148 18 81 -3 100 -8 167 -41 88 -44 137 -94 179 -183 71 -152 75 -287 18 -679
-51 -354 -97 -567 -195 -895 -7 -25 -52 -178 -99 -340 -48 -162 -93 -317 -101
-345 -8 -27 -36 -124 -61 -215 -85 -307 -113 -387 -259 -750 -114 -286 -221
-586 -295 -830 -18 -58 -42 -139 -55 -180 -69 -222 -115 -412 -125 -515 -19
-194 -67 -551 -96 -715 -22 -124 -31 -186 -54 -370 -20 -169 -38 -330 -81
-750 -97 -947 -199 -1559 -336 -2025 -103 -351 -185 -561 -373 -950 -104 -215
-104 -214 -217 -550 -135 -401 -159 -487 -202 -735 -83 -476 -83 -731 -1
-1900 28 -403 48 -694 70 -1015 17 -248 20 -275 35 -275 8 0 16 3 18 7 7 11
-9 264 -73 1163 -80 1122 -87 1454 -39 1810 44 328 95 533 232 935 117 343 96
293 272 660 146 305 242 561 335 890 56 199 91 359 165 760 16 87 76 512 94
665 7 52 16 131 21 175 9 76 43 396 76 705 36 349 62 559 89 730 9 52 20 122
25 155 37 227 68 465 85 655 9 88 98 421 191 705 12 39 48 149 79 245 31 96
118 328 192 515 151 382 176 451 263 761 35 121 119 410 187 644 155 530 152
517 162 565 105 473 168 933 150 1099 -28 252 -158 406 -383 453 -164 34 -327
-40 -447 -204 -101 -136 -207 -392 -342 -828 -23 -73 -70 -261 -127 -505 -25
-108 -115 -383 -167 -510 -39 -95 -60 -141 -163 -355 -65 -136 -210 -468 -210
-481 0 -4 -7 -22 -16 -42 -24 -56 -30 -69 -72 -177 -22 -55 -51 -125 -65 -155
-14 -30 -44 -98 -67 -150 -81 -185 -145 -304 -187 -348 l-42 -44 -63 4 c-78 5
-131 38 -208 130 l-53 63 6 255 c7 270 29 529 68 785 6 39 14 97 19 130 5 33
14 92 20 130 22 145 50 353 59 440 42 385 51 495 60 675 6 113 13 376 16 585
6 403 14 572 45 965 36 459 40 535 50 840 6 168 13 334 16 370 8 84 -11 283
-37 384 -34 133 -106 257 -192 332 -108 92 -289 145 -428 126 -248 -35 -390
-174 -442 -432 -38 -187 -93 -824 -112 -1300 -23 -565 -74 -939 -200 -1485
-78 -336 -110 -533 -145 -895 -37 -379 -95 -819 -121 -928 -13 -53 -34 -99
-57 -124 -34 -40 -176 -4 -214 54 -16 25 -40 122 -57 233 -32 204 -42 421 -51
1145 -10 781 -19 986 -65 1385 -88 768 -108 1163 -95 1815 8 358 -2 792 -20
954 -21 179 -67 292 -158 386 -63 64 -143 110 -238 134 -83 21 -231 20 -311
-3z m-5808 -6581 c8 -16 42 -50 75 -75 34 -26 70 -56 80 -67 20 -22 142 -323
191 -470 20 -61 32 -123 36 -178 l5 -85 -92 160 c-188 326 -296 567 -320 712
-7 46 2 47 25 3z"/>
<path d="M6345 16455 c-90 -15 -197 -46 -225 -66 -12 -9 -11 -9 5 -4 134 48
291 69 480 63 162 -5 119 6 -60 15 -75 4 -139 2 -200 -8z"/>
<path d="M6905 16343 c-62 -11 -143 -13 -355 -10 -291 5 -282 -4 25 -23 173
-11 187 -10 360 15 99 15 190 24 202 22 12 -2 20 0 17 4 -8 14 -159 9 -249 -8z"/>
<path d="M4266 15604 c-92 -14 -240 -56 -266 -75 -17 -12 -23 -13 124 26 87
24 169 37 336 54 l85 8 -95 1 c-52 0 -135 -6 -184 -14z"/>
<path d="M4760 15611 c-20 -12 -170 -49 -245 -61 -59 -9 -59 -9 20 -5 73 5
220 42 255 65 13 9 13 10 0 10 -8 -1 -22 -4 -30 -9z"/>
<path d="M8486 15489 c-66 -10 -179 -40 -173 -46 3 -2 26 1 53 7 76 17 272 40
344 40 73 0 232 -23 286 -40 19 -7 37 -10 40 -7 3 2 -32 15 -78 28 -69 19
-111 23 -248 25 -91 1 -191 -2 -224 -7z"/>
<path d="M4070 15479 c-93 -15 -171 -39 -258 -81 -46 -22 -81 -42 -79 -44 2
-2 40 12 85 31 73 32 193 66 322 93 60 13 7 13 -70 1z"/>
<path d="M8640 15410 c25 -4 98 -13 164 -20 65 -6 162 -20 215 -31 109 -22
180 -35 231 -43 31 -5 29 -4 -10 9 -107 37 -317 74 -485 85 -151 11 -177 11
-115 0z"/>
<path d="M6565 14713 c-110 -14 -414 -97 -402 -109 2 -3 15 0 29 5 54 20 379
81 469 87 139 10 312 -10 529 -61 19 -5 18 -3 -7 9 -44 20 -185 54 -273 66
-73 9 -284 11 -345 3z"/>
<path d="M6215 14421 c-91 -23 -210 -64 -197 -69 6 -2 56 11 111 28 95 29 196
46 321 53 30 2 6 4 -55 4 -75 1 -132 -4 -180 -16z"/>
<path d="M6965 14383 c66 -3 280 -28 335 -39 16 -4 21 -2 15 4 -22 21 -177 42
-298 40 -69 -1 -92 -3 -52 -5z"/>
<path d="M7025 14319 c-115 -34 -370 -47 -580 -30 -298 26 -338 16 -60 -14
178 -19 394 -19 510 0 98 16 226 53 185 53 -14 0 -38 -4 -55 -9z"/>
<path d="M4705 14145 c-156 -23 -335 -78 -504 -156 -86 -40 -72 -47 18 -9 81
35 261 93 356 115 97 22 284 45 383 46 61 1 78 4 57 9 -46 12 -210 9 -310 -5z"/>
<path d="M5022 13973 c-35 -14 -61 -27 -59 -29 2 -2 44 9 93 25 57 19 78 30
59 29 -16 0 -58 -11 -93 -25z"/>
<path d="M4488 13923 c6 -2 18 -2 25 0 6 3 1 5 -13 5 -14 0 -19 -2 -12 -5z"/>
<path d="M4955 13895 c-227 -110 -444 -159 -770 -175 -127 -6 -216 -15 -245
-25 -27 -9 -33 -13 -15 -10 17 3 129 9 250 14 294 13 487 47 664 121 78 32
177 85 186 101 8 11 12 13 -70 -26z"/>
<path d="M4320 13899 c-47 -10 -119 -29 -160 -42 -41 -14 -95 -29 -120 -35
-25 -6 -54 -14 -65 -16 -11 -3 1 -4 27 -2 39 3 148 30 423 106 60 16 -16 9
-105 -11z"/>
<path d="M8395 13815 c-60 -7 -121 -18 -135 -24 l-25 -12 25 6 c14 4 97 9 185
12 184 6 239 -4 465 -84 160 -57 182 -61 95 -19 -142 69 -402 141 -485 135 -8
-1 -64 -7 -125 -14z"/>
<path d="M8136 13680 c-32 -5 -61 -11 -63 -14 -2 -2 63 -3 144 -3 108 1 171
-4 231 -17 46 -10 86 -16 88 -13 8 8 -193 47 -266 51 -41 3 -102 1 -134 -4z"/>
<path d="M9080 13656 c0 -2 7 -7 16 -10 8 -3 12 -2 9 4 -6 10 -25 14 -25 6z"/>
<path d="M8195 13583 c21 -22 232 -95 385 -135 39 -10 615 -20 605 -10 -2 2
-38 10 -81 17 -63 11 -103 12 -199 3 -128 -11 -214 -7 -331 18 -75 15 -264 71
-369 110 -14 5 -17 4 -10 -3z"/>
<path d="M10720 13358 c173 -50 246 -76 336 -122 124 -64 129 -56 6 11 -105
57 -193 90 -290 109 -84 16 -103 17 -52 2z"/>
<path d="M10585 13271 c103 -19 208 -50 328 -95 37 -14 67 -24 67 -21 0 9
-118 59 -218 91 -70 22 -130 35 -190 38 l-87 6 100 -19z"/>
<path d="M11055 13183 c39 -21 106 -63 150 -94 74 -52 163 -104 140 -82 -27
27 -216 154 -260 176 -83 41 -105 41 -30 0z"/>
<path d="M6331 12586 c17 -19 129 -37 284 -46 94 -6 222 -15 285 -21 164 -15
344 -28 348 -24 4 4 -173 31 -333 50 -27 3 -160 12 -295 20 -135 7 -256 17
-270 21 -14 4 -22 4 -19 0z"/>
<path d="M6220 12340 c14 -4 34 -8 45 -8 16 0 15 2 -5 8 -14 4 -34 8 -45 8
-16 0 -15 -2 5 -8z"/>
<path d="M6355 12305 c39 -13 99 -32 135 -41 36 -9 70 -22 75 -27 7 -6 1 -7
-15 -3 -14 4 -81 9 -150 11 -111 4 -98 2 120 -21 289 -31 384 -34 545 -15 130
14 151 18 142 27 -3 3 -72 0 -153 -6 -250 -21 -387 -6 -640 70 -117 35 -160
39 -59 5z"/>
<path d="M5299 12243 c-13 -16 -12 -17 4 -4 9 7 17 15 17 17 0 8 -8 3 -21 -13z"/>
<path d="M10105 12231 c-12 -5 10 -10 65 -15 176 -14 299 -60 468 -175 119
-80 131 -87 92 -51 -96 87 -255 181 -360 213 -30 9 -95 21 -145 27 -102 11
-94 11 -120 1z"/>
<path d="M5145 12161 c-239 -126 -436 -193 -689 -236 -66 -11 -34 -14 49 -4
71 8 135 20 200 36 11 2 -48 -30 -132 -71 -131 -66 -161 -86 -218 -143 -85
-86 -84 -97 1 -15 57 54 91 75 228 141 88 43 177 85 196 94 19 8 71 32 115 52
207 95 284 122 460 156 67 13 80 17 50 18 -22 0 -86 -10 -142 -22 -57 -13
-103 -22 -103 -21 0 1 27 19 60 39 33 20 60 38 60 41 0 6 8 10 -135 -65z"/>
<path d="M8000 12161 c102 -83 612 -265 728 -260 16 1 -1 8 -38 16 -166 37
-534 167 -650 230 -36 19 -54 25 -40 14z"/>
<path d="M10164 12031 c22 -35 281 -180 377 -211 93 -30 299 -82 310 -78 6 2
-39 18 -98 36 -59 18 -144 44 -188 58 -81 26 -244 107 -342 170 -55 35 -68 41
-59 25z"/>
<path d="M10585 11940 c15 -24 290 -139 302 -126 3 2 -13 9 -34 16 -21 7 -51
18 -68 25 -103 45 -134 60 -169 77 -21 11 -35 14 -31 8z"/>
<path d="M7995 11904 c76 -47 320 -162 400 -188 44 -14 139 -35 210 -46 72
-11 141 -22 155 -25 24 -5 24 -5 2 4 -12 6 -59 17 -105 26 -240 45 -319 72
-561 191 -139 69 -165 78 -101 38z"/>
<path d="M10745 11707 c38 -33 144 -91 152 -83 4 3 2 6 -3 6 -9 0 -47 22 -149
84 l-30 19 30 -26z"/>
<path d="M9561 11107 c-1 -16 70 -136 97 -164 43 -45 110 -95 207 -155 105
-65 226 -131 231 -125 2 1 -27 20 -64 42 -101 57 -294 187 -337 226 -20 19
-54 59 -74 91 -20 31 -41 64 -48 75 -6 10 -12 14 -12 10z"/>
<path d="M9480 10926 c0 -2 8 -10 18 -17 15 -13 16 -12 3 4 -13 16 -21 21 -21
13z"/>
<path d="M6200 10875 c13 -14 26 -25 28 -25 3 0 -5 11 -18 25 -13 14 -26 25
-28 25 -3 0 5 -11 18 -25z"/>
<path d="M9520 10896 c0 -3 26 -23 58 -44 31 -22 93 -74 137 -116 99 -95 258
-217 333 -255 31 -16 73 -47 93 -68 45 -47 237 -295 268 -346 34 -55 37 -38 4
23 -29 54 -169 234 -239 307 -22 24 -39 43 -38 43 1 0 39 -14 83 -31 93 -35
132 -35 44 0 -209 86 -336 165 -496 307 -102 91 -247 197 -247 180z"/>
<path d="M6249 10837 c13 -16 66 -61 361 -302 144 -117 428 -325 645 -472 50
-33 135 -91 190 -128 225 -153 451 -281 655 -373 25 -11 92 -41 150 -67 111
-49 245 -116 347 -171 89 -50 231 -104 558 -214 246 -83 342 -120 435 -169 97
-50 181 -109 255 -178 162 -151 169 -157 140 -123 -78 92 -199 203 -277 254
-47 31 -91 56 -96 56 -6 0 -14 5 -18 12 -5 8 0 9 17 4 13 -3 76 -18 139 -32
63 -13 124 -27 135 -31 11 -3 17 -2 13 2 -3 3 -75 24 -160 46 -131 35 -422
129 -803 262 -164 58 -255 96 -345 146 -102 57 -184 96 -395 191 -345 155
-460 219 -820 461 -415 278 -693 482 -995 727 -155 126 -147 121 -131 99z"/>
<path d="M2690 10480 c-8 -5 -62 -37 -120 -71 -124 -74 -317 -218 -380 -286
-39 -41 -32 -38 26 12 51 44 75 63 158 125 52 38 146 101 208 139 62 39 120
75 128 80 19 12 0 13 -20 1z"/>
<path d="M10338 10373 c7 -3 16 -2 19 1 4 3 -2 6 -13 5 -11 0 -14 -3 -6 -6z"/>
<path d="M2669 10308 c-123 -147 -289 -242 -598 -345 -182 -61 -211 -83 -50
-38 337 94 543 211 657 374 24 33 41 61 39 61 -2 0 -24 -24 -48 -52z"/>
<path d="M4600 10317 c0 -3 62 -38 138 -77 325 -171 426 -231 550 -324 183
-139 241 -204 557 -621 54 -71 110 -144 124 -161 57 -68 206 -256 234 -294 10
-14 9 -8 -4 15 -21 38 -88 128 -329 444 -58 75 -118 155 -135 177 -197 262
-384 438 -600 566 -79 47 -535 281 -535 275z"/>
<path d="M5060 10245 c312 -32 593 -136 989 -364 68 -39 124 -71 126 -71 3 0
313 -185 360 -215 385 -245 567 -383 969 -732 66 -58 186 -160 266 -227 80
-66 156 -130 170 -142 14 -12 88 -74 165 -139 77 -65 152 -129 168 -143 15
-14 27 -23 27 -20 0 7 -224 207 -430 383 -96 82 -198 170 -226 195 -28 25 -64
56 -80 70 -16 14 -67 59 -114 101 -108 95 -323 275 -375 314 -22 17 -46 36
-53 43 -23 21 -201 146 -327 227 -320 209 -852 508 -1045 588 -225 93 -470
149 -643 146 -66 -1 -61 -2 53 -14z"/>
<path d="M10116 9659 c85 -94 187 -267 208 -353 4 -15 9 -26 12 -23 12 11 -49
161 -93 230 -45 70 -126 166 -155 183 -7 4 5 -12 28 -37z"/>
<path d="M4738 9643 c6 -2 18 -2 25 0 6 3 1 5 -13 5 -14 0 -19 -2 -12 -5z"/>
<path d="M3337 9098 c-89 -179 -202 -322 -342 -433 -69 -54 -75 -61 -36 -39
46 26 167 130 222 192 60 67 155 224 185 306 13 37 22 66 21 66 -2 0 -24 -42
-50 -92z"/>
<path d="M6005 9030 c9 -16 18 -30 21 -30 2 0 -2 14 -11 30 -9 17 -18 30 -21
30 -2 0 2 -13 11 -30z"/>
<path d="M6030 8986 c0 -2 11 -26 24 -53 67 -132 192 -409 264 -583 304 -737
395 -1370 291 -2030 -36 -232 -134 -510 -240 -682 -60 -98 -54 -102 7 -7 191
295 299 740 297 1229 -1 374 -67 741 -206 1155 -91 270 -136 375 -336 789 -77
159 -101 202 -101 182z"/>
<path d="M3511 8648 c-1 -4 6 -33 14 -65 21 -77 20 -169 -1 -224 -10 -24 -37
-75 -61 -112 -75 -118 -175 -338 -172 -380 0 -7 9 12 19 41 59 165 178 360
293 482 34 35 47 51 28 35 -19 -17 -48 -45 -64 -63 -16 -18 -31 -31 -33 -29
-2 1 4 27 13 57 13 46 14 64 3 124 -11 63 -37 152 -39 134z"/>
<path d="M3755 8550 c-20 -27 -47 -58 -61 -69 -13 -10 -24 -22 -24 -27 0 -13
65 54 100 102 17 24 29 44 26 44 -2 0 -21 -22 -41 -50z"/>
<path d="M3465 8119 c-4 -6 -5 -12 -2 -15 2 -3 7 2 10 11 7 17 1 20 -8 4z"/>
<path d="M3446 8073 c-6 -14 -5 -15 5 -6 7 7 10 15 7 18 -3 3 -9 -2 -12 -12z"/>
<path d="M3426 8033 c-6 -14 -5 -15 5 -6 7 7 10 15 7 18 -3 3 -9 -2 -12 -12z"/>
<path d="M3334 7788 c-9 -29 -52 -134 -94 -233 -43 -99 -91 -225 -108 -280
-35 -114 -72 -292 -71 -339 0 -17 12 21 25 84 24 119 92 344 124 415 68 148
124 296 144 378 11 46 -1 30 -20 -25z"/>
<path d="M3601 6833 c-63 -206 -90 -352 -95 -507 l-5 -131 9 105 c13 172 29
257 87 469 36 132 39 178 4 64z"/>
<path d="M3051 6864 c0 -11 3 -14 6 -6 3 7 2 16 -1 19 -3 4 -6 -2 -5 -13z"/>
<path d="M6773 6305 c0 -27 2 -38 4 -22 2 15 2 37 0 50 -2 12 -4 0 -4 -28z"/>
<path d="M6783 6185 c0 -22 2 -30 4 -17 2 12 2 30 0 40 -3 9 -5 -1 -4 -23z"/>
<path d="M6793 6100 c0 -25 2 -35 4 -22 2 12 2 32 0 45 -2 12 -4 2 -4 -23z"/>
<path d="M6805 5757 c0 -253 -2 -278 -23 -355 -12 -46 -32 -106 -43 -134 -11
-28 -18 -52 -16 -55 7 -6 53 117 72 192 26 105 35 260 24 449 -5 94 -11 171
-12 172 -1 2 -2 -120 -2 -269z"/>
<path d="M9521 5774 c-7 -20 -11 -38 -8 -40 3 -3 10 11 17 31 16 47 8 55 -9 9z"/>
<path d="M9480 5664 c-13 -32 -50 -110 -82 -172 -156 -302 -345 -528 -563
-671 -123 -82 -144 -98 -70 -56 224 126 392 295 562 565 72 115 188 361 180
383 -2 6 -14 -16 -27 -49z"/>
<path d="M5680 5135 c-132 -87 -330 -175 -490 -218 -138 -37 -187 -42 -398
-42 -220 0 -233 -9 -32 -21 309 -18 607 65 893 250 47 30 88 60 92 65 9 15 8
15 -65 -34z"/>
<path d="M4548 4883 c7 -3 16 -2 19 1 4 3 -2 6 -13 5 -11 0 -14 -3 -6 -6z"/>
<path d="M6455 4834 c-87 -73 -313 -188 -505 -257 -69 -24 -132 -47 -140 -50
-9 -3 -10 -6 -2 -6 28 -2 264 84 371 135 115 55 260 145 295 183 25 28 18 26
-19 -5z"/>
<path d="M5688 4493 c7 -3 16 -2 19 1 4 3 -2 6 -13 5 -11 0 -14 -3 -6 -6z"/>
<path d="M4665 4440 c3 -5 10 -10 15 -10 5 0 42 -16 81 -35 185 -90 475 -159
779 -185 69 -6 145 -14 170 -17 l45 -6 -40 -8 c-22 -4 -107 -13 -190 -19 -185
-16 -365 -7 -510 25 -21 4 -26 3 -15 -3 8 -6 56 -18 105 -28 70 -14 137 -18
300 -18 247 1 343 13 720 92 294 62 407 77 600 77 249 0 313 -16 710 -172 247
-97 377 -132 625 -167 304 -43 492 -42 687 4 88 21 242 76 258 93 7 7 4 8 -10
3 -292 -109 -526 -125 -945 -66 -241 35 -360 67 -626 173 -183 73 -336 124
-439 146 -164 35 -370 32 -600 -10 -433 -79 -598 -94 -820 -74 -346 31 -599
88 -824 184 -81 34 -85 35 -76 21z"/>
<path d="M9030 4080 c-8 -5 -10 -10 -5 -10 6 0 17 5 25 10 8 5 11 10 5 10 -5
0 -17 -5 -25 -10z"/>
<path d="M4955 3971 c114 -51 162 -56 474 -53 175 2 324 -1 370 -8 138 -20
265 -41 366 -62 90 -19 130 -21 395 -20 356 3 359 2 750 -86 74 -17 196 -44
270 -61 74 -16 186 -46 248 -66 365 -118 580 -126 875 -34 55 16 97 32 95 34
-2 2 -33 -5 -68 -16 -105 -33 -207 -50 -335 -56 -182 -9 -306 12 -545 91 -58
19 -177 51 -265 71 -88 20 -198 45 -245 56 -405 97 -426 100 -787 97 -288 -2
-303 -1 -443 25 -324 61 -421 68 -750 53 -193 -9 -280 0 -389 38 -58 21 -66
19 -16 -3z"/>
<path d="M6146 3669 c61 -66 94 -162 115 -334 20 -159 15 -650 -10 -995 -28
-386 -35 -506 -28 -500 5 5 32 292 59 630 17 221 17 734 -1 870 -22 173 -69
290 -137 341 l-29 23 31 -35z"/>
<path d="M6859 3558 c-36 -51 -52 -86 -67 -153 -20 -86 -42 -489 -41 -755 2
-421 14 -418 21 5 12 634 32 818 103 911 14 19 24 34 21 34 -3 0 -20 -19 -37
-42z"/>
<path d="M6772 2210 c0 -19 2 -27 5 -17 2 9 2 25 0 35 -3 9 -5 1 -5 -18z"/>
<path d="M6213 1785 c0 -27 2 -38 4 -22 2 15 2 37 0 50 -2 12 -4 0 -4 -28z"/>
<path d="M6202 1690 c0 -19 2 -27 5 -17 2 9 2 25 0 35 -3 9 -5 1 -5 -18z"/>
</g>
</svg>
