<?xml version="1.0" standalone="no"?>
<!DOCTYPE svg PUBLIC "-//W3C//DTD SVG 20010904//EN"
 "http://www.w3.org/TR/2001/REC-SVG-20010904/DTD/svg10.dtd">
<svg version="1.0" xmlns="http://www.w3.org/2000/svg"
 width="1650.000000pt" height="2210.000000pt" viewBox="0 0 1650.000000 2210.000000"
 preserveAspectRatio="xMidYMid meet">

<g transform="translate(0.000000,2210.000000) scale(0.100000,-0.100000)"
fill="#000000" stroke="none">
<path d="M7890 21313 c-748 -74 -1384 -236 -2020 -515 -954 -417 -1712 -1148
-2144 -2066 -341 -726 -508 -1534 -509 -2467 0 -588 56 -1121 203 -1924 16
-91 28 -167 25 -169 -8 -8 -73 47 -112 95 -79 97 -150 166 -196 189 -134 69
-261 26 -335 -114 -56 -104 -67 -166 -66 -362 1 -211 17 -321 108 -755 66
-318 79 -382 142 -735 68 -383 146 -602 333 -938 55 -99 134 -249 176 -335
112 -227 190 -305 362 -363 127 -43 215 -27 304 53 21 19 39 31 39 27 0 -30
74 -653 91 -764 67 -442 147 -730 304 -1090 42 -96 104 -242 137 -325 l62
-150 9 -225 c10 -273 1 -814 -18 -1120 -43 -671 -95 -891 -259 -1096 -107
-133 -318 -318 -516 -452 -233 -157 -307 -196 -1160 -615 -312 -154 -533 -273
-794 -429 -212 -127 -583 -371 -730 -480 -120 -89 -274 -180 -376 -223 -46
-20 -181 -63 -300 -97 -207 -58 -240 -70 -240 -89 0 -18 66 -8 223 32 323 83
466 149 717 330 514 371 1101 715 1705 999 254 119 661 326 785 400 287 169
583 411 731 598 126 157 194 360 228 677 86 795 73 1812 -39 2990 -21 215 -60
518 -67 511 -2 -2 5 -86 16 -187 32 -294 95 -1376 79 -1359 -8 8 -198 456
-240 565 -49 126 -129 420 -162 590 -25 131 -46 286 -131 985 -107 881 -127
988 -236 1326 -28 86 -52 154 -54 152 -2 -2 5 -33 16 -68 31 -100 96 -354 119
-465 18 -85 60 -384 60 -422 0 -18 -20 -16 -86 9 -65 25 -161 109 -234 203
-52 67 -65 65 -19 -2 83 -122 228 -235 314 -246 l30 -4 22 -178 22 -179 -45
-52 c-63 -74 -136 -109 -209 -100 -126 15 -254 91 -324 195 -23 33 -72 124
-110 203 -39 79 -102 199 -141 268 -218 380 -275 551 -375 1130 -25 146 -68
366 -96 489 -138 623 -158 954 -68 1134 63 125 166 162 279 101 38 -20 76 -57
132 -124 44 -52 103 -111 132 -130 29 -19 60 -39 68 -45 9 -6 37 -102 73 -250
115 -476 242 -810 521 -1367 301 -602 494 -897 807 -1237 72 -79 148 -167 169
-195 57 -81 196 -346 208 -396 81 -343 113 -672 112 -1140 0 -389 -14 -710
-48 -1115 -44 -538 -53 -685 -64 -1045 -15 -489 -40 -722 -102 -929 -20 -67
-30 -83 -114 -175 -256 -285 -630 -585 -1004 -808 -260 -154 -406 -230 -1350
-696 -490 -243 -817 -449 -1115 -706 -90 -77 -225 -208 -225 -218 0 -4 42 27
93 70 262 220 619 462 962 650 72 39 334 170 583 291 682 332 892 445 1292
694 260 162 336 212 479 316 523 381 877 710 1203 1117 154 193 318 435 389
577 34 66 16 42 -69 -98 -299 -492 -710 -944 -1242 -1366 -131 -104 -359 -274
-455 -340 -98 -67 -105 -71 -105 -65 0 2 39 35 87 72 390 305 736 687 1003
1109 444 701 744 1496 859 2280 42 280 53 428 58 772 4 245 9 343 17 342 6 0
34 -8 61 -18 l50 -18 5 -179 6 -179 2 171 c1 94 4 173 7 176 3 2 48 -7 100
-20 l95 -25 2 -161 2 -161 3 158 c4 172 1 165 68 146 22 -6 101 -24 175 -39
l135 -27 3 -47 c8 -118 -49 -475 -109 -689 -17 -60 -29 -111 -26 -113 7 -8 65
203 91 332 27 133 51 302 62 432 l6 84 32 -6 c17 -3 68 -10 114 -17 l82 -11 2
-42 1 -41 4 38 c4 34 7 37 36 37 18 0 64 -5 102 -10 99 -12 155 -18 274 -26
l104 -6 -7 -177 c-9 -220 -30 -459 -56 -619 -20 -125 -23 -148 -16 -141 8 8
47 259 61 399 8 80 18 233 22 340 l6 195 276 -2 276 -1 6 -169 c11 -274 47
-602 79 -723 l10 -35 -5 40 c-3 22 -14 99 -25 170 -22 148 -36 328 -46 561
l-6 162 116 7 c64 4 119 8 123 9 4 0 13 -46 20 -104 14 -126 65 -418 70 -403
2 6 -10 91 -26 189 -17 99 -33 211 -37 250 l-7 71 102 11 c150 17 149 18 154
-21 l4 -32 1 36 2 35 112 17 c61 9 114 15 116 12 3 -3 9 -58 14 -123 9 -134
39 -320 74 -471 28 -118 65 -244 70 -238 2 2 -5 35 -16 73 -60 205 -108 490
-112 663 l-3 104 160 32 c88 18 172 36 188 40 l27 7 2 -153 2 -154 6 155 5
155 80 22 c125 34 114 47 118 -135 l3 -157 2 162 2 161 53 18 c28 9 58 19 65
22 9 3 12 -48 12 -234 0 -803 152 -1561 456 -2271 225 -526 511 -1004 833
-1388 128 -153 416 -433 581 -564 153 -122 188 -151 163 -137 -7 4 -13 5 -13
2 0 -5 245 -160 395 -249 251 -149 610 -336 1095 -569 393 -188 598 -295 787
-409 261 -158 547 -360 746 -527 107 -90 116 -83 15 14 -170 163 -353 308
-568 449 -269 177 -443 271 -986 533 -963 465 -1358 706 -1798 1100 -147 132
-333 333 -355 385 -65 150 -104 462 -116 927 -8 309 -21 515 -55 925 -49 582
-54 696 -55 1225 0 557 8 679 66 995 16 88 29 170 29 183 0 24 96 214 182 360
37 62 96 136 195 243 326 353 488 597 777 1169 323 639 435 925 561 1436 30
121 55 228 55 237 0 9 18 26 43 38 59 30 89 57 172 155 106 123 155 156 235
157 171 3 263 -224 232 -571 -16 -176 -59 -424 -122 -703 -27 -123 -65 -318
-85 -434 -57 -339 -94 -511 -142 -655 -46 -141 -153 -372 -242 -525 -29 -49
-87 -160 -128 -245 -114 -233 -172 -308 -283 -365 -159 -81 -280 -66 -373 49
-43 52 -44 55 -20 258 l16 146 31 6 c49 10 127 50 175 90 49 41 171 191 171
209 0 7 -12 -3 -26 -21 -114 -144 -192 -211 -279 -238 -30 -10 -57 -15 -61
-12 -7 7 19 220 42 348 23 126 78 359 118 494 20 66 34 122 31 124 -5 6 -99
-292 -129 -414 -47 -188 -82 -420 -151 -999 -83 -700 -113 -925 -145 -1080
-58 -284 -139 -540 -243 -776 -35 -79 -83 -190 -107 -247 -24 -56 -45 -100
-47 -99 -12 13 50 1079 78 1330 11 104 19 191 17 193 -8 7 -48 -294 -68 -511
-68 -750 -85 -1103 -85 -1795 1 -859 36 -1286 131 -1580 57 -177 141 -294 344
-478 174 -158 380 -307 590 -427 101 -57 530 -272 755 -378 577 -270 1161
-613 1650 -967 277 -200 419 -266 755 -351 158 -40 210 -47 210 -28 0 15 -48
32 -246 89 -348 98 -394 122 -824 426 -472 333 -955 608 -1663 945 -677 323
-960 502 -1261 797 -237 234 -294 372 -345 837 -38 347 -46 541 -46 1140 l0
580 36 90 c20 50 86 205 146 345 219 507 288 792 378 1570 19 167 35 312 35
323 0 17 5 15 35 -12 110 -96 236 -104 393 -26 46 24 90 57 134 103 57 59 79
94 167 267 55 110 132 256 171 325 186 334 251 530 340 1035 28 157 80 426
116 598 92 440 107 545 108 762 1 122 -3 198 -13 235 -59 236 -221 337 -392
243 -48 -26 -80 -57 -182 -177 -47 -55 -114 -113 -121 -105 -2 2 7 60 20 129
160 834 233 1630 206 2224 -30 636 -114 1131 -279 1641 -296 917 -840 1665
-1591 2192 -260 182 -495 315 -772 438 -616 272 -1279 446 -1948 510 -140 14
-692 19 -802 8z m870 -68 c730 -81 1454 -291 2060 -596 832 -418 1464 -1049
1876 -1872 86 -171 124 -258 190 -442 307 -844 408 -1752 315 -2820 -24 -273
-38 -378 -92 -710 -169 -1047 -279 -1421 -635 -2157 -313 -646 -548 -1021
-813 -1298 l-82 -85 71 143 c38 78 68 142 66 142 -3 0 -49 -81 -103 -181 -93
-173 -101 -184 -180 -254 -266 -238 -624 -481 -890 -606 -94 -44 -309 -132
-425 -175 l-38 -13 0 28 c0 27 9 34 156 107 141 70 412 236 428 262 3 6 -47
-25 -113 -69 -65 -43 -195 -118 -287 -165 l-169 -86 -3 33 c-2 18 -1 47 3 66
6 31 15 37 203 133 108 55 208 109 222 121 14 11 0 6 -30 -11 -54 -31 -377
-190 -386 -190 -2 0 -2 10 0 23 3 12 7 39 11 59 6 39 4 37 237 168 43 24 76
45 74 47 -2 2 -26 -9 -52 -25 -27 -16 -93 -52 -146 -80 -93 -49 -98 -51 -98
-29 0 38 49 284 86 427 18 74 36 146 39 160 l6 25 -11 -25 c-49 -111 -154
-587 -186 -843 l-18 -148 -65 -19 c-35 -11 -65 -19 -66 -18 -2 2 1 41 5 88 17
178 19 234 4 120 -7 -63 -16 -138 -20 -166 l-5 -51 -97 -26 c-53 -14 -98 -24
-100 -22 -2 2 1 72 7 156 7 83 10 154 6 157 -3 3 -5 -8 -6 -24 0 -16 -6 -90
-12 -164 l-12 -135 -155 -32 c-85 -17 -170 -34 -187 -38 l-33 -6 0 64 c0 217
56 549 136 806 19 62 34 115 31 117 -6 6 -95 -284 -112 -366 -32 -152 -55
-315 -65 -463 -7 -84 -15 -155 -18 -159 -8 -7 -223 -40 -228 -35 -2 2 -8 102
-13 223 l-10 219 4 -222 4 -222 -27 -5 c-15 -3 -58 -8 -97 -11 -38 -4 -82 -9
-97 -11 -26 -5 -28 -3 -30 28 l-1 33 -4 -31 c-4 -30 -6 -31 -65 -38 -34 -3
-87 -6 -119 -6 l-59 0 -2 188 -2 187 -6 -190 -5 -190 -275 0 -275 0 -5 200 -6
200 -2 -197 -2 -198 -52 0 c-29 0 -83 3 -120 7 -60 5 -68 8 -69 27 l0 21 -9
-21 c-8 -20 -10 -20 -122 -8 -62 7 -116 13 -120 13 -4 1 -4 88 -1 194 5 186
-4 378 -29 570 -6 48 -13 86 -15 83 -2 -2 4 -68 14 -147 13 -105 17 -218 18
-416 0 -149 -3 -274 -6 -277 -3 -4 -57 2 -120 12 l-114 17 -8 90 c-17 205 -39
377 -62 491 -25 126 -84 331 -110 387 -21 45 -13 12 33 -142 67 -218 105 -441
118 -695 l7 -127 -24 5 c-13 3 -91 19 -174 36 -203 41 -185 32 -185 93 0 112
-55 526 -67 513 -3 -2 5 -58 16 -123 23 -136 47 -420 37 -430 -7 -8 -176 33
-188 45 -3 4 -11 54 -17 112 -17 162 -43 351 -48 346 -2 -2 5 -78 16 -167 29
-238 33 -289 24 -288 -4 0 -35 10 -68 22 l-60 22 -17 137 c-32 259 -98 573
-169 802 -34 111 -48 127 -18 21 46 -164 134 -573 124 -583 -1 -1 -50 23 -109
53 -58 31 -106 54 -106 52 0 -3 49 -32 110 -64 88 -46 110 -63 114 -83 15 -82
16 -100 6 -100 -11 0 -272 130 -360 180 -31 18 -44 22 -30 11 14 -12 109 -64
212 -116 178 -91 187 -97 192 -128 11 -71 12 -97 4 -97 -38 0 -451 234 -553
314 -22 17 -34 23 -27 14 38 -47 347 -235 515 -313 66 -30 77 -39 77 -60 0
-14 -4 -25 -10 -25 -21 0 -361 136 -465 185 -241 116 -564 332 -800 534 -138
118 -172 156 -212 236 -37 73 -145 265 -149 265 -2 0 28 -63 67 -141 38 -78
66 -139 61 -138 -18 7 -194 215 -293 346 -169 224 -297 443 -533 913 -411 814
-534 1239 -725 2490 -99 649 -118 1421 -51 2012 50 433 168 930 313 1318 170
452 401 855 705 1230 121 149 423 447 582 574 242 194 569 400 845 532 637
305 1422 515 2140 574 167 13 695 4 865 -15z m-3475 -10378 c214 -162 381
-269 565 -363 158 -82 255 -122 507 -214 58 -21 63 -25 69 -58 4 -20 4 -128
-1 -241 -4 -114 -7 -219 -8 -236 -2 -119 -39 -462 -67 -625 -6 -30 -20 -113
-32 -184 -19 -111 -23 -126 -35 -110 -16 21 -17 14 -3 -18 8 -18 5 -45 -15
-118 -13 -52 -27 -107 -29 -122 -8 -43 -68 -252 -75 -260 -4 -5 -20 31 -35 80
-30 91 -139 372 -271 697 -105 258 -167 430 -270 755 -153 476 -313 862 -456
1098 -21 35 -39 66 -39 69 0 3 19 -11 43 -31 23 -20 92 -73 152 -119z m6103
106 c-40 -61 -153 -279 -206 -398 -77 -175 -173 -438 -268 -735 -99 -313 -168
-503 -279 -775 -123 -301 -201 -500 -248 -635 l-45 -125 -26 87 c-15 47 -33
115 -41 150 -8 34 -26 108 -39 162 -14 55 -23 102 -21 104 3 3 1 10 -4 16 -8
11 -37 160 -65 346 -30 191 -49 378 -50 491 0 64 -4 115 -7 113 -10 -6 -22
357 -14 428 7 63 8 65 43 77 66 23 296 113 357 140 249 108 624 343 855 536
41 35 77 61 79 59 2 -2 -7 -21 -21 -41z m-6000 -673 c43 -113 96 -259 115
-325 42 -137 180 -551 225 -670 16 -44 73 -186 126 -315 109 -262 200 -496
252 -643 35 -99 36 -109 9 -172 -7 -16 -20 -57 -30 -90 -10 -33 -25 -78 -35
-100 -10 -22 -34 -80 -53 -130 -74 -190 -258 -570 -268 -553 -4 6 -18 61 -30
121 -13 61 -25 105 -26 100 -2 -6 7 -62 21 -125 15 -62 26 -118 26 -124 0 -15
-97 -189 -184 -329 -132 -212 -365 -530 -366 -499 0 6 9 46 20 88 40 156 59
367 80 896 11 276 16 337 60 870 87 1040 77 1694 -35 2205 -12 56 12 3 93
-205z m5798 104 c-89 -437 -96 -1142 -20 -2034 48 -574 54 -653 69 -1002 22
-515 38 -684 81 -849 27 -107 29 -108 -110 76 -138 184 -324 476 -401 630 -17
33 -33 62 -37 65 -9 7 -175 349 -213 440 -56 131 -128 317 -161 417 l-35 101
45 124 c54 148 124 326 281 713 64 160 157 414 207 565 49 151 111 340 138
420 54 162 170 463 176 457 2 -2 -7 -57 -20 -123z"/>
<path d="M3413 16213 c67 -138 106 -211 116 -217 10 -7 57 -114 108 -251 19
-49 31 -76 28 -60 -13 63 -88 244 -134 325 -27 47 -72 131 -100 188 -28 56
-53 102 -56 102 -2 0 15 -39 38 -87z"/>
<path d="M13045 16143 c-37 -70 -76 -138 -86 -151 -39 -50 -150 -372 -148
-431 0 -14 7 3 14 38 28 125 111 346 154 406 29 40 145 265 137 265 -2 0 -34
-57 -71 -127z"/>
<path d="M3671 15634 c0 -11 3 -14 6 -6 3 7 2 16 -1 19 -3 4 -6 -2 -5 -13z"/>
<path d="M3682 15590 c0 -14 2 -19 5 -12 2 6 2 18 0 25 -3 6 -5 1 -5 -13z"/>
<path d="M3691 15534 c0 -11 3 -14 6 -6 3 7 2 16 -1 19 -3 4 -6 -2 -5 -13z"/>
<path d="M3690 15426 c0 -8 7 -17 16 -20 23 -9 24 -4 2 17 -14 13 -18 14 -18
3z"/>
<path d="M12785 15410 c-16 -7 -17 -9 -3 -9 9 -1 20 4 23 9 7 11 7 11 -20 0z"/>
<path d="M3760 15385 c30 -16 83 -95 99 -145 l11 -35 -5 34 c-9 60 -85 162
-120 161 -5 -1 1 -7 15 -15z"/>
<path d="M12728 15389 c-30 -17 -89 -116 -93 -156 l-5 -38 10 37 c13 50 73
142 102 155 12 7 19 12 13 12 -5 0 -18 -4 -27 -10z"/>
<path d="M3872 15125 c0 -16 2 -22 5 -12 2 9 2 23 0 30 -3 6 -5 -1 -5 -18z"/>
<path d="M12622 15125 c0 -16 2 -22 5 -12 2 9 2 23 0 30 -3 6 -5 -1 -5 -18z"/>
<path d="M3922 14700 c0 -14 2 -19 5 -12 2 6 2 18 0 25 -3 6 -5 1 -5 -13z"/>
<path d="M12571 14694 c0 -11 3 -14 6 -6 3 7 2 16 -1 19 -3 4 -6 -2 -5 -13z"/>
<path d="M3931 14654 c0 -11 3 -14 6 -6 3 7 2 16 -1 19 -3 4 -6 -2 -5 -13z"/>
<path d="M12555 14630 c-4 -23 -5 -43 -2 -46 2 -3 7 14 11 37 4 23 5 44 2 46
-2 2 -7 -14 -11 -37z"/>
<path d="M3942 14610 c0 -14 2 -19 5 -12 2 6 2 18 0 25 -3 6 -5 1 -5 -13z"/>
<path d="M3953 14530 c0 -25 2 -35 4 -22 2 12 2 32 0 45 -2 12 -4 2 -4 -23z"/>
<path d="M12543 14515 c0 -27 2 -38 4 -22 2 15 2 37 0 50 -2 12 -4 0 -4 -28z"/>
<path d="M3962 14440 c0 -19 2 -27 5 -17 2 9 2 25 0 35 -3 9 -5 1 -5 -18z"/>
<path d="M12532 14430 c0 -19 2 -27 5 -17 2 9 2 25 0 35 -3 9 -5 1 -5 -18z"/>
<path d="M3972 14375 c0 -16 2 -22 5 -12 2 9 2 23 0 30 -3 6 -5 -1 -5 -18z"/>
<path d="M12522 14355 c0 -16 2 -22 5 -12 2 9 2 23 0 30 -3 6 -5 -1 -5 -18z"/>
<path d="M3981 14314 c0 -11 3 -14 6 -6 3 7 2 16 -1 19 -3 4 -6 -2 -5 -13z"/>
<path d="M12511 14304 c0 -11 3 -14 6 -6 3 7 2 16 -1 19 -3 4 -6 -2 -5 -13z"/>
<path d="M4031 14124 c0 -11 3 -14 6 -6 3 7 2 16 -1 19 -3 4 -6 -2 -5 -13z"/>
<path d="M12451 14091 c-8 -28 -28 -54 -65 -86 -59 -50 -76 -84 -76 -150 0
-23 -7 -64 -15 -90 -8 -27 -12 -51 -10 -53 8 -8 35 104 35 146 0 60 23 104 75
141 30 21 49 45 61 76 9 25 15 48 12 50 -3 3 -10 -13 -17 -34z"/>
<path d="M4041 14090 c0 -27 23 -58 70 -94 52 -39 69 -75 70 -145 0 -25 4 -55
9 -66 11 -28 1 102 -12 142 -5 19 -30 50 -60 75 -28 23 -57 56 -64 73 -7 16
-13 23 -13 15z"/>
<path d="M4260 13521 c0 -6 4 -13 10 -16 6 -3 7 1 4 9 -7 18 -14 21 -14 7z"/>
<path d="M12221 13503 c-10 -26 -10 -27 4 -9 8 11 15 23 15 28 0 15 -7 8 -19
-19z"/>
<path d="M4400 13393 c13 -10 40 -31 60 -48 l35 -29 -27 30 c-15 16 -42 37
-60 47 -32 17 -32 17 -8 0z"/>
<path d="M12047 13358 c-31 -31 -31 -32 -2 -8 16 14 34 28 40 32 5 5 6 8 2 8
-4 0 -22 -15 -40 -32z"/>
<path d="M4526 13252 c20 -34 38 -62 41 -62 7 0 -50 100 -64 112 -8 6 2 -16
23 -50z"/>
<path d="M11992 13298 c-14 -18 -43 -78 -38 -78 2 0 16 20 29 45 25 45 29 57
9 33z"/>
<path d="M6490 13150 c-58 -11 -112 -20 -120 -20 -9 -1 -10 -3 -3 -6 6 -3 49
3 95 12 48 10 163 20 273 24 l190 6 -165 1 c-121 1 -193 -4 -270 -17z"/>
<path d="M9540 13162 c-25 -4 56 -7 180 -7 194 0 240 -3 335 -22 61 -13 117
-22 125 -22 8 1 -37 12 -100 26 -93 20 -151 25 -305 28 -104 2 -210 0 -235 -3z"/>
<path d="M6948 13153 c12 -2 30 -2 40 0 9 3 -1 5 -23 4 -22 0 -30 -2 -17 -4z"/>
<path d="M5088 13143 c7 -3 16 -2 19 1 4 3 -2 6 -13 5 -11 0 -14 -3 -6 -6z"/>
<path d="M5183 13143 c9 -2 25 -2 35 0 9 3 1 5 -18 5 -19 0 -27 -2 -17 -5z"/>
<path d="M7023 13143 c9 -2 23 -2 30 0 6 3 -1 5 -18 5 -16 0 -22 -2 -12 -5z"/>
<path d="M9453 13143 c9 -2 23 -2 30 0 6 3 -1 5 -18 5 -16 0 -22 -2 -12 -5z"/>
<path d="M11288 13143 c12 -2 30 -2 40 0 9 3 -1 5 -23 4 -22 0 -30 -2 -17 -4z"/>
<path d="M5258 13133 c6 -2 18 -2 25 0 6 3 1 5 -13 5 -14 0 -19 -2 -12 -5z"/>
<path d="M7078 13133 c6 -2 18 -2 25 0 6 3 1 5 -13 5 -14 0 -19 -2 -12 -5z"/>
<path d="M9398 13133 c6 -2 18 -2 25 0 6 3 1 5 -13 5 -14 0 -19 -2 -12 -5z"/>
<path d="M11208 13133 c6 -2 18 -2 25 0 6 3 1 5 -13 5 -14 0 -19 -2 -12 -5z"/>
<path d="M5328 13123 c7 -3 16 -2 19 1 4 3 -2 6 -13 5 -11 0 -14 -3 -6 -6z"/>
<path d="M11158 13123 c7 -3 16 -2 19 1 4 3 -2 6 -13 5 -11 0 -14 -3 -6 -6z"/>
<path d="M6318 13113 c6 -2 18 -2 25 0 6 3 1 5 -13 5 -14 0 -19 -2 -12 -5z"/>
<path d="M6268 13103 c7 -3 16 -2 19 1 4 3 -2 6 -13 5 -11 0 -14 -3 -6 -6z"/>
<path d="M10208 13103 c7 -3 16 -2 19 1 4 3 -2 6 -13 5 -11 0 -14 -3 -6 -6z"/>
<path d="M6208 13093 c6 -2 18 -2 25 0 6 3 1 5 -13 5 -14 0 -19 -2 -12 -5z"/>
<path d="M10268 13093 c6 -2 18 -2 25 0 6 3 1 5 -13 5 -14 0 -19 -2 -12 -5z"/>
<path d="M6138 13083 c6 -2 18 -2 25 0 6 3 1 5 -13 5 -14 0 -19 -2 -12 -5z"/>
<path d="M10333 13083 c9 -2 23 -2 30 0 6 3 -1 5 -18 5 -16 0 -22 -2 -12 -5z"/>
<path d="M6063 13073 c9 -2 23 -2 30 0 6 3 -1 5 -18 5 -16 0 -22 -2 -12 -5z"/>
<path d="M10413 13073 c9 -2 23 -2 30 0 6 3 -1 5 -18 5 -16 0 -22 -2 -12 -5z"/>
<path d="M5713 13063 c9 -2 25 -2 35 0 9 3 1 5 -18 5 -19 0 -27 -2 -17 -5z"/>
<path d="M5953 13063 c15 -2 39 -2 55 0 15 2 2 4 -28 4 -30 0 -43 -2 -27 -4z"/>
<path d="M10498 13063 c12 -2 32 -2 45 0 12 2 2 4 -23 4 -25 0 -35 -2 -22 -4z"/>
<path d="M10753 13063 c9 -2 25 -2 35 0 9 3 1 5 -18 5 -19 0 -27 -2 -17 -5z"/>
<path d="M4814 13021 c7 -11 46 -35 46 -28 0 3 -12 12 -26 22 -15 9 -23 12
-20 6z"/>
<path d="M11669 13013 c-13 -16 -12 -17 4 -4 16 13 21 21 13 21 -2 0 -10 -8
-17 -17z"/>
<path d="M8547 12825 c-40 -37 -97 -79 -135 -97 -61 -30 -74 -33 -162 -33 -86
0 -101 3 -160 31 -36 17 -95 59 -133 92 -37 34 -71 62 -74 62 -18 0 138 -145
186 -172 129 -74 278 -68 396 17 52 36 174 168 153 165 -2 -1 -34 -30 -71 -65z"/>
<path d="M4513 12665 c0 -33 2 -45 4 -27 2 18 2 45 0 60 -2 15 -4 0 -4 -33z"/>
<path d="M11983 12665 c0 -33 2 -45 4 -27 2 18 2 45 0 60 -2 15 -4 0 -4 -33z"/>
<path d="M4501 12563 c0 -12 -4 -30 -7 -40 -5 -17 -5 -17 6 0 6 10 9 28 7 40
-4 22 -4 22 -6 0z"/>
<path d="M11992 12560 c0 -14 2 -19 5 -12 2 6 2 18 0 25 -3 6 -5 1 -5 -13z"/>
<path d="M12000 12523 c0 -19 51 -73 68 -72 12 0 10 3 -5 9 -13 5 -32 24 -43
42 -11 18 -20 28 -20 21z"/>
<path d="M4469 12484 c-7 -9 -22 -20 -34 -24 -14 -6 -15 -9 -4 -9 8 -1 26 10
39 24 13 14 21 25 18 25 -3 0 -12 -7 -19 -16z"/>
<path d="M10205 11890 c-13 -5 -14 -9 -5 -9 8 0 24 4 35 9 13 5 14 9 5 9 -8 0
-24 -4 -35 -9z"/>
<path d="M6305 11881 c11 -4 36 -11 55 -15 24 -4 29 -3 15 3 -11 4 -36 11 -55
15 -24 4 -29 3 -15 -3z"/>
<path d="M10130 11870 c-20 -6 -21 -8 -5 -8 11 0 29 3 40 8 25 11 -1 11 -35 0z"/>
<path d="M6408 11853 c7 -3 16 -2 19 1 4 3 -2 6 -13 5 -11 0 -14 -3 -6 -6z"/>
<path d="M10078 11853 c7 -3 16 -2 19 1 4 3 -2 6 -13 5 -11 0 -14 -3 -6 -6z"/>
<path d="M6448 11843 c6 -2 18 -2 25 0 6 3 1 5 -13 5 -14 0 -19 -2 -12 -5z"/>
<path d="M10038 11843 c7 -3 16 -2 19 1 4 3 -2 6 -13 5 -11 0 -14 -3 -6 -6z"/>
<path d="M9988 11833 c7 -3 16 -2 19 1 4 3 -2 6 -13 5 -11 0 -14 -3 -6 -6z"/>
<path d="M9708 11793 c7 -3 16 -2 19 1 4 3 -2 6 -13 5 -11 0 -14 -3 -6 -6z"/>
<path d="M7257 11763 c18 -2 50 -2 70 0 21 2 7 4 -32 4 -38 0 -55 -2 -38 -4z"/>
<path d="M9207 11763 c18 -2 50 -2 70 0 21 2 7 4 -32 4 -38 0 -55 -2 -38 -4z"/>
<path d="M7393 11753 c15 -2 37 -2 50 0 12 2 0 4 -28 4 -27 0 -38 -2 -22 -4z"/>
<path d="M9093 11753 c15 -2 37 -2 50 0 12 2 0 4 -28 4 -27 0 -38 -2 -22 -4z"/>
<path d="M7483 11743 c9 -2 23 -2 30 0 6 3 -1 5 -18 5 -16 0 -22 -2 -12 -5z"/>
<path d="M8965 11739 c-20 -5 -9 -6 30 -2 33 3 62 7 64 9 8 7 -63 2 -94 -7z"/>
<path d="M10178 11743 c7 -3 16 -2 19 1 4 3 -2 6 -13 5 -11 0 -14 -3 -6 -6z"/>
<path d="M6341 11735 c9 -8 295 -74 432 -99 72 -14 224 -36 337 -51 278 -35
404 -58 550 -100 161 -47 300 -118 383 -194 20 -18 26 -21 22 -8 -9 22 -123
108 -195 146 -78 41 -245 98 -359 121 -53 10 -206 33 -341 50 -278 35 -483 68
-684 111 -149 31 -152 32 -145 24z"/>
<path d="M7538 11733 c6 -2 18 -2 25 0 6 3 1 5 -13 5 -14 0 -19 -2 -12 -5z"/>
<path d="M10035 11714 c-142 -33 -420 -78 -705 -114 -303 -38 -409 -60 -550
-109 -134 -47 -231 -103 -308 -178 l-57 -55 50 40 c88 70 224 141 340 177 145
45 262 68 545 105 129 16 285 39 345 49 117 20 415 87 449 101 36 15 -5 9
-109 -16z"/>
<path d="M7588 11723 c7 -3 16 -2 19 1 4 3 -2 6 -13 5 -11 0 -14 -3 -6 -6z"/>
<path d="M8908 11723 c7 -3 16 -2 19 1 4 3 -2 6 -13 5 -11 0 -14 -3 -6 -6z"/>
<path d="M7830 11650 c8 -5 20 -10 25 -10 6 0 3 5 -5 10 -8 5 -19 10 -25 10
-5 0 -3 -5 5 -10z"/>
<path d="M8650 11650 c-8 -5 -10 -10 -5 -10 6 0 17 5 25 10 8 5 11 10 5 10 -5
0 -17 -5 -25 -10z"/>
<path d="M9431 11462 c-17 -33 -72 -174 -68 -178 2 -2 21 41 44 96 38 93 47
125 24 82z"/>
<path d="M7062 11462 c2 -4 16 -40 32 -80 16 -40 31 -70 33 -68 5 5 -57 156
-64 156 -2 0 -3 -3 -1 -8z"/>
<path d="M7430 11435 c0 -5 5 -17 10 -25 5 -8 10 -10 10 -5 0 6 -5 17 -10 25
-5 8 -10 11 -10 5z"/>
<path d="M9051 11409 c-6 -18 -9 -34 -7 -36 2 -2 9 10 15 28 6 18 9 34 7 36
-2 2 -9 -10 -15 -28z"/>
<path d="M6470 11325 c0 -5 5 -17 10 -25 5 -8 10 -10 10 -5 0 6 -5 17 -10 25
-5 8 -10 11 -10 5z"/>
<path d="M6950 11295 c0 -5 5 -17 10 -25 5 -8 10 -10 10 -5 0 6 -5 17 -10 25
-5 8 -10 11 -10 5z"/>
<path d="M9981 11208 c-17 -51 -31 -98 -30 -103 0 -6 16 35 35 89 18 55 32
101 30 103 -2 3 -18 -38 -35 -89z"/>
<path d="M6496 11258 c19 -61 43 -122 43 -112 1 14 -40 134 -46 134 -2 0 -1
-10 3 -22z"/>
<path d="M9312 11137 c-36 -116 -61 -211 -47 -182 11 25 96 308 92 311 -2 2
-22 -56 -45 -129z"/>
<path d="M9522 11245 c-17 -37 -14 -45 4 -12 9 16 14 31 11 33 -2 2 -9 -7 -15
-21z"/>
<path d="M6713 11250 c2 -8 17 -59 33 -112 15 -54 29 -96 32 -94 5 6 -47 187
-60 206 -8 13 -9 13 -5 0z"/>
<path d="M6971 11245 c0 -5 9 -28 20 -50 10 -22 16 -29 13 -15 -7 28 -33 80
-33 65z"/>
<path d="M7151 11237 c-1 -8 75 -262 84 -282 3 -5 2 6 -1 25 -7 38 -82 270
-83 257z"/>
<path d="M9751 11164 c-12 -42 -20 -78 -18 -80 2 -2 14 30 26 72 12 42 20 78
18 80 -2 2 -14 -30 -26 -72z"/>
<path d="M7761 11200 c0 -8 4 -24 9 -35 5 -13 9 -14 9 -5 0 8 -4 24 -9 35 -5
13 -9 14 -9 5z"/>
<path d="M8731 11194 c0 -11 3 -14 6 -6 3 7 2 16 -1 19 -3 4 -6 -2 -5 -13z"/>
<path d="M7511 11184 c0 -11 3 -14 6 -6 3 7 2 16 -1 19 -3 4 -6 -2 -5 -13z"/>
<path d="M8981 11184 c0 -11 3 -14 6 -6 3 7 2 16 -1 19 -3 4 -6 -2 -5 -13z"/>
<path d="M9491 11169 c-6 -18 -9 -34 -7 -36 2 -2 9 10 15 28 6 18 9 34 7 36
-2 2 -9 -10 -15 -28z"/>
<path d="M8721 11154 c0 -11 3 -14 6 -6 3 7 2 16 -1 19 -3 4 -6 -2 -5 -13z"/>
<path d="M7521 11150 c0 -8 4 -24 9 -35 5 -13 9 -14 9 -5 0 8 -4 24 -9 35 -5
13 -9 14 -9 5z"/>
<path d="M8966 11134 c-4 -14 -5 -28 -3 -31 3 -2 8 8 11 23 4 14 5 28 3 31 -3
2 -8 -8 -11 -23z"/>
<path d="M7661 11124 c0 -11 3 -14 6 -6 3 7 2 16 -1 19 -3 4 -6 -2 -5 -13z"/>
<path d="M7781 11124 c0 -11 3 -14 6 -6 3 7 2 16 -1 19 -3 4 -6 -2 -5 -13z"/>
<path d="M8831 11124 c0 -11 3 -14 6 -6 3 7 2 16 -1 19 -3 4 -6 -2 -5 -13z"/>
<path d="M6541 11114 c0 -11 3 -14 6 -6 3 7 2 16 -1 19 -3 4 -6 -2 -5 -13z"/>
<path d="M8711 11114 c0 -11 3 -14 6 -6 3 7 2 16 -1 19 -3 4 -6 -2 -5 -13z"/>
<path d="M7391 11084 c0 -11 3 -14 6 -6 3 7 2 16 -1 19 -3 4 -6 -2 -5 -13z"/>
<path d="M7672 11080 c0 -14 2 -19 5 -12 2 6 2 18 0 25 -3 6 -5 1 -5 -13z"/>
<path d="M7791 11084 c0 -11 3 -14 6 -6 3 7 2 16 -1 19 -3 4 -6 -2 -5 -13z"/>
<path d="M7541 11074 c0 -11 3 -14 6 -6 3 7 2 16 -1 19 -3 4 -6 -2 -5 -13z"/>
<path d="M8701 11074 c0 -11 3 -14 6 -6 3 7 2 16 -1 19 -3 4 -6 -2 -5 -13z"/>
<path d="M8822 11070 c0 -14 2 -19 5 -12 2 6 2 18 0 25 -3 6 -5 1 -5 -13z"/>
<path d="M8951 11074 c0 -11 3 -14 6 -6 3 7 2 16 -1 19 -3 4 -6 -2 -5 -13z"/>
<path d="M9101 11074 c0 -11 3 -14 6 -6 3 7 2 16 -1 19 -3 4 -6 -2 -5 -13z"/>
<path d="M9721 11054 c0 -11 3 -14 6 -6 3 7 2 16 -1 19 -3 4 -6 -2 -5 -13z"/>
<path d="M7802 11045 c0 -11 4 -31 8 -45 6 -20 8 -21 8 -5 0 11 -4 31 -8 45
-6 20 -8 21 -8 5z"/>
<path d="M7402 11030 c0 -14 2 -19 5 -12 2 6 2 18 0 25 -3 6 -5 1 -5 -13z"/>
<path d="M7551 11034 c0 -11 3 -14 6 -6 3 7 2 16 -1 19 -3 4 -6 -2 -5 -13z"/>
<path d="M7682 11025 c0 -16 2 -22 5 -12 2 9 2 23 0 30 -3 6 -5 -1 -5 -18z"/>
<path d="M8691 11034 c0 -11 3 -14 6 -6 3 7 2 16 -1 19 -3 4 -6 -2 -5 -13z"/>
<path d="M8941 11034 c0 -11 3 -14 6 -6 3 7 2 16 -1 19 -3 4 -6 -2 -5 -13z"/>
<path d="M8812 11015 c0 -16 2 -22 5 -12 2 9 2 23 0 30 -3 6 -5 -1 -5 -18z"/>
<path d="M9092 11020 c0 -14 2 -19 5 -12 2 6 2 18 0 25 -3 6 -5 1 -5 -13z"/>
<path d="M6781 11014 c0 -11 3 -14 6 -6 3 7 2 16 -1 19 -3 4 -6 -2 -5 -13z"/>
<path d="M9711 11014 c0 -11 3 -14 6 -6 3 7 2 16 -1 19 -3 4 -6 -2 -5 -13z"/>
<path d="M8682 10990 c0 -14 2 -19 5 -12 2 6 2 18 0 25 -3 6 -5 1 -5 -13z"/>
<path d="M7412 10975 c0 -16 2 -22 5 -12 2 9 2 23 0 30 -3 6 -5 -1 -5 -18z"/>
<path d="M6791 10974 c0 -11 3 -14 6 -6 3 7 2 16 -1 19 -3 4 -6 -2 -5 -13z"/>
<path d="M9082 10965 c0 -16 2 -22 5 -12 2 9 2 23 0 30 -3 6 -5 -1 -5 -18z"/>
<path d="M9702 10970 c0 -14 2 -19 5 -12 2 6 2 18 0 25 -3 6 -5 1 -5 -13z"/>
<path d="M7692 10955 c0 -16 2 -22 5 -12 2 9 2 23 0 30 -3 6 -5 -1 -5 -18z"/>
<path d="M8802 10955 c0 -16 2 -22 5 -12 2 9 2 23 0 30 -3 6 -5 -1 -5 -18z"/>
<path d="M7822 10950 c0 -14 2 -19 5 -12 2 6 2 18 0 25 -3 6 -5 1 -5 -13z"/>
<path d="M8672 10940 c0 -14 2 -19 5 -12 2 6 2 18 0 25 -3 6 -5 1 -5 -13z"/>
<path d="M9995 10920 c-4 -17 -5 -34 -2 -36 2 -3 7 10 11 27 8 42 0 50 -9 9z"/>
<path d="M6801 10924 c0 -11 3 -14 6 -6 3 7 2 16 -1 19 -3 4 -6 -2 -5 -13z"/>
<path d="M7241 10924 c0 -11 3 -14 6 -6 3 7 2 16 -1 19 -3 4 -6 -2 -5 -13z"/>
<path d="M9251 10924 c0 -11 3 -14 6 -6 3 7 2 16 -1 19 -3 4 -6 -2 -5 -13z"/>
<path d="M9067 10885 c-4 -27 -9 -84 -11 -125 -4 -60 -2 -54 9 35 8 61 13 117
12 125 -2 8 -6 -7 -10 -35z"/>
<path d="M6501 10904 c0 -11 3 -14 6 -6 3 7 2 16 -1 19 -3 4 -6 -2 -5 -13z"/>
<path d="M7702 10885 c0 -16 2 -22 5 -12 2 9 2 23 0 30 -3 6 -5 -1 -5 -18z"/>
<path d="M8792 10885 c0 -16 2 -22 5 -12 2 9 2 23 0 30 -3 6 -5 -1 -5 -18z"/>
<path d="M7251 10884 c0 -11 3 -14 6 -6 3 7 2 16 -1 19 -3 4 -6 -2 -5 -13z"/>
<path d="M7831 10884 c0 -11 3 -14 6 -6 3 7 2 16 -1 19 -3 4 -6 -2 -5 -13z"/>
<path d="M9241 10884 c0 -11 3 -14 6 -6 3 7 2 16 -1 19 -3 4 -6 -2 -5 -13z"/>
<path d="M6811 10874 c0 -11 3 -14 6 -6 3 7 2 16 -1 19 -3 4 -6 -2 -5 -13z"/>
<path d="M6512 10860 c0 -14 2 -19 5 -12 2 6 2 18 0 25 -3 6 -5 1 -5 -13z"/>
<path d="M9970 10805 c-7 -36 -10 -68 -8 -70 3 -3 10 25 17 61 6 37 10 68 8
71 -3 2 -10 -26 -17 -62z"/>
<path d="M9771 10844 c0 -11 3 -14 6 -6 3 7 2 16 -1 19 -3 4 -6 -2 -5 -13z"/>
<path d="M6090 10836 c0 -3 14 -12 30 -21 17 -9 30 -13 30 -11 0 3 -13 12 -30
21 -16 9 -30 13 -30 11z"/>
<path d="M7842 10820 c0 -14 2 -19 5 -12 2 6 2 18 0 25 -3 6 -5 1 -5 -13z"/>
<path d="M6522 10810 c0 -14 2 -19 5 -12 2 6 2 18 0 25 -3 6 -5 1 -5 -13z"/>
<path d="M6731 10804 c0 -11 3 -14 6 -6 3 7 2 16 -1 19 -3 4 -6 -2 -5 -13z"/>
<path d="M7712 10795 c0 -16 2 -22 5 -12 2 9 2 23 0 30 -3 6 -5 -1 -5 -18z"/>
<path d="M8782 10795 c0 -16 2 -22 5 -12 2 9 2 23 0 30 -3 6 -5 -1 -5 -18z"/>
<path d="M9746 10731 c-9 -50 -19 -114 -22 -143 -2 -29 7 10 21 86 14 77 23
141 21 143 -2 2 -11 -36 -20 -86z"/>
<path d="M6532 10760 c0 -14 2 -19 5 -12 2 6 2 18 0 25 -3 6 -5 1 -5 -13z"/>
<path d="M9952 10695 c0 -16 2 -22 5 -12 2 9 2 23 0 30 -3 6 -5 -1 -5 -18z"/>
<path d="M7723 10665 c0 -27 2 -38 4 -22 2 15 2 37 0 50 -2 12 -4 0 -4 -28z"/>
<path d="M8773 10655 c0 -22 2 -30 4 -17 2 12 2 30 0 40 -3 9 -5 -1 -4 -23z"/>
<path d="M9043 10610 c0 -41 2 -58 4 -37 2 20 2 54 0 75 -2 20 -4 3 -4 -38z"/>
<path d="M9942 10630 c0 -19 2 -27 5 -17 2 9 2 25 0 35 -3 9 -5 1 -5 -18z"/>
<path d="M7733 10465 c0 -22 2 -30 4 -17 2 12 2 30 0 40 -3 9 -5 -1 -4 -23z"/>
<path d="M8774 10240 c0 -52 1 -74 3 -47 2 26 2 68 0 95 -2 26 -3 4 -3 -48z"/>
<path d="M7724 10220 c0 -52 1 -74 3 -47 2 26 2 68 0 95 -2 26 -3 4 -3 -48z"/>
<path d="M5341 10625 c0 -5 6 -21 14 -35 8 -14 14 -20 14 -15 0 6 -6 21 -14
35 -8 14 -14 21 -14 15z"/>
<path d="M5420 10435 c0 -5 5 -17 10 -25 5 -8 10 -10 10 -5 0 6 -5 17 -10 25
-5 8 -10 11 -10 5z"/>
<path d="M5550 10435 c0 -5 5 -17 10 -25 5 -8 10 -10 10 -5 0 6 -5 17 -10 25
-5 8 -10 11 -10 5z"/>
<path d="M5444 10373 c32 -85 60 -152 63 -149 5 5 -57 166 -64 166 -3 0 -2 -8
1 -17z"/>
<path d="M5575 10373 c4 -10 16 -42 27 -71 12 -29 23 -51 25 -48 5 5 -47 136
-54 136 -3 0 -2 -8 2 -17z"/>
<path d="M6112 10304 c6 -25 102 -253 105 -250 5 5 -39 119 -76 196 -17 36
-30 60 -29 54z"/>
<path d="M5644 10195 c23 -68 210 -525 213 -522 4 5 -204 528 -214 536 -3 3
-3 -3 1 -14z"/>
<path d="M5526 10160 c3 -14 11 -32 16 -40 6 -10 7 -7 2 10 -3 14 -11 32 -16
40 -6 10 -7 7 -2 -10z"/>
<path d="M5550 10097 c0 -13 53 -147 57 -144 2 3 -8 35 -22 73 -24 63 -35 86
-35 71z"/>
<path d="M6225 10020 c17 -56 74 -204 74 -194 1 14 -68 206 -76 214 -3 3 -2
-6 2 -20z"/>
<path d="M6160 9915 c0 -5 5 -17 10 -25 5 -8 10 -10 10 -5 0 6 -5 17 -10 25
-5 8 -10 11 -10 5z"/>
<path d="M6371 9904 c0 -11 3 -14 6 -6 3 7 2 16 -1 19 -3 4 -6 -2 -5 -13z"/>
<path d="M6391 9834 c0 -11 3 -14 6 -6 3 7 2 16 -1 19 -3 4 -6 -2 -5 -13z"/>
<path d="M5920 9755 c0 -5 5 -17 10 -25 5 -8 10 -10 10 -5 0 6 -5 17 -10 25
-5 8 -10 11 -10 5z"/>
<path d="M6140 9695 c0 -5 5 -17 10 -25 5 -8 10 -10 10 -5 0 6 -5 17 -10 25
-5 8 -10 11 -10 5z"/>
<path d="M6255 9650 c16 -50 54 -145 55 -134 0 13 -49 146 -57 154 -3 3 -2 -6
2 -20z"/>
<path d="M5860 9655 c0 -5 5 -17 10 -25 5 -8 10 -10 10 -5 0 6 -5 17 -10 25
-5 8 -10 11 -10 5z"/>
<path d="M6166 9630 c3 -14 11 -32 16 -40 6 -10 7 -7 2 10 -3 14 -11 32 -16
40 -6 10 -7 7 -2 -10z"/>
<path d="M5891 9575 c0 -5 6 -21 14 -35 8 -14 14 -20 14 -15 0 6 -6 21 -14 35
-8 14 -14 21 -14 15z"/>
<path d="M5990 9567 c0 -14 83 -217 87 -213 2 2 -15 50 -37 107 -40 99 -50
121 -50 106z"/>
<path d="M5920 9505 c0 -5 5 -17 10 -25 5 -8 10 -10 10 -5 0 6 -5 17 -10 25
-5 8 -10 11 -10 5z"/>
<path d="M6244 9403 c21 -67 65 -186 65 -177 1 13 -57 185 -65 193 -4 3 -3 -4
0 -16z"/>
<path d="M6085 9320 c14 -47 128 -330 132 -326 2 2 -26 79 -63 172 -63 159
-86 211 -69 154z"/>
<path d="M6230 8945 c0 -5 5 -17 10 -25 5 -8 10 -10 10 -5 0 6 -5 17 -10 25
-5 8 -10 11 -10 5z"/>
<path d="M6250 8895 c0 -5 5 -17 10 -25 5 -8 10 -10 10 -5 0 6 -5 17 -10 25
-5 8 -10 11 -10 5z"/>
<path d="M6141 8795 c0 -5 8 -26 19 -45 11 -19 19 -30 19 -25 0 6 -8 26 -19
45 -11 19 -19 31 -19 25z"/>
<path d="M6040 8765 c0 -5 5 -17 10 -25 5 -8 10 -10 10 -5 0 6 -5 17 -10 25
-5 8 -10 11 -10 5z"/>
<path d="M6150 8505 c0 -5 5 -17 10 -25 5 -8 10 -10 10 -5 0 6 -5 17 -10 25
-5 8 -10 11 -10 5z"/>
<path d="M11146 10615 c-9 -26 -7 -32 5 -12 6 10 9 21 6 23 -2 3 -7 -2 -11
-11z"/>
<path d="M10841 10179 c-50 -127 -90 -234 -88 -236 2 -2 32 67 66 154 34 87
76 191 92 232 16 41 27 76 25 78 -2 2 -45 -100 -95 -228z"/>
<path d="M11021 10304 c-23 -59 -40 -108 -38 -110 2 -2 23 44 46 102 23 59 40
108 38 110 -2 2 -23 -44 -46 -102z"/>
<path d="M10347 10223 c-37 -83 -68 -165 -65 -169 2 -1 25 47 51 108 48 115
60 164 14 61z"/>
<path d="M10937 10079 c-15 -40 -25 -74 -23 -76 2 -2 15 29 30 68 15 39 25 73
23 76 -2 2 -16 -29 -30 -68z"/>
<path d="M10226 9909 c-20 -56 -35 -104 -33 -106 3 -2 21 42 41 98 20 56 35
104 33 106 -3 2 -21 -42 -41 -98z"/>
<path d="M10891 9959 c-6 -18 -9 -34 -7 -36 2 -2 9 10 15 28 6 18 9 34 7 36
-2 2 -9 -10 -15 -28z"/>
<path d="M10686 9789 c-31 -78 -55 -143 -53 -145 2 -2 29 60 61 137 31 78 55
143 53 145 -2 2 -29 -60 -61 -137z"/>
<path d="M10111 9854 c0 -11 3 -14 6 -6 3 7 2 16 -1 19 -3 4 -6 -2 -5 -13z"/>
<path d="M10101 9814 c0 -11 3 -14 6 -6 3 7 2 16 -1 19 -3 4 -6 -2 -5 -13z"/>
<path d="M10576 9765 c-9 -26 -7 -32 5 -12 6 10 9 21 6 23 -2 3 -7 -2 -11 -11z"/>
<path d="M10546 9685 c-9 -26 -7 -32 5 -12 6 10 9 21 6 23 -2 3 -7 -2 -11 -11z"/>
<path d="M10231 9639 c-6 -18 -9 -34 -7 -36 2 -2 9 10 15 28 6 18 9 34 7 36
-2 2 -9 -10 -15 -28z"/>
<path d="M10326 9625 c-9 -26 -7 -32 5 -12 6 10 9 21 6 23 -2 3 -7 -2 -11 -11z"/>
<path d="M10201 9559 c-6 -18 -9 -34 -7 -36 2 -2 9 10 15 28 6 18 9 34 7 36
-2 2 -9 -10 -15 -28z"/>
<path d="M10301 9559 c-6 -18 -9 -34 -7 -36 2 -2 9 10 15 28 6 18 9 34 7 36
-2 2 -9 -10 -15 -28z"/>
<path d="M10596 9565 c-9 -26 -7 -32 5 -12 6 10 9 21 6 23 -2 3 -7 -2 -11 -11z"/>
<path d="M10496 9545 c-9 -26 -7 -32 5 -12 6 10 9 21 6 23 -2 3 -7 -2 -11 -11z"/>
<path d="M10576 9515 c-9 -26 -7 -32 5 -12 6 10 9 21 6 23 -2 3 -7 -2 -11 -11z"/>
<path d="M10441 9404 c-23 -59 -40 -108 -38 -110 2 -2 23 44 46 102 23 59 40
108 38 110 -2 2 -23 -44 -46 -102z"/>
<path d="M10232 9358 c-23 -68 -42 -127 -42 -133 1 -5 21 46 46 114 25 68 43
128 42 133 -2 4 -22 -47 -46 -114z"/>
<path d="M10351 9173 c-51 -128 -57 -144 -42 -121 17 26 93 219 89 224 -3 2
-24 -44 -47 -103z"/>
<path d="M10246 8905 c-9 -26 -7 -32 5 -12 6 10 9 21 6 23 -2 3 -7 -2 -11 -11z"/>
<path d="M10226 8855 c-9 -26 -7 -32 5 -12 6 10 9 21 6 23 -2 3 -7 -2 -11 -11z"/>
<path d="M10337 8765 c-24 -50 -20 -58 4 -12 11 22 19 41 17 43 -3 2 -12 -12
-21 -31z"/>
<path d="M10456 8775 c-9 -26 -7 -32 5 -12 6 10 9 21 6 23 -2 3 -7 -2 -11 -11z"/>
<path d="M10346 8515 c-9 -26 -7 -32 5 -12 6 10 9 21 6 23 -2 3 -7 -2 -11 -11z"/>
<path d="M5411 10024 c0 -11 3 -14 6 -6 3 7 2 16 -1 19 -3 4 -6 -2 -5 -13z"/>
<path d="M5422 9965 c0 -16 2 -22 5 -12 2 9 2 23 0 30 -3 6 -5 -1 -5 -18z"/>
<path d="M5430 9919 c0 -31 54 -381 58 -371 4 12 -48 374 -54 381 -2 2 -4 -2
-4 -10z"/>
<path d="M5492 9500 c0 -19 2 -27 5 -17 2 9 2 25 0 35 -3 9 -5 1 -5 -18z"/>
<path d="M5501 9424 c0 -11 3 -14 6 -6 3 7 2 16 -1 19 -3 4 -6 -2 -5 -13z"/>
<path d="M5651 9124 c0 -11 3 -14 6 -6 3 7 2 16 -1 19 -3 4 -6 -2 -5 -13z"/>
<path d="M5442 9100 c0 -19 2 -27 5 -17 2 9 2 25 0 35 -3 9 -5 1 -5 -18z"/>
<path d="M5662 9070 c0 -14 2 -19 5 -12 2 6 2 18 0 25 -3 6 -5 1 -5 -13z"/>
<path d="M5451 9035 c0 -16 8 -106 19 -200 11 -93 20 -179 20 -189 0 -11 3
-17 6 -13 5 5 -33 400 -41 422 -2 6 -4 -3 -4 -20z"/>
<path d="M5672 9025 c-1 -11 14 -94 32 -185 19 -91 34 -156 34 -145 1 11 -14
94 -32 185 -19 91 -34 156 -34 145z"/>
<path d="M5792 8995 c0 -11 6 -42 13 -70 7 -27 13 -41 13 -30 0 11 -6 43 -13
70 -7 28 -13 41 -13 30z"/>
<path d="M5822 8850 c0 -14 2 -19 5 -12 2 6 2 18 0 25 -3 6 -5 1 -5 -13z"/>
<path d="M5832 8800 c0 -14 2 -19 5 -12 2 6 2 18 0 25 -3 6 -5 1 -5 -13z"/>
<path d="M5841 8754 c0 -11 3 -14 6 -6 3 7 2 16 -1 19 -3 4 -6 -2 -5 -13z"/>
<path d="M5742 8650 c0 -14 2 -19 5 -12 2 6 2 18 0 25 -3 6 -5 1 -5 -13z"/>
<path d="M5751 8594 c0 -11 3 -14 6 -6 3 7 2 16 -1 19 -3 4 -6 -2 -5 -13z"/>
<path d="M5921 8594 c0 -11 3 -14 6 -6 3 7 2 16 -1 19 -3 4 -6 -2 -5 -13z"/>
<path d="M5502 8575 c0 -16 2 -22 5 -12 2 9 2 23 0 30 -3 6 -5 -1 -5 -18z"/>
<path d="M5932 8540 c0 -14 2 -19 5 -12 2 6 2 18 0 25 -3 6 -5 1 -5 -13z"/>
<path d="M5661 8504 c0 -11 3 -14 6 -6 3 7 2 16 -1 19 -3 4 -6 -2 -5 -13z"/>
<path d="M5942 8480 c0 -14 2 -19 5 -12 2 6 2 18 0 25 -3 6 -5 1 -5 -13z"/>
<path d="M5672 8445 c0 -16 2 -22 5 -12 2 9 2 23 0 30 -3 6 -5 -1 -5 -18z"/>
<path d="M5952 8425 c0 -16 2 -22 5 -12 2 9 2 23 0 30 -3 6 -5 -1 -5 -18z"/>
<path d="M5685 8365 c7 -70 68 -396 73 -391 4 5 -66 414 -74 431 -2 6 -2 -12
1 -40z"/>
<path d="M5962 8370 c0 -14 2 -19 5 -12 2 6 2 18 0 25 -3 6 -5 1 -5 -13z"/>
<path d="M5771 8360 c-2 -33 79 -473 85 -467 4 4 -73 449 -81 472 -2 6 -4 3
-4 -5z"/>
<path d="M5971 8304 c0 -11 3 -14 6 -6 3 7 2 16 -1 19 -3 4 -6 -2 -5 -13z"/>
<path d="M5412 8235 c0 -16 2 -22 5 -12 2 9 2 23 0 30 -3 6 -5 -1 -5 -18z"/>
<path d="M5982 8240 c0 -14 2 -19 5 -12 2 6 2 18 0 25 -3 6 -5 1 -5 -13z"/>
<path d="M5992 8170 c0 -14 2 -19 5 -12 2 6 2 18 0 25 -3 6 -5 1 -5 -13z"/>
<path d="M5423 8140 c0 -25 2 -35 4 -22 2 12 2 32 0 45 -2 12 -4 2 -4 -23z"/>
<path d="M6002 8110 c0 -14 2 -19 5 -12 2 6 2 18 0 25 -3 6 -5 1 -5 -13z"/>
<path d="M5353 8035 c0 -38 2 -53 4 -32 2 20 2 52 0 70 -2 17 -4 1 -4 -38z"/>
<path d="M5431 8070 c-1 -14 6 -77 14 -140 18 -134 77 -479 69 -405 -10 95
-82 570 -83 545z"/>
<path d="M6011 8044 c0 -11 3 -14 6 -6 3 7 2 16 -1 19 -3 4 -6 -2 -5 -13z"/>
<path d="M5761 7946 c-1 -21 57 -288 64 -295 8 -8 5 10 -30 164 -18 83 -34
142 -34 131z"/>
<path d="M5363 7845 c0 -38 2 -53 4 -32 2 20 2 52 0 70 -2 17 -4 1 -4 -38z"/>
<path d="M5373 7720 c0 -30 2 -43 4 -27 2 15 2 39 0 55 -2 15 -4 2 -4 -28z"/>
<path d="M5383 7615 c0 -27 2 -38 4 -22 2 15 2 37 0 50 -2 12 -4 0 -4 -28z"/>
<path d="M5661 7554 c0 -11 3 -14 6 -6 3 7 2 16 -1 19 -3 4 -6 -2 -5 -13z"/>
<path d="M5393 7520 c0 -25 2 -35 4 -22 2 12 2 32 0 45 -2 12 -4 2 -4 -23z"/>
<path d="M5402 7445 c-1 -16 5 -59 12 -95 18 -84 18 -47 1 50 -7 41 -13 62
-13 45z"/>
<path d="M5522 7445 c0 -16 2 -22 5 -12 2 9 2 23 0 30 -3 6 -5 -1 -5 -18z"/>
<path d="M5532 7390 c0 -14 2 -19 5 -12 2 6 2 18 0 25 -3 6 -5 1 -5 -13z"/>
<path d="M5323 7335 c0 -22 2 -30 4 -17 2 12 2 30 0 40 -3 9 -5 -1 -4 -23z"/>
<path d="M5542 7330 c0 -14 2 -19 5 -12 2 6 2 18 0 25 -3 6 -5 1 -5 -13z"/>
<path d="M5552 7280 c0 -14 2 -19 5 -12 2 6 2 18 0 25 -3 6 -5 1 -5 -13z"/>
<path d="M5337 7200 c6 -95 20 -195 21 -145 0 17 -6 75 -13 130 l-14 100 6
-85z"/>
<path d="M5431 7271 c-1 -19 40 -193 45 -188 2 2 -7 48 -20 103 -13 54 -25 93
-25 85z"/>
<path d="M5561 7234 c0 -11 3 -14 6 -6 3 7 2 16 -1 19 -3 4 -6 -2 -5 -13z"/>
<path d="M5571 7194 c0 -11 3 -14 6 -6 3 7 2 16 -1 19 -3 4 -6 -2 -5 -13z"/>
<path d="M5481 7054 c0 -11 3 -14 6 -6 3 7 2 16 -1 19 -3 4 -6 -2 -5 -13z"/>
<path d="M5363 6985 c0 -22 2 -30 4 -17 2 12 2 30 0 40 -3 9 -5 -1 -4 -23z"/>
<path d="M5372 6915 c0 -16 2 -22 5 -12 2 9 2 23 0 30 -3 6 -5 -1 -5 -18z"/>
<path d="M5382 6850 c0 -14 2 -19 5 -12 2 6 2 18 0 25 -3 6 -5 1 -5 -13z"/>
<path d="M11081 10004 c0 -11 3 -14 6 -6 3 7 2 16 -1 19 -3 4 -6 -2 -5 -13z"/>
<path d="M11065 9920 c-4 -28 -5 -53 -2 -56 2 -3 7 19 11 47 4 28 5 53 3 56
-3 2 -8 -19 -12 -47z"/>
<path d="M11030 9695 c-12 -86 -21 -158 -18 -160 2 -3 15 65 27 151 13 85 21
157 19 160 -3 2 -15 -66 -28 -151z"/>
<path d="M11002 9485 c0 -16 2 -22 5 -12 2 9 2 23 0 30 -3 6 -5 -1 -5 -18z"/>
<path d="M10992 9420 c0 -14 2 -19 5 -12 2 6 2 18 0 25 -3 6 -5 1 -5 -13z"/>
<path d="M11053 9075 c0 -22 2 -30 4 -17 2 12 2 30 0 40 -3 9 -5 -1 -4 -23z"/>
<path d="M10832 9060 c0 -14 2 -19 5 -12 2 6 2 18 0 25 -3 6 -5 1 -5 -13z"/>
<path d="M10711 9024 c0 -11 3 -14 6 -6 3 7 2 16 -1 19 -3 4 -6 -2 -5 -13z"/>
<path d="M10796 8879 c-16 -82 -26 -152 -24 -154 3 -3 17 63 32 146 16 82 26
152 24 154 -3 3 -17 -63 -32 -146z"/>
<path d="M11021 8821 c-13 -116 -21 -214 -19 -216 7 -7 52 399 46 416 -2 7
-15 -83 -27 -200z"/>
<path d="M10702 8980 c0 -14 2 -19 5 -12 2 6 2 18 0 25 -3 6 -5 1 -5 -13z"/>
<path d="M10686 8914 c-4 -20 -5 -38 -3 -40 3 -3 8 11 11 32 4 20 5 38 3 40
-3 3 -8 -11 -11 -32z"/>
<path d="M10672 8840 c0 -14 2 -19 5 -12 2 6 2 18 0 25 -3 6 -5 1 -5 -13z"/>
<path d="M10762 8690 c0 -14 2 -19 5 -12 2 6 2 18 0 25 -3 6 -5 1 -5 -13z"/>
<path d="M10751 8634 c0 -11 3 -14 6 -6 3 7 2 16 -1 19 -3 4 -6 -2 -5 -13z"/>
<path d="M10571 8574 c0 -11 3 -14 6 -6 3 7 2 16 -1 19 -3 4 -6 -2 -5 -13z"/>
<path d="M10992 8560 c0 -14 2 -19 5 -12 2 6 2 18 0 25 -3 6 -5 1 -5 -13z"/>
<path d="M10562 8520 c0 -14 2 -19 5 -12 2 6 2 18 0 25 -3 6 -5 1 -5 -13z"/>
<path d="M10831 8494 c0 -11 3 -14 6 -6 3 7 2 16 -1 19 -3 4 -6 -2 -5 -13z"/>
<path d="M10552 8470 c0 -14 2 -19 5 -12 2 6 2 18 0 25 -3 6 -5 1 -5 -13z"/>
<path d="M10822 8435 c0 -16 2 -22 5 -12 2 9 2 23 0 30 -3 6 -5 -1 -5 -18z"/>
<path d="M10542 8410 c0 -14 2 -19 5 -12 2 6 2 18 0 25 -3 6 -5 1 -5 -13z"/>
<path d="M10731 8384 c0 -11 3 -14 6 -6 3 7 2 16 -1 19 -3 4 -6 -2 -5 -13z"/>
<path d="M10786 8240 c-24 -140 -94 -498 -113 -580 -3 -14 -3 -22 1 -19 15 14
150 715 144 747 -2 9 -16 -57 -32 -148z"/>
<path d="M10532 8350 c0 -14 2 -19 5 -12 2 6 2 18 0 25 -3 6 -5 1 -5 -13z"/>
<path d="M10722 8335 c0 -16 2 -22 5 -12 2 9 2 23 0 30 -3 6 -5 -1 -5 -18z"/>
<path d="M10522 8290 c0 -14 2 -19 5 -12 2 6 2 18 0 25 -3 6 -5 1 -5 -13z"/>
<path d="M10686 8147 c-15 -87 -25 -161 -22 -164 3 -4 6 -3 6 1 0 5 12 71 26
148 14 76 24 147 22 156 -2 9 -16 -54 -32 -141z"/>
<path d="M10512 8225 c0 -16 2 -22 5 -12 2 9 2 23 0 30 -3 6 -5 -1 -5 -18z"/>
<path d="M11082 8210 c0 -19 2 -27 5 -17 2 9 2 25 0 35 -3 9 -5 1 -5 -18z"/>
<path d="M10502 8160 c0 -14 2 -19 5 -12 2 6 2 18 0 25 -3 6 -5 1 -5 -13z"/>
<path d="M11062 8050 c-7 -58 -26 -191 -42 -295 -33 -210 -39 -290 -9 -125 27
153 71 478 67 503 -2 12 -9 -25 -16 -83z"/>
<path d="M10491 8094 c0 -11 3 -14 6 -6 3 7 2 16 -1 19 -3 4 -6 -2 -5 -13z"/>
<path d="M11143 8025 c0 -33 2 -45 4 -27 2 18 2 45 0 60 -2 15 -4 0 -4 -33z"/>
<path d="M10481 8034 c0 -11 3 -14 6 -6 3 7 2 16 -1 19 -3 4 -6 -2 -5 -13z"/>
<path d="M10652 7950 c0 -14 2 -19 5 -12 2 6 2 18 0 25 -3 6 -5 1 -5 -13z"/>
<path d="M10641 7904 c0 -11 3 -14 6 -6 3 7 2 16 -1 19 -3 4 -6 -2 -5 -13z"/>
<path d="M11133 7830 c0 -41 2 -58 4 -37 2 20 2 54 0 75 -2 20 -4 3 -4 -38z"/>
<path d="M11123 7690 c0 -30 2 -43 4 -27 2 15 2 39 0 55 -2 15 -4 2 -4 -28z"/>
<path d="M11106 7549 c-4 -44 -5 -83 -3 -85 3 -3 8 31 12 76 4 45 5 83 2 86
-2 3 -8 -32 -11 -77z"/>
<path d="M10831 7544 c0 -11 3 -14 6 -6 3 7 2 16 -1 19 -3 4 -6 -2 -5 -13z"/>
<path d="M10822 7500 c0 -14 2 -19 5 -12 2 6 2 18 0 25 -3 6 -5 1 -5 -13z"/>
<path d="M10982 7500 c0 -14 2 -19 5 -12 2 6 2 18 0 25 -3 6 -5 1 -5 -13z"/>
<path d="M10801 7409 c-7 -33 -10 -63 -8 -65 2 -3 10 23 16 57 7 33 10 63 8
65 -2 3 -10 -23 -16 -57z"/>
<path d="M10972 7440 c0 -14 2 -19 5 -12 2 6 2 18 0 25 -3 6 -5 1 -5 -13z"/>
<path d="M11086 7389 c-4 -33 -5 -63 -3 -66 3 -2 8 23 12 57 4 34 5 63 2 66
-2 3 -7 -23 -11 -57z"/>
<path d="M10962 7380 c0 -14 2 -19 5 -12 2 6 2 18 0 25 -3 6 -5 1 -5 -13z"/>
<path d="M11172 7320 c0 -19 2 -27 5 -17 2 9 2 25 0 35 -3 9 -5 1 -5 -18z"/>
<path d="M10951 7324 c0 -11 3 -14 6 -6 3 7 2 16 -1 19 -3 4 -6 -2 -5 -13z"/>
<path d="M10781 7314 c0 -11 3 -14 6 -6 3 7 2 16 -1 19 -3 4 -6 -2 -5 -13z"/>
<path d="M11072 7290 c0 -14 2 -19 5 -12 2 6 2 18 0 25 -3 6 -5 1 -5 -13z"/>
<path d="M10941 7274 c0 -11 3 -14 6 -6 3 7 2 16 -1 19 -3 4 -6 -2 -5 -13z"/>
<path d="M11062 7240 c0 -14 2 -19 5 -12 2 6 2 18 0 25 -3 6 -5 1 -5 -13z"/>
<path d="M11147 7115 c-10 -82 -20 -170 -24 -195 -3 -25 -3 -43 0 -40 8 7 49
337 45 363 -2 12 -11 -45 -21 -128z"/>
<path d="M11051 7194 c0 -11 3 -14 6 -6 3 7 2 16 -1 19 -3 4 -6 -2 -5 -13z"/>
<path d="M11036 7139 c-8 -42 0 -50 9 -9 4 17 5 34 2 36 -2 3 -7 -10 -11 -27z"/>
<path d="M11021 7074 c0 -11 3 -14 6 -6 3 7 2 16 -1 19 -3 4 -6 -2 -5 -13z"/>
<path d="M11112 6840 c0 -14 2 -19 5 -12 2 6 2 18 0 25 -3 6 -5 1 -5 -13z"/>
<path d="M3290 14074 c0 -10 5 -48 10 -84 22 -154 30 -396 20 -615 -6 -121
-13 -321 -17 -445 -5 -211 -4 -231 17 -314 34 -138 152 -437 166 -424 3 4 -1
19 -9 35 -20 39 -123 357 -136 418 -21 106 -22 176 0 527 24 405 19 591 -22
805 -20 106 -29 136 -29 97z"/>
<path d="M13181 13968 c-11 -62 -26 -183 -32 -269 -11 -157 -10 -179 22 -705
12 -180 11 -212 -4 -305 -15 -93 -64 -251 -133 -437 -36 -96 -12 -65 39 50
117 269 146 429 127 700 -30 430 -29 772 1 986 18 123 4 109 -20 -20z"/>
<path d="M4682 10350 c0 -14 2 -19 5 -12 2 6 2 18 0 25 -3 6 -5 1 -5 -13z"/>
<path d="M11812 10340 c0 -14 2 -19 5 -12 2 6 2 18 0 25 -3 6 -5 1 -5 -13z"/>
<path d="M7698 9925 c-5 -38 -19 -135 -33 -215 -24 -143 -31 -208 -14 -140 17
73 60 364 57 394 -2 18 -6 2 -10 -39z"/>
<path d="M9063 9920 c0 -25 2 -35 4 -22 2 12 2 32 0 45 -2 12 -4 2 -4 -23z"/>
<path d="M7433 9910 c0 -25 2 -35 4 -22 2 12 2 32 0 45 -2 12 -4 2 -4 -23z"/>
<path d="M9072 9840 c0 -19 2 -27 5 -17 2 9 2 25 0 35 -3 9 -5 1 -5 -18z"/>
<path d="M7422 9835 c0 -16 2 -22 5 -12 2 9 2 23 0 30 -3 6 -5 -1 -5 -18z"/>
<path d="M6793 9765 c0 -33 2 -45 4 -27 2 18 2 45 0 60 -2 15 -4 0 -4 -33z"/>
<path d="M9703 9770 c0 -30 2 -43 4 -27 2 15 2 39 0 55 -2 15 -4 2 -4 -28z"/>
<path d="M9582 9530 c0 -14 2 -19 5 -12 2 6 2 18 0 25 -3 6 -5 1 -5 -13z"/>
<path d="M6912 9520 c0 -14 2 -19 5 -12 2 6 2 18 0 25 -3 6 -5 1 -5 -13z"/>
<path d="M7632 9510 c0 -14 2 -19 5 -12 2 6 2 18 0 25 -3 6 -5 1 -5 -13z"/>
<path d="M9592 9460 c0 -19 2 -27 5 -17 2 9 2 25 0 35 -3 9 -5 1 -5 -18z"/>
<path d="M8871 9464 c0 -11 3 -14 6 -6 3 7 2 16 -1 19 -3 4 -6 -2 -5 -13z"/>
<path d="M6902 9450 c0 -14 2 -19 5 -12 2 6 2 18 0 25 -3 6 -5 1 -5 -13z"/>
<path d="M6877 9324 c-34 -186 -98 -464 -153 -660 -30 -108 -53 -199 -51 -201
7 -6 105 344 141 502 47 204 88 421 84 441 -2 9 -11 -28 -21 -82z"/>
<path d="M9601 9408 c-2 -30 47 -278 94 -473 46 -193 135 -508 142 -501 2 2
-14 66 -36 142 -68 237 -106 397 -190 804 -5 25 -9 37 -10 28z"/>
<path d="M9881 9274 c0 -11 3 -14 6 -6 3 7 2 16 -1 19 -3 4 -6 -2 -5 -13z"/>
<path d="M6601 9214 c0 -11 3 -14 6 -6 3 7 2 16 -1 19 -3 4 -6 -2 -5 -13z"/>
<path d="M9901 9174 c0 -11 3 -14 6 -6 3 7 2 16 -1 19 -3 4 -6 -2 -5 -13z"/>
<path d="M6591 9164 c0 -11 3 -14 6 -6 3 7 2 16 -1 19 -3 4 -6 -2 -5 -13z"/>
<path d="M9911 9124 c0 -11 3 -14 6 -6 3 7 2 16 -1 19 -3 4 -6 -2 -5 -13z"/>
<path d="M9921 9074 c0 -11 3 -14 6 -6 3 7 2 16 -1 19 -3 4 -6 -2 -5 -13z"/>
<path d="M8621 9034 c0 -11 3 -14 6 -6 3 7 2 16 -1 19 -3 4 -6 -2 -5 -13z"/>
<path d="M9931 9024 c0 -11 3 -14 6 -6 3 7 2 16 -1 19 -3 4 -6 -2 -5 -13z"/>
<path d="M9942 8985 c0 -11 4 -31 8 -45 6 -20 8 -21 8 -5 0 11 -4 31 -8 45 -6
20 -8 21 -8 5z"/>
<path d="M6551 8974 c0 -11 3 -14 6 -6 3 7 2 16 -1 19 -3 4 -6 -2 -5 -13z"/>
<path d="M6501 8782 c-86 -330 -227 -733 -368 -1057 -66 -151 -236 -495 -314
-635 -23 -41 -37 -70 -31 -65 6 6 44 71 85 146 199 360 355 714 488 1109 81
238 194 640 187 661 -2 4 -23 -67 -47 -159z"/>
<path d="M9960 8898 c0 -29 130 -477 185 -638 93 -269 171 -459 308 -745 88
-186 228 -450 248 -470 6 -5 -15 37 -46 95 -284 531 -490 1038 -631 1559 -55
202 -64 230 -64 199z"/>
<path d="M8541 8744 c0 -11 3 -14 6 -6 3 7 2 16 -1 19 -3 4 -6 -2 -5 -13z"/>
<path d="M7951 8734 c0 -11 3 -14 6 -6 3 7 2 16 -1 19 -3 4 -6 -2 -5 -13z"/>
<path d="M8551 8713 c-1 -17 89 -315 100 -333 9 -13 10 -13 5 1 -2 9 -25 86
-51 170 -51 173 -53 179 -54 162z"/>
<path d="M7906 8584 c-43 -145 -52 -182 -36 -144 19 44 81 253 77 263 -1 5
-20 -48 -41 -119z"/>
<path d="M9500 8655 c0 -5 5 -17 10 -25 5 -8 10 -10 10 -5 0 6 -5 17 -10 25
-5 8 -10 11 -10 5z"/>
<path d="M6972 8605 c-17 -37 -14 -45 4 -12 9 16 14 31 11 33 -2 2 -9 -7 -15
-21z"/>
<path d="M9521 8605 c0 -5 6 -21 14 -35 8 -14 14 -20 14 -15 0 6 -6 21 -14 35
-8 14 -14 21 -14 15z"/>
<path d="M6942 8535 c-17 -37 -14 -45 4 -12 9 16 14 31 11 33 -2 2 -9 -7 -15
-21z"/>
<path d="M9560 8515 c0 -5 5 -17 10 -25 5 -8 10 -10 10 -5 0 6 -5 17 -10 25
-5 8 -10 11 -10 5z"/>
<path d="M9580 8465 c0 -5 5 -17 10 -25 5 -8 10 -10 10 -5 0 6 -5 17 -10 25
-5 8 -10 11 -10 5z"/>
<path d="M6834 8292 c-171 -367 -345 -676 -632 -1119 -45 -70 -71 -114 -58
-98 63 78 323 492 458 730 88 154 314 622 305 631 -2 2 -35 -62 -73 -144z"/>
<path d="M9601 8418 c-1 -3 30 -74 69 -157 88 -190 237 -473 348 -661 88 -150
347 -550 356 -550 3 0 -42 73 -100 161 -220 337 -379 616 -555 974 -65 132
-118 237 -118 233z"/>
<path d="M9840 8417 c0 -13 53 -148 56 -144 3 2 -7 35 -22 73 -24 65 -34 85
-34 71z"/>
<path d="M6621 8329 c-6 -18 -9 -34 -7 -36 2 -2 9 10 15 28 6 18 9 34 7 36 -2
2 -9 -10 -15 -28z"/>
<path d="M7200 8310 c-6 -11 -8 -20 -6 -20 3 0 10 9 16 20 6 11 8 20 6 20 -3
0 -10 -9 -16 -20z"/>
<path d="M8680 8297 c0 -13 53 -138 56 -134 2 2 -8 33 -22 68 -25 62 -34 79
-34 66z"/>
<path d="M7777 8203 c-20 -48 -35 -88 -33 -90 2 -2 20 35 40 83 21 47 36 88
33 90 -2 2 -20 -35 -40 -83z"/>
<path d="M8531 8264 c0 -11 3 -14 6 -6 3 7 2 16 -1 19 -3 4 -6 -2 -5 -13z"/>
<path d="M7950 8223 c-25 -89 -111 -298 -167 -403 -167 -318 -373 -572 -902
-1115 -91 -93 -174 -181 -184 -195 -33 -45 402 400 558 571 327 359 508 626
629 926 48 119 90 252 83 259 -2 3 -10 -17 -17 -43z"/>
<path d="M8540 8233 c0 -18 66 -203 109 -301 90 -208 240 -439 436 -672 161
-191 696 -750 718 -750 6 0 -80 91 -190 203 -645 652 -858 948 -1039 1442 -18
50 -33 85 -34 78z"/>
<path d="M9369 8183 c5 -10 65 -102 134 -205 330 -493 744 -977 1182 -1381 69
-64 14 -5 -128 138 -474 473 -797 867 -1126 1368 -35 53 -65 97 -68 97 -2 0 1
-8 6 -17z"/>
<path d="M7053 8078 c-215 -333 -550 -759 -841 -1073 -51 -55 -189 -194 -305
-309 -117 -115 -180 -180 -142 -146 344 311 709 711 997 1095 146 194 377 535
363 535 -3 0 -35 -46 -72 -102z"/>
<path d="M8790 8036 c0 -11 40 -86 45 -86 3 0 -4 19 -16 43 -23 45 -29 54 -29
43z"/>
<path d="M7655 7940 c-9 -16 -13 -30 -11 -30 3 0 12 14 21 30 9 17 13 30 11
30 -3 0 -12 -13 -21 -30z"/>
<path d="M7440 7920 c-6 -11 -8 -20 -6 -20 3 0 10 9 16 20 6 11 8 20 6 20 -3
0 -10 -9 -16 -20z"/>
<path d="M9049 7925 c5 -11 17 -29 26 -40 l16 -20 -10 20 c-5 11 -17 29 -26
40 l-16 20 10 -20z"/>
<path d="M7324 7733 c-11 -16 -24 -35 -29 -43 -7 -12 -6 -13 6 -3 14 11 53 73
46 73 -2 0 -12 -12 -23 -27z"/>
<path d="M9186 7708 c20 -32 39 -58 41 -58 7 0 -29 58 -55 88 -13 15 -6 1 14
-30z"/>
<path d="M10116 7667 c3 -10 9 -15 12 -12 3 3 0 11 -7 18 -10 9 -11 8 -5 -6z"/>
<path d="M7219 7578 c-13 -18 -34 -49 -48 -67 -14 -19 -21 -32 -15 -29 12 8
98 128 90 128 -2 0 -15 -15 -27 -32z"/>
<path d="M9290 7551 c24 -34 48 -65 54 -68 5 -4 -10 22 -34 56 -24 34 -48 65
-54 68 -5 4 10 -22 34 -56z"/>
<path d="M10164 7576 c11 -33 145 -256 204 -341 286 -410 659 -804 1079 -1138
223 -176 472 -359 568 -416 62 -37 30 -11 -85 69 -58 41 -179 130 -270 199
-653 497 -1084 957 -1430 1526 -40 66 -70 111 -66 101z"/>
<path d="M7775 7448 c-16 -24 -22 -38 -14 -31 15 12 53 73 46 73 -2 0 -17 -19
-32 -42z"/>
<path d="M8705 7466 c10 -14 19 -26 22 -26 7 0 -17 39 -28 46 -6 3 -3 -5 6
-20z"/>
<path d="M7099 7413 c-60 -78 -77 -105 -40 -63 37 43 94 120 88 120 -3 0 -24
-26 -48 -57z"/>
<path d="M9380 7428 c35 -49 99 -124 78 -93 -24 37 -100 135 -105 135 -2 0 10
-19 27 -42z"/>
<path d="M7648 7268 c-42 -57 -98 -130 -123 -163 -35 -45 -37 -50 -10 -20 34
38 194 245 209 273 20 34 -8 2 -76 -90z"/>
<path d="M8791 7338 c51 -73 169 -226 204 -263 20 -22 10 -6 -22 35 -33 41
-90 117 -127 168 -37 50 -70 92 -72 92 -3 0 5 -15 17 -32z"/>
<path d="M6999 7283 c-13 -16 -12 -17 4 -4 9 7 17 15 17 17 0 8 -8 3 -21 -13z"/>
<path d="M9520 7250 c17 -22 34 -40 37 -40 2 0 -10 18 -27 40 -17 22 -34 40
-37 40 -2 0 10 -18 27 -40z"/>
<path d="M6959 7233 l-24 -28 28 24 c15 14 27 26 27 28 0 8 -8 1 -31 -24z"/>
<path d="M6709 7223 c-13 -16 -12 -17 4 -4 16 13 21 21 13 21 -2 0 -10 -8 -17
-17z"/>
<path d="M7780 7170 c-6 -11 -8 -20 -6 -20 3 0 10 9 16 20 6 11 8 20 6 20 -3
0 -10 -9 -16 -20z"/>
<path d="M8710 7170 c6 -11 13 -20 16 -20 2 0 0 9 -6 20 -6 11 -13 20 -16 20
-2 0 0 -9 6 -20z"/>
<path d="M6460 6961 c-340 -345 -709 -641 -1230 -986 -386 -256 -682 -430
-1112 -652 -103 -53 -186 -99 -184 -101 6 -5 437 216 598 307 580 325 1133
706 1578 1085 151 129 568 543 538 535 -1 -1 -86 -85 -188 -188z"/>
<path d="M9880 7115 c19 -19 36 -35 39 -35 3 0 -10 16 -29 35 -19 19 -36 35
-39 35 -3 0 10 -16 29 -35z"/>
<path d="M7750 7120 c-6 -11 -8 -20 -6 -20 3 0 10 9 16 20 6 11 8 20 6 20 -3
0 -10 -9 -16 -20z"/>
<path d="M8750 7105 c199 -342 592 -773 990 -1081 63 -50 131 -100 150 -113
l35 -22 -35 28 c-18 15 -102 82 -184 148 -83 66 -233 201 -335 300 -252 247
-394 414 -556 655 -82 123 -103 150 -65 85z"/>
<path d="M6854 7108 l-19 -23 23 19 c21 18 27 26 19 26 -2 0 -12 -10 -23 -22z"/>
<path d="M9635 7110 c10 -11 20 -20 23 -20 3 0 -3 9 -13 20 -10 11 -20 20 -23
20 -3 0 3 -9 13 -20z"/>
<path d="M7666 6990 c-238 -352 -632 -755 -1014 -1038 -79 -59 -98 -81 -27
-32 272 187 639 535 891 845 47 58 170 233 203 288 42 69 15 38 -53 -63z"/>
<path d="M10025 6961 c442 -458 1116 -958 1880 -1396 191 -110 645 -342 645
-330 0 2 -98 54 -217 116 -646 333 -1247 719 -1763 1132 -196 158 -277 230
-540 481 l-105 101 100 -104z"/>
<path d="M7409 6968 c-35 -40 -56 -67 -46 -59 22 17 121 131 114 131 -3 0 -34
-33 -68 -72z"/>
<path d="M9030 7027 c0 -2 15 -16 33 -33 l32 -29 -29 33 c-28 30 -36 37 -36
29z"/>
<path d="M10720 7010 c6 -11 13 -20 16 -20 2 0 0 9 -6 20 -6 11 -13 20 -16 20
-2 0 0 -9 6 -20z"/>
<path d="M9100 6947 c0 -2 15 -16 33 -33 l32 -29 -29 33 c-28 30 -36 37 -36
29z"/>
<path d="M7696 6783 c-71 -82 -114 -134 -96 -118 26 24 101 109 218 248 8 9
13 17 11 17 -3 0 -63 -66 -133 -147z"/>
<path d="M8691 6905 c24 -35 186 -219 220 -250 18 -16 -7 15 -56 70 -50 55
-110 123 -134 150 -24 28 -37 41 -30 30z"/>
<path d="M10790 6890 c6 -11 13 -20 16 -20 2 0 0 9 -6 20 -6 11 -13 20 -16 20
-2 0 0 -9 6 -20z"/>
<path d="M7314 6858 l-29 -33 33 29 c30 28 37 36 29 36 -2 0 -16 -15 -33 -32z"/>
<path d="M9160 6876 c0 -2 8 -10 18 -17 15 -13 16 -12 3 4 -13 16 -21 21 -21
13z"/>
<path d="M7654 6498 l-19 -23 23 19 c21 18 27 26 19 26 -2 0 -12 -10 -23 -22z"/>
<path d="M7547 6400 c-379 -345 -1051 -766 -1727 -1081 -411 -191 -509 -233
-1015 -432 -518 -204 -886 -384 -1460 -715 -258 -148 -585 -354 -585 -368 0
-7 14 1 85 51 115 80 405 253 694 414 175 98 230 118 84 30 -112 -68 -405
-258 -418 -272 -11 -12 62 30 85 49 21 17 215 138 361 226 517 310 866 468
1849 838 647 244 970 377 1296 535 212 103 477 248 524 287 l25 20 -30 -18
c-156 -95 -449 -246 -710 -367 -201 -93 -982 -404 -991 -394 -2 2 58 32 133
67 509 232 1090 565 1438 823 195 145 468 377 442 377 -2 0 -38 -31 -80 -70z
m-3677 -1955 c0 -2 -10 -9 -22 -15 -22 -11 -22 -10 -4 4 21 17 26 19 26 11z
m-70 -40 c0 -6 -76 -45 -87 -45 -4 1 12 12 37 25 50 27 50 27 50 20z"/>
<path d="M9870 6446 c0 -2 8 -10 18 -17 15 -13 16 -12 3 4 -13 16 -21 21 -21
13z"/>
<path d="M8910 6436 c0 -18 203 -191 368 -313 396 -294 851 -556 1492 -860 85
-40 151 -73 145 -73 -25 0 -884 342 -1040 415 -122 57 -390 191 -502 252 -46
25 -83 42 -83 40 0 -16 439 -242 662 -340 169 -75 682 -279 1058 -420 1145
-431 1476 -590 2183 -1049 125 -81 227 -145 227 -142 0 7 -409 275 -547 358
-62 38 -113 70 -113 73 0 14 642 -356 835 -481 137 -90 135 -88 135 -82 0 9
-221 151 -420 269 -603 357 -1134 621 -1655 822 -457 177 -681 274 -1090 475
-426 208 -753 393 -1045 589 -235 158 -446 319 -562 430 -27 25 -48 42 -48 37z"/>
<path d="M10540 6186 c0 -3 9 -10 20 -16 11 -6 20 -8 20 -6 0 3 -9 10 -20 16
-11 6 -20 8 -20 6z"/>
<path d="M5736 6050 c-80 -50 -110 -73 -66 -50 61 32 166 103 148 100 -2 -1
-38 -23 -82 -50z"/>
<path d="M10710 6078 c17 -18 110 -72 110 -65 0 3 -15 14 -33 25 -19 11 -47
28 -63 37 -21 13 -25 14 -14 3z"/>
<path d="M9030 6066 c0 -2 8 -10 18 -17 15 -13 16 -12 3 4 -13 16 -21 21 -21
13z"/>
<path d="M10830 6006 c0 -6 133 -86 305 -181 334 -186 699 -363 1315 -638 650
-290 1446 -679 1735 -848 124 -72 316 -197 445 -289 l45 -32 -35 31 c-55 49
-292 210 -435 296 -71 43 -323 176 -560 295 -484 243 -729 359 -1265 597 -400
177 -634 286 -885 413 -214 109 -507 266 -540 290 -24 17 -125 71 -125 66z"/>
<path d="M5600 5968 c-170 -104 -814 -434 -1090 -558 -63 -28 -239 -107 -390
-175 -630 -282 -793 -359 -1275 -601 -405 -203 -562 -291 -780 -437 -111 -74
-335 -243 -335 -252 0 -3 53 35 117 84 272 203 488 331 962 570 462 232 701
345 1396 656 389 175 548 250 819 388 314 161 642 345 616 347 -3 0 -21 -10
-40 -22z"/>
<path d="M9174 5967 c30 -26 119 -78 101 -60 -5 6 -37 27 -70 48 -38 23 -49
27 -31 12z"/>
<path d="M6505 5844 l-30 -26 33 22 c17 12 32 23 32 26 0 7 -4 5 -35 -22z"/>
<path d="M9960 5866 c0 -3 20 -19 45 -36 25 -17 45 -29 45 -26 0 3 -20 19 -45
36 -25 17 -45 29 -45 26z"/>
<path d="M9270 5636 c0 -2 7 -7 16 -10 8 -3 12 -2 9 4 -6 10 -25 14 -25 6z"/>
<path d="M7137 5591 c-37 -21 -70 -41 -75 -46 -9 -11 130 64 143 76 16 15 2
10 -68 -30z"/>
<path d="M9310 5616 c0 -3 14 -12 30 -21 17 -9 30 -13 30 -11 0 3 -13 12 -30
21 -16 9 -30 13 -30 11z"/>
<path d="M9407 5559 c7 -7 15 -10 18 -7 3 3 -2 9 -12 12 -14 6 -15 5 -6 -5z"/>
<path d="M9460 5536 c0 -7 190 -109 195 -104 2 2 -41 27 -96 56 -54 30 -99 51
-99 48z"/>
<path d="M6800 5415 c-102 -52 -182 -94 -177 -94 10 -1 367 178 367 184 0 7
14 13 -190 -90z"/>
<path d="M9730 5395 c0 -6 116 -65 127 -65 10 0 -74 49 -104 61 -13 5 -23 6
-23 4z"/>
<path d="M9920 5300 c8 -5 20 -10 25 -10 6 0 3 5 -5 10 -8 5 -19 10 -25 10 -5
0 -3 -5 5 -10z"/>
<path d="M10030 5250 c30 -16 60 -29 65 -29 6 0 -15 13 -45 29 -30 16 -59 29
-65 29 -5 0 15 -13 45 -29z"/>
<path d="M6420 5235 c-14 -8 -20 -14 -15 -14 6 0 21 6 35 14 14 8 21 14 15 14
-5 0 -21 -6 -35 -14z"/>
<path d="M9164 5141 c7 -11 46 -35 46 -28 0 3 -12 12 -26 22 -15 9 -23 12 -20
6z"/>
<path d="M7304 5124 c-18 -14 -18 -15 4 -4 12 6 22 13 22 15 0 8 -5 6 -26 -11z"/>
<path d="M7204 5064 c-18 -14 -18 -15 4 -4 12 6 22 13 22 15 0 8 -5 6 -26 -11z"/>
<path d="M9310 5051 c44 -35 252 -138 415 -206 252 -105 700 -253 1210 -400
765 -221 1277 -405 1656 -595 44 -23 83 -39 85 -37 6 6 -293 147 -471 222
-298 125 -685 256 -1185 400 -887 256 -1354 423 -1670 600 -36 20 -54 27 -40
16z"/>
<path d="M7030 4974 c-306 -156 -627 -267 -1660 -574 -607 -180 -929 -295
-1285 -457 -144 -66 -274 -132 -262 -133 4 0 38 15 75 34 196 98 547 243 827
339 178 62 273 91 910 281 748 222 1098 347 1385 492 106 54 179 95 160 93 -3
-1 -70 -34 -150 -75z"/>
<path d="M12630 4685 c0 -7 81 -47 86 -43 2 3 -17 14 -41 26 -25 12 -45 20
-45 17z"/>
<path d="M12810 4595 c0 -2 27 -18 60 -35 33 -17 60 -28 60 -25 0 2 -27 18
-60 35 -33 17 -60 28 -60 25z"/>
<path d="M3084 4554 c-18 -14 -18 -15 4 -4 12 6 22 13 22 15 0 8 -5 6 -26 -11z"/>
<path d="M3578 4539 c-32 -16 -58 -32 -58 -34 0 -3 27 8 60 25 33 17 60 32 60
35 0 7 2 8 -62 -26z"/>
<path d="M7865 4544 c-27 -13 -39 -21 -25 -18 29 7 100 43 85 43 -5 0 -32 -12
-60 -25z"/>
<path d="M8610 4545 c14 -8 30 -14 35 -14 6 0 -1 6 -15 14 -14 8 -29 14 -35
14 -5 0 1 -6 15 -14z"/>
<path d="M13410 4556 c0 -3 9 -10 20 -16 11 -6 20 -8 20 -6 0 3 -9 10 -20 16
-11 6 -20 8 -20 6z"/>
<path d="M12940 4525 c0 -2 19 -14 43 -26 108 -54 533 -299 662 -382 210 -134
356 -242 545 -402 115 -97 118 -102 83 -109 -41 -8 -339 -52 -478 -71 -66 -8
-185 -31 -265 -50 -158 -38 -379 -70 -560 -80 -112 -6 -320 -22 -390 -30 -80
-9 -328 -60 -515 -107 -223 -55 -321 -76 -675 -149 -794 -164 -1336 -390
-2032 -846 -351 -230 -741 -612 -837 -821 -26 -54 -41 -66 -41 -31 0 11 -9 55
-19 97 -33 129 -52 232 -66 347 -12 109 -13 109 -14 40 -1 -92 13 -206 49
-385 35 -172 37 -212 10 -284 -38 -101 -132 -167 -215 -152 -81 16 -157 107
-177 213 -9 52 -7 76 27 243 33 161 38 206 41 345 2 159 2 159 -6 45 -9 -134
-22 -211 -55 -336 -14 -50 -29 -115 -33 -145 -7 -43 -11 -50 -17 -34 -44 104
-182 279 -352 446 -228 224 -385 343 -733 554 -611 370 -1074 551 -1790 699
-306 64 -564 122 -718 161 -73 19 -194 46 -270 60 -75 14 -148 28 -162 31
l-25 6 25 13 c33 19 17 19 -18 1 -20 -10 -43 -12 -87 -6 -33 5 -152 13 -264
20 -263 14 -379 30 -636 84 -177 38 -334 64 -550 92 -62 8 -219 35 -223 39 -5
5 215 191 313 265 177 133 491 334 708 454 68 38 95 61 35 30 -331 -171 -767
-469 -1005 -687 l-71 -65 -123 25 c-68 14 -127 29 -132 33 -8 7 177 177 314
288 130 104 339 259 469 347 63 43 120 82 125 88 16 16 -11 -1 -140 -87 -236
-156 -517 -377 -707 -554 -70 -66 -91 -79 -110 -75 -13 3 -20 3 -17 -1 19 -20
452 -102 779 -146 85 -12 235 -39 332 -60 232 -52 413 -77 633 -90 323 -18
398 -31 915 -154 195 -46 416 -96 490 -111 216 -42 641 -153 813 -211 348
-119 659 -271 1087 -532 402 -245 727 -512 925 -759 88 -110 165 -247 165
-292 0 -40 28 -129 55 -171 52 -82 119 -115 221 -108 51 3 71 10 106 35 56 40
104 127 118 214 28 164 170 361 428 592 209 189 355 296 645 476 658 409 1120
591 1901 751 108 22 356 78 549 125 436 104 538 122 802 140 363 25 492 42
705 95 68 16 174 37 235 45 191 27 507 76 595 91 98 18 283 63 290 71 3 3 -8
3 -23 -1 -26 -6 -38 2 -121 81 -199 190 -466 399 -756 588 -197 129 -221 144
-205 128 6 -6 93 -65 194 -132 177 -117 399 -280 526 -384 127 -105 315 -281
308 -288 -5 -4 -62 -19 -128 -33 l-120 -25 -55 50 c-185 166 -465 372 -700
516 -237 144 -630 362 -630 348z"/>
<path d="M7770 4510 c-21 -7 -21 -8 -5 -9 11 0 27 4 35 9 18 11 5 11 -30 0z"/>
<path d="M8728 4503 c7 -3 16 -2 19 1 4 3 -2 6 -13 5 -11 0 -14 -3 -6 -6z"/>
<path d="M3403 4446 c-115 -65 -136 -84 -29 -26 102 54 144 80 131 79 -5 0
-52 -24 -102 -53z"/>
<path d="M7699 4496 c-8 -7 -261 -47 -387 -61 l-127 -14 105 4 c134 7 513 71
434 74 -11 1 -23 -1 -25 -3z"/>
<path d="M8785 4490 c110 -35 574 -92 641 -78 10 2 -57 9 -151 16 -93 7 -233
24 -310 37 -77 13 -156 26 -175 29 -34 6 -34 6 -5 -4z"/>
<path d="M2903 4445 c-29 -19 -53 -37 -53 -40 0 -7 99 54 105 66 9 13 5 11
-52 -26z"/>
<path d="M11860 4450 c8 -5 20 -10 25 -10 6 0 3 5 -5 10 -8 5 -19 10 -25 10
-5 0 -3 -5 5 -10z"/>
<path d="M4580 4430 c-8 -5 -10 -10 -5 -10 6 0 17 5 25 10 8 5 11 10 5 10 -5
0 -17 -5 -25 -10z"/>
<path d="M11910 4430 c8 -5 20 -10 25 -10 6 0 3 5 -5 10 -8 5 -19 10 -25 10
-5 0 -3 -5 5 -10z"/>
<path d="M7088 4413 c17 -2 47 -2 65 0 17 2 3 4 -33 4 -36 0 -50 -2 -32 -4z"/>
<path d="M4315 4320 c-33 -15 -55 -28 -50 -28 13 0 133 56 120 57 -5 0 -37
-13 -70 -29z"/>
<path d="M12170 4320 c19 -11 40 -19 45 -19 6 0 -6 8 -25 19 -19 11 -39 19
-45 19 -5 0 6 -8 25 -19z"/>
<path d="M12260 4280 c8 -5 20 -10 25 -10 6 0 3 5 -5 10 -8 5 -19 10 -25 10
-5 0 -3 -5 5 -10z"/>
<path d="M12330 4250 c8 -5 20 -10 25 -10 6 0 3 5 -5 10 -8 5 -19 10 -25 10
-5 0 -3 -5 5 -10z"/>
<path d="M4035 4196 c-60 -30 -105 -54 -100 -54 14 -1 233 106 220 107 -5 0
-59 -24 -120 -53z"/>
<path d="M5598 4233 c7 -3 16 -2 19 1 4 3 -2 6 -13 5 -11 0 -14 -3 -6 -6z"/>
<path d="M10891 4236 c2 -2 94 -28 204 -56 629 -162 1382 -433 1839 -662 43
-22 80 -38 82 -36 7 8 -246 128 -451 215 -468 199 -958 364 -1441 487 -217 55
-242 60 -233 52z"/>
<path d="M12440 4200 c41 -21 80 -39 85 -39 6 0 -24 18 -65 39 -41 21 -79 39
-85 39 -5 0 24 -18 65 -39z"/>
<path d="M5367 4180 c-483 -125 -968 -287 -1392 -467 -165 -70 -326 -145 -322
-150 2 -2 44 15 93 38 442 204 1141 448 1664 579 91 23 167 43 169 46 10 10
-34 0 -212 -46z"/>
<path d="M12825 4012 c247 -126 428 -224 535 -290 14 -9 21 -11 15 -4 -23 25
-289 172 -547 303 -153 76 -281 139 -285 139 -4 -1 123 -67 282 -148z"/>
<path d="M3675 4022 c-229 -117 -435 -230 -435 -238 0 -6 47 18 140 72 41 23
181 97 310 163 129 66 231 121 225 121 -5 0 -113 -53 -240 -118z"/>
<path d="M2083 4089 c-24 -17 -43 -32 -43 -35 0 -3 20 9 45 26 25 17 45 33 45
35 0 7 -2 6 -47 -26z"/>
<path d="M14385 4105 c11 -9 29 -21 40 -26 l20 -10 -20 16 c-11 9 -29 21 -40
26 l-20 10 20 -16z"/>
<path d="M3132 3985 c-54 -37 -72 -58 -24 -30 31 19 89 65 82 65 -3 0 -29 -16
-58 -35z"/>
<path d="M14695 4000 c10 -11 20 -20 23 -20 3 0 -3 9 -13 20 -10 11 -20 20
-23 20 -3 0 3 -9 13 -20z"/>
<path d="M5728 4003 c6 -2 18 -2 25 0 6 3 1 5 -13 5 -14 0 -19 -2 -12 -5z"/>
<path d="M10758 4003 c6 -2 18 -2 25 0 6 3 1 5 -13 5 -14 0 -19 -2 -12 -5z"/>
<path d="M5653 3993 c9 -2 23 -2 30 0 6 3 -1 5 -18 5 -16 0 -22 -2 -12 -5z"/>
<path d="M10823 3993 c9 -2 23 -2 30 0 6 3 -1 5 -18 5 -16 0 -22 -2 -12 -5z"/>
<path d="M5583 3983 c9 -2 25 -2 35 0 9 3 1 5 -18 5 -19 0 -27 -2 -17 -5z"/>
<path d="M10893 3983 c9 -2 23 -2 30 0 6 3 -1 5 -18 5 -16 0 -22 -2 -12 -5z"/>
<path d="M5523 3973 c9 -2 23 -2 30 0 6 3 -1 5 -18 5 -16 0 -22 -2 -12 -5z"/>
<path d="M10953 3973 c9 -2 23 -2 30 0 6 3 -1 5 -18 5 -16 0 -22 -2 -12 -5z"/>
<path d="M14745 3960 c10 -11 20 -20 23 -20 3 0 -3 9 -13 20 -10 11 -20 20
-23 20 -3 0 3 -9 13 -20z"/>
<path d="M5463 3963 c9 -2 23 -2 30 0 6 3 -1 5 -18 5 -16 0 -22 -2 -12 -5z"/>
<path d="M11013 3963 c9 -2 23 -2 30 0 6 3 -1 5 -18 5 -16 0 -22 -2 -12 -5z"/>
<path d="M5403 3953 c9 -2 23 -2 30 0 6 3 -1 5 -18 5 -16 0 -22 -2 -12 -5z"/>
<path d="M11073 3953 c9 -2 23 -2 30 0 6 3 -1 5 -18 5 -16 0 -22 -2 -12 -5z"/>
<path d="M5343 3943 c9 -2 23 -2 30 0 6 3 -1 5 -18 5 -16 0 -22 -2 -12 -5z"/>
<path d="M11128 3943 c6 -2 18 -2 25 0 6 3 1 5 -13 5 -14 0 -19 -2 -12 -5z"/>
<path d="M5288 3933 c6 -2 18 -2 25 0 6 3 1 5 -13 5 -14 0 -19 -2 -12 -5z"/>
<path d="M11198 3933 c7 -3 16 -2 19 1 4 3 -2 6 -13 5 -11 0 -14 -3 -6 -6z"/>
<path d="M5228 3923 c7 -3 16 -2 19 1 4 3 -2 6 -13 5 -11 0 -14 -3 -6 -6z"/>
<path d="M11248 3923 c7 -3 16 -2 19 1 4 3 -2 6 -13 5 -11 0 -14 -3 -6 -6z"/>
<path d="M2962 3869 c-40 -28 -72 -53 -72 -56 0 -4 122 79 145 99 25 22 -8 3
-73 -43z"/>
<path d="M5178 3913 c7 -3 16 -2 19 1 4 3 -2 6 -13 5 -11 0 -14 -3 -6 -6z"/>
<path d="M11308 3913 c7 -3 16 -2 19 1 4 3 -2 6 -13 5 -11 0 -14 -3 -6 -6z"/>
<path d="M5128 3903 c7 -3 16 -2 19 1 4 3 -2 6 -13 5 -11 0 -14 -3 -6 -6z"/>
<path d="M5078 3893 c7 -3 16 -2 19 1 4 3 -2 6 -13 5 -11 0 -14 -3 -6 -6z"/>
<path d="M11408 3893 c7 -3 16 -2 19 1 4 3 -2 6 -13 5 -11 0 -14 -3 -6 -6z"/>
<path d="M4920 3863 c-58 -14 -100 -27 -95 -29 6 -2 62 10 125 25 63 16 106
29 95 29 -11 0 -67 -11 -125 -25z"/>
<path d="M11550 3859 c63 -16 120 -27 125 -25 11 3 -209 57 -228 55 -6 -1 40
-14 103 -30z"/>
<path d="M13520 3876 c0 -3 20 -19 45 -36 25 -17 45 -29 45 -26 0 3 -20 19
-45 36 -25 17 -45 29 -45 26z"/>
<path d="M4788 3823 c7 -3 16 -2 19 1 4 3 -2 6 -13 5 -11 0 -14 -3 -6 -6z"/>
<path d="M11698 3823 c7 -3 16 -2 19 1 4 3 -2 6 -13 5 -11 0 -14 -3 -6 -6z"/>
<path d="M4748 3813 c7 -3 16 -2 19 1 4 3 -2 6 -13 5 -11 0 -14 -3 -6 -6z"/>
<path d="M11738 3813 c7 -3 16 -2 19 1 4 3 -2 6 -13 5 -11 0 -14 -3 -6 -6z"/>
<path d="M2676 3750 c-47 -36 -57 -46 -31 -32 23 13 83 61 75 61 -3 0 -22 -13
-44 -29z"/>
<path d="M3158 3739 c-38 -22 -68 -42 -68 -45 0 -6 0 -6 78 41 53 33 70 45 60
45 -2 0 -33 -18 -70 -41z"/>
<path d="M4588 3773 c7 -3 16 -2 19 1 4 3 -2 6 -13 5 -11 0 -14 -3 -6 -6z"/>
<path d="M3688 3749 c-21 -11 -38 -22 -38 -24 0 -3 18 4 40 15 22 11 40 23 40
25 0 7 0 7 -42 -16z"/>
<path d="M13800 3766 c0 -2 14 -14 30 -26 17 -12 30 -19 30 -16 0 2 -13 14
-30 26 -16 12 -30 19 -30 16z"/>
<path d="M1630 3750 c8 -5 20 -10 25 -10 6 0 3 5 -5 10 -8 5 -19 10 -25 10 -5
0 -3 -5 5 -10z"/>
<path d="M2789 3743 c-13 -16 -12 -17 4 -4 16 13 21 21 13 21 -2 0 -10 -8 -17
-17z"/>
<path d="M4480 3745 c-19 -7 -28 -13 -20 -13 8 0 31 6 50 13 19 7 28 13 20 13
-8 0 -31 -6 -50 -13z"/>
<path d="M6648 3753 c18 -2 45 -2 60 0 15 2 0 4 -33 4 -33 0 -45 -2 -27 -4z"/>
<path d="M9788 3753 c18 -2 45 -2 60 0 15 2 0 4 -33 4 -33 0 -45 -2 -27 -4z"/>
<path d="M11990 3745 c19 -7 42 -13 50 -13 8 0 -1 6 -20 13 -19 7 -42 13 -50
13 -8 0 1 -6 20 -13z"/>
<path d="M12790 3755 c0 -2 18 -14 40 -25 22 -11 40 -18 40 -15 0 2 -18 14
-40 25 -22 11 -40 18 -40 15z"/>
<path d="M14845 3745 c-25 -12 -26 -14 -5 -9 28 7 60 23 45 23 -5 0 -23 -6
-40 -14z"/>
<path d="M6845 3741 c144 -15 246 -21 190 -11 -27 4 -99 10 -160 13 -94 5 -98
5 -30 -2z"/>
<path d="M9520 3737 c-52 -6 -86 -12 -75 -14 11 -2 81 3 155 11 79 8 110 14
75 13 -33 0 -103 -5 -155 -10z"/>
<path d="M1680 3732 c8 -5 26 -13 40 -16 17 -5 20 -4 10 2 -8 5 -26 13 -40 16
-17 5 -20 4 -10 -2z"/>
<path d="M14760 3715 c-19 -7 -28 -14 -20 -14 8 0 29 6 45 14 39 17 21 18 -25
0z"/>
<path d="M7103 3713 c9 -2 25 -2 35 0 9 3 1 5 -18 5 -19 0 -27 -2 -17 -5z"/>
<path d="M9373 3713 c9 -2 25 -2 35 0 9 3 1 5 -18 5 -19 0 -27 -2 -17 -5z"/>
<path d="M7173 3703 c9 -2 23 -2 30 0 6 3 -1 5 -18 5 -16 0 -22 -2 -12 -5z"/>
<path d="M9313 3703 c9 -2 23 -2 30 0 6 3 -1 5 -18 5 -16 0 -22 -2 -12 -5z"/>
<path d="M13390 3706 c0 -3 9 -10 20 -16 11 -6 20 -8 20 -6 0 3 -9 10 -20 16
-11 6 -20 8 -20 6z"/>
<path d="M1788 3693 c7 -3 16 -2 19 1 4 3 -2 6 -13 5 -11 0 -14 -3 -6 -6z"/>
<path d="M7248 3693 c7 -3 16 -2 19 1 4 3 -2 6 -13 5 -11 0 -14 -3 -6 -6z"/>
<path d="M9248 3693 c6 -2 18 -2 25 0 6 3 1 5 -13 5 -14 0 -19 -2 -12 -5z"/>
<path d="M7308 3683 c7 -3 16 -2 19 1 4 3 -2 6 -13 5 -11 0 -14 -3 -6 -6z"/>
<path d="M9188 3683 c7 -3 16 -2 19 1 4 3 -2 6 -13 5 -11 0 -14 -3 -6 -6z"/>
<path d="M14668 3683 c7 -3 16 -2 19 1 4 3 -2 6 -13 5 -11 0 -14 -3 -6 -6z"/>
<path d="M7358 3673 c7 -3 16 -2 19 1 4 3 -2 6 -13 5 -11 0 -14 -3 -6 -6z"/>
<path d="M9128 3673 c7 -3 16 -2 19 1 4 3 -2 6 -13 5 -11 0 -14 -3 -6 -6z"/>
<path d="M7418 3663 c7 -3 16 -2 19 1 4 3 -2 6 -13 5 -11 0 -14 -3 -6 -6z"/>
<path d="M9078 3663 c7 -3 16 -2 19 1 4 3 -2 6 -13 5 -11 0 -14 -3 -6 -6z"/>
<path d="M7458 3653 c7 -3 16 -2 19 1 4 3 -2 6 -13 5 -11 0 -14 -3 -6 -6z"/>
<path d="M9038 3653 c7 -3 16 -2 19 1 4 3 -2 6 -13 5 -11 0 -14 -3 -6 -6z"/>
<path d="M7498 3643 c7 -3 16 -2 19 1 4 3 -2 6 -13 5 -11 0 -14 -3 -6 -6z"/>
<path d="M8998 3643 c7 -3 16 -2 19 1 4 3 -2 6 -13 5 -11 0 -14 -3 -6 -6z"/>
<path d="M2969 3619 l-24 -20 28 17 c15 9 27 18 27 20 0 8 -8 4 -31 -17z"/>
<path d="M7545 3630 c11 -5 27 -9 35 -9 9 0 8 4 -5 9 -11 5 -27 9 -35 9 -9 0
-8 -4 5 -9z"/>
<path d="M8958 3633 c7 -3 16 -2 19 1 4 3 -2 6 -13 5 -11 0 -14 -3 -6 -6z"/>
<path d="M8895 3620 c-13 -5 -14 -9 -5 -9 8 0 24 4 35 9 13 5 14 9 5 9 -8 0
-24 -4 -35 -9z"/>
<path d="M11768 3623 c7 -3 16 -2 19 1 4 3 -2 6 -13 5 -11 0 -14 -3 -6 -6z"/>
<path d="M7608 3613 c7 -3 16 -2 19 1 4 3 -2 6 -13 5 -11 0 -14 -3 -6 -6z"/>
<path d="M11808 3613 c7 -3 16 -2 19 1 4 3 -2 6 -13 5 -11 0 -14 -3 -6 -6z"/>
<path d="M3558 3524 c-38 -19 -68 -37 -68 -39 0 -5 139 62 149 71 14 13 -23
-2 -81 -32z"/>
<path d="M5605 3530 c-181 -11 -404 -34 -580 -60 -167 -26 -457 -81 -452 -87
3 -2 63 7 134 21 159 31 426 70 638 93 123 13 252 17 555 18 413 0 503 -5 835
-51 99 -13 198 -26 220 -29 l40 -5 -35 9 c-65 17 -386 61 -554 76 -215 19
-608 26 -801 15z"/>
<path d="M10380 3534 c-306 -17 -477 -35 -750 -79 -154 -25 -415 -83 -407 -91
2 -2 60 9 128 25 199 48 448 86 734 113 187 17 834 17 1015 0 192 -19 540 -69
682 -97 130 -27 178 -32 88 -9 -148 37 -531 96 -775 119 -156 15 -585 26 -715
19z"/>
<path d="M12204 3504 c55 -18 101 -32 103 -30 5 5 -177 66 -192 65 -6 0 35
-16 89 -35z"/>
<path d="M4292 3513 c-24 -8 -41 -17 -39 -19 2 -2 28 5 58 15 30 11 47 20 39
19 -8 0 -34 -6 -58 -15z"/>
<path d="M4195 3475 c-25 -12 -26 -14 -5 -9 28 7 60 23 45 23 -5 0 -23 -6 -40
-14z"/>
<path d="M7114 3399 c66 -16 124 -28 130 -26 13 4 -206 57 -232 56 -9 0 37
-14 102 -30z"/>
<path d="M4020 3410 c-8 -5 -10 -10 -5 -10 6 0 17 5 25 10 8 5 11 10 5 10 -5
0 -17 -5 -25 -10z"/>
<path d="M12480 3405 c14 -8 30 -14 35 -14 6 0 -1 6 -15 14 -14 8 -29 14 -35
14 -5 0 1 -6 15 -14z"/>
<path d="M5115 3390 c-165 -14 -167 -19 -5 -11 184 8 493 8 680 0 91 -4 121
-3 80 2 -101 12 -633 19 -755 9z"/>
<path d="M10730 3390 c-175 -14 -181 -18 -15 -11 193 8 482 8 660 0 88 -4 118
-4 80 2 -93 12 -596 19 -725 9z"/>
<path d="M4538 3373 c7 -3 16 -2 19 1 4 3 -2 6 -13 5 -11 0 -14 -3 -6 -6z"/>
<path d="M11938 3373 c7 -3 16 -2 19 1 4 3 -2 6 -13 5 -11 0 -14 -3 -6 -6z"/>
<path d="M4908 3363 c12 -2 30 -2 40 0 9 3 -1 5 -23 4 -22 0 -30 -2 -17 -4z"/>
<path d="M5968 3363 c12 -2 30 -2 40 0 9 3 -1 5 -23 4 -22 0 -30 -2 -17 -4z"/>
<path d="M10498 3363 c12 -2 30 -2 40 0 9 3 -1 5 -23 4 -22 0 -30 -2 -17 -4z"/>
<path d="M11538 3363 c12 -2 32 -2 45 0 12 2 2 4 -23 4 -25 0 -35 -2 -22 -4z"/>
<path d="M4838 3353 c7 -3 16 -2 19 1 4 3 -2 6 -13 5 -11 0 -14 -3 -6 -6z"/>
<path d="M6068 3353 c7 -3 16 -2 19 1 4 3 -2 6 -13 5 -11 0 -14 -3 -6 -6z"/>
<path d="M10418 3353 c7 -3 16 -2 19 1 4 3 -2 6 -13 5 -11 0 -14 -3 -6 -6z"/>
<path d="M11638 3353 c7 -3 16 -2 19 1 4 3 -2 6 -13 5 -11 0 -14 -3 -6 -6z"/>
<path d="M5048 3223 c6 -2 18 -2 25 0 6 3 1 5 -13 5 -14 0 -19 -2 -12 -5z"/>
<path d="M5270 3213 c297 -18 723 -83 970 -147 179 -47 195 -50 132 -27 -202
76 -887 187 -1103 179 l-54 -2 55 -3z"/>
<path d="M10990 3204 c-160 -15 -463 -64 -580 -94 -90 -24 -62 -20 180 24 185
34 391 60 590 75 97 8 99 8 30 8 -41 0 -140 -6 -220 -13z"/>
<path d="M8144 3156 c-16 -14 -24 -25 -19 -25 15 -1 61 37 54 44 -4 3 -20 -5
-35 -19z"/>
<path d="M10176 3054 c-109 -32 -145 -45 -120 -44 21 1 277 79 259 79 -11 0
-74 -16 -139 -35z"/>
<path d="M6990 3055 c14 -8 30 -14 35 -14 6 0 -1 6 -15 14 -14 8 -29 14 -35
14 -5 0 1 -6 15 -14z"/>
<path d="M7430 3050 c8 -5 20 -10 25 -10 6 0 3 5 -5 10 -8 5 -19 10 -25 10 -5
0 -3 -5 5 -10z"/>
<path d="M9040 3045 c-14 -8 -20 -14 -15 -14 6 0 21 6 35 14 14 8 21 14 15 14
-5 0 -21 -6 -35 -14z"/>
<path d="M9460 3040 c-19 -11 -30 -19 -25 -19 6 0 26 8 45 19 19 11 31 19 25
19 -5 0 -26 -8 -45 -19z"/>
<path d="M7070 3020 c19 -11 40 -19 45 -19 6 0 -6 8 -25 19 -19 11 -39 19 -45
19 -5 0 6 -8 25 -19z"/>
<path d="M8088 3004 c-24 -23 5 -235 44 -326 20 -47 60 -96 45 -54 -18 46 -59
224 -70 302 -6 47 -15 82 -19 78z"/>
<path d="M9370 3000 c-8 -5 -10 -10 -5 -10 6 0 17 5 25 10 8 5 11 10 5 10 -5
0 -17 -5 -25 -10z"/>
<path d="M8402 2945 c-7 -33 -28 -121 -46 -195 -19 -74 -32 -137 -29 -140 9
-10 34 35 53 96 23 77 43 207 38 259 -3 40 -3 40 -16 -20z"/>
<path d="M7151 2986 c10 -9 189 -96 189 -91 0 5 -176 95 -186 95 -4 0 -5 -2
-3 -4z"/>
<path d="M9228 2931 c-37 -21 -71 -41 -75 -45 -10 -10 85 37 130 64 56 34 15
20 -55 -19z"/>
<path d="M10132 2923 c-51 -20 -91 -38 -89 -40 4 -3 187 64 196 72 10 11 -19
2 -107 -32z"/>
<path d="M6311 2937 c8 -9 141 -58 146 -54 2 2 -25 14 -59 27 -92 33 -93 34
-87 27z"/>
<path d="M6471 2876 c2 -1 80 -36 173 -75 174 -75 479 -230 640 -327 50 -30
81 -46 68 -35 -78 67 -575 325 -779 405 -85 33 -113 42 -102 32z"/>
<path d="M9965 2859 c-131 -53 -313 -137 -435 -201 -160 -84 -388 -216 -396
-230 -3 -5 11 1 33 15 152 96 475 263 692 358 180 79 177 78 166 78 -5 0 -32
-9 -60 -20z"/>
<path d="M7390 2866 c0 -3 14 -12 30 -21 17 -9 30 -13 30 -11 0 3 -13 12 -30
21 -16 9 -30 13 -30 11z"/>
<path d="M9033 2824 c-24 -14 -43 -27 -43 -30 0 -6 67 33 85 48 17 15 1 8 -42
-18z"/>
<path d="M7475 2815 c11 -9 29 -21 40 -26 l20 -10 -20 16 c-11 9 -29 21 -40
26 l-20 10 20 -16z"/>
<path d="M7385 2603 c6 -6 28 -20 50 -32 22 -13 31 -15 20 -6 -22 18 -86 53
-70 38z"/>
<path d="M9073 2584 c-48 -28 -59 -43 -15 -20 30 16 70 45 62 46 -3 0 -24 -12
-47 -26z"/>
<path d="M7480 2546 c0 -3 9 -10 20 -16 11 -6 20 -8 20 -6 0 3 -9 10 -20 16
-11 6 -20 8 -20 6z"/>
<path d="M8964 2514 c-18 -14 -18 -15 4 -4 12 6 22 13 22 15 0 8 -5 6 -26 -11z"/>
<path d="M7535 2513 c6 -5 48 -36 95 -68 47 -33 105 -75 130 -94 25 -20 38
-28 30 -17 -8 10 -57 48 -110 86 -100 71 -162 111 -145 93z"/>
<path d="M8862 2449 c-40 -28 -72 -53 -72 -55 0 -3 34 18 75 47 66 46 83 59
72 59 -2 0 -35 -23 -75 -51z"/>
<path d="M8730 2349 l-45 -41 48 37 c41 33 53 45 45 45 -2 0 -23 -18 -48 -41z"/>
<path d="M7440 2246 c0 -2 8 -10 18 -17 15 -13 16 -12 3 4 -13 16 -21 21 -21
13z"/>
<path d="M9039 2233 c-13 -16 -12 -17 4 -4 16 13 21 21 13 21 -2 0 -10 -8 -17
-17z"/>
<path d="M7505 2190 c10 -11 20 -20 23 -20 3 0 -3 9 -13 20 -10 11 -20 20 -23
20 -3 0 3 -9 13 -20z"/>
<path d="M7576 2134 c22 -22 81 -74 130 -117 l89 -79 -80 77 c-44 42 -102 95
-130 117 l-50 40 41 -38z"/>
<path d="M8838 2065 c-64 -57 -120 -110 -124 -117 -5 -7 32 23 81 68 50 45
108 97 130 117 22 20 38 37 35 37 -3 0 -58 -47 -122 -105z"/>
</g>
</svg>
