<?xml version="1.0" standalone="no"?>
<!DOCTYPE svg PUBLIC "-//W3C//DTD SVG 20010904//EN"
 "http://www.w3.org/TR/2001/REC-SVG-20010904/DTD/svg10.dtd">
<svg version="1.0" xmlns="http://www.w3.org/2000/svg"
 width="1650.000000pt" height="2210.000000pt" viewBox="0 0 1650.000000 2210.000000"
 preserveAspectRatio="xMidYMid meet">

<g transform="translate(0.000000,2210.000000) scale(0.100000,-0.100000)"
fill="#000000" stroke="none">
<path d="M8635 21794 c-27 -2 -144 -11 -260 -20 -929 -69 -1605 -196 -2330
-438 -365 -122 -582 -211 -950 -391 -429 -210 -798 -452 -1150 -755 -125 -108
-472 -462 -580 -593 -407 -492 -695 -1054 -784 -1532 -29 -159 -56 -373 -48
-382 3 -2 15 49 27 114 76 407 223 800 427 1146 142 240 323 490 502 691 128
145 457 466 581 567 408 334 794 567 1339 809 445 198 834 329 1336 450 514
124 1043 200 1760 252 220 15 892 15 1110 -1 1046 -76 1888 -288 2700 -680
568 -274 1043 -609 1466 -1031 258 -257 410 -445 634 -780 509 -761 897 -1792
1079 -2870 86 -506 103 -895 60 -1377 -70 -796 -327 -1671 -655 -2229 -136
-232 -314 -479 -684 -948 -326 -416 -420 -547 -553 -777 -359 -623 -570 -1326
-631 -2104 -55 -704 28 -1545 225 -2270 87 -318 182 -580 299 -821 48 -98 89
-201 116 -290 48 -163 150 -383 242 -523 35 -53 117 -170 182 -261 180 -252
620 -916 741 -1116 178 -296 337 -622 512 -1054 140 -346 231 -609 407 -1180
37 -118 69 -217 71 -219 27 -27 -9 140 -107 499 -193 707 -492 1426 -823 1978
-114 189 -616 947 -800 1206 -69 98 -151 223 -182 276 -57 102 -124 250 -124
276 0 36 -99 293 -172 449 -114 240 -156 352 -238 625 -137 460 -220 898 -267
1405 -24 270 -24 861 1 1110 92 929 387 1719 901 2410 45 61 153 200 241 310
451 567 701 934 847 1244 279 594 469 1330 533 2066 20 228 15 700 -10 917
-119 1054 -507 2255 -984 3048 -254 422 -525 773 -823 1065 -349 342 -637 562
-1074 818 -753 441 -1670 740 -2609 852 -413 48 -551 57 -1011 60 -242 1 -462
1 -490 -1z"/>
<path d="M8665 21454 c-857 -43 -1528 -140 -2189 -315 -725 -192 -1441 -549
-2076 -1033 -414 -315 -832 -732 -1090 -1083 -247 -338 -423 -709 -611 -1288
-153 -474 -198 -602 -292 -825 -215 -515 -275 -681 -312 -865 -33 -164 -39
-262 -25 -379 16 -133 42 -227 106 -383 77 -188 97 -268 97 -383 1 -191 -77
-333 -377 -694 -134 -162 -211 -274 -402 -591 -209 -347 -393 -617 -569 -835
-220 -271 -271 -354 -306 -488 -49 -193 2 -412 130 -554 131 -146 366 -265
677 -343 72 -18 150 -43 172 -54 102 -52 167 -248 142 -433 -22 -169 -63 -278
-157 -419 -55 -83 -64 -136 -38 -225 55 -190 191 -345 349 -398 16 -6 10 -14
-41 -60 -105 -96 -156 -225 -156 -397 0 -131 14 -158 119 -226 99 -65 159
-129 207 -221 108 -205 110 -338 12 -600 -50 -135 -79 -244 -94 -355 -47 -342
69 -714 286 -918 129 -123 331 -224 516 -260 42 -9 205 -13 512 -14 457 -1
652 -12 1270 -75 55 -6 217 -17 360 -25 294 -17 386 -34 496 -91 165 -87 291
-292 334 -543 8 -47 23 -180 35 -294 11 -114 27 -246 35 -293 36 -204 128
-415 321 -734 64 -107 130 -224 145 -260 72 -169 116 -394 219 -1118 64 -454
70 -506 70 -660 0 -187 -9 -260 -46 -410 -58 -235 -125 -342 -395 -629 -164
-174 -263 -347 -359 -628 -75 -219 -122 -335 -226 -564 -52 -113 -92 -206 -90
-208 5 -6 116 154 168 243 74 129 118 228 198 451 118 327 198 473 360 650
259 285 283 318 418 588 136 272 251 544 397 935 178 479 343 1049 584 2020
216 872 306 1198 448 1620 140 417 207 600 575 1550 481 1242 600 1678 644
2361 l6 105 70 18 c131 34 229 99 411 275 59 57 110 102 112 99 3 -3 -18 -49
-46 -104 -45 -89 -50 -104 -46 -148 3 -38 11 -55 31 -73 56 -48 126 -24 209
70 67 76 122 104 184 92 53 -10 114 -75 131 -140 10 -38 26 -62 65 -101 66
-63 116 -78 252 -78 85 0 109 4 161 25 83 36 161 87 279 184 183 150 261 171
522 140 260 -30 349 -16 631 105 130 55 301 115 308 107 2 -2 -26 -28 -61 -57
-193 -160 -500 -549 -718 -910 -223 -371 -436 -855 -737 -1675 -323 -882 -460
-1239 -782 -2040 -518 -1284 -665 -1736 -902 -2770 -125 -546 -141 -662 -141
-1020 0 -320 13 -430 71 -604 19 -57 33 -105 32 -107 -6 -5 -440 -115 -631
-159 -327 -75 -651 -129 -967 -160 -482 -48 -801 -144 -989 -298 -68 -55 -176
-188 -225 -279 -36 -66 -35 -65 57 57 156 209 282 294 549 371 172 49 359 81
607 105 586 55 1091 161 1969 415 768 222 965 275 1272 343 450 99 1031 149
1405 122 402 -30 710 -97 1030 -226 146 -59 248 -108 515 -247 102 -53 224
-110 272 -127 48 -16 214 -55 370 -86 156 -30 328 -69 383 -86 114 -36 254
-98 340 -154 81 -51 50 -16 -36 40 -81 54 -209 115 -304 144 -39 12 -179 44
-312 71 -437 89 -455 95 -812 293 -441 244 -811 362 -1311 418 -172 20 -636
17 -845 -4 -556 -58 -844 -122 -1860 -416 -332 -96 -451 -127 -457 -118 -16
27 -59 229 -73 352 -29 250 -15 546 41 874 53 312 219 1006 329 1381 167 565
286 895 662 1829 377 938 332 819 849 2221 385 1043 647 1552 1073 2085 111
139 371 405 419 429 18 10 99 26 180 36 155 21 271 43 334 66 21 7 38 12 38
10 0 -2 -26 -45 -57 -97 -123 -204 -316 -676 -417 -1020 -118 -404 -248 -1006
-325 -1509 -71 -460 -102 -736 -151 -1320 -69 -835 -125 -1281 -220 -1760
-128 -639 -331 -1204 -586 -1623 -74 -122 -228 -340 -446 -631 -288 -383 -378
-528 -534 -850 -73 -151 -94 -214 -41 -124 253 435 344 574 602 921 295 397
378 515 479 682 291 483 515 1176 641 1983 58 369 92 684 150 1362 80 936 144
1402 292 2110 140 673 310 1204 528 1650 105 213 127 246 189 277 135 68 214
137 440 383 236 256 329 347 546 537 229 199 324 297 404 417 70 104 114 201
291 639 240 596 308 831 360 1241 71 562 59 937 -45 1491 -22 116 -58 309 -80
430 -138 748 -330 1368 -576 1855 -249 495 -531 879 -963 1310 -391 390 -798
694 -1322 988 -755 423 -1456 612 -2599 702 -133 11 -889 21 -1025 14z m845
-54 c1032 -53 1828 -233 2493 -567 780 -390 1426 -897 1943 -1523 454 -550
749 -1132 968 -1915 82 -291 126 -486 225 -1007 132 -689 154 -1013 106 -1526
-53 -553 -112 -768 -416 -1517 -228 -560 -256 -601 -652 -948 -242 -213 -372
-341 -595 -589 -150 -167 -260 -256 -397 -323 -114 -56 -203 -78 -464 -115
-234 -34 -333 -59 -496 -127 -60 -25 -159 -63 -220 -85 -139 -51 -237 -58
-435 -33 -146 19 -260 15 -333 -10 -23 -8 -43 -13 -45 -11 -9 10 102 82 212
137 152 78 244 141 321 221 68 70 65 68 -60 -32 -93 -74 -144 -103 -297 -171
-115 -51 -152 -76 -268 -189 -258 -250 -416 -327 -591 -291 -80 17 -141 58
-168 114 -17 35 -24 76 -32 174 -15 203 -46 316 -109 394 l-29 37 76 58 c200
150 350 311 498 534 341 513 495 978 495 1488 0 258 -34 464 -106 646 -126
317 -325 531 -611 656 -132 58 -228 81 -368 87 -333 15 -642 -134 -878 -422
-59 -71 -194 -188 -349 -302 -87 -64 -109 -85 -65 -62 46 25 194 123 234 155
23 19 44 34 46 34 3 0 -5 -19 -18 -42 -53 -94 -140 -367 -123 -384 3 -2 13 17
23 43 34 90 133 279 196 373 122 183 324 364 498 447 235 111 512 116 758 15
221 -92 381 -234 503 -449 224 -390 252 -968 75 -1500 -85 -254 -200 -481
-379 -753 -94 -141 -129 -184 -245 -301 -91 -90 -188 -174 -293 -252 -206
-153 -303 -235 -483 -407 -212 -203 -318 -266 -470 -277 -200 -15 -377 84
-461 258 -46 95 -64 187 -64 335 0 145 -11 154 -35 30 -54 -283 50 -534 265
-639 84 -42 206 -71 263 -64 34 5 37 3 37 -18 0 -62 -54 -495 -76 -610 -80
-412 -240 -918 -514 -1620 -679 -1743 -739 -1927 -1106 -3397 -228 -917 -386
-1468 -550 -1918 -77 -211 -367 -950 -371 -946 -2 2 5 38 14 82 15 65 18 127
18 344 l0 265 -63 420 c-77 518 -137 863 -168 975 -32 111 -84 219 -192 399
-114 187 -180 311 -232 435 -75 177 -98 283 -130 596 -27 272 -46 376 -85 488
-78 217 -212 360 -402 429 -95 34 -220 51 -475 63 -125 6 -262 15 -305 20
-117 14 -929 80 -993 80 -30 0 -65 3 -78 7 -25 6 45 32 258 94 510 148 822
279 1615 678 437 221 572 284 770 361 350 136 621 232 828 296 429 132 580
218 718 407 82 113 158 209 230 292 71 81 130 195 160 310 16 65 22 130 29
340 10 279 13 325 36 540 45 414 93 660 225 1145 111 407 180 592 377 1010 17
36 5 -81 -18 -179 -10 -42 -17 -77 -15 -79 1 -1 10 16 20 40 68 167 72 289 20
523 -19 86 -42 168 -50 183 l-16 27 6 -30 c6 -36 35 -233 42 -290 6 -53 -36
-172 -137 -385 -126 -264 -190 -448 -309 -890 -73 -271 -92 -353 -125 -535
-67 -367 -103 -703 -115 -1080 -10 -285 -23 -360 -79 -471 -36 -71 -69 -116
-151 -209 -34 -38 -94 -113 -132 -167 -39 -54 -98 -126 -132 -159 -127 -123
-231 -172 -620 -295 -505 -158 -997 -354 -1397 -557 -173 -88 -409 -208 -525
-266 -205 -104 -615 -284 -805 -354 -172 -63 -833 -268 -946 -293 -106 -23
-397 -24 -500 -1 -236 53 -448 188 -566 360 -128 187 -194 456 -169 686 14
126 37 221 97 388 55 156 74 242 74 337 0 185 -110 414 -251 521 l-53 40 80
11 c96 14 185 37 273 70 73 28 415 214 407 222 -3 2 -90 -38 -193 -90 -195
-99 -292 -136 -432 -162 -88 -17 -188 -21 -207 -8 -25 16 -34 55 -34 139 1
155 37 248 131 338 79 76 132 98 244 103 80 4 108 0 230 -31 228 -58 486 -97
647 -97 l68 0 35 -67 36 -68 -5 56 c-5 68 -42 144 -98 205 -23 24 -43 43 -45
40 -2 -2 10 -30 28 -61 l32 -57 -74 7 c-208 19 -392 49 -554 88 -225 56 -271
61 -375 43 -70 -13 -89 -13 -122 -2 -66 23 -148 79 -204 139 -62 66 -131 200
-140 269 -6 45 -4 51 54 140 67 104 102 181 126 278 76 310 19 568 -148 665
-22 13 -112 42 -198 64 -384 98 -612 238 -708 435 -89 181 -74 373 42 552 24
38 103 144 175 235 228 289 393 529 618 900 172 282 236 377 370 542 263 326
324 415 377 561 23 62 32 104 36 177 6 126 -12 206 -95 424 -101 265 -107 291
-107 490 0 163 2 175 36 305 42 156 99 318 199 563 201 491 219 539 364 1002
282 896 531 1323 1109 1900 479 477 1027 867 1641 1166 230 112 405 183 660
267 686 229 1566 375 2495 415 172 8 686 6 860 -3z m679 -9997 c38 -97 57
-182 66 -297 l7 -90 -31 27 c-57 48 -143 56 -211 22 -14 -8 -54 -43 -89 -79
-64 -67 -89 -81 -132 -74 -20 2 -24 10 -27 44 -2 32 6 59 37 120 22 44 43 101
47 127 6 42 13 53 63 97 70 60 224 180 232 180 4 0 21 -35 38 -77z"/>
<path d="M3160 15999 c-397 -60 -667 -177 -741 -320 -67 -133 50 -349 189
-349 52 0 144 35 362 140 274 131 340 152 500 157 112 4 140 1 270 -27 300
-64 514 -140 800 -285 192 -97 181 -86 -44 43 -280 161 -526 250 -821 297
-106 17 -268 22 -326 11 -92 -19 -215 -68 -439 -176 -135 -65 -259 -121 -277
-125 -62 -12 -140 52 -181 148 -17 39 -15 132 3 166 53 103 344 217 715 280
232 39 390 35 586 -14 70 -18 314 -137 471 -231 142 -85 210 -140 424 -349 96
-93 163 -160 149 -148 -37 30 -194 133 -278 182 -72 42 -242 124 -242 116 0
-2 35 -23 78 -46 102 -57 339 -200 429 -261 l73 -48 -33 47 c-41 62 -241 268
-337 348 -41 35 -138 104 -215 155 -219 143 -416 231 -640 286 -125 30 -290
31 -475 3z"/>
<path d="M2970 15318 c0 -7 11 -37 25 -66 32 -69 122 -162 184 -192 l50 -23
-27 -32 c-40 -45 -68 -94 -83 -144 l-13 -44 -75 6 c-42 3 -95 13 -119 22 -24
10 -45 15 -48 12 -3 -3 8 -20 25 -39 37 -42 143 -95 233 -116 l67 -16 -6 -107
c-9 -164 22 -321 83 -413 26 -39 22 -55 -14 -56 -25 0 -87 -38 -121 -74 -42
-44 -28 -46 36 -6 26 17 50 30 54 30 4 0 9 -28 11 -62 3 -45 16 -91 46 -161
l42 -97 -34 -68 c-35 -70 -72 -187 -55 -176 5 3 9 11 9 17 0 7 25 63 56 125
l57 113 -43 107 c-28 71 -43 124 -44 156 -1 58 -18 50 191 90 221 43 492 142
646 237 l49 30 85 -30 c46 -17 89 -31 96 -31 20 0 -711 370 -813 411 -95 38
-242 82 -313 94 -34 5 -37 8 -31 33 11 45 62 147 84 167 19 18 23 18 82 1 191
-53 545 -233 821 -416 97 -65 177 -117 177 -115 0 2 -48 43 -107 91 -129 105
-135 110 -103 94 43 -23 294 -162 310 -172 8 -6 1 3 -17 18 -54 49 -215 140
-545 311 -319 165 -487 236 -590 249 -103 13 -208 88 -274 195 -38 61 -44 68
-44 47z m339 -654 c3 -3 -3 -10 -12 -17 -23 -17 -47 -91 -47 -141 1 -49 21
-110 46 -137 41 -45 102 1 111 84 5 39 3 46 -16 52 -32 10 -47 89 -19 107 10
6 7 13 -12 30 -21 17 -22 20 -5 15 11 -3 50 -14 86 -23 79 -19 79 -19 79 -173
0 -109 -18 -191 -57 -263 -28 -51 -47 -62 -103 -56 -29 3 -37 11 -66 62 -56
103 -87 284 -70 420 l8 57 36 -7 c20 -4 39 -8 41 -10z m400 -116 c97 -36 380
-156 390 -164 8 -7 -247 -123 -345 -157 -115 -39 -241 -73 -249 -66 -2 3 4 28
15 55 37 98 47 263 23 363 -5 22 -4 23 27 16 19 -4 81 -25 139 -47z"/>
<path d="M9968 14624 c-62 -15 -159 -60 -225 -105 -136 -94 -259 -283 -310
-478 -21 -82 -25 -120 -26 -256 -1 -141 2 -174 26 -275 50 -217 171 -401 309
-469 79 -40 111 -40 38 -1 -107 58 -198 184 -254 352 -28 84 -56 205 -56 245
0 25 1 24 41 -16 41 -41 94 -78 289 -200 205 -129 288 -225 351 -409 31 -90
33 -106 33 -232 1 -117 -2 -143 -22 -195 -32 -84 -88 -162 -157 -218 -88 -71
-143 -88 -315 -97 -208 -12 -296 -45 -365 -137 -85 -111 -163 -172 -223 -173
-65 0 -112 61 -112 147 0 59 9 73 121 189 62 63 97 109 116 150 14 32 36 73
49 89 55 74 56 192 2 308 -30 64 -31 71 -17 96 8 14 25 27 37 29 33 5 140 -49
195 -97 68 -61 58 -35 -13 33 -67 64 -127 95 -182 96 -21 0 -38 1 -38 3 0 2 5
28 10 59 7 35 7 63 1 79 -10 23 -10 23 -10 -6 -2 -54 -28 -133 -60 -178 -62
-86 -74 -174 -41 -295 24 -86 25 -150 5 -199 -8 -19 -53 -74 -99 -122 -46 -47
-93 -105 -105 -128 -72 -144 2 -303 142 -303 72 0 135 40 236 149 118 128 145
140 331 151 74 5 157 14 185 20 171 39 332 206 380 395 23 90 19 225 -9 336
-64 254 -166 374 -473 557 -76 46 -171 112 -211 148 l-72 66 0 101 c1 344 217
655 510 732 165 44 429 -14 577 -126 121 -91 236 -277 267 -429 89 -441 75
-776 -49 -1146 -76 -229 -174 -413 -333 -627 -93 -126 -205 -238 -339 -341
-92 -71 -126 -100 -90 -80 551 319 919 996 920 1694 0 191 -38 487 -78 603
-55 161 -194 338 -327 415 -160 94 -400 135 -560 96z"/>
<path d="M9854 14433 c8 -16 51 -93 95 -172 85 -152 101 -202 101 -307 0 -73
-15 -109 -60 -147 -65 -55 -178 -44 -327 34 -51 26 -93 46 -93 45 0 -8 128
-87 172 -106 191 -84 337 -8 338 176 0 109 -42 211 -171 410 -60 92 -84 121
-55 67z"/>
<path d="M10550 13989 c0 -3 11 -39 26 -80 70 -204 104 -421 104 -659 0 -239
-41 -441 -130 -637 -39 -85 -143 -240 -215 -320 -60 -66 -185 -165 -273 -215
-77 -44 -57 -46 29 -2 104 51 182 109 270 200 310 320 416 802 304 1370 -23
115 -71 269 -101 324 -7 14 -13 22 -14 19z"/>
<path d="M3730 13820 c-50 -20 -174 -52 -290 -74 l-75 -14 70 5 c39 3 100 11
136 18 66 13 195 59 214 76 14 13 -3 10 -55 -11z"/>
<path d="M8445 13580 c-139 -55 -372 -75 -685 -58 l-125 7 70 -15 c178 -35
485 -28 645 17 67 18 170 63 170 74 0 3 -1 5 -2 4 -2 -1 -34 -14 -73 -29z"/>
<path d="M8204 13126 c-69 -32 -117 -77 -174 -162 -60 -88 -116 -137 -187
-164 -72 -27 -119 -25 -211 6 -96 33 -100 36 -159 112 -26 34 -70 77 -96 96
-47 34 -134 62 -159 53 -15 -5 -9 -8 58 -26 61 -16 116 -61 181 -148 65 -86
102 -112 206 -144 82 -26 143 -22 222 15 l53 24 8 -86 c8 -102 -7 -158 -67
-250 -151 -231 -478 -413 -744 -414 -239 -1 -382 129 -475 432 -36 118 -66
165 -119 187 -72 30 -190 -7 -263 -84 l-33 -36 48 36 c47 36 128 67 174 67 31
0 85 -23 101 -43 7 -8 26 -66 43 -127 65 -244 174 -389 337 -450 258 -97 643
32 895 299 67 71 147 211 147 257 0 42 20 36 41 -12 30 -66 35 -146 15 -223
-9 -35 -15 -66 -13 -68 2 -2 13 18 23 44 13 34 19 73 19 133 0 80 -2 89 -39
154 -23 42 -44 96 -52 135 -12 66 -12 66 15 96 16 17 42 50 58 75 53 78 122
148 170 171 56 27 134 29 213 5 45 -13 62 -25 92 -65 21 -27 42 -61 48 -75 17
-46 12 -141 -11 -198 -26 -65 -59 -171 -55 -175 1 -2 24 48 51 110 42 97 48
121 49 182 0 58 -4 78 -26 118 -38 68 -12 50 107 -75 100 -104 113 -108 51
-15 -135 203 -380 308 -542 233z"/>
<path d="M2065 12439 c-41 -10 -218 -90 -211 -96 1 -2 49 15 106 38 57 23 137
47 179 54 l76 13 -55 0 c-30 0 -73 -4 -95 -9z"/>
<path d="M5996 12378 c-66 -113 -145 -382 -167 -568 -15 -124 -6 -295 26 -510
50 -328 34 -561 -58 -841 -66 -200 -94 -249 -175 -310 -63 -46 -424 -231 -575
-294 -37 -15 -66 -30 -63 -32 5 -5 170 56 274 101 110 47 264 127 329 170 29
19 58 38 65 42 18 12 -45 -97 -133 -227 -83 -122 -201 -250 -332 -358 -42 -35
-77 -66 -77 -68 0 -9 119 80 200 149 245 212 458 550 553 878 49 168 62 270
61 480 0 136 -6 225 -17 293 -33 187 -38 243 -38 393 0 214 44 443 125 648 20
50 34 92 32 94 -2 2 -16 -16 -30 -40z"/>
<path d="M2427 12289 c93 -59 173 -266 173 -447 0 -64 -26 -195 -46 -235 -58
-111 -208 -201 -369 -223 -46 -6 -48 -7 -25 -16 14 -6 52 -10 86 -11 131 -2
305 120 353 247 42 113 50 277 19 406 -28 117 -112 251 -179 286 -41 21 -49
17 -12 -7z"/>
<path d="M2649 11928 c5 -13 39 -88 76 -168 59 -127 218 -485 277 -623 12 -26
23 -46 25 -44 12 12 -364 857 -381 857 -3 0 -2 -10 3 -22z"/>
<path d="M9585 11755 c-129 -35 -188 -55 -182 -61 5 -5 247 61 287 79 52 23
28 19 -105 -18z"/>
<path d="M1485 11764 c-135 -16 -184 -48 -151 -99 9 -13 29 -31 44 -39 54 -28
224 -48 236 -27 3 4 -18 11 -46 14 -70 9 -180 46 -175 60 12 38 276 49 398 18
98 -25 177 -61 222 -101 56 -49 50 -63 -23 -58 -33 2 -60 3 -60 1 0 -9 88 -43
113 -43 39 0 71 34 62 68 -15 60 -131 137 -266 176 -83 24 -267 40 -354 30z"/>
<path d="M1870 11113 c0 -5 7 -30 16 -58 28 -87 19 -263 -20 -400 -4 -11 3 -1
14 22 45 93 54 266 20 377 -18 58 -30 82 -30 59z"/>
<path d="M1770 10379 c-25 -11 -67 -27 -95 -34 l-50 -14 40 0 c22 0 60 9 85
20 72 34 115 28 242 -34 125 -60 195 -101 408 -237 134 -86 336 -200 355 -200
4 0 -68 48 -161 106 -92 58 -224 142 -293 187 -201 130 -401 227 -465 227 -12
0 -41 -10 -66 -21z"/>
<path d="M8836 10122 c-66 -162 -321 -733 -387 -865 -112 -224 -241 -456 -316
-570 -100 -152 -199 -266 -402 -462 -308 -298 -625 -617 -661 -665 -19 -25 51
36 155 136 105 99 278 262 385 361 335 309 473 464 602 678 76 126 236 427
317 597 104 218 342 820 329 833 -2 2 -12 -17 -22 -43z"/>
<path d="M7817 9453 c-25 -147 -122 -321 -268 -478 -46 -49 -70 -79 -53 -67
81 57 220 230 269 337 36 76 69 201 63 231 -2 11 -7 1 -11 -23z"/>
<path d="M2312 8725 c92 -18 221 -63 297 -106 72 -40 55 -22 -24 26 -76 45
-194 83 -282 90 l-68 5 77 -15z"/>
<path d="M6635 7273 c-60 -18 -119 -26 -235 -32 -142 -8 -165 -12 -280 -50
-244 -79 -364 -158 -405 -263 -37 -97 2 -155 98 -145 54 5 261 69 287 88 12 9
11 9 -5 3 -65 -24 -237 -73 -275 -79 -124 -18 -135 119 -18 220 55 48 129 85
257 129 158 55 209 66 363 76 114 7 158 14 218 35 41 15 79 31 85 36 13 12 3
11 -90 -18z"/>
<path d="M6130 6890 c-8 -5 -10 -10 -5 -10 6 0 17 5 25 10 8 5 11 10 5 10 -5
0 -17 -5 -25 -10z"/>
<path d="M6551 3874 c0 -11 3 -14 6 -6 3 7 2 16 -1 19 -3 4 -6 -2 -5 -13z"/>
<path d="M6561 3834 c0 -11 3 -14 6 -6 3 7 2 16 -1 19 -3 4 -6 -2 -5 -13z"/>
<path d="M6572 3790 c0 -14 2 -19 5 -12 2 6 2 18 0 25 -3 6 -5 1 -5 -13z"/>
<path d="M6581 3744 c0 -11 3 -14 6 -6 3 7 2 16 -1 19 -3 4 -6 -2 -5 -13z"/>
<path d="M6591 3694 c0 -11 3 -14 6 -6 3 7 2 16 -1 19 -3 4 -6 -2 -5 -13z"/>
<path d="M6601 3644 c0 -11 3 -14 6 -6 3 7 2 16 -1 19 -3 4 -6 -2 -5 -13z"/>
<path d="M10180 11206 c0 -17 14 -29 23 -20 8 8 -3 34 -14 34 -5 0 -9 -6 -9
-14z"/>
<path d="M11684 10698 c-181 -276 -342 -557 -484 -850 -176 -364 -288 -653
-520 -1343 -209 -624 -281 -808 -574 -1489 -145 -337 -192 -462 -81 -219 355
781 454 1031 695 1748 82 242 178 521 215 620 196 531 445 1027 793 1583 81
128 53 97 -44 -50z"/>
<path d="M8189 3812 c-80 -190 -218 -465 -316 -630 -110 -188 -191 -309 -372
-557 -254 -349 -337 -484 -410 -668 -42 -104 -39 -121 3 -24 76 174 178 335
424 669 82 112 173 239 202 283 97 144 250 407 320 550 65 132 214 494 207
502 -2 1 -28 -54 -58 -125z"/>
</g>
</svg>
