<?xml version="1.0" standalone="no"?>
<!DOCTYPE svg PUBLIC "-//W3C//DTD SVG 20010904//EN"
 "http://www.w3.org/TR/2001/REC-SVG-20010904/DTD/svg10.dtd">
<svg version="1.0" xmlns="http://www.w3.org/2000/svg"
 width="1331.000000pt" height="1858.000000pt" viewBox="0 0 1331.000000 1858.000000"
 preserveAspectRatio="xMidYMid meet">

<g transform="translate(0.000000,1858.000000) scale(0.100000,-0.100000)"
fill="#000000" stroke="none">
<path d="M6390 18285 c-928 -68 -1789 -387 -2505 -929 -44 -34 -82 -63 -85
-66 -3 -3 -40 -34 -83 -69 -90 -73 -249 -222 -365 -343 -266 -276 -503 -611
-675 -953 -206 -408 -354 -910 -408 -1385 -5 -52 -15 -131 -20 -175 -17 -135
-23 -761 -10 -955 22 -316 50 -555 107 -908 33 -199 87 -488 100 -529 7 -22
-1 -13 -77 90 -84 113 -189 211 -266 248 -132 64 -273 38 -375 -67 -110 -116
-156 -263 -178 -571 -22 -305 12 -607 126 -1133 83 -381 204 -730 337 -970 48
-87 135 -261 225 -450 157 -331 410 -478 636 -368 25 12 48 20 50 17 3 -2 23
-119 45 -259 22 -140 45 -277 50 -305 6 -27 24 -140 41 -250 68 -432 138 -692
237 -872 61 -113 77 -139 112 -193 34 -51 39 -66 45 -141 4 -46 13 -142 21
-214 59 -535 95 -1807 60 -2095 -66 -548 -289 -887 -840 -1276 -128 -91 -401
-272 -533 -355 -56 -35 -131 -81 -165 -103 -384 -240 -915 -535 -1343 -746
-194 -96 -239 -128 -171 -123 27 2 381 173 577 278 215 116 276 149 310 168
19 11 60 34 90 50 165 91 546 320 753 453 59 38 115 74 124 79 23 14 336 223
420 281 249 172 450 367 580 564 77 117 158 299 193 433 l18 72 1 -110 c3
-401 -49 -965 -120 -1307 -33 -154 -16 -136 21 23 116 501 145 879 144 1864
-1 873 -26 1474 -84 1974 -5 47 -8 86 -6 88 2 2 21 -20 42 -49 49 -67 198
-242 283 -333 158 -167 609 -610 851 -834 98 -91 219 -202 255 -232 22 -19 42
-37 45 -40 3 -3 69 -60 147 -126 373 -315 636 -428 1128 -485 149 -17 761 -17
920 0 303 33 507 88 711 192 131 67 194 109 340 226 275 220 560 483 1057 974
292 288 429 435 571 613 43 54 80 96 81 95 1 -2 -6 -73 -15 -158 -47 -413 -80
-1224 -80 -1940 0 -725 25 -1167 85 -1524 30 -176 104 -501 112 -493 2 3 -1
24 -6 48 -17 70 -59 304 -76 419 -36 250 -57 544 -68 965 -4 144 -3 155 8 110
70 -276 212 -520 428 -736 180 -181 1008 -778 1402 -1012 483 -287 1085 -607
1118 -594 10 4 16 11 12 17 -3 5 -95 55 -203 110 -161 81 -463 247 -654 358
-21 12 -53 30 -70 40 -192 109 -627 393 -813 532 -27 20 -158 115 -289 210
-300 218 -363 268 -482 388 -226 228 -349 462 -422 807 -24 113 -26 141 -30
477 -6 579 21 1240 73 1795 l26 263 56 92 c107 175 160 296 223 505 41 137 76
327 165 888 39 247 55 347 66 406 l11 56 47 -23 c143 -71 311 -37 451 92 70
66 131 155 192 284 94 196 170 349 238 480 80 154 119 245 166 380 168 490
283 1111 284 1521 0 233 -38 477 -92 599 -42 92 -115 170 -198 208 -83 39
-184 36 -267 -6 -67 -34 -96 -55 -157 -117 -42 -42 -148 -173 -165 -203 -19
-34 -18 -5 5 108 30 143 90 488 103 595 6 44 15 109 20 145 6 36 15 110 20
165 6 55 15 143 20 196 23 217 33 605 22 862 -21 485 -82 873 -196 1242 -45
145 -105 318 -129 370 -8 17 -22 50 -32 75 -50 125 -169 347 -276 515 -80 125
-217 318 -265 370 -10 12 -43 50 -73 85 -30 36 -82 94 -116 130 -35 36 -71 74
-81 86 -48 55 -253 239 -383 344 -170 135 -303 230 -449 318 -57 34 -109 66
-115 71 -15 13 -389 201 -456 230 -502 217 -1033 345 -1597 386 -246 17 -399
17 -643 0z m640 -46 c149 -10 361 -37 510 -65 47 -8 121 -22 165 -30 214 -40
647 -178 895 -285 264 -114 622 -320 847 -485 210 -156 458 -369 571 -493 19
-20 53 -56 76 -81 35 -38 120 -136 185 -215 232 -280 464 -690 597 -1051 69
-187 147 -456 175 -599 88 -457 122 -921 101 -1378 -7 -144 -17 -302 -22 -352
-5 -49 -14 -139 -20 -200 -6 -60 -15 -135 -20 -165 -5 -30 -17 -109 -25 -175
-9 -66 -20 -140 -25 -165 -5 -25 -21 -112 -36 -195 -14 -82 -48 -251 -76 -375
-54 -243 -98 -484 -98 -540 0 -19 -4 -41 -9 -49 -11 -17 -20 -2 -49 84 -51
152 -71 282 -92 600 -38 564 -83 798 -226 1165 -157 406 -164 444 -139 750 29
351 30 537 6 730 -33 256 -93 436 -230 685 -9 17 -19 32 -22 35 -3 3 -12 16
-19 30 -55 104 -232 299 -358 396 -369 280 -817 331 -1522 175 -52 -12 -138
-31 -190 -42 -52 -12 -133 -30 -180 -40 -637 -143 -1118 -168 -1690 -88 -207
29 -293 46 -685 134 -173 39 -287 63 -325 70 -19 3 -60 11 -90 16 -294 52
-598 50 -805 -6 -324 -87 -596 -283 -795 -576 -238 -348 -340 -754 -310 -1233
6 -94 15 -218 20 -276 27 -289 13 -366 -130 -735 -88 -227 -147 -433 -184
-640 -16 -89 -34 -291 -56 -615 -14 -193 -33 -335 -60 -442 -21 -81 -56 -177
-69 -191 -5 -5 -12 22 -15 60 -8 77 -41 277 -56 338 -88 364 -192 961 -229
1315 -33 310 -36 385 -36 780 0 454 10 593 65 925 111 662 355 1236 749 1760
41 55 77 102 80 105 3 3 31 34 61 70 237 282 512 527 875 782 190 133 584 342
825 439 479 191 1010 311 1515 342 125 8 443 6 575 -4z m-2115 -2213 c135 -21
291 -50 400 -75 481 -111 631 -140 875 -170 283 -35 510 -45 720 -31 352 22
630 66 1075 170 50 12 108 25 130 30 287 68 490 94 730 94 227 0 326 -14 486
-70 423 -148 760 -537 908 -1049 48 -166 64 -307 65 -550 0 -141 -5 -276 -14
-350 -8 -66 -15 -187 -14 -270 0 -184 9 -219 143 -558 133 -338 193 -620 221
-1037 34 -503 63 -669 147 -834 l34 -69 -6 -171 c-19 -535 -100 -860 -358
-1436 -46 -105 -102 -220 -202 -421 -59 -118 -103 -209 -97 -204 13 13 222
404 271 509 89 186 117 249 177 401 35 88 64 165 64 172 0 6 5 15 11 19 9 5
10 -1 5 -22 -4 -16 -17 -81 -27 -144 -60 -349 -80 -467 -99 -575 -12 -66 -25
-148 -30 -182 -16 -101 -59 -364 -69 -418 -6 -27 -15 -81 -20 -120 -18 -120
-100 -626 -115 -710 -8 -44 -18 -100 -21 -125 -37 -258 -115 -527 -204 -710
-85 -173 -232 -383 -413 -591 -127 -146 -679 -696 -963 -959 -165 -153 -196
-180 -305 -276 -265 -233 -419 -344 -584 -424 -286 -138 -590 -190 -1116 -190
-736 0 -1083 102 -1501 441 -53 43 -103 84 -111 91 -7 7 -47 42 -88 78 -344
298 -1021 957 -1260 1226 -302 340 -477 645 -564 984 -20 80 -61 299 -91 490
-15 91 -33 201 -41 245 -7 44 -25 150 -39 235 -13 85 -38 241 -55 345 -17 105
-40 246 -51 315 -11 69 -24 148 -29 175 -5 28 -25 142 -45 255 -19 113 -48
282 -65 375 -16 94 -30 175 -30 180 1 6 31 -66 69 -160 106 -263 193 -450 304
-653 35 -64 83 -153 107 -197 82 -154 61 -98 -38 100 -104 209 -212 433 -212
439 0 2 -17 42 -39 88 -89 192 -184 455 -231 638 -54 210 -90 513 -90 750 0
132 3 159 18 185 28 46 68 153 85 225 33 138 49 283 67 595 24 399 81 686 198
995 21 58 60 159 85 226 84 220 91 261 83 479 -3 105 -10 224 -16 265 -17 138
-12 471 10 611 26 169 63 309 111 418 113 255 263 468 437 617 108 93 178 137
332 207 101 47 253 84 410 101 72 8 379 -4 475 -18z m-2833 -3759 c87 -43 211
-173 330 -347 l66 -95 30 -150 c50 -246 52 -268 62 -565 6 -157 15 -325 21
-375 10 -88 41 -275 79 -475 5 -25 14 -74 20 -110 6 -36 15 -85 20 -110 5 -25
14 -74 20 -110 6 -36 15 -85 20 -110 32 -170 123 -708 154 -913 l12 -78 -44
-24 c-68 -38 -113 -48 -176 -41 -116 15 -251 108 -336 231 -18 26 -61 106 -95
179 -119 250 -144 302 -209 421 -58 107 -155 333 -201 470 -98 295 -187 699
-246 1125 -16 113 -16 523 0 625 42 266 131 419 276 473 49 18 135 9 197 -21z
m9482 12 c64 -23 141 -101 183 -182 102 -203 122 -649 48 -1106 -97 -595 -233
-1054 -411 -1385 -36 -67 -88 -168 -116 -226 -184 -384 -183 -383 -256 -461
-134 -143 -297 -194 -420 -130 -80 42 -76 28 -48 196 14 83 42 245 61 360 32
197 42 253 81 473 23 133 32 179 49 277 18 103 52 289 65 355 5 25 14 77 19
115 6 39 15 100 21 136 5 36 15 198 20 359 11 316 15 352 62 594 35 184 50
216 177 374 192 239 317 307 465 251z"/>
<path d="M4120 13131 c-226 -42 -467 -177 -661 -370 -101 -101 -180 -204 -228
-298 -12 -24 -19 -43 -17 -43 3 0 56 34 117 75 126 85 394 221 511 260 190 63
390 73 601 30 134 -27 430 -109 582 -160 122 -41 459 -140 590 -173 258 -66
360 -42 359 82 -1 58 -44 158 -90 211 l-26 30 20 -35 c76 -134 80 -157 13 -68
-27 36 -67 79 -89 96 -40 32 -152 94 -187 105 -11 3 -58 17 -105 31 -291 87
-536 141 -905 202 -161 26 -409 39 -485 25z m290 -31 c204 -21 526 -82 810
-151 428 -105 539 -153 645 -280 43 -52 84 -124 85 -150 0 -29 -39 -68 -75
-75 -56 -10 -246 31 -498 107 -56 17 -129 39 -162 49 -33 10 -121 37 -195 60
-378 116 -534 155 -719 181 -138 19 -305 -3 -485 -63 -104 -35 -336 -151 -446
-224 -41 -27 -81 -53 -89 -58 -17 -11 21 45 78 115 139 168 328 319 507 404
179 85 325 108 544 85z"/>
<path d="M9020 13134 c-300 -37 -699 -116 -965 -193 -16 -4 -50 -14 -75 -21
-257 -73 -366 -138 -456 -275 -20 -30 -39 -55 -41 -55 -6 0 27 73 54 120 15
26 20 39 11 32 -9 -7 -32 -46 -52 -86 -62 -125 -43 -215 49 -236 47 -11 162 2
280 32 71 18 327 94 755 225 332 101 492 133 673 133 232 0 396 -54 742 -245
28 -15 89 -54 138 -86 48 -32 87 -56 87 -53 0 10 -44 91 -73 134 -177 257
-460 468 -737 548 -67 19 -113 25 -220 27 -74 2 -151 1 -170 -1z m280 -34
c274 -44 552 -223 793 -512 83 -100 90 -118 25 -70 -64 48 -235 146 -338 195
-149 70 -275 108 -433 128 -98 13 -234 4 -352 -21 -160 -35 -301 -74 -582
-161 -582 -179 -792 -232 -857 -215 -37 9 -66 41 -66 73 0 79 125 223 249 287
129 67 638 195 1034 261 268 44 407 53 527 35z"/>
<path d="M4810 12224 c-465 -29 -809 -153 -1015 -365 l-60 -62 70 55 c287 227
646 331 1135 331 322 0 453 -45 665 -229 97 -84 97 -76 0 22 -110 112 -264
197 -412 228 -70 15 -287 26 -383 20z"/>
<path d="M8385 12224 c-176 -16 -311 -60 -424 -136 -51 -35 -211 -187 -211
-200 0 -5 23 12 50 38 105 99 238 184 340 217 105 34 176 42 365 41 488 -2
864 -115 1132 -341 29 -25 50 -38 47 -30 -3 8 -30 37 -61 63 -31 27 -62 54
-68 61 -26 25 -154 103 -220 133 -141 65 -290 104 -505 134 -107 15 -373 27
-445 20z"/>
<path d="M6129 12140 c74 -120 129 -254 162 -388 38 -158 42 -244 30 -592 -16
-466 -23 -835 -17 -829 4 3 13 154 21 335 8 181 19 406 25 499 20 334 7 472
-67 695 -27 82 -109 238 -149 285 l-26 30 21 -35z"/>
<path d="M7266 12095 c-148 -231 -207 -495 -186 -841 5 -82 14 -270 20 -419 7
-148 16 -322 20 -385 12 -164 3 495 -10 767 -16 309 4 489 76 679 26 71 98
219 116 242 6 6 8 12 5 12 -4 0 -22 -25 -41 -55z"/>
<path d="M4615 12054 c-221 -34 -480 -156 -643 -303 -18 -16 -56 -44 -84 -62
-61 -40 -48 -49 27 -19 l54 22 55 -59 c30 -32 92 -82 139 -111 284 -178 626
-215 1012 -110 60 16 151 40 200 54 97 26 171 30 255 14 42 -8 59 -7 86 6 30
14 34 21 34 55 0 34 -5 42 -42 69 -53 38 -104 79 -165 134 -175 157 -311 235
-499 287 -63 17 -112 22 -239 24 -88 2 -173 1 -190 -1z m357 -69 c158 -33 171
-48 172 -195 0 -74 -4 -93 -29 -145 -49 -102 -135 -169 -255 -200 -178 -46
-362 67 -420 258 -16 52 -8 173 14 218 17 35 21 37 109 57 116 25 304 29 409
7z m-559 -92 c-22 -71 -13 -184 20 -256 53 -116 165 -205 289 -227 266 -49
520 221 443 474 l-15 48 28 -7 c58 -14 256 -135 325 -199 27 -25 45 -114 32
-156 -5 -17 -4 -20 5 -15 9 5 11 27 7 71 -2 35 -2 64 1 64 3 0 13 -6 21 -14 9
-8 45 -34 80 -58 75 -50 91 -70 75 -95 -10 -16 -30 -18 -175 -18 -159 -1 -168
-2 -284 -37 -212 -63 -320 -81 -500 -81 -132 0 -176 4 -252 22 -115 28 -235
77 -336 138 -74 45 -177 133 -177 152 0 22 199 152 295 192 33 14 71 31 85 37
45 20 49 16 33 -35z"/>
<path d="M8480 12049 c-67 -12 -183 -45 -230 -66 -140 -62 -200 -102 -365
-243 -55 -48 -121 -100 -146 -118 -64 -43 -79 -91 -39 -127 22 -20 38 -21 166
-10 100 9 127 4 309 -50 137 -41 239 -61 380 -76 320 -33 657 72 841 263 36
37 69 68 73 68 5 0 21 -7 38 -15 16 -8 45 -18 64 -21 33 -6 32 -5 -21 31 -30
20 -84 61 -120 89 -166 134 -291 199 -490 252 -78 21 -123 27 -250 29 -85 2
-180 0 -210 -6z m355 -65 c44 -9 91 -19 103 -21 37 -9 64 -82 64 -173 1 -167
-109 -301 -281 -346 -54 -13 -74 -14 -125 -4 -129 24 -231 102 -283 217 -33
71 -37 174 -9 245 19 52 22 53 156 83 81 19 280 18 375 -1z m237 -65 c92 -36
188 -88 279 -150 l89 -61 -26 -34 c-53 -69 -219 -175 -349 -222 -138 -49 -231
-64 -400 -64 -178 -1 -286 16 -496 77 -63 19 -144 38 -180 42 -60 8 -65 10
-82 43 -13 26 -17 49 -13 85 4 34 2 44 -4 30 -15 -34 -11 -88 9 -121 l19 -31
-89 -6 c-48 -4 -95 -4 -103 -1 -16 6 -25 32 -18 52 4 12 174 132 187 132 2 0
17 13 32 28 45 46 193 146 265 180 72 34 93 39 85 20 -23 -60 -29 -131 -18
-185 58 -262 326 -401 556 -289 146 72 247 261 215 404 -7 31 -16 65 -21 75
-13 22 -2 22 63 -4z"/>
<path d="M9365 11494 c-113 -85 -271 -150 -439 -181 -170 -31 -497 -16 -681
33 -16 4 -17 3 -5 -5 14 -9 32 -13 205 -47 99 -20 391 -23 485 -5 181 34 365
119 470 218 47 44 37 40 -35 -13z"/>
<path d="M4047 11497 c105 -85 240 -153 368 -186 108 -29 288 -44 415 -36 101
6 337 48 349 61 3 4 -10 4 -29 0 -437 -88 -796 -38 -1069 148 -60 41 -76 47
-34 13z"/>
<path d="M7160 9902 c0 -6 5 -23 10 -37 13 -33 35 -146 50 -245 10 -70 7 -116
-15 -215 l-6 -30 15 26 c26 46 38 152 26 240 -12 89 -80 310 -80 261z"/>
<path d="M6223 9774 c-23 -76 -28 -106 -28 -204 0 -99 3 -121 23 -160 12 -25
20 -37 17 -26 -3 10 -10 49 -17 88 -12 74 0 218 29 327 22 87 7 70 -24 -25z"/>
<path d="M5852 9703 c-53 -83 -121 -237 -143 -324 -16 -63 -20 -107 -17 -180
3 -85 7 -102 37 -163 62 -122 174 -196 320 -212 l46 -5 -64 26 c-166 66 -253
150 -287 277 -17 67 -17 112 1 213 20 114 79 286 127 374 29 52 14 48 -20 -6z"/>
<path d="M7579 9670 c114 -245 150 -476 94 -601 -42 -94 -138 -174 -263 -220
-93 -34 -42 -38 62 -5 125 41 190 96 241 206 26 57 30 77 30 155 1 138 -31
254 -114 412 -66 128 -103 166 -50 53z"/>
<path d="M7007 9178 c-54 -33 -96 -62 -94 -64 7 -8 122 57 162 92 22 18 38 33
35 33 -3 0 -49 -28 -103 -61z"/>
<path d="M6340 9222 c0 -15 178 -118 187 -108 2 2 -15 15 -39 28 -24 14 -67
39 -95 56 -29 17 -53 28 -53 24z"/>
<path d="M6019 9099 c-14 -5 -32 -21 -39 -34 -26 -48 34 -98 132 -110 l43 -5
-47 17 c-83 31 -115 76 -63 89 71 18 199 -47 320 -161 161 -152 223 -180 379
-173 121 6 173 32 291 144 50 48 109 100 133 116 95 66 225 99 239 62 10 -27
-11 -48 -73 -71 -45 -16 -52 -22 -32 -22 45 -1 133 37 147 63 17 32 6 63 -29
81 -36 19 -72 19 -131 1 -99 -30 -146 -63 -293 -203 -112 -108 -158 -128 -286
-128 -121 1 -175 27 -296 147 -156 155 -299 222 -395 187z"/>
<path d="M6526 8478 c-19 -94 -46 -267 -46 -299 0 -82 57 -176 129 -213 16 -9
56 -18 88 -20 58 -5 58 -5 10 4 -60 11 -129 51 -160 93 -57 77 -60 145 -16
400 11 62 6 91 -5 35z"/>
<path d="M6934 8235 c1 -60 -2 -123 -6 -140 l-7 -30 14 30 c15 32 18 166 5
220 -4 17 -6 -16 -6 -80z"/>
<path d="M6209 7890 c-84 -21 -260 -99 -516 -227 -150 -76 -271 -139 -269
-141 4 -3 124 50 371 165 173 81 324 144 405 169 73 22 166 18 235 -12 153
-65 198 -77 285 -77 79 -1 94 3 216 51 106 42 141 52 191 52 101 0 256 -59
675 -258 263 -125 156 -57 -163 103 -224 113 -396 176 -494 182 -77 5 -84 4
-195 -41 -157 -63 -216 -73 -309 -53 -40 9 -109 33 -154 53 -68 31 -96 37
-162 40 -44 2 -96 -1 -116 -6z"/>
<path d="M7980 7536 c0 -2 7 -7 16 -10 8 -3 12 -2 9 4 -6 10 -25 14 -25 6z"/>
<path d="M6340 7525 c0 -2 15 -13 33 -25 l32 -21 -35 6 c-109 18 -254 17 -427
-4 -98 -12 -214 -26 -257 -31 -113 -14 -400 -13 -449 2 -37 11 -41 10 -58 -11
-18 -22 -26 -61 -12 -61 3 0 14 6 22 14 14 13 36 13 149 4 140 -12 317 -3 547
27 270 36 406 31 610 -23 126 -33 313 -37 410 -8 201 60 322 67 590 36 320
-38 445 -45 593 -32 117 10 138 10 152 -3 23 -21 30 -19 30 9 0 34 -47 71 -68
54 -10 -9 -68 -14 -186 -16 -139 -3 -213 2 -396 24 -259 31 -447 41 -516 26
-27 -6 -51 -8 -54 -5 -3 3 0 8 6 10 6 2 20 10 30 19 10 8 -8 2 -41 -14 -111
-54 -185 -74 -286 -80 -129 -6 -214 10 -326 63 -51 24 -93 42 -93 40z"/>
<path d="M5577 7129 c7 -8 38 -33 70 -54 32 -22 60 -42 63 -45 30 -33 259
-150 362 -184 143 -48 230 -58 568 -63 486 -8 650 15 865 122 113 56 310 179
335 211 8 9 -17 -3 -55 -28 -162 -103 -313 -173 -453 -209 -156 -40 -262 -49
-609 -49 -396 0 -520 13 -713 77 -96 32 -268 119 -370 188 -70 48 -77 52 -63
34z"/>
<path d="M6485 6456 c-121 -20 -342 -83 -331 -93 2 -2 48 7 102 21 109 27 264
51 394 61 141 10 424 -27 604 -80 87 -26 60 -8 -36 24 -171 57 -266 72 -468
76 -125 3 -211 0 -265 -9z"/>
<path d="M1841 11993 c-74 -37 -108 -133 -115 -333 l-5 -125 15 120 c18 145
44 229 84 272 57 61 103 52 183 -37 90 -100 245 -397 348 -666 22 -60 45 -119
49 -131 8 -18 1 -26 -45 -57 -71 -47 -129 -121 -180 -231 -53 -114 -68 -183
-68 -316 1 -226 75 -377 220 -453 26 -14 56 -32 65 -39 18 -15 68 -107 68
-127 0 -7 14 -41 31 -77 24 -51 38 -68 65 -79 27 -11 39 -12 57 -3 38 21 46
41 47 114 0 110 -27 185 -112 311 -102 151 -109 235 -39 441 38 113 56 195 29
133 -6 -14 -28 -62 -49 -108 -48 -104 -61 -152 -62 -227 0 -84 26 -164 78
-237 130 -182 174 -398 80 -398 -33 0 -52 27 -96 136 -48 116 -66 137 -155
184 -107 56 -159 138 -190 298 -42 219 22 456 166 614 21 23 91 78 100 78 4 0
17 -34 30 -76 17 -60 21 -92 18 -157 -3 -45 -8 -91 -12 -102 -4 -11 3 -2 15
20 33 59 37 159 10 261 -72 279 -263 715 -383 871 -54 71 -86 102 -130 124
-45 23 -73 24 -117 2z"/>
<path d="M1966 11773 c-21 -66 -49 -187 -92 -393 -72 -352 -83 -435 -84 -598
0 -259 40 -451 134 -647 58 -119 115 -201 214 -309 35 -39 91 -116 124 -173
34 -56 63 -101 65 -99 10 9 -106 210 -155 269 -159 189 -215 282 -272 452 -57
169 -74 280 -73 490 0 178 2 201 36 365 20 96 50 258 67 360 17 102 37 216 45
254 17 83 13 96 -9 29z"/>
<path d="M2115 11480 c-4 -12 -5 -24 -2 -27 3 -2 8 5 12 17 4 12 5 24 2 27 -3
2 -8 -5 -12 -17z"/>
<path d="M2095 11414 c-4 -16 -11 -45 -16 -64 -20 -80 -3 -169 36 -184 51 -19
102 2 163 68 57 62 53 71 -5 14 -56 -54 -81 -68 -121 -68 -47 0 -67 32 -66
104 1 33 7 81 14 105 6 23 9 45 6 48 -3 3 -8 -8 -11 -23z"/>
<path d="M11475 11993 c-135 -70 -311 -389 -475 -858 -33 -93 -60 -215 -60
-268 0 -53 31 -153 55 -177 12 -12 12 -7 -2 20 -25 49 -24 193 2 278 11 34 25
62 32 62 23 0 148 -133 180 -190 89 -158 117 -368 73 -541 -38 -152 -82 -214
-192 -269 -35 -17 -71 -41 -81 -53 -21 -26 -61 -110 -71 -150 -4 -16 -18 -47
-32 -68 -22 -35 -29 -40 -57 -37 -28 3 -33 8 -41 41 -22 86 20 212 113 342 28
39 58 93 68 120 24 68 23 184 -1 255 -21 59 -94 220 -100 220 -7 0 11 -63 48
-171 61 -177 49 -272 -53 -422 -86 -127 -111 -195 -111 -304 0 -50 4 -67 23
-87 33 -36 58 -40 97 -14 22 15 41 41 55 78 13 30 33 82 47 115 21 54 30 64
88 101 150 97 181 136 222 283 28 98 30 284 4 381 -39 148 -145 311 -242 370
-19 12 -34 27 -34 34 0 26 131 342 200 481 116 235 215 372 286 395 93 31 161
-92 183 -325 l8 -90 2 77 c5 278 -99 443 -234 371z"/>
<path d="M11440 11816 c0 -8 4 -26 9 -39 5 -14 24 -109 41 -213 17 -104 50
-281 73 -394 41 -203 41 -207 41 -420 0 -188 -3 -227 -22 -310 -35 -146 -98
-310 -151 -395 -28 -44 -108 -152 -128 -173 -7 -7 -29 -34 -50 -60 -21 -26
-41 -49 -44 -52 -10 -8 -126 -239 -118 -234 4 2 31 46 60 97 29 50 59 98 66
105 7 7 13 16 13 20 0 4 30 39 66 77 124 133 231 313 281 475 50 159 65 266
64 469 -1 192 -10 260 -90 646 -45 214 -64 292 -88 368 -16 48 -23 58 -23 33z"/>
<path d="M11300 11495 c0 -5 5 -17 10 -25 5 -8 10 -10 10 -5 0 6 -5 17 -10 25
-5 8 -10 11 -10 5z"/>
<path d="M11324 11425 c41 -167 26 -245 -46 -245 -33 0 -97 38 -126 74 -26 34
-37 34 -16 0 30 -45 103 -94 141 -94 54 0 83 39 83 111 0 55 -22 165 -36 178
-4 3 -4 -7 0 -24z"/>
<path d="M8701 4574 c0 -11 3 -14 6 -6 3 7 2 16 -1 19 -3 4 -6 -2 -5 -13z"/>
<path d="M8681 4504 c0 -11 3 -14 6 -6 3 7 2 16 -1 19 -3 4 -6 -2 -5 -13z"/>
<path d="M4751 4496 c-1 -5 8 -44 19 -85 109 -418 136 -522 167 -626 20 -66
39 -133 43 -150 59 -237 251 -808 405 -1205 20 -52 59 -153 87 -225 28 -71 56
-143 64 -160 28 -63 114 -275 114 -280 0 -3 10 -27 21 -53 39 -87 56 -127 74
-175 10 -26 20 -45 23 -43 2 3 -14 51 -36 108 -22 57 -91 236 -152 398 -61
162 -124 331 -141 375 -199 520 -406 1153 -604 1848 -76 267 -83 288 -84 273z"/>
<path d="M8606 4238 c-38 -134 -74 -261 -81 -283 -7 -22 -27 -87 -45 -145
-147 -489 -287 -913 -398 -1205 -17 -44 -56 -150 -87 -235 -32 -85 -73 -195
-91 -245 -70 -184 -104 -273 -144 -380 -23 -60 -45 -119 -50 -130 -4 -11 -13
-33 -19 -49 -7 -16 -10 -30 -8 -33 3 -2 19 31 37 74 17 43 49 119 70 168 338
803 603 1579 801 2345 16 63 43 166 60 228 17 62 29 118 27 123 -2 5 -34 -100
-72 -233z"/>
<path d="M3401 2654 c0 -11 3 -14 6 -6 3 7 2 16 -1 19 -3 4 -6 -2 -5 -13z"/>
<path d="M4610 2471 c0 -6 4 -13 10 -16 6 -3 7 1 4 9 -7 18 -14 21 -14 7z"/>
<path d="M4630 2437 c0 -4 42 -91 94 -194 161 -321 295 -632 341 -788 28 -98
33 -112 34 -92 2 45 -66 264 -137 437 -81 201 -332 682 -332 637z"/>
<path d="M8759 2373 c-54 -95 -58 -102 -134 -253 -120 -238 -160 -328 -216
-486 -35 -98 -82 -281 -76 -297 2 -7 7 4 11 23 34 160 167 480 370 890 86 175
107 230 45 123z"/>
<path d="M7666 1505 c-9 -26 -7 -32 5 -12 6 10 9 21 6 23 -2 3 -7 -2 -11 -11z"/>
<path d="M5770 1471 c0 -6 4 -13 10 -16 6 -3 7 1 4 9 -7 18 -14 21 -14 7z"/>
<path d="M7345 1469 c-4 -6 -5 -12 -2 -15 2 -3 7 2 10 11 7 17 1 20 -8 4z"/>
<path d="M7310 1382 c-13 -31 -55 -122 -94 -202 -144 -298 -254 -421 -408
-460 -75 -19 -197 21 -270 88 -16 14 -28 23 -28 20 0 -16 80 -80 130 -105 73
-37 181 -39 251 -6 150 72 314 322 431 656 26 76 18 83 -12 9z"/>
<path d="M5102 1320 c0 -14 2 -19 5 -12 2 6 2 18 0 25 -3 6 -5 1 -5 -13z"/>
</g>
</svg>
