<?xml version="1.0" standalone="no"?>
<!DOCTYPE svg PUBLIC "-//W3C//DTD SVG 20010904//EN"
 "http://www.w3.org/TR/2001/REC-SVG-20010904/DTD/svg10.dtd">
<svg version="1.0" xmlns="http://www.w3.org/2000/svg"
 width="1792.000000pt" height="2400.000000pt" viewBox="0 0 1792.000000 2400.000000"
 preserveAspectRatio="xMidYMid meet">

<g transform="translate(0.000000,2400.000000) scale(0.100000,-0.100000)"
fill="#000000" stroke="none">
<path d="M2681 23288 c-32 -317 -79 -557 -212 -1068 -126 -489 -159 -700 -159
-1029 0 -246 -17 -611 -36 -771 -15 -133 -36 -224 -228 -970 -120 -468 -170
-719 -251 -1250 -82 -547 -96 -632 -146 -900 -46 -247 -87 -438 -189 -885
-171 -752 -271 -1629 -310 -2715 -14 -379 -14 -1982 0 -2295 31 -728 88 -1429
175 -2180 279 -2385 550 -3805 1004 -5245 75 -238 222 -676 375 -1113 109
-312 172 -536 220 -782 43 -223 86 -598 106 -920 18 -299 19 -305 40 -305 10
0 21 4 24 8 7 12 -11 349 -29 557 -56 618 -133 971 -344 1562 -109 307 -284
833 -385 1158 -348 1121 -607 2387 -825 4035 -186 1400 -273 2332 -312 3361
-14 361 -7 2022 10 2334 62 1175 150 1853 352 2730 109 472 186 883 259 1390
90 619 151 932 286 1465 53 206 116 454 140 550 85 335 100 471 114 1056 13
538 23 605 200 1289 85 327 127 602 137 883 3 94 4 172 1 172 -2 0 -10 -55
-17 -122z"/>
<path d="M15245 23354 c2 -27 7 -103 10 -169 11 -267 54 -512 175 -990 140
-553 155 -666 170 -1275 13 -557 15 -574 180 -1205 180 -686 243 -994 341
-1654 86 -583 156 -963 273 -1471 274 -1195 367 -2240 367 -4125 0 -1091 -33
-1726 -146 -2830 -143 -1382 -348 -2794 -541 -3715 -215 -1025 -413 -1714
-883 -3067 -93 -270 -170 -542 -206 -733 -52 -281 -103 -748 -121 -1117 l-7
-143 26 0 c25 0 25 0 32 118 47 836 127 1290 327 1857 602 1705 856 2703 1122
4400 157 1000 330 2490 396 3410 76 1062 78 2692 4 3775 -55 821 -143 1429
-314 2175 -116 505 -194 929 -285 1543 -75 511 -151 889 -266 1337 -153 591
-199 779 -213 876 -23 157 -36 370 -36 604 0 501 -31 730 -166 1245 -119 458
-187 795 -215 1065 -6 66 -16 124 -20 129 -5 5 -6 -13 -4 -40z"/>
<path d="M4420 21900 c-287 -26 -719 -186 -995 -367 -294 -194 -613 -546 -776
-858 -167 -319 -181 -564 -73 -1235 74 -462 169 -636 449 -822 194 -129 285
-223 438 -451 82 -122 160 -279 181 -363 10 -38 16 -106 16 -177 0 -184 40
-334 115 -433 14 -18 29 -52 35 -77 8 -40 6 -54 -17 -114 -61 -158 -18 -286
126 -372 31 -18 33 -21 15 -27 -120 -40 -239 -120 -338 -224 -137 -145 -167
-212 -176 -385 -5 -95 -12 -139 -25 -165 -99 -195 -387 -369 -611 -370 l-51 0
-5 88 c-9 152 -68 244 -179 276 -61 19 -100 20 -189 6 -163 -26 -312 -94 -411
-187 -164 -155 -315 -463 -422 -863 l-42 -155 3 -240 c1 -132 7 -264 12 -294
16 -86 50 -146 174 -306 158 -203 233 -353 334 -665 125 -387 211 -775 418
-1890 172 -932 275 -1442 419 -2090 138 -622 160 -735 245 -1310 89 -598 130
-816 276 -1455 107 -470 336 -1372 480 -1894 173 -623 227 -904 289 -1491 38
-364 48 -564 42 -847 -5 -274 -19 -391 -73 -613 -31 -126 -112 -378 -154 -480
-17 -40 -29 -75 -27 -77 6 -5 101 221 151 359 53 147 110 372 131 520 45 312
22 874 -61 1488 -52 388 -92 581 -226 1070 -163 601 -386 1472 -482 1890 -141
615 -216 1006 -291 1525 -69 476 -124 772 -240 1290 -135 603 -243 1140 -385
1905 -56 300 -126 676 -156 835 -177 932 -354 1535 -526 1798 l-60 90 53 -44
c147 -123 281 -353 410 -704 55 -148 64 -152 18 -9 -71 222 -172 436 -274 579
-42 59 -113 131 -188 190 l-38 30 68 1 c47 0 83 7 117 22 60 27 57 37 -4 15
-57 -20 -145 -20 -191 -1 -78 34 -175 167 -197 273 -6 28 -13 141 -17 252 -5
179 -3 213 15 302 41 200 140 489 225 655 154 299 290 411 569 467 95 19 115
20 163 9 106 -23 157 -98 170 -248 l6 -72 -34 6 c-19 3 -59 18 -89 32 -79 37
-79 37 -32 -7 63 -58 124 -76 257 -76 86 0 126 5 185 23 142 44 326 161 405
257 68 84 88 144 95 290 8 151 20 183 118 306 90 114 225 215 358 270 l56 22
71 -25 72 -25 17 -174 c40 -412 87 -933 84 -936 -2 -2 -16 15 -31 37 -53 77
-187 192 -289 250 -170 96 -203 136 -236 291 -20 91 -39 131 -72 153 -23 14
-72 -4 -77 -29 -3 -17 -1 -17 17 5 17 21 23 23 45 13 35 -16 52 -52 71 -152
29 -157 69 -206 255 -311 122 -69 236 -170 296 -261 29 -43 32 -58 48 -220 18
-172 62 -524 72 -565 4 -18 -5 -28 -45 -54 -141 -90 -310 -354 -403 -630 -44
-128 -54 -221 -36 -321 12 -70 13 -72 19 -35 l5 40 26 -35 c74 -99 106 -196
95 -289 -18 -154 -79 -291 -198 -448 -45 -59 -95 -127 -111 -152 l-29 -45 6
170 c3 94 13 217 21 275 16 119 17 125 10 118 -8 -8 -44 -234 -55 -345 -22
-245 -31 -515 -20 -662 29 -387 143 -1348 216 -1806 95 -603 164 -958 338
-1745 36 -162 101 -482 146 -710 352 -1802 436 -2199 906 -4322 63 -285 127
-580 143 -655 95 -443 218 -915 286 -1099 99 -263 265 -564 385 -694 l42 -45
-45 60 c-140 191 -263 438 -362 726 -50 147 -119 414 -204 789 -58 256 -60
272 -70 480 -36 717 16 1438 189 2645 155 1076 204 1643 204 2320 0 388 -10
592 -45 979 -11 120 -18 220 -16 222 2 2 29 -64 60 -145 141 -369 388 -955
586 -1393 67 -148 121 -275 121 -283 0 -8 4 -15 9 -15 5 0 18 -23 30 -50 12
-28 87 -191 168 -363 365 -783 484 -1063 628 -1487 170 -501 355 -1346 434
-1980 53 -427 54 -452 42 -835 -21 -661 -79 -1347 -151 -1793 -25 -153 -25
-162 -1 -162 11 0 22 4 25 8 16 27 79 490 110 817 65 669 70 803 72 1940 2
1060 8 1258 50 1705 34 361 107 900 214 1565 101 632 171 1149 249 1860 111
995 151 1538 171 2285 28 1049 34 1134 96 1379 41 165 87 264 154 335 62 66
102 86 169 86 187 0 322 -255 376 -708 10 -84 19 -300 25 -632 10 -544 13
-642 36 -1055 53 -971 209 -2363 389 -3475 170 -1045 234 -1567 265 -2160 5
-107 10 -591 9 -1075 0 -1029 13 -1382 77 -2055 36 -386 90 -779 110 -812 9
-14 44 -8 44 7 0 9 -9 71 -20 139 -99 618 -183 1895 -151 2286 49 582 196
1377 372 2002 134 476 298 890 664 1678 80 173 169 365 197 427 28 62 55 110
59 107 5 -3 9 5 9 17 0 12 50 132 111 268 165 364 390 894 535 1258 70 177
129 321 130 320 0 -1 -5 -65 -12 -142 -34 -348 -46 -578 -51 -942 -10 -722 30
-1216 197 -2398 158 -1123 198 -1539 207 -2165 8 -569 0 -664 -81 -1015 -100
-432 -144 -606 -191 -749 -89 -274 -227 -555 -363 -744 -48 -66 -53 -76 -22
-42 99 108 255 371 344 580 115 271 181 531 495 1940 393 1768 553 2527 837
3975 80 407 181 904 225 1105 137 626 175 817 254 1288 110 659 219 1522 266
2112 21 256 -12 790 -63 1018 -18 83 -19 54 -2 -59 13 -84 35 -455 28 -467 -1
-2 -12 14 -25 35 -13 21 -61 88 -107 148 -137 181 -202 341 -202 496 1 91 23
160 76 229 l39 51 3 -35 c5 -58 20 -41 28 31 17 160 -16 302 -122 522 -96 200
-231 379 -331 438 -35 20 -43 30 -39 47 7 30 74 564 82 661 8 90 23 118 115
219 60 66 140 124 253 186 144 78 190 140 222 295 27 130 60 173 110 140 27
-18 31 -14 8 9 -23 24 -52 19 -83 -12 -22 -21 -33 -50 -50 -123 -12 -52 -35
-117 -52 -147 -33 -58 -68 -86 -193 -157 -112 -62 -202 -138 -262 -219 -27
-36 -49 -64 -50 -63 -2 1 20 245 47 542 27 297 49 547 49 556 0 11 24 23 75
39 l75 24 113 -57 c179 -90 301 -205 383 -363 32 -62 34 -71 34 -168 0 -190
54 -293 218 -415 160 -118 341 -179 499 -168 98 7 139 19 199 60 57 38 76 72
23 40 -27 -17 -128 -53 -147 -53 -8 0 6 143 18 184 7 21 28 56 49 78 71 77
190 82 391 15 173 -57 283 -152 395 -341 98 -166 200 -428 260 -670 l38 -149
-10 -251 c-10 -285 -15 -304 -106 -417 -80 -99 -186 -127 -304 -80 -71 28 -67
17 5 -17 43 -20 73 -27 122 -27 l65 0 -72 -58 c-80 -64 -131 -121 -191 -215
-91 -141 -197 -377 -251 -558 -34 -115 -24 -98 33 51 83 223 166 392 256 525
36 54 187 210 202 210 4 0 -8 -20 -27 -45 -79 -104 -156 -269 -228 -490 -130
-398 -211 -748 -372 -1610 -233 -1250 -360 -1893 -481 -2435 -144 -643 -170
-782 -245 -1300 -105 -729 -208 -1225 -474 -2290 -130 -519 -200 -788 -309
-1182 -123 -447 -161 -623 -216 -1008 -59 -411 -90 -795 -90 -1125 0 -326 38
-570 131 -850 36 -107 170 -447 175 -442 2 2 -19 64 -46 138 -222 611 -256
984 -169 1864 56 569 116 869 328 1639 96 347 342 1326 430 1706 143 622 210
973 286 1500 85 581 95 635 240 1290 101 452 251 1192 355 1751 254 1363 308
1629 400 1974 118 443 237 732 365 890 131 160 195 257 214 323 19 66 37 351
32 505 -5 140 -119 512 -225 732 -82 171 -144 264 -236 355 -112 112 -261 178
-454 202 -78 9 -99 9 -146 -5 -119 -35 -179 -124 -188 -281 l-5 -89 -81 6
c-45 3 -116 16 -161 31 -161 51 -350 197 -410 316 -25 48 -29 70 -35 185 -6
115 -10 136 -35 185 -64 126 -174 251 -288 329 -42 29 -134 74 -191 95 -18 6
-16 9 15 27 144 87 189 219 125 369 -26 59 -27 69 -18 111 6 26 29 75 52 110
68 106 100 245 100 443 0 110 19 186 75 301 55 113 182 306 267 405 68 80 189
181 323 270 101 68 156 119 211 196 102 143 161 318 208 625 105 673 94 873
-66 1194 -100 200 -237 382 -447 594 -240 242 -433 366 -794 510 -145 58 -261
93 -407 122 -87 18 -140 22 -305 21 -223 0 -332 -10 -580 -52 -361 -62 -589
-125 -770 -215 -140 -70 -188 -106 -376 -289 -160 -155 -170 -174 -34 -62 306
252 349 281 525 351 178 71 606 164 920 200 109 13 198 16 360 12 200 -4 224
-7 339 -36 228 -58 540 -188 721 -300 131 -82 234 -167 375 -312 291 -298 445
-538 522 -814 37 -134 42 -344 14 -565 -60 -468 -103 -672 -169 -813 -76 -162
-123 -215 -307 -342 -240 -166 -416 -366 -560 -638 -79 -148 -96 -217 -105
-417 -10 -241 -35 -311 -173 -491 -93 -121 -97 -130 -28 -64 53 51 61 56 56
34 -4 -17 3 -54 20 -104 60 -172 21 -244 -188 -351 l-110 -56 8 78 c24 276 83
644 139 884 46 193 86 312 151 445 46 93 63 117 112 159 124 104 533 468 533
473 0 3 -8 -1 -17 -9 -10 -8 -110 -88 -223 -178 -113 -90 -246 -198 -296 -239
-50 -42 -138 -114 -195 -161 -195 -159 -787 -663 -1284 -1091 -101 -86 -329
-281 -1060 -904 -514 -438 -623 -534 -831 -726 -164 -151 -496 -491 -634 -647
-36 -41 -82 -83 -103 -93 -53 -28 -154 -38 -266 -27 -114 11 -266 4 -336 -15
-48 -14 -46 -14 72 -9 86 3 159 0 250 -13 70 -10 129 -18 130 -20 2 -1 -18
-17 -45 -35 -66 -48 -159 -137 -193 -187 -22 -31 -8 -21 54 41 107 107 214
176 323 210 64 20 112 45 192 99 179 121 462 287 489 287 14 0 -140 -150 -310
-302 -263 -236 -312 -307 -312 -458 0 -103 12 -128 102 -221 61 -64 66 -72
137 -255 77 -198 190 -459 275 -634 28 -57 49 -105 47 -107 -10 -10 -259 77
-364 127 -268 129 -383 218 -610 478 -82 93 -172 157 -280 197 -48 18 -106 42
-128 53 -51 26 -108 88 -125 138 -22 61 -16 273 12 434 32 188 31 299 -6 413
-49 154 -24 237 88 292 56 27 85 31 372 55 382 31 667 158 1126 501 450 337
743 636 924 943 330 561 420 1129 247 1554 -44 106 -110 217 -146 243 l-31 23
33 -38 c42 -48 105 -175 142 -284 42 -128 60 -247 59 -397 l-1 -130 -15 100
c-35 247 -126 414 -258 477 -76 36 -134 36 -246 2 -113 -34 -174 -29 -265 21
-42 24 -69 34 -76 27 -14 -14 59 -68 131 -98 76 -30 116 -30 222 1 108 32 152
32 217 -1 91 -45 155 -146 199 -313 34 -126 39 -367 10 -471 -51 -187 -148
-330 -393 -581 -109 -110 -201 -214 -214 -238 -32 -65 -42 -147 -30 -249 l11
-87 -48 -43 c-496 -444 -918 -734 -1213 -832 -111 -37 -288 -69 -445 -80 -268
-19 -341 -37 -404 -101 -26 -25 -32 -27 -62 -19 -44 13 -304 13 -348 0 -31 -8
-37 -6 -74 25 -65 56 -129 74 -300 85 -446 29 -676 106 -1036 346 -241 160
-503 366 -688 541 l-83 78 11 80 c26 199 0 253 -256 515 -232 237 -299 333
-359 512 -86 254 -31 614 117 775 80 87 148 100 294 57 115 -34 168 -29 265
23 68 36 99 65 86 78 -3 3 -35 -10 -72 -30 -92 -51 -154 -56 -264 -21 -89 28
-174 33 -229 13 -98 -37 -178 -133 -231 -280 -27 -75 -38 -124 -61 -277 -7
-46 -9 -32 -10 81 -1 161 16 272 64 416 40 120 84 209 125 256 35 40 40 59 8
31 -66 -58 -155 -252 -199 -434 -20 -82 -23 -120 -23 -280 0 -165 3 -199 28
-315 143 -664 493 -1157 1194 -1684 508 -381 797 -502 1272 -531 189 -12 252
-28 311 -78 75 -64 85 -123 43 -249 -37 -114 -41 -210 -14 -383 26 -176 37
-398 21 -456 -26 -95 -90 -149 -238 -203 -146 -52 -226 -111 -358 -266 -149
-174 -293 -284 -514 -395 -112 -56 -305 -128 -388 -145 l-31 -6 78 168 c92
200 201 453 270 629 47 118 54 131 124 204 88 93 111 147 103 245 -10 130 -69
212 -302 419 -154 139 -336 316 -322 316 4 0 63 -30 130 -66 114 -62 204 -119
387 -244 51 -34 103 -59 160 -77 47 -14 108 -40 135 -58 86 -55 203 -155 237
-201 37 -52 47 -57 21 -12 -25 44 -129 148 -203 203 -34 25 -57 45 -50 45 7 0
60 7 119 16 72 11 148 15 236 12 127 -4 129 -4 85 11 -35 12 -100 15 -300 15
-228 1 -259 3 -289 19 -18 10 -185 171 -370 356 -185 186 -410 405 -501 486
-164 147 -748 650 -1390 1195 -184 157 -526 449 -760 650 -540 464 -948 812
-1021 870 -31 25 -172 142 -313 260 -142 118 -265 219 -274 224 -28 15 201
-196 484 -446 118 -105 122 -110 167 -205 106 -226 181 -537 246 -1023 42
-309 45 -340 32 -340 -6 0 -51 20 -99 44 -207 105 -247 179 -186 354 16 48 23
84 19 101 -5 23 1 19 51 -29 67 -65 65 -60 -26 62 -82 109 -134 203 -154 281
-8 31 -18 125 -21 209 -3 84 -13 180 -21 213 -22 89 -102 247 -205 402 -114
171 -256 317 -405 415 -199 131 -261 197 -335 353 -55 118 -84 227 -123 476
-57 366 -69 485 -63 664 5 194 31 303 106 461 112 235 338 525 566 726 239
211 606 395 978 490 111 28 141 31 324 35 229 6 357 -4 612 -48 373 -63 597
-123 769 -204 113 -54 183 -102 344 -237 68 -57 139 -114 158 -126 50 -34
-243 249 -318 307 -75 57 -213 127 -336 170 -237 84 -708 172 -1017 191 -180
11 -204 11 -329 0z m9647 -3946 c-110 -219 -199 -561 -261 -999 -44 -311 -63
-491 -116 -1095 -109 -1245 -279 -2234 -611 -3560 -425 -1701 -967 -3188
-1854 -5090 -555 -1190 -712 -1614 -889 -2391 -56 -248 -151 -750 -181 -959
-10 -63 -19 -117 -22 -120 -15 -15 12 386 38 565 71 482 226 1184 395 1793 25
90 44 166 41 168 -9 9 -138 -461 -238 -866 -78 -316 -130 -554 -168 -760 -17
-91 -32 -176 -35 -190 -3 -14 -3 13 0 60 20 354 246 1535 430 2250 53 204 210
752 234 814 6 16 9 31 6 33 -9 9 -171 -518 -255 -827 -125 -462 -331 -1432
-400 -1885 -15 -100 -12 -8 4 153 38 362 131 986 216 1437 286 1527 792 3346
1476 5305 348 995 556 1651 824 2590 49 173 92 317 95 320 3 3 3 -6 0 -20 -2
-14 -7 -97 -11 -185 -23 -651 -103 -1186 -271 -1819 -25 -92 -43 -170 -41
-172 12 -13 159 577 216 866 71 364 96 600 115 1095 l14 340 85 310 c168 609
294 1137 481 2011 41 192 78 356 81 364 6 13 215 196 215 188 0 -2 -14 -44
-31 -93 -37 -109 -119 -403 -119 -424 1 -9 25 65 55 164 29 99 70 225 89 280
37 102 39 105 139 186 l37 31 -40 -112 c-75 -210 -178 -632 -195 -800 -3 -30
12 28 34 130 63 301 127 530 198 717 l36 95 111 98 c61 53 112 96 114 95 2 -2
-17 -43 -41 -91z m-10093 -49 c67 -60 95 -93 112 -132 69 -156 159 -472 213
-753 37 -192 42 -209 35 -140 -16 175 -132 651 -202 830 -17 41 -28 77 -26 79
1 2 34 -24 72 -58 69 -61 70 -63 111 -179 41 -119 120 -391 122 -421 0 -9 3
-11 5 -4 6 14 -61 275 -105 413 -17 52 -29 95 -28 96 1 1 49 -40 107 -91 l106
-92 38 -184 c143 -696 342 -1533 512 -2154 84 -306 88 -325 91 -440 7 -264 24
-626 34 -720 15 -156 57 -435 90 -605 48 -244 195 -837 206 -827 1 2 -22 102
-52 223 -144 566 -220 1059 -244 1569 -6 121 -13 258 -15 305 -3 53 -1 77 4
65 5 -11 48 -159 95 -330 226 -809 461 -1551 780 -2460 540 -1542 906 -2755
1230 -4082 241 -982 406 -1882 494 -2688 36 -321 32 -338 -13 -75 -105 602
-283 1407 -406 1835 -88 309 -213 704 -196 620 2 -11 41 -146 86 -300 45 -154
108 -383 140 -510 189 -744 400 -1846 424 -2215 6 -77 3 -69 -23 76 -74 412
-217 1007 -365 1520 -52 181 -74 247 -75 232 -1 -4 22 -87 50 -185 61 -212
190 -729 253 -1008 63 -280 100 -479 146 -784 34 -224 40 -286 39 -410 l-1
-146 -14 85 c-55 334 -179 952 -239 1190 -168 666 -297 999 -813 2111 -737
1587 -1200 2769 -1580 4034 -330 1098 -602 2290 -756 3310 -72 479 -104 766
-181 1610 -41 448 -56 584 -91 820 -66 443 -147 759 -254 992 -45 96 -47 96
84 -22z m9421 -625 c-24 -102 -78 -324 -120 -495 -41 -170 -83 -341 -91 -378
-16 -67 -17 -69 -133 -185 -159 -158 -270 -330 -345 -529 -43 -117 -74 -170
-136 -232 -156 -157 -331 -216 -685 -232 -407 -19 -744 -96 -1060 -244 -121
-56 -368 -194 -480 -268 l-90 -59 275 274 c350 349 500 484 1158 1046 295 251
808 690 1141 975 332 284 606 516 607 514 2 -1 -17 -86 -41 -187z m-8378 -275
c231 -198 554 -475 719 -615 1104 -940 1452 -1249 1764 -1565 l135 -137 -75
50 c-111 73 -338 198 -459 252 -345 154 -631 220 -1047 240 -297 14 -460 57
-592 155 -117 86 -171 162 -225 312 -67 185 -195 382 -348 534 l-106 107 -96
388 c-111 450 -167 682 -167 696 0 5 17 -5 39 -24 21 -18 227 -195 458 -393z
m1188 -195 c48 -52 142 -149 209 -216 155 -153 169 -179 174 -328 3 -67 1
-107 -5 -105 -37 14 -283 329 -355 454 -81 142 -208 412 -208 443 0 4 22 -30
49 -73 27 -44 88 -123 136 -175z m5675 139 c-37 -89 -152 -311 -205 -394 -74
-116 -299 -395 -319 -395 -5 0 -7 48 -4 108 4 86 9 116 28 152 13 26 107 130
229 255 134 137 222 235 251 282 25 39 46 70 48 69 1 -2 -12 -36 -28 -77z
m-6891 -914 c86 -119 149 -232 202 -365 26 -65 64 -144 84 -175 42 -63 129
-144 195 -183 25 -14 47 -27 49 -28 2 -2 -13 -49 -35 -105 -65 -175 -134 -254
-256 -295 -28 -9 -53 -12 -58 -8 -16 17 -361 1323 -360 1360 1 15 117 -115
179 -201z m8061 -161 c-123 -481 -259 -987 -270 -998 -12 -12 -99 19 -152 54
-50 33 -98 95 -129 167 -24 55 -70 186 -66 188 1 1 27 18 58 38 67 44 166 145
203 208 14 26 40 83 56 128 42 113 87 201 169 323 65 98 208 264 218 254 2 -2
-37 -165 -87 -362z m-7246 -678 c44 -8 165 -17 269 -21 103 -4 187 -9 187 -10
0 -1 -13 -32 -30 -68 -34 -75 -80 -227 -80 -264 0 -16 -28 -56 -86 -121 -162
-183 -346 -438 -519 -720 -48 -78 -89 -141 -90 -140 -15 16 -276 961 -268 969
5 4 26 12 48 19 156 49 238 143 300 341 l26 86 81 -29 c44 -15 117 -35 162
-42z m6604 6 c19 -84 76 -196 128 -253 49 -51 131 -101 191 -114 18 -3 35 -10
38 -15 6 -9 -263 -960 -275 -973 -4 -4 -38 43 -75 105 -171 282 -403 606 -542
757 -67 73 -68 76 -90 172 -12 54 -38 139 -58 189 -20 51 -35 93 -33 95 1 1
100 7 218 13 216 11 338 31 440 75 19 8 38 12 41 8 3 -3 11 -30 17 -59z
m-5978 -59 c55 -9 100 -19 100 -22 0 -3 -20 -19 -45 -34 -54 -34 -140 -102
-224 -176 -34 -29 -59 -47 -57 -40 2 8 14 46 26 84 28 88 80 205 92 205 5 0
54 -7 108 -17z m5231 -48 c23 -52 79 -222 79 -242 0 -3 -35 27 -77 67 -43 39
-117 99 -165 133 -48 34 -84 65 -80 68 6 6 156 34 200 38 7 1 26 -28 43 -64z
m-4971 -10 c117 -34 303 -102 346 -128 11 -6 57 -53 102 -104 80 -89 212 -216
401 -384 51 -46 113 -109 137 -139 l43 -55 -50 -135 c-311 -844 -543 -1332
-932 -1961 -175 -283 -479 -741 -487 -732 -4 4 -30 77 -59 162 -42 120 -51
158 -43 175 5 11 81 116 167 231 298 395 493 713 721 1171 79 160 144 295 144
300 0 5 -48 -83 -106 -196 -261 -506 -402 -738 -726 -1193 -93 -130 -178 -253
-189 -272 -12 -19 -24 -35 -28 -35 -3 0 -21 45 -40 100 -33 98 -33 100 -16
127 10 15 84 120 165 233 223 313 408 593 455 692 18 38 20 41 -108 -155 -54
-82 -162 -240 -241 -351 -78 -111 -177 -252 -219 -314 -76 -112 -77 -113 -88
-85 -30 79 -387 1158 -444 1345 l-67 218 104 158 c188 284 416 572 639 807 96
101 98 105 32 46 -75 -67 -259 -265 -359 -386 -135 -164 -348 -466 -398 -564
-10 -18 -21 -29 -25 -25 -5 5 -18 45 -31 90 l-23 80 171 256 c344 516 572 786
830 986 52 40 95 72 97 72 2 0 58 -16 125 -35z m4769 -32 c185 -145 387 -359
579 -618 129 -174 432 -629 432 -650 0 -22 -43 -165 -50 -165 -3 0 -34 47 -69
104 -183 297 -506 694 -722 886 -81 72 -79 70 37 -51 220 -230 450 -519 642
-808 56 -85 102 -161 102 -170 0 -41 -506 -1581 -519 -1581 -3 1 -38 49 -78
108 -39 59 -145 211 -234 337 -89 127 -198 286 -242 355 -127 200 -130 187 -4
-20 98 -160 164 -258 362 -535 94 -132 175 -246 180 -254 8 -14 -53 -220 -65
-221 -3 0 -19 24 -37 53 -17 28 -104 156 -194 282 -318 450 -467 697 -721
1190 -59 116 -108 207 -108 202 0 -9 156 -333 238 -494 143 -278 399 -682 609
-961 69 -92 144 -194 166 -226 47 -69 48 -57 -26 -265 l-44 -124 -225 339
c-583 877 -818 1334 -1152 2242 l-98 263 29 37 c53 71 99 116 254 253 139 122
340 325 362 365 17 30 175 96 377 155 69 21 127 38 129 38 2 1 42 -29 90 -66z
m-2344 -54 c41 -10 43 -13 34 -36 -17 -45 -10 -136 16 -214 35 -102 40 -166
20 -289 -44 -284 -54 -472 -29 -556 10 -35 -41 -45 -202 -40 -173 5 -175 6
-162 54 15 54 3 323 -21 480 -29 183 -27 232 10 349 31 96 36 175 15 224 -5
13 0 20 21 27 38 14 244 15 298 1z m4617 -567 c76 -94 109 -145 172 -263 96
-183 161 -398 143 -470 -3 -13 -29 -51 -57 -84 -71 -84 -93 -147 -93 -265 0
-58 6 -120 17 -160 26 -99 97 -235 173 -333 97 -127 139 -191 165 -256 36 -89
31 -346 -16 -806 -111 -1081 -244 -1919 -456 -2890 -43 -198 -115 -542 -159
-765 -372 -1884 -492 -2465 -761 -3685 -45 -203 -121 -550 -169 -770 l-88
-400 -6 405 c-9 663 -51 1107 -207 2205 -148 1047 -179 1360 -200 2006 -12
400 -1 737 46 1359 l16 215 100 270 c508 1376 952 3045 1185 4461 l58 352 41
-30 c23 -16 66 -59 96 -96z m-9363 31 c32 -218 98 -594 156 -888 264 -1327
643 -2671 1095 -3880 l79 -210 15 -180 c42 -490 50 -672 50 -1110 0 -455 -7
-621 -49 -1095 -35 -389 -48 -494 -126 -1038 -110 -766 -172 -1279 -198 -1647
-20 -264 -33 -709 -29 -931 2 -123 3 -222 2 -221 -1 1 -30 128 -64 282 -71
323 -171 778 -230 1045 -203 917 -447 2102 -665 3230 -97 498 -127 644 -215
1040 -217 972 -363 1886 -469 2925 -43 416 -56 635 -43 718 15 93 59 182 140
286 93 117 127 169 167 254 70 146 92 305 59 418 -19 63 -40 100 -95 166 l-41
48 5 90 c4 67 13 113 37 180 42 118 125 283 191 381 53 80 186 224 205 224 6
0 16 -39 23 -87z m3372 -415 c-11 -36 -99 -163 -108 -155 -2 3 22 74 54 158
l58 154 3 -60 c2 -33 -1 -77 -7 -97z m2494 47 c15 -44 38 -109 51 -145 l24
-65 -35 39 c-58 65 -85 130 -85 205 0 36 4 61 8 56 5 -6 21 -46 37 -90z m-942
-359 c23 -13 82 -38 132 -56 144 -50 184 -81 338 -257 233 -266 514 -437 891
-541 l98 -27 91 -165 c181 -331 414 -703 683 -1092 79 -114 144 -214 144 -223
0 -9 -42 -143 -94 -298 -611 -1830 -1082 -3659 -1316 -5102 -69 -429 -128
-882 -131 -1002 -1 -56 -17 -12 -18 48 -1 67 -47 521 -76 754 -45 354 -84 619
-165 1120 -113 701 -196 1322 -274 2060 -112 1054 -141 1519 -166 2635 -11
473 -17 554 -55 747 -44 217 -89 335 -163 429 l-40 50 73 13 c40 6 103 27 141
45 74 35 177 113 195 148 13 24 13 24 -71 -32 -82 -56 -134 -79 -217 -101 -93
-23 -157 -24 -245 -3 -59 14 -75 15 -120 4 -29 -8 -91 -14 -138 -14 -126 -1
-189 23 -410 152 -14 8 3 -13 37 -46 76 -74 192 -135 292 -153 39 -6 71 -14
71 -17 0 -2 -13 -21 -29 -41 -71 -90 -131 -238 -165 -406 -43 -215 -53 -383
-76 -1269 -21 -789 -75 -1487 -195 -2526 -83 -717 -130 -1062 -220 -1620 -127
-787 -204 -1375 -242 -1840 -17 -215 -18 -222 -25 -150 -68 650 -137 1093
-285 1840 -239 1204 -674 2796 -1167 4269 -105 312 -106 315 -88 343 9 15 94
141 188 280 259 383 480 744 644 1052 45 84 67 116 80 116 38 0 258 73 370
122 233 102 418 231 561 389 193 215 273 278 389 309 74 20 163 70 207 117 41
43 42 44 80 34 51 -15 267 -12 323 3 l45 12 38 -43 c21 -24 57 -54 80 -67z
m874 -8943 c-3 -10 -5 -4 -5 12 0 17 2 24 5 18 2 -7 2 -21 0 -30z m-10 -410
c-3 -10 -5 -4 -5 12 0 17 2 24 5 18 2 -7 2 -21 0 -30z m-2350 -15 c-3 -8 -6
-5 -6 6 -1 11 2 17 5 13 3 -3 4 -12 1 -19z"/>
<path d="M13521 17124 c0 -11 3 -14 6 -6 3 7 2 16 -1 19 -3 4 -6 -2 -5 -13z"/>
<path d="M13602 16825 c0 -16 2 -22 5 -12 2 9 2 23 0 30 -3 6 -5 -1 -5 -18z"/>
<path d="M13591 16764 c0 -11 3 -14 6 -6 3 7 2 16 -1 19 -3 4 -6 -2 -5 -13z"/>
<path d="M12456 12464 c-4 -14 -5 -28 -3 -31 3 -2 8 8 11 23 4 14 5 28 3 31
-3 2 -8 -8 -11 -23z"/>
<path d="M10621 6324 c0 -11 3 -14 6 -6 3 7 2 16 -1 19 -3 4 -6 -2 -5 -13z"/>
<path d="M4341 16794 c0 -11 3 -14 6 -6 3 7 2 16 -1 19 -3 4 -6 -2 -5 -13z"/>
<path d="M5471 12500 c0 -8 4 -24 9 -35 5 -13 9 -14 9 -5 0 8 -4 24 -9 35 -5
13 -9 14 -9 5z"/>
<path d="M11220 12970 c6 -11 13 -20 16 -20 2 0 0 9 -6 20 -6 11 -13 20 -16
20 -2 0 0 -9 6 -20z"/>
<path d="M8272 12900 c0 -14 2 -19 5 -12 2 6 2 18 0 25 -3 6 -5 1 -5 -13z"/>
<path d="M9652 12895 c0 -16 2 -22 5 -12 2 9 2 23 0 30 -3 6 -5 -1 -5 -18z"/>
<path d="M8247 12732 c-57 -422 -90 -710 -121 -1037 -63 -659 -89 -865 -172
-1399 -116 -750 -263 -1382 -500 -2150 -36 -115 -63 -210 -61 -212 11 -11 230
693 322 1031 149 553 285 1280 362 1945 l18 155 5 -145 c13 -371 -13 -1108
-60 -1760 -88 -1196 -176 -1918 -321 -2629 -28 -134 -48 -245 -46 -247 5 -5
66 273 108 490 137 702 233 1512 298 2511 38 579 44 759 46 1430 l2 670 47
505 c25 278 58 608 72 733 28 248 28 315 1 109z"/>
<path d="M9661 12840 c0 -14 10 -128 24 -255 13 -126 45 -455 71 -730 l47
-500 2 -660 c1 -363 7 -757 14 -875 81 -1477 192 -2416 386 -3285 43 -189 89
-369 81 -315 -2 14 -24 117 -49 230 -106 471 -203 1108 -261 1710 -47 475 -98
1131 -121 1535 -25 446 -46 1410 -31 1394 2 -2 9 -49 16 -104 18 -161 77 -560
121 -825 83 -509 198 -1013 333 -1475 67 -227 268 -846 273 -841 2 2 -21 84
-52 182 -190 601 -361 1265 -454 1764 -111 592 -186 1132 -251 1820 -33 337
-125 1134 -144 1235 -2 15 -4 14 -5 -5z"/>
<path d="M7662 6250 c0 -14 2 -19 5 -12 2 6 2 18 0 25 -3 6 -5 1 -5 -13z"/>
<path d="M4518 21633 c12 -2 32 -2 45 0 12 2 2 4 -23 4 -25 0 -35 -2 -22 -4z"/>
<path d="M13393 21633 c9 -2 23 -2 30 0 6 3 -1 5 -18 5 -16 0 -22 -2 -12 -5z"/>
<path d="M4325 21614 c-106 -17 -237 -56 -360 -105 -400 -160 -726 -495 -853
-874 -52 -157 -67 -266 -66 -485 0 -217 15 -309 79 -510 41 -128 27 -111 -67
75 -70 141 -80 149 -27 21 27 -64 55 -115 173 -320 79 -137 118 -287 118 -447
0 -182 -42 -258 -149 -267 -68 -6 -47 -20 31 -21 43 -1 52 3 86 37 46 45 62
95 69 217 l6 89 45 -69 c357 -560 804 -999 2375 -2335 1038 -883 1292 -1089
1630 -1316 191 -129 497 -317 475 -292 -3 4 -102 71 -220 150 -397 265 -558
391 -1210 948 -223 190 -495 422 -605 515 -1546 1310 -2021 1766 -2427 2330
-59 82 -67 98 -78 165 -16 102 -51 202 -109 319 -60 118 -111 268 -143 416
-20 94 -23 138 -23 305 0 167 3 211 23 304 61 285 183 499 405 712 249 241
590 399 962 447 20 3 14 4 -15 4 -25 1 -81 -5 -125 -13z"/>
<path d="M13531 21616 c262 -44 515 -141 719 -278 115 -77 280 -233 364 -346
313 -416 352 -1033 96 -1541 -102 -205 -146 -406 -123 -565 21 -148 78 -214
176 -203 28 4 55 11 60 16 7 7 -2 8 -25 5 -48 -8 -103 12 -128 45 -51 73 -63
228 -30 393 26 128 52 187 158 373 86 149 152 287 152 315 0 8 -16 -19 -34
-60 -31 -69 -115 -222 -116 -209 0 3 11 39 25 80 14 41 38 130 52 199 23 108
27 150 27 310 1 112 -4 214 -12 260 -71 401 -267 702 -615 941 -208 143 -525
258 -759 274 l-73 5 86 -14z"/>
<path d="M14533 19018 c-11 -13 -61 -78 -112 -145 -317 -419 -707 -806 -1591
-1579 -311 -271 -1707 -1469 -1875 -1609 -218 -181 -556 -430 -807 -594 -54
-35 -98 -66 -98 -68 0 -13 258 147 460 285 303 206 500 364 1185 947 1894
1612 2391 2087 2779 2658 86 124 100 150 59 105z"/>
<path d="M3552 15965 c-4 -64 -30 -163 -63 -232 -54 -113 -175 -221 -360 -322
-82 -45 -87 -52 -13 -20 91 41 215 120 278 179 104 98 172 258 163 384 -3 45
-4 46 -5 11z"/>
<path d="M14391 15939 c-1 -62 33 -192 66 -248 33 -56 112 -141 173 -185 51
-38 219 -130 225 -124 2 2 -42 30 -97 63 -126 75 -243 182 -285 262 -37 71
-51 113 -68 207 -12 66 -13 68 -14 25z"/>
<path d="M15558 15521 c-94 -63 -212 -185 -240 -247 -18 -41 -22 -76 -27 -229
-6 -167 -9 -186 -32 -233 -14 -28 -22 -49 -17 -46 13 9 45 76 58 123 6 24 15
114 19 201 5 94 13 166 21 181 24 45 175 201 238 246 56 41 70 53 58 53 -2 0
-37 -22 -78 -49z"/>
<path d="M2320 15557 c0 -2 25 -21 55 -42 31 -21 96 -82 145 -137 104 -116
106 -122 119 -348 8 -149 30 -230 69 -262 14 -12 14 -10 0 12 -33 51 -48 131
-48 250 0 126 -13 217 -37 265 -40 76 -303 304 -303 262z"/>
<path d="M2430 14523 c-57 -21 -105 -103 -175 -303 -26 -74 -62 -164 -81 -198
-25 -50 -28 -60 -12 -45 28 25 79 129 123 253 56 157 88 222 124 253 39 33 77
35 132 6 23 -11 38 -16 34 -10 -19 32 -106 58 -145 44z"/>
<path d="M15435 14517 c-17 -8 -36 -21 -43 -29 -9 -12 -3 -11 28 4 72 36 131
7 178 -87 10 -22 41 -98 67 -170 51 -141 96 -234 126 -261 13 -12 10 -1 -11
37 -16 30 -50 115 -76 189 -25 74 -59 162 -75 195 -51 109 -123 154 -194 122z"/>
<path d="M2941 14404 c-1 -19 47 -161 79 -230 35 -77 107 -189 145 -224 15
-14 4 6 -24 44 -65 85 -113 180 -162 316 -21 58 -38 100 -38 94z"/>
<path d="M15001 14394 c0 -11 3 -14 6 -6 3 7 2 16 -1 19 -3 4 -6 -2 -5 -13z"/>
<path d="M14960 14273 c-38 -106 -104 -230 -158 -296 -30 -37 -29 -36 11 6 24
26 64 87 89 135 46 87 101 228 96 243 -2 4 -19 -35 -38 -88z"/>
<path d="M6531 7461 c-2 -32 214 -788 366 -1281 160 -520 243 -837 342 -1300
141 -661 208 -1284 182 -1680 -42 -623 -188 -1184 -496 -1900 -64 -150 -20
-71 68 120 257 562 402 1077 452 1610 21 214 16 654 -9 885 -69 625 -241 1417
-459 2115 -36 113 -123 392 -195 620 -114 363 -210 678 -241 790 -5 19 -10 28
-10 21z"/>
<path d="M11411 7434 c0 -11 3 -14 6 -6 3 7 2 16 -1 19 -3 4 -6 -2 -5 -13z"/>
<path d="M11346 7212 c-32 -108 -141 -460 -241 -782 -238 -764 -276 -896 -379
-1340 -242 -1044 -292 -1738 -171 -2405 76 -419 219 -855 427 -1303 88 -187
116 -230 42 -61 -52 116 -143 349 -211 539 -110 308 -209 718 -255 1060 -29
218 -32 708 -5 949 82 723 228 1397 492 2261 159 523 371 1267 363 1275 -2 2
-30 -85 -62 -193z"/>
</g>
</svg>
