<?xml version="1.0" standalone="no"?>
<!DOCTYPE svg PUBLIC "-//W3C//DTD SVG 20010904//EN"
 "http://www.w3.org/TR/2001/REC-SVG-20010904/DTD/svg10.dtd">
<svg version="1.0" xmlns="http://www.w3.org/2000/svg"
 width="1792.000000pt" height="2400.000000pt" viewBox="0 0 1792.000000 2400.000000"
 preserveAspectRatio="xMidYMid meet">

<g transform="translate(0.000000,2400.000000) scale(0.100000,-0.100000)"
fill="#000000" stroke="none">
<path d="M4153 23034 c3 -11 8 -62 12 -114 3 -52 26 -304 51 -560 106 -1106
186 -1698 344 -2540 190 -1007 386 -1793 810 -3240 173 -590 216 -833 271
-1530 18 -229 21 -403 31 -1730 8 -1056 8 -1576 0 -1830 -10 -339 -12 -362
-42 -500 -101 -468 -134 -678 -210 -1360 -28 -250 -99 -840 -156 -1310 -148
-1208 -178 -1485 -204 -1875 -6 -88 -15 -232 -21 -320 -6 -88 -13 -358 -16
-600 -14 -1063 69 -1788 369 -3215 38 -184 107 -519 153 -745 46 -225 84 -403
84 -394 2 46 -97 598 -219 1214 -198 1004 -273 1503 -327 2185 -22 280 -25
1201 -5 1510 41 628 82 1050 177 1818 94 763 178 1474 225 1892 54 483 93 728
180 1143 56 261 55 239 55 1882 0 1541 -3 1709 -41 2255 -24 358 -61 683 -99
889 -6 32 0 14 183 -536 80 -243 148 -440 150 -438 4 3 -58 201 -173 555 -35
107 -100 319 -145 470 -45 151 -110 367 -145 480 -296 956 -587 2076 -750
2881 -152 747 -255 1362 -334 1989 -52 411 -158 1327 -188 1623 -3 32 -10 60
-15 64 -6 3 -8 -3 -5 -13z"/>
<path d="M13770 23011 c0 -52 -72 -770 -110 -1096 -45 -384 -133 -1034 -190
-1410 -252 -1641 -304 -2166 -380 -3785 -66 -1424 -118 -2206 -190 -2870 -110
-1011 -346 -2140 -753 -3600 -74 -264 -217 -819 -236 -915 -33 -164 -44 -314
-37 -502 9 -256 37 -457 185 -1348 113 -674 160 -1008 201 -1410 100 -990 91
-1754 -31 -2552 -27 -181 -150 -832 -253 -1338 -116 -573 -152 -764 -176 -944
-25 -190 -25 -241 1 -101 39 213 102 524 174 855 316 1460 395 2026 395 2841
0 773 -74 1501 -270 2659 -164 967 -184 1122 -184 1420 0 261 6 305 100 675
60 236 97 373 254 950 323 1185 515 2085 625 2925 97 741 171 1760 245 3370
48 1061 79 1482 161 2180 29 252 66 518 203 1455 93 638 150 1092 206 1635 46
457 81 945 66 945 -3 0 -6 -18 -6 -39z"/>
<path d="M6675 22700 c3 -232 9 -362 24 -495 98 -854 263 -1471 703 -2614 208
-543 402 -1079 471 -1307 194 -634 281 -1149 294 -1739 12 -534 -50 -1038
-203 -1649 -64 -255 -114 -410 -252 -781 -123 -331 -137 -392 -136 -585 1
-187 27 -290 118 -475 67 -137 83 -181 196 -549 68 -224 86 -300 40 -174 -36
100 -241 587 -323 769 -41 91 -123 287 -182 435 -148 373 -202 498 -314 729
-93 191 -122 245 -293 540 -186 323 -432 818 -586 1180 -327 770 -746 2157
-1040 3440 -208 907 -363 1911 -431 2790 -21 269 -26 241 -11 -55 32 -609 128
-1362 271 -2117 115 -612 386 -1709 592 -2398 122 -407 333 -1047 435 -1320
182 -487 467 -1087 708 -1492 l72 -122 -9 -73 c-37 -298 -92 -423 -304 -693
-127 -162 -227 -437 -270 -745 -9 -63 -27 -176 -40 -250 -111 -626 -155 -1078
-200 -2070 -17 -376 -52 -773 -86 -970 -11 -63 -41 -180 -68 -260 -83 -246
-100 -340 -81 -470 13 -99 67 -207 163 -328 144 -181 222 -374 286 -702 53
-273 99 -825 161 -1925 45 -814 56 -1083 120 -2890 33 -924 103 -2275 117
-2261 3 2 0 129 -6 283 -6 153 -13 375 -16 493 -4 118 -15 440 -26 715 -10
275 -26 691 -34 925 -69 1928 -87 2340 -140 3210 -58 940 -100 1343 -170 1616
-68 266 -136 411 -269 578 -114 143 -139 202 -144 339 -5 131 5 185 68 382 27
83 55 184 64 225 38 185 66 508 101 1165 37 679 63 1029 105 1375 39 315 175
1039 225 1195 44 136 127 290 216 400 45 55 100 133 124 173 54 92 110 259
128 385 8 54 17 100 20 103 5 5 99 -159 162 -286 84 -167 213 -462 335 -765
71 -176 179 -432 240 -570 212 -476 426 -1013 465 -1166 9 -35 18 -71 21 -80
3 -11 -13 -30 -48 -56 -29 -22 -98 -81 -152 -131 -110 -101 -184 -145 -322
-191 -332 -111 -739 -35 -959 177 -108 105 -128 176 -120 426 6 170 5 187 -18
276 l-25 95 25 70 c27 73 78 180 120 249 l24 41 -30 -35 c-74 -86 -169 -314
-210 -501 -62 -291 -111 -947 -127 -1729 -6 -285 4 -571 24 -700 l7 -45 5 64
5 63 138 -71 c75 -40 137 -70 137 -68 0 7 -200 124 -241 141 -35 14 -36 17
-43 77 -3 34 -6 103 -6 154 l0 92 39 28 c41 28 104 54 133 55 12 0 18 -12 23
-43 9 -52 60 -197 90 -257 37 -73 133 -200 246 -327 187 -209 275 -325 293
-386 83 -286 88 -374 33 -617 -104 -457 -102 -429 -103 -1110 0 -567 -1 -578
-27 -755 -120 -818 -153 -1715 -91 -2435 51 -597 184 -1377 359 -2109 55 -231
71 -339 84 -561 6 -96 15 -263 22 -370 6 -107 14 -222 19 -255 12 -93 12 125
0 439 -6 143 -8 261 -7 263 2 2 16 -43 31 -99 48 -185 169 -608 173 -604 2 2
-59 260 -136 573 -242 987 -346 1497 -440 2163 -107 752 -122 1494 -51 2335
22 257 59 531 165 1230 82 543 103 704 115 906 17 270 -15 611 -80 858 -17 63
-28 116 -26 118 6 6 125 -197 132 -224 4 -13 10 -23 14 -23 11 0 186 -336 196
-375 4 -16 13 -34 19 -40 12 -10 165 -334 217 -459 21 -52 31 -97 38 -185 39
-428 128 -739 390 -1366 62 -149 128 -315 147 -370 88 -262 184 -948 238
-1705 32 -458 37 -767 32 -1970 -4 -652 -3 -1255 1 -1340 12 -262 37 1156 36
2055 0 625 -4 848 -17 1070 -65 1061 -187 1831 -422 2665 -167 593 -425 1232
-769 1905 -167 327 -265 476 -472 713 -272 312 -310 364 -366 509 -65 168 -84
352 -51 514 11 60 16 142 17 280 1 179 3 199 20 218 13 14 31 21 55 21 19 0
164 -43 321 -95 362 -119 438 -133 800 -146 337 -11 443 -32 555 -109 51 -35
51 -35 90 -309 63 -453 95 -882 95 -1300 0 -162 2 -292 4 -290 3 3 10 99 16
215 18 342 -10 857 -75 1364 -88 682 -312 1605 -560 2302 -36 100 -65 186 -65
191 0 5 21 -19 46 -54 63 -86 157 -177 427 -414 197 -172 304 -259 406 -325
21 -14 28 -40 62 -210 21 -107 39 -206 40 -220 2 -23 2 -23 6 -3 4 21 -33 239
-61 356 -7 31 -12 57 -11 57 1 0 29 -11 64 -25 100 -41 181 -55 314 -56 146 0
207 14 332 75 49 25 91 43 92 42 1 -1 -13 -64 -32 -141 -39 -153 -90 -418 -99
-510 -3 -33 9 21 28 120 35 192 51 267 93 438 26 107 27 108 77 150 28 23 87
74 130 114 44 40 81 71 83 70 2 -2 -4 -24 -12 -48 -65 -183 -163 -630 -209
-953 -38 -264 -30 -245 19 44 68 402 133 701 196 895 l28 90 142 125 c77 69
145 124 150 122 5 -1 9 2 9 7 0 6 43 51 95 102 53 51 114 117 137 146 22 29
42 52 44 50 2 -2 -27 -75 -65 -163 -312 -727 -545 -1656 -650 -2595 -47 -413
-61 -803 -42 -1129 21 -357 26 -336 26 115 0 498 18 748 89 1259 15 111 6 100
142 191 208 140 408 184 839 185 219 0 398 34 615 115 84 32 146 49 191 52 62
5 67 4 87 -21 47 -61 38 -189 -38 -496 -27 -107 -65 -274 -85 -370 -66 -315
-133 -482 -267 -666 -267 -368 -412 -689 -543 -1199 -235 -912 -408 -2164
-480 -3475 -46 -842 -107 -2415 -120 -3125 -3 -159 -8 -362 -10 -450 -3 -87
-3 -157 0 -153 10 10 53 901 80 1668 21 600 53 1351 61 1435 4 39 7 81 6 95
-1 90 45 910 52 917 1 1 7 -57 14 -130 24 -286 82 -606 202 -1117 40 -168 91
-397 115 -510 24 -113 44 -198 44 -190 2 31 -52 293 -134 651 -141 615 -186
867 -221 1231 l-17 177 27 303 c28 311 65 670 70 675 2 2 6 -56 10 -129 20
-400 87 -952 172 -1423 43 -242 96 -497 101 -491 2 2 -14 98 -37 212 -116 596
-203 1269 -228 1769 -8 148 -6 177 22 390 l31 230 8 -145 c40 -760 102 -1085
441 -2290 253 -898 343 -1341 402 -1980 24 -257 24 -808 0 -1049 -18 -186 -16
-241 3 -89 49 380 60 837 27 1188 -59 644 -142 1050 -402 1975 -345 1232 -427
1688 -428 2400 -1 317 6 379 85 730 17 77 46 223 65 325 86 475 239 930 416
1245 31 55 108 174 172 265 181 260 216 342 306 725 35 146 69 262 102 345
112 280 182 668 207 1145 16 296 -10 608 -63 747 -25 67 -83 188 -90 188 -3 0
11 -33 29 -74 19 -41 44 -113 56 -160 l22 -85 -37 -81 c-52 -115 -75 -221 -86
-400 -9 -143 -12 -159 -40 -218 -64 -129 -224 -215 -486 -263 -287 -52 -642 9
-816 139 -81 61 -338 322 -338 344 0 68 219 617 384 963 229 477 466 852 899
1420 88 116 166 216 173 224 10 11 17 4 39 -40 50 -99 116 -188 220 -298 57
-60 117 -130 134 -154 83 -122 189 -498 211 -752 44 -519 55 -1012 31 -1340
-49 -652 -121 -1076 -253 -1485 -108 -334 -230 -571 -578 -1115 -349 -547
-446 -725 -529 -974 -43 -128 -51 -180 -11 -69 98 268 218 488 542 988 222
343 280 439 376 615 271 501 405 1038 479 1920 21 251 24 853 5 1068 -7 76
-17 225 -22 330 -10 207 -31 314 -115 592 -58 192 -89 247 -214 378 -59 63
-129 143 -154 179 -49 68 -107 182 -107 209 0 9 15 36 33 60 412 542 729 1164
897 1759 244 864 283 1782 129 3024 -52 426 -158 1062 -249 1501 -42 199 -140
619 -147 625 -3 3 -3 -6 -1 -20 3 -14 33 -158 66 -320 173 -842 299 -1691 359
-2415 22 -269 25 -1035 5 -1255 -55 -601 -166 -1093 -349 -1555 -202 -509
-435 -911 -822 -1415 -526 -686 -672 -898 -921 -1345 -83 -148 -230 -446 -285
-578 -15 -37 -30 -66 -32 -64 -9 9 215 594 269 702 80 159 118 326 118 517 0
233 -16 278 -367 998 -98 201 -172 385 -252 630 -158 484 -246 916 -298 1465
-23 250 -23 794 1 1115 36 488 54 609 226 1480 225 1143 256 1328 314 1855 57
509 76 842 75 1245 -3 499 -13 546 -21 90 -7 -412 -14 -544 -44 -900 -46 -551
-115 -1012 -259 -1734 -35 -177 -91 -460 -124 -631 -103 -529 -106 -543 -162
-662 -138 -293 -183 -476 -210 -838 -29 -396 44 -1334 147 -1875 29 -157 94
-433 100 -427 2 2 -12 71 -31 153 -71 311 -115 602 -159 1059 -40 405 -47 540
-48 830 0 368 27 581 104 823 29 92 122 320 137 334 4 4 -1 -38 -11 -95 -24
-140 -44 -316 -70 -617 -32 -371 -32 -991 0 -1295 61 -567 174 -1067 347
-1530 80 -213 111 -281 309 -670 100 -198 186 -369 189 -380 l7 -20 -15 20
c-97 129 -164 189 -275 245 -49 25 -61 37 -104 110 -27 45 -74 138 -104 206
-30 68 -57 122 -59 120 -6 -6 102 -247 145 -321 22 -38 39 -71 38 -72 -1 -2
-36 10 -77 26 -41 15 -111 40 -156 55 l-81 27 -42 96 c-23 53 -66 168 -96 257
-29 88 -53 156 -53 149 -2 -25 110 -351 144 -422 19 -40 30 -71 23 -68 -90 33
-412 133 -508 157 -285 71 -541 45 -847 -85 -57 -23 -103 -42 -103 -41 0 1 13
36 29 77 57 147 161 583 149 621 -2 6 -12 -33 -22 -88 -24 -137 -87 -378 -134
-509 -37 -106 -40 -111 -83 -134 -53 -28 -211 -122 -259 -153 l-35 -23 27 46
c42 71 105 220 148 349 42 126 110 375 109 400 0 8 -16 -41 -35 -110 -59 -212
-133 -419 -199 -557 -58 -122 -70 -139 -140 -205 -42 -39 -98 -105 -126 -146
-27 -40 -49 -72 -49 -69 0 2 14 37 31 78 101 244 231 609 288 810 253 894 288
1833 101 2754 -46 227 -146 604 -213 802 -14 40 -20 70 -14 66 6 -4 2 9 -10
28 -11 19 -52 124 -91 234 -39 110 -159 434 -267 720 -336 888 -450 1220 -555
1615 -147 553 -232 1120 -260 1740 -8 180 -8 171 -5 -120z m2431 -8115 c132
-23 249 -56 549 -157 473 -159 560 -200 681 -323 79 -81 133 -175 159 -275 22
-86 30 -256 16 -355 -45 -316 -169 -518 -496 -803 -66 -58 -190 -170 -277
-250 -319 -295 -437 -356 -683 -354 -254 2 -394 73 -732 375 -82 72 -195 172
-250 221 -233 205 -368 407 -429 643 -36 137 -39 327 -6 458 58 230 194 392
470 559 120 72 188 107 320 160 259 106 469 137 678 101z m-2657 -2505 c-6
-293 -5 -321 23 -388 50 -120 134 -202 289 -282 139 -71 252 -100 420 -107
222 -9 402 29 561 121 88 50 106 64 248 194 56 52 104 91 108 88 3 -4 28 -95
54 -204 l48 -197 -23 -19 c-37 -32 -158 -83 -242 -102 -64 -15 -120 -19 -280
-19 -231 1 -281 8 -605 90 -118 29 -242 57 -275 60 -115 13 -194 -30 -234
-127 -12 -29 -32 -71 -44 -93 -20 -37 -22 -59 -28 -270 -4 -126 -12 -259 -19
-295 -6 -36 -10 -105 -8 -154 l3 -89 -54 -14 c-30 -7 -70 -25 -88 -39 l-33
-25 0 158 c0 320 32 969 66 1348 24 275 45 419 76 530 l11 40 15 -45 c10 -31
13 -80 11 -160z m5353 -280 c1 -421 -54 -837 -159 -1208 -25 -89 -48 -160 -50
-158 -3 2 7 46 21 98 37 137 59 283 52 352 -8 78 -83 235 -130 271 -87 66
-169 70 -420 15 -245 -53 -393 -67 -540 -52 -142 15 -250 42 -350 89 -99 47
-147 81 -241 173 l-76 73 27 113 28 113 165 -168 c182 -183 214 -206 377 -260
131 -44 248 -61 412 -61 211 0 352 31 528 115 71 34 103 57 147 104 78 85 94
135 107 324 10 159 26 242 62 342 l23 60 8 -50 c4 -27 8 -156 9 -285z m-1812
-470 c95 -94 182 -148 305 -189 147 -49 265 -64 450 -57 154 5 214 14 470 70
96 21 200 20 250 -3 41 -18 105 -82 105 -104 0 -8 -19 -13 -53 -13 -28 -1 -79
-12 -112 -24 -326 -121 -470 -150 -742 -150 -405 0 -638 -59 -844 -214 -40
-31 -74 -54 -75 -53 -3 3 25 159 28 162 2 2 30 16 63 32 64 32 153 63 250 88
l60 15 -50 -6 c-60 -7 -206 -54 -276 -89 -45 -23 -50 -24 -46 -8 3 10 11 52
18 94 l11 76 64 7 c34 4 114 4 176 1 262 -12 305 -13 258 -4 -25 4 -145 11
-267 15 -123 4 -223 10 -223 13 0 9 62 316 65 319 1 1 32 -28 68 -66 37 -37
85 -78 107 -91 52 -29 52 -21 0 13 -23 15 -70 57 -106 93 -60 63 -64 69 -58
102 7 37 12 51 19 51 2 0 40 -36 85 -80z m-2970 -109 c130 -32 283 -66 341
-75 319 -47 580 -23 766 70 l82 41 11 -56 c7 -31 16 -74 20 -96 5 -22 7 -41 5
-43 -2 -2 -34 -7 -72 -12 l-68 -9 68 3 c39 2 70 -1 74 -7 7 -11 33 -130 29
-134 -1 -1 -30 7 -65 17 -64 20 -207 41 -271 39 -19 -1 17 -7 80 -15 134 -16
246 -47 258 -72 5 -9 13 -39 16 -65 l7 -48 -42 26 c-113 72 -262 100 -569 110
-325 10 -480 40 -810 155 -113 40 -231 75 -263 78 l-59 7 29 54 c34 65 76 91
148 91 28 0 154 -26 285 -59z m4567 -823 c-3 -8 -6 -5 -6 6 -1 11 2 17 5 13 3
-3 4 -12 1 -19z m-4382 -2008 c0 -324 -1 -329 -81 -815 -24 -148 -44 -280 -44
-292 0 -12 -5 -25 -11 -29 -8 -5 -10 100 -6 392 5 426 16 563 63 789 13 66 32
157 41 203 29 140 38 80 38 -248z m648 -660 c146 -380 240 -680 342 -1095 69
-282 80 -333 72 -325 -9 8 -201 466 -260 620 -96 250 -163 490 -202 724 -24
149 -40 284 -32 276 3 -3 39 -93 80 -200z"/>
<path d="M8672 14369 c-228 -29 -450 -132 -570 -263 -54 -60 -125 -172 -136
-216 -4 -14 7 2 24 34 142 273 412 418 840 449 26 2 15 4 -25 4 -38 0 -98 -3
-133 -8z"/>
<path d="M10292 13815 c0 -5 6 -26 13 -45 7 -19 14 -28 14 -20 0 8 -6 29 -14
45 -7 17 -13 26 -13 20z"/>
<path d="M10328 13595 c9 -275 -48 -453 -190 -597 -31 -32 -47 -53 -35 -46 81
43 193 226 223 368 18 83 23 334 7 385 -6 20 -8 -15 -5 -110z"/>
<path d="M8185 13179 c5 -8 25 -39 44 -69 19 -30 54 -91 78 -135 23 -44 43
-76 43 -72 0 23 -141 270 -162 283 -7 5 -8 2 -3 -7z"/>
<path d="M9815 12738 c-157 -281 -291 -416 -495 -496 -47 -18 -71 -30 -55 -27
164 34 353 178 468 355 51 80 152 270 143 270 -2 0 -30 -46 -61 -102z"/>
<path d="M9905 11127 c33 -28 85 -61 85 -54 0 4 -71 54 -100 70 -8 5 -1 -2 15
-16z"/>
<path d="M10232 22950 c0 -19 2 -27 5 -17 2 9 2 25 0 35 -3 9 -5 1 -5 -18z"/>
<path d="M9741 21844 c0 -11 3 -14 6 -6 3 7 2 16 -1 19 -3 4 -6 -2 -5 -13z"/>
<path d="M9752 21760 c0 -19 2 -27 5 -17 2 9 2 25 0 35 -3 9 -5 1 -5 -18z"/>
<path d="M9763 21675 c0 -22 2 -30 4 -17 2 12 2 30 0 40 -3 9 -5 -1 -4 -23z"/>
<path d="M9776 21540 c2 -47 9 -177 15 -290 25 -452 -7 -1052 -87 -1625 -77
-552 -145 -899 -293 -1495 -108 -434 -164 -758 -159 -930 1 -40 3 -50 5 -25
26 323 62 525 178 990 205 826 323 1558 365 2272 19 331 10 853 -20 1113 l-9
75 5 -85z"/>
<path d="M7162 21395 c0 -16 2 -22 5 -12 2 9 2 23 0 30 -3 6 -5 -1 -5 -18z"/>
<path d="M12141 21384 c0 -11 3 -14 6 -6 3 7 2 16 -1 19 -3 4 -6 -2 -5 -13z"/>
<path d="M7172 21310 c0 -19 2 -27 5 -17 2 9 2 25 0 35 -3 9 -5 1 -5 -18z"/>
<path d="M7182 21240 c0 -19 2 -27 5 -17 2 9 2 25 0 35 -3 9 -5 1 -5 -18z"/>
<path d="M7191 21180 c-2 -57 63 -392 129 -665 127 -524 337 -1154 628 -1881
118 -295 215 -546 267 -697 21 -59 40 -106 42 -104 10 10 -170 499 -336 913
-353 883 -592 1667 -701 2296 -16 90 -29 152 -29 138z"/>
<path d="M6340 20925 c0 -5 5 -17 10 -25 5 -8 10 -10 10 -5 0 6 -5 17 -10 25
-5 8 -10 11 -10 5z"/>
<path d="M6376 20830 c31 -123 264 -591 454 -915 303 -515 396 -687 520 -966
209 -467 410 -1097 526 -1646 10 -46 19 -81 22 -79 12 13 -120 552 -198 811
-209 694 -380 1079 -779 1754 -243 411 -386 681 -486 917 -25 60 -50 118 -55
129 -9 17 -9 16 -4 -5z"/>
<path d="M5001 20444 c0 -11 3 -14 6 -6 3 7 2 16 -1 19 -3 4 -6 -2 -5 -13z"/>
<path d="M5011 20404 c0 -11 3 -14 6 -6 3 7 2 16 -1 19 -3 4 -6 -2 -5 -13z"/>
<path d="M5022 20360 c0 -14 2 -19 5 -12 2 6 2 18 0 25 -3 6 -5 1 -5 -13z"/>
<path d="M5031 20319 c0 -8 15 -73 35 -145 93 -333 314 -780 586 -1186 43 -65
80 -118 83 -118 3 0 -33 57 -78 128 -320 492 -522 921 -620 1317 -3 13 -5 14
-6 4z"/>
<path d="M9423 20065 c0 -44 2 -61 4 -37 2 23 2 59 0 80 -2 20 -4 1 -4 -43z"/>
<path d="M9430 19753 c-1 -487 -45 -987 -146 -1636 -19 -126 -34 -233 -32
-239 14 -40 129 800 163 1187 16 181 33 915 21 915 -3 0 -6 -102 -6 -227z"/>
<path d="M12388 19700 c-9 -343 -43 -619 -119 -944 -16 -71 -27 -131 -25 -133
2 -2 16 44 30 104 89 375 131 726 124 1058 l-3 170 -7 -255z"/>
<path d="M7972 19660 c0 -14 2 -19 5 -12 2 6 2 18 0 25 -3 6 -5 1 -5 -13z"/>
<path d="M10551 19629 c-6 -18 -9 -34 -7 -36 2 -2 9 10 15 28 6 18 9 34 7 36
-2 2 -9 -10 -15 -28z"/>
<path d="M7983 19560 c0 -25 2 -35 4 -22 2 12 2 32 0 45 -2 12 -4 2 -4 -23z"/>
<path d="M10510 19518 c-13 -35 -74 -182 -136 -328 -226 -537 -334 -837 -449
-1253 -70 -250 -182 -771 -173 -799 2 -5 14 46 27 113 121 632 289 1176 581
1874 127 304 182 446 177 452 -3 2 -15 -25 -27 -59z"/>
<path d="M7991 19490 c-2 -41 38 -295 70 -450 17 -80 68 -296 114 -480 215
-864 295 -1333 315 -1850 l8 -205 -3 220 c-8 498 -91 989 -325 1910 -80 319
-122 513 -154 725 -13 85 -24 144 -25 130z"/>
<path d="M12452 18930 c0 -14 2 -19 5 -12 2 6 2 18 0 25 -3 6 -5 1 -5 -13z"/>
<path d="M9138 18520 c-4 -223 -12 -459 -17 -525 -15 -180 -22 -281 -17 -270
25 54 59 833 47 1065 -5 111 -8 62 -13 -270z"/>
<path d="M12443 18835 c0 -22 2 -30 4 -17 2 12 2 30 0 40 -3 9 -5 -1 -4 -23z"/>
<path d="M12433 18745 c0 -22 2 -30 4 -17 2 12 2 30 0 40 -3 9 -5 -1 -4 -23z"/>
<path d="M8391 18694 c0 -11 3 -14 6 -6 3 7 2 16 -1 19 -3 4 -6 -2 -5 -13z"/>
<path d="M12423 18665 c0 -22 2 -30 4 -17 2 12 2 30 0 40 -3 9 -5 -1 -4 -23z"/>
<path d="M8402 18630 c0 -14 2 -19 5 -12 2 6 2 18 0 25 -3 6 -5 1 -5 -13z"/>
<path d="M12412 18590 c0 -19 2 -27 5 -17 2 9 2 25 0 35 -3 9 -5 1 -5 -18z"/>
<path d="M5450 18607 c0 -3 20 -57 44 -119 159 -413 501 -1090 759 -1503 227
-364 645 -932 832 -1130 32 -35 15 -10 -42 60 -406 496 -775 1040 -1045 1538
-167 310 -399 797 -500 1052 -38 95 -48 116 -48 102z"/>
<path d="M12231 18594 c0 -11 3 -14 6 -6 3 7 2 16 -1 19 -3 4 -6 -2 -5 -13z"/>
<path d="M8412 18565 c0 -16 2 -22 5 -12 2 9 2 23 0 30 -3 6 -5 -1 -5 -18z"/>
<path d="M12216 18544 c-4 -14 -5 -28 -3 -31 3 -2 8 8 11 23 4 14 5 28 3 31
-3 2 -8 -8 -11 -23z"/>
<path d="M12381 18403 c-74 -481 -216 -1022 -361 -1379 -75 -185 -79 -196 -35
-109 112 225 254 696 344 1140 44 216 85 469 79 486 -2 6 -14 -56 -27 -138z"/>
<path d="M8422 18505 c0 -16 2 -22 5 -12 2 9 2 23 0 30 -3 6 -5 -1 -5 -18z"/>
<path d="M8712 18485 c0 -16 2 -22 5 -12 2 9 2 23 0 30 -3 6 -5 -1 -5 -18z"/>
<path d="M12196 18474 c-4 -14 -5 -28 -3 -31 3 -2 8 8 11 23 4 14 5 28 3 31
-3 2 -8 -8 -11 -23z"/>
<path d="M7924 18363 c53 -107 167 -366 181 -411 4 -13 9 -21 11 -19 13 13
-222 537 -240 537 -4 0 18 -48 48 -107z"/>
<path d="M8432 18445 c0 -16 2 -22 5 -12 2 9 2 23 0 30 -3 6 -5 -1 -5 -18z"/>
<path d="M8722 18410 c0 -19 2 -27 5 -17 2 9 2 25 0 35 -3 9 -5 1 -5 -18z"/>
<path d="M8442 18385 c0 -16 2 -22 5 -12 2 9 2 23 0 30 -3 6 -5 -1 -5 -18z"/>
<path d="M11171 18384 c0 -11 3 -14 6 -6 3 7 2 16 -1 19 -3 4 -6 -2 -5 -13z"/>
<path d="M8733 18335 c0 -22 2 -30 4 -17 2 12 2 30 0 40 -3 9 -5 -1 -4 -23z"/>
<path d="M8452 18330 c0 -14 2 -19 5 -12 2 6 2 18 0 25 -3 6 -5 1 -5 -13z"/>
<path d="M11151 18314 c0 -11 3 -14 6 -6 3 7 2 16 -1 19 -3 4 -6 -2 -5 -13z"/>
<path d="M8462 18275 c0 -16 2 -22 5 -12 2 9 2 23 0 30 -3 6 -5 -1 -5 -18z"/>
<path d="M8746 18230 c3 -36 13 -150 24 -255 10 -104 24 -264 30 -355 17 -265
18 -273 14 -118 -5 174 -28 456 -54 653 -11 77 -17 111 -14 75z"/>
<path d="M11136 18264 c-4 -14 -5 -28 -3 -31 3 -2 8 8 11 23 4 14 5 28 3 31
-3 2 -8 -8 -11 -23z"/>
<path d="M8472 18220 c0 -14 4 -36 8 -50 6 -20 8 -21 8 -5 0 11 -4 34 -8 50
-7 27 -8 27 -8 5z"/>
<path d="M11076 18068 c-107 -340 -295 -810 -517 -1290 -192 -417 -243 -553
-304 -819 -47 -202 -97 -562 -94 -668 1 -20 7 23 15 94 41 395 110 706 222
990 19 50 86 203 149 340 150 326 227 506 325 750 83 207 262 729 256 746 -2
6 -25 -59 -52 -143z"/>
<path d="M8492 18120 c0 -14 2 -19 5 -12 2 6 2 18 0 25 -3 6 -5 1 -5 -13z"/>
<path d="M8500 18078 c0 -32 127 -523 129 -498 1 3 -28 120 -64 260 -35 140
-64 247 -65 238z"/>
<path d="M8932 17890 c-1 -74 -4 -207 -6 -295 l-5 -160 10 145 c5 80 8 213 6
295 l-3 150 -2 -135z"/>
<path d="M6910 17866 c0 -2 8 -10 18 -17 15 -13 16 -12 3 4 -13 16 -21 21 -21
13z"/>
<path d="M9242 17835 c0 -16 2 -22 5 -12 2 9 2 23 0 30 -3 6 -5 -1 -5 -18z"/>
<path d="M7001 17745 c451 -657 752 -1281 930 -1925 16 -58 26 -87 23 -65 -19
126 -156 533 -270 803 -71 166 -213 451 -314 627 -90 157 -354 561 -405 620
-14 17 2 -10 36 -60z"/>
<path d="M9231 17774 c0 -11 3 -14 6 -6 3 7 2 16 -1 19 -3 4 -6 -2 -5 -13z"/>
<path d="M8171 17754 c0 -11 3 -14 6 -6 3 7 2 16 -1 19 -3 4 -6 -2 -5 -13z"/>
<path d="M8181 17714 c0 -11 3 -14 6 -6 3 7 2 16 -1 19 -3 4 -6 -2 -5 -13z"/>
<path d="M8191 17674 c0 -11 3 -14 6 -6 3 7 2 16 -1 19 -3 4 -6 -2 -5 -13z"/>
<path d="M9092 17670 c0 -14 2 -19 5 -12 2 6 2 18 0 25 -3 6 -5 1 -5 -13z"/>
<path d="M8200 17644 c0 -5 14 -78 30 -163 35 -180 83 -502 102 -681 8 -78 13
-256 13 -470 0 -190 3 -304 6 -255 11 146 10 510 -1 656 -6 73 -24 228 -41
343 -37 260 -109 637 -109 570z"/>
<path d="M8631 17560 c0 -8 4 -24 9 -35 5 -13 9 -14 9 -5 0 8 -4 24 -9 35 -5
13 -9 14 -9 5z"/>
<path d="M8651 17490 c0 -8 4 -24 9 -35 5 -13 9 -14 9 -5 0 8 -4 24 -9 35 -5
13 -9 14 -9 5z"/>
<path d="M10177 17445 c-24 -50 -20 -58 4 -12 11 22 19 41 17 43 -3 2 -12 -12
-21 -31z"/>
<path d="M10080 17228 c-69 -164 -134 -354 -175 -514 -32 -123 -106 -537 -104
-579 0 -11 18 80 40 202 63 365 134 619 248 887 28 66 49 121 47 123 -2 2 -27
-51 -56 -119z"/>
<path d="M7902 17190 c0 -14 2 -19 5 -12 2 6 2 18 0 25 -3 6 -5 1 -5 -13z"/>
<path d="M7912 17140 c0 -14 2 -19 5 -12 2 6 2 18 0 25 -3 6 -5 1 -5 -13z"/>
<path d="M9742 17095 c0 -16 2 -22 5 -12 2 9 2 23 0 30 -3 6 -5 -1 -5 -18z"/>
<path d="M7922 17090 c0 -14 2 -19 5 -12 2 6 2 18 0 25 -3 6 -5 1 -5 -13z"/>
<path d="M9243 17030 c0 -41 2 -58 4 -37 2 20 2 54 0 75 -2 20 -4 3 -4 -38z"/>
<path d="M7932 17040 c0 -14 2 -19 5 -12 2 6 2 18 0 25 -3 6 -5 1 -5 -13z"/>
<path d="M9732 17040 c0 -14 2 -19 5 -12 2 6 2 18 0 25 -3 6 -5 1 -5 -13z"/>
<path d="M7942 16980 c0 -14 2 -19 5 -12 2 6 2 18 0 25 -3 6 -5 1 -5 -13z"/>
<path d="M9722 16980 c0 -14 2 -19 5 -12 2 6 2 18 0 25 -3 6 -5 1 -5 -13z"/>
<path d="M7951 16924 c0 -11 3 -14 6 -6 3 7 2 16 -1 19 -3 4 -6 -2 -5 -13z"/>
<path d="M9712 16920 c0 -14 2 -19 5 -12 2 6 2 18 0 25 -3 6 -5 1 -5 -13z"/>
<path d="M9702 16860 c0 -14 2 -19 5 -12 2 6 2 18 0 25 -3 6 -5 1 -5 -13z"/>
<path d="M11511 16844 c0 -11 3 -14 6 -6 3 7 2 16 -1 19 -3 4 -6 -2 -5 -13z"/>
<path d="M11922 16795 c-12 -25 -20 -45 -17 -45 7 0 47 81 43 86 -3 2 -14 -17
-26 -41z"/>
<path d="M9691 16794 c0 -11 3 -14 6 -6 3 7 2 16 -1 19 -3 4 -6 -2 -5 -13z"/>
<path d="M11486 16764 c-4 -14 -5 -28 -3 -31 3 -2 8 8 11 23 4 14 5 28 3 31
-3 2 -8 -8 -11 -23z"/>
<path d="M6098 16649 c37 -74 101 -206 141 -294 130 -283 347 -716 433 -865
88 -152 173 -289 409 -661 174 -274 173 -272 154 -232 -20 43 -131 226 -248
410 -274 430 -406 670 -671 1223 -179 374 -254 521 -276 544 -5 5 21 -51 58
-125z"/>
<path d="M11421 16558 c-222 -678 -471 -1228 -809 -1790 -107 -178 -131 -219
-115 -203 19 19 230 371 318 530 168 304 324 647 461 1013 76 204 196 562 192
574 -2 5 -23 -51 -47 -124z"/>
<path d="M12311 16664 c0 -11 3 -14 6 -6 3 7 2 16 -1 19 -3 4 -6 -2 -5 -13z"/>
<path d="M12301 16624 c0 -11 3 -14 6 -6 3 7 2 16 -1 19 -3 4 -6 -2 -5 -13z"/>
<path d="M12248 16442 c-240 -815 -593 -1505 -1075 -2101 -261 -324 -362 -454
-434 -561 -79 -119 -71 -109 92 109 64 86 179 230 254 321 503 603 823 1173
1075 1916 61 179 144 463 138 469 -2 2 -25 -67 -50 -153z"/>
<path d="M9792 16080 c0 -14 2 -19 5 -12 2 6 2 18 0 25 -3 6 -5 1 -5 -13z"/>
<path d="M8333 15935 c0 -27 2 -38 4 -22 2 15 2 37 0 50 -2 12 -4 0 -4 -28z"/>
<path d="M8322 15835 c0 -16 2 -22 5 -12 2 9 2 23 0 30 -3 6 -5 -1 -5 -18z"/>
<path d="M10077 15683 c-35 -115 -59 -210 -38 -153 23 62 82 262 78 266 -2 2
-20 -49 -40 -113z"/>
<path d="M10576 15715 c-9 -26 -7 -32 5 -12 6 10 9 21 6 23 -2 3 -7 -2 -11
-11z"/>
<path d="M7961 15694 c0 -11 3 -14 6 -6 3 7 2 16 -1 19 -3 4 -6 -2 -5 -13z"/>
<path d="M7342 15550 c51 -69 127 -183 170 -255 97 -163 110 -181 57 -80 -85
161 -194 322 -284 420 -20 22 6 -16 57 -85z"/>
<path d="M7972 15650 c0 -14 2 -19 5 -12 2 6 2 18 0 25 -3 6 -5 1 -5 -13z"/>
<path d="M10536 15625 c-9 -26 -7 -32 5 -12 6 10 9 21 6 23 -2 3 -7 -2 -11
-11z"/>
<path d="M7981 15604 c0 -11 3 -14 6 -6 3 7 2 16 -1 19 -3 4 -6 -2 -5 -13z"/>
<path d="M6870 15586 c0 -2 8 -10 18 -17 15 -13 16 -12 3 4 -13 16 -21 21 -21
13z"/>
<path d="M9282 15530 c0 -14 2 -19 5 -12 2 6 2 18 0 25 -3 6 -5 1 -5 -13z"/>
<path d="M6936 15505 c90 -115 255 -391 390 -650 46 -88 84 -157 84 -152 0 21
-167 336 -278 522 -72 121 -195 299 -215 312 -6 4 2 -11 19 -32z"/>
<path d="M10021 15484 c0 -11 3 -14 6 -6 3 7 2 16 -1 19 -3 4 -6 -2 -5 -13z"/>
<path d="M9292 15465 c0 -16 2 -22 5 -12 2 9 2 23 0 30 -3 6 -5 -1 -5 -18z"/>
<path d="M10011 15444 c0 -11 3 -14 6 -6 3 7 2 16 -1 19 -3 4 -6 -2 -5 -13z"/>
<path d="M10456 15425 c-9 -26 -7 -32 5 -12 6 10 9 21 6 23 -2 3 -7 -2 -11
-11z"/>
<path d="M9302 15405 c0 -16 4 -43 8 -60 11 -42 11 -1 1 50 -7 34 -9 35 -9 10z"/>
<path d="M10001 15404 c0 -11 3 -14 6 -6 3 7 2 16 -1 19 -3 4 -6 -2 -5 -13z"/>
<path d="M9691 15394 c0 -11 3 -14 6 -6 3 7 2 16 -1 19 -3 4 -6 -2 -5 -13z"/>
<path d="M9701 15354 c0 -11 3 -14 6 -6 3 7 2 16 -1 19 -3 4 -6 -2 -5 -13z"/>
<path d="M10421 15329 c-6 -18 -9 -34 -7 -36 2 -2 9 10 15 28 6 18 9 34 7 36
-2 2 -9 -10 -15 -28z"/>
<path d="M9321 15299 c-1 -24 45 -247 79 -379 32 -126 82 -278 100 -307 13
-21 15 -29 -26 92 -37 105 -72 240 -114 435 -21 96 -39 168 -39 159z"/>
<path d="M8693 15250 c0 -25 2 -35 4 -22 2 12 2 32 0 45 -2 12 -4 2 -4 -23z"/>
<path d="M10376 15204 c-9 -26 -16 -52 -15 -58 0 -6 9 13 20 43 10 30 17 56
15 58 -2 2 -11 -17 -20 -43z"/>
<path d="M8472 15220 c0 -14 2 -19 5 -12 2 6 2 18 0 25 -3 6 -5 1 -5 -13z"/>
<path d="M10153 15180 c0 -36 2 -50 4 -32 2 17 2 47 0 65 -2 17 -4 3 -4 -33z"/>
<path d="M11255 15060 c-151 -232 -281 -406 -487 -653 -90 -108 -179 -219
-197 -245 l-33 -47 34 40 c18 22 87 103 153 180 250 291 370 451 524 693 112
176 134 212 128 212 -2 0 -57 -81 -122 -180z"/>
<path d="M8671 15076 c-7 -63 -23 -168 -36 -233 -27 -131 -31 -164 -9 -88 30
106 77 435 62 435 -2 0 -10 -51 -17 -114z"/>
<path d="M8221 15094 c0 -11 3 -14 6 -6 3 7 2 16 -1 19 -3 4 -6 -2 -5 -13z"/>
<path d="M10331 15054 c0 -11 3 -14 6 -6 3 7 2 16 -1 19 -3 4 -6 -2 -5 -13z"/>
<path d="M10143 15005 c0 -22 2 -30 4 -17 2 12 2 30 0 40 -3 9 -5 -1 -4 -23z"/>
<path d="M9571 14964 c0 -11 3 -14 6 -6 3 7 2 16 -1 19 -3 4 -6 -2 -5 -13z"/>
<path d="M6886 14895 c241 -401 365 -615 445 -770 54 -104 99 -186 99 -181 1
40 -468 868 -542 956 l-20 25 18 -30z"/>
<path d="M10291 14894 c0 -11 3 -14 6 -6 3 7 2 16 -1 19 -3 4 -6 -2 -5 -13z"/>
<path d="M10281 14844 c0 -11 3 -14 6 -6 3 7 2 16 -1 19 -3 4 -6 -2 -5 -13z"/>
<path d="M10272 14790 c0 -14 2 -19 5 -12 2 6 2 18 0 25 -3 6 -5 1 -5 -13z"/>
<path d="M9880 14765 c0 -5 5 -17 10 -25 5 -8 10 -10 10 -5 0 6 -5 17 -10 25
-5 8 -10 11 -10 5z"/>
<path d="M10262 14730 c0 -14 2 -19 5 -12 2 6 2 18 0 25 -3 6 -5 1 -5 -13z"/>
<path d="M8601 14684 c0 -11 3 -14 6 -6 3 7 2 16 -1 19 -3 4 -6 -2 -5 -13z"/>
<path d="M7260 14540 c6 -11 13 -20 16 -20 2 0 0 9 -6 20 -6 11 -13 20 -16 20
-2 0 0 -9 6 -20z"/>
<path d="M10470 14530 c-6 -11 -8 -20 -6 -20 3 0 10 9 16 20 6 11 8 20 6 20
-3 0 -10 -9 -16 -20z"/>
<path d="M10519 14093 c-13 -16 -12 -17 4 -4 9 7 17 15 17 17 0 8 -8 3 -21
-13z"/>
<path d="M7440 13905 c0 -5 5 -17 10 -25 5 -8 10 -10 10 -5 0 6 -5 17 -10 25
-5 8 -10 11 -10 5z"/>
<path d="M7311 13444 c0 -11 3 -14 6 -6 3 7 2 16 -1 19 -3 4 -6 -2 -5 -13z"/>
<path d="M7285 13370 c-4 -11 -50 -68 -104 -125 -153 -162 -186 -238 -221
-510 -23 -173 -48 -282 -81 -348 -42 -82 -112 -169 -173 -214 -74 -54 -82 -62
-37 -37 56 31 154 128 190 188 65 108 84 183 126 482 26 191 75 294 199 424
66 69 123 147 113 156 -3 3 -8 -4 -12 -16z"/>
<path d="M6390 13218 c-38 -89 -97 -277 -124 -399 -38 -170 -31 -167 13 6 41
160 90 318 122 392 11 25 18 48 16 50 -3 2 -14 -20 -27 -49z"/>
<path d="M11941 13114 c0 -11 3 -14 6 -6 3 7 2 16 -1 19 -3 4 -6 -2 -5 -13z"/>
<path d="M11951 13082 c-1 -7 14 -104 33 -215 19 -111 37 -215 39 -232 l4 -30
2 32 c2 48 -75 487 -78 445z"/>
<path d="M6423 12963 c-135 -361 -258 -1029 -287 -1553 -3 -52 6 4 19 125 71
652 143 1026 265 1385 27 79 48 146 46 147 -2 2 -21 -45 -43 -104z"/>
<path d="M10642 13020 c0 -14 2 -19 5 -12 2 6 2 18 0 25 -3 6 -5 1 -5 -13z"/>
<path d="M10651 12975 c-2 -36 64 -158 150 -281 106 -151 139 -222 189 -414
63 -242 116 -330 243 -404 58 -34 173 -76 207 -75 14 0 -3 8 -38 18 -150 43
-274 135 -325 242 -15 30 -35 88 -46 129 -11 41 -32 118 -46 170 -35 127 -79
215 -169 339 -88 120 -134 196 -152 255 -7 22 -13 32 -13 21z"/>
<path d="M11831 12900 c-1 -3 8 -30 18 -60 75 -214 124 -542 141 -955 6 -132
12 -253 14 -270 7 -73 5 148 -4 328 -15 311 -47 553 -100 762 -23 92 -67 214
-69 195z"/>
<path d="M6485 12839 c-52 -99 -164 -476 -153 -511 3 -7 10 17 18 52 22 110
87 321 124 408 35 81 41 110 11 51z"/>
<path d="M10066 12635 c-9 -26 -7 -32 5 -12 6 10 9 21 6 23 -2 3 -7 -2 -11
-11z"/>
<path d="M11780 12645 c0 -5 5 -17 10 -25 5 -8 10 -10 10 -5 0 6 -5 17 -10 25
-5 8 -10 11 -10 5z"/>
<path d="M10025 12528 c-79 -211 -206 -617 -205 -657 1 -9 25 65 55 164 29 99
83 265 119 370 65 188 83 262 31 123z"/>
<path d="M12032 12565 c0 -16 2 -22 5 -12 2 9 2 23 0 30 -3 6 -5 -1 -5 -18z"/>
<path d="M11821 12537 c-1 -5 8 -43 18 -85 22 -88 49 -252 61 -379 l9 -88 -5
101 c-5 116 -37 321 -64 403 -10 31 -18 52 -19 48z"/>
<path d="M6321 12284 c0 -11 3 -14 6 -6 3 7 2 16 -1 19 -3 4 -6 -2 -5 -13z"/>
<path d="M8372 12200 c0 -8 6 -31 13 -50 7 -19 13 -28 13 -20 0 8 -6 31 -13
50 -7 19 -13 28 -13 20z"/>
<path d="M8151 12197 c-1 -4 10 -47 23 -95 106 -379 247 -1141 333 -1800 15
-118 29 -209 31 -203 2 6 -6 91 -18 189 -49 410 -122 854 -206 1267 -59 284
-160 684 -163 642z"/>
<path d="M8404 12090 c3 -14 24 -97 45 -185 22 -88 44 -178 50 -200 l10 -40
-5 45 c-7 55 -91 391 -100 399 -4 3 -4 -5 0 -19z"/>
<path d="M11913 11915 c0 -33 2 -45 4 -27 2 18 2 45 0 60 -2 15 -4 0 -4 -33z"/>
<path d="M9811 11834 c0 -11 3 -14 6 -6 3 7 2 16 -1 19 -3 4 -6 -2 -5 -13z"/>
<path d="M9801 11794 c0 -11 3 -14 6 -6 3 7 2 16 -1 19 -3 4 -6 -2 -5 -13z"/>
<path d="M11478 11793 c6 -2 18 -2 25 0 6 3 1 5 -13 5 -14 0 -19 -2 -12 -5z"/>
<path d="M8762 11645 c0 -16 2 -22 5 -12 2 9 2 23 0 30 -3 6 -5 -1 -5 -18z"/>
<path d="M8512 11640 c0 -14 2 -19 5 -12 2 6 2 18 0 25 -3 6 -5 1 -5 -13z"/>
<path d="M8522 11590 c0 -14 2 -19 5 -12 2 6 2 18 0 25 -3 6 -5 1 -5 -13z"/>
<path d="M8532 11540 c0 -14 2 -19 5 -12 2 6 2 18 0 25 -3 6 -5 1 -5 -13z"/>
<path d="M8541 11484 c0 -11 3 -14 6 -6 3 7 2 16 -1 19 -3 4 -6 -2 -5 -13z"/>
<path d="M9342 11405 c0 -16 2 -22 5 -12 2 9 2 23 0 30 -3 6 -5 -1 -5 -18z"/>
<path d="M11916 11293 c-9 -142 -30 -316 -57 -477 -11 -65 -18 -120 -16 -123
7 -6 36 157 57 322 20 156 37 395 28 395 -3 0 -8 -53 -12 -117z"/>
<path d="M9512 11140 c0 -14 2 -19 5 -12 2 6 2 18 0 25 -3 6 -5 1 -5 -13z"/>
<path d="M6192 10930 c-22 -372 -30 -718 -23 -930 l8 -205 1 319 c1 175 9 467
18 647 8 181 14 341 12 357 -2 15 -9 -70 -16 -188z"/>
<path d="M9671 11104 c0 -11 3 -14 6 -6 3 7 2 16 -1 19 -3 4 -6 -2 -5 -13z"/>
<path d="M9662 11045 c0 -16 2 -22 5 -12 2 9 2 23 0 30 -3 6 -5 -1 -5 -18z"/>
<path d="M9632 10864 c-101 -681 -141 -1260 -113 -1664 3 -57 6 38 7 235 1
441 26 769 100 1303 19 140 33 259 31 265 -2 6 -13 -56 -25 -139z"/>
<path d="M6625 10935 c31 -25 152 -81 236 -109 80 -27 217 -51 334 -60 l70 -5
-60 10 c-33 5 -103 16 -155 25 -111 18 -268 68 -372 119 -40 20 -64 29 -53 20z"/>
<path d="M11380 10763 c-113 -42 -386 -91 -580 -103 -96 -6 -215 -18 -263 -26
-82 -13 -222 -60 -257 -85 -12 -9 -11 -9 5 -3 206 76 220 79 502 99 165 11
247 22 370 49 151 34 252 63 290 85 29 17 3 11 -67 -16z"/>
<path d="M7565 10684 c-96 -18 -201 -48 -270 -79 -85 -37 -157 -112 -154 -162
0 -10 5 -4 10 14 31 107 251 196 584 236 17 2 3 4 -30 5 -33 0 -96 -6 -140
-14z"/>
<path d="M6523 10655 c0 -22 2 -30 4 -17 2 12 2 30 0 40 -3 9 -5 -1 -4 -23z"/>
<path d="M11832 10660 c0 -14 2 -19 5 -12 2 6 2 18 0 25 -3 6 -5 1 -5 -13z"/>
<path d="M11771 10654 c0 -11 3 -14 6 -6 3 7 2 16 -1 19 -3 4 -6 -2 -5 -13z"/>
<path d="M9277 10543 c-22 -304 -29 -633 -23 -1018 4 -231 11 -456 15 -500 5
-47 6 9 2 135 -9 316 -5 908 8 1204 11 256 10 349 -2 179z"/>
<path d="M11740 10553 c-32 -111 -104 -307 -157 -431 -72 -169 -73 -172 -69
-172 27 0 273 657 253 676 -2 2 -14 -31 -27 -73z"/>
<path d="M11821 10614 c0 -11 3 -14 6 -6 3 7 2 16 -1 19 -3 4 -6 -2 -5 -13z"/>
<path d="M6533 10560 c0 -25 2 -35 4 -22 2 12 2 32 0 45 -2 12 -4 2 -4 -23z"/>
<path d="M6061 10278 c-16 -245 -37 -426 -67 -582 -14 -70 -23 -130 -21 -132
5 -5 42 169 57 266 22 148 59 630 48 630 -2 0 -10 -82 -17 -182z"/>
<path d="M11736 10135 c-9 -26 -7 -32 5 -12 6 10 9 21 6 23 -2 3 -7 -2 -11
-11z"/>
<path d="M9423 10055 c0 -33 2 -45 4 -27 2 18 2 45 0 60 -2 15 -4 0 -4 -33z"/>
<path d="M11675 9992 c-68 -146 -112 -217 -311 -502 -169 -241 -321 -474 -363
-557 -33 -65 -17 -51 22 20 44 77 215 335 380 572 154 219 236 355 288 476 22
50 38 93 37 95 -2 1 -26 -45 -53 -104z"/>
<path d="M8542 10045 c0 -16 2 -22 5 -12 2 9 2 23 0 30 -3 6 -5 -1 -5 -18z"/>
<path d="M8682 9980 c0 -19 2 -27 5 -17 2 9 2 25 0 35 -3 9 -5 1 -5 -18z"/>
<path d="M9407 9848 c-8 -174 -7 -675 2 -813 3 -55 6 137 6 428 1 290 0 527
-1 527 0 0 -4 -64 -7 -142z"/>
<path d="M8693 9885 c0 -27 2 -38 4 -22 2 15 2 37 0 50 -2 12 -4 0 -4 -28z"/>
<path d="M8887 9645 c3 -115 9 -273 13 -350 6 -104 7 -78 3 100 -3 132 -9 290
-13 350 -6 76 -6 46 -3 -100z"/>
<path d="M8705 9755 c3 -44 10 -156 16 -250 6 -93 9 -273 6 -400 -3 -180 -2
-209 5 -135 12 121 1 599 -17 750 -12 97 -13 103 -10 35z"/>
<path d="M9088 9405 c2 -187 5 -347 6 -355 7 -29 4 566 -3 630 -3 36 -5 -88
-3 -275z"/>
<path d="M7471 9706 c9 -12 70 -86 136 -166 220 -266 334 -432 410 -597 47
-102 73 -180 134 -397 31 -111 75 -239 118 -340 82 -191 104 -261 131 -419 19
-115 61 -486 76 -677 4 -52 10 -87 12 -78 9 44 -46 603 -78 784 -26 145 -49
218 -126 400 -38 91 -89 239 -128 375 -35 123 -81 263 -100 310 -74 175 -182
336 -393 589 -113 134 -239 276 -192 216z"/>
<path d="M5961 9534 c0 -11 3 -14 6 -6 3 7 2 16 -1 19 -3 4 -6 -2 -5 -13z"/>
<path d="M10145 9244 c-275 -308 -300 -358 -324 -669 -13 -165 -40 -270 -136
-520 -81 -212 -137 -367 -132 -371 6 -6 218 537 240 616 29 99 44 195 52 335
14 226 66 326 304 594 92 104 147 171 139 171 -2 0 -66 -71 -143 -156z"/>
<path d="M8587 9178 c-4 -117 -9 -247 -12 -288 -4 -72 -3 -73 5 -20 10 60 26
520 18 520 -3 0 -8 -96 -11 -212z"/>
<path d="M6506 9258 c-10 -38 -6 -119 9 -188 l14 -65 -7 60 c-4 33 -7 95 -7
138 0 42 0 77 -1 77 -1 0 -4 -10 -8 -22z"/>
<path d="M8913 9085 c0 -38 2 -53 4 -32 2 20 2 52 0 70 -2 17 -4 1 -4 -38z"/>
<path d="M9532 9035 c0 -16 2 -22 5 -12 2 9 2 23 0 30 -3 6 -5 -1 -5 -18z"/>
<path d="M7062 9020 c0 -19 2 -27 5 -17 2 9 2 25 0 35 -3 9 -5 1 -5 -18z"/>
<path d="M6532 8980 c0 -14 2 -19 5 -12 2 6 2 18 0 25 -3 6 -5 1 -5 -13z"/>
<path d="M7046 8940 c-11 -70 -45 -147 -97 -217 -63 -84 -95 -146 -114 -220
-22 -84 -17 -100 6 -20 25 87 49 134 115 225 29 40 62 97 73 125 19 53 38 147
28 147 -2 0 -7 -18 -11 -40z"/>
<path d="M7281 8943 c-1 -6 6 -42 15 -80 8 -37 26 -133 39 -213 13 -80 24
-133 24 -118 2 55 -75 458 -78 411z"/>
<path d="M6033 8908 c125 -68 230 -217 302 -429 19 -57 35 -96 35 -85 0 29
-56 189 -91 258 -67 134 -142 219 -236 267 -66 33 -75 24 -10 -11z"/>
<path d="M10960 8859 c-7 -11 -10 -23 -7 -25 2 -2 9 7 15 21 14 30 7 33 -8 4z"/>
<path d="M8713 8830 c0 -25 2 -35 4 -22 2 12 2 32 0 45 -2 12 -4 2 -4 -23z"/>
<path d="M9642 8720 c0 -14 2 -19 5 -12 2 6 2 18 0 25 -3 6 -5 1 -5 -13z"/>
<path d="M7492 8520 c0 -14 2 -19 5 -12 2 6 2 18 0 25 -3 6 -5 1 -5 -13z"/>
<path d="M7363 8465 c0 -22 2 -30 4 -17 2 12 2 30 0 40 -3 9 -5 -1 -4 -23z"/>
<path d="M7500 8484 c2 -32 38 -234 39 -214 1 29 -28 212 -34 219 -3 2 -5 0
-5 -5z"/>
<path d="M7372 8370 c0 -19 2 -27 5 -17 2 9 2 25 0 35 -3 9 -5 1 -5 -18z"/>
<path d="M6371 8354 c0 -11 3 -14 6 -6 3 7 2 16 -1 19 -3 4 -6 -2 -5 -13z"/>
<path d="M6391 8254 c0 -11 3 -14 6 -6 3 7 2 16 -1 19 -3 4 -6 -2 -5 -13z"/>
<path d="M6402 8205 c0 -16 2 -22 5 -12 2 9 2 23 0 30 -3 6 -5 -1 -5 -18z"/>
<path d="M7542 8210 c0 -14 2 -19 5 -12 2 6 2 18 0 25 -3 6 -5 1 -5 -13z"/>
<path d="M9562 8167 c-58 -152 -144 -260 -245 -308 -34 -16 -55 -29 -47 -29
32 0 121 51 163 93 51 50 108 148 137 233 28 79 21 88 -8 11z"/>
<path d="M6411 8163 c-1 -7 10 -81 23 -165 14 -84 31 -200 38 -258 7 -58 14
-93 16 -79 2 14 -11 120 -28 235 -29 197 -47 294 -49 267z"/>
<path d="M6793 7055 l0 -1010 8 843 c4 464 4 918 0 1010 -5 104 -8 -212 -8
-843z"/>
<path d="M8620 7977 c38 -41 140 -97 174 -96 15 0 10 4 -15 14 -59 21 -117 54
-156 87 l-38 32 35 -37z"/>
<path d="M7392 7890 c-6 -181 -14 -344 -32 -605 -41 -583 -50 -758 -54 -1025
-5 -272 -4 -273 4 -70 12 294 28 575 51 890 23 328 42 753 37 830 -4 50 -4 48
-6 -20z"/>
<path d="M7468 7663 c10 -16 49 -75 87 -133 101 -153 300 -491 350 -595 83
-173 130 -342 234 -860 101 -500 158 -862 206 -1305 8 -80 20 -183 25 -230 l9
-85 -5 100 c-18 369 -110 996 -235 1600 -129 626 -156 701 -369 1055 -95 158
-306 480 -315 480 -3 0 3 -12 13 -27z"/>
<path d="M6493 7595 c0 -22 2 -30 4 -17 2 12 2 30 0 40 -3 9 -5 -1 -4 -23z"/>
<path d="M6502 7510 c0 -14 2 -19 5 -12 2 6 2 18 0 25 -3 6 -5 1 -5 -13z"/>
<path d="M7475 6810 c-12 -889 -11 -2021 3 -2190 l11 -125 -5 135 c-14 450
-16 886 -5 1514 7 391 11 864 9 1051 -3 299 -4 252 -13 -385z"/>
<path d="M9446 6880 c3 -63 13 -216 22 -340 14 -182 17 -351 16 -888 -1 -364
0 -661 1 -660 2 2 8 212 15 468 10 357 10 520 1 700 -13 266 -38 636 -51 755
-8 74 -8 71 -4 -35z"/>
<path d="M7112 6135 c0 -16 2 -22 5 -12 2 9 2 23 0 30 -3 6 -5 -1 -5 -18z"/>
<path d="M7089 5878 c-18 -254 -19 -1130 -1 -1353 42 -522 97 -983 172 -1440
38 -230 121 -657 127 -652 2 3 -12 87 -31 188 -116 604 -205 1281 -252 1919
-22 293 -25 1027 -5 1323 7 109 11 200 8 203 -2 2 -10 -82 -18 -188z"/>
<path d="M7802 6040 c0 -14 2 -19 5 -12 2 6 2 18 0 25 -3 6 -5 1 -5 -13z"/>
<path d="M7812 5965 c0 -16 2 -22 5 -12 2 9 2 23 0 30 -3 6 -5 -1 -5 -18z"/>
<path d="M7293 5910 c0 -36 2 -50 4 -32 2 17 2 47 0 65 -2 17 -4 3 -4 -33z"/>
<path d="M7823 5885 c0 -22 2 -30 4 -17 2 12 2 30 0 40 -3 9 -5 -1 -4 -23z"/>
<path d="M8622 5865 c0 -16 2 -22 5 -12 2 9 2 23 0 30 -3 6 -5 -1 -5 -18z"/>
<path d="M7831 5825 c0 -12 10 -122 24 -245 83 -766 152 -1642 204 -2610 6
-110 8 -131 10 -75 6 345 -105 1806 -204 2695 -26 231 -32 270 -34 235z"/>
<path d="M8636 5765 c2 -38 15 -198 29 -355 65 -753 92 -1377 129 -2940 2 -74
2 104 0 395 -5 695 -30 1376 -75 2040 -20 300 -63 772 -79 873 l-9 57 5 -70z"/>
<path d="M6793 4580 c0 -30 2 -43 4 -27 2 15 2 39 0 55 -2 15 -4 2 -4 -28z"/>
<path d="M6803 4420 c0 -41 2 -58 4 -37 2 20 2 54 0 75 -2 20 -4 3 -4 -38z"/>
<path d="M7493 4420 c0 -36 2 -50 4 -32 2 17 2 47 0 65 -2 17 -4 3 -4 -33z"/>
<path d="M8211 4464 c0 -11 3 -14 6 -6 3 7 2 16 -1 19 -3 4 -6 -2 -5 -13z"/>
<path d="M8222 4385 c0 -16 2 -22 5 -12 2 9 2 23 0 30 -3 6 -5 -1 -5 -18z"/>
<path d="M6812 4299 c-1 -26 9 -228 23 -450 53 -853 85 -1398 105 -1759 26
-495 28 -518 23 -300 -4 191 -22 550 -48 985 -23 381 -94 1485 -98 1530 l-4
40 -1 -46z"/>
<path d="M8233 4305 c0 -22 2 -30 4 -17 2 12 2 30 0 40 -3 9 -5 -1 -4 -23z"/>
<path d="M7503 4285 c0 -22 2 -30 4 -17 2 12 2 30 0 40 -3 9 -5 -1 -4 -23z"/>
<path d="M8241 4248 c0 -9 10 -126 24 -260 64 -635 96 -1209 115 -2058 6 -261
12 -527 14 -590 2 -63 2 117 0 400 -6 827 -36 1435 -104 2115 -23 225 -47 419
-49 393z"/>
<path d="M10771 4244 c0 -11 3 -14 6 -6 3 7 2 16 -1 19 -3 4 -6 -2 -5 -13z"/>
<path d="M10781 4204 c0 -11 3 -14 6 -6 3 7 2 16 -1 19 -3 4 -6 -2 -5 -13z"/>
<path d="M10210 4205 c0 -4 27 -157 60 -339 33 -182 66 -367 74 -411 8 -44 14
-70 15 -57 1 12 -17 127 -38 255 -58 337 -111 604 -111 552z"/>
<path d="M10642 4175 c0 -11 4 -31 8 -45 6 -20 8 -21 8 -5 0 11 -4 31 -8 45
-6 20 -8 21 -8 5z"/>
<path d="M10791 4174 c-1 -6 26 -132 59 -280 169 -753 260 -1293 290 -1714 6
-85 12 -177 14 -205 2 -27 2 22 -1 110 -9 379 -81 862 -229 1535 -67 305 -131
573 -133 554z"/>
<path d="M10661 4084 c0 -11 3 -14 6 -6 3 7 2 16 -1 19 -3 4 -6 -2 -5 -13z"/>
<path d="M10362 3350 c0 -14 2 -19 5 -12 2 6 2 18 0 25 -3 6 -5 1 -5 -13z"/>
<path d="M10632 3170 c0 -14 2 -19 5 -12 2 6 2 18 0 25 -3 6 -5 1 -5 -13z"/>
<path d="M7422 3075 c0 -16 2 -22 5 -12 2 9 2 23 0 30 -3 6 -5 -1 -5 -18z"/>
<path d="M7431 3015 c-3 -68 102 -708 175 -1072 65 -325 164 -766 171 -759 2
2 -21 115 -51 252 -112 509 -203 993 -261 1399 -27 183 -33 216 -34 180z"/>
<path d="M10911 2964 c0 -11 3 -14 6 -6 3 7 2 16 -1 19 -3 4 -6 -2 -5 -13z"/>
<path d="M10232 2915 c0 -16 2 -22 5 -12 2 9 2 23 0 30 -3 6 -5 -1 -5 -18z"/>
<path d="M10922 2910 c0 -14 2 -19 5 -12 2 6 2 18 0 25 -3 6 -5 1 -5 -13z"/>
<path d="M10241 2863 c-2 -36 46 -279 119 -613 68 -311 132 -628 146 -725 4
-27 9 -45 11 -38 8 22 -66 411 -147 778 -44 198 -90 419 -104 490 -13 72 -25
120 -25 108z"/>
<path d="M10932 2845 c0 -16 2 -22 5 -12 2 9 2 23 0 30 -3 6 -5 -1 -5 -18z"/>
<path d="M7781 2834 c0 -11 3 -14 6 -6 3 7 2 16 -1 19 -3 4 -6 -2 -5 -13z"/>
<path d="M8074 2710 c0 -58 1 -81 3 -52 2 28 2 76 0 105 -2 28 -3 5 -3 -53z"/>
<path d="M10942 2785 c0 -16 2 -22 5 -12 2 9 2 23 0 30 -3 6 -5 -1 -5 -18z"/>
<path d="M7792 2740 c0 -19 2 -27 5 -17 2 9 2 25 0 35 -3 9 -5 1 -5 -18z"/>
<path d="M10954 2705 c72 -543 87 -715 96 -1075 l8 -305 -3 335 c-2 256 -8
380 -24 525 -25 227 -71 558 -78 565 -3 3 -3 -17 1 -45z"/>
<path d="M7803 2650 c0 -25 2 -35 4 -22 2 12 2 32 0 45 -2 12 -4 2 -4 -23z"/>
<path d="M7811 2575 c-4 -125 178 -1347 204 -1374 8 -7 6 10 -15 119 -54 283
-104 609 -155 1020 -18 146 -33 251 -34 235z"/>
<path d="M8083 2480 c0 -30 2 -43 4 -27 2 15 2 39 0 55 -2 15 -4 2 -4 -28z"/>
<path d="M7392 2400 c0 -14 2 -19 5 -12 2 6 2 18 0 25 -3 6 -5 1 -5 -13z"/>
<path d="M7401 2354 c0 -11 3 -14 6 -6 3 7 2 16 -1 19 -3 4 -6 -2 -5 -13z"/>
<path d="M7411 2304 c0 -11 3 -14 6 -6 3 7 2 16 -1 19 -3 4 -6 -2 -5 -13z"/>
<path d="M10121 2110 c-6 -80 122 -822 168 -975 19 -62 9 -4 -43 264 -30 152
-66 355 -81 451 -34 227 -42 278 -44 260z"/>
<path d="M10722 1525 c0 -16 2 -22 5 -12 2 9 2 23 0 30 -3 6 -5 -1 -5 -18z"/>
<path d="M10732 1460 c0 -19 2 -27 5 -17 2 9 2 25 0 35 -3 9 -5 1 -5 -18z"/>
<path d="M10522 1445 c0 -16 2 -22 5 -12 2 9 2 23 0 30 -3 6 -5 -1 -5 -18z"/>
<path d="M10742 1390 c0 -19 2 -27 5 -17 2 9 2 25 0 35 -3 9 -5 1 -5 -18z"/>
<path d="M10532 1390 c0 -14 2 -19 5 -12 2 6 2 18 0 25 -3 6 -5 1 -5 -13z"/>
<path d="M10541 1334 c0 -11 3 -14 6 -6 3 7 2 16 -1 19 -3 4 -6 -2 -5 -13z"/>
<path d="M10752 1330 c0 -14 3 -45 7 -70 6 -34 9 -37 9 -15 1 17 -3 48 -7 70
-6 25 -9 31 -9 15z"/>
<path d="M10773 1175 c0 -22 2 -30 4 -17 2 12 2 30 0 40 -3 9 -5 -1 -4 -23z"/>
<path d="M8022 1170 c0 -14 2 -19 5 -12 2 6 2 18 0 25 -3 6 -5 1 -5 -13z"/>
<path d="M7781 1154 c0 -11 3 -14 6 -6 3 7 2 16 -1 19 -3 4 -6 -2 -5 -13z"/>
<path d="M5632 1130 c0 -14 2 -19 5 -12 2 6 2 18 0 25 -3 6 -5 1 -5 -13z"/>
<path d="M11252 1120 c0 -14 2 -19 5 -12 2 6 2 18 0 25 -3 6 -5 1 -5 -13z"/>
<path d="M8031 1114 c0 -11 3 -14 6 -6 3 7 2 16 -1 19 -3 4 -6 -2 -5 -13z"/>
<path d="M10782 1100 c0 -19 2 -27 5 -17 2 9 2 25 0 35 -3 9 -5 1 -5 -18z"/>
<path d="M10301 1084 c0 -11 3 -14 6 -6 3 7 2 16 -1 19 -3 4 -6 -2 -5 -13z"/>
<path d="M5641 1074 c0 -11 3 -14 6 -6 3 7 2 16 -1 19 -3 4 -6 -2 -5 -13z"/>
<path d="M11772 1010 c0 -14 2 -19 5 -12 2 6 2 18 0 25 -3 6 -5 1 -5 -13z"/>
</g>
</svg>
