<?xml version="1.0" standalone="no"?>
<!DOCTYPE svg PUBLIC "-//W3C//DTD SVG 20010904//EN"
 "http://www.w3.org/TR/2001/REC-SVG-20010904/DTD/svg10.dtd">
<svg version="1.0" xmlns="http://www.w3.org/2000/svg"
 width="1792.000000pt" height="2400.000000pt" viewBox="0 0 1792.000000 2400.000000"
 preserveAspectRatio="xMidYMid meet">

<g transform="translate(0.000000,2400.000000) scale(0.100000,-0.100000)"
fill="#000000" stroke="none">
<path d="M12512 22753 c-287 -1994 -630 -3921 -962 -5413 -79 -356 -133 -676
-165 -970 -35 -325 -30 -774 15 -1450 32 -475 40 -649 55 -1305 29 -1233 30
-1241 256 -2495 132 -735 189 -1105 229 -1490 78 -766 87 -1504 24 -2190 -45
-498 -135 -1027 -304 -1801 -171 -776 -171 -778 -505 -2674 -35 -198 -98 -551
-139 -785 -90 -511 -196 -1140 -196 -1169 0 -14 6 -21 18 -21 17 0 23 27 56
228 57 346 206 1187 542 3077 81 454 134 716 244 1220 304 1386 380 2018 367
3035 -10 751 -71 1351 -223 2205 -191 1068 -238 1350 -264 1585 -27 249 -47
680 -60 1300 -12 537 -23 813 -50 1205 -35 511 -43 736 -37 1093 5 339 13 436
53 702 18 121 109 590 160 825 258 1181 536 2683 704 3800 59 393 181 1328
206 1568 11 118 -2 72 -24 -80z"/>
<path d="M5381 22727 c-1 -204 12 -497 49 -1032 41 -580 80 -932 189 -1675
235 -1602 254 -1872 281 -4095 11 -889 25 -1213 71 -1675 61 -618 130 -960
359 -1785 205 -738 245 -961 244 -1365 -1 -275 -21 -538 -75 -1005 -206 -1790
-248 -2324 -236 -3050 10 -563 47 -973 138 -1495 70 -405 135 -681 279 -1190
151 -536 234 -868 275 -1110 49 -283 94 -745 175 -1800 36 -468 35 -460 60
-460 17 0 19 5 15 43 -3 23 -12 137 -20 252 -26 356 -105 1332 -120 1485 -52
503 -114 796 -345 1615 -109 386 -162 596 -209 828 -102 499 -164 966 -192
1448 -13 239 -7 1095 10 1314 45 574 102 1145 181 1815 103 870 130 1314 100
1610 -27 264 -105 614 -250 1125 -265 934 -354 1498 -400 2525 -5 124 -14 632
-20 1130 -20 1799 -51 2304 -206 3360 -103 700 -174 1224 -204 1490 -38 346
-114 1273 -138 1705 l-9 150 -2 -158z"/>
<path d="M5951 22633 c-41 -345 -42 -939 -1 -1473 34 -441 88 -938 160 -1475
120 -897 140 -1189 144 -2130 2 -357 9 -733 15 -835 22 -370 61 -824 106
-1260 42 -397 72 -802 90 -1170 35 -758 52 -954 121 -1365 30 -180 70 -372
130 -635 130 -562 234 -1163 234 -1346 0 -38 -23 -181 -55 -346 -393 -1994
-372 -3884 60 -5255 67 -212 114 -462 269 -1444 85 -531 157 -1053 271 -1964
99 -787 118 -928 123 -898 11 70 -126 1303 -224 2013 -63 459 -247 1608 -289
1810 -20 94 -18 106 6 45 54 -133 164 -386 231 -530 70 -150 76 -167 87 -265
7 -58 35 -238 63 -400 120 -704 157 -914 157 -897 2 29 -48 350 -85 552 -50
275 -135 797 -131 808 8 24 100 -216 173 -448 43 -139 97 -470 218 -1345 13
-96 24 -164 25 -151 2 51 -79 658 -134 994 -41 259 -29 228 60 -148 128 -545
237 -1241 285 -1830 20 -240 22 -255 32 -255 23 0 -5 432 -53 825 -96 793
-306 1733 -495 2219 -7 19 -6 19 24 -2 180 -129 441 -8 680 317 129 174 331
509 444 736 140 279 234 581 284 915 l9 55 6 -55 c5 -47 6 -40 7 41 1 53 6
141 12 195 18 184 40 712 51 1248 12 544 2 1502 -21 2026 -21 473 -40 867 -45
912 -15 129 43 545 114 818 112 435 257 803 613 1553 288 610 386 841 471
1117 81 263 143 575 155 785 l7 110 28 -60 c100 -210 221 -561 219 -630 -1
-22 2 -34 7 -27 4 7 19 -37 35 -106 l28 -117 -20 -135 c-39 -251 -47 -377 -46
-680 1 -290 16 -528 50 -790 27 -208 132 -838 208 -1247 215 -1147 271 -1649
270 -2403 0 -699 -58 -1212 -200 -1785 -167 -675 -409 -1234 -802 -1855 l-60
-95 -53 -7 c-73 -11 -292 12 -304 31 -2 4 19 68 46 142 136 365 275 823 364
1199 57 240 138 646 133 662 -2 5 -21 -80 -42 -189 -103 -527 -259 -1088 -458
-1645 l-60 -167 -37 15 c-136 57 -257 158 -408 342 l-85 103 -1 127 -1 127 -3
-118 c-2 -64 -6 -117 -10 -117 -4 0 -15 8 -27 17 -33 29 79 -128 165 -230 105
-127 186 -198 278 -246 207 -107 444 -118 704 -30 49 16 116 45 150 65 59 34
252 178 263 195 3 5 -58 -34 -135 -85 -85 -58 -170 -106 -218 -124 -77 -29
-222 -67 -230 -59 -2 2 21 35 50 73 108 139 244 367 376 631 259 520 453 1137
556 1775 103 639 122 1385 54 2123 -37 408 -134 1034 -270 1744 -10 57 -18
106 -16 108 2 2 27 -65 55 -149 28 -84 71 -211 96 -283 56 -160 184 -596 237
-802 53 -208 122 -558 153 -778 92 -647 96 -1355 10 -1960 -57 -403 -115 -692
-199 -985 -122 -424 -230 -688 -520 -1280 -236 -483 -301 -625 -398 -875 -247
-636 -448 -1482 -556 -2340 -54 -423 -88 -916 -62 -890 5 6 26 172 46 370 138
1366 388 2392 800 3285 75 163 91 187 69 109 -35 -132 -128 -571 -183 -869
-71 -386 -174 -991 -168 -996 2 -2 20 92 41 209 144 814 217 1192 301 1556
l55 233 112 224 c62 122 113 222 115 221 1 -1 -12 -63 -28 -137 -49 -223 -163
-793 -233 -1160 -109 -579 -236 -1269 -235 -1283 2 -23 29 116 140 703 131
697 302 1559 357 1795 32 137 55 205 115 346 70 163 169 428 198 527 24 81 18
35 -17 -144 -19 -98 -118 -645 -219 -1214 -102 -569 -217 -1208 -255 -1420
-128 -708 -254 -1466 -310 -1865 -11 -82 -32 -215 -46 -294 -14 -79 -23 -145
-21 -147 12 -12 74 315 213 1126 58 338 159 914 225 1280 225 1251 466 2593
513 2865 19 110 48 256 65 325 122 511 191 1114 191 1680 0 472 -33 825 -125
1340 -70 395 -126 815 -177 1320 -7 69 -12 208 -12 310 1 192 11 279 60 525
34 174 43 419 20 551 -8 50 -47 183 -86 295 l-70 203 -10 160 c-6 89 -17 229
-25 311 -7 83 -16 319 -19 525 -3 206 -10 519 -16 695 -5 176 -14 502 -20 725
-34 1308 -49 1491 -225 2719 -160 1120 -199 1550 -171 1887 54 636 41 1217
-40 1903 -36 306 -146 932 -161 917 -2 -2 10 -82 26 -177 87 -499 138 -997
162 -1559 25 -608 -25 -1226 -181 -2235 -88 -568 -115 -812 -132 -1187 -28
-638 29 -1067 252 -1913 132 -499 285 -1113 335 -1350 133 -622 196 -1121 198
-1577 1 -130 5 -229 9 -220 4 9 7 46 8 82 1 36 5 87 8 114 l7 50 47 -140 c70
-209 73 -226 72 -439 0 -177 -3 -203 -37 -370 -51 -259 -61 -359 -54 -580 5
-171 40 -522 82 -829 8 -60 13 -111 12 -113 -2 -2 -16 45 -32 104 -15 60 -59
206 -96 326 -38 120 -69 224 -69 231 0 6 -9 29 -19 50 -26 50 -162 467 -207
636 -46 169 -97 437 -123 645 -43 342 -42 378 20 452 22 26 56 80 75 118 l35
70 -4 -80 c-3 -54 -17 -118 -41 -195 -50 -159 -44 -163 10 -5 l43 130 2 -65
c0 -36 4 -90 9 -120 12 -87 12 264 0 416 -22 284 -98 738 -176 1052 -112 455
-268 823 -561 1322 -340 580 -504 911 -674 1366 -257 689 -422 1435 -503 2274
-56 572 -66 880 -75 2338 -6 838 -13 1328 -19 1334 -13 13 -27 -1851 -18
-2362 9 -510 35 -992 75 -1388 l17 -173 -27 -189 c-15 -105 -40 -250 -54 -323
-159 -797 -525 -1692 -997 -2432 -193 -303 -331 -570 -441 -850 -327 -835
-412 -1916 -200 -2558 l36 -108 -22 -142 c-26 -164 -68 -388 -75 -394 -7 -7
-99 287 -140 447 -146 566 -182 861 -173 1427 6 368 16 509 71 1033 64 600 98
1004 117 1405 15 313 7 967 -15 1240 -16 195 -87 849 -147 1350 -92 777 -115
1135 -106 1685 12 694 83 1438 213 2211 13 81 24 153 23 160 -1 24 -38 -147
-75 -345 -19 -104 -55 -256 -79 -336 -96 -315 -174 -629 -249 -997 -117 -572
-151 -881 -191 -1733 -8 -179 -21 -428 -29 -555 -23 -359 -28 -512 -16 -495 5
8 10 42 10 75 0 33 7 148 15 255 20 272 33 494 50 865 37 797 83 1158 226
1802 71 321 206 842 208 807 1 -6 -8 -69 -19 -140 -19 -125 -58 -458 -80 -677
-60 -597 -65 -1335 -14 -1927 17 -195 21 -236 99 -920 31 -267 67 -587 80
-711 83 -763 84 -1414 4 -2318 l-21 -233 -33 -47 c-50 -70 -102 -181 -129
-275 -68 -232 -55 -582 30 -817 14 -39 23 -78 19 -87 -12 -33 -5 -676 9 -832
33 -353 127 -776 261 -1170 37 -107 67 -202 68 -211 0 -8 -33 -167 -74 -352
l-74 -338 -12 113 c-31 290 -108 724 -223 1253 -166 761 -191 966 -240 1975
-25 520 -33 633 -75 1060 -117 1177 -135 1484 -135 2275 0 840 -22 1126 -179
2330 -130 990 -186 1919 -151 2515 6 116 10 214 7 216 -2 2 -9 -40 -16 -93z
m4664 -3428 c32 -357 79 -731 170 -1366 150 -1046 169 -1280 205 -2564 13
-463 28 -929 40 -1284 6 -151 9 -275 7 -277 -2 -2 -18 83 -35 189 -59 350
-191 923 -386 1683 -216 842 -254 1071 -263 1606 -6 326 4 537 38 843 20 186
107 806 113 812 2 2 7 -31 11 -74 10 -114 45 -317 134 -788 44 -231 91 -496
105 -590 41 -266 44 -282 45 -255 2 65 -69 497 -168 1020 -118 616 -126 706
-92 935 11 77 27 196 36 265 8 68 16 127 17 130 1 3 3 -22 5 -55 2 -33 10
-136 18 -230z m-1655 -785 c79 -523 192 -997 350 -1470 185 -553 384 -977 759
-1615 68 -115 152 -264 187 -331 l64 -121 0 -89 c0 -238 -97 -687 -226 -1051
l-57 -163 -35 -6 c-48 -9 -206 3 -278 21 -32 8 -102 36 -154 62 -128 62 -205
139 -260 257 -30 62 -53 96 -91 130 -177 159 -441 166 -626 17 -63 -51 -137
-147 -169 -219 -81 -183 -222 -313 -401 -369 -46 -14 -86 -23 -89 -20 -3 3
-27 81 -54 174 -147 517 -220 1036 -220 1564 l0 225 93 155 c52 85 130 210
174 279 218 342 474 860 633 1285 196 521 312 961 365 1383 4 29 8 52 10 50 2
-2 13 -68 25 -148z m-1337 -3197 c-6 -134 10 -472 33 -673 76 -670 246 -1248
586 -1994 332 -727 379 -836 470 -1089 158 -441 219 -722 243 -1127 47 -788
65 -1416 65 -2254 0 -685 -8 -1026 -35 -1562 -27 -518 -86 -852 -205 -1159
-56 -142 -203 -431 -218 -427 -7 1 -12 -7 -12 -19 0 -18 -109 -214 -115 -207
-1 2 3 75 11 163 29 360 36 532 39 1000 l3 490 -8 -430 c-7 -405 -18 -654 -40
-980 -20 -283 -16 -265 -84 -373 -247 -395 -445 -572 -639 -572 -56 0 -132 30
-179 72 -26 23 -236 467 -346 733 -298 718 -466 1515 -522 2479 -13 226 -13
872 0 1121 49 946 149 1654 390 2750 215 980 255 1258 255 1765 0 364 -25 589
-102 917 -31 135 -32 159 -7 274 21 100 15 118 84 -226 93 -461 115 -675 115
-1110 -1 -473 -23 -700 -165 -1700 -114 -800 -148 -1097 -169 -1470 -16 -282
-21 -530 -12 -725 7 -176 8 -169 9 162 3 626 31 941 173 1933 135 949 160
1172 179 1595 22 477 -19 874 -151 1477 l-40 182 37 148 c20 81 39 154 44 162
9 16 9 16 76 -324 24 -121 42 -195 39 -165 -7 65 -81 450 -96 498 -9 28 -4 51
36 173 26 77 49 138 52 135 3 -3 16 -76 28 -163 28 -192 56 -346 62 -340 2 3
-7 71 -21 153 -14 82 -32 205 -42 273 l-16 123 43 102 c40 94 44 99 50 71 6
-25 7 -23 7 15 -1 33 11 71 45 143 25 53 48 97 51 97 3 0 2 -53 -1 -117z
m-768 -523 c-19 -183 -40 -405 -46 -494 -16 -228 -19 -232 -50 -80 -13 66 -22
157 -26 274 -6 195 7 301 53 439 25 75 92 207 100 198 3 -2 -11 -154 -31 -337z
m2163 -584 c121 -33 207 -106 264 -225 47 -99 134 -193 230 -250 122 -71 335
-121 455 -107 l53 6 -19 -47 -19 -48 -53 -3 c-173 -10 -454 85 -674 228 -97
63 -246 211 -341 340 -39 52 -74 101 -78 108 -10 17 113 16 182 -2z m-138 -98
c82 -128 255 -310 359 -379 103 -69 255 -141 381 -183 108 -36 272 -63 317
-51 22 5 24 3 17 -17 -4 -13 -102 -223 -219 -468 -313 -655 -422 -907 -534
-1231 -115 -333 -173 -561 -216 -849 l-21 -145 -18 95 c-44 245 -150 594 -275
910 -34 85 -66 164 -71 175 -5 11 -56 124 -114 250 -57 127 -136 300 -176 385
-165 356 -340 795 -324 809 5 4 36 15 69 24 96 25 182 68 305 152 142 96 186
116 280 122 113 8 123 1 180 -120 60 -125 65 -112 9 26 -67 163 -147 302 -216
375 -69 74 -69 75 3 133 47 38 151 89 179 88 14 0 39 -30 85 -101z m-274 -156
c39 -49 134 -196 134 -206 0 -3 -35 -4 -77 -4 -104 0 -168 -24 -298 -111 -129
-88 -217 -133 -318 -162 -68 -20 -79 -21 -87 -9 -19 30 -11 48 27 55 65 12
140 45 215 94 108 71 181 156 248 291 17 36 41 79 53 97 27 39 40 33 103 -45z
m-1407 -138 c16 -82 32 -171 35 -197 l7 -48 -55 37 -56 37 5 51 c3 28 10 95
15 148 6 54 10 105 10 114 0 42 13 -4 39 -142z m3532 -152 c12 -67 20 -124 18
-126 -8 -8 -89 18 -89 29 0 6 7 65 15 130 8 66 15 125 16 130 2 23 19 -47 40
-163z m-3515 -114 c29 -17 32 -24 38 -86 4 -37 9 -87 12 -112 l5 -46 -69 -22
c-37 -12 -71 -22 -75 -22 -9 0 -9 115 0 243 l6 97 25 -16 c14 -9 40 -25 58
-36z m3497 -44 c36 -12 47 -21 51 -42 14 -71 37 -216 46 -299 10 -89 9 -94
-20 -175 -19 -53 -47 -105 -77 -143 l-47 -60 -9 35 c-11 44 -15 670 -4 688 10
15 4 15 60 -4z m-3438 -549 c-5 -190 -28 -491 -38 -501 -2 -2 -20 62 -40 143
-41 164 -64 339 -69 513 l-3 114 70 22 70 22 8 -57 c5 -31 6 -146 2 -256z
m412 -9447 c-3 -8 -6 -5 -6 6 -1 11 2 17 5 13 3 -3 4 -12 1 -19z"/>
<path d="M10440 17886 c0 -4 15 -69 34 -144 116 -461 197 -1017 285 -1957 10
-110 19 -183 20 -162 2 78 -67 780 -114 1152 -46 363 -104 676 -176 955 -35
136 -49 180 -49 156z"/>
<path d="M10802 17075 c0 -16 2 -22 5 -12 2 9 2 23 0 30 -3 6 -5 -1 -5 -18z"/>
<path d="M10701 17024 c0 -11 3 -14 6 -6 3 7 2 16 -1 19 -3 4 -6 -2 -5 -13z"/>
<path d="M10712 16965 c0 -16 2 -22 5 -12 2 9 2 23 0 30 -3 6 -5 -1 -5 -18z"/>
<path d="M10725 16890 c3 -25 20 -169 39 -320 51 -399 94 -884 145 -1650 10
-151 19 -254 20 -228 1 54 -22 460 -44 763 -33 452 -63 756 -106 1095 -26 209
-66 456 -54 340z"/>
<path d="M10783 15515 c0 -33 2 -45 4 -27 2 18 2 45 0 60 -2 15 -4 0 -4 -33z"/>
<path d="M10792 15360 c0 -14 2 -19 5 -12 2 6 2 18 0 25 -3 6 -5 1 -5 -13z"/>
<path d="M10933 14570 c0 -36 2 -50 4 -32 2 17 2 47 0 65 -2 17 -4 3 -4 -33z"/>
<path d="M10941 14384 c0 -11 3 -14 6 -6 3 7 2 16 -1 19 -3 4 -6 -2 -5 -13z"/>
<path d="M8725 15823 c-31 -84 -126 -262 -168 -316 -22 -29 -30 -43 -18 -32
42 36 120 167 167 278 25 60 44 111 41 113 -2 2 -12 -17 -22 -43z"/>
<path d="M9650 15259 c-163 -43 -254 -111 -311 -232 -55 -119 -57 -244 -7
-442 33 -134 32 -303 -5 -449 -15 -60 -26 -111 -24 -113 8 -7 56 195 66 275
12 93 4 178 -29 317 -48 200 -36 337 41 455 63 98 152 148 344 194 40 10 50
14 30 15 -16 0 -64 -9 -105 -20z"/>
<path d="M7805 15210 c-16 -4 15 -5 70 -2 115 5 237 -14 323 -53 62 -28 70
-24 11 5 -98 50 -302 76 -404 50z"/>
<path d="M7700 15190 c-23 -4 -30 -9 -20 -13 8 -4 33 0 55 8 42 15 25 17 -35
5z"/>
<path d="M8290 15095 c19 -19 36 -35 39 -35 3 0 -10 16 -29 35 -19 19 -36 35
-39 35 -3 0 10 -16 29 -35z"/>
<path d="M8410 15117 c0 -12 220 -167 277 -196 83 -41 183 -64 247 -56 62 8
163 54 196 91 20 21 14 19 -23 -10 -66 -49 -141 -70 -236 -64 -94 6 -206 55
-326 145 -95 70 -135 97 -135 90z"/>
<path d="M8432 14622 c-25 -78 -36 -218 -24 -299 12 -79 31 -158 37 -151 1 1
-3 32 -11 68 -18 86 -18 251 1 341 17 79 15 100 -3 41z"/>
<path d="M7531 15034 c-2 -37 38 -463 55 -584 92 -691 230 -1174 594 -2085
227 -567 316 -824 402 -1160 32 -126 56 -212 53 -190 -13 90 -101 421 -155
585 -70 214 -136 388 -320 855 -175 443 -263 689 -334 933 -148 505 -217 885
-271 1472 -16 169 -23 219 -24 174z"/>
<path d="M7511 14324 c0 -11 3 -14 6 -6 3 7 2 16 -1 19 -3 4 -6 -2 -5 -13z"/>
<path d="M7432 13980 c0 -14 2 -19 5 -12 2 6 2 18 0 25 -3 6 -5 1 -5 -13z"/>
<path d="M7844 12995 c2 -11 33 -122 70 -246 307 -1060 470 -2139 525 -3494 6
-155 8 -169 9 -80 3 194 -22 653 -59 1070 -77 891 -239 1767 -463 2506 -59
195 -94 297 -82 244z"/>
<path d="M7531 12974 c0 -11 3 -14 6 -6 3 7 2 16 -1 19 -3 4 -6 -2 -5 -13z"/>
<path d="M7543 12840 c0 -36 2 -50 4 -32 2 17 2 47 0 65 -2 17 -4 3 -4 -33z"/>
<path d="M7547 12425 c-7 -367 -10 -422 -62 -1005 -75 -833 -83 -961 -95
-1358 -13 -467 9 -1056 55 -1487 31 -295 39 -358 42 -348 2 6 -7 125 -21 264
-48 485 -66 821 -66 1269 0 446 14 693 81 1435 21 242 46 521 55 620 14 168
32 886 22 930 -2 11 -7 -133 -11 -320z"/>
<path d="M8654 11265 c2 -11 20 -76 39 -145 78 -280 167 -741 219 -1125 7 -55
14 -90 16 -79 4 28 -50 400 -93 640 -38 211 -120 550 -160 659 -14 39 -23 61
-21 50z"/>
<path d="M8642 10950 c0 -14 2 -19 5 -12 2 6 2 18 0 25 -3 6 -5 1 -5 -13z"/>
<path d="M8651 10904 c0 -11 3 -14 6 -6 3 7 2 16 -1 19 -3 4 -6 -2 -5 -13z"/>
<path d="M8691 10194 c0 -11 3 -14 6 -6 3 7 2 16 -1 19 -3 4 -6 -2 -5 -13z"/>
<path d="M8702 10125 c0 -16 2 -22 5 -12 2 9 2 23 0 30 -3 6 -5 -1 -5 -18z"/>
<path d="M8711 10069 c-1 -8 8 -78 18 -155 66 -472 120 -1104 141 -1644 28
-740 -13 -1741 -105 -2553 -24 -207 -32 -326 -14 -207 38 263 89 817 116 1270
25 428 25 1519 0 1880 -35 500 -67 825 -118 1190 -29 208 -37 253 -38 219z"/>
<path d="M8931 9854 c0 -11 3 -14 6 -6 3 7 2 16 -1 19 -3 4 -6 -2 -5 -13z"/>
<path d="M6902 9740 c0 -14 2 -19 5 -12 2 6 2 18 0 25 -3 6 -5 1 -5 -13z"/>
<path d="M6893 9645 c0 -22 2 -30 4 -17 2 12 2 30 0 40 -3 9 -5 -1 -4 -23z"/>
<path d="M6883 9555 c0 -27 2 -38 4 -22 2 15 2 37 0 50 -2 12 -4 0 -4 -28z"/>
<path d="M6873 9450 c0 -30 2 -43 4 -27 2 15 2 39 0 55 -2 15 -4 2 -4 -28z"/>
<path d="M6856 9293 c-4 -54 -11 -156 -17 -228 -27 -369 -21 -1285 11 -1605
10 -95 9 -74 -10 380 -18 414 -10 918 21 1373 6 92 9 170 6 173 -2 3 -7 -39
-11 -93z"/>
<path d="M8454 8935 c0 -71 1 -99 3 -62 2 37 2 96 0 130 -2 34 -3 4 -3 -68z"/>
<path d="M7863 8675 c0 -22 2 -30 4 -17 2 12 2 30 0 40 -3 9 -5 -1 -4 -23z"/>
<path d="M7873 8500 c0 -36 2 -50 4 -32 2 17 2 47 0 65 -2 17 -4 3 -4 -33z"/>
<path d="M7883 8355 c0 -33 2 -45 4 -27 2 18 2 45 0 60 -2 15 -4 0 -4 -33z"/>
<path d="M7893 8225 c0 -33 2 -45 4 -27 2 18 2 45 0 60 -2 15 -4 0 -4 -33z"/>
<path d="M8675 7405 c0 -980 -8 -1170 -90 -2095 -14 -151 -24 -295 -24 -320 3
-133 100 1046 119 1455 11 224 11 1393 1 1660 -3 88 -6 -227 -6 -700z"/>
<path d="M7493 8175 c0 -22 2 -30 4 -17 2 12 2 30 0 40 -3 9 -5 -1 -4 -23z"/>
<path d="M7902 8125 c-2 -54 31 -403 73 -780 107 -940 126 -1109 145 -1310 43
-465 67 -879 79 -1365 l8 -305 1 235 c5 623 -43 1229 -202 2595 -30 259 -64
567 -75 685 -30 314 -28 293 -29 245z"/>
<path d="M7502 8100 c0 -19 2 -27 5 -17 2 9 2 25 0 35 -3 9 -5 1 -5 -18z"/>
<path d="M7512 8025 c0 -16 2 -22 5 -12 2 9 2 23 0 30 -3 6 -5 -1 -5 -18z"/>
<path d="M7521 7954 c0 -11 3 -14 6 -6 3 7 2 16 -1 19 -3 4 -6 -2 -5 -13z"/>
<path d="M6863 7320 c0 -30 2 -43 4 -27 2 15 2 39 0 55 -2 15 -4 2 -4 -28z"/>
<path d="M7131 6644 c0 -11 3 -14 6 -6 3 7 2 16 -1 19 -3 4 -6 -2 -5 -13z"/>
<path d="M7141 6584 c0 -11 3 -14 6 -6 3 7 2 16 -1 19 -3 4 -6 -2 -5 -13z"/>
<path d="M6931 6564 c0 -11 3 -14 6 -6 3 7 2 16 -1 19 -3 4 -6 -2 -5 -13z"/>
<path d="M7151 6524 c0 -11 3 -14 6 -6 3 7 2 16 -1 19 -3 4 -6 -2 -5 -13z"/>
<path d="M6942 6505 c0 -16 2 -22 5 -12 2 9 2 23 0 30 -3 6 -5 -1 -5 -18z"/>
<path d="M7602 6505 c0 -16 2 -22 5 -12 2 9 2 23 0 30 -3 6 -5 -1 -5 -18z"/>
<path d="M7162 6470 c0 -14 2 -19 5 -12 2 6 2 18 0 25 -3 6 -5 1 -5 -13z"/>
<path d="M6951 6460 c-1 -24 56 -307 94 -467 104 -432 265 -919 455 -1373 84
-200 250 -553 257 -546 2 2 -16 44 -40 92 -100 200 -253 564 -370 884 -151
411 -264 806 -357 1245 -21 99 -39 173 -39 165z"/>
<path d="M7612 6430 c0 -19 2 -27 5 -17 2 9 2 25 0 35 -3 9 -5 1 -5 -18z"/>
<path d="M7171 6414 c0 -11 3 -14 6 -6 3 7 2 16 -1 19 -3 4 -6 -2 -5 -13z"/>
<path d="M7182 6370 c0 -14 2 -19 5 -12 2 6 2 18 0 25 -3 6 -5 1 -5 -13z"/>
<path d="M7623 6355 c0 -22 2 -30 4 -17 2 12 2 30 0 40 -3 9 -5 -1 -4 -23z"/>
<path d="M7192 6320 c0 -14 2 -19 5 -12 2 6 2 18 0 25 -3 6 -5 1 -5 -13z"/>
<path d="M7636 6250 c9 -115 93 -696 144 -995 60 -354 178 -940 187 -931 3 2
-23 138 -56 302 -76 377 -128 674 -180 1024 -84 560 -100 664 -95 600z"/>
<path d="M7202 6275 c0 -11 4 -31 8 -45 6 -20 8 -21 8 -5 0 11 -4 31 -8 45 -6
20 -8 21 -8 5z"/>
<path d="M7221 6192 c-4 -60 250 -947 395 -1382 90 -269 234 -663 241 -657 2
2 -28 89 -65 193 -191 526 -388 1160 -527 1694 -24 91 -44 159 -44 152z"/>
<path d="M8733 5415 c0 -22 2 -30 4 -17 2 12 2 30 0 40 -3 9 -5 -1 -4 -23z"/>
<path d="M8723 5335 c0 -22 2 -30 4 -17 2 12 2 30 0 40 -3 9 -5 -1 -4 -23z"/>
<path d="M7971 4294 c0 -11 3 -14 6 -6 3 7 2 16 -1 19 -3 4 -6 -2 -5 -13z"/>
<path d="M8705 13850 c10 -11 20 -20 23 -20 3 0 -3 9 -13 20 -10 11 -20 20
-23 20 -3 0 3 -9 13 -20z"/>
<path d="M8730 13816 c0 -2 8 -10 18 -17 15 -13 16 -12 3 4 -13 16 -21 21 -21
13z"/>
<path d="M8801 13723 c44 -61 68 -89 54 -63 -15 26 -85 120 -91 120 -2 0 14
-26 37 -57z"/>
<path d="M8839 13562 c16 -32 44 -99 61 -150 18 -51 35 -91 37 -88 12 12 -105
296 -122 296 -3 0 8 -26 24 -58z"/>
<path d="M8910 13560 c6 -11 13 -20 16 -20 2 0 0 9 -6 20 -6 11 -13 20 -16 20
-2 0 0 -9 6 -20z"/>
<path d="M8549 13503 c-58 -153 -193 -272 -405 -354 -94 -37 -98 -50 -7 -24
210 61 388 214 421 363 11 48 7 55 -9 15z"/>
<path d="M8945 13500 c9 -16 18 -30 21 -30 2 0 -2 14 -11 30 -9 17 -18 30 -21
30 -2 0 2 -13 11 -30z"/>
<path d="M8997 13405 c15 -30 29 -53 31 -51 4 5 -46 106 -53 106 -3 0 7 -25
22 -55z"/>
<path d="M9375 13326 c33 -8 106 -28 161 -44 55 -17 127 -33 160 -36 l59 -6
-62 14 c-34 8 -110 28 -170 45 -59 17 -130 33 -158 36 l-50 5 60 -14z"/>
<path d="M9040 13095 c0 -8 223 -117 279 -136 82 -28 86 -22 6 10 -38 15 -108
47 -154 70 -90 46 -131 63 -131 56z"/>
<path d="M8819 12285 c-52 -27 -109 -86 -138 -142 -22 -44 -65 -182 -59 -189
3 -2 12 23 22 57 36 131 108 229 200 273 28 14 44 25 36 25 -8 0 -36 -11 -61
-24z"/>
<path d="M8611 11914 c0 -11 3 -14 6 -6 3 7 2 16 -1 19 -3 4 -6 -2 -5 -13z"/>
<path d="M10282 22610 c0 -14 2 -19 5 -12 2 6 2 18 0 25 -3 6 -5 1 -5 -13z"/>
<path d="M6371 22564 c0 -11 3 -14 6 -6 3 7 2 16 -1 19 -3 4 -6 -2 -5 -13z"/>
<path d="M7591 22564 c0 -11 3 -14 6 -6 3 7 2 16 -1 19 -3 4 -6 -2 -5 -13z"/>
<path d="M10290 22563 c0 -6 11 -78 25 -159 73 -447 131 -1026 148 -1479 3
-72 3 -70 5 26 4 199 -33 662 -83 1059 -34 263 -95 619 -95 553z"/>
<path d="M7061 22524 c0 -11 3 -14 6 -6 3 7 2 16 -1 19 -3 4 -6 -2 -5 -13z"/>
<path d="M6362 22495 c0 -16 2 -22 5 -12 2 9 2 23 0 30 -3 6 -5 -1 -5 -18z"/>
<path d="M10092 22500 c0 -14 2 -19 5 -12 2 6 2 18 0 25 -3 6 -5 1 -5 -13z"/>
<path d="M7582 22480 c0 -19 2 -27 5 -17 2 9 2 25 0 35 -3 9 -5 1 -5 -18z"/>
<path d="M7052 22470 c0 -14 2 -19 5 -12 2 6 2 18 0 25 -3 6 -5 1 -5 -13z"/>
<path d="M6336 22313 c-55 -486 -59 -923 -15 -1406 7 -70 14 -125 16 -123 3 2
-3 98 -13 213 -31 382 -23 904 22 1311 9 79 14 145 11 148 -2 2 -12 -62 -21
-143z"/>
<path d="M10102 22440 c0 -14 2 -19 5 -12 2 6 2 18 0 25 -3 6 -5 1 -5 -13z"/>
<path d="M7026 22348 c-138 -754 -204 -1746 -165 -2471 12 -221 36 -503 38
-447 0 19 -6 121 -14 225 -59 742 -3 1792 141 2628 14 82 24 151 21 153 -2 3
-12 -37 -21 -88z"/>
<path d="M7562 22340 c-64 -541 -124 -1319 -120 -1540 0 -48 4 -21 9 75 20
370 62 887 110 1337 11 109 19 205 17 215 -2 10 -9 -29 -16 -87z"/>
<path d="M10111 22398 c0 -9 10 -86 24 -170 63 -397 139 -1000 169 -1358 35
-403 41 -558 41 -1005 -1 -501 -4 -558 -65 -1120 -46 -421 -61 -602 -58 -699
1 -55 2 -60 5 -21 11 194 29 387 63 695 60 544 61 557 67 1013 7 564 -15 979
-83 1572 -41 360 -159 1150 -163 1093z"/>
<path d="M8447 21633 c-17 -1389 -138 -2472 -388 -3468 -71 -284 -177 -651
-269 -929 -44 -132 -78 -242 -76 -244 7 -6 183 537 251 773 270 938 400 1760
471 2985 14 249 33 1400 22 1400 -3 0 -8 -233 -11 -517z"/>
<path d="M7151 21864 c0 -11 3 -14 6 -6 3 7 2 16 -1 19 -3 4 -6 -2 -5 -13z"/>
<path d="M7142 21805 c0 -16 2 -22 5 -12 2 9 2 23 0 30 -3 6 -5 -1 -5 -18z"/>
<path d="M8657 21515 c-16 -617 -57 -1211 -117 -1668 -19 -142 -24 -206 -15
-182 8 18 64 488 79 660 43 470 70 1025 64 1325 -3 148 -4 134 -11 -135z"/>
<path d="M7121 21673 c-53 -416 -64 -674 -58 -1286 5 -508 11 -651 42 -1057
21 -281 58 -656 63 -642 2 6 -6 112 -17 234 -58 624 -76 991 -76 1613 0 554 5
675 46 1039 11 98 18 180 16 183 -2 2 -9 -36 -16 -84z"/>
<path d="M9012 21380 c-4 -798 58 -1815 149 -2454 56 -395 219 -1229 236
-1212 3 2 -14 84 -36 183 -220 980 -315 1920 -340 3373 l-8 435 -1 -325z"/>
<path d="M6076 21495 c10 -385 58 -909 159 -1725 35 -283 69 -571 75 -640 16
-195 17 -199 18 -135 3 88 -13 236 -78 765 -96 773 -128 1107 -170 1760 l-9
145 5 -170z"/>
<path d="M9641 21424 c0 -11 3 -14 6 -6 3 7 2 16 -1 19 -3 4 -6 -2 -5 -13z"/>
<path d="M9651 21374 c0 -11 3 -14 6 -6 3 7 2 16 -1 19 -3 4 -6 -2 -5 -13z"/>
<path d="M9662 21330 c0 -14 2 -19 5 -12 2 6 2 18 0 25 -3 6 -5 1 -5 -13z"/>
<path d="M9671 21284 c0 -11 3 -14 6 -6 3 7 2 16 -1 19 -3 4 -6 -2 -5 -13z"/>
<path d="M9682 21240 c0 -14 2 -19 5 -12 2 6 2 18 0 25 -3 6 -5 1 -5 -13z"/>
<path d="M9692 21190 c0 -14 2 -19 5 -12 2 6 2 18 0 25 -3 6 -5 1 -5 -13z"/>
<path d="M9701 21148 c0 -9 6 -50 14 -90 23 -109 91 -591 119 -853 52 -470 80
-901 111 -1685 9 -206 22 -460 30 -565 36 -451 128 -1022 246 -1530 51 -215
111 -446 116 -441 2 2 -16 84 -41 182 -145 577 -238 1093 -290 1614 -22 215
-34 420 -51 865 -33 847 -80 1412 -171 2045 -33 235 -80 494 -83 458z"/>
<path d="M6711 20974 c0 -11 3 -14 6 -6 3 7 2 16 -1 19 -3 4 -6 -2 -5 -13z"/>
<path d="M6691 20873 c-6 -38 -33 -203 -60 -368 -27 -165 -70 -419 -95 -565
-56 -325 -90 -572 -111 -795 -20 -206 -35 -771 -33 -1225 l1 -335 8 480 c17
1022 30 1179 169 2000 83 492 142 866 137 871 -2 2 -9 -26 -16 -63z"/>
<path d="M10474 20620 c0 -124 2 -174 3 -112 2 61 2 163 0 225 -1 61 -3 11 -3
-113z"/>
<path d="M6343 20730 c0 -25 2 -35 4 -22 2 12 2 32 0 45 -2 12 -4 2 -4 -23z"/>
<path d="M6353 20645 c0 -22 2 -30 4 -17 2 12 2 30 0 40 -3 9 -5 -1 -4 -23z"/>
<path d="M6362 20560 c0 -14 2 -19 5 -12 2 6 2 18 0 25 -3 6 -5 1 -5 -13z"/>
<path d="M7446 19495 c2 -132 9 -458 15 -725 15 -669 2 -1258 -36 -1675 -33
-350 -79 -653 -180 -1173 -36 -189 -64 -346 -62 -348 2 -3 11 31 20 73 88 426
125 599 186 848 101 421 144 611 195 870 99 505 176 1034 190 1310 l5 90 -9
-85 c-51 -453 -128 -953 -210 -1360 -47 -234 -179 -812 -187 -820 -3 -3 -3 18
1 45 65 495 81 674 97 1060 13 327 5 1299 -16 1805 -13 320 -14 322 -9 85z"/>
<path d="M8722 19660 c0 -14 2 -19 5 -12 2 6 2 18 0 25 -3 6 -5 1 -5 -13z"/>
<path d="M8512 19625 c0 -16 2 -22 5 -12 2 9 2 23 0 30 -3 6 -5 -1 -5 -18z"/>
<path d="M8691 19470 c-122 -807 -326 -1681 -565 -2415 -36 -110 -63 -201 -61
-203 6 -6 162 478 230 712 117 406 214 818 305 1295 53 279 123 724 118 750
-2 9 -14 -54 -27 -139z"/>
<path d="M8502 19560 c0 -14 2 -19 5 -12 2 6 2 18 0 25 -3 6 -5 1 -5 -13z"/>
<path d="M9321 19474 c0 -11 3 -14 6 -6 3 7 2 16 -1 19 -3 4 -6 -2 -5 -13z"/>
<path d="M9332 19380 c0 -14 2 -19 5 -12 2 6 2 18 0 25 -3 6 -5 1 -5 -13z"/>
<path d="M6903 19335 c0 -33 2 -45 4 -27 2 18 2 45 0 60 -2 15 -4 0 -4 -33z"/>
<path d="M9342 19305 c0 -16 2 -22 5 -12 2 9 2 23 0 30 -3 6 -5 -1 -5 -18z"/>
<path d="M6913 19225 c0 -27 2 -38 4 -22 2 15 2 37 0 50 -2 12 -4 0 -4 -28z"/>
<path d="M9352 19225 c0 -16 2 -22 5 -12 2 9 2 23 0 30 -3 6 -5 -1 -5 -18z"/>
<path d="M9362 19140 c0 -19 2 -27 5 -17 2 9 2 25 0 35 -3 9 -5 1 -5 -18z"/>
<path d="M6923 19125 c0 -22 2 -30 4 -17 2 12 2 30 0 40 -3 9 -5 -1 -4 -23z"/>
<path d="M8841 19114 c0 -11 3 -14 6 -6 3 7 2 16 -1 19 -3 4 -6 -2 -5 -13z"/>
<path d="M9372 19070 c0 -19 2 -27 5 -17 2 9 2 25 0 35 -3 9 -5 1 -5 -18z"/>
<path d="M8832 19025 c0 -16 2 -22 5 -12 2 9 2 23 0 30 -3 6 -5 -1 -5 -18z"/>
<path d="M6931 19024 c0 -11 3 -14 6 -6 3 7 2 16 -1 19 -3 4 -6 -2 -5 -13z"/>
<path d="M9382 18990 c0 -19 2 -27 5 -17 2 9 2 25 0 35 -3 9 -5 1 -5 -18z"/>
<path d="M8822 18950 c0 -19 2 -27 5 -17 2 9 2 25 0 35 -3 9 -5 1 -5 -18z"/>
<path d="M9393 18915 c0 -22 2 -30 4 -17 2 12 2 30 0 40 -3 9 -5 -1 -4 -23z"/>
<path d="M8796 18799 c-70 -445 -159 -833 -287 -1257 -100 -328 -198 -586
-355 -931 -51 -113 -92 -206 -90 -208 3 -4 144 294 201 427 153 353 318 867
420 1310 58 250 142 734 133 762 -2 5 -12 -41 -22 -103z"/>
<path d="M6333 18860 c0 -25 2 -35 4 -22 2 12 2 32 0 45 -2 12 -4 2 -4 -23z"/>
<path d="M7783 18820 c0 -30 2 -43 4 -27 2 15 2 39 0 55 -2 15 -4 2 -4 -28z"/>
<path d="M9401 18856 c-1 -11 13 -121 29 -245 156 -1155 338 -1899 622 -2540
28 -64 105 -228 170 -366 193 -403 314 -685 373 -863 9 -29 19 -51 22 -49 6 6
-76 229 -142 386 -31 73 -114 257 -186 409 -260 550 -332 720 -432 1027 -124
379 -211 744 -318 1340 -11 66 -47 300 -79 520 -32 220 -59 391 -59 381z"/>
<path d="M7173 18630 c0 -25 2 -35 4 -22 2 12 2 32 0 45 -2 12 -4 2 -4 -23z"/>
<path d="M7183 18545 c0 -22 2 -30 4 -17 2 12 2 30 0 40 -3 9 -5 -1 -4 -23z"/>
<path d="M7192 18460 c0 -19 2 -27 5 -17 2 9 2 25 0 35 -3 9 -5 1 -5 -18z"/>
<path d="M7202 18375 c0 -16 2 -22 5 -12 2 9 2 23 0 30 -3 6 -5 -1 -5 -18z"/>
<path d="M6622 18030 c0 -14 2 -19 5 -12 2 6 2 18 0 25 -3 6 -5 1 -5 -13z"/>
<path d="M6633 17935 c0 -22 2 -30 4 -17 2 12 2 30 0 40 -3 9 -5 -1 -4 -23z"/>
<path d="M10214 17835 c0 -71 1 -99 3 -62 2 37 2 96 0 130 -2 34 -3 4 -3 -68z"/>
<path d="M7083 17900 c0 -30 2 -43 4 -27 2 15 2 39 0 55 -2 15 -4 2 -4 -28z"/>
<path d="M6641 17874 c0 -12 10 -142 23 -290 23 -244 51 -639 59 -804 2 -46 4
-36 5 35 2 120 -19 436 -53 790 -25 259 -32 309 -34 269z"/>
<path d="M7091 17810 c0 -19 7 -147 16 -285 11 -168 17 -392 17 -680 1 -421
-6 -572 -39 -900 -8 -77 -17 -167 -19 -200 l-5 -60 9 50 c16 86 48 431 61 645
13 232 7 887 -11 1145 -14 202 -27 330 -29 285z"/>
<path d="M9221 17824 c0 -11 3 -14 6 -6 3 7 2 16 -1 19 -3 4 -6 -2 -5 -13z"/>
<path d="M9231 17784 c0 -11 3 -14 6 -6 3 7 2 16 -1 19 -3 4 -6 -2 -5 -13z"/>
<path d="M9246 17727 c11 -76 114 -436 187 -652 187 -552 333 -875 777 -1715
197 -373 282 -548 340 -702 18 -49 35 -86 37 -84 7 7 -77 215 -142 351 -33 72
-144 288 -245 480 -351 670 -500 987 -649 1376 -88 232 -185 528 -247 759 -60
223 -67 244 -58 187z"/>
<path d="M9401 17684 c0 -11 3 -14 6 -6 3 7 2 16 -1 19 -3 4 -6 -2 -5 -13z"/>
<path d="M9411 17644 c0 -11 3 -14 6 -6 3 7 2 16 -1 19 -3 4 -6 -2 -5 -13z"/>
<path d="M9421 17604 c0 -11 3 -14 6 -6 3 7 2 16 -1 19 -3 4 -6 -2 -5 -13z"/>
<path d="M9431 17564 c0 -11 3 -14 6 -6 3 7 2 16 -1 19 -3 4 -6 -2 -5 -13z"/>
<path d="M6485 16765 c3 -60 10 -191 15 -290 5 -99 16 -445 25 -770 19 -750
33 -1143 50 -1370 13 -164 13 -169 9 -50 -2 72 -9 231 -14 355 -5 124 -16 500
-25 835 -16 641 -28 980 -46 1230 -12 178 -21 217 -14 60z"/>
<path d="M8026 16764 c-9 -26 -14 -49 -12 -51 2 -2 11 17 20 43 9 26 14 49 12
51 -2 2 -11 -17 -20 -43z"/>
<path d="M6772 16363 c-3 -176 -20 -396 -53 -683 -96 -852 -109 -1010 -109
-1350 0 -276 12 -458 46 -700 31 -227 109 -623 113 -574 1 6 -14 87 -33 180
-82 403 -106 651 -106 1071 0 388 5 461 76 1092 60 541 77 755 72 946 l-4 130
-2 -112z"/>
<path d="M7627 16314 c-37 -74 -33 -83 4 -10 17 32 29 60 27 62 -2 2 -16 -21
-31 -52z"/>
<path d="M7525 16093 c-68 -151 -170 -401 -220 -539 -111 -306 -230 -782 -280
-1121 -26 -175 -15 -147 20 52 103 581 258 1088 492 1609 29 66 51 121 49 123
-2 2 -29 -54 -61 -124z"/>
<path d="M10346 15940 c4 -19 11 -44 15 -55 6 -14 7 -9 3 15 -4 19 -11 44 -15
55 -6 14 -7 9 -3 -15z"/>
<path d="M7611 15780 c-321 -684 -461 -1126 -551 -1727 -52 -354 -66 -602 -50
-873 11 -193 26 -343 28 -285 1 17 -3 77 -8 135 -15 158 -13 534 4 705 58 579
158 1003 360 1512 76 193 204 490 251 583 14 29 24 54 22 56 -2 2 -27 -45 -56
-106z"/>
<path d="M10371 15844 c0 -11 3 -14 6 -6 3 7 2 16 -1 19 -3 4 -6 -2 -5 -13z"/>
<path d="M7052 15650 c0 -19 2 -27 5 -17 2 9 2 25 0 35 -3 9 -5 1 -5 -18z"/>
<path d="M7042 15580 c0 -14 2 -19 5 -12 2 6 2 18 0 25 -3 6 -5 1 -5 -13z"/>
<path d="M7171 15544 c0 -11 3 -14 6 -6 3 7 2 16 -1 19 -3 4 -6 -2 -5 -13z"/>
<path d="M10622 14770 c0 -8 6 -31 13 -50 7 -19 13 -28 13 -20 0 8 -6 31 -13
50 -7 19 -13 28 -13 20z"/>
<path d="M10661 14634 c0 -11 3 -14 6 -6 3 7 2 16 -1 19 -3 4 -6 -2 -5 -13z"/>
<path d="M10411 14524 c0 -11 3 -14 6 -6 3 7 2 16 -1 19 -3 4 -6 -2 -5 -13z"/>
<path d="M10402 14465 c0 -16 2 -22 5 -12 2 9 2 23 0 30 -3 6 -5 -1 -5 -18z"/>
<path d="M10392 14410 c0 -14 2 -19 5 -12 2 6 2 18 0 25 -3 6 -5 1 -5 -13z"/>
<path d="M10381 14363 c-2 -41 -88 -362 -155 -578 -115 -372 -217 -642 -459
-1225 -266 -640 -405 -995 -394 -1006 2 -2 30 67 61 154 32 86 143 360 246
607 324 776 391 947 504 1290 106 318 216 735 203 768 -3 7 -6 2 -6 -10z"/>
<path d="M10502 14280 c0 -14 2 -19 5 -12 2 6 2 18 0 25 -3 6 -5 1 -5 -13z"/>
<path d="M7002 14260 c0 -19 2 -27 5 -17 2 9 2 25 0 35 -3 9 -5 1 -5 -18z"/>
<path d="M10492 14210 c0 -19 2 -27 5 -17 2 9 2 25 0 35 -3 9 -5 1 -5 -18z"/>
<path d="M6991 14184 c0 -11 3 -14 6 -6 3 7 2 16 -1 19 -3 4 -6 -2 -5 -13z"/>
<path d="M10476 14120 c-21 -159 -130 -668 -266 -1239 -28 -118 -49 -219 -47
-224 4 -14 171 684 237 995 42 198 92 486 88 506 -2 9 -7 -8 -12 -38z"/>
<path d="M6593 14065 c0 -44 2 -61 4 -37 2 23 2 59 0 80 -2 20 -4 1 -4 -43z"/>
<path d="M10590 14058 c0 -8 -7 -59 -15 -114 -46 -308 -70 -773 -62 -1209 7
-342 22 -559 72 -1000 106 -950 150 -1586 158 -2290 2 -150 3 -133 5 80 4 554
-40 1225 -142 2160 -55 502 -63 603 -77 920 -17 416 10 1015 62 1378 6 43 9
81 5 84 -3 4 -6 0 -6 -9z"/>
<path d="M6602 13925 c-2 -97 47 -709 56 -700 2 2 -5 122 -17 267 -12 145 -25
315 -30 378 -5 76 -9 95 -9 55z"/>
<path d="M6886 13375 c4 -207 19 -374 49 -550 25 -143 37 -206 41 -202 2 2 -7
69 -20 148 -33 191 -55 403 -66 629 l-9 185 5 -210z"/>
<path d="M10913 13225 c0 -22 2 -30 4 -17 2 12 2 30 0 40 -3 9 -5 -1 -4 -23z"/>
<path d="M6663 13170 c0 -25 2 -35 4 -22 2 12 2 32 0 45 -2 12 -4 2 -4 -23z"/>
<path d="M10928 12885 c2 -165 5 -307 6 -315 7 -29 3 475 -3 545 -3 39 -5 -65
-3 -230z"/>
<path d="M6673 13085 c0 -22 2 -30 4 -17 2 12 2 30 0 40 -3 9 -5 -1 -4 -23z"/>
<path d="M6772 13020 c0 -14 2 -19 5 -12 2 6 2 18 0 25 -3 6 -5 1 -5 -13z"/>
<path d="M6682 12995 c0 -16 2 -22 5 -12 2 9 2 23 0 30 -3 6 -5 -1 -5 -18z"/>
<path d="M10402 12960 c0 -14 2 -19 5 -12 2 6 2 18 0 25 -3 6 -5 1 -5 -13z"/>
<path d="M11024 12735 c0 -121 2 -169 3 -107 2 62 2 161 0 220 -1 59 -3 8 -3
-113z"/>
<path d="M6692 12915 c0 -16 2 -22 5 -12 2 9 2 23 0 30 -3 6 -5 -1 -5 -18z"/>
<path d="M10377 12810 c-70 -520 -85 -1107 -47 -1860 57 -1150 48 -1663 -45
-2480 -14 -118 -24 -221 -24 -230 5 -63 67 491 96 850 26 331 24 1213 -5 1755
-12 226 -25 532 -28 680 -9 386 16 907 62 1263 8 67 14 128 11 135 -2 6 -11
-45 -20 -113z"/>
<path d="M6701 12844 c0 -11 3 -14 6 -6 3 7 2 16 -1 19 -3 4 -6 -2 -5 -13z"/>
<path d="M7042 12830 c0 -19 2 -27 5 -17 2 9 2 25 0 35 -3 9 -5 1 -5 -18z"/>
<path d="M7052 12750 c0 -14 2 -19 5 -12 2 6 2 18 0 25 -3 6 -5 1 -5 -13z"/>
<path d="M9950 12573 c-98 -250 -234 -691 -319 -1028 -94 -377 -195 -907 -275
-1450 -34 -226 -96 -731 -95 -764 1 -14 16 89 34 230 169 1303 378 2251 661
2998 24 63 42 117 40 119 -2 2 -23 -45 -46 -105z"/>
<path d="M10151 12624 c0 -11 3 -14 6 -6 3 7 2 16 -1 19 -3 4 -6 -2 -5 -13z"/>
<path d="M6982 12590 c0 -14 2 -19 5 -12 2 6 2 18 0 25 -3 6 -5 1 -5 -13z"/>
<path d="M10136 12564 c-4 -20 -5 -38 -3 -40 3 -3 8 11 11 32 4 20 5 38 3 40
-3 3 -8 -11 -11 -32z"/>
<path d="M6991 12544 c0 -11 3 -14 6 -6 3 7 2 16 -1 19 -3 4 -6 -2 -5 -13z"/>
<path d="M10121 12494 c0 -11 3 -14 6 -6 3 7 2 16 -1 19 -3 4 -6 -2 -5 -13z"/>
<path d="M10106 12434 c-4 -20 -5 -38 -3 -40 3 -3 8 11 11 32 4 20 5 38 3 40
-3 3 -8 -11 -11 -32z"/>
<path d="M10091 12364 c0 -11 3 -14 6 -6 3 7 2 16 -1 19 -3 4 -6 -2 -5 -13z"/>
<path d="M10081 12324 c0 -11 3 -14 6 -6 3 7 2 16 -1 19 -3 4 -6 -2 -5 -13z"/>
<path d="M10768 12293 c12 -2 32 -2 45 0 12 2 2 4 -23 4 -25 0 -35 -2 -22 -4z"/>
<path d="M11135 12210 c11 -5 27 -9 35 -9 9 0 8 4 -5 9 -11 5 -27 9 -35 9 -9
0 -8 -4 5 -9z"/>
<path d="M10784 11955 c0 -71 1 -99 3 -62 2 37 2 96 0 130 -2 34 -3 4 -3 -68z"/>
<path d="M11033 11845 c0 -22 2 -30 4 -17 2 12 2 30 0 40 -3 9 -5 -1 -4 -23z"/>
<path d="M10793 11785 c0 -22 2 -30 4 -17 2 12 2 30 0 40 -3 9 -5 -1 -4 -23z"/>
<path d="M10913 11760 c0 -36 2 -50 4 -32 2 17 2 47 0 65 -2 17 -4 3 -4 -33z"/>
<path d="M11123 11780 c0 -25 2 -35 4 -22 2 12 2 32 0 45 -2 12 -4 2 -4 -23z"/>
<path d="M11022 11470 c0 -173 3 -353 7 -400 3 -47 5 88 3 300 -2 212 -5 392
-6 400 -2 8 -4 -127 -4 -300z"/>
<path d="M11107 11603 c-15 -277 -4 -642 23 -813 l9 -55 -4 65 c-24 350 -27
429 -21 668 4 144 5 262 3 262 -2 0 -7 -57 -10 -127z"/>
<path d="M10924 11595 c0 -49 1 -71 3 -48 2 23 2 64 0 90 -2 26 -3 8 -3 -42z"/>
<path d="M9351 11499 c-7 -22 -11 -43 -8 -45 2 -2 9 14 16 37 7 22 11 43 8 45
-2 2 -9 -14 -16 -37z"/>
<path d="M10933 11445 c0 -33 2 -45 4 -27 2 18 2 45 0 60 -2 15 -4 0 -4 -33z"/>
<path d="M10942 11330 c0 -14 2 -19 5 -12 2 6 2 18 0 25 -3 6 -5 1 -5 -13z"/>
<path d="M9301 11030 c-40 -148 -70 -292 -106 -505 -36 -217 -76 -544 -74
-605 1 -19 7 19 15 85 42 376 99 718 159 957 20 77 34 142 32 145 -3 2 -14
-33 -26 -77z"/>
<path d="M11142 10690 c0 -19 2 -27 5 -17 2 9 2 25 0 35 -3 9 -5 1 -5 -18z"/>
<path d="M10991 10674 c0 -11 3 -14 6 -6 3 7 2 16 -1 19 -3 4 -6 -2 -5 -13z"/>
<path d="M11002 10630 c0 -14 2 -19 5 -12 2 6 2 18 0 25 -3 6 -5 1 -5 -13z"/>
<path d="M11011 10584 c0 -11 3 -14 6 -6 3 7 2 16 -1 19 -3 4 -6 -2 -5 -13z"/>
<path d="M9641 10544 c0 -11 3 -14 6 -6 3 7 2 16 -1 19 -3 4 -6 -2 -5 -13z"/>
<path d="M11021 10556 c-1 -6 19 -109 44 -230 222 -1093 261 -1989 130 -2926
-14 -96 -25 -182 -24 -190 4 -51 60 355 84 605 23 230 31 825 16 1092 -16 283
-44 553 -87 828 -43 280 -158 861 -163 821z"/>
<path d="M9632 10490 c0 -14 2 -19 5 -12 2 6 2 18 0 25 -3 6 -5 1 -5 -13z"/>
<path d="M9622 10440 c0 -14 2 -19 5 -12 2 6 2 18 0 25 -3 6 -5 1 -5 -13z"/>
<path d="M9602 10348 c-6 -35 -24 -142 -41 -238 -130 -753 -257 -1821 -315
-2650 -34 -480 -81 -1587 -74 -1745 2 -38 11 151 21 420 35 957 65 1420 142
2180 59 586 150 1272 241 1814 25 150 43 275 41 277 -2 2 -9 -24 -15 -58z"/>
<path d="M10802 10380 c0 -14 2 -19 5 -12 2 6 2 18 0 25 -3 6 -5 1 -5 -13z"/>
<path d="M10814 10315 c3 -22 18 -130 35 -240 104 -695 118 -1343 45 -1990
-34 -307 -35 -320 -19 -235 19 97 51 377 65 555 13 181 13 743 0 955 -15 225
-53 567 -90 790 -29 176 -45 252 -36 165z"/>
<path d="M9112 9825 c0 -16 2 -22 5 -12 2 9 2 23 0 30 -3 6 -5 -1 -5 -18z"/>
<path d="M9651 9484 c0 -11 3 -14 6 -6 3 7 2 16 -1 19 -3 4 -6 -2 -5 -13z"/>
<path d="M9642 9425 c0 -16 2 -22 5 -12 2 9 2 23 0 30 -3 6 -5 -1 -5 -18z"/>
<path d="M9632 9360 c0 -19 2 -27 5 -17 2 9 2 25 0 35 -3 9 -5 1 -5 -18z"/>
<path d="M9586 9058 c-148 -1068 -226 -2093 -240 -3153 l-5 -350 14 435 c40
1282 99 2008 267 3243 5 43 8 80 6 83 -3 2 -21 -114 -42 -258z"/>
<path d="M9253 9255 c0 -22 2 -30 4 -17 2 12 2 30 0 40 -3 9 -5 -1 -4 -23z"/>
<path d="M9241 9154 c0 -11 3 -14 6 -6 3 7 2 16 -1 19 -3 4 -6 -2 -5 -13z"/>
<path d="M10733 9105 c0 -33 2 -45 4 -27 2 18 2 45 0 60 -2 15 -4 0 -4 -33z"/>
<path d="M10252 8180 c0 -19 2 -27 5 -17 2 9 2 25 0 35 -3 9 -5 1 -5 -18z"/>
<path d="M10242 8110 c0 -19 2 -27 5 -17 2 9 2 25 0 35 -3 9 -5 1 -5 -18z"/>
<path d="M10232 8040 c0 -14 2 -19 5 -12 2 6 2 18 0 25 -3 6 -5 1 -5 -13z"/>
<path d="M10703 7915 c0 -22 2 -30 4 -17 2 12 2 30 0 40 -3 9 -5 -1 -4 -23z"/>
<path d="M10682 7738 c-45 -449 -175 -1114 -307 -1573 -100 -346 -203 -637
-379 -1069 -47 -115 -84 -211 -82 -213 9 -9 206 479 305 753 172 478 312 1027
405 1594 39 238 79 565 74 607 -2 16 -9 -29 -16 -99z"/>
<path d="M10852 7745 c0 -16 2 -22 5 -12 2 9 2 23 0 30 -3 6 -5 -1 -5 -18z"/>
<path d="M9572 7195 c0 -16 2 -22 5 -12 2 9 2 23 0 30 -3 6 -5 -1 -5 -18z"/>
<path d="M11162 7165 c0 -16 2 -22 5 -12 2 9 2 23 0 30 -3 6 -5 -1 -5 -18z"/>
<path d="M9563 7095 c0 -27 2 -38 4 -22 2 15 2 37 0 50 -2 12 -4 0 -4 -28z"/>
<path d="M11152 7105 c0 -16 2 -22 5 -12 2 9 2 23 0 30 -3 6 -5 -1 -5 -18z"/>
<path d="M11141 7044 c0 -11 3 -14 6 -6 3 7 2 16 -1 19 -3 4 -6 -2 -5 -13z"/>
<path d="M9553 6985 c0 -33 2 -45 4 -27 2 18 2 45 0 60 -2 15 -4 0 -4 -33z"/>
<path d="M10272 6990 c0 -14 2 -19 5 -12 2 6 2 18 0 25 -3 6 -5 1 -5 -13z"/>
<path d="M10262 6940 c0 -14 2 -19 5 -12 2 6 2 18 0 25 -3 6 -5 1 -5 -13z"/>
<path d="M9532 6780 c-32 -389 -105 -1487 -99 -1503 4 -14 31 331 57 733 11
168 29 434 41 592 11 158 19 295 17 305 -2 10 -9 -47 -16 -127z"/>
<path d="M10896 6202 c-125 -349 -278 -702 -460 -1059 -53 -103 -87 -177 -76
-163 30 37 280 544 349 707 89 209 248 639 239 648 -1 2 -25 -58 -52 -133z"/>
<path d="M8983 5840 c0 -41 2 -58 4 -37 2 20 2 54 0 75 -2 20 -4 3 -4 -38z"/>
<path d="M9032 4340 c-4 -862 -23 -1677 -63 -2717 -11 -292 -19 -544 -16 -560
2 -16 5 -6 6 24 0 29 10 265 21 525 44 1057 63 1914 58 2723 l-3 570 -3 -565z"/>
<path d="M9561 4644 c0 -11 3 -14 6 -6 3 7 2 16 -1 19 -3 4 -6 -2 -5 -13z"/>
<path d="M9552 4595 c0 -16 2 -22 5 -12 2 9 2 23 0 30 -3 6 -5 -1 -5 -18z"/>
<path d="M9507 4338 c-133 -816 -266 -2145 -281 -2813 -5 -231 -2 -205 19 180
47 837 151 1838 276 2648 17 110 29 201 26 203 -2 3 -20 -96 -40 -218z"/>
<path d="M10077 4242 c-226 -707 -374 -1430 -472 -2302 -31 -277 -55 -560 -54
-620 1 -25 6 -2 10 50 106 1181 257 2002 535 2899 25 79 43 145 41 147 -2 2
-29 -76 -60 -174z"/>
<path d="M8551 4273 c0 -12 15 -266 34 -565 66 -1045 84 -1480 86 -2083 1
-305 4 -377 12 -330 7 42 7 233 -2 635 -15 735 -26 973 -91 1905 -29 405 -36
490 -39 438z"/>
<path d="M8132 3880 c0 -19 2 -27 5 -17 2 9 2 25 0 35 -3 9 -5 1 -5 -18z"/>
<path d="M8141 3828 c-1 -9 12 -135 28 -280 41 -365 68 -643 95 -988 13 -162
24 -270 25 -240 3 139 -62 877 -114 1300 -25 197 -32 245 -34 208z"/>
<path d="M10661 3774 c0 -11 3 -14 6 -6 3 7 2 16 -1 19 -3 4 -6 -2 -5 -13z"/>
<path d="M9755 3750 c-4 -17 -5 -34 -2 -36 2 -3 7 10 11 27 8 42 0 50 -9 9z"/>
<path d="M10627 3604 c-16 -82 -64 -320 -107 -529 -222 -1060 -394 -1927 -388
-1947 2 -6 66 300 142 678 77 379 181 890 232 1135 99 479 157 784 152 801 -2
5 -16 -57 -31 -138z"/>
<path d="M9740 3695 c0 -4 -16 -81 -35 -171 -89 -412 -164 -951 -239 -1712
-41 -407 -69 -760 -64 -793 2 -13 9 48 16 136 76 927 186 1807 292 2339 22
109 38 201 35 204 -3 3 -5 2 -5 -3z"/>
<path d="M7861 3674 c0 -11 3 -14 6 -6 3 7 2 16 -1 19 -3 4 -6 -2 -5 -13z"/>
<path d="M7871 3647 c-1 -4 26 -148 58 -320 134 -701 208 -1209 270 -1862 10
-104 19 -172 20 -150 2 93 -51 626 -95 940 -65 466 -246 1460 -253 1392z"/>
<path d="M10222 2860 c0 -14 2 -19 5 -12 2 6 2 18 0 25 -3 6 -5 1 -5 -13z"/>
<path d="M10081 2804 c0 -11 3 -14 6 -6 3 7 2 16 -1 19 -3 4 -6 -2 -5 -13z"/>
<path d="M7530 2792 c0 -6 20 -136 45 -289 72 -439 148 -986 180 -1306 4 -37
10 -66 12 -63 6 5 -19 254 -47 481 -36 284 -70 513 -126 850 -49 291 -64 367
-64 327z"/>
<path d="M7652 2760 c0 -19 2 -27 5 -17 2 9 2 25 0 35 -3 9 -5 1 -5 -18z"/>
<path d="M10071 2772 c-1 -7 -19 -111 -41 -230 -84 -458 -191 -1243 -178
-1308 2 -10 12 53 21 141 40 353 100 767 168 1159 22 126 38 234 35 240 -3 7
-5 6 -5 -2z"/>
<path d="M10346 2699 c-4 -23 -5 -44 -2 -46 2 -2 7 14 11 37 4 23 5 43 2 46
-2 3 -7 -14 -11 -37z"/>
<path d="M7661 2684 c0 -11 3 -14 6 -6 3 7 2 16 -1 19 -3 4 -6 -2 -5 -13z"/>
<path d="M10332 2610 c0 -14 2 -19 5 -12 2 6 2 18 0 25 -3 6 -5 1 -5 -13z"/>
<path d="M10322 2560 c0 -14 2 -19 5 -12 2 6 2 18 0 25 -3 6 -5 1 -5 -13z"/>
<path d="M10311 2504 c0 -11 3 -14 6 -6 3 7 2 16 -1 19 -3 4 -6 -2 -5 -13z"/>
<path d="M10301 2454 c0 -11 3 -14 6 -6 3 7 2 16 -1 19 -3 4 -6 -2 -5 -13z"/>
<path d="M8293 2215 c0 -22 2 -30 4 -17 2 12 2 30 0 40 -3 9 -5 -1 -4 -23z"/>
<path d="M7852 2165 c0 -16 2 -22 5 -12 2 9 2 23 0 30 -3 6 -5 -1 -5 -18z"/>
<path d="M9213 1245 c0 -22 2 -30 4 -17 2 12 2 30 0 40 -3 9 -5 -1 -4 -23z"/>
<path d="M9842 1175 c0 -16 2 -22 5 -12 2 9 2 23 0 30 -3 6 -5 -1 -5 -18z"/>
<path d="M10121 1094 c0 -11 3 -14 6 -6 3 7 2 16 -1 19 -3 4 -6 -2 -5 -13z"/>
</g>
</svg>
