<?xml version="1.0" standalone="no"?>
<!DOCTYPE svg PUBLIC "-//W3C//DTD SVG 20010904//EN"
 "http://www.w3.org/TR/2001/REC-SVG-20010904/DTD/svg10.dtd">
<svg version="1.0" xmlns="http://www.w3.org/2000/svg"
 width="1792.000000pt" height="2400.000000pt" viewBox="0 0 1792.000000 2400.000000"
 preserveAspectRatio="xMidYMid meet">

<g transform="translate(0.000000,2400.000000) scale(0.100000,-0.100000)"
fill="#000000" stroke="none">
<path d="M9780 23197 c0 -34 33 -138 92 -292 68 -177 82 -255 75 -430 -10
-248 -73 -407 -240 -604 -324 -381 -835 -599 -1452 -618 -464 -15 -842 103
-1044 324 -92 100 -171 284 -171 399 0 59 90 556 109 600 20 46 139 159 233
220 133 86 209 166 264 279 47 97 52 115 31 115 -8 0 -34 -42 -60 -93 -57
-115 -119 -182 -247 -266 -52 -34 -119 -86 -149 -114 -44 -43 -52 -48 -46 -27
26 91 74 231 116 342 55 146 53 138 39 138 -21 0 -133 -284 -183 -465 -127
-454 -210 -1097 -211 -1615 0 -368 23 -562 94 -782 53 -163 174 -378 212 -378
7 0 0 12 -14 28 -24 24 -120 203 -113 210 1 2 70 -50 151 -116 199 -159 301
-267 356 -379 43 -86 43 -87 43 -197 -1 -107 -3 -116 -52 -261 -68 -199 -105
-422 -133 -810 -38 -521 -11 -3264 50 -5275 20 -652 23 -1476 9 -2320 -25
-1488 -8 -2900 41 -3520 42 -512 149 -979 302 -1314 69 -150 88 -222 95 -346
6 -109 -5 -211 -34 -315 -15 -52 -27 -69 -102 -145 -68 -68 -99 -109 -150
-200 -121 -217 -195 -301 -319 -362 -57 -28 -77 -33 -142 -33 -133 0 -200 54
-296 236 -47 90 -76 131 -149 210 -108 115 -147 184 -171 299 -34 168 -5 360
105 693 86 262 123 420 158 667 16 111 18 202 16 830 -2 388 -9 1043 -17 1455
-10 541 -13 1278 -11 2645 3 1868 7 2172 40 2790 52 972 65 1497 65 2600 0
1472 -26 1866 -156 2378 -81 321 -85 489 -18 819 25 122 26 138 20 333 -4 113
-11 273 -16 355 -24 393 -32 762 -21 962 18 337 81 897 127 1133 26 137 28
160 15 160 -22 0 -77 -299 -115 -630 -58 -498 -61 -544 -60 -960 0 -251 7
-486 17 -645 10 -137 17 -332 17 -433 0 -158 -4 -200 -26 -310 -19 -93 -28
-173 -33 -297 -6 -147 -8 -165 -18 -135 -6 19 -34 100 -61 180 -170 492 -273
1147 -337 2144 -14 209 -32 706 -36 956 -1 58 -4 77 -9 60 -12 -37 -12 -635 0
-855 6 -104 20 -307 31 -450 69 -896 170 -1461 357 -1985 141 -398 183 -561
221 -870 57 -455 66 -736 66 -1945 -1 -1332 -8 -1474 -91 -1945 -94 -537 -159
-782 -306 -1149 -38 -95 -67 -175 -66 -177 8 -7 154 362 204 513 65 199 110
378 168 678 25 127 47 239 49 250 9 40 6 -135 -7 -385 -12 -234 -16 -264 -45
-370 -96 -344 -173 -548 -394 -1045 -177 -399 -195 -444 -265 -650 -128 -378
-221 -848 -266 -1335 -53 -570 -60 -892 -46 -1995 15 -1151 3 -1835 -45 -2585
-53 -809 -104 -1271 -230 -2065 -74 -463 -87 -569 -89 -720 -1 -130 10 -199
39 -238 13 -18 16 -18 77 -2 172 44 313 151 450 340 76 105 127 134 279 161
109 19 238 15 339 -11 63 -16 66 -19 99 -73 197 -328 498 -647 825 -877 l69
-49 -39 -18 c-61 -27 -141 -40 -218 -36 -145 8 -249 88 -390 300 -84 128 -178
235 -250 286 -65 47 -57 34 12 -21 70 -54 142 -142 243 -292 41 -60 99 -135
130 -166 126 -127 274 -154 463 -86 l63 23 104 -63 c145 -89 432 -233 585
-294 28 -11 27 -12 -41 -26 -108 -21 -183 -63 -287 -160 -169 -156 -193 -169
-405 -213 -399 -83 -656 -167 -932 -304 -183 -91 -209 -116 -369 -343 -102
-144 -130 -163 -274 -184 -98 -14 -314 -7 -466 16 -257 39 -395 127 -559 357
-45 63 -98 134 -119 159 -144 171 -172 302 -124 578 12 73 25 209 31 325 9
210 19 280 49 357 10 25 39 149 65 275 42 210 112 497 230 939 228 858 324
1909 265 2915 -52 872 -139 1517 -399 2930 -55 300 -121 662 -146 805 -208
1165 -277 1480 -489 2225 -192 675 -270 1009 -330 1410 -103 678 -114 1355
-35 2055 77 685 168 1098 379 1720 255 748 483 1224 980 2040 128 211 340 583
405 715 79 158 120 302 159 570 38 254 41 716 6 962 -12 85 -25 107 -17 28 25
-224 15 -750 -19 -980 -18 -126 -57 -305 -85 -392 -40 -125 -196 -410 -505
-923 -479 -798 -681 -1214 -922 -1901 -181 -513 -291 -939 -356 -1369 -120
-796 -144 -1418 -80 -2085 57 -598 141 -999 403 -1921 203 -715 266 -1008 486
-2249 31 -173 97 -533 146 -800 50 -267 114 -629 144 -805 281 -1664 326
-2891 149 -4090 -35 -236 -125 -681 -174 -855 -117 -419 -195 -744 -244 -1007
-13 -71 -39 -175 -56 -229 -29 -90 -33 -119 -45 -324 -7 -124 -23 -281 -35
-350 -43 -249 -18 -388 97 -540 31 -41 92 -124 136 -185 218 -303 367 -381
793 -416 245 -20 401 6 486 80 57 50 68 56 318 149 314 117 488 175 736 247
1474 426 2494 449 3834 84 475 -129 959 -314 1490 -569 236 -113 284 -132 390
-151 108 -19 295 7 407 56 l52 23 62 -25 c88 -36 193 -29 342 20 339 114 636
98 830 -44 96 -70 149 -86 219 -65 60 18 86 37 121 89 l25 37 6 -35 c8 -41 47
-90 89 -112 45 -23 127 -12 212 27 177 81 242 92 345 56 128 -45 256 -31 357
37 97 67 137 166 94 234 -32 51 -69 64 -210 74 -198 13 -337 61 -499 172 -111
76 -193 88 -249 35 -37 -34 -45 -55 -59 -148 -8 -52 -27 -116 -49 -165 -34
-79 -35 -79 -35 -40 0 26 13 67 36 115 50 104 54 159 17 229 -21 41 -39 60
-73 78 -44 24 -48 24 -235 17 -156 -5 -208 -3 -290 11 -157 27 -316 80 -498
166 -163 77 -254 109 -307 109 -14 0 -43 -9 -66 -19 -56 -25 -74 -68 -85 -198
-10 -135 -27 -191 -99 -328 -32 -62 -62 -128 -65 -147 l-7 -36 -81 -12 c-45
-6 -91 -14 -102 -16 -19 -4 -19 -4 -1 8 75 51 160 128 194 176 100 143 137
258 129 397 -8 147 -59 251 -147 299 -43 23 -67 28 -177 36 -260 17 -451 108
-1103 523 -508 324 -557 361 -745 552 -161 164 -206 190 -331 190 l-82 0 -4
60 c-10 121 -63 177 -225 239 l-88 33 -7 52 c-16 107 -76 176 -196 226 -37 16
-110 50 -162 76 -124 61 -261 109 -313 109 -23 0 -59 -9 -79 -20 l-37 -19 -11
35 c-16 49 -67 104 -115 125 -22 10 -77 27 -122 38 -45 12 -121 42 -169 67
-83 43 -92 46 -151 42 -52 -3 -69 -9 -102 -36 l-39 -32 -7 43 c-11 61 -64 111
-135 126 -57 12 -67 11 -221 -25 l-77 -17 -44 26 c-79 46 -122 98 -191 232
l-66 128 43 71 c177 294 236 463 236 682 0 139 -13 222 -75 483 -199 842 -229
1584 -110 2671 77 698 210 1424 495 2705 254 1142 386 1930 490 2915 94 896
139 1688 180 3185 12 421 22 521 74 742 78 332 70 535 -36 903 l-42 145 -2
240 c-2 289 -17 495 -43 596 -41 162 -110 261 -200 288 -22 6 -88 16 -148 21
-141 13 -225 41 -331 108 -127 81 -165 99 -249 118 -88 19 -186 15 -378 -15
-305 -49 -541 -71 -770 -71 -71 0 -173 -5 -225 -10 -164 -18 -265 -82 -332
-212 -24 -48 -33 -58 -36 -43 -3 11 -2 155 1 320 4 261 23 542 43 655 6 34 7
34 33 -40 40 -112 75 -166 171 -262 79 -78 100 -93 211 -147 140 -68 243 -100
427 -133 177 -31 464 -31 670 1 188 28 423 88 553 140 372 150 716 461 836
758 88 219 94 479 17 698 -43 120 -112 321 -122 354 -10 34 -32 39 -32 8z
m-1068 -2038 c65 -14 117 -39 231 -111 113 -73 182 -95 345 -113 152 -17 199
-36 237 -93 36 -54 71 -147 89 -234 19 -94 37 -417 34 -623 l-2 -150 47 -165
c101 -353 112 -573 41 -852 -51 -204 -65 -318 -74 -633 -38 -1187 -58 -1695
-80 -2050 -103 -1594 -253 -2653 -590 -4165 -327 -1469 -462 -2242 -534 -3080
-65 -742 -42 -1388 70 -1990 14 -74 49 -241 79 -370 30 -129 59 -284 65 -344
26 -236 -30 -440 -200 -729 -34 -59 -64 -107 -67 -107 -2 0 -21 13 -41 30 -50
40 -118 68 -237 100 l-100 27 -7 105 c-8 133 -34 227 -103 380 -156 341 -258
786 -300 1314 -40 510 -60 1544 -49 2619 12 1157 10 2927 -3 3317 -6 177 -7
362 -2 435 4 70 15 272 24 448 8 176 24 480 35 675 49 904 61 1281 62 1935 0
844 -23 1315 -87 1835 l-35 278 21 113 c11 63 43 181 72 264 49 142 52 155 52
250 0 117 -16 172 -76 266 -83 128 -174 215 -416 397 l-122 92 -31 100 c-35
112 -54 203 -70 334 l-11 87 46 88 c55 106 100 155 172 188 69 32 134 40 388
47 310 10 528 32 875 89 53 9 202 6 252 -4z m-1118 -2904 c69 -660 71 -1898 6
-3140 -21 -403 -42 -774 -49 -870 -7 -97 -7 -94 -14 105 -31 891 -45 3795 -19
4115 19 235 23 243 43 80 10 -77 25 -207 33 -290z m-744 -4191 c-5 -126 -11
-323 -12 -439 -3 -237 12 -147 -159 -898 -118 -513 -184 -736 -333 -1116 -31
-79 -55 -146 -53 -148 7 -6 155 379 211 547 75 226 179 651 293 1190 l28 135
3 -164 c2 -157 1 -173 -33 -330 -43 -198 -153 -638 -201 -805 -19 -65 -33
-121 -31 -123 12 -11 177 614 232 877 14 68 28 127 31 130 8 7 -3 -488 -11
-525 -5 -22 -4 -26 4 -15 7 10 10 -110 10 -395 0 -348 -3 -435 -20 -575 -61
-507 -167 -1039 -274 -1370 -24 -74 -80 -252 -125 -395 -45 -143 -128 -406
-185 -585 -177 -554 -203 -648 -271 -975 l-43 -210 -2 770 c-2 424 -4 1018 -6
1320 -1 303 2 624 7 715 6 91 12 224 14 295 2 72 9 169 15 216 6 48 13 122 16
166 13 238 86 679 160 968 90 348 143 493 370 1005 173 389 270 635 330 837
22 72 41 130 42 129 2 -2 -2 -106 -7 -232z m-32 -5129 c-33 -361 -68 -667 -99
-845 -44 -256 -87 -604 -100 -808 -22 -334 28 -748 115 -965 23 -56 24 -60 8
-115 -16 -60 -19 -68 -26 -61 -10 9 -76 241 -100 352 -38 169 -56 310 -65 518
-8 180 -8 181 -9 59 -3 -235 25 -445 93 -705 19 -71 45 -157 58 -190 l24 -60
-22 -65 -23 -65 -22 50 c-12 28 -39 118 -60 200 -22 83 -39 142 -39 133 -1
-31 67 -283 92 -339 l24 -56 -21 -66 c-11 -37 -24 -67 -27 -67 -9 0 -46 137
-69 254 -10 50 -19 81 -19 70 -1 -34 28 -177 55 -272 23 -80 24 -91 13 -154
-7 -38 -15 -71 -19 -73 -8 -5 -47 235 -60 370 -83 877 -101 2027 -49 3105 5
107 12 294 15 415 6 203 9 227 35 310 l28 90 0 -135 c0 -74 -4 -225 -9 -335
-5 -110 -12 -256 -14 -325 -4 -112 -3 -106 9 50 7 96 19 319 25 495 9 258 14
330 29 375 10 30 26 89 37 130 l19 75 7 -155 c12 -243 -5 -699 -48 -1263 -8
-114 -14 -215 -12 -225 5 -20 20 158 50 568 16 226 22 397 23 730 l2 435 51
251 c46 227 99 534 104 610 1 16 5 -450 8 -1036 5 -970 4 -1083 -12 -1265z
m-362 643 c-10 -130 -34 -772 -47 -1238 -17 -616 -3 -1199 46 -1900 35 -500
51 -631 95 -810 12 -48 16 -93 13 -126 -7 -67 13 -212 38 -280 11 -30 37 -78
56 -107 20 -28 48 -93 64 -143 92 -293 264 -611 482 -890 109 -140 342 -368
517 -508 528 -420 1135 -696 1919 -871 86 -19 311 -62 501 -95 807 -140 1135
-241 2179 -670 189 -77 358 -149 376 -158 18 -9 54 -45 79 -79 83 -114 179
-148 335 -120 47 9 131 21 186 27 55 6 109 13 120 16 16 4 24 -5 42 -41 l22
-46 -33 -14 c-76 -32 -238 -57 -336 -52 -124 6 -194 30 -450 155 -885 431
-1795 702 -2685 799 -226 24 -827 24 -1080 0 -725 -71 -1565 -278 -2355 -583
-90 -35 -165 -62 -167 -60 -7 6 135 191 145 189 6 -2 9 3 6 11 -3 9 12 28 40
49 41 31 72 41 283 92 237 57 461 113 813 205 313 81 604 147 857 194 373 70
517 87 788 95 l240 6 -185 13 c-195 14 -245 24 -505 103 -529 161 -988 389
-1365 680 -113 87 -348 320 -444 439 -96 120 -252 356 -321 484 -251 468 -394
1037 -469 1866 -59 639 -103 1844 -87 2355 l8 240 46 135 47 135 -5 -85 c-11
-213 -15 -625 -6 -725 l10 -110 -4 125 c-2 69 1 285 6 480 l10 355 49 155 c27
85 65 208 85 273 20 64 39 117 42 117 3 0 2 -37 -1 -82z m393 -1138 c0 -140 6
-494 12 -787 14 -670 3 -879 -63 -1221 -12 -62 -25 -109 -29 -105 -15 16 -59
182 -79 297 -67 392 -51 755 65 1464 19 118 45 313 57 434 13 124 26 209 29
196 4 -13 7 -138 8 -278z m-700 -1025 c42 -1131 117 -1824 250 -2320 l30 -110
-24 -25 c-29 -30 -57 -93 -81 -180 -17 -63 -22 -69 -145 -191 -144 -140 -168
-180 -169 -271 0 -68 10 -98 46 -131 l26 -25 -42 -58 c-125 -172 -307 -309
-439 -330 l-40 -6 -12 43 c-15 55 -6 308 16 469 8 63 38 252 65 420 145 899
218 1641 260 2637 14 321 68 651 172 1053 27 107 53 206 57 220 3 14 9 -180
12 -430 4 -250 12 -594 18 -765z m2053 -1996 c132 -43 198 -103 256 -228 49
-108 96 -174 155 -222 l52 -42 -53 7 c-190 24 -440 222 -567 451 -20 35 -34
69 -31 74 7 10 92 -7 188 -40z m-64 -222 c30 -38 92 -97 136 -133 120 -96 328
-196 400 -193 12 1 -6 8 -39 17 l-60 17 125 6 c69 3 157 14 195 24 126 32 212
0 236 -88 7 -25 9 -80 6 -137 -11 -206 -101 -363 -295 -519 -79 -63 -182 -177
-182 -201 0 -5 -5 -21 -10 -36 l-11 -27 -36 34 c-75 71 -279 299 -368 409
-103 128 -214 287 -299 429 l-57 93 57 -48 c63 -54 225 -229 285 -309 21 -27
54 -77 73 -109 48 -81 45 -59 -4 33 -59 108 -117 178 -291 356 -141 145 -199
219 -199 258 0 7 33 44 74 80 l75 67 40 -47 c56 -67 216 -201 341 -284 100
-67 256 -149 310 -164 14 -3 -29 20 -95 53 -199 98 -375 225 -522 374 -72 73
-73 74 -61 106 7 18 15 31 19 30 3 -2 35 -34 70 -73 36 -38 89 -92 119 -120
30 -27 12 -4 -41 51 -144 152 -151 162 -138 209 l11 38 40 -64 c22 -35 65 -95
96 -132z m-342 -214 c19 -49 150 -274 224 -383 253 -376 659 -795 1065 -1100
261 -196 615 -415 912 -564 473 -237 1149 -468 1976 -676 176 -45 334 -88 351
-97 54 -27 86 -54 80 -65 -4 -7 -2 -8 4 -4 7 4 17 2 24 -3 7 -6 38 -31 68 -55
75 -60 190 -186 190 -208 0 -3 -55 18 -122 47 -632 271 -1153 467 -1526 575
-269 77 -707 177 -819 186 -144 12 -196 30 -430 148 -462 234 -895 515 -1246
810 -379 318 -665 626 -888 960 -96 142 -99 149 -83 167 9 11 20 19 23 19 3 0
17 -21 31 -47 62 -117 247 -357 411 -533 70 -75 25 -17 -90 115 -52 60 -126
152 -166 206 -72 96 -175 259 -175 276 0 4 12 26 26 47 l26 38 40 -73 c107
-199 340 -495 539 -684 29 -27 7 0 -48 60 -231 252 -355 412 -463 598 l-63
108 26 47 c14 26 36 66 48 90 13 23 26 42 30 42 4 0 15 -21 25 -47z m-894
-188 c89 -171 165 -240 285 -260 85 -14 223 35 310 110 l37 32 87 -131 c47
-72 109 -160 137 -196 l51 -65 -33 -17 c-40 -20 -90 -77 -134 -151 -50 -86
-139 -118 -232 -83 -68 26 -74 26 -25 1 41 -21 61 -25 112 -22 86 4 125 36
203 167 20 34 90 90 112 90 3 0 41 -42 84 -92 43 -51 139 -154 212 -229 l132
-136 -42 -7 c-24 -4 -90 -23 -148 -43 -93 -32 -117 -37 -205 -37 -97 -1 -104
0 -175 36 -98 48 -250 170 -439 351 -62 60 -228 314 -309 475 -70 138 -162
366 -162 399 1 35 78 -70 142 -192z m-414 9 c51 -150 127 -330 193 -453 37
-69 45 -92 32 -86 -10 4 -54 14 -98 22 -145 26 -318 4 -442 -59 -60 -29 -64
-30 -87 -14 -15 9 -30 32 -36 55 -25 93 31 195 170 306 86 70 115 112 146 216
28 89 62 156 74 142 4 -4 25 -62 48 -129z m2972 -7 c47 -24 110 -50 140 -57
135 -31 196 -64 226 -123 18 -33 43 -231 44 -332 0 -92 -30 -145 -148 -262
-107 -105 -145 -159 -210 -294 -58 -122 -107 -180 -183 -218 -65 -32 -117 -39
-165 -21 -34 13 -189 137 -356 283 -119 104 -128 114 -128 148 0 60 63 144
182 242 192 158 273 288 309 496 19 114 36 146 90 174 48 26 98 17 199 -36z
m627 -242 c94 -32 427 -188 471 -222 36 -27 67 -81 77 -136 l7 -36 -58 23
c-104 42 -171 50 -313 38 -69 -7 -166 -14 -216 -18 -49 -3 -107 -12 -128 -19
l-38 -13 8 31 c10 39 9 114 -1 227 -9 99 -3 113 59 135 52 18 45 19 132 -10z
m406 -381 c59 -15 280 -100 341 -131 40 -20 84 -61 101 -94 8 -14 17 -52 20
-85 l7 -59 -65 -42 c-69 -45 -202 -180 -275 -278 -61 -82 -97 -163 -122 -272
-11 -51 -33 -125 -49 -165 -16 -41 -31 -85 -33 -98 -5 -40 -67 -65 -160 -65
l-77 0 -203 102 c-112 56 -261 138 -333 181 -260 157 -266 162 -265 235 1 51
23 98 73 160 25 31 76 116 113 188 62 121 75 140 182 253 145 151 153 155 362
167 85 6 160 11 165 14 26 10 164 3 218 -11z m-2848 -440 c132 -65 240 -65
434 1 69 23 124 35 159 35 53 0 54 -1 145 -83 51 -45 124 -108 163 -140 l71
-59 9 -106 c7 -96 7 -302 0 -310 -2 -1 -29 8 -59 22 l-56 25 5 83 c3 46 1 112
-4 148 -7 56 -8 47 -8 -72 1 -75 -2 -139 -6 -143 -14 -14 -498 263 -498 285 0
10 104 93 168 135 24 16 67 37 95 47 41 15 44 18 17 13 -54 -8 -127 -50 -215
-120 -44 -36 -83 -65 -86 -65 -26 -1 -405 307 -504 410 l-60 63 80 -67 c44
-37 112 -82 150 -102z m3562 15 c49 -24 84 -53 165 -140 169 -182 302 -280
843 -621 609 -384 821 -478 1077 -478 118 0 188 -54 228 -176 55 -165 17 -332
-117 -516 -69 -95 -228 -192 -335 -204 -143 -17 -207 20 -312 180 -95 143
-164 218 -285 309 -230 174 -723 437 -976 521 -203 68 -214 70 -540 71 -288 1
-302 2 -360 25 -79 30 -131 84 -140 144 -8 52 -1 90 32 171 13 33 35 107 49
165 30 131 66 206 145 301 134 161 248 261 321 280 55 14 138 1 205 -32z
m-1854 -321 c-3 -29 -5 -56 -6 -60 -2 -9 -117 64 -117 75 0 4 15 7 33 7 17 1
43 7 57 15 37 21 37 20 33 -37z m-633 -20 c118 -89 393 -277 532 -363 80 -49
144 -94 141 -99 -12 -19 -98 -48 -162 -53 -37 -3 -98 0 -135 6 -68 12 -379
122 -412 145 -15 12 -18 33 -19 177 -1 90 -6 179 -10 197 -4 17 -4 32 1 32 5
0 34 -19 64 -42z m829 -537 c59 -33 159 -85 221 -115 62 -31 104 -56 93 -56
-55 0 -594 128 -632 150 -13 7 -10 9 15 10 44 0 128 27 156 50 12 11 27 19 31
20 5 0 57 -27 116 -59z m871 -22 c0 -11 7 -33 15 -49 l15 -29 -81 34 c-44 19
-84 35 -87 36 -4 0 22 8 58 18 73 19 80 18 80 -10z m-1708 -98 c117 -39 242
-78 278 -88 l65 -19 -145 -18 c-297 -36 -810 -143 -1265 -262 -373 -98 -887
-225 -891 -221 -6 5 201 93 315 134 136 49 359 109 566 153 99 21 197 45 218
53 59 25 124 74 222 168 128 121 226 167 362 168 51 1 101 -12 275 -68z m2658
-125 c126 -36 295 -104 455 -183 155 -77 347 -184 341 -190 -8 -8 -602 146
-840 218 -217 66 -530 171 -541 181 -6 6 80 8 240 5 233 -4 256 -6 345 -31z
m2475 -287 c22 -6 108 -44 190 -84 267 -130 478 -187 700 -188 72 0 171 1 220
4 77 3 95 1 124 -16 80 -47 92 -139 34 -261 -32 -67 -38 -89 -39 -149 -1 -108
-2 -112 -40 -154 -72 -81 -145 -80 -262 2 -132 93 -255 128 -453 129 -139 0
-244 -19 -404 -71 -66 -22 -145 -42 -176 -46 -97 -12 -220 31 -250 87 -28 53
-2 160 65 267 50 78 76 166 88 290 11 125 27 172 61 189 29 14 92 15 142 1z
m1547 -333 c20 -7 65 -33 100 -58 153 -110 367 -178 555 -178 97 0 143 -31
143 -97 -1 -67 -87 -157 -178 -183 -85 -25 -143 -24 -226 5 -114 39 -184 33
-331 -31 -142 -61 -215 -70 -262 -30 -65 54 -68 142 -10 274 21 46 40 111 47
158 15 103 24 122 63 139 40 17 52 18 99 1z"/>
<path d="M8818 20963 c7 -3 16 -2 19 1 4 3 -2 6 -13 5 -11 0 -14 -3 -6 -6z"/>
<path d="M8905 20937 c33 -14 83 -36 111 -50 27 -14 68 -28 90 -31 l39 -6 -35
11 c-19 6 -73 28 -120 49 -47 21 -98 41 -115 45 -16 3 -3 -5 30 -18z"/>
<path d="M7439 20914 c-87 -13 -149 -39 -198 -80 -34 -28 -111 -138 -111 -157
0 -6 17 16 38 49 108 166 243 207 552 169 164 -20 396 -16 510 10 54 12 57 13
17 9 -266 -29 -333 -30 -504 -10 -175 22 -220 23 -304 10z"/>
<path d="M8308 20923 c6 -2 18 -2 25 0 6 3 1 5 -13 5 -14 0 -19 -2 -12 -5z"/>
<path d="M9163 20843 c9 -2 25 -2 35 0 9 3 1 5 -18 5 -19 0 -27 -2 -17 -5z"/>
<path d="M8715 19879 c-27 -3 -99 -20 -160 -37 -60 -17 -128 -34 -150 -38 -22
-4 -34 -9 -27 -11 6 -3 87 14 179 37 255 64 316 54 451 -78 32 -31 73 -75 91
-97 l33 -40 -33 48 c-44 64 -145 159 -198 186 -54 28 -121 39 -186 30z"/>
<path d="M9586 19790 c6 -89 18 -161 45 -253 30 -101 32 -77 3 32 -13 51 -31
139 -39 195 -13 94 -14 96 -9 26z"/>
<path d="M9301 19234 c1 -25 58 -257 58 -241 1 21 -47 238 -54 245 -3 3 -5 1
-4 -4z"/>
<path d="M9361 18954 c0 -11 3 -14 6 -6 3 7 2 16 -1 19 -3 4 -6 -2 -5 -13z"/>
<path d="M7742 18420 c0 -19 2 -27 5 -17 2 9 2 25 0 35 -3 9 -5 1 -5 -18z"/>
<path d="M7754 18320 c3 -36 13 -128 21 -205 38 -365 57 -705 81 -1385 18
-552 30 -820 32 -730 4 160 -32 1172 -54 1525 -21 341 -69 843 -81 855 -3 3
-3 -24 1 -60z"/>
<path d="M9591 18344 c0 -11 3 -14 6 -6 3 7 2 16 -1 19 -3 4 -6 -2 -5 -13z"/>
<path d="M9582 18300 c0 -14 2 -19 5 -12 2 6 2 18 0 25 -3 6 -5 1 -5 -13z"/>
<path d="M9572 18245 c0 -16 2 -22 5 -12 2 9 2 23 0 30 -3 6 -5 -1 -5 -18z"/>
<path d="M9560 18204 c0 -5 -13 -99 -30 -209 -48 -330 -91 -740 -160 -1545
-86 -993 -211 -1998 -371 -2959 -33 -200 -58 -368 -57 -373 2 -5 27 127 56
294 169 983 295 1984 392 3108 63 735 106 1152 151 1468 17 118 28 216 25 220
-3 3 -6 1 -6 -4z"/>
<path d="M7893 15820 c0 -30 2 -43 4 -27 2 15 2 39 0 55 -2 15 -4 2 -4 -28z"/>
<path d="M7861 14839 c-1 -9 -10 -98 -21 -199 -55 -498 -150 -1768 -139 -1850
2 -14 14 137 27 335 31 485 65 907 108 1344 19 200 33 368 30 375 -2 6 -5 4
-5 -5z"/>
<path d="M8932 13075 c0 -16 2 -22 5 -12 2 9 2 23 0 30 -3 6 -5 -1 -5 -18z"/>
<path d="M8922 13015 c0 -16 2 -22 5 -12 2 9 2 23 0 30 -3 6 -5 -1 -5 -18z"/>
<path d="M8912 12960 c0 -14 2 -19 5 -12 2 6 2 18 0 25 -3 6 -5 1 -5 -13z"/>
<path d="M8901 12904 c0 -11 3 -14 6 -6 3 7 2 16 -1 19 -3 4 -6 -2 -5 -13z"/>
<path d="M7693 12680 c0 -47 2 -66 4 -42 2 23 2 61 0 85 -2 23 -4 4 -4 -43z"/>
<path d="M7683 12500 c0 -41 2 -58 4 -37 2 20 2 54 0 75 -2 20 -4 3 -4 -38z"/>
<path d="M8482 10070 c0 -14 2 -19 5 -12 2 6 2 18 0 25 -3 6 -5 1 -5 -13z"/>
<path d="M8472 10000 c0 -19 2 -27 5 -17 2 9 2 25 0 35 -3 9 -5 1 -5 -18z"/>
<path d="M8462 9930 c0 -19 2 -27 5 -17 2 9 2 25 0 35 -3 9 -5 1 -5 -18z"/>
<path d="M8452 9860 c0 -19 2 -27 5 -17 2 9 2 25 0 35 -3 9 -5 1 -5 -18z"/>
<path d="M8422 9654 c-129 -996 -143 -1692 -51 -2424 23 -185 66 -441 76 -449
3 -4 3 10 -1 29 -57 291 -106 772 -121 1195 -12 365 26 977 101 1588 14 114
24 213 22 219 -2 6 -14 -65 -26 -158z"/>
<path d="M8451 6754 c0 -11 3 -14 6 -6 3 7 2 16 -1 19 -3 4 -6 -2 -5 -13z"/>
<path d="M8461 6714 c0 -11 3 -14 6 -6 3 7 2 16 -1 19 -3 4 -6 -2 -5 -13z"/>
<path d="M8471 6674 c0 -11 3 -14 6 -6 3 7 2 16 -1 19 -3 4 -6 -2 -5 -13z"/>
<path d="M8499 5993 c-11 -27 -31 -88 -44 -136 -42 -157 -79 -192 -195 -183
l-65 5 54 -11 c113 -21 166 13 201 133 12 41 34 111 49 157 31 91 31 107 0 35z"/>
<path d="M6821 13766 c-1 -10 -17 -91 -37 -178 -46 -205 -120 -444 -195 -632
-32 -82 -57 -151 -55 -153 7 -7 144 353 179 472 64 213 123 474 114 498 -3 7
-6 3 -6 -7z"/>
<path d="M6492 12965 c-17 -37 -14 -45 4 -12 9 16 14 31 11 33 -2 2 -9 -7 -15
-21z"/>
<path d="M6432 12828 c-111 -255 -239 -602 -315 -858 -47 -156 -138 -518 -136
-542 0 -7 24 82 54 197 29 116 73 278 99 361 70 231 230 665 320 868 14 33 25
61 23 63 -2 2 -22 -38 -45 -89z"/>
<path d="M6771 12184 c-73 -392 -159 -779 -215 -974 -14 -46 -23 -86 -21 -88
5 -5 52 152 90 304 62 248 191 900 183 926 -2 6 -19 -70 -37 -168z"/>
<path d="M6236 11945 c-9 -26 -7 -32 5 -12 6 10 9 21 6 23 -2 3 -7 -2 -11 -11z"/>
<path d="M6806 11915 c-32 -209 -154 -727 -221 -934 -20 -62 -77 -210 -126
-329 -49 -118 -88 -217 -86 -219 5 -4 167 380 202 477 84 238 260 992 242
1042 -2 7 -7 -9 -11 -37z"/>
<path d="M6210 11878 c-53 -149 -145 -431 -179 -550 -44 -155 -101 -398 -100
-426 0 -9 18 56 39 144 50 208 115 431 195 669 35 104 63 191 61 193 -2 1 -9
-12 -16 -30z"/>
<path d="M5972 11390 c0 -14 2 -19 5 -12 2 6 2 18 0 25 -3 6 -5 1 -5 -13z"/>
<path d="M6120 11058 c-96 -250 -180 -490 -179 -511 0 -7 26 62 58 153 32 91
95 261 140 379 45 118 80 216 78 218 -2 2 -46 -106 -97 -239z"/>
<path d="M6125 10738 c-100 -216 -188 -481 -209 -628 -3 -25 12 20 33 100 50
188 79 271 162 465 37 88 67 161 65 162 -2 2 -25 -43 -51 -99z"/>
<path d="M6187 10442 c-91 -272 -150 -466 -191 -629 -39 -155 -76 -343 -75
-376 0 -12 13 39 29 113 57 270 121 502 252 898 33 101 58 185 56 188 -3 2
-34 -85 -71 -194z"/>
<path d="M5926 10504 c-4 -14 -5 -28 -3 -31 3 -2 8 8 11 23 4 14 5 28 3 31 -3
2 -8 -8 -11 -23z"/>
<path d="M6356 10405 c-9 -26 -7 -32 5 -12 6 10 9 21 6 23 -2 3 -7 -2 -11 -11z"/>
<path d="M6421 10154 c0 -11 3 -14 6 -6 3 7 2 16 -1 19 -3 4 -6 -2 -5 -13z"/>
<path d="M6327 9822 c-48 -169 -130 -446 -182 -617 -142 -462 -224 -773 -213
-807 3 -7 10 17 17 52 25 127 91 370 195 710 147 484 281 958 274 966 -2 1
-43 -135 -91 -304z"/>
<path d="M6171 9813 c-77 -244 -146 -485 -179 -633 -33 -143 -63 -328 -61
-376 0 -16 12 38 25 121 31 193 93 443 193 775 44 145 78 266 76 268 -2 2 -26
-67 -54 -155z"/>
<path d="M5922 8360 c0 -14 2 -19 5 -12 2 6 2 18 0 25 -3 6 -5 1 -5 -13z"/>
<path d="M6753 10530 c0 -41 2 -58 4 -37 2 20 2 54 0 75 -2 20 -4 3 -4 -38z"/>
<path d="M6766 10190 c5 -277 -9 -864 -26 -1073 -6 -67 -26 -266 -45 -441 -20
-176 -34 -326 -33 -335 8 -35 82 645 97 889 16 252 23 864 12 1055 -9 162 -9
157 -5 -95z"/>
<path d="M6513 8970 c0 -36 2 -50 4 -32 2 17 2 47 0 65 -2 17 -4 3 -4 -33z"/>
<path d="M6503 8810 c0 -36 2 -50 4 -32 2 17 2 47 0 65 -2 17 -4 3 -4 -33z"/>
<path d="M6493 8645 c0 -38 2 -53 4 -32 2 20 2 52 0 70 -2 17 -4 1 -4 -38z"/>
<path d="M6583 8565 c0 -22 2 -30 4 -17 2 12 2 30 0 40 -3 9 -5 -1 -4 -23z"/>
<path d="M6483 8440 c0 -47 2 -66 4 -42 2 23 2 61 0 85 -2 23 -4 4 -4 -43z"/>
<path d="M6652 8290 c0 -19 2 -27 5 -17 2 9 2 25 0 35 -3 9 -5 1 -5 -18z"/>
<path d="M6474 8120 c0 -63 1 -89 3 -57 2 31 2 83 0 115 -2 31 -3 5 -3 -58z"/>
<path d="M6531 6464 c0 -11 3 -14 6 -6 3 7 2 16 -1 19 -3 4 -6 -2 -5 -13z"/>
<path d="M6542 6410 c0 -14 2 -19 5 -12 2 6 2 18 0 25 -3 6 -5 1 -5 -13z"/>
<path d="M6522 6215 c0 -16 2 -22 5 -12 2 9 2 23 0 30 -3 6 -5 -1 -5 -18z"/>
<path d="M6372 9360 c0 -14 2 -19 5 -12 2 6 2 18 0 25 -3 6 -5 1 -5 -13z"/>
<path d="M6352 9180 c-31 -397 -39 -857 -22 -1250 7 -143 7 -117 5 145 -4 351
7 812 26 1069 6 90 9 170 7 177 -2 7 -10 -56 -16 -141z"/>
<path d="M6193 8540 c0 -30 2 -43 4 -27 2 15 2 39 0 55 -2 15 -4 2 -4 -28z"/>
<path d="M6204 8175 c0 -99 2 -138 3 -87 2 51 2 132 0 180 -1 48 -3 6 -3 -93z"/>
<path d="M6211 7874 c1 -65 5 -164 9 -219 5 -63 5 -20 2 115 -2 118 -6 217 -8
219 -2 2 -3 -49 -3 -115z"/>
<path d="M6343 7635 c0 -44 2 -61 4 -37 2 23 2 59 0 80 -2 20 -4 1 -4 -43z"/>
<path d="M6233 7490 c0 -30 2 -43 4 -27 2 15 2 39 0 55 -2 15 -4 2 -4 -28z"/>
<path d="M6302 6405 c0 -16 2 -22 5 -12 2 9 2 23 0 30 -3 6 -5 -1 -5 -18z"/>
<path d="M6311 6335 c-1 -40 44 -444 70 -615 107 -715 241 -1142 477 -1523 61
-99 190 -275 218 -298 10 -8 -7 18 -38 56 -69 86 -159 222 -223 335 -234 413
-370 937 -470 1810 -30 262 -32 275 -34 235z"/>
<path d="M7520 3627 c0 -10 167 -144 268 -216 124 -87 318 -204 449 -270 150
-75 140 -62 -15 19 -233 123 -488 290 -649 428 -29 24 -53 42 -53 39z"/>
<path d="M7460 3506 c0 -2 8 -10 18 -17 15 -13 16 -12 3 4 -13 16 -21 21 -21
13z"/>
<path d="M7500 3475 c0 -12 215 -163 329 -231 148 -88 387 -207 591 -295 137
-58 514 -190 542 -189 7 1 -72 29 -177 64 -432 144 -911 381 -1201 594 -46 34
-84 59 -84 57z"/>
<path d="M8390 3070 c19 -11 40 -19 45 -19 6 0 -6 8 -25 19 -19 11 -39 19 -45
19 -5 0 6 -8 25 -19z"/>
<path d="M8988 2753 c7 -3 16 -2 19 1 4 3 -2 6 -13 5 -11 0 -14 -3 -6 -6z"/>
<path d="M9028 2743 c7 -3 16 -2 19 1 4 3 -2 6 -13 5 -11 0 -14 -3 -6 -6z"/>
<path d="M9068 2733 c7 -3 16 -2 19 1 4 3 -2 6 -13 5 -11 0 -14 -3 -6 -6z"/>
<path d="M9613 2613 c15 -2 39 -2 55 0 15 2 2 4 -28 4 -30 0 -43 -2 -27 -4z"/>
<path d="M9350 2573 c-252 -16 -375 -28 -485 -44 -147 -21 -644 -121 -628
-126 5 -2 97 15 203 37 367 76 548 101 890 120 107 6 202 13 210 14 18 4 -128
4 -190 -1z"/>
<path d="M9775 2514 c186 -18 274 -31 529 -75 491 -85 651 -122 1145 -263 145
-42 267 -76 270 -75 26 3 -465 145 -739 214 -330 83 -963 194 -1135 199 -60 2
-92 2 -70 0z"/>
<path d="M7218 2173 c7 -3 16 -2 19 1 4 3 -2 6 -13 5 -11 0 -14 -3 -6 -6z"/>
<path d="M7178 2163 c7 -3 16 -2 19 1 4 3 -2 6 -13 5 -11 0 -14 -3 -6 -6z"/>
<path d="M7100 2150 c-20 -6 -21 -8 -5 -8 11 0 31 4 45 8 20 6 21 8 5 8 -11 0
-31 -4 -45 -8z"/>
<path d="M7048 2133 c7 -3 16 -2 19 1 4 3 -2 6 -13 5 -11 0 -14 -3 -6 -6z"/>
<path d="M7008 2123 c7 -3 16 -2 19 1 4 3 -2 6 -13 5 -11 0 -14 -3 -6 -6z"/>
<path d="M6822 2078 c-78 -22 -141 -42 -139 -45 4 -3 271 69 302 81 41 17 -44
-2 -163 -36z"/>
<path d="M7015 2070 c-13 -5 -14 -9 -5 -9 8 0 24 4 35 9 13 5 14 9 5 9 -8 0
-24 -4 -35 -9z"/>
<path d="M11800 2072 c8 -5 26 -13 40 -16 17 -5 20 -4 10 2 -8 5 -26 13 -40
16 -17 5 -20 4 -10 -2z"/>
<path d="M6930 2045 c-19 -7 -28 -13 -20 -13 8 0 31 6 50 13 19 7 28 13 20 13
-8 0 -31 -6 -50 -13z"/>
<path d="M11910 2030 c8 -5 20 -10 25 -10 6 0 3 5 -5 10 -8 5 -19 10 -25 10
-5 0 -3 -5 5 -10z"/>
<path d="M6800 2005 c-36 -13 -60 -24 -54 -24 5 -1 41 10 80 23 38 14 62 24
54 24 -8 0 -44 -10 -80 -23z"/>
<path d="M6595 1935 c-25 -12 -26 -14 -5 -9 28 7 60 23 45 23 -5 0 -23 -6 -40
-14z"/>
<path d="M7890 5154 c0 -12 322 -331 400 -395 77 -63 105 -80 45 -28 -83 72
-285 267 -367 353 -42 45 -77 76 -78 70z"/>
<path d="M7820 5072 c0 -21 88 -122 270 -307 102 -104 207 -218 234 -252 27
-35 51 -63 54 -63 16 0 -112 145 -283 320 -94 96 -194 206 -223 244 -29 38
-52 64 -52 58z"/>
<path d="M8250 5026 c0 -2 8 -10 18 -17 15 -13 16 -12 3 4 -13 16 -21 21 -21
13z"/>
<path d="M8345 4955 c11 -9 29 -21 40 -26 l20 -10 -20 16 c-11 9 -29 21 -40
26 l-20 10 20 -16z"/>
<path d="M8410 4914 c0 -7 159 -80 190 -88 l25 -6 -25 12 c-113 53 -190 86
-190 82z"/>
<path d="M8708 4863 c6 -2 18 -2 25 0 6 3 1 5 -13 5 -14 0 -19 -2 -12 -5z"/>
<path d="M8225 4731 c28 -29 73 -71 100 -94 58 -47 32 -20 -75 78 -61 57 -66
60 -25 16z"/>
<path d="M9052 4700 c0 -14 2 -19 5 -12 2 6 2 18 0 25 -3 6 -5 1 -5 -13z"/>
<path d="M9031 4629 c-34 -114 -94 -203 -230 -343 -58 -60 -97 -104 -85 -98
39 20 201 200 248 275 46 74 90 179 83 200 -1 5 -9 -10 -16 -34z"/>
<path d="M7796 4848 c78 -156 203 -338 378 -553 63 -76 347 -385 354 -385 7 0
-20 31 -122 140 -259 276 -499 599 -612 823 -24 48 -46 87 -49 87 -3 0 20 -51
51 -112z"/>
<path d="M8445 3750 c30 -34 253 -219 385 -319 272 -206 507 -351 855 -526
234 -118 474 -229 482 -222 2 2 -50 28 -114 57 -163 73 -503 245 -653 331
-292 167 -531 335 -855 603 -66 55 -111 89 -100 76z"/>
<path d="M11355 2385 c17 -8 37 -14 45 -14 8 0 -1 7 -20 14 -46 18 -64 17 -25
0z"/>
<path d="M11535 2329 c177 -59 478 -150 487 -147 8 3 -562 181 -591 185 -9 1
38 -16 104 -38z"/>
<path d="M12048 2173 c7 -3 16 -2 19 1 4 3 -2 6 -13 5 -11 0 -14 -3 -6 -6z"/>
<path d="M12268 2133 c7 -3 16 -2 19 1 4 3 -2 6 -13 5 -11 0 -14 -3 -6 -6z"/>
<path d="M12360 2025 c127 -45 147 -51 120 -36 -22 13 -220 81 -233 80 -7 0
44 -20 113 -44z"/>
<path d="M12510 1970 c8 -5 20 -10 25 -10 6 0 3 5 -5 10 -8 5 -19 10 -25 10
-5 0 -3 -5 5 -10z"/>
<path d="M12550 1956 c0 -2 7 -7 16 -10 8 -3 12 -2 9 4 -6 10 -25 14 -25 6z"/>
<path d="M6260 4537 c0 -10 13 -32 29 -48 25 -24 37 -29 78 -29 51 1 236 37
193 39 -14 0 -54 -6 -90 -14 -118 -26 -172 -15 -196 40 -9 20 -13 24 -14 12z"/>
<path d="M9297 4640 c-21 -171 -102 -315 -277 -490 -76 -75 -97 -100 -55 -63
148 129 220 218 281 346 36 76 67 202 62 246 -2 14 -7 -3 -11 -39z"/>
<path d="M9783 4515 c0 -22 2 -30 4 -17 2 12 2 30 0 40 -3 9 -5 -1 -4 -23z"/>
<path d="M9735 4212 c-17 -22 -62 -67 -102 -101 -104 -89 -166 -182 -219 -326
-25 -69 -96 -138 -156 -153 -102 -26 -182 -5 -265 71 -44 40 -52 45 -35 20 28
-39 103 -90 156 -104 61 -17 148 -5 200 25 55 32 79 65 122 168 54 129 92 184
199 284 55 51 108 107 118 124 25 41 17 38 -18 -8z"/>
<path d="M9971 4464 c0 -11 3 -14 6 -6 3 7 2 16 -1 19 -3 4 -6 -2 -5 -13z"/>
<path d="M9965 4387 c4 -80 61 -118 175 -115 39 0 36 2 -21 8 -108 13 -141 40
-152 125 -3 17 -3 8 -2 -18z"/>
<path d="M10228 4283 c7 -3 16 -2 19 1 4 3 -2 6 -13 5 -11 0 -14 -3 -6 -6z"/>
<path d="M10278 4113 c18 -2 45 -2 60 0 15 2 0 4 -33 4 -33 0 -45 -2 -27 -4z"/>
<path d="M10178 4103 c12 -2 30 -2 40 0 9 3 -1 5 -23 4 -22 0 -30 -2 -17 -4z"/>
<path d="M10393 4103 c9 -2 23 -2 30 0 6 3 -1 5 -18 5 -16 0 -22 -2 -12 -5z"/>
<path d="M10108 4093 c7 -3 16 -2 19 1 4 3 -2 6 -13 5 -11 0 -14 -3 -6 -6z"/>
<path d="M9666 3758 c-19 -40 -36 -84 -40 -98 l-6 -25 12 25 c41 88 76 170 72
170 -3 0 -20 -33 -38 -72z"/>
<path d="M10719 3717 c-25 -23 -71 -63 -103 -89 -130 -107 -188 -208 -216
-378 -23 -133 -50 -188 -114 -225 -54 -32 -131 -34 -195 -5 -24 11 -73 47
-108 80 -59 56 -155 120 -178 120 -5 0 17 -16 50 -36 33 -20 89 -63 124 -96
79 -74 128 -97 203 -98 69 0 95 9 141 49 47 42 66 86 84 194 27 172 76 264
196 370 100 88 173 157 167 157 -3 0 -26 -19 -51 -43z"/>
<path d="M11130 3659 c72 -12 110 -36 231 -149 119 -111 184 -162 294 -234 96
-63 105 -68 105 -63 0 2 -33 26 -72 52 -121 80 -225 163 -331 262 -109 104
-177 143 -242 142 -38 -1 -37 -2 15 -10z"/>
<path d="M10675 3219 c-4 -6 -5 -12 -2 -15 2 -3 7 2 10 11 7 17 1 20 -8 4z"/>
<path d="M10656 3175 c-3 -9 -6 -22 -5 -28 0 -7 5 -1 10 12 5 13 8 26 5 28 -2
2 -6 -3 -10 -12z"/>
<path d="M10642 3110 c0 -14 2 -19 5 -12 2 6 2 18 0 25 -3 6 -5 1 -5 -13z"/>
<path d="M10778 2833 c7 -3 16 -2 19 1 4 3 -2 6 -13 5 -11 0 -14 -3 -6 -6z"/>
<path d="M10905 2830 c-91 -6 -85 -6 70 -8 125 -2 193 -8 257 -22 119 -26 279
-76 357 -111 35 -16 66 -28 68 -26 9 10 -166 79 -277 111 -202 57 -290 67
-475 56z"/>
<path d="M13401 2334 c0 -11 3 -14 6 -6 3 7 2 16 -1 19 -3 4 -6 -2 -5 -13z"/>
<path d="M12715 2031 c14 -19 44 -69 66 -112 70 -140 120 -179 228 -179 105 0
212 56 273 143 13 19 2 11 -28 -20 -89 -94 -230 -136 -330 -98 -50 19 -75 48
-129 152 -20 39 -53 89 -72 110 -30 33 -31 34 -8 4z"/>
<path d="M13762 2100 c0 -19 2 -27 5 -17 2 9 2 25 0 35 -3 9 -5 1 -5 -18z"/>
<path d="M13746 2018 c-4 -26 -29 -92 -57 -148 -59 -122 -63 -141 -9 -45 43
78 84 193 78 221 -2 11 -7 -2 -12 -28z"/>
<path d="M15071 1913 c-1 -6 -4 -20 -7 -30 -5 -17 -5 -17 6 0 6 10 9 23 6 30
-3 9 -5 9 -5 0z"/>
<path d="M15031 1805 c-13 -33 -20 -76 -20 -108 l2 -52 7 65 c4 36 15 83 24
104 9 22 14 41 12 43 -2 3 -13 -21 -25 -52z"/>
<path d="M14150 1699 c-41 -5 -78 -10 -82 -11 -5 -2 79 -3 184 -3 183 0 197
-2 273 -27 43 -15 81 -25 83 -23 9 9 -167 56 -246 65 -97 11 -106 11 -212 -1z"/>
<path d="M13990 1670 c-20 -6 -21 -8 -5 -8 11 0 31 4 45 8 20 6 21 8 5 8 -11
0 -31 -4 -45 -8z"/>
<path d="M15490 1886 c14 -15 44 -39 68 -53 45 -27 152 -64 180 -62 10 0 -14
9 -51 20 -83 24 -134 49 -184 91 -34 29 -36 30 -13 4z"/>
<path d="M15262 1780 c0 -14 2 -19 5 -12 2 6 2 18 0 25 -3 6 -5 1 -5 -13z"/>
<path d="M15768 1763 c6 -2 18 -2 25 0 6 3 1 5 -13 5 -14 0 -19 -2 -12 -5z"/>
<path d="M15241 1699 c-7 -22 -11 -43 -8 -45 2 -2 9 14 16 37 7 22 11 43 8 45
-2 2 -9 -14 -16 -37z"/>
<path d="M15222 1615 c0 -16 2 -22 5 -12 2 9 2 23 0 30 -3 6 -5 -1 -5 -18z"/>
<path d="M16032 1599 c-23 -36 -98 -62 -161 -56 -45 5 -50 4 -26 -4 64 -21
182 13 199 58 10 24 2 25 -12 2z"/>
<path d="M15475 1544 c-27 -8 -75 -19 -105 -24 l-55 -9 60 4 c33 3 87 13 120
24 70 22 54 26 -20 5z"/>
<path d="M11073 23128 c33 -523 32 -650 -14 -963 -86 -592 -213 -989 -537
-1670 -217 -456 -321 -746 -386 -1070 -59 -299 -71 -445 -86 -1040 -28 -1142
-48 -1586 -105 -2265 -80 -951 -147 -1457 -366 -2775 -208 -1254 -282 -1768
-399 -2770 -38 -330 -87 -753 -109 -940 -119 -1012 -148 -1403 -138 -1885 14
-652 90 -1236 209 -1608 131 -409 326 -713 558 -868 96 -64 249 -151 635 -359
689 -372 894 -502 1550 -981 575 -421 909 -649 1295 -886 474 -291 988 -544
1205 -591 88 -20 217 -40 465 -72 322 -42 430 -75 622 -191 233 -141 336 -173
693 -219 231 -30 252 -39 300 -126 23 -44 30 -69 33 -135 13 -253 -161 -454
-481 -558 -174 -57 -282 -71 -532 -71 -306 1 -397 17 -832 144 -144 42 -253
56 -334 41 -35 -6 -138 -36 -229 -65 -185 -60 -340 -95 -540 -122 -191 -26
-721 -26 -930 0 -315 39 -532 94 -965 242 -495 169 -731 232 -1140 300 -553
93 -1019 115 -1518 70 -410 -36 -561 -67 -1392 -285 -515 -135 -893 -191
-1380 -207 -401 -12 -812 38 -1070 132 -455 164 -707 476 -787 970 -16 101
-16 446 1 580 55 452 167 847 406 1440 140 345 157 397 200 610 96 469 135
1065 116 1760 -33 1153 -172 2553 -427 4275 -140 949 -205 1265 -424 2070
-403 1476 -520 2141 -537 3030 -8 440 12 776 73 1200 161 1126 666 2443 1484
3865 73 127 171 297 218 380 168 292 208 424 234 769 8 122 8 207 -1 365 -14
242 -34 418 -50 434 -15 15 -14 -22 5 -261 21 -264 15 -608 -14 -772 -39 -216
-63 -267 -336 -743 -117 -205 -254 -446 -303 -537 -569 -1040 -973 -2066
-1182 -2998 -123 -549 -181 -1203 -160 -1805 29 -864 149 -1520 529 -2911 205
-753 266 -1031 374 -1726 325 -2080 501 -3942 483 -5115 -6 -410 -16 -562 -53
-865 -50 -406 -98 -603 -216 -894 -267 -657 -383 -1042 -445 -1486 -25 -180
-25 -609 0 -734 54 -267 164 -483 327 -646 218 -218 505 -336 965 -397 166
-22 740 -25 950 -5 362 34 628 82 1010 182 739 194 903 230 1215 269 274 35
464 44 783 38 393 -7 719 -43 1117 -123 339 -68 504 -115 1055 -304 434 -148
694 -198 1144 -221 447 -23 816 22 1191 143 271 88 334 88 600 7 374 -114 676
-155 950 -129 411 38 715 184 822 394 94 185 85 378 -24 486 -47 48 -81 58
-241 75 -357 37 -486 78 -734 229 -190 116 -296 145 -733 201 -348 45 -430 67
-677 178 -561 253 -1202 651 -2068 1286 -714 523 -915 653 -1500 971 -758 412
-797 436 -918 557 -125 125 -256 338 -346 566 -165 414 -261 1113 -261 1897 0
447 24 777 115 1560 24 212 69 601 100 865 144 1252 215 1744 451 3158 177
1062 249 1593 318 2352 68 736 96 1250 121 2180 25 949 34 1086 91 1385 67
343 167 620 410 1133 266 560 382 900 478 1395 70 360 92 726 62 1042 -22 230
-27 260 -39 260 -6 0 -8 -33 -4 -92z"/>
<path d="M8033 23067 c-7 -35 -33 -115 -57 -179 -25 -63 -47 -133 -51 -154 -3
-22 7 -1 24 48 17 48 41 113 55 145 25 60 51 173 44 193 -2 6 -9 -18 -15 -53z"/>
<path d="M9650 23118 c0 -9 21 -88 46 -175 25 -87 52 -189 60 -228 12 -65 13
-66 8 -15 -3 30 -14 89 -25 130 -34 132 -88 306 -89 288z"/>
<path d="M10110 23112 c-23 -12 -45 -38 -65 -73 -26 -48 -29 -64 -30 -144 0
-49 8 -142 19 -205 31 -190 10 -372 -69 -615 -70 -212 -61 -291 44 -400 26
-27 62 -72 79 -100 61 -99 130 -145 217 -145 167 0 297 221 393 666 72 330 68
504 -15 669 -45 89 -239 255 -394 338 -61 32 -128 36 -179 9z m163 -42 c66
-32 226 -149 293 -215 105 -103 144 -208 144 -391 0 -226 -85 -594 -183 -794
-119 -243 -284 -275 -408 -77 -18 28 -57 78 -86 109 -100 107 -105 154 -34
372 83 258 100 444 60 690 -20 121 -20 134 -5 192 18 77 40 112 81 130 37 17
83 12 138 -16z"/>
<path d="M10216 22869 c21 -59 27 -100 31 -204 8 -197 -29 -400 -115 -619 -40
-101 -35 -112 6 -14 122 296 160 645 91 835 -32 86 -42 88 -13 2z"/>
<path d="M10106 21850 c32 -12 63 -57 69 -99 16 -102 28 -144 52 -169 l25 -27
-22 33 c-13 19 -27 66 -35 117 -8 46 -19 93 -25 104 -13 25 -50 51 -70 50 -9
0 -7 -3 6 -9z"/>
<path d="M7052 22817 c-134 -414 -182 -645 -227 -1086 -21 -216 -19 -569 5
-881 11 -140 20 -266 20 -279 0 -13 3 -22 6 -18 3 3 -4 140 -16 304 -41 552
-15 999 86 1468 30 140 73 291 150 533 31 96 54 176 52 178 -3 2 -37 -96 -76
-219z"/>
<path d="M6981 22903 c-72 -196 -153 -531 -150 -617 1 -17 7 10 15 59 19 122
77 350 130 508 24 72 42 132 40 134 -2 2 -18 -36 -35 -84z"/>
<path d="M6422 22955 c0 -16 2 -22 5 -12 2 9 2 23 0 30 -3 6 -5 -1 -5 -18z"/>
<path d="M6563 22935 c0 -22 2 -30 4 -17 2 12 2 30 0 40 -3 9 -5 -1 -4 -23z"/>
<path d="M6701 22934 c0 -11 3 -14 6 -6 3 7 2 16 -1 19 -3 4 -6 -2 -5 -13z"/>
<path d="M6404 22763 c-5 -81 -9 -353 -9 -603 0 -361 4 -491 18 -630 24 -239
83 -618 93 -607 3 2 -6 69 -20 148 -27 159 -50 348 -66 539 -18 215 -24 774
-11 1043 7 137 11 251 8 253 -3 3 -9 -61 -13 -143z"/>
<path d="M6692 22870 c0 -19 2 -27 5 -17 2 9 2 25 0 35 -3 9 -5 1 -5 -18z"/>
<path d="M6542 22765 c-24 -260 -34 -575 -29 -895 4 -288 25 -635 35 -588 2
10 -2 73 -8 140 -28 300 -23 944 11 1320 6 64 9 125 7 135 -2 10 -9 -40 -16
-112z"/>
<path d="M6666 22688 c-22 -193 -56 -592 -55 -648 1 -25 12 74 24 220 13 146
31 332 40 413 10 82 15 150 12 153 -2 2 -12 -60 -21 -138z"/>
<path d="M7334 22618 c-58 -70 -116 -237 -112 -328 1 -33 1 -33 5 -5 16 133
66 271 119 335 14 16 24 30 21 30 -3 0 -18 -15 -33 -32z"/>
<path d="M7930 22437 c-2 -46 82 -147 200 -238 93 -71 120 -115 130 -212 7
-72 7 -72 9 -17 2 113 -24 155 -163 264 -84 66 -125 112 -157 175 -10 20 -18
32 -19 28z"/>
<path d="M6986 22312 c-28 -118 -65 -343 -93 -566 -15 -116 -18 -213 -17 -546
1 -223 6 -434 12 -470 8 -53 9 -38 3 75 -12 276 -6 770 12 925 22 185 72 491
97 599 11 46 18 86 16 88 -2 2 -16 -45 -30 -105z"/>
<path d="M9662 22246 c-148 -290 -442 -531 -746 -612 -60 -16 -75 -23 -44 -19
68 9 209 58 282 99 232 130 425 330 527 544 45 93 31 85 -19 -12z"/>
<path d="M7216 22116 c6 -125 17 -173 57 -254 130 -261 475 -410 847 -363 36
4 -1 7 -110 7 -215 1 -353 32 -487 110 -67 40 -170 139 -214 207 -51 78 -68
136 -85 275 l-13 117 5 -99z"/>
<path d="M6018 21963 c-19 -205 -46 -324 -102 -455 -19 -43 -32 -78 -29 -78 2
0 20 34 39 75 42 91 80 231 93 345 12 105 25 300 20 300 -2 0 -12 -84 -21
-187z"/>
<path d="M6602 21935 c0 -16 2 -22 5 -12 2 9 2 23 0 30 -3 6 -5 -1 -5 -18z"/>
<path d="M6052 21860 c-3 -96 -26 -254 -52 -349 -12 -40 -19 -75 -17 -78 8 -7
47 151 63 251 8 54 13 133 11 175 l-3 76 -2 -75z"/>
<path d="M8558 21793 c6 -2 18 -2 25 0 6 3 1 5 -13 5 -14 0 -19 -2 -12 -5z"/>
<path d="M8623 21783 c9 -2 25 -2 35 0 9 3 1 5 -18 5 -19 0 -27 -2 -17 -5z"/>
<path d="M6117 21715 c-5 -38 -17 -112 -28 -163 -11 -52 -18 -96 -16 -98 12
-12 61 257 55 303 -2 16 -7 -3 -11 -42z"/>
<path d="M8783 21603 c9 -2 23 -2 30 0 6 3 -1 5 -18 5 -16 0 -22 -2 -12 -5z"/>
<path d="M6156 21468 c-14 -73 -29 -144 -31 -158 -5 -22 -5 -23 4 -4 12 27 64
284 58 290 -2 2 -16 -55 -31 -128z"/>
<path d="M6212 21490 c0 -19 2 -27 5 -17 2 9 2 25 0 35 -3 9 -5 1 -5 -18z"/>
<path d="M6203 21410 c0 -25 2 -35 4 -22 2 12 2 32 0 45 -2 12 -4 2 -4 -23z"/>
<path d="M5777 21158 c-41 -68 -142 -233 -224 -368 -198 -324 -277 -466 -393
-701 -237 -479 -416 -963 -569 -1534 -65 -245 -133 -525 -129 -537 2 -5 28 89
57 209 111 450 227 835 346 1149 142 374 344 806 518 1104 68 117 376 632 459
768 11 17 17 32 15 32 -3 0 -39 -55 -80 -122z"/>
<path d="M6553 21220 c0 -25 2 -35 4 -22 2 12 2 32 0 45 -2 12 -4 2 -4 -23z"/>
<path d="M6562 21130 c0 -14 2 -19 5 -12 2 6 2 18 0 25 -3 6 -5 1 -5 -13z"/>
<path d="M6112 21013 c-52 -126 -109 -305 -166 -518 -72 -270 -175 -749 -164
-760 3 -3 10 25 17 63 67 371 220 949 315 1191 25 63 44 116 42 118 -2 2 -21
-40 -44 -94z"/>
<path d="M5991 20969 c-6 -18 -9 -34 -7 -36 2 -2 9 10 15 28 6 18 9 34 7 36
-2 2 -9 -10 -15 -28z"/>
<path d="M6512 20895 c0 -11 4 -31 8 -45 6 -20 8 -21 8 -5 0 11 -4 31 -8 45
-6 20 -8 21 -8 5z"/>
<path d="M6227 20398 c-9 -731 -41 -1057 -188 -1918 -139 -823 -159 -945 -189
-1153 -17 -119 -30 -225 -28 -234 2 -10 14 59 27 152 13 94 49 325 81 515 32
190 92 545 134 790 141 838 179 1252 177 1934 -1 203 -3 371 -5 373 -2 2 -6
-205 -9 -459z"/>
<path d="M6531 20804 c0 -11 3 -14 6 -6 3 7 2 16 -1 19 -3 4 -6 -2 -5 -13z"/>
<path d="M6541 20764 c0 -11 3 -14 6 -6 3 7 2 16 -1 19 -3 4 -6 -2 -5 -13z"/>
<path d="M6901 20642 c-1 -31 31 -240 36 -227 2 6 -6 64 -16 130 -10 66 -19
110 -20 97z"/>
<path d="M6303 20605 c0 -22 2 -30 4 -17 2 12 2 30 0 40 -3 9 -5 -1 -4 -23z"/>
<path d="M6315 20235 c0 -200 -5 -368 -13 -448 -8 -71 -12 -130 -9 -133 21
-21 44 583 30 786 -7 91 -8 48 -8 -205z"/>
<path d="M6863 20505 c0 -22 2 -30 4 -17 2 12 2 30 0 40 -3 9 -5 -1 -4 -23z"/>
<path d="M6872 20435 c-1 -16 3 -48 7 -70 11 -53 12 -5 2 55 -6 34 -9 37 -9
15z"/>
<path d="M6381 20394 c0 -11 3 -14 6 -6 3 7 2 16 -1 19 -3 4 -6 -2 -5 -13z"/>
<path d="M6941 20384 c0 -11 3 -14 6 -6 3 7 2 16 -1 19 -3 4 -6 -2 -5 -13z"/>
<path d="M6952 20340 c0 -14 2 -19 5 -12 2 6 2 18 0 25 -3 6 -5 1 -5 -13z"/>
<path d="M6398 19980 c7 -574 -29 -1356 -84 -1825 -17 -151 -67 -501 -89 -625
-14 -78 -19 -139 -10 -115 8 19 75 461 99 650 56 435 86 952 92 1590 3 270 1
537 -3 595 -6 70 -7 -20 -5 -270z"/>
<path d="M6892 20295 c0 -16 2 -22 5 -12 2 9 2 23 0 30 -3 6 -5 -1 -5 -18z"/>
<path d="M6902 20240 c-1 -14 5 -54 12 -90 8 -36 14 -56 14 -45 1 11 -5 52
-12 90 -8 39 -14 59 -14 45z"/>
<path d="M6822 20070 c0 -19 2 -27 5 -17 2 9 2 25 0 35 -3 9 -5 1 -5 -18z"/>
<path d="M6931 20054 c0 -11 3 -14 6 -6 3 7 2 16 -1 19 -3 4 -6 -2 -5 -13z"/>
<path d="M6832 19985 c0 -16 2 -22 5 -12 2 9 2 23 0 30 -3 6 -5 -1 -5 -18z"/>
<path d="M6812 19930 c0 -14 2 -19 5 -12 2 6 2 18 0 25 -3 6 -5 1 -5 -13z"/>
<path d="M6841 19924 c0 -11 3 -14 6 -6 3 7 2 16 -1 19 -3 4 -6 -2 -5 -13z"/>
<path d="M6522 19900 c0 -19 2 -27 5 -17 2 9 2 25 0 35 -3 9 -5 1 -5 -18z"/>
<path d="M6851 19884 c0 -11 3 -14 6 -6 3 7 2 16 -1 19 -3 4 -6 -2 -5 -13z"/>
<path d="M6821 19864 c0 -11 3 -14 6 -6 3 7 2 16 -1 19 -3 4 -6 -2 -5 -13z"/>
<path d="M6531 19839 c0 -15 12 -161 29 -325 49 -493 76 -903 100 -1519 16
-410 18 -430 14 -169 -8 483 -46 1121 -100 1659 -35 353 -41 402 -43 354z"/>
<path d="M6604 19750 c4 -30 18 -158 31 -285 14 -126 48 -399 76 -605 141
-1049 165 -1348 156 -1915 -5 -260 -4 -273 5 -125 5 91 7 305 4 475 -7 432
-27 643 -141 1500 -35 264 -78 597 -95 739 -17 143 -33 262 -36 265 -3 3 -3
-19 0 -49z"/>
<path d="M5772 19695 c0 -16 2 -22 5 -12 2 9 2 23 0 30 -3 6 -5 -1 -5 -18z"/>
<path d="M5762 19635 c0 -16 2 -22 5 -12 2 9 2 23 0 30 -3 6 -5 -1 -5 -18z"/>
<path d="M6282 19615 c0 -16 2 -22 5 -12 2 9 2 23 0 30 -3 6 -5 -1 -5 -18z"/>
<path d="M5752 19580 c0 -14 2 -19 5 -12 2 6 2 18 0 25 -3 6 -5 1 -5 -13z"/>
<path d="M7151 19579 c-18 -6 -31 -12 -29 -14 2 -3 20 0 39 5 79 23 143 5 221
-60 56 -48 92 -63 130 -54 30 6 98 59 98 75 0 5 -15 -6 -34 -24 -57 -58 -109
-54 -191 14 -27 23 -64 48 -82 55 -37 16 -102 17 -152 3z"/>
<path d="M6271 19544 c0 -11 3 -14 6 -6 3 7 2 16 -1 19 -3 4 -6 -2 -5 -13z"/>
<path d="M6861 19414 c-1 -6 11 -44 25 -85 42 -123 92 -328 103 -429 17 -151
20 -161 15 -62 -4 102 -30 241 -68 373 -27 93 -74 220 -75 203z"/>
<path d="M7472 19048 c-106 -358 -140 -812 -146 -1953 l-4 -680 8 575 c18
1244 51 1683 151 2049 26 96 18 103 -9 9z"/>
<path d="M4907 18783 c-129 -435 -272 -1090 -337 -1541 -65 -459 -84 -750 -84
-1307 -1 -713 34 -1133 145 -1755 22 -124 49 -265 59 -315 33 -154 235 -956
238 -946 2 5 -44 202 -102 438 -137 558 -203 889 -255 1288 -101 764 -103
1713 -6 2465 60 463 172 1012 306 1504 27 99 47 181 45 183 -2 2 -6 -4 -9 -14z"/>
<path d="M4451 17984 c0 -11 3 -14 6 -6 3 7 2 16 -1 19 -3 4 -6 -2 -5 -13z"/>
<path d="M4441 17944 c0 -11 3 -14 6 -6 3 7 2 16 -1 19 -3 4 -6 -2 -5 -13z"/>
<path d="M4801 17784 c0 -11 3 -14 6 -6 3 7 2 16 -1 19 -3 4 -6 -2 -5 -13z"/>
<path d="M4792 17735 c0 -16 2 -22 5 -12 2 9 2 23 0 30 -3 6 -5 -1 -5 -18z"/>
<path d="M5471 17714 c0 -11 3 -14 6 -6 3 7 2 16 -1 19 -3 4 -6 -2 -5 -13z"/>
<path d="M4782 17680 c0 -14 2 -19 5 -12 2 6 2 18 0 25 -3 6 -5 1 -5 -13z"/>
<path d="M5462 17660 c0 -14 2 -19 5 -12 2 6 2 18 0 25 -3 6 -5 1 -5 -13z"/>
<path d="M4772 17625 c0 -16 2 -22 5 -12 2 9 2 23 0 30 -3 6 -5 -1 -5 -18z"/>
<path d="M5443 17560 c-97 -559 -148 -902 -188 -1260 -58 -514 -75 -801 -75
-1285 0 -600 34 -1017 166 -2050 22 -165 40 -291 42 -280 2 11 -15 167 -37
345 -82 662 -114 971 -143 1370 -16 224 -16 1048 0 1265 46 606 117 1169 223
1768 17 93 28 174 26 180 -2 6 -8 -18 -14 -53z"/>
<path d="M4755 17545 c-3 -26 -4 -49 -2 -51 3 -3 8 16 12 41 3 26 4 49 2 51
-3 3 -8 -16 -12 -41z"/>
<path d="M6684 17395 c0 -88 2 -123 3 -77 2 46 2 118 0 160 -1 42 -3 5 -3 -83z"/>
<path d="M4742 17455 c0 -16 2 -22 5 -12 2 9 2 23 0 30 -3 6 -5 -1 -5 -18z"/>
<path d="M4732 17395 c0 -16 2 -22 5 -12 2 9 2 23 0 30 -3 6 -5 -1 -5 -18z"/>
<path d="M6523 17355 c0 -33 2 -45 4 -27 2 18 2 45 0 60 -2 15 -4 0 -4 -33z"/>
<path d="M6191 17315 c-8 -48 -11 -88 -9 -91 3 -2 10 34 18 82 7 47 10 87 8
90 -3 2 -10 -34 -17 -81z"/>
<path d="M4702 17220 c-33 -206 -70 -528 -76 -650 l-5 -105 10 95 c21 214 51
464 75 618 14 90 24 168 22 174 -2 6 -14 -54 -26 -132z"/>
<path d="M6532 17115 c-5 -260 -23 -705 -38 -935 -46 -709 -166 -1623 -284
-2161 -40 -182 -44 -206 -36 -198 9 9 97 426 130 619 87 502 173 1249 205
1770 17 271 33 756 29 900 l-4 135 -2 -130z"/>
<path d="M6155 17075 c-10 -74 -16 -138 -13 -140 2 -3 12 56 22 131 10 75 15
138 13 140 -2 3 -12 -56 -22 -131z"/>
<path d="M5812 17030 c0 -19 2 -27 5 -17 2 9 2 25 0 35 -3 9 -5 1 -5 -18z"/>
<path d="M5802 16945 c0 -16 2 -22 5 -12 2 9 2 23 0 30 -3 6 -5 -1 -5 -18z"/>
<path d="M6126 16853 c-30 -288 -56 -575 -55 -608 1 -22 6 1 10 50 5 50 21
208 35 353 14 145 24 266 21 268 -2 3 -7 -26 -11 -63z"/>
<path d="M6852 16560 c0 -19 2 -27 5 -17 2 9 2 25 0 35 -3 9 -5 1 -5 -18z"/>
<path d="M4613 16375 c0 -38 2 -53 4 -32 2 20 2 52 0 70 -2 17 -4 1 -4 -38z"/>
<path d="M4873 16360 c0 -30 2 -43 4 -27 2 15 2 39 0 55 -2 15 -4 2 -4 -28z"/>
<path d="M4857 16158 c-8 -166 -7 -412 2 -618 3 -86 6 39 6 307 0 249 0 453
-1 453 0 0 -4 -64 -7 -142z"/>
<path d="M4125 15985 c10 -716 94 -1306 276 -1935 109 -376 356 -1111 359
-1069 0 4 -56 175 -124 380 -295 885 -394 1295 -455 1884 -28 269 -41 470 -51
775 l-8 265 3 -300z"/>
<path d="M6063 16145 c0 -33 2 -45 4 -27 2 18 2 45 0 60 -2 15 -4 0 -4 -33z"/>
<path d="M6053 16020 c0 -30 2 -43 4 -27 2 15 2 39 0 55 -2 15 -4 2 -4 -28z"/>
<path d="M6788 15920 c-27 -589 -129 -1322 -249 -1790 -72 -281 -206 -690
-296 -904 -13 -32 -22 -60 -20 -62 12 -13 151 354 226 596 132 428 201 748
266 1223 48 359 90 859 83 1012 -2 64 -4 50 -10 -75z"/>
<path d="M6623 15950 c0 -30 2 -43 4 -27 2 15 2 39 0 55 -2 15 -4 2 -4 -28z"/>
<path d="M6606 15795 c-28 -379 -134 -1134 -212 -1525 -131 -652 -237 -1032
-423 -1509 -22 -57 -35 -99 -30 -94 16 16 126 294 179 453 154 460 303 1139
399 1815 56 396 109 895 99 940 -2 11 -8 -25 -12 -80z"/>
<path d="M5813 15805 c0 -22 2 -30 4 -17 2 12 2 30 0 40 -3 9 -5 -1 -4 -23z"/>
<path d="M5803 15695 c0 -27 2 -38 4 -22 2 15 2 37 0 50 -2 12 -4 0 -4 -28z"/>
<path d="M5791 15617 c0 -16 -14 -189 -31 -385 -37 -438 -68 -867 -74 -1027
-3 -66 8 49 24 255 15 206 43 547 60 757 17 210 30 392 27 405 -4 20 -4 19 -6
-5z"/>
<path d="M4873 15315 c0 -44 2 -61 4 -37 2 23 2 59 0 80 -2 20 -4 1 -4 -43z"/>
<path d="M4883 15145 c0 -27 2 -38 4 -22 2 15 2 37 0 50 -2 12 -4 0 -4 -28z"/>
<path d="M4652 15020 c0 -19 2 -27 5 -17 2 9 2 25 0 35 -3 9 -5 1 -5 -18z"/>
<path d="M4661 14953 c-4 -80 92 -655 234 -1403 52 -272 104 -549 115 -615 45
-245 70 -368 64 -315 -7 77 -83 505 -159 895 -109 563 -178 958 -239 1365 -7
52 -14 85 -15 73z"/>
<path d="M6042 14880 c0 -14 2 -19 5 -12 2 6 2 18 0 25 -3 6 -5 1 -5 -13z"/>
<path d="M6027 14785 c-9 -68 -65 -445 -131 -870 -65 -418 -93 -633 -110 -865
-15 -192 -31 -373 -41 -465 -4 -34 -3 -36 4 -12 11 33 25 167 51 484 22 268
43 426 125 964 77 504 117 787 113 807 -2 9 -7 -10 -11 -43z"/>
<path d="M5583 14575 c0 -22 2 -30 4 -17 2 12 2 30 0 40 -3 9 -5 -1 -4 -23z"/>
<path d="M5566 14340 c-38 -819 -48 -1230 -39 -1600 l8 -315 6 630 c3 347 14
804 23 1018 10 213 16 393 13 400 -2 6 -7 -53 -11 -133z"/>
<path d="M5673 14010 c0 -41 2 -58 4 -37 2 20 2 54 0 75 -2 20 -4 3 -4 -38z"/>
<path d="M5663 13865 c0 -33 2 -45 4 -27 2 18 2 45 0 60 -2 15 -4 0 -4 -33z"/>
<path d="M6142 13718 c-12 -50 -21 -93 -18 -95 2 -2 14 37 26 87 12 50 21 93
18 95 -2 2 -14 -37 -26 -87z"/>
<path d="M5652 13720 c0 -19 2 -27 5 -17 2 9 2 25 0 35 -3 9 -5 1 -5 -18z"/>
<path d="M6111 13594 c0 -11 3 -14 6 -6 3 7 2 16 -1 19 -3 4 -6 -2 -5 -13z"/>
<path d="M6101 13554 c0 -11 3 -14 6 -6 3 7 2 16 -1 19 -3 4 -6 -2 -5 -13z"/>
<path d="M5152 13495 c0 -16 2 -22 5 -12 2 9 2 23 0 30 -3 6 -5 -1 -5 -18z"/>
<path d="M5163 13425 c0 -22 2 -30 4 -17 2 12 2 30 0 40 -3 9 -5 -1 -4 -23z"/>
<path d="M5171 13365 c-1 -11 6 -83 14 -160 8 -77 16 -239 17 -360 l2 -220 6
155 5 155 19 -143 c10 -79 20 -141 23 -138 3 2 -7 91 -21 198 -14 106 -33 265
-41 353 -15 154 -23 202 -24 160z"/>
<path d="M5936 12919 c-26 -89 -45 -163 -43 -165 2 -2 25 68 51 157 27 88 46
162 44 164 -2 2 -25 -68 -52 -156z"/>
<path d="M4931 12884 c0 -11 3 -14 6 -6 3 7 2 16 -1 19 -3 4 -6 -2 -5 -13z"/>
<path d="M5876 12714 c-4 -14 -5 -28 -3 -31 3 -2 8 8 11 23 4 14 5 28 3 31 -3
2 -8 -8 -11 -23z"/>
<path d="M5261 12614 c0 -11 3 -14 6 -6 3 7 2 16 -1 19 -3 4 -6 -2 -5 -13z"/>
<path d="M4802 12600 c0 -14 2 -19 5 -12 2 6 2 18 0 25 -3 6 -5 1 -5 -13z"/>
<path d="M4811 12559 c-1 -8 28 -182 64 -385 36 -203 87 -520 115 -704 44
-287 139 -890 197 -1250 10 -58 19 -98 21 -89 1 9 -29 213 -68 455 -39 241
-93 588 -121 769 -54 360 -98 628 -160 975 -40 227 -47 258 -48 229z"/>
<path d="M5832 12413 c-28 -128 -70 -472 -94 -768 -21 -262 -17 -1215 7 -1685
11 -212 21 -358 23 -325 2 33 -4 211 -14 395 -22 418 -26 1320 -6 1570 16 209
56 567 81 730 20 127 21 170 3 83z"/>
<path d="M5293 11915 c0 -38 2 -53 4 -32 2 20 2 52 0 70 -2 17 -4 1 -4 -38z"/>
<path d="M5102 11930 c0 -14 2 -19 5 -12 2 6 2 18 0 25 -3 6 -5 1 -5 -13z"/>
<path d="M5476 11616 c2 -148 11 -369 19 -490 27 -406 121 -1486 124 -1419 0
17 -21 298 -49 625 -53 636 -76 971 -90 1328 l-9 225 5 -269z"/>
<path d="M5113 11825 c0 -22 2 -30 4 -17 2 12 2 30 0 40 -3 9 -5 -1 -4 -23z"/>
<path d="M5303 11730 c0 -47 2 -66 4 -42 2 23 2 61 0 85 -2 23 -4 4 -4 -43z"/>
<path d="M5123 11715 c0 -22 2 -30 4 -17 2 12 2 30 0 40 -3 9 -5 -1 -4 -23z"/>
<path d="M5133 11620 c0 -25 2 -35 4 -22 2 12 2 32 0 45 -2 12 -4 2 -4 -23z"/>
<path d="M5312 11582 c-7 -193 135 -1955 178 -2222 l9 -55 -5 65 c-2 36 -20
223 -39 415 -44 450 -78 881 -110 1370 -13 215 -26 410 -28 435 -3 45 -4 45
-5 -8z"/>
<path d="M5143 11530 c0 -25 2 -35 4 -22 2 12 2 32 0 45 -2 12 -4 2 -4 -23z"/>
<path d="M5152 11440 c0 -19 3 -57 8 -85 6 -40 7 -43 8 -15 0 19 -3 58 -8 85
-6 40 -7 43 -8 15z"/>
<path d="M5173 11260 c0 -25 2 -35 4 -22 2 12 2 32 0 45 -2 12 -4 2 -4 -23z"/>
<path d="M5182 11185 c-1 -37 186 -1509 187 -1477 1 12 -17 170 -39 350 -64
526 -148 1160 -148 1127z"/>
<path d="M5212 10085 c0 -16 4 -43 8 -60 11 -42 11 -1 1 50 -7 34 -9 35 -9 10z"/>
<path d="M5232 9965 c0 -16 2 -22 5 -12 2 9 2 23 0 30 -3 6 -5 -1 -5 -18z"/>
<path d="M5242 9910 c0 -14 2 -19 5 -12 2 6 2 18 0 25 -3 6 -5 1 -5 -13z"/>
<path d="M5251 9854 c0 -11 3 -14 6 -6 3 7 2 16 -1 19 -3 4 -6 -2 -5 -13z"/>
<path d="M5373 9645 c0 -22 2 -30 4 -17 2 12 2 30 0 40 -3 9 -5 -1 -4 -23z"/>
<path d="M5623 9620 c0 -30 2 -43 4 -27 2 15 2 39 0 55 -2 15 -4 2 -4 -28z"/>
<path d="M5382 9560 c0 -19 2 -27 5 -17 2 9 2 25 0 35 -3 9 -5 1 -5 -18z"/>
<path d="M5773 9480 c0 -36 2 -50 4 -32 2 17 2 47 0 65 -2 17 -4 3 -4 -33z"/>
<path d="M5632 9505 c0 -16 2 -22 5 -12 2 9 2 23 0 30 -3 6 -5 -1 -5 -18z"/>
<path d="M5392 9470 c0 -19 2 -27 5 -17 2 9 2 25 0 35 -3 9 -5 1 -5 -18z"/>
<path d="M5402 9390 c0 -14 2 -19 5 -12 2 6 2 18 0 25 -3 6 -5 1 -5 -13z"/>
<path d="M5503 9265 c0 -22 2 -30 4 -17 2 12 2 30 0 40 -3 9 -5 -1 -4 -23z"/>
<path d="M5512 9185 c0 -16 2 -22 5 -12 2 9 2 23 0 30 -3 6 -5 -1 -5 -18z"/>
<path d="M5522 9105 c0 -16 2 -22 5 -12 2 9 2 23 0 30 -3 6 -5 -1 -5 -18z"/>
<path d="M5531 9034 c0 -11 3 -14 6 -6 3 7 2 16 -1 19 -3 4 -6 -2 -5 -13z"/>
<path d="M7432 8485 c-2 -390 18 -828 64 -1370 29 -347 67 -581 125 -759 31
-93 149 -370 155 -363 2 2 -21 62 -52 133 -147 340 -187 560 -238 1294 -29
408 -38 626 -45 1010 l-8 385 -1 -330z"/>
<path d="M5471 8469 c0 -15 6 -91 14 -170 40 -381 47 -514 52 -995 8 -731 -21
-1190 -113 -1787 -14 -93 -24 -171 -21 -173 13 -13 93 580 116 861 50 593 51
1279 5 1825 -17 202 -51 481 -53 439z"/>
<path d="M5733 8110 c0 -25 2 -35 4 -22 2 12 2 32 0 45 -2 12 -4 2 -4 -23z"/>
<path d="M5745 7435 c0 -1011 -57 -1645 -230 -2577 -19 -103 -35 -193 -34
-200 3 -44 119 589 158 863 52 367 89 789 111 1239 11 232 12 904 1 1115 -3
72 -6 -126 -6 -440z"/>
<path d="M5657 6989 c-21 -674 -78 -1228 -203 -1969 -25 -146 -48 -281 -51
-300 -3 -19 -3 -33 0 -30 7 7 69 353 112 626 64 407 103 760 130 1165 16 243
31 729 23 729 -3 0 -8 -100 -11 -221z"/>
<path d="M6943 6474 c-20 -194 -50 -325 -125 -547 -72 -214 -98 -325 -96 -412
0 -39 3 -31 9 34 12 108 28 170 95 366 31 88 66 204 79 258 27 111 58 337 53
388 -2 19 -9 -21 -15 -87z"/>
<path d="M7779 5391 c-46 -38 -79 -100 -133 -255 -101 -283 -189 -382 -385
-432 -111 -28 -192 -3 -244 74 -13 21 -45 96 -71 167 -25 71 -50 133 -55 138
-6 6 3 -23 18 -64 15 -41 40 -108 55 -150 58 -164 149 -215 310 -173 134 35
237 116 303 240 17 32 50 113 73 179 57 163 86 219 137 265 49 46 44 54 -8 11z"/>
<path d="M5385 5285 c-3 -26 -4 -49 -2 -51 3 -3 8 16 12 41 3 26 4 49 2 51 -3
3 -8 -16 -12 -41z"/>
<path d="M5372 5200 c0 -14 2 -19 5 -12 2 6 2 18 0 25 -3 6 -5 1 -5 -13z"/>
<path d="M5391 4664 c0 -11 3 -14 6 -6 3 7 2 16 -1 19 -3 4 -6 -2 -5 -13z"/>
<path d="M5251 4644 c0 -11 3 -14 6 -6 3 7 2 16 -1 19 -3 4 -6 -2 -5 -13z"/>
<path d="M5472 4620 c0 -14 2 -19 5 -12 2 6 2 18 0 25 -3 6 -5 1 -5 -13z"/>
<path d="M5167 4352 c-100 -357 -159 -643 -155 -757 0 -29 2 -38 5 -20 27 229
65 415 153 745 39 145 69 264 67 266 -2 2 -34 -103 -70 -234z"/>
<path d="M5462 4570 c0 -14 2 -19 5 -12 2 6 2 18 0 25 -3 6 -5 1 -5 -13z"/>
<path d="M5451 4514 c0 -11 3 -14 6 -6 3 7 2 16 -1 19 -3 4 -6 -2 -5 -13z"/>
<path d="M5241 4254 c0 -11 3 -14 6 -6 3 7 2 16 -1 19 -3 4 -6 -2 -5 -13z"/>
<path d="M5231 4214 c0 -11 3 -14 6 -6 3 7 2 16 -1 19 -3 4 -6 -2 -5 -13z"/>
<path d="M5391 4214 c0 -11 3 -14 6 -6 3 7 2 16 -1 19 -3 4 -6 -2 -5 -13z"/>
<path d="M5311 4194 c0 -11 3 -14 6 -6 3 7 2 16 -1 19 -3 4 -6 -2 -5 -13z"/>
<path d="M5201 4098 c-38 -160 -60 -309 -64 -428 -5 -120 -4 -116 14 69 6 63
26 189 45 280 36 179 39 230 5 79z"/>
<path d="M5382 4160 c0 -14 2 -19 5 -12 2 6 2 18 0 25 -3 6 -5 1 -5 -13z"/>
<path d="M5302 4150 c0 -14 2 -19 5 -12 2 6 2 18 0 25 -3 6 -5 1 -5 -13z"/>
<path d="M5435 4043 c-9 -117 -1 -229 20 -301 9 -30 18 -52 20 -50 2 2 -3 31
-13 63 -13 46 -17 98 -16 223 1 89 0 162 -2 162 -1 0 -5 -44 -9 -97z"/>
<path d="M5361 4030 c-6 -55 -10 -144 -9 -198 2 -79 2 -84 5 -27 1 39 7 126
13 194 6 68 9 125 7 127 -2 3 -9 -41 -16 -96z"/>
<path d="M5286 4083 c-17 -100 -35 -253 -34 -293 0 -29 4 -15 9 40 5 47 16
129 25 183 9 54 14 100 11 103 -2 3 -7 -12 -11 -33z"/>
<path d="M6083 3909 c-37 -34 -95 -81 -129 -105 -59 -42 -206 -117 -249 -127
-11 -2 -5 -3 14 -1 44 4 182 73 252 127 68 51 197 167 187 167 -4 0 -38 -27
-75 -61z"/>
<path d="M5362 3710 c0 -14 2 -19 5 -12 2 6 2 18 0 25 -3 6 -5 1 -5 -13z"/>
<path d="M4986 3069 c-11 -113 -6 -369 10 -477 40 -269 141 -456 307 -569 43
-29 83 -53 89 -53 6 0 -23 22 -63 48 -166 108 -264 275 -316 537 -14 72 -18
140 -18 333 0 133 0 242 -1 242 -1 0 -4 -28 -8 -61z"/>
<path d="M7408 2513 c7 -3 16 -2 19 1 4 3 -2 6 -13 5 -11 0 -14 -3 -6 -6z"/>
<path d="M7325 2499 c-16 -5 -120 -27 -230 -50 -220 -44 -337 -80 -447 -135
-117 -59 -153 -87 -343 -274 -177 -174 -210 -200 -290 -227 -39 -13 -39 -13
-5 -8 74 12 124 49 305 225 191 187 227 216 343 274 108 54 224 90 442 135
205 43 309 69 275 69 -11 0 -33 -4 -50 -9z"/>
</g>
</svg>
