<?xml version="1.0" standalone="no"?>
<!DOCTYPE svg PUBLIC "-//W3C//DTD SVG 20010904//EN"
 "http://www.w3.org/TR/2001/REC-SVG-20010904/DTD/svg10.dtd">
<svg version="1.0" xmlns="http://www.w3.org/2000/svg"
 width="1792.000000pt" height="2400.000000pt" viewBox="0 0 1792.000000 2400.000000"
 preserveAspectRatio="xMidYMid meet">

<g transform="translate(0.000000,2400.000000) scale(0.100000,-0.100000)"
fill="#000000" stroke="none">
<path d="M7486 23372 c-3 -5 -17 -96 -31 -203 -33 -248 -63 -414 -130 -719
-81 -369 -96 -466 -102 -646 -6 -191 4 -292 58 -579 101 -528 220 -936 416
-1419 248 -612 252 -627 317 -1356 41 -454 68 -800 151 -1985 38 -544 67 -843
181 -1865 93 -833 140 -1211 204 -1630 77 -500 182 -1123 264 -1575 87 -478
116 -656 150 -930 68 -542 125 -1149 186 -1960 16 -220 35 -474 42 -565 16
-222 16 -768 0 -945 -27 -283 -73 -503 -177 -842 -96 -316 -167 -475 -294
-664 -128 -191 -259 -312 -471 -438 -63 -38 -272 -148 -465 -246 -478 -243
-609 -319 -1087 -632 -353 -230 -817 -511 -1039 -627 -171 -89 -305 -141 -497
-190 -218 -56 -350 -106 -598 -224 -394 -188 -525 -233 -880 -301 -115 -23
-235 -49 -265 -60 -30 -10 -147 -62 -260 -115 -114 -53 -235 -102 -270 -110
-35 -8 -156 -25 -268 -36 -215 -23 -340 -48 -380 -78 -14 -10 -39 -45 -58 -78
-109 -197 -70 -467 92 -629 33 -33 74 -66 91 -73 30 -13 32 -16 36 -86 8 -126
87 -239 215 -308 57 -32 151 -58 204 -58 32 0 46 -8 91 -53 38 -38 71 -61 113
-76 115 -43 233 -53 321 -26 47 14 63 10 64 -17 0 -21 81 -93 133 -120 150
-75 361 -74 518 4 l67 33 22 -41 c28 -54 89 -97 182 -128 247 -83 481 -49 710
105 41 28 73 42 91 40 15 -1 123 -22 240 -47 473 -101 752 -113 1170 -53 164
23 304 53 562 118 281 72 455 105 805 155 390 56 617 98 1015 186 607 135 815
165 1170 164 260 0 331 -5 680 -54 777 -109 1107 -114 1570 -23 149 29 360 95
455 143 211 105 374 259 462 434 117 231 178 535 178 879 0 341 -51 622 -210
1152 -142 475 -185 667 -254 1125 -103 686 -141 1192 -140 1885 1 679 29 1101
159 2405 71 710 99 1012 130 1420 55 723 59 752 200 1345 99 416 125 554 189
1007 133 932 175 1491 156 2053 -29 823 -96 1370 -266 2140 -108 490 -186 776
-307 1125 -201 579 -352 943 -645 1553 -90 185 -189 425 -221 532 -35 117 -52
260 -58 490 -5 223 4 368 43 635 40 281 149 728 276 1134 27 87 47 165 44 173
-3 8 -13 13 -23 11 -19 -4 -56 -108 -139 -393 -182 -627 -258 -1070 -257
-1510 1 -461 35 -580 383 -1305 321 -668 589 -1390 744 -2000 109 -430 231
-1028 275 -1355 26 -191 66 -587 83 -825 20 -285 17 -1063 -5 -1315 -28 -321
-73 -704 -127 -1085 -71 -501 -110 -708 -205 -1090 -121 -487 -144 -639 -190
-1270 -31 -423 -53 -677 -106 -1195 -165 -1644 -196 -2112 -186 -2855 9 -658
58 -1221 162 -1856 64 -389 113 -598 237 -1004 92 -305 162 -607 189 -820 20
-149 17 -496 -4 -635 -38 -248 -109 -465 -196 -597 -86 -132 -251 -268 -416
-344 -251 -116 -660 -194 -1017 -194 -275 0 -494 21 -1108 107 -179 24 -222
27 -525 27 -419 1 -521 -13 -1185 -159 -449 -99 -650 -136 -1000 -185 -348
-48 -625 -102 -880 -170 -292 -78 -411 -100 -665 -125 -297 -28 -583 -13 -865
46 -80 16 -171 35 -203 41 l-57 12 59 28 c32 15 78 46 102 68 l44 40 -101 -52
c-77 -39 -116 -52 -159 -56 l-58 -5 32 47 c18 25 30 46 27 46 -3 0 -45 -32
-93 -71 -110 -89 -197 -140 -299 -176 -73 -26 -90 -28 -219 -27 -122 1 -150 4
-218 27 -101 33 -151 68 -178 124 -22 46 -21 101 2 144 14 27 22 24 57 -26 39
-56 85 -85 135 -85 103 0 176 83 153 174 -8 33 -61 93 -98 112 -46 24 -43 11
5 -29 82 -67 95 -136 37 -192 -23 -22 -42 -29 -86 -33 l-55 -5 -60 61 c-32 34
-59 65 -59 70 0 5 21 27 47 47 27 21 104 96 173 165 220 225 301 259 718 305
124 13 224 37 211 49 -2 2 -26 0 -54 -4 -27 -5 -61 -9 -75 -9 l-25 0 25 15
c25 15 25 15 -10 9 -19 -3 -98 -12 -175 -20 -317 -31 -423 -80 -641 -299 -66
-67 -149 -145 -183 -175 -66 -56 -111 -130 -111 -182 0 -67 -159 -129 -331
-129 -230 0 -385 126 -349 284 14 62 22 63 92 14 35 -25 73 -48 85 -52 31 -10
109 26 155 71 79 77 71 161 -21 200 -49 21 -50 8 -2 -17 72 -36 78 -103 13
-167 -41 -41 -116 -77 -140 -68 -33 12 -142 90 -142 102 0 7 35 38 77 70 43
32 123 101 178 154 103 99 301 260 397 323 85 57 146 75 341 102 220 31 338
68 416 131 19 16 0 12 -90 -18 -84 -28 -151 -42 -254 -54 -231 -27 -293 -41
-380 -85 -98 -49 -338 -237 -453 -355 -46 -47 -114 -106 -150 -132 -128 -89
-154 -126 -175 -241 l-12 -67 -60 -14 c-109 -26 -268 12 -354 84 -45 39 -81
117 -81 178 0 50 22 117 39 117 5 0 31 -17 58 -37 90 -69 143 -72 229 -12 48
33 74 68 81 113 7 44 -10 72 -58 97 -52 26 -62 18 -14 -11 44 -27 58 -53 50
-89 -7 -32 -65 -91 -112 -115 -51 -26 -83 -20 -156 28 -77 50 -79 44 38 118
42 28 115 92 185 165 105 108 124 124 220 173 57 30 152 88 210 129 201 140
230 151 490 176 244 24 325 49 395 126 l30 33 -27 -17 c-16 -9 -39 -24 -52
-32 -37 -25 -151 -44 -319 -55 -263 -16 -349 -45 -519 -173 -54 -40 -148 -100
-210 -132 -100 -53 -128 -74 -234 -178 -69 -67 -165 -148 -220 -185 -54 -37
-109 -82 -121 -100 -32 -49 -48 -133 -33 -189 6 -25 8 -48 6 -51 -11 -10 -115
19 -175 49 -131 65 -204 166 -205 284 -1 72 14 101 45 84 11 -5 42 -30 69 -54
70 -62 90 -60 173 15 70 64 93 109 82 159 -7 32 -34 60 -72 76 -24 10 -22 12
60 83 106 92 138 114 218 147 117 50 242 115 338 179 109 72 218 129 278 145
23 6 122 20 220 31 291 32 398 64 488 146 45 40 43 40 -70 -10 -100 -43 -184
-60 -400 -81 -277 -27 -326 -43 -530 -175 -70 -45 -204 -119 -299 -164 -156
-76 -182 -92 -284 -180 -62 -53 -152 -123 -200 -155 -48 -32 -104 -77 -125
-100 -20 -22 -41 -41 -46 -41 -19 0 -107 89 -143 144 -98 152 -110 380 -26
499 20 27 21 28 40 10 11 -10 38 -53 59 -95 21 -42 49 -84 61 -92 32 -23 110
-20 267 9 166 31 197 40 239 65 63 38 90 148 57 227 -8 19 -15 37 -15 38 0 2
28 14 63 28 34 14 139 61 232 105 210 98 222 102 473 152 238 47 291 60 432
107 100 34 168 64 535 236 198 92 292 127 470 172 262 67 413 129 682 281 274
154 475 279 1194 740 250 160 379 232 764 426 547 275 639 332 805 498 222
221 350 464 489 930 130 439 169 692 178 1165 6 319 3 393 -57 1205 -57 759
-91 1129 -160 1740 -43 374 -71 563 -145 964 -149 817 -310 1805 -370 2281
-49 379 -116 960 -174 1505 -96 889 -95 881 -176 2045 -46 665 -67 936 -115
1470 -55 620 -75 706 -268 1170 -202 486 -320 863 -420 1340 -90 424 -96 467
-96 685 0 214 11 300 79 570 61 247 113 537 155 868 25 201 25 202 1 202 -11
0 -22 -4 -25 -8z m-4558 -20909 c45 -112 13 -193 -91 -231 -79 -30 -381 -78
-414 -66 -20 7 -37 29 -67 91 -23 45 -52 93 -65 107 l-24 25 29 12 c58 22 167
39 375 59 117 12 215 23 218 25 12 13 30 2 39 -22z m-168 -618 c37 -19 54 -69
39 -113 -12 -35 -131 -142 -158 -142 -9 0 -34 18 -55 39 -22 22 -52 45 -68 52
-16 6 -27 17 -25 23 5 14 208 155 225 156 7 0 26 -7 42 -15z"/>
<path d="M8683 23345 c-17 -31 -40 -125 -94 -394 -75 -373 -136 -567 -264
-836 -104 -219 -126 -302 -127 -475 0 -147 28 -287 88 -440 140 -353 304 -541
599 -681 56 -27 151 -67 211 -88 l109 -39 -40 -17 c-70 -29 -187 -55 -300 -67
-168 -16 -263 -61 -327 -153 -64 -92 -109 -295 -127 -575 -11 -159 -49 -374
-110 -615 -71 -283 -79 -434 -36 -615 124 -511 192 -1077 345 -2890 28 -327
59 -685 70 -795 11 -110 31 -335 45 -500 28 -329 94 -969 126 -1220 63 -501
116 -809 289 -1680 71 -357 145 -742 164 -855 117 -675 211 -1551 246 -2280
13 -275 13 -822 0 -1010 -21 -298 -69 -580 -136 -790 -50 -157 -64 -231 -64
-336 0 -191 67 -426 165 -580 32 -50 35 -58 21 -66 -62 -35 -104 -122 -115
-236 -7 -82 -27 -142 -52 -157 -5 -4 -53 -11 -105 -15 -107 -9 -158 -30 -191
-79 -12 -18 -23 -36 -25 -42 -2 -6 -22 -6 -56 2 -76 16 -112 4 -343 -112 -217
-108 -239 -127 -239 -201 0 -47 -14 -49 -95 -12 -43 20 -68 25 -100 22 -23 -3
-148 -44 -276 -92 -129 -48 -272 -100 -319 -117 -47 -17 -159 -68 -250 -112
-193 -96 -251 -143 -270 -220 -8 -30 -23 -56 -41 -72 -41 -34 -185 -122 -304
-185 -293 -155 -738 -400 -950 -520 -291 -166 -337 -190 -482 -246 -114 -44
-193 -82 -226 -107 -34 -28 -16 -27 41 1 31 16 118 51 192 77 147 52 194 74
375 175 172 96 622 342 815 445 365 194 536 292 571 325 23 21 41 51 48 77 6
23 23 56 37 72 47 56 320 188 558 270 61 21 193 71 293 110 173 68 252 86 267
62 3 -5 -16 -14 -42 -21 -70 -17 -283 -105 -403 -167 -118 -59 -188 -114 -213
-166 -14 -30 -21 -35 -65 -41 -98 -13 -215 -88 -413 -264 -177 -157 -383 -292
-738 -484 -413 -224 -582 -318 -776 -435 -242 -146 -337 -194 -452 -232 -48
-15 -106 -38 -129 -49 -41 -21 -83 -65 -83 -86 0 -6 5 -3 11 6 17 30 96 69
200 99 121 35 199 74 484 239 121 70 389 219 595 330 547 296 722 408 933 596
179 160 295 233 385 242 75 7 102 -13 182 -135 38 -59 70 -109 70 -113 0 -3
-16 -35 -35 -71 -34 -64 -36 -66 -80 -72 -73 -11 -137 -50 -286 -180 -240
-209 -306 -248 -649 -387 -445 -180 -814 -383 -1042 -573 -70 -58 -91 -69
-200 -107 -129 -43 -206 -85 -232 -125 -14 -21 -10 -20 33 10 50 33 111 57
316 122 175 55 479 209 1135 576 365 204 435 251 645 436 173 152 268 205 339
187 62 -15 128 -106 189 -257 l35 -87 -40 -6 c-51 -8 -104 -35 -199 -102 -60
-41 -90 -55 -139 -64 -69 -13 -194 -49 -188 -55 2 -2 31 4 63 14 78 24 153 37
140 23 -5 -5 -67 -48 -137 -96 -140 -94 -275 -165 -490 -257 -248 -106 -603
-292 -784 -411 -244 -160 -316 -204 -439 -270 -60 -33 -99 -56 -85 -53 51 13
290 134 406 205 316 194 389 237 524 305 80 40 244 116 364 170 121 53 260
117 309 141 86 44 293 179 447 292 105 78 174 112 224 111 22 0 99 -15 169
-33 109 -28 132 -37 152 -62 27 -32 65 -123 65 -157 1 -12 7 -39 14 -59 l14
-38 -82 0 c-157 0 -244 -37 -397 -168 -117 -100 -161 -125 -374 -207 -357
-138 -438 -172 -760 -318 -365 -165 -458 -200 -575 -217 -139 -21 -208 -54
-255 -122 -28 -42 -48 -106 -43 -138 3 -21 7 -17 30 31 34 75 88 132 146 157
26 11 91 25 145 31 55 6 127 21 160 32 69 23 266 106 402 169 169 79 390 172
677 285 157 63 308 125 335 138 26 14 93 64 148 112 55 47 129 100 163 117 57
28 76 32 173 36 67 3 132 0 168 -8 60 -13 172 -67 178 -87 2 -6 -57 -31 -134
-57 -148 -50 -133 -54 57 -15 217 45 762 297 1175 544 264 158 578 368 715
478 123 98 298 278 389 398 l64 84 -6 -69 c-6 -65 -10 -74 -64 -145 -74 -96
-225 -247 -333 -331 -114 -89 -134 -107 -75 -69 132 87 405 350 453 436 10 17
12 17 34 -4 13 -12 34 -23 47 -25 23 -3 22 -5 -24 -68 -66 -90 -278 -299 -410
-404 -148 -118 -365 -261 -695 -458 -650 -389 -923 -577 -1080 -743 -25 -26 3
-6 63 46 207 180 439 335 1062 709 421 253 609 386 829 584 94 86 218 224 267
298 22 33 71 68 95 68 8 0 -68 -114 -130 -195 -121 -160 -239 -287 -363 -393
-280 -238 -380 -310 -938 -671 -351 -227 -488 -337 -596 -480 -56 -76 -66
-104 -14 -43 20 22 53 55 75 72 l40 32 21 -47 c44 -98 4 -158 -156 -235 -223
-107 -334 -122 -533 -70 -157 41 -259 54 -371 47 -211 -12 -641 -106 -951
-208 -327 -108 -476 -182 -605 -300 -102 -93 -124 -106 -212 -124 -54 -11 -80
-11 -152 -1 -99 15 -137 32 -176 78 l-28 33 7 -30 c17 -74 85 -118 209 -136
140 -21 248 15 360 119 84 78 106 92 243 161 300 149 761 283 1194 347 154 22
249 15 425 -32 121 -33 155 -38 250 -38 101 0 119 3 219 37 216 74 331 154
356 249 11 37 9 52 -9 109 -33 104 -40 99 102 92 120 -5 123 -5 177 24 43 22
62 40 85 80 25 43 34 51 50 45 11 -3 85 -6 165 -7 165 0 188 -7 315 -94 152
-105 206 -121 490 -146 396 -35 645 -85 823 -166 85 -38 116 -62 162 -124 88
-119 158 -164 292 -189 176 -33 368 -29 525 13 124 32 218 100 349 252 297
345 356 507 296 814 -30 150 -42 268 -42 408 0 134 -25 265 -189 1007 -124
560 -164 785 -221 1235 -66 529 -84 834 -84 1430 -1 745 42 1356 189 2725 13
124 44 414 69 645 25 231 61 578 81 770 62 616 106 908 240 1579 100 502 204
1148 235 1456 31 304 21 1054 -20 1494 -44 471 -143 1139 -231 1561 -149 715
-328 1303 -659 2166 -322 839 -382 956 -919 1784 -125 193 -155 225 -85 93 31
-60 52 -113 48 -119 -4 -7 -3 -9 3 -6 6 4 52 -66 109 -166 53 -94 125 -217
159 -272 273 -439 467 -875 800 -1790 355 -979 547 -1808 684 -2955 49 -408
62 -611 68 -1085 4 -359 2 -476 -11 -635 -19 -218 -53 -473 -96 -715 -16 -88
-36 -207 -45 -265 -9 -58 -52 -287 -95 -510 -155 -790 -172 -905 -275 -1876
-41 -390 -95 -889 -119 -1109 -125 -1117 -184 -1919 -193 -2610 -8 -657 14
-1041 97 -1695 54 -419 102 -679 215 -1170 136 -590 185 -856 185 -1004 0
-130 12 -239 41 -391 26 -136 23 -262 -10 -346 -72 -186 -355 -535 -489 -603
-159 -81 -457 -94 -673 -30 -58 17 -136 84 -209 179 -65 84 -189 141 -435 200
-156 38 -275 55 -575 85 -277 27 -293 31 -397 97 -131 84 -183 111 -244 127
l-54 15 105 0 c58 0 137 -4 175 -9 148 -19 163 -20 95 -5 -105 24 -266 29
-443 15 -195 -15 -207 -12 -207 54 l0 44 123 79 c251 160 486 322 613 420
l130 102 70 -15 c119 -24 241 -12 299 30 11 8 -9 4 -50 -10 -39 -13 -89 -24
-112 -24 -38 0 -182 20 -192 26 -2 2 14 18 35 36 22 18 66 59 100 90 47 45 75
63 125 79 97 32 191 84 259 146 71 65 73 81 3 27 -45 -35 -191 -111 -196 -103
-2 2 99 104 224 225 202 198 235 226 304 260 66 32 91 39 154 43 100 5 241
-17 248 -38 38 -128 166 -273 293 -334 80 -38 194 -67 259 -67 l41 0 1 -42 c1
-41 2 -40 15 22 9 42 13 140 14 280 0 313 -14 484 -95 1165 -110 918 -146
1372 -166 2085 -14 512 -6 1641 16 2265 22 611 23 1296 1 1620 -61 916 -190
1686 -437 2612 -49 184 -107 405 -129 491 -43 172 -184 682 -230 832 -131 428
-262 1067 -339 1650 -75 573 -74 550 -67 1230 6 658 17 846 29 515 16 -452 78
-1043 157 -1499 58 -339 175 -951 178 -935 1 8 -25 163 -59 344 -178 962 -235
1415 -269 2160 l-11 240 37 220 c41 248 42 315 4 525 -26 144 -41 192 -86 266
l-36 59 11 156 c11 160 33 318 76 539 47 242 58 368 52 585 -3 115 -12 240
-22 295 -17 97 -32 143 -20 57 4 -26 8 -150 8 -275 1 -265 -8 -341 -89 -749
-40 -201 -57 -311 -64 -420 -5 -82 -10 -149 -10 -150 0 -1 -17 5 -37 13 -24
11 -51 14 -78 9 l-42 -6 8 48 c12 72 10 285 -2 345 -32 150 -103 203 -333 248
l-59 12 49 27 c233 127 405 348 465 596 47 199 3 433 -117 616 -53 80 -87 108
-197 158 -62 28 -94 51 -126 87 -69 78 -155 273 -202 457 -47 186 -51 220 -56
581 -3 193 -8 343 -13 335 -30 -56 -55 -433 -40 -615 18 -226 74 -444 161
-633 21 -46 39 -87 39 -90 0 -3 -25 32 -55 79 -135 209 -193 377 -231 670
l-13 105 4 -89 c10 -172 67 -390 141 -538 48 -96 143 -240 154 -233 5 3 16 -7
24 -24 30 -58 102 -118 175 -146 130 -49 193 -116 251 -268 85 -219 79 -400
-22 -601 -146 -293 -390 -457 -759 -512 -221 -32 -447 -4 -738 92 -469 154
-674 329 -829 706 -84 204 -97 266 -97 458 0 196 9 232 108 441 155 325 214
532 297 1042 32 193 36 272 13 232z m1624 -3000 c221 -37 299 -85 323 -200 14
-65 8 -332 -8 -395 -12 -48 -110 -146 -257 -258 -67 -50 -145 -116 -174 -147
-90 -95 -167 -291 -172 -436 -2 -77 11 -134 50 -221 l29 -66 -13 -99 c-18
-124 -50 -450 -66 -653 -18 -236 -25 -932 -16 -1655 4 -357 5 -1102 2 -1655
-9 -1646 14 -2293 151 -4310 111 -1633 157 -2179 233 -2741 l20 -144 -21 -233
c-14 -143 -25 -227 -31 -220 -5 8 -6 -1 -3 -23 7 -39 -10 -206 -44 -429 -53
-353 -110 -536 -241 -765 -69 -122 -114 -234 -123 -310 -16 -122 -13 -115 -56
-115 -69 0 -139 21 -188 55 -26 19 -61 42 -78 51 -38 20 -82 91 -128 205 -55
137 -77 232 -83 361 -6 133 2 190 52 353 100 323 143 647 152 1150 9 542 -28
1165 -118 1980 -60 540 -134 1002 -269 1675 -265 1317 -335 1786 -435 2920 -8
96 -29 324 -45 505 -31 336 -39 429 -110 1270 -106 1254 -190 1989 -275 2390
-12 61 -23 117 -22 125 0 8 -3 26 -7 40 -9 31 76 -96 114 -170 53 -105 85
-233 119 -475 5 -33 9 -47 10 -31 2 48 -29 236 -54 333 -28 105 -78 211 -158
332 -45 66 -57 95 -63 139 -12 96 3 239 41 397 80 332 116 526 126 680 15 246
52 442 99 535 26 52 102 116 158 134 26 8 96 20 155 25 132 13 206 31 315 78
91 39 82 39 242 3 197 -43 464 -37 651 14 46 13 93 22 104 20 11 -2 62 -11
112 -19z m532 -680 c71 -65 116 -205 141 -446 13 -123 12 -142 -30 -404 -44
-273 -50 -386 -57 -1080 -6 -625 -3 -775 32 -1960 8 -264 17 -793 20 -1175 9
-1103 35 -2037 80 -2935 8 -159 24 -501 35 -760 11 -258 25 -555 30 -660 63
-1185 73 -1884 41 -2870 -22 -685 -27 -1251 -11 -1405 20 -187 59 -333 148
-540 100 -236 105 -357 24 -569 l-36 -96 -27 85 c-15 47 -28 79 -28 73 -3 -39
57 -272 95 -375 24 -65 44 -128 44 -139 0 -30 -47 -145 -91 -221 -77 -132
-193 -228 -275 -228 l-32 0 1 188 c1 143 -3 202 -15 253 -19 73 -58 182 -64
177 -2 -3 5 -50 16 -107 11 -56 20 -126 20 -156 0 -49 -3 -56 -32 -78 -48 -35
-92 -47 -174 -47 -151 0 -254 71 -344 238 -70 130 -101 174 -150 209 -218 161
-239 207 -220 483 20 298 31 341 148 548 141 251 209 503 271 1012 58 468 92
959 113 1618 17 560 -2 1059 -77 1977 -108 1322 -125 1640 -125 2395 0 572 21
1262 60 1985 28 515 35 833 35 1510 0 702 -3 818 -36 1275 -18 247 -59 608
-83 734 -29 144 -100 389 -150 513 -62 153 -67 217 -25 371 43 162 110 249
294 387 61 46 139 113 175 150 84 87 113 105 172 105 41 0 54 -5 87 -35z
m-673 -1256 c81 -269 125 -582 158 -1131 48 -770 45 -1486 -9 -2623 -23 -488
-34 -738 -46 -1050 -15 -382 -15 -1533 0 -1790 29 -497 50 -793 106 -1485 68
-844 85 -1168 85 -1649 0 -331 -12 -721 -28 -921 l-7 -85 -18 146 c-45 377
-80 791 -147 1739 -22 316 -49 697 -60 845 -43 589 -74 1132 -122 2185 -8 176
-13 701 -13 1565 -1 715 -5 1698 -9 2185 -8 944 -2 1268 34 1695 24 283 43
466 47 462 2 -2 15 -42 29 -88z m885 -2399 c17 -96 46 -290 64 -430 37 -286
138 -903 192 -1170 37 -188 181 -811 188 -819 9 -8 5 12 -16 99 -131 548 -260
1224 -324 1705 -8 61 -18 126 -21 145 -13 76 6 18 35 -110 17 -74 51 -209 76
-300 50 -185 92 -385 166 -790 50 -275 126 -625 200 -925 44 -177 200 -708
206 -702 2 3 -28 112 -67 243 -146 494 -235 888 -396 1764 l-4 25 9 -25 c30
-80 315 -1164 422 -1605 168 -692 283 -1469 319 -2155 15 -298 13 -308 -25
-130 -86 402 -196 824 -319 1233 -35 116 -78 263 -96 325 -18 61 -35 110 -37
108 -2 -2 28 -113 68 -247 172 -587 288 -1034 381 -1479 39 -190 41 -202 45
-435 3 -132 2 -237 -1 -234 -3 3 -18 64 -32 135 -31 160 -104 493 -149 680
-34 144 -113 399 -121 392 -2 -3 7 -38 21 -79 35 -101 123 -460 189 -774 94
-440 89 -405 82 -715 -3 -151 -8 -358 -10 -460 -2 -102 -10 -396 -16 -655 -16
-591 -4 -1804 21 -2094 5 -63 8 -116 6 -117 -4 -4 -116 373 -166 561 -66 245
-122 495 -127 570 -7 100 6 70 62 -143 26 -100 49 -180 51 -178 4 4 -59 257
-97 386 -16 53 -20 109 -24 310 -3 135 -10 292 -16 350 -5 58 -17 202 -25 320
-9 118 -19 226 -22 240 -30 132 108 -312 218 -697 34 -123 64 -221 66 -219 2
2 -35 149 -82 327 -48 178 -115 439 -150 579 -35 140 -100 399 -144 575 -168
663 -282 1190 -366 1680 -31 182 -67 391 -80 465 -50 275 -147 1015 -144 1100
1 23 5 13 10 -30 5 -36 19 -132 30 -215 36 -263 157 -939 225 -1254 64 -302
157 -685 175 -725 8 -19 9 -18 4 4 -3 14 -23 99 -46 189 -179 726 -382 1920
-425 2501 -18 245 -26 640 -29 1480 -2 410 0 542 6 440 38 -641 56 -812 145
-1340 72 -429 133 -741 198 -1013 88 -364 319 -1277 322 -1274 5 4 -138 602
-201 842 -136 523 -208 871 -324 1570 -68 409 -87 587 -116 1085 -9 146 -22
339 -30 430 -13 152 -27 515 -40 1035 l-5 210 30 -195 c17 -107 44 -274 61
-370z m296 -1252 c-3 -8 -6 -5 -6 6 -1 11 2 17 5 13 3 -3 4 -12 1 -19z m-219
-3103 c69 -407 156 -904 187 -1053 19 -95 38 -202 41 -238 4 -35 10 -64 14
-64 4 0 5 -10 3 -23 -5 -27 31 -352 87 -787 86 -660 100 -826 110 -1270 l7
-315 1 235 c3 409 -19 687 -108 1365 -55 420 -92 742 -88 762 2 10 23 -72 47
-182 24 -110 63 -279 87 -375 40 -158 47 -202 69 -455 36 -418 57 -880 65
-1450 l8 -510 -3 595 c-4 684 -15 936 -70 1485 -3 35 5 14 30 -75 55 -197 62
-241 84 -490 82 -939 88 -1513 26 -2670 -36 -667 -42 -723 -92 -875 l-27 -80
-17 145 c-18 140 -91 460 -145 633 l-25 79 20 276 c28 370 41 686 39 977 l-1
240 -8 -305 c-9 -352 -24 -679 -44 -935 -8 -99 -15 -193 -15 -210 -1 -27 -3
-24 -24 25 -12 30 -35 78 -49 107 -15 29 -27 59 -27 67 0 8 -4 16 -9 18 -5 2
-20 26 -35 55 -26 52 -26 54 -26 286 0 239 -15 594 -30 727 -10 83 -10 95 10
-350 5 -113 10 -293 10 -400 l0 -195 -36 63 -35 64 10 351 c6 194 13 408 16
477 33 762 32 1145 -5 2038 -42 1037 -41 1015 -30 962 63 -286 221 -1740 231
-2130 1 -30 4 -44 6 -30 12 61 -25 555 -77 1045 -61 569 -100 865 -146 1115
-14 74 -27 149 -30 165 -6 45 -35 667 -31 672 7 7 69 -303 112 -562 24 -143
72 -458 107 -699 34 -242 64 -433 66 -425 6 31 -140 1039 -189 1304 -11 61
-38 191 -60 290 -39 173 -41 194 -59 530 -26 460 -24 521 5 295 13 -96 32
-229 43 -295z m814 -4890 c27 -99 80 -279 118 -400 53 -175 69 -240 74 -315
14 -182 56 -577 106 -990 89 -746 116 -1079 104 -1287 l-7 -113 -26 0 c-36 0
-151 34 -214 63 -99 46 -216 167 -253 263 -15 40 -15 40 20 92 24 36 37 68 41
106 12 95 -19 147 -136 227 -79 53 -110 95 -178 235 l-59 120 18 80 c10 43 24
111 30 149 7 39 18 77 26 85 30 35 87 179 110 278 14 65 28 169 34 267 14 217
49 950 60 1275 5 146 10 274 11 285 0 11 16 -38 35 -110 20 -71 58 -211 86
-310z m-732 -385 c98 -195 204 -469 229 -590 5 -25 21 -92 36 -150 38 -146 41
-376 8 -555 -13 -66 -29 -160 -37 -210 -14 -85 -69 -294 -86 -324 -4 -9 -17
14 -35 64 -25 68 -27 81 -16 109 6 17 31 85 54 151 41 118 42 123 42 250 -1
144 -5 163 -90 362 l-43 101 8 99 c5 54 9 161 8 238 l-1 140 -12 -220 c-15
-295 -29 -260 -44 110 -16 373 -20 395 -14 75 3 -146 2 -262 -2 -258 -4 3 -15
55 -26 115 -19 108 -40 573 -26 573 4 0 25 -36 47 -80z m327 -1205 c-4 -112
-12 -182 -32 -275 -25 -115 -101 -367 -123 -406 -9 -16 -10 -15 -16 4 -5 13 3
49 18 91 14 38 33 98 42 133 31 122 86 474 92 598 6 121 6 123 15 65 4 -33 6
-127 4 -210z m-1850 95 c71 -43 150 -65 207 -58 25 3 36 0 36 -9 0 -7 -3 -13
-7 -13 -5 0 -6 -75 -3 -167 5 -158 7 -171 32 -224 29 -58 99 -130 200 -206 31
-23 67 -61 81 -85 13 -24 44 -79 68 -122 61 -110 133 -186 211 -222 58 -27 72
-29 178 -29 91 0 122 4 148 18 17 10 32 14 32 10 0 -16 -172 -212 -273 -311
l-105 -103 -29 14 c-36 19 -101 89 -176 189 -64 84 -152 171 -225 218 l-47 31
40 -33 c69 -57 156 -141 188 -183 l32 -40 -45 38 c-69 57 -191 151 -225 172
-44 27 -21 7 78 -69 89 -69 102 -85 53 -66 -40 15 -173 12 -241 -5 -84 -21
-291 -125 -347 -174 -25 -23 -55 -41 -66 -41 -52 0 -77 70 -68 192 7 102 -6
213 -33 272 -10 23 -48 79 -85 124 -60 76 -109 165 -176 319 -21 47 -22 57
-11 93 16 53 52 71 164 81 157 15 192 51 207 211 9 98 36 165 77 198 36 28 55
25 130 -20z m-650 -517 c6 -8 24 -45 38 -81 53 -132 107 -228 171 -307 108
-133 115 -154 119 -365 2 -74 8 -148 14 -164 l12 -29 -38 6 c-177 28 -320 39
-366 28 -47 -11 -52 -10 -75 11 -13 13 -41 52 -62 88 -55 94 -112 162 -184
219 -49 39 -70 65 -94 113 -16 35 -51 94 -76 133 -50 75 -54 107 -17 149 18
20 353 192 416 212 48 16 125 9 142 -13z m2517 -159 c62 -133 92 -172 186
-239 69 -50 88 -69 99 -102 18 -50 3 -112 -36 -150 -22 -23 -29 -25 -76 -18
-185 28 -260 21 -372 -34 -44 -22 -107 -65 -141 -95 l-60 -54 64 96 c35 54 78
129 97 169 36 77 128 321 166 441 13 39 25 72 28 72 4 -1 24 -39 45 -86z
m-3119 -188 c13 -13 38 -52 55 -87 18 -35 43 -80 56 -100 26 -41 23 -49 -16
-49 -76 0 -247 -77 -362 -162 -98 -73 -277 -198 -284 -198 -2 0 -33 44 -68 98
-64 98 -92 130 -134 151 -21 11 -21 14 -8 40 35 67 151 135 393 232 119 47
284 97 326 99 10 0 29 -11 42 -24z m196 -282 c40 -20 124 -118 171 -197 23
-40 57 -88 76 -107 l34 -34 -18 -33 c-23 -45 -78 -94 -199 -180 -55 -39 -136
-103 -180 -143 -80 -73 -215 -218 -215 -232 0 -5 -9 -8 -19 -8 -29 0 -214 50
-227 61 -7 6 -29 52 -48 103 -56 144 -134 260 -186 278 -11 3 -7 17 17 59 24
42 48 67 114 113 46 32 131 96 188 143 118 95 251 166 352 187 66 14 96 12
140 -10z m2553 -101 c-62 -108 -161 -240 -246 -326 -49 -51 -78 -76 -63 -57
14 19 52 69 84 110 32 41 77 104 101 140 38 57 139 179 148 180 2 0 -8 -21
-24 -47z m-1026 -59 c35 -17 78 -55 133 -115 45 -49 97 -99 116 -110 18 -11
33 -24 33 -27 -1 -4 -26 -26 -57 -49 -54 -41 -57 -42 -85 -27 -15 8 -76 51
-134 95 -161 123 -282 178 -392 179 l-37 1 38 20 c61 32 175 58 258 58 61 1
84 -4 127 -25z m-337 -114 c79 -15 183 -67 278 -138 46 -35 104 -77 128 -93
24 -17 41 -35 37 -40 -13 -22 -623 -412 -632 -404 -1 1 5 53 14 115 13 88 14
127 6 174 -14 87 -46 164 -93 227 l-40 54 28 23 c110 88 160 103 274 82z
m-719 -60 c40 -5 115 -14 166 -20 180 -21 185 -23 243 -111 80 -123 106 -233
80 -349 -5 -25 -12 -75 -16 -111 l-7 -66 -122 -66 c-169 -92 -533 -268 -643
-311 l-93 -36 -52 40 c-49 37 -82 52 -162 76 -39 12 -61 52 -80 143 -11 51
-27 92 -51 128 l-36 54 40 48 c77 92 248 247 363 328 114 81 208 171 208 200
0 21 46 63 69 63 11 0 53 -4 93 -10z m-2312 -764 c0 -2 -100 -59 -222 -126
-123 -68 -284 -157 -358 -198 -230 -127 -448 -236 -415 -207 45 39 267 185
373 244 122 69 370 188 507 245 120 50 115 48 115 42z m2785 -502 c-22 -76
-39 -99 -89 -124 -31 -15 -62 -20 -119 -20 -42 0 -77 3 -77 8 0 7 55 46 225
161 39 26 71 43 73 39 2 -4 -4 -33 -13 -64z"/>
<path d="M9525 20263 c-114 -25 -279 -33 -415 -20 -55 5 -59 5 -30 -4 19 -6
103 -11 185 -12 145 0 297 21 377 52 36 15 3 10 -117 -16z"/>
<path d="M9556 20224 c-138 -29 -350 -48 -435 -39 -36 4 -93 17 -126 30 -53
21 -57 22 -37 5 81 -67 388 -68 640 -1 41 11 76 22 80 25 7 7 9 8 -122 -20z"/>
<path d="M10455 20190 c-3 -6 -19 -17 -35 -25 -24 -13 -38 -13 -75 -4 -37 9
-61 8 -152 -11 -59 -12 -148 -28 -198 -36 l-90 -14 75 5 c41 3 122 14 180 26
76 15 124 19 175 14 59 -5 75 -3 103 15 17 11 32 24 32 30 0 13 -7 13 -15 0z"/>
<path d="M10531 20164 c0 -11 3 -14 6 -6 3 7 2 16 -1 19 -3 4 -6 -2 -5 -13z"/>
<path d="M10581 20164 c0 -11 3 -14 6 -6 3 7 2 16 -1 19 -3 4 -6 -2 -5 -13z"/>
<path d="M10542 20110 c0 -19 2 -27 5 -17 2 9 2 25 0 35 -3 9 -5 1 -5 -18z"/>
<path d="M10592 20115 c0 -16 2 -22 5 -12 2 9 2 23 0 30 -3 6 -5 -1 -5 -18z"/>
<path d="M8641 20061 c-71 -89 -106 -219 -115 -428 l-5 -108 9 95 c24 246 49
339 115 432 42 58 39 63 -4 9z"/>
<path d="M9838 20093 c12 -2 32 -2 45 0 12 2 2 4 -23 4 -25 0 -35 -2 -22 -4z"/>
<path d="M10598 19975 c-4 -60 -16 -144 -26 -185 -23 -87 -21 -107 3 -28 24
80 36 177 33 254 -3 63 -4 60 -10 -41z"/>
<path d="M10547 19986 c-8 -98 -27 -179 -57 -253 -13 -31 -15 -41 -5 -29 36
47 79 240 73 328 -2 31 -5 18 -11 -46z"/>
<path d="M8686 20038 c-42 -65 -96 -214 -95 -263 0 -11 9 14 19 55 11 41 37
110 58 153 39 78 44 95 18 55z"/>
<path d="M10493 20020 c0 -25 2 -35 4 -22 2 12 2 32 0 45 -2 12 -4 2 -4 -23z"/>
<path d="M8722 19987 c-31 -51 -62 -129 -61 -151 0 -6 11 17 23 52 13 34 36
81 51 103 14 23 25 43 23 45 -2 2 -18 -20 -36 -49z"/>
<path d="M8806 20008 l-18 -33 21 25 c18 22 26 40 18 40 -1 0 -11 -15 -21 -32z"/>
<path d="M8880 20020 c-6 -11 -8 -20 -6 -20 3 0 10 9 16 20 6 11 8 20 6 20 -3
0 -10 -9 -16 -20z"/>
<path d="M8942 19995 c-17 -37 -14 -45 4 -12 9 16 14 31 11 33 -2 2 -9 -7 -15
-21z"/>
<path d="M9021 20003 c-1 -6 -4 -20 -7 -30 -5 -17 -5 -17 6 0 6 10 9 23 6 30
-3 9 -5 9 -5 0z"/>
<path d="M10481 19944 c0 -11 3 -14 6 -6 3 7 2 16 -1 19 -3 4 -6 -2 -5 -13z"/>
<path d="M8582 19725 c0 -16 2 -22 5 -12 2 9 2 23 0 30 -3 6 -5 -1 -5 -18z"/>
<path d="M10404 19589 c-16 -17 -74 -65 -129 -107 -55 -42 -122 -96 -148 -121
-60 -55 -240 -281 -224 -281 2 0 34 40 70 89 93 124 183 213 317 313 113 84
173 138 154 138 -6 0 -23 -14 -40 -31z"/>
<path d="M9925 19345 c-38 -18 -135 -56 -215 -83 -80 -28 -181 -67 -225 -87
-77 -35 -238 -135 -251 -156 -3 -6 25 11 63 37 87 60 211 118 393 184 146 53
310 124 310 134 0 7 8 10 -75 -29z"/>
<path d="M10059 19353 c-13 -16 -12 -17 4 -4 16 13 21 21 13 21 -2 0 -10 -8
-17 -17z"/>
<path d="M9989 19293 l-34 -38 38 34 c20 19 37 36 37 38 0 8 -8 0 -41 -34z"/>
<path d="M9891 19280 c-56 -40 -271 -228 -271 -237 0 -3 32 24 71 58 65 59
140 121 229 191 52 41 33 33 -29 -12z"/>
<path d="M8464 19213 c-4 -32 -13 -75 -20 -97 -26 -72 -14 -62 16 14 32 80 36
94 20 70 -7 -11 -8 -2 -4 28 4 23 4 42 1 42 -3 0 -9 -26 -13 -57z"/>
<path d="M9909 19223 l-34 -38 38 34 c20 19 37 36 37 38 0 8 -8 0 -41 -34z"/>
<path d="M10078 19218 c-22 -34 -42 -74 -31 -63 14 15 55 85 50 85 -3 0 -11
-10 -19 -22z"/>
<path d="M9690 19183 c-75 -61 -172 -154 -224 -212 -28 -31 -10 -16 39 32 49
49 121 116 162 149 64 53 80 69 71 68 -2 0 -23 -17 -48 -37z"/>
<path d="M9844 19148 l-29 -33 33 29 c30 28 37 36 29 36 -2 0 -16 -15 -33 -32z"/>
<path d="M9990 19057 c-21 -45 -53 -125 -70 -176 -34 -102 -95 -357 -104 -436
-3 -27 5 1 19 64 56 262 101 411 165 549 21 45 36 82 34 82 -3 0 -23 -37 -44
-83z"/>
<path d="M9799 19093 c-13 -16 -12 -17 4 -4 16 13 21 21 13 21 -2 0 -10 -8
-17 -17z"/>
<path d="M9187 19010 c5 -64 4 -66 -52 -160 -70 -117 -165 -305 -205 -406 -50
-125 -33 -107 29 33 61 135 94 199 188 360 45 78 53 99 52 140 -1 26 -5 59 -9
73 -5 15 -6 -1 -3 -40z"/>
<path d="M9365 18988 l-40 -43 43 40 c39 36 47 45 39 45 -2 0 -21 -19 -42 -42z"/>
<path d="M9569 18983 c-13 -16 -12 -17 4 -4 9 7 17 15 17 17 0 8 -8 3 -21 -13z"/>
<path d="M9262 18869 c-42 -55 -94 -132 -80 -119 12 11 137 180 132 180 -2 0
-25 -27 -52 -61z"/>
<path d="M9389 18883 c-13 -16 -12 -17 4 -4 9 7 17 15 17 17 0 8 -8 3 -21 -13z"/>
<path d="M9997 18813 c-4 -15 -24 -107 -46 -204 -22 -97 -49 -229 -60 -295
-84 -492 -143 -1450 -139 -2279 l2 -430 7 540 c7 547 16 817 44 1225 41 604
75 870 161 1259 25 112 43 205 41 208 -2 2 -7 -9 -10 -24z"/>
<path d="M9130 18670 c-6 -11 -8 -20 -6 -20 3 0 10 9 16 20 6 11 8 20 6 20 -3
0 -10 -9 -16 -20z"/>
<path d="M10032 18660 c0 -14 2 -19 5 -12 2 6 2 18 0 25 -3 6 -5 1 -5 -13z"/>
<path d="M10020 18624 c0 -5 -9 -72 -20 -149 -67 -480 -98 -1121 -104 -2175
-1 -305 -2 -436 0 -290 1 146 8 461 14 700 25 999 46 1354 106 1799 8 62 13
116 10 119 -4 3 -6 1 -6 -4z"/>
<path d="M9802 18365 c0 -16 2 -22 5 -12 2 9 2 23 0 30 -3 6 -5 -1 -5 -18z"/>
<path d="M9792 18305 c0 -16 2 -22 5 -12 2 9 2 23 0 30 -3 6 -5 -1 -5 -18z"/>
<path d="M8360 18279 c0 -4 11 -31 24 -61 33 -75 64 -182 91 -318 13 -63 24
-105 24 -93 2 40 -50 265 -78 342 -26 72 -60 144 -61 130z"/>
<path d="M9782 18245 c0 -16 2 -22 5 -12 2 9 2 23 0 30 -3 6 -5 -1 -5 -18z"/>
<path d="M9772 18175 c0 -16 2 -22 5 -12 2 9 2 23 0 30 -3 6 -5 -1 -5 -18z"/>
<path d="M9762 18100 c0 -14 2 -19 5 -12 2 6 2 18 0 25 -3 6 -5 1 -5 -13z"/>
<path d="M8772 17920 c0 -19 2 -27 5 -17 2 9 2 25 0 35 -3 9 -5 1 -5 -18z"/>
<path d="M8783 17840 c0 -25 2 -35 4 -22 2 12 2 32 0 45 -2 12 -4 2 -4 -23z"/>
<path d="M8502 17750 c0 -19 2 -27 5 -17 2 9 2 25 0 35 -3 9 -5 1 -5 -18z"/>
<path d="M8513 17670 c0 -25 2 -35 4 -22 2 12 2 32 0 45 -2 12 -4 2 -4 -23z"/>
<path d="M8583 17590 c0 -25 2 -35 4 -22 2 12 2 32 0 45 -2 12 -4 2 -4 -23z"/>
<path d="M8523 17580 c0 -25 2 -35 4 -22 2 12 2 32 0 45 -2 12 -4 2 -4 -23z"/>
<path d="M8532 17490 c0 -14 2 -19 5 -12 2 6 2 18 0 25 -3 6 -5 1 -5 -13z"/>
<path d="M8602 17260 c0 -19 2 -27 5 -17 2 9 2 25 0 35 -3 9 -5 1 -5 -18z"/>
<path d="M8832 17220 c0 -14 2 -19 5 -12 2 6 2 18 0 25 -3 6 -5 1 -5 -13z"/>
<path d="M8841 17130 c0 -19 3 -136 9 -260 5 -124 14 -349 20 -500 12 -298 29
-538 60 -860 21 -216 68 -608 75 -625 9 -24 3 36 -25 271 -58 489 -91 932
-111 1499 -10 302 -25 545 -28 475z"/>
<path d="M8613 17100 c0 -25 2 -35 4 -22 2 12 2 32 0 45 -2 12 -4 2 -4 -23z"/>
<path d="M8623 16975 c0 -22 2 -30 4 -17 2 12 2 30 0 40 -3 9 -5 -1 -4 -23z"/>
<path d="M8633 16875 c0 -22 2 -30 4 -17 2 12 2 30 0 40 -3 9 -5 -1 -4 -23z"/>
<path d="M8643 16795 c0 -22 2 -30 4 -17 2 12 2 30 0 40 -3 9 -5 -1 -4 -23z"/>
<path d="M8652 16710 c0 -19 2 -27 5 -17 2 9 2 25 0 35 -3 9 -5 1 -5 -18z"/>
<path d="M8662 16640 c0 -14 2 -19 5 -12 2 6 2 18 0 25 -3 6 -5 1 -5 -13z"/>
<path d="M9903 15560 c0 -41 2 -58 4 -37 2 20 2 54 0 75 -2 20 -4 3 -4 -38z"/>
<path d="M9762 15400 c0 -19 2 -27 5 -17 2 9 2 25 0 35 -3 9 -5 1 -5 -18z"/>
<path d="M9012 14840 c0 -19 2 -27 5 -17 2 9 2 25 0 35 -3 9 -5 1 -5 -18z"/>
<path d="M9022 14770 c0 -19 2 -27 5 -17 2 9 2 25 0 35 -3 9 -5 1 -5 -18z"/>
<path d="M9032 14705 c0 -16 2 -22 5 -12 2 9 2 23 0 30 -3 6 -5 -1 -5 -18z"/>
<path d="M9042 14640 c0 -14 2 -19 5 -12 2 6 2 18 0 25 -3 6 -5 1 -5 -13z"/>
<path d="M9687 14475 c2 -82 15 -316 28 -520 13 -203 34 -559 47 -790 13 -231
25 -406 27 -390 5 46 -27 631 -74 1360 -34 516 -33 509 -28 340z"/>
<path d="M9052 14580 c0 -14 2 -19 5 -12 2 6 2 18 0 25 -3 6 -5 1 -5 -13z"/>
<path d="M9061 14514 c0 -11 3 -14 6 -6 3 7 2 16 -1 19 -3 4 -6 -2 -5 -13z"/>
<path d="M9071 14454 c0 -11 3 -14 6 -6 3 7 2 16 -1 19 -3 4 -6 -2 -5 -13z"/>
<path d="M9082 14400 c0 -14 2 -19 5 -12 2 6 2 18 0 25 -3 6 -5 1 -5 -13z"/>
<path d="M9091 14344 c0 -11 3 -14 6 -6 3 7 2 16 -1 19 -3 4 -6 -2 -5 -13z"/>
<path d="M9101 14284 c0 -11 3 -14 6 -6 3 7 2 16 -1 19 -3 4 -6 -2 -5 -13z"/>
<path d="M9833 13335 c0 -33 2 -45 4 -27 2 18 2 45 0 60 -2 15 -4 0 -4 -33z"/>
<path d="M9845 13140 c3 -74 11 -277 19 -450 9 -173 20 -432 26 -575 53 -1255
122 -2465 138 -2417 2 7 -3 110 -12 230 -34 457 -71 1200 -126 2512 -13 309
-40 790 -45 815 -2 11 -2 -41 0 -115z"/>
<path d="M9793 12670 c0 -41 2 -58 4 -37 2 20 2 54 0 75 -2 20 -4 3 -4 -38z"/>
<path d="M10033 9620 c0 -25 2 -35 4 -22 2 12 2 32 0 45 -2 12 -4 2 -4 -23z"/>
<path d="M10183 8125 c0 -27 2 -38 4 -22 2 15 2 37 0 50 -2 12 -4 0 -4 -28z"/>
<path d="M10191 8035 c-2 -64 26 -279 74 -580 25 -154 54 -334 64 -400 11 -66
19 -110 20 -98 1 26 -37 290 -85 588 -19 121 -43 290 -54 375 -10 85 -18 137
-19 115z"/>
<path d="M10192 7440 c0 -14 2 -19 5 -12 2 6 2 18 0 25 -3 6 -5 1 -5 -13z"/>
<path d="M10202 7370 c0 -19 2 -27 5 -17 2 9 2 25 0 35 -3 9 -5 1 -5 -18z"/>
<path d="M10211 7320 c-2 -29 43 -323 47 -311 2 6 -6 78 -18 159 -21 146 -28
181 -29 152z"/>
<path d="M10262 6960 c0 -19 2 -27 5 -17 2 9 2 25 0 35 -3 9 -5 1 -5 -18z"/>
<path d="M10272 6890 c0 -19 2 -27 5 -17 2 9 2 25 0 35 -3 9 -5 1 -5 -18z"/>
<path d="M10283 6815 c0 -22 2 -30 4 -17 2 12 2 30 0 40 -3 9 -5 -1 -4 -23z"/>
<path d="M10203 6785 c0 -22 2 -30 4 -17 2 12 2 30 0 40 -3 9 -5 -1 -4 -23z"/>
<path d="M10292 6740 c0 -19 2 -27 5 -17 2 9 2 25 0 35 -3 9 -5 1 -5 -18z"/>
<path d="M10213 6685 c0 -27 2 -38 4 -22 2 15 2 37 0 50 -2 12 -4 0 -4 -28z"/>
<path d="M10303 6655 c0 -22 2 -30 4 -17 2 12 2 30 0 40 -3 9 -5 -1 -4 -23z"/>
<path d="M10223 6575 c0 -27 2 -38 4 -22 2 15 2 37 0 50 -2 12 -4 0 -4 -28z"/>
<path d="M10233 6480 c0 -25 2 -35 4 -22 2 12 2 32 0 45 -2 12 -4 2 -4 -23z"/>
<path d="M10242 6370 c0 -19 2 -27 5 -17 2 9 2 25 0 35 -3 9 -5 1 -5 -18z"/>
<path d="M10251 6224 c0 -11 3 -14 6 -6 3 7 2 16 -1 19 -3 4 -6 -2 -5 -13z"/>
<path d="M9491 5834 c0 -11 3 -14 6 -6 3 7 2 16 -1 19 -3 4 -6 -2 -5 -13z"/>
<path d="M9502 5780 c0 -14 2 -19 5 -12 2 6 2 18 0 25 -3 6 -5 1 -5 -13z"/>
<path d="M10031 5774 c0 -11 3 -14 6 -6 3 7 2 16 -1 19 -3 4 -6 -2 -5 -13z"/>
<path d="M9512 5720 c0 -14 2 -19 5 -12 2 6 2 18 0 25 -3 6 -5 1 -5 -13z"/>
<path d="M9521 5674 c0 -11 3 -14 6 -6 3 7 2 16 -1 19 -3 4 -6 -2 -5 -13z"/>
<path d="M9531 5634 c0 -11 3 -14 6 -6 3 7 2 16 -1 19 -3 4 -6 -2 -5 -13z"/>
<path d="M9742 5630 c0 -14 2 -19 5 -12 2 6 2 18 0 25 -3 6 -5 1 -5 -13z"/>
<path d="M10579 19477 c-14 -18 -68 -57 -120 -87 -103 -61 -202 -147 -249
-218 -77 -116 -91 -275 -39 -438 17 -53 32 -94 34 -92 2 2 -9 45 -25 96 -23
70 -30 111 -30 170 0 200 87 331 312 470 64 40 123 84 133 98 24 38 14 38 -16
1z"/>
<path d="M10908 19222 c-9 -39 -46 -92 -102 -146 -37 -36 -45 -39 -105 -42
-43 -3 -70 -9 -84 -21 -31 -28 -77 -94 -77 -112 0 -9 9 3 21 26 25 51 71 93
105 94 124 7 123 7 127 -31 2 -19 3 -13 2 13 -2 43 1 49 26 64 15 9 33 29 39
43 6 14 22 38 36 53 18 20 24 36 22 60 l-3 32 -7 -33z"/>
<path d="M10922 19069 c-1 -52 -7 -121 -13 -153 -6 -32 -8 -60 -6 -63 11 -11
28 139 25 222 l-4 90 -2 -96z"/>
<path d="M10853 19015 c0 -27 2 -38 4 -22 2 15 2 37 0 50 -2 12 -4 0 -4 -28z"/>
<path d="M10843 18915 c0 -22 2 -30 4 -17 2 12 2 30 0 40 -3 9 -5 -1 -4 -23z"/>
<path d="M10832 18830 c0 -14 2 -19 5 -12 2 6 2 18 0 25 -3 6 -5 1 -5 -13z"/>
<path d="M10877 18763 c-23 -113 -34 -196 -51 -393 -17 -186 -37 -675 -34
-819 0 -47 5 -1 9 104 24 567 45 852 79 1059 11 66 19 121 17 123 -2 2 -11
-32 -20 -74z"/>
<path d="M10821 18754 c0 -11 3 -14 6 -6 3 7 2 16 -1 19 -3 4 -6 -2 -5 -13z"/>
<path d="M10296 18435 c37 -101 92 -319 114 -459 30 -187 48 -398 65 -791 19
-436 25 -501 19 -215 -13 576 -42 920 -100 1170 -31 132 -91 322 -110 347 -7
10 -2 -13 12 -52z"/>
<path d="M10872 15078 c-12 -502 -28 -905 -57 -1453 -48 -920 -47 -1333 5
-2145 28 -430 54 -736 100 -1185 36 -343 65 -677 89 -995 4 -63 9 -94 10 -67
2 92 -40 628 -79 991 -68 642 -123 1411 -140 1993 -12 384 -5 700 30 1413 37
738 51 1114 57 1533 3 229 4 417 2 417 -3 0 -10 -226 -17 -502z"/>
<path d="M10498 14925 c5 -454 -3 -684 -53 -1380 -61 -861 -65 -1110 -29
-1685 19 -304 31 -446 33 -400 0 19 -8 181 -19 360 -22 362 -26 850 -10 1150
6 102 24 374 40 605 16 231 34 511 40 623 11 224 11 743 0 977 -4 83 -5 -30
-2 -250z"/>
<path d="M10453 11335 c0 -38 2 -53 4 -32 2 20 2 52 0 70 -2 17 -4 1 -4 -38z"/>
<path d="M10462 11170 c0 -19 2 -27 5 -17 2 9 2 25 0 35 -3 9 -5 1 -5 -18z"/>
<path d="M11023 9105 c0 -27 2 -38 4 -22 2 15 2 37 0 50 -2 12 -4 0 -4 -28z"/>
<path d="M10936 7375 c-14 -1103 -13 -1147 12 -1295 27 -158 65 -308 137 -530
31 -96 63 -204 70 -240 7 -36 13 -54 14 -40 1 39 -25 140 -80 310 -142 438
-165 613 -149 1135 6 193 10 591 8 885 l-3 535 -9 -760z"/>
<path d="M11012 6775 c-4 -359 35 -761 103 -1042 23 -97 123 -378 132 -370 2
2 -17 59 -42 126 -125 333 -170 660 -188 1346 -2 64 -4 42 -5 -60z"/>
<path d="M10492 6740 c0 -14 2 -19 5 -12 2 6 2 18 0 25 -3 6 -5 1 -5 -13z"/>
<path d="M10483 6665 c0 -22 2 -30 4 -17 2 12 2 30 0 40 -3 9 -5 -1 -4 -23z"/>
<path d="M10467 6570 c-20 -149 -64 -360 -103 -499 -24 -85 -43 -156 -41 -158
4 -4 64 196 91 302 23 92 68 362 64 388 -2 12 -7 -3 -11 -33z"/>
<path d="M10431 6104 c0 -11 3 -14 6 -6 3 7 2 16 -1 19 -3 4 -6 -2 -5 -13z"/>
<path d="M10421 6064 c0 -11 3 -14 6 -6 3 7 2 16 -1 19 -3 4 -6 -2 -5 -13z"/>
<path d="M10411 6024 c0 -11 3 -14 6 -6 3 7 2 16 -1 19 -3 4 -6 -2 -5 -13z"/>
<path d="M10401 5984 c0 -11 3 -14 6 -6 3 7 2 16 -1 19 -3 4 -6 -2 -5 -13z"/>
<path d="M10391 5944 c0 -11 3 -14 6 -6 3 7 2 16 -1 19 -3 4 -6 -2 -5 -13z"/>
<path d="M10376 5894 c-4 -14 -5 -28 -3 -31 3 -2 8 8 11 23 4 14 5 28 3 31 -3
2 -8 -8 -11 -23z"/>
<path d="M10296 5844 c-10 -31 -16 -58 -14 -60 3 -2 12 21 22 52 10 31 16 58
14 60 -3 2 -12 -21 -22 -52z"/>
<path d="M10331 5749 c-12 -39 -21 -72 -19 -75 2 -2 14 28 27 67 12 39 21 72
19 75 -2 2 -14 -28 -27 -67z"/>
<path d="M10296 5634 c-4 -14 -5 -28 -3 -31 3 -2 8 8 11 23 4 14 5 28 3 31 -3
2 -8 -8 -11 -23z"/>
<path d="M10147 5579 c-21 -38 -36 -69 -33 -69 6 0 79 131 74 135 -2 2 -20
-28 -41 -66z"/>
<path d="M10282 5570 c0 -14 2 -19 5 -12 2 6 2 18 0 25 -3 6 -5 1 -5 -13z"/>
<path d="M10271 5524 c0 -11 3 -14 6 -6 3 7 2 16 -1 19 -3 4 -6 -2 -5 -13z"/>
<path d="M10261 5474 c0 -11 3 -14 6 -6 3 7 2 16 -1 19 -3 4 -6 -2 -5 -13z"/>
<path d="M10051 5354 c0 -11 3 -14 6 -6 3 7 2 16 -1 19 -3 4 -6 -2 -5 -13z"/>
<path d="M11261 5304 c0 -11 3 -14 6 -6 3 7 2 16 -1 19 -3 4 -6 -2 -5 -13z"/>
<path d="M10043 5275 c0 -22 2 -30 4 -17 2 12 2 30 0 40 -3 9 -5 -1 -4 -23z"/>
<path d="M10043 5095 c0 -27 2 -38 4 -22 2 15 2 37 0 50 -2 12 -4 0 -4 -28z"/>
<path d="M10051 5014 c0 -11 3 -14 6 -6 3 7 2 16 -1 19 -3 4 -6 -2 -5 -13z"/>
<path d="M10061 4983 c-2 -27 43 -121 94 -197 109 -165 155 -230 155 -220 0
10 -28 53 -122 189 -57 83 -91 143 -113 204 -8 20 -14 31 -14 24z"/>
<path d="M10211 4956 c25 -31 54 -95 69 -149 7 -26 15 -45 18 -43 2 3 -5 37
-17 76 -15 48 -33 82 -54 104 -18 17 -25 23 -16 12z"/>
<path d="M11121 4914 c0 -11 3 -14 6 -6 3 7 2 16 -1 19 -3 4 -6 -2 -5 -13z"/>
<path d="M11131 4874 c0 -11 3 -14 6 -6 3 7 2 16 -1 19 -3 4 -6 -2 -5 -13z"/>
<path d="M10211 4828 c6 -13 29 -52 49 -88 21 -36 54 -108 75 -160 20 -52 51
-122 68 -155 38 -72 130 -167 175 -183 18 -6 30 -7 27 -2 -4 6 -12 10 -20 10
-21 0 -111 86 -150 146 -20 30 -58 108 -84 172 -40 102 -135 282 -147 282 -3
0 1 -10 7 -22z"/>
<path d="M11146 4824 c7 -45 124 -393 123 -369 0 11 -29 106 -64 210 -35 105
-62 176 -59 159z"/>
<path d="M11040 4828 c0 -3 14 -46 32 -95 17 -48 48 -144 70 -213 21 -69 36
-107 32 -85 -9 66 -132 426 -134 393z"/>
<path d="M10996 4680 c4 -14 29 -106 56 -205 26 -99 45 -160 42 -135 -8 56
-82 330 -95 350 -7 11 -8 8 -3 -10z"/>
<path d="M10941 4598 c-1 -4 10 -51 24 -105 14 -54 32 -138 40 -188 12 -73 14
-79 10 -28 -6 75 -29 193 -54 270 -11 32 -19 55 -20 51z"/>
<path d="M10459 4450 c67 -126 134 -181 218 -179 37 1 37 1 -9 9 -83 14 -146
67 -196 165 -11 22 -28 49 -37 60 -9 11 2 -14 24 -55z"/>
<path d="M10841 4495 c1 -19 18 -51 18 -35 0 8 -4 22 -9 30 -5 8 -9 11 -9 5z"/>
<path d="M10550 4396 c47 -51 101 -77 169 -82 l56 -4 -67 14 c-78 17 -96 26
-151 74 l-42 36 35 -38z"/>
<path d="M10788 4353 c6 -2 18 -2 25 0 6 3 1 5 -13 5 -14 0 -19 -2 -12 -5z"/>
<path d="M11102 4270 c0 -14 2 -19 5 -12 2 6 2 18 0 25 -3 6 -5 1 -5 -13z"/>
<path d="M11021 13910 c-1 -25 58 -422 104 -705 35 -208 147 -777 152 -771 2
2 -20 134 -51 293 -73 380 -97 519 -151 878 -49 323 -52 343 -54 305z"/>
<path d="M11501 13564 c0 -11 3 -14 6 -6 3 7 2 16 -1 19 -3 4 -6 -2 -5 -13z"/>
<path d="M11511 13524 c0 -11 3 -14 6 -6 3 7 2 16 -1 19 -3 4 -6 -2 -5 -13z"/>
<path d="M11521 13484 c0 -11 3 -14 6 -6 3 7 2 16 -1 19 -3 4 -6 -2 -5 -13z"/>
<path d="M11591 12590 c0 -8 4 -24 9 -35 5 -13 9 -14 9 -5 0 8 -4 24 -9 35 -5
13 -9 14 -9 5z"/>
<path d="M11282 12400 c0 -14 2 -19 5 -12 2 6 2 18 0 25 -3 6 -5 1 -5 -13z"/>
<path d="M11292 12350 c0 -14 2 -19 5 -12 2 6 2 18 0 25 -3 6 -5 1 -5 -13z"/>
<path d="M11301 12304 c0 -11 3 -14 6 -6 3 7 2 16 -1 19 -3 4 -6 -2 -5 -13z"/>
<path d="M11311 12254 c0 -11 3 -14 6 -6 3 7 2 16 -1 19 -3 4 -6 -2 -5 -13z"/>
<path d="M11796 11337 c3 -10 9 -15 12 -12 3 3 0 11 -7 18 -10 9 -11 8 -5 -6z"/>
<path d="M11462 11250 c0 -14 2 -19 5 -12 2 6 2 18 0 25 -3 6 -5 1 -5 -13z"/>
<path d="M11472 11200 c0 -14 2 -19 5 -12 2 6 2 18 0 25 -3 6 -5 1 -5 -13z"/>
<path d="M11481 11160 c-3 -39 101 -530 169 -801 52 -209 105 -399 178 -644
33 -110 88 -305 122 -433 35 -128 65 -231 67 -228 6 6 -105 425 -173 651 -148
498 -216 771 -343 1380 -11 50 -19 83 -20 75z"/>
<path d="M11794 10495 c44 -182 258 -913 264 -897 1 5 -11 53 -28 108 -17 54
-76 259 -131 454 -56 195 -104 357 -107 360 -2 3 -2 -8 2 -25z"/>
<path d="M11511 10374 c0 -11 3 -14 6 -6 3 7 2 16 -1 19 -3 4 -6 -2 -5 -13z"/>
<path d="M12062 9570 c0 -8 4 -26 8 -40 6 -20 8 -21 8 -5 0 11 -3 29 -8 40 -5
12 -8 14 -8 5z"/>
<path d="M12081 9484 c0 -11 3 -14 6 -6 3 7 2 16 -1 19 -3 4 -6 -2 -5 -13z"/>
<path d="M12021 9030 c0 -8 4 -24 9 -35 5 -13 9 -14 9 -5 0 8 -4 24 -9 35 -5
13 -9 14 -9 5z"/>
<path d="M12041 8954 c0 -11 3 -14 6 -6 3 7 2 16 -1 19 -3 4 -6 -2 -5 -13z"/>
<path d="M11822 8400 c0 -14 2 -19 5 -12 2 6 2 18 0 25 -3 6 -5 1 -5 -13z"/>
<path d="M11836 8325 c12 -114 158 -665 172 -651 2 2 -14 64 -36 138 -48 158
-86 303 -118 453 -13 61 -21 88 -18 60z"/>
<path d="M11811 8107 c-3 -42 61 -310 186 -790 9 -32 18 -56 20 -53 2 2 -21
98 -52 212 -30 115 -75 299 -100 409 -24 110 -46 209 -48 220 -4 16 -5 17 -6
2z"/>
<path d="M12031 7890 c0 -8 4 -24 9 -35 5 -13 9 -14 9 -5 0 8 -4 24 -9 35 -5
13 -9 14 -9 5z"/>
<path d="M12021 7234 c0 -11 3 -14 6 -6 3 7 2 16 -1 19 -3 4 -6 -2 -5 -13z"/>
<path d="M11930 7206 c0 -17 53 -216 57 -213 4 5 -46 209 -53 216 -2 2 -4 1
-4 -3z"/>
<path d="M12031 7194 c0 -11 3 -14 6 -6 3 7 2 16 -1 19 -3 4 -6 -2 -5 -13z"/>
<path d="M12041 7154 c0 -11 3 -14 6 -6 3 7 2 16 -1 19 -3 4 -6 -2 -5 -13z"/>
<path d="M11997 6950 c6 -38 31 -111 32 -95 0 6 -8 37 -19 70 -11 33 -17 44
-13 25z"/>
<path d="M12031 6830 c0 -8 4 -24 9 -35 5 -13 9 -14 9 -5 0 8 -4 24 -9 35 -5
13 -9 14 -9 5z"/>
<path d="M12061 6724 c0 -11 3 -14 6 -6 3 7 2 16 -1 19 -3 4 -6 -2 -5 -13z"/>
<path d="M11392 9485 c0 -16 2 -22 5 -12 2 9 2 23 0 30 -3 6 -5 -1 -5 -18z"/>
<path d="M11223 8400 c0 -25 2 -35 4 -22 2 12 2 32 0 45 -2 12 -4 2 -4 -23z"/>
<path d="M11233 8270 c0 -41 2 -58 4 -37 2 20 2 54 0 75 -2 20 -4 3 -4 -38z"/>
<path d="M11247 7960 c2 -124 13 -409 24 -635 12 -225 24 -547 28 -715 l8
-305 1 212 c1 117 -11 506 -28 865 -39 853 -38 838 -33 578z"/>
<path d="M11393 8105 c0 -38 2 -53 4 -32 2 20 2 52 0 70 -2 17 -4 1 -4 -38z"/>
<path d="M11587 6685 c-9 -294 -23 -519 -42 -690 -8 -71 -17 -155 -20 -185 -4
-50 -3 -48 10 18 35 182 69 706 63 967 -3 114 -4 100 -11 -110z"/>
<path d="M11667 6135 c-10 -148 -27 -353 -38 -455 -27 -267 -31 -336 -9 -175
32 239 77 815 68 875 -2 14 -11 -96 -21 -245z"/>
<path d="M11371 5824 c0 -11 3 -14 6 -6 3 7 2 16 -1 19 -3 4 -6 -2 -5 -13z"/>
<path d="M11363 5725 c0 -33 2 -45 4 -27 2 18 2 45 0 60 -2 15 -4 0 -4 -33z"/>
<path d="M11427 5650 c-4 -47 -10 -114 -13 -150 -4 -36 -4 -63 -1 -60 8 7 30
252 25 276 -2 10 -7 -19 -11 -66z"/>
<path d="M11353 5610 c0 -30 2 -43 4 -27 2 15 2 39 0 55 -2 15 -4 2 -4 -28z"/>
<path d="M11343 5485 c0 -22 2 -30 4 -17 2 12 2 30 0 40 -3 9 -5 -1 -4 -23z"/>
<path d="M11401 5404 c0 -11 3 -14 6 -6 3 7 2 16 -1 19 -3 4 -6 -2 -5 -13z"/>
<path d="M9798 5173 c6 -2 18 -2 25 0 6 3 1 5 -13 5 -14 0 -19 -2 -12 -5z"/>
<path d="M9863 5173 c9 -2 23 -2 30 0 6 3 -1 5 -18 5 -16 0 -22 -2 -12 -5z"/>
<path d="M9404 4870 c-6 -6 -35 -19 -65 -30 -30 -10 -45 -19 -34 -20 21 0 125
45 125 55 0 8 -15 6 -26 -5z"/>
<path d="M9400 4809 c-19 -11 -28 -19 -19 -19 9 0 27 9 40 20 29 23 25 23 -21
-1z"/>
<path d="M9440 4770 c-8 -5 -10 -10 -5 -10 6 0 17 5 25 10 8 5 11 10 5 10 -5
0 -17 -5 -25 -10z"/>
<path d="M9398 4753 c7 -3 16 -2 19 1 4 3 -2 6 -13 5 -11 0 -14 -3 -6 -6z"/>
<path d="M9460 4725 c-19 -7 -28 -13 -20 -13 8 0 31 6 50 13 19 7 28 13 20 13
-8 0 -31 -6 -50 -13z"/>
<path d="M9580 4714 c-31 -8 -37 -13 -20 -13 14 0 39 6 55 14 37 17 24 16 -35
-1z"/>
<path d="M9876 4612 c93 -31 150 -73 214 -159 54 -71 70 -88 46 -48 -71 117
-157 191 -255 219 -89 26 -93 17 -5 -12z"/>
<path d="M10113 4495 c19 -27 57 -89 86 -137 29 -48 56 -90 61 -93 15 -9 -123
214 -153 248 -23 27 -22 24 6 -18z"/>
<path d="M10180 4494 c0 -12 122 -223 170 -294 66 -96 139 -148 222 -156 42
-4 42 -4 -11 11 -119 34 -154 71 -302 318 -44 72 -79 127 -79 121z"/>
<path d="M9653 4159 c-35 -22 -46 -37 -15 -20 22 13 58 40 52 41 -3 0 -20 -10
-37 -21z"/>
<path d="M9581 4069 c-33 -22 -61 -43 -61 -45 0 -6 1 -6 71 42 59 39 65 44 57
44 -3 0 -33 -18 -67 -41z"/>
<path d="M9726 4079 c-48 -20 -199 -120 -212 -141 -8 -13 -2 -9 100 61 43 29
101 64 130 76 62 29 50 31 -18 4z"/>
<path d="M9789 4045 c-61 -22 -122 -56 -186 -103 -35 -25 -63 -48 -63 -50 0
-4 16 6 70 44 40 28 137 80 210 112 35 15 12 13 -31 -3z"/>
<path d="M8855 4095 c30 -55 70 -113 88 -128 38 -33 114 -58 171 -56 35 1 32
3 -19 9 -113 15 -156 46 -216 156 -23 41 -49 84 -60 97 -11 12 6 -23 36 -78z"/>
<path d="M11365 4156 c-16 -8 -39 -22 -50 -31 -13 -11 -8 -10 16 4 20 11 53
25 75 30 27 6 32 9 14 10 -14 0 -38 -6 -55 -13z"/>
<path d="M8178 3273 c12 -2 30 -2 40 0 9 3 -1 5 -23 4 -22 0 -30 -2 -17 -4z"/>
<path d="M8513 3140 c0 -25 2 -35 4 -22 2 12 2 32 0 45 -2 12 -4 2 -4 -23z"/>
<path d="M8505 3016 c5 -48 35 -82 100 -111 28 -12 77 -44 110 -70 l60 -48
-39 41 c-22 23 -75 60 -118 82 -78 41 -94 58 -110 115 -7 26 -7 25 -3 -9z"/>
<path d="M9743 22985 c0 -22 2 -30 4 -17 2 12 2 30 0 40 -3 9 -5 -1 -4 -23z"/>
<path d="M9732 22865 c0 -16 2 -22 5 -12 2 9 2 23 0 30 -3 6 -5 -1 -5 -18z"/>
<path d="M9953 22840 c0 -30 2 -43 4 -27 2 15 2 39 0 55 -2 15 -4 2 -4 -28z"/>
<path d="M8761 22844 c0 -11 3 -14 6 -6 3 7 2 16 -1 19 -3 4 -6 -2 -5 -13z"/>
<path d="M8751 22804 c0 -11 3 -14 6 -6 3 7 2 16 -1 19 -3 4 -6 -2 -5 -13z"/>
<path d="M9886 22725 c7 -105 28 -212 70 -358 73 -255 191 -445 355 -571 56
-43 52 -38 -32 42 -101 96 -193 223 -243 336 -57 129 -115 346 -141 531 l-15
100 6 -80z"/>
<path d="M8714 22667 c-61 -216 -122 -338 -261 -520 -24 -33 -43 -61 -41 -63
5 -4 88 105 148 195 23 35 60 100 80 145 38 81 113 319 108 342 -2 7 -17 -38
-34 -99z"/>
<path d="M9714 22310 c0 -52 1 -74 3 -47 2 26 2 68 0 95 -2 26 -3 4 -3 -48z"/>
<path d="M7938 22336 c-107 -44 -276 -163 -357 -252 -111 -122 -142 -237 -121
-454 49 -490 202 -871 385 -956 62 -29 87 -30 141 -4 48 23 70 54 144 195 131
249 123 229 123 308 0 44 -10 113 -27 177 -41 164 -56 312 -64 615 -8 314 -14
340 -82 377 -45 24 -73 23 -142 -6z m133 -55 c17 -17 30 -41 30 -58 1 -15 3
-140 4 -278 3 -280 19 -424 65 -603 40 -154 40 -211 -4 -293 -18 -35 -59 -112
-90 -170 -59 -113 -110 -169 -152 -169 -120 0 -255 209 -335 519 -48 185 -72
350 -73 501 -1 131 0 137 30 200 37 76 90 140 177 208 104 83 259 170 305 171
8 1 27 -12 43 -28z"/>
<path d="M7973 22092 c-34 -70 -55 -118 -46 -107 18 24 116 225 111 230 -2 2
-31 -53 -65 -123z"/>
<path d="M8041 22060 c-2 -176 38 -540 69 -610 l10 -25 -5 28 c-29 149 -49
304 -60 476 -7 113 -13 172 -14 131z"/>
<path d="M7876 21680 c14 -101 57 -240 104 -337 49 -100 101 -173 123 -173 6
0 -3 15 -20 33 -71 74 -131 205 -179 392 -19 72 -31 110 -28 85z"/>
<path d="M8121 21410 c0 -8 4 -22 9 -30 12 -18 12 -2 0 25 -6 13 -9 15 -9 5z"/>
<path d="M7984 21228 l-19 -23 23 19 c21 18 27 26 19 26 -2 0 -12 -10 -23 -22z"/>
<path d="M8010 21187 c-33 -53 -52 -87 -47 -87 6 0 68 102 65 106 -2 2 -10 -7
-18 -19z"/>
<path d="M8001 21073 c-28 -49 -41 -76 -29 -61 24 29 92 148 85 148 -3 0 -28
-39 -56 -87z"/>
<path d="M8106 21083 c-3 -10 -31 -63 -61 -118 -54 -98 -68 -128 -41 -90 28
41 118 216 113 221 -3 3 -8 -3 -11 -13z"/>
<path d="M8035 21028 c-16 -29 -46 -80 -67 -113 -32 -48 -34 -54 -10 -27 29
33 115 182 109 189 -2 2 -16 -21 -32 -49z"/>
<path d="M8049 20910 c-28 -54 -65 -113 -82 -130 -16 -16 -24 -30 -18 -30 17
0 68 75 117 173 24 48 42 87 40 87 -3 0 -28 -45 -57 -100z"/>
<path d="M7934 20788 l-19 -23 23 19 c21 18 27 26 19 26 -2 0 -12 -10 -23 -22z"/>
<path d="M7835 20780 c10 -11 20 -20 23 -20 3 0 -3 9 -13 20 -10 11 -20 20
-23 20 -3 0 3 -9 13 -20z"/>
<path d="M9726 22152 c6 -80 32 -173 78 -290 48 -121 59 -177 54 -275 -2 -65
-9 -94 -31 -138 -62 -126 -135 -188 -240 -204 -65 -10 -120 -30 -131 -48 -7
-11 -6 -24 3 -41 13 -24 11 -28 -23 -67 -36 -39 -37 -42 -21 -59 17 -19 15
-50 -4 -50 -5 0 -12 -15 -15 -34 -9 -49 -80 -141 -139 -181 -58 -39 -57 -48 1
-11 52 33 110 99 139 160 13 28 29 59 35 68 9 13 9 23 -2 43 -13 24 -11 28 20
60 32 33 34 42 15 87 -8 21 14 31 115 52 89 19 140 46 184 98 51 60 103 168
111 230 8 67 -8 171 -42 262 -64 174 -84 239 -98 317 -13 77 -14 79 -9 21z"/>
<path d="M8402 21900 c0 -14 2 -19 5 -12 2 6 2 18 0 25 -3 6 -5 1 -5 -13z"/>
<path d="M8395 21710 c4 -167 11 -213 55 -347 69 -208 213 -439 331 -532 34
-27 27 -17 -29 43 -125 132 -233 319 -295 511 -42 127 -49 170 -57 335 l-8
155 3 -165z"/>
<path d="M10502 21640 c61 -78 96 -162 112 -272 8 -58 14 -78 15 -53 1 59 -25
172 -55 232 -14 29 -45 74 -70 100 l-45 48 43 -55z"/>
<path d="M11091 21324 c0 -11 3 -14 6 -6 3 7 2 16 -1 19 -3 4 -6 -2 -5 -13z"/>
<path d="M11240 21339 c0 -3 18 -46 41 -94 22 -49 90 -209 150 -357 319 -783
457 -1203 700 -2146 23 -89 44 -161 46 -158 6 5 -133 547 -198 776 -85 296
-178 596 -247 790 -62 178 -308 799 -389 985 -42 95 -102 214 -103 204z"/>
<path d="M11032 21290 c0 -14 2 -19 5 -12 2 6 2 18 0 25 -3 6 -5 1 -5 -13z"/>
<path d="M11105 21280 c38 -186 161 -718 163 -711 4 12 -145 683 -159 713 -9
22 -9 22 -4 -2z"/>
<path d="M11041 21245 c0 -11 4 -49 9 -85 17 -115 39 -394 65 -810 30 -484 57
-828 90 -1160 29 -281 74 -660 81 -675 6 -13 -2 65 -31 325 -51 449 -93 958
-135 1630 -11 179 -27 395 -35 480 -16 155 -42 333 -44 295z"/>
<path d="M11200 21257 c0 -4 57 -157 126 -340 285 -752 424 -1179 574 -1772
66 -257 79 -287 24 -53 -131 560 -288 1053 -566 1778 -133 346 -157 405 -158
387z"/>
<path d="M11445 21048 c220 -456 563 -1407 781 -2165 21 -73 39 -131 42 -129
5 6 -58 232 -135 481 -199 651 -476 1396 -658 1773 -52 105 -96 192 -99 192
-2 0 28 -69 69 -152z"/>
<path d="M10541 21174 c0 -11 3 -14 6 -6 3 7 2 16 -1 19 -3 4 -6 -2 -5 -13z"/>
<path d="M8610 21140 c6 -11 13 -20 16 -20 2 0 0 9 -6 20 -6 11 -13 20 -16 20
-2 0 0 -9 6 -20z"/>
<path d="M10591 21144 c0 -11 3 -14 6 -6 3 7 2 16 -1 19 -3 4 -6 -2 -5 -13z"/>
<path d="M10573 21069 c-21 -88 -86 -209 -153 -282 -132 -144 -326 -235 -543
-256 -66 -7 -72 -9 -31 -10 202 -5 465 118 602 281 66 79 149 259 140 304 -2
9 -9 -8 -15 -37z"/>
<path d="M8643 21084 c23 -45 129 -184 168 -220 48 -44 118 -93 158 -110 54
-23 45 -11 -17 21 -75 40 -187 147 -252 243 -62 89 -79 110 -57 66z"/>
<path d="M10521 21103 c-1 -6 -4 -20 -7 -30 -5 -17 -5 -17 6 0 6 10 9 23 6 30
-3 9 -5 9 -5 0z"/>
<path d="M10496 21035 c-9 -26 -7 -32 5 -12 6 10 9 21 6 23 -2 3 -7 -2 -11
-11z"/>
<path d="M11493 21013 c152 -267 285 -539 439 -898 277 -647 473 -1209 643
-1847 38 -142 70 -256 73 -254 7 8 -138 544 -207 767 -161 516 -278 832 -504
1359 -84 197 -224 499 -266 575 -92 165 -173 305 -177 305 -3 0 -3 -3 -1 -7z"/>
<path d="M10445 20935 c-36 -62 -134 -165 -200 -210 -61 -43 -72 -56 -23 -28
48 26 209 191 236 241 31 56 21 54 -13 -3z"/>
<path d="M8805 20940 c31 -35 133 -105 213 -145 41 -20 75 -35 77 -33 2 2 -38
24 -88 50 -51 26 -121 71 -157 99 -36 29 -56 42 -45 29z"/>
<path d="M8940 20926 c0 -8 109 -80 157 -105 66 -33 65 -24 -2 12 -33 18 -81
47 -107 65 -27 18 -48 31 -48 28z"/>
<path d="M9110 20885 c0 -7 101 -57 106 -53 2 2 -21 16 -51 31 -30 15 -55 25
-55 22z"/>
<path d="M9230 20880 c8 -5 20 -10 25 -10 6 0 3 5 -5 10 -8 5 -19 10 -25 10
-5 0 -3 -5 5 -10z"/>
<path d="M11271 20534 c0 -11 3 -14 6 -6 3 7 2 16 -1 19 -3 4 -6 -2 -5 -13z"/>
<path d="M9598 20533 c6 -2 18 -2 25 0 6 3 1 5 -13 5 -14 0 -19 -2 -12 -5z"/>
<path d="M9673 20523 c15 -2 39 -2 55 0 15 2 2 4 -28 4 -30 0 -43 -2 -27 -4z"/>
<path d="M11281 20494 c0 -11 3 -14 6 -6 3 7 2 16 -1 19 -3 4 -6 -2 -5 -13z"/>
<path d="M11961 18894 c0 -11 3 -14 6 -6 3 7 2 16 -1 19 -3 4 -6 -2 -5 -13z"/>
<path d="M12276 18710 c4 -19 11 -44 15 -55 6 -14 7 -9 3 15 -4 19 -11 44 -15
55 -6 14 -7 9 -3 -15z"/>
<path d="M11911 18604 c0 -11 3 -14 6 -6 3 7 2 16 -1 19 -3 4 -6 -2 -5 -13z"/>
<path d="M11922 18560 c0 -14 2 -19 5 -12 2 6 2 18 0 25 -3 6 -5 1 -5 -13z"/>
<path d="M12181 18554 c0 -11 3 -14 6 -6 3 7 2 16 -1 19 -3 4 -6 -2 -5 -13z"/>
<path d="M11930 18524 c0 -22 43 -224 47 -220 5 4 -36 218 -43 225 -2 2 -4 0
-4 -5z"/>
<path d="M12191 18514 c0 -11 3 -14 6 -6 3 7 2 16 -1 19 -3 4 -6 -2 -5 -13z"/>
<path d="M11292 18470 c0 -19 2 -27 5 -17 2 9 2 25 0 35 -3 9 -5 1 -5 -18z"/>
<path d="M12201 18474 c0 -11 3 -14 6 -6 3 7 2 16 -1 19 -3 4 -6 -2 -5 -13z"/>
<path d="M11302 18395 c0 -16 2 -22 5 -12 2 9 2 23 0 30 -3 6 -5 -1 -5 -18z"/>
<path d="M12221 18384 c0 -11 3 -14 6 -6 3 7 2 16 -1 19 -3 4 -6 -2 -5 -13z"/>
<path d="M12261 18374 c0 -11 3 -14 6 -6 3 7 2 16 -1 19 -3 4 -6 -2 -5 -13z"/>
<path d="M12271 18334 c0 -11 3 -14 6 -6 3 7 2 16 -1 19 -3 4 -6 -2 -5 -13z"/>
<path d="M11311 18314 c0 -11 3 -14 6 -6 3 7 2 16 -1 19 -3 4 -6 -2 -5 -13z"/>
<path d="M12280 18304 c0 -5 45 -234 100 -509 109 -543 151 -778 204 -1155 36
-248 95 -750 97 -825 1 -26 3 -32 6 -16 8 43 -49 570 -102 931 -46 319 -103
630 -200 1105 -86 418 -105 503 -105 469z"/>
<path d="M11981 18282 c-1 -7 12 -84 28 -170 91 -485 139 -870 287 -2307 25
-246 31 -289 33 -244 2 53 -141 1412 -185 1749 -47 361 -159 1028 -163 972z"/>
<path d="M12861 16974 c0 -11 3 -14 6 -6 3 7 2 16 -1 19 -3 4 -6 -2 -5 -13z"/>
<path d="M12872 16930 c0 -14 2 -19 5 -12 2 6 2 18 0 25 -3 6 -5 1 -5 -13z"/>
<path d="M12882 16880 c0 -14 2 -19 5 -12 2 6 2 18 0 25 -3 6 -5 1 -5 -13z"/>
<path d="M12892 16825 c0 -16 2 -22 5 -12 2 9 2 23 0 30 -3 6 -5 -1 -5 -18z"/>
<path d="M12901 16779 c0 -8 4 -40 9 -70 11 -58 84 -630 125 -974 70 -590 94
-1268 60 -1645 -55 -596 -202 -1305 -379 -1829 -33 -97 -38 -128 -17 -105 15
15 108 310 150 474 229 888 311 1560 271 2220 -26 425 -66 872 -99 1106 -6 38
-29 213 -51 389 -38 295 -66 473 -69 434z"/>
<path d="M11322 15850 c0 -14 2 -19 5 -12 2 6 2 18 0 25 -3 6 -5 1 -5 -13z"/>
<path d="M11792 15840 c0 -19 2 -27 5 -17 2 9 2 25 0 35 -3 9 -5 1 -5 -18z"/>
<path d="M11332 15800 c0 -14 4 -38 8 -55 7 -27 8 -27 8 -5 0 14 -4 39 -8 55
-7 27 -8 27 -8 5z"/>
<path d="M11806 15650 c6 -171 38 -594 65 -860 58 -586 233 -1803 299 -2090
37 -158 63 -300 57 -307 -5 -4 -82 223 -191 564 -120 372 -328 1425 -418 2113
-18 140 -34 246 -36 234 -5 -32 63 -545 103 -786 106 -631 239 -1260 329
-1548 63 -204 195 -583 207 -595 5 -5 9 -19 9 -31 0 -13 5 -26 11 -29 7 -5 9
4 5 27 -3 18 -8 60 -11 93 -4 33 -22 131 -41 217 -120 558 -290 1829 -354
2653 -11 149 -25 317 -30 375 l-9 105 5 -135z"/>
<path d="M12693 15720 c0 -30 2 -43 4 -27 2 15 2 39 0 55 -2 15 -4 2 -4 -28z"/>
<path d="M11352 15690 c0 -14 2 -19 5 -12 2 6 2 18 0 25 -3 6 -5 1 -5 -13z"/>
<path d="M11362 15640 c0 -14 2 -19 5 -12 2 6 2 18 0 25 -3 6 -5 1 -5 -13z"/>
<path d="M12703 15600 c0 -25 2 -35 4 -22 2 12 2 32 0 45 -2 12 -4 2 -4 -23z"/>
<path d="M11372 15590 c0 -14 2 -19 5 -12 2 6 2 18 0 25 -3 6 -5 1 -5 -13z"/>
<path d="M11382 15540 c0 -14 2 -19 5 -12 2 6 2 18 0 25 -3 6 -5 1 -5 -13z"/>
<path d="M12333 15485 c0 -22 2 -30 4 -17 2 12 2 30 0 40 -3 9 -5 -1 -4 -23z"/>
<path d="M11392 15490 c0 -14 2 -19 5 -12 2 6 2 18 0 25 -3 6 -5 1 -5 -13z"/>
<path d="M11401 15444 c0 -11 3 -14 6 -6 3 7 2 16 -1 19 -3 4 -6 -2 -5 -13z"/>
<path d="M11572 15360 c0 -19 2 -27 5 -17 2 9 2 25 0 35 -3 9 -5 1 -5 -18z"/>
<path d="M13213 15235 c0 -33 2 -45 4 -27 2 18 2 45 0 60 -2 15 -4 0 -4 -33z"/>
<path d="M12897 14925 c-11 -368 -39 -677 -128 -1395 -63 -508 -161 -1137
-225 -1445 -4 -16 -3 -27 0 -24 24 23 171 904 230 1379 103 828 142 1299 134
1610 -2 101 -4 78 -11 -125z"/>
<path d="M13218 14685 c-8 -623 -21 -757 -129 -1370 -73 -413 -122 -627 -184
-805 -56 -163 -62 -185 -42 -151 11 18 16 21 19 10 3 -8 4 -7 3 3 -2 10 19 84
45 165 112 347 261 1188 289 1633 16 253 21 574 13 795 -7 185 -8 163 -14
-280z"/>
<path d="M12574 14325 c0 -82 2 -115 3 -72 2 43 2 110 0 150 -1 40 -3 5 -3
-78z"/>
<path d="M11562 14440 c0 -14 2 -19 5 -12 2 6 2 18 0 25 -3 6 -5 1 -5 -13z"/>
<path d="M11571 14400 c0 -8 6 -37 13 -65 8 -27 15 -43 15 -35 0 8 -6 38 -13
65 -8 28 -15 43 -15 35z"/>
<path d="M11601 14271 c-1 -19 116 -476 173 -671 173 -601 230 -783 290 -927
43 -101 102 -400 141 -703 12 -96 13 -101 9 -35 -11 178 -86 606 -124 710
-134 362 -289 881 -474 1585 -8 30 -15 49 -15 41z"/>
<path d="M12557 13860 c-6 -165 -35 -675 -77 -1365 -5 -88 -9 -189 -9 -225 2
-72 27 289 58 835 30 521 43 811 39 885 -2 36 -7 -23 -11 -130z"/>
<path d="M12396 13333 c-3 -362 -8 -743 -10 -848 -3 -161 -2 -172 4 -70 9 140
25 1575 18 1575 -3 0 -8 -296 -12 -657z"/>
<path d="M12883 13665 c0 -22 2 -30 4 -17 2 12 2 30 0 40 -3 9 -5 -1 -4 -23z"/>
<path d="M12253 13590 c0 -25 2 -35 4 -22 2 12 2 32 0 45 -2 12 -4 2 -4 -23z"/>
<path d="M12873 13570 c0 -25 2 -35 4 -22 2 12 2 32 0 45 -2 12 -4 2 -4 -23z"/>
<path d="M12261 13475 c0 -33 6 -163 14 -290 8 -126 19 -363 25 -525 11 -333
17 -423 31 -454 7 -17 8 -14 4 14 -2 19 -9 159 -15 310 -9 270 -48 961 -54
990 -2 8 -4 -12 -5 -45z"/>
<path d="M12852 13415 c-22 -193 -101 -724 -132 -900 -17 -93 -44 -210 -61
-259 -30 -90 -34 -129 -6 -59 41 104 79 288 137 663 39 257 82 606 78 639 -2
14 -9 -23 -16 -84z"/>
<path d="M13140 13274 c0 -5 -18 -105 -40 -221 -45 -238 -92 -429 -144 -582
-20 -58 -34 -106 -32 -108 9 -9 89 240 125 389 43 175 106 517 97 526 -3 3 -6
1 -6 -4z"/>
<path d="M12241 12464 c0 -11 3 -14 6 -6 3 7 2 16 -1 19 -3 4 -6 -2 -5 -13z"/>
<path d="M12251 12418 c-1 -27 20 -122 30 -132 11 -12 12 -15 -11 74 -10 41
-19 67 -19 58z"/>
<path d="M12857 12185 c-10 -82 -38 -292 -62 -465 -24 -173 -55 -418 -69 -545
-71 -638 -263 -2780 -254 -2838 2 -12 7 21 11 73 21 257 145 1622 208 2270 43
449 59 587 119 1045 53 405 72 571 68 592 -2 10 -11 -49 -21 -132z"/>
<path d="M12297 11575 c-4 -374 -9 -756 -11 -850 -4 -154 -3 -148 9 70 18 323
28 1069 18 1285 -7 146 -10 62 -16 -505z"/>
<path d="M12392 12120 c0 -19 2 -27 5 -17 2 9 2 25 0 35 -3 9 -5 1 -5 -18z"/>
<path d="M12721 12109 c-2 -96 -32 -444 -62 -717 -17 -155 -29 -287 -27 -294
4 -12 27 178 58 472 23 226 44 540 37 566 -2 10 -5 -2 -6 -27z"/>
<path d="M12462 11945 c-3 -222 -30 -960 -43 -1188 -6 -109 -9 -200 -7 -203
17 -17 63 1143 56 1406 l-4 135 -2 -150z"/>
<path d="M12613 11985 c0 -33 2 -45 4 -27 2 18 2 45 0 60 -2 15 -4 0 -4 -33z"/>
<path d="M12597 11740 c-4 -96 -12 -245 -17 -330 -5 -85 -11 -216 -14 -290 -4
-122 -4 -126 4 -40 15 168 42 703 38 770 -2 38 -6 -8 -11 -110z"/>
<path d="M12223 11805 c0 -27 2 -38 4 -22 2 15 2 37 0 50 -2 12 -4 0 -4 -28z"/>
<path d="M12233 11710 c0 -25 2 -35 4 -22 2 12 2 32 0 45 -2 12 -4 2 -4 -23z"/>
<path d="M12242 11590 c0 -19 2 -27 5 -17 2 9 2 25 0 35 -3 9 -5 1 -5 -18z"/>
<path d="M12622 11045 c0 -16 2 -22 5 -12 2 9 2 23 0 30 -3 6 -5 -1 -5 -18z"/>
<path d="M12545 10845 c-4 -75 -5 -138 -2 -141 2 -3 8 56 12 131 4 75 5 138 2
141 -2 3 -8 -56 -12 -131z"/>
<path d="M12533 10635 c0 -33 2 -45 4 -27 2 18 2 45 0 60 -2 15 -4 0 -4 -33z"/>
<path d="M12273 10470 c0 -47 2 -66 4 -42 2 23 2 61 0 85 -2 23 -4 4 -4 -43z"/>
<path d="M12523 10500 c0 -25 2 -35 4 -22 2 12 2 32 0 45 -2 12 -4 2 -4 -23z"/>
<path d="M12402 10500 c0 -19 2 -27 5 -17 2 9 2 25 0 35 -3 9 -5 1 -5 -18z"/>
<path d="M12512 10390 c0 -19 2 -27 5 -17 2 9 2 25 0 35 -3 9 -5 1 -5 -18z"/>
<path d="M12392 8615 c0 -16 2 -22 5 -12 2 9 2 23 0 30 -3 6 -5 -1 -5 -18z"/>
<path d="M12380 8505 c0 -22 -8 -139 -16 -260 -21 -299 -30 -1282 -15 -1627
15 -342 27 -529 51 -768 31 -305 33 -326 37 -313 2 6 -5 107 -16 225 -73 761
-90 1670 -46 2466 9 162 14 299 11 305 -2 7 -5 -6 -6 -28z"/>
<path d="M12221 6590 c-4 -124 37 -564 109 -1150 100 -815 153 -1341 174
-1725 10 -178 14 -213 14 -135 4 302 -56 926 -197 2055 -41 326 -63 538 -85
820 -7 94 -14 154 -15 135z"/>
<path d="M12442 5195 c0 -16 2 -22 5 -12 2 9 2 23 0 30 -3 6 -5 -1 -5 -18z"/>
<path d="M12451 5144 c0 -12 42 -309 94 -660 52 -352 101 -702 109 -779 9 -77
17 -156 20 -175 2 -19 2 10 0 65 -5 128 -17 222 -114 875 -89 594 -107 705
-109 674z"/>
<path d="M12541 5144 c0 -11 3 -14 6 -6 3 7 2 16 -1 19 -3 4 -6 -2 -5 -13z"/>
<path d="M12556 5050 c14 -157 134 -815 220 -1210 25 -113 54 -249 64 -303 17
-85 60 -207 73 -207 3 0 -6 26 -19 58 -13 32 -39 134 -58 227 -103 492 -183
903 -231 1185 -30 173 -52 286 -49 250z"/>
<path d="M11800 3756 c81 -87 264 -191 370 -210 19 -4 -4 8 -51 27 -116 45
-227 110 -302 176 l-62 55 45 -48z"/>
<path d="M11693 3750 c25 -38 102 -99 186 -147 107 -61 112 -54 7 9 -48 29
-115 77 -149 108 -33 30 -53 44 -44 30z"/>
<path d="M11680 3685 c30 -30 57 -55 59 -55 3 0 -19 25 -49 55 -30 30 -57 55
-59 55 -3 0 19 -25 49 -55z"/>
<path d="M11620 3696 c0 -2 8 -10 18 -17 15 -13 16 -12 3 4 -13 16 -21 21 -21
13z"/>
<path d="M12752 3565 c-1 -16 -5 -41 -8 -55 -5 -22 -4 -23 6 -7 6 9 9 34 7 55
-3 32 -4 33 -5 7z"/>
<path d="M7267 3423 c-70 -31 -126 -57 -124 -59 4 -4 256 101 265 111 13 13
-21 0 -141 -52z"/>
<path d="M7061 3380 c-107 -41 -431 -194 -431 -204 0 -7 58 19 234 104 71 35
175 80 230 101 56 21 94 38 86 38 -8 0 -62 -18 -119 -39z"/>
<path d="M12803 3110 c0 -30 2 -43 4 -27 2 15 2 39 0 55 -2 15 -4 2 -4 -28z"/>
<path d="M7485 3073 c-73 -16 -153 -51 -407 -176 -158 -77 -286 -142 -284
-144 2 -2 106 47 232 110 261 129 361 173 454 198 57 15 60 25 5 12z"/>
<path d="M9525 2983 c-152 -91 -752 -434 -912 -522 -73 -40 -133 -75 -133 -78
0 -19 1046 575 1145 651 39 30 9 14 -100 -51z"/>
<path d="M9812 2870 c-438 -272 -609 -399 -827 -614 -126 -125 -129 -128 -25
-31 232 217 428 363 800 597 271 171 330 209 330 214 0 7 0 7 -278 -166z"/>
<path d="M12776 2978 c-13 -65 -19 -225 -10 -303 8 -73 9 -63 14 125 3 113 5
206 4 208 -1 1 -4 -12 -8 -30z"/>
<path d="M8085 2675 c-32 -20 -83 -57 -113 -83 -29 -26 -74 -62 -100 -80 -62
-44 -67 -51 -15 -21 23 13 76 53 117 89 42 36 102 80 133 97 32 18 53 33 47
33 -5 0 -37 -16 -69 -35z"/>
<path d="M7661 2680 c-136 -36 -560 -195 -548 -206 2 -2 76 25 164 61 198 78
365 133 458 150 46 9 58 13 35 14 -19 0 -68 -9 -109 -19z"/>
<path d="M8739 2635 c-81 -35 -184 -77 -230 -94 -96 -34 -95 -42 2 -10 78 26
196 74 309 128 129 60 83 47 -81 -24z"/>
<path d="M12952 2660 c0 -19 2 -27 5 -17 2 9 2 25 0 35 -3 9 -5 1 -5 -18z"/>
<path d="M7865 2670 c-3 -6 1 -7 9 -4 18 7 21 14 7 14 -6 0 -13 -4 -16 -10z"/>
<path d="M7815 2645 c-17 -7 -87 -23 -155 -35 -120 -21 -287 -67 -278 -76 3
-2 31 5 64 16 32 12 131 34 218 50 95 18 166 36 175 45 18 18 16 18 -24 0z"/>
<path d="M12936 2574 c-3 -26 -4 -49 -2 -52 3 -2 8 17 11 43 4 25 5 48 3 51
-3 2 -8 -17 -12 -42z"/>
<path d="M12761 2564 c0 -11 3 -14 6 -6 3 7 2 16 -1 19 -3 4 -6 -2 -5 -13z"/>
<path d="M8915 2504 c-136 -82 -295 -185 -295 -191 0 -5 -7 -9 155 92 72 44
158 98 193 119 53 32 71 46 60 46 -2 0 -52 -30 -113 -66z"/>
<path d="M12745 2518 c-16 -53 -55 -86 -173 -147 -76 -39 -132 -76 -158 -103
l-39 -42 50 43 c28 24 92 63 143 88 51 24 108 57 126 74 33 28 73 96 63 106
-3 2 -8 -6 -12 -19z"/>
<path d="M12921 2494 c0 -11 3 -14 6 -6 3 7 2 16 -1 19 -3 4 -6 -2 -5 -13z"/>
<path d="M10368 2493 c7 -3 16 -2 19 1 4 3 -2 6 -13 5 -11 0 -14 -3 -6 -6z"/>
<path d="M7050 2450 c-8 -5 -10 -10 -5 -10 6 0 17 5 25 10 8 5 11 10 5 10 -5
0 -17 -5 -25 -10z"/>
<path d="M12753 2293 c-109 -168 -196 -277 -266 -334 -71 -58 -76 -63 -47 -49
58 29 192 183 294 338 114 174 119 182 113 182 -3 0 -45 -62 -94 -137z"/>
<path d="M12857 2335 c-48 -83 -173 -248 -229 -302 -23 -22 -61 -53 -82 -67
-46 -31 -36 -35 13 -5 50 30 129 113 200 208 64 87 146 220 139 226 -2 3 -21
-25 -41 -60z"/>
<path d="M10837 2353 c18 -2 50 -2 70 0 21 2 7 4 -32 4 -38 0 -55 -2 -38 -4z"/>
<path d="M10970 2344 c14 -2 59 -9 100 -15 142 -21 350 -99 493 -186 34 -20
90 -64 125 -96 85 -79 133 -99 247 -103 l90 -3 -87 9 c-110 11 -164 35 -244
109 -148 139 -465 272 -678 286 -39 2 -60 2 -46 -1z"/>
<path d="M11378 2323 c7 -3 16 -2 19 1 4 3 -2 6 -13 5 -11 0 -14 -3 -6 -6z"/>
<path d="M11475 2292 c39 -15 88 -40 110 -53 69 -44 72 -45 57 -27 -16 20
-168 96 -207 103 -16 3 2 -7 40 -23z"/>
<path d="M9074 2155 c-11 -35 -16 -61 -12 -59 9 6 42 114 36 119 -2 2 -13 -25
-24 -60z"/>
<path d="M7835 2059 c-80 -15 -306 -71 -302 -76 3 -2 49 7 103 21 189 48 271
59 399 54 89 -4 133 -10 170 -25 79 -32 93 -36 53 -14 -64 36 -144 51 -263 50
-60 -1 -132 -5 -160 -10z"/>
<path d="M7498 1973 c7 -3 16 -2 19 1 4 3 -2 6 -13 5 -11 0 -14 -3 -6 -6z"/>
<path d="M5535 1926 c-77 -25 -177 -67 -173 -72 2 -2 64 19 138 46 138 50 161
68 35 26z"/>
<path d="M6308 1843 c7 -3 16 -2 19 1 4 3 -2 6 -13 5 -11 0 -14 -3 -6 -6z"/>
<path d="M6253 1833 c9 -2 23 -2 30 0 6 3 -1 5 -18 5 -16 0 -22 -2 -12 -5z"/>
<path d="M6175 1820 c-25 -11 1 -11 35 0 20 6 21 8 5 8 -11 0 -29 -3 -40 -8z"/>
<path d="M6690 1664 c-25 -14 -83 -63 -130 -109 -47 -45 -103 -93 -125 -104
-24 -13 -30 -19 -15 -15 45 11 87 43 144 108 31 35 76 77 100 93 24 15 52 33
62 40 34 22 10 13 -36 -13z"/>
<path d="M6159 1632 c5 -34 6 -35 9 -8 2 16 0 32 -5 37 -5 5 -7 -7 -4 -29z"/>
<path d="M6145 1561 c-10 -46 17 -96 64 -120 22 -12 48 -21 58 -20 10 0 -2 8
-26 17 -57 22 -86 61 -85 112 2 47 -2 51 -11 11z"/>
</g>
</svg>
