<?xml version="1.0" standalone="no"?>
<!DOCTYPE svg PUBLIC "-//W3C//DTD SVG 20010904//EN"
 "http://www.w3.org/TR/2001/REC-SVG-20010904/DTD/svg10.dtd">
<svg version="1.0" xmlns="http://www.w3.org/2000/svg"
 width="1650.000000pt" height="2210.000000pt" viewBox="0 0 1650.000000 2210.000000"
 preserveAspectRatio="xMidYMid meet">

<g transform="translate(0.000000,2210.000000) scale(0.100000,-0.100000)"
fill="#000000" stroke="none">
<path d="M1144 22073 c-13 -51 14 -255 115 -863 216 -1307 252 -1439 513
-1879 184 -310 320 -497 423 -582 68 -57 108 -75 205 -95 172 -34 318 9 452
134 26 25 48 42 48 38 0 -3 30 -142 66 -309 299 -1378 437 -2260 499 -3177 8
-124 22 -346 30 -495 29 -500 55 -909 70 -1085 33 -400 51 -1196 36 -1585 -19
-504 -54 -724 -157 -1004 -62 -168 -182 -361 -314 -505 -97 -105 -349 -298
-670 -512 -252 -169 -533 -326 -995 -556 -432 -216 -717 -374 -1036 -576 -290
-183 -268 -180 70 10 310 175 641 345 1128 579 424 204 731 386 1143 678 292
206 431 338 562 529 114 168 207 386 253 595 9 43 18 77 20 75 11 -14 -48
-724 -86 -1031 -17 -136 -29 -253 -27 -259 6 -16 65 340 83 492 55 478 99
1398 94 1962 -2 218 -3 396 -2 395 9 -10 44 -298 53 -437 20 -316 85 -917 140
-1295 10 -71 26 -186 35 -255 9 -69 36 -255 60 -415 54 -352 147 -1068 175
-1335 54 -530 70 -819 70 -1264 0 -481 -13 -678 -71 -1101 -53 -386 -106 -627
-213 -965 -70 -220 -92 -280 -104 -280 -15 0 -276 97 -417 155 -136 56 -482
211 -835 375 -347 161 -748 324 -985 398 -338 107 -621 165 -1100 227 -66 8
-131 17 -145 20 -20 4 -19 2 7 -10 18 -8 144 -35 280 -60 798 -147 1124 -256
2018 -675 546 -256 645 -299 890 -395 287 -112 526 -186 990 -305 127 -32 322
-84 435 -115 398 -108 702 -169 1125 -225 411 -55 576 -99 731 -196 86 -53
182 -153 218 -226 30 -61 56 -171 56 -239 0 -26 -7 -84 -16 -130 -51 -272
-200 -445 -507 -589 -272 -127 -315 -143 -374 -137 -103 11 -213 77 -418 252
-207 177 -414 312 -690 450 -241 122 -425 193 -900 350 -495 163 -621 209
-851 309 -150 65 -539 250 -863 411 -477 236 -783 357 -1064 419 -64 15 -217
42 -340 61 -330 52 -496 82 -657 120 -80 18 -146 32 -148 30 -7 -6 191 -66
333 -100 77 -19 239 -52 360 -75 648 -120 815 -179 1645 -587 212 -104 442
-216 511 -249 l126 -59 7 -61 c8 -78 57 -278 92 -374 68 -190 193 -416 334
-605 100 -134 337 -375 485 -494 215 -173 418 -303 853 -549 192 -109 693
-312 1151 -467 l213 -72 31 -56 c34 -64 87 -122 269 -290 156 -144 204 -208
313 -412 50 -93 108 -187 140 -224 69 -82 88 -137 83 -239 -4 -87 -34 -164
-108 -272 -70 -103 -74 -125 -67 -348 6 -177 10 -214 21 -201 2 2 9 85 16 184
6 99 18 197 25 218 7 21 45 91 84 155 89 147 112 232 93 343 -15 86 -29 114
-102 205 -32 40 -86 127 -120 195 -107 211 -179 308 -325 440 -141 126 -236
223 -260 264 -37 62 -46 120 -36 240 16 205 -18 381 -115 598 -71 158 -86 205
-86 277 -1 74 19 131 54 154 12 8 78 38 145 65 253 104 419 205 521 316 75 83
154 233 180 343 20 88 30 96 127 96 129 0 213 -39 370 -169 104 -86 212 -144
340 -181 72 -21 120 -27 241 -31 174 -7 277 5 406 47 114 36 194 82 303 174
142 120 276 175 385 160 71 -10 84 -23 99 -98 7 -37 36 -112 66 -173 103 -210
263 -331 638 -486 138 -57 155 -69 179 -125 35 -77 23 -160 -45 -313 -73 -164
-123 -314 -137 -414 -7 -51 -8 -138 -4 -237 l7 -158 -32 -65 c-26 -53 -54 -84
-154 -177 -267 -246 -328 -322 -446 -553 -33 -66 -86 -151 -117 -190 -86 -106
-99 -140 -99 -265 0 -121 12 -155 111 -312 71 -111 80 -143 88 -303 4 -72 10
-157 13 -190 l7 -60 7 50 c4 28 10 113 14 190 10 185 1 226 -75 346 -77 120
-102 185 -104 274 -1 92 20 146 93 236 32 39 89 130 126 202 38 73 86 159 108
192 22 34 133 152 252 270 169 167 218 221 236 262 21 47 27 53 68 63 104 26
621 215 871 318 267 111 404 177 615 301 498 292 691 435 956 709 326 335 521
675 612 1067 14 61 28 133 32 161 l6 50 197 94 c108 51 326 158 483 236 315
157 507 245 728 334 232 93 380 133 756 205 280 53 393 77 530 111 105 26 288
84 283 89 -2 2 -48 -7 -103 -21 -164 -39 -342 -72 -666 -124 -349 -56 -477
-83 -639 -135 -183 -60 -503 -201 -950 -420 -745 -365 -934 -445 -1415 -599
-578 -186 -807 -274 -1089 -419 -272 -140 -456 -262 -671 -446 -185 -159 -331
-241 -427 -241 -40 0 -336 127 -462 199 -118 66 -237 174 -294 264 -120 190
-147 470 -62 637 32 62 108 148 173 194 168 119 334 168 742 221 425 55 716
111 1085 211 135 36 355 94 490 129 527 136 749 205 1045 323 223 89 279 114
831 373 911 426 1267 544 2070 688 159 29 311 67 302 77 -2 2 -20 -1 -39 -6
-19 -6 -122 -22 -229 -35 -239 -31 -371 -54 -605 -106 -455 -101 -844 -248
-1665 -629 -244 -114 -445 -204 -570 -255 -142 -59 -400 -155 -414 -155 -15 0
-51 99 -125 340 -88 284 -138 518 -190 876 -96 661 -106 1233 -36 2069 41 489
67 698 235 1885 124 872 175 1303 215 1825 9 110 21 234 28 275 11 65 13 13
14 -405 1 -462 5 -589 48 -1300 16 -261 39 -541 55 -660 17 -122 73 -445 77
-441 3 2 -3 55 -11 118 -40 298 -73 665 -100 1123 l-5 80 34 -125 c128 -479
333 -744 865 -1116 422 -295 570 -380 1351 -767 294 -146 642 -326 774 -399
132 -74 267 -149 300 -168 124 -69 4 16 -222 159 -299 187 -533 315 -1048 574
-503 254 -672 350 -1010 581 -379 258 -542 397 -673 572 -183 243 -295 547
-336 914 -51 447 -42 1529 18 2255 8 99 22 304 31 455 68 1183 95 1483 196
2200 57 408 205 1187 360 1896 32 150 59 282 59 294 0 17 11 11 67 -36 125
-107 260 -147 416 -126 124 18 187 53 293 165 176 184 490 708 583 971 79 223
135 499 287 1415 82 494 107 666 111 769 6 130 5 132 -15 132 -26 0 -29 -11
-37 -135 -6 -102 -53 -416 -89 -604 -14 -69 -39 -214 -56 -321 -56 -358 -88
-513 -120 -589 -48 -113 -121 -227 -216 -341 -129 -154 -193 -239 -215 -285
-11 -22 -14 -32 -7 -21 44 63 119 159 197 250 97 113 173 220 215 304 15 30
29 52 32 49 7 -7 -53 -293 -91 -432 -64 -233 -141 -398 -338 -720 -263 -429
-373 -535 -578 -552 -182 -15 -374 105 -463 290 l-36 74 35 129 c20 71 49 183
66 249 17 66 52 201 79 300 27 99 79 295 115 435 37 140 87 331 111 423 25 92
44 173 42 178 -2 6 -25 -65 -52 -158 -56 -194 -146 -498 -216 -728 -92 -303
-198 -671 -310 -1070 -61 -220 -132 -470 -157 -555 -25 -85 -58 -202 -75 -260
-108 -388 -238 -760 -325 -935 -152 -302 -297 -455 -753 -790 -74 -55 -229
-172 -345 -260 -290 -223 -291 -222 -25 16 117 105 329 341 498 554 70 88 150
180 177 205 87 78 165 163 217 235 121 169 137 236 148 610 10 358 12 367 185
1100 36 154 84 361 105 460 131 592 208 859 350 1210 44 110 83 207 86 215 14
40 -54 -97 -106 -214 -120 -271 -202 -522 -289 -882 -22 -93 -82 -338 -132
-544 -223 -925 -228 -948 -239 -1300 -6 -164 -15 -290 -24 -331 -33 -149 -107
-278 -236 -409 -201 -204 -379 -282 -573 -252 -42 6 -142 34 -223 62 -182 61
-264 84 -586 160 -297 71 -470 121 -651 191 -175 67 -395 159 -515 215 -512
239 -727 311 -1087 363 -186 27 -522 44 -720 36 -560 -22 -864 -94 -1365 -322
-627 -287 -886 -381 -1320 -479 -271 -62 -399 -97 -586 -159 -206 -70 -279
-83 -382 -68 -95 14 -153 39 -257 108 -144 96 -279 249 -346 391 -60 125 -69
180 -79 459 -15 395 -22 433 -239 1318 -48 199 -107 439 -129 532 -65 269
-145 536 -215 715 -70 179 -172 409 -189 425 -5 6 -2 -8 7 -30 179 -415 279
-735 400 -1276 24 -109 64 -282 89 -386 208 -873 226 -969 226 -1209 1 -189
15 -378 36 -463 34 -138 122 -272 293 -441 64 -64 173 -188 242 -275 183 -233
368 -434 515 -564 230 -203 213 -193 -238 148 -516 391 -613 472 -717 601
-181 224 -275 426 -429 920 -74 234 -180 595 -238 810 -19 69 -54 195 -79 280
-24 85 -69 245 -100 355 -91 322 -194 672 -230 785 -33 102 -140 462 -227 762
-23 81 -44 146 -46 144 -4 -5 242 -952 399 -1534 27 -101 49 -190 49 -199 0
-9 -16 -48 -35 -88 -40 -84 -135 -186 -211 -227 -170 -92 -365 -71 -501 55
-149 137 -485 678 -597 959 -47 119 -156 558 -156 628 0 8 20 -21 43 -64 50
-92 132 -202 248 -336 45 -52 99 -122 121 -154 48 -74 56 -83 30 -31 -26 52
-88 136 -196 265 -111 132 -152 192 -210 308 -59 117 -65 142 -126 512 -27
168 -66 391 -85 495 -43 234 -81 490 -90 613 -7 80 -10 92 -26 92 -12 0 -21
-10 -25 -27z m1857 -3161 c0 -31 3 -41 8 -28 5 12 43 -113 114 -370 177 -642
305 -1067 383 -1269 56 -145 76 -205 148 -445 31 -102 81 -264 111 -360 162
-512 281 -920 384 -1320 56 -218 105 -427 277 -1170 150 -647 353 -1387 488
-1775 55 -159 41 -97 -23 105 -171 536 -303 1028 -471 1760 -275 1199 -371
1559 -655 2450 -112 352 -155 491 -155 505 0 6 20 -25 44 -67 47 -81 108 -165
189 -259 52 -61 59 -80 167 -444 26 -88 100 -337 164 -553 64 -217 130 -435
145 -485 16 -51 59 -191 96 -312 37 -121 86 -283 110 -360 24 -77 73 -237 108
-355 170 -566 174 -580 353 -1250 52 -195 115 -427 139 -515 24 -88 69 -254
100 -370 31 -115 96 -352 145 -525 145 -513 225 -804 330 -1185 104 -378 162
-588 235 -845 192 -677 197 -696 199 -803 2 -87 7 -116 36 -197 31 -89 34
-107 40 -265 8 -187 18 -230 87 -347 26 -45 36 -75 43 -138 5 -43 14 -99 20
-122 15 -57 96 -211 147 -279 22 -30 44 -65 48 -79 4 -14 24 -59 45 -100 35
-70 85 -223 271 -815 87 -281 171 -511 274 -755 85 -199 321 -676 424 -855
124 -215 308 -482 434 -628 57 -66 51 -70 -58 -36 -114 35 -253 119 -365 221
-57 52 -127 84 -224 105 -66 14 -159 13 -198 -2 -13 -5 -16 9 -20 92 -6 112
-32 198 -83 278 -18 29 -57 107 -86 174 -29 66 -54 119 -56 117 -2 -2 16 -49
41 -105 33 -73 40 -99 28 -92 -30 16 -49 44 -107 161 -105 209 -272 513 -490
890 -151 261 -256 447 -324 572 -23 43 -44 78 -47 78 -12 0 150 -299 391 -720
83 -146 185 -326 225 -400 40 -74 90 -164 110 -200 57 -100 160 -296 160 -304
0 -4 -12 1 -27 12 -36 25 -159 87 -221 111 -26 10 -56 21 -67 26 -11 4 -27 9
-35 10 -8 1 -64 11 -125 23 -60 12 -204 35 -318 52 -115 16 -212 32 -216 35
-5 2 -11 66 -15 142 -17 331 -88 750 -207 1228 -127 509 -432 1458 -674 2100
-652 1726 -930 2641 -1166 3830 -148 748 -206 1222 -254 2065 -8 146 -17 306
-21 355 -3 50 -4 88 -1 85 3 -3 33 -203 67 -445 162 -1168 328 -1924 657
-2998 20 -64 38 -115 41 -113 2 3 -7 40 -21 83 -76 231 -238 824 -326 1188
-151 628 -234 1093 -370 2080 -60 435 -68 502 -81 675 -35 466 -106 1044 -186
1510 -105 618 -313 1612 -387 1852 -14 46 -14 49 11 97 15 27 30 47 34 45 5
-3 8 -26 9 -52z m10544 11 l26 -48 -25 -95 c-59 -218 -195 -842 -286 -1315
-126 -654 -214 -1301 -275 -2010 -29 -337 -151 -1223 -236 -1710 -109 -626
-257 -1264 -435 -1874 -25 -84 -43 -155 -41 -157 5 -6 85 263 155 521 204 754
329 1380 451 2265 57 406 87 593 75 455 -2 -27 -11 -174 -19 -325 -55 -993
-119 -1482 -324 -2470 -98 -470 -285 -1165 -463 -1715 -130 -405 -237 -706
-578 -1630 -277 -749 -429 -1201 -625 -1860 -179 -600 -315 -1332 -315 -1695
0 -38 -4 -71 -9 -74 -5 -4 -103 -20 -218 -36 -412 -59 -554 -97 -714 -189 -46
-27 -85 -47 -87 -46 -5 4 344 641 493 900 239 415 403 715 391 715 -3 0 -24
-35 -47 -78 -57 -104 -260 -459 -379 -662 -113 -193 -316 -564 -421 -768 -48
-95 -85 -154 -110 -177 -49 -44 -115 -154 -139 -232 -11 -35 -22 -104 -26
-153 -6 -78 -9 -90 -23 -84 -9 3 -43 8 -76 11 -125 10 -257 -42 -385 -152
-126 -109 -270 -183 -390 -201 l-45 -7 36 39 c112 120 323 423 464 669 110
191 343 662 431 869 99 236 182 471 296 836 55 179 122 395 149 480 26 85 59
175 73 200 13 25 34 70 46 99 12 30 41 82 66 114 98 131 146 249 159 392 7 68
13 90 47 145 64 107 80 172 85 350 4 140 8 163 35 240 24 67 32 110 37 205 8
127 -1 91 196 785 24 85 103 369 175 630 151 549 205 741 300 1080 249 888
228 809 466 1697 193 721 253 929 469 1633 147 478 249 816 414 1370 224 755
224 755 270 805 58 63 156 197 197 271 20 35 37 64 39 64 6 0 -48 -178 -168
-552 -248 -770 -358 -1184 -632 -2373 -188 -815 -343 -1381 -546 -1993 -56
-167 -99 -305 -97 -308 5 -5 185 538 259 781 126 418 259 918 373 1410 314
1354 359 1524 690 2590 160 514 169 542 230 700 75 195 191 577 361 1190 129
465 138 495 147 489 6 -4 7 2 3 15 -11 35 2 24 30 -26z m-4995 -1273 c322 -20
516 -55 760 -138 145 -49 237 -87 514 -214 121 -55 319 -140 440 -189 120 -48
220 -89 222 -91 2 -2 -38 -22 -89 -44 -181 -77 -448 -277 -621 -463 -28 -31
-7 -14 48 37 193 183 406 336 580 418 53 24 100 44 105 44 4 0 55 -15 113 -34
57 -19 121 -37 141 -41 51 -10 46 -21 -10 -30 -171 -25 -608 -228 -675 -313
-7 -9 16 4 52 29 138 98 444 231 630 274 75 17 78 17 180 -5 109 -23 154 -39
114 -40 -50 0 -239 -66 -362 -125 -135 -65 -289 -163 -332 -212 -19 -21 -15
-19 20 9 164 130 467 274 670 318 51 11 66 9 220 -29 91 -22 203 -52 249 -66
l84 -27 -39 -22 c-277 -157 -569 -426 -804 -741 -145 -193 -259 -320 -313
-350 -34 -18 -34 -18 -138 14 -57 18 -142 44 -189 58 -47 14 -86 26 -87 27 -4
3 46 225 66 292 17 56 30 81 65 115 141 142 35 391 -138 325 -23 -9 -83 -48
-133 -86 -153 -117 -531 -293 -596 -277 -53 14 -46 121 19 248 72 144 35 264
-71 229 -42 -14 -77 -61 -128 -173 -70 -151 -163 -258 -265 -305 -52 -23 -60
-24 -156 -17 -183 14 -743 14 -839 0 -214 -31 -338 57 -480 340 -73 145 -114
181 -176 155 -65 -26 -68 -107 -9 -234 31 -68 43 -107 46 -154 9 -131 -30
-126 -383 43 -110 53 -185 97 -242 141 -141 110 -204 125 -274 67 -42 -36 -59
-80 -59 -150 0 -71 26 -132 69 -162 23 -17 35 -38 52 -93 22 -75 69 -274 69
-295 0 -7 -19 -17 -42 -23 -24 -7 -107 -32 -185 -57 -100 -32 -151 -43 -170
-38 -45 11 -172 150 -328 359 -220 297 -421 491 -695 673 -58 39 -113 75 -124
80 -23 13 -20 15 85 47 171 51 383 98 421 92 173 -27 566 -211 693 -325 16
-14 23 -17 15 -7 -33 44 -183 142 -305 201 -124 60 -275 115 -359 130 -51 10
-36 17 92 46 102 22 103 22 180 4 197 -46 467 -163 627 -272 44 -30 67 -42 50
-28 -130 115 -495 285 -667 310 -44 7 -68 25 -33 25 8 0 79 21 157 46 176 56
484 181 813 328 138 62 284 127 325 143 126 52 358 124 478 148 261 55 693 77
1052 55z m-3567 -1022 c286 -210 509 -418 677 -633 190 -243 248 -312 307
-361 54 -47 59 -53 40 -58 -53 -14 -68 -6 -220 131 -83 76 -195 178 -247 227
l-95 90 95 -97 c52 -54 159 -155 238 -225 128 -115 140 -127 116 -130 -18 -3
-36 5 -58 25 -17 16 -42 37 -56 48 -14 11 -3 -1 25 -27 l50 -47 -43 -1 c-32 0
-60 10 -108 38 -139 80 -324 197 -421 267 -57 41 -103 72 -103 70 0 -18 312
-230 464 -316 57 -32 73 -45 58 -47 -32 -5 -225 44 -306 78 -269 112 -631 423
-1012 870 -71 83 -131 156 -133 161 -4 14 78 -28 98 -50 9 -9 13 -12 9 -7 -16
20 -7 23 42 12 43 -10 62 -23 137 -97 95 -93 229 -209 241 -209 4 0 -3 8 -15
18 -12 9 -83 73 -157 142 l-135 125 87 6 c48 3 113 13 145 23 32 9 62 14 67
11 6 -3 10 -2 10 4 0 7 51 31 88 40 2 1 53 -36 115 -81z m6704 60 c18 -7 33
-14 33 -18 0 -3 -31 -23 -68 -44 -181 -106 -401 -272 -552 -416 -65 -62 -61
-60 35 22 162 139 261 213 443 332 l163 106 56 -16 c30 -9 96 -19 146 -23 l91
-6 -109 -100 c-59 -55 -129 -120 -154 -144 l-46 -43 41 31 c23 17 96 83 163
147 107 103 127 118 169 126 26 5 52 10 57 12 6 1 30 12 53 25 24 12 45 21 47
19 2 -2 -28 -41 -66 -87 -317 -381 -668 -714 -900 -854 -157 -96 -333 -161
-464 -173 l-60 -6 105 59 c170 96 423 268 445 303 4 6 -24 -13 -62 -41 -104
-78 -244 -168 -392 -253 -112 -64 -142 -76 -179 -76 l-45 0 19 23 c18 21 18
21 -8 -1 -15 -14 -35 -22 -48 -20 -19 2 -8 16 71 84 126 108 299 271 323 303
11 14 -21 -13 -70 -60 -72 -69 -276 -251 -356 -317 -12 -10 -29 -12 -57 -7
l-41 7 48 37 c63 51 103 96 267 300 158 199 366 418 499 525 132 107 339 256
355 256 8 0 30 -5 48 -12z m-7239 -627 c127 -128 201 -215 325 -381 89 -118
190 -248 226 -289 73 -83 59 -36 115 -416 26 -172 57 -517 76 -835 6 -96 24
-319 40 -495 48 -526 98 -1153 114 -1430 9 -143 18 -305 21 -360 4 -55 4 -97
2 -95 -7 8 -201 712 -372 1355 -137 516 -236 852 -455 1555 -99 320 -170 551
-230 750 -34 113 -109 360 -167 550 -57 190 -118 388 -134 441 -16 53 -29 99
-29 101 0 9 297 -276 468 -451z m2815 438 c15 -11 43 -55 63 -97 50 -106 135
-234 194 -293 73 -73 146 -104 240 -102 94 3 877 3 985 0 98 -2 150 19 226 90
71 66 128 148 192 279 30 60 62 116 70 123 9 7 28 11 44 9 26 -3 28 -6 31 -53
2 -40 -3 -62 -27 -106 -57 -108 -76 -215 -47 -271 17 -33 4 -37 -34 -12 l-25
17 23 -24 c20 -22 31 -24 105 -24 94 1 127 12 372 129 99 48 180 95 236 138
102 78 138 98 177 98 81 0 118 -135 62 -227 -22 -37 -61 -59 -183 -102 -128
-45 -187 -76 -284 -152 -228 -177 -290 -223 -342 -252 -31 -17 -100 -69 -155
-115 -178 -149 -234 -169 -431 -156 -189 13 -288 9 -382 -15 -103 -26 -140
-26 -250 1 -73 18 -110 21 -213 18 -318 -9 -339 -8 -410 26 -36 17 -108 67
-161 112 -53 44 -145 112 -205 149 -60 38 -167 116 -239 174 -157 126 -194
148 -341 204 -141 54 -172 72 -202 116 -21 29 -23 43 -20 103 3 61 7 71 33 93
23 20 36 24 67 20 36 -5 57 -18 208 -131 50 -37 357 -185 450 -216 33 -11 81
-20 108 -20 45 0 50 3 67 33 14 27 17 49 13 108 -4 61 -12 89 -46 159 -45 92
-53 147 -26 174 20 21 26 20 57 -5z m5236 -84 c-50 -164 -128 -421 -174 -570
-24 -77 -80 -264 -125 -415 -45 -151 -103 -345 -130 -430 -27 -85 -55 -177
-63 -205 -8 -27 -54 -176 -102 -330 -174 -560 -273 -898 -345 -1170 -17 -66
-51 -192 -75 -280 -24 -88 -71 -263 -105 -390 -97 -370 -233 -855 -238 -851
-5 6 24 558 43 811 21 287 62 769 90 1055 13 140 34 397 45 570 30 448 41 553
107 993 l17 119 52 56 c28 31 126 158 219 282 162 218 178 235 488 542 176
175 322 317 323 315 2 -2 -10 -48 -27 -102z m-369 -202 c-315 -318 -488 -498
-623 -648 -87 -96 -73 -84 67 60 97 99 176 176 176 172 0 -24 -288 -386 -384
-482 -172 -172 -252 -203 -543 -212 -176 -6 -323 5 -478 34 -44 8 -138 18
-210 21 l-130 7 -3 48 -3 47 73 -7 c107 -12 615 -8 668 5 39 9 34 10 -35 4
-106 -9 -552 -7 -638 2 l-68 8 2 96 c1 109 18 274 29 292 5 8 49 -5 151 -43
212 -81 272 -92 469 -91 322 1 520 67 831 277 144 96 639 462 809 597 41 32
77 59 80 60 3 0 -105 -111 -240 -247z m-7500 -129 c288 -214 407 -298 530
-371 228 -136 501 -204 770 -190 136 7 220 27 397 96 73 28 136 51 141 51 14
0 22 -50 33 -224 7 -101 7 -162 1 -168 -25 -25 -535 -34 -732 -13 l-45 4 45
-11 c52 -13 547 -17 658 -5 l72 7 0 -49 0 -48 -122 -6 c-68 -3 -181 -15 -253
-28 -110 -19 -166 -23 -360 -23 -330 -1 -420 22 -566 148 -82 70 -172 173
-290 331 -168 225 -170 230 -21 78 147 -150 207 -198 81 -65 -40 42 -141 149
-223 236 -83 88 -252 263 -376 389 l-225 229 115 -89 c63 -49 230 -175 370
-279z m1885 -61 c39 -14 74 -29 78 -33 16 -14 69 -209 101 -375 42 -209 64
-370 76 -540 l9 -130 -4 140 c-7 221 -64 565 -133 798 -25 83 -27 97 -13 92
40 -15 131 -77 239 -164 64 -51 147 -114 184 -138 37 -24 70 -48 73 -53 4 -6
10 -8 14 -6 7 5 76 -45 204 -150 145 -119 235 -145 430 -126 156 16 217 15
297 -4 149 -33 182 -36 261 -19 163 36 209 39 364 25 178 -16 246 -8 349 44
39 20 103 63 141 96 97 85 186 145 179 123 -4 -12 -1 -11 8 3 7 12 47 45 88
73 41 28 131 96 200 151 117 93 240 171 240 153 0 -4 4 -3 8 3 4 5 47 24 95
41 71 25 87 27 82 14 -128 -321 -167 -729 -99 -1048 l6 -32 -30 11 c-59 23
-114 -18 -132 -97 -10 -46 5 -135 57 -335 40 -156 54 -311 33 -376 -17 -52
-47 -94 -68 -94 -9 0 -89 43 -177 96 -180 108 -445 241 -550 276 -55 18 -92
23 -170 23 -118 0 -166 -19 -244 -96 -67 -65 -118 -171 -201 -414 -98 -284
-145 -377 -210 -410 -46 -24 -76 -18 -121 22 -56 51 -95 132 -179 378 -39 116
-87 242 -106 282 -42 87 -114 169 -186 208 -50 28 -59 30 -163 29 -95 0 -120
-4 -185 -28 -126 -47 -327 -150 -510 -261 -120 -72 -183 -105 -200 -103 -19 2
-31 15 -50 53 -22 44 -25 62 -24 155 1 91 7 128 48 285 57 216 66 295 41 349
-22 47 -65 70 -115 62 l-37 -6 14 68 c7 37 16 144 20 237 9 260 -14 427 -91
658 -33 99 -39 126 -27 121 9 -3 48 -17 86 -31z m-1275 -860 c116 -79 214 -98
505 -98 198 1 255 4 412 28 207 31 333 36 333 13 0 -24 -30 -157 -49 -221 -10
-33 -22 -91 -25 -130 -10 -98 -27 -165 -90 -365 -83 -259 -101 -350 -101 -505
0 -135 21 -243 66 -340 274 -595 337 -824 354 -1300 13 -369 36 -473 135 -624
35 -54 97 -128 150 -179 l90 -88 11 -85 c33 -271 124 -446 252 -484 28 -8 57
-15 64 -15 21 0 15 -29 -11 -61 -36 -42 -50 -125 -43 -254 7 -133 19 -178 59
-229 43 -54 49 -113 15 -158 -43 -57 -52 -102 -52 -250 0 -75 -3 -134 -8 -131
-36 22 -91 229 -106 404 -8 90 -19 146 -50 241 -23 68 -52 174 -65 235 -40
179 -112 295 -218 347 -66 33 -126 34 -193 2 -133 -63 -232 -242 -280 -505
-13 -74 -25 -109 -56 -160 -74 -122 -107 -257 -95 -387 6 -65 4 -78 -17 -121
-73 -143 -89 -289 -63 -551 15 -154 13 -313 -4 -281 -4 8 -27 85 -50 172 l-43
157 6 433 c7 527 31 852 102 1382 33 244 105 878 104 912 -1 16 -14 -82 -30
-217 -16 -135 -51 -418 -79 -630 -87 -680 -100 -848 -107 -1404 -6 -494 -2
-482 -67 -216 -16 63 -32 122 -36 131 -4 8 -20 60 -35 115 -27 98 -27 101 -21
314 16 497 44 859 132 1658 19 177 34 332 32 345 -4 26 -69 -538 -103 -894
-36 -366 -55 -639 -68 -979 l-12 -305 -95 345 -95 346 7 184 c12 296 36 681
73 1180 77 1052 85 1223 83 1780 l-2 435 -7 -475 c-8 -540 -12 -625 -79 -1580
-54 -756 -68 -993 -78 -1289 l-7 -194 -97 344 -97 344 -5 1105 c-2 622 -9
1166 -15 1245 -35 476 -56 727 -59 707 -2 -12 6 -154 17 -315 42 -594 44 -671
46 -1687 3 -1094 5 -1051 -49 -830 -19 76 -25 133 -30 290 -12 397 -46 879
-116 1660 -22 239 -46 541 -55 670 -30 442 -66 779 -110 1030 -8 47 -15 89
-15 94 0 5 21 -11 48 -36 26 -24 67 -58 92 -75z m6160 67 c-50 -268 -88 -606
-120 -1080 -11 -162 -32 -412 -45 -555 -69 -733 -110 -1319 -121 -1725 -6
-217 -7 -230 -42 -365 l-37 -140 -3 885 c-3 914 3 1180 39 1715 28 415 31 512
9 270 -60 -668 -74 -1103 -65 -2106 l7 -796 -22 -79 c-93 -338 -172 -612 -180
-626 -6 -10 -10 -26 -10 -37 0 -17 -23 -104 -155 -578 -19 -67 -38 -130 -43
-140 -5 -10 -12 -36 -15 -59 -4 -22 -20 -83 -36 -135 -16 -52 -41 -141 -56
-199 -15 -58 -35 -130 -44 -160 -10 -30 -40 -137 -67 -238 -32 -120 -51 -177
-55 -165 -11 27 -10 198 1 273 14 93 14 337 -1 395 -6 28 -28 87 -49 131 -35
75 -37 87 -33 150 10 132 -27 283 -92 381 -29 43 -40 76 -60 176 -40 200 -94
330 -174 420 -108 119 -258 129 -364 24 -82 -83 -116 -150 -147 -294 -11 -54
-39 -154 -61 -223 -33 -99 -44 -154 -55 -267 -15 -144 -47 -281 -84 -353 -30
-59 -37 -55 -28 18 15 117 -9 270 -52 325 -14 17 -20 40 -20 74 0 42 5 54 30
78 46 44 63 116 64 270 1 137 -9 189 -44 220 -11 10 -20 29 -20 42 0 19 5 23
33 23 142 1 250 182 288 482 l12 90 111 111 c212 213 246 312 266 772 20 478
69 675 281 1142 38 83 69 157 69 162 0 6 4 11 9 11 5 0 11 12 14 28 2 15 15
63 27 107 17 61 22 107 22 195 0 154 -7 190 -137 625 -20 66 -45 176 -55 245
-11 69 -26 148 -35 175 -14 44 -45 176 -45 192 0 12 250 -6 390 -29 121 -19
183 -23 370 -22 322 0 421 27 565 152 38 34 70 60 71 59 1 -1 -1 -22 -6 -47z
m-4785 -310 c34 -37 30 -102 -19 -291 -70 -275 -78 -380 -40 -500 8 -26 24
-55 35 -65 19 -17 19 -19 2 -25 -41 -17 -93 -9 -118 16 -28 27 -30 26 -13 -10
14 -30 55 -55 91 -55 56 0 161 45 306 130 203 120 425 231 531 265 117 37 210
37 285 1 106 -52 159 -143 265 -451 69 -200 134 -346 174 -388 118 -121 242
-88 334 91 22 42 75 176 117 297 90 254 120 319 178 382 118 129 280 125 564
-11 72 -35 206 -108 298 -162 186 -108 267 -145 335 -152 39 -3 51 0 78 23 40
34 46 67 6 36 -28 -22 -88 -28 -113 -12 -12 7 -10 14 8 36 30 39 51 118 51
194 0 81 -18 187 -65 375 -19 79 -35 164 -35 189 0 114 68 141 134 54 19 -25
29 -57 41 -142 18 -123 28 -165 91 -385 105 -367 117 -519 54 -714 -18 -55
-48 -133 -67 -175 -256 -558 -304 -747 -323 -1281 -6 -166 -14 -277 -24 -317
-34 -136 -112 -267 -228 -384 l-63 -63 -3 83 c-3 75 1 93 34 184 32 89 37 114
38 197 1 84 -2 102 -27 154 l-27 59 34 38 c19 21 42 53 52 71 16 32 14 31 -32
-14 -68 -66 -149 -100 -249 -105 -87 -5 -108 1 -359 97 -186 71 -215 69 -462
-34 -185 -77 -297 -73 -508 19 -142 62 -194 72 -283 56 -38 -6 -107 -28 -153
-48 -191 -80 -248 -95 -340 -91 -102 5 -174 34 -246 100 -53 49 -46 25 14 -42
l40 -45 -26 -50 c-20 -39 -27 -69 -30 -136 -4 -80 -2 -94 37 -207 34 -99 41
-134 41 -196 0 -41 -4 -77 -8 -80 -10 -6 -103 88 -162 163 -102 133 -138 247
-151 476 -30 548 -40 625 -110 860 -23 77 -77 221 -121 320 -126 284 -148 339
-174 443 -23 86 -25 111 -21 227 4 105 12 157 40 270 20 77 43 160 52 185 26
74 62 228 80 340 20 136 30 164 66 195 37 30 70 32 94 5z m6110 -2601 c-27
-261 -109 -891 -170 -1304 -209 -1414 -273 -1989 -295 -2665 -30 -908 66
-1714 282 -2370 33 -102 71 -209 84 -239 14 -30 22 -56 20 -58 -11 -11 -387
-118 -661 -188 -165 -42 -415 -108 -555 -146 -140 -38 -318 -82 -395 -98 -143
-30 -374 -65 -381 -58 -14 14 81 674 129 902 13 57 14 50 21 -175 7 -240 16
-368 37 -523 19 -139 21 -94 4 64 -9 83 -18 279 -21 464 l-6 320 40 165 c69
283 197 720 168 575 -25 -128 -57 -643 -54 -870 1 -79 3 -63 9 75 25 555 58
872 104 1020 140 448 412 1251 437 1290 10 17 12 26 -31 -140 -98 -371 -215
-1034 -255 -1440 -31 -313 -60 -935 -43 -919 4 3 11 131 17 285 17 477 48 772
130 1264 43 258 112 601 159 786 16 66 39 160 49 209 11 50 64 207 117 350
361 969 598 1673 749 2225 117 428 266 1057 307 1293 6 37 13 66 15 64 2 -2
-3 -73 -11 -158z m-8864 -264 c202 -918 434 -1686 837 -2775 44 -118 114 -307
155 -420 85 -228 155 -493 236 -891 136 -665 193 -1158 210 -1804 l8 -280 1
250 c3 465 -37 895 -138 1492 -38 223 -113 573 -164 773 -14 52 -23 96 -22 98
15 14 458 -1330 476 -1443 29 -183 53 -507 60 -805 l8 -325 -3 345 c-3 307
-21 611 -41 700 -3 14 -3 23 0 20 7 -8 109 -365 157 -552 39 -149 42 -176 47
-321 5 -177 -12 -528 -33 -712 -16 -132 -18 -185 -4 -115 24 121 41 342 46
593 3 153 7 276 10 274 6 -7 74 -372 103 -558 22 -141 51 -401 46 -407 -6 -5
-231 28 -331 48 -128 26 -195 43 -505 125 -151 41 -358 95 -460 120 -386 98
-700 190 -700 206 0 6 6 22 14 37 21 41 119 331 160 472 86 303 162 767 198
1215 17 211 17 1042 0 1270 -51 689 -93 1037 -287 2345 -14 96 -39 276 -55
400 -16 124 -40 308 -54 410 -47 343 -81 714 -54 575 6 -27 41 -189 79 -360z
m3945 13 c31 -62 52 -102 49 -88 -4 14 -26 65 -49 114 l-43 88 38 -5 c20 -3
75 -22 121 -42 171 -76 213 -87 328 -87 125 -1 161 8 300 72 58 26 122 51 142
55 l38 7 -24 -43 c-27 -49 -121 -297 -131 -344 -3 -16 16 29 43 100 27 72 65
165 85 208 l36 77 40 0 c22 0 42 -4 46 -10 3 -5 -8 -35 -26 -67 -34 -64 -19
-51 23 20 21 36 31 44 47 40 12 -3 24 -9 26 -14 3 -4 -10 -39 -29 -76 -34 -69
-99 -243 -93 -249 2 -2 18 34 36 81 51 135 99 235 113 235 18 -1 98 -37 98
-45 0 -19 -75 -164 -123 -236 -111 -169 -205 -250 -395 -343 -127 -61 -223
-82 -305 -66 -147 28 -352 137 -460 243 -89 88 -206 264 -241 363 l-14 41 48
23 c26 12 52 20 58 16 5 -3 12 1 16 9 12 32 38 12 82 -65 26 -44 48 -80 51
-80 5 0 -35 77 -63 122 -29 46 -29 46 -1 51 75 15 74 16 133 -105z m-694 -20
c5 -2 -2 -29 -16 -60 -27 -61 -50 -143 -62 -223 l-7 -50 -14 45 c-8 25 -17 88
-20 141 -5 82 -3 101 15 141 l20 47 38 -19 c20 -11 41 -21 46 -22z m328 11 c0
-22 90 -191 136 -255 131 -184 277 -292 494 -366 113 -38 186 -45 287 -24 160
32 343 132 454 247 76 79 172 220 221 327 22 48 41 88 42 89 1 1 31 -7 66 -18
39 -13 96 -22 142 -23 90 -1 84 7 122 -147 34 -135 46 -234 33 -279 -5 -20 -7
-76 -3 -128 11 -162 -56 -466 -124 -560 -65 -90 -110 -100 -262 -59 -159 43
-264 42 -403 -2 -184 -59 -260 -73 -395 -73 -109 0 -140 4 -240 31 -313 85
-301 83 -385 78 -51 -3 -117 -16 -181 -37 -89 -27 -107 -30 -141 -21 -91 25
-153 126 -199 326 -24 100 -29 149 -32 290 -7 311 -2 369 48 520 l20 60 87 1
c61 1 105 7 143 21 55 20 70 21 70 2z m2056 -14 c17 -43 18 -208 0 -280 -14
-56 -12 -60 -41 85 -9 47 -27 109 -41 139 -13 30 -23 55 -22 56 12 10 66 34
76 35 7 0 20 -16 28 -35z m-2639 -1177 c46 -28 112 -105 139 -163 12 -27 30
-93 39 -145 9 -52 36 -154 60 -227 37 -107 47 -153 55 -250 11 -131 23 -197
50 -293 19 -64 32 -87 119 -210 60 -86 86 -155 117 -311 30 -157 61 -229 108
-258 91 -56 173 13 206 174 27 130 80 205 145 205 70 0 112 -66 145 -225 18
-85 27 -110 69 -172 27 -39 59 -100 70 -135 27 -81 25 -78 103 -125 111 -66
174 -66 310 3 37 19 95 40 128 48 33 8 75 24 95 36 25 15 35 18 35 8 -1 -29
-39 -96 -89 -153 -64 -75 -91 -130 -90 -181 l2 -39 6 40 c10 55 33 96 91 160
72 79 95 120 126 215 15 47 36 103 47 125 45 92 185 235 257 264 16 6 19 10 9
10 -24 1 -79 -23 -112 -49 -15 -12 -30 -21 -32 -19 -8 8 27 176 50 241 13 38
53 112 88 166 99 147 139 271 152 467 7 110 18 157 65 290 17 49 40 137 51
195 28 152 87 255 178 308 113 66 233 0 316 -176 48 -100 74 -179 95 -293 14
-73 30 -117 64 -180 67 -125 81 -187 79 -358 0 -79 3 -137 8 -130 11 19 55
-78 75 -170 17 -76 17 -84 -2 -472 -6 -107 -3 -147 16 -254 28 -160 24 -226
-24 -368 -34 -103 -36 -112 -34 -235 2 -151 -11 -203 -83 -341 -42 -80 -49
-101 -49 -150 0 -113 -52 -253 -134 -361 -27 -36 -67 -101 -89 -145 -59 -121
-119 -205 -203 -284 -131 -125 -259 -191 -370 -191 -52 0 -131 28 -186 66 -78
54 -143 176 -183 344 -19 78 -24 85 -117 161 -28 24 -59 65 -88 119 -66 123
-116 138 -280 83 -74 -24 -100 -28 -205 -28 -108 0 -131 3 -228 34 -163 50
-199 36 -277 -109 -31 -58 -55 -89 -83 -108 -70 -48 -82 -66 -109 -170 -63
-239 -176 -370 -336 -389 -190 -22 -456 176 -584 436 -29 58 -74 135 -101 171
-86 114 -131 233 -143 375 -5 56 -14 82 -41 127 -70 114 -86 176 -91 348 -3
142 -7 163 -37 255 -47 142 -50 187 -24 345 19 122 20 154 13 325 -17 361 -9
436 56 564 l27 55 12 -65 c24 -140 62 -218 124 -251 11 -6 4 6 -16 27 -46 47
-74 121 -98 255 -36 206 -17 359 62 495 32 54 46 95 65 185 42 200 107 342
193 423 27 25 62 49 78 52 15 4 33 8 38 10 19 5 70 -8 102 -27z m998 -68 c192
-58 265 -71 400 -71 132 0 239 19 405 73 138 44 212 47 338 12 97 -27 102 -30
102 -55 0 -35 -9 -41 -114 -78 -332 -117 -848 -138 -1272 -51 -120 25 -194 45
-256 72 -44 19 -48 24 -48 54 0 33 1 34 73 55 152 45 187 44 372 -11z m-332
-157 c107 -36 241 -65 387 -85 128 -17 587 -17 710 0 168 23 433 94 464 123 6
5 20 9 32 9 27 0 40 -34 50 -125 8 -77 -12 -241 -34 -280 -25 -43 -94 -73
-229 -100 -235 -47 -372 -60 -643 -60 -314 0 -536 25 -761 86 -122 33 -143 63
-155 225 -13 161 16 270 64 248 9 -4 61 -22 115 -41z m47 -499 c154 -39 307
-55 587 -61 358 -8 662 20 842 78 35 11 64 19 66 17 1 -2 5 -29 7 -62 l5 -59
-61 -27 c-77 -35 -236 -74 -391 -97 -167 -24 -551 -24 -725 0 -160 23 -285 51
-382 89 l-78 29 0 66 c0 58 2 64 18 58 9 -3 60 -17 112 -31z m75 -198 c141
-35 259 -53 448 -67 338 -25 781 35 962 130 28 14 53 27 56 29 9 4 26 -77 34
-153 3 -34 0 -105 -9 -164 -12 -86 -19 -108 -40 -130 -33 -34 -127 -65 -276
-90 -226 -38 -322 -46 -570 -45 -274 0 -480 22 -670 70 -172 43 -185 55 -206
180 -17 107 -18 185 -3 256 17 80 20 81 102 43 40 -19 117 -46 172 -59z m-83
-461 c51 -13 125 -29 163 -35 39 -6 81 -13 95 -16 l24 -5 -32 -20 c-17 -12
-41 -36 -52 -55 -12 -19 -30 -34 -40 -34 -31 0 -214 51 -237 66 -19 12 -23 23
-23 69 0 30 2 55 4 55 2 0 46 -11 98 -25z m1488 -18 c0 -24 -6 -51 -13 -61
-17 -24 -211 -82 -362 -108 -99 -18 -162 -22 -360 -22 l-240 -1 -27 50 c-15
27 -36 57 -47 67 -12 9 -21 18 -21 20 0 2 62 -1 138 -5 252 -15 605 17 827 76
50 13 93 25 98 26 4 0 7 -18 7 -42z m-29 -177 c-6 -28 -11 -64 -11 -80 0 -19
-13 -44 -40 -75 -53 -62 -85 -118 -105 -187 -15 -54 -20 -59 -63 -78 -65 -29
-149 -40 -369 -47 -149 -5 -193 -3 -193 6 0 27 -65 166 -98 209 -26 34 -39 65
-49 117 -7 38 -13 72 -13 75 0 3 93 5 208 5 286 1 521 34 678 97 32 13 60 20
62 16 2 -4 -1 -31 -7 -58z m-1470 30 c35 -10 88 -24 117 -30 59 -13 59 -12 37
-109 -18 -77 -62 -141 -99 -141 -48 0 -84 68 -112 210 -15 80 -16 90 -10 90 2
0 32 -9 67 -20z m969 -563 c-53 -24 -122 -27 -171 -6 -34 14 -33 14 56 20 50
3 106 6 125 6 l35 1 -45 -21z m-492 -1279 c81 -30 96 -32 222 -32 128 -1 140
1 227 32 109 38 142 40 170 10 23 -26 76 -118 71 -123 -1 -2 -55 -11 -118 -21
-161 -26 -519 -26 -679 0 -62 9 -119 20 -126 22 -10 4 -6 18 13 52 57 105 80
111 220 60z m-113 -174 c226 -33 530 -28 753 11 l77 13 30 -27 c17 -15 47 -39
67 -54 32 -24 38 -36 52 -99 9 -40 26 -101 38 -135 12 -35 19 -65 16 -68 -11
-12 -260 -55 -403 -71 -194 -21 -512 -14 -700 15 -143 22 -276 49 -287 60 -4
4 1 30 12 58 11 29 29 91 41 138 20 80 25 88 63 114 22 16 50 39 61 51 15 17
26 20 50 15 16 -3 75 -12 130 -21z m1826 -430 c-11 -32 -61 -192 -111 -354
-175 -566 -262 -801 -427 -1152 -25 -54 -49 -98 -53 -98 -4 0 -10 27 -12 60
-3 48 -9 64 -31 84 -23 21 -27 33 -27 78 0 29 7 64 15 78 67 115 70 126 70
285 0 158 -16 233 -53 254 -11 6 -17 28 -20 69 -4 55 -2 62 22 83 51 45 75
191 56 344 -6 52 -19 104 -30 123 -23 38 -22 38 33 10 63 -32 176 -36 265 -9
75 23 189 92 267 163 28 25 51 45 52 44 2 -2 -6 -29 -16 -62z m-2833 -64 c110
-74 169 -93 282 -94 82 -1 102 2 146 24 l51 26 -18 -26 c-37 -52 -51 -271 -25
-385 10 -41 23 -67 41 -83 22 -18 28 -34 32 -82 5 -56 4 -61 -25 -88 -41 -39
-52 -86 -52 -233 0 -144 14 -206 61 -265 29 -37 31 -43 27 -107 -3 -57 -8 -72
-27 -86 -15 -12 -24 -31 -27 -62 -11 -97 -13 -99 -41 -44 -92 177 -233 526
-326 805 -60 177 -257 804 -257 816 0 3 19 -10 43 -30 23 -20 75 -59 115 -86z
m713 71 c337 -86 884 -87 1268 -1 104 23 95 26 142 -47 35 -56 25 -73 -65
-105 -214 -78 -590 -121 -867 -100 -222 17 -455 61 -592 112 -57 21 -58 22
-51 53 8 37 59 107 78 107 7 0 46 -9 87 -19z m-134 -172 c78 -33 298 -86 438
-104 174 -23 496 -24 665 -1 155 21 304 56 411 97 72 28 83 30 96 16 33 -33
39 -250 11 -365 -9 -37 -17 -46 -58 -67 -156 -79 -590 -131 -950 -114 -246 12
-544 64 -640 112 -64 31 -74 64 -74 252 0 152 9 195 39 195 7 0 35 -9 62 -21z
m160 -529 c398 -87 1003 -76 1315 23 l76 24 4 -60 c4 -70 -1 -75 -110 -113
-346 -120 -967 -122 -1335 -4 -125 40 -135 49 -129 122 l4 56 38 -13 c21 -7
83 -23 137 -35z m-1 -184 c225 -58 458 -82 709 -73 255 9 525 61 660 126 32
17 63 27 68 24 25 -15 37 -78 37 -187 0 -213 -23 -260 -148 -300 -319 -101
-891 -111 -1317 -25 -154 31 -205 55 -235 109 -24 43 -25 52 -25 206 0 144 2
164 19 183 l18 20 58 -29 c32 -16 102 -40 156 -54z m-86 -460 c56 -16 175 -37
310 -56 220 -31 614 -29 840 5 97 14 275 54 310 69 12 5 15 -4 15 -51 0 -32 2
-67 5 -78 4 -16 -6 -25 -54 -49 -70 -33 -243 -79 -376 -97 -146 -21 -565 -19
-710 4 -177 28 -380 82 -426 115 -6 4 -9 37 -6 85 4 66 7 77 21 73 9 -3 41
-12 71 -20z m113 -246 c433 -109 1039 -85 1334 55 57 26 74 31 82 21 6 -7 14
-54 17 -103 l7 -90 -74 -141 -74 -141 -85 -20 c-242 -58 -524 -81 -788 -63
-178 12 -370 39 -489 69 l-64 16 -71 140 -70 141 4 87 c6 119 12 125 92 88 35
-16 115 -43 179 -59z m-4208 -484 c88 -36 304 -114 480 -172 l320 -106 45 -72
c190 -302 480 -570 843 -779 54 -32 103 -57 109 -57 23 0 191 -61 289 -105
175 -79 340 -143 474 -182 81 -23 129 -43 132 -53 3 -8 34 -82 68 -165 121
-287 141 -387 130 -638 -7 -140 -9 -157 -24 -152 -9 3 -45 17 -81 30 -36 14
-166 61 -289 105 -327 118 -830 327 -893 372 -15 10 -42 49 -60 86 -30 60 -33
75 -33 152 1 119 52 262 145 400 52 78 55 85 41 75 -42 -25 -164 -266 -192
-378 -18 -75 -7 -192 25 -254 14 -29 23 -53 19 -53 -15 0 -565 336 -658 402
-415 296 -713 633 -915 1037 -90 179 -118 260 -155 436 -31 152 -32 157 -2
145 12 -4 94 -38 182 -74z m9781 62 c-3 -13 -15 -70 -26 -128 -32 -154 -64
-249 -134 -395 -216 -449 -545 -817 -1011 -1131 -131 -88 -575 -357 -581 -351
-2 1 9 32 23 67 33 81 36 187 9 270 -45 136 -149 332 -189 357 -7 4 -3 -6 8
-22 120 -182 175 -316 182 -445 4 -71 1 -95 -17 -144 -37 -97 -62 -117 -270
-207 -218 -95 -463 -193 -685 -274 -88 -32 -207 -76 -265 -97 -58 -22 -112
-42 -120 -45 -14 -4 -16 22 -15 219 0 257 1 263 98 498 32 80 68 170 80 200
11 30 21 56 22 58 2 1 45 14 96 28 121 31 256 81 427 156 191 83 300 125 347
134 22 4 42 10 45 14 3 3 41 25 84 49 313 167 630 456 824 753 l63 96 307 101
c169 56 393 137 497 180 105 43 193 79 198 80 4 0 5 -9 3 -21z m-5546 -58
c341 -70 836 -68 1133 4 53 13 97 20 97 17 0 -3 -17 -35 -38 -71 -44 -76 -52
-79 -232 -112 -97 -18 -155 -21 -375 -22 -274 0 -347 7 -549 56 -95 23 -99 27
-151 127 -16 31 -16 33 0 28 9 -4 61 -16 115 -27z m305 -205 c231 -27 521 -15
734 30 41 8 76 13 78 11 12 -12 -181 -305 -326 -493 l-102 -133 -133 0 -134 0
-35 39 c-42 47 -182 235 -254 342 -49 72 -163 256 -163 263 0 1 46 -8 103 -21
56 -12 161 -29 232 -38z m-3579 -129 c349 -118 664 -265 939 -436 140 -87 210
-138 352 -256 213 -178 299 -231 413 -256 30 -6 56 -12 57 -12 1 -1 -7 -26
-17 -56 -11 -30 -19 -70 -20 -87 0 -18 -4 -33 -8 -33 -26 0 -407 137 -522 188
-74 33 -186 78 -249 101 -143 53 -189 76 -326 166 -286 187 -512 401 -699 663
-21 28 -34 52 -29 52 5 0 54 -15 109 -34z m7764 28 c0 -3 -31 -47 -69 -97
-187 -250 -389 -436 -673 -621 -139 -90 -166 -104 -298 -151 -58 -21 -177 -69
-265 -107 -134 -59 -490 -188 -516 -188 -4 0 -11 21 -15 48 -3 26 -13 62 -20
81 -8 18 -14 37 -14 41 0 4 24 12 54 18 106 21 226 95 409 250 335 284 813
540 1322 708 76 25 85 27 85 18z"/>
<path d="M3011 18849 c-2 -27 78 -469 115 -634 20 -87 60 -254 90 -370 164
-633 253 -1100 384 -1997 110 -755 177 -1155 276 -1643 70 -348 131 -616 133
-587 1 7 -19 101 -43 210 -101 452 -225 1146 -316 1775 -163 1132 -235 1519
-400 2162 -85 331 -143 591 -184 820 -38 214 -53 289 -55 264z"/>
<path d="M4015 13570 c8 -51 67 -271 72 -267 2 2 -15 71 -37 153 -22 82 -38
133 -35 114z"/>
<path d="M4091 13274 c0 -11 3 -14 6 -6 3 7 2 16 -1 19 -3 4 -6 -2 -5 -13z"/>
<path d="M4954 12055 c24 -79 105 -308 105 -300 1 14 -97 306 -105 314 -4 3
-4 -3 0 -14z"/>
<path d="M5071 11705 c-1 -6 19 -69 43 -140 25 -72 45 -125 45 -120 1 6 -19
69 -43 140 -25 72 -45 125 -45 120z"/>
<path d="M5171 11384 c0 -11 3 -14 6 -6 3 7 2 16 -1 19 -3 4 -6 -2 -5 -13z"/>
<path d="M5182 11350 c0 -8 6 -31 13 -50 7 -19 13 -28 13 -20 0 8 -6 31 -13
50 -7 19 -13 28 -13 20z"/>
<path d="M5212 11250 c0 -8 8 -37 18 -65 10 -27 18 -43 18 -35 0 8 -8 38 -18
65 -10 28 -18 43 -18 35z"/>
<path d="M4610 11214 c0 -5 27 -106 61 -224 99 -354 214 -693 372 -1105 217
-565 218 -567 224 -562 2 3 -14 49 -35 103 -255 642 -443 1178 -562 1604 -49
172 -60 208 -60 184z"/>
<path d="M5321 10864 c0 -11 3 -14 6 -6 3 7 2 16 -1 19 -3 4 -6 -2 -5 -13z"/>
<path d="M4371 10824 c0 -11 3 -14 6 -6 3 7 2 16 -1 19 -3 4 -6 -2 -5 -13z"/>
<path d="M5341 10800 c0 -8 4 -24 9 -35 5 -13 9 -14 9 -5 0 8 -4 24 -9 35 -5
13 -9 14 -9 5z"/>
<path d="M4381 10797 c-3 -30 173 -542 321 -937 284 -758 547 -1506 890 -2535
127 -379 234 -697 240 -705 12 -19 30 -77 -157 498 -297 907 -607 1799 -892
2562 -185 496 -238 641 -324 895 -42 127 -78 226 -78 222z"/>
<path d="M5280 9275 c0 -5 5 -17 10 -25 5 -8 10 -10 10 -5 0 6 -5 17 -10 25
-5 8 -10 11 -10 5z"/>
<path d="M5300 9227 c0 -13 72 -188 76 -184 2 2 -12 44 -32 93 -35 85 -44 105
-44 91z"/>
<path d="M5922 8578 c3 -7 13 -37 23 -66 9 -29 19 -52 21 -49 5 5 -36 127 -43
127 -3 0 -3 -6 -1 -12z"/>
<path d="M5440 8407 c0 -13 53 -148 56 -144 3 2 -7 35 -22 73 -24 65 -34 85
-34 71z"/>
<path d="M6010 8314 c0 -17 52 -165 56 -161 3 3 -7 40 -22 83 -27 79 -34 95
-34 78z"/>
<path d="M5510 8216 c0 -11 198 -525 295 -767 212 -526 288 -692 827 -1814 74
-154 165 -349 203 -432 38 -84 70 -151 72 -149 6 6 -136 323 -272 606 -603
1257 -699 1474 -1055 2395 -60 154 -70 177 -70 161z"/>
<path d="M6082 8100 c0 -8 6 -31 13 -50 7 -19 13 -28 13 -20 0 8 -6 31 -13 50
-7 19 -13 28 -13 20z"/>
<path d="M6110 8005 c0 -5 20 -71 44 -145 48 -145 129 -407 251 -805 211 -690
374 -1128 650 -1750 106 -239 380 -805 389 -805 3 0 -28 68 -69 150 -172 344
-414 891 -578 1305 -140 355 -214 572 -392 1145 -257 831 -293 940 -295 905z"/>
<path d="M5336 7750 c4 -14 15 -43 25 -65 11 -22 16 -29 13 -15 -4 14 -15 43
-25 65 -11 22 -16 29 -13 15z"/>
<path d="M5385 7620 c4 -14 58 -153 120 -310 193 -487 239 -611 400 -1073 26
-76 49 -136 51 -134 4 4 -88 281 -176 527 -61 171 -387 1000 -397 1010 -3 3
-2 -6 2 -20z"/>
<path d="M6120 6119 c0 -4 67 -143 149 -310 151 -307 196 -413 257 -594 18
-55 33 -95 34 -90 1 24 -44 164 -90 282 -61 157 -349 743 -350 712z"/>
<path d="M7452 4775 c18 -35 34 -63 36 -61 4 5 -56 126 -63 126 -3 0 10 -29
27 -65z"/>
<path d="M7534 4615 c27 -49 53 -94 59 -100 5 -5 -12 31 -38 80 -26 50 -52 95
-58 100 -6 6 11 -30 37 -80z"/>
<path d="M7637 4430 c15 -28 36 -60 47 -73 l18 -22 -14 25 c-8 14 -27 46 -42
73 -15 26 -30 47 -33 47 -2 0 8 -23 24 -50z"/>
<path d="M7775 4206 c10 -14 19 -26 22 -26 7 0 -17 39 -28 46 -6 3 -3 -5 6
-20z"/>
<path d="M13501 18894 c0 -11 3 -14 6 -6 3 7 2 16 -1 19 -3 4 -6 -2 -5 -13z"/>
<path d="M13445 18628 c-59 -303 -98 -481 -181 -818 -192 -783 -243 -1062
-419 -2281 -88 -607 -215 -1310 -315 -1743 -22 -98 -39 -183 -38 -188 11 -31
170 733 252 1207 61 350 71 414 156 1000 118 819 145 977 264 1520 30 138 79
347 110 465 87 344 237 1063 223 1076 -2 3 -26 -104 -52 -238z"/>
<path d="M12462 13488 c-12 -50 -21 -93 -18 -95 2 -2 14 37 26 87 12 50 21 93
18 95 -2 2 -14 -37 -26 -87z"/>
<path d="M12421 13334 c-7 -25 -10 -48 -8 -51 3 -2 10 17 16 43 7 25 10 48 8
51 -3 2 -10 -17 -16 -43z"/>
<path d="M11401 11629 c-18 -55 -31 -103 -28 -105 2 -2 19 41 36 97 18 55 31
103 29 105 -2 2 -19 -42 -37 -97z"/>
<path d="M12256 11674 c-4 -14 -5 -28 -3 -31 3 -2 8 8 11 23 4 14 5 28 3 31
-3 2 -8 -8 -11 -23z"/>
<path d="M12236 11604 c-4 -14 -5 -28 -3 -31 3 -2 8 8 11 23 4 14 5 28 3 31
-3 2 -8 -8 -11 -23z"/>
<path d="M12196 11474 c-15 -47 -26 -87 -24 -89 2 -3 17 34 32 81 15 47 26 87
24 89 -2 3 -17 -34 -32 -81z"/>
<path d="M11961 11504 c0 -11 3 -14 6 -6 3 7 2 16 -1 19 -3 4 -6 -2 -5 -13z"/>
<path d="M11341 11434 c0 -11 3 -14 6 -6 3 7 2 16 -1 19 -3 4 -6 -2 -5 -13z"/>
<path d="M11291 11269 c-7 -22 -11 -43 -8 -45 2 -2 9 14 16 37 7 22 11 43 8
45 -2 2 -9 -14 -16 -37z"/>
<path d="M11261 11169 c-7 -22 -11 -43 -8 -45 2 -2 9 14 16 37 7 22 11 43 8
45 -2 2 -9 -14 -16 -37z"/>
<path d="M11876 11174 c-4 -14 -5 -28 -3 -31 3 -2 8 8 11 23 4 14 5 28 3 31
-3 2 -8 -8 -11 -23z"/>
<path d="M11820 10978 c-77 -278 -186 -599 -356 -1052 -42 -111 -100 -264
-129 -341 -29 -77 -67 -175 -84 -219 -18 -43 -30 -80 -28 -83 3 -2 9 9 15 24
6 15 47 123 92 238 173 444 315 833 388 1060 75 235 155 515 149 521 -2 2 -23
-64 -47 -148z"/>
<path d="M11171 10844 c0 -11 3 -14 6 -6 3 7 2 16 -1 19 -3 4 -6 -2 -5 -13z"/>
<path d="M12071 10653 c-59 -187 -134 -398 -281 -793 -273 -734 -322 -868
-583 -1620 -80 -228 -215 -631 -302 -895 -86 -264 -174 -534 -196 -599 -21
-66 -37 -121 -35 -124 2 -2 88 250 191 560 297 893 600 1767 760 2193 241 640
511 1411 503 1436 -2 5 -27 -66 -57 -158z"/>
<path d="M11151 10774 c0 -11 3 -14 6 -6 3 7 2 16 -1 19 -3 4 -6 -2 -5 -13z"/>
<path d="M11196 9225 c-9 -26 -7 -32 5 -12 6 10 9 21 6 23 -2 3 -7 -2 -11 -11z"/>
<path d="M11176 9175 c-9 -26 -7 -32 5 -12 6 10 9 21 6 23 -2 3 -7 -2 -11 -11z"/>
<path d="M11146 9100 c-22 -56 -19 -65 5 -11 11 24 18 46 15 48 -2 2 -11 -14
-20 -37z"/>
<path d="M10561 8549 c-11 -34 -19 -64 -17 -66 2 -2 13 24 25 58 11 34 19 64
17 66 -2 2 -13 -24 -25 -58z"/>
<path d="M11026 8324 c-20 -54 -35 -99 -33 -101 2 -2 21 40 41 93 20 54 35 99
33 101 -2 2 -21 -40 -41 -93z"/>
<path d="M10457 8228 c-20 -62 -35 -114 -33 -116 2 -2 21 47 41 108 20 61 35
113 33 115 -2 2 -20 -46 -41 -107z"/>
<path d="M10910 8013 c-320 -820 -466 -1155 -928 -2118 -229 -480 -351 -743
-403 -873 -16 -41 -38 -90 -48 -110 -10 -21 -21 -48 -25 -62 -8 -31 34 56 84
175 55 130 141 315 280 605 267 556 355 740 412 865 157 341 184 400 245 540
133 308 448 1103 440 1111 -2 2 -28 -58 -57 -133z"/>
<path d="M10323 7819 c-45 -140 -98 -308 -118 -374 -339 -1114 -511 -1582
-860 -2340 -53 -115 -123 -264 -156 -329 -33 -65 -57 -121 -55 -124 5 -4 143
275 252 510 275 593 512 1222 719 1913 103 341 181 593 246 794 33 101 58 188
57 193 -2 6 -40 -104 -85 -243z"/>
<path d="M11141 7704 c-12 -31 -20 -59 -18 -61 2 -2 14 22 26 53 12 31 20 59
18 61 -2 2 -14 -22 -26 -53z"/>
<path d="M11025 7407 c-198 -494 -263 -667 -421 -1128 -70 -205 -90 -272 -60
-204 7 17 53 145 101 285 113 330 157 448 332 893 79 203 143 371 141 373 -2
2 -44 -97 -93 -219z"/>
<path d="M10096 6415 c-9 -26 -7 -32 5 -12 6 10 9 21 6 23 -2 3 -7 -2 -11 -11z"/>
<path d="M9986 6155 c-9 -26 -7 -32 5 -12 6 10 9 21 6 23 -2 3 -7 -2 -11 -11z"/>
<path d="M10315 5996 c-182 -344 -333 -695 -359 -836 -3 -19 20 39 52 130 64
180 121 307 278 623 57 114 102 207 100 207 -3 0 -34 -56 -71 -124z"/>
<path d="M9882 5915 c-17 -37 -14 -45 4 -12 9 16 14 31 11 33 -2 2 -9 -7 -15
-21z"/>
<path d="M9747 5615 c-24 -50 -20 -58 4 -12 11 22 19 41 17 43 -3 2 -12 -12
-21 -31z"/>
<path d="M9646 5395 c-9 -26 -7 -32 5 -12 6 10 9 21 6 23 -2 3 -7 -2 -11 -11z"/>
<path d="M9034 4758 c-50 -100 -172 -322 -212 -388 -9 -14 -10 -20 -4 -15 27
24 292 515 277 515 -2 0 -30 -50 -61 -112z"/>
<path d="M9062 4519 c-24 -43 -41 -79 -39 -79 7 0 89 151 85 155 -2 2 -23 -32
-46 -76z"/>
<path d="M8790 4320 c-6 -11 -8 -20 -6 -20 3 0 10 9 16 20 6 11 8 20 6 20 -3
0 -10 -9 -16 -20z"/>
<path d="M8830 17150 c-6 -11 -8 -20 -6 -20 3 0 10 9 16 20 6 11 8 20 6 20 -3
0 -10 -9 -16 -20z"/>
<path d="M7771 17145 c0 -5 11 -30 24 -55 13 -25 24 -40 24 -35 0 6 -11 30
-24 55 -13 25 -24 41 -24 35z"/>
<path d="M8707 17115 c-24 -50 -20 -58 4 -12 11 22 19 41 17 43 -3 2 -12 -12
-21 -31z"/>
<path d="M8676 17045 c-9 -26 -7 -32 5 -12 6 10 9 21 6 23 -2 3 -7 -2 -11 -11z"/>
<path d="M7820 17035 c0 -5 5 -17 10 -25 5 -8 10 -10 10 -5 0 6 -5 17 -10 25
-5 8 -10 11 -10 5z"/>
<path d="M6135 16947 c190 -98 359 -222 539 -396 77 -74 95 -89 61 -48 -128
151 -413 368 -599 458 -143 69 -144 60 -1 -14z"/>
<path d="M8622 16888 c-59 -182 -126 -507 -108 -525 3 -4 6 5 6 18 0 49 71
368 109 494 22 71 38 131 36 133 -2 2 -21 -52 -43 -120z"/>
<path d="M7842 16980 c33 -93 98 -304 104 -335 4 -22 9 -35 11 -29 9 25 -92
354 -114 373 -3 3 -4 -1 -1 -9z"/>
<path d="M8021 16684 c0 -11 3 -14 6 -6 3 7 2 16 -1 19 -3 4 -6 -2 -5 -13z"/>
<path d="M8031 16644 c0 -11 3 -14 6 -6 3 7 2 16 -1 19 -3 4 -6 -2 -5 -13z"/>
<path d="M8042 16605 c0 -11 4 -33 8 -50 7 -27 8 -27 8 -5 0 14 -4 36 -8 50
-6 20 -8 21 -8 5z"/>
<path d="M7961 16584 c0 -11 3 -14 6 -6 3 7 2 16 -1 19 -3 4 -6 -2 -5 -13z"/>
<path d="M10034 16558 l-19 -23 23 19 c21 18 27 26 19 26 -2 0 -12 -10 -23
-22z"/>
<path d="M6490 16535 c13 -14 26 -25 28 -25 3 0 -5 11 -18 25 -13 14 -26 25
-28 25 -3 0 5 -11 18 -25z"/>
<path d="M7971 16534 c0 -11 3 -14 6 -6 3 7 2 16 -1 19 -3 4 -6 -2 -5 -13z"/>
<path d="M9984 16518 l-19 -23 23 19 c21 18 27 26 19 26 -2 0 -12 -10 -23 -22z"/>
<path d="M4795 16653 c6 -6 82 -57 170 -115 163 -106 301 -212 435 -332 45
-41 35 -29 -25 29 -149 144 -320 269 -550 405 -22 13 -35 19 -30 13z"/>
<path d="M4426 16543 c264 -305 631 -642 869 -798 33 -21 66 -43 73 -48 6 -5
12 -7 12 -3 0 3 -39 32 -87 65 -190 128 -547 449 -771 693 -149 162 -200 211
-96 91z"/>
<path d="M5580 15805 c13 -14 26 -25 28 -25 3 0 -5 11 -18 25 -13 14 -26 25
-28 25 -3 0 5 -11 18 -25z"/>
<path d="M5640 15757 c0 -3 23 -24 50 -47 28 -23 50 -40 50 -37 0 3 -22 24
-50 47 -27 23 -50 40 -50 37z"/>
<path d="M12006 16480 c-262 -286 -637 -623 -834 -749 -28 -18 -52 -35 -52
-38 0 -11 160 99 250 171 251 201 599 538 740 716 58 73 24 41 -104 -100z"/>
<path d="M10899 15793 l-24 -28 28 24 c15 14 27 26 27 28 0 8 -8 1 -31 -24z"/>
<path d="M10800 15714 c-81 -67 -94 -84 -23 -29 57 43 92 75 82 75 -2 0 -29
-21 -59 -46z"/>
<path d="M10689 15623 c-13 -16 -12 -17 4 -4 9 7 17 15 17 17 0 8 -8 3 -21
-13z"/>
<path d="M7378 16146 c37 -57 69 -102 71 -100 4 4 -126 204 -133 204 -3 0 25
-47 62 -104z"/>
<path d="M9140 16199 c-7 -11 -10 -23 -7 -25 2 -2 9 7 15 21 14 30 7 33 -8 4z"/>
<path d="M9935 16129 c-54 -22 -75 -36 -35 -24 37 12 107 44 95 44 -5 0 -32
-9 -60 -20z"/>
<path d="M6685 16062 c50 -27 158 -93 240 -149 142 -95 212 -138 190 -116 -24
24 -374 250 -434 280 -101 51 -98 39 4 -15z"/>
<path d="M9090 16075 c-6 -19 -27 -58 -45 -85 -19 -28 -31 -50 -27 -50 18 0
100 155 89 167 -3 2 -10 -12 -17 -32z"/>
<path d="M9778 16054 c-38 -20 -36 -28 2 -9 17 9 30 18 30 20 0 7 -1 6 -32
-11z"/>
<path d="M8544 15866 c-28 -13 -55 -29 -58 -35 -4 -6 10 -1 30 11 21 12 58 27
83 34 31 8 38 13 21 13 -14 1 -48 -10 -76 -23z"/>
<path d="M7640 15854 c44 -20 151 -20 210 0 35 12 37 14 10 8 -46 -9 -198 -9
-230 0 -14 4 -9 1 10 -8z"/>
<path d="M7367 15645 c75 -89 102 -111 168 -142 56 -26 68 -28 185 -27 125 1
330 20 243 23 -23 0 -88 -4 -144 -10 -119 -13 -222 -2 -296 33 -29 13 -79 54
-127 102 -67 68 -71 71 -29 21z"/>
<path d="M9160 15663 c-14 -9 -53 -43 -88 -75 -88 -82 -127 -91 -335 -85 -152
5 -155 5 -57 -4 159 -15 266 -9 320 19 34 17 202 162 187 162 -1 0 -14 -8 -27
-17z"/>
<path d="M8523 15493 c9 -2 23 -2 30 0 6 3 -1 5 -18 5 -16 0 -22 -2 -12 -5z"/>
<path d="M11040 15439 c-183 -39 -334 -52 -540 -46 -107 4 -244 13 -305 22
-60 8 -126 17 -145 20 -35 5 -35 5 -5 -5 17 -5 93 -20 170 -31 213 -33 508
-31 705 4 80 14 165 33 190 41 60 19 33 17 -70 -5z"/>
<path d="M10210 15169 c65 -13 458 -22 505 -12 29 7 -4 9 -120 9 -88 -1 -221
2 -295 5 -92 5 -121 4 -90 -2z"/>
<path d="M5410 15440 c14 -6 90 -23 170 -37 234 -42 535 -37 813 13 137 25 97
26 -64 2 -116 -17 -192 -21 -389 -22 -244 -1 -294 4 -529 49 l-26 5 25 -10z"/>
<path d="M6120 15168 c-63 -5 -171 -7 -240 -5 -93 3 -115 2 -85 -5 47 -11 450
-3 510 11 l40 9 -55 -1 c-30 0 -107 -4 -170 -9z"/>
<path d="M9861 15873 c-83 -283 -132 -599 -129 -831 l1 -147 7 180 c10 247 55
529 121 754 16 57 28 106 25 108 -2 3 -14 -26 -25 -64z"/>
<path d="M9921 15694 c0 -11 3 -14 6 -6 3 7 2 16 -1 19 -3 4 -6 -2 -5 -13z"/>
<path d="M6582 15670 c0 -14 2 -19 5 -12 2 6 2 18 0 25 -3 6 -5 1 -5 -13z"/>
<path d="M9912 15645 c0 -16 2 -22 5 -12 2 9 2 23 0 30 -3 6 -5 -1 -5 -18z"/>
<path d="M6591 15627 c0 -10 4 -49 10 -87 6 -38 14 -115 19 -172 l9 -103 -5
115 c-4 102 -30 293 -33 247z"/>
<path d="M9891 15528 c-7 -46 -14 -150 -16 -233 l-4 -150 9 140 c5 77 14 180
20 228 7 49 10 90 8 93 -3 2 -10 -33 -17 -78z"/>
<path d="M7146 15575 c3 -11 25 -78 49 -150 59 -175 101 -392 118 -610 3 -34
4 -32 5 12 4 124 -53 442 -109 598 -26 74 -78 197 -63 150z"/>
<path d="M9322 15503 c-81 -213 -145 -516 -141 -671 1 -26 7 6 14 73 20 180
60 363 115 525 53 156 60 200 12 73z"/>
<path d="M9126 15193 c-38 -203 -57 -464 -38 -513 7 -18 11 26 15 160 3 118
13 230 26 309 12 68 20 126 18 128 -3 2 -12 -36 -21 -84z"/>
<path d="M8541 15254 c0 -11 3 -14 6 -6 3 7 2 16 -1 19 -3 4 -6 -2 -5 -13z"/>
<path d="M7365 15223 c27 -196 37 -292 44 -428 l8 -160 2 125 c1 133 -20 349
-44 440 -8 30 -12 40 -10 23z"/>
<path d="M6843 15130 c0 -25 2 -35 4 -22 2 12 2 32 0 45 -2 12 -4 2 -4 -23z"/>
<path d="M8522 15150 c0 -14 2 -19 5 -12 2 6 2 18 0 25 -3 6 -5 1 -5 -13z"/>
<path d="M9653 15105 c0 -27 2 -38 4 -22 2 15 2 37 0 50 -2 12 -4 0 -4 -28z"/>
<path d="M8506 15068 c-32 -238 -37 -310 -40 -573 l-4 -290 8 260 c7 227 17
353 46 598 4 31 4 57 2 57 -3 0 -9 -24 -12 -52z"/>
<path d="M6853 14965 c0 -38 2 -53 4 -32 2 20 2 52 0 70 -2 17 -4 1 -4 -38z"/>
<path d="M9654 14815 c0 -49 1 -71 3 -48 2 23 2 64 0 90 -2 26 -3 8 -3 -42z"/>
<path d="M6843 14795 c0 -44 2 -61 4 -37 2 23 2 59 0 80 -2 20 -4 1 -4 -43z"/>
<path d="M9663 14670 c0 -25 2 -35 4 -22 2 12 2 32 0 45 -2 12 -4 2 -4 -23z"/>
<path d="M6833 14655 c0 -27 2 -38 4 -22 2 15 2 37 0 50 -2 12 -4 0 -4 -28z"/>
<path d="M8554 14585 c0 -60 1 -84 3 -52 2 32 2 81 0 110 -2 29 -3 3 -3 -58z"/>
<path d="M9672 14570 c0 -14 2 -19 5 -12 2 6 2 18 0 25 -3 6 -5 1 -5 -13z"/>
<path d="M6821 14544 c0 -11 3 -14 6 -6 3 7 2 16 -1 19 -3 4 -6 -2 -5 -13z"/>
<path d="M8563 14410 c0 -25 2 -35 4 -22 2 12 2 32 0 45 -2 12 -4 2 -4 -23z"/>
<path d="M8571 14314 c0 -11 3 -14 6 -6 3 7 2 16 -1 19 -3 4 -6 -2 -5 -13z"/>
<path d="M8473 14145 c0 -22 2 -30 4 -17 2 12 2 30 0 40 -3 9 -5 -1 -4 -23z"/>
<path d="M5602 14950 c0 -19 2 -27 5 -17 2 9 2 25 0 35 -3 9 -5 1 -5 -18z"/>
<path d="M5613 14780 c0 -36 2 -50 4 -32 2 17 2 47 0 65 -2 17 -4 3 -4 -33z"/>
<path d="M5626 14475 c2 -99 9 -331 15 -515 6 -184 15 -585 19 -890 l8 -555
-3 625 c-4 588 -15 1054 -35 1375 l-9 140 5 -180z"/>
<path d="M5392 14550 c0 -19 2 -27 5 -17 2 9 2 25 0 35 -3 9 -5 1 -5 -18z"/>
<path d="M5403 14440 c0 -30 2 -43 4 -27 2 15 2 39 0 55 -2 15 -4 2 -4 -28z"/>
<path d="M5752 13620 c-2 -462 -12 -757 -37 -1090 -23 -312 -35 -529 -33 -595
0 -33 5 5 10 85 4 80 17 264 28 410 33 431 41 689 38 1170 l-3 455 -3 -435z"/>
<path d="M6282 13330 c-11 -676 -51 -1214 -123 -1638 -151 -895 -202 -1381
-197 -1887 1 -151 2 -146 9 85 18 580 64 994 184 1680 57 328 77 495 104 871
16 211 33 748 29 899 l-4 135 -2 -145z"/>
<path d="M6514 12820 c0 -69 1 -97 3 -62 2 34 2 90 0 125 -2 34 -3 6 -3 -63z"/>
<path d="M6496 12534 c-17 -383 -89 -944 -226 -1764 -27 -162 -52 -320 -54
-350 -15 -147 153 855 204 1225 47 340 106 1035 88 1035 -3 0 -8 -66 -12 -146z"/>
<path d="M5653 12390 c0 -36 2 -50 4 -32 2 17 2 47 0 65 -2 17 -4 3 -4 -33z"/>
<path d="M6073 12135 c0 -22 2 -30 4 -17 2 12 2 30 0 40 -3 9 -5 -1 -4 -23z"/>
<path d="M6292 12150 c0 -14 2 -19 5 -12 2 6 2 18 0 25 -3 6 -5 1 -5 -13z"/>
<path d="M6283 12040 c0 -25 2 -35 4 -22 2 12 2 32 0 45 -2 12 -4 2 -4 -23z"/>
<path d="M5673 11785 c0 -44 2 -61 4 -37 2 23 2 59 0 80 -2 20 -4 1 -4 -43z"/>
<path d="M5663 11625 c0 -22 2 -30 4 -17 2 12 2 30 0 40 -3 9 -5 -1 -4 -23z"/>
<path d="M6195 10305 c-3 -31 -5 -59 -2 -61 3 -3 8 20 12 51 3 31 5 59 2 61
-3 3 -8 -20 -12 -51z"/>
<path d="M6182 10200 c0 -19 2 -27 5 -17 2 9 2 25 0 35 -3 9 -5 1 -5 -18z"/>
<path d="M6172 10135 c0 -16 2 -22 5 -12 2 9 2 23 0 30 -3 6 -5 -1 -5 -18z"/>
<path d="M6162 10070 c0 -19 2 -27 5 -17 2 9 2 25 0 35 -3 9 -5 1 -5 -18z"/>
<path d="M6152 10005 c0 -16 2 -22 5 -12 2 9 2 23 0 30 -3 6 -5 -1 -5 -18z"/>
<path d="M10902 15010 c0 -14 2 -19 5 -12 2 6 2 18 0 25 -3 6 -5 1 -5 -13z"/>
<path d="M10893 14875 c0 -33 2 -45 4 -27 2 18 2 45 0 60 -2 15 -4 0 -4 -33z"/>
<path d="M10884 14685 c0 -55 1 -76 3 -47 2 29 2 74 0 100 -2 26 -3 2 -3 -53z"/>
<path d="M11112 14610 c0 -14 2 -19 5 -12 2 6 2 18 0 25 -3 6 -5 1 -5 -13z"/>
<path d="M10867 14360 c-5 -118 -12 -334 -17 -480 -5 -146 -12 -490 -14 -765
-4 -490 -4 -493 4 -130 5 204 16 633 25 955 9 322 15 597 13 610 -2 14 -7 -72
-11 -190z"/>
<path d="M11103 14495 c0 -27 2 -38 4 -22 2 15 2 37 0 50 -2 12 -4 0 -4 -28z"/>
<path d="M10642 13735 c-2 -465 15 -822 83 -1745 38 -515 61 -868 75 -1125 l9
-170 -5 220 c-3 195 -34 765 -49 900 -10 99 -65 897 -80 1185 -9 162 -20 473
-24 690 l-8 395 -1 -350z"/>
<path d="M10742 13575 c-2 -446 7 -703 38 -1120 11 -148 24 -331 29 -405 l10
-135 -5 160 c-3 88 -11 243 -19 345 -32 421 -38 549 -44 1045 l-8 520 -1 -410z"/>
<path d="M10222 13220 c-2 -338 8 -612 34 -930 20 -260 38 -397 89 -695 133
-782 171 -1127 185 -1660 l8 -300 -4 345 c-5 503 -34 766 -174 1610 -90 545
-118 875 -129 1530 l-7 425 -2 -325z"/>
<path d="M9995 12660 c7 -437 80 -1038 235 -1935 57 -328 57 -328 59 -298 0
12 -19 140 -44 285 -90 526 -165 1033 -194 1313 -38 361 -43 431 -51 650 l-8
220 3 -235z"/>
<path d="M10843 12440 c0 -41 2 -58 4 -37 2 20 2 54 0 75 -2 20 -4 3 -4 -38z"/>
<path d="M10411 12314 c0 -11 3 -14 6 -6 3 7 2 16 -1 19 -3 4 -6 -2 -5 -13z"/>
<path d="M10852 12275 c0 -16 2 -22 5 -12 2 9 2 23 0 30 -3 6 -5 -1 -5 -18z"/>
<path d="M10423 12180 c0 -25 2 -35 4 -22 2 12 2 32 0 45 -2 12 -4 2 -4 -23z"/>
<path d="M10431 12091 c0 -18 15 -176 34 -350 93 -847 130 -1307 138 -1726 2
-99 3 -91 5 46 4 320 -37 860 -123 1614 -49 426 -52 454 -54 416z"/>
<path d="M10213 12065 c0 -22 2 -30 4 -17 2 12 2 30 0 40 -3 9 -5 -1 -4 -23z"/>
<path d="M10221 11986 c-1 -33 48 -455 113 -976 65 -518 92 -871 105 -1375 8
-272 8 -274 9 -90 4 471 -36 991 -128 1685 -22 162 -51 396 -65 520 -30 262
-32 275 -34 236z"/>
<path d="M10823 11835 c0 -44 2 -61 4 -37 2 23 2 59 0 80 -2 20 -4 1 -4 -43z"/>
<path d="M10833 11660 c0 -30 2 -43 4 -27 2 15 2 39 0 55 -2 15 -4 2 -4 -28z"/>
<path d="M10292 10375 c0 -16 2 -22 5 -12 2 9 2 23 0 30 -3 6 -5 -1 -5 -18z"/>
<path d="M10302 10320 c-1 -14 5 -56 12 -95 8 -38 14 -59 14 -45 1 14 -5 57
-12 95 -8 39 -14 59 -14 45z"/>
<path d="M10332 10125 c0 -16 2 -22 5 -12 2 9 2 23 0 30 -3 6 -5 -1 -5 -18z"/>
<path d="M10342 10060 c0 -14 2 -19 5 -12 2 6 2 18 0 25 -3 6 -5 1 -5 -13z"/>
<path d="M8942 14149 c-50 -25 -104 -84 -139 -154 -14 -27 -54 -127 -89 -221
-92 -254 -131 -325 -242 -446 -56 -61 -56 -62 -13 -29 59 47 133 142 175 226
19 39 64 150 101 248 36 98 72 192 81 210 35 68 88 129 138 157 59 34 51 40
-12 9z"/>
<path d="M7566 14131 c86 -62 118 -117 203 -354 33 -89 69 -184 80 -211 34
-77 104 -175 172 -241 l62 -60 -71 85 c-90 106 -145 211 -220 421 -33 90 -71
188 -86 217 -31 61 -97 137 -137 158 -44 22 -45 16 -3 -15z"/>
<path d="M9414 14077 c43 -23 124 -69 180 -102 136 -82 216 -126 216 -121 0
14 -443 267 -466 266 -5 -1 26 -20 70 -43z"/>
<path d="M7035 14057 c-100 -52 -275 -156 -275 -164 0 -5 30 11 152 83 58 35
134 77 167 94 34 16 61 32 61 35 0 7 4 9 -105 -48z"/>
<path d="M6724 13874 c-18 -14 -18 -15 4 -4 12 6 22 13 22 15 0 8 -5 6 -26
-11z"/>
<path d="M9862 13188 c-122 -228 -163 -324 -202 -479 -31 -119 -19 -118 14 1
40 143 68 211 163 399 90 176 107 232 25 79z"/>
<path d="M6673 13105 c87 -175 141 -310 172 -428 10 -37 20 -65 23 -63 6 7
-47 190 -80 276 -32 80 -160 337 -184 367 -8 10 23 -58 69 -152z"/>
<path d="M9631 12584 c0 -11 3 -14 6 -6 3 7 2 16 -1 19 -3 4 -6 -2 -5 -13z"/>
<path d="M12571 11544 c0 -11 3 -14 6 -6 3 7 2 16 -1 19 -3 4 -6 -2 -5 -13z"/>
<path d="M12562 11475 c0 -16 2 -22 5 -12 2 9 2 23 0 30 -3 6 -5 -1 -5 -18z"/>
<path d="M12552 11405 c0 -16 2 -22 5 -12 2 9 2 23 0 30 -3 6 -5 -1 -5 -18z"/>
<path d="M12542 11340 c0 -19 2 -27 5 -17 2 9 2 25 0 35 -3 9 -5 1 -5 -18z"/>
<path d="M12532 11275 c0 -16 2 -22 5 -12 2 9 2 23 0 30 -3 6 -5 -1 -5 -18z"/>
<path d="M12522 11215 c0 -16 2 -22 5 -12 2 9 2 23 0 30 -3 6 -5 -1 -5 -18z"/>
<path d="M12512 11145 c0 -16 2 -22 5 -12 2 9 2 23 0 30 -3 6 -5 -1 -5 -18z"/>
<path d="M12502 11075 c0 -16 2 -22 5 -12 2 9 2 23 0 30 -3 6 -5 -1 -5 -18z"/>
<path d="M12492 11000 c0 -19 2 -27 5 -17 2 9 2 25 0 35 -3 9 -5 1 -5 -18z"/>
<path d="M12482 10930 c0 -19 2 -27 5 -17 2 9 2 25 0 35 -3 9 -5 1 -5 -18z"/>
<path d="M12432 10624 c-130 -809 -164 -1033 -196 -1269 -62 -461 -87 -767
-84 -1040 l1 -160 8 230 c9 275 29 514 70 833 43 342 33 278 225 1486 14 87
24 165 22 174 -2 9 -22 -106 -46 -254z"/>
<path d="M12221 10394 c0 -11 3 -14 6 -6 3 7 2 16 -1 19 -3 4 -6 -2 -5 -13z"/>
<path d="M12212 10340 c0 -14 2 -19 5 -12 2 6 2 18 0 25 -3 6 -5 1 -5 -13z"/>
<path d="M12182 10205 c-29 -147 -27 -168 4 -30 14 60 23 117 21 125 -1 8 -13
-34 -25 -95z"/>
<path d="M12082 9699 c-86 -432 -134 -714 -162 -939 -59 -492 -83 -1044 -61
-1425 3 -60 6 68 6 285 0 396 8 550 45 938 33 337 79 617 186 1151 36 178 64
330 62 338 -2 9 -36 -148 -76 -348z"/>
<path d="M12062 8660 c0 -14 2 -19 5 -12 2 6 2 18 0 25 -3 6 -5 1 -5 -13z"/>
<path d="M12052 8550 c0 -19 2 -27 5 -17 2 9 2 25 0 35 -3 9 -5 1 -5 -18z"/>
<path d="M12043 8435 c0 -27 2 -38 4 -22 2 15 2 37 0 50 -2 12 -4 0 -4 -28z"/>
<path d="M12033 8270 c0 -36 2 -50 4 -32 2 17 2 47 0 65 -2 17 -4 3 -4 -33z"/>
<path d="M12015 7963 c-11 -292 0 -886 19 -1071 22 -208 60 -457 101 -659 37
-186 76 -346 81 -340 3 2 -9 60 -25 128 -35 146 -92 472 -120 684 -40 308 -46
426 -46 953 0 281 -1 512 -1 512 -1 0 -5 -93 -9 -207z"/>
<path d="M12203 7605 c0 -44 2 -61 4 -37 2 23 2 59 0 80 -2 20 -4 1 -4 -43z"/>
<path d="M12214 7380 c0 -52 1 -74 3 -47 2 26 2 68 0 95 -2 26 -3 4 -3 -48z"/>
<path d="M12222 7239 c-4 -105 47 -504 93 -729 40 -198 131 -527 142 -516 3 2
-6 40 -21 83 -95 292 -169 703 -209 1168 -4 40 -4 40 -5 -6z"/>
<path d="M11873 7155 c0 -38 2 -53 4 -32 2 20 2 52 0 70 -2 17 -4 1 -4 -38z"/>
<path d="M11534 6925 c0 -77 2 -107 3 -67 2 40 2 103 0 140 -2 37 -3 4 -3 -73z"/>
<path d="M11883 7015 c0 -27 2 -38 4 -22 2 15 2 37 0 50 -2 12 -4 0 -4 -28z"/>
<path d="M11892 6905 c0 -16 2 -22 5 -12 2 9 2 23 0 30 -3 6 -5 -1 -5 -18z"/>
<path d="M11591 6124 c0 -11 3 -14 6 -6 3 7 2 16 -1 19 -3 4 -6 -2 -5 -13z"/>
<path d="M11601 6054 c0 -11 3 -14 6 -6 3 7 2 16 -1 19 -3 4 -6 -2 -5 -13z"/>
<path d="M11612 5990 c0 -14 2 -19 5 -12 2 6 2 18 0 25 -3 6 -5 1 -5 -13z"/>
<path d="M10983 5940 c0 -30 2 -43 4 -27 2 15 2 39 0 55 -2 15 -4 2 -4 -28z"/>
<path d="M11622 5930 c0 -14 2 -19 5 -12 2 6 2 18 0 25 -3 6 -5 1 -5 -13z"/>
<path d="M11631 5874 c0 -11 3 -14 6 -6 3 7 2 16 -1 19 -3 4 -6 -2 -5 -13z"/>
<path d="M3911 11634 c0 -11 3 -14 6 -6 3 7 2 16 -1 19 -3 4 -6 -2 -5 -13z"/>
<path d="M3922 11570 c0 -14 2 -19 5 -12 2 6 2 18 0 25 -3 6 -5 1 -5 -13z"/>
<path d="M3932 11500 c0 -19 2 -27 5 -17 2 9 2 25 0 35 -3 9 -5 1 -5 -18z"/>
<path d="M3942 11440 c0 -14 8 -72 18 -130 9 -58 18 -94 18 -80 1 14 -7 72
-17 130 -10 58 -19 94 -19 80z"/>
<path d="M3982 11175 c0 -16 2 -22 5 -12 2 9 2 23 0 30 -3 6 -5 -1 -5 -18z"/>
<path d="M3992 11095 c0 -16 2 -22 5 -12 2 9 2 23 0 30 -3 6 -5 -1 -5 -18z"/>
<path d="M4003 11025 c0 -22 2 -30 4 -17 2 12 2 30 0 40 -3 9 -5 -1 -4 -23z"/>
<path d="M4011 10965 c-1 -21 21 -165 143 -930 149 -935 188 -1319 199 -1945
2 -117 3 -111 5 45 5 485 -44 983 -178 1815 -27 168 -74 463 -105 655 -60 378
-62 390 -64 360z"/>
<path d="M4281 10364 c0 -11 3 -14 6 -6 3 7 2 16 -1 19 -3 4 -6 -2 -5 -13z"/>
<path d="M4292 10320 c0 -14 2 -19 5 -12 2 6 2 18 0 25 -3 6 -5 1 -5 -13z"/>
<path d="M4302 10270 c0 -14 2 -19 5 -12 2 6 2 18 0 25 -3 6 -5 1 -5 -13z"/>
<path d="M4312 10220 c0 -14 2 -19 5 -12 2 6 2 18 0 25 -3 6 -5 1 -5 -13z"/>
<path d="M4322 10170 c0 -14 2 -19 5 -12 2 6 2 18 0 25 -3 6 -5 1 -5 -13z"/>
<path d="M4332 10120 c0 -14 2 -19 5 -12 2 6 2 18 0 25 -3 6 -5 1 -5 -13z"/>
<path d="M4342 10065 c0 -16 2 -22 5 -12 2 9 2 23 0 30 -3 6 -5 -1 -5 -18z"/>
<path d="M4352 10010 c0 -14 2 -19 5 -12 2 6 2 18 0 25 -3 6 -5 1 -5 -13z"/>
<path d="M4361 9967 c-1 -10 19 -112 44 -227 85 -399 161 -877 195 -1238 35
-373 43 -571 38 -970 -3 -210 -3 -381 -2 -379 2 2 7 124 13 272 19 560 -24
1143 -134 1791 -51 297 -152 793 -154 751z"/>
<path d="M4452 8485 c0 -16 2 -22 5 -12 2 9 2 23 0 30 -3 6 -5 -1 -5 -18z"/>
<path d="M4463 8350 c0 -25 2 -35 4 -22 2 12 2 32 0 45 -2 12 -4 2 -4 -23z"/>
<path d="M4473 8170 c0 -47 2 -66 4 -42 2 23 2 61 0 85 -2 23 -4 4 -4 -43z"/>
<path d="M4487 7800 c7 -417 -14 -820 -62 -1175 -24 -177 -84 -500 -116 -629
-16 -65 -28 -120 -26 -123 15 -15 133 559 161 787 46 365 67 912 47 1255 -8
156 -9 146 -4 -115z"/>
<path d="M4294 7500 c0 -69 1 -97 3 -62 2 34 2 90 0 125 -2 34 -3 6 -3 -63z"/>
<path d="M4280 7315 c0 -87 -39 -446 -65 -603 -31 -184 -88 -434 -132 -587
-41 -140 -48 -171 -33 -135 39 87 134 472 169 680 42 250 85 700 68 700 -4 0
-7 -25 -7 -55z"/>
<path d="M4963 7160 c0 -36 2 -50 4 -32 2 17 2 47 0 65 -2 17 -4 3 -4 -33z"/>
<path d="M4623 7075 c0 -33 2 -45 4 -27 2 18 2 45 0 60 -2 15 -4 0 -4 -33z"/>
<path d="M4613 6955 c0 -22 2 -30 4 -17 2 12 2 30 0 40 -3 9 -5 -1 -4 -23z"/>
<path d="M4963 6745 c0 -33 2 -45 4 -27 2 18 2 45 0 60 -2 15 -4 0 -4 -33z"/>
<path d="M4891 6024 c0 -11 3 -14 6 -6 3 7 2 16 -1 19 -3 4 -6 -2 -5 -13z"/>
<path d="M4882 5960 c0 -14 2 -19 5 -12 2 6 2 18 0 25 -3 6 -5 1 -5 -13z"/>
<path d="M4872 5900 c0 -14 2 -19 5 -12 2 6 2 18 0 25 -3 6 -5 1 -5 -13z"/>
<path d="M4861 5844 c0 -11 3 -14 6 -6 3 7 2 16 -1 19 -3 4 -6 -2 -5 -13z"/>
<path d="M7613 12090 c17 -52 91 -229 94 -226 5 5 -73 205 -88 226 -10 13 -10
13 -6 0z"/>
<path d="M7860 11945 c0 -5 5 -17 10 -25 5 -8 10 -10 10 -5 0 6 -5 17 -10 25
-5 8 -10 11 -10 5z"/>
<path d="M7880 11895 c0 -5 5 -17 10 -25 5 -8 10 -10 10 -5 0 6 -5 17 -10 25
-5 8 -10 11 -10 5z"/>
<path d="M9150 12008 c0 -9 -27 -69 -60 -134 -33 -66 -51 -108 -40 -94 47 59
120 223 106 237 -3 4 -6 -1 -6 -9z"/>
<path d="M7355 11970 c8 -29 77 -156 100 -185 8 -11 -10 30 -41 90 -63 120
-70 132 -59 95z"/>
<path d="M7724 11461 c4 -6 65 -49 135 -96 71 -46 148 -105 171 -132 24 -26
40 -41 35 -33 -27 51 -71 89 -188 167 -168 112 -161 108 -153 94z"/>
<path d="M8744 11449 c-3 -6 -48 -41 -98 -79 -101 -75 -151 -126 -172 -176
-23 -56 -15 -62 10 -9 25 53 97 128 181 187 49 36 104 88 92 88 -3 0 -9 -5
-13 -11z"/>
<path d="M9671 10775 c-1 -34 38 -98 69 -115 28 -15 25 -8 -14 33 -19 20 -38
53 -44 74 -10 37 -10 37 -11 8z"/>
<path d="M6796 10762 c39 -39 62 -86 75 -155 11 -60 3 -110 -31 -200 -21 -54
-27 -94 -11 -69 6 10 19 2 49 -33 67 -76 77 -106 77 -225 0 -58 -4 -116 -8
-130 -7 -22 -6 -21 9 4 10 18 18 62 21 110 6 104 -18 173 -86 248 l-48 53 20
45 c28 65 35 196 12 256 -19 50 -56 99 -88 116 -15 8 -13 2 9 -20z"/>
<path d="M9851 10676 c13 -11 89 -55 89 -51 0 7 -73 55 -84 55 -5 0 -7 -2 -5
-4z"/>
<path d="M9548 10274 c-4 -17 -27 -54 -51 -82 -56 -66 -92 -176 -92 -277 0
-55 6 -83 28 -130 15 -33 35 -67 43 -76 14 -16 12 -21 -26 -55 -23 -21 -48
-50 -56 -66 -22 -43 -36 -128 -27 -173 6 -35 8 -30 14 46 7 99 35 159 95 205
l35 27 -20 21 c-11 12 -32 53 -47 91 -22 58 -25 81 -21 135 7 88 40 187 79
240 45 59 60 88 56 108 -3 10 -6 5 -10 -14z"/>
<path d="M10009 10206 c33 -39 33 -40 29 -126 -3 -61 -9 -96 -22 -114 -17 -27
-17 -28 13 -62 46 -52 63 -92 69 -159 8 -108 -35 -218 -105 -268 -41 -30 -38
-35 6 -12 70 36 121 142 121 253 0 77 -24 139 -72 189 -26 27 -29 35 -19 47 7
9 17 50 22 92 12 91 2 128 -43 170 l-32 29 33 -39z"/>
<path d="M7005 9961 c49 -31 87 -77 107 -133 17 -48 19 -50 14 -15 -3 21 -15
54 -27 73 -22 36 -92 94 -113 94 -6 0 3 -8 19 -19z"/>
<path d="M6992 9640 c98 -81 119 -249 48 -395 l-29 -60 30 34 c65 78 82 225
36 325 -24 52 -89 126 -112 126 -5 0 7 -13 27 -30z"/>
<path d="M9946 9435 c3 -11 13 -39 21 -63 21 -60 14 -191 -14 -254 -16 -36
-18 -45 -7 -41 20 7 90 -41 108 -74 7 -16 17 -48 21 -71 4 -24 20 -72 35 -106
63 -139 59 -289 -11 -388 -30 -42 -17 -45 15 -3 49 64 60 102 60 205 0 89 -3
101 -41 190 -23 52 -45 112 -49 133 -8 48 -36 82 -86 108 -30 15 -38 24 -32
37 42 98 42 208 0 293 -14 30 -23 45 -20 34z"/>
<path d="M7182 9247 c23 -18 53 -51 65 -72 13 -22 23 -34 23 -26 0 25 -41 81
-78 106 -53 36 -61 30 -10 -8z"/>
<path d="M7925 9245 c5 -11 16 -49 26 -85 10 -36 18 -56 18 -45 1 35 -19 107
-36 129 -14 19 -15 20 -8 1z"/>
<path d="M7971 9074 c0 -11 3 -14 6 -6 3 7 2 16 -1 19 -3 4 -6 -2 -5 -13z"/>
<path d="M8057 8927 c24 -28 36 -56 49 -118 29 -135 70 -173 194 -183 l65 -6
-82 19 c-45 11 -91 25 -102 31 -29 15 -47 55 -61 130 -15 82 -34 124 -68 146
-25 17 -25 15 5 -19z"/>
<path d="M7300 8925 c0 -20 45 -65 82 -83 72 -33 97 -35 31 -2 -34 17 -74 45
-88 61 -14 17 -25 28 -25 24z"/>
<path d="M6352 8797 c-14 -139 -7 -195 35 -284 24 -52 121 -169 131 -159 3 3
-11 23 -31 45 -54 60 -83 109 -107 181 -20 59 -22 77 -15 203 3 75 5 137 3
137 -2 0 -10 -56 -16 -123z"/>
<path d="M6740 8840 c-40 -56 -63 -139 -64 -230 0 -85 12 -127 51 -172 13 -14
13 -19 -1 -40 -8 -13 -20 -47 -26 -75 -22 -102 23 -212 109 -270 51 -35 58
-27 10 10 -89 68 -132 204 -95 302 19 48 24 52 45 33 20 -18 5 7 -30 52 -41
53 -52 102 -46 198 4 69 11 96 39 153 19 38 33 69 32 69 -2 0 -12 -13 -24 -30z"/>
<path d="M7704 8777 c-54 -72 -68 -107 -68 -177 0 -64 25 -137 55 -155 6 -4 1
12 -11 35 -46 89 -37 189 25 281 43 63 42 73 -1 16z"/>
<path d="M8030 8454 l-25 -15 25 7 c14 3 29 10 35 15 15 14 -7 10 -35 -7z"/>
<path d="M10051 8327 c-1 -85 -19 -129 -79 -191 -27 -28 -38 -44 -25 -37 88
45 143 177 113 271 -6 18 -8 6 -9 -43z"/>
<path d="M9804 8270 c0 -110 -15 -152 -83 -224 -39 -41 -46 -53 -25 -38 100
69 144 191 115 317 -5 19 -7 -2 -7 -55z"/>
<path d="M8781 8284 c-1 -37 7 -68 25 -109 26 -55 27 -84 9 -140 -4 -14 -2
-12 9 5 22 36 20 99 -6 145 -11 22 -24 65 -28 95 l-7 55 -2 -51z"/>
<path d="M6441 8189 c-12 -35 -21 -86 -21 -113 0 -58 34 -140 70 -171 l24 -20
-22 32 c-55 78 -67 166 -38 273 21 75 13 74 -13 -1z"/>
<path d="M10080 8000 c0 -70 -26 -147 -68 -199 -43 -55 -48 -69 -13 -36 62 57
85 109 89 207 3 48 2 88 -2 88 -3 0 -6 -27 -6 -60z"/>
<path d="M9661 7935 c-2 -31 -47 -92 -93 -125 -48 -35 -37 -41 13 -7 40 27 93
108 86 134 -4 16 -5 16 -6 -2z"/>
<path d="M6805 7890 c24 -91 129 -172 219 -169 26 1 22 3 -19 13 -92 23 -131
52 -180 136 -16 27 -24 35 -20 20z"/>
<path d="M7746 7841 c-16 -121 -89 -237 -179 -282 -42 -22 -124 -30 -167 -16
l-25 8 25 -15 c37 -22 125 -20 177 5 62 30 135 115 155 180 31 101 37 131 29
152 -6 16 -9 9 -15 -32z"/>
<path d="M7770 7824 c0 -40 95 -103 155 -104 40 0 96 16 120 35 18 13 15 13
-24 0 -91 -31 -177 -14 -224 46 -15 19 -27 29 -27 23z"/>
<path d="M8589 7761 c-13 -10 -31 -21 -39 -24 -12 -4 -12 -6 2 -6 9 -1 30 10
45 24 33 29 27 34 -8 6z"/>
<path d="M8403 7695 c-12 -8 -39 -19 -60 -24 -36 -8 -36 -9 -8 -10 17 0 48 10
70 24 22 13 35 25 30 25 -6 0 -20 -7 -32 -15z"/>
<path d="M9867 7585 c4 -11 8 -52 8 -91 0 -61 -4 -77 -30 -120 -58 -92 -158
-135 -256 -110 -55 15 -57 3 -2 -15 43 -14 129 -7 171 15 45 23 93 75 116 126
25 56 26 143 2 185 -10 17 -14 21 -9 10z"/>
<path d="M9271 7356 c-13 -13 -46 -34 -74 -46 -67 -29 -189 -25 -257 9 -42 21
-44 21 -22 2 29 -25 112 -51 164 -51 72 0 127 20 176 66 26 24 44 43 41 44 -3
0 -16 -11 -28 -24z"/>
<path d="M7506 7333 c-11 -49 -80 -149 -127 -182 -24 -18 -66 -36 -100 -43
-32 -7 -54 -15 -47 -19 19 -12 -28 -65 -72 -83 -22 -9 -51 -16 -64 -16 -33 0
-102 25 -137 51 -34 24 -89 114 -89 145 0 18 -6 20 -51 20 -45 -1 -54 3 -80
32 -16 18 -29 42 -30 55 0 12 -3 16 -6 10 -8 -22 17 -81 43 -98 27 -18 70 -22
97 -11 13 6 17 3 17 -13 0 -58 65 -148 132 -182 94 -48 190 -28 238 51 14 22
31 40 39 40 82 1 193 95 230 194 12 32 20 64 18 70 -2 6 -7 -3 -11 -21z"/>
<path d="M9504 7062 c-17 -20 -55 -50 -84 -66 -44 -24 -60 -28 -111 -24 -48 3
-66 10 -101 38 l-43 33 29 -31 c79 -86 197 -81 289 12 31 31 64 76 55 76 -2 0
-17 -17 -34 -38z"/>
<path d="M7417 10619 c7 -7 15 -10 18 -7 3 3 -2 9 -12 12 -14 6 -15 5 -6 -5z"/>
<path d="M9035 10595 c-27 -13 -47 -24 -43 -24 10 -1 98 38 98 44 0 7 3 8 -55
-20z"/>
<path d="M7473 10594 c34 -18 210 -64 241 -63 11 0 -15 9 -59 19 -44 10 -107
28 -139 39 -70 25 -82 26 -43 5z"/>
<path d="M8898 10543 c7 -3 16 -2 19 1 4 3 -2 6 -13 5 -11 0 -14 -3 -6 -6z"/>
<path d="M8848 10533 c6 -2 18 -2 25 0 6 3 1 5 -13 5 -14 0 -19 -2 -12 -5z"/>
<path d="M8710 10514 l-75 -13 65 5 c36 3 81 9 100 14 56 13 -3 9 -90 -6z"/>
<path d="M9040 9931 c-19 -11 -162 -58 -215 -70 -22 -5 -31 -9 -19 -10 36 -2
170 37 221 63 26 14 44 25 38 25 -5 0 -17 -4 -25 -8z"/>
<path d="M7530 9911 c21 -15 196 -54 212 -48 7 3 4 6 -8 6 -17 1 -113 23 -199
47 -16 4 -17 3 -5 -5z"/>
<path d="M7773 9853 c9 -2 23 -2 30 0 6 3 -1 5 -18 5 -16 0 -22 -2 -12 -5z"/>
<path d="M8748 9843 c6 -2 18 -2 25 0 6 3 1 5 -13 5 -14 0 -19 -2 -12 -5z"/>
<path d="M8785 9234 c-87 -21 -119 -32 -85 -29 55 6 249 51 258 60 10 10 -36
2 -173 -31z"/>
<path d="M8865 6609 c-45 -12 -56 -17 -30 -14 42 5 141 33 115 33 -8 0 -46 -9
-85 -19z"/>
<path d="M8753 6583 c9 -2 23 -2 30 0 6 3 -1 5 -18 5 -16 0 -22 -2 -12 -5z"/>
<path d="M7550 6290 c8 -5 22 -9 30 -9 10 0 8 3 -5 9 -27 12 -43 12 -25 0z"/>
<path d="M8900 6290 c-8 -5 -10 -10 -5 -10 6 0 17 5 25 10 8 5 11 10 5 10 -5
0 -17 -5 -25 -10z"/>
<path d="M7638 6263 c7 -3 16 -2 19 1 4 3 -2 6 -13 5 -11 0 -14 -3 -6 -6z"/>
<path d="M7678 6253 c7 -3 16 -2 19 1 4 3 -2 6 -13 5 -11 0 -14 -3 -6 -6z"/>
<path d="M7550 5986 c0 -8 158 -54 210 -61 25 -3 -4 7 -65 24 -60 16 -118 32
-127 36 -10 4 -18 5 -18 1z"/>
<path d="M8760 5920 c-20 -6 -21 -8 -5 -8 11 0 31 4 45 8 20 6 21 8 5 8 -11 0
-31 -4 -45 -8z"/>
<path d="M7818 5913 c7 -3 16 -2 19 1 4 3 -2 6 -13 5 -11 0 -14 -3 -6 -6z"/>
<path d="M8698 5903 c6 -2 18 -2 25 0 6 3 1 5 -13 5 -14 0 -19 -2 -12 -5z"/>
<path d="M7561 5631 c19 -12 216 -61 239 -60 8 0 -34 13 -95 28 -60 15 -121
31 -135 35 -19 5 -21 5 -9 -3z"/>
<path d="M7531 5281 c19 -12 158 -51 179 -50 8 0 -21 11 -65 23 -44 12 -91 26
-105 30 -18 5 -21 4 -9 -3z"/>
<path d="M8925 5245 c-40 -14 -40 -14 -5 -8 19 3 42 9 50 14 22 12 1 9 -45 -6z"/>
<path d="M8858 5223 c7 -3 16 -2 19 1 4 3 -2 6 -13 5 -11 0 -14 -3 -6 -6z"/>
<path d="M8808 5213 c6 -2 18 -2 25 0 6 3 1 5 -13 5 -14 0 -19 -2 -12 -5z"/>
<path d="M7995 21958 c-4 -24 -22 -114 -41 -201 -39 -183 -42 -242 -14 -297
34 -67 130 -121 241 -135 33 -4 24 0 -34 18 -99 31 -156 69 -184 127 -30 57
-29 88 6 261 30 147 47 269 38 269 -3 0 -8 -19 -12 -42z"/>
<path d="M14965 21845 c3 -38 12 -158 21 -265 9 -107 19 -292 24 -410 l8 -215
-3 270 c-3 248 -22 516 -45 640 -9 47 -9 46 -5 -20z"/>
<path d="M1526 21825 c-36 -335 -54 -727 -39 -845 7 -51 9 -22 10 140 1 113
11 326 23 473 20 249 24 391 6 232z"/>
<path d="M14301 21670 c-1 -88 15 -156 69 -295 50 -129 61 -180 61 -283 0
-103 -21 -152 -118 -275 -126 -160 -182 -290 -190 -448 -7 -121 12 -190 61
-220 40 -24 54 -24 105 4 31 16 57 45 99 107 75 112 105 128 206 112 106 -18
176 10 249 100 33 42 83 128 72 128 -2 0 -14 -18 -25 -41 -32 -63 -118 -144
-173 -164 -43 -16 -56 -17 -113 -6 -69 14 -123 9 -161 -16 -13 -9 -48 -53 -78
-98 -39 -59 -64 -87 -91 -100 -77 -37 -117 22 -116 170 1 155 55 291 178 456
106 140 118 165 122 269 5 104 -8 166 -63 295 -56 131 -76 203 -85 300 l-7 80
-2 -75z"/>
<path d="M2198 21665 c-11 -99 -32 -172 -87 -304 -58 -137 -76 -218 -68 -306
8 -79 35 -135 123 -250 117 -154 184 -324 184 -472 0 -131 -42 -189 -114 -159
-34 14 -52 35 -114 125 -66 97 -75 100 -267 89 -97 -5 -149 35 -253 188 -7 11
-5 3 4 -16 66 -141 184 -215 299 -189 98 22 144 -4 228 -131 49 -74 78 -98
129 -107 33 -5 41 -2 72 29 111 111 49 413 -133 644 -92 117 -122 177 -128
259 -7 85 9 165 63 305 51 132 77 245 72 316 -3 48 -3 47 -10 -21z"/>
<path d="M7815 21241 c33 -11 119 -41 190 -67 125 -46 134 -48 240 -48 124 -1
187 14 341 84 113 50 97 51 -37 1 -238 -89 -326 -91 -556 -12 -82 28 -168 53
-193 56 -44 5 -44 5 15 -14z"/>
<path d="M7390 21139 c-165 -93 -315 -191 -615 -405 -115 -83 -252 -178 -302
-212 -51 -35 -93 -65 -93 -68 0 -11 174 106 535 359 210 148 365 247 560 360
44 26 76 47 70 47 -5 0 -75 -37 -155 -81z"/>
<path d="M9030 21171 c164 -94 307 -186 553 -355 471 -325 557 -383 557 -373
0 2 -32 26 -72 53 -40 27 -160 111 -268 188 -286 203 -578 395 -715 470 -139
76 -181 89 -55 17z"/>
<path d="M7599 20814 c12 -9 48 -29 79 -45 l57 -29 -103 0 c-201 0 -436 -67
-942 -268 -184 -73 -330 -119 -463 -146 -84 -17 -122 -29 -132 -42 -8 -11 -15
-22 -15 -25 0 -3 62 5 138 18 159 26 296 68 547 165 277 108 518 186 655 215
112 23 140 25 275 20 113 -4 181 -12 275 -33 109 -24 146 -28 285 -28 141 1
174 4 275 29 92 22 145 29 266 32 135 5 167 2 287 -21 133 -26 402 -111 567
-179 137 -57 383 -145 466 -167 42 -11 115 -24 162 -30 48 -6 99 -15 115 -20
30 -10 34 -3 15 23 -9 11 -59 27 -148 46 -146 32 -249 67 -635 216 -401 155
-565 195 -804 195 l-136 0 70 45 c39 24 67 45 63 45 -3 0 -57 -25 -120 -55
-145 -71 -252 -95 -430 -95 -70 0 -162 5 -205 11 -117 16 -329 72 -407 108
-77 35 -91 39 -57 15z"/>
<path d="M12271 20614 c0 -11 3 -14 6 -6 3 7 2 16 -1 19 -3 4 -6 -2 -5 -13z"/>
<path d="M4236 20575 c13 -97 148 -660 207 -865 124 -430 245 -664 456 -884
144 -149 307 -275 416 -320 63 -27 48 -13 -23 22 -98 47 -191 121 -327 257
-149 149 -235 269 -324 450 -105 213 -163 393 -282 870 -96 386 -129 513 -123
470z"/>
<path d="M12182 20247 c-170 -712 -280 -1008 -472 -1267 -155 -209 -392 -412
-558 -480 -26 -10 -41 -19 -33 -19 31 -2 184 82 258 141 369 293 538 566 699
1131 71 248 203 821 192 832 -2 2 -40 -150 -86 -338z"/>
<path d="M6073 20340 c-37 -22 -83 -105 -83 -150 0 -39 15 -38 36 3 9 17 36
62 60 100 45 69 42 81 -13 47z"/>
<path d="M10382 20352 c16 -37 112 -192 119 -192 18 0 9 61 -16 111 -15 28
-40 58 -58 69 -34 21 -51 25 -45 12z"/>
<path d="M6870 20151 c8 -5 113 -48 232 -95 372 -147 436 -157 1083 -160 807
-5 841 1 1378 224 43 18 76 34 74 36 -2 2 -99 -29 -215 -70 -246 -87 -378
-121 -517 -135 -132 -14 -1160 -13 -1295 0 -150 15 -253 41 -512 130 -223 77
-259 88 -228 70z"/>
<path d="M4242 19640 c0 -14 2 -19 5 -12 2 6 2 18 0 25 -3 6 -5 1 -5 -13z"/>
<path d="M12252 19610 c0 -14 2 -19 5 -12 2 6 2 18 0 25 -3 6 -5 1 -5 -13z"/>
<path d="M4252 19590 c0 -14 2 -19 5 -12 2 6 2 18 0 25 -3 6 -5 1 -5 -13z"/>
<path d="M12242 19560 c0 -14 2 -19 5 -12 2 6 2 18 0 25 -3 6 -5 1 -5 -13z"/>
<path d="M4261 19550 c-3 -67 88 -340 161 -481 76 -148 165 -266 284 -376 139
-128 148 -125 13 5 -132 127 -214 237 -292 390 -65 129 -90 195 -133 356 -18
66 -33 114 -33 106z"/>
<path d="M12206 19427 c-57 -207 -148 -402 -258 -552 -28 -38 -103 -121 -167
-184 -75 -74 -91 -93 -46 -54 160 139 254 255 343 423 49 92 126 299 152 408
22 93 5 65 -24 -41z"/>
<path d="M8080 19410 c-220 -17 -438 -64 -623 -132 -59 -23 -106 -42 -104 -44
1 -2 63 17 137 40 461 149 940 163 1399 41 112 -30 132 -27 29 4 -233 68 -605
109 -838 91z"/>
<path d="M12661 18404 c0 -11 3 -14 6 -6 3 7 2 16 -1 19 -3 4 -6 -2 -5 -13z"/>
<path d="M3842 18390 c0 -14 2 -19 5 -12 2 6 2 18 0 25 -3 6 -5 1 -5 -13z"/>
<path d="M12652 18345 c0 -16 2 -22 5 -12 2 9 2 23 0 30 -3 6 -5 -1 -5 -18z"/>
<path d="M3853 18315 c0 -22 2 -30 4 -17 2 12 2 30 0 40 -3 9 -5 -1 -4 -23z"/>
<path d="M10199 18283 c-28 -74 32 -172 116 -188 26 -5 25 -3 -11 14 -76 35
-118 113 -95 174 6 15 8 27 6 27 -3 0 -10 -12 -16 -27z"/>
<path d="M6297 18263 c9 -72 -37 -138 -112 -158 -21 -6 -25 -9 -13 -12 28 -7
88 27 114 66 25 37 32 102 15 130 -6 10 -8 1 -4 -26z"/>
<path d="M12643 18260 c0 -25 2 -35 4 -22 2 12 2 32 0 45 -2 12 -4 2 -4 -23z"/>
<path d="M3863 18205 c0 -33 2 -45 4 -27 2 18 2 45 0 60 -2 15 -4 0 -4 -33z"/>
<path d="M12633 18125 c0 -38 2 -53 4 -32 2 20 2 52 0 70 -2 17 -4 1 -4 -38z"/>
<path d="M3873 18040 c0 -47 2 -66 4 -42 2 23 2 61 0 85 -2 23 -4 4 -4 -43z"/>
<path d="M12623 17965 c0 -38 2 -53 4 -32 2 20 2 52 0 70 -2 17 -4 1 -4 -38z"/>
<path d="M7480 18001 c-264 -41 -434 -98 -903 -303 -349 -152 -600 -253 -892
-359 -104 -37 -185 -68 -178 -69 41 -1 613 214 898 338 88 38 250 109 360 156
363 159 607 225 915 249 32 3 27 4 -20 4 -36 1 -117 -7 -180 -16z"/>
<path d="M8870 18009 c297 -26 550 -102 990 -296 168 -74 404 -174 525 -223
225 -90 556 -210 578 -210 7 1 -73 32 -178 71 -303 111 -513 198 -1015 417
-202 88 -424 167 -557 198 -105 24 -322 54 -383 53 -42 -1 -33 -4 40 -10z"/>
<path d="M10995 17270 c11 -5 27 -9 35 -9 9 0 8 4 -5 9 -11 5 -27 9 -35 9 -9
0 -8 -4 5 -9z"/>
<path d="M5400 17245 c-19 -7 -28 -13 -20 -13 8 0 31 6 50 13 19 7 28 13 20
13 -8 0 -31 -6 -50 -13z"/>
<path d="M11144 17224 c39 -13 75 -24 80 -23 6 0 -20 11 -58 25 -39 13 -75 24
-80 23 -6 0 20 -11 58 -25z"/>
<path d="M4010 17236 c0 -26 182 -267 244 -324 84 -77 171 -105 263 -83 26 7
59 21 73 32 25 19 24 19 -20 -1 -60 -26 -160 -26 -217 -1 -74 34 -154 119
-287 305 -31 43 -56 75 -56 72z"/>
<path d="M12455 17188 c-44 -68 -149 -200 -199 -252 -26 -26 -72 -59 -102 -73
-49 -22 -66 -25 -129 -21 -50 3 -84 12 -110 26 -20 12 -33 17 -30 12 12 -20
87 -51 134 -57 81 -9 150 18 226 89 64 59 180 204 225 281 30 51 19 47 -15 -5z"/>
<path d="M3482 10160 c0 -14 2 -19 5 -12 2 6 2 18 0 25 -3 6 -5 1 -5 -13z"/>
<path d="M15723 6103 c9 -2 25 -2 35 0 9 3 1 5 -18 5 -19 0 -27 -2 -17 -5z"/>
<path d="M15547 6083 c-43 -8 -76 -17 -74 -19 2 -2 53 5 113 15 60 11 93 19
74 19 -19 0 -70 -7 -113 -15z"/>
<path d="M663 6083 c9 -2 23 -2 30 0 6 3 -1 5 -18 5 -16 0 -22 -2 -12 -5z"/>
<path d="M723 6073 c9 -2 23 -2 30 0 6 3 -1 5 -18 5 -16 0 -22 -2 -12 -5z"/>
<path d="M845 6050 c44 -11 87 -19 95 -18 24 1 -122 36 -150 36 -14 0 11 -8
55 -18z"/>
<path d="M15438 6053 c7 -3 16 -2 19 1 4 3 -2 6 -13 5 -11 0 -14 -3 -6 -6z"/>
<path d="M968 6023 c7 -3 16 -2 19 1 4 3 -2 6 -13 5 -11 0 -14 -3 -6 -6z"/>
<path d="M1110 5985 c167 -49 401 -130 905 -313 61 -22 182 -70 270 -107 88
-37 246 -103 350 -147 105 -44 196 -82 203 -85 6 -3 12 -3 12 0 0 5 -64 34
-445 195 -304 129 -529 214 -1025 383 -161 55 -345 109 -369 109 -9 -1 36 -16
99 -35z"/>
<path d="M14735 5915 c-25 -12 -26 -14 -5 -9 28 7 60 23 45 23 -5 0 -23 -6
-40 -14z"/>
<path d="M14640 5883 c-8 -3 -89 -37 -180 -75 -192 -82 -266 -118 -565 -278
-640 -342 -898 -458 -1410 -633 -721 -247 -1002 -361 -1252 -511 -123 -74
-264 -170 -334 -229 -19 -16 -7 -10 26 13 405 282 625 387 1283 616 880 304
962 340 1792 783 204 109 381 193 640 304 33 14 33 22 0 10z"/>
<path d="M2870 5320 c8 -5 20 -10 25 -10 6 0 3 5 -5 10 -8 5 -19 10 -25 10 -5
0 -3 -5 5 -10z"/>
<path d="M3020 5260 c8 -5 20 -10 25 -10 6 0 3 5 -5 10 -8 5 -19 10 -25 10 -5
0 -3 -5 5 -10z"/>
<path d="M3070 5240 c8 -5 20 -10 25 -10 6 0 3 5 -5 10 -8 5 -19 10 -25 10 -5
0 -3 -5 5 -10z"/>
<path d="M4311 4816 c2 -3 60 -25 129 -51 176 -65 369 -150 635 -279 301 -147
535 -283 675 -395 25 -19 39 -28 31 -18 -7 9 -59 50 -115 91 -273 198 -855
486 -1265 627 -85 29 -98 33 -90 25z"/>
<path d="M6851 4504 c0 -11 3 -14 6 -6 3 7 2 16 -1 19 -3 4 -6 -2 -5 -13z"/>
<path d="M6841 4464 c0 -11 3 -14 6 -6 3 7 2 16 -1 19 -3 4 -6 -2 -5 -13z"/>
<path d="M6831 4424 c0 -11 3 -14 6 -6 3 7 2 16 -1 19 -3 4 -6 -2 -5 -13z"/>
<path d="M6776 4259 c-28 -76 -109 -192 -169 -239 -71 -57 -116 -82 -225 -125
-51 -21 -91 -39 -89 -41 6 -6 190 66 234 92 56 33 157 127 195 182 33 47 81
158 76 174 -2 5 -12 -14 -22 -43z"/>
<path d="M9710 4306 c0 -19 123 -243 162 -293 66 -87 202 -165 311 -178 38 -5
37 -4 -13 10 -159 45 -274 131 -343 257 -102 186 -117 212 -117 204z"/>
<path d="M10839 4113 c-13 -16 -12 -17 4 -4 16 13 21 21 13 21 -2 0 -10 -8
-17 -17z"/>
<path d="M7165 4035 c-60 -142 -173 -279 -297 -361 -37 -25 -113 -67 -170 -94
-118 -56 -124 -64 -17 -20 195 81 339 195 433 343 22 36 88 189 83 194 -2 2
-16 -26 -32 -62z"/>
<path d="M9311 4099 c-2 -13 57 -148 82 -192 85 -145 234 -265 429 -345 112
-47 108 -38 -8 17 -247 118 -364 230 -465 445 -21 44 -38 78 -38 75z"/>
<path d="M7759 3857 c15 -19 71 -61 71 -54 0 2 -19 19 -42 37 -24 19 -37 26
-29 17z"/>
<path d="M8680 3814 c-36 -31 -101 -73 -145 -94 -202 -96 -376 -88 -605 31
-52 27 -84 40 -70 29 42 -33 150 -86 234 -115 198 -67 377 -32 556 112 65 52
111 94 99 92 -2 0 -33 -25 -69 -55z"/>
<path d="M9930 3520 c8 -5 20 -10 25 -10 6 0 3 5 -5 10 -8 5 -19 10 -25 10 -5
0 -3 -5 5 -10z"/>
<path d="M10041 3037 c-65 -168 -73 -205 -76 -377 l-3 -155 8 150 c9 159 25
234 89 399 17 44 29 81 27 83 -2 3 -22 -43 -45 -100z"/>
<path d="M6443 3080 c2 -8 21 -65 40 -126 20 -62 41 -147 46 -190 l10 -79 -4
83 c-3 60 -14 112 -40 188 -19 58 -40 113 -46 122 -8 13 -9 13 -6 2z"/>
<path d="M6543 2625 c0 -22 2 -30 4 -17 2 12 2 30 0 40 -3 9 -5 -1 -4 -23z"/>
<path d="M7301 1187 c2 -1 13 -9 24 -17 19 -14 19 -14 6 3 -7 9 -18 17 -24 17
-6 0 -8 -1 -6 -3z"/>
<path d="M9165 1154 c-27 -18 -45 -34 -39 -34 12 0 94 57 94 65 0 7 -1 7 -55
-31z"/>
<path d="M7364 1146 c11 -9 24 -16 30 -16 12 0 7 5 -24 19 -24 11 -24 11 -6
-3z"/>
<path d="M7448 1113 c7 -3 16 -2 19 1 4 3 -2 6 -13 5 -11 0 -14 -3 -6 -6z"/>
<path d="M9075 1110 c-13 -6 -15 -9 -5 -9 8 0 22 4 30 9 18 12 2 12 -25 0z"/>
<path d="M7505 1098 c21 -9 113 -11 315 -8 466 6 604 5 825 -2 159 -5 193 -4
140 4 -78 11 -639 16 -985 8 -124 -3 -247 -2 -275 2 -45 7 -47 6 -20 -4z"/>
<path d="M9028 1093 c7 -3 16 -2 19 1 4 3 -2 6 -13 5 -11 0 -14 -3 -6 -6z"/>
</g>
</svg>
