<?xml version="1.0" standalone="no"?>
<!DOCTYPE svg PUBLIC "-//W3C//DTD SVG 20010904//EN"
 "http://www.w3.org/TR/2001/REC-SVG-20010904/DTD/svg10.dtd">
<svg version="1.0" xmlns="http://www.w3.org/2000/svg"
 width="1650.000000pt" height="2210.000000pt" viewBox="0 0 1650.000000 2210.000000"
 preserveAspectRatio="xMidYMid meet">

<g transform="translate(0.000000,2210.000000) scale(0.100000,-0.100000)"
fill="#000000" stroke="none">
<path d="M4144 21933 c-20 -427 -5 -1357 32 -1933 18 -287 59 -659 71 -646 2
2 -3 70 -12 152 -19 192 -33 453 -40 779 l-6 260 44 -130 c100 -296 273 -575
476 -767 98 -93 214 -174 406 -283 163 -93 788 -403 1304 -650 928 -442 1297
-624 2121 -1045 567 -290 675 -341 858 -404 172 -59 305 -89 579 -131 361 -55
495 -87 676 -160 143 -59 193 -87 406 -230 218 -146 240 -157 571 -285 233
-90 530 -266 755 -446 196 -158 443 -416 612 -639 193 -257 417 -679 697
-1315 80 -182 102 -237 95 -244 -2 -2 -71 -20 -154 -39 -439 -104 -877 -307
-1405 -654 -185 -122 -224 -151 -415 -302 -468 -371 -941 -836 -1890 -1856
-281 -303 -375 -397 -380 -383 -3 7 -18 63 -34 123 -37 137 -39 123 -5 -36
l25 -120 -160 -167 c-610 -637 -1132 -1107 -1615 -1457 -288 -208 -913 -621
-1394 -922 -606 -378 -997 -650 -1307 -909 -152 -127 -459 -430 -566 -559
-298 -358 -522 -729 -644 -1069 -50 -140 -57 -187 -11 -79 42 99 48 98 20 -3
-93 -331 -237 -978 -293 -1310 -137 -812 -191 -1487 -191 -2379 0 -538 5 -657
28 -653 13 3 15 29 11 193 -7 332 -2 972 10 1200 53 996 188 1865 437 2810
123 466 147 525 327 810 100 158 332 468 366 489 4 3 -25 -73 -65 -170 -165
-395 -386 -1017 -495 -1394 -88 -302 -201 -789 -198 -853 0 -12 9 20 19 72
131 653 399 1482 738 2280 55 131 60 138 152 234 178 186 464 431 758 647 76
56 124 86 126 78 3 -7 7 -74 10 -148 7 -181 47 -455 106 -729 70 -330 147
-798 151 -935 2 -34 3 -36 6 -11 12 78 -48 498 -128 904 -75 377 -98 544 -106
776 l-6 180 189 126 c104 69 320 208 479 308 160 101 321 203 358 228 38 24
71 43 73 41 2 -2 -25 -67 -60 -144 -216 -477 -389 -1057 -595 -2004 -50 -228
-105 -471 -121 -539 -17 -68 -29 -125 -27 -127 6 -6 50 169 122 486 244 1072
397 1599 615 2120 103 245 86 225 291 358 99 64 248 163 331 220 83 56 153
100 156 98 2 -3 -3 -54 -12 -113 -70 -465 -130 -1143 -261 -2933 -32 -432 -95
-1076 -145 -1485 -142 -1145 -369 -2206 -630 -2947 -38 -107 -39 -127 -9 -128
11 0 154 442 219 675 183 654 341 1482 450 2350 81 653 125 1139 220 2470 60
832 123 1498 186 1954 14 102 27 188 30 193 3 5 46 36 96 69 494 333 925 703
1561 1341 225 226 409 408 411 406 1 -1 16 -55 33 -119 134 -493 395 -996 751
-1444 109 -137 452 -484 588 -594 l91 -74 17 -126 c45 -318 216 -1673 271
-2141 66 -554 204 -1647 270 -2135 36 -264 85 -637 110 -830 25 -192 59 -444
75 -560 69 -489 129 -1032 146 -1317 5 -96 9 -118 22 -118 13 0 14 18 8 143
-14 296 -56 676 -170 1517 -30 223 -64 479 -76 570 -11 91 -43 327 -70 525
-87 635 -151 1140 -245 1920 -70 584 -176 1434 -215 1725 -66 495 -100 773
-96 778 6 5 48 -27 366 -277 452 -354 662 -558 859 -836 72 -101 70 -91 116
-495 60 -532 70 -877 38 -1320 -19 -284 -22 -819 -5 -1010 26 -275 133 -1141
140 -1122 2 6 -13 143 -32 304 -43 354 -70 596 -88 783 -19 201 -16 724 5
1045 10 146 19 297 20 335 1 39 5 63 8 55 4 -8 57 -373 118 -810 287 -2048
289 -2061 362 -2430 73 -370 131 -573 310 -1081 88 -250 126 -336 141 -321 9
9 1 37 -30 114 -94 231 -269 769 -317 973 -79 332 -153 751 -220 1240 -59 430
-130 941 -235 1680 -103 726 -119 860 -146 1230 -8 121 -26 312 -40 425 -13
113 -24 210 -24 215 0 14 51 -69 122 -196 58 -107 184 -379 207 -452 7 -21 15
-36 17 -34 8 8 -54 179 -116 321 -158 365 -363 668 -645 951 -175 177 -303
285 -700 590 -673 518 -1024 907 -1344 1491 -135 247 -283 599 -355 848 l-25
88 47 53 c26 28 146 157 267 286 121 129 305 326 410 437 104 111 192 202 196
202 9 0 131 -496 163 -665 55 -289 148 -902 206 -1365 63 -499 142 -1026 155
-1040 13 -12 15 -12 15 3 0 20 -85 672 -105 807 -8 52 -32 235 -55 405 -100
766 -192 1287 -299 1703 l-49 194 216 223 c347 357 911 889 926 874 3 -2 -4
-69 -14 -149 -11 -79 -24 -232 -29 -340 -15 -290 -24 -1129 -14 -1356 7 -166
9 -77 14 536 4 404 12 805 18 890 11 148 35 364 47 423 4 20 38 54 127 126
208 167 492 369 504 358 9 -10 -45 -201 -96 -339 -52 -141 -128 -419 -156
-568 -55 -306 -88 -898 -75 -1345 29 -936 75 -1473 246 -2885 79 -652 92 -748
108 -777 l15 -28 1 28 c0 16 -20 200 -46 410 -25 210 -69 587 -99 837 -206
1729 -247 2947 -125 3685 40 243 85 415 163 631 36 99 76 228 89 286 l23 106
152 92 c425 256 846 429 1275 524 26 6 28 3 68 -100 257 -659 440 -1393 520
-2089 67 -581 90 -1073 72 -1521 -48 -1190 -260 -2081 -735 -3087 -90 -189
-281 -535 -371 -669 -10 -16 -16 -28 -13 -28 15 0 222 331 345 550 242 431
466 995 572 1440 12 52 27 99 31 105 5 5 9 -19 9 -56 0 -129 61 -494 131 -789
58 -243 148 -658 203 -936 108 -544 162 -906 271 -1804 34 -278 36 -291 47
-284 14 9 1 283 -22 489 -85 760 -212 1497 -400 2319 -163 718 -187 860 -193
1136 -2 100 5 155 50 415 83 477 107 711 124 1193 29 841 -67 1791 -262 2590
-64 262 -218 746 -337 1057 -152 399 -506 1143 -677 1425 -140 231 -317 454
-534 670 -337 336 -671 557 -1086 718 -240 94 -323 136 -507 260 -261 175
-397 240 -640 310 -105 30 -198 47 -524 97 -233 35 -432 85 -599 151 -122 49
-620 296 -1340 664 -263 135 -883 437 -1425 695 -228 108 -626 302 -885 431
-630 313 -818 427 -970 586 -239 249 -420 605 -488 956 -21 114 -22 134 -22
770 l0 652 -21 0 c-21 0 -22 -5 -30 -167z"/>
<path d="M1501 18277 c-266 -809 -585 -1518 -851 -1891 -158 -222 -287 -320
-454 -347 -48 -7 -46 -8 24 -6 99 3 180 42 280 134 262 242 596 885 870 1673
82 237 194 590 188 595 -2 2 -28 -69 -57 -158z"/>
<path d="M9200 16855 c-69 -7 -177 -20 -240 -28 -250 -34 -442 -39 -810 -22
-360 17 -515 15 -750 -11 -178 -20 -676 -111 -915 -168 -1119 -265 -2523 -478
-4040 -611 -522 -46 -720 -44 -937 9 -194 49 -278 42 -357 -29 -75 -68 -112
-221 -95 -391 l9 -90 -67 35 c-60 30 -77 35 -145 35 -100 0 -151 -22 -297
-133 -59 -46 -132 -96 -161 -111 -69 -36 -173 -53 -296 -48 -87 3 -99 2 -99
-13 0 -32 160 -39 287 -13 101 21 166 55 293 155 136 106 174 124 270 124 62
0 85 -5 132 -28 70 -35 94 -63 103 -124 11 -77 54 -202 98 -288 83 -162 264
-304 428 -336 l61 -12 -4 -71 c-3 -61 -11 -87 -60 -192 -78 -164 -88 -208 -88
-384 0 -132 -2 -150 -24 -196 -31 -67 -71 -105 -192 -186 -150 -99 -266 -234
-321 -370 -13 -31 -34 -106 -48 -165 -46 -203 -59 -228 -195 -368 -58 -60
-119 -127 -135 -148 -42 -57 -52 -59 -152 -41 -48 8 -170 18 -270 21 -159 5
-183 4 -183 -9 0 -13 30 -16 183 -21 100 -3 211 -12 247 -19 36 -6 82 -12 102
-12 l38 0 0 -47 c0 -62 34 -257 60 -339 11 -36 27 -111 37 -168 27 -167 9
-286 -102 -686 -85 -309 -90 -594 -15 -896 10 -41 22 -97 25 -125 7 -55 -33
-389 -62 -521 -15 -66 -18 -130 -18 -384 0 -277 2 -317 23 -435 28 -155 25
-227 -18 -403 -62 -253 -81 -433 -61 -573 7 -46 33 -165 59 -264 43 -168 46
-189 46 -310 1 -151 -9 -193 -84 -356 -109 -235 -124 -411 -54 -627 22 -69 93
-203 162 -305 24 -35 25 -42 19 -135 -6 -103 -38 -225 -85 -317 -13 -27 -60
-105 -102 -171 -134 -208 -150 -252 -220 -590 -54 -264 -102 -425 -150 -510
-17 -28 -30 -60 -30 -70 1 -51 86 104 129 236 12 36 42 164 67 285 76 375 97
431 244 659 126 196 186 372 178 521 -1 36 -1 65 1 65 2 0 54 -48 115 -107
173 -168 451 -369 693 -502 295 -163 746 -317 1183 -405 69 -13 148 -27 175
-30 l50 -5 -45 10 c-25 6 -144 33 -265 61 -365 83 -766 224 -1031 363 -291
151 -660 427 -885 661 -203 212 -270 506 -175 772 18 53 52 140 75 193 51 120
76 254 67 356 -4 40 -27 151 -51 245 -24 95 -49 208 -56 251 -23 149 1 382 66
642 29 117 34 267 10 354 -38 142 -44 629 -10 801 32 166 66 420 67 500 0 60
-8 115 -26 188 -75 291 -73 534 5 827 149 559 155 632 79 905 -32 115 -60 277
-60 353 0 61 12 79 155 227 153 158 166 182 210 386 13 60 33 135 45 166 45
120 186 280 328 371 103 67 166 128 193 190 20 47 22 70 24 222 2 183 5 196
65 315 55 109 82 191 83 255 l2 60 86 21 c59 15 145 51 270 113 276 136 354
159 831 240 222 38 406 66 410 63 17 -17 30 -165 25 -287 -9 -212 -66 -434
-169 -655 -65 -139 -145 -333 -223 -540 -341 -913 -531 -1810 -601 -2846 -21
-306 -15 -1071 10 -1349 87 -956 240 -1714 510 -2513 109 -321 270 -750 330
-877 126 -266 268 -434 437 -515 l47 -23 -20 -71 c-221 -796 -432 -1930 -537
-2886 -60 -539 -130 -1552 -106 -1529 2 3 20 212 40 464 42 556 73 868 126
1285 109 868 265 1700 460 2452 267 1032 430 1448 714 1823 276 366 722 750
1480 1276 685 475 966 684 1240 925 535 468 873 892 1268 1591 128 226 252
463 515 988 334 664 428 834 696 1250 545 848 1181 1567 1845 2085 136 106
209 168 181 154 -25 -13 -199 -137 -308 -221 l-104 -79 -66 22 c-165 55 -475
73 -667 39 -166 -29 -340 -97 -503 -196 -152 -94 -347 -274 -445 -411 -23 -32
-44 -58 -47 -58 -3 0 -12 28 -19 62 -17 85 -44 153 -92 232 -22 37 -39 69 -37
70 25 16 147 109 233 180 253 206 464 314 715 367 99 20 119 21 360 13 544
-18 582 -13 680 84 155 156 185 422 67 582 -66 88 -211 180 -427 270 -160 66
-276 124 -367 183 -102 65 -200 113 -270 131 -82 22 -225 20 -283 -3 l-45 -17
-70 53 c-190 144 -386 190 -675 158z m355 -50 c82 -17 253 -98 309 -147 l40
-35 -32 -44 c-38 -54 -62 -141 -62 -229 l0 -65 -123 -67 c-67 -36 -149 -74
-182 -84 -82 -25 -248 -23 -450 5 -362 50 -512 47 -1291 -29 -739 -71 -876
-95 -1674 -295 -940 -235 -2172 -483 -3200 -644 -256 -41 -435 -77 -533 -108
-44 -13 -177 -71 -296 -129 -222 -106 -301 -134 -382 -134 -67 0 -165 33 -240
81 -187 122 -293 322 -334 637 -32 241 -9 373 79 450 68 60 141 64 325 17 237
-59 407 -58 1091 4 1248 114 2116 236 3216 451 193 38 418 84 500 104 158 37
505 114 639 140 44 9 172 30 285 47 176 27 242 32 465 36 143 3 375 0 516 -6
293 -12 499 -4 804 34 224 27 430 31 530 10z m665 -169 c101 -22 169 -51 271
-117 117 -75 211 -123 403 -206 275 -117 412 -218 452 -333 62 -181 -24 -433
-173 -506 -58 -29 -59 -29 -248 -29 -104 0 -269 4 -365 9 -141 6 -195 5 -275
-7 -302 -47 -527 -162 -860 -437 -44 -37 -101 -81 -127 -99 l-46 -33 -36 27
c-44 33 -118 62 -185 71 -43 6 -51 10 -45 23 42 94 56 159 52 241 -7 150 -59
210 -242 275 -58 21 -113 43 -122 49 -17 13 8 22 351 126 362 109 616 241 773
398 l63 63 31 -26 c83 -70 139 -84 408 -100 254 -15 308 -27 425 -95 43 -26
62 -33 51 -21 -46 51 -182 117 -291 141 -25 6 -125 14 -222 19 -219 11 -282
29 -354 101 -38 38 -49 57 -58 101 -15 74 0 177 36 248 55 107 178 150 333
117z m-392 -428 c10 -26 9 -36 -3 -55 -24 -36 -141 -129 -240 -191 -179 -112
-326 -169 -837 -326 l-117 -36 -76 49 c-110 72 -172 93 -286 99 -72 3 -111 0
-155 -13 -198 -57 -526 -279 -626 -423 -23 -34 -46 -51 -97 -74 -106 -47 -209
-79 -315 -97 l-99 -17 -155 53 c-191 66 -324 123 -479 207 -126 68 -332 187
-373 216 -14 9 -56 34 -94 55 -47 26 -64 40 -55 46 22 11 648 164 919 224 287
63 401 79 970 139 587 62 676 69 910 69 164 0 248 -6 420 -28 164 -20 243 -26
335 -23 143 6 187 19 328 100 56 32 104 58 107 58 3 0 11 -14 18 -32z m-1463
-510 c59 -15 129 -53 227 -123 60 -43 115 -73 176 -95 119 -42 161 -67 196
-118 25 -36 31 -55 34 -114 6 -100 -11 -161 -67 -249 -54 -85 -112 -130 -200
-155 -75 -22 -119 -13 -231 51 -52 29 -129 63 -170 76 -41 12 -108 35 -149 51
-40 16 -76 27 -78 24 -3 -3 28 -21 67 -41 l73 -37 -69 -23 c-100 -34 -171 -67
-156 -72 7 -3 52 10 100 28 120 47 192 47 282 1 36 -19 76 -42 89 -52 l24 -17
-31 -54 c-39 -69 -99 -219 -87 -219 2 0 33 57 70 128 37 70 68 128 70 130 2 2
29 -4 60 -13 99 -29 211 4 303 90 l58 53 75 -13 c133 -23 198 -70 200 -144 1
-30 3 -36 6 -18 7 42 21 32 37 -25 41 -149 31 -206 -74 -428 -123 -257 -173
-410 -206 -625 -24 -161 -16 -394 20 -530 31 -121 105 -276 174 -368 l52 -68
-37 -64 c-21 -36 -41 -65 -46 -65 -12 0 -63 58 -103 118 -161 240 -235 607
-189 932 43 305 127 553 296 877 33 62 59 120 59 130 0 32 -206 -393 -253
-522 -177 -488 -177 -919 2 -1290 52 -108 132 -226 168 -248 7 -4 13 -12 13
-18 0 -11 -127 -249 -140 -263 -11 -11 -107 42 -174 96 -115 90 -209 232 -267
403 -33 95 -38 87 -8 -11 59 -193 188 -362 351 -459 45 -27 84 -50 86 -51 2
-1 -29 -66 -69 -145 -68 -136 -76 -148 -157 -224 -97 -91 -208 -221 -281 -329
-129 -191 -258 -517 -303 -766 l-22 -125 -89 -140 c-241 -380 -439 -628 -741
-930 -322 -321 -688 -615 -1286 -1032 -281 -195 -382 -264 -384 -261 -15 19
89 928 170 1498 153 1073 308 1768 467 2085 90 181 179 285 343 401 135 96
212 182 273 307 103 213 135 368 135 652 0 217 -14 314 -70 481 -248 742
-1042 1192 -1763 999 -245 -66 -406 -176 -576 -395 l-51 -65 -109 -1 c-146 -1
-205 -27 -272 -120 -93 -128 -129 -254 -194 -669 -68 -428 -68 -418 65 -800
126 -363 194 -723 232 -1221 46 -615 -3 -1796 -136 -3279 -36 -399 -118 -1356
-123 -1440 -3 -47 -17 -90 -64 -195 -78 -173 -156 -400 -244 -710 -38 -135
-72 -251 -74 -258 -7 -19 -107 36 -175 96 -110 96 -237 286 -315 471 -50 119
-178 460 -252 671 -313 901 -492 1780 -563 2765 -18 247 -24 827 -11 1090 38
790 150 1496 347 2200 104 371 253 802 379 1100 213 501 228 545 261 767 16
109 15 297 -2 398 l-6 35 139 24 c429 73 524 91 1187 220 l189 37 28 -60 c54
-117 80 -229 88 -385 7 -140 8 -144 35 -167 33 -29 62 -30 212 -8 150 22 473
22 616 0 250 -39 443 -113 641 -246 352 -238 583 -602 658 -1040 21 -118 15
-411 -9 -550 -28 -153 -80 -322 -147 -473 -62 -142 -81 -208 -71 -260 8 -44
53 -84 104 -92 98 -16 173 -82 297 -259 138 -198 244 -407 287 -566 25 -92 30
-337 10 -475 -20 -130 -106 -529 -147 -679 -19 -71 -34 -131 -32 -133 14 -13
126 388 172 616 89 439 72 647 -77 945 -72 143 -138 251 -231 374 -69 91 -158
182 -181 182 -6 1 21 16 59 34 86 41 145 85 265 200 111 105 74 92 -56 -20
-115 -99 -190 -148 -270 -174 -71 -24 -115 -18 -149 20 -16 18 -15 21 23 67
103 123 212 327 262 492 12 36 32 126 47 201 35 186 38 429 5 602 -65 347
-208 615 -461 868 -141 140 -202 189 -346 276 -172 105 -414 188 -620 213 -97
12 -325 13 -415 3 -30 -4 46 -7 170 -7 255 -1 354 -14 529 -71 259 -85 458
-210 667 -418 189 -190 281 -327 377 -566 185 -462 127 -1065 -143 -1471 -37
-57 -78 -115 -89 -129 l-21 -25 0 39 c0 25 19 83 54 165 78 180 101 246 130
363 87 353 71 745 -43 1039 -185 479 -579 833 -1061 953 -233 58 -532 72 -810
37 -210 -26 -223 -14 -81 80 85 55 206 99 354 126 127 24 535 24 686 0 57 -9
106 -15 108 -13 6 6 -129 35 -221 48 -126 18 -454 15 -563 -5 -193 -35 -350
-101 -435 -184 -20 -19 -41 -32 -47 -29 -7 4 -11 42 -11 94 0 142 -31 287 -87
415 -14 31 -24 59 -22 62 3 2 95 22 204 45 110 22 303 64 430 94 l229 54 191
-117 c364 -224 569 -326 840 -421 174 -61 208 -77 292 -136 65 -47 118 -117
188 -252 41 -78 78 -108 120 -98 36 9 43 48 37 231 -6 232 10 291 124 434 51
63 139 139 227 194 25 16 23 13 -13 -35 -69 -91 -83 -129 -88 -242 -2 -56 0
-111 5 -123 5 -14 8 21 8 95 0 109 2 121 29 177 42 85 141 181 241 232 168 85
277 104 410 71z m-940 -495 c-40 -93 -40 -97 -40 -297 0 -212 -4 -228 -46
-190 -11 10 -42 61 -70 114 -59 115 -114 181 -192 231 -52 34 -56 39 -35 43
107 19 226 53 293 81 93 40 100 41 90 18z m3386 -74 c107 -10 268 -42 295 -57
11 -6 -11 -31 -103 -112 -65 -57 -199 -185 -298 -284 -480 -481 -895 -1017
-1329 -1717 l-38 -62 -34 54 c-41 66 -89 194 -117 314 -32 138 -30 376 6 546
75 359 225 638 471 884 237 237 482 370 766 419 164 28 233 31 381 15z m-4981
-389 c140 -27 213 -51 355 -120 448 -216 759 -649 826 -1148 15 -112 6 -392
-16 -492 -25 -116 -82 -276 -128 -363 -39 -74 -141 -197 -162 -197 -6 0 -10
57 -11 143 -4 438 -149 808 -432 1097 l-74 75 82 -95 c203 -237 322 -474 379
-755 24 -117 43 -362 34 -435 -6 -51 -7 -52 -92 -115 -319 -234 -458 -575
-650 -1590 -115 -612 -278 -1842 -307 -2321 l-6 -111 -247 -186 c-676 -508
-1002 -835 -1243 -1247 -31 -53 -38 -60 -38 -38 0 14 20 262 45 549 164 1895
190 2257 215 3014 26 794 -1 1314 -91 1775 -47 241 -88 383 -222 765 -28 81
-31 102 -31 205 0 80 8 162 26 270 15 85 37 213 48 284 27 162 60 276 108 373
75 153 152 199 313 187 l86 -7 41 37 c22 21 52 57 66 80 61 104 250 250 407
313 200 81 473 101 719 53z m3520 -86 c11 -31 26 -92 35 -136 l15 -79 -46 -81
c-202 -356 -279 -806 -194 -1139 25 -99 80 -234 121 -302 16 -26 29 -52 29
-58 0 -14 -44 -89 -52 -89 -14 0 -87 107 -126 185 -85 171 -117 310 -117 515
1 273 58 494 219 837 42 90 81 186 87 214 10 47 7 127 -7 199 -5 22 -4 23 6 7
6 -9 20 -42 30 -73z m-738 -3131 c-222 -432 -387 -731 -398 -720 -3 2 9 55 25
118 69 266 167 491 293 676 68 99 261 320 266 304 2 -5 -82 -175 -186 -378z"/>
<path d="M9734 16663 c9 -17 21 -63 28 -101 10 -57 9 -82 -4 -143 -8 -41 -18
-83 -22 -94 -3 -11 3 0 15 24 42 88 34 264 -16 326 -15 18 -15 17 -1 -12z"/>
<path d="M8678 16333 c7 -3 16 -2 19 1 4 3 -2 6 -13 5 -11 0 -14 -3 -6 -6z"/>
<path d="M8013 16323 c9 -2 23 -2 30 0 6 3 -1 5 -18 5 -16 0 -22 -2 -12 -5z"/>
<path d="M8728 16323 c7 -3 16 -2 19 1 4 3 -2 6 -13 5 -11 0 -14 -3 -6 -6z"/>
<path d="M7750 16290 c-391 -67 -768 -164 -1118 -286 -119 -42 -224 -81 -232
-86 -20 -13 -28 -15 270 85 371 125 714 210 1135 283 105 18 172 32 150 32
-22 0 -114 -12 -205 -28z"/>
<path d="M8830 16294 c41 -13 163 -47 272 -74 215 -55 238 -56 329 -10 58 30
47 33 -13 5 -34 -16 -71 -25 -103 -25 -47 0 -320 64 -465 110 -36 11 -72 20
-80 19 -8 0 19 -12 60 -25z"/>
<path d="M1268 15838 c-23 -40 -17 -192 11 -272 20 -57 36 -82 96 -145 94 -99
106 -123 115 -241 5 -57 15 -110 25 -131 31 -61 85 -109 144 -126 97 -28 163
-5 331 114 61 43 138 95 172 116 34 20 57 37 52 37 -16 0 -152 -87 -245 -156
-112 -83 -167 -107 -244 -107 -77 0 -134 28 -173 85 -41 61 -44 72 -52 178 -9
115 -20 139 -106 226 -36 36 -74 85 -85 108 -47 106 -61 226 -35 299 15 42 13
48 -6 15z"/>
<path d="M2908 15373 c6 -2 18 -2 25 0 6 3 1 5 -13 5 -14 0 -19 -2 -12 -5z"/>
<path d="M2848 15363 c6 -2 18 -2 25 0 6 3 1 5 -13 5 -14 0 -19 -2 -12 -5z"/>
<path d="M2798 15353 c6 -2 18 -2 25 0 6 3 1 5 -13 5 -14 0 -19 -2 -12 -5z"/>
<path d="M2748 15343 c6 -2 18 -2 25 0 6 3 1 5 -13 5 -14 0 -19 -2 -12 -5z"/>
<path d="M2698 15333 c6 -2 18 -2 25 0 6 3 1 5 -13 5 -14 0 -19 -2 -12 -5z"/>
<path d="M2658 15323 c7 -3 16 -2 19 1 4 3 -2 6 -13 5 -11 0 -14 -3 -6 -6z"/>
<path d="M2608 15313 c7 -3 16 -2 19 1 4 3 -2 6 -13 5 -11 0 -14 -3 -6 -6z"/>
<path d="M2455 15280 c-13 -5 -14 -9 -5 -9 8 0 24 4 35 9 13 5 14 9 5 9 -8 0
-24 -4 -35 -9z"/>
<path d="M2327 15239 c-43 -17 -77 -33 -75 -34 2 -2 44 11 93 30 50 19 83 34
75 34 -8 0 -50 -14 -93 -30z"/>
<path d="M10650 16087 c3 -3 34 -15 70 -27 184 -62 326 -162 391 -275 16 -27
29 -45 29 -40 0 26 -64 117 -117 166 -65 60 -143 105 -248 142 -75 26 -133 42
-125 34z"/>
<path d="M9221 14694 c0 -11 3 -14 6 -6 3 7 2 16 -1 19 -3 4 -6 -2 -5 -13z"/>
<path d="M7210 14288 c12 -18 55 -100 95 -183 82 -164 136 -332 160 -495 19
-125 19 -344 0 -456 -21 -119 -82 -297 -145 -425 -57 -116 -43 -109 18 10 56
107 106 248 133 371 33 148 33 395 1 557 -28 141 -88 316 -153 445 -48 95
-116 208 -126 208 -3 0 5 -15 17 -32z"/>
<path d="M8531 12914 c0 -11 3 -14 6 -6 3 7 2 16 -1 19 -3 4 -6 -2 -5 -13z"/>
<path d="M7578 12469 c50 -37 116 -133 138 -203 11 -33 19 -106 23 -206 6
-151 6 -153 13 -75 16 170 -23 338 -99 429 -30 36 -92 86 -106 86 -6 0 8 -14
31 -31z"/>
<path d="M8508 12113 c-106 -110 -226 -306 -298 -487 -68 -171 -208 -612 -197
-622 2 -2 21 54 41 124 146 485 274 761 454 971 52 60 51 67 0 14z"/>
<path d="M4905 14399 c-58 -9 -177 -41 -172 -45 2 -2 48 6 102 18 197 42 468
26 648 -39 162 -58 281 -129 396 -238 55 -51 60 -54 35 -21 -71 97 -291 235
-454 285 -148 46 -406 65 -555 40z"/>
<path d="M4751 14216 c68 -37 136 -117 155 -185 21 -71 11 -146 -45 -321 -76
-239 -85 -284 -84 -410 1 -84 8 -146 27 -230 145 -645 161 -812 161 -1660 -1
-392 2 -551 7 -465 13 211 12 1002 -1 1190 -22 311 -48 481 -131 855 -26 119
-43 222 -46 290 -5 96 -3 115 25 220 17 63 47 167 67 230 45 145 55 257 29
327 -29 75 -117 160 -185 177 -14 4 -4 -5 21 -18z"/>
<path d="M5265 13781 c-82 -37 -158 -148 -184 -269 -18 -85 -12 -94 10 -12 38
148 107 242 205 280 27 10 40 19 29 19 -11 0 -38 -8 -60 -18z"/>
<path d="M6052 13590 c38 -53 94 -169 114 -236 30 -97 24 -242 -16 -389 -69
-258 -90 -341 -89 -360 0 -11 13 30 28 90 16 61 40 146 54 190 57 182 72 333
42 450 -19 76 -85 209 -126 255 l-31 35 24 -35z"/>
<path d="M6256 12558 c-130 -173 -212 -404 -221 -623 -4 -110 -4 -110 5 -24
11 112 35 241 61 320 25 78 109 247 155 312 38 53 38 65 0 15z"/>
<path d="M6052 12555 c0 -16 2 -22 5 -12 2 9 2 23 0 30 -3 6 -5 -1 -5 -18z"/>
<path d="M540 15324 c-114 -103 -174 -130 -326 -149 l-119 -14 100 4 c170 7
250 44 375 169 35 37 62 66 60 66 -3 0 -43 -34 -90 -76z"/>
<path d="M980 15369 c0 -27 48 -176 86 -267 74 -173 132 -237 294 -322 177
-93 189 -124 108 -285 -54 -106 -60 -136 -67 -325 -6 -166 -7 -177 -33 -221
-33 -56 -81 -100 -184 -170 -110 -74 -201 -169 -248 -257 -21 -41 -36 -75 -34
-77 2 -2 19 26 38 63 43 85 154 197 278 281 97 67 140 111 172 182 16 37 20
66 20 179 0 161 15 234 70 341 84 166 66 210 -130 310 -160 82 -239 193 -329
464 -22 66 -40 113 -41 104z"/>
<path d="M11255 15039 c-4 -6 -5 -11 -4 -13 2 -1 38 -22 78 -46 89 -51 147
-103 209 -185 25 -33 58 -73 73 -90 l28 -30 -70 -1 c-59 -1 -82 -7 -143 -37
-39 -20 -81 -46 -92 -58 -14 -16 -6 -13 29 10 68 46 141 69 225 72 53 1 78 -2
97 -15 14 -9 68 -23 119 -31 52 -8 117 -23 145 -34 166 -63 285 -205 345 -412
34 -118 40 -199 26 -369 -14 -187 -4 -486 17 -469 10 9 13 52 12 203 -1 105 1
254 5 331 9 164 -4 255 -53 381 -86 223 -233 352 -441 390 -174 31 -184 38
-305 189 -78 98 -116 132 -210 189 -63 38 -80 43 -90 25z"/>
<path d="M11095 14231 c-33 -16 -78 -48 -100 -72 l-40 -43 48 41 c75 64 130
87 212 87 74 0 112 -13 170 -62 118 -99 237 -350 282 -597 14 -82 18 -155 18
-403 0 -182 3 -286 8 -260 4 23 6 174 3 333 -3 239 -7 307 -24 385 -64 304
-212 550 -365 607 -61 22 -146 16 -212 -16z"/>
<path d="M9413 12764 c-5 -13 6 -29 47 -65 76 -67 145 -97 281 -125 65 -13
137 -33 161 -45 98 -49 213 -177 309 -341 51 -86 145 -299 190 -427 30 -87 41
-103 54 -82 9 15 -88 271 -156 410 -76 160 -153 274 -243 364 -90 92 -150 121
-304 152 -141 28 -204 57 -278 127 -46 44 -55 48 -61 32z"/>
<path d="M9349 12644 c-11 -13 -5 -22 39 -63 28 -26 55 -59 61 -73 11 -29 4
-98 -11 -98 -4 0 -45 18 -89 41 -45 22 -78 35 -74 28 4 -6 43 -28 87 -48 l79
-37 -34 -44 c-35 -46 -63 -65 -240 -161 -87 -47 -128 -81 -114 -95 3 -3 22 7
43 21 22 15 87 51 145 81 176 90 239 161 239 266 -1 61 -8 77 -71 146 -41 45
-48 50 -60 36z"/>
<path d="M11613 10510 c0 -41 2 -58 4 -37 2 20 2 54 0 75 -2 20 -4 3 -4 -38z"/>
<path d="M9565 9703 c-24 -90 -132 -410 -185 -547 -241 -629 -617 -1247 -1150
-1886 -164 -197 -232 -273 -460 -520 -140 -151 -111 -129 129 99 201 191 341
343 520 566 203 253 295 382 540 760 l32 50 -5 -95 c-53 -865 -28 -2272 59
-3272 15 -163 14 -170 -10 -360 -37 -282 -75 -517 -151 -943 -110 -611 -310
-1417 -565 -2272 -38 -128 -69 -240 -69 -248 0 -11 7 -15 22 -13 18 3 27 22
60 128 352 1147 569 2088 717 3110 21 145 30 186 34 160 4 -19 20 -172 37
-340 100 -986 249 -1943 441 -2822 44 -202 55 -238 70 -238 10 0 20 4 24 10 3
5 -6 58 -19 117 -79 343 -219 1072 -276 1433 -253 1618 -385 3452 -351 4865 7
269 16 574 21 677 l10 188 76 141 c201 373 337 717 428 1084 29 116 49 225 43
231 -2 2 -12 -26 -22 -63z"/>
<path d="M7201 8203 c-58 -217 -139 -634 -186 -963 -83 -577 -110 -874 -140
-1530 -46 -1029 -118 -1715 -256 -2450 -89 -471 -230 -1055 -345 -1426 -39
-129 -44 -161 -8 -59 113 318 324 1188 403 1660 125 743 179 1282 221 2215 31
683 53 949 121 1450 49 371 129 810 190 1054 16 65 28 120 26 123 -3 2 -14
-31 -26 -74z"/>
<path d="M5863 5535 c0 -22 2 -30 4 -17 2 12 2 30 0 40 -3 9 -5 -1 -4 -23z"/>
<path d="M5881 5274 c0 -11 3 -14 6 -6 3 7 2 16 -1 19 -3 4 -6 -2 -5 -13z"/>
<path d="M3782 4080 c0 -14 2 -19 5 -12 2 6 2 18 0 25 -3 6 -5 1 -5 -13z"/>
<path d="M14881 2341 c-1 -976 2 -1312 10 -1304 23 23 30 290 29 1213 0 885
-4 1058 -30 1325 -4 44 -8 -512 -9 -1234z"/>
<path d="M12572 3110 c0 -19 2 -27 5 -17 2 9 2 25 0 35 -3 9 -5 1 -5 -18z"/>
<path d="M3872 1915 c-2 -252 22 -882 33 -893 8 -8 6 118 -6 323 -6 105 -14
336 -18 515 l-8 325 -1 -270z"/>
</g>
</svg>
