<?xml version="1.0" standalone="no"?>
<!DOCTYPE svg PUBLIC "-//W3C//DTD SVG 20010904//EN"
 "http://www.w3.org/TR/2001/REC-SVG-20010904/DTD/svg10.dtd">
<svg version="1.0" xmlns="http://www.w3.org/2000/svg"
 width="1650.000000pt" height="2210.000000pt" viewBox="0 0 1650.000000 2210.000000"
 preserveAspectRatio="xMidYMid meet">

<g transform="translate(0.000000,2210.000000) scale(0.100000,-0.100000)"
fill="#000000" stroke="none">
<path d="M8332 21953 c-112 -235 -136 -332 -167 -678 -25 -277 -60 -423 -129
-538 -190 -315 -551 -435 -1196 -398 -338 20 -658 25 -734 12 -102 -18 -170
-47 -215 -93 l-41 -40 0 103 c0 342 38 655 106 881 13 45 22 83 20 85 -6 6
-65 -163 -87 -247 -39 -150 -61 -363 -74 -710 -8 -224 -27 -383 -74 -618 -50
-250 -61 -336 -61 -488 0 -121 21 -278 41 -317 10 -17 9 -19 -6 -13 -29 11
-156 101 -270 193 -227 182 -452 429 -627 688 -120 177 -133 182 -20 6 255
-396 558 -693 1017 -998 234 -155 332 -207 860 -458 403 -191 662 -323 970
-491 478 -262 521 -285 695 -373 476 -241 745 -297 1540 -321 330 -10 458 -23
623 -61 270 -63 480 -169 809 -407 218 -158 299 -208 508 -317 285 -148 409
-235 607 -421 415 -393 951 -1307 1209 -2059 173 -505 299 -1081 398 -1820 72
-539 81 -664 81 -1100 -1 -580 -32 -876 -175 -1665 -112 -620 -134 -812 -134
-1165 -1 -471 31 -694 323 -2280 319 -1735 412 -2530 451 -3865 22 -750 32
-1029 40 -1140 6 -63 10 -127 10 -142 0 -19 5 -28 16 -28 15 0 16 10 10 88
-11 149 -25 539 -36 977 -41 1626 -120 2314 -505 4390 -70 379 -185 1038 -210
1202 -74 498 -81 914 -24 1367 21 168 28 213 108 661 129 730 166 1088 165
1620 -1 399 -22 653 -100 1200 -190 1339 -469 2155 -1061 3097 -273 436 -548
739 -858 947 -55 37 -197 117 -315 179 -145 76 -261 145 -355 212 -408 291
-578 389 -793 460 -232 76 -389 96 -867 110 -662 19 -961 78 -1350 264 -124
60 -228 115 -910 486 -165 90 -435 229 -600 308 -165 79 -394 189 -510 245
-244 116 -363 180 -532 285 l-123 76 -20 61 c-29 91 -40 176 -40 325 0 150 15
271 61 493 16 82 38 206 49 276 25 176 59 235 160 280 84 37 167 44 424 37
865 -22 938 -21 1114 25 306 80 496 240 601 505 31 81 49 186 71 416 32 337
56 437 160 673 72 162 72 165 56 165 -7 0 -44 -66 -84 -147z"/>
<path d="M4660 20010 c6 -11 13 -20 16 -20 2 0 0 9 -6 20 -6 11 -13 20 -16 20
-2 0 0 -9 6 -20z"/>
<path d="M9270 16804 c-311 -43 -383 -48 -579 -34 -581 41 -944 -36 -1414
-299 -80 -44 -205 -105 -278 -135 -153 -61 -554 -208 -706 -257 l-101 -33
-169 27 c-92 15 -252 39 -355 52 -373 50 -495 81 -943 239 -162 57 -292 80
-396 72 -257 -21 -429 -143 -573 -410 -25 -44 -99 -202 -164 -351 -66 -148
-141 -315 -167 -370 -302 -639 -362 -810 -420 -1184 -89 -576 -48 -1246 169
-2741 277 -1907 313 -2072 587 -2725 39 -93 97 -233 129 -311 147 -357 254
-505 425 -590 101 -50 202 -69 288 -55 105 17 212 64 299 128 114 86 371 327
541 508 380 404 496 586 735 1155 116 276 175 401 219 470 36 56 36 56 145 93
726 247 1217 547 1724 1052 111 110 257 267 325 349 l123 149 14 -34 c22 -53
110 -343 137 -449 25 -102 81 -380 115 -575 106 -617 99 -1156 -30 -2105 -70
-522 -90 -763 -90 -1130 0 -458 34 -742 140 -1173 111 -448 330 -999 553
-1387 70 -123 175 -282 212 -325 31 -35 36 -44 -80 150 -297 496 -557 1142
-679 1690 -77 348 -105 572 -113 915 -9 392 6 591 96 1295 82 636 107 982 98
1340 -7 255 -16 351 -53 595 -79 515 -169 894 -273 1150 l-28 68 71 91 c39 49
74 90 77 91 9 0 110 -217 172 -370 53 -131 166 -467 168 -499 0 -9 3 -11 5 -4
6 12 -37 163 -89 318 -44 128 -145 371 -202 485 l-45 89 56 70 c53 66 74 79
74 46 0 -40 209 -412 341 -605 87 -128 128 -223 253 -584 178 -510 284 -919
339 -1309 l24 -169 -23 -121 c-13 -67 -31 -165 -41 -217 l-19 -95 -12 150
c-31 356 -66 587 -159 1035 -93 452 -157 691 -243 913 -40 100 -32 55 11 -64
68 -191 104 -322 168 -609 188 -855 247 -1374 198 -1757 -18 -139 -34 -392
-24 -383 3 3 10 75 17 160 6 85 15 182 20 215 5 33 16 130 25 215 10 112 28
211 63 355 27 110 62 265 77 345 90 474 174 871 194 907 10 19 53 -14 47 -35
-3 -10 -13 -105 -21 -212 -9 -107 -20 -232 -26 -278 -6 -46 -9 -85 -6 -88 7
-7 36 237 48 406 6 85 14 158 17 162 4 4 26 -10 50 -30 l43 -37 -20 -195 c-45
-436 -54 -611 -46 -880 4 -140 11 -388 15 -550 5 -206 6 -168 2 125 -4 231 -6
501 -5 600 1 168 46 795 62 858 l6 29 26 -21 26 -20 6 -263 c8 -301 27 -569
62 -843 33 -260 37 -286 42 -281 2 2 -5 78 -16 167 -35 275 -59 570 -71 864
-7 154 -10 293 -8 309 l3 28 52 -42 c60 -49 52 -17 83 -330 30 -289 44 -401
100 -765 41 -272 68 -474 95 -730 26 -240 22 -615 -10 -925 -34 -339 -121
-890 -210 -1340 -52 -262 -115 -607 -115 -629 0 -32 18 6 33 69 37 155 115
540 172 855 46 250 64 331 68 305 3 -19 11 -120 17 -225 6 -104 24 -361 40
-570 17 -209 46 -587 65 -840 19 -253 48 -631 65 -840 43 -554 116 -1650 145
-2180 13 -253 27 -505 30 -560 3 -55 10 -235 15 -399 5 -184 13 -303 19 -309
14 -14 14 290 1 578 -52 1117 -125 2284 -205 3265 -25 310 -78 989 -115 1470
-29 393 -50 724 -50 812 0 43 7 124 15 181 54 357 80 729 71 992 -12 311 -32
489 -131 1150 -30 198 -63 452 -74 565 -11 113 -23 231 -26 263 l-6 58 54 -43
c87 -69 502 -414 617 -512 265 -228 539 -491 671 -646 l56 -65 17 -184 c9
-102 28 -277 42 -390 46 -381 93 -805 110 -981 21 -227 30 -948 15 -1190 -6
-96 -15 -262 -21 -367 -5 -106 -15 -282 -20 -390 -6 -109 -12 -326 -15 -483
l-4 -285 14 280 c7 154 13 308 14 343 1 34 6 62 11 62 6 0 10 -14 10 -31 0
-48 146 -1340 185 -1643 33 -250 105 -706 141 -891 96 -489 317 -1236 501
-1689 80 -199 102 -241 114 -229 7 7 -11 60 -51 153 -79 185 -129 325 -233
650 -253 786 -359 1316 -496 2485 -148 1259 -159 1426 -125 1895 20 275 23
928 5 1175 -10 143 -47 489 -156 1470 -8 72 -17 142 -20 158 -2 15 -1 27 4 27
20 0 353 -436 465 -610 81 -124 222 -353 240 -387 9 -18 19 -33 21 -33 3 0
-13 37 -36 83 -134 267 -366 615 -596 892 -122 147 -120 144 -128 260 l-6 100
62 -95 c34 -52 95 -158 135 -235 77 -146 95 -170 45 -60 -39 85 -119 227 -192
341 l-59 91 -34 344 c-19 189 -34 328 -35 309 -1 -41 46 -574 54 -607 3 -13 3
-23 1 -23 -2 0 -28 33 -57 73 -76 104 -228 292 -423 522 -291 344 -347 412
-476 585 -179 241 -322 471 -415 668 -26 56 -50 100 -52 98 -8 -7 89 -207 158
-328 170 -295 409 -611 849 -1123 129 -150 251 -301 339 -420 85 -113 81 -103
97 -270 l6 -70 -67 75 c-223 247 -521 517 -1096 993 -125 103 -229 193 -232
200 -3 7 -15 85 -27 173 -32 239 -40 261 -34 99 2 -77 7 -161 10 -187 3 -27 2
-48 -3 -48 -4 1 -66 51 -138 113 -123 107 -130 115 -128 148 2 31 -1 29 -13
-10 -7 -21 -44 16 -44 44 0 27 52 212 80 287 16 40 26 55 37 51 11 -4 13 0 8
18 -3 13 1 42 10 63 9 21 14 40 11 43 -2 2 -7 -5 -11 -16 -3 -12 -13 -21 -22
-21 -10 0 -14 -6 -10 -19 3 -11 -6 -41 -18 -67 -13 -27 -42 -110 -66 -186 -24
-76 -46 -138 -50 -138 -4 0 -69 62 -144 138 -141 140 -343 367 -470 527 -192
241 -416 584 -531 808 l-48 95 74 88 c136 162 606 635 657 663 l22 11 -21 25
c-12 14 -24 23 -27 20 -2 -3 2 -13 11 -22 15 -14 12 -19 -42 -55 -72 -47 -470
-435 -578 -562 -43 -50 -154 -188 -247 -306 -368 -466 -598 -720 -845 -930
-443 -377 -824 -595 -1410 -805 -611 -218 -803 -312 -921 -450 -27 -32 -29
-36 -8 -20 14 11 55 42 90 69 35 26 118 74 184 106 122 59 393 165 401 157 3
-3 -9 -28 -26 -57 -38 -64 -69 -133 -167 -365 -209 -500 -328 -713 -540 -965
-168 -201 -616 -642 -752 -740 -69 -51 -176 -97 -253 -111 -92 -16 -186 -1
-283 46 -170 83 -266 222 -437 635 -386 932 -389 945 -643 2650 -107 725 -155
1087 -204 1565 -40 375 -51 567 -51 851 0 280 12 443 51 674 57 339 116 506
366 1040 63 135 147 317 185 405 202 464 301 618 458 717 63 39 175 70 275 75
143 8 266 -21 528 -121 210 -81 416 -129 767 -181 361 -53 694 -110 875 -149
302 -66 351 -77 870 -208 286 -72 541 -135 568 -141 26 -6 47 -13 47 -16 0 -4
-136 -44 -303 -90 -166 -46 -369 -103 -452 -127 -179 -50 -626 -173 -890 -244
-446 -120 -795 -242 -1105 -385 -396 -183 -669 -293 -850 -344 -117 -32 -315
-61 -420 -61 -202 0 -318 55 -379 178 -68 136 -25 456 105 772 72 176 73 181
21 80 -63 -121 -133 -303 -164 -428 -22 -88 -27 -131 -28 -237 0 -122 2 -134
28 -190 104 -223 357 -269 825 -151 155 40 196 53 372 124 117 47 207 87 590
260 300 135 498 202 1065 358 756 208 966 266 1440 400 424 121 939 282 1168
365 340 124 669 279 947 445 137 82 212 136 120 86 -154 -82 -308 -162 -315
-162 -4 0 14 24 42 53 65 69 102 124 153 229 63 130 135 188 235 188 57 0 149
-31 213 -71 85 -54 182 -91 332 -129 210 -52 251 -75 296 -165 22 -47 26 -64
21 -106 -8 -69 -41 -130 -112 -208 -34 -36 -99 -113 -147 -171 -96 -118 -240
-261 -308 -307 -185 -125 -427 -191 -730 -199 -91 -2 -348 -9 -571 -14 -701
-17 -1021 -52 -1434 -154 -353 -88 -737 -252 -1110 -476 -308 -185 -391 -232
-550 -310 -183 -90 -339 -147 -540 -195 -185 -45 -275 -59 -620 -95 -614 -63
-870 -136 -1155 -325 -181 -121 -308 -330 -361 -594 -17 -89 -46 -534 -37
-563 3 -7 10 66 17 162 23 337 51 469 130 635 99 206 202 305 440 425 250 125
460 173 986 225 668 67 957 160 1500 480 470 277 582 335 855 445 432 172 856
257 1455 289 238 13 651 25 645 18 -3 -2 -36 -17 -75 -32 -98 -39 -217 -106
-305 -173 -107 -80 -253 -224 -297 -293 -21 -32 -45 -61 -53 -64 -32 -9 -353
-65 -485 -84 -148 -21 -280 -34 -535 -51 -216 -15 -399 -43 -576 -89 -190 -49
-308 -95 -619 -241 -357 -168 -447 -205 -581 -244 -350 -100 -662 -142 -1302
-172 -78 -4 -140 -9 -137 -12 8 -9 436 -2 600 8 373 25 667 77 920 163 135 46
186 68 500 217 517 245 708 296 1277 340 600 48 888 102 1983 373 346 86 46
41 -385 -57 -129 -30 -309 -71 -400 -91 -91 -20 -174 -39 -185 -42 -17 -5 -16
-1 9 33 100 135 365 350 510 415 l45 20 38 -25 c63 -42 239 -102 392 -135 150
-32 185 -47 202 -85 14 -30 -4 -65 -69 -137 -178 -198 -282 -368 -372 -604
-31 -80 -39 -88 -280 -256 -150 -105 -327 -244 -440 -344 -530 -471 -1056
-1033 -1600 -1710 -827 -1029 -1226 -1457 -2050 -2195 -156 -140 -364 -329
-462 -420 -401 -372 -436 -397 -523 -387 -114 12 -181 107 -265 377 -28 93
-15 10 16 -99 65 -224 135 -304 269 -305 99 0 156 40 437 303 84 79 270 249
414 377 144 128 337 303 430 388 93 86 172 156 175 156 8 0 -8 -99 -31 -183
-10 -40 -21 -91 -25 -113 -12 -76 28 -165 73 -163 14 0 13 2 -5 11 -30 14 -53
67 -53 120 0 23 11 87 25 141 13 54 27 125 31 157 l6 59 147 143 c394 384 673
693 1130 1253 161 197 202 244 186 217 -4 -8 37 21 91 63 116 91 310 221 444
297 143 82 290 160 290 155 0 -3 -39 -36 -87 -73 -559 -435 -1019 -858 -1421
-1307 -64 -72 -169 -183 -232 -246 -92 -91 -105 -107 -65 -80 28 18 136 121
240 229 650 667 841 845 1355 1261 350 284 614 457 1165 766 321 180 524 305
584 359 27 24 54 44 60 44 6 0 11 7 11 16 0 13 -5 12 -27 -6 -83 -64 -323
-206 -698 -412 -250 -138 -247 -136 -195 -92 25 22 92 84 150 138 146 138 200
175 342 237 198 87 261 167 278 357 5 53 14 149 20 212 10 121 40 287 66 380
27 93 110 289 169 400 68 126 116 193 229 325 93 107 106 129 106 178 -1 69
-46 95 -226 133 -135 28 -368 104 -392 128 -12 12 -2 18 64 44 76 28 88 30
284 35 113 4 248 13 300 22 133 22 320 87 412 142 42 25 79 46 83 46 4 0 39
-27 77 -59 65 -55 263 -273 254 -281 -2 -2 10 -18 27 -36 l30 -32 -29 -6 -29
-7 33 -1 c29 -1 37 -9 76 -69 57 -88 200 -352 282 -520 157 -323 284 -634 456
-1117 83 -235 218 -627 218 -636 0 -3 -20 -12 -45 -19 -56 -16 -131 -60 -208
-123 -32 -26 -80 -58 -106 -72 -70 -35 -108 -71 -143 -132 -21 -38 -48 -66
-87 -92 -118 -80 -180 -175 -201 -305 -48 -299 -60 -321 -279 -516 -103 -91
-155 -160 -228 -303 -54 -106 -114 -183 -134 -172 -5 4 -9 0 -9 -8 0 -8 -7
-20 -16 -27 -8 -8 -20 -22 -25 -32 -7 -13 4 -9 37 14 85 60 127 111 189 234
63 126 80 145 313 364 48 45 89 95 105 125 l25 50 12 -45 c6 -25 16 -63 21
-85 65 -257 183 -610 280 -838 96 -225 134 -295 370 -699 124 -210 139 -241
140 -285 2 -45 2 -46 8 -13 6 35 6 35 57 -65 196 -380 352 -837 462 -1355 6
-25 10 -38 11 -29 2 26 -36 201 -79 364 -99 379 -218 705 -366 995 -83 162
-94 192 -96 240 l-1 55 -6 -43 -6 -44 -85 144 c-356 604 -472 864 -636 1437
-76 265 -79 284 -65 337 6 22 15 75 21 119 24 176 88 292 199 360 48 28 69 49
92 91 36 62 75 99 160 149 34 20 81 52 103 71 45 39 168 102 205 106 20 3 26
-4 42 -51 18 -51 18 -60 4 -134 -19 -99 -45 -320 -44 -367 1 -19 9 33 19 115
23 202 40 299 50 288 8 -7 101 -322 210 -708 67 -236 156 -573 195 -740 19
-77 34 -132 34 -123 4 83 -202 904 -363 1454 -31 106 -56 202 -56 215 0 21 31
143 100 399 11 41 23 100 25 130 5 52 4 51 -9 -16 -7 -38 -21 -95 -29 -125
-15 -52 -76 -281 -92 -344 -6 -25 -23 18 -115 290 -108 324 -148 436 -260 735
-68 181 -174 444 -214 529 -23 51 -24 56 -10 85 15 31 15 31 -3 8 l-19 -23
-58 126 c-74 158 -228 447 -289 543 -26 40 -47 74 -47 76 0 3 8 7 18 9 13 4
12 5 -5 6 -16 1 -44 30 -99 104 -43 56 -135 160 -206 231 -71 70 -127 129
-126 130 2 0 40 36 85 80 l81 79 59 -45 c137 -106 314 -304 441 -494 61 -92
152 -241 152 -251 0 -2 -15 4 -32 15 -60 37 -198 103 -255 123 -86 29 -88 22
-3 -10 110 -41 250 -114 292 -153 38 -35 121 -179 215 -378 53 -111 152 -354
263 -647 30 -78 56 -140 58 -138 5 5 -99 285 -188 510 -70 174 -176 403 -249
533 -22 39 -37 72 -33 72 4 0 41 -29 82 -65 63 -54 94 -72 190 -110 213 -84
299 -180 368 -415 13 -45 16 -112 18 -355 1 -175 6 -317 12 -340 10 -36 10
-34 4 20 -4 33 -7 188 -7 345 -1 315 -3 333 -70 476 -40 88 -129 187 -204 228
-27 14 -90 42 -140 60 -65 24 -105 46 -139 78 -27 24 -70 59 -95 78 -31 24
-62 64 -98 125 -194 329 -400 578 -612 737 -15 12 -5 26 89 138 58 69 128 151
155 183 27 32 58 76 69 98 11 21 22 39 23 39 2 0 43 -16 92 -36 210 -84 357
-172 620 -369 196 -147 296 -236 431 -387 295 -326 495 -627 725 -1093 59
-121 108 -216 109 -212 0 5 -25 69 -56 144 -170 416 -414 807 -723 1157 -119
135 -260 264 -439 399 -280 212 -447 312 -645 387 l-102 38 -1 60 c-2 111 -69
200 -181 242 -30 11 -111 34 -181 51 -156 38 -195 54 -300 117 -89 54 -149 72
-240 72 -57 0 -129 -25 -163 -55 -14 -13 -29 -8 -131 45 -156 81 -234 100
-402 99 -72 -1 -174 -7 -226 -15z m460 -32 c76 -25 255 -114 255 -128 -1 -17
-105 -219 -128 -247 -16 -20 -38 -32 -82 -42 -68 -15 -79 -13 -38 8 42 23 98
86 128 145 41 83 23 86 -20 4 -21 -40 -51 -84 -68 -98 -103 -87 -377 -166
-572 -166 -77 1 -128 8 -220 30 -241 60 -459 92 -685 99 -91 3 -175 1 -187 -3
-14 -6 19 -9 95 -10 120 -2 340 -20 402 -33 28 -6 16 -9 -65 -15 -122 -10
-429 -59 -539 -87 -109 -28 -262 -88 -435 -171 -154 -74 -383 -177 -441 -198
-33 -12 -59 -7 -310 53 -151 36 -340 78 -420 92 -80 15 -152 29 -160 32 -8 2
64 31 160 63 454 150 662 233 910 365 352 187 565 255 893 286 121 11 181 10
597 -7 123 -5 175 -2 340 20 107 14 206 27 220 30 14 2 88 3 165 1 109 -2 155
-7 205 -23z m73 -449 c-39 -59 -166 -153 -287 -212 -133 -64 -413 -179 -573
-234 l-102 -36 -78 65 c-95 79 -203 148 -286 182 -53 22 -77 26 -167 26 -117
0 -183 -19 -258 -74 -61 -44 -88 -100 -124 -256 -17 -76 -33 -141 -35 -143 -1
-2 -100 24 -220 57 -120 34 -289 78 -375 99 -87 20 -158 39 -158 43 0 3 54 27
119 53 66 26 209 89 318 141 196 94 338 148 463 179 109 28 357 66 500 78 173
15 265 8 420 -31 208 -52 390 -51 544 2 56 19 290 86 309 87 4 1 0 -11 -10
-26z m-1303 -288 c47 -22 128 -72 181 -112 94 -69 116 -90 107 -99 -5 -5 -415
-133 -627 -196 l-134 -39 -51 18 c-31 12 -50 24 -48 33 28 126 77 291 93 315
56 82 168 127 304 122 81 -2 99 -7 175 -42z m965 -1932 c-42 -110 -81 -346
-94 -564 -10 -177 -21 -214 -89 -290 -34 -38 -63 -56 -172 -104 -165 -73 -193
-92 -332 -223 -303 -288 -414 -369 -768 -561 -513 -279 -661 -372 -819 -516
-25 -22 -41 -33 -36 -25 12 21 245 306 388 475 433 511 1013 1101 1397 1421
119 100 280 224 289 224 4 0 4 -26 -1 -57 -14 -86 -4 -365 16 -448 16 -69 52
-143 63 -132 3 4 -4 41 -15 84 -31 113 -42 226 -42 409 l0 162 103 81 c106 83
124 93 112 64z m105 -3043 c92 -121 341 -401 478 -538 84 -84 151 -156 149
-160 -11 -16 -119 -521 -152 -707 -20 -110 -39 -208 -44 -219 -4 -12 -19 52
-40 175 -64 380 -230 958 -405 1408 -48 124 -48 124 14 41z"/>
<path d="M10950 15946 c0 -3 96 -52 213 -109 233 -114 338 -176 467 -276 197
-153 341 -300 511 -526 144 -190 238 -342 383 -617 37 -71 69 -128 72 -128 7
0 -114 236 -184 360 -167 293 -410 608 -601 778 -212 190 -349 281 -639 423
-189 92 -222 106 -222 95z"/>
<path d="M10844 15821 c3 -5 32 -24 64 -42 201 -113 409 -277 597 -470 141
-144 211 -230 312 -383 89 -134 97 -133 12 2 -87 138 -174 246 -318 395 -192
198 -320 300 -557 447 -94 58 -122 70 -110 51z"/>
<path d="M10640 15190 c0 -5 7 -10 15 -10 8 0 15 5 15 10 0 6 -7 10 -15 10 -8
0 -15 -4 -15 -10z"/>
<path d="M10520 15180 c-13 -8 -12 -10 3 -10 9 0 17 5 17 10 0 12 -1 12 -20 0z"/>
<path d="M10578 15183 c6 -2 18 -2 25 0 6 3 1 5 -13 5 -14 0 -19 -2 -12 -5z"/>
<path d="M10708 15183 c7 -3 16 -2 19 1 4 3 -2 6 -13 5 -11 0 -14 -3 -6 -6z"/>
<path d="M10770 15180 c0 -5 7 -10 16 -10 8 0 12 5 9 10 -3 6 -10 10 -16 10
-5 0 -9 -4 -9 -10z"/>
<path d="M10458 15163 c7 -3 16 -2 19 1 4 3 -2 6 -13 5 -11 0 -14 -3 -6 -6z"/>
<path d="M10390 15149 c0 -5 5 -7 10 -4 6 3 10 8 10 11 0 2 -4 4 -10 4 -5 0
-10 -5 -10 -11z"/>
<path d="M10320 15130 c0 -13 11 -13 30 0 12 8 11 10 -7 10 -13 0 -23 -4 -23
-10z"/>
<path d="M10265 15110 c-3 -5 -2 -10 4 -10 5 0 13 5 16 10 3 6 2 10 -4 10 -5
0 -13 -4 -16 -10z"/>
<path d="M10640 15100 c-11 -7 -7 -10 18 -10 17 0 32 5 32 10 0 13 -30 13 -50
0z"/>
<path d="M10713 15103 c9 -2 25 -2 35 0 9 3 1 5 -18 5 -19 0 -27 -2 -17 -5z"/>
<path d="M10780 15100 c20 -13 63 -13 55 0 -3 6 -21 10 -38 10 -24 0 -28 -3
-17 -10z"/>
<path d="M10217 15093 c-4 -3 -7 -11 -7 -17 0 -6 5 -5 12 2 6 6 9 14 7 17 -3
3 -9 2 -12 -2z"/>
<path d="M10570 15090 c-13 -9 -13 -10 0 -9 8 0 24 4 35 9 l20 9 -20 0 c-11 0
-27 -4 -35 -9z"/>
<path d="M10510 15080 c-12 -8 -11 -10 7 -10 12 0 25 5 28 10 8 13 -15 13 -35
0z"/>
<path d="M10160 15060 c-8 -5 -12 -11 -9 -14 2 -3 11 -1 19 4 8 5 12 11 9 14
-2 3 -11 1 -19 -4z"/>
<path d="M10435 15060 c-7 -12 2 -12 30 0 19 8 19 9 -2 9 -12 1 -25 -3 -28 -9z"/>
<path d="M10375 15040 c-7 -12 2 -12 30 0 19 8 19 9 -2 9 -12 1 -25 -3 -28 -9z"/>
<path d="M10100 15020 c0 -5 4 -10 9 -10 6 0 13 5 16 10 3 6 -1 10 -9 10 -9 0
-16 -4 -16 -10z"/>
<path d="M10320 15020 c-13 -9 -13 -10 0 -10 8 0 22 5 30 10 13 9 13 10 0 10
-8 0 -22 -5 -30 -10z"/>
<path d="M10264 14995 c-10 -8 -14 -15 -8 -15 5 0 19 7 30 15 10 8 14 15 8 15
-5 0 -19 -7 -30 -15z"/>
<path d="M10050 14979 c0 -5 5 -7 10 -4 6 3 10 8 10 11 0 2 -4 4 -10 4 -5 0
-10 -5 -10 -11z"/>
<path d="M10210 14965 c-14 -16 -10 -18 14 -9 9 3 16 10 16 15 0 14 -16 11
-30 -6z"/>
<path d="M10005 14940 c-3 -5 -2 -10 4 -10 5 0 13 5 16 10 3 6 2 10 -4 10 -5
0 -13 -4 -16 -10z"/>
<path d="M10145 14929 c-11 -17 0 -20 21 -4 17 13 17 14 2 15 -9 0 -20 -5 -23
-11z"/>
<path d="M10100 14895 c-20 -24 -6 -28 15 -5 10 11 13 20 8 20 -6 0 -16 -7
-23 -15z"/>
<path d="M10050 14855 c-8 -9 -8 -15 -2 -15 12 0 26 19 19 26 -2 2 -10 -2 -17
-11z"/>
<path d="M10000 14805 c-8 -9 -8 -15 -2 -15 12 0 26 19 19 26 -2 2 -10 -2 -17
-11z"/>
<path d="M9960 14765 c-7 -9 -11 -18 -8 -20 3 -3 11 1 18 10 7 9 11 18 8 20
-3 3 -11 -1 -18 -10z"/>
<path d="M9917 14713 c-4 -3 -7 -11 -7 -17 0 -6 5 -5 12 2 6 6 9 14 7 17 -3 3
-9 2 -12 -2z"/>
<path d="M9258 14703 c7 -3 16 -2 19 1 4 3 -2 6 -13 5 -11 0 -14 -3 -6 -6z"/>
<path d="M8985 14649 c-1445 -323 -2105 -516 -2856 -837 -182 -78 -390 -164
-599 -249 -74 -30 -261 -97 -415 -149 -154 -52 -264 -92 -245 -88 56 10 423
131 565 186 139 54 341 136 685 280 543 228 922 359 1440 496 383 102 1050
265 1485 362 105 24 192 44 194 46 11 10 -52 -2 -254 -47z"/>
<path d="M9875 14659 c-11 -17 1 -21 15 -4 8 9 8 15 2 15 -6 0 -14 -5 -17 -11z"/>
<path d="M9836 14605 c-3 -8 -1 -15 4 -15 6 0 10 7 10 15 0 8 -2 15 -4 15 -2
0 -6 -7 -10 -15z"/>
<path d="M9285 14559 c-85 -28 -359 -102 -885 -239 -523 -137 -892 -252 -1230
-385 -179 -71 -520 -228 -520 -239 0 -4 30 9 68 28 430 216 998 407 1912 642
254 66 642 175 720 203 84 30 36 23 -65 -10z"/>
<path d="M9796 14545 c-3 -8 -1 -15 3 -15 5 0 11 7 15 15 3 8 1 15 -3 15 -5 0
-11 -7 -15 -15z"/>
<path d="M9767 14493 c-4 -3 -7 -11 -7 -17 0 -6 5 -5 12 2 6 6 9 14 7 17 -3 3
-9 2 -12 -2z"/>
<path d="M9295 14363 c-99 -52 -313 -165 -475 -250 -592 -312 -1000 -537
-1000 -550 0 -3 17 5 38 17 100 60 554 303 1411 756 117 63 216 116 219 119
16 16 -32 -7 -193 -92z"/>
<path d="M9737 14443 c-4 -3 -7 -11 -7 -17 0 -6 5 -5 12 2 6 6 9 14 7 17 -3 3
-9 2 -12 -2z"/>
<path d="M9700 14374 c0 -8 5 -12 10 -9 6 3 10 10 10 16 0 5 -4 9 -10 9 -5 0
-10 -7 -10 -16z"/>
<path d="M9677 14323 c-4 -3 -7 -11 -7 -17 0 -6 5 -5 12 2 6 6 9 14 7 17 -3 3
-9 2 -12 -2z"/>
<path d="M9650 14254 c0 -8 5 -12 10 -9 6 3 10 10 10 16 0 5 -4 9 -10 9 -5 0
-10 -7 -10 -16z"/>
<path d="M9240 14134 c-303 -183 -638 -413 -847 -581 -128 -103 -129 -114 -2
-16 230 177 568 409 864 593 144 90 175 110 164 110 -3 0 -83 -48 -179 -106z"/>
<path d="M9626 14201 c-4 -7 -5 -15 -2 -18 9 -9 19 4 14 18 -4 11 -6 11 -12 0z"/>
<path d="M11195 14127 c-45 -46 -88 -94 -95 -108 -11 -21 -10 -22 2 -9 8 8 54
57 103 108 49 50 85 92 80 92 -4 0 -45 -37 -90 -83z"/>
<path d="M9526 14145 c-9 -26 -7 -32 5 -12 6 10 9 21 6 23 -2 3 -7 -2 -11 -11z"/>
<path d="M9606 14135 c-3 -8 -1 -15 4 -15 6 0 10 7 10 15 0 8 -2 15 -4 15 -2
0 -6 -7 -10 -15z"/>
<path d="M9511 14074 c0 -11 3 -14 6 -6 3 7 2 16 -1 19 -3 4 -6 -2 -5 -13z"/>
<path d="M9591 14074 c0 -11 3 -14 6 -6 3 7 2 16 -1 19 -3 4 -6 -2 -5 -13z"/>
<path d="M9490 14005 c0 -8 2 -15 4 -15 2 0 6 7 10 15 3 8 1 15 -4 15 -6 0
-10 -7 -10 -15z"/>
<path d="M9570 14004 c0 -8 5 -12 10 -9 6 3 10 10 10 16 0 5 -4 9 -10 9 -5 0
-10 -7 -10 -16z"/>
<path d="M9481 13944 c0 -11 3 -14 6 -6 3 7 2 16 -1 19 -3 4 -6 -2 -5 -13z"/>
<path d="M9556 13945 c-3 -8 -1 -15 4 -15 6 0 10 7 10 15 0 8 -2 15 -4 15 -2
0 -6 -7 -10 -15z"/>
<path d="M9546 13891 c-4 -7 -5 -15 -2 -18 9 -9 19 4 14 18 -4 11 -6 11 -12 0z"/>
<path d="M9471 13874 c0 -11 3 -14 6 -6 3 7 2 16 -1 19 -3 4 -6 -2 -5 -13z"/>
<path d="M9530 13815 c0 -8 5 -15 10 -15 6 0 10 7 10 15 0 8 -4 15 -10 15 -5
0 -10 -7 -10 -15z"/>
<path d="M9524 13759 c-3 -6 -1 -16 5 -22 8 -8 11 -5 11 11 0 24 -5 28 -16 11z"/>
<path d="M10900 13755 c-7 -9 -8 -15 -2 -15 5 0 12 7 16 15 3 8 4 15 2 15 -2
0 -9 -7 -16 -15z"/>
<path d="M9452 13740 c0 -14 2 -19 5 -12 2 6 2 18 0 25 -3 6 -5 1 -5 -13z"/>
<path d="M10865 13709 c-4 -6 -5 -12 -2 -15 2 -3 7 2 10 11 7 17 1 20 -8 4z"/>
<path d="M11916 13690 c4 -14 13 -38 20 -55 11 -24 13 -25 8 -5 -4 14 -13 39
-20 55 -11 24 -13 25 -8 5z"/>
<path d="M9520 13684 c0 -8 5 -12 10 -9 6 4 8 11 5 16 -9 14 -15 11 -15 -7z"/>
<path d="M9446 13681 c-4 -7 -5 -15 -2 -18 9 -9 19 4 14 18 -4 11 -6 11 -12 0z"/>
<path d="M10819 13653 c-13 -16 -12 -17 4 -4 16 13 21 21 13 21 -2 0 -10 -8
-17 -17z"/>
<path d="M9515 13627 c-4 -10 -5 -21 -1 -24 10 -10 18 4 13 24 -4 17 -4 17
-12 0z"/>
<path d="M9441 13604 c0 -11 3 -14 6 -6 3 7 2 16 -1 19 -3 4 -6 -2 -5 -13z"/>
<path d="M10725 13570 c-3 -5 -1 -10 4 -10 6 0 11 5 11 10 0 6 -2 10 -4 10 -3
0 -8 -4 -11 -10z"/>
<path d="M9510 13555 c0 -8 5 -15 10 -15 6 0 10 7 10 15 0 8 -4 15 -10 15 -5
0 -10 -7 -10 -15z"/>
<path d="M9441 13534 c0 -11 3 -14 6 -6 3 7 2 16 -1 19 -3 4 -6 -2 -5 -13z"/>
<path d="M10675 13530 c-3 -5 -2 -10 4 -10 5 0 13 5 16 10 3 6 2 10 -4 10 -5
0 -13 -4 -16 -10z"/>
<path d="M12124 13375 c0 -77 2 -107 3 -67 2 40 2 103 0 140 -2 37 -3 4 -3
-73z"/>
<path d="M9510 13485 c0 -8 5 -15 10 -15 6 0 10 7 10 15 0 8 -4 15 -10 15 -5
0 -10 -7 -10 -15z"/>
<path d="M10615 13490 c-3 -5 -2 -10 4 -10 5 0 13 5 16 10 3 6 2 10 -4 10 -5
0 -13 -4 -16 -10z"/>
<path d="M9436 13481 c-4 -7 -5 -15 -2 -18 9 -9 19 4 14 18 -4 11 -6 11 -12 0z"/>
<path d="M10560 13450 c-8 -5 -12 -12 -9 -15 4 -3 12 1 19 10 14 17 11 19 -10
5z"/>
<path d="M9515 13431 c-3 -5 -1 -12 5 -16 5 -3 10 1 10 9 0 18 -6 21 -15 7z"/>
<path d="M9441 13404 c0 -11 3 -14 6 -6 3 7 2 16 -1 19 -3 4 -6 -2 -5 -13z"/>
<path d="M10495 13400 c-3 -5 -2 -10 4 -10 5 0 13 5 16 10 3 6 2 10 -4 10 -5
0 -13 -4 -16 -10z"/>
<path d="M9520 13355 c0 -8 5 -15 10 -15 6 0 10 7 10 15 0 8 -4 15 -10 15 -5
0 -10 -7 -10 -15z"/>
<path d="M10440 13355 c-8 -9 -8 -15 -2 -15 12 0 26 19 19 26 -2 2 -10 -2 -17
-11z"/>
<path d="M9441 13344 c0 -11 3 -14 6 -6 3 7 2 16 -1 19 -3 4 -6 -2 -5 -13z"/>
<path d="M4808 13313 c7 -3 16 -2 19 1 4 3 -2 6 -13 5 -11 0 -14 -3 -6 -6z"/>
<path d="M10397 13313 c-4 -3 -7 -11 -7 -17 0 -6 5 -5 12 2 6 6 9 14 7 17 -3
3 -9 2 -12 -2z"/>
<path d="M4687 13288 c-43 -11 -76 -22 -74 -25 5 -4 169 36 176 43 8 8 -24 2
-102 -18z"/>
<path d="M9530 13289 c0 -11 4 -18 10 -14 5 3 7 12 3 20 -7 21 -13 19 -13 -6z"/>
<path d="M9445 13280 c3 -5 8 -10 11 -10 2 0 4 5 4 10 0 6 -5 10 -11 10 -5 0
-7 -4 -4 -10z"/>
<path d="M4578 13253 c7 -3 16 -2 19 1 4 3 -2 6 -13 5 -11 0 -14 -3 -6 -6z"/>
<path d="M10345 13249 c-11 -17 1 -21 15 -4 8 9 8 15 2 15 -6 0 -14 -5 -17
-11z"/>
<path d="M9545 13210 c3 -5 8 -10 11 -10 2 0 4 5 4 10 0 6 -5 10 -11 10 -5 0
-7 -4 -4 -10z"/>
<path d="M9640 13210 c0 -5 5 -10 11 -10 5 0 7 5 4 10 -3 6 -8 10 -11 10 -2 0
-4 -4 -4 -10z"/>
<path d="M10307 13193 c-4 -3 -7 -11 -7 -17 0 -6 5 -5 12 2 6 6 9 14 7 17 -3
3 -9 2 -12 -2z"/>
<path d="M9557 13160 c3 -11 7 -20 9 -20 2 0 4 9 4 20 0 11 -4 20 -9 20 -5 0
-7 -9 -4 -20z"/>
<path d="M9676 13157 c3 -10 9 -15 12 -12 3 3 0 11 -7 18 -10 9 -11 8 -5 -6z"/>
<path d="M10266 13123 c-6 -14 -5 -15 5 -6 7 7 10 15 7 18 -3 3 -9 -2 -12 -12z"/>
<path d="M9570 13100 c0 -5 5 -10 10 -10 6 0 10 5 10 10 0 6 -4 10 -10 10 -5
0 -10 -4 -10 -10z"/>
<path d="M10237 13073 c-4 -3 -7 -11 -7 -17 0 -6 5 -5 12 2 6 6 9 14 7 17 -3
3 -9 2 -12 -2z"/>
<path d="M9590 13045 c0 -8 4 -15 10 -15 5 0 7 7 4 15 -4 8 -8 15 -10 15 -2 0
-4 -7 -4 -15z"/>
<path d="M13501 13058 c-1 -3 24 -152 54 -330 80 -477 114 -812 136 -1355 31
-750 -86 -1711 -322 -2648 -96 -378 -162 -702 -195 -955 -19 -148 -30 -600
-16 -680 10 -54 10 -54 11 40 2 183 21 476 42 640 23 189 88 523 153 785 198
801 282 1289 343 1980 45 523 4 1444 -92 2013 -32 187 -110 539 -114 510z"/>
<path d="M9746 13035 c4 -8 11 -15 16 -15 6 0 5 6 -2 15 -7 8 -14 15 -16 15
-2 0 -1 -7 2 -15z"/>
<path d="M10200 12999 c0 -5 5 -7 10 -4 6 3 10 8 10 11 0 2 -4 4 -10 4 -5 0
-10 -5 -10 -11z"/>
<path d="M9610 12993 c0 -4 5 -15 10 -23 8 -13 10 -13 10 2 0 9 -4 20 -10 23
-5 3 -10 3 -10 -2z"/>
<path d="M9260 12898 c-311 -174 -571 -349 -901 -608 -174 -136 -410 -337
-425 -362 -4 -7 14 6 42 30 157 135 392 324 549 442 274 206 462 328 803 524
69 40 93 57 80 56 -2 0 -68 -37 -148 -82z"/>
<path d="M9515 12970 c3 -5 8 -10 11 -10 2 0 4 5 4 10 0 6 -5 10 -11 10 -5 0
-7 -4 -4 -10z"/>
<path d="M10166 12935 c-3 -8 -1 -15 4 -15 6 0 10 7 10 15 0 8 -2 15 -4 15 -2
0 -6 -7 -10 -15z"/>
<path d="M9640 12933 c0 -4 5 -15 10 -23 8 -13 10 -13 10 2 0 9 -4 20 -10 23
-5 3 -10 3 -10 -2z"/>
<path d="M9540 12910 c6 -11 12 -20 14 -20 2 0 2 9 -1 20 -3 11 -9 20 -15 20
-5 0 -4 -9 2 -20z"/>
<path d="M9860 12886 c0 -2 8 -10 18 -17 15 -13 16 -12 3 4 -13 16 -21 21 -21
13z"/>
<path d="M10137 12883 c-4 -3 -7 -11 -7 -17 0 -6 5 -5 12 2 6 6 9 14 7 17 -3
3 -9 2 -12 -2z"/>
<path d="M9670 12875 c0 -5 9 -21 20 -35 11 -14 20 -20 20 -15 0 6 -9 21 -20
35 -11 14 -20 21 -20 15z"/>
<path d="M9275 12743 c-151 -103 -418 -301 -475 -353 -19 -17 21 11 90 63 131
98 361 264 468 336 52 35 73 53 60 51 -2 -1 -66 -44 -143 -97z"/>
<path d="M9600 12801 c0 -6 4 -13 10 -16 6 -3 7 1 4 9 -7 18 -14 21 -14 7z"/>
<path d="M9775 12730 c3 -5 8 -10 11 -10 2 0 4 5 4 10 0 6 -5 10 -11 10 -5 0
-7 -4 -4 -10z"/>
<path d="M9990 12716 c0 -2 8 -10 18 -17 15 -13 16 -12 3 4 -13 16 -21 21 -21
13z"/>
<path d="M9478 12625 c-195 -151 -329 -283 -907 -898 -188 -200 -417 -425
-632 -622 -82 -75 -61 -61 60 40 128 107 507 485 742 740 256 278 570 591 693
690 128 103 152 124 146 125 -3 0 -48 -34 -102 -75z"/>
<path d="M9810 12686 c0 -2 7 -9 15 -16 13 -11 14 -10 9 4 -5 14 -24 23 -24
12z"/>
<path d="M10035 12650 c3 -5 8 -10 11 -10 2 0 4 5 4 10 0 6 -5 10 -11 10 -5 0
-7 -4 -4 -10z"/>
<path d="M9860 12631 c0 -5 5 -13 10 -16 6 -3 10 -2 10 4 0 5 -4 13 -10 16 -5
3 -10 2 -10 -4z"/>
<path d="M9906 12575 c4 -8 11 -15 16 -15 6 0 5 6 -2 15 -7 8 -14 15 -16 15
-2 0 -1 -7 2 -15z"/>
<path d="M10105 12540 c3 -5 8 -10 11 -10 2 0 4 5 4 10 0 6 -5 10 -11 10 -5 0
-7 -4 -4 -10z"/>
<path d="M9945 12520 c3 -5 8 -10 11 -10 2 0 4 5 4 10 0 6 -5 10 -11 10 -5 0
-7 -4 -4 -10z"/>
<path d="M7329 12463 c-62 -65 -276 -317 -531 -624 -499 -600 -681 -804 -1057
-1180 -284 -284 -443 -431 -831 -769 -135 -117 -254 -222 -265 -234 l-20 -20
20 15 c39 30 363 308 501 429 550 485 1013 965 1524 1584 203 246 505 608 605
724 97 113 119 143 54 75z"/>
<path d="M10140 12480 c0 -5 5 -10 11 -10 5 0 7 5 4 10 -3 6 -8 10 -11 10 -2
0 -4 -4 -4 -10z"/>
<path d="M9976 12465 c4 -8 10 -15 15 -15 4 0 6 7 3 15 -4 8 -10 15 -15 15 -4
0 -6 -7 -3 -15z"/>
<path d="M10010 12411 c0 -5 5 -13 10 -16 6 -3 10 -2 10 4 0 5 -4 13 -10 16
-5 3 -10 2 -10 -4z"/>
<path d="M8734 12338 l-19 -23 23 19 c21 18 27 26 19 26 -2 0 -12 -10 -23 -22z"/>
<path d="M10035 12350 c3 -5 11 -10 16 -10 6 0 7 5 4 10 -3 6 -11 10 -16 10
-6 0 -7 -4 -4 -10z"/>
<path d="M10060 12290 c0 -5 5 -10 10 -10 6 0 10 5 10 10 0 6 -4 10 -10 10 -5
0 -10 -4 -10 -10z"/>
<path d="M10090 12230 c0 -5 5 -10 10 -10 6 0 10 5 10 10 0 6 -4 10 -10 10 -5
0 -10 -4 -10 -10z"/>
<path d="M10110 12171 c0 -6 5 -13 10 -16 6 -3 10 1 10 9 0 9 -4 16 -10 16 -5
0 -10 -4 -10 -9z"/>
<path d="M10130 12111 c0 -6 5 -13 10 -16 6 -3 10 1 10 9 0 9 -4 16 -10 16 -5
0 -10 -4 -10 -9z"/>
<path d="M11882 11975 c-25 -286 -34 -600 -28 -910 4 -170 9 -330 12 -355 8
-68 -6 -39 -101 212 -46 123 -85 217 -85 210 0 -13 101 -289 158 -433 29 -72
31 -88 44 -315 7 -131 14 -221 16 -200 2 22 -1 116 -7 210 -10 164 -9 200 5
160 14 -38 148 -354 231 -544 254 -582 322 -819 397 -1380 13 -102 32 -268 41
-370 16 -184 23 -233 24 -175 1 47 -27 366 -45 505 -77 613 -139 822 -469
1575 -31 72 -88 204 -126 295 l-70 165 -11 319 c-11 327 -2 739 23 1008 6 64
9 127 7 140 -2 12 -9 -40 -16 -117z"/>
<path d="M10150 12046 c0 -9 5 -16 10 -16 6 0 10 4 10 9 0 6 -4 13 -10 16 -5
3 -10 -1 -10 -9z"/>
<path d="M10311 12044 c0 -11 3 -14 6 -6 3 7 2 16 -1 19 -3 4 -6 -2 -5 -13z"/>
<path d="M10170 11985 c0 -8 4 -15 10 -15 5 0 7 7 4 15 -4 8 -8 15 -10 15 -2
0 -4 -7 -4 -15z"/>
<path d="M10331 11984 c0 -11 3 -14 6 -6 3 7 2 16 -1 19 -3 4 -6 -2 -5 -13z"/>
<path d="M10180 11920 c0 -5 5 -10 10 -10 6 0 10 5 10 10 0 6 -4 10 -10 10 -5
0 -10 -4 -10 -10z"/>
<path d="M10340 11920 c0 -5 5 -10 11 -10 5 0 7 5 4 10 -3 6 -8 10 -11 10 -2
0 -4 -4 -4 -10z"/>
<path d="M10200 11856 c0 -9 5 -16 10 -16 6 0 10 4 10 9 0 6 -4 13 -10 16 -5
3 -10 -1 -10 -9z"/>
<path d="M10361 11854 c0 -11 3 -14 6 -6 3 7 2 16 -1 19 -3 4 -6 -2 -5 -13z"/>
<path d="M10210 11796 c0 -9 5 -16 10 -16 6 0 10 4 10 9 0 6 -4 13 -10 16 -5
3 -10 -1 -10 -9z"/>
<path d="M10371 11794 c0 -11 3 -14 6 -6 3 7 2 16 -1 19 -3 4 -6 -2 -5 -13z"/>
<path d="M13441 11764 c0 -11 3 -14 6 -6 3 7 2 16 -1 19 -3 4 -6 -2 -5 -13z"/>
<path d="M10220 11731 c0 -6 5 -13 10 -16 6 -3 10 1 10 9 0 9 -4 16 -10 16 -5
0 -10 -4 -10 -9z"/>
<path d="M10380 11730 c0 -5 5 -10 11 -10 5 0 7 5 4 10 -3 6 -8 10 -11 10 -2
0 -4 -4 -4 -10z"/>
<path d="M13455 11615 c3 -60 10 -225 16 -365 16 -371 1 -773 -47 -1235 -27
-263 -86 -657 -174 -1165 -69 -393 -136 -861 -155 -1070 -8 -98 -14 -263 -13
-375 l1 -200 8 225 c4 124 12 281 18 350 17 181 76 599 122 865 165 963 218
1365 249 1880 18 305 7 882 -20 1125 -8 68 -9 65 -5 -35z"/>
<path d="M10241 11664 c0 -11 3 -14 6 -6 3 7 2 16 -1 19 -3 4 -6 -2 -5 -13z"/>
<path d="M8781 11639 c-1 -3 14 -43 33 -90 131 -324 281 -828 325 -1094 51
-304 82 -658 88 -1022 6 -340 -3 -565 -42 -998 -14 -148 -27 -315 -29 -370 -3
-55 8 31 24 190 86 855 87 1306 4 1980 -37 309 -145 730 -283 1112 -62 171
-118 308 -120 292z"/>
<path d="M10261 11534 c0 -11 3 -14 6 -6 3 7 2 16 -1 19 -3 4 -6 -2 -5 -13z"/>
<path d="M10411 11534 c0 -11 3 -14 6 -6 3 7 2 16 -1 19 -3 4 -6 -2 -5 -13z"/>
<path d="M10265 11470 c3 -5 8 -10 11 -10 2 0 4 5 4 10 0 6 -5 10 -11 10 -5 0
-7 -4 -4 -10z"/>
<path d="M10270 11411 c0 -6 5 -13 10 -16 6 -3 10 1 10 9 0 9 -4 16 -10 16 -5
0 -10 -4 -10 -9z"/>
<path d="M10431 11404 c0 -11 3 -14 6 -6 3 7 2 16 -1 19 -3 4 -6 -2 -5 -13z"/>
<path d="M7110 11303 c-146 -119 -369 -312 -545 -473 -262 -240 -480 -424
-647 -548 -76 -56 -74 -64 2 -12 131 89 369 288 645 540 173 157 336 301 510
449 128 109 141 121 134 121 -3 0 -48 -35 -99 -77z"/>
<path d="M10280 11340 c0 -5 5 -10 10 -10 6 0 10 5 10 10 0 6 -4 10 -10 10 -5
0 -10 -4 -10 -10z"/>
<path d="M10435 11340 c3 -5 8 -10 11 -10 2 0 4 5 4 10 0 6 -5 10 -11 10 -5 0
-7 -4 -4 -10z"/>
<path d="M10750 11317 c0 -16 57 -160 88 -222 101 -203 468 -815 488 -815 6 0
1 10 -46 80 -70 105 -143 226 -270 451 -149 262 -179 320 -221 426 -29 74 -39
94 -39 80z"/>
<path d="M10290 11274 c0 -8 5 -12 10 -9 6 4 8 11 5 16 -9 14 -15 11 -15 -7z"/>
<path d="M10440 11280 c0 -5 5 -10 11 -10 5 0 7 5 4 10 -3 6 -8 10 -11 10 -2
0 -4 -4 -4 -10z"/>
<path d="M10302 11210 c0 -14 2 -19 5 -12 2 6 2 18 0 25 -3 6 -5 1 -5 -13z"/>
<path d="M10451 11204 c0 -11 3 -14 6 -6 3 7 2 16 -1 19 -3 4 -6 -2 -5 -13z"/>
<path d="M10300 11145 c0 -8 5 -15 10 -15 6 0 10 7 10 15 0 8 -4 15 -10 15 -5
0 -10 -7 -10 -15z"/>
<path d="M9401 11105 c0 -5 11 -30 24 -55 13 -25 24 -40 24 -35 0 6 -11 30
-24 55 -13 25 -24 41 -24 35z"/>
<path d="M10310 11080 c0 -5 5 -10 10 -10 6 0 10 5 10 10 0 6 -4 10 -10 10 -5
0 -10 -4 -10 -10z"/>
<path d="M10460 11081 c0 -5 5 -13 10 -16 6 -3 10 -2 10 4 0 5 -4 13 -10 16
-5 3 -10 2 -10 -4z"/>
<path d="M10320 11016 c0 -9 5 -16 10 -16 6 0 10 4 10 9 0 6 -4 13 -10 16 -5
3 -10 -1 -10 -9z"/>
<path d="M10331 10944 c0 -11 3 -14 6 -6 3 7 2 16 -1 19 -3 4 -6 -2 -5 -13z"/>
<path d="M12411 10944 c0 -11 3 -14 6 -6 3 7 2 16 -1 19 -3 4 -6 -2 -5 -13z"/>
<path d="M13218 10575 c6 -476 -15 -757 -99 -1365 -69 -499 -114 -908 -129
-1178 -9 -174 0 -441 20 -547 l9 -50 -5 60 c-15 205 -15 511 0 695 21 241 65
625 111 955 84 615 108 910 107 1315 -1 173 -5 351 -9 395 -5 50 -7 -57 -5
-280z"/>
<path d="M9231 10904 c0 -11 3 -14 6 -6 3 7 2 16 -1 19 -3 4 -6 -2 -5 -13z"/>
<path d="M10335 10891 c-3 -5 -1 -12 5 -16 5 -3 10 1 10 9 0 18 -6 21 -15 7z"/>
<path d="M9241 10864 c0 -11 3 -14 6 -6 3 7 2 16 -1 19 -3 4 -6 -2 -5 -13z"/>
<path d="M9251 10824 c0 -11 3 -14 6 -6 3 7 2 16 -1 19 -3 4 -6 -2 -5 -13z"/>
<path d="M9262 10780 c0 -14 2 -19 5 -12 2 6 2 18 0 25 -3 6 -5 1 -5 -13z"/>
<path d="M9272 10735 c0 -11 4 -31 8 -45 6 -20 8 -21 8 -5 0 11 -4 31 -8 45
-6 20 -8 21 -8 5z"/>
<path d="M10360 10691 c0 -5 5 -13 10 -16 6 -3 10 -2 10 4 0 5 -4 13 -10 16
-5 3 -10 2 -10 -4z"/>
<path d="M7224 10602 c-189 -141 -495 -307 -849 -462 -215 -94 -421 -196 -465
-230 -14 -11 54 20 150 68 96 48 243 116 325 151 370 159 740 366 900 506 61
53 39 41 -61 -33z"/>
<path d="M9291 10644 c0 -11 3 -14 6 -6 3 7 2 16 -1 19 -3 4 -6 -2 -5 -13z"/>
<path d="M10370 10620 c0 -5 5 -10 10 -10 6 0 10 5 10 10 0 6 -4 10 -10 10 -5
0 -10 -4 -10 -10z"/>
<path d="M10385 10550 c3 -5 8 -10 11 -10 2 0 4 5 4 10 0 6 -5 10 -11 10 -5 0
-7 -4 -4 -10z"/>
<path d="M6763 10495 c-35 -24 -230 -143 -317 -192 -44 -26 -187 -99 -316
-164 -129 -65 -244 -124 -255 -133 -26 -20 459 219 568 280 90 50 347 213 347
220 0 7 -4 5 -27 -11z"/>
<path d="M8795 10050 c-118 -357 -356 -798 -590 -1090 -120 -150 -305 -346
-495 -522 -190 -177 -297 -280 -265 -256 114 85 364 306 506 448 235 235 389
423 527 648 35 56 66 102 69 102 14 0 -8 -749 -36 -1235 -71 -1256 -85 -1694
-71 -2250 12 -477 28 -747 66 -1105 l15 -146 -40 -374 c-22 -206 -52 -481 -66
-610 -38 -361 -131 -1120 -169 -1397 -20 -136 -45 -322 -56 -413 -24 -189
-145 -1019 -160 -1099 -13 -72 -13 -91 4 -91 10 0 19 27 30 88 47 261 202
1359 280 1987 49 393 166 1446 182 1648 4 42 10 77 13 77 4 0 14 -62 24 -137
28 -220 112 -711 176 -1027 81 -395 184 -841 381 -1641 45 -181 108 -447 140
-590 32 -143 66 -293 75 -332 11 -48 22 -73 31 -73 8 0 14 3 14 6 0 42 -155
722 -279 1224 -190 769 -273 1134 -352 1540 -194 995 -278 1853 -279 2825 0
377 11 641 75 1840 40 749 48 969 41 1167 l-7 187 34 68 c60 120 135 316 187
489 28 92 49 173 47 178 -2 6 -25 -54 -52 -134z"/>
<path d="M11903 10070 c0 -41 2 -58 4 -37 2 20 2 54 0 75 -2 20 -4 3 -4 -38z"/>
<path d="M10211 9684 c0 -11 3 -14 6 -6 3 7 2 16 -1 19 -3 4 -6 -2 -5 -13z"/>
<path d="M12692 9265 c-4 -520 30 -991 94 -1320 28 -146 117 -492 122 -477 1
5 -9 52 -23 103 -61 217 -124 545 -144 754 -16 163 -32 498 -40 840 -8 319 -8
319 -9 100z"/>
<path d="M3861 9384 c0 -11 3 -14 6 -6 3 7 2 16 -1 19 -3 4 -6 -2 -5 -13z"/>
<path d="M10562 8740 c0 -14 2 -19 5 -12 2 6 2 18 0 25 -3 6 -5 1 -5 -13z"/>
<path d="M12280 8525 c0 -5 5 -17 10 -25 5 -8 10 -10 10 -5 0 6 -5 17 -10 25
-5 8 -10 11 -10 5z"/>
<path d="M9485 7765 c2 -761 3 -779 60 -1171 68 -466 187 -955 350 -1434 71
-210 125 -353 131 -348 2 3 -10 40 -27 84 -17 43 -64 180 -104 304 -209 639
-325 1184 -386 1815 -6 67 -15 419 -19 790 l-7 670 2 -710z"/>
<path d="M12461 8284 c0 -11 3 -14 6 -6 3 7 2 16 -1 19 -3 4 -6 -2 -5 -13z"/>
<path d="M9143 7925 c0 -22 2 -30 4 -17 2 12 2 30 0 40 -3 9 -5 -1 -4 -23z"/>
<path d="M13022 7405 c0 -16 2 -22 5 -12 2 9 2 23 0 30 -3 6 -5 -1 -5 -18z"/>
<path d="M10632 7373 c-1 -29 -9 -153 -17 -275 -50 -733 -100 -1136 -191
-1552 -19 -88 -33 -164 -31 -169 10 -30 107 454 142 708 53 383 114 1152 103
1290 l-4 50 -2 -52z"/>
<path d="M9161 6948 c-2 -57 27 -266 65 -464 88 -472 261 -1043 443 -1465 61
-142 219 -467 231 -474 5 -3 -29 72 -74 167 -170 354 -282 637 -391 993 -116
379 -222 853 -259 1165 -7 63 -14 99 -15 78z"/>
<path d="M10115 6940 c15 -113 47 -437 64 -640 46 -548 50 -802 16 -1114 -23
-220 -25 -242 -20 -231 2 6 14 80 26 165 27 200 36 568 20 820 -23 357 -82
941 -101 1005 -10 30 -10 30 -5 -5z"/>
<path d="M10381 5344 c0 -11 3 -14 6 -6 3 7 2 16 -1 19 -3 4 -6 -2 -5 -13z"/>
<path d="M10361 5274 c0 -11 3 -14 6 -6 3 7 2 16 -1 19 -3 4 -6 -2 -5 -13z"/>
<path d="M10341 5209 c-7 -22 -11 -43 -8 -45 2 -2 9 14 16 37 7 22 11 43 8 45
-2 2 -9 -14 -16 -37z"/>
<path d="M12052 2905 c0 -16 2 -22 5 -12 2 9 2 23 0 30 -3 6 -5 -1 -5 -18z"/>
<path d="M12062 2820 c0 -19 2 -27 5 -17 2 9 2 25 0 35 -3 9 -5 1 -5 -18z"/>
<path d="M12071 2757 c-1 -41 66 -509 95 -662 75 -386 174 -758 285 -1070 58
-161 138 -349 146 -342 1 2 -15 45 -37 96 -63 145 -156 417 -225 656 -101 352
-178 735 -244 1215 -10 74 -19 122 -20 107z"/>
</g>
</svg>
