<?xml version="1.0" standalone="no"?>
<!DOCTYPE svg PUBLIC "-//W3C//DTD SVG 20010904//EN"
 "http://www.w3.org/TR/2001/REC-SVG-20010904/DTD/svg10.dtd">
<svg version="1.0" xmlns="http://www.w3.org/2000/svg"
 width="1650.000000pt" height="2210.000000pt" viewBox="0 0 1650.000000 2210.000000"
 preserveAspectRatio="xMidYMid meet">

<g transform="translate(0.000000,2210.000000) scale(0.100000,-0.100000)"
fill="#000000" stroke="none">
<path d="M6202 21688 c2 -116 -1 -141 -20 -192 -80 -217 -284 -401 -722 -648
-115 -65 -369 -198 -980 -513 -179 -92 -401 -209 -495 -260 -324 -176 -631
-332 -775 -395 -80 -35 -269 -105 -420 -155 -515 -173 -771 -289 -1055 -478
-622 -415 -981 -1159 -1095 -2268 -56 -550 -51 -1080 16 -1818 24 -268 24
-277 9 -430 -9 -86 -41 -302 -70 -481 -184 -1109 -246 -1591 -315 -2455 -21
-258 -38 -745 -26 -734 9 9 33 233 61 574 75 922 147 1528 260 2190 36 214 97
602 131 840 7 46 11 28 49 -195 40 -230 111 -569 123 -580 3 -3 2 11 -2 30
-95 482 -189 1269 -217 1815 -15 278 -6 913 15 1120 82 798 231 1313 507 1748
317 500 717 769 1577 1061 152 52 320 111 372 131 141 54 431 198 840 417 201
107 547 289 770 403 805 414 996 524 1204 696 97 79 171 163 230 260 l38 64
-6 -175 c-7 -240 -46 -486 -106 -674 -35 -109 -23 -101 24 16 93 232 116 381
123 776 6 363 1 442 -28 442 -18 0 -19 -7 -17 -132z"/>
<path d="M10265 21810 c-4 -6 -9 -133 -12 -283 -7 -363 14 -566 82 -802 23
-80 84 -229 91 -222 2 1 -8 39 -22 82 -35 109 -69 276 -88 421 -17 134 -33
424 -23 424 4 0 16 -19 28 -42 33 -65 90 -136 171 -214 207 -199 371 -296
1403 -827 209 -107 436 -226 505 -263 757 -407 874 -461 1295 -604 465 -158
687 -252 928 -397 429 -258 715 -605 922 -1121 139 -348 225 -739 282 -1282
22 -212 25 -1140 5 -1400 -37 -469 -104 -998 -177 -1399 -19 -107 -34 -196
-32 -197 10 -11 131 577 153 744 7 53 24 72 24 26 0 -30 52 -368 120 -774 127
-763 186 -1247 265 -2202 19 -234 40 -459 45 -500 5 -40 10 -81 10 -90 0 -10
5 -18 11 -18 27 0 -41 990 -107 1560 -62 540 -114 894 -234 1610 -88 521 -91
581 -51 1033 60 672 53 1353 -19 1905 -98 747 -324 1315 -692 1742 -130 150
-315 296 -550 434 -198 116 -506 244 -911 380 -142 48 -316 112 -385 142 -137
60 -442 215 -734 373 -200 108 -896 471 -904 471 -2 0 -109 55 -237 122 -771
403 -1006 585 -1103 854 -21 56 -24 83 -24 194 0 107 -3 130 -14 130 -8 0 -18
-5 -21 -10z"/>
<path d="M7161 21254 c0 -11 3 -14 6 -6 3 7 2 16 -1 19 -3 4 -6 -2 -5 -13z"/>
<path d="M9331 21244 c0 -11 3 -14 6 -6 3 7 2 16 -1 19 -3 4 -6 -2 -5 -13z"/>
<path d="M7171 21225 c-1 -11 127 -429 158 -515 37 -105 21 -38 -33 133 -30
95 -70 222 -89 282 -19 61 -35 105 -36 100z"/>
<path d="M9281 21084 c-18 -58 -30 -108 -28 -110 2 -2 18 44 36 102 18 58 31
107 29 110 -3 2 -19 -44 -37 -102z"/>
<path d="M9236 20934 c-4 -14 -5 -28 -3 -31 3 -2 8 8 11 23 4 14 5 28 3 31 -3
2 -8 -8 -11 -23z"/>
<path d="M9187 20778 c-20 -62 -35 -114 -33 -116 2 -2 21 47 41 108 20 61 35
113 33 115 -2 2 -20 -46 -41 -107z"/>
<path d="M7620 19938 c0 -12 116 -290 182 -433 65 -140 168 -327 205 -372 12
-15 0 13 -29 62 -64 112 -166 323 -252 523 -66 154 -105 233 -106 220z"/>
<path d="M8856 19892 c-10 -20 -52 -116 -93 -212 -133 -312 -248 -526 -333
-623 -45 -51 -68 -66 -115 -78 l-30 -7 28 -1 c92 -3 203 141 357 463 69 143
213 486 207 492 -2 2 -12 -13 -21 -34z"/>
<path d="M3765 19651 c-25 -4 33 -9 160 -14 316 -11 518 -48 910 -167 703
-215 983 -260 1880 -305 464 -24 678 -60 814 -138 70 -39 186 -150 257 -244
30 -40 57 -73 60 -73 7 0 -26 61 -66 120 -120 177 -271 276 -480 314 -133 25
-340 44 -655 61 -843 44 -1090 83 -1700 265 -510 152 -658 181 -945 185 -107
2 -213 0 -235 -4z"/>
<path d="M12245 19640 c-211 -32 -327 -62 -770 -195 -485 -146 -807 -197
-1445 -230 -693 -35 -890 -62 -1038 -140 -119 -62 -216 -155 -289 -277 -55
-91 -49 -96 15 -11 130 171 275 273 443 312 124 29 326 49 738 71 783 42 1120
97 1671 270 463 145 669 186 1005 197 141 5 185 9 150 14 -98 14 -356 8 -480
-11z"/>
<path d="M3110 19379 c38 -34 139 -78 216 -94 90 -19 150 -19 314 2 397 50
762 -8 1235 -197 287 -115 647 -228 855 -268 148 -29 220 -39 515 -67 381 -36
549 -69 762 -148 157 -59 164 -61 123 -39 -98 55 -359 133 -555 166 -49 9
-207 27 -350 41 -143 13 -312 33 -375 44 -249 43 -565 140 -995 305 -239 92
-352 127 -545 167 -190 40 -438 50 -635 25 -255 -31 -386 -18 -520 53 -67 35
-75 37 -45 10z"/>
<path d="M13350 19369 c-131 -70 -272 -84 -515 -54 -139 17 -359 20 -472 5
-244 -33 -418 -81 -751 -209 -476 -182 -775 -269 -1072 -311 -41 -5 -174 -19
-295 -30 -413 -38 -645 -93 -885 -209 -103 -50 -94 -47 81 23 232 94 410 132
780 166 396 36 548 61 809 135 159 45 433 138 575 195 256 103 473 167 680
200 202 32 307 34 523 11 107 -12 220 -21 251 -21 104 0 259 50 326 105 38 31
33 30 -35 -6z"/>
<path d="M7171 18546 c10 -9 149 -76 149 -71 0 5 -136 75 -146 75 -4 0 -5 -2
-3 -4z"/>
<path d="M4283 18448 c-201 -181 -497 -452 -596 -548 -169 -163 -192 -197
-450 -655 -195 -347 -317 -580 -317 -604 0 -3 31 53 69 124 37 72 109 202 158
290 49 88 134 239 188 335 178 317 238 393 510 638 83 75 193 177 245 227 52
50 137 130 189 178 51 48 92 87 90 87 -3 0 -41 -33 -86 -72z"/>
<path d="M12170 18488 c89 -90 313 -299 492 -461 263 -237 330 -317 463 -557
32 -58 109 -195 170 -305 101 -180 227 -411 269 -490 8 -16 15 -26 16 -21 0
14 -146 293 -279 531 -65 116 -145 260 -179 320 -126 227 -183 293 -510 589
-324 294 -485 437 -442 394z"/>
<path d="M9220 18495 c-14 -8 -20 -14 -14 -15 5 0 19 7 30 15 24 18 16 19 -16
0z"/>
<path d="M7841 17244 c0 -11 3 -14 6 -6 3 7 2 16 -1 19 -3 4 -6 -2 -5 -13z"/>
<path d="M8650 17242 c0 -7 -11 -79 -25 -160 -50 -294 -87 -694 -105 -1112
-13 -309 -13 -866 1 -1105 15 -266 28 -381 20 -175 -11 287 -6 1302 7 1510 23
350 52 640 93 909 11 73 18 136 15 139 -3 3 -6 0 -6 -6z"/>
<path d="M7850 17204 c0 -5 11 -88 25 -184 93 -666 122 -1520 81 -2405 -5 -96
-5 -97 4 -25 19 163 30 487 30 852 0 514 -18 887 -61 1273 -25 223 -79 559
-79 489z"/>
<path d="M13581 16635 c0 -5 6 -21 14 -35 8 -14 14 -20 14 -15 0 6 -6 21 -14
35 -8 14 -14 21 -14 15z"/>
<path d="M2896 16595 c-9 -26 -7 -32 5 -12 6 10 9 21 6 23 -2 3 -7 -2 -11 -11z"/>
<path d="M14100 15732 c-19 -53 -68 -164 -108 -246 -75 -156 -203 -388 -209
-382 -2 2 5 48 16 102 31 151 41 255 41 408 0 77 -2 137 -4 135 -3 -3 -10 -65
-16 -139 -36 -440 -137 -785 -362 -1235 -234 -468 -502 -816 -828 -1077 -410
-328 -725 -431 -1320 -431 -569 0 -1397 120 -1825 265 -433 147 -643 321 -815
679 -55 115 -57 93 -2 -44 42 -106 123 -238 200 -326 157 -179 460 -328 872
-430 571 -141 1472 -225 1898 -177 170 19 319 48 422 82 331 111 729 406 1003
745 106 131 311 447 386 597 17 34 33 62 35 62 2 0 -7 -42 -19 -92 -50 -208
-72 -426 -85 -843 -18 -601 -65 -1191 -135 -1690 -7 -55 -25 -201 -40 -325
-14 -124 -46 -369 -70 -545 -219 -1584 -293 -2348 -266 -2760 23 -344 68 -683
147 -1115 150 -808 168 -960 161 -1320 -9 -390 -35 -573 -112 -761 -13 -33
-63 -128 -111 -212 -48 -83 -155 -289 -240 -457 -84 -168 -173 -333 -198 -367
-54 -73 -153 -147 -239 -177 -35 -12 -62 -26 -60 -32 1 -5 -13 -20 -32 -33
-83 -57 -166 -164 -595 -776 -209 -298 -251 -355 -376 -510 -74 -92 -112 -134
-458 -506 -399 -431 -540 -632 -875 -1252 -23 -44 -41 -81 -38 -83 2 -3 24 28
48 68 415 694 527 846 1003 1358 330 354 454 513 781 996 327 483 437 632 513
690 38 29 148 72 158 61 2 -2 -8 -19 -22 -38 -39 -53 -99 -165 -139 -262 -47
-115 -110 -363 -125 -498 -18 -157 -8 -441 20 -544 21 -79 116 -292 126 -282
3 3 -3 22 -14 44 -27 53 -67 184 -83 273 -9 47 -14 144 -13 260 1 269 34 473
110 678 73 195 138 302 268 442 104 113 151 192 286 480 60 129 119 253 131
275 83 158 209 408 224 445 l19 45 8 -110 c5 -60 17 -168 28 -240 23 -147 170
-755 184 -755 20 0 -17 228 -79 482 -57 236 -73 329 -87 515 -11 139 -10 173
12 405 48 497 31 795 -80 1385 -163 864 -218 1323 -207 1728 11 372 101 1254
207 2010 16 116 41 300 55 410 14 110 43 328 65 485 21 157 48 375 60 485 12
110 25 209 29 220 5 13 12 -13 20 -80 47 -370 162 -966 273 -1409 68 -275 95
-364 97 -320 1 31 -33 214 -84 449 -126 572 -201 982 -244 1323 -34 262 -35
333 -12 592 11 129 25 375 31 545 25 754 38 903 100 1163 62 258 222 677 344
902 102 187 157 300 199 405 36 91 92 274 85 280 -1 2 -19 -40 -38 -93z"/>
<path d="M2370 15800 c0 -28 59 -207 106 -317 26 -59 93 -193 150 -298 107
-197 200 -417 292 -690 63 -186 85 -270 111 -427 35 -205 40 -279 51 -633 11
-400 25 -663 50 -945 20 -232 17 -302 -26 -610 -52 -381 -109 -698 -204 -1125
-155 -695 -155 -819 0 -196 96 389 214 1008 250 1316 7 55 14 107 17 115 3 8
19 -93 34 -225 27 -223 66 -521 155 -1170 66 -483 84 -629 129 -1025 153
-1359 145 -1615 -94 -2890 -114 -612 -135 -917 -91 -1375 45 -478 26 -627
-175 -1339 -51 -181 -167 -642 -209 -831 -131 -591 -241 -1450 -291 -2272 -20
-335 -17 -547 7 -508 6 10 20 173 38 460 41 632 70 942 126 1340 94 670 182
1094 370 1773 36 130 81 292 99 359 44 160 84 398 92 545 3 65 10 118 15 118
4 0 8 -5 8 -11 0 -21 69 -167 153 -323 48 -88 130 -255 183 -370 130 -284 202
-411 294 -513 120 -135 168 -201 220 -309 119 -242 180 -529 180 -837 0 -211
-28 -368 -90 -504 -40 -88 -12 -62 34 31 100 207 128 475 80 786 -39 255 -133
517 -245 682 -22 32 -39 59 -39 62 0 2 29 -7 66 -20 135 -47 188 -111 641
-780 270 -399 394 -563 569 -754 38 -42 162 -177 276 -300 393 -428 463 -524
825 -1120 69 -113 130 -209 135 -215 16 -15 -100 203 -215 405 -236 415 -365
583 -817 1065 -344 366 -426 468 -700 865 -292 425 -458 648 -550 740 -52 52
-93 98 -92 103 1 4 -5 7 -14 7 -35 0 -165 72 -217 120 -79 72 -140 173 -285
472 -71 145 -162 322 -204 393 -178 306 -204 395 -238 819 -28 355 -7 596 107
1226 30 168 66 366 79 440 34 188 80 513 101 715 23 225 23 676 0 935 -52 567
-145 1343 -247 2065 -22 154 -53 390 -69 525 -17 135 -46 376 -66 535 -58 480
-99 1026 -110 1485 -3 135 -10 306 -16 380 -11 154 -53 436 -74 507 -24 77
-17 73 34 -22 278 -521 624 -906 1043 -1162 231 -141 417 -201 743 -239 338
-39 1038 8 1574 107 493 90 854 215 1056 366 184 137 322 337 390 567 18 59 5
50 -19 -14 -10 -25 -38 -83 -63 -130 -175 -327 -414 -497 -893 -635 -445 -128
-1176 -227 -1690 -228 -579 -2 -879 87 -1264 377 -268 202 -462 414 -670 734
-201 309 -346 610 -454 943 -86 265 -123 452 -138 712 -8 140 -24 137 -24 -5
0 -123 16 -270 45 -412 12 -61 21 -112 20 -114 -6 -7 -127 207 -190 333 -35
72 -87 186 -114 255 -28 69 -50 118 -51 110z"/>
<path d="M4675 14040 c168 -34 303 -143 352 -285 19 -56 28 -58 19 -4 -20 124
-137 236 -295 283 -30 9 -68 16 -85 15 -28 -1 -27 -2 9 -9z"/>
<path d="M11728 14027 c-148 -51 -244 -149 -272 -279 -10 -43 9 -33 23 11 18
61 80 146 139 190 53 40 136 76 207 91 l40 8 -35 1 c-19 0 -65 -10 -102 -22z"/>
<path d="M4527 13862 c-37 -41 -40 -90 -8 -151 18 -33 83 -61 141 -61 44 0 56
5 81 29 16 16 29 38 29 48 0 16 -2 16 -18 -3 -25 -31 -55 -44 -102 -44 -56 0
-94 22 -115 65 -20 44 -14 78 22 111 24 22 24 24 6 24 -11 0 -27 -8 -36 -18z"/>
<path d="M11951 13851 c33 -33 37 -67 14 -111 -20 -38 -63 -60 -119 -60 -36 0
-52 6 -81 31 -27 24 -35 27 -35 14 0 -9 13 -30 29 -46 25 -25 37 -29 81 -29
93 0 156 49 167 128 4 31 0 44 -22 70 -15 18 -35 32 -45 32 -15 0 -14 -5 11
-29z"/>
<path d="M4317 13832 c-9 -43 8 -116 38 -168 95 -161 352 -237 539 -159 57 24
36 29 -43 11 -86 -20 -138 -20 -219 -1 -86 20 -156 58 -211 113 -56 57 -82
108 -90 182 -6 52 -7 53 -14 22z"/>
<path d="M12170 13814 c0 -132 -128 -258 -302 -299 -82 -19 -147 -18 -233 5
-38 10 -72 16 -74 14 -2 -2 17 -13 43 -25 199 -88 461 -6 551 171 30 59 43
139 27 166 -9 16 -11 10 -12 -32z"/>
<path d="M3250 13296 c0 -11 30 -66 36 -66 2 0 -3 15 -12 33 -19 36 -24 44
-24 33z"/>
<path d="M13230 13260 c-6 -11 -8 -20 -6 -20 3 0 10 9 16 20 6 11 8 20 6 20
-3 0 -10 -9 -16 -20z"/>
<path d="M3337 13144 c30 -41 158 -163 223 -211 30 -23 100 -66 155 -96 102
-57 354 -172 360 -165 3 2 -26 17 -63 33 -135 58 -320 155 -412 216 -54 36
-136 104 -189 158 -52 52 -85 81 -74 65z"/>
<path d="M13090 13075 c-96 -97 -201 -172 -359 -257 -148 -79 -154 -91 -9 -17
179 92 330 204 411 303 21 25 37 46 35 46 -2 0 -37 -34 -78 -75z"/>
<path d="M7931 12994 c0 -11 3 -14 6 -6 3 7 2 16 -1 19 -3 4 -6 -2 -5 -13z"/>
<path d="M8561 12984 c0 -11 3 -14 6 -6 3 7 2 16 -1 19 -3 4 -6 -2 -5 -13z"/>
<path d="M7941 12954 c0 -11 3 -14 6 -6 3 7 2 16 -1 19 -3 4 -6 -2 -5 -13z"/>
<path d="M8551 12934 c0 -11 3 -14 6 -6 3 7 2 16 -1 19 -3 4 -6 -2 -5 -13z"/>
<path d="M7952 12910 c0 -14 2 -19 5 -12 2 6 2 18 0 25 -3 6 -5 1 -5 -13z"/>
<path d="M8542 12890 c0 -14 2 -19 5 -12 2 6 2 18 0 25 -3 6 -5 1 -5 -13z"/>
<path d="M7962 12850 c0 -14 2 -19 5 -12 2 6 2 18 0 25 -3 6 -5 1 -5 -13z"/>
<path d="M8532 12830 c0 -14 2 -19 5 -12 2 6 2 18 0 25 -3 6 -5 1 -5 -13z"/>
<path d="M7972 12785 c0 -16 2 -22 5 -12 2 9 2 23 0 30 -3 6 -5 -1 -5 -18z"/>
<path d="M8522 12760 c0 -19 2 -27 5 -17 2 9 2 25 0 35 -3 9 -5 1 -5 -18z"/>
<path d="M12545 12729 c-22 -10 -65 -30 -95 -44 -30 -14 -44 -22 -30 -19 32 9
188 82 175 83 -5 0 -28 -9 -50 -20z"/>
<path d="M7980 12724 c0 -10 5 -58 10 -106 44 -386 21 -809 -53 -955 -28 -55
-91 -117 -159 -157 -65 -38 -248 -101 -428 -148 -245 -63 -760 -232 -747 -245
2 -2 69 20 148 48 188 68 455 150 610 188 340 83 521 177 586 304 54 107 90
399 78 637 -6 143 -34 442 -41 449 -2 2 -4 -4 -4 -15z"/>
<path d="M8501 12610 c-7 -63 -15 -221 -18 -350 -7 -338 23 -532 100 -646 66
-99 234 -180 527 -256 186 -47 463 -132 636 -193 70 -25 129 -44 131 -42 12
12 -489 177 -692 228 -170 42 -359 106 -437 146 -168 87 -214 176 -249 473
-13 118 -7 473 11 628 6 51 10 101 8 110 -2 9 -10 -35 -17 -98z"/>
<path d="M5800 12489 c-7 -11 -10 -23 -7 -25 2 -2 9 7 15 21 14 30 7 33 -8 4z"/>
<path d="M10701 12475 c0 -5 8 -26 19 -45 11 -19 19 -30 19 -25 0 6 -8 26 -19
45 -11 19 -19 31 -19 25z"/>
<path d="M5772 12425 c-17 -37 -14 -45 4 -12 9 16 14 31 11 33 -2 2 -9 -7 -15
-21z"/>
<path d="M13100 12380 c-6 -11 -8 -20 -6 -20 3 0 10 9 16 20 6 11 8 20 6 20
-3 0 -10 -9 -16 -20z"/>
<path d="M3400 12370 c6 -11 13 -20 16 -20 2 0 0 9 -6 20 -6 11 -13 20 -16 20
-2 0 0 -9 6 -20z"/>
<path d="M5713 12273 c-73 -196 -104 -361 -101 -541 1 -106 1 -106 9 43 8 181
25 265 89 455 27 80 47 146 46 148 -2 1 -21 -46 -43 -105z"/>
<path d="M10750 12355 c0 -5 5 -17 10 -25 5 -8 10 -10 10 -5 0 6 -5 17 -10 25
-5 8 -10 11 -10 5z"/>
<path d="M13035 12282 c-117 -158 -271 -294 -450 -396 -44 -25 -75 -46 -69
-46 21 0 224 128 293 184 85 69 206 206 266 299 32 49 11 28 -40 -41z"/>
<path d="M3429 12323 c39 -75 197 -248 297 -325 60 -46 218 -143 251 -154 10
-4 -30 23 -88 58 -175 106 -274 193 -399 353 -72 93 -77 98 -61 68z"/>
<path d="M10773 12300 c2 -8 18 -58 35 -110 49 -154 64 -244 72 -425 l7 -170
1 137 c2 96 -4 169 -17 250 -19 108 -69 281 -92 316 -8 13 -9 13 -6 2z"/>
<path d="M5622 11580 c0 -14 2 -19 5 -12 2 6 2 18 0 25 -3 6 -5 1 -5 -13z"/>
<path d="M8492 11105 c0 -16 2 -22 5 -12 2 9 2 23 0 30 -3 6 -5 -1 -5 -18z"/>
<path d="M6485 11075 c-25 -12 -26 -14 -5 -9 28 7 60 23 45 23 -5 0 -23 -6
-40 -14z"/>
<path d="M10015 11071 c22 -10 51 -21 65 -25 14 -3 7 2 -15 13 -22 10 -51 21
-65 25 -14 3 -7 -2 15 -13z"/>
<path d="M8013 11030 c0 -25 2 -35 4 -22 2 12 2 32 0 45 -2 12 -4 2 -4 -23z"/>
<path d="M6420 11050 c-8 -5 -10 -10 -5 -10 6 0 17 5 25 10 8 5 11 10 5 10 -5
0 -17 -5 -25 -10z"/>
<path d="M8483 10990 c0 -30 2 -43 4 -27 2 15 2 39 0 55 -2 15 -4 2 -4 -28z"/>
<path d="M8023 10905 c0 -33 2 -45 4 -27 2 18 2 45 0 60 -2 15 -4 0 -4 -33z"/>
<path d="M8473 10840 c0 -47 2 -66 4 -42 2 23 2 61 0 85 -2 23 -4 4 -4 -43z"/>
<path d="M8037 10610 c8 -336 -33 -912 -77 -1086 -34 -132 -88 -187 -236 -240
-38 -13 -53 -21 -34 -18 19 3 65 20 103 36 89 41 139 95 166 182 60 193 106
862 82 1201 -9 132 -9 127 -4 -75z"/>
<path d="M8462 10485 c-2 -262 5 -396 34 -690 28 -292 56 -383 136 -445 61
-49 130 -75 293 -111 176 -38 541 -91 615 -88 14 1 -58 12 -160 25 -572 74
-749 133 -811 269 -48 108 -88 504 -98 975 l-8 325 -1 -260z"/>
<path d="M10752 10380 c0 -14 2 -19 5 -12 2 6 2 18 0 25 -3 6 -5 1 -5 -13z"/>
<path d="M10763 10295 c0 -22 2 -30 4 -17 2 12 2 30 0 40 -3 9 -5 -1 -4 -23z"/>
<path d="M5733 10255 c0 -22 2 -30 4 -17 2 12 2 30 0 40 -3 9 -5 -1 -4 -23z"/>
<path d="M10774 10025 c0 -121 2 -169 3 -107 2 62 2 161 0 220 -1 59 -3 8 -3
-113z"/>
<path d="M5721 10044 c1 -82 5 -180 8 -219 4 -38 5 27 3 145 -3 118 -6 217 -8
219 -2 2 -3 -63 -3 -145z"/>
<path d="M10763 9750 c0 -30 2 -43 4 -27 2 15 2 39 0 55 -2 15 -4 2 -4 -28z"/>
<path d="M5743 9700 c0 -25 2 -35 4 -22 2 12 2 32 0 45 -2 12 -4 2 -4 -23z"/>
<path d="M10753 9650 c0 -25 2 -35 4 -22 2 12 2 32 0 45 -2 12 -4 2 -4 -23z"/>
<path d="M5753 9615 c0 -22 2 -30 4 -17 2 12 2 30 0 40 -3 9 -5 -1 -4 -23z"/>
<path d="M10742 9575 c0 -16 2 -22 5 -12 2 9 2 23 0 30 -3 6 -5 -1 -5 -18z"/>
<path d="M5762 9545 c0 -16 2 -22 5 -12 2 9 2 23 0 30 -3 6 -5 -1 -5 -18z"/>
<path d="M10732 9515 c0 -16 2 -22 5 -12 2 9 2 23 0 30 -3 6 -5 -1 -5 -18z"/>
<path d="M5772 9490 c0 -14 2 -19 5 -12 2 6 2 18 0 25 -3 6 -5 1 -5 -13z"/>
<path d="M10716 9449 c-8 -42 0 -50 9 -9 4 17 5 34 2 36 -2 3 -7 -10 -11 -27z"/>
<path d="M5781 9444 c0 -11 3 -14 6 -6 3 7 2 16 -1 19 -3 4 -6 -2 -5 -13z"/>
<path d="M5791 9404 c0 -11 3 -14 6 -6 3 7 2 16 -1 19 -3 4 -6 -2 -5 -13z"/>
<path d="M10701 9384 c0 -11 3 -14 6 -6 3 7 2 16 -1 19 -3 4 -6 -2 -5 -13z"/>
<path d="M7580 9249 c-68 -17 -330 -59 -481 -78 -85 -10 -140 -19 -123 -20 81
-3 550 68 649 98 39 12 2 12 -45 0z"/>
<path d="M6868 9143 c12 -2 32 -2 45 0 12 2 2 4 -23 4 -25 0 -35 -2 -22 -4z"/>
<path d="M9603 9143 c15 -2 37 -2 50 0 12 2 0 4 -28 4 -27 0 -38 -2 -22 -4z"/>
<path d="M6758 9133 c12 -2 32 -2 45 0 12 2 2 4 -23 4 -25 0 -35 -2 -22 -4z"/>
<path d="M9703 9133 c15 -2 37 -2 50 0 12 2 0 4 -28 4 -27 0 -38 -2 -22 -4z"/>
<path d="M6653 9123 c15 -2 37 -2 50 0 12 2 0 4 -28 4 -27 0 -38 -2 -22 -4z"/>
<path d="M9813 9123 c15 -2 37 -2 50 0 12 2 0 4 -28 4 -27 0 -38 -2 -22 -4z"/>
<path d="M6538 9113 c12 -2 32 -2 45 0 12 2 2 4 -23 4 -25 0 -35 -2 -22 -4z"/>
<path d="M9928 9113 c12 -2 32 -2 45 0 12 2 2 4 -23 4 -25 0 -35 -2 -22 -4z"/>
<path d="M6418 9103 c12 -2 32 -2 45 0 12 2 2 4 -23 4 -25 0 -35 -2 -22 -4z"/>
<path d="M10048 9103 c12 -2 30 -2 40 0 9 3 -1 5 -23 4 -22 0 -30 -2 -17 -4z"/>
<path d="M6298 9093 c12 -2 32 -2 45 0 12 2 2 4 -23 4 -25 0 -35 -2 -22 -4z"/>
<path d="M10178 9093 c12 -2 30 -2 40 0 9 3 -1 5 -23 4 -22 0 -30 -2 -17 -4z"/>
<path d="M7981 8834 c0 -11 3 -14 6 -6 3 7 2 16 -1 19 -3 4 -6 -2 -5 -13z"/>
<path d="M8512 8805 c0 -16 2 -22 5 -12 2 9 2 23 0 30 -3 6 -5 -1 -5 -18z"/>
<path d="M7992 8760 c0 -19 2 -27 5 -17 2 9 2 25 0 35 -3 9 -5 1 -5 -18z"/>
<path d="M10662 8755 c0 -16 2 -22 5 -12 2 9 2 23 0 30 -3 6 -5 -1 -5 -18z"/>
<path d="M5832 8735 c0 -16 2 -22 5 -12 2 9 2 23 0 30 -3 6 -5 -1 -5 -18z"/>
<path d="M8503 8725 c0 -22 2 -30 4 -17 2 12 2 30 0 40 -3 9 -5 -1 -4 -23z"/>
<path d="M8005 8655 c3 -38 10 -126 16 -195 16 -167 16 -599 1 -725 -43 -344
-63 -427 -115 -471 -48 -41 -119 -70 -250 -103 -217 -55 -234 -56 -762 -55
-386 1 -441 -1 -260 -6 359 -11 692 -11 785 0 177 22 410 90 481 141 61 43 92
151 124 424 32 285 29 632 -10 950 -9 71 -12 85 -10 40z"/>
<path d="M10671 8699 c0 -8 7 -65 16 -125 26 -170 23 -555 -5 -739 -29 -184
-35 -236 -17 -153 63 300 71 664 21 958 -8 41 -14 68 -15 59z"/>
<path d="M5812 8608 c-43 -310 -39 -528 15 -866 9 -56 18 -100 20 -98 2 2 -5
64 -16 137 -44 289 -48 481 -15 767 17 148 14 191 -4 60z"/>
<path d="M8493 8635 c0 -27 2 -38 4 -22 2 15 2 37 0 50 -2 12 -4 0 -4 -28z"/>
<path d="M8472 8430 c-29 -372 -4 -847 55 -1062 20 -75 66 -128 141 -161 77
-35 303 -92 417 -106 97 -12 457 -12 780 -2 145 5 67 7 -280 7 -459 -1 -485 0
-590 21 -236 48 -358 95 -413 157 -35 40 -46 74 -67 201 -44 273 -57 614 -34
924 6 83 9 156 7 163 -3 7 -10 -57 -16 -142z"/>
<path d="M5852 7605 c0 -16 2 -22 5 -12 2 9 2 23 0 30 -3 6 -5 -1 -5 -18z"/>
<path d="M10642 7590 c0 -14 2 -19 5 -12 2 6 2 18 0 25 -3 6 -5 1 -5 -13z"/>
<path d="M5862 7550 c0 -14 2 -19 5 -12 2 6 2 18 0 25 -3 6 -5 1 -5 -13z"/>
<path d="M10631 7534 c0 -11 3 -14 6 -6 3 7 2 16 -1 19 -3 4 -6 -2 -5 -13z"/>
<path d="M5871 7494 c0 -11 3 -14 6 -6 3 7 2 16 -1 19 -3 4 -6 -2 -5 -13z"/>
<path d="M10622 7480 c0 -14 2 -19 5 -12 2 6 2 18 0 25 -3 6 -5 1 -5 -13z"/>
<path d="M5881 7444 c0 -11 3 -14 6 -6 3 7 2 16 -1 19 -3 4 -6 -2 -5 -13z"/>
<path d="M10611 7434 c0 -11 3 -14 6 -6 3 7 2 16 -1 19 -3 4 -6 -2 -5 -13z"/>
<path d="M5891 7404 c0 -11 3 -14 6 -6 3 7 2 16 -1 19 -3 4 -6 -2 -5 -13z"/>
<path d="M10601 7394 c0 -11 3 -14 6 -6 3 7 2 16 -1 19 -3 4 -6 -2 -5 -13z"/>
<path d="M5901 7364 c0 -11 3 -14 6 -6 3 7 2 16 -1 19 -3 4 -6 -2 -5 -13z"/>
<path d="M5911 7324 c0 -11 3 -14 6 -6 3 7 2 16 -1 19 -3 4 -6 -2 -5 -13z"/>
<path d="M5921 7274 c0 -11 3 -14 6 -6 3 7 2 16 -1 19 -3 4 -6 -2 -5 -13z"/>
<path d="M8173 6906 c-37 -12 -113 -53 -113 -61 0 -2 27 10 60 26 33 17 87 34
122 38 56 8 58 9 18 9 -25 0 -64 -5 -87 -12z"/>
<path d="M10572 6770 c0 -14 2 -19 5 -12 2 6 2 18 0 25 -3 6 -5 1 -5 -13z"/>
<path d="M5921 6764 c0 -11 3 -14 6 -6 3 7 2 16 -1 19 -3 4 -6 -2 -5 -13z"/>
<path d="M10582 6715 c0 -16 2 -22 5 -12 2 9 2 23 0 30 -3 6 -5 -1 -5 -18z"/>
<path d="M5912 6705 c0 -16 2 -22 5 -12 2 9 2 23 0 30 -3 6 -5 -1 -5 -18z"/>
<path d="M8176 6674 c-62 -19 -127 -64 -161 -109 -34 -44 -65 -126 -64 -168 1
-28 2 -25 13 18 14 55 38 106 58 123 12 9 13 0 10 -52 -5 -69 15 -122 60 -162
75 -69 197 -75 258 -14 31 31 24 45 -10 17 -76 -65 -222 -31 -270 62 -27 53
-27 135 0 179 57 93 216 116 322 46 133 -87 92 -337 -68 -414 -53 -26 -53 -34
-1 -18 89 27 166 134 174 243 9 110 -30 185 -120 229 -68 34 -137 40 -201 20z"/>
<path d="M10592 6660 c-1 -14 3 -43 7 -65 6 -26 9 -31 9 -15 1 14 -3 43 -7 65
-6 26 -9 31 -9 15z"/>
<path d="M5902 6640 c0 -19 2 -27 5 -17 2 9 2 25 0 35 -3 9 -5 1 -5 -18z"/>
<path d="M5892 6570 c0 -19 2 -27 5 -17 2 9 2 25 0 35 -3 9 -5 1 -5 -18z"/>
<path d="M10612 6520 c0 -19 2 -27 5 -17 2 9 2 25 0 35 -3 9 -5 1 -5 -18z"/>
<path d="M5882 6500 c0 -19 2 -27 5 -17 2 9 2 25 0 35 -3 9 -5 1 -5 -18z"/>
<path d="M10622 6450 c0 -19 2 -27 5 -17 2 9 2 25 0 35 -3 9 -5 1 -5 -18z"/>
<path d="M5873 6425 c0 -22 2 -30 4 -17 2 12 2 30 0 40 -3 9 -5 -1 -4 -23z"/>
<path d="M10633 6365 c0 -22 2 -30 4 -17 2 12 2 30 0 40 -3 9 -5 -1 -4 -23z"/>
<path d="M5851 6263 c-48 -471 -39 -860 31 -1273 32 -194 109 -514 187 -776
100 -341 357 -1112 366 -1102 2 2 -59 190 -135 418 -284 852 -394 1285 -446
1760 -24 218 -24 674 0 908 10 95 16 175 13 178 -2 2 -9 -49 -16 -113z"/>
<path d="M10643 6255 c25 -281 29 -383 24 -605 -13 -593 -111 -1049 -444
-2065 -36 -110 -90 -267 -120 -349 -29 -82 -52 -150 -50 -153 6 -6 59 141 184
512 335 997 443 1518 443 2137 0 207 -23 575 -37 588 -3 3 -3 -26 0 -65z"/>
<path d="M8242 3880 c1 -872 4 -1686 7 -1810 4 -124 8 572 9 1545 0 974 -3
1788 -7 1810 -5 22 -9 -673 -9 -1545z"/>
<path d="M3724 4918 c43 -73 112 -144 264 -272 316 -265 349 -323 434 -774 12
-68 24 -118 26 -112 3 7 22 -19 43 -57 95 -173 434 -661 658 -948 130 -167
311 -342 501 -485 206 -155 349 -269 559 -444 447 -372 788 -603 1076 -728 64
-27 118 -48 120 -46 2 2 -40 24 -93 48 -307 140 -596 340 -1102 760 -256 214
-297 246 -535 430 -198 153 -284 230 -380 341 -266 305 -787 1056 -821 1183
-8 28 -23 102 -34 163 -53 298 -135 443 -349 616 -218 176 -301 250 -341 306
-25 34 -46 61 -48 61 -2 0 8 -19 22 -42z"/>
<path d="M12747 4893 c-38 -52 -103 -111 -272 -248 -145 -117 -198 -167 -251
-242 -80 -110 -130 -244 -164 -437 -35 -196 -34 -194 -272 -556 -151 -230
-389 -552 -544 -736 -138 -164 -191 -211 -545 -484 -68 -52 -245 -196 -394
-320 -149 -124 -318 -262 -376 -306 -253 -196 -583 -401 -768 -479 -50 -21
-89 -40 -87 -42 8 -9 223 88 341 153 258 143 522 334 931 674 110 91 305 246
434 344 352 269 477 401 814 861 125 169 372 544 418 632 32 62 38 69 39 46 0
-15 12 26 25 92 57 288 67 333 87 384 52 142 115 217 348 417 160 136 219 196
262 263 29 47 13 37 -26 -16z"/>
<path d="M13391 3408 c-1 -84 28 -317 74 -581 98 -575 165 -1165 210 -1872 30
-480 42 -605 55 -605 41 0 -9 834 -96 1610 -50 444 -200 1419 -229 1485 -13
29 -13 27 -14 -37z"/>
<path d="M6450 3066 c0 -13 93 -246 97 -242 4 3 -84 236 -92 245 -3 2 -5 1 -5
-3z"/>
<path d="M10001 2959 c-17 -45 -30 -84 -27 -86 2 -2 18 33 35 78 17 45 30 84
28 86 -2 2 -18 -34 -36 -78z"/>
<path d="M9956 2845 c-9 -26 -7 -32 5 -12 6 10 9 21 6 23 -2 3 -7 -2 -11 -11z"/>
<path d="M6580 2725 c0 -5 5 -17 10 -25 5 -8 10 -10 10 -5 0 6 -5 17 -10 25
-5 8 -10 11 -10 5z"/>
<path d="M9877 2638 c-15 -34 -25 -63 -23 -65 2 -2 15 24 30 58 15 34 25 63
23 65 -2 2 -16 -24 -30 -58z"/>
<path d="M6601 2675 c0 -5 6 -21 14 -35 8 -14 14 -20 14 -15 0 6 -6 21 -14 35
-8 14 -14 21 -14 15z"/>
<path d="M6631 2605 c0 -5 6 -21 14 -35 8 -14 14 -20 14 -15 0 6 -6 21 -14 35
-8 14 -14 21 -14 15z"/>
<path d="M9756 2355 c-9 -26 -7 -32 5 -12 6 10 9 21 6 23 -2 3 -7 -2 -11 -11z"/>
<path d="M6740 2345 c0 -5 5 -17 10 -25 5 -8 10 -10 10 -5 0 6 -5 17 -10 25
-5 8 -10 11 -10 5z"/>
</g>
</svg>
