<?xml version="1.0" standalone="no"?>
<!DOCTYPE svg PUBLIC "-//W3C//DTD SVG 20010904//EN"
 "http://www.w3.org/TR/2001/REC-SVG-20010904/DTD/svg10.dtd">
<svg version="1.0" xmlns="http://www.w3.org/2000/svg"
 width="1650.000000pt" height="2210.000000pt" viewBox="0 0 1650.000000 2210.000000"
 preserveAspectRatio="xMidYMid meet">

<g transform="translate(0.000000,2210.000000) scale(0.100000,-0.100000)"
fill="#000000" stroke="none">
<path d="M10070 21699 c0 -466 28 -763 85 -909 l25 -64 -31 30 c-107 101 -254
319 -350 517 -74 154 -89 175 -35 50 80 -188 166 -334 276 -472 157 -196 285
-302 549 -456 136 -79 200 -111 686 -340 649 -307 1026 -491 1169 -572 43 -25
162 -99 265 -166 197 -128 371 -224 468 -258 32 -11 132 -38 223 -60 217 -53
325 -89 495 -161 756 -325 1134 -667 1418 -1283 256 -557 423 -1098 494 -1600
27 -197 25 -659 -5 -930 -28 -247 -54 -410 -93 -584 -16 -74 -28 -136 -25
-138 4 -4 42 153 64 262 7 33 10 14 20 -105 12 -154 50 -352 146 -763 151
-641 203 -1074 226 -1875 14 -487 42 -968 57 -982 3 -3 3 51 -1 120 -16 286
-25 623 -26 910 0 351 -10 544 -46 860 -45 406 -67 525 -238 1270 -50 218 -75
376 -82 510 -6 114 -3 157 36 525 66 623 20 1089 -167 1700 -117 384 -360 951
-498 1165 -251 389 -592 666 -1123 910 -239 110 -368 156 -587 210 -110 26
-237 62 -283 79 -99 36 -269 129 -447 245 -308 201 -540 321 -1415 731 -699
327 -976 487 -1074 622 -97 132 -127 335 -157 1058 -6 149 -13 272 -15 274 -2
2 -4 -146 -4 -330z"/>
<path d="M6438 21940 c-4 -41 -12 -208 -18 -370 -12 -343 -23 -473 -51 -625
-57 -315 -177 -404 -1178 -875 -876 -412 -1061 -507 -1353 -691 -409 -259
-475 -289 -835 -373 -188 -43 -370 -114 -648 -251 -575 -284 -919 -621 -1166
-1140 -185 -391 -363 -893 -443 -1250 -110 -493 -123 -850 -54 -1420 16 -129
22 -232 21 -365 0 -215 -10 -273 -122 -757 -186 -801 -226 -1128 -241 -1963
-5 -283 -14 -605 -20 -715 -5 -110 -9 -225 -9 -255 l2 -55 8 70 c14 121 38
596 49 960 23 770 70 1154 231 1865 124 546 142 648 150 850 1 32 1 32 40
-137 18 -79 34 -141 37 -139 2 3 -12 76 -31 163 -76 343 -111 683 -112 1078 0
306 11 418 66 700 83 425 326 1102 531 1485 266 496 663 824 1343 1113 180 76
260 102 454 147 286 67 376 107 721 327 331 211 403 247 1455 748 561 266 719
350 890 471 192 135 361 326 490 554 41 72 138 281 133 286 -3 2 -31 -51 -64
-118 -94 -195 -229 -393 -338 -497 l-35 -34 25 61 c32 81 60 251 74 457 12
183 10 828 -2 695z"/>
<path d="M8157 21340 c-52 -41 -44 -136 14 -165 32 -17 85 -20 94 -5 4 6 -8
10 -28 10 -51 0 -87 33 -87 79 0 57 22 81 76 81 24 0 44 5 44 10 0 19 -86 11
-113 -10z"/>
<path d="M8305 21340 c3 -5 24 -10 46 -10 l39 0 -40 -79 c-22 -45 -35 -83 -30
-86 8 -5 100 161 100 180 0 3 -27 5 -61 5 -37 0 -58 -4 -54 -10z"/>
<path d="M7901 21324 c0 -11 3 -14 6 -6 3 7 2 16 -1 19 -3 4 -6 -2 -5 -13z"/>
<path d="M7891 21264 c0 -11 3 -14 6 -6 3 7 2 16 -1 19 -3 4 -6 -2 -5 -13z"/>
<path d="M7881 21204 c0 -11 3 -14 6 -6 3 7 2 16 -1 19 -3 4 -6 -2 -5 -13z"/>
<path d="M7871 21154 c0 -11 3 -14 6 -6 3 7 2 16 -1 19 -3 4 -6 -2 -5 -13z"/>
<path d="M8671 21004 c0 -11 3 -14 6 -6 3 7 2 16 -1 19 -3 4 -6 -2 -5 -13z"/>
<path d="M8686 20946 c18 -133 174 -521 289 -721 85 -147 311 -475 339 -492 6
-4 -6 15 -26 42 -72 96 -265 391 -320 490 -101 181 -211 453 -281 700 -4 11
-4 3 -1 -19z"/>
<path d="M7831 20954 c0 -11 3 -14 6 -6 3 7 2 16 -1 19 -3 4 -6 -2 -5 -13z"/>
<path d="M7772 20766 c-57 -173 -166 -417 -250 -559 -49 -83 -140 -222 -239
-367 -25 -36 -33 -51 -19 -35 110 127 299 432 394 637 69 150 176 447 170 472
-2 7 -27 -60 -56 -148z"/>
<path d="M8172 20883 c-38 -15 -54 -111 -25 -153 25 -37 93 -72 93 -49 0 5 -4
9 -9 9 -23 0 -69 52 -75 85 -11 56 16 95 67 95 15 0 27 5 27 10 0 10 -55 13
-78 3z"/>
<path d="M8274 20883 c8 -8 13 -10 45 -12 74 -5 65 -137 -12 -173 -40 -19 -21
-30 21 -12 40 16 78 90 67 132 -11 46 -44 72 -88 72 -22 0 -37 -3 -33 -7z"/>
<path d="M8161 20394 c-17 -14 -35 -41 -40 -60 -10 -38 1 -95 23 -113 20 -17
76 -26 76 -12 0 6 -9 11 -20 11 -33 0 -60 35 -60 79 0 45 29 87 74 107 l31 13
-27 1 c-14 0 -40 -12 -57 -26z"/>
<path d="M8309 20402 c19 -9 43 -29 54 -43 37 -51 15 -139 -35 -139 -10 0 -18
-4 -18 -10 0 -17 36 -11 63 10 32 25 44 79 27 120 -17 41 -65 80 -98 80 -26 0
-26 0 7 -18z"/>
<path d="M8214 19920 c-33 -13 -82 -77 -90 -115 -12 -64 24 -116 78 -114 21 0
20 2 -9 16 -49 25 -61 71 -33 128 12 25 35 53 51 62 16 10 29 21 29 25 0 9 1
9 -26 -2z"/>
<path d="M8280 19922 c0 -4 14 -15 30 -24 56 -32 86 -110 60 -159 -6 -11 -25
-26 -43 -33 l-32 -14 28 -1 c85 -3 105 133 31 201 -22 19 -74 41 -74 30z"/>
<path d="M7219 19753 c-13 -16 -12 -17 4 -4 16 13 21 21 13 21 -2 0 -10 -8
-17 -17z"/>
<path d="M7189 19713 c-13 -16 -12 -17 4 -4 16 13 21 21 13 21 -2 0 -10 -8
-17 -17z"/>
<path d="M9275 19410 c10 -11 20 -20 23 -20 3 0 -3 9 -13 20 -10 11 -20 20
-23 20 -3 0 3 -9 13 -20z"/>
<path d="M8176 19335 c-31 -29 -56 -82 -56 -120 0 -38 27 -84 56 -95 45 -17
60 -10 22 10 -79 42 -68 163 20 209 35 19 35 20 11 21 -14 0 -38 -11 -53 -25z"/>
<path d="M8285 19348 c58 -21 95 -71 95 -131 0 -37 -32 -87 -55 -87 -8 0 -17
-4 -20 -10 -14 -23 39 -8 66 19 69 69 10 223 -85 220 l-31 -1 30 -10z"/>
<path d="M9395 19320 c7 -11 65 -43 65 -36 0 2 -16 13 -36 25 -19 12 -32 16
-29 11z"/>
<path d="M7083 19299 c-35 -22 -46 -37 -15 -20 22 13 58 40 52 41 -3 0 -20
-10 -37 -21z"/>
<path d="M6872 19197 c-50 -22 -91 -42 -89 -44 4 -4 130 47 172 70 53 29 12
16 -83 -26z"/>
<path d="M9600 19211 c22 -16 161 -73 166 -68 2 2 -33 19 -78 38 -96 40 -108
44 -88 30z"/>
<path d="M6595 19085 c-179 -72 -190 -77 -155 -69 27 6 322 123 329 130 11 11
-27 -2 -174 -61z"/>
<path d="M9820 19118 c70 -32 513 -199 517 -195 2 2 -47 23 -109 47 -62 24
-186 72 -276 107 -162 63 -218 80 -132 41z"/>
<path d="M7310 19086 c0 -2 8 -10 18 -17 15 -13 16 -12 3 4 -13 16 -21 21 -21
13z"/>
<path d="M6262 18958 c-73 -28 -131 -52 -129 -55 4 -3 268 95 276 103 11 11
-25 -1 -147 -48z"/>
<path d="M9079 18973 c-13 -16 -12 -17 4 -4 16 13 21 21 13 21 -2 0 -10 -8
-17 -17z"/>
<path d="M10390 18900 c8 -5 20 -10 25 -10 6 0 3 5 -5 10 -8 5 -19 10 -25 10
-5 0 -3 -5 5 -10z"/>
<path d="M6060 18880 c-8 -5 -10 -10 -5 -10 6 0 17 5 25 10 8 5 11 10 5 10 -5
0 -17 -5 -25 -10z"/>
<path d="M10431 18886 c8 -8 133 -56 136 -52 2 2 -26 15 -62 30 -62 25 -84 31
-74 22z"/>
<path d="M5975 18845 c-27 -13 -45 -23 -40 -24 6 0 33 11 60 24 28 13 46 23
40 24 -5 0 -32 -11 -60 -24z"/>
<path d="M8220 18830 c-41 -41 -78 -178 -66 -242 4 -21 18 -51 32 -68 22 -25
33 -30 71 -30 55 0 78 12 98 50 33 64 8 215 -46 284 -25 31 -61 34 -89 6z m73
-18 c41 -45 68 -185 47 -246 -15 -47 -66 -76 -104 -58 -59 26 -75 112 -43 222
28 94 63 123 100 82z"/>
<path d="M3257 18816 c-97 -33 -139 -76 -145 -149 -9 -109 58 -173 195 -184
55 -4 101 2 243 32 160 35 192 38 372 42 219 6 329 -5 446 -42 42 -13 78 -22
80 -20 6 6 -177 62 -248 76 -38 7 -143 12 -255 12 -180 0 -199 -2 -364 -37
-284 -59 -390 -47 -432 50 -35 79 -12 137 72 179 86 44 133 48 342 29 178 -17
198 -17 385 -1 108 10 232 17 274 17 111 0 258 -32 390 -83 133 -53 213 -79
325 -107 128 -32 120 -22 -13 15 -66 18 -167 52 -225 75 -57 24 -125 51 -151
61 -25 10 -93 28 -150 40 -114 23 -260 23 -529 -1 -117 -11 -157 -10 -278 4
-191 22 -252 20 -334 -8z"/>
<path d="M12135 18826 c-94 -21 -152 -40 -270 -89 -60 -25 -162 -61 -225 -81
-63 -19 -108 -35 -99 -36 33 -1 234 62 356 111 220 89 355 104 648 74 181 -19
265 -19 433 1 151 18 230 11 314 -25 99 -42 127 -143 62 -221 -54 -64 -166
-68 -409 -14 -165 36 -175 37 -370 37 -150 0 -219 -4 -275 -17 -82 -18 -203
-56 -198 -62 2 -2 32 5 65 16 104 32 220 42 436 38 186 -4 213 -7 342 -38 253
-60 397 -44 444 49 27 52 27 123 1 165 -23 39 -78 70 -155 91 -76 19 -137 19
-309 -1 -120 -15 -157 -15 -280 -4 -216 19 -440 22 -511 6z"/>
<path d="M10590 18820 c8 -5 20 -10 25 -10 6 0 3 5 -5 10 -8 5 -19 10 -25 10
-5 0 -3 -5 5 -10z"/>
<path d="M7574 18660 c67 -124 108 -252 172 -535 35 -154 62 -260 59 -235 -7
56 -69 343 -101 470 -26 99 -110 296 -145 340 -11 14 -4 -4 15 -40z"/>
<path d="M8944 18674 c-47 -80 -111 -248 -138 -360 -50 -213 -97 -448 -93
-468 4 -19 4 -19 6 1 2 47 114 531 139 608 15 44 48 122 74 173 50 99 56 121
12 46z"/>
<path d="M2845 18685 c-59 -16 -291 -116 -353 -152 -104 -60 -129 -173 -71
-320 72 -183 137 -270 216 -292 47 -13 186 -14 271 -1 62 8 67 7 155 -31 51
-23 93 -42 95 -44 1 -1 -11 -24 -27 -51 -40 -64 -58 -141 -71 -294 -5 -69 -16
-172 -25 -230 -19 -139 -19 -257 1 -317 24 -71 61 -116 172 -206 193 -160 323
-328 547 -712 204 -348 312 -587 450 -997 30 -87 51 -158 48 -158 -6 0 -168
100 -243 150 -67 45 -89 57 -75 42 6 -5 83 -57 171 -115 154 -100 162 -107
177 -151 9 -25 14 -46 11 -46 -9 0 -167 82 -308 159 -378 208 -524 326 -931
762 -100 106 -90 91 34 -51 345 -395 596 -585 1102 -836 l116 -57 32 -76 c51
-126 115 -223 227 -348 150 -165 317 -329 397 -390 50 -38 63 -52 51 -57 -33
-13 -414 -6 -536 10 -300 38 -574 118 -838 245 -271 131 -436 254 -657 492
-83 90 -105 121 -123 171 -12 34 -48 106 -79 161 -32 55 -77 144 -101 197 -24
54 -45 96 -47 94 -7 -6 46 -133 95 -231 90 -177 102 -205 130 -302 63 -212 96
-386 193 -1007 76 -495 147 -849 235 -1175 l36 -133 -21 -150 c-57 -396 -153
-867 -307 -1503 -88 -363 -126 -534 -121 -548 4 -12 83 258 142 483 125 482
246 1055 300 1415 14 94 27 177 28 185 5 25 43 -108 137 -485 132 -526 147
-604 336 -1725 209 -1242 208 -1223 34 -2150 -95 -503 -116 -724 -106 -1150
10 -443 -9 -565 -184 -1195 -113 -406 -145 -585 -211 -1165 -22 -201 -58 -468
-80 -595 -146 -856 -168 -1002 -204 -1350 -89 -880 -95 -1547 -18 -2255 25
-229 28 -130 8 227 -40 704 -27 1265 46 1993 31 315 105 832 150 1048 51 252
105 619 154 1062 50 457 88 656 204 1069 154 549 187 757 173 1113 -17 446 13
723 158 1463 60 306 73 421 73 660 0 116 -5 257 -12 315 -16 143 -270 1674
-327 1968 -47 245 -128 591 -215 915 -28 104 -49 191 -47 193 6 5 156 -361
227 -553 33 -87 103 -295 156 -463 386 -1216 463 -1398 930 -2180 103 -173
219 -378 256 -455 113 -232 198 -511 255 -835 27 -158 37 -196 28 -110 -16
152 -71 412 -125 594 -58 194 -157 409 -296 646 -44 74 -140 236 -213 360
-180 304 -330 603 -429 854 -76 192 -196 546 -431 1269 -94 292 -179 513 -331
869 -80 185 -99 243 -150 443 -69 271 -143 637 -194 965 -87 562 -142 856
-184 990 -28 88 -27 90 16 39 198 -237 439 -426 696 -549 412 -196 799 -279
1244 -267 186 5 205 4 239 -14 83 -42 203 -15 273 60 31 32 51 42 136 65 117
33 253 82 350 126 82 37 229 121 265 151 30 25 13 17 -55 -27 -71 -45 -215
-116 -320 -157 -102 -40 -313 -103 -320 -95 -2 2 11 34 31 71 51 96 125 332
179 567 25 113 62 273 81 355 68 301 105 567 129 945 20 319 30 415 70 700 51
360 66 510 66 655 1 212 -31 344 -161 671 -38 94 -90 231 -115 305 -26 74 -52
143 -57 154 -48 92 -151 155 -252 155 -73 -1 -136 -24 -259 -99 -199 -120
-323 -170 -562 -226 -141 -32 -201 -63 -284 -141 -47 -43 -71 -60 -81 -54 -10
6 -13 39 -14 127 -1 110 -3 121 -28 165 -37 62 -107 98 -192 98 -70 0 -122
-14 -235 -64 -87 -38 -182 -66 -226 -66 -30 0 -375 172 -400 200 -8 9 -24 47
-34 84 -36 128 -110 168 -246 131z m144 -28 c13 -6 33 -23 43 -37 22 -30 51
-120 38 -120 -5 0 -23 12 -42 27 l-33 27 35 -38 c118 -127 559 -332 1114 -518
466 -156 653 -237 976 -424 117 -67 245 -106 365 -111 83 -4 106 -1 135 14 36
19 80 75 80 102 0 9 -8 0 -18 -19 -9 -19 -33 -45 -52 -58 -32 -22 -42 -24
-130 -19 -132 6 -247 46 -430 151 -229 131 -395 208 -665 307 -71 26 -130 51
-132 56 -3 15 109 102 166 129 31 15 110 40 176 55 242 58 322 90 540 219 178
105 264 122 362 71 76 -39 107 -85 163 -246 23 -66 75 -203 115 -305 192 -489
201 -574 115 -1180 -48 -341 -65 -501 -85 -795 -32 -472 -62 -680 -170 -1150
-112 -490 -140 -586 -215 -740 -69 -143 -147 -214 -238 -215 -64 0 -166 61
-304 183 -101 89 -368 375 -418 448 -79 115 -145 273 -246 589 -20 63 -60 176
-90 251 -121 314 -200 475 -381 778 -235 393 -347 533 -563 708 -66 54 -92 82
-115 128 -28 55 -30 66 -29 164 0 58 6 138 12 176 6 39 16 131 22 205 14 171
33 256 71 314 l29 47 50 -27 c129 -70 317 -252 370 -356 16 -34 30 -54 30 -46
0 41 -69 148 -149 231 -113 117 -195 176 -342 246 l-123 58 134 13 c261 25
506 -1 760 -82 136 -43 224 -93 398 -223 84 -63 186 -133 227 -156 41 -22 75
-42 75 -44 0 -1 -53 13 -117 32 -64 18 -121 32 -126 30 -6 -2 57 -22 139 -46
82 -23 190 -56 239 -71 132 -43 168 -49 343 -60 185 -11 283 -37 378 -99 178
-117 245 -271 264 -606 l8 -150 -3 190 c-4 220 -15 279 -76 397 -50 96 -132
174 -234 224 -100 48 -169 63 -343 74 -318 20 -495 97 -837 365 -130 102 -313
180 -530 224 -229 46 -375 51 -660 20 -378 -40 -426 -37 -492 29 -36 36 -98
156 -134 259 -46 134 -9 218 121 276 30 14 98 44 150 67 157 71 226 85 279 57z
m1104 -309 c67 -37 81 -74 86 -210 2 -77 -1 -118 -7 -118 -16 0 -304 103 -442
158 -69 27 -135 53 -148 57 -31 9 -20 21 26 27 22 3 86 25 143 48 187 75 260
83 342 38z"/>
<path d="M5320 18403 c105 -11 136 -41 215 -208 33 -71 66 -141 73 -155 l12
-25 -6 25 c-9 37 -104 239 -132 283 -35 53 -97 87 -153 85 -39 -1 -40 -2 -9
-5z"/>
<path d="M2540 18205 c0 -29 116 -155 142 -155 5 0 -10 15 -34 33 -24 18 -58
54 -75 81 -18 27 -33 45 -33 41z"/>
<path d="M2743 18033 c9 -2 25 -2 35 0 9 3 1 5 -18 5 -19 0 -27 -2 -17 -5z"/>
<path d="M3181 17004 c0 -11 3 -14 6 -6 3 7 2 16 -1 19 -3 4 -6 -2 -5 -13z"/>
<path d="M3190 16971 c0 -6 4 -13 10 -16 6 -3 7 1 4 9 -7 18 -14 21 -14 7z"/>
<path d="M3335 16810 c72 -74 150 -157 174 -185 41 -48 41 -48 9 -5 -50 67
-133 156 -228 245 -62 57 -49 42 45 -55z"/>
<path d="M3550 16566 c0 -2 8 -10 18 -17 15 -13 16 -12 3 4 -13 16 -21 21 -21
13z"/>
<path d="M3600 16500 c12 -16 24 -30 26 -30 3 0 -4 14 -16 30 -12 17 -24 30
-26 30 -3 0 4 -13 16 -30z"/>
<path d="M3720 16330 c12 -16 24 -30 26 -30 3 0 -4 14 -16 30 -12 17 -24 30
-26 30 -3 0 4 -13 16 -30z"/>
<path d="M4410 15590 c6 -11 13 -20 16 -20 2 0 0 9 -6 20 -6 11 -13 20 -16 20
-2 0 0 -9 6 -20z"/>
<path d="M4480 15470 c6 -11 13 -20 16 -20 2 0 0 9 -6 20 -6 11 -13 20 -16 20
-2 0 0 -9 6 -20z"/>
<path d="M4509 15425 c5 -11 17 -29 26 -40 l16 -20 -10 20 c-5 11 -17 29 -26
40 l-16 20 10 -20z"/>
<path d="M4559 15345 c5 -11 17 -29 26 -40 l16 -20 -10 20 c-5 11 -17 29 -26
40 l-16 20 10 -20z"/>
<path d="M4605 15270 c31 -59 204 -277 304 -385 156 -168 223 -238 208 -215
-9 13 -63 73 -119 133 -143 154 -228 254 -310 365 -71 97 -99 131 -83 102z"/>
<path d="M5591 15214 c0 -11 3 -14 6 -6 3 7 2 16 -1 19 -3 4 -6 -2 -5 -13z"/>
<path d="M5582 15150 c0 -14 2 -19 5 -12 2 6 2 18 0 25 -3 6 -5 1 -5 -13z"/>
<path d="M5572 15090 c0 -14 2 -19 5 -12 2 6 2 18 0 25 -3 6 -5 1 -5 -13z"/>
<path d="M5562 15040 c0 -14 2 -19 5 -12 2 6 2 18 0 25 -3 6 -5 1 -5 -13z"/>
<path d="M5551 14994 c0 -11 3 -14 6 -6 3 7 2 16 -1 19 -3 4 -6 -2 -5 -13z"/>
<path d="M5481 14684 c0 -11 3 -14 6 -6 3 7 2 16 -1 19 -3 4 -6 -2 -5 -13z"/>
<path d="M5452 14593 c-12 -37 -20 -69 -18 -71 2 -2 14 27 26 63 12 36 20 68
18 70 -2 3 -14 -26 -26 -62z"/>
<path d="M4500 14644 c0 -6 7 -19 16 -30 14 -18 14 -18 3 6 -14 31 -19 36 -19
24z"/>
<path d="M4540 14571 c5 -11 15 -23 21 -27 6 -3 3 5 -6 20 -20 30 -30 35 -15
7z"/>
<path d="M4570 14526 c0 -2 8 -10 18 -17 15 -13 16 -12 3 4 -13 16 -21 21 -21
13z"/>
<path d="M4655 14430 c27 -27 51 -50 54 -50 3 0 -17 23 -44 50 -27 28 -51 50
-54 50 -3 0 17 -22 44 -50z"/>
<path d="M5397 14464 c-3 -4 -21 -10 -39 -14 -29 -7 -30 -8 -7 -9 14 -1 34 6
45 14 10 8 16 15 13 15 -3 0 -8 -3 -12 -6z"/>
<path d="M4720 14377 c0 -2 26 -26 57 -53 31 -27 54 -44 50 -37 -9 14 -107 97
-107 90z"/>
<path d="M4900 14225 c13 -14 26 -25 28 -25 3 0 -5 11 -18 25 -13 14 -26 25
-28 25 -3 0 5 -11 18 -25z"/>
<path d="M13513 18681 c-47 -22 -72 -63 -92 -148 -7 -28 -20 -58 -29 -67 -10
-8 -98 -56 -196 -107 l-180 -92 -65 11 c-36 6 -122 34 -191 63 -193 80 -309
79 -387 -4 -43 -46 -53 -85 -53 -213 0 -137 -6 -142 -91 -61 -82 77 -154 111
-320 151 -231 55 -311 88 -539 221 -121 71 -187 95 -256 95 -87 0 -179 -48
-228 -118 -14 -20 -49 -107 -79 -192 -30 -85 -85 -231 -122 -325 -129 -326
-155 -435 -155 -639 0 -155 13 -300 51 -556 47 -322 72 -564 94 -930 17 -276
60 -549 151 -953 102 -458 174 -700 241 -815 13 -24 22 -46 19 -49 -8 -8 -211
52 -321 95 -114 44 -251 112 -335 166 -86 55 -90 58 -90 53 0 -11 151 -102
257 -155 124 -62 254 -112 413 -158 79 -23 102 -34 134 -67 76 -77 178 -99
269 -59 42 19 59 20 240 15 439 -13 834 72 1242 266 268 128 469 286 688 541
26 30 47 51 47 46 0 -4 -11 -45 -24 -90 -39 -128 -72 -298 -147 -765 -39 -240
-90 -539 -114 -666 -52 -268 -155 -694 -189 -774 -13 -31 -63 -148 -111 -261
-146 -342 -246 -619 -380 -1050 -223 -716 -361 -1084 -540 -1435 -110 -216
-143 -275 -400 -705 -222 -373 -320 -599 -395 -912 -33 -138 -93 -498 -85
-506 3 -3 5 -3 5 1 0 3 16 95 35 204 59 341 133 588 244 818 70 144 96 190
337 595 369 620 507 942 794 1855 105 337 200 616 265 785 74 190 188 470 191
467 2 -1 -18 -79 -42 -172 -58 -219 -165 -656 -198 -810 -36 -169 -79 -414
-206 -1170 -145 -866 -159 -968 -167 -1170 -9 -260 5 -387 107 -925 122 -653
123 -662 125 -1195 2 -359 5 -462 19 -560 17 -112 67 -319 201 -830 92 -351
116 -495 180 -1065 34 -309 68 -543 110 -770 92 -497 140 -831 179 -1240 79
-827 84 -1271 22 -2269 -7 -115 11 -41 28 114 38 352 49 559 49 970 1 505 -18
822 -89 1455 -30 274 -50 405 -120 805 -88 502 -102 596 -139 931 -63 573 -91
733 -205 1164 -132 497 -141 535 -168 680 -25 142 -26 153 -23 517 3 507 -15
696 -124 1268 -101 533 -109 593 -109 860 -1 271 -2 257 149 1160 159 946 181
1076 221 1260 43 205 195 817 231 935 l26 85 23 -150 c59 -375 184 -980 294
-1410 60 -237 152 -553 157 -538 2 6 -28 145 -67 309 -122 514 -138 582 -194
844 -55 254 -142 724 -172 938 -16 110 -16 114 4 185 93 317 184 782 292 1487
84 548 141 771 253 997 76 152 127 271 127 295 0 7 -15 -21 -34 -62 -41 -94
-95 -201 -137 -271 -17 -30 -43 -83 -56 -119 -26 -69 -89 -147 -237 -293 -333
-330 -826 -551 -1384 -621 -127 -16 -490 -21 -526 -7 -16 6 -13 11 20 36 91
68 167 141 331 314 192 205 246 279 308 419 l42 96 179 94 c472 247 663 392
972 737 165 184 191 217 67 86 -329 -349 -442 -450 -666 -594 -157 -101 -539
-307 -539 -291 0 4 5 24 12 45 10 35 26 49 170 144 87 57 158 107 158 110 0 3
-15 -5 -34 -17 -159 -105 -261 -167 -264 -158 -10 30 178 534 281 751 86 182
269 502 400 699 120 179 250 323 398 438 144 113 174 221 134 487 -9 55 -20
156 -25 225 -13 166 -25 223 -65 296 l-33 62 97 41 c96 41 99 42 162 32 83
-14 214 -14 263 0 60 17 119 79 166 175 59 120 80 188 80 256 0 109 -41 158
-191 226 -249 115 -349 139 -426 103z m145 -21 c39 -9 119 -43 292 -122 181
-82 195 -187 59 -449 -49 -94 -85 -125 -163 -141 -57 -12 -80 -11 -436 27
-298 32 -553 7 -820 -82 -137 -45 -243 -102 -348 -187 -294 -238 -549 -346
-820 -346 -325 0 -568 -177 -627 -457 -8 -37 -17 -144 -19 -238 -4 -177 -3
-174 15 40 24 280 88 413 253 523 100 67 195 92 391 103 89 5 179 16 220 27
181 49 505 145 501 149 -3 3 -55 -9 -117 -26 -61 -18 -113 -30 -115 -28 -2 2
24 19 59 38 34 19 132 86 217 150 186 139 252 177 390 223 246 82 531 113 783
86 65 -7 116 -15 113 -17 -2 -3 -49 -25 -103 -49 -133 -60 -220 -121 -334
-234 -73 -73 -104 -112 -132 -169 -20 -40 -37 -81 -37 -90 0 -9 11 8 25 38 55
118 225 287 376 374 43 26 47 26 61 10 48 -54 73 -143 83 -293 3 -52 16 -165
27 -250 36 -277 16 -353 -120 -463 -230 -186 -366 -358 -607 -772 -201 -343
-314 -601 -461 -1045 -105 -316 -164 -448 -249 -555 -88 -111 -368 -398 -456
-468 -95 -76 -189 -127 -236 -127 -79 0 -160 61 -218 165 -82 150 -139 342
-259 885 -92 412 -108 526 -146 1020 -27 351 -35 429 -76 730 -68 498 -75 618
-49 788 21 131 51 227 155 492 48 124 100 263 115 310 47 145 86 205 157 241
100 51 183 35 368 -72 209 -121 289 -154 484 -203 200 -50 276 -83 356 -154
l54 -49 -54 -18 c-223 -73 -509 -200 -731 -326 -86 -49 -177 -97 -203 -109
-127 -54 -300 -75 -371 -46 -19 8 -44 30 -55 48 -12 20 -20 27 -20 16 0 -27
48 -76 87 -89 23 -7 70 -10 127 -7 119 7 247 49 386 129 149 86 425 220 560
272 63 25 192 70 285 100 580 188 1087 417 1205 543 l35 38 -34 -28 c-18 -15
-35 -25 -37 -23 -8 8 27 106 47 131 36 45 82 55 167 36z m-1047 -294 c31 -8
101 -33 157 -56 55 -22 115 -43 134 -46 18 -3 40 -8 48 -11 26 -8 -556 -233
-602 -233 -6 0 -9 43 -6 113 4 130 21 175 75 208 63 39 114 46 194 25z"/>
<path d="M11115 18391 c-40 -24 -80 -72 -111 -132 -34 -68 -30 -75 6 -10 69
125 110 156 197 149 30 -3 48 -1 41 3 -24 15 -102 10 -133 -10z"/>
<path d="M10947 18133 c-39 -87 -68 -165 -64 -169 2 -2 16 29 32 68 15 40 37
90 47 111 11 22 17 41 15 43 -2 3 -16 -22 -30 -53z"/>
<path d="M13924 18128 l-19 -23 23 19 c21 18 27 26 19 26 -2 0 -12 -10 -23
-22z"/>
<path d="M13723 18033 c15 -2 37 -2 50 0 12 2 0 4 -28 4 -27 0 -38 -2 -22 -4z"/>
<path d="M13321 17254 c0 -11 3 -14 6 -6 3 7 2 16 -1 19 -3 4 -6 -2 -5 -13z"/>
<path d="M13332 17195 c0 -16 2 -22 5 -12 2 9 2 23 0 30 -3 6 -5 -1 -5 -18z"/>
<path d="M13343 17090 c0 -36 2 -50 4 -32 2 17 2 47 0 65 -2 17 -4 3 -4 -33z"/>
<path d="M13331 16994 c0 -11 3 -14 6 -6 3 7 2 16 -1 19 -3 4 -6 -2 -5 -13z"/>
<path d="M13180 16813 l-95 -97 85 79 c47 43 94 87 105 97 11 10 15 18 10 18
-6 0 -53 -44 -105 -97z"/>
<path d="M13049 16673 c-48 -53 -73 -83 -67 -83 3 0 28 27 57 60 58 67 64 81
10 23z"/>
<path d="M12933 16528 c-43 -57 -66 -91 -58 -86 12 7 78 98 72 98 -3 0 -9 -6
-14 -12z"/>
<path d="M10782 16410 c0 -14 2 -19 5 -12 2 6 2 18 0 25 -3 6 -5 1 -5 -13z"/>
<path d="M12190 15750 c-6 -11 -8 -20 -6 -20 3 0 10 9 16 20 6 11 8 20 6 20
-3 0 -10 -9 -16 -20z"/>
<path d="M12094 15578 c-4 -7 -14 -24 -22 -38 -14 -24 -13 -24 3 -5 20 24 37
55 31 55 -3 0 -8 -6 -12 -12z"/>
<path d="M11970 15368 c-18 -29 -25 -46 -18 -38 18 19 61 90 55 90 -3 0 -20
-24 -37 -52z"/>
<path d="M10921 15244 c0 -11 3 -14 6 -6 3 7 2 16 -1 19 -3 4 -6 -2 -5 -13z"/>
<path d="M11824 15153 c-70 -94 -192 -239 -229 -273 -38 -35 -168 -180 -162
-180 11 0 281 297 342 375 93 121 118 155 112 155 -2 0 -31 -35 -63 -77z"/>
<path d="M10931 15174 c0 -11 3 -14 6 -6 3 7 2 16 -1 19 -3 4 -6 -2 -5 -13z"/>
<path d="M12076 14795 c-9 -26 -7 -32 5 -12 6 10 9 21 6 23 -2 3 -7 -2 -11
-11z"/>
<path d="M11016 14750 c4 -19 11 -44 15 -55 6 -14 7 -9 3 15 -4 19 -11 44 -15
55 -6 14 -7 9 -3 -15z"/>
<path d="M11399 14663 c-13 -16 -12 -17 4 -4 16 13 21 21 13 21 -2 0 -10 -8
-17 -17z"/>
<path d="M11041 14660 c0 -8 4 -24 9 -35 5 -13 9 -14 9 -5 0 8 -4 24 -9 35 -5
13 -9 14 -9 5z"/>
<path d="M11955 14544 c-9 -15 -12 -23 -6 -20 11 7 35 46 28 46 -3 0 -12 -12
-22 -26z"/>
<path d="M11860 14433 l-55 -58 58 55 c53 50 62 60 54 60 -1 0 -27 -26 -57
-57z"/>
<path d="M11139 14447 c5 -5 19 -7 32 -5 20 3 19 5 -9 9 -20 3 -29 2 -23 -4z"/>
<path d="M11740 14329 l-45 -41 42 32 c37 27 61 51 51 50 -2 0 -23 -19 -48
-41z"/>
<path d="M11604 14218 l-19 -23 23 19 c21 18 27 26 19 26 -2 0 -12 -10 -23
-22z"/>
<path d="M11488 18613 c6 -2 18 -2 25 0 6 3 1 5 -13 5 -14 0 -19 -2 -12 -5z"/>
<path d="M4627 18431 c47 -22 202 -66 208 -59 4 3 -136 47 -235 74 -8 2 4 -5
27 -15z"/>
<path d="M11800 18409 c-36 -10 -94 -25 -130 -33 -36 -8 -53 -15 -39 -15 30
-1 213 45 238 59 24 14 4 11 -69 -11z"/>
<path d="M4858 18363 c6 -2 18 -2 25 0 6 3 1 5 -13 5 -14 0 -19 -2 -12 -5z"/>
<path d="M8223 18206 c-50 -42 -89 -202 -71 -288 25 -122 181 -136 219 -21 16
48 6 153 -21 225 -37 100 -77 126 -127 84z m64 -11 c24 -17 45 -77 63 -176 19
-103 -16 -179 -83 -179 -93 0 -121 107 -72 274 16 53 44 96 63 96 4 0 17 -7
29 -15z"/>
<path d="M7811 17824 c0 -11 3 -14 6 -6 3 7 2 16 -1 19 -3 4 -6 -2 -5 -13z"/>
<path d="M8702 17795 c0 -16 2 -22 5 -12 2 9 2 23 0 30 -3 6 -5 -1 -5 -18z"/>
<path d="M7594 17641 c-54 -23 -91 -112 -79 -190 14 -96 48 -127 150 -142 37
-5 75 -14 86 -19 29 -16 47 -60 58 -144 5 -42 17 -88 26 -103 15 -22 16 -33 6
-82 -6 -31 -12 -72 -13 -91 -3 -31 -6 -35 -28 -32 -14 1 -44 16 -67 32 -53 38
-90 46 -134 27 -49 -20 -74 -73 -74 -157 0 -112 44 -162 155 -174 91 -10 118
-39 131 -136 6 -41 19 -93 29 -115 17 -37 18 -45 5 -100 -8 -33 -15 -75 -15
-92 0 -43 -13 -42 -97 3 -53 28 -76 35 -102 30 -66 -10 -101 -67 -101 -163 0
-102 47 -155 149 -168 107 -15 127 -36 136 -145 4 -41 16 -94 27 -117 16 -36
18 -48 9 -76 -6 -18 -15 -60 -19 -92 -9 -70 -14 -71 -93 -23 -114 71 -200 15
-201 -131 -1 -115 35 -157 148 -171 100 -12 116 -33 124 -152 4 -53 12 -103
21 -116 19 -31 61 -56 133 -78 37 -11 71 -30 93 -51 18 -19 33 -29 33 -22 0
26 -68 77 -131 98 -104 34 -129 73 -129 196 0 64 -3 77 -25 103 -26 31 -86 52
-145 52 -95 0 -136 175 -60 252 34 33 62 35 115 7 22 -12 52 -28 67 -36 47
-25 64 -6 71 79 10 106 15 120 39 107 11 -6 42 -17 69 -25 27 -8 66 -29 86
-47 25 -22 33 -26 26 -12 -20 37 -58 64 -123 87 -81 29 -98 55 -110 172 -5 47
-16 95 -25 109 -21 32 -73 57 -119 57 -93 0 -140 48 -140 144 1 134 62 169
185 105 39 -21 67 -29 83 -25 21 5 24 13 30 77 9 105 15 121 35 109 10 -5 48
-16 86 -25 47 -10 79 -25 97 -42 16 -15 28 -22 28 -17 0 26 -59 64 -130 83
-88 23 -116 49 -124 116 -3 25 -8 65 -12 89 -9 77 -68 126 -150 126 -52 0
-100 26 -118 65 -32 66 -13 190 32 214 35 19 68 12 140 -25 58 -30 73 -34 91
-25 17 10 21 21 21 64 0 87 10 129 29 122 9 -4 43 -11 76 -16 82 -13 90 -16
127 -47 27 -23 30 -24 20 -5 -19 34 -77 64 -144 73 -83 12 -114 43 -123 127
-9 91 -23 130 -56 157 -32 27 -43 31 -121 41 -86 11 -124 68 -116 172 7 77 32
107 92 111 41 3 55 -2 108 -37 70 -48 99 -55 42 -11 -21 16 -50 39 -64 50 -29
23 -95 34 -126 21z"/>
<path d="M8825 17632 c-22 -10 -47 -27 -55 -37 -8 -10 -28 -27 -45 -37 -27
-17 -27 -19 -5 -12 13 4 47 22 73 40 49 33 100 44 142 28 44 -17 65 -157 33
-219 -20 -39 -47 -52 -127 -64 -108 -17 -135 -49 -151 -176 -5 -42 -14 -84
-20 -95 -13 -24 -61 -50 -92 -50 -45 0 -99 -22 -131 -52 l-32 -30 33 22 c18
12 65 28 105 35 40 7 79 16 88 19 19 8 29 -28 29 -108 0 -28 4 -57 9 -65 15
-24 66 -16 118 17 93 60 162 31 177 -73 17 -110 -35 -184 -131 -186 -97 -1
-146 -47 -157 -146 -17 -142 -33 -165 -126 -184 -67 -13 -113 -38 -131 -71
-11 -21 -10 -20 20 5 18 15 42 29 54 32 31 7 119 25 137 28 17 2 27 -36 29
-108 2 -84 30 -94 118 -44 59 34 112 41 139 18 41 -34 58 -145 31 -199 -20
-40 -74 -70 -126 -70 -51 0 -101 -25 -126 -64 -9 -13 -20 -62 -25 -111 -12
-120 -22 -133 -139 -176 -37 -14 -91 -55 -91 -70 0 -6 15 1 33 14 44 32 156
72 169 59 5 -5 12 -46 15 -91 8 -110 19 -116 114 -67 75 39 86 42 123 25 78
-36 73 -247 -6 -263 -13 -3 -45 -7 -71 -10 -101 -12 -137 -58 -137 -178 0
-103 -17 -127 -112 -163 -93 -36 -115 -50 -135 -89 l-16 -31 40 36 c26 23 65
44 109 58 113 37 145 81 142 201 0 36 4 76 11 88 16 30 62 52 111 52 93 0 149
61 150 160 0 149 -100 216 -211 140 -24 -16 -54 -30 -66 -30 -20 0 -23 5 -23
43 0 24 -7 66 -15 94 -14 49 -14 53 5 86 13 21 23 61 26 103 10 123 29 146
136 159 111 14 153 61 152 170 -1 153 -89 205 -213 125 -26 -16 -57 -30 -69
-30 -19 0 -22 6 -23 48 0 26 -6 67 -13 92 -10 39 -9 49 7 76 10 18 21 65 26
106 13 118 35 142 136 153 112 14 155 63 155 177 0 80 -22 127 -72 151 -46 23
-80 17 -141 -23 -24 -16 -54 -31 -68 -32 -22 -3 -24 1 -27 47 -1 28 -7 68 -13
91 -9 35 -8 45 10 74 12 20 23 61 27 101 4 38 15 81 25 99 23 36 72 60 127 60
49 0 101 34 124 80 21 40 23 128 5 179 -24 68 -101 96 -172 63z"/>
<path d="M10174 17098 l-29 -33 33 29 c30 28 37 36 29 36 -2 0 -16 -15 -33
-32z"/>
<path d="M6340 17095 c13 -14 26 -25 28 -25 3 0 -5 11 -18 25 -13 14 -26 25
-28 25 -3 0 5 -11 18 -25z"/>
<path d="M8181 17060 c-18 -86 -24 -211 -12 -275 15 -80 37 -109 87 -113 46
-3 74 20 93 77 15 47 14 223 -3 294 -14 59 -34 97 -22 42 3 -16 9 -82 13 -147
9 -171 -15 -248 -78 -248 -63 0 -88 109 -70 294 6 65 10 121 7 123 -2 2 -9
-19 -15 -47z"/>
<path d="M10099 17033 c-13 -16 -12 -17 4 -4 16 13 21 21 13 21 -2 0 -10 -8
-17 -17z"/>
<path d="M6475 16980 c10 -11 20 -20 23 -20 3 0 -3 9 -13 20 -10 11 -20 20
-23 20 -3 0 3 -9 13 -20z"/>
<path d="M10034 16978 l-19 -23 23 19 c12 11 22 21 22 23 0 8 -8 2 -26 -19z"/>
<path d="M6610 16876 c0 -2 8 -10 18 -17 15 -13 16 -12 3 4 -13 16 -21 21 -21
13z"/>
<path d="M9879 16853 c-13 -16 -12 -17 4 -4 16 13 21 21 13 21 -2 0 -10 -8
-17 -17z"/>
<path d="M6730 16776 c0 -2 8 -10 18 -17 15 -13 16 -12 3 4 -13 16 -21 21 -21
13z"/>
<path d="M9764 16758 l-19 -23 23 19 c21 18 27 26 19 26 -2 0 -12 -10 -23 -22z"/>
<path d="M8197 16353 c-16 -26 -31 -145 -31 -243 -1 -99 2 -120 20 -150 36
-62 104 -65 148 -7 17 23 21 46 24 131 4 105 -17 250 -39 271 -8 7 -10 4 -5
-10 12 -41 26 -162 26 -228 0 -132 -34 -198 -96 -183 -54 14 -75 145 -52 324
13 99 14 110 5 95z"/>
<path d="M5880 15618 c0 -12 131 -362 171 -456 96 -228 675 -1404 806 -1637
75 -134 294 -466 349 -530 15 -18 11 -9 -9 20 -303 439 -366 556 -1013 1892
-82 170 -140 304 -226 527 -62 164 -78 200 -78 184z"/>
<path d="M8192 15582 c-35 -115 -38 -284 -7 -358 29 -71 104 -81 149 -21 17
24 21 46 24 137 4 113 -17 252 -40 266 -8 5 -9 1 -5 -10 32 -83 35 -333 4
-379 -21 -33 -75 -37 -101 -8 -36 40 -43 185 -15 345 12 68 7 83 -9 28z"/>
<path d="M10561 15428 c-94 -247 -181 -435 -481 -1048 -420 -857 -462 -933
-739 -1340 -40 -58 -60 -91 -46 -75 53 62 286 415 359 545 136 239 655 1286
788 1589 63 145 180 451 176 462 -2 5 -28 -55 -57 -133z"/>
<path d="M14750 15031 c5 -11 15 -23 21 -27 6 -3 3 5 -6 20 -20 30 -30 35 -15
7z"/>
<path d="M8328 14768 c22 -108 21 -294 -1 -335 -33 -61 -105 -53 -134 15 -13
30 -14 61 -9 172 4 74 9 153 11 175 3 25 -3 14 -14 -31 -27 -103 -35 -220 -21
-289 15 -73 45 -105 97 -105 88 0 119 65 110 233 -5 101 -27 209 -46 230 -5 4
-1 -25 7 -65z"/>
<path d="M7856 14668 c-18 -141 -20 -146 -67 -109 -78 60 -136 66 -184 18 -59
-59 -66 -179 -15 -262 25 -40 58 -55 121 -55 97 0 125 -33 131 -155 2 -39 12
-86 21 -106 16 -31 16 -40 3 -75 -7 -22 -17 -63 -21 -92 -8 -62 -22 -66 -91
-26 -110 65 -207 2 -208 -136 0 -103 47 -160 136 -160 61 0 115 -17 133 -43
10 -14 15 -45 15 -92 0 -78 14 -141 37 -167 14 -16 14 -22 -6 -67 -11 -27 -21
-61 -21 -75 0 -38 -18 -76 -35 -76 -9 0 -40 11 -68 24 -62 29 -96 25 -137 -15
-34 -35 -56 -118 -46 -175 5 -23 21 -51 41 -71 31 -31 37 -33 104 -33 63 0 75
-3 96 -25 22 -21 25 -33 25 -100 0 -98 16 -159 50 -194 27 -26 27 -28 12 -57
-9 -16 -23 -56 -31 -88 -19 -71 -37 -86 -83 -67 -18 8 -51 16 -74 18 -79 9
-130 -65 -122 -178 3 -48 10 -65 33 -89 27 -28 33 -30 106 -30 54 0 82 -4 92
-14 9 -9 16 -45 19 -99 8 -121 41 -172 132 -204 30 -11 70 -36 98 -64 57 -54
64 -46 11 12 -22 25 -63 53 -98 69 -99 45 -116 74 -120 202 -2 106 -13 118
-112 118 -87 0 -110 10 -129 55 -30 73 -2 171 56 195 27 11 38 11 78 -3 26
-10 55 -17 65 -17 28 0 54 35 62 81 4 24 15 63 26 87 l19 43 62 -33 c34 -18
80 -51 102 -73 38 -39 38 -39 23 -9 -21 41 -66 78 -136 114 -99 50 -121 92
-121 235 -1 112 -23 135 -130 135 -34 0 -70 5 -81 10 -66 36 -65 197 2 244 31
21 61 20 109 -4 76 -39 102 -23 119 75 7 36 17 76 23 89 l10 24 80 -50 c44
-28 92 -64 109 -80 16 -16 29 -27 29 -23 0 22 -51 70 -125 119 -46 31 -92 68
-102 83 -13 19 -20 55 -24 128 -8 145 -25 164 -153 175 -69 6 -83 11 -102 34
-47 54 -43 168 6 218 36 35 74 36 140 3 83 -42 103 -33 114 50 9 61 26 117 34
113 77 -36 133 -71 169 -108 40 -39 44 -41 30 -15 -21 41 -57 73 -130 115 -80
47 -96 75 -104 187 -6 82 -8 90 -39 121 -27 27 -39 32 -81 33 -69 0 -114 19
-135 55 -37 64 -32 172 11 225 27 34 77 30 140 -10 43 -28 56 -32 75 -23 20 9
24 19 30 98 7 97 2 125 -8 42z"/>
<path d="M8655 14691 c3 -18 5 -57 5 -87 0 -53 16 -84 44 -84 7 0 34 14 61 32
52 34 102 41 130 18 49 -41 64 -152 30 -223 -22 -47 -40 -57 -116 -63 -115 -8
-144 -41 -151 -169 -6 -99 -25 -138 -81 -166 -73 -38 -126 -79 -143 -112 -17
-32 -17 -32 29 10 42 38 164 109 173 100 2 -2 9 -39 16 -83 6 -43 16 -85 21
-91 15 -20 54 -15 105 12 104 56 174 9 175 -118 1 -63 -22 -110 -60 -125 -15
-6 -59 -12 -97 -14 -62 -4 -71 -7 -96 -35 -24 -27 -28 -41 -34 -129 -4 -54
-14 -112 -22 -129 -8 -17 -40 -47 -77 -70 -70 -45 -147 -112 -147 -128 0 -6
15 3 33 20 33 31 160 113 176 113 12 0 29 -52 37 -113 11 -87 47 -106 124 -67
22 11 46 20 55 20 30 0 72 -29 83 -57 31 -78 26 -134 -14 -183 -24 -28 -30
-30 -99 -30 -63 0 -78 -3 -102 -24 -26 -22 -28 -29 -33 -132 -7 -138 -20 -163
-110 -211 -66 -35 -123 -82 -142 -118 -7 -12 6 -5 30 17 23 21 69 51 102 68
l60 30 11 -27 c6 -15 16 -57 24 -92 8 -39 21 -71 32 -79 20 -15 61 -12 110 9
43 17 81 4 110 -40 40 -59 26 -186 -22 -205 -9 -3 -50 -6 -90 -6 -68 0 -75 -2
-94 -26 -16 -20 -21 -41 -21 -88 0 -118 -34 -178 -118 -205 -50 -17 -107 -63
-127 -102 -13 -25 -10 -23 28 15 25 24 65 51 93 61 109 41 143 91 144 210 0
103 11 115 108 115 89 0 116 13 138 66 36 85 1 193 -72 226 -44 19 -44 19 -90
-2 -80 -35 -95 -28 -113 58 -6 29 -18 67 -27 84 -15 28 -14 31 5 52 34 36 51
91 51 163 0 93 15 142 46 153 14 6 53 10 87 10 39 0 71 6 83 15 70 49 72 211
3 269 -38 32 -83 34 -144 4 -60 -29 -76 -19 -92 60 -7 34 -19 74 -27 90 -13
24 -12 30 6 60 15 25 22 57 26 125 2 51 11 104 18 119 16 32 64 48 140 48 107
0 160 101 124 232 -24 84 -124 116 -202 63 -20 -14 -48 -25 -61 -25 -22 0 -25
6 -31 51 -4 29 -13 70 -21 92 -12 35 -12 44 2 71 9 17 20 71 24 120 10 119 27
138 134 147 85 7 107 20 136 84 39 85 12 217 -52 250 -44 23 -79 18 -141 -21
-32 -19 -62 -33 -67 -30 -4 3 -11 32 -15 63 -4 32 -11 72 -16 88 l-10 30 5
-34z"/>
<path d="M6269 14333 c-13 -16 -12 -17 4 -4 16 13 21 21 13 21 -2 0 -10 -8
-17 -17z"/>
<path d="M10264 14322 c8 -13 66 -56 66 -49 0 3 -17 17 -37 33 -20 15 -33 23
-29 16z"/>
<path d="M6229 14303 c-13 -16 -12 -17 4 -4 16 13 21 21 13 21 -2 0 -10 -8
-17 -17z"/>
<path d="M6180 14269 c-22 -18 -22 -19 -3 -10 12 6 25 16 28 21 9 15 3 12 -25
-11z"/>
<path d="M15671 14274 c0 -11 3 -14 6 -6 3 7 2 16 -1 19 -3 4 -6 -2 -5 -13z"/>
<path d="M8182 13993 c-40 -140 -49 -325 -19 -380 22 -42 54 -63 94 -63 46 0
82 19 100 54 33 63 26 249 -13 368 -23 70 -34 67 -16 -5 10 -40 16 -112 16
-204 1 -136 0 -142 -23 -167 -26 -28 -67 -34 -103 -15 -49 26 -61 144 -32 336
16 110 15 139 -4 76z"/>
<path d="M8181 13131 c-43 -183 -38 -297 15 -361 28 -32 76 -41 115 -20 70 38
80 221 23 416 -9 30 -17 54 -19 52 -2 -2 5 -53 15 -113 40 -229 14 -352 -73
-343 -59 6 -96 98 -82 206 3 26 13 91 22 145 8 54 13 101 10 103 -3 3 -15 -36
-26 -85z"/>
<path d="M7315 12833 c15 -24 30 -43 32 -43 7 0 -31 61 -46 73 -8 7 -2 -7 14
-30z"/>
<path d="M8310 12455 c0 -5 9 -56 20 -113 24 -125 26 -247 4 -301 -20 -51 -64
-72 -103 -50 -60 34 -73 132 -42 322 23 141 24 153 10 117 -21 -52 -49 -208
-49 -275 0 -92 14 -138 51 -169 53 -45 122 -26 155 41 27 53 24 198 -4 316
-20 81 -41 137 -42 112z"/>
<path d="M8186 11593 c-49 -215 -42 -353 21 -403 56 -44 130 -8 153 75 17 60
7 214 -19 313 -33 123 -41 109 -15 -23 9 -44 16 -125 17 -180 2 -112 -10 -149
-55 -175 -25 -13 -31 -13 -55 0 -16 9 -33 31 -40 50 -17 49 -16 183 2 296 19
118 14 145 -9 47z"/>
<path d="M7836 11465 c-20 -80 -39 -115 -63 -115 -10 0 -36 7 -59 16 -36 14
-45 14 -76 1 -65 -27 -98 -141 -64 -221 21 -51 50 -66 129 -66 l68 0 15 -35
c7 -19 14 -60 14 -92 0 -83 27 -131 103 -183 34 -24 73 -53 86 -64 16 -15 22
-16 19 -6 -2 8 -38 40 -78 71 -86 65 -109 105 -110 192 0 71 -20 122 -52 133
-12 4 -46 7 -74 5 -63 -3 -91 18 -104 74 -12 53 5 127 35 155 25 23 39 24 142
4 26 -5 34 -2 48 20 18 27 48 151 42 170 -2 6 -11 -21 -21 -59z"/>
<path d="M8661 11525 c0 -5 8 -46 18 -89 21 -88 40 -111 84 -102 15 3 40 9 57
12 52 11 80 -3 100 -49 24 -51 25 -108 5 -147 -21 -40 -44 -50 -110 -49 -82 2
-96 -15 -111 -138 -15 -112 -24 -129 -112 -193 -33 -25 -63 -51 -66 -58 -9
-21 141 86 163 116 24 34 40 99 41 162 0 25 7 56 16 68 13 19 24 22 83 22 60
0 71 3 95 26 70 71 48 221 -39 263 -26 12 -35 12 -76 -2 -82 -29 -85 -27 -125
98 -12 38 -22 66 -23 60z"/>
<path d="M8323 10833 c27 -119 29 -294 4 -340 -28 -53 -85 -58 -120 -10 -30
39 -35 180 -12 316 9 56 15 104 12 107 -8 8 -37 -125 -46 -211 -9 -79 0 -180
20 -216 38 -73 140 -60 173 21 30 76 15 281 -28 385 -8 19 -17 35 -19 35 -2 0
5 -39 16 -87z"/>
<path d="M8716 10612 c9 -106 30 -131 100 -118 45 9 68 -5 88 -54 31 -77 11
-191 -35 -205 -11 -4 -43 -3 -73 0 -50 7 -54 5 -75 -20 -15 -20 -21 -42 -21
-77 0 -73 -19 -136 -48 -158 -14 -11 -23 -23 -20 -26 3 -2 19 7 36 20 33 29
52 87 52 165 0 70 15 81 93 75 69 -5 84 2 110 53 33 63 11 210 -34 239 -8 5
-41 9 -74 9 -59 0 -59 0 -71 35 -7 19 -17 55 -23 80 -10 43 -10 43 -5 -18z"/>
<path d="M7793 10602 c-17 -87 -24 -95 -89 -86 -49 6 -55 4 -77 -20 -47 -50
-59 -153 -28 -223 25 -55 50 -67 121 -59 41 5 60 3 68 -6 6 -7 13 -47 17 -88
4 -41 13 -89 20 -107 13 -31 60 -71 71 -60 3 3 -4 11 -16 17 -30 16 -47 62
-55 154 -10 105 -24 119 -106 110 -73 -8 -93 6 -108 77 -24 109 23 195 99 183
21 -3 47 -1 58 5 26 14 45 72 40 126 -3 38 -3 37 -15 -23z"/>
<path d="M7235 10599 c-59 -45 -67 -57 -12 -18 42 29 65 50 55 49 -2 0 -21
-14 -43 -31z"/>
<path d="M9240 10626 c0 -2 14 -14 30 -26 17 -12 30 -19 30 -16 0 2 -13 14
-30 26 -16 12 -30 19 -30 16z"/>
<path d="M9310 10576 c0 -2 8 -10 18 -17 15 -13 16 -12 3 4 -13 16 -21 21 -21
13z"/>
<path d="M9380 10527 c0 -3 17 -17 37 -33 20 -15 33 -23 29 -16 -8 13 -66 56
-66 49z"/>
<path d="M7079 10483 c-13 -16 -12 -17 4 -4 16 13 21 21 13 21 -2 0 -10 -8
-17 -17z"/>
<path d="M8191 10104 c-31 -104 -43 -221 -32 -293 16 -97 37 -121 106 -121 46
0 79 32 95 91 21 77 2 254 -40 363 -19 51 -19 23 2 -64 11 -50 20 -128 21
-190 2 -90 -1 -110 -19 -140 -33 -57 -105 -54 -130 5 -20 48 -17 199 5 315 11
52 17 97 16 99 -2 2 -13 -28 -24 -65z"/>
<path d="M4535 10030 c10 -11 20 -20 23 -20 3 0 -3 9 -13 20 -10 11 -20 20
-23 20 -3 0 3 -9 13 -20z"/>
<path d="M6824 10018 l-19 -23 23 19 c21 18 27 26 19 26 -2 0 -12 -10 -23 -22z"/>
<path d="M11969 10023 c-13 -16 -12 -17 4 -4 9 7 17 15 17 17 0 8 -8 3 -21
-13z"/>
<path d="M9680 10026 c0 -2 8 -10 18 -17 15 -13 16 -12 3 4 -13 16 -21 21 -21
13z"/>
<path d="M9770 9935 c13 -14 26 -25 28 -25 3 0 -5 11 -18 25 -13 14 -26 25
-28 25 -3 0 5 -11 18 -25z"/>
<path d="M6729 9923 c-13 -16 -12 -17 4 -4 9 7 17 15 17 17 0 8 -8 3 -21 -13z"/>
<path d="M4650 9905 c13 -14 26 -25 28 -25 3 0 -5 11 -18 25 -13 14 -26 25
-28 25 -3 0 5 -11 18 -25z"/>
<path d="M11849 9893 l-24 -28 28 24 c15 14 27 26 27 28 0 8 -8 1 -31 -24z"/>
<path d="M4740 9817 c0 -2 15 -16 33 -33 l32 -29 -29 33 c-28 30 -36 37 -36
29z"/>
<path d="M6609 9783 l-24 -28 28 24 c15 14 27 26 27 28 0 8 -8 1 -31 -24z"/>
<path d="M11734 9778 l-29 -33 33 29 c30 28 37 36 29 36 -2 0 -16 -15 -33 -32z"/>
<path d="M9905 9780 c10 -11 20 -20 23 -20 3 0 -3 9 -13 20 -10 11 -20 20 -23
20 -3 0 3 -9 13 -20z"/>
<path d="M9990 9695 c13 -14 26 -25 28 -25 3 0 -5 11 -18 25 -13 14 -26 25
-28 25 -3 0 5 -11 18 -25z"/>
<path d="M4890 9675 c13 -14 26 -25 28 -25 3 0 -5 11 -18 25 -13 14 -26 25
-28 25 -3 0 5 -11 18 -25z"/>
<path d="M6509 9683 c-13 -16 -12 -17 4 -4 9 7 17 15 17 17 0 8 -8 3 -21 -13z"/>
<path d="M11609 9663 l-24 -28 28 24 c15 14 27 26 27 28 0 8 -8 1 -31 -24z"/>
<path d="M4990 9596 c0 -2 8 -10 18 -17 15 -13 16 -12 3 4 -13 16 -21 21 -21
13z"/>
<path d="M11480 9559 l-35 -30 38 26 c33 24 43 35 34 35 -1 0 -18 -14 -37 -31z"/>
<path d="M5045 9550 c10 -11 20 -20 23 -20 3 0 -3 9 -13 20 -10 11 -20 20 -23
20 -3 0 3 -9 13 -20z"/>
<path d="M11014 9424 c-18 -14 -18 -15 4 -4 12 6 22 13 22 15 0 8 -5 6 -26
-11z"/>
<path d="M8211 9387 c-30 -48 -64 -202 -57 -255 11 -85 47 -124 113 -124 38 0
67 21 90 66 33 63 -3 264 -58 328 -19 23 -19 22 1 -25 30 -72 53 -201 46 -252
-10 -61 -39 -95 -82 -95 -39 0 -70 26 -80 66 -12 48 3 177 30 249 14 38 24 71
22 73 -2 2 -13 -12 -25 -31z"/>
<path d="M5700 9320 c8 -5 20 -10 25 -10 6 0 3 5 -5 10 -8 5 -19 10 -25 10 -5
0 -3 -5 5 -10z"/>
<path d="M10800 9320 c-8 -5 -10 -10 -5 -10 6 0 17 5 25 10 8 5 11 10 5 10 -5
0 -17 -5 -25 -10z"/>
<path d="M11104 9314 c-18 -14 -18 -15 4 -4 12 6 22 13 22 15 0 8 -5 6 -26
-11z"/>
<path d="M8218 8693 c-43 -50 -82 -182 -75 -256 5 -55 32 -91 83 -107 52 -18
116 6 140 52 32 62 2 233 -53 298 -31 38 -43 32 -14 -7 27 -37 54 -143 55
-215 1 -46 -3 -61 -22 -81 -13 -14 -36 -27 -50 -30 -31 -6 -81 12 -101 36 -30
37 -2 224 45 292 24 36 19 48 -8 18z"/>
<path d="M7763 8400 c0 -25 2 -35 4 -22 2 12 2 32 0 45 -2 12 -4 2 -4 -23z"/>
<path d="M7774 7915 c0 -159 2 -223 3 -142 2 82 2 212 0 290 -1 78 -3 12 -3
-148z"/>
<path d="M8205 8026 c-49 -74 -77 -213 -55 -266 18 -44 60 -70 112 -70 106 0
144 94 98 243 -19 60 -56 124 -67 113 -2 -2 4 -21 15 -43 20 -39 37 -103 46
-163 15 -107 -84 -171 -155 -101 -24 24 -29 38 -29 76 0 60 26 160 52 203 23
37 7 44 -17 8z"/>
<path d="M8743 7965 c0 -44 2 -61 4 -37 2 23 2 59 0 80 -2 20 -4 1 -4 -43z"/>
<path d="M5910 7570 c6 -11 13 -20 16 -20 2 0 0 9 -6 20 -6 11 -13 20 -16 20
-2 0 0 -9 6 -20z"/>
<path d="M5272 7550 c0 -14 2 -19 5 -12 2 6 2 18 0 25 -3 6 -5 1 -5 -13z"/>
<path d="M5281 7504 c0 -11 3 -14 6 -6 3 7 2 16 -1 19 -3 4 -6 -2 -5 -13z"/>
<path d="M11231 7504 c0 -11 3 -14 6 -6 3 7 2 16 -1 19 -3 4 -6 -2 -5 -13z"/>
<path d="M8201 7421 c-73 -78 -67 -261 11 -315 57 -41 128 1 154 90 24 83 -1
193 -54 234 -35 28 -45 25 -17 -6 53 -57 70 -175 35 -251 -52 -117 -154 -59
-155 87 0 73 16 122 53 163 15 15 20 27 13 27 -7 0 -25 -13 -40 -29z"/>
<path d="M6040 7361 c5 -11 15 -23 21 -27 6 -3 3 5 -6 20 -20 30 -30 35 -15 7z"/>
<path d="M6500 7226 c0 -2 7 -7 16 -10 8 -3 12 -2 9 4 -6 10 -25 14 -25 6z"/>
<path d="M5290 7040 c-449 -41 -1001 -351 -1230 -693 -57 -84 -102 -230 -103
-332 -1 -70 3 -89 30 -145 17 -36 70 -114 117 -175 234 -297 379 -783 346
-1160 -5 -55 -7 -101 -5 -103 11 -11 27 157 26 283 -1 393 -128 738 -397 1080
-69 88 -89 150 -81 250 7 80 42 193 80 257 43 73 153 195 250 275 271 226 617
381 942 424 111 14 354 6 445 -16 309 -74 627 -248 827 -452 119 -122 174
-214 283 -478 34 -82 92 -215 130 -295 97 -209 115 -267 114 -370 -1 -55 -7
-98 -17 -121 -19 -42 -67 -86 -103 -95 -40 -10 -113 4 -163 31 l-46 25 30 -25
c36 -30 106 -55 152 -55 44 0 106 32 132 69 80 112 65 282 -44 503 -46 92
-135 296 -135 308 0 5 14 17 32 26 24 13 51 15 113 12 112 -6 215 -55 340
-162 50 -43 99 -83 110 -88 25 -13 20 -7 -26 29 -20 15 -58 48 -86 73 l-50 45
66 1 c58 0 76 6 143 42 67 36 81 40 109 32 55 -16 87 -56 116 -147 18 -59 37
-97 64 -127 43 -48 56 -55 182 -91 105 -30 148 -57 186 -116 36 -57 55 -72 93
-72 32 0 41 8 123 109 33 41 84 66 171 84 128 26 181 75 224 206 25 73 39 100
66 124 48 42 85 40 181 -11 73 -38 82 -41 138 -36 l59 5 -39 -34 c-22 -19 -64
-53 -92 -76 -29 -22 -53 -42 -53 -45 0 -11 76 47 168 129 87 76 189 120 298
126 62 3 88 1 112 -12 18 -9 32 -20 32 -25 0 -16 -80 -202 -127 -295 -64 -126
-93 -218 -100 -306 -12 -165 62 -280 180 -280 46 0 116 25 152 55 l30 25 -48
-26 c-65 -35 -150 -42 -197 -16 -76 42 -109 181 -76 312 9 36 48 130 85 210
38 80 104 228 146 330 99 236 125 289 190 375 197 263 558 485 930 571 101 24
435 27 530 5 292 -66 571 -194 785 -359 189 -147 319 -305 365 -446 55 -165
43 -274 -42 -386 -27 -35 -74 -97 -106 -139 -108 -143 -227 -421 -271 -632
-40 -192 -44 -428 -11 -559 l13 -55 -6 55 c-12 95 -5 321 12 425 49 294 158
567 301 755 159 210 176 244 176 355 0 81 -11 138 -45 228 -30 81 -57 122
-140 219 -228 266 -624 490 -1002 567 -416 85 -853 -24 -1234 -307 -226 -168
-340 -316 -440 -572 -18 -47 -35 -87 -36 -89 -2 -1 -28 9 -59 24 -83 41 -153
32 -299 -37 -142 -67 -172 -68 -278 -10 -44 25 -89 42 -107 42 -73 0 -126 -54
-161 -165 -43 -134 -74 -164 -201 -196 -138 -34 -181 -62 -242 -159 -19 -29
-29 -35 -57 -35 -28 0 -38 6 -57 35 -60 95 -106 126 -229 156 -136 34 -172 67
-214 199 -36 112 -88 165 -161 165 -18 0 -63 -17 -107 -42 -106 -58 -136 -57
-282 12 -106 50 -120 54 -190 55 -59 0 -84 -5 -117 -22 -50 -26 -44 -32 -93
91 -96 242 -225 404 -446 561 -254 180 -530 290 -792 315 -109 11 -160 11
-282 0z"/>
<path d="M8209 6833 c-31 -34 -43 -63 -58 -135 -10 -46 -9 -62 3 -91 35 -86
169 -89 212 -5 29 55 -3 186 -57 236 -27 26 -40 20 -16 -6 43 -47 71 -197 44
-233 -36 -47 -97 -51 -139 -8 -29 29 -30 33 -24 86 7 60 36 135 63 165 9 10
12 18 6 18 -5 0 -21 -12 -34 -27z"/>
<path d="M5395 6789 c470 -25 782 -211 960 -573 56 -113 79 -194 110 -395 23
-141 52 -253 86 -328 15 -35 30 -63 32 -63 2 0 -11 44 -29 98 -21 61 -47 175
-68 302 -37 217 -61 301 -119 416 -44 88 -137 212 -210 281 -184 174 -473 275
-776 271 l-126 -1 140 -8z"/>
<path d="M10918 6784 c-88 -16 -283 -76 -343 -107 -122 -61 -237 -161 -328
-282 -118 -158 -165 -284 -212 -560 -29 -170 -53 -273 -90 -370 l-7 -20 14 20
c40 54 76 188 108 400 39 258 124 442 282 611 111 118 245 198 423 253 133 40
204 52 365 61 l135 7 -135 1 c-75 0 -169 -6 -212 -14z"/>
<path d="M5188 6783 c6 -2 18 -2 25 0 6 3 1 5 -13 5 -14 0 -19 -2 -12 -5z"/>
<path d="M4705 6602 c-133 -69 -260 -153 -337 -221 -55 -50 -138 -162 -138
-185 1 -6 10 7 22 29 31 60 172 194 273 260 50 33 136 83 193 113 56 29 102
55 102 58 0 6 3 8 -115 -54z"/>
<path d="M11760 6625 c0 -3 31 -20 69 -39 126 -64 274 -171 356 -258 43 -46
72 -72 65 -58 -25 47 -145 157 -240 220 -91 59 -250 146 -250 135z"/>
<path d="M8201 6254 c-49 -62 -67 -203 -32 -260 39 -64 128 -70 177 -12 25 30
26 37 22 113 -5 81 -28 146 -62 174 -20 17 -20 7 -1 -22 23 -36 48 -147 42
-194 -2 -24 -12 -52 -22 -63 -44 -48 -124 -28 -145 36 -15 45 1 151 31 210 23
46 19 54 -10 18z"/>
<path d="M12281 6200 c14 -31 19 -36 19 -24 0 6 -7 19 -16 30 -14 18 -14 18
-3 -6z"/>
<path d="M7085 5706 c10 -14 19 -26 22 -26 7 0 -17 39 -28 46 -6 3 -3 -5 6
-20z"/>
<path d="M9434 5718 c-4 -7 -14 -24 -22 -38 -14 -24 -13 -24 3 -5 20 24 37 55
31 55 -3 0 -8 -6 -12 -12z"/>
<path d="M9375 5619 c-9 -17 -15 -33 -13 -35 3 -2 12 12 21 31 21 43 13 47 -8
4z"/>
<path d="M7160 5569 c0 -4 18 -44 40 -90 23 -46 38 -73 34 -59 -7 27 -73 159
-74 149z"/>
<path d="M9306 5469 c-15 -33 -26 -62 -24 -65 3 -2 17 24 31 58 15 34 25 63
23 65 -1 2 -15 -24 -30 -58z"/>
<path d="M7644 5458 l-19 -23 23 19 c21 18 27 26 19 26 -2 0 -12 -10 -23 -22z"/>
<path d="M8865 5460 c10 -11 20 -20 23 -20 3 0 -3 9 -13 20 -10 11 -20 20 -23
20 -3 0 3 -9 13 -20z"/>
<path d="M8930 5405 c19 -22 39 -44 44 -50 5 -5 4 -1 -2 10 -6 11 -25 33 -44
50 l-33 30 35 -40z"/>
<path d="M7579 5403 c-29 -35 -41 -53 -36 -53 2 0 17 16 31 35 28 36 31 49 5
18z"/>
<path d="M7621 5385 c0 -16 10 -70 23 -120 14 -52 20 -94 15 -99 -11 -13 -47
4 -95 45 l-39 33 34 -36 c38 -42 87 -69 109 -61 11 5 13 16 9 47 -10 66 -56
225 -56 191z"/>
<path d="M8867 5294 c-30 -111 -33 -139 -14 -147 20 -7 70 19 103 55 28 29 27
29 -19 -6 -46 -34 -67 -43 -79 -31 -3 3 6 49 19 103 31 131 25 151 -10 26z"/>
<path d="M5464 5144 c-18 -14 -18 -15 4 -4 12 6 22 13 22 15 0 8 -5 6 -26 -11z"/>
<path d="M11030 5156 c0 -3 9 -10 20 -16 11 -6 20 -8 20 -6 0 3 -9 10 -20 16
-11 6 -20 8 -20 6z"/>
<path d="M8202 5120 c0 -14 2 -19 5 -12 2 6 2 18 0 25 -3 6 -5 1 -5 -13z"/>
<path d="M8303 5010 c0 -36 2 -50 4 -32 2 17 2 47 0 65 -2 17 -4 3 -4 -33z"/>
<path d="M5245 5019 c-27 -17 -54 -36 -60 -42 -11 -11 58 28 96 55 40 28 17
20 -36 -13z"/>
<path d="M11239 5033 c13 -10 43 -28 65 -41 23 -13 30 -15 17 -5 -13 10 -43
28 -65 41 -23 13 -30 15 -17 5z"/>
<path d="M8213 4960 c0 -47 2 -66 4 -42 2 23 2 61 0 85 -2 23 -4 4 -4 -43z"/>
<path d="M11350 4967 c3 -3 52 -36 110 -74 217 -144 485 -386 643 -583 103
-128 243 -342 298 -458 68 -141 84 -185 135 -357 23 -82 43 -143 44 -133 0 25
-68 253 -105 348 -104 272 -293 549 -550 806 -154 155 -293 272 -444 373 -79
53 -143 91 -131 78z"/>
<path d="M5023 4878 c-313 -213 -612 -519 -802 -821 -97 -153 -223 -421 -221
-470 1 -7 14 24 31 68 77 208 236 479 391 664 171 204 419 429 618 561 95 62
118 80 109 80 -3 0 -60 -37 -126 -82z"/>
<path d="M7707 4825 c-9 -9 -17 -19 -17 -23 0 -3 5 -1 12 6 7 7 26 12 44 12
56 0 105 -83 92 -155 -7 -32 8 -23 16 10 9 34 -10 99 -37 130 -28 33 -87 44
-110 20z"/>
<path d="M8731 4827 c-58 -29 -92 -137 -57 -182 15 -19 15 -19 10 12 -15 79
31 163 89 163 17 0 39 -8 50 -17 19 -17 20 -17 9 3 -19 35 -58 43 -101 21z"/>
<path d="M8824 4318 l-29 -33 33 29 c17 17 32 31 32 33 0 8 -8 1 -36 -29z"/>
<path d="M7690 4315 c13 -14 26 -25 28 -25 3 0 -5 11 -18 25 -13 14 -26 25
-28 25 -3 0 5 -11 18 -25z"/>
<path d="M8754 4248 c-56 -63 -77 -88 -72 -88 3 0 28 27 57 60 55 63 66 83 15
28z"/>
<path d="M7759 4245 c6 -11 29 -40 52 -65 l41 -45 -33 44 c-19 24 -42 53 -52
65 -17 19 -17 19 -8 1z"/>
<path d="M7880 4085 c17 -25 33 -45 36 -45 3 0 -9 20 -26 45 -17 25 -33 45
-36 45 -3 0 9 -20 26 -45z"/>
<path d="M8618 4073 c-41 -58 -50 -73 -45 -73 2 0 23 27 46 60 23 33 40 60 38
60 -3 0 -20 -21 -39 -47z"/>
<path d="M8550 3970 c-6 -11 -8 -20 -6 -20 3 0 10 9 16 20 6 11 8 20 6 20 -3
0 -10 -9 -16 -20z"/>
<path d="M3961 3458 c-17 -62 -31 -120 -30 -128 0 -8 16 41 35 109 19 68 32
126 30 128 -2 2 -18 -47 -35 -109z"/>
<path d="M8258 3320 c-4 -14 -8 -230 -9 -480 -1 -250 -4 -603 -8 -785 l-6
-330 -41 -85 c-79 -164 -284 -388 -489 -535 -158 -113 -409 -243 -581 -301
-336 -113 -702 -162 -1119 -151 -246 7 -356 21 -553 72 -145 37 -189 42 -70 7
244 -72 391 -92 723 -99 434 -9 721 32 1071 153 173 59 431 198 589 317 162
122 374 349 438 470 l25 48 7 -208 c9 -229 1 -625 -15 -858 -11 -157 -44 -467
-56 -522 -9 -47 13 -42 25 5 14 53 49 302 57 405 4 48 10 87 14 87 4 0 10 -44
14 -97 9 -112 40 -333 56 -392 13 -49 36 -57 26 -8 -13 64 -46 345 -56 482
-15 199 -24 740 -15 937 l7 167 24 -46 c49 -92 173 -237 308 -361 213 -195
508 -360 819 -456 334 -104 632 -139 1040 -124 270 10 459 39 659 99 111 34
74 31 -62 -5 -184 -49 -326 -67 -575 -73 -679 -17 -1244 133 -1687 450 -232
166 -447 410 -515 583 l-27 69 -5 795 c-3 437 -9 784 -13 770z"/>
<path d="M12581 3324 c0 -11 3 -14 6 -6 3 7 2 16 -1 19 -3 4 -6 -2 -5 -13z"/>
<path d="M3921 3294 c0 -11 3 -14 6 -6 3 7 2 16 -1 19 -3 4 -6 -2 -5 -13z"/>
<path d="M3911 3244 c0 -11 3 -14 6 -6 3 7 2 16 -1 19 -3 4 -6 -2 -5 -13z"/>
</g>
</svg>
