<?xml version="1.0" standalone="no"?>
<!DOCTYPE svg PUBLIC "-//W3C//DTD SVG 20010904//EN"
 "http://www.w3.org/TR/2001/REC-SVG-20010904/DTD/svg10.dtd">
<svg version="1.0" xmlns="http://www.w3.org/2000/svg"
 width="1650.000000pt" height="2210.000000pt" viewBox="0 0 1650.000000 2210.000000"
 preserveAspectRatio="xMidYMid meet">

<g transform="translate(0.000000,2210.000000) scale(0.100000,-0.100000)"
fill="#000000" stroke="none">
<path d="M8510 21840 c6 -11 13 -20 16 -20 2 0 0 9 -6 20 -6 11 -13 20 -16 20
-2 0 0 -9 6 -20z"/>
<path d="M11005 21796 c3 -27 22 -99 42 -160 33 -98 37 -123 38 -211 0 -95 -2
-103 -34 -162 -73 -136 -207 -221 -398 -253 -60 -10 -173 -23 -253 -30 -432
-33 -579 -69 -646 -157 -50 -66 -57 -96 -65 -303 -4 -107 -13 -213 -19 -235
-6 -22 -47 -112 -91 -200 -87 -175 -100 -217 -129 -416 -32 -216 -25 -370 21
-461 11 -21 15 -38 10 -38 -5 0 -65 16 -133 36 -137 39 -400 94 -583 121 -173
25 -722 26 -915 0 -385 -51 -627 -116 -830 -224 -87 -47 -280 -170 -280 -179
0 -6 -7 -10 101 55 359 214 785 315 1381 328 492 11 918 -60 1393 -232 191
-69 283 -110 610 -270 301 -147 488 -247 697 -373 65 -38 116 -66 113 -62 -3
5 -66 50 -140 100 -74 50 -135 92 -135 93 0 1 98 3 218 3 157 1 309 10 547 32
504 47 657 55 965 48 274 -7 583 -20 735 -32 44 -4 78 -4 75 -1 -9 10 -622 59
-823 65 -283 10 -528 -1 -1052 -48 -252 -22 -493 -40 -535 -40 -119 1 -205 15
-241 40 -45 33 -601 313 -749 378 -69 30 -186 76 -260 102 l-135 48 -18 68
c-15 58 -17 97 -14 239 8 276 37 396 148 615 91 178 101 218 105 415 3 178 7
213 34 265 57 111 135 134 607 179 282 28 399 51 493 98 173 88 271 246 257
415 -4 41 -25 126 -53 211 -59 181 -66 195 -59 133z"/>
<path d="M8540 21791 c20 -38 106 -124 166 -167 86 -62 219 -121 424 -192 166
-56 647 -188 656 -179 2 2 -87 28 -199 57 -306 80 -571 171 -736 251 -134 66
-150 76 -232 159 -49 48 -84 80 -79 71z"/>
<path d="M6682 21644 c-5 -89 -92 -501 -143 -679 -48 -167 -127 -391 -186
-530 -67 -156 -225 -470 -272 -540 -43 -64 -355 -498 -445 -619 -560 -757
-744 -1203 -925 -2246 -134 -773 -151 -1440 -51 -2055 49 -303 143 -697 235
-985 53 -168 130 -436 176 -610 107 -413 203 -778 324 -1225 41 -154 111 -419
156 -590 185 -712 223 -858 270 -1025 130 -456 223 -866 253 -1110 40 -317 38
-582 -9 -1320 -34 -551 -58 -731 -130 -981 -72 -249 -110 -335 -299 -668 -467
-823 -688 -1300 -845 -1821 -197 -653 -230 -1255 -105 -1894 62 -313 134 -532
252 -759 137 -266 269 -454 509 -724 173 -195 196 -224 253 -318 58 -95 106
-209 141 -335 16 -59 26 -85 23 -60 -16 130 -87 316 -175 456 -30 47 -116 158
-193 247 -238 279 -335 411 -460 629 -252 440 -380 978 -380 1603 0 444 60
801 216 1275 161 489 354 892 860 1790 169 301 252 538 313 895 27 161 36 269
70 860 56 970 27 1222 -259 2261 -47 170 -117 433 -155 584 -77 297 -177 679
-246 935 -24 88 -76 282 -115 430 -39 149 -91 342 -115 430 -24 88 -76 284
-115 435 -39 151 -91 338 -115 415 -206 662 -288 1029 -341 1540 -21 200 -24
729 -6 920 66 682 209 1412 357 1830 118 333 316 688 605 1085 46 63 146 203
223 310 77 107 168 233 202 280 80 109 107 155 215 369 181 361 281 642 369
1041 38 170 74 416 68 466 -3 34 -4 35 -5 8z"/>
<path d="M6822 21240 c0 -14 2 -19 5 -12 2 6 2 18 0 25 -3 6 -5 1 -5 -13z"/>
<path d="M6812 21180 c0 -14 2 -19 5 -12 2 6 2 18 0 25 -3 6 -5 1 -5 -13z"/>
<path d="M6773 20987 c-42 -198 -119 -467 -183 -637 -28 -74 -97 -229 -154
-345 -102 -204 -144 -281 -333 -605 -50 -85 -103 -180 -118 -210 -32 -63 -77
-181 -72 -186 2 -2 16 27 31 65 27 69 65 138 261 471 132 224 315 585 374 735
87 223 168 504 211 733 32 168 20 154 -17 -21z"/>
<path d="M8665 20940 c10 -32 132 -308 230 -520 41 -91 105 -232 142 -313 36
-81 68 -146 70 -144 4 4 -103 247 -222 507 -37 80 -101 222 -142 315 -74 167
-93 205 -78 155z"/>
<path d="M7401 20740 c-2 -43 28 -279 55 -430 47 -269 105 -472 177 -615 32
-65 113 -177 158 -220 l43 -40 -33 40 c-197 243 -296 543 -381 1158 -10 73
-18 121 -19 107z"/>
<path d="M7013 18926 c-28 -7 -78 -29 -110 -48 -32 -20 -117 -72 -190 -116
-188 -115 -223 -132 -282 -132 -93 0 -200 31 -321 93 -128 66 -184 78 -269 57
-118 -28 -239 -192 -545 -738 -215 -383 -260 -549 -286 -1047 -6 -115 -22
-309 -35 -430 -47 -427 -57 -611 -52 -890 12 -588 110 -1044 302 -1405 78
-146 105 -184 145 -205 62 -32 117 -6 169 80 36 59 100 234 107 294 3 19 9 52
14 75 5 23 10 56 10 74 0 18 7 47 16 64 9 16 11 27 5 23 -8 -5 -10 17 -6 77
18 261 62 488 122 633 26 62 39 79 119 148 49 42 130 105 179 139 100 68 131
93 70 58 -81 -48 -152 -99 -232 -169 -46 -39 -83 -68 -83 -65 0 28 162 317
268 477 l84 129 42 -39 c116 -111 263 -215 425 -303 112 -60 181 -93 181 -85
0 2 -44 27 -97 56 -407 218 -685 497 -922 923 -94 170 -259 559 -229 540 6 -4
-4 19 -22 52 -18 32 -54 113 -81 179 -57 142 -64 139 -13 -7 217 -622 382
-939 646 -1239 l58 -67 -94 -136 c-166 -240 -311 -520 -370 -717 -40 -134 -60
-261 -76 -479 -19 -271 -58 -449 -128 -589 -58 -117 -113 -143 -177 -81 -70
68 -248 463 -293 650 -12 47 -32 150 -46 230 -91 521 -95 912 -16 1549 11 87
27 282 35 432 21 386 34 468 102 673 82 249 491 952 618 1064 88 77 186 81
313 11 86 -47 190 -85 259 -94 27 -3 63 -8 82 -11 l34 -5 -84 -51 c-46 -28
-171 -100 -278 -159 -230 -130 -289 -170 -418 -291 -173 -161 -211 -186 -241
-156 -7 7 -12 8 -12 2 0 -15 22 -34 40 -34 26 0 111 63 218 164 126 117 195
165 445 305 105 59 221 126 257 147 36 22 119 70 186 107 66 36 182 104 256
151 75 47 159 92 187 102 136 44 287 -40 267 -149 -14 -74 -150 -242 -246
-302 -75 -47 -135 -62 -295 -74 -319 -24 -406 -41 -530 -104 -116 -58 -181
-111 -345 -277 l-165 -167 -115 -55 c-182 -87 -262 -174 -326 -353 -33 -93
-69 -255 -61 -278 2 -7 7 10 11 36 11 74 74 265 109 331 50 95 129 165 259
231 146 75 189 108 299 232 111 126 215 211 330 268 136 69 214 87 459 105 74
5 160 13 190 16 l55 5 -60 -31 c-61 -32 -118 -79 -137 -115 -6 -11 11 2 38 29
82 83 218 131 449 160 184 23 186 24 90 19 -82 -4 -252 -26 -300 -39 -11 -3 5
9 35 27 51 30 234 204 236 225 0 5 10 31 22 57 32 71 29 118 -10 163 -58 66
-153 93 -245 70z"/>
<path d="M7850 18795 c-58 -7 -143 -20 -190 -30 -86 -17 -335 -93 -328 -100 2
-2 53 12 113 31 254 81 480 109 820 102 127 -2 201 -1 165 3 -109 11 -468 8
-580 -6z"/>
<path d="M8518 18783 c12 -2 32 -2 45 0 12 2 2 4 -23 4 -25 0 -35 -2 -22 -4z"/>
<path d="M8720 18756 c74 -14 166 -32 204 -40 38 -9 71 -15 73 -12 9 8 -256
62 -347 70 -38 4 -9 -4 70 -18z"/>
<path d="M9018 18693 c7 -3 16 -2 19 1 4 3 -2 6 -13 5 -11 0 -14 -3 -6 -6z"/>
<path d="M5764 18608 l-29 -33 33 29 c30 28 37 36 29 36 -2 0 -16 -15 -33 -32z"/>
<path d="M5699 18543 l-24 -28 28 24 c15 14 27 26 27 28 0 8 -8 1 -31 -24z"/>
<path d="M5659 18493 c-13 -16 -12 -17 4 -4 16 13 21 21 13 21 -2 0 -10 -8
-17 -17z"/>
<path d="M5608 18418 c-8 -13 -24 -41 -37 -63 -26 -47 3 -10 37 47 24 40 24
54 0 16z"/>
<path d="M6675 18051 c3 -25 20 -71 37 -103 107 -201 542 -447 988 -558 134
-33 315 -70 339 -69 9 0 -54 16 -139 34 -292 61 -465 118 -686 225 -303 146
-484 304 -529 460 -15 54 -15 54 -10 11z"/>
<path d="M10428 17383 c7 -3 16 -2 19 1 4 3 -2 6 -13 5 -11 0 -14 -3 -6 -6z"/>
<path d="M10790 17383 c-77 -29 -322 -144 -385 -180 -245 -142 -426 -283 -775
-603 -253 -232 -462 -410 -603 -514 -429 -315 -858 -478 -1397 -529 -19 -2 -4
-5 33 -5 187 -5 508 61 742 153 144 55 378 178 512 268 225 150 387 286 848
711 341 315 585 484 915 636 74 34 137 64 139 66 6 6 -11 4 -29 -3z"/>
<path d="M10378 17373 c6 -2 18 -2 25 0 6 3 1 5 -13 5 -14 0 -19 -2 -12 -5z"/>
<path d="M9860 17275 c-760 -152 -979 -180 -1380 -173 -168 3 -221 1 -170 -5
113 -13 595 -1 730 17 281 40 1024 180 1270 240 145 36 -28 5 -450 -79z"/>
<path d="M8073 17313 c9 -2 23 -2 30 0 6 3 -1 5 -18 5 -16 0 -22 -2 -12 -5z"/>
<path d="M8148 17303 c7 -3 16 -2 19 1 4 3 -2 6 -13 5 -11 0 -14 -3 -6 -6z"/>
<path d="M5630 17154 c0 -6 32 -66 71 -135 241 -421 568 -748 950 -948 64 -34
120 -61 125 -61 5 0 -47 31 -116 68 -391 210 -700 521 -956 960 -41 69 -74
121 -74 116z"/>
<path d="M9890 17103 c-99 -46 -384 -159 -538 -213 -67 -23 -121 -44 -119 -47
12 -11 590 211 706 272 69 36 37 28 -49 -12z"/>
<path d="M8118 17123 c7 -3 16 -2 19 1 4 3 -2 6 -13 5 -11 0 -14 -3 -6 -6z"/>
<path d="M8183 17113 c9 -2 25 -2 35 0 9 3 1 5 -18 5 -19 0 -27 -2 -17 -5z"/>
<path d="M5915 16069 c-9 -17 -15 -33 -13 -35 3 -2 12 12 21 31 21 43 13 47
-8 4z"/>
<path d="M6900 15960 c8 -5 20 -10 25 -10 6 0 3 5 -5 10 -8 5 -19 10 -25 10
-5 0 -3 -5 5 -10z"/>
<path d="M9350 15743 c-87 -9 -259 -47 -343 -74 -163 -55 -385 -176 -484 -265
-33 -30 -25 -27 55 21 197 117 403 202 591 244 l43 9 -7 -46 c-100 -713 -229
-1286 -414 -1832 -103 -306 -154 -434 -486 -1225 -154 -368 -330 -832 -388
-1025 -150 -498 -251 -983 -317 -1525 -41 -331 -120 -864 -155 -1041 -93 -476
-193 -794 -429 -1374 -111 -271 -161 -416 -185 -534 -17 -83 -17 -84 -71 -127
-76 -59 -311 -273 -391 -356 -129 -132 -226 -274 -279 -407 -76 -191 -107
-357 -90 -478 16 -109 40 -152 141 -250 103 -100 131 -150 155 -279 43 -233
71 -303 161 -400 71 -75 160 -131 256 -161 84 -25 113 -22 332 35 254 65 395
58 568 -29 68 -35 132 -97 161 -158 98 -202 68 -409 -110 -758 -77 -149 -142
-247 -225 -334 -80 -85 -108 -139 -109 -207 0 -79 45 -140 115 -153 18 -3 44
-18 58 -32 63 -69 61 -178 -7 -359 -55 -150 -70 -224 -63 -316 9 -124 64 -230
183 -356 36 -39 88 -87 115 -106 75 -56 201 -265 259 -430 25 -73 159 -595
198 -775 7 -34 10 -38 11 -17 1 33 -57 332 -105 542 -64 276 -111 394 -236
588 -155 241 -162 285 -103 652 71 446 78 473 153 556 80 89 189 122 259 79
19 -11 43 -41 58 -70 46 -91 144 -168 238 -185 48 -9 119 1 143 21 18 15 18
15 -1 9 -77 -27 -188 -5 -263 52 l-36 27 47 12 c120 30 207 161 207 309 0 47
4 56 30 78 16 14 46 31 67 38 43 14 145 17 213 7 l45 -7 -45 15 c-89 30 -260
1 -295 -49 -13 -19 -15 -19 -21 -3 -13 33 4 137 30 191 117 238 499 341 756
204 301 -160 421 -587 242 -858 -42 -63 -93 -103 -171 -131 -31 -11 -76 -28
-101 -37 -61 -22 -146 -111 -188 -196 -49 -100 -90 -274 -107 -461 -9 -89 -20
-189 -25 -222 -14 -85 21 -575 60 -845 45 -310 64 -373 35 -117 -22 197 -56
678 -50 689 4 5 13 9 21 9 9 0 86 27 172 60 86 33 216 75 289 94 211 54 277
101 456 321 159 196 265 282 499 406 147 78 179 112 216 229 36 113 47 177 37
220 -9 40 -57 96 -104 119 -45 23 -116 37 -106 22 3 -6 13 -11 21 -11 29 0
111 -49 142 -85 42 -48 42 -85 -4 -228 -44 -136 -62 -156 -219 -241 -243 -132
-373 -238 -521 -428 -151 -192 -250 -260 -432 -297 -105 -21 -122 -27 -340
-121 -67 -29 -125 -50 -130 -46 -21 22 13 572 39 616 7 13 8 13 9 -1 0 -9 15
-32 33 -53 25 -29 42 -39 74 -43 63 -8 117 9 306 101 197 95 228 121 315 269
121 205 143 275 104 341 l-21 36 53 0 c70 0 144 -23 192 -60 61 -47 127 -90
138 -90 6 0 -5 10 -24 21 -19 12 -57 41 -83 66 -88 82 -167 100 -343 79 -81
-10 -129 -3 -162 22 l-22 17 21 60 c29 83 37 254 15 355 -49 231 -237 435
-447 485 -84 19 -258 19 -334 0 -152 -40 -287 -143 -343 -262 -26 -55 -27 -64
-25 -193 3 -153 -9 -212 -56 -277 -37 -51 -106 -93 -152 -93 -32 0 -38 5 -71
64 -43 73 -79 96 -156 96 -98 0 -196 -58 -248 -146 -58 -98 -79 -198 -152
-723 -18 -132 -10 -211 33 -306 l24 -56 -27 20 c-45 32 -107 101 -166 185
-115 160 -126 302 -42 525 59 158 74 239 57 314 -16 74 -42 104 -117 137 -71
32 -94 64 -94 130 0 55 26 103 100 180 116 121 205 260 293 455 137 306 147
515 34 708 -71 121 -238 203 -432 214 -112 6 -202 -8 -364 -58 -52 -16 -118
-33 -148 -38 -122 -19 -229 25 -345 141 -117 117 -146 187 -188 444 -17 105
-49 166 -140 258 -96 99 -129 164 -137 269 -7 88 13 196 63 347 61 184 137
301 309 478 328 339 720 627 984 722 155 56 243 73 381 73 142 0 234 -17 378
-68 89 -32 149 -63 427 -220 66 -37 239 -133 385 -213 319 -174 434 -245 545
-334 128 -104 318 -281 445 -419 209 -225 285 -324 349 -460 57 -119 74 -194
69 -304 -5 -125 -35 -185 -126 -259 -116 -94 -167 -154 -192 -226 -30 -89 -36
-211 -16 -328 40 -232 4 -353 -160 -533 -39 -42 -79 -93 -88 -113 -22 -46 -31
-121 -19 -165 7 -28 9 -21 9 40 0 56 6 84 22 116 29 55 42 62 35 19 -7 -47 18
-118 78 -212 61 -97 90 -158 130 -271 17 -49 45 -115 62 -148 42 -81 177 -216
248 -250 85 -39 87 -29 5 25 -143 96 -227 212 -300 412 -40 111 -55 143 -106
218 -64 94 -90 155 -90 207 0 55 9 72 86 155 67 73 119 177 134 267 10 63 9
88 -10 208 -28 170 -24 277 14 356 31 67 51 89 162 180 102 84 139 141 150
232 8 73 13 83 25 65 9 -12 9 -11 4 5 -5 11 -14 57 -22 103 -27 163 -92 294
-233 470 -156 196 -519 552 -702 690 -76 57 -230 149 -438 262 -162 88 -431
237 -595 331 -215 123 -372 179 -559 200 -197 22 -391 -15 -601 -115 -104 -50
-305 -173 -388 -238 -21 -17 -41 -28 -44 -25 -11 12 69 254 154 461 47 116
117 288 155 381 189 467 305 914 397 1535 27 178 111 811 111 832 0 17 19 5
109 -72 214 -181 712 -488 916 -566 78 -29 193 -37 232 -16 50 28 33 105 -37
165 -21 18 -88 59 -150 91 -358 190 -612 377 -867 639 -100 102 -133 143 -133
162 0 14 3 25 6 25 3 0 33 -20 67 -43 142 -100 502 -287 767 -400 550 -233
1047 -355 1291 -318 91 14 204 51 264 85 67 40 195 148 268 226 85 92 136 164
226 319 41 71 99 153 133 190 139 150 234 303 308 491 58 149 156 378 211 494
38 78 48 94 52 75 3 -17 5 -13 6 12 0 21 19 90 40 155 43 130 68 243 103 464
19 126 22 183 23 446 l0 301 27 12 c37 16 45 52 53 230 3 80 13 181 21 225 50
283 50 271 23 451 -6 39 -26 131 -45 205 -22 89 -37 179 -44 265 -13 173 -40
272 -136 502 -25 60 -59 163 -75 230 -16 67 -41 154 -55 193 -14 40 -24 73
-22 74 2 1 68 -1 148 -4 l145 -5 67 -200 c75 -223 181 -632 224 -860 25 -130
28 -175 28 -335 1 -216 -18 -328 -84 -525 -79 -232 -86 -335 -45 -703 45 -410
55 -543 55 -727 0 -100 -5 -207 -11 -236 -15 -74 -12 -271 9 -469 12 -119 16
-258 16 -500 0 -402 -9 -502 -96 -1044 l-32 -199 12 -176 c36 -524 20 -881
-59 -1344 -26 -153 -38 -356 -29 -482 5 -55 23 -197 41 -315 32 -209 33 -223
32 -525 0 -317 -12 -507 -54 -860 -95 -792 -317 -1831 -570 -2660 -22 -72 -48
-170 -57 -218 -10 -47 -20 -89 -24 -92 -8 -8 -28 184 -28 268 0 40 9 158 20
262 21 204 22 221 16 214 -3 -3 -14 -86 -25 -184 -25 -212 -26 -383 -6 -555
38 -328 107 -1007 121 -1205 9 -124 19 -429 23 -700 l6 -480 10 210 c27 563 0
1123 -81 1740 -48 358 -45 405 41 675 165 517 285 990 415 1634 160 791 231
1396 231 1966 0 264 -4 313 -48 615 -37 252 -35 418 6 702 67 450 85 814 60
1183 -19 285 -17 371 14 528 107 529 129 998 77 1587 -21 235 -22 244 -5 420
23 238 17 433 -30 885 -48 465 -47 515 23 731 70 214 92 325 99 504 6 175 -3
269 -53 512 -58 291 -165 665 -242 854 l-39 96 446 6 c565 8 905 33 1211 87
101 18 102 19 35 15 -38 -2 -178 -13 -310 -24 -354 -30 -627 -41 -1035 -41
-605 0 -833 18 -1585 120 -159 22 -339 44 -400 50 -102 9 -495 12 -575 3z
m560 -44 c63 -5 259 -30 435 -54 176 -24 376 -51 444 -60 68 -8 126 -16 127
-18 2 -2 17 -32 34 -68 32 -67 31 -45 -1 29 l-18 43 72 -7 c40 -3 105 -9 146
-12 l74 -7 24 -70 c13 -38 39 -129 58 -202 18 -73 50 -172 70 -220 99 -235
131 -350 144 -524 6 -76 21 -170 40 -244 66 -261 75 -383 41 -557 -24 -127
-40 -268 -40 -373 0 -44 -5 -98 -10 -120 -8 -35 -31 -65 -51 -65 -4 0 -9 111
-11 248 -4 199 -8 257 -22 300 -23 70 -29 63 -9 -8 13 -42 17 -112 19 -300 1
-135 5 -333 9 -440 13 -376 -48 -809 -154 -1083 -22 -56 -80 -190 -129 -297
-48 -107 -103 -235 -122 -285 -84 -230 -187 -406 -327 -557 -51 -56 -99 -122
-140 -195 -126 -221 -255 -375 -419 -499 -133 -100 -267 -144 -436 -144 -88 0
-219 13 -257 26 -9 3 -2 17 24 45 44 49 65 96 64 141 -1 32 -2 31 -8 -7 -4
-22 -13 -51 -21 -65 -20 -37 -70 -98 -86 -104 -35 -14 -446 108 -708 210 -434
169 -1025 479 -1026 537 0 35 135 605 146 616 2 2 43 -36 92 -86 78 -80 53
-49 -52 64 l-38 41 42 144 c34 114 126 381 165 481 7 17 9 17 34 -5 l26 -23
-22 26 c-13 14 -23 30 -23 35 0 12 226 575 310 774 280 659 415 1021 525 1405
32 113 44 160 70 273 5 20 10 23 33 18 26 -5 26 -5 5 6 -27 13 -28 27 -9 94 8
27 31 130 51 229 20 99 41 181 45 183 5 2 7 9 4 16 -3 8 8 94 24 192 32 189
49 311 60 434 l7 75 85 11 c111 15 444 17 590 3z m-1761 -5508 c205 -157 393
-276 585 -373 44 -22 100 -54 124 -70 40 -28 82 -90 82 -122 0 -53 -112 -63
-238 -20 -237 79 -1032 594 -1032 668 0 20 34 241 46 299 5 26 12 21 172 -141
92 -93 209 -201 261 -241z m1518 -7383 c31 -19 53 -23 123 -23 l85 0 19 -38
c22 -47 13 -93 -41 -201 -126 -251 -146 -271 -380 -381 -248 -117 -305 -123
-364 -42 -27 37 -30 48 -26 92 9 88 55 210 108 290 57 84 99 115 203 146 82
25 151 71 196 132 19 26 36 47 37 47 1 0 19 -10 40 -22z"/>
<path d="M9250 15624 c0 -20 368 -173 595 -247 272 -89 523 -137 711 -137 160
0 311 53 380 134 49 58 42 63 -10 8 -84 -90 -185 -122 -379 -122 -213 0 -418
37 -690 126 -156 51 -384 140 -520 202 -48 23 -87 39 -87 36z"/>
<path d="M11030 15468 c19 -5 43 -17 52 -25 22 -19 47 -84 57 -148 8 -45 9
-46 10 -14 3 99 -59 200 -123 198 l-31 -1 35 -10z"/>
<path d="M9380 15250 c84 -45 391 -164 525 -205 295 -90 593 -142 760 -133
153 9 281 66 386 172 l46 47 47 -128 c65 -176 67 -195 25 -274 -43 -81 -149
-193 -211 -225 -83 -42 -162 -57 -262 -50 -268 19 -613 132 -1345 440 -74 31
-136 55 -138 53 -12 -12 704 -302 956 -387 252 -85 392 -113 561 -114 l136 -1
76 38 c102 50 184 138 241 259 38 78 45 87 70 88 56 0 95 -71 107 -195 l7 -80
2 65 c0 36 -4 81 -9 101 -22 80 -88 142 -128 120 -17 -9 -21 -3 -36 52 -15 55
-83 236 -92 246 -2 2 -25 -16 -51 -40 -105 -98 -211 -152 -334 -169 -176 -25
-525 35 -889 152 -107 34 -370 138 -442 174 -67 34 -74 29 -8 -6z"/>
<path d="M10719 15212 c6 -12 16 -24 22 -28 8 -4 8 -1 0 14 -6 12 -16 24 -22
28 -8 4 -8 1 0 -14z"/>
<path d="M10751 15170 c0 -3 6 -25 13 -50 8 -25 15 -36 15 -25 0 17 -26 88
-28 75z"/>
<path d="M9170 14960 c8 -5 20 -10 25 -10 6 0 3 5 -5 10 -8 5 -19 10 -25 10
-5 0 -3 -5 5 -10z"/>
<path d="M9090 14702 c0 -4 24 -21 53 -39 165 -99 394 -342 458 -488 22 -50
35 -140 21 -149 -6 -3 -53 23 -106 58 -160 107 -354 193 -476 210 -38 5 -31 1
45 -29 242 -95 388 -176 546 -303 207 -167 499 -535 487 -615 -4 -32 -30 -26
-183 40 -238 102 -393 147 -550 158 -210 14 -327 28 -443 51 -67 14 -128 24
-134 22 -6 -2 18 -14 53 -27 183 -65 380 -157 487 -228 159 -104 333 -279 523
-528 80 -104 148 -198 152 -208 4 -10 2 -27 -3 -38 -16 -28 -64 -24 -188 15
-124 40 -368 107 -597 164 -199 50 -359 101 -494 159 -57 24 -105 42 -107 40
-3 -2 39 -31 93 -63 282 -170 539 -425 789 -780 116 -166 146 -236 108 -251
-9 -3 -84 17 -167 45 -104 35 -188 56 -267 67 -189 26 -358 56 -433 76 -90 25
-263 97 -399 165 -60 30 -108 51 -108 47 0 -5 28 -28 62 -53 193 -140 351
-302 608 -625 57 -71 129 -162 160 -200 70 -86 120 -163 120 -186 0 -36 -23
-41 -131 -24 -153 23 -401 82 -509 122 -111 41 -243 103 -352 166 l-76 44 62
-71 c131 -151 275 -357 383 -549 76 -135 102 -202 103 -258 0 -63 -17 -77 -77
-61 -77 21 -243 105 -424 215 -224 135 -308 178 -242 124 74 -62 335 -223 468
-289 39 -20 102 -47 140 -61 39 -14 106 -42 150 -62 147 -68 420 -173 647
-250 428 -144 501 -149 703 -47 82 41 168 124 238 229 44 66 51 72 98 83 86
21 48 21 -60 0 -102 -20 -263 -26 -353 -14 l-46 6 54 81 c30 44 54 85 54 91 0
6 -25 -28 -56 -76 -65 -102 -57 -100 -207 -62 -297 75 -797 269 -1147 444
l-96 48 -68 103 c-38 57 -98 142 -134 188 -36 46 -61 82 -56 80 5 -2 52 -25
104 -50 147 -72 270 -114 450 -154 124 -28 212 -56 355 -112 341 -135 711
-256 881 -289 90 -17 252 -18 326 -3 145 30 305 158 372 298 19 39 37 90 41
112 6 35 14 45 56 71 27 16 49 31 49 33 0 2 -30 -12 -67 -31 -120 -61 -265
-77 -429 -49 -91 16 -120 29 -91 41 9 3 28 22 43 42 25 34 23 33 -22 -10 l-50
-48 -174 56 c-235 74 -689 240 -1040 379 -302 120 -282 108 -394 234 -54 61
-102 111 -105 111 -3 1 -33 26 -66 56 l-60 56 60 -27 c168 -77 347 -123 640
-165 161 -23 296 -62 635 -185 312 -113 636 -213 743 -231 127 -21 180 -12
309 53 111 56 217 154 236 219 23 80 5 186 -35 201 -7 3 -52 -5 -100 -17 -106
-27 -231 -37 -281 -22 -20 6 -66 18 -102 27 -122 32 -429 142 -924 331 -92 36
-170 63 -172 61 -3 -2 19 -13 48 -25 641 -250 915 -349 1098 -397 78 -20 244
-16 330 9 30 8 64 18 76 21 59 18 81 -132 32 -217 -69 -117 -278 -237 -414
-238 -29 0 -89 7 -135 16 -111 21 -580 175 -811 265 -23 9 -26 15 -18 29 25
47 6 99 -91 240 -157 231 -449 557 -607 677 -40 31 -71 58 -68 60 2 2 33 -7
70 -21 36 -14 216 -63 400 -110 351 -90 509 -138 926 -280 308 -105 422 -136
505 -136 166 0 346 111 411 255 54 117 51 365 -4 365 -8 0 -52 -35 -97 -79
-109 -105 -160 -125 -305 -126 -104 0 -106 1 -320 74 -118 41 -305 107 -414
147 -110 41 -201 73 -203 71 -6 -7 566 -219 737 -274 227 -72 370 -44 521 104
63 61 82 74 92 64 8 -8 12 -53 12 -144 0 -129 -1 -134 -33 -199 -60 -122 -191
-214 -340 -240 -96 -16 -156 -2 -543 126 -310 102 -311 102 -285 119 36 24 35
70 -3 128 -17 24 -82 111 -145 193 -63 83 -112 155 -109 160 4 6 3 9 0 6 -3
-3 -71 58 -149 135 -160 158 -239 215 -425 307 -120 58 -141 70 -105 62 17 -4
290 -31 392 -39 73 -5 253 -63 425 -137 77 -33 156 -62 176 -65 41 -6 69 15
69 52 0 29 -46 118 -106 203 -32 46 -40 63 -27 59 10 -3 106 -38 213 -77 544
-200 748 -192 997 43 37 36 84 87 103 113 25 36 10 23 -55 -45 -108 -113 -203
-182 -293 -213 -56 -19 -87 -23 -187 -23 -150 1 -246 24 -561 136 -122 43
-227 79 -232 79 -5 0 -42 38 -82 85 -40 47 -118 129 -174 182 -97 93 -102 100
-93 126 43 130 -184 454 -438 623 -56 37 -125 68 -125 56z m-80 -2999 c319
-128 805 -305 1063 -389 278 -89 371 -108 511 -101 66 3 129 11 155 21 24 9
46 14 49 12 2 -3 -6 -34 -18 -71 -45 -134 -154 -257 -287 -321 -95 -46 -212
-61 -348 -45 -162 19 -582 149 -935 290 l-125 50 53 1 c73 0 92 12 92 58 0 50
-12 67 -217 324 -232 291 -213 263 -166 242 21 -9 99 -41 173 -71z m-155 -836
c621 -281 1099 -414 1364 -377 45 6 85 9 87 7 8 -8 -89 -132 -149 -190 -89
-86 -247 -157 -350 -157 -63 0 -182 29 -362 87 -255 83 -647 233 -758 290
l-28 14 25 20 c53 42 23 161 -89 355 -30 52 -55 98 -55 101 0 3 28 -11 63 -29
34 -19 148 -73 252 -121z"/>
<path d="M9080 14587 c12 -12 169 -114 164 -106 -6 11 -108 80 -144 99 -14 7
-23 10 -20 7z"/>
<path d="M9390 14540 c8 -5 20 -10 25 -10 6 0 3 5 -5 10 -8 5 -19 10 -25 10
-5 0 -3 -5 5 -10z"/>
<path d="M9431 14527 c19 -22 594 -243 799 -307 391 -122 631 -138 798 -54 72
36 182 129 243 206 25 32 40 44 45 36 4 -6 9 -57 12 -112 4 -91 2 -107 -21
-164 -57 -139 -186 -288 -299 -345 -202 -101 -372 -73 -1047 175 -73 27 -135
47 -138 45 -11 -12 585 -219 751 -262 106 -27 243 -33 324 -15 72 17 169 70
234 129 67 61 165 201 187 268 8 24 22 50 32 59 17 15 20 15 44 0 61 -40 75
-101 51 -226 -19 -103 -14 -117 8 -21 29 128 17 205 -40 250 -19 15 -36 20
-52 16 -23 -6 -24 -4 -19 27 5 35 -9 165 -22 201 -7 18 -11 16 -40 -27 -46
-66 -131 -148 -204 -196 -90 -59 -171 -82 -292 -82 -241 -1 -545 86 -1185 337
-179 71 -176 70 -169 62z"/>
<path d="M9260 14467 c0 -2 15 -16 33 -33 l32 -29 -29 33 c-28 30 -36 37 -36
29z"/>
<path d="M9081 14446 c10 -9 129 -66 129 -61 0 5 -116 65 -126 65 -4 0 -5 -2
-3 -4z"/>
<path d="M10905 14395 c4 -11 11 -58 15 -105 l8 -85 -2 85 c-1 47 -8 94 -15
105 l-13 20 7 -20z"/>
<path d="M9070 13985 c41 -13 76 -22 78 -20 5 4 -126 45 -142 44 -6 0 23 -11
64 -24z"/>
<path d="M9470 13955 c52 -31 123 -77 159 -102 35 -26 61 -41 57 -34 -14 22
-279 191 -301 191 -5 0 33 -25 85 -55z"/>
<path d="M11380 13780 c-1 -3 -4 -18 -6 -33 -6 -57 -57 -234 -85 -302 -100
-234 -279 -405 -442 -422 -131 -13 -435 79 -807 245 -274 122 -517 218 -527
208 -2 -2 25 -13 59 -26 35 -12 142 -56 238 -97 96 -41 254 -108 350 -150 381
-162 634 -222 757 -180 147 51 300 216 384 415 35 84 91 299 86 327 -2 11 -5
18 -7 15z"/>
<path d="M9090 13730 c14 -4 36 -8 50 -8 22 0 22 1 -5 8 -16 4 -39 8 -50 8
-16 0 -15 -2 5 -8z"/>
<path d="M9195 13710 c17 -4 41 -8 55 -8 22 0 22 1 -5 8 -16 4 -41 8 -55 8
-22 0 -22 -1 5 -8z"/>
<path d="M9293 13693 c9 -2 23 -2 30 0 6 3 -1 5 -18 5 -16 0 -22 -2 -12 -5z"/>
<path d="M9348 13683 c6 -2 18 -2 25 0 6 3 1 5 -13 5 -14 0 -19 -2 -12 -5z"/>
<path d="M9408 13673 c7 -3 16 -2 19 1 4 3 -2 6 -13 5 -11 0 -14 -3 -6 -6z"/>
<path d="M10883 13600 c0 -41 2 -58 4 -37 2 20 2 54 0 75 -2 20 -4 3 -4 -38z"/>
<path d="M9470 13490 c8 -5 20 -10 25 -10 6 0 3 5 -5 10 -8 5 -19 10 -25 10
-5 0 -3 -5 5 -10z"/>
<path d="M9040 13380 c19 -11 40 -19 45 -19 6 0 -6 8 -25 19 -19 11 -39 19
-45 19 -5 0 6 -8 25 -19z"/>
<path d="M9245 13275 c128 -78 139 -84 105 -56 -32 26 -169 108 -195 117 -11
4 30 -23 90 -61z"/>
<path d="M8688 13263 c7 -3 16 -2 19 1 4 3 -2 6 -13 5 -11 0 -14 -3 -6 -6z"/>
<path d="M9380 13196 c0 -3 21 -20 48 -37 26 -18 39 -24 30 -13 -17 20 -78 59
-78 50z"/>
<path d="M8960 13187 c8 -8 212 -88 216 -84 2 2 -38 20 -89 40 -114 45 -133
52 -127 44z"/>
<path d="M9320 13035 c36 -19 70 -34 75 -34 6 0 -19 15 -55 34 -36 19 -69 34
-75 34 -5 0 19 -15 55 -34z"/>
<path d="M9820 13010 c8 -5 20 -10 25 -10 6 0 3 5 -5 10 -8 5 -19 10 -25 10
-5 0 -3 -5 5 -10z"/>
<path d="M9150 12936 c0 -2 71 -28 157 -57 87 -29 200 -69 252 -91 52 -21 96
-36 98 -34 7 6 -155 70 -327 127 -186 63 -180 61 -180 55z"/>
<path d="M10842 12890 c0 -19 2 -27 5 -17 2 9 2 25 0 35 -3 9 -5 1 -5 -18z"/>
<path d="M10831 12825 c-1 -11 -4 -31 -6 -45 l-6 -25 11 25 c6 13 9 33 7 45
-4 19 -4 19 -6 0z"/>
<path d="M8820 12727 c0 -2 35 -31 78 -63 70 -52 143 -113 273 -228 25 -23 9
-6 -35 37 -94 90 -316 269 -316 254z"/>
<path d="M8345 12460 c10 -11 20 -20 23 -20 3 0 -3 9 -13 20 -10 11 -20 20
-23 20 -3 0 3 -9 13 -20z"/>
<path d="M8885 12402 c83 -43 164 -86 180 -96 l30 -18 -25 21 c-26 21 -312
171 -326 171 -5 0 59 -35 141 -78z"/>
<path d="M8380 12436 c0 -2 8 -10 18 -17 15 -13 16 -12 3 4 -13 16 -21 21 -21
13z"/>
<path d="M8465 12374 c44 -35 328 -165 467 -213 81 -28 171 -60 199 -71 28
-12 54 -19 56 -16 5 5 -62 31 -227 88 -147 51 -300 116 -420 179 -52 27 -86
42 -75 33z"/>
<path d="M9240 12367 c0 -2 15 -16 33 -33 l32 -29 -29 33 c-28 30 -36 37 -36
29z"/>
<path d="M10701 12254 c0 -11 3 -14 6 -6 3 7 2 16 -1 19 -3 4 -6 -2 -5 -13z"/>
<path d="M10697 12159 c-4 -28 -17 -75 -31 -105 -32 -69 -25 -71 10 -3 23 45
45 159 32 159 -3 0 -8 -23 -11 -51z"/>
<path d="M8340 12017 c0 -3 17 -17 37 -33 20 -15 33 -23 29 -16 -8 13 -66 56
-66 49z"/>
<path d="M8430 11949 c8 -8 62 -60 120 -114 102 -97 103 -97 25 -17 -44 46
-98 97 -120 114 -22 17 -33 25 -25 17z"/>
<path d="M8185 11900 c10 -11 20 -20 23 -20 3 0 -3 9 -13 20 -10 11 -20 20
-23 20 -3 0 3 -9 13 -20z"/>
<path d="M8235 11860 c10 -11 20 -20 23 -20 3 0 -3 9 -13 20 -10 11 -20 20
-23 20 -3 0 3 -9 13 -20z"/>
<path d="M8124 11782 c50 -54 238 -179 362 -242 65 -33 123 -60 129 -60 5 0
-48 31 -120 68 -140 73 -220 124 -330 210 -43 34 -59 43 -41 24z"/>
<path d="M10421 11480 c-1 -19 -10 -54 -21 -78 -11 -23 -15 -40 -10 -37 16 10
42 92 37 121 -4 27 -4 27 -6 -6z"/>
<path d="M8240 11180 c12 -16 24 -30 26 -30 3 0 -4 14 -16 30 -12 17 -24 30
-26 30 -3 0 4 -13 16 -30z"/>
<path d="M8120 11086 c0 -2 8 -10 18 -17 15 -13 16 -12 3 4 -13 16 -21 21 -21
13z"/>
<path d="M8115 10966 c44 -39 225 -162 225 -153 0 2 -33 26 -72 52 -40 26 -91
62 -113 80 -51 40 -79 55 -40 21z"/>
<path d="M13338 15643 c7 -3 16 -2 19 1 4 3 -2 6 -13 5 -11 0 -14 -3 -6 -6z"/>
<path d="M7165 15493 c-49 -20 -171 -78 -270 -128 -445 -226 -758 -435 -1009
-676 -85 -81 -226 -239 -213 -239 2 0 31 30 63 68 152 174 360 350 599 507
240 158 424 258 900 485 66 31 26 22 -70 -17z"/>
<path d="M6019 15459 c-78 -63 -213 -193 -241 -234 -11 -16 9 2 45 41 36 39
105 104 154 144 107 90 119 100 112 100 -3 0 -34 -23 -70 -51z"/>
<path d="M5572 15350 c0 -14 2 -19 5 -12 2 6 2 18 0 25 -3 6 -5 1 -5 -13z"/>
<path d="M5543 15239 c-13 -44 -52 -143 -88 -220 -73 -155 -111 -262 -119
-329 l-6 -45 11 40 c27 103 56 180 114 305 61 132 121 299 114 319 -2 6 -14
-26 -26 -70z"/>
<path d="M6160 15223 c-130 -106 -295 -280 -369 -388 -59 -87 -94 -145 -88
-145 3 0 20 24 37 53 78 127 278 350 420 470 30 25 53 46 50 46 -3 0 -25 -16
-50 -36z"/>
<path d="M8413 15043 c-236 -361 -530 -692 -803 -908 -183 -144 -205 -168 -40
-44 220 165 395 339 606 603 117 145 349 486 331 486 -2 0 -44 -62 -94 -137z"/>
<path d="M8040 14867 c-155 -151 -257 -233 -430 -346 -480 -315 -1095 -501
-1584 -478 -71 4 -127 5 -125 3 2 -3 58 -10 124 -16 138 -13 334 -2 511 29
537 94 1056 353 1432 715 89 86 191 197 180 196 -1 -1 -50 -47 -108 -103z"/>
<path d="M5321 14624 c0 -11 3 -14 6 -6 3 7 2 16 -1 19 -3 4 -6 -2 -5 -13z"/>
<path d="M5171 14294 c0 -11 3 -14 6 -6 3 7 2 16 -1 19 -3 4 -6 -2 -5 -13z"/>
<path d="M5186 14225 c17 -128 108 -521 199 -860 84 -313 264 -910 504 -1670
187 -593 397 -1196 497 -1430 82 -193 251 -662 330 -919 138 -447 207 -792
259 -1296 l14 -135 -5 110 c-14 282 -100 807 -179 1090 -97 348 -227 726 -398
1160 -52 132 -112 287 -132 345 -21 58 -41 114 -46 125 -14 30 -163 476 -225
675 -31 96 -91 285 -134 420 -74 233 -133 420 -275 880 -143 460 -221 752
-384 1420 -17 69 -28 107 -25 85z"/>
<path d="M5728 14083 c7 -3 16 -2 19 1 4 3 -2 6 -13 5 -11 0 -14 -3 -6 -6z"/>
<path d="M5775 14070 c11 -5 29 -8 40 -8 16 0 15 2 -5 8 -34 11 -60 11 -35 0z"/>
<path d="M5853 14053 c9 -2 23 -2 30 0 6 3 -1 5 -18 5 -16 0 -22 -2 -12 -5z"/>
<path d="M7393 13971 c-54 -38 -80 -61 -53 -46 26 15 110 77 110 81 0 7 -3 5
-57 -35z"/>
<path d="M5828 13563 c7 -3 16 -2 19 1 4 3 -2 6 -13 5 -11 0 -14 -3 -6 -6z"/>
<path d="M5743 13553 c9 -2 25 -2 35 0 9 3 1 5 -18 5 -19 0 -27 -2 -17 -5z"/>
<path d="M5538 13543 c34 -2 88 -2 120 0 31 2 3 3 -63 3 -66 0 -92 -1 -57 -3z"/>
<path d="M6130 13379 c-47 -17 -173 -55 -280 -85 -107 -30 -178 -52 -158 -49
85 13 485 131 528 156 27 16 -4 8 -90 -22z"/>
<path d="M5618 13233 c6 -2 18 -2 25 0 6 3 1 5 -13 5 -14 0 -19 -2 -12 -5z"/>
<path d="M5568 13223 c7 -3 16 -2 19 1 4 3 -2 6 -13 5 -11 0 -14 -3 -6 -6z"/>
<path d="M5935 12440 c-129 -70 -133 -81 -6 -15 79 41 134 75 121 74 -3 0 -54
-27 -115 -59z"/>
<path d="M6615 12438 l-40 -43 43 40 c39 36 47 45 39 45 -2 0 -21 -19 -42 -42z"/>
<path d="M6556 12391 c-12 -18 -246 -211 -368 -302 -69 -52 -138 -104 -154
-117 l-29 -23 30 18 c128 76 568 433 533 433 -4 0 -9 -4 -12 -9z"/>
<path d="M6369 11904 c-13 -15 -69 -63 -124 -107 -110 -88 -153 -127 -90 -82
100 72 262 215 244 215 -3 0 -16 -12 -30 -26z"/>
<path d="M11717 11728 c-49 -195 -171 -471 -351 -792 -37 -65 -65 -120 -63
-123 15 -15 317 578 366 721 35 98 84 283 79 297 -2 5 -16 -41 -31 -103z"/>
<path d="M11327 11495 c-7 -283 -25 -464 -72 -750 -64 -387 -104 -657 -150
-1010 -25 -192 -61 -460 -80 -595 -66 -469 -66 -469 -61 -1660 2 -624 8 -1144
14 -1240 36 -542 44 -836 38 -1405 -3 -313 -8 -606 -10 -650 l-5 -80 9 70 c28
224 40 1190 20 1580 -5 105 -17 325 -26 490 -13 238 -17 514 -17 1340 0 1111
-1 1085 53 1475 16 113 41 297 55 410 70 554 167 1229 187 1290 6 19 13 58 14
85 2 28 10 113 19 190 16 132 33 636 23 680 -2 11 -7 -88 -11 -220z"/>
<path d="M6063 11659 c-24 -17 -43 -32 -43 -35 0 -3 20 9 45 26 25 17 45 33
45 35 0 7 -2 6 -47 -26z"/>
<path d="M6714 11568 c-88 -116 -147 -182 -308 -348 -153 -156 -154 -164 -3
-20 82 78 234 249 301 340 27 36 53 71 59 78 5 6 7 12 4 12 -3 0 -27 -28 -53
-62z"/>
<path d="M6558 11088 c-47 -57 -125 -146 -173 -198 -70 -77 -65 -72 27 22 95
98 248 278 235 278 -2 0 -42 -46 -89 -102z"/>
<path d="M11128 11073 c7 -3 16 -2 19 1 4 3 -2 6 -13 5 -11 0 -14 -3 -6 -6z"/>
<path d="M6950 10738 c-65 -139 -155 -298 -227 -400 -29 -43 -52 -78 -49 -78
8 0 85 110 144 206 62 100 197 372 189 380 -2 2 -28 -47 -57 -108z"/>
<path d="M10920 10366 c0 -3 9 -10 20 -16 11 -6 20 -8 20 -6 0 3 -9 10 -20 16
-11 6 -20 8 -20 6z"/>
<path d="M10930 10270 c14 -11 34 -25 45 -31 14 -7 12 -4 -5 11 -14 11 -34 25
-45 31 -14 7 -12 4 5 -11z"/>
<path d="M6629 10213 l-34 -38 38 34 c34 33 42 41 34 41 -2 0 -19 -17 -38 -37z"/>
<path d="M10940 10156 c0 -2 8 -10 18 -17 15 -13 16 -12 3 4 -13 16 -21 21
-21 13z"/>
<path d="M7077 10063 c-15 -37 -25 -68 -23 -70 2 -2 16 26 30 63 15 36 25 68
23 70 -2 2 -16 -26 -30 -63z"/>
<path d="M10820 10006 c0 -2 8 -10 18 -17 15 -13 16 -12 3 4 -13 16 -21 21
-21 13z"/>
<path d="M7036 9965 c-9 -26 -7 -32 5 -12 6 10 9 21 6 23 -2 3 -7 -2 -11 -11z"/>
<path d="M7016 9915 c-9 -26 -7 -32 5 -12 6 10 9 21 6 23 -2 3 -7 -2 -11 -11z"/>
<path d="M10790 9916 c0 -2 8 -10 18 -17 15 -13 16 -12 3 4 -13 16 -21 21 -21
13z"/>
<path d="M6933 9737 c-40 -78 -86 -166 -103 -194 -17 -29 -28 -53 -26 -53 16
0 214 376 204 386 -2 2 -36 -61 -75 -139z"/>
<path d="M10780 9806 c0 -2 14 -14 30 -26 17 -12 30 -19 30 -16 0 2 -13 14
-30 26 -16 12 -30 19 -30 16z"/>
<path d="M7070 9658 c-51 -147 -134 -337 -202 -468 -27 -52 -42 -86 -33 -75
36 44 176 349 230 499 31 87 54 160 52 163 -2 2 -24 -52 -47 -119z"/>
<path d="M10775 9685 c11 -9 29 -21 40 -26 l20 -10 -20 16 c-11 9 -29 21 -40
26 l-20 10 20 -16z"/>
<path d="M10685 9575 c11 -9 29 -21 40 -26 l20 -10 -20 16 c-11 9 -29 21 -40
26 l-20 10 20 -16z"/>
<path d="M10750 9536 c0 -3 9 -10 20 -16 11 -6 20 -8 20 -6 0 3 -9 10 -20 16
-11 6 -20 8 -20 6z"/>
<path d="M6770 9440 c-6 -11 -8 -20 -6 -20 3 0 10 9 16 20 6 11 8 20 6 20 -3
0 -10 -9 -16 -20z"/>
<path d="M10517 9449 c12 -15 73 -53 73 -46 0 2 -19 17 -42 32 -24 16 -38 22
-31 14z"/>
<path d="M10730 9447 c0 -3 12 -12 26 -22 15 -9 23 -12 20 -6 -7 11 -46 35
-46 28z"/>
<path d="M7076 9285 c-9 -26 -7 -32 5 -12 6 10 9 21 6 23 -2 3 -7 -2 -11 -11z"/>
<path d="M7056 9235 c-9 -26 -7 -32 5 -12 6 10 9 21 6 23 -2 3 -7 -2 -11 -11z"/>
<path d="M10635 9205 c30 -26 65 -49 65 -42 0 2 -21 18 -47 36 -36 25 -41 26
-18 6z"/>
<path d="M7222 9160 c0 -14 2 -19 5 -12 2 6 2 18 0 25 -3 6 -5 1 -5 -13z"/>
<path d="M7019 9133 c-7 -21 -34 -87 -61 -147 -26 -60 -47 -111 -45 -113 5 -4
90 183 112 247 8 24 13 45 11 47 -2 2 -10 -13 -17 -34z"/>
<path d="M7212 9110 c0 -14 2 -19 5 -12 2 6 2 18 0 25 -3 6 -5 1 -5 -13z"/>
<path d="M10664 9081 c7 -11 46 -35 46 -28 0 3 -12 12 -26 22 -15 9 -23 12
-20 6z"/>
<path d="M7191 9024 c-7 -30 -11 -57 -8 -60 2 -2 9 21 16 52 7 30 11 57 8 60
-2 2 -9 -21 -16 -52z"/>
<path d="M7171 8934 c0 -11 3 -14 6 -6 3 7 2 16 -1 19 -3 4 -6 -2 -5 -13z"/>
<path d="M10660 8886 c0 -2 14 -14 30 -26 17 -12 30 -19 30 -16 0 2 -13 14
-30 26 -16 12 -30 19 -30 16z"/>
<path d="M10694 8761 c7 -11 46 -35 46 -28 0 3 -12 12 -26 22 -15 9 -23 12
-20 6z"/>
<path d="M7076 8614 c-26 -80 -46 -147 -44 -149 2 -2 25 61 52 141 26 80 46
147 44 149 -2 2 -25 -61 -52 -141z"/>
<path d="M10400 8628 c0 -5 134 -118 193 -162 61 -47 42 -24 -30 35 -139 112
-163 131 -163 127z"/>
<path d="M10660 8626 c0 -2 8 -10 18 -17 15 -13 16 -12 3 4 -13 16 -21 21 -21
13z"/>
<path d="M10540 8407 c0 -2 15 -14 33 -27 20 -15 27 -17 18 -6 -13 16 -51 41
-51 33z"/>
<path d="M10690 8296 c0 -2 8 -10 18 -17 15 -13 16 -12 3 4 -13 16 -21 21 -21
13z"/>
<path d="M10570 8200 c43 -38 90 -73 90 -66 0 3 -28 26 -62 51 -35 26 -47 32
-28 15z"/>
<path d="M10670 8025 c13 -14 26 -25 28 -25 3 0 -5 11 -18 25 -13 14 -26 25
-28 25 -3 0 5 -11 18 -25z"/>
<path d="M10660 7915 c13 -14 26 -25 28 -25 3 0 -5 11 -18 25 -13 14 -26 25
-28 25 -3 0 5 -11 18 -25z"/>
<path d="M6993 7860 c0 -30 2 -43 4 -27 2 15 2 39 0 55 -2 15 -4 2 -4 -28z"/>
<path d="M10685 7810 c10 -11 20 -20 23 -20 3 0 -3 9 -13 20 -10 11 -20 20
-23 20 -3 0 3 -9 13 -20z"/>
<path d="M10690 7726 c0 -2 8 -10 18 -17 15 -13 16 -12 3 4 -13 16 -21 21 -21
13z"/>
<path d="M10660 7555 c13 -14 26 -25 28 -25 3 0 -5 11 -18 25 -13 14 -26 25
-28 25 -3 0 5 -11 18 -25z"/>
<path d="M10635 7420 c38 -38 72 -70 74 -70 3 0 -26 32 -64 70 -38 39 -72 70
-74 70 -3 0 26 -31 64 -70z"/>
<path d="M10560 7346 c0 -2 8 -10 18 -17 15 -13 16 -12 3 4 -13 16 -21 21 -21
13z"/>
<path d="M10670 7245 c13 -14 26 -25 28 -25 3 0 -5 11 -18 25 -13 14 -26 25
-28 25 -3 0 5 -11 18 -25z"/>
<path d="M10580 7236 c0 -2 8 -10 18 -17 15 -13 16 -12 3 4 -13 16 -21 21 -21
13z"/>
<path d="M10630 7176 c0 -2 8 -10 18 -17 15 -13 16 -12 3 4 -13 16 -21 21 -21
13z"/>
<path d="M10675 7120 c10 -11 20 -20 23 -20 3 0 -3 9 -13 20 -10 11 -20 20
-23 20 -3 0 3 -9 13 -20z"/>
<path d="M10590 7096 c0 -2 8 -10 18 -17 15 -13 16 -12 3 4 -13 16 -21 21 -21
13z"/>
<path d="M7615 7064 c-83 -14 -280 -72 -273 -80 3 -2 38 7 79 21 167 57 402
74 589 41 194 -34 405 -123 544 -228 39 -29 130 -118 204 -198 235 -254 275
-294 348 -343 96 -63 208 -119 326 -161 246 -89 380 -194 551 -433 51 -70 116
-211 132 -286 7 -34 14 -51 14 -37 2 44 -27 138 -69 224 -86 182 -283 391
-445 474 -23 11 -88 37 -145 56 -240 84 -404 192 -567 377 -142 161 -315 326
-401 383 -249 164 -603 240 -887 190z"/>
<path d="M10645 7030 c10 -11 20 -20 23 -20 3 0 -3 9 -13 20 -10 11 -20 20
-23 20 -3 0 3 -9 13 -20z"/>
<path d="M10415 6950 c123 -131 135 -142 88 -85 -23 28 -72 79 -110 115 -55
53 -51 48 22 -30z"/>
<path d="M10590 6985 c13 -14 26 -25 28 -25 3 0 -5 11 -18 25 -13 14 -26 25
-28 25 -3 0 5 -11 18 -25z"/>
<path d="M10670 6996 c0 -2 8 -10 18 -17 15 -13 16 -12 3 4 -13 16 -21 21 -21
13z"/>
<path d="M10620 6946 c0 -2 8 -10 18 -17 15 -13 16 -12 3 4 -13 16 -21 21 -21
13z"/>
<path d="M10670 6880 c12 -16 24 -30 26 -30 3 0 -4 14 -16 30 -12 17 -24 30
-26 30 -3 0 4 -13 16 -30z"/>
<path d="M10579 6758 c24 -32 45 -58 48 -58 7 0 -55 86 -73 101 -10 8 2 -12
25 -43z"/>
<path d="M10465 6760 c10 -11 20 -20 23 -20 3 0 -3 9 -13 20 -10 11 -20 20
-23 20 -3 0 3 -9 13 -20z"/>
<path d="M6835 6714 c-131 -103 -238 -223 -315 -352 -38 -66 -90 -199 -90
-231 1 -9 11 16 24 56 29 90 82 188 151 278 53 69 193 210 270 272 22 18 38
32 35 32 -3 0 -36 -25 -75 -55z"/>
<path d="M10547 6655 c12 -16 34 -43 48 -60 20 -22 18 -18 -6 18 -18 26 -40
53 -48 60 -8 7 -5 -1 6 -18z"/>
<path d="M10630 6540 c6 -11 13 -20 16 -20 2 0 0 9 -6 20 -6 11 -13 20 -16 20
-2 0 0 -9 6 -20z"/>
<path d="M10007 6430 c44 -58 111 -150 148 -205 65 -95 99 -140 80 -105 -40
72 -260 375 -291 401 -10 7 18 -33 63 -91z"/>
<path d="M10569 6438 c24 -32 45 -58 48 -58 7 0 -59 89 -76 103 -8 7 5 -14 28
-45z"/>
<path d="M10666 6477 c3 -10 9 -15 12 -12 3 3 0 11 -7 18 -10 9 -11 8 -5 -6z"/>
<path d="M5753 6349 c7 -4 73 -9 147 -11 77 -3 118 -2 95 2 -49 10 -258 17
-242 9z"/>
<path d="M10328 6312 c13 -17 28 -35 34 -39 7 -3 2 8 -10 25 -13 17 -28 35
-34 39 -7 3 -2 -8 10 -25z"/>
<path d="M10555 6283 c15 -24 30 -43 32 -43 7 0 -31 61 -46 73 -8 7 -2 -7 14
-30z"/>
<path d="M10325 6163 c15 -24 30 -43 32 -43 7 0 -31 61 -46 73 -8 7 -2 -7 14
-30z"/>
<path d="M10540 6180 c6 -11 13 -20 16 -20 2 0 0 9 -6 20 -6 11 -13 20 -16 20
-2 0 0 -9 6 -20z"/>
<path d="M10569 6135 c5 -11 17 -29 26 -40 l16 -20 -10 20 c-5 11 -17 29 -26
40 l-16 20 10 -20z"/>
<path d="M10460 6120 c6 -11 13 -20 16 -20 2 0 0 9 -6 20 -6 11 -13 20 -16 20
-2 0 0 -9 6 -20z"/>
<path d="M6421 6094 c0 -11 3 -14 6 -6 3 7 2 16 -1 19 -3 4 -6 -2 -5 -13z"/>
<path d="M6412 6050 c0 -14 2 -19 5 -12 2 6 2 18 0 25 -3 6 -5 1 -5 -13z"/>
<path d="M6402 6000 c0 -14 2 -19 5 -12 2 6 2 18 0 25 -3 6 -5 1 -5 -13z"/>
<path d="M10430 5990 c6 -11 13 -20 16 -20 2 0 0 9 -6 20 -6 11 -13 20 -16 20
-2 0 0 -9 6 -20z"/>
<path d="M6393 5925 c0 -22 2 -30 4 -17 2 12 2 30 0 40 -3 9 -5 -1 -4 -23z"/>
<path d="M10460 5940 c6 -11 13 -20 16 -20 2 0 0 9 -6 20 -6 11 -13 20 -16 20
-2 0 0 -9 6 -20z"/>
<path d="M6392 5770 c0 -14 2 -19 5 -12 2 6 2 18 0 25 -3 6 -5 1 -5 -13z"/>
<path d="M10133 5295 c0 -22 2 -30 4 -17 2 12 2 30 0 40 -3 9 -5 -1 -4 -23z"/>
<path d="M10431 5319 c-1 -4 40 -120 89 -259 122 -340 186 -569 256 -918 32
-161 60 -288 62 -283 8 24 -125 642 -174 807 -67 228 -230 683 -233 653z"/>
<path d="M7951 4475 c1 -19 18 -51 18 -35 0 8 -4 22 -9 30 -5 8 -9 11 -9 5z"/>
<path d="M7972 4395 c0 -16 2 -22 5 -12 2 9 2 23 0 30 -3 6 -5 -1 -5 -18z"/>
<path d="M7983 4305 c0 -33 2 -45 4 -27 2 18 2 45 0 60 -2 15 -4 0 -4 -33z"/>
<path d="M7972 4220 c0 -14 2 -19 5 -12 2 6 2 18 0 25 -3 6 -5 1 -5 -13z"/>
<path d="M8890 3839 c-127 -32 -214 -82 -305 -173 -73 -72 -85 -89 -110 -159
-15 -42 -25 -80 -21 -84 3 -3 6 0 6 8 1 24 47 129 76 171 31 44 146 138 208
170 74 38 220 68 330 68 122 0 193 -16 301 -69 150 -74 270 -212 327 -378 44
-127 49 -308 13 -440 -3 -10 1 -4 9 13 25 52 38 192 27 287 -20 172 -74 282
-201 408 -70 70 -103 95 -171 127 -46 23 -112 48 -145 56 -87 22 -249 20 -344
-5z"/>
<path d="M10841 3824 c0 -11 3 -14 6 -6 3 7 2 16 -1 19 -3 4 -6 -2 -5 -13z"/>
<path d="M9274 3042 c50 -70 77 -141 86 -232 l7 -75 2 62 c2 100 -51 231 -115
284 -9 8 0 -10 20 -39z"/>
<path d="M8491 2432 c-1 -36 21 -97 46 -124 27 -30 65 -22 106 20 20 21 37 42
37 47 0 4 -17 -10 -38 -33 -22 -23 -48 -42 -59 -42 -34 0 -68 51 -83 123 -7
40 -8 40 -9 9z"/>
<path d="M8685 2325 c8 -44 66 -228 70 -223 4 3 -55 209 -68 238 -4 8 -5 2 -2
-15z"/>
<path d="M8302 1955 c-34 -36 -58 -49 -114 -66 -62 -19 -77 -20 -122 -10 -28
6 -78 25 -111 41 -83 40 -80 30 5 -14 39 -21 91 -39 119 -43 95 -11 198 32
250 106 30 41 24 38 -27 -14z"/>
<path d="M8952 1925 c0 -16 2 -22 5 -12 2 9 2 23 0 30 -3 6 -5 -1 -5 -18z"/>
<path d="M8971 1774 c0 -11 3 -14 6 -6 3 7 2 16 -1 19 -3 4 -6 -2 -5 -13z"/>
</g>
</svg>
