<?xml version="1.0" standalone="no"?>
<!DOCTYPE svg PUBLIC "-//W3C//DTD SVG 20010904//EN"
 "http://www.w3.org/TR/2001/REC-SVG-20010904/DTD/svg10.dtd">
<svg version="1.0" xmlns="http://www.w3.org/2000/svg"
 width="1650.000000pt" height="2210.000000pt" viewBox="0 0 1650.000000 2210.000000"
 preserveAspectRatio="xMidYMid meet">

<g transform="translate(0.000000,2210.000000) scale(0.100000,-0.100000)"
fill="#000000" stroke="none">
<path d="M6258 21863 c-8 -10 -35 -47 -60 -83 -165 -236 -498 -441 -1233 -758
-721 -312 -872 -363 -1626 -551 -452 -113 -566 -150 -812 -262 -295 -134 -476
-257 -677 -458 -153 -154 -231 -253 -324 -414 -107 -187 -130 -250 -366 -1027
-48 -158 -140 -546 -165 -700 -35 -210 -53 -384 -67 -642 -13 -252 -4 -543 32
-1058 22 -308 25 -566 9 -721 -13 -130 -74 -569 -134 -969 -90 -600 -124 -911
-170 -1600 -23 -343 -45 -609 -61 -750 -12 -100 5 -46 25 81 24 146 49 373 91
819 70 737 104 1026 155 1330 29 169 104 710 131 947 15 133 29 241 31 239 2
-1 10 -65 18 -142 19 -181 26 -227 31 -221 2 2 -5 91 -15 198 -11 107 -25 277
-31 379 -6 102 -15 237 -20 300 -66 777 -57 1336 26 1790 68 370 214 902 376
1375 168 490 494 863 978 1118 122 65 378 173 500 211 46 15 183 52 305 82
789 195 1067 282 1485 464 515 224 671 295 850 386 306 156 442 247 583 393
84 88 141 172 162 239 8 26 -6 29 -27 5z"/>
<path d="M10271 21864 c-2 -52 63 -149 168 -254 214 -212 479 -360 1256 -697
568 -247 825 -332 1533 -508 450 -112 552 -145 807 -264 126 -60 131 -63 343
-202 130 -86 178 -112 181 -101 3 16 -35 51 -56 52 -7 0 -13 6 -13 13 0 6 -17
26 -38 43 -40 33 -188 134 -196 134 -3 0 -22 12 -43 26 -79 54 -288 151 -488
226 -44 16 -260 75 -479 129 -499 124 -899 244 -1156 347 -102 41 -552 234
-735 317 -504 226 -815 423 -967 614 -125 157 -117 148 -117 125z"/>
<path d="M8665 20443 c-90 -217 -210 -409 -282 -454 -36 -23 -98 -29 -145 -16
-17 4 -28 3 -28 -2 0 -6 19 -15 42 -21 48 -14 115 0 159 31 69 49 174 226 253
428 42 107 43 135 1 34z"/>
<path d="M12820 20429 c0 -5 9 -9 20 -9 46 0 129 -42 169 -85 23 -25 42 -51
42 -60 3 -40 3 -52 -4 -82 -8 -41 -59 -98 -111 -126 -51 -27 -138 -28 -309 -4
-330 47 -688 1 -1092 -141 -93 -33 -249 -88 -345 -122 -168 -59 -280 -90 -476
-130 -151 -31 -246 -40 -519 -50 -284 -9 -400 -24 -537 -70 -113 -38 -170 -67
-255 -131 -124 -95 -156 -98 -268 -32 -108 64 -197 153 -218 218 -24 74 -31
148 -18 188 23 70 231 165 441 203 79 15 171 18 552 20 546 2 624 8 983 75
246 46 696 170 868 238 55 21 223 60 312 70 50 7 173 14 275 18 102 3 187 7
189 9 2 2 -77 4 -176 4 -289 0 -453 -22 -638 -86 -339 -117 -767 -218 -1127
-265 -144 -19 -219 -21 -658 -23 -551 -3 -580 -5 -782 -73 -129 -42 -233 -104
-260 -153 -16 -29 -19 -49 -15 -123 8 -155 72 -247 242 -352 44 -27 82 -50 84
-52 3 -2 -21 -56 -52 -121 -31 -64 -63 -146 -72 -181 -21 -83 -34 -102 -114
-160 -37 -27 -81 -66 -98 -87 -37 -47 -67 -104 -59 -112 3 -3 6 -1 6 5 0 31
84 133 142 173 101 70 117 88 140 165 11 38 45 118 74 177 30 59 54 114 54
123 0 10 10 15 34 15 50 0 76 12 176 84 207 149 362 187 840 206 287 11 387
24 635 85 144 35 230 64 618 204 336 121 589 171 867 171 85 -1 187 -5 225
-10 250 -34 246 -34 309 -10 191 72 220 283 51 365 -54 27 -145 48 -145 34z"/>
<path d="M3627 20414 c-63 -19 -133 -88 -143 -139 -10 -55 1 -112 31 -155 27
-39 114 -92 171 -104 18 -4 103 3 190 14 133 18 189 21 344 17 317 -9 495 -48
924 -204 345 -125 393 -140 602 -187 197 -44 359 -63 624 -71 236 -7 319 -17
448 -50 121 -32 230 -83 317 -149 90 -69 125 -86 175 -86 34 0 40 -3 40 -22 0
-12 20 -58 44 -103 25 -45 56 -120 70 -167 29 -95 45 -116 131 -175 67 -46
103 -81 134 -133 11 -19 21 -31 21 -25 0 26 -76 116 -134 158 -91 67 -111 94
-131 179 -10 40 -40 116 -66 168 -27 52 -49 102 -49 111 0 11 24 32 63 55 112
67 155 104 196 166 50 76 76 178 66 258 -6 47 -13 61 -46 92 -46 44 -174 108
-274 137 -176 51 -218 54 -745 56 -486 2 -531 4 -770 40 -110 16 -408 77 -525
106 -100 25 -415 120 -515 154 -142 49 -280 67 -550 70 -135 1 -211 1 -170 -1
245 -12 422 -26 507 -43 54 -10 213 -56 353 -100 420 -135 771 -212 1164 -257
33 -4 269 -8 525 -9 484 -2 526 -5 701 -50 82 -21 216 -86 266 -129 l39 -34
-1 -81 c-1 -70 -6 -90 -34 -147 -28 -57 -43 -74 -113 -126 -97 -71 -166 -108
-205 -108 -37 0 -88 27 -148 78 -62 52 -215 125 -319 151 -124 32 -211 41
-475 51 -267 10 -368 20 -511 49 -201 42 -311 72 -494 136 -579 203 -675 230
-925 261 -165 20 -408 15 -588 -11 -103 -16 -131 -17 -170 -7 -104 28 -178
115 -169 200 8 77 74 137 185 167 39 11 42 13 17 13 -16 1 -52 -6 -78 -14z"/>
<path d="M8125 20040 c3 -5 8 -10 11 -10 2 0 4 5 4 10 0 6 -5 10 -11 10 -5 0
-7 -4 -4 -10z"/>
<path d="M7772 19756 c21 -8 67 -36 103 -62 80 -56 135 -78 251 -98 112 -20
188 -20 300 -1 124 21 163 36 249 95 41 29 92 58 112 66 21 7 30 13 21 14 -29
0 -70 -19 -148 -70 -93 -61 -193 -89 -340 -97 -177 -9 -319 26 -447 112 -38
24 -84 47 -103 50 l-35 5 37 -14z"/>
<path d="M8965 19760 c-3 -5 -1 -10 4 -10 6 0 11 5 11 10 0 6 -2 10 -4 10 -3
0 -8 -4 -11 -10z"/>
<path d="M9660 19640 c-9 -6 -10 -10 -3 -10 6 0 15 5 18 10 8 12 4 12 -15 0z"/>
<path d="M6920 19620 c8 -5 20 -10 25 -10 6 0 3 5 -5 10 -8 5 -19 10 -25 10
-5 0 -3 -5 5 -10z"/>
<path d="M9610 19620 c-13 -8 -13 -10 2 -10 9 0 20 5 23 10 8 13 -5 13 -25 0z"/>
<path d="M6985 19590 c3 -5 8 -10 11 -10 2 0 4 5 4 10 0 6 -5 10 -11 10 -5 0
-7 -4 -4 -10z"/>
<path d="M14860 19317 c0 -8 14 -46 31 -84 135 -296 334 -953 430 -1419 98
-480 127 -946 95 -1544 -9 -162 -20 -392 -26 -510 -20 -437 -31 -608 -46 -738
-9 -74 -13 -136 -11 -138 5 -5 9 27 32 220 8 71 16 131 19 133 2 2 6 -49 10
-114 9 -148 24 -264 91 -738 54 -380 73 -491 82 -482 2 3 8 31 13 64 6 42 3
94 -10 188 -11 72 -26 189 -35 260 -9 72 -29 222 -45 335 -66 459 -73 685 -38
1181 18 249 22 406 23 759 0 488 -8 599 -65 937 -93 542 -297 1236 -461 1567
-60 119 -89 160 -89 123z"/>
<path d="M7750 18657 c0 -12 58 -137 64 -137 3 0 -5 25 -18 55 -28 62 -45 93
-46 82z"/>
<path d="M8740 18530 c-6 -11 -8 -20 -6 -20 3 0 10 9 16 20 6 11 8 20 6 20 -3
0 -10 -9 -16 -20z"/>
<path d="M7820 18501 c0 -5 7 -15 17 -22 15 -13 15 -12 4 9 -12 23 -21 28 -21
13z"/>
<path d="M8700 18468 c-15 -21 -17 -28 -6 -19 16 13 41 51 33 51 -2 0 -14 -15
-27 -32z"/>
<path d="M7883 18421 c51 -61 61 -103 42 -175 -8 -31 -22 -71 -31 -87 -8 -17
-13 -33 -11 -36 8 -7 47 85 59 137 15 65 -2 116 -54 165 l-42 40 37 -44z"/>
<path d="M8648 18403 c-41 -47 -50 -121 -22 -178 12 -26 13 -27 9 -5 -19 87
-17 125 9 163 27 39 29 48 4 20z"/>
<path d="M8187 18370 c-65 -11 -75 -24 -12 -15 73 11 87 14 93 20 7 6 -20 5
-81 -5z"/>
<path d="M8288 18373 c6 -2 18 -2 25 0 6 3 1 5 -13 5 -14 0 -19 -2 -12 -5z"/>
<path d="M8355 18360 c17 -4 41 -8 55 -8 22 0 22 1 -5 8 -16 4 -41 8 -55 8
-22 0 -22 -1 5 -8z"/>
<path d="M8646 18170 c3 -14 11 -32 16 -40 6 -10 7 -7 2 10 -3 14 -11 32 -16
40 -6 10 -7 7 -2 -10z"/>
<path d="M7871 18044 c0 -11 3 -14 6 -6 3 7 2 16 -1 19 -3 4 -6 -2 -5 -13z"/>
<path d="M7882 17965 c0 -16 2 -22 5 -12 2 9 2 23 0 30 -3 6 -5 -1 -5 -18z"/>
<path d="M7892 17910 c0 -14 2 -19 5 -12 2 6 2 18 0 25 -3 6 -5 1 -5 -13z"/>
<path d="M7902 17850 c0 -14 2 -19 5 -12 2 6 2 18 0 25 -3 6 -5 1 -5 -13z"/>
<path d="M7902 17775 c0 -16 2 -22 5 -12 2 9 2 23 0 30 -3 6 -5 -1 -5 -18z"/>
<path d="M8685 17345 c-3 -31 -4 -59 -2 -62 3 -2 9 21 12 52 4 31 5 58 2 61
-2 3 -8 -20 -12 -51z"/>
<path d="M7862 17295 c0 -16 2 -22 5 -12 2 9 2 23 0 30 -3 6 -5 -1 -5 -18z"/>
<path d="M8692 17125 c0 -16 2 -22 5 -12 2 9 2 23 0 30 -3 6 -5 -1 -5 -18z"/>
<path d="M13511 17075 c0 -11 -4 -31 -7 -45 -5 -19 -4 -22 5 -14 7 6 11 26 8
45 -2 19 -5 25 -6 14z"/>
<path d="M3040 17045 c0 -19 4 -35 8 -35 4 0 6 16 4 35 -2 19 -6 35 -8 35 -2
0 -4 -16 -4 -35z"/>
<path d="M3050 16932 c0 -24 38 -234 46 -259 13 -35 -14 1 -76 102 -79 129
-68 86 21 -75 37 -69 95 -192 127 -275 33 -82 81 -192 107 -243 75 -151 115
-251 127 -322 10 -59 9 -80 -15 -196 -60 -299 -76 -471 -72 -754 5 -344 36
-552 120 -810 42 -129 45 -147 71 -409 24 -248 25 -285 14 -385 -14 -137 -66
-417 -126 -681 -90 -402 -174 -795 -213 -1005 -23 -118 -47 -246 -56 -285 -16
-77 -20 -146 -6 -110 14 35 177 701 240 980 139 619 191 879 191 953 0 17 5
34 10 37 6 4 10 -5 10 -20 0 -27 72 -519 111 -755 11 -69 56 -308 100 -532
132 -674 181 -998 251 -1648 28 -263 30 -591 5 -761 -43 -288 -153 -630 -382
-1184 -112 -269 -183 -460 -241 -644 -59 -186 -186 -667 -228 -861 -35 -163
-115 -455 -192 -703 -224 -724 -281 -1009 -389 -1947 -14 -124 -50 -396 -80
-605 -65 -459 -88 -641 -114 -930 -40 -422 -51 -824 -31 -1100 29 -404 129
-1188 155 -1214 8 -7 6 39 -5 104 -28 178 -79 787 -102 1205 -21 411 27 1031
142 1822 44 296 68 489 161 1243 48 394 149 840 296 1315 123 398 157 523 258
950 119 508 234 875 393 1257 375 900 467 1285 432 1812 -6 90 -24 288 -41
440 -17 152 -32 294 -34 316 -17 176 -150 952 -211 1229 -41 189 -142 783
-179 1051 -46 336 -105 799 -101 802 1 2 16 -21 31 -49 82 -151 219 -328 321
-413 68 -58 75 -66 67 -79 -3 -5 -1 -6 6 -2 7 4 40 -13 79 -42 81 -60 262
-156 391 -207 105 -42 272 -86 436 -116 328 -59 761 -20 1130 102 353 117 585
259 907 555 154 142 262 270 379 454 61 94 189 322 189 336 0 5 -48 -70 -108
-165 -196 -316 -364 -499 -707 -768 -168 -132 -301 -212 -470 -283 -479 -203
-1017 -254 -1475 -140 -492 122 -828 357 -1058 741 -197 328 -279 644 -289
1120 -6 245 0 335 33 599 29 226 117 637 194 904 22 77 38 141 36 144 -6 5
-115 -336 -151 -473 -37 -135 -39 -138 -60 -74 -10 30 -60 140 -112 244 -100
203 -195 467 -228 638 -10 48 -22 87 -26 87 -5 0 -9 -8 -9 -18z"/>
<path d="M13466 16843 c-64 -255 -119 -406 -245 -663 -44 -90 -86 -183 -93
-207 -7 -24 -15 -43 -19 -43 -3 0 -20 53 -37 119 -32 124 -153 504 -158 498
-2 -2 23 -102 56 -223 130 -475 206 -918 217 -1264 18 -553 -94 -1002 -344
-1380 -347 -523 -1049 -796 -1800 -700 -209 27 -314 50 -491 109 -367 121
-673 321 -1013 660 -147 148 -250 282 -374 489 -49 83 -92 149 -94 147 -2 -2
18 -44 44 -92 208 -387 391 -608 730 -880 157 -126 263 -194 416 -267 250
-120 449 -177 769 -221 263 -36 490 -30 735 20 380 77 681 228 933 470 107
101 164 174 247 311 36 60 67 110 69 111 1 2 -3 -34 -11 -80 -7 -45 -15 -104
-18 -132 -58 -526 -141 -1055 -259 -1652 -124 -624 -193 -1069 -247 -1588 -40
-382 -46 -727 -16 -930 35 -234 101 -470 220 -785 64 -172 90 -236 217 -540
136 -324 284 -816 406 -1345 46 -202 122 -488 180 -675 62 -197 147 -538 174
-690 12 -69 26 -149 32 -179 l10 -55 15 35 c25 58 11 205 -41 429 -41 174 -75
295 -191 685 -36 121 -100 377 -169 670 -95 411 -224 822 -361 1155 -238 578
-312 781 -375 1024 -78 304 -96 569 -66 936 22 272 80 760 116 980 42 258 127
727 151 835 55 247 172 954 205 1235 l7 65 18 -123 c38 -260 200 -1011 336
-1555 84 -336 109 -410 83 -248 -20 125 -147 757 -211 1046 -137 620 -148 679
-174 878 -20 154 -19 224 5 447 11 102 20 207 20 234 0 33 17 99 49 195 88
261 126 555 118 919 -4 198 -10 269 -35 432 -17 107 -36 220 -43 249 -15 71
-5 171 25 252 13 35 57 136 98 224 74 158 148 335 148 355 0 6 20 46 45 89 53
95 125 236 125 247 0 5 -27 -37 -61 -91 -70 -116 -85 -134 -74 -90 8 38 45
236 45 247 0 4 -4 8 -9 8 -5 0 -21 -48 -35 -107z"/>
<path d="M7785 16480 c15 -180 22 -318 18 -350 -10 -96 -28 -182 -54 -264 -32
-103 -32 -126 1 -39 28 75 57 201 65 283 6 65 -19 427 -30 439 -4 3 -3 -28 0
-69z"/>
<path d="M8762 16510 c0 -14 2 -19 5 -12 2 6 2 18 0 25 -3 6 -5 1 -5 -13z"/>
<path d="M8753 16390 c0 -36 2 -50 4 -32 2 17 2 47 0 65 -2 17 -4 3 -4 -33z"/>
<path d="M8742 16195 c-1 -96 4 -153 18 -218 21 -96 58 -204 72 -213 4 -3 -1
19 -11 48 -45 121 -63 213 -70 363 l-8 150 -1 -130z"/>
<path d="M13370 16309 c0 -5 5 -7 10 -4 6 3 10 8 10 11 0 2 -4 4 -10 4 -5 0
-10 -5 -10 -11z"/>
<path d="M3345 15920 c-3 -5 -1 -10 4 -10 6 0 11 5 11 10 0 6 -2 10 -4 10 -3
0 -8 -4 -11 -10z"/>
<path d="M13185 15920 c3 -5 8 -10 11 -10 2 0 4 5 4 10 0 6 -5 10 -11 10 -5 0
-7 -4 -4 -10z"/>
<path d="M7761 15466 c-1 -72 -23 -171 -48 -219 -8 -16 -10 -26 -4 -23 32 20
74 206 61 274 -7 31 -8 26 -9 -32z"/>
<path d="M8782 15470 c-1 -36 4 -87 12 -115 15 -57 56 -145 68 -145 4 0 -1 15
-12 33 -33 56 -51 119 -59 207 l-8 85 -1 -65z"/>
<path d="M5018 15188 c5 -5 16 -8 23 -6 8 3 3 7 -10 11 -17 4 -21 3 -13 -5z"/>
<path d="M4648 15130 c-200 -126 -269 -396 -152 -596 33 -57 115 -131 172
-157 55 -24 211 -36 252 -18 20 9 13 10 -37 5 -221 -21 -408 137 -421 357 -9
161 60 310 185 396 46 32 60 44 51 43 -2 0 -24 -14 -50 -30z"/>
<path d="M11895 15127 c129 -95 196 -226 197 -383 1 -71 -3 -90 -32 -152 -36
-78 -107 -155 -176 -190 -54 -28 -147 -43 -219 -37 -54 4 -57 4 -25 -6 54 -17
186 -6 247 20 66 29 149 116 189 196 27 56 29 68 29 180 0 115 -1 123 -32 185
-38 77 -89 139 -148 180 -50 35 -75 40 -30 7z"/>
<path d="M4742 14923 c-98 -48 -118 -182 -38 -261 30 -31 43 -36 94 -40 102
-7 175 47 187 138 l5 45 -14 -44 c-19 -55 -48 -86 -102 -107 -82 -31 -160 8
-183 92 -20 74 15 139 94 175 34 16 36 19 15 19 -14 0 -40 -8 -58 -17z"/>
<path d="M11765 14921 c63 -29 97 -72 102 -128 14 -163 -188 -207 -278 -59
-11 18 -19 24 -19 15 0 -9 10 -31 23 -49 107 -157 333 -77 303 108 -10 66 -81
132 -140 132 l-31 0 40 -19z"/>
<path d="M7808 14850 c15 -26 21 -61 25 -135 4 -91 20 -165 33 -153 2 3 -1 18
-7 34 -6 16 -13 76 -16 133 -5 92 -9 106 -30 130 l-25 26 20 -35z"/>
<path d="M8740 14855 c-21 -22 -25 -39 -31 -133 -4 -73 -13 -124 -28 -159 -26
-66 -17 -70 11 -5 15 33 23 78 28 154 5 89 10 113 28 138 27 37 24 39 -8 5z"/>
<path d="M15321 14845 c0 -16 -4 -41 -6 -55 l-6 -25 11 25 c6 13 9 38 7 55
l-4 30 -2 -30z"/>
<path d="M1092 14840 c0 -14 2 -19 5 -12 2 6 2 18 0 25 -3 6 -5 1 -5 -13z"/>
<path d="M11252 14775 c0 -16 2 -22 5 -12 2 9 2 23 0 30 -3 6 -5 -1 -5 -18z"/>
<path d="M15305 14719 c-4 -6 -5 -12 -2 -15 2 -3 7 2 10 11 7 17 1 20 -8 4z"/>
<path d="M5280 14674 c-7 -25 -30 -73 -52 -106 -21 -33 -34 -56 -27 -53 33 21
112 185 96 201 -2 3 -10 -16 -17 -42z"/>
<path d="M11261 14699 c-1 -34 52 -139 86 -170 l26 -24 -25 35 c-33 45 -58 94
-74 145 -10 33 -13 35 -13 14z"/>
<path d="M7870 14544 c0 -11 38 -74 45 -74 2 0 -5 17 -17 38 -27 46 -28 48
-28 36z"/>
<path d="M7992 14135 c-21 -24 -97 -133 -167 -242 -248 -381 -413 -629 -475
-713 -176 -238 -359 -428 -602 -629 -136 -111 -179 -153 -95 -92 316 232 522
433 746 729 66 87 225 328 459 695 140 220 184 278 196 259 3 -5 13 -53 21
-107 27 -165 68 -313 108 -391 36 -70 91 -93 141 -60 53 34 124 242 156 458
14 94 22 114 39 104 12 -8 77 -106 266 -401 232 -363 338 -517 447 -654 179
-224 385 -422 621 -595 42 -31 77 -55 77 -52 0 3 -69 63 -152 133 -329 274
-522 502 -808 948 -212 331 -376 578 -408 616 -36 42 -66 50 -80 22 -5 -10
-12 -45 -15 -78 -10 -95 -71 -324 -107 -398 -58 -123 -107 -124 -165 -3 -35
75 -89 273 -106 391 -5 39 -12 78 -15 88 -9 29 -41 19 -82 -28z"/>
<path d="M12745 12812 c-82 -211 -160 -326 -333 -493 -138 -134 -356 -289
-530 -378 -24 -12 -42 -24 -39 -27 8 -8 262 138 371 215 194 135 375 325 460
481 33 61 120 289 113 297 -2 1 -21 -41 -42 -95z"/>
<path d="M3775 12873 c11 -48 85 -226 117 -283 121 -218 436 -487 767 -654 92
-47 67 -27 -60 47 -343 200 -611 448 -713 662 -51 104 -82 176 -95 218 -14 43
-26 50 -16 10z"/>
<path d="M8266 12155 c-5 -314 -5 -823 0 -1185 14 -969 9 -1535 -16 -1820 -22
-256 -47 -469 -56 -494 -3 -9 -2 -16 4 -16 10 0 31 142 56 380 43 391 44 532
29 2525 l-8 1160 -9 -550z"/>
<path d="M15859 12669 c-5 -166 21 -476 56 -683 23 -130 35 -176 35 -130 0 11
-6 69 -14 130 -8 60 -17 159 -21 219 -9 148 -43 486 -50 493 -3 3 -5 -10 -6
-29z"/>
<path d="M7759 12463 c-13 -16 -12 -17 4 -4 16 13 21 21 13 21 -2 0 -10 -8
-17 -17z"/>
<path d="M8821 12437 c2 -1 13 -9 24 -17 19 -14 19 -14 6 3 -7 9 -18 17 -24
17 -6 0 -8 -1 -6 -3z"/>
<path d="M7629 12353 l-34 -38 38 34 c34 33 42 41 34 41 -2 0 -19 -17 -38 -37z"/>
<path d="M8940 12335 c19 -19 36 -35 39 -35 3 0 -10 16 -29 35 -19 19 -36 35
-39 35 -3 0 10 -16 29 -35z"/>
<path d="M3941 12294 c0 -11 3 -14 6 -6 3 7 2 16 -1 19 -3 4 -6 -2 -5 -13z"/>
<path d="M7539 12273 c-13 -16 -12 -17 4 -4 16 13 21 21 13 21 -2 0 -10 -8
-17 -17z"/>
<path d="M9025 12261 c24 -28 102 -91 92 -74 -4 6 -31 31 -60 54 -28 24 -43
33 -32 20z"/>
<path d="M3944 12130 c2 -107 7 -137 30 -205 56 -162 164 -343 322 -539 163
-203 282 -316 482 -460 88 -64 58 -33 -50 50 -307 236 -649 685 -745 979 -17
54 -28 116 -33 190 l-8 110 2 -125z"/>
<path d="M7464 12208 l-29 -33 33 29 c30 28 37 36 29 36 -2 0 -16 -15 -33 -32z"/>
<path d="M12610 12161 c0 -161 -77 -354 -231 -581 -149 -221 -371 -465 -537
-592 -169 -130 -177 -145 -12 -24 137 100 210 166 314 286 248 283 380 489
446 696 21 66 41 274 26 274 -3 0 -6 -27 -6 -59z"/>
<path d="M7409 12163 c-13 -16 -12 -17 4 -4 16 13 21 21 13 21 -2 0 -10 -8
-17 -17z"/>
<path d="M9142 12164 c4 -5 35 -32 69 -59 35 -27 60 -45 57 -39 -4 5 -35 32
-69 59 -35 27 -60 45 -57 39z"/>
<path d="M7340 12109 l-45 -41 42 32 c37 27 61 51 51 50 -2 0 -23 -19 -48 -41z"/>
<path d="M9312 12034 c4 -6 35 -30 70 -54 35 -24 56 -36 48 -28 -23 23 -125
94 -118 82z"/>
<path d="M7195 12004 l-30 -26 33 22 c17 12 32 23 32 26 0 7 -4 5 -35 -22z"/>
<path d="M4730 11905 c0 -2 18 -14 40 -25 22 -11 40 -18 40 -15 0 2 -18 14
-40 25 -22 11 -40 18 -40 15z"/>
<path d="M9519 11892 c14 -11 38 -27 55 -37 l31 -17 -24 20 c-14 11 -38 27
-55 37 l-31 17 24 -20z"/>
<path d="M11773 11884 c-24 -14 -43 -27 -43 -30 0 -5 63 27 90 45 31 22 -7 10
-47 -15z"/>
<path d="M6990 11869 c-22 -18 -22 -19 -3 -10 12 6 25 16 28 21 9 15 3 12 -25
-11z"/>
<path d="M15952 11810 c0 -14 2 -19 5 -12 2 6 2 18 0 25 -3 6 -5 1 -5 -13z"/>
<path d="M592 11785 c0 -16 2 -22 5 -12 2 9 2 23 0 30 -3 6 -5 -1 -5 -18z"/>
<path d="M6763 11722 c-61 -42 -133 -96 -160 -120 -40 -36 -36 -34 22 10 39
30 112 82 163 117 79 54 101 72 90 71 -2 0 -53 -35 -115 -78z"/>
<path d="M9690 11786 c0 -3 35 -29 78 -57 42 -29 106 -74 142 -101 47 -35 54
-39 25 -13 -53 49 -245 182 -245 171z"/>
<path d="M9989 11567 c15 -19 71 -61 71 -54 0 2 -19 19 -42 37 -24 19 -37 26
-29 17z"/>
<path d="M6509 11523 l-34 -38 38 34 c34 33 42 41 34 41 -2 0 -19 -17 -38 -37z"/>
<path d="M6389 11413 l-24 -28 28 24 c15 14 27 26 27 28 0 8 -8 1 -31 -24z"/>
<path d="M10571 10244 c0 -11 3 -14 6 -6 3 7 2 16 -1 19 -3 4 -6 -2 -5 -13z"/>
<path d="M8898 10013 c7 -3 16 -2 19 1 4 3 -2 6 -13 5 -11 0 -14 -3 -6 -6z"/>
<path d="M7058 9923 c7 -3 16 -2 19 1 4 3 -2 6 -13 5 -11 0 -14 -3 -6 -6z"/>
<path d="M6998 9913 c7 -3 16 -2 19 1 4 3 -2 6 -13 5 -11 0 -14 -3 -6 -6z"/>
<path d="M9578 9913 c7 -3 16 -2 19 1 4 3 -2 6 -13 5 -11 0 -14 -3 -6 -6z"/>
<path d="M6938 9903 c7 -3 16 -2 19 1 4 3 -2 6 -13 5 -11 0 -14 -3 -6 -6z"/>
<path d="M9638 9903 c7 -3 16 -2 19 1 4 3 -2 6 -13 5 -11 0 -14 -3 -6 -6z"/>
<path d="M9688 9893 c6 -2 18 -2 25 0 6 3 1 5 -13 5 -14 0 -19 -2 -12 -5z"/>
<path d="M9748 9883 c7 -3 16 -2 19 1 4 3 -2 6 -13 5 -11 0 -14 -3 -6 -6z"/>
<path d="M6718 9873 c7 -3 16 -2 19 1 4 3 -2 6 -13 5 -11 0 -14 -3 -6 -6z"/>
<path d="M6022 9330 c0 -14 2 -19 5 -12 2 6 2 18 0 25 -3 6 -5 1 -5 -13z"/>
<path d="M10541 9244 c0 -11 3 -14 6 -6 3 7 2 16 -1 19 -3 4 -6 -2 -5 -13z"/>
<path d="M6001 9194 c0 -11 3 -14 6 -6 3 7 2 16 -1 19 -3 4 -6 -2 -5 -13z"/>
<path d="M10546 9195 c4 -8 8 -15 10 -15 2 0 4 7 4 15 0 8 -4 15 -10 15 -5 0
-7 -7 -4 -15z"/>
<path d="M5991 9144 c0 -11 3 -14 6 -6 3 7 2 16 -1 19 -3 4 -6 -2 -5 -13z"/>
<path d="M10550 9145 c0 -8 4 -15 10 -15 5 0 7 7 4 15 -4 8 -8 15 -10 15 -2 0
-4 -7 -4 -15z"/>
<path d="M10565 9060 c3 -30 6 -138 6 -240 2 -169 3 -177 10 -95 9 95 3 283
-12 350 -7 36 -8 34 -4 -15z"/>
<path d="M5982 9080 c0 -14 2 -19 5 -12 2 6 2 18 0 25 -3 6 -5 1 -5 -13z"/>
<path d="M5972 8848 c2 -166 6 -151 10 35 2 64 0 117 -4 117 -5 0 -7 -69 -6
-152z"/>
<path d="M5976 8675 c4 -8 8 -15 10 -15 2 0 4 7 4 15 0 8 -4 15 -10 15 -5 0
-7 -7 -4 -15z"/>
<path d="M8192 8610 c0 -14 2 -19 5 -12 2 6 2 18 0 25 -3 6 -5 1 -5 -13z"/>
<path d="M10560 8615 c0 -8 2 -15 4 -15 2 0 6 7 10 15 3 8 1 15 -4 15 -6 0
-10 -7 -10 -15z"/>
<path d="M8180 8550 c0 -16 2 -30 4 -30 2 0 6 14 8 30 3 17 1 30 -4 30 -4 0
-8 -13 -8 -30z"/>
<path d="M10562 8550 c0 -19 2 -27 5 -17 2 9 2 25 0 35 -3 9 -5 1 -5 -18z"/>
<path d="M10552 8465 c0 -16 2 -22 5 -12 2 9 2 23 0 30 -3 6 -5 -1 -5 -18z"/>
<path d="M8181 7958 c-47 -23 -99 -86 -108 -130 -3 -15 -9 -25 -13 -23 -5 3
-6 -4 -3 -15 3 -11 7 -20 8 -20 2 0 15 20 29 45 60 102 188 144 269 88 21 -15
52 -47 69 -71 16 -24 32 -41 35 -39 2 3 -5 28 -18 56 -48 113 -164 161 -268
109z"/>
<path d="M4650 7816 c-216 -46 -400 -128 -625 -280 -239 -161 -510 -504 -624
-791 -62 -155 -75 -220 -75 -375 0 -121 4 -147 32 -250 35 -125 83 -314 136
-537 65 -274 150 -399 331 -490 309 -156 506 -388 589 -693 66 -240 89 -285
178 -345 40 -26 46 -35 56 -85 24 -113 106 -199 277 -287 193 -99 383 -217
461 -285 62 -55 200 -221 290 -350 93 -132 155 -203 219 -248 70 -49 126 -61
310 -70 270 -13 567 -85 780 -189 146 -71 152 -76 342 -257 148 -141 202 -177
106 -71 -96 105 -96 99 4 65 75 -27 107 -32 216 -36 91 -3 127 -1 127 7 0 7
-20 11 -53 11 -86 0 -215 19 -272 41 -80 30 -160 93 -343 271 -90 87 -167 158
-171 158 -5 0 32 -40 82 -90 50 -49 89 -92 86 -94 -3 -3 -39 12 -80 34 -106
55 -321 126 -489 161 -111 23 -188 32 -327 38 -173 8 -184 10 -247 39 -79 37
-143 98 -216 207 -98 146 -173 239 -280 346 -121 122 -206 181 -435 301 -193
102 -233 126 -281 174 -36 36 -89 135 -82 153 2 5 29 -2 62 -15 32 -14 60 -23
63 -20 3 3 -28 26 -68 51 -94 61 -175 138 -204 195 -12 25 -30 83 -40 128 -33
162 -76 269 -161 400 -101 156 -241 277 -448 388 -219 118 -266 191 -346 534
-22 91 -64 253 -95 360 -69 239 -81 320 -66 433 23 174 84 329 207 527 194
314 422 518 766 685 286 139 528 162 938 89 176 -31 295 -69 418 -134 50 -28
92 -48 92 -45 0 8 -126 93 -177 119 -141 70 -441 126 -713 132 -132 2 -204 0
-250 -10z"/>
<path d="M11477 7819 c-121 -13 -349 -57 -435 -84 -79 -25 -221 -105 -257
-145 -16 -17 -6 -14 40 13 140 81 253 118 475 156 430 74 694 35 1027 -152
267 -150 443 -315 618 -578 137 -204 214 -392 236 -574 15 -123 1 -220 -61
-425 -23 -74 -59 -210 -80 -301 -59 -250 -92 -344 -149 -426 -61 -86 -96 -114
-234 -188 -211 -112 -357 -248 -467 -436 -46 -77 -77 -160 -115 -305 -19 -71
-39 -143 -45 -158 -17 -47 -119 -144 -212 -203 -49 -31 -87 -58 -85 -60 2 -2
36 10 75 26 46 19 72 26 72 18 0 -27 -50 -115 -85 -151 -48 -48 -112 -89 -243
-155 -134 -67 -288 -159 -360 -214 -115 -89 -250 -244 -396 -455 -86 -125
-136 -173 -216 -210 -49 -22 -73 -26 -235 -33 -128 -5 -219 -15 -315 -34 -165
-32 -409 -111 -509 -165 -41 -22 -77 -37 -79 -35 -3 2 36 44 87 93 50 49 91
92 91 96 0 9 -58 -43 -225 -204 -223 -216 -278 -246 -472 -262 -160 -13 -184
-22 -68 -26 107 -4 198 11 280 43 32 14 60 23 62 22 1 -2 -21 -30 -50 -63 -88
-103 -97 -114 -91 -114 3 0 74 66 157 146 84 80 184 168 224 195 129 88 317
159 565 214 152 33 241 44 359 45 238 0 332 55 486 280 227 331 350 441 703
632 85 46 176 98 201 115 86 59 144 144 155 226 5 36 12 46 51 72 42 28 95 90
123 144 7 14 30 91 51 173 43 167 90 268 181 389 103 136 200 215 401 324 216
117 292 240 367 590 16 77 50 214 74 304 68 249 81 341 67 473 -15 137 -49
256 -111 383 -145 299 -363 555 -610 720 -207 137 -416 228 -599 260 -90 16
-293 18 -424 4z"/>
<path d="M8106 7804 c-24 -62 14 -172 73 -211 35 -23 111 -32 111 -13 0 6 -13
10 -29 10 -15 0 -41 10 -56 22 -37 29 -75 113 -75 166 0 42 -13 56 -24 26z"/>
<path d="M10552 7720 c0 -19 2 -27 5 -17 2 9 2 25 0 35 -3 9 -5 1 -5 -18z"/>
<path d="M8185 7680 c-3 -5 -1 -10 4 -10 6 0 11 5 11 10 0 6 -2 10 -4 10 -3 0
-8 -4 -11 -10z"/>
<path d="M10560 7664 c0 -10 7 -75 14 -144 34 -298 42 -666 21 -920 -2 -25 -7
-81 -10 -125 -9 -126 -53 -419 -82 -545 -81 -365 -351 -1074 -538 -1415 -20
-36 -34 -69 -32 -72 9 -8 218 428 285 592 156 388 249 661 297 880 114 517
138 1082 69 1640 -14 110 -24 157 -24 109z"/>
<path d="M5982 7610 c0 -19 2 -27 5 -17 2 9 2 25 0 35 -3 9 -5 1 -5 -18z"/>
<path d="M11979 7564 c177 -65 290 -133 410 -248 140 -135 292 -357 331 -485
63 -202 66 -505 9 -730 -10 -41 -57 -153 -103 -250 -126 -264 -140 -309 -141
-461 0 -108 3 -130 21 -165 21 -40 56 -67 104 -80 16 -4 11 2 -15 17 -63 36
-87 96 -87 212 1 120 38 236 146 457 41 85 84 184 95 221 47 156 67 443 42
599 -14 87 -56 230 -82 282 -68 134 -222 333 -327 422 -118 102 -208 153 -371
209 -131 46 -156 46 -32 0z"/>
<path d="M4540 7566 c-175 -62 -281 -127 -408 -250 -145 -141 -286 -346 -332
-484 -49 -149 -62 -357 -35 -587 19 -163 37 -220 136 -421 120 -247 134 -293
134 -444 0 -141 -11 -176 -68 -210 -18 -11 -26 -20 -18 -20 28 0 79 41 96 77
41 85 36 243 -11 380 -15 43 -60 143 -100 223 -92 182 -119 264 -140 421 -32
246 -9 495 62 648 40 89 165 269 249 358 131 141 256 225 444 299 97 38 90 45
-9 10z"/>
<path d="M5962 7467 c-37 -319 -40 -785 -7 -1062 57 -471 126 -728 359 -1322
56 -143 236 -527 243 -519 2 2 -12 37 -33 77 -105 209 -215 477 -340 829 -136
386 -212 771 -233 1195 -11 231 -2 567 23 793 6 61 9 112 6 112 -4 0 -12 -46
-18 -103z"/>
<path d="M8282 6654 c-1 -23 -5 -63 -8 -90 -5 -37 -4 -46 5 -38 8 7 11 38 8
90 -1 43 -4 61 -5 38z"/>
<path d="M8265 6123 c-4 -191 -5 -514 -1 -718 3 -203 9 -597 12 -875 4 -278 9
-507 11 -510 4 -5 -8 2443 -12 2448 -2 2 -6 -154 -10 -345z"/>
<path d="M12680 5250 c0 -5 5 -10 11 -10 5 0 7 5 4 10 -3 6 -8 10 -11 10 -2 0
-4 -4 -4 -10z"/>
<path d="M4360 4935 c13 -16 45 -52 71 -80 25 -27 120 -142 210 -255 178 -223
291 -346 470 -509 107 -98 209 -179 209 -167 0 2 -33 32 -72 64 -100 82 -358
345 -460 468 -46 55 -131 158 -190 230 -59 71 -142 163 -185 204 -42 41 -66
62 -53 45z"/>
<path d="M12124 4877 c-44 -45 -150 -167 -235 -272 -200 -246 -284 -337 -474
-516 -61 -57 -130 -121 -155 -142 -43 -37 -44 -37 -5 -11 163 113 437 389 651
655 96 119 204 249 240 288 37 39 65 74 62 76 -3 3 -40 -32 -84 -78z"/>
<path d="M13700 4763 c0 -38 9 -138 19 -223 11 -85 27 -252 35 -370 26 -353
35 -431 81 -760 119 -852 160 -1409 136 -1850 -25 -453 -58 -862 -87 -1079
-13 -101 -22 -186 -19 -189 3 -3 5 -3 5 -1 0 2 11 60 24 129 30 150 66 424
102 765 58 556 39 1193 -56 1895 -65 476 -99 749 -105 840 -20 306 -54 644
-76 780 -10 55 -41 130 -55 130 -2 0 -4 -30 -4 -67z"/>
<path d="M6560 4547 c0 -12 93 -177 97 -173 2 2 -11 30 -28 62 -46 83 -69 120
-69 111z"/>
<path d="M5796 4390 c76 -296 360 -736 684 -1058 110 -109 107 -111 -35 -27
-89 52 -158 102 -255 183 -60 50 -58 47 21 -30 97 -95 136 -123 339 -238 80
-45 195 -117 255 -160 160 -112 257 -171 396 -240 208 -105 349 -142 644 -170
138 -14 193 -30 241 -72 41 -36 55 -81 43 -139 -10 -53 -10 -224 0 -259 5 -15
8 15 8 75 0 55 5 120 11 145 20 81 15 132 -18 178 -50 69 -98 90 -261 113
-370 51 -413 62 -599 150 -315 150 -653 398 -877 644 -219 239 -406 510 -517
748 -78 168 -87 185 -80 157z"/>
<path d="M9891 4370 c-12 -22 -20 -40 -18 -40 7 0 48 72 44 76 -2 2 -14 -14
-26 -36z"/>
<path d="M10735 4363 c-65 -174 -258 -490 -432 -708 -106 -133 -317 -346 -433
-439 -132 -105 -382 -268 -520 -340 -189 -98 -301 -132 -569 -170 -250 -37
-307 -56 -356 -120 -36 -47 -39 -90 -16 -221 19 -110 19 -110 19 -45 0 36 -3
88 -7 116 -8 61 0 98 31 131 45 48 89 62 270 83 95 11 200 25 233 31 191 34
469 161 700 319 131 90 200 132 441 275 117 68 282 197 298 232 3 7 -39 -23
-92 -66 -85 -69 -167 -122 -307 -200 -31 -17 -15 2 72 89 299 295 594 740 677
1020 20 68 15 76 -9 13z"/>
<path d="M5330 3916 c0 -2 8 -10 18 -17 15 -13 16 -12 3 4 -13 16 -21 21 -21
13z"/>
<path d="M11189 3893 c-13 -16 -12 -17 4 -4 16 13 21 21 13 21 -2 0 -10 -8
-17 -17z"/>
<path d="M10969 2863 c-13 -16 -12 -17 4 -4 16 13 21 21 13 21 -2 0 -10 -8
-17 -17z"/>
<path d="M10880 2812 c-25 -16 -81 -50 -125 -77 -44 -26 -132 -79 -195 -118
-63 -38 -194 -111 -290 -162 -97 -51 -218 -118 -270 -150 -94 -57 -220 -143
-220 -150 0 -2 62 34 138 79 75 46 238 137 362 203 225 121 312 172 533 317
99 65 128 87 115 86 -2 0 -23 -13 -48 -28z"/>
<path d="M5652 2814 c10 -10 20 -16 22 -13 3 3 -5 11 -17 18 -21 13 -21 12 -5
-5z"/>
<path d="M5781 2728 c179 -117 295 -186 484 -285 213 -113 319 -173 449 -257
106 -69 106 -58 -2 17 -109 77 -234 151 -407 242 -194 101 -365 200 -475 275
-42 28 -120 70 -131 70 -6 0 31 -28 82 -62z"/>
<path d="M8417 2235 c-4 -8 -2 -17 3 -20 6 -4 10 3 10 14 0 25 -6 27 -13 6z"/>
<path d="M9760 2210 c0 -5 5 -10 11 -10 5 0 7 5 4 10 -3 6 -8 10 -11 10 -2 0
-4 -4 -4 -10z"/>
<path d="M6960 1914 c0 -4 35 -50 78 -103 43 -53 127 -159 187 -236 59 -77
136 -171 170 -210 34 -38 94 -108 134 -155 40 -47 140 -153 222 -236 124 -126
154 -163 178 -216 50 -110 115 -352 137 -510 4 -29 10 -45 17 -41 13 8 1 209
-19 316 -8 44 -30 122 -49 173 -18 52 -31 94 -29 94 2 0 35 -9 73 -19 140 -39
328 -36 455 7 31 10 56 18 56 16 0 -1 -15 -49 -34 -106 -49 -147 -67 -255 -64
-384 l3 -109 19 100 c30 161 76 333 114 429 34 86 40 94 162 215 162 161 395
428 568 651 75 96 158 201 185 233 27 32 47 60 45 63 -7 6 -89 -89 -271 -316
-86 -107 -188 -229 -227 -270 l-71 -75 34 55 c148 241 228 367 283 443 35 49
64 94 64 101 0 6 -7 3 -15 -8 -7 -10 -31 -37 -52 -60 -74 -80 -181 -223 -303
-405 -210 -314 -339 -449 -477 -503 -103 -40 -226 -54 -351 -41 -141 16 -209
46 -315 141 -117 104 -189 195 -357 445 -78 116 -163 239 -189 271 -44 56
-137 156 -146 156 -2 0 45 -73 105 -162 59 -90 145 -224 189 -298 l82 -135
-61 65 c-65 70 -156 180 -300 360 -102 128 -230 275 -230 264z"/>
</g>
</svg>
