<?xml version="1.0" standalone="no"?>
<!DOCTYPE svg PUBLIC "-//W3C//DTD SVG 20010904//EN"
 "http://www.w3.org/TR/2001/REC-SVG-20010904/DTD/svg10.dtd">
<svg version="1.0" xmlns="http://www.w3.org/2000/svg"
 width="1650.000000pt" height="2210.000000pt" viewBox="0 0 1650.000000 2210.000000"
 preserveAspectRatio="xMidYMid meet">

<g transform="translate(0.000000,2210.000000) scale(0.100000,-0.100000)"
fill="#000000" stroke="none">
<path d="M11181 21054 c0 -11 3 -14 6 -6 3 7 2 16 -1 19 -3 4 -6 -2 -5 -13z"/>
<path d="M10591 21034 c0 -11 3 -14 6 -6 3 7 2 16 -1 19 -3 4 -6 -2 -5 -13z"/>
<path d="M11172 20995 c0 -16 2 -22 5 -12 2 9 2 23 0 30 -3 6 -5 -1 -5 -18z"/>
<path d="M5362 20975 c0 -16 2 -22 5 -12 2 9 2 23 0 30 -3 6 -5 -1 -5 -18z"/>
<path d="M10582 20965 c0 -16 2 -22 5 -12 2 9 2 23 0 30 -3 6 -5 -1 -5 -18z"/>
<path d="M8792 20960 c0 -14 2 -19 5 -12 2 6 2 18 0 25 -3 6 -5 1 -5 -13z"/>
<path d="M11127 20718 c-132 -842 -286 -1767 -358 -2148 -77 -405 -132 -643
-364 -1570 -248 -994 -377 -1544 -444 -1905 -12 -60 -26 -126 -31 -145 -35
-119 -143 -911 -186 -1365 -31 -328 -30 -995 3 -1346 l6 -66 -54 -6 c-30 -3
-82 -9 -115 -12 l-61 -7 -7 69 c-34 367 -38 988 -11 1493 19 354 15 633 -10
624 -13 -5 -25 46 -24 101 0 26 2 28 10 10 7 -16 8 -14 4 10 -21 142 -17 181
81 770 114 683 189 1090 369 2010 62 319 148 758 190 975 42 217 89 463 105
545 16 83 41 220 55 305 15 85 41 238 60 340 82 443 236 1440 234 1510 0 14
-14 -63 -30 -170 -41 -274 -173 -1060 -214 -1270 -19 -96 -46 -245 -60 -330
-25 -150 -96 -521 -189 -995 -40 -204 -228 -1160 -306 -1560 -45 -232 -173
-943 -234 -1310 -146 -874 -210 -1469 -237 -2200 -10 -286 -6 -776 7 -887 l6
-48 -75 0 -75 0 -8 138 c-4 75 -8 322 -8 547 0 439 12 641 60 1030 25 206 38
286 124 775 141 800 281 1683 375 2370 76 551 96 704 93 725 -2 11 -32 -191
-67 -450 -115 -851 -218 -1516 -373 -2410 -148 -858 -171 -1016 -205 -1397
-18 -214 -24 -878 -10 -1165 l8 -161 -98 5 c-54 3 -99 7 -101 8 -1 1 2 34 8
74 16 113 112 856 200 1551 44 349 98 768 120 930 22 162 56 430 75 595 20
165 45 368 56 450 10 83 30 245 44 360 14 116 48 390 75 610 61 494 113 959
139 1255 27 309 53 691 49 726 -2 16 -11 -83 -21 -221 -33 -460 -77 -875 -163
-1550 -24 -192 -58 -465 -74 -605 -17 -140 -42 -336 -55 -435 -14 -99 -47
-360 -75 -580 -27 -220 -72 -575 -100 -790 -28 -214 -79 -619 -115 -900 -36
-280 -87 -683 -115 -895 -27 -212 -55 -427 -62 -477 l-11 -93 -46 1 c-25 0
-95 6 -156 12 l-110 12 -6 35 -6 35 -2 -33 c-1 -33 -2 -34 -38 -28 -21 3 -60
8 -86 12 -38 5 -47 10 -43 23 19 60 125 812 165 1166 39 345 82 945 101 1400
15 352 12 1057 -5 1380 -49 950 -56 2582 -15 3455 14 300 38 640 60 875 11
110 22 229 24 265 l5 65 -9 -60 c-17 -101 -49 -400 -64 -595 -39 -475 -56
-970 -66 -1870 -6 -541 -13 -799 -23 -910 -33 -330 -52 -679 -67 -1190 -31
-1056 -84 -1776 -181 -2440 -116 -803 -141 -984 -169 -1227 -17 -146 -32 -269
-35 -272 -2 -4 -49 2 -104 13 -114 23 -111 19 -92 122 19 104 62 449 81 659
43 484 69 1049 70 1530 0 252 11 612 30 1025 6 124 19 425 30 670 21 460 43
879 60 1129 27 391 52 768 70 1071 11 184 29 484 40 665 28 466 40 726 39 814
-2 55 -4 38 -10 -64 -4 -77 -13 -228 -19 -335 -18 -309 -98 -1529 -120 -1820
-21 -278 -50 -725 -50 -774 0 -16 -2 -27 -4 -25 -8 7 -55 993 -67 1404 -13
421 -6 1827 10 2150 18 355 21 448 11 370 -55 -435 -77 -1974 -40 -2850 17
-399 38 -819 57 -1107 18 -284 18 -280 -27 -1163 -22 -419 -31 -711 -40 -1275
-7 -498 -33 -1154 -45 -1168 -2 -2 -43 -10 -92 -17 -93 -13 -69 -18 30 -6 l57
7 0 -60 c0 -34 -4 -66 -8 -73 -6 -9 -342 -67 -348 -60 -1 1 27 79 62 172 63
166 165 472 163 491 0 5 -31 -76 -68 -181 -38 -104 -127 -336 -199 -515 -71
-179 -144 -363 -160 -410 -62 -175 -73 -200 -90 -200 -14 0 -14 -2 -3 -9 14
-9 11 -25 -31 -139 -20 -53 -20 -53 -41 -35 -22 18 -22 18 -4 -3 9 -11 17 -25
17 -31 0 -14 -98 -275 -155 -413 -200 -486 -513 -978 -915 -1440 -31 -36 -146
-168 -256 -295 -110 -126 -258 -297 -329 -379 -802 -923 -983 -1152 -1210
-1526 -117 -193 -94 -170 49 48 150 230 396 552 631 827 141 165 457 529 520
600 40 44 134 152 210 240 206 238 226 259 236 243 7 -9 8 -7 7 9 -2 15 26 56
92 133 l94 112 78 -84 c137 -146 160 -189 159 -306 0 -136 -39 -232 -130 -322
-73 -71 -125 -98 -301 -156 -80 -25 -163 -56 -185 -67 -155 -78 -376 -308
-666 -693 -191 -254 -292 -410 -384 -595 -123 -249 -146 -355 -105 -501 34
-123 22 -240 -28 -267 -12 -6 -35 -11 -52 -11 -40 0 -60 -11 -138 -77 -75 -64
-129 -89 -220 -104 -117 -19 -277 30 -311 94 -12 22 -10 35 14 104 15 43 54
134 86 203 68 144 52 134 -23 -15 -59 -117 -119 -293 -148 -436 -31 -149 -20
-154 14 -6 16 70 31 127 32 127 2 0 24 -16 49 -35 25 -19 69 -41 97 -50 110
-32 280 -11 358 45 32 23 33 23 67 5 19 -11 46 -39 61 -64 25 -42 27 -55 27
-146 -1 -132 -20 -172 -124 -263 -128 -113 -198 -187 -247 -262 -136 -211
-282 -617 -300 -840 -5 -52 -1 -108 11 -179 19 -113 15 -169 -16 -241 -52
-118 -156 -164 -285 -125 -67 20 -119 66 -192 172 -70 101 -77 109 -116 143
-19 16 -13 5 17 -33 26 -32 47 -61 47 -65 0 -5 -37 4 -82 19 -93 30 -132 61
-148 117 -24 90 -6 172 63 284 77 123 105 195 157 404 60 243 96 434 110 585
6 62 12 115 15 117 17 18 27 -368 13 -533 l-6 -80 13 85 c21 135 18 352 -7
515 -15 94 -22 189 -22 290 -1 132 2 157 21 209 27 70 64 121 103 141 58 30
59 26 28 -112 -15 -71 -27 -135 -25 -143 1 -8 26 87 56 210 68 284 152 542
228 701 33 68 140 259 240 424 408 680 485 822 747 1385 163 349 269 527 682
1140 466 693 541 830 629 1154 65 239 73 535 18 729 -9 32 -17 56 -19 54 -2
-2 3 -37 10 -78 8 -41 17 -112 20 -159 l7 -85 -28 32 c-46 51 -111 183 -129
259 -13 57 -15 100 -9 249 7 171 6 186 -20 310 -42 202 -37 340 20 510 10 28
52 129 95 225 193 434 292 795 379 1390 75 513 108 980 131 1845 6 220 20 735
31 1145 20 753 35 2277 20 2120 -5 -47 -11 -276 -15 -510 -4 -234 -11 -573
-16 -755 -9 -300 -22 -819 -50 -1950 -22 -865 -45 -1209 -121 -1785 -40 -302
-62 -426 -121 -680 -61 -263 -142 -511 -238 -730 -112 -256 -118 -271 -147
-376 -38 -137 -38 -288 1 -459 26 -115 27 -127 21 -310 -6 -172 -5 -197 14
-268 21 -81 58 -150 137 -257 l46 -62 -12 -107 c-24 -225 -73 -408 -165 -611
-73 -161 -127 -248 -515 -830 -416 -622 -449 -678 -617 -1020 -318 -647 -396
-802 -469 -930 -144 -255 -433 -659 -627 -882 -130 -148 -188 -264 -205 -411
-11 -90 2 -187 33 -248 14 -28 25 -54 25 -58 0 -5 -29 -22 -64 -40 -73 -36
-103 -74 -137 -173 -27 -81 -33 -174 -21 -320 17 -203 -8 -422 -89 -768 -59
-252 -90 -343 -156 -451 -75 -125 -93 -174 -93 -257 0 -66 24 -141 49 -156 16
-10 13 -26 -5 -26 -28 0 -72 -39 -93 -83 -33 -67 -28 -145 16 -280 51 -155 51
-258 0 -472 -19 -82 -47 -239 -62 -347 -30 -233 -27 -268 30 -295 70 -34 150
16 244 151 57 83 73 117 132 284 76 216 117 277 282 420 121 105 147 147 147
234 0 41 -6 64 -23 89 l-23 34 47 43 c26 23 57 62 68 86 29 59 37 157 20 242
-19 99 -15 232 11 344 59 248 205 593 311 733 29 38 94 105 145 149 120 102
157 146 177 209 20 60 22 184 5 242 -12 40 -69 110 -98 119 -13 4 -12 8 4 27
31 34 77 58 128 65 111 16 143 126 92 319 -34 130 -12 230 103 462 101 203
188 335 422 645 306 406 511 605 687 667 33 12 105 36 161 53 123 38 233 107
296 185 l44 53 7 -80 c5 -56 23 -131 61 -247 66 -204 80 -311 72 -526 -11
-258 -70 -784 -133 -1185 -20 -124 -49 -310 -65 -415 -62 -398 -222 -1257
-270 -1447 -68 -274 -122 -398 -272 -620 -58 -87 -113 -181 -123 -210 -24 -70
-22 -187 5 -303 11 -49 27 -136 36 -193 8 -57 25 -130 38 -162 l24 -59 -31 -7
c-56 -11 -123 -55 -156 -100 -57 -79 -74 -144 -74 -279 -1 -132 4 -151 74
-324 54 -135 87 -265 106 -426 17 -142 23 -462 12 -705 -5 -126 -4 -143 4 -90
17 100 16 735 -1 850 -19 136 -54 266 -112 412 -62 159 -78 254 -61 363 24
157 97 250 216 279 26 6 34 1 94 -64 210 -230 649 -311 897 -166 23 14 64 45
91 69 47 43 51 44 79 32 41 -17 90 -72 111 -120 22 -54 29 -179 14 -258 -6
-36 -29 -98 -50 -139 -20 -40 -66 -129 -102 -198 -151 -294 -217 -630 -223
-1135 l-3 -260 8 195 c18 428 74 790 154 1003 28 74 110 238 160 322 133 219
113 522 -40 600 -21 11 -40 21 -42 21 -2 1 13 30 32 65 19 35 62 136 97 224
53 136 62 172 66 240 4 72 1 89 -27 165 -49 132 -69 231 -82 407 -18 253 9
594 128 1603 91 778 145 1112 244 1515 95 393 275 909 300 865 20 -36 133
-350 151 -419 23 -89 54 -319 69 -516 18 -218 24 -1027 11 -1359 -52 -1303
-83 -1570 -215 -1841 -68 -140 -86 -200 -86 -294 0 -92 19 -176 64 -284 19
-45 39 -118 46 -162 6 -44 20 -106 31 -137 10 -32 19 -61 19 -65 0 -5 -14 -14
-32 -22 -48 -22 -111 -90 -141 -153 -35 -73 -49 -172 -37 -262 12 -94 20 -116
101 -286 74 -156 96 -229 134 -440 41 -233 50 -365 50 -705 0 -322 7 -325 20
-10 14 348 -36 776 -122 1035 -14 41 -26 81 -26 88 0 6 -4 12 -8 12 -14 0 -86
162 -103 231 -42 174 -1 354 101 439 60 49 75 48 122 -2 51 -56 119 -93 207
-114 81 -19 144 -14 286 22 86 21 114 24 266 21 l170 -2 43 30 c24 17 57 49
74 72 35 49 48 51 95 19 42 -28 83 -100 100 -175 17 -71 8 -213 -15 -266 -10
-22 -20 -49 -21 -60 -2 -11 -24 -71 -49 -134 -95 -239 -156 -580 -170 -956 -3
-82 -8 -197 -10 -255 -3 -63 -2 -99 3 -90 5 8 12 96 16 195 7 215 20 362 47
550 38 271 61 353 191 683 42 105 43 109 43 232 0 114 -2 130 -26 180 -33 71
-72 116 -120 141 -32 16 -38 23 -31 37 18 34 34 118 42 222 6 64 21 146 40
210 60 202 53 287 -41 496 -134 299 -156 491 -239 2094 -30 581 -23 1011 21
1320 21 146 71 366 87 382 15 15 161 -275 202 -400 60 -184 115 -459 225
-1122 24 -146 59 -357 79 -470 90 -530 127 -836 133 -1100 6 -251 -2 -319 -58
-497 -60 -187 -50 -293 40 -450 25 -42 47 -99 57 -144 22 -98 55 -162 114
-218 l49 -47 -50 -18 c-96 -33 -162 -134 -175 -265 -9 -77 8 -145 65 -276 113
-255 149 -452 161 -875 6 -227 7 -246 10 -130 13 457 -28 736 -152 1017 -46
105 -52 127 -56 204 -6 118 13 182 76 249 37 41 58 54 100 65 47 13 56 12 95
-5 72 -32 159 -43 280 -37 180 9 301 52 415 146 56 47 62 49 93 41 52 -15 105
-65 135 -128 22 -46 29 -75 32 -147 4 -98 -2 -128 -69 -349 -22 -71 -46 -167
-54 -215 -22 -125 -36 -488 -26 -676 l8 -160 2 235 c3 445 20 589 105 860 57
184 70 266 57 350 -19 119 -96 229 -172 245 -16 4 -31 10 -33 13 -2 4 13 34
33 68 73 121 98 255 65 360 -14 46 -18 93 -19 219 0 185 -10 218 -96 350 -143
219 -191 367 -340 1040 -102 457 -270 1322 -308 1586 -55 374 -72 819 -31 819
11 0 138 -136 191 -205 136 -177 238 -372 332 -635 123 -347 475 -1498 522
-1710 26 -119 31 -383 10 -547 -31 -240 -9 -347 93 -456 32 -33 66 -86 96
-149 33 -70 57 -106 88 -133 35 -29 40 -38 28 -45 -8 -5 -18 -10 -21 -10 -15
0 -74 -70 -91 -107 -52 -116 -44 -228 26 -383 26 -59 55 -142 67 -198 35 -167
37 -573 2 -754 -3 -18 -3 -30 1 -27 13 12 37 212 43 364 10 267 -17 443 -95
624 -40 92 -46 117 -50 191 -2 47 1 104 7 127 16 59 70 133 112 155 34 17 38
17 80 1 65 -24 265 -24 339 1 117 39 238 123 291 200 58 86 144 15 169 -139
15 -91 0 -180 -55 -345 -24 -72 -51 -165 -59 -208 -31 -157 -50 -483 -37 -632
7 -75 8 -65 9 90 4 334 28 501 110 755 50 155 55 178 55 265 1 142 -31 226
-101 262 -45 22 -44 20 -23 64 36 74 55 157 55 239 0 65 -6 97 -33 175 -32 91
-33 99 -27 197 10 172 -12 236 -140 398 -147 186 -218 333 -319 665 -26 85
-64 211 -85 280 -128 415 -398 1344 -444 1527 -43 169 -49 237 -36 417 16 224
14 235 -115 606 -52 151 -78 199 -130 250 -28 27 -35 42 -35 72 0 20 -9 61
-21 90 -39 98 -6 255 76 367 77 104 79 112 81 251 1 114 4 131 30 190 27 61
29 73 28 190 0 139 -16 202 -93 365 -47 99 -94 144 -183 174 -39 13 -76 33
-93 51 l-28 30 22 106 c28 137 88 343 107 372 8 12 22 22 32 22 26 0 103 51
135 90 64 76 94 164 144 425 35 186 38 212 37 375 l-1 175 -52 215 c-92 381
-101 423 -118 555 -16 125 -16 175 6 1040 12 501 28 1099 36 1330 42 1247 62
1902 75 2405 5 234 12 452 14 485 3 33 30 222 60 420 112 734 133 885 125 885
-3 0 -22 -109 -42 -242z m-178 -1463 c-47 -1134 -132 -4025 -133 -4545 -1
-355 1 -371 100 -781 98 -407 102 -494 38 -849 -46 -253 -81 -357 -143 -423
-28 -31 -99 -72 -108 -63 -3 3 15 54 41 113 62 142 63 147 25 88 -118 -181
-229 -545 -271 -885 -27 -223 -13 -734 24 -815 6 -15 7 -12 2 10 -3 17 -8 164
-11 327 -5 271 2 442 24 566 l5 32 42 -37 c22 -21 65 -70 94 -110 69 -94 79
-95 13 -1 -27 40 -48 74 -46 76 2 2 29 -7 59 -21 64 -29 95 -71 146 -194 78
-188 91 -344 40 -483 -27 -73 -30 -93 -30 -198 0 -111 -2 -120 -29 -167 -16
-28 -50 -70 -76 -94 -42 -39 -51 -43 -82 -38 -20 4 -77 33 -127 66 -89 59
-283 157 -292 148 -2 -2 30 -19 71 -37 42 -18 124 -65 183 -103 126 -83 170
-101 208 -87 21 8 25 8 21 -4 -19 -49 -47 -153 -53 -193 -4 -38 0 -63 20 -117
14 -37 26 -77 26 -87 0 -18 -5 -17 -57 10 -110 55 -359 163 -488 212 -359 136
-936 251 -1450 289 -573 42 -1523 -42 -2041 -181 -102 -27 -189 -48 -191 -45
-3 2 26 44 64 93 134 172 368 540 449 706 16 33 35 57 44 57 19 0 60 28 60 41
0 5 -11 2 -25 -7 -14 -9 -28 -14 -31 -11 -3 3 7 29 22 59 43 84 147 331 199
473 26 72 52 141 56 154 9 23 9 23 62 -21 88 -75 157 -115 290 -169 71 -28
130 -49 133 -47 2 2 -51 27 -119 54 -126 51 -229 112 -307 181 l-44 40 32 93
c18 52 34 95 36 97 2 2 37 -7 77 -21 326 -108 872 -220 1274 -261 508 -52 843
-35 1269 61 60 14 122 24 137 22 28 -3 28 -4 -67 -123 -112 -139 -53 -91 74
61 136 162 207 305 247 499 21 97 31 349 17 385 -8 19 -11 1 -12 -85 0 -103
-20 -278 -32 -291 -8 -7 -70 80 -101 141 -32 64 -107 164 -152 204 -49 43
-104 69 -191 91 -111 29 -141 46 -181 106 l-35 52 17 219 c9 120 27 311 40
424 22 193 26 212 64 301 51 121 116 352 136 486 32 219 56 454 61 617 5 158
9 187 60 420 31 138 156 655 279 1150 306 1233 355 1454 486 2232 34 205 64
372 65 370 2 -1 -1 -106 -7 -232z m-2289 -2430 c6 -242 17 -561 25 -710 23
-440 15 -1391 -14 -1630 l-7 -60 -46 140 c-93 282 -101 323 -94 470 3 72 13
267 21 435 8 168 22 524 30 792 15 490 24 666 47 1008 l13 185 7 -95 c4 -52
12 -293 18 -535z m1370 -1642 c-18 -201 -59 -507 -81 -610 -26 -121 -92 -324
-96 -298 -5 29 94 611 173 1018 13 65 15 10 4 -110z m-1408 -716 l43 -119 -17
-246 c-10 -136 -27 -340 -38 -454 -11 -114 -20 -214 -20 -222 0 -23 -67 -93
-130 -136 -65 -44 -136 -81 -142 -75 -5 5 1 45 37 275 56 365 114 832 135
1100 6 74 13 155 16 180 6 45 6 45 40 -70 18 -63 53 -168 76 -233z m845 -165
c8 -53 16 -153 20 -222 6 -149 -14 -565 -29 -589 -14 -21 -87 -81 -100 -81 -7
0 -8 36 -3 103 19 294 83 902 94 892 2 -3 11 -49 18 -103z m-5 -1204 c-2 -194
-5 -354 -7 -356 -2 -2 -31 11 -64 30 l-61 33 1 105 c1 197 16 464 27 468 6 2
30 19 54 37 24 19 45 34 48 34 3 1 4 -157 2 -351z m-905 67 c-16 -127 -26
-180 -35 -179 -6 1 -62 2 -123 3 l-112 1 7 72 c10 111 9 109 99 155 45 23 105
62 132 87 28 24 51 43 52 42 1 -1 -8 -82 -20 -181z m1299 -53 c11 -6 50 -18
87 -26 37 -9 89 -27 115 -40 65 -33 162 -139 214 -233 23 -43 62 -102 86 -131
44 -54 44 -54 32 -99 -18 -73 -57 -162 -107 -245 -43 -71 -50 -78 -79 -78 -36
0 -148 72 -247 159 -32 28 -91 76 -131 105 l-73 54 -6 83 c-9 108 -9 330 0
448 l6 92 41 -39 c23 -22 50 -44 62 -50z m-1831 -59 c-4 -38 -8 -68 -9 -69 0
0 -58 -10 -127 -22 -69 -12 -161 -32 -204 -46 -44 -14 -81 -24 -82 -22 -5 5
56 159 67 170 7 7 280 50 348 55 11 1 12 -13 7 -66z m502 -98 c2 -1 -4 -55
-14 -121 l-16 -119 -49 -43 c-118 -106 -197 -246 -201 -356 -2 -61 -4 -66 -24
-66 -12 0 -24 4 -27 8 -5 8 44 447 65 577 6 39 13 84 15 102 l5 32 122 -6 c67
-3 123 -7 124 -8z m-542 -247 c-30 -251 -50 -376 -59 -386 -8 -7 -256 54 -403
100 l-92 28 34 93 c18 50 38 104 44 119 6 17 28 36 58 51 54 28 203 77 236 78
13 0 16 3 8 6 -19 8 -134 -24 -210 -59 -35 -15 -66 -26 -68 -24 -6 5 49 140
60 147 19 13 213 61 312 79 96 16 100 16 103 -1 2 -10 -8 -114 -23 -231z
m1477 -45 c4 -26 12 -142 18 -258 6 -115 13 -220 16 -231 7 -26 -16 -34 -97
-34 l-56 0 -6 128 c-4 70 -7 214 -7 320 l0 194 63 -35 c60 -34 62 -37 69 -84z
m-1005 -212 c-19 -122 -37 -224 -40 -227 -3 -3 -38 -1 -78 6 l-71 12 4 77 c5
82 32 148 91 226 37 48 119 136 124 131 2 -2 -12 -103 -30 -225z m1451 -21
c53 -51 119 -102 182 -141 l55 -34 -70 -17 c-93 -22 -115 -22 -116 0 0 13 -2
13 -9 -5 -5 -12 -17 -24 -27 -27 -47 -13 -138 -25 -144 -19 -5 7 -29 287 -29
346 0 15 11 10 61 -24 33 -24 77 -59 97 -79z m-1608 -1910 c0 -213 -3 -320
-10 -320 -6 0 -27 7 -47 15 -20 8 -38 14 -40 11 -2 -2 19 -13 47 -25 56 -24
57 -26 44 -150 l-7 -61 -96 51 c-144 76 -138 69 -216 287 l-51 144 42 176 c33
140 45 177 60 183 10 4 76 8 147 8 l127 1 0 -320z m473 309 c2 -2 -7 -92 -19
-199 -65 -541 -140 -1396 -176 -2020 -17 -294 -17 -1281 0 -1561 17 -269 33
-426 26 -245 -27 653 -30 996 -14 1452 16 439 59 1089 102 1533 l12 123 41 -5
c78 -8 136 -72 194 -212 52 -124 66 -189 65 -310 0 -109 -1 -112 -57 -263 -65
-177 -118 -379 -141 -537 -57 -394 -48 -980 35 -2250 33 -512 60 -759 99 -918
18 -73 35 -119 127 -334 35 -82 37 -95 38 -188 0 -81 -5 -118 -29 -197 -16
-54 -32 -98 -36 -98 -4 0 -10 11 -14 24 -3 12 -23 41 -43 63 -21 21 -28 28
-16 14 62 -73 78 -181 49 -342 -33 -183 -124 -288 -253 -291 -26 -1 -91 2
-143 6 -84 7 -107 5 -200 -17 -145 -35 -197 -40 -270 -27 -82 15 -149 49 -200
102 -54 56 -78 110 -96 210 -15 80 -47 189 -94 313 -16 40 -25 90 -28 151 -5
107 9 167 68 283 20 42 54 121 75 176 20 55 46 117 56 137 23 44 25 64 3 28
l-15 -25 6 30 c72 399 140 1892 116 2530 -22 556 -63 864 -141 1055 -13 30
-42 108 -65 174 l-43 118 42 57 c63 84 82 118 112 206 25 71 28 94 29 210 0
85 -5 143 -14 169 -16 46 -3 79 41 102 43 22 67 18 180 -38 l107 -53 0 -135
c1 -74 -10 -540 -24 -1035 -14 -495 -24 -1042 -23 -1215 l1 -315 8 290 c6 266
24 818 49 1595 6 168 13 617 17 999 l6 694 223 -5 c123 -2 225 -6 227 -9z
m-793 -8 c0 -19 -70 -302 -110 -441 -49 -172 -41 -146 -223 -715 -291 -907
-386 -1230 -522 -1786 -97 -399 -223 -1036 -212 -1077 3 -11 5 -9 6 7 2 49
125 634 187 896 100 418 230 885 383 1378 51 167 57 177 182 337 64 82 119
175 119 202 0 7 -13 -14 -28 -47 -16 -33 -56 -94 -88 -135 -33 -41 -72 -93
-87 -115 -15 -22 -27 -36 -27 -31 0 29 259 826 268 825 12 0 51 -54 76 -106
34 -66 45 -123 46 -218 0 -161 -50 -297 -156 -430 -75 -92 -142 -235 -210
-442 -219 -671 -315 -1243 -479 -2833 -41 -403 -48 -524 -42 -720 8 -220 21
-296 77 -459 60 -172 57 -209 -34 -436 -37 -93 -80 -192 -94 -219 -59 -109
-199 -209 -329 -237 -76 -15 -234 -6 -343 21 -112 27 -257 100 -326 163 -92
84 -135 175 -159 340 -9 56 -25 146 -36 201 -30 140 -24 238 21 326 31 62 151
239 194 288 11 12 17 22 13 22 -3 0 12 37 33 83 94 202 149 425 284 1172 210
1161 330 2096 312 2435 -8 158 -19 212 -79 385 l-52 150 1 130 c1 112 5 141
28 212 14 44 41 103 59 130 29 44 39 50 105 71 63 20 83 33 153 98 84 79 133
106 239 131 115 27 227 4 349 -71 31 -18 73 -39 94 -47 21 -7 37 -20 37 -29 0
-25 -134 -517 -220 -810 -311 -1049 -389 -1330 -506 -1809 -35 -146 -63 -269
-61 -274 2 -6 27 84 55 199 124 491 198 749 547 1914 125 420 242 882 290
1150 43 239 31 214 100 220 117 10 165 10 165 1z m987 -12 l101 -11 11 -62 c6
-33 29 -182 51 -331 22 -148 47 -310 56 -358 8 -49 14 -90 12 -91 -2 -2 -43
-22 -92 -46 -50 -24 -109 -63 -133 -85 l-43 -42 -19 31 c-11 17 -33 44 -50 60
-33 32 -39 46 -18 46 25 0 133 58 159 86 15 16 39 65 54 109 25 71 28 95 28
205 1 113 -2 132 -27 200 -16 41 -39 116 -53 165 -18 68 -23 78 -18 40 3 -27
22 -104 42 -170 32 -108 36 -132 36 -235 0 -98 -4 -127 -27 -195 -30 -91 -53
-118 -137 -161 -43 -21 -70 -28 -124 -29 l-68 -2 6 76 c10 111 75 729 82 779
6 41 7 42 38 38 17 -3 77 -10 133 -17z m-1237 -2 c0 -2 -14 -75 -31 -163 -26
-135 -42 -209 -74 -351 -5 -23 -6 -23 -48 -6 -23 9 -66 32 -95 51 -143 90
-310 102 -467 33 -42 -18 -46 -19 -41 -3 9 27 46 274 46 307 0 17 4 36 8 43
15 23 702 110 702 89z m1549 -37 c69 -11 126 -22 127 -23 2 -2 10 -88 19 -192
53 -630 166 -1563 254 -2100 79 -472 225 -1199 230 -1139 1 6 -17 98 -39 205
-86 423 -188 1038 -254 1529 -44 326 -110 920 -103 926 12 12 99 -28 181 -84
76 -51 85 -61 125 -136 24 -44 59 -112 79 -150 36 -66 37 -73 37 -170 0 -76
-7 -128 -27 -211 -53 -212 -57 -341 -22 -670 23 -216 59 -441 124 -785 182
-949 349 -1672 432 -1875 41 -99 42 -103 19 -75 -42 51 -152 259 -203 382 -28
70 -53 126 -56 124 -2 -2 17 -54 42 -114 83 -203 146 -316 266 -477 92 -122
135 -204 150 -284 11 -59 12 -169 1 -216 l-7 -30 -17 32 c-34 64 -31 39 4 -33
20 -41 42 -102 49 -135 29 -135 -30 -301 -149 -420 -108 -107 -231 -156 -421
-166 -171 -9 -283 24 -375 108 -56 51 -78 93 -101 185 -9 38 -44 123 -78 189
l-61 119 0 91 c0 101 26 195 76 273 60 95 121 317 118 431 -1 36 -3 29 -10
-30 -12 -116 -46 -246 -85 -324 -27 -56 -33 -63 -28 -35 20 124 24 174 24 335
0 301 -55 711 -244 1815 -115 665 -161 875 -229 1036 -31 75 -160 320 -177
337 -4 5 5 42 21 84 43 109 69 219 69 284 0 82 -27 212 -62 302 l-31 78 37 38
c36 37 180 121 208 121 11 0 19 -30 32 -122 10 -68 36 -231 57 -363 22 -132
60 -368 84 -525 24 -157 82 -519 129 -805 46 -286 90 -562 97 -614 7 -51 15
-89 17 -82 5 14 -30 280 -78 591 -22 140 -55 359 -74 485 -64 420 -146 948
-171 1095 -13 80 -40 251 -59 380 -19 129 -56 365 -81 523 -25 159 -45 293
-45 298 0 14 42 11 179 -11z m356 -70 c98 -22 179 -41 180 -43 1 -1 22 -58 48
-127 25 -69 82 -223 126 -343 45 -120 81 -220 81 -221 0 -9 -209 -99 -240
-103 -33 -5 -46 1 -102 40 -68 49 -182 107 -209 107 -19 0 -18 -5 -54 400 -28
305 -29 330 -16 330 4 0 88 -18 186 -40z m-2656 -147 c-16 -93 -35 -181 -41
-198 -17 -42 -105 -133 -152 -157 -22 -11 -65 -23 -96 -25 -93 -9 -128 19
-223 182 -22 39 -53 84 -69 101 l-28 30 35 34 c23 22 35 29 36 19 1 -7 4 -1 8
16 6 28 12 31 116 62 125 37 390 101 421 102 l21 1 -28 -167z m3021 53 l95
-31 63 -218 c205 -713 555 -1625 852 -2222 83 -165 71 -136 -78 205 -142 322
-302 714 -407 996 -80 212 -230 645 -240 692 -6 31 -1 38 110 155 64 67 128
127 143 134 36 16 115 16 155 -1 36 -15 107 -88 131 -135 16 -30 90 -234 141
-388 35 -105 44 -199 33 -354 -16 -239 -2 -323 147 -839 99 -346 160 -550 410
-1379 62 -205 121 -360 181 -479 l52 -103 -50 43 c-64 53 -151 166 -205 265
-24 43 -43 74 -43 69 0 -6 23 -51 50 -100 59 -107 129 -191 224 -272 89 -76
191 -201 230 -284 30 -64 30 -67 28 -203 -2 -130 -1 -144 28 -233 48 -151 39
-261 -34 -409 -67 -135 -215 -248 -375 -285 -73 -17 -211 -8 -281 19 -74 28
-121 78 -168 181 -27 57 -60 108 -100 152 -82 91 -97 134 -96 278 0 97 5 128
27 198 33 101 57 237 56 306 -1 42 -3 35 -11 -34 -4 -47 -17 -119 -27 -160
l-19 -75 -1 160 c-1 250 -14 311 -211 965 -389 1295 -486 1519 -787 1831
l-104 107 22 84 c16 58 22 114 23 188 1 119 -7 145 -78 263 -68 113 -79 137
-64 141 7 2 33 9 58 16 25 7 80 30 123 51 70 36 78 38 84 22 3 -10 17 -45 31
-78 13 -33 33 -82 42 -110 10 -27 64 -166 119 -309 220 -562 326 -863 560
-1596 62 -194 48 -126 -25 122 -150 511 -341 1051 -654 1853 -45 116 -95 246
-110 290 -16 44 -65 179 -110 300 -105 281 -99 258 -64 249 16 -4 72 -21 124
-38z m192 -65 c30 -10 110 -43 176 -71 l121 -53 6 -39 c6 -36 4 -44 -26 -76
-75 -82 -194 -202 -201 -202 -4 0 -19 39 -34 88 -76 249 -111 372 -104 372 4
0 32 -9 62 -19z m-3732 -226 c58 -103 104 -152 151 -162 16 -3 29 -7 29 -8 0
-1 -15 -28 -34 -59 -30 -50 -34 -53 -40 -33 -3 12 -6 31 -6 42 0 43 -52 124
-139 220 -50 55 -91 105 -91 111 0 5 5 15 12 22 19 19 55 -23 118 -133z m1507
-40 c24 -66 52 -132 63 -147 25 -35 25 -34 -9 -41 -15 -3 -42 -18 -59 -32 -30
-25 -31 -25 -41 -6 -6 11 -29 40 -50 65 l-39 45 35 118 c43 151 44 152 51 133
3 -8 25 -69 49 -135z m2601 107 l41 -18 -42 -11 c-23 -6 -42 -11 -43 -10 -1 1
-4 14 -8 30 -8 32 -2 33 52 9z m-6454 -1899 c-121 -201 -216 -406 -282 -609
-34 -104 -64 -202 -68 -219 l-7 -30 -14 35 c-31 72 -38 151 -21 236 32 161 89
264 239 429 45 50 111 129 146 178 36 48 67 87 69 87 2 0 -26 -48 -62 -107z
m-767 -3127 c74 -20 123 -51 163 -104 85 -113 140 -144 267 -150 112 -5 125
-15 131 -101 6 -81 -17 -121 -123 -211 -108 -92 -193 -185 -227 -247 -14 -26
-47 -109 -73 -183 -59 -169 -82 -219 -145 -309 -61 -86 -119 -131 -168 -131
-55 0 -72 22 -72 95 0 89 44 387 81 550 45 202 44 310 -5 461 -42 129 -47 204
-17 262 40 79 85 95 188 68z"/>
<path d="M10713 16100 c0 -47 2 -66 4 -42 2 23 2 61 0 85 -2 23 -4 4 -4 -43z"/>
<path d="M10677 15545 c-23 -740 -21 -934 15 -1147 18 -108 20 -72 4 53 -26
200 -28 309 -16 792 7 259 11 486 9 502 -3 17 -8 -73 -12 -200z"/>
<path d="M10161 14864 c0 -11 3 -14 6 -6 3 7 2 16 -1 19 -3 4 -6 -2 -5 -13z"/>
<path d="M10152 14790 c0 -14 2 -19 5 -12 2 6 2 18 0 25 -3 6 -5 1 -5 -13z"/>
<path d="M10136 14705 c-4 -27 -21 -99 -36 -160 -41 -155 -43 -167 -20 -107
25 68 72 279 67 301 -2 9 -7 -6 -11 -34z"/>
<path d="M10044 14358 c-4 -13 -26 -57 -49 -98 -23 -41 -61 -108 -84 -149 -47
-84 -51 -108 -4 -28 106 181 164 297 149 297 -2 0 -8 -10 -12 -22z"/>
<path d="M10711 14294 c0 -11 3 -14 6 -6 3 7 2 16 -1 19 -3 4 -6 -2 -5 -13z"/>
<path d="M10811 13844 c0 -11 3 -14 6 -6 3 7 2 16 -1 19 -3 4 -6 -2 -5 -13z"/>
<path d="M10851 13564 c0 -11 3 -14 6 -6 3 7 2 16 -1 19 -3 4 -6 -2 -5 -13z"/>
<path d="M10842 13450 c0 -14 2 -19 5 -12 2 6 2 18 0 25 -3 6 -5 1 -5 -13z"/>
<path d="M10830 13406 c0 -29 -29 -76 -48 -77 -11 0 -13 -2 -4 -6 28 -11 79
73 58 94 -3 4 -6 -1 -6 -11z"/>
<path d="M9860 13401 c0 -21 70 -148 93 -168 16 -14 15 -10 -5 17 -15 19 -40
64 -57 100 -17 36 -31 59 -31 51z"/>
<path d="M10637 13355 c-21 -7 -53 -25 -72 -39 -38 -29 -49 -49 -12 -22 70 52
82 57 127 53 25 -2 54 -7 65 -11 18 -7 19 -7 2 4 -36 23 -73 28 -110 15z"/>
<path d="M10542 13005 c0 -16 2 -22 5 -12 2 9 2 23 0 30 -3 6 -5 -1 -5 -18z"/>
<path d="M10532 12930 c0 -19 2 -27 5 -17 2 9 2 25 0 35 -3 9 -5 1 -5 -18z"/>
<path d="M10522 12865 c0 -16 2 -22 5 -12 2 9 2 23 0 30 -3 6 -5 -1 -5 -18z"/>
<path d="M10566 12715 c-25 -70 -46 -132 -46 -138 1 -7 23 48 51 122 27 74 48
136 45 138 -2 2 -24 -53 -50 -122z"/>
<path d="M10512 12805 c0 -16 2 -22 5 -12 2 9 2 23 0 30 -3 6 -5 -1 -5 -18z"/>
<path d="M10491 12714 c-21 -92 -109 -358 -152 -457 -46 -106 -46 -128 -1 -30
67 147 180 503 170 535 -2 6 -10 -15 -17 -48z"/>
<path d="M10662 12705 c-17 -37 -14 -45 4 -12 9 16 14 31 11 33 -2 2 -9 -7
-15 -21z"/>
<path d="M10631 12629 c-6 -18 -9 -34 -7 -36 2 -2 9 10 15 28 6 18 9 34 7 36
-2 2 -9 -10 -15 -28z"/>
<path d="M10567 12443 c-63 -192 -161 -642 -145 -659 3 -2 8 19 12 48 15 113
98 470 140 603 25 77 43 141 41 143 -2 2 -24 -59 -48 -135z"/>
<path d="M10457 12382 c-40 -129 -66 -227 -52 -197 12 26 106 338 102 341 -2
2 -24 -62 -50 -144z"/>
<path d="M7725 12220 c11 -5 29 -8 40 -8 16 0 15 2 -5 8 -34 11 -60 11 -35 0z"/>
<path d="M7835 12195 c28 -7 61 -13 75 -13 14 0 -2 6 -35 14 -76 17 -107 16
-40 -1z"/>
<path d="M7948 12173 c6 -2 18 -2 25 0 6 3 1 5 -13 5 -14 0 -19 -2 -12 -5z"/>
<path d="M8003 12163 c9 -2 23 -2 30 0 6 3 -1 5 -18 5 -16 0 -22 -2 -12 -5z"/>
<path d="M10391 12154 c0 -11 3 -14 6 -6 3 7 2 16 -1 19 -3 4 -6 -2 -5 -13z"/>
<path d="M8051 12156 c15 -14 604 -101 744 -110 l80 -5 -75 10 c-178 22 -377
52 -542 79 -170 29 -216 35 -207 26z"/>
<path d="M10381 12114 c0 -11 3 -14 6 -6 3 7 2 16 -1 19 -3 4 -6 -2 -5 -13z"/>
<path d="M10371 12074 c0 -11 3 -14 6 -6 3 7 2 16 -1 19 -3 4 -6 -2 -5 -13z"/>
<path d="M10361 12034 c0 -11 3 -14 6 -6 3 7 2 16 -1 19 -3 4 -6 -2 -5 -13z"/>
<path d="M8923 12033 c15 -2 37 -2 50 0 12 2 0 4 -28 4 -27 0 -38 -2 -22 -4z"/>
<path d="M7554 11994 c60 -41 311 -156 286 -131 -3 2 -43 21 -90 41 -47 21
-115 55 -152 77 -75 44 -102 52 -44 13z"/>
<path d="M7869 11988 c-7 -13 -16 -26 -22 -29 -6 -4 -6 -9 0 -12 5 -4 17 9 26
28 18 38 15 48 -4 13z"/>
<path d="M10341 11954 c-7 -30 -11 -57 -8 -60 2 -2 9 21 16 52 7 30 11 57 8
60 -2 2 -9 -21 -16 -52z"/>
<path d="M8298 11993 c7 -3 16 -2 19 1 4 3 -2 6 -13 5 -11 0 -14 -3 -6 -6z"/>
<path d="M8380 11974 c30 -7 75 -16 100 -18 25 -3 7 3 -40 14 -96 21 -145 25
-60 4z"/>
<path d="M8543 11943 c9 -2 23 -2 30 0 6 3 -1 5 -18 5 -16 0 -22 -2 -12 -5z"/>
<path d="M8603 11933 c9 -2 25 -2 35 0 9 3 1 5 -18 5 -19 0 -27 -2 -17 -5z"/>
<path d="M8660 11927 c3 -3 79 -13 170 -22 128 -14 212 -16 375 -11 116 3 230
10 255 16 l45 9 -50 -5 c-27 -2 -133 -7 -235 -10 -167 -6 -270 -1 -500 22 -36
4 -63 4 -60 1z"/>
<path d="M9528 11923 c7 -3 16 -2 19 1 4 3 -2 6 -13 5 -11 0 -14 -3 -6 -6z"/>
<path d="M9802 11833 c-2 -59 12 -52 -157 -79 -55 -8 -156 -19 -225 -24 l-125
-9 145 5 c80 2 191 12 248 22 l104 18 -6 -25 c-3 -15 -10 -61 -17 -103 l-12
-77 -141 4 c-137 3 -138 3 -36 -5 58 -4 121 -8 140 -9 l35 -1 0 -88 c0 -48 3
-94 7 -102 3 -8 18 -53 32 -100 14 -47 35 -103 46 -125 24 -47 23 -44 -26 100
-30 90 -38 129 -42 214 l-5 104 79 -6 c186 -15 269 -19 264 -14 -3 3 -79 11
-170 18 -91 6 -166 13 -167 14 -6 4 30 191 38 200 6 6 38 18 72 27 57 16 48
16 -40 1 -32 -5 -32 -5 -36 43 l-3 49 -2 -52z"/>
<path d="M10322 11860 c0 -14 2 -19 5 -12 2 6 2 18 0 25 -3 6 -5 1 -5 -13z"/>
<path d="M7755 11830 c27 -30 72 -53 80 -40 3 6 0 10 -8 10 -8 0 -32 12 -53
26 -35 24 -37 24 -19 4z"/>
<path d="M10311 11814 c0 -11 3 -14 6 -6 3 7 2 16 -1 19 -3 4 -6 -2 -5 -13z"/>
<path d="M9958 11813 c7 -3 16 -2 19 1 4 3 -2 6 -13 5 -11 0 -14 -3 -6 -6z"/>
<path d="M7481 11796 c9 -9 219 -68 308 -87 148 -30 139 -21 -15 16 -77 18
-171 43 -208 54 -65 20 -94 26 -85 17z"/>
<path d="M10412 11740 c0 -19 2 -27 5 -17 2 9 2 25 0 35 -3 9 -5 1 -5 -18z"/>
<path d="M10807 11684 c34 -76 30 -147 -16 -236 -19 -36 -31 -71 -28 -79 4
-10 6 -9 6 4 1 9 15 42 32 73 45 79 51 162 16 238 -14 31 -28 56 -31 56 -3 0
7 -25 21 -56z"/>
<path d="M9073 11723 c9 -2 23 -2 30 0 6 3 -1 5 -18 5 -16 0 -22 -2 -12 -5z"/>
<path d="M7928 11683 c6 -2 18 -2 25 0 6 3 1 5 -13 5 -14 0 -19 -2 -12 -5z"/>
<path d="M7983 11673 c9 -2 23 -2 30 0 6 3 -1 5 -18 5 -16 0 -22 -2 -12 -5z"/>
<path d="M10401 11654 c0 -11 3 -14 6 -6 3 7 2 16 -1 19 -3 4 -6 -2 -5 -13z"/>
<path d="M7689 11595 c-11 -12 -22 -13 -49 -5 -70 20 -140 12 -230 -27 -72
-30 -179 -62 -267 -79 -12 -2 -40 -27 -62 -55 -41 -51 -55 -83 -26 -59 12 10
15 10 16 -1 0 -8 11 9 24 38 25 56 25 56 130 72 58 9 95 21 220 75 65 28 122
32 191 15 48 -12 94 -1 94 22 0 8 -6 7 -17 -2 -15 -12 -16 -12 -10 4 8 21 6
21 -14 2z"/>
<path d="M10133 11523 c9 -2 23 -2 30 0 6 3 -1 5 -18 5 -16 0 -22 -2 -12 -5z"/>
<path d="M9170 11484 c169 -20 360 -52 468 -80 53 -13 97 -22 99 -20 5 5 -142
44 -232 61 -109 21 -371 55 -414 54 -20 -1 16 -7 79 -15z"/>
<path d="M7650 11460 c-53 -6 -53 -7 -12 -8 46 -2 47 -3 31 -35 -7 -15 -2 -12
15 8 20 24 35 51 24 43 -2 -1 -28 -4 -58 -8z"/>
<path d="M8123 11443 c26 -2 68 -2 95 0 26 2 4 3 -48 3 -52 0 -74 -1 -47 -3z"/>
<path d="M8510 11440 c80 -4 239 -20 354 -35 114 -14 210 -24 212 -22 13 13
-388 57 -551 61 l-160 5 145 -9z"/>
<path d="M7998 11433 c12 -2 30 -2 40 0 9 3 -1 5 -23 4 -22 0 -30 -2 -17 -4z"/>
<path d="M7250 11400 c0 -4 9 -19 20 -32 31 -40 104 -69 184 -73 39 -3 62 -2
51 2 -15 4 -5 10 40 24 73 21 52 25 -25 4 -102 -27 -174 -14 -232 45 -21 21
-38 34 -38 30z"/>
<path d="M9103 11373 c9 -2 23 -2 30 0 6 3 -1 5 -18 5 -16 0 -22 -2 -12 -5z"/>
<path d="M10761 11342 c-1 -7 6 -39 15 -72 23 -81 8 -132 -59 -208 l-51 -57
48 45 c83 78 99 135 67 240 -11 36 -20 59 -20 52z"/>
<path d="M7990 11304 c-272 -25 -389 -37 -410 -44 l-25 -8 26 -1 c15 -1 32 -8
39 -16 7 -8 18 -15 24 -14 7 0 6 2 -1 6 -18 7 -16 20 3 27 21 8 291 35 454 45
l135 8 -105 0 c-58 0 -121 -2 -140 -3z"/>
<path d="M7538 11283 c7 -3 16 -2 19 1 4 3 -2 6 -13 5 -11 0 -14 -3 -6 -6z"/>
<path d="M7066 11228 c-9 -36 -7 -141 4 -158 7 -10 10 8 10 60 0 41 3 85 6 98
4 12 2 22 -4 22 -5 0 -12 -10 -16 -22z"/>
<path d="M7508 11243 c6 -2 18 -2 25 0 6 3 1 5 -13 5 -14 0 -19 -2 -12 -5z"/>
<path d="M7555 11140 c11 -5 38 -8 60 -8 38 0 39 1 10 8 -16 4 -43 8 -60 8
-25 1 -27 -1 -10 -8z"/>
<path d="M8978 11123 c7 -3 16 -2 19 1 4 3 -2 6 -13 5 -11 0 -14 -3 -6 -6z"/>
<path d="M9053 11113 c9 -2 23 -2 30 0 6 3 -1 5 -18 5 -16 0 -22 -2 -12 -5z"/>
<path d="M9115 11103 c11 -2 67 -13 125 -24 157 -31 441 -104 559 -144 58 -19
106 -33 108 -31 15 14 -487 153 -686 190 -74 14 -166 22 -106 9z"/>
<path d="M7449 11079 c-136 -17 -353 -59 -345 -66 2 -2 62 7 132 21 159 30
301 49 333 45 17 -3 27 -14 35 -38 6 -19 18 -37 26 -39 11 -4 10 -1 -3 12 -9
10 -17 30 -17 46 0 27 3 29 43 33 35 3 32 4 -13 4 -30 0 -116 -8 -191 -18z"/>
<path d="M9860 11085 c0 -5 5 -17 10 -25 5 -8 10 -10 10 -5 0 6 -5 17 -10 25
-5 8 -10 11 -10 5z"/>
<path d="M7750 11027 c11 -19 30 -43 42 -53 15 -14 12 -5 -10 28 -38 56 -61
74 -32 25z"/>
<path d="M8240 10995 c-96 -8 -186 -16 -200 -19 -31 -6 124 2 295 14 483 35
989 -26 1460 -174 60 -19 111 -33 113 -31 13 12 -331 109 -558 156 -294 61
-748 83 -1110 54z"/>
<path d="M7028 10938 c-22 -33 -52 -95 -41 -83 20 21 73 93 73 99 0 14 -19 4
-32 -16z"/>
<path d="M6758 10833 c6 -2 18 -2 25 0 6 3 1 5 -13 5 -14 0 -19 -2 -12 -5z"/>
<path d="M6698 10823 c7 -3 16 -2 19 1 4 3 -2 6 -13 5 -11 0 -14 -3 -6 -6z"/>
<path d="M10500 10764 c0 -7 71 -36 76 -31 2 2 -14 11 -36 20 -22 8 -40 13
-40 11z"/>
<path d="M10050 10730 c8 -5 20 -10 25 -10 6 0 3 5 -5 10 -8 5 -19 10 -25 10
-5 0 -3 -5 5 -10z"/>
<path d="M10100 10710 c8 -5 20 -10 25 -10 6 0 3 5 -5 10 -8 5 -19 10 -25 10
-5 0 -3 -5 5 -10z"/>
<path d="M8438 13518 c-26 -40 -35 -58 -20 -41 26 30 77 113 70 113 -2 0 -24
-33 -50 -72z"/>
<path d="M7843 12803 c9 -2 25 -2 35 0 9 3 1 5 -18 5 -19 0 -27 -2 -17 -5z"/>
<path d="M9963 12295 c0 -22 2 -30 4 -17 2 12 2 30 0 40 -3 9 -5 -1 -4 -23z"/>
<path d="M8682 10730 c0 -19 2 -27 5 -17 2 9 2 25 0 35 -3 9 -5 1 -5 -18z"/>
<path d="M8523 10700 c0 -25 2 -35 4 -22 2 12 2 32 0 45 -2 12 -4 2 -4 -23z"/>
<path d="M8672 10625 c0 -16 2 -22 5 -12 2 9 2 23 0 30 -3 6 -5 -1 -5 -18z"/>
<path d="M8513 10595 c0 -27 2 -38 4 -22 2 15 2 37 0 50 -2 12 -4 0 -4 -28z"/>
<path d="M8413 10480 c0 -41 2 -58 4 -37 2 20 2 54 0 75 -2 20 -4 3 -4 -38z"/>
<path d="M8501 10528 c0 -10 -10 -111 -21 -225 -26 -277 -50 -638 -48 -716 2
-71 0 -88 23 258 9 127 25 328 36 448 11 120 18 226 16 235 -4 15 -5 15 -6 0z"/>
<path d="M8652 10395 c0 -16 2 -22 5 -12 2 9 2 23 0 30 -3 6 -5 -1 -5 -18z"/>
<path d="M8404 10275 c0 -55 1 -76 3 -47 2 29 2 74 0 100 -2 26 -3 2 -3 -53z"/>
<path d="M8643 10285 c0 -22 2 -30 4 -17 2 12 2 30 0 40 -3 9 -5 -1 -4 -23z"/>
<path d="M8633 10200 c0 -25 2 -35 4 -22 2 12 2 32 0 45 -2 12 -4 2 -4 -23z"/>
<path d="M8394 10065 c0 -60 1 -84 3 -52 2 32 2 81 0 110 -2 29 -3 3 -3 -58z"/>
<path d="M8602 9965 c-61 -514 -96 -1007 -106 -1495 l-5 -215 9 185 c36 753
53 985 101 1414 16 147 29 276 27 285 -2 9 -14 -69 -26 -174z"/>
<path d="M8145 9900 c-11 -4 -29 -18 -40 -31 l-20 -22 32 23 c26 19 40 22 79
17 26 -3 41 -2 33 3 -26 14 -64 18 -84 10z"/>
<path d="M8383 9820 c0 -47 2 -66 4 -42 2 23 2 61 0 85 -2 23 -4 4 -4 -43z"/>
<path d="M8423 9425 c0 -44 2 -61 4 -37 2 23 2 59 0 80 -2 20 -4 1 -4 -43z"/>
<path d="M8913 9420 c0 -116 -15 -175 -84 -315 -54 -112 -110 -254 -109 -279
1 -6 16 30 34 79 18 50 56 135 83 190 28 55 56 118 62 140 19 69 29 168 22
220 -7 44 -8 39 -8 -35z"/>
<path d="M8413 9235 c0 -33 2 -45 4 -27 2 18 2 45 0 60 -2 15 -4 0 -4 -33z"/>
<path d="M7966 9185 c3 -16 26 -77 51 -135 64 -146 81 -199 109 -325 16 -70
22 -90 19 -55 -10 97 -45 211 -110 365 -34 83 -65 157 -69 165 -3 8 -4 2 0
-15z"/>
<path d="M8402 9060 c0 -19 2 -27 5 -17 2 9 2 25 0 35 -3 9 -5 1 -5 -18z"/>
<path d="M8392 8930 c0 -14 2 -19 5 -12 2 6 2 18 0 25 -3 6 -5 1 -5 -13z"/>
<path d="M8711 8794 c0 -11 3 -14 6 -6 3 7 2 16 -1 19 -3 4 -6 -2 -5 -13z"/>
<path d="M8152 8585 c0 -16 2 -22 5 -12 2 9 2 23 0 30 -3 6 -5 -1 -5 -18z"/>
<path d="M8484 8120 c0 -74 1 -105 3 -67 2 37 2 97 0 135 -2 37 -3 6 -3 -68z"/>
<path d="M8314 7945 c0 -66 1 -92 3 -57 2 34 2 88 0 120 -2 31 -3 3 -3 -63z"/>
<path d="M8473 7825 c0 -44 2 -61 4 -37 2 23 2 59 0 80 -2 20 -4 1 -4 -43z"/>
<path d="M8324 7625 c0 -104 2 -146 3 -92 2 54 2 139 0 190 -1 51 -3 7 -3 -98z"/>
<path d="M8613 6635 c0 -27 2 -38 4 -22 2 15 2 37 0 50 -2 12 -4 0 -4 -28z"/>
<path d="M8172 6435 c0 -16 2 -22 5 -12 2 9 2 23 0 30 -3 6 -5 -1 -5 -18z"/>
<path d="M8157 6305 c-5 -44 -17 -129 -27 -190 -30 -170 -31 -186 -10 -105 22
85 54 316 48 351 -2 13 -7 -12 -11 -56z"/>
<path d="M8077 5858 c-10 -39 -16 -73 -13 -75 2 -2 11 28 21 67 10 39 15 73
13 75 -2 3 -12 -27 -21 -67z"/>
<path d="M8021 5668 c-45 -139 -45 -137 -33 -118 14 22 73 201 70 212 -2 5
-19 -37 -37 -94z"/>
<path d="M8811 5393 c-1 -17 54 -170 106 -297 24 -60 48 -136 53 -170 l9 -61
-4 68 c-3 49 -14 89 -41 150 -20 45 -56 136 -80 202 -24 66 -43 115 -43 108z"/>
<path d="M7826 4761 c39 -46 86 -131 111 -199 15 -42 22 -54 19 -32 -9 53 -71
172 -113 217 -21 21 -28 28 -17 14z"/>
<path d="M8622 4739 c-23 -12 -66 -48 -95 -81 -29 -33 -76 -78 -106 -99 -30
-22 -50 -39 -44 -39 17 0 85 55 148 120 98 101 105 104 225 111 l105 6 -95 1
c-79 2 -102 -2 -138 -19z"/>
<path d="M7962 4470 c0 -14 2 -19 5 -12 2 6 2 18 0 25 -3 6 -5 1 -5 -13z"/>
<path d="M7777 10423 c-21 -69 -36 -127 -34 -129 2 -3 21 52 42 121 20 70 35
128 33 130 -2 2 -21 -52 -41 -122z"/>
<path d="M7726 10254 c-4 -14 -5 -28 -3 -31 3 -2 8 8 11 23 4 14 5 28 3 31 -3
2 -8 -8 -11 -23z"/>
<path d="M7230 10215 c46 -18 64 -17 25 0 -16 8 -37 14 -45 14 -8 0 1 -7 20
-14z"/>
<path d="M7692 10137 c-12 -39 -48 -157 -81 -262 -124 -404 -143 -467 -138
-471 2 -3 12 24 22 58 9 35 36 124 60 198 86 267 167 541 163 545 -2 3 -14
-28 -26 -68z"/>
<path d="M7317 10180 c46 -28 113 -61 113 -56 0 5 -128 76 -138 76 -4 0 7 -9
25 -20z"/>
<path d="M6905 10080 c-44 -45 -97 -88 -117 -97 -43 -19 -45 -29 -3 -13 41 15
96 62 155 130 29 33 50 60 48 60 -2 0 -39 -36 -83 -80z"/>
<path d="M7425 9270 c-21 -66 -36 -122 -33 -125 2 -2 21 50 41 117 21 66 36
122 34 124 -2 2 -21 -50 -42 -116z"/>
<path d="M6695 9355 c38 -127 55 -193 66 -260 20 -121 17 -559 -5 -769 -9 -92
-15 -170 -13 -172 5 -5 23 157 37 331 13 159 13 422 -1 543 -12 119 -41 242
-69 302 -11 25 -18 36 -15 25z"/>
<path d="M7371 9084 c0 -11 3 -14 6 -6 3 7 2 16 -1 19 -3 4 -6 -2 -5 -13z"/>
<path d="M7346 9004 c-4 -14 -5 -28 -3 -31 3 -2 8 8 11 23 4 14 5 28 3 31 -3
2 -8 -8 -11 -23z"/>
<path d="M7316 8904 c-10 -31 -16 -58 -14 -60 3 -2 12 21 22 52 10 31 16 58
14 60 -3 2 -12 -21 -22 -52z"/>
<path d="M7206 8534 c-4 -14 -5 -28 -3 -31 3 -2 8 8 11 23 4 14 5 28 3 31 -3
2 -8 -8 -11 -23z"/>
<path d="M6733 8105 c0 -22 2 -30 4 -17 2 12 2 30 0 40 -3 9 -5 -1 -4 -23z"/>
<path d="M6722 8035 c0 -16 2 -22 5 -12 2 9 2 23 0 30 -3 6 -5 -1 -5 -18z"/>
<path d="M6811 7304 c0 -11 3 -14 6 -6 3 7 2 16 -1 19 -3 4 -6 -2 -5 -13z"/>
<path d="M6902 6750 c0 -14 2 -19 5 -12 2 6 2 18 0 25 -3 6 -5 1 -5 -13z"/>
<path d="M6891 6684 c0 -11 3 -14 6 -6 3 7 2 16 -1 19 -3 4 -6 -2 -5 -13z"/>
<path d="M6487 6258 c-15 -61 -26 -113 -24 -115 3 -2 17 46 32 107 15 61 26
113 23 115 -2 2 -16 -46 -31 -107z"/>
<path d="M6451 6114 c0 -11 3 -14 6 -6 3 7 2 16 -1 19 -3 4 -6 -2 -5 -13z"/>
<path d="M6411 5987 c-84 -257 -169 -417 -287 -534 -39 -40 -68 -73 -64 -73
20 0 170 175 209 243 52 92 121 257 157 374 37 120 25 112 -15 -10z"/>
<path d="M6962 5390 c-1 -81 11 -196 29 -273 18 -75 20 -49 4 32 -9 40 -19
128 -24 194 -7 102 -8 110 -9 47z"/>
<path d="M7010 5054 c0 -7 18 -54 39 -106 22 -51 41 -107 44 -123 l4 -30 1 30
c1 17 -19 77 -43 135 -24 58 -44 100 -45 94z"/>
<path d="M6645 4752 c-27 -10 -83 -36 -123 -59 -84 -49 -149 -73 -195 -73 -49
0 -129 43 -171 91 -21 24 -34 35 -28 23 22 -43 87 -95 140 -111 74 -24 139 -8
261 61 110 63 171 81 244 73 33 -3 45 -2 32 3 -33 14 -107 10 -160 -8z"/>
<path d="M7092 4715 c0 -16 2 -22 5 -12 2 9 2 23 0 30 -3 6 -5 -1 -5 -18z"/>
<path d="M7081 4664 c0 -11 3 -14 6 -6 3 7 2 16 -1 19 -3 4 -6 -2 -5 -13z"/>
<path d="M7280 10510 c98 -9 158 -24 213 -52 22 -11 41 -17 43 -15 7 7 -107
55 -156 66 -25 6 -76 10 -115 9 l-70 -1 85 -7z"/>
<path d="M9202 10710 c0 -14 2 -19 5 -12 2 6 2 18 0 25 -3 6 -5 1 -5 -13z"/>
<path d="M9331 10704 c0 -11 3 -14 6 -6 3 7 2 16 -1 19 -3 4 -6 -2 -5 -13z"/>
<path d="M9212 10630 c0 -14 2 -19 5 -12 2 6 2 18 0 25 -3 6 -5 1 -5 -13z"/>
<path d="M9342 10610 c0 -14 2 -19 5 -12 2 6 2 18 0 25 -3 6 -5 1 -5 -13z"/>
<path d="M9222 10555 c0 -16 2 -22 5 -12 2 9 2 23 0 30 -3 6 -5 -1 -5 -18z"/>
<path d="M9352 10480 c0 -19 2 -27 5 -17 2 9 2 25 0 35 -3 9 -5 1 -5 -18z"/>
<path d="M9232 10460 c0 -19 2 -27 5 -17 2 9 2 25 0 35 -3 9 -5 1 -5 -18z"/>
<path d="M9243 10375 c0 -22 2 -30 4 -17 2 12 2 30 0 40 -3 9 -5 -1 -4 -23z"/>
<path d="M9363 10370 c0 -25 2 -35 4 -22 2 12 2 32 0 45 -2 12 -4 2 -4 -23z"/>
<path d="M9251 10316 c-1 -11 19 -166 43 -345 25 -179 59 -436 75 -571 37
-300 74 -547 78 -533 3 7 -10 108 -26 225 -17 117 -51 377 -76 578 -45 359
-92 683 -94 646z"/>
<path d="M9371 10284 c-5 -114 163 -1431 185 -1453 7 -8 5 13 -26 211 -32 205
-86 621 -120 928 -11 102 -24 221 -29 265 -4 44 -9 66 -10 49z"/>
<path d="M9831 9334 c0 -11 3 -14 6 -6 3 7 2 16 -1 19 -3 4 -6 -2 -5 -13z"/>
<path d="M9792 9203 c-45 -156 -52 -210 -50 -367 l1 -141 7 165 c7 162 18 227
61 373 11 38 19 71 16 73 -2 2 -18 -44 -35 -103z"/>
<path d="M9452 8815 c0 -16 2 -22 5 -12 2 9 2 23 0 30 -3 6 -5 -1 -5 -18z"/>
<path d="M9562 8795 c0 -16 2 -22 5 -12 2 9 2 23 0 30 -3 6 -5 -1 -5 -18z"/>
<path d="M9462 8745 c0 -16 2 -22 5 -12 2 9 2 23 0 30 -3 6 -5 -1 -5 -18z"/>
<path d="M9572 8730 c0 -14 2 -19 5 -12 2 6 2 18 0 25 -3 6 -5 1 -5 -13z"/>
<path d="M9582 8670 c0 -14 2 -19 5 -12 2 6 2 18 0 25 -3 6 -5 1 -5 -13z"/>
<path d="M9601 8544 c0 -11 3 -14 6 -6 3 7 2 16 -1 19 -3 4 -6 -2 -5 -13z"/>
<path d="M9492 8530 c0 -14 2 -19 5 -12 2 6 2 18 0 25 -3 6 -5 1 -5 -13z"/>
<path d="M9612 8490 c0 -14 2 -19 5 -12 2 6 2 18 0 25 -3 6 -5 1 -5 -13z"/>
<path d="M9502 8470 c0 -14 2 -19 5 -12 2 6 2 18 0 25 -3 6 -5 1 -5 -13z"/>
<path d="M9622 8440 c0 -14 2 -19 5 -12 2 6 2 18 0 25 -3 6 -5 1 -5 -13z"/>
<path d="M9512 8410 c0 -14 2 -19 5 -12 2 6 2 18 0 25 -3 6 -5 1 -5 -13z"/>
<path d="M9632 8385 c0 -16 2 -22 5 -12 2 9 2 23 0 30 -3 6 -5 -1 -5 -18z"/>
<path d="M9522 8350 c0 -14 2 -19 5 -12 2 6 2 18 0 25 -3 6 -5 1 -5 -13z"/>
<path d="M9642 8330 c0 -14 2 -19 5 -12 2 6 2 18 0 25 -3 6 -5 1 -5 -13z"/>
<path d="M9531 8294 c0 -11 3 -14 6 -6 3 7 2 16 -1 19 -3 4 -6 -2 -5 -13z"/>
<path d="M9651 8284 c0 -11 3 -14 6 -6 3 7 2 16 -1 19 -3 4 -6 -2 -5 -13z"/>
<path d="M9661 8234 c0 -11 3 -14 6 -6 3 7 2 16 -1 19 -3 4 -6 -2 -5 -13z"/>
<path d="M9612 7365 c0 -16 2 -22 5 -12 2 9 2 23 0 30 -3 6 -5 -1 -5 -18z"/>
<path d="M9622 7300 c0 -14 2 -19 5 -12 2 6 2 18 0 25 -3 6 -5 1 -5 -13z"/>
<path d="M9911 7284 c0 -11 3 -14 6 -6 3 7 2 16 -1 19 -3 4 -6 -2 -5 -13z"/>
<path d="M10480 5205 c-13 -14 -47 -37 -75 -51 -48 -23 -60 -24 -191 -22 -91
1 -148 -2 -164 -10 -23 -11 -22 -12 10 -5 19 4 93 6 164 4 120 -2 132 -1 180
23 43 21 122 86 105 86 -3 0 -16 -11 -29 -25z"/>
<path d="M9633 5100 c40 -34 63 -71 83 -135 7 -22 13 -31 13 -20 1 50 -65 152
-114 177 -11 5 -3 -4 18 -22z"/>
<path d="M9733 4865 c0 -33 2 -45 4 -27 2 18 2 45 0 60 -2 15 -4 0 -4 -33z"/>
<path d="M9899 10163 c-8 -9 -36 -27 -64 -39 -59 -28 -125 -31 -208 -9 -72 19
-84 18 -32 -1 22 -9 75 -18 117 -21 69 -5 82 -3 131 21 52 25 101 66 80 66 -6
0 -17 -7 -24 -17z"/>
<path d="M6792 10520 c0 -14 2 -19 5 -12 2 6 2 18 0 25 -3 6 -5 1 -5 -13z"/>
<path d="M6450 10502 c0 -6 27 -42 60 -81 75 -86 126 -111 183 -88 38 16 81
78 92 132 3 18 -2 11 -14 -19 -36 -87 -88 -125 -145 -106 -31 10 -109 83 -154
144 -12 16 -22 24 -22 18z"/>
<path d="M9960 10458 c0 -20 160 -457 291 -798 111 -288 132 -340 136 -337 2
2 -36 105 -83 228 -167 434 -216 566 -275 734 -54 152 -69 190 -69 173z"/>
<path d="M10085 10333 c3 -10 33 -97 66 -193 71 -208 121 -341 126 -336 2 2
-23 77 -55 167 -32 90 -76 212 -97 272 -20 59 -39 107 -42 107 -3 0 -2 -8 2
-17z"/>
<path d="M10773 9934 c49 -72 68 -111 84 -169 l13 -50 -5 45 c-7 57 -44 134
-91 185 l-36 40 35 -51z"/>
<path d="M10446 9837 c-22 -29 -28 -43 -15 -30 21 19 65 83 57 83 -2 0 -20
-24 -42 -53z"/>
<path d="M10290 9756 c0 -14 83 -217 87 -212 4 3 -74 207 -83 215 -2 2 -4 1
-4 -3z"/>
<path d="M10940 9183 c-17 -98 -14 -264 5 -371 10 -51 19 -91 21 -89 3 2 -2
44 -11 92 -17 101 -20 271 -5 364 6 35 9 65 7 68 -3 2 -10 -26 -17 -64z"/>
<path d="M10434 9185 c23 -66 60 -155 63 -151 4 4 -56 158 -64 166 -4 3 -3 -4
1 -15z"/>
<path d="M10560 8845 c0 -5 5 -17 10 -25 5 -8 10 -10 10 -5 0 6 -5 17 -10 25
-5 8 -10 11 -10 5z"/>
<path d="M10580 8795 c0 -5 5 -17 10 -25 5 -8 10 -10 10 -5 0 6 -5 17 -10 25
-5 8 -10 11 -10 5z"/>
<path d="M10881 7690 c0 -8 4 -24 9 -35 5 -13 9 -14 9 -5 0 8 -4 24 -9 35 -5
13 -9 14 -9 5z"/>
<path d="M10911 7584 c0 -11 3 -14 6 -6 3 7 2 16 -1 19 -3 4 -6 -2 -5 -13z"/>
<path d="M11084 6515 c0 -55 1 -76 3 -47 2 29 2 74 0 100 -2 26 -3 2 -3 -53z"/>
<path d="M11923 6155 c0 -22 2 -30 4 -17 2 12 2 30 0 40 -3 9 -5 -1 -4 -23z"/>
<path d="M11912 6080 c0 -14 2 -19 5 -12 2 6 2 18 0 25 -3 6 -5 1 -5 -13z"/>
<path d="M11892 6017 c-38 -105 -138 -176 -262 -188 l-75 -7 80 2 c89 3 123
16 186 73 40 36 93 125 87 144 -2 6 -9 -5 -16 -24z"/>
<path d="M11468 5843 c7 -3 16 -2 19 1 4 3 -2 6 -13 5 -11 0 -14 -3 -6 -6z"/>
<path d="M11518 5833 c6 -2 18 -2 25 0 6 3 1 5 -13 5 -14 0 -19 -2 -12 -5z"/>
<path d="M11182 5748 c49 -46 60 -75 68 -183 l7 -90 1 75 c1 41 -3 92 -8 112
-12 41 -50 92 -84 110 -11 6 -4 -4 16 -24z"/>
<path d="M3477 5124 c29 -27 64 -69 78 -94 29 -53 34 -46 6 8 -18 35 -73 92
-116 122 -11 7 4 -9 32 -36z"/>
<path d="M3580 4975 c0 -5 5 -17 10 -25 5 -8 10 -10 10 -5 0 6 -5 17 -10 25
-5 8 -10 11 -10 5z"/>
<path d="M3590 4700 c-17 -22 -29 -40 -27 -40 3 0 20 18 37 40 17 22 29 40 27
40 -3 0 -20 -18 -37 -40z"/>
<path d="M5371 20909 c-5 -122 133 -1292 209 -1764 63 -389 157 -1086 195
-1430 56 -522 92 -1126 116 -1950 13 -457 4 -815 -30 -1190 -64 -693 -65 -709
-66 -985 0 -151 4 -441 9 -645 9 -394 3 -528 -34 -735 -75 -412 -255 -743
-630 -1155 -147 -162 -266 -320 -375 -500 -72 -119 -259 -489 -369 -730 -209
-458 -402 -814 -696 -1285 -81 -129 -163 -266 -182 -305 -101 -202 -146 -407
-183 -835 -42 -495 -90 -706 -275 -1210 -198 -540 -195 -527 -211 -975 -20
-571 -13 -525 -122 -900 -97 -337 -127 -457 -147 -601 -15 -101 -4 -130 77
-204 168 -154 457 -187 729 -85 501 188 951 877 1069 1635 9 58 23 150 31 205
14 88 21 108 59 166 142 217 211 385 369 900 60 195 126 337 126 272 0 -10 16
-88 36 -173 66 -289 74 -330 94 -467 22 -148 34 -330 50 -773 12 -329 26 -477
74 -778 57 -352 58 -384 62 -1217 4 -1041 11 -1195 63 -1432 68 -312 232 -530
496 -659 160 -78 239 -97 410 -97 170 -1 272 21 414 90 147 70 260 196 328
365 48 118 62 221 73 538 14 404 32 606 96 1069 60 441 100 581 166 581 24 0
42 -42 74 -168 44 -175 54 -320 84 -1297 15 -485 26 -566 96 -715 75 -159 189
-275 349 -351 135 -65 216 -82 395 -83 185 0 248 13 395 84 162 78 278 205
350 384 62 152 79 296 91 739 4 141 10 257 13 257 4 0 18 -33 30 -73 34 -105
94 -230 145 -301 291 -407 929 -447 1288 -80 74 76 102 114 144 196 75 149 99
285 110 647 l7 210 59 -54 c181 -164 446 -210 678 -118 226 90 409 278 500
516 73 189 88 318 100 867 10 500 19 673 56 1105 46 551 32 800 -75 1305 -57
267 -98 588 -151 1170 -73 808 -170 1377 -317 1870 -75 252 -174 522 -406
1110 -168 424 -230 739 -231 1165 0 256 5 314 59 655 60 379 66 513 39 855
-21 272 -29 800 -15 1030 32 524 78 944 241 2240 62 491 142 1152 175 1445 14
124 41 349 60 500 77 617 231 2080 222 2120 -1 8 -11 -59 -20 -150 -33 -306
-96 -842 -156 -1330 -33 -267 -72 -584 -86 -705 -14 -121 -43 -362 -65 -535
-22 -173 -53 -432 -70 -575 -17 -143 -44 -363 -60 -490 -56 -433 -179 -1440
-204 -1670 -84 -768 -101 -1349 -55 -1855 16 -179 16 -492 0 -610 -7 -52 -28
-189 -47 -305 -47 -288 -54 -367 -54 -610 0 -455 71 -780 292 -1335 296 -744
408 -1103 508 -1635 71 -379 105 -647 175 -1380 47 -486 74 -688 135 -990 75
-369 90 -488 97 -735 4 -179 1 -264 -21 -510 -37 -432 -45 -574 -56 -1100 -6
-261 -15 -514 -20 -562 -38 -336 -158 -572 -373 -734 -170 -127 -379 -180
-552 -140 -103 25 -220 85 -296 155 l-66 60 -7 208 c-7 209 8 707 23 773 l8
35 6 -30 c10 -49 26 -178 47 -389 11 -109 22 -202 26 -205 3 -3 3 23 0 59 -3
36 -11 133 -16 215 -11 145 -31 304 -49 386 -10 43 7 142 54 312 13 50 23 93
20 95 -11 11 -78 -180 -99 -285 -42 -203 -49 -337 -51 -963 -3 -641 -10 -767
-49 -922 -30 -118 -60 -184 -125 -275 -89 -126 -231 -228 -400 -286 -76 -27
-103 -31 -226 -35 -119 -3 -154 -1 -230 17 -187 45 -357 155 -452 293 -66 96
-90 145 -153 313 l-53 140 12 290 c13 336 24 467 51 620 25 139 51 257 57 252
10 -11 64 -262 77 -362 8 -60 20 -200 26 -310 6 -110 13 -204 15 -210 7 -21 4
168 -5 325 -12 196 -29 317 -70 489 -29 123 -29 131 -15 172 9 24 25 59 36 79
l21 35 -21 -19 c-48 -44 -115 -237 -156 -451 -23 -116 -43 -411 -55 -790 -30
-942 -33 -987 -85 -1142 -88 -261 -271 -430 -530 -489 -102 -24 -298 -24 -404
0 -225 50 -398 176 -493 361 -96 188 -102 229 -123 965 -22 747 -38 943 -91
1128 -35 121 -67 156 -123 132 -56 -23 -86 -108 -131 -365 -61 -354 -103 -732
-120 -1075 -24 -501 -28 -553 -53 -651 -29 -111 -77 -210 -141 -291 -89 -112
-198 -177 -374 -224 -130 -35 -317 -37 -435 -5 -99 26 -231 88 -311 145 -78
56 -190 175 -235 250 -45 75 -98 217 -122 328 -48 220 -51 280 -59 1283 -5
569 -13 992 -19 1055 -6 58 -27 200 -46 315 -47 285 -62 460 -80 935 -18 486
-41 675 -130 1030 -85 342 -164 778 -185 1020 -16 194 -19 206 -14 60 5 -168
34 -414 76 -632 l31 -166 -35 -69 c-42 -80 -101 -247 -159 -445 -99 -346 -276
-711 -422 -876 -64 -72 -59 -78 9 -12 54 53 56 54 50 25 -3 -16 -18 -95 -31
-175 -89 -509 -242 -883 -497 -1217 -247 -324 -527 -495 -833 -510 -182 -9
-328 38 -435 138 l-55 52 65 14 c78 16 149 49 223 104 66 49 83 84 128 256 66
255 63 422 -8 562 -40 79 -66 104 -128 125 l-39 14 3 113 c1 62 5 117 7 121 3
4 9 139 14 300 7 217 15 322 29 403 27 145 35 172 158 505 205 555 255 765
303 1288 53 578 91 700 346 1102 162 256 241 387 339 565 83 153 360 709 420
845 60 137 229 471 291 577 118 202 245 372 443 593 308 343 481 646 564 990
65 266 77 499 57 1155 -14 502 -13 530 75 1440 43 452 37 1065 -21 2090 -43
773 -103 1287 -299 2570 -50 326 -129 917 -175 1315 -32 278 -37 311 -39 269z
m-2444 -16279 c118 -71 162 -301 109 -562 -42 -207 -69 -279 -120 -326 -24
-23 -72 -55 -106 -72 -70 -36 -189 -65 -204 -50 -22 22 38 287 167 740 35 124
68 240 71 258 9 38 34 42 83 12z"/>
<path d="M8783 20875 c0 -22 2 -30 4 -17 2 12 2 30 0 40 -3 9 -5 -1 -4 -23z"/>
<path d="M10852 20380 c0 -14 2 -19 5 -12 2 6 2 18 0 25 -3 6 -5 1 -5 -13z"/>
<path d="M10842 20295 c0 -16 2 -22 5 -12 2 9 2 23 0 30 -3 6 -5 -1 -5 -18z"/>
<path d="M10571 20224 c0 -11 3 -14 6 -6 3 7 2 16 -1 19 -3 4 -6 -2 -5 -13z"/>
<path d="M10832 20210 c0 -19 2 -27 5 -17 2 9 2 25 0 35 -3 9 -5 1 -5 -18z"/>
<path d="M8972 20210 c0 -14 2 -19 5 -12 2 6 2 18 0 25 -3 6 -5 1 -5 -13z"/>
<path d="M8940 20006 c-12 -91 -20 -170 -18 -176 2 -7 14 66 27 160 12 95 21
174 18 176 -2 3 -14 -70 -27 -160z"/>
<path d="M10562 20150 c0 -14 2 -19 5 -12 2 6 2 18 0 25 -3 6 -5 1 -5 -13z"/>
<path d="M10791 19922 c-18 -139 -31 -255 -29 -258 3 -2 8 17 11 43 3 27 18
135 32 241 14 106 25 201 23 210 -2 9 -18 -97 -37 -236z"/>
<path d="M10552 20080 c0 -14 2 -19 5 -12 2 6 2 18 0 25 -3 6 -5 1 -5 -13z"/>
<path d="M10542 20000 c0 -14 2 -19 5 -12 2 6 2 18 0 25 -3 6 -5 1 -5 -13z"/>
<path d="M8913 19775 c0 -22 2 -30 4 -17 2 12 2 30 0 40 -3 9 -5 -1 -4 -23z"/>
<path d="M8903 19695 c0 -22 2 -30 4 -17 2 12 2 30 0 40 -3 9 -5 -1 -4 -23z"/>
<path d="M10032 19680 c0 -14 2 -19 5 -12 2 6 2 18 0 25 -3 6 -5 1 -5 -13z"/>
<path d="M10502 19680 c0 -14 2 -19 5 -12 2 6 2 18 0 25 -3 6 -5 1 -5 -13z"/>
<path d="M8893 19615 c0 -22 2 -30 4 -17 2 12 2 30 0 40 -3 9 -5 -1 -4 -23z"/>
<path d="M10752 19620 c0 -19 2 -27 5 -17 2 9 2 25 0 35 -3 9 -5 1 -5 -18z"/>
<path d="M10492 19605 c0 -16 2 -22 5 -12 2 9 2 23 0 30 -3 6 -5 -1 -5 -18z"/>
<path d="M10015 19545 c-4 -42 -5 -78 -3 -81 3 -2 8 30 12 72 4 42 5 78 2 81
-2 2 -7 -30 -11 -72z"/>
<path d="M10742 19550 c0 -19 2 -27 5 -17 2 9 2 25 0 35 -3 9 -5 1 -5 -18z"/>
<path d="M8883 19520 c0 -25 2 -35 4 -22 2 12 2 32 0 45 -2 12 -4 2 -4 -23z"/>
<path d="M10482 19530 c0 -19 2 -27 5 -17 2 9 2 25 0 35 -3 9 -5 1 -5 -18z"/>
<path d="M10687 19242 c-46 -260 -59 -348 -32 -227 25 111 86 466 83 480 -2 8
-25 -105 -51 -253z"/>
<path d="M10441 19269 c-18 -121 -31 -222 -29 -225 3 -2 20 95 38 216 18 121
31 223 28 225 -2 3 -19 -95 -37 -216z"/>
<path d="M8857 19305 c-38 -356 -48 -456 -67 -719 -11 -149 -19 -302 -19 -341
1 -38 7 20 14 130 17 258 39 510 71 812 14 134 24 253 22 265 -2 13 -11 -53
-21 -147z"/>
<path d="M9981 19236 c-13 -119 -22 -219 -19 -221 6 -6 51 410 46 425 -2 7
-14 -85 -27 -204z"/>
<path d="M7883 19240 c0 -25 2 -35 4 -22 2 12 2 32 0 45 -2 12 -4 2 -4 -23z"/>
<path d="M7873 19070 c0 -41 2 -58 4 -37 2 20 2 54 0 75 -2 20 -4 3 -4 -38z"/>
<path d="M10402 19000 c0 -19 2 -27 5 -17 2 9 2 25 0 35 -3 9 -5 1 -5 -18z"/>
<path d="M9953 18960 c0 -25 2 -35 4 -22 2 12 2 32 0 45 -2 12 -4 2 -4 -23z"/>
<path d="M9743 18940 c0 -25 2 -35 4 -22 2 12 2 32 0 45 -2 12 -4 2 -4 -23z"/>
<path d="M10392 18930 c0 -19 2 -27 5 -17 2 9 2 25 0 35 -3 9 -5 1 -5 -18z"/>
<path d="M10597 18761 c-71 -354 -115 -545 -221 -970 -59 -233 -105 -428 -103
-434 4 -14 218 852 276 1118 61 281 94 452 89 465 -2 6 -20 -75 -41 -179z"/>
<path d="M7864 18845 c0 -49 1 -71 3 -48 2 23 2 64 0 90 -2 26 -3 8 -3 -42z"/>
<path d="M9942 18860 c0 -19 2 -27 5 -17 2 9 2 25 0 35 -3 9 -5 1 -5 -18z"/>
<path d="M10332 18569 c-64 -388 -203 -1150 -352 -1939 -123 -644 -142 -751
-190 -1025 -71 -407 -162 -1050 -159 -1119 l2 -31 4 30 c2 17 22 167 44 335
56 423 171 1094 314 1830 160 820 401 2187 393 2227 -2 9 -27 -130 -56 -308z"/>
<path d="M9733 18805 c0 -38 2 -53 4 -32 2 20 2 52 0 70 -2 17 -4 1 -4 -38z"/>
<path d="M8473 18760 c0 -25 2 -35 4 -22 2 12 2 32 0 45 -2 12 -4 2 -4 -23z"/>
<path d="M9933 18765 c0 -22 2 -30 4 -17 2 12 2 30 0 40 -3 9 -5 -1 -4 -23z"/>
<path d="M9923 18670 c0 -25 2 -35 4 -22 2 12 2 32 0 45 -2 12 -4 2 -4 -23z"/>
<path d="M8463 18640 c0 -30 2 -43 4 -27 2 15 2 39 0 55 -2 15 -4 2 -4 -28z"/>
<path d="M7852 18350 c-3 -469 14 -753 74 -1275 43 -377 130 -953 141 -941 3
2 -14 116 -36 253 -47 294 -82 559 -115 893 -43 427 -48 515 -55 965 l-7 440
-2 -335z"/>
<path d="M9897 18475 c-9 -77 -33 -261 -52 -410 -19 -148 -35 -281 -34 -295 1
-14 14 70 30 185 55 410 80 617 77 638 -2 12 -11 -41 -21 -118z"/>
<path d="M8453 18505 c0 -33 2 -45 4 -27 2 18 2 45 0 60 -2 15 -4 0 -4 -33z"/>
<path d="M8443 18370 c0 -36 2 -50 4 -32 2 17 2 47 0 65 -2 17 -4 3 -4 -33z"/>
<path d="M9433 18295 c0 -27 2 -38 4 -22 2 15 2 37 0 50 -2 12 -4 0 -4 -28z"/>
<path d="M8433 18225 c0 -38 2 -53 4 -32 2 20 2 52 0 70 -2 17 -4 1 -4 -38z"/>
<path d="M8572 18225 c0 -16 2 -22 5 -12 2 9 2 23 0 30 -3 6 -5 -1 -5 -18z"/>
<path d="M9410 18050 c-7 -100 -10 -183 -8 -185 3 -3 11 76 18 175 7 100 10
183 8 185 -3 3 -11 -76 -18 -175z"/>
<path d="M8756 18038 c-3 -73 -7 -374 -9 -668 -2 -294 -2 -404 -1 -245 2 160
8 458 14 663 7 206 10 376 7 378 -2 3 -7 -55 -11 -128z"/>
<path d="M8423 18080 c0 -36 2 -50 4 -32 2 17 2 47 0 65 -2 17 -4 3 -4 -33z"/>
<path d="M8563 18105 c0 -22 2 -30 4 -17 2 12 2 30 0 40 -3 9 -5 -1 -4 -23z"/>
<path d="M8553 17995 c0 -22 2 -30 4 -17 2 12 2 30 0 40 -3 9 -5 -1 -4 -23z"/>
<path d="M8413 17940 c0 -30 2 -43 4 -27 2 15 2 39 0 55 -2 15 -4 2 -4 -28z"/>
<path d="M8543 17855 c0 -27 2 -38 4 -22 2 15 2 37 0 50 -2 12 -4 0 -4 -28z"/>
<path d="M8403 17810 c0 -36 2 -50 4 -32 2 17 2 47 0 65 -2 17 -4 3 -4 -33z"/>
<path d="M9393 17795 c0 -33 2 -45 4 -27 2 18 2 45 0 60 -2 15 -4 0 -4 -33z"/>
<path d="M8533 17730 c0 -30 2 -43 4 -27 2 15 2 39 0 55 -2 15 -4 2 -4 -28z"/>
<path d="M8382 17610 c-35 -374 -62 -689 -61 -720 1 -19 19 150 40 375 21 226
38 426 37 445 -2 19 -9 -26 -16 -100z"/>
<path d="M9383 17675 c0 -33 2 -45 4 -27 2 18 2 45 0 60 -2 15 -4 0 -4 -33z"/>
<path d="M8517 17565 c-4 -55 -25 -287 -48 -515 -22 -228 -38 -424 -37 -435 2
-11 20 151 41 360 47 488 60 635 55 666 -2 13 -7 -21 -11 -76z"/>
<path d="M9373 17560 c0 -30 2 -43 4 -27 2 15 2 39 0 55 -2 15 -4 2 -4 -28z"/>
<path d="M9363 17435 c0 -22 2 -30 4 -17 2 12 2 30 0 40 -3 9 -5 -1 -4 -23z"/>
<path d="M9353 17325 c0 -22 2 -30 4 -17 2 12 2 30 0 40 -3 9 -5 -1 -4 -23z"/>
<path d="M10226 17184 c-21 -85 -37 -157 -34 -159 2 -2 21 66 42 151 21 85 37
157 34 159 -2 2 -21 -66 -42 -151z"/>
<path d="M9343 17205 c0 -22 2 -30 4 -17 2 12 2 30 0 40 -3 9 -5 -1 -4 -23z"/>
<path d="M10371 17164 c0 -11 3 -14 6 -6 3 7 2 16 -1 19 -3 4 -6 -2 -5 -13z"/>
<path d="M9327 17075 c-4 -44 -21 -194 -38 -333 -17 -140 -29 -261 -27 -270 2
-10 16 87 31 213 38 321 49 431 45 452 -2 10 -7 -18 -11 -62z"/>
<path d="M10361 17136 c-1 -5 -39 -178 -86 -385 -190 -844 -351 -1649 -332
-1667 2 -2 12 44 21 103 49 304 263 1329 381 1827 14 60 24 114 21 120 -2 6
-5 7 -5 2z"/>
<path d="M8984 16965 c0 -55 1 -76 3 -47 2 29 2 74 0 100 -2 26 -3 2 -3 -53z"/>
<path d="M10181 16994 c0 -11 3 -14 6 -6 3 7 2 16 -1 19 -3 4 -6 -2 -5 -13z"/>
<path d="M10172 16950 c0 -14 2 -19 5 -12 2 6 2 18 0 25 -3 6 -5 1 -5 -13z"/>
<path d="M10161 16904 c0 -11 3 -14 6 -6 3 7 2 16 -1 19 -3 4 -6 -2 -5 -13z"/>
<path d="M6893 16790 c0 -47 2 -66 4 -42 2 23 2 61 0 85 -2 23 -4 4 -4 -43z"/>
<path d="M10151 16854 c0 -11 3 -14 6 -6 3 7 2 16 -1 19 -3 4 -6 -2 -5 -13z"/>
<path d="M8313 16795 c0 -33 2 -45 4 -27 2 18 2 45 0 60 -2 15 -4 0 -4 -33z"/>
<path d="M10141 16814 c0 -11 3 -14 6 -6 3 7 2 16 -1 19 -3 4 -6 -2 -5 -13z"/>
<path d="M10111 16694 c-13 -52 -21 -97 -19 -99 2 -3 15 38 27 91 13 52 21 97
19 99 -2 3 -15 -38 -27 -91z"/>
<path d="M8754 16645 c0 -66 1 -92 3 -57 2 34 2 88 0 120 -2 31 -3 3 -3 -63z"/>
<path d="M8287 16505 c-10 -121 -27 -314 -37 -430 -48 -530 -122 -1757 -118
-1954 2 -96 2 -91 18 254 19 400 60 1080 85 1385 8 96 28 339 45 540 17 200
30 378 28 395 -2 16 -11 -69 -21 -190z"/>
<path d="M6882 16640 c-3 -90 -30 -365 -68 -700 -33 -299 -60 -473 -104 -674
-11 -49 -18 -91 -16 -93 6 -6 41 149 70 308 46 251 132 1057 123 1164 l-3 50
-2 -55z"/>
<path d="M8994 16405 c0 -121 2 -169 3 -107 2 62 2 161 0 220 -1 59 -3 8 -3
-113z"/>
<path d="M8415 16495 c-4 -53 -5 -99 -2 -101 2 -3 8 38 12 91 4 53 5 99 2 101
-2 3 -8 -38 -12 -91z"/>
<path d="M10081 16564 c0 -11 3 -14 6 -6 3 7 2 16 -1 19 -3 4 -6 -2 -5 -13z"/>
<path d="M10071 16524 c0 -11 3 -14 6 -6 3 7 2 16 -1 19 -3 4 -6 -2 -5 -13z"/>
<path d="M9253 16415 c0 -22 2 -30 4 -17 2 12 2 30 0 40 -3 9 -5 -1 -4 -23z"/>
<path d="M8403 16335 c0 -27 2 -38 4 -22 2 15 2 37 0 50 -2 12 -4 0 -4 -28z"/>
<path d="M9243 16335 c0 -22 2 -30 4 -17 2 12 2 30 0 40 -3 9 -5 -1 -4 -23z"/>
<path d="M8366 16020 c-16 -143 -26 -263 -24 -265 6 -6 61 500 56 515 -2 6
-16 -106 -32 -250z"/>
<path d="M9232 16240 c0 -19 2 -27 5 -17 2 9 2 25 0 35 -3 9 -5 1 -5 -18z"/>
<path d="M10001 16184 c0 -11 3 -14 6 -6 3 7 2 16 -1 19 -3 4 -6 -2 -5 -13z"/>
<path d="M9223 16155 c0 -22 2 -30 4 -17 2 12 2 30 0 40 -3 9 -5 -1 -4 -23z"/>
<path d="M8978 15915 c-19 -585 -78 -1223 -193 -2083 -14 -100 -24 -192 -24
-205 3 -53 101 683 134 1003 61 596 101 1219 93 1435 -2 54 -6 -6 -10 -150z"/>
<path d="M8071 16094 c0 -11 3 -14 6 -6 3 7 2 16 -1 19 -3 4 -6 -2 -5 -13z"/>
<path d="M9177 15842 c-22 -151 -36 -276 -33 -279 3 -4 6 -1 6 7 0 7 16 123
35 259 20 135 35 255 33 266 -2 11 -20 -103 -41 -253z"/>
<path d="M9302 15905 c0 -16 2 -22 5 -12 2 9 2 23 0 30 -3 6 -5 -1 -5 -18z"/>
<path d="M9293 15825 c0 -22 2 -30 4 -17 2 12 2 30 0 40 -3 9 -5 -1 -4 -23z"/>
<path d="M9282 15750 c0 -19 2 -27 5 -17 2 9 2 25 0 35 -3 9 -5 1 -5 -18z"/>
<path d="M8332 15700 c0 -19 2 -27 5 -17 2 9 2 25 0 35 -3 9 -5 1 -5 -18z"/>
<path d="M9273 15675 c0 -22 2 -30 4 -17 2 12 2 30 0 40 -3 9 -5 -1 -4 -23z"/>
<path d="M9263 15585 c0 -22 2 -30 4 -17 2 12 2 30 0 40 -3 9 -5 -1 -4 -23z"/>
<path d="M9132 15520 c0 -19 2 -27 5 -17 2 9 2 25 0 35 -3 9 -5 1 -5 -18z"/>
<path d="M9253 15495 c0 -22 2 -30 4 -17 2 12 2 30 0 40 -3 9 -5 -1 -4 -23z"/>
<path d="M9115 15415 c-4 -37 -5 -69 -2 -71 2 -3 8 25 12 61 4 37 5 69 2 71
-2 3 -8 -25 -12 -61z"/>
<path d="M9243 15405 c0 -22 2 -30 4 -17 2 12 2 30 0 40 -3 9 -5 -1 -4 -23z"/>
<path d="M9902 15380 c0 -14 2 -19 5 -12 2 6 2 18 0 25 -3 6 -5 1 -5 -13z"/>
<path d="M9892 15325 c0 -16 2 -22 5 -12 2 9 2 23 0 30 -3 6 -5 -1 -5 -18z"/>
<path d="M9083 15185 c-13 -83 -36 -240 -53 -350 -16 -110 -29 -211 -29 -225
1 -29 3 -19 65 388 25 166 44 310 42 319 -2 10 -13 -50 -25 -132z"/>
<path d="M9233 15295 c0 -22 2 -30 4 -17 2 12 2 30 0 40 -3 9 -5 -1 -4 -23z"/>
<path d="M9882 15270 c0 -14 2 -19 5 -12 2 6 2 18 0 25 -3 6 -5 1 -5 -13z"/>
<path d="M9223 15205 c0 -22 2 -30 4 -17 2 12 2 30 0 40 -3 9 -5 -1 -4 -23z"/>
<path d="M9852 15119 c-12 -69 -22 -134 -21 -145 0 -10 12 40 25 111 13 72 22
137 21 145 -1 8 -13 -42 -25 -111z"/>
<path d="M9162 14748 c-29 -227 -78 -582 -109 -788 -30 -206 -57 -393 -59
-415 -3 -40 -3 -40 6 5 39 179 233 1610 219 1610 -2 0 -28 -186 -57 -412z"/>
<path d="M8382 15050 c0 -14 2 -19 5 -12 2 6 2 18 0 25 -3 6 -5 1 -5 -13z"/>
<path d="M8372 14995 c0 -16 2 -22 5 -12 2 9 2 23 0 30 -3 6 -5 -1 -5 -18z"/>
<path d="M8362 14935 c0 -16 2 -22 5 -12 2 9 2 23 0 30 -3 6 -5 -1 -5 -18z"/>
<path d="M9822 14925 c0 -16 2 -22 5 -12 2 9 2 23 0 30 -3 6 -5 -1 -5 -18z"/>
<path d="M8345 14855 c-3 -26 -4 -49 -2 -51 3 -3 8 16 12 41 3 26 4 49 2 51
-3 3 -8 -16 -12 -41z"/>
<path d="M9812 14855 c0 -16 2 -22 5 -12 2 9 2 23 0 30 -3 6 -5 -1 -5 -18z"/>
<path d="M9767 14560 c-45 -322 -50 -369 -83 -730 -22 -242 -27 -347 -29 -700
l-3 -415 8 395 c10 503 44 921 121 1474 16 120 28 223 26 229 -2 6 -20 -108
-40 -253z"/>
<path d="M8332 14765 c0 -16 2 -22 5 -12 2 9 2 23 0 30 -3 6 -5 -1 -5 -18z"/>
<path d="M8322 14705 c0 -16 2 -22 5 -12 2 9 2 23 0 30 -3 6 -5 -1 -5 -18z"/>
<path d="M6571 14674 c0 -11 3 -14 6 -6 3 7 2 16 -1 19 -3 4 -6 -2 -5 -13z"/>
<path d="M8312 14645 c0 -16 2 -22 5 -12 2 9 2 23 0 30 -3 6 -5 -1 -5 -18z"/>
<path d="M6562 14630 c0 -14 2 -19 5 -12 2 6 2 18 0 25 -3 6 -5 1 -5 -13z"/>
<path d="M8262 14340 c-23 -151 -51 -351 -62 -445 -23 -199 -91 -980 -89
-1022 2 -45 16 85 53 528 40 464 50 552 107 923 22 142 39 266 37 274 -2 9
-22 -108 -46 -258z"/>
<path d="M6552 14580 c0 -14 2 -19 5 -12 2 6 2 18 0 25 -3 6 -5 1 -5 -13z"/>
<path d="M8992 14550 c0 -19 2 -27 5 -17 2 9 2 25 0 35 -3 9 -5 1 -5 -18z"/>
<path d="M6531 14471 c-6 -39 -10 -100 -9 -138 l1 -68 7 90 c4 50 11 111 15
138 4 26 5 47 3 47 -3 0 -10 -31 -17 -69z"/>
<path d="M8982 14485 c0 -16 2 -22 5 -12 2 9 2 23 0 30 -3 6 -5 -1 -5 -18z"/>
<path d="M8946 14269 c-16 -99 -26 -182 -24 -184 2 -3 17 76 33 175 15 100 26
183 23 185 -2 3 -17 -77 -32 -176z"/>
<path d="M9623 14415 c0 -22 2 -30 4 -17 2 12 2 30 0 40 -3 9 -5 -1 -4 -23z"/>
<path d="M9611 14314 c0 -11 3 -14 6 -6 3 7 2 16 -1 19 -3 4 -6 -2 -5 -13z"/>
<path d="M9613 14060 c0 -30 2 -43 4 -27 2 15 2 39 0 55 -2 15 -4 2 -4 -28z"/>
<path d="M6828 14074 c-26 -8 -50 -19 -53 -24 -3 -5 11 -2 31 6 78 33 145 15
184 -49 11 -18 20 -27 20 -20 0 19 -59 81 -83 88 -45 13 -53 13 -99 -1z"/>
<path d="M7316 14050 c3 -25 12 -92 19 -150 33 -244 29 -624 -10 -880 -24
-152 -26 -181 -10 -115 65 277 68 915 5 1155 -9 32 -9 32 -4 -10z"/>
<path d="M6264 14030 c-15 -22 -25 -42 -23 -44 2 -2 16 16 31 40 34 55 28 58
-8 4z"/>
<path d="M8912 14045 c0 -16 2 -22 5 -12 2 9 2 23 0 30 -3 6 -5 -1 -5 -18z"/>
<path d="M8901 13984 c0 -11 3 -14 6 -6 3 7 2 16 -1 19 -3 4 -6 -2 -5 -13z"/>
<path d="M9596 13767 c-4 -126 -6 -231 -3 -233 6 -6 20 392 15 431 -2 17 -7
-73 -12 -198z"/>
<path d="M7221 13944 c0 -11 3 -14 6 -6 3 7 2 16 -1 19 -3 4 -6 -2 -5 -13z"/>
<path d="M7484 13770 c0 -102 2 -143 3 -92 2 50 2 134 0 185 -1 50 -3 9 -3
-93z"/>
<path d="M6221 13924 c0 -11 3 -14 6 -6 3 7 2 16 -1 19 -3 4 -6 -2 -5 -13z"/>
<path d="M6505 13907 c17 -20 59 -61 94 -90 150 -123 230 -284 216 -432 l-4
-50 10 45 c6 31 6 66 -1 110 -22 130 -67 197 -231 350 -62 58 -100 88 -84 67z"/>
<path d="M7232 13900 c0 -14 2 -19 5 -12 2 6 2 18 0 25 -3 6 -5 1 -5 -13z"/>
<path d="M7712 13890 c0 -14 2 -19 5 -12 2 6 2 18 0 25 -3 6 -5 1 -5 -13z"/>
<path d="M6211 13884 c0 -11 3 -14 6 -6 3 7 2 16 -1 19 -3 4 -6 -2 -5 -13z"/>
<path d="M7245 13830 c27 -243 31 -401 14 -597 -19 -221 -9 -200 -125 -258
-117 -58 -175 -100 -298 -210 -100 -90 -155 -135 -168 -135 -5 0 -7 118 -4
268 6 316 -6 290 -23 -48 -27 -543 -47 -726 -101 -933 -121 -470 -319 -788
-864 -1387 -534 -588 -776 -932 -992 -1414 -30 -66 -53 -121 -51 -122 1 -2 40
70 86 159 272 526 458 785 986 1372 89 99 176 195 192 214 l29 34 48 -51 c26
-27 62 -61 81 -74 19 -12 35 -27 35 -32 0 -32 -622 -851 -1085 -1426 -366
-455 -379 -471 -460 -580 -85 -115 -265 -383 -265 -396 0 -4 32 40 71 97 110
160 249 342 455 594 841 1033 1371 1743 1661 2225 215 357 468 854 577 1131
99 253 187 572 221 799 25 173 30 442 11 605 -9 77 -21 156 -26 175 -9 33 -9
32 -5 -10z m-21 -877 c-3 -16 -21 -84 -39 -153 l-32 -126 -102 -103 c-55 -57
-142 -158 -193 -225 -107 -141 -241 -280 -246 -255 -2 10 4 68 13 130 9 63 19
172 22 242 l6 128 38 19 c20 11 84 61 141 111 138 122 187 159 288 213 101 54
113 56 104 19z m-120 -445 c-43 -132 -118 -324 -169 -438 -57 -128 -223 -460
-237 -478 -9 -10 -16 -8 -37 11 -14 14 -42 30 -61 36 -19 6 -49 20 -67 30
l-31 20 15 48 c8 26 29 105 47 175 l33 127 59 45 c64 49 98 87 221 246 97 127
246 287 251 271 2 -6 -9 -48 -24 -93z m-525 -894 c20 -16 29 -20 25 -10 -10
26 15 19 47 -14 34 -33 37 -20 -39 -155 -135 -238 -374 -622 -474 -760 -4 -6
-34 15 -70 50 l-63 60 58 -60 c50 -54 69 -85 51 -85 -13 0 -132 101 -148 126
-17 25 -15 35 14 64 17 17 225 298 268 362 70 104 161 274 207 385 l38 92 27
-14 c15 -8 42 -26 59 -41z"/>
<path d="M6202 13840 c0 -14 2 -19 5 -12 2 6 2 18 0 25 -3 6 -5 1 -5 -13z"/>
<path d="M7702 13835 c0 -16 2 -22 5 -12 2 9 2 23 0 30 -3 6 -5 -1 -5 -18z"/>
<path d="M6186 13764 c-3 -26 -5 -72 -5 -103 1 -42 4 -30 10 44 9 105 6 137
-5 59z"/>
<path d="M7661 13643 c-43 -200 -45 -209 -38 -203 8 8 78 331 75 346 -2 8 -18
-56 -37 -143z"/>
<path d="M7776 13624 c-21 -64 -36 -117 -34 -119 2 -2 21 48 42 111 21 64 36
117 34 119 -2 2 -21 -48 -42 -111z"/>
<path d="M6191 13584 c0 -11 3 -14 6 -6 3 7 2 16 -1 19 -3 4 -6 -2 -5 -13z"/>
<path d="M8711 13321 c-24 -155 -42 -283 -39 -286 6 -6 91 540 86 555 -2 6
-23 -115 -47 -269z"/>
<path d="M7473 13470 c0 -47 2 -66 4 -42 2 23 2 61 0 85 -2 23 -4 4 -4 -43z"/>
<path d="M9576 13233 c-9 -382 -9 -418 -6 -663 2 -129 6 14 11 360 4 316 6
576 4 578 -1 2 -6 -122 -9 -275z"/>
<path d="M8981 13493 c0 -7 -19 -117 -41 -245 -22 -128 -40 -242 -39 -253 0
-11 21 90 45 225 24 135 42 254 40 265 -2 11 -4 14 -5 8z"/>
<path d="M7671 13299 c-35 -105 -61 -192 -59 -194 2 -2 32 81 67 186 35 104
62 191 60 194 -3 2 -33 -82 -68 -186z"/>
<path d="M7611 13414 c0 -11 3 -14 6 -6 3 7 2 16 -1 19 -3 4 -6 -2 -5 -13z"/>
<path d="M7601 13374 c0 -11 3 -14 6 -6 3 7 2 16 -1 19 -3 4 -6 -2 -5 -13z"/>
<path d="M7463 13325 c0 -33 2 -45 4 -27 2 18 2 45 0 60 -2 15 -4 0 -4 -33z"/>
<path d="M7566 13244 c-4 -14 -5 -28 -3 -31 3 -2 8 8 11 23 4 14 5 28 3 31 -3
2 -8 -8 -11 -23z"/>
<path d="M7453 13215 c0 -27 2 -38 4 -22 2 15 2 37 0 50 -2 12 -4 0 -4 -28z"/>
<path d="M7542 13163 c-15 -48 -8 -55 8 -8 7 20 10 38 8 41 -3 2 -10 -13 -16
-33z"/>
<path d="M7035 13156 c-28 -19 -63 -49 -80 -67 -23 -25 -17 -22 25 13 30 25
71 55 90 67 19 11 30 21 25 21 -6 0 -33 -15 -60 -34z"/>
<path d="M8771 13174 c0 -11 3 -14 6 -6 3 7 2 16 -1 19 -3 4 -6 -2 -5 -13z"/>
<path d="M7436 13099 c-4 -33 -5 -63 -3 -66 3 -2 8 23 12 57 4 34 5 63 2 66
-2 3 -7 -23 -11 -57z"/>
<path d="M8761 13133 c-1 -6 -21 -121 -45 -255 -38 -207 -65 -389 -51 -338 13
47 105 585 101 594 -3 8 -5 7 -5 -1z"/>
<path d="M6498 12815 c-4 -215 -11 -340 -22 -410 -9 -54 -15 -106 -13 -115 5
-29 38 235 47 380 5 80 5 215 1 300 -7 152 -7 148 -13 -155z"/>
<path d="M7422 12995 c0 -16 2 -22 5 -12 2 9 2 23 0 30 -3 6 -5 -1 -5 -18z"/>
<path d="M8662 12990 c0 -19 2 -27 5 -17 2 9 2 25 0 35 -3 9 -5 1 -5 -18z"/>
<path d="M6593 12960 c0 -30 2 -43 4 -27 2 15 2 39 0 55 -2 15 -4 2 -4 -28z"/>
<path d="M8892 12940 c0 -19 2 -27 5 -17 2 9 2 25 0 35 -3 9 -5 1 -5 -18z"/>
<path d="M6351 12944 c0 -11 3 -14 6 -6 3 7 2 16 -1 19 -3 4 -6 -2 -5 -13z"/>
<path d="M7411 12934 c0 -11 3 -14 6 -6 3 7 2 16 -1 19 -3 4 -6 -2 -5 -13z"/>
<path d="M8652 12910 c0 -19 2 -27 5 -17 2 9 2 25 0 35 -3 9 -5 1 -5 -18z"/>
<path d="M6368 12855 c13 -130 7 -374 -12 -469 -9 -48 -15 -90 -13 -93 3 -2
13 40 23 94 22 111 25 414 6 493 -10 41 -10 38 -4 -25z"/>
<path d="M8882 12870 c0 -19 2 -27 5 -17 2 9 2 25 0 35 -3 9 -5 1 -5 -18z"/>
<path d="M6575 12750 c-4 -78 -5 -144 -2 -146 3 -3 8 58 12 136 4 78 5 143 2
146 -2 3 -8 -59 -12 -136z"/>
<path d="M8642 12830 c0 -19 2 -27 5 -17 2 9 2 25 0 35 -3 9 -5 1 -5 -18z"/>
<path d="M7292 12820 c0 -14 2 -19 5 -12 2 6 2 18 0 25 -3 6 -5 1 -5 -13z"/>
<path d="M8103 12795 c0 -27 2 -38 4 -22 2 15 2 37 0 50 -2 12 -4 0 -4 -28z"/>
<path d="M8872 12805 c0 -16 2 -22 5 -12 2 9 2 23 0 30 -3 6 -5 -1 -5 -18z"/>
<path d="M7282 12770 c0 -14 2 -19 5 -12 2 6 2 18 0 25 -3 6 -5 1 -5 -13z"/>
<path d="M8633 12755 c0 -22 2 -30 4 -17 2 12 2 30 0 40 -3 9 -5 -1 -4 -23z"/>
<path d="M8841 12624 c-13 -79 -22 -147 -19 -149 2 -2 15 61 27 141 13 79 22
147 19 149 -2 2 -15 -61 -27 -141z"/>
<path d="M7271 12724 c0 -11 3 -14 6 -6 3 7 2 16 -1 19 -3 4 -6 -2 -5 -13z"/>
<path d="M8092 12690 c0 -19 2 -27 5 -17 2 9 2 25 0 35 -3 9 -5 1 -5 -18z"/>
<path d="M8622 12680 c0 -19 2 -27 5 -17 2 9 2 25 0 35 -3 9 -5 1 -5 -18z"/>
<path d="M9663 12650 c0 -30 2 -43 4 -27 2 15 2 39 0 55 -2 15 -4 2 -4 -28z"/>
<path d="M8600 12530 c-7 -61 -11 -113 -8 -115 2 -3 10 45 17 106 7 61 11 113
8 115 -2 3 -10 -45 -17 -106z"/>
<path d="M6557 12490 c-21 -281 -88 -581 -168 -759 -16 -35 -28 -66 -26 -68 2
-2 18 28 36 67 39 89 95 271 120 397 25 123 53 367 49 425 -2 26 -6 2 -11 -62z"/>
<path d="M8652 12490 c0 -19 2 -27 5 -17 2 9 2 25 0 35 -3 9 -5 1 -5 -18z"/>
<path d="M8812 12435 c0 -16 2 -22 5 -12 2 9 2 23 0 30 -3 6 -5 -1 -5 -18z"/>
<path d="M8642 12420 c0 -19 2 -27 5 -17 2 9 2 25 0 35 -3 9 -5 1 -5 -18z"/>
<path d="M8582 12370 c0 -19 2 -27 5 -17 2 9 2 25 0 35 -3 9 -5 1 -5 -18z"/>
<path d="M8801 12374 c0 -11 3 -14 6 -6 3 7 2 16 -1 19 -3 4 -6 -2 -5 -13z"/>
<path d="M8632 12355 c0 -16 2 -22 5 -12 2 9 2 23 0 30 -3 6 -5 -1 -5 -18z"/>
<path d="M8622 12290 c0 -19 2 -27 5 -17 2 9 2 25 0 35 -3 9 -5 1 -5 -18z"/>
<path d="M8572 12290 c0 -14 2 -19 5 -12 2 6 2 18 0 25 -3 6 -5 1 -5 -13z"/>
<path d="M9582 12265 c0 -16 2 -22 5 -12 2 9 2 23 0 30 -3 6 -5 -1 -5 -18z"/>
<path d="M6322 12228 c-7 -28 -11 -53 -8 -55 2 -2 9 19 16 47 7 28 10 53 8 55
-3 3 -10 -18 -16 -47z"/>
<path d="M6452 12250 c0 -14 2 -19 5 -12 2 6 2 18 0 25 -3 6 -5 1 -5 -13z"/>
<path d="M7087 12185 c-24 -50 -20 -58 4 -12 11 22 19 41 17 43 -3 2 -12 -12
-21 -31z"/>
<path d="M6441 12184 c0 -11 3 -14 6 -6 3 7 2 16 -1 19 -3 4 -6 -2 -5 -13z"/>
<path d="M6268 12058 c-21 -56 -36 -103 -34 -105 5 -5 77 188 74 198 -2 4 -20
-37 -40 -93z"/>
<path d="M6972 11934 c-23 -46 -42 -88 -41 -92 0 -4 20 33 45 82 25 48 44 90
42 92 -2 2 -23 -35 -46 -82z"/>
<path d="M6264 11838 c-27 -62 -73 -153 -102 -202 -87 -148 -97 -173 -22 -57
64 98 188 356 177 367 -2 2 -26 -47 -53 -108z"/>
<path d="M6216 11925 c-9 -26 -7 -32 5 -12 6 10 9 21 6 23 -2 3 -7 -2 -11 -11z"/>
<path d="M6162 11805 c-23 -47 -40 -85 -37 -85 7 0 87 161 83 166 -2 2 -23
-35 -46 -81z"/>
<path d="M6835 11657 c-125 -240 -330 -581 -526 -875 -239 -357 -426 -603
-929 -1222 -107 -131 -278 -343 -313 -387 -5 -7 -7 -13 -4 -13 3 0 48 53 100
118 52 64 139 171 194 237 655 794 973 1237 1339 1870 78 136 206 377 201 381
-2 2 -29 -47 -62 -109z"/>
<path d="M6317 11575 c-20 -41 -35 -75 -32 -75 7 0 77 141 73 146 -2 2 -21
-30 -41 -71z"/>
<path d="M6260 11470 c-6 -11 -8 -20 -6 -20 3 0 10 9 16 20 6 11 8 20 6 20 -3
0 -10 -9 -16 -20z"/>
<path d="M5942 11443 c-186 -240 -454 -619 -527 -748 -43 -77 -16 -41 55 70
91 144 375 541 503 703 5 6 7 12 4 12 -3 0 -18 -17 -35 -37z"/>
<path d="M6714 11143 c-228 -371 -542 -784 -1019 -1343 -322 -377 -449 -527
-544 -644 -113 -139 -51 -72 120 130 85 99 273 320 419 490 525 612 806 986
1074 1432 4 6 5 12 3 12 -3 0 -26 -35 -53 -77z"/>
<path d="M5789 11053 c-13 -16 -12 -17 4 -4 16 13 21 21 13 21 -2 0 -10 -8
-17 -17z"/>
<path d="M5659 10893 c-189 -234 -298 -394 -461 -678 -63 -110 -140 -243 -170
-295 -64 -111 -90 -160 -84 -160 2 0 27 42 57 93 373 650 415 717 648 1012
117 148 114 145 109 145 -3 0 -47 -53 -99 -117z"/>
<path d="M5678 10713 c-299 -386 -408 -538 -601 -841 -118 -185 -140 -222
-134 -222 2 0 32 45 68 100 255 397 350 532 702 993 71 92 126 167 123 167 -3
0 -74 -89 -158 -197z"/>
<path d="M5377 10633 c-2 -5 -17 -30 -32 -58 -16 -27 -24 -45 -18 -40 14 14
66 105 60 105 -3 0 -8 -3 -10 -7z"/>
<path d="M5295 10490 c-9 -16 -13 -30 -11 -30 3 0 12 14 21 30 9 17 13 30 11
30 -3 0 -12 -13 -21 -30z"/>
<path d="M5230 10370 c-6 -11 -8 -20 -6 -20 3 0 10 9 16 20 6 11 8 20 6 20 -3
0 -10 -9 -16 -20z"/>
<path d="M6122 10110 c0 -14 2 -19 5 -12 2 6 2 18 0 25 -3 6 -5 1 -5 -13z"/>
<path d="M6132 10055 c0 -16 2 -22 5 -12 2 9 2 23 0 30 -3 6 -5 -1 -5 -18z"/>
<path d="M6123 9985 c0 -22 2 -30 4 -17 2 12 2 30 0 40 -3 9 -5 -1 -4 -23z"/>
<path d="M6130 9927 c0 -25 24 -69 51 -92 l24 -20 -23 27 c-13 14 -30 43 -37
65 -8 21 -14 30 -15 20z"/>
<path d="M6035 9710 c-126 -25 -260 -105 -384 -229 -54 -53 -66 -67 -27 -31
107 99 154 134 236 178 93 50 157 71 246 81 62 8 64 8 19 9 -27 0 -68 -4 -90
-8z"/>
<path d="M4887 9668 c-36 -63 -51 -94 -39 -83 13 14 75 125 69 125 -3 0 -16
-19 -30 -42z"/>
<path d="M4910 9600 c-6 -11 -8 -20 -6 -20 3 0 10 9 16 20 6 11 8 20 6 20 -3
0 -10 -9 -16 -20z"/>
<path d="M4880 9550 c-6 -11 -8 -20 -6 -20 3 0 10 9 16 20 6 11 8 20 6 20 -3
0 -10 -9 -16 -20z"/>
<path d="M4780 9470 c-11 -22 -18 -40 -15 -40 2 0 14 18 25 40 11 22 18 40 15
40 -2 0 -14 -18 -25 -40z"/>
<path d="M4735 9390 c-9 -16 -13 -30 -11 -30 3 0 12 14 21 30 9 17 13 30 11
30 -3 0 -12 -13 -21 -30z"/>
<path d="M4645 9220 c-9 -16 -13 -30 -11 -30 3 0 12 14 21 30 9 17 13 30 11
30 -3 0 -12 -13 -21 -30z"/>
<path d="M5004 9093 c-21 -26 -33 -44 -27 -40 14 9 77 87 70 87 -3 0 -22 -21
-43 -47z"/>
<path d="M4999 8973 c-13 -16 -12 -17 4 -4 9 7 17 15 17 17 0 8 -8 3 -21 -13z"/>
<path d="M4437 7845 c-7 -68 -41 -132 -86 -162 -42 -28 -30 -30 15 -3 41 26
74 92 81 165 3 30 4 55 1 55 -3 0 -8 -25 -11 -55z"/>
<path d="M3827 7623 c-15 -55 -27 -106 -26 -114 0 -8 13 33 29 91 16 58 28
109 27 114 -2 5 -15 -35 -30 -91z"/>
<path d="M3936 7665 c-9 -26 -7 -32 5 -12 6 10 9 21 6 23 -2 3 -7 -2 -11 -11z"/>
<path d="M3941 7444 c-17 -47 -31 -91 -30 -98 0 -6 16 31 35 83 19 52 33 95
31 98 -2 2 -18 -35 -36 -83z"/>
<path d="M4520 7507 c9 -9 140 -55 135 -46 -3 4 -29 15 -58 25 -28 9 -59 19
-67 22 -8 3 -13 3 -10 -1z"/>
<path d="M3791 7474 c0 -11 3 -14 6 -6 3 7 2 16 -1 19 -3 4 -6 -2 -5 -13z"/>
<path d="M3855 7403 c-30 -115 -55 -227 -54 -243 0 -8 18 57 40 144 21 88 37
161 35 163 -2 2 -11 -27 -21 -64z"/>
<path d="M4070 7392 c31 -26 107 -67 140 -77 14 -3 -4 9 -40 27 -36 19 -78 42
-95 52 l-30 18 25 -20z"/>
<path d="M3891 7284 c0 -11 3 -14 6 -6 3 7 2 16 -1 19 -3 4 -6 -2 -5 -13z"/>
<path d="M3881 7244 c0 -11 3 -14 6 -6 3 7 2 16 -1 19 -3 4 -6 -2 -5 -13z"/>
<path d="M3871 7204 c0 -11 3 -14 6 -6 3 7 2 16 -1 19 -3 4 -6 -2 -5 -13z"/>
<path d="M3862 7150 c0 -14 2 -19 5 -12 2 6 2 18 0 25 -3 6 -5 1 -5 -13z"/>
<path d="M3562 6240 c0 -14 2 -19 5 -12 2 6 2 18 0 25 -3 6 -5 1 -5 -13z"/>
<path d="M3951 6023 c-26 -87 -41 -184 -40 -248 1 -36 4 -25 10 40 5 50 20
131 33 180 29 106 26 127 -3 28z"/>
<path d="M3913 5605 c0 -33 2 -45 4 -27 2 18 2 45 0 60 -2 15 -4 0 -4 -33z"/>
<path d="M3923 5505 c0 -22 2 -30 4 -17 2 12 2 30 0 40 -3 9 -5 -1 -4 -23z"/>
<path d="M3868 5245 c-41 -38 -42 -44 -2 -19 20 14 52 55 42 54 -2 0 -20 -16
-40 -35z"/>
<path d="M11840 5188 c-19 -16 -64 -44 -100 -61 -55 -26 -82 -32 -170 -38
l-105 -7 110 2 c128 3 188 24 265 94 52 48 52 56 0 10z"/>
<path d="M11428 5093 c6 -2 18 -2 25 0 6 3 1 5 -13 5 -14 0 -19 -2 -12 -5z"/>
<path d="M10425 4429 c-27 -16 -46 -29 -42 -29 13 0 85 39 92 50 8 13 10 13
-50 -21z"/>
<path d="M9928 4433 c7 -3 16 -2 19 1 4 3 -2 6 -13 5 -11 0 -14 -3 -6 -6z"/>
<path d="M9980 4420 c14 -4 34 -8 45 -8 16 0 15 2 -5 8 -14 4 -34 8 -45 8 -16
0 -15 -2 5 -8z"/>
<path d="M10070 4400 c14 -4 34 -8 45 -8 16 0 15 2 -5 8 -14 4 -34 8 -45 8
-16 0 -15 -2 5 -8z"/>
<path d="M10148 4383 c6 -2 18 -2 25 0 6 3 1 5 -13 5 -14 0 -19 -2 -12 -5z"/>
<path d="M10308 4383 c6 -2 18 -2 25 0 6 3 1 5 -13 5 -14 0 -19 -2 -12 -5z"/>
<path d="M10228 4373 c6 -2 18 -2 25 0 6 3 1 5 -13 5 -14 0 -19 -2 -12 -5z"/>
<path d="M5935 4125 c78 -70 249 -166 365 -205 97 -33 257 -38 380 -12 90 19
216 60 208 68 -2 1 -34 -8 -71 -22 -143 -51 -320 -67 -452 -39 -85 18 -268
105 -379 181 -45 31 -67 44 -51 29z"/>
<path d="M7971 3970 c9 -5 59 -24 110 -41 80 -27 111 -32 209 -34 l115 -3
-105 7 c-119 9 -171 20 -266 56 -69 26 -90 31 -63 15z"/>
<path d="M8428 3903 c7 -3 16 -2 19 1 4 3 -2 6 -13 5 -11 0 -14 -3 -6 -6z"/>
<path d="M9054 3598 c-87 -109 -135 -188 -164 -267 -32 -86 -84 -271 -78 -276
2 -2 20 55 41 128 43 152 95 265 167 357 74 96 92 120 87 120 -2 0 -26 -28
-53 -62z"/>
<path d="M5783 3494 c10 -12 33 -50 52 -85 19 -35 35 -60 35 -55 0 17 -63 125
-84 143 -21 18 -21 18 -3 -3z"/>
<path d="M6892 3384 c-77 -69 -139 -149 -181 -231 -44 -87 -38 -93 7 -7 53 99
103 164 180 233 37 34 64 61 61 61 -3 0 -33 -25 -67 -56z"/>
<path d="M7823 3413 c2 -5 29 -51 60 -104 83 -141 125 -246 172 -424 13 -49
24 -81 24 -70 2 56 -76 289 -135 408 -31 61 -114 197 -121 197 -2 0 -2 -3 0
-7z"/>
<path d="M5870 3338 c0 -11 69 -190 70 -181 0 14 -60 183 -66 183 -2 0 -4 -1
-4 -2z"/>
<path d="M11875 3169 c-128 -98 -303 -140 -485 -117 -45 6 -50 5 -25 -4 17 -6
75 -11 130 -12 79 -1 116 4 175 23 86 26 169 69 220 111 46 39 36 38 -15 -1z"/>
<path d="M5941 3124 c0 -11 3 -14 6 -6 3 7 2 16 -1 19 -3 4 -6 -2 -5 -13z"/>
<path d="M10663 2920 c0 -25 2 -35 4 -22 2 12 2 32 0 45 -2 12 -4 2 -4 -23z"/>
<path d="M9763 2770 c0 -30 2 -43 4 -27 2 15 2 39 0 55 -2 15 -4 2 -4 -28z"/>
<path d="M8082 2770 c0 -14 2 -19 5 -12 2 6 2 18 0 25 -3 6 -5 1 -5 -13z"/>
<path d="M8092 2720 c-1 -14 3 -43 7 -65 6 -26 9 -31 9 -15 1 14 -3 43 -7 65
-6 26 -9 31 -9 15z"/>
<path d="M8113 2575 c0 -22 2 -30 4 -17 2 12 2 30 0 40 -3 9 -5 -1 -4 -23z"/>
<path d="M8123 2480 c0 -25 2 -35 4 -22 2 12 2 32 0 45 -2 12 -4 2 -4 -23z"/>
<path d="M5802 2270 c0 -19 2 -27 5 -17 2 9 2 25 0 35 -3 9 -5 1 -5 -18z"/>
<path d="M10540 2089 c-22 -18 -22 -19 -3 -10 12 6 25 16 28 21 9 15 3 12 -25
-11z"/>
<path d="M10410 2029 c-159 -71 -346 -76 -555 -15 -11 4 -4 -1 15 -10 114 -53
331 -57 475 -10 75 25 143 56 120 55 -5 0 -30 -9 -55 -20z"/>
<path d="M5850 1329 c28 -24 122 -73 160 -83 14 -4 -2 6 -35 22 -33 16 -80 41
-105 56 -34 20 -39 22 -20 5z"/>
<path d="M6041 1321 c19 -12 158 -51 179 -50 8 0 -21 11 -65 23 -44 12 -91 26
-105 30 -18 5 -21 4 -9 -3z"/>
<path d="M6253 1263 c9 -2 25 -2 35 0 9 3 1 5 -18 5 -19 0 -27 -2 -17 -5z"/>
<path d="M6428 1263 c7 -3 16 -2 19 1 4 3 -2 6 -13 5 -11 0 -14 -3 -6 -6z"/>
<path d="M6055 1230 c11 -5 27 -9 35 -9 9 0 8 4 -5 9 -11 5 -27 9 -35 9 -9 0
-8 -4 5 -9z"/>
<path d="M8618 1233 c7 -3 16 -2 19 1 4 3 -2 6 -13 5 -11 0 -14 -3 -6 -6z"/>
<path d="M8100 1215 c35 -20 176 -65 203 -64 12 0 -11 9 -51 19 -40 11 -93 28
-118 40 -54 23 -70 26 -34 5z"/>
<path d="M8303 1223 c9 -2 23 -2 30 0 6 3 -1 5 -18 5 -16 0 -22 -2 -12 -5z"/>
<path d="M8450 1220 l-105 -6 100 -1 c55 0 114 3 130 7 36 9 32 9 -125 0z"/>
<path d="M6130 1210 c25 -8 87 -13 79 -6 -2 2 -26 6 -54 9 -34 4 -42 3 -25 -3z"/>
<path d="M6248 1193 c18 -2 45 -2 60 0 15 2 0 4 -33 4 -33 0 -45 -2 -27 -4z"/>
</g>
</svg>
