<?xml version="1.0" standalone="no"?>
<!DOCTYPE svg PUBLIC "-//W3C//DTD SVG 20010904//EN"
 "http://www.w3.org/TR/2001/REC-SVG-20010904/DTD/svg10.dtd">
<svg version="1.0" xmlns="http://www.w3.org/2000/svg"
 width="1650.000000pt" height="2210.000000pt" viewBox="0 0 1650.000000 2210.000000"
 preserveAspectRatio="xMidYMid meet">

<g transform="translate(0.000000,2210.000000) scale(0.100000,-0.100000)"
fill="#000000" stroke="none">
<path d="M5631 21294 c-2 -156 44 -699 95 -1114 37 -301 66 -489 144 -930 39
-217 84 -476 100 -575 17 -99 46 -263 65 -365 102 -553 140 -857 190 -1505 51
-677 80 -1110 121 -1805 20 -337 15 -578 -17 -850 -25 -210 -31 -563 -15 -945
20 -483 -66 -836 -273 -1125 -31 -43 -119 -149 -196 -235 -251 -281 -302 -359
-745 -1125 -129 -222 -293 -477 -430 -668 -234 -324 -289 -407 -339 -507 -66
-133 -90 -209 -157 -513 -88 -404 -131 -543 -257 -842 -93 -221 -147 -333
-248 -516 -48 -89 -95 -179 -103 -200 -23 -58 -53 -195 -81 -372 -27 -168 -63
-322 -95 -403 -11 -27 -20 -70 -20 -94 0 -35 -13 -68 -67 -167 -146 -269 -343
-720 -343 -786 0 -36 94 -164 147 -199 26 -18 84 -44 128 -59 74 -24 90 -26
205 -22 109 4 136 9 210 37 102 38 263 133 369 217 117 95 316 305 424 449
178 240 279 446 342 700 35 143 42 161 91 221 38 46 97 174 174 379 105 279
181 431 279 562 58 77 197 221 205 212 30 -33 128 -292 166 -438 39 -156 61
-403 80 -901 6 -151 17 -347 25 -435 31 -326 30 -467 -4 -825 -17 -179 -42
-467 -56 -640 -13 -173 -29 -369 -35 -435 -12 -150 -12 -366 0 -555 19 -300
31 -630 40 -1110 9 -520 17 -626 66 -900 87 -487 190 -662 433 -734 67 -20
188 -21 259 -2 138 37 233 143 309 346 81 215 114 605 94 1110 -14 335 -9 418
48 875 22 176 43 367 46 425 3 58 10 132 15 165 14 90 67 622 85 850 38 485
55 611 96 722 15 39 27 55 45 59 36 9 89 -4 109 -26 63 -70 75 -463 49 -1560
-8 -299 1 -437 47 -795 51 -394 58 -455 74 -650 8 -104 19 -320 25 -480 18
-519 26 -642 70 -977 45 -341 94 -472 225 -604 171 -173 409 -218 620 -119
134 64 221 189 258 375 41 201 42 677 2 1082 -42 424 -43 912 -4 1448 23 324
22 570 -6 975 -48 705 -44 1096 11 1267 15 45 19 49 66 63 28 8 54 12 58 10
39 -24 94 -390 125 -820 39 -553 48 -628 115 -970 129 -657 156 -907 180
-1685 16 -507 33 -661 90 -813 51 -136 178 -265 299 -303 79 -25 226 -23 304
5 120 42 235 151 294 278 13 28 36 96 50 150 25 94 26 111 31 428 4 313 -8
707 -28 915 -25 259 -32 417 -40 910 -9 580 -12 619 -80 1098 -22 152 -49 358
-60 457 -26 218 -38 611 -21 700 12 62 14 65 94 121 35 26 38 26 56 10 48 -44
96 -207 162 -556 57 -303 95 -453 174 -701 135 -418 170 -576 185 -832 26
-424 82 -689 195 -922 65 -134 124 -201 219 -250 76 -38 82 -40 175 -40 84 0
103 3 154 27 88 42 130 80 170 155 80 154 97 268 97 663 0 366 -11 504 -65
840 -25 151 -54 352 -65 445 -30 250 -42 319 -131 749 -104 508 -159 841 -162
976 -1 58 5 157 12 220 24 185 18 544 -12 855 -14 143 -28 346 -32 450 -8 249
-43 909 -55 1055 -32 362 -81 699 -155 1060 -57 281 -118 477 -255 830 -327
842 -396 1263 -300 1810 17 96 42 252 56 345 26 169 26 172 13 407 -15 299 -7
707 21 1003 79 833 211 1757 385 2685 24 129 57 309 74 400 16 91 68 369 115
617 125 659 229 1320 290 1843 25 209 76 783 71 788 -7 7 -14 -35 -30 -198 -9
-85 -18 -164 -21 -175 -2 -11 -17 -126 -34 -255 -100 -794 -174 -1268 -295
-1885 -72 -368 -166 -871 -225 -1200 -16 -88 -47 -259 -69 -380 -108 -601
-241 -1588 -301 -2235 -36 -393 -43 -688 -25 -963 9 -133 14 -271 10 -307 -4
-36 -29 -198 -57 -360 -57 -339 -69 -520 -49 -750 30 -349 95 -578 374 -1315
131 -347 178 -517 246 -892 99 -544 141 -985 181 -1927 6 -136 20 -334 31
-440 26 -246 36 -651 20 -823 -10 -107 -37 -277 -57 -358 -3 -11 4 -4 15 15
11 19 20 28 21 20 4 -101 123 -773 179 -1015 47 -203 71 -342 106 -615 15
-113 42 -297 60 -410 67 -409 69 -439 70 -880 0 -452 -5 -495 -70 -635 -40
-87 -82 -129 -165 -169 -56 -26 -77 -31 -145 -31 -143 0 -241 66 -337 228
-106 178 -191 570 -213 987 -9 174 -51 372 -141 666 -134 435 -143 470 -214
823 -83 414 -114 522 -167 583 -13 14 -8 20 49 52 38 21 55 36 43 36 -27 0
-107 -38 -188 -89 -69 -44 -219 -194 -250 -252 -13 -24 3 -11 51 41 l69 74 -5
-157 c-7 -234 18 -525 83 -977 73 -506 77 -550 85 -1125 6 -381 14 -600 28
-780 30 -360 45 -809 39 -1120 -4 -248 -7 -278 -30 -368 -33 -123 -76 -204
-147 -277 -265 -268 -660 -133 -759 260 -27 109 -39 263 -56 740 -28 778 -53
1022 -170 1625 -73 376 -81 435 -110 835 -42 571 -70 795 -115 931 -11 32 -20
60 -20 62 0 2 28 10 63 17 73 15 105 29 67 30 -49 0 -203 -31 -271 -56 -71
-26 -194 -92 -186 -100 2 -3 33 9 68 25 34 17 64 29 65 28 1 -1 -8 -36 -19
-77 -20 -71 -21 -97 -22 -530 0 -349 4 -512 19 -700 24 -320 25 -758 2 -1060
-34 -459 -31 -898 9 -1339 37 -401 41 -709 14 -980 -17 -176 -59 -286 -141
-377 -124 -135 -345 -170 -529 -83 -182 86 -290 238 -333 469 -57 302 -91 669
-106 1135 -17 546 -20 580 -112 1265 -35 266 -36 317 -27 1380 4 556 -3 738
-36 864 -7 28 -12 52 -10 54 1 2 36 -8 76 -22 41 -13 75 -23 77 -21 2 2 -25
17 -60 34 -89 44 -372 102 -354 72 4 -6 17 -11 30 -11 34 0 36 -8 11 -53 -58
-105 -74 -217 -150 -1107 -9 -102 -25 -264 -35 -360 -11 -96 -26 -254 -35
-350 -8 -96 -31 -296 -51 -445 -49 -374 -53 -460 -41 -840 14 -447 -6 -766
-64 -990 -30 -120 -99 -254 -167 -326 -51 -54 -64 -63 -127 -80 -224 -62 -438
32 -534 234 -63 133 -119 371 -162 692 -15 117 -22 248 -29 595 -10 479 -23
841 -41 1175 -6 116 -9 296 -6 400 6 188 57 828 99 1245 26 263 28 534 5 785
-9 99 -24 335 -32 525 -32 741 -51 849 -210 1223 -19 47 -16 45 83 -37 106
-88 137 -155 193 -414 17 -81 47 -199 66 -262 36 -119 93 -273 99 -267 2 2 -9
42 -25 89 -16 47 -48 168 -71 269 -73 319 -88 378 -115 436 -14 31 -23 58 -21
61 8 8 88 -44 147 -95 63 -54 110 -106 129 -143 7 -14 15 -20 17 -13 17 50
-152 218 -283 282 -47 23 -140 93 -237 180 -4 4 41 45 101 92 60 46 117 95
127 108 23 30 27 32 -160 -93 -107 -71 -177 -127 -246 -195 -165 -165 -241
-300 -401 -709 -111 -287 -117 -298 -168 -367 -53 -71 -65 -100 -85 -190 -69
-315 -220 -593 -493 -908 -91 -106 -258 -258 -357 -326 -280 -193 -503 -235
-726 -135 -66 30 -139 102 -158 156 l-12 33 114 110 c63 60 121 124 130 141
37 73 119 293 142 381 27 104 31 177 14 262 -11 53 -10 62 24 166 51 159 63
209 96 415 39 240 60 313 128 440 162 307 198 380 271 550 147 342 213 553
297 959 74 353 140 500 351 781 216 289 388 551 589 900 381 661 483 816 695
1050 243 269 323 391 402 620 40 115 64 227 84 400 14 121 15 183 8 375 -16
404 -10 745 15 950 38 305 38 548 2 1115 -95 1466 -140 2033 -192 2410 -28
209 -109 679 -259 1515 -132 731 -164 977 -274 2065 l-13 135 -2 -91z m-2233
-14871 c-5 -108 -14 -139 -111 -383 l-61 -155 -115 -117 c-63 -64 -117 -116
-118 -114 -2 2 30 88 72 192 82 204 310 674 327 674 7 0 9 -33 6 -97z"/>
<path d="M8722 20990 c0 -14 2 -19 5 -12 2 6 2 18 0 25 -3 6 -5 1 -5 -13z"/>
<path d="M8688 20774 c-33 -223 -164 -1222 -208 -1579 -66 -539 -141 -1175
-175 -1480 -19 -176 -46 -412 -60 -525 -177 -1471 -249 -2403 -256 -3305 -1
-126 -5 -239 -9 -250 -6 -16 -36 -27 -156 -58 -82 -20 -154 -37 -161 -37 -9 0
-8 10 3 36 27 64 154 437 150 441 -2 2 -23 -52 -46 -119 -24 -68 -63 -177 -87
-244 l-44 -120 -97 -32 c-146 -47 -288 -79 -435 -97 -176 -21 -190 -25 -77
-19 155 8 342 44 512 100 43 14 82 23 87 20 5 -4 11 -2 13 3 1 4 68 25 148 45
80 20 154 39 166 42 l21 5 7 -546 7 -546 -50 -45 c-27 -24 -70 -76 -95 -114
-58 -88 -99 -134 -141 -160 -54 -33 -82 -12 -138 102 -51 104 -74 174 -93 293
l-14 80 5 -71 c6 -93 47 -230 94 -321 21 -40 36 -73 33 -73 -3 0 -54 16 -113
35 -106 34 -209 54 -278 55 -53 0 -33 -8 49 -21 41 -6 118 -26 170 -44 52 -18
160 -55 240 -83 243 -85 404 -119 670 -143 176 -16 532 -16 640 0 138 20 272
49 356 77 117 39 299 135 386 204 l77 62 5 61 c3 34 11 126 17 205 11 134 13
142 33 143 17 1 17 2 4 6 -14 3 -18 15 -18 47 0 82 31 352 62 544 l31 192 91
0 c50 0 96 -4 103 -8 9 -6 7 -43 -9 -162 -17 -122 -21 -210 -22 -412 -1 -142
-2 -258 -3 -258 -2 0 -42 11 -89 25 -47 14 -96 25 -108 25 -11 -1 20 -12 69
-25 148 -39 139 -31 152 -121 21 -143 84 -417 125 -544 49 -152 118 -310 254
-581 293 -587 439 -1041 504 -1572 54 -443 81 -943 78 -1482 -1 -329 1 -394
22 -585 13 -118 25 -209 28 -202 2 6 -2 60 -9 119 -8 71 -13 288 -15 633 -2
570 -7 753 -29 1075 -47 682 -153 1137 -390 1684 -35 80 -119 259 -187 396
-155 314 -206 435 -258 608 -40 132 -110 448 -110 495 l0 22 53 -26 c63 -32
55 -20 -11 16 l-47 25 -8 80 c-12 114 -2 350 23 565 12 102 24 187 26 189 10
10 90 -24 150 -64 36 -25 61 -38 54 -30 -24 29 -132 94 -166 101 -22 4 -34 12
-34 23 0 28 48 424 85 696 68 502 134 933 275 1800 33 204 76 471 96 595 19
124 69 430 110 680 81 496 198 1238 244 1555 16 110 45 288 64 395 41 234 89
557 84 572 -2 6 -14 -56 -27 -138 -97 -634 -336 -1738 -496 -2289 -61 -210
-210 -653 -297 -885 -39 -102 -88 -232 -109 -290 -21 -58 -38 -100 -39 -95 0
6 27 161 59 345 33 184 94 544 136 800 80 491 144 851 225 1270 64 331 132
720 127 733 -1 5 -13 -50 -26 -124 -13 -74 -43 -233 -66 -354 -149 -751 -245
-1276 -340 -1859 -77 -479 -214 -1185 -295 -1531 -144 -610 -277 -984 -564
-1575 l-133 -275 -169 -3 c-93 -1 -215 0 -271 4 -103 6 -103 6 -104 32 -2 26
-2 26 -6 3 -5 -27 4 -27 -312 5 l-184 19 6 305 c8 409 52 1037 107 1535 58
520 175 1293 259 1706 202 989 417 2169 527 2893 67 445 104 701 103 721 -2
32 -15 -39 -74 -410 -165 -1027 -288 -1701 -570 -3110 -166 -827 -284 -1719
-354 -2665 -15 -193 -31 -595 -34 -800 l-2 -175 -87 -3 -88 -3 0 188 c0 340
33 1108 65 1533 27 346 112 1170 165 1590 11 85 36 304 55 485 20 182 49 443
65 580 16 138 36 315 45 395 9 80 38 330 66 555 105 872 130 1079 159 1335 17
146 42 350 56 454 14 104 24 196 22 204 -2 9 -15 -70 -30 -174z m2223 -2191
c-6 -32 -27 -159 -46 -283 -20 -124 -48 -304 -64 -400 -16 -96 -39 -236 -51
-310 -11 -74 -30 -182 -40 -240 -19 -99 -140 -841 -306 -1869 -100 -624 -195
-1295 -244 -1721 -24 -215 -26 -223 -48 -216 -9 3 -54 8 -99 12 -46 4 -83 10
-83 13 0 4 9 56 20 117 58 315 110 661 140 939 20 184 39 568 50 980 12 481 8
453 136 793 150 398 320 917 394 1207 88 342 169 686 211 887 18 87 34 156 36
154 3 -2 -1 -30 -6 -63z m-793 -2960 c-12 -527 -41 -941 -89 -1283 -22 -161
-117 -736 -125 -762 -10 -32 -278 -37 -411 -8 -60 13 -58 -11 -17 197 32 158
80 310 159 503 107 258 160 406 219 600 63 212 163 607 200 791 42 209 61 289
69 289 1 0 -1 -147 -5 -327z m-647 -1764 c-61 -264 -106 -597 -127 -948 l-7
-110 -66 -6 c-36 -3 -96 -10 -133 -16 -105 -14 -109 -14 -102 19 22 92 109
381 138 457 73 190 304 700 313 691 2 -2 -5 -41 -16 -87z m-1271 -377 c0 -269
35 -837 71 -1152 11 -96 22 -201 26 -233 l6 -58 -79 6 c-43 3 -82 9 -86 13 -4
4 -9 30 -11 57 l-3 50 -2 -57 c-2 -55 -3 -57 -24 -49 -13 4 -28 6 -35 4 -6 -2
-14 0 -17 6 -17 27 -31 794 -26 1499 l0 52 90 0 90 0 0 -138z m220 118 c160
-15 170 -18 171 -43 2 -21 2 -21 6 1 4 22 7 23 61 16 31 -4 60 -12 64 -18 5
-8 8 -7 8 2 0 8 7 11 18 8 13 -4 176 -16 247 -18 6 0 67 3 138 7 82 5 127 4
127 -2 0 -6 -22 -64 -49 -129 -70 -168 -136 -367 -176 -523 -19 -74 -37 -137
-42 -142 -17 -17 -225 -38 -528 -53 -38 -2 22 -1 135 1 113 2 247 10 298 16
84 12 92 11 92 -4 0 -9 -11 -75 -24 -146 -31 -163 -46 -306 -46 -439 l0 -103
-36 -7 c-52 -10 -533 1 -544 12 -24 24 -94 911 -107 1351 l-6 232 39 -4 c21
-3 91 -9 154 -15z m1105 -51 c29 -7 116 -11 211 -11 l161 2 -23 -133 c-13 -74
-25 -154 -28 -178 -9 -66 -36 -357 -40 -411 -1 -27 -5 -50 -7 -52 -2 -2 -53 2
-114 9 -60 7 -159 16 -219 20 l-108 7 6 87 c12 146 46 471 61 573 8 54 15 100
15 104 0 3 8 3 18 0 9 -3 40 -11 67 -17z m-185 -948 c0 -165 13 -406 25 -458
5 -20 -2 -25 -78 -48 -45 -14 -96 -27 -112 -29 -17 -3 -76 -12 -133 -22 -56
-9 -104 -15 -106 -13 -12 17 32 416 67 599 l22 114 40 9 c54 11 169 24 228 26
l47 1 0 -179z m241 169 c73 -6 153 -13 176 -16 l42 -5 -6 -107 c-3 -59 -6
-108 -8 -109 -1 -2 -22 17 -47 41 -77 73 -142 79 -290 26 -91 -32 -88 -34 -88
80 l0 100 43 0 c24 0 104 -5 178 -10z m108 -180 c18 -12 46 -41 62 -63 24 -33
29 -50 29 -96 0 -35 -6 -65 -15 -78 -43 -61 -361 -238 -376 -210 -4 7 -12 102
-18 211 -12 208 -12 215 29 216 8 1 47 12 85 26 86 30 156 29 204 -6z m-1689
-172 c0 -34 5 -124 11 -201 6 -76 9 -140 7 -141 -6 -6 -199 46 -296 79 -8 3 6
24 38 56 29 29 72 83 96 120 52 82 111 149 130 149 10 0 14 -16 14 -62z"/>
<path d="M10122 14600 c0 -14 2 -19 5 -12 2 6 2 18 0 25 -3 6 -5 1 -5 -13z"/>
<path d="M10112 14540 c0 -14 2 -19 5 -12 2 6 2 18 0 25 -3 6 -5 1 -5 -13z"/>
<path d="M10102 14480 c0 -14 2 -19 5 -12 2 6 2 18 0 25 -3 6 -5 1 -5 -13z"/>
<path d="M8112 12230 c0 -19 2 -27 5 -17 2 9 2 25 0 35 -3 9 -5 1 -5 -18z"/>
<path d="M8242 12110 c0 -19 2 -27 5 -17 2 9 2 25 0 35 -3 9 -5 1 -5 -18z"/>
<path d="M8712 13515 c0 -16 2 -22 5 -12 2 9 2 23 0 30 -3 6 -5 -1 -5 -18z"/>
<path d="M9071 13464 c0 -11 3 -14 6 -6 3 7 2 16 -1 19 -3 4 -6 -2 -5 -13z"/>
<path d="M8702 13445 c0 -16 2 -22 5 -12 2 9 2 23 0 30 -3 6 -5 -1 -5 -18z"/>
<path d="M8961 13434 c0 -11 3 -14 6 -6 3 7 2 16 -1 19 -3 4 -6 -2 -5 -13z"/>
<path d="M8946 13384 c-4 -14 -5 -28 -3 -31 3 -2 8 8 11 23 4 14 5 28 3 31 -3
2 -8 -8 -11 -23z"/>
<path d="M8691 13364 c0 -11 3 -14 6 -6 3 7 2 16 -1 19 -3 4 -6 -2 -5 -13z"/>
<path d="M8931 13324 c0 -11 3 -14 6 -6 3 7 2 16 -1 19 -3 4 -6 -2 -5 -13z"/>
<path d="M9232 20850 c0 -14 2 -19 5 -12 2 6 2 18 0 25 -3 6 -5 1 -5 -13z"/>
<path d="M11162 20165 c0 -16 2 -22 5 -12 2 9 2 23 0 30 -3 6 -5 -1 -5 -18z"/>
<path d="M11140 20030 c-6 -50 -10 -93 -7 -96 2 -2 10 36 17 86 6 50 10 93 7
96 -2 2 -10 -36 -17 -86z"/>
<path d="M8952 20090 c0 -14 2 -19 5 -12 2 6 2 18 0 25 -3 6 -5 1 -5 -13z"/>
<path d="M8935 20005 c-3 -26 -4 -49 -2 -51 3 -3 8 16 12 41 3 26 4 49 2 51
-3 3 -8 -16 -12 -41z"/>
<path d="M8921 19914 c0 -11 3 -14 6 -6 3 7 2 16 -1 19 -3 4 -6 -2 -5 -13z"/>
<path d="M11122 19890 c0 -19 2 -27 5 -17 2 9 2 25 0 35 -3 9 -5 1 -5 -18z"/>
<path d="M8912 19860 c0 -14 2 -19 5 -12 2 6 2 18 0 25 -3 6 -5 1 -5 -13z"/>
<path d="M8881 19664 c0 -11 3 -14 6 -6 3 7 2 16 -1 19 -3 4 -6 -2 -5 -13z"/>
<path d="M8872 19600 c0 -14 2 -19 5 -12 2 6 2 18 0 25 -3 6 -5 1 -5 -13z"/>
<path d="M8862 19545 c0 -16 2 -22 5 -12 2 9 2 23 0 30 -3 6 -5 -1 -5 -18z"/>
<path d="M8831 19385 c-13 -68 -21 -130 -19 -136 2 -7 14 48 27 120 12 73 21
135 19 137 -3 2 -15 -52 -27 -121z"/>
<path d="M8611 19444 c0 -11 3 -14 6 -6 3 7 2 16 -1 19 -3 4 -6 -2 -5 -13z"/>
<path d="M8602 19380 c0 -14 2 -19 5 -12 2 6 2 18 0 25 -3 6 -5 1 -5 -13z"/>
<path d="M10702 19335 c0 -16 2 -22 5 -12 2 9 2 23 0 30 -3 6 -5 -1 -5 -18z"/>
<path d="M8592 19305 c0 -16 2 -22 5 -12 2 9 2 23 0 30 -3 6 -5 -1 -5 -18z"/>
<path d="M8582 19240 c0 -14 2 -19 5 -12 2 6 2 18 0 25 -3 6 -5 1 -5 -13z"/>
<path d="M8802 19205 c0 -16 2 -22 5 -12 2 9 2 23 0 30 -3 6 -5 -1 -5 -18z"/>
<path d="M8571 19164 c0 -11 3 -14 6 -6 3 7 2 16 -1 19 -3 4 -6 -2 -5 -13z"/>
<path d="M8792 19145 c0 -16 2 -22 5 -12 2 9 2 23 0 30 -3 6 -5 -1 -5 -18z"/>
<path d="M8782 19090 c0 -14 2 -19 5 -12 2 6 2 18 0 25 -3 6 -5 1 -5 -13z"/>
<path d="M8771 19024 c0 -11 3 -14 6 -6 3 7 2 16 -1 19 -3 4 -6 -2 -5 -13z"/>
<path d="M8861 19024 c0 -11 3 -14 6 -6 3 7 2 16 -1 19 -3 4 -6 -2 -5 -13z"/>
<path d="M8852 18970 c0 -14 2 -19 5 -12 2 6 2 18 0 25 -3 6 -5 1 -5 -13z"/>
<path d="M8826 18844 c-10 -52 -16 -97 -14 -99 2 -3 12 38 22 91 10 52 16 97
14 99 -2 3 -12 -38 -22 -91z"/>
<path d="M8752 18890 c0 -14 2 -19 5 -12 2 6 2 18 0 25 -3 6 -5 1 -5 -13z"/>
<path d="M8742 18825 c0 -16 2 -22 5 -12 2 9 2 23 0 30 -3 6 -5 -1 -5 -18z"/>
<path d="M8725 18745 c-3 -26 -4 -49 -2 -51 3 -3 8 16 12 41 3 26 4 49 2 51
-3 3 -8 -16 -12 -41z"/>
<path d="M8601 18764 c0 -11 3 -14 6 -6 3 7 2 16 -1 19 -3 4 -6 -2 -5 -13z"/>
<path d="M8592 18710 c0 -14 2 -19 5 -12 2 6 2 18 0 25 -3 6 -5 1 -5 -13z"/>
<path d="M8795 18685 c-3 -26 -4 -49 -2 -51 3 -3 8 16 12 41 3 26 4 49 2 51
-3 3 -8 -16 -12 -41z"/>
<path d="M8705 18635 c-3 -26 -4 -49 -2 -51 3 -3 8 16 12 41 3 26 4 49 2 51
-3 3 -8 -16 -12 -41z"/>
<path d="M8582 18650 c0 -14 2 -19 5 -12 2 6 2 18 0 25 -3 6 -5 1 -5 -13z"/>
<path d="M8782 18595 c0 -16 2 -22 5 -12 2 9 2 23 0 30 -3 6 -5 -1 -5 -18z"/>
<path d="M8692 18550 c0 -14 2 -19 5 -12 2 6 2 18 0 25 -3 6 -5 1 -5 -13z"/>
<path d="M8772 18535 c0 -16 2 -22 5 -12 2 9 2 23 0 30 -3 6 -5 -1 -5 -18z"/>
<path d="M8681 18494 c0 -11 3 -14 6 -6 3 7 2 16 -1 19 -3 4 -6 -2 -5 -13z"/>
<path d="M8762 18470 c0 -14 2 -19 5 -12 2 6 2 18 0 25 -3 6 -5 1 -5 -13z"/>
<path d="M8752 18415 c0 -16 2 -22 5 -12 2 9 2 23 0 30 -3 6 -5 -1 -5 -18z"/>
<path d="M8742 18355 c0 -16 2 -22 5 -12 2 9 2 23 0 30 -3 6 -5 -1 -5 -18z"/>
<path d="M8732 18300 c0 -14 2 -19 5 -12 2 6 2 18 0 25 -3 6 -5 1 -5 -13z"/>
<path d="M9761 18284 c0 -11 3 -14 6 -6 3 7 2 16 -1 19 -3 4 -6 -2 -5 -13z"/>
<path d="M8711 18199 c-7 -38 -11 -72 -9 -75 3 -2 10 28 17 67 7 38 11 72 9
75 -3 2 -10 -28 -17 -67z"/>
<path d="M9752 18240 c0 -14 2 -19 5 -12 2 6 2 18 0 25 -3 6 -5 1 -5 -13z"/>
<path d="M9742 18190 c0 -14 2 -19 5 -12 2 6 2 18 0 25 -3 6 -5 1 -5 -13z"/>
<path d="M8692 18090 c0 -14 2 -19 5 -12 2 6 2 18 0 25 -3 6 -5 1 -5 -13z"/>
<path d="M8611 18084 c0 -11 3 -14 6 -6 3 7 2 16 -1 19 -3 4 -6 -2 -5 -13z"/>
<path d="M8682 18040 c0 -14 2 -19 5 -12 2 6 2 18 0 25 -3 6 -5 1 -5 -13z"/>
<path d="M8601 18034 c0 -11 3 -14 6 -6 3 7 2 16 -1 19 -3 4 -6 -2 -5 -13z"/>
<path d="M8592 17980 c0 -14 2 -19 5 -12 2 6 2 18 0 25 -3 6 -5 1 -5 -13z"/>
<path d="M8671 17984 c0 -11 3 -14 6 -6 3 7 2 16 -1 19 -3 4 -6 -2 -5 -13z"/>
<path d="M8581 17924 c0 -11 3 -14 6 -6 3 7 2 16 -1 19 -3 4 -6 -2 -5 -13z"/>
<path d="M9671 17824 c0 -11 3 -14 6 -6 3 7 2 16 -1 19 -3 4 -6 -2 -5 -13z"/>
<path d="M9661 17774 c0 -11 3 -14 6 -6 3 7 2 16 -1 19 -3 4 -6 -2 -5 -13z"/>
<path d="M9652 17730 c0 -14 2 -19 5 -12 2 6 2 18 0 25 -3 6 -5 1 -5 -13z"/>
<path d="M9636 17664 c-4 -20 -5 -38 -3 -40 3 -3 8 11 11 32 4 20 5 38 3 40
-3 3 -8 -11 -11 -32z"/>
<path d="M9622 17590 c0 -14 2 -19 5 -12 2 6 2 18 0 25 -3 6 -5 1 -5 -13z"/>
<path d="M9611 17544 c0 -11 3 -14 6 -6 3 7 2 16 -1 19 -3 4 -6 -2 -5 -13z"/>
<path d="M9601 17494 c0 -11 3 -14 6 -6 3 7 2 16 -1 19 -3 4 -6 -2 -5 -13z"/>
<path d="M9591 17444 c0 -11 3 -14 6 -6 3 7 2 16 -1 19 -3 4 -6 -2 -5 -13z"/>
<path d="M9581 17394 c0 -11 3 -14 6 -6 3 7 2 16 -1 19 -3 4 -6 -2 -5 -13z"/>
<path d="M9571 17344 c0 -11 3 -14 6 -6 3 7 2 16 -1 19 -3 4 -6 -2 -5 -13z"/>
<path d="M9561 17294 c0 -11 3 -14 6 -6 3 7 2 16 -1 19 -3 4 -6 -2 -5 -13z"/>
<path d="M9521 17129 c-18 -77 -31 -142 -29 -144 3 -3 19 58 37 136 18 77 31
142 29 144 -3 3 -19 -58 -37 -136z"/>
<path d="M9481 16954 c0 -11 3 -14 6 -6 3 7 2 16 -1 19 -3 4 -6 -2 -5 -13z"/>
<path d="M9472 16910 c0 -14 2 -19 5 -12 2 6 2 18 0 25 -3 6 -5 1 -5 -13z"/>
<path d="M8292 16880 c0 -14 2 -19 5 -12 2 6 2 18 0 25 -3 6 -5 1 -5 -13z"/>
<path d="M9461 16864 c0 -11 3 -14 6 -6 3 7 2 16 -1 19 -3 4 -6 -2 -5 -13z"/>
<path d="M9378 16538 c-79 -309 -114 -437 -257 -935 -99 -343 -185 -695 -245
-1000 -55 -277 -96 -517 -95 -552 1 -14 6 1 11 34 83 524 221 1122 398 1720
103 351 274 1007 268 1027 -2 5 -38 -128 -80 -294z"/>
<path d="M8283 16785 c0 -22 2 -30 4 -17 2 12 2 30 0 40 -3 9 -5 -1 -4 -23z"/>
<path d="M8270 16727 c0 -10 -11 -115 -25 -235 -14 -119 -25 -228 -23 -242 2
-14 16 89 32 228 16 139 26 255 22 259 -3 3 -6 -1 -6 -10z"/>
<path d="M10001 16664 c0 -11 3 -14 6 -6 3 7 2 16 -1 19 -3 4 -6 -2 -5 -13z"/>
<path d="M9992 16620 c0 -14 2 -19 5 -12 2 6 2 18 0 25 -3 6 -5 1 -5 -13z"/>
<path d="M9981 16574 c0 -11 3 -14 6 -6 3 7 2 16 -1 19 -3 4 -6 -2 -5 -13z"/>
<path d="M9971 16534 c0 -11 3 -14 6 -6 3 7 2 16 -1 19 -3 4 -6 -2 -5 -13z"/>
<path d="M8362 16395 c0 -16 2 -22 5 -12 2 9 2 23 0 30 -3 6 -5 -1 -5 -18z"/>
<path d="M8352 16335 c0 -16 2 -22 5 -12 2 9 2 23 0 30 -3 6 -5 -1 -5 -18z"/>
<path d="M8342 16275 c0 -16 2 -22 5 -12 2 9 2 23 0 30 -3 6 -5 -1 -5 -18z"/>
<path d="M9911 16254 c0 -11 3 -14 6 -6 3 7 2 16 -1 19 -3 4 -6 -2 -5 -13z"/>
<path d="M8332 16210 c0 -14 2 -19 5 -12 2 6 2 18 0 25 -3 6 -5 1 -5 -13z"/>
<path d="M9877 16118 c-15 -61 -26 -113 -24 -115 3 -2 17 46 32 107 15 61 26
113 23 115 -2 2 -16 -46 -31 -107z"/>
<path d="M8213 16175 c0 -27 2 -38 4 -22 2 15 2 37 0 50 -2 12 -4 0 -4 -28z"/>
<path d="M8321 16144 c0 -11 3 -14 6 -6 3 7 2 16 -1 19 -3 4 -6 -2 -5 -13z"/>
<path d="M8203 16075 c0 -27 2 -38 4 -22 2 15 2 37 0 50 -2 12 -4 0 -4 -28z"/>
<path d="M8193 15965 c0 -27 2 -38 4 -22 2 15 2 37 0 50 -2 12 -4 0 -4 -28z"/>
<path d="M8301 15974 c0 -11 3 -14 6 -6 3 7 2 16 -1 19 -3 4 -6 -2 -5 -13z"/>
<path d="M9841 15974 c0 -11 3 -14 6 -6 3 7 2 16 -1 19 -3 4 -6 -2 -5 -13z"/>
<path d="M9831 15934 c0 -11 3 -14 6 -6 3 7 2 16 -1 19 -3 4 -6 -2 -5 -13z"/>
<path d="M8293 15895 c0 -22 2 -30 4 -17 2 12 2 30 0 40 -3 9 -5 -1 -4 -23z"/>
<path d="M8183 15865 c0 -27 2 -38 4 -22 2 15 2 37 0 50 -2 12 -4 0 -4 -28z"/>
<path d="M9821 15894 c0 -11 3 -14 6 -6 3 7 2 16 -1 19 -3 4 -6 -2 -5 -13z"/>
<path d="M8266 15689 c-28 -245 -56 -550 -55 -594 1 -22 6 1 10 50 5 50 23
222 40 383 17 161 29 298 27 304 -2 6 -12 -59 -22 -143z"/>
<path d="M9745 15612 c-89 -321 -153 -524 -342 -1100 -96 -293 -173 -535 -171
-537 4 -5 325 964 397 1200 73 239 183 636 179 641 -3 2 -31 -89 -63 -204z"/>
<path d="M8162 15673 c-28 -291 -53 -636 -49 -671 3 -32 4 -30 5 13 1 28 13
181 27 340 14 160 28 325 31 368 4 42 5 77 2 77 -2 0 -10 -57 -16 -127z"/>
<path d="M9781 15054 c0 -11 3 -14 6 -6 3 7 2 16 -1 19 -3 4 -6 -2 -5 -13z"/>
<path d="M8203 14975 c0 -38 2 -53 4 -32 2 20 2 52 0 70 -2 17 -4 1 -4 -38z"/>
<path d="M9741 14929 c-12 -39 -21 -72 -19 -75 2 -2 14 28 27 67 12 39 21 72
19 75 -2 2 -14 -28 -27 -67z"/>
<path d="M8104 14870 c0 -52 1 -74 3 -47 2 26 2 68 0 95 -2 26 -3 4 -3 -48z"/>
<path d="M8192 14850 c0 -14 2 -19 5 -12 2 6 2 18 0 25 -3 6 -5 1 -5 -13z"/>
<path d="M8193 14785 c0 -22 2 -30 4 -17 2 12 2 30 0 40 -3 9 -5 -1 -4 -23z"/>
<path d="M8094 14685 c0 -49 1 -71 3 -48 2 23 2 64 0 90 -2 26 -3 8 -3 -42z"/>
<path d="M9642 14628 c-17 -50 -30 -93 -28 -95 2 -2 18 37 36 87 18 50 31 92
29 95 -2 2 -19 -37 -37 -87z"/>
<path d="M8084 14465 c0 -49 1 -71 3 -48 2 23 2 64 0 90 -2 26 -3 8 -3 -42z"/>
<path d="M9527 14318 c-20 -50 -35 -93 -33 -95 2 -2 20 37 40 88 20 50 35 93
33 95 -2 2 -20 -37 -40 -88z"/>
<path d="M8711 14354 c0 -11 3 -14 6 -6 3 7 2 16 -1 19 -3 4 -6 -2 -5 -13z"/>
<path d="M9176 14184 c-9 -26 -16 -52 -15 -58 0 -6 9 13 20 43 10 30 17 56 15
58 -2 2 -11 -17 -20 -43z"/>
<path d="M8071 14124 c0 -11 3 -14 6 -6 3 7 2 16 -1 19 -3 4 -6 -2 -5 -13z"/>
<path d="M9426 14065 c-9 -26 -7 -32 5 -12 6 10 9 21 6 23 -2 3 -7 -2 -11 -11z"/>
<path d="M8772 13995 c0 -16 2 -22 5 -12 2 9 2 23 0 30 -3 6 -5 -1 -5 -18z"/>
<path d="M9396 13995 c-9 -26 -7 -32 5 -12 6 10 9 21 6 23 -2 3 -7 -2 -11 -11z"/>
<path d="M9186 13844 c-21 -64 -36 -117 -34 -119 2 -2 21 48 42 111 21 64 36
117 34 119 -2 2 -21 -48 -42 -111z"/>
<path d="M8763 13915 c0 -22 2 -30 4 -17 2 12 2 30 0 40 -3 9 -5 -1 -4 -23z"/>
<path d="M9091 13904 c0 -11 3 -14 6 -6 3 7 2 16 -1 19 -3 4 -6 -2 -5 -13z"/>
<path d="M8752 13840 c0 -19 2 -27 5 -17 2 9 2 25 0 35 -3 9 -5 1 -5 -18z"/>
<path d="M9056 13789 c-9 -34 -15 -63 -13 -66 2 -2 12 24 21 58 10 33 16 63
13 65 -2 2 -11 -24 -21 -57z"/>
<path d="M8743 13755 c0 -22 2 -30 4 -17 2 12 2 30 0 40 -3 9 -5 -1 -4 -23z"/>
<path d="M8611 13724 c0 -11 3 -14 6 -6 3 7 2 16 -1 19 -3 4 -6 -2 -5 -13z"/>
<path d="M8733 13675 c0 -22 2 -30 4 -17 2 12 2 30 0 40 -3 9 -5 -1 -4 -23z"/>
<path d="M8602 13660 c0 -14 2 -19 5 -12 2 6 2 18 0 25 -3 6 -5 1 -5 -13z"/>
<path d="M8831 13664 c0 -11 3 -14 6 -6 3 7 2 16 -1 19 -3 4 -6 -2 -5 -13z"/>
<path d="M9021 13664 c0 -11 3 -14 6 -6 3 7 2 16 -1 19 -3 4 -6 -2 -5 -13z"/>
<path d="M6898 13373 c6 -2 18 -2 25 0 6 3 1 5 -13 5 -14 0 -19 -2 -12 -5z"/>
<path d="M7472 12920 c0 -14 2 -19 5 -12 2 6 2 18 0 25 -3 6 -5 1 -5 -13z"/>
<path d="M7463 12840 c0 -25 2 -35 4 -22 2 12 2 32 0 45 -2 12 -4 2 -4 -23z"/>
<path d="M7452 12765 l-2 -31 -97 13 c-116 16 -194 10 -323 -23 -126 -32 -259
-72 -240 -73 8 -1 47 8 85 19 259 75 358 87 506 60 35 -7 80 -14 99 -16 58 -6
351 -7 357 0 4 3 -59 6 -139 6 -80 0 -166 3 -191 6 -42 6 -46 9 -50 38 l-4 31
-1 -30z"/>
<path d="M6748 12643 c7 -3 16 -2 19 1 4 3 -2 6 -13 5 -11 0 -14 -3 -6 -6z"/>
<path d="M6505 12054 c-38 -36 -126 -107 -195 -156 -468 -340 -649 -551 -975
-1138 -185 -335 -299 -577 -360 -771 -16 -52 -68 -156 -151 -302 -139 -242
-168 -301 -207 -422 -41 -125 -65 -263 -81 -476 -9 -108 -21 -222 -27 -255
-33 -190 -138 -461 -259 -673 -124 -216 -129 -236 -13 -56 97 151 194 349 243
495 48 143 75 296 90 510 6 85 18 196 26 245 16 94 66 255 106 340 33 72 222
414 226 410 2 -2 -3 -45 -12 -97 -18 -110 -41 -399 -33 -419 3 -8 6 4 6 27 2
71 41 363 62 462 59 273 223 637 507 1127 259 446 421 629 842 955 114 88 200
164 247 219 19 23 33 41 31 41 -2 -1 -34 -30 -73 -66z"/>
<path d="M8098 11923 c7 -3 16 -2 19 1 4 3 -2 6 -13 5 -11 0 -14 -3 -6 -6z"/>
<path d="M8138 11913 c6 -2 18 -2 25 0 6 3 1 5 -13 5 -14 0 -19 -2 -12 -5z"/>
<path d="M8185 11906 c23 -11 230 -36 375 -46 94 -6 200 -7 270 -2 112 8 109
8 -85 9 -119 0 -255 7 -335 17 -178 21 -237 27 -225 22z"/>
<path d="M6470 11842 c-127 -70 -267 -173 -376 -279 -44 -43 -58 -57 -30 -32
152 137 294 241 429 314 73 40 98 55 85 55 -2 0 -50 -26 -108 -58z"/>
<path d="M9128 11893 c7 -3 16 -2 19 1 4 3 -2 6 -13 5 -11 0 -14 -3 -6 -6z"/>
<path d="M9063 11883 c9 -2 25 -2 35 0 9 3 1 5 -18 5 -19 0 -27 -2 -17 -5z"/>
<path d="M8973 11873 c15 -2 37 -2 50 0 12 2 0 4 -28 4 -27 0 -38 -2 -22 -4z"/>
<path d="M6616 11750 c-185 -106 -315 -202 -427 -311 -41 -41 -52 -53 -25 -28
141 127 299 241 448 326 85 48 108 63 95 63 -2 0 -42 -23 -91 -50z"/>
<path d="M8253 11773 c9 -2 25 -2 35 0 9 3 1 5 -18 5 -19 0 -27 -2 -17 -5z"/>
<path d="M8333 11763 c9 -2 23 -2 30 0 6 3 -1 5 -18 5 -16 0 -22 -2 -12 -5z"/>
<path d="M8423 11753 c9 -2 25 -2 35 0 9 3 1 5 -18 5 -19 0 -27 -2 -17 -5z"/>
<path d="M9258 11663 c6 -2 18 -2 25 0 6 3 1 5 -13 5 -14 0 -19 -2 -12 -5z"/>
<path d="M9158 11653 c12 -2 32 -2 45 0 12 2 2 4 -23 4 -25 0 -35 -2 -22 -4z"/>
<path d="M8988 11643 c17 -2 47 -2 65 0 17 2 3 4 -33 4 -36 0 -50 -2 -32 -4z"/>
<path d="M10204 11635 c23 -66 60 -155 63 -151 4 4 -56 158 -64 166 -4 3 -3
-4 1 -15z"/>
<path d="M7755 11620 c3 -5 8 -10 11 -10 2 0 4 5 4 10 0 6 -5 10 -11 10 -5 0
-7 -4 -4 -10z"/>
<path d="M7798 11613 c7 -3 16 -2 19 1 4 3 -2 6 -13 5 -11 0 -14 -3 -6 -6z"/>
<path d="M8023 11583 c9 -2 23 -2 30 0 6 3 -1 5 -18 5 -16 0 -22 -2 -12 -5z"/>
<path d="M7781 11575 c0 -5 6 -21 14 -35 8 -14 14 -20 14 -15 0 6 -6 21 -14
35 -8 14 -14 21 -14 15z"/>
<path d="M8103 11573 c9 -2 25 -2 35 0 9 3 1 5 -18 5 -19 0 -27 -2 -17 -5z"/>
<path d="M8193 11563 c9 -2 25 -2 35 0 9 3 1 5 -18 5 -19 0 -27 -2 -17 -5z"/>
<path d="M8283 11553 c9 -2 25 -2 35 0 9 3 1 5 -18 5 -19 0 -27 -2 -17 -5z"/>
<path d="M9961 11490 c-6 -25 -32 -112 -58 -195 -84 -272 -93 -308 -114 -425
-14 -73 -22 -163 -23 -247 0 -73 -4 -133 -8 -133 -4 0 -4 -10 1 -22 5 -13 17
-72 26 -133 36 -240 149 -688 231 -923 107 -301 247 -565 434 -812 108 -143
250 -358 321 -486 81 -148 83 -131 4 31 -54 110 -171 292 -321 501 -147 203
-301 486 -377 689 -74 199 -198 657 -245 905 -65 339 -52 563 49 885 50 162
102 370 96 393 -2 10 -9 -2 -16 -28z"/>
<path d="M10270 11466 c0 -3 21 -48 47 -99 25 -50 82 -184 124 -297 43 -113
78 -200 79 -193 1 24 -144 393 -192 488 -51 102 -58 114 -58 101z"/>
<path d="M10414 11440 c8 -28 79 -180 83 -177 2 3 -17 46 -42 98 -25 52 -43
87 -41 79z"/>
<path d="M5929 11403 c-13 -16 -12 -17 4 -4 16 13 21 21 13 21 -2 0 -10 -8
-17 -17z"/>
<path d="M6959 11383 l-34 -38 38 34 c20 19 37 36 37 38 0 8 -8 0 -41 -34z"/>
<path d="M6050 11305 c-24 -25 -42 -45 -39 -45 3 0 25 20 49 45 24 25 42 45
39 45 -3 0 -25 -20 -49 -45z"/>
<path d="M6854 11278 l-29 -33 33 29 c30 28 37 36 29 36 -2 0 -16 -15 -33 -32z"/>
<path d="M8112 11303 c37 -2 100 -2 140 0 40 1 10 3 -67 3 -77 0 -110 -1 -73
-3z"/>
<path d="M7875 11290 c3 -5 8 -10 11 -10 2 0 4 5 4 10 0 6 -5 10 -11 10 -5 0
-7 -4 -4 -10z"/>
<path d="M7918 11293 c12 -2 30 -2 40 0 9 3 -1 5 -23 4 -22 0 -30 -2 -17 -4z"/>
<path d="M7251 11262 c-5 -82 -255 -534 -424 -767 -143 -195 -368 -435 -534
-569 -40 -32 -73 -61 -73 -63 0 -6 53 35 150 116 221 185 417 417 620 736 169
266 278 490 267 547 l-4 23 -2 -23z"/>
<path d="M8005 11209 c-94 -12 -107 -20 -20 -13 39 4 115 10 170 14 l100 7
-90 0 c-49 0 -121 -4 -160 -8z"/>
<path d="M7885 11190 c-19 -8 -19 -9 3 -9 12 -1 22 4 22 9 0 6 -1 10 -2 9 -2
0 -12 -4 -23 -9z"/>
<path d="M10523 11188 c37 -95 81 -197 84 -194 5 5 -77 206 -84 206 -3 0 -3
-6 0 -12z"/>
<path d="M5929 11173 c-13 -16 -12 -17 4 -4 16 13 21 21 13 21 -2 0 -10 -8
-17 -17z"/>
<path d="M8688 11183 c6 -2 18 -2 25 0 6 3 1 5 -13 5 -14 0 -19 -2 -12 -5z"/>
<path d="M8765 11169 c51 -10 92 -10 50 1 -16 4 -43 8 -60 8 -25 0 -24 -2 10
-9z"/>
<path d="M8870 11150 c14 -4 34 -8 45 -8 16 0 15 2 -5 8 -14 4 -34 8 -45 8
-16 0 -15 -2 5 -8z"/>
<path d="M8948 11133 c6 -2 18 -2 25 0 6 3 1 5 -13 5 -14 0 -19 -2 -12 -5z"/>
<path d="M8998 11123 c7 -3 16 -2 19 1 4 3 -2 6 -13 5 -11 0 -14 -3 -6 -6z"/>
<path d="M9060 11110 c19 -6 73 -22 119 -36 45 -14 85 -23 87 -21 6 5 -162 56
-206 62 l-35 5 35 -10z"/>
<path d="M8281 11079 c-177 -13 -154 -16 89 -11 236 4 343 -5 563 -49 55 -11
101 -18 103 -16 7 6 -190 47 -301 62 -139 18 -319 24 -454 14z"/>
<path d="M8103 11053 c9 -2 23 -2 30 0 6 3 -1 5 -18 5 -16 0 -22 -2 -12 -5z"/>
<path d="M9058 10993 c7 -3 16 -2 19 1 4 3 -2 6 -13 5 -11 0 -14 -3 -6 -6z"/>
<path d="M8235 10979 c-292 -35 -566 -134 -803 -288 -123 -80 -184 -135 -82
-73 36 21 90 53 121 69 32 17 68 38 80 47 34 21 243 110 312 132 50 16 60 16
68 4 7 -13 9 -12 9 1 0 15 62 39 99 39 15 0 14 -64 -4 -238 -28 -270 -49 -364
-106 -479 -197 -397 -608 -843 -980 -1064 -275 -163 -630 -294 -1189 -438
-371 -95 -548 -174 -716 -318 -58 -49 -171 -179 -223 -256 -99 -146 -215 -406
-235 -527 -4 -21 5 -4 22 40 48 124 157 339 224 440 73 109 211 258 307 330
72 55 205 125 219 116 5 -3 17 3 26 13 9 10 43 26 76 36 l59 18 98 -47 c131
-63 205 -115 358 -246 209 -180 347 -274 511 -347 135 -61 153 -61 28 0 -191
93 -364 216 -561 398 -122 112 -237 184 -362 225 -29 9 -49 20 -44 24 12 10
122 42 328 95 185 48 224 59 431 126 276 87 563 220 749 343 347 232 643 558
857 941 l39 70 -6 -45 c-4 -25 -13 -50 -21 -56 -9 -7 -11 -13 -5 -15 12 -4
-73 -358 -129 -539 -36 -118 -166 -484 -183 -515 -6 -11 -12 -27 -13 -34 -2
-8 -24 -65 -49 -127 -40 -95 -51 -114 -76 -124 -16 -7 -28 -15 -25 -17 2 -3
14 0 25 7 12 6 21 8 21 5 0 -6 -155 -312 -210 -414 -69 -128 -231 -378 -349
-539 -47 -65 -45 -64 -108 -47 -10 3 -3 -2 15 -10 17 -8 32 -18 32 -21 0 -3
-19 -27 -41 -54 l-42 -49 -43 25 c-24 14 -44 24 -44 21 0 -3 18 -16 40 -28 22
-13 40 -26 40 -30 0 -19 -242 -235 -379 -337 -186 -139 -241 -194 -286 -287
-57 -117 -96 -302 -93 -450 1 -58 2 -51 9 43 10 138 49 305 91 392 39 81 128
171 260 264 207 145 392 320 536 505 182 236 408 605 547 895 148 308 330 807
419 1147 97 369 173 799 192 1087 8 112 1 103 81 116 27 4 32 2 36 -17 4 -22
4 -22 6 -1 1 16 9 23 31 26 17 3 30 0 30 -6 0 -6 5 -5 12 2 7 7 21 12 31 12
18 0 19 -5 12 -57 -38 -317 -232 -1104 -385 -1563 -117 -349 -211 -575 -360
-865 -196 -384 -284 -522 -523 -825 -88 -112 -91 -118 -33 -55 237 252 465
608 694 1085 182 377 364 943 532 1652 41 174 66 306 93 483 l23 150 74 3 c51
2 76 -1 82 -10 8 -10 11 -10 15 0 2 6 18 12 34 12 16 0 29 -5 29 -12 0 -10 2
-10 9 0 6 11 30 11 125 3 64 -6 139 -16 166 -22 47 -10 50 -13 61 -52 82 -311
208 -629 432 -1092 138 -284 210 -414 310 -565 91 -136 343 -473 393 -526 22
-22 32 -31 23 -20 -121 153 -419 591 -509 750 -146 254 -387 788 -529 1168
-45 119 -105 318 -98 324 4 4 222 -54 272 -73 36 -13 51 -25 56 -43 7 -23 7
-23 8 -3 1 22 1 22 74 -9 39 -16 74 -34 75 -39 2 -5 9 -9 16 -9 7 0 44 -22 82
-49 65 -45 120 -98 173 -166 20 -26 20 -24 -4 20 -103 188 -411 345 -825 420
-112 20 -538 29 -665 14z"/>
<path d="M10610 10975 c0 -5 5 -17 10 -25 5 -8 10 -10 10 -5 0 6 -5 17 -10 25
-5 8 -10 11 -10 5z"/>
<path d="M9892 10940 c0 -19 2 -27 5 -17 2 9 2 25 0 35 -3 9 -5 1 -5 -18z"/>
<path d="M8262 10900 c0 -14 2 -19 5 -12 2 6 2 18 0 25 -3 6 -5 1 -5 -13z"/>
<path d="M10071 10904 c0 -11 3 -14 6 -6 3 7 2 16 -1 19 -3 4 -6 -2 -5 -13z"/>
<path d="M9885 10645 c4 -313 32 -512 117 -828 17 -64 33 -116 35 -114 1 2
-17 83 -42 180 -65 255 -96 482 -105 767 l-8 235 3 -240z"/>
<path d="M8252 10845 c0 -16 2 -22 5 -12 2 9 2 23 0 30 -3 6 -5 -1 -5 -18z"/>
<path d="M10521 10855 c1 -19 18 -51 18 -35 0 8 -4 22 -9 30 -5 8 -9 11 -9 5z"/>
<path d="M7921 10834 c0 -11 3 -14 6 -6 3 7 2 16 -1 19 -3 4 -6 -2 -5 -13z"/>
<path d="M10081 10834 c0 -11 3 -14 6 -6 3 7 2 16 -1 19 -3 4 -6 -2 -5 -13z"/>
<path d="M8901 10814 c0 -11 3 -14 6 -6 3 7 2 16 -1 19 -3 4 -6 -2 -5 -13z"/>
<path d="M8242 10780 c0 -14 2 -19 5 -12 2 6 2 18 0 25 -3 6 -5 1 -5 -13z"/>
<path d="M10092 10780 c0 -14 2 -19 5 -12 2 6 2 18 0 25 -3 6 -5 1 -5 -13z"/>
<path d="M10543 10787 c3 -7 17 -55 33 -105 15 -51 29 -90 32 -88 5 6 -57 206
-64 206 -4 0 -4 -6 -1 -13z"/>
<path d="M9311 10754 c0 -11 3 -14 6 -6 3 7 2 16 -1 19 -3 4 -6 -2 -5 -13z"/>
<path d="M7327 10697 c-15 -29 -45 -76 -67 -104 -22 -29 -36 -53 -31 -53 17 0
140 195 129 205 -2 2 -16 -20 -31 -48z"/>
<path d="M10101 10724 c0 -11 3 -14 6 -6 3 7 2 16 -1 19 -3 4 -6 -2 -5 -13z"/>
<path d="M6004 10708 l-19 -23 23 19 c21 18 27 26 19 26 -2 0 -12 -10 -23 -22z"/>
<path d="M8875 10610 c-104 -94 -245 -144 -405 -143 -52 0 -108 5 -124 12 -16
6 -31 9 -34 7 -7 -8 46 -26 108 -38 103 -19 271 13 370 70 25 14 67 47 94 74
43 43 71 56 109 49 5 -1 6 3 2 9 -3 5 -19 10 -35 10 -22 0 -45 -14 -85 -50z"/>
<path d="M5914 10603 c-21 -26 -33 -44 -27 -40 14 9 77 87 70 87 -3 0 -22 -21
-43 -47z"/>
<path d="M5336 10525 c-70 -107 -286 -531 -286 -561 0 -5 45 82 99 193 87 177
152 297 199 371 8 12 12 22 9 22 -2 0 -12 -11 -21 -25z"/>
<path d="M5859 10533 c-13 -16 -12 -17 4 -4 16 13 21 21 13 21 -2 0 -10 -8
-17 -17z"/>
<path d="M5807 10468 c-66 -82 -244 -334 -334 -473 -133 -206 -292 -475 -280
-475 2 0 28 42 57 93 126 220 351 568 450 696 77 101 150 201 146 201 -3 0
-20 -19 -39 -42z"/>
<path d="M7525 10460 c-14 -27 -23 -50 -20 -50 2 0 16 23 30 50 14 28 23 50
20 50 -2 0 -16 -22 -30 -50z"/>
<path d="M7329 10483 c-13 -16 -12 -17 4 -4 16 13 21 21 13 21 -2 0 -10 -8
-17 -17z"/>
<path d="M7441 10314 c-24 -36 -70 -100 -104 -142 -33 -42 -52 -70 -42 -62 36
29 208 270 192 270 -1 0 -22 -30 -46 -66z"/>
<path d="M7780 10320 c-17 -33 -28 -60 -25 -60 2 0 18 27 35 60 17 33 28 60
25 60 -2 0 -18 -27 -35 -60z"/>
<path d="M7670 10300 c-11 -22 -18 -40 -15 -40 2 0 14 18 25 40 11 22 18 40
15 40 -2 0 -14 -18 -25 -40z"/>
<path d="M7725 10220 c-9 -17 -40 -69 -70 -115 -62 -96 -67 -116 -7 -27 48 70
106 172 98 172 -3 0 -13 -14 -21 -30z"/>
<path d="M9281 10195 c0 -5 8 -26 19 -45 11 -19 19 -30 19 -25 0 6 -8 26 -19
45 -11 19 -19 31 -19 25z"/>
<path d="M7780 10090 c-6 -11 -8 -20 -6 -20 3 0 10 9 16 20 6 11 8 20 6 20 -3
0 -10 -9 -16 -20z"/>
<path d="M7220 10033 l-55 -58 58 55 c31 30 57 56 57 57 0 8 -10 -1 -60 -54z"/>
<path d="M10551 10054 c0 -11 3 -14 6 -6 3 7 2 16 -1 19 -3 4 -6 -2 -5 -13z"/>
<path d="M5206 9984 c-35 -76 -32 -83 5 -10 17 32 28 60 26 63 -3 2 -17 -21
-31 -53z"/>
<path d="M10561 10014 c0 -11 3 -14 6 -6 3 7 2 16 -1 19 -3 4 -6 -2 -5 -13z"/>
<path d="M10571 9974 c0 -11 3 -14 6 -6 3 7 2 16 -1 19 -3 4 -6 -2 -5 -13z"/>
<path d="M7554 9958 l-19 -23 23 19 c12 11 22 21 22 23 0 8 -8 2 -26 -19z"/>
<path d="M9380 9976 c0 -11 30 -66 36 -66 2 0 -3 15 -12 33 -19 36 -24 44 -24
33z"/>
<path d="M5011 9869 c-18 -45 -30 -83 -28 -85 2 -2 18 33 36 77 17 45 30 83
28 86 -2 2 -18 -33 -36 -78z"/>
<path d="M6009 9913 l-34 -38 38 34 c20 19 37 36 37 38 0 8 -8 0 -41 -34z"/>
<path d="M10581 9945 c0 -5 8 -41 19 -80 11 -38 18 -54 15 -34 -6 39 -33 130
-34 114z"/>
<path d="M7094 9906 c-10 -8 -16 -17 -13 -20 3 -3 14 3 24 14 21 23 17 26 -11
6z"/>
<path d="M7649 9893 c-13 -16 -12 -17 4 -4 9 7 17 15 17 17 0 8 -8 3 -21 -13z"/>
<path d="M5118 9788 c-44 -100 -66 -158 -55 -148 8 9 107 243 103 247 -1 2
-23 -43 -48 -99z"/>
<path d="M5760 9703 c-221 -189 -467 -427 -536 -517 l-46 -61 43 50 c103 120
240 251 459 443 248 217 287 252 280 252 -3 0 -93 -75 -200 -167z"/>
<path d="M6775 9758 c-213 -161 -482 -323 -902 -543 -51 -27 -91 -50 -89 -52
7 -7 459 236 614 331 197 119 497 332 460 326 -2 -1 -39 -28 -83 -62z"/>
<path d="M6969 9783 c-13 -16 -12 -17 4 -4 16 13 21 21 13 21 -2 0 -10 -8 -17
-17z"/>
<path d="M10622 9770 c0 -14 2 -19 5 -12 2 6 2 18 0 25 -3 6 -5 1 -5 -13z"/>
<path d="M10632 9720 c0 -14 2 -19 5 -12 2 6 2 18 0 25 -3 6 -5 1 -5 -13z"/>
<path d="M9275 9660 c9 -16 18 -30 21 -30 2 0 -2 14 -11 30 -9 17 -18 30 -21
30 -2 0 2 -13 11 -30z"/>
<path d="M10642 9665 c0 -11 4 -31 8 -45 6 -20 8 -21 8 -5 0 11 -4 31 -8 45
-6 20 -8 21 -8 5z"/>
<path d="M8701 9615 c0 -5 6 -32 13 -60 8 -27 14 -41 14 -30 0 21 -25 107 -27
90z"/>
<path d="M10221 9610 c0 -8 4 -24 9 -35 5 -13 9 -14 9 -5 0 8 -4 24 -9 35 -5
13 -9 14 -9 5z"/>
<path d="M10660 9579 c1 -25 78 -375 79 -357 1 20 -68 361 -75 367 -2 2 -4 -2
-4 -10z"/>
<path d="M5001 9499 c-17 -45 -30 -83 -28 -85 2 -2 18 33 36 77 17 45 30 83
28 85 -2 2 -18 -33 -36 -77z"/>
<path d="M8570 9485 c-7 -36 -10 -68 -8 -70 3 -3 10 25 17 61 6 37 10 68 8 71
-3 2 -10 -26 -17 -62z"/>
<path d="M9751 9514 c0 -11 3 -14 6 -6 3 7 2 16 -1 19 -3 4 -6 -2 -5 -13z"/>
<path d="M10096 9500 c3 -14 11 -32 16 -40 6 -10 7 -7 2 10 -3 14 -11 32 -16
40 -6 10 -7 7 -2 -10z"/>
<path d="M8731 9484 c0 -11 3 -14 6 -6 3 7 2 16 -1 19 -3 4 -6 -2 -5 -13z"/>
<path d="M8741 9444 c0 -11 3 -14 6 -6 3 7 2 16 -1 19 -3 4 -6 -2 -5 -13z"/>
<path d="M6044 9414 c-18 -14 -18 -15 4 -4 12 6 22 13 22 15 0 8 -5 6 -26 -11z"/>
<path d="M5994 9384 c-18 -14 -18 -15 4 -4 12 6 22 13 22 15 0 8 -5 6 -26 -11z"/>
<path d="M8552 9380 c0 -14 2 -19 5 -12 2 6 2 18 0 25 -3 6 -5 1 -5 -13z"/>
<path d="M5845 9302 c-216 -123 -555 -334 -555 -346 0 -3 51 27 113 66 143 91
356 219 475 287 78 45 102 61 89 61 -1 0 -56 -31 -122 -68z"/>
<path d="M10300 9357 c0 -13 62 -178 66 -174 2 2 -10 41 -27 88 -28 78 -39
101 -39 86z"/>
<path d="M8542 9325 c0 -16 2 -22 5 -12 2 9 2 23 0 30 -3 6 -5 -1 -5 -18z"/>
<path d="M6827 9316 c-48 -29 -61 -43 -22 -23 31 16 74 46 65 46 -3 0 -22 -10
-43 -23z"/>
<path d="M7540 9254 c-189 -167 -358 -283 -585 -399 -82 -43 -139 -74 -125
-70 48 14 310 154 402 216 100 67 237 175 333 263 84 77 65 70 -25 -10z"/>
<path d="M8532 9260 c0 -19 2 -27 5 -17 2 9 2 25 0 35 -3 9 -5 1 -5 -18z"/>
<path d="M6635 9213 c-209 -106 -338 -157 -668 -265 -420 -136 -563 -198 -732
-316 -75 -52 -176 -135 -170 -140 2 -2 30 18 62 45 95 81 151 117 293 191 138
71 247 112 656 245 231 76 446 165 608 253 47 25 86 48 86 50 0 6 7 9 -135
-63z"/>
<path d="M8522 9180 c0 -19 2 -27 5 -17 2 9 2 25 0 35 -3 9 -5 1 -5 -18z"/>
<path d="M10742 9180 c0 -14 2 -19 5 -12 2 6 2 18 0 25 -3 6 -5 1 -5 -13z"/>
<path d="M8801 9134 c0 -11 3 -14 6 -6 3 7 2 16 -1 19 -3 4 -6 -2 -5 -13z"/>
<path d="M10752 9125 c0 -16 2 -22 5 -12 2 9 2 23 0 30 -3 6 -5 -1 -5 -18z"/>
<path d="M5628 9094 c-38 -19 -68 -37 -68 -39 0 -5 139 62 149 71 14 13 -23
-2 -81 -32z"/>
<path d="M7544 9088 l-29 -33 33 29 c30 28 37 36 29 36 -2 0 -16 -15 -33 -32z"/>
<path d="M8513 9085 c0 -22 2 -30 4 -17 2 12 2 30 0 40 -3 9 -5 -1 -4 -23z"/>
<path d="M8811 9084 c0 -11 3 -14 6 -6 3 7 2 16 -1 19 -3 4 -6 -2 -5 -13z"/>
<path d="M10761 9080 c-2 -24 73 -414 77 -402 3 9 -63 381 -73 407 -2 6 -4 3
-4 -5z"/>
<path d="M8503 9005 c0 -22 2 -30 4 -17 2 12 2 30 0 40 -3 9 -5 -1 -4 -23z"/>
<path d="M10431 9008 c-1 -11 51 -129 56 -125 2 2 -10 33 -26 68 -16 35 -30
61 -30 57z"/>
<path d="M7561 8956 c-7 -8 -47 -38 -89 -67 -80 -54 -119 -86 -67 -54 85 51
192 135 172 135 -2 0 -10 -6 -16 -14z"/>
<path d="M9251 8944 c0 -11 3 -14 6 -6 3 7 2 16 -1 19 -3 4 -6 -2 -5 -13z"/>
<path d="M8493 8910 c0 -25 2 -35 4 -22 2 12 2 32 0 45 -2 12 -4 2 -4 -23z"/>
<path d="M10661 8934 c0 -11 3 -14 6 -6 3 7 2 16 -1 19 -3 4 -6 -2 -5 -13z"/>
<path d="M4672 8890 c0 -14 2 -19 5 -12 2 6 2 18 0 25 -3 6 -5 1 -5 -13z"/>
<path d="M10671 8900 c0 -8 4 -24 9 -35 5 -13 9 -14 9 -5 0 8 -4 24 -9 35 -5
13 -9 14 -9 5z"/>
<path d="M9262 8875 c0 -16 2 -22 5 -12 2 9 2 23 0 30 -3 6 -5 -1 -5 -18z"/>
<path d="M5229 8853 l-24 -28 28 24 c15 14 27 26 27 28 0 8 -8 1 -31 -24z"/>
<path d="M5438 8859 c-21 -11 -38 -22 -38 -24 0 -3 18 4 40 15 22 11 40 23 40
25 0 7 0 7 -42 -16z"/>
<path d="M6130 8845 c-36 -13 -60 -24 -54 -24 5 -1 41 10 80 23 38 14 62 24
54 24 -8 0 -44 -10 -80 -23z"/>
<path d="M4626 8690 c-20 -95 -35 -174 -32 -178 3 -3 6 -2 6 3 0 5 16 80 36
167 19 88 34 164 32 170 -2 5 -21 -67 -42 -162z"/>
<path d="M8483 8825 c0 -22 2 -30 4 -17 2 12 2 30 0 40 -3 9 -5 -1 -4 -23z"/>
<path d="M9272 8825 c-1 -11 5 -49 12 -85 8 -36 14 -56 14 -45 1 11 -5 49 -12
85 -8 36 -14 56 -14 45z"/>
<path d="M10691 8830 c0 -8 4 -24 9 -35 5 -13 9 -14 9 -5 0 8 -4 24 -9 35 -5
13 -9 14 -9 5z"/>
<path d="M5089 8723 c-117 -120 -190 -212 -301 -383 -74 -114 -174 -290 -165
-290 3 0 26 38 51 84 109 200 281 437 428 591 55 58 98 105 96 105 -2 0 -51
-48 -109 -107z"/>
<path d="M5797 8753 c-48 -14 -86 -28 -83 -30 4 -4 187 46 195 53 10 9 -30 1
-112 -23z"/>
<path d="M10531 8775 c0 -5 11 -30 24 -55 13 -25 24 -40 24 -35 0 6 -11 30
-24 55 -13 25 -24 41 -24 35z"/>
<path d="M10993 8740 c0 -25 2 -35 4 -22 2 12 2 32 0 45 -2 12 -4 2 -4 -23z"/>
<path d="M6735 8760 c-13 -6 -15 -9 -5 -9 8 0 22 4 30 9 18 12 2 12 -25 0z"/>
<path d="M10711 8754 c0 -11 3 -14 6 -6 3 7 2 16 -1 19 -3 4 -6 -2 -5 -13z"/>
<path d="M5259 8743 c-13 -16 -12 -17 4 -4 9 7 17 15 17 17 0 8 -8 3 -21 -13z"/>
<path d="M7230 8745 c-14 -8 -20 -14 -14 -15 5 0 19 7 30 15 24 18 16 19 -16
0z"/>
<path d="M8471 8724 c0 -11 3 -14 6 -6 3 7 2 16 -1 19 -3 4 -6 -2 -5 -13z"/>
<path d="M10721 8714 c0 -11 3 -14 6 -6 3 7 2 16 -1 19 -3 4 -6 -2 -5 -13z"/>
<path d="M5655 8710 c-13 -5 -14 -9 -5 -9 8 0 24 4 35 9 13 5 14 9 5 9 -8 0
-24 -4 -35 -9z"/>
<path d="M9302 8650 c0 -14 2 -19 5 -12 2 6 2 18 0 25 -3 6 -5 1 -5 -13z"/>
<path d="M5405 8621 c-44 -22 -77 -40 -74 -40 3 -1 44 17 90 38 46 22 80 40
74 40 -5 0 -46 -17 -90 -38z"/>
<path d="M10842 8640 c0 -14 2 -19 5 -12 2 6 2 18 0 25 -3 6 -5 1 -5 -13z"/>
<path d="M11003 8595 c0 -33 2 -45 4 -27 2 18 2 45 0 60 -2 15 -4 0 -4 -33z"/>
<path d="M5795 8490 c130 -64 525 -179 573 -167 13 4 12 5 -5 6 -49 2 -297 73
-438 124 -195 71 -201 73 -130 37z"/>
<path d="M6028 8503 c7 -3 16 -2 19 1 4 3 -2 6 -13 5 -11 0 -14 -3 -6 -6z"/>
<path d="M5322 8463 c-29 -38 -101 -145 -117 -173 -14 -26 9 2 46 55 20 28 52
74 73 103 43 60 42 71 -2 15z"/>
<path d="M4561 8419 c-7 -22 -11 -43 -8 -45 2 -2 9 14 16 37 7 22 11 43 8 45
-2 2 -9 -14 -16 -37z"/>
<path d="M10801 8434 c0 -11 3 -14 6 -6 3 7 2 16 -1 19 -3 4 -6 -2 -5 -13z"/>
<path d="M11012 8430 c0 -14 2 -19 5 -12 2 6 2 18 0 25 -3 6 -5 1 -5 -13z"/>
<path d="M4531 8323 c-1 -6 -4 -20 -7 -30 -5 -17 -5 -17 6 0 6 10 9 23 6 30
-3 9 -5 9 -5 0z"/>
<path d="M6403 8313 c9 -2 23 -2 30 0 6 3 -1 5 -18 5 -16 0 -22 -2 -12 -5z"/>
<path d="M6463 8303 c9 -2 23 -2 30 0 6 3 -1 5 -18 5 -16 0 -22 -2 -12 -5z"/>
<path d="M5992 8219 c89 -119 136 -174 172 -200 18 -12 5 6 -30 42 -34 35 -86
98 -116 139 -30 41 -62 81 -72 89 -9 8 11 -24 46 -70z"/>
<path d="M6528 8293 c6 -2 18 -2 25 0 6 3 1 5 -13 5 -14 0 -19 -2 -12 -5z"/>
<path d="M10195 8130 c-44 -11 -120 -24 -170 -30 -129 -16 -157 -25 -232 -77
-38 -26 -93 -58 -123 -72 -59 -27 -102 -30 -315 -20 l-90 4 -72 -43 c-127 -77
-159 -86 -323 -87 -171 -2 -181 -5 -304 -99 -110 -84 -175 -121 -255 -146 -89
-28 -163 -26 -231 6 -77 37 -123 44 -209 33 -106 -15 -188 -42 -341 -114 -173
-82 -276 -111 -480 -135 -149 -18 -216 -30 -275 -47 -16 -4 -15 0 10 27 23 25
12 20 -45 -22 -41 -31 -113 -77 -160 -103 -218 -122 -324 -212 -375 -321 -48
-102 -67 -196 -70 -354 -4 -144 -4 -144 6 -45 12 143 26 216 59 319 45 139
122 224 298 327 29 17 55 30 57 28 7 -8 -65 -182 -96 -235 -18 -29 -57 -81
-86 -115 -66 -75 -83 -107 -89 -167 -9 -76 10 -293 28 -329 l16 -32 -32 -11
c-45 -14 -81 -55 -106 -119 -35 -91 -36 -152 -4 -271 26 -95 28 -121 29 -265
0 -97 2 -142 7 -115 3 25 7 101 7 169 1 101 -4 143 -25 229 -28 113 -27 142 4
241 36 115 106 142 190 72 128 -106 365 -164 515 -126 64 16 69 16 87 0 26
-24 44 -106 36 -167 -8 -60 -25 -95 -77 -164 -62 -81 -140 -317 -138 -416 0
-20 7 0 18 52 16 73 76 252 102 301 4 8 26 37 49 65 72 87 93 226 47 317 l-24
46 31 12 c17 7 78 61 136 119 85 87 114 110 154 124 118 39 173 11 275 -142
24 -35 63 -84 87 -110 49 -51 50 -52 30 -52 -26 0 -74 -50 -92 -95 -12 -34
-15 -65 -12 -127 4 -70 11 -97 45 -174 68 -150 113 -348 113 -497 0 -47 3 -58
12 -49 18 18 -6 256 -37 370 -13 51 -44 136 -67 190 -38 87 -42 105 -43 177 0
103 21 150 79 176 40 17 42 17 125 -7 144 -42 335 -29 483 32 l68 28 37 -31
c50 -39 65 -73 71 -153 4 -56 0 -79 -28 -155 -78 -217 -112 -371 -109 -490 1
-24 7 -2 14 55 20 140 40 219 90 347 51 131 65 199 54 276 -10 80 -50 142
-101 159 -7 3 15 31 49 65 33 33 94 105 136 160 41 55 89 112 106 126 72 60
146 40 265 -72 41 -39 95 -83 120 -99 l45 -29 -28 -21 c-16 -11 -40 -44 -55
-73 -45 -91 -31 -190 38 -282 44 -57 97 -176 121 -270 27 -104 34 -84 9 26
-19 84 -60 178 -113 262 -70 109 -78 183 -26 270 38 65 71 78 155 60 36 -8
106 -14 155 -14 103 -1 158 17 269 87 36 23 72 42 80 42 8 0 28 -16 44 -35 61
-68 67 -162 21 -309 -43 -137 -59 -233 -58 -334 l2 -87 8 85 c11 119 25 187
66 315 57 177 46 288 -37 365 l-30 28 24 37 c14 19 35 66 47 103 54 166 120
274 194 318 39 22 54 26 101 22 44 -4 66 -13 112 -46 31 -23 86 -56 122 -74
36 -18 67 -34 69 -35 3 -2 -5 -13 -17 -26 -41 -44 -52 -105 -31 -182 8 -30 31
-59 95 -120 55 -53 96 -102 119 -145 20 -36 33 -54 29 -40 -17 62 -61 128
-134 199 -85 83 -108 131 -95 200 15 81 48 104 131 91 121 -20 246 26 347 127
54 54 56 55 90 44 41 -14 71 -44 91 -91 11 -26 13 -70 11 -185 -1 -82 -1 -127
1 -100 2 28 8 93 15 146 14 122 4 163 -51 213 -23 20 -54 39 -70 43 -35 6 -35
5 -15 80 19 74 19 208 0 263 -8 24 -38 70 -66 104 -27 34 -67 97 -89 141 -39
82 -205 564 -196 572 7 7 90 -109 138 -191 52 -89 98 -189 160 -346 27 -69 46
-111 43 -95 -21 101 -150 399 -222 513 -84 133 -115 167 -190 204 -60 30 -77
33 -163 35 -66 1 -120 -4 -175 -17z m307 -28 c24 -10 48 -25 54 -33 7 -8 30
-72 53 -144 57 -179 149 -441 174 -494 11 -24 49 -82 84 -129 34 -46 68 -103
74 -126 16 -57 5 -187 -22 -266 -54 -158 -235 -249 -417 -210 -97 20 -125 39
-140 90 -28 96 -45 133 -90 192 l-47 62 0 191 0 190 -43 160 c-36 133 -123
440 -137 481 -2 7 41 19 118 33 67 12 129 24 137 26 36 9 161 -5 202 -23z
m-430 -184 c21 -79 61 -233 89 -343 l50 -200 -6 -166 -7 -165 51 -67 c44 -58
120 -217 104 -217 -4 0 -30 18 -60 41 -62 47 -127 78 -162 79 -123 1 -232
-123 -305 -347 -15 -45 -37 -96 -49 -114 -28 -41 -114 -102 -130 -93 -7 4 -9
4 -5 -1 9 -9 -40 -45 -98 -71 -30 -14 -63 -18 -140 -17 -189 2 -265 30 -386
145 -136 129 -214 156 -296 101 -22 -16 -77 -75 -122 -133 -107 -138 -184
-216 -243 -246 -134 -69 -377 -91 -507 -45 -100 35 -128 59 -218 185 -100 139
-141 171 -216 170 -84 -1 -153 -41 -247 -143 -116 -128 -209 -171 -364 -171
-157 0 -325 62 -419 154 -68 66 -75 91 -78 277 -3 165 -2 170 85 267 71 80
117 163 161 285 l37 102 62 37 c75 45 102 55 187 73 74 15 340 48 346 43 2 -2
-3 -28 -12 -58 -38 -140 -66 -304 -71 -413 -5 -99 -2 -136 17 -227 28 -131 24
-168 -30 -280 -22 -45 -40 -85 -40 -88 0 -4 19 21 41 56 23 36 47 91 56 129
16 64 16 71 -5 172 -37 180 -27 335 41 620 l22 94 89 24 c49 13 155 55 235 93
134 63 296 120 342 120 15 0 18 -5 15 -22 -3 -13 -17 -104 -31 -203 -30 -209
-56 -326 -95 -434 -33 -89 -89 -222 -100 -236 -15 -21 -40 -110 -40 -146 0
-22 14 -65 33 -106 19 -37 39 -79 45 -93 11 -24 11 -24 6 5 -3 17 -21 63 -40
104 l-35 74 16 53 c8 29 37 101 64 161 97 216 129 339 172 668 12 94 24 172
26 175 12 14 100 -3 153 -30 94 -47 209 -40 350 24 14 6 16 -30 15 -311 0
-357 5 -397 67 -593 51 -161 50 -170 -29 -360 -6 -12 -4 -13 9 -2 27 21 70
132 75 191 4 46 -3 80 -36 190 -22 74 -45 159 -50 190 -16 93 -24 361 -16 546
l7 175 42 24 c22 13 68 47 100 75 92 78 110 84 281 92 165 7 182 11 321 84
l91 48 79 -12 c104 -17 227 -14 286 5 26 9 81 37 122 64 40 26 83 53 96 60 32
17 144 39 154 29 5 -4 26 -72 48 -151z"/>
<path d="M9470 7813 c0 -24 51 -258 97 -438 54 -216 88 -310 154 -432 46 -86
49 -96 49 -166 0 -41 -9 -106 -20 -148 -33 -126 -33 -128 -11 -89 11 20 26 63
34 95 36 146 29 223 -27 310 -68 104 -108 222 -201 590 -41 160 -74 284 -75
278z"/>
<path d="M9003 7635 c0 -22 2 -30 4 -17 2 12 2 30 0 40 -3 9 -5 -1 -4 -23z"/>
<path d="M9015 7215 c0 -349 -1 -375 -22 -465 -27 -110 -28 -148 -9 -195 17
-40 30 -48 16 -9 -16 40 -12 107 12 207 20 85 22 115 21 387 -1 162 -5 329
-10 370 -5 51 -8 -45 -8 -295z"/>
<path d="M6048 7929 c52 -82 180 -236 272 -329 66 -66 200 -178 200 -167 0 2
-38 36 -85 75 -95 82 -281 289 -362 405 -30 42 -57 77 -59 77 -3 0 13 -28 34
-61z"/>
<path d="M6490 7595 c35 -36 67 -65 69 -65 3 0 -24 29 -59 65 -35 36 -67 65
-69 65 -3 0 24 -29 59 -65z"/>
<path d="M11122 7590 c0 -14 2 -19 5 -12 2 6 2 18 0 25 -3 6 -5 1 -5 -13z"/>
<path d="M6612 7494 c10 -10 20 -16 22 -13 3 3 -5 11 -17 18 -21 13 -21 12 -5
-5z"/>
<path d="M10951 7344 c0 -11 3 -14 6 -6 3 7 2 16 -1 19 -3 4 -6 -2 -5 -13z"/>
<path d="M4390 7246 c0 -3 9 -10 20 -16 11 -6 20 -8 20 -6 0 3 -9 10 -20 16
-11 6 -20 8 -20 6z"/>
<path d="M4565 7130 c10 -11 20 -20 23 -20 3 0 -3 9 -13 20 -10 11 -20 20 -23
20 -3 0 3 -9 13 -20z"/>
<path d="M4640 7065 c19 -19 36 -35 39 -35 3 0 -10 16 -29 35 -19 19 -36 35
-39 35 -3 0 10 -16 29 -35z"/>
<path d="M4500 7006 c0 -3 14 -12 30 -21 17 -9 30 -13 30 -11 0 3 -13 12 -30
21 -16 9 -30 13 -30 11z"/>
<path d="M11078 5473 c12 -2 32 -2 45 0 12 2 2 4 -23 4 -25 0 -35 -2 -22 -4z"/>
<path d="M11018 5463 c7 -3 16 -2 19 1 4 3 -2 6 -13 5 -11 0 -14 -3 -6 -6z"/>
<path d="M11368 4463 c17 -2 47 -2 65 0 17 2 3 4 -33 4 -36 0 -50 -2 -32 -4z"/>
<path d="M11488 4463 c7 -3 16 -2 19 1 4 3 -2 6 -13 5 -11 0 -14 -3 -6 -6z"/>
<path d="M11191 4439 c-41 -10 -77 -21 -79 -24 -9 -8 13 -6 45 5 16 6 63 17
104 24 47 9 61 14 39 14 -19 1 -68 -8 -109 -19z"/>
<path d="M9678 4393 c12 -2 30 -2 40 0 9 3 -1 5 -23 4 -22 0 -30 -2 -17 -4z"/>
<path d="M9783 4383 c9 -2 23 -2 30 0 6 3 -1 5 -18 5 -16 0 -22 -2 -12 -5z"/>
<path d="M9848 4373 c7 -3 16 -2 19 1 4 3 -2 6 -13 5 -11 0 -14 -3 -6 -6z"/>
<path d="M9958 4353 c7 -3 16 -2 19 1 4 3 -2 6 -13 5 -11 0 -14 -3 -6 -6z"/>
<path d="M6248 4303 c17 -2 47 -2 65 0 17 2 3 4 -33 4 -36 0 -50 -2 -32 -4z"/>
<path d="M6363 4293 c9 -2 25 -2 35 0 9 3 1 5 -18 5 -19 0 -27 -2 -17 -5z"/>
<path d="M6438 4283 c6 -2 18 -2 25 0 6 3 1 5 -13 5 -14 0 -19 -2 -12 -5z"/>
<path d="M6498 4273 c7 -3 16 -2 19 1 4 3 -2 6 -13 5 -11 0 -14 -3 -6 -6z"/>
<path d="M8020 3893 c-68 -7 -157 -23 -209 -39 -78 -23 -57 -26 24 -3 181 50
424 45 559 -11 38 -16 71 -28 73 -26 2 2 -30 18 -71 35 -103 43 -236 58 -376
44z"/>
<path d="M9755 2940 c-40 -5 -28 -7 55 -8 94 -1 153 -8 245 -26 25 -5 26 -5 8
3 -54 24 -230 42 -308 31z"/>
<path d="M9668 2923 c6 -2 18 -2 25 0 6 3 1 5 -13 5 -14 0 -19 -2 -12 -5z"/>
<path d="M9628 2913 c7 -3 16 -2 19 1 4 3 -2 6 -13 5 -11 0 -14 -3 -6 -6z"/>
<path d="M6338 2893 c12 -2 32 -2 45 0 12 2 2 4 -23 4 -25 0 -35 -2 -22 -4z"/>
<path d="M6433 2883 c9 -2 23 -2 30 0 6 3 -1 5 -18 5 -16 0 -22 -2 -12 -5z"/>
<path d="M6558 2854 c46 -13 106 -36 133 -50 28 -14 53 -23 56 -21 8 9 -119
65 -183 81 -95 25 -99 18 -6 -10z"/>
<path d="M8158 2293 c12 -2 32 -2 45 0 12 2 2 4 -23 4 -25 0 -35 -2 -22 -4z"/>
<path d="M8015 2280 c-18 -5 -2 -6 40 -3 39 3 72 7 74 9 8 7 -84 2 -114 -6z"/>
<path d="M8292 2280 c36 -5 96 -21 133 -34 37 -13 63 -20 58 -15 -18 18 -131
50 -193 54 l-65 4 67 -9z"/>
<path d="M7958 2263 c7 -3 16 -2 19 1 4 3 -2 6 -13 5 -11 0 -14 -3 -6 -6z"/>
<path d="M7885 2245 c-39 -17 -21 -18 25 0 19 7 28 14 20 14 -8 0 -28 -6 -45
-14z"/>
</g>
</svg>
