<?xml version="1.0" encoding="UTF-8"?>
<!DOCTYPE svg PUBLIC "-//W3C//DTD SVG 1.1//EN" "http://www.w3.org/Graphics/SVG/1.1/DTD/svg11.dtd">
<svg xmlns="http://www.w3.org/2000/svg" version="1.1" width="4746px" height="4746px" style="shape-rendering:geometricPrecision; text-rendering:geometricPrecision; image-rendering:optimizeQuality; fill-rule:evenodd; clip-rule:evenodd" xmlns:xlink="http://www.w3.org/1999/xlink">
<g><path style="opacity:0.999" fill="#48a5a5" d="M 2305.5,1.5 C 2507.72,-13.0231 2687.39,42.8103 2844.5,169C 2998.12,300.379 3085.96,467.213 3108,669.5C 3121.78,838.38 3083.78,994.38 2994,1137.5C 2970.92,1171.59 2945.92,1204.26 2919,1235.5C 2901.83,1264.5 2884.17,1293.17 2866,1321.5C 2778.88,1504.41 2691.21,1687.08 2603,1869.5C 2597.08,1883.6 2591.74,1897.93 2587,1912.5C 2581.99,1949.21 2576.66,1985.87 2571,2022.5C 2568.33,2049.65 2569.33,2076.65 2574,2103.5C 2575.27,2108.64 2576.93,2113.64 2579,2118.5C 2588.35,2131.86 2599.18,2144.02 2611.5,2155C 2620.17,2163 2628.83,2171 2637.5,2179C 2640.34,2180.92 2643.34,2182.59 2646.5,2184C 2669.61,2189.2 2692.94,2190.54 2716.5,2188C 2746.59,2184.32 2776.59,2179.99 2806.5,2175C 2838.35,2169.05 2868.69,2158.72 2897.5,2144C 3069.83,2062.33 3242.17,1980.67 3414.5,1899C 3424.18,1893.16 3433.51,1886.83 3442.5,1880C 3489.02,1841.47 3536.69,1804.47 3585.5,1769C 3731.57,1669.06 3893.24,1625.72 4070.5,1639C 4281.96,1660.62 4454.12,1753.45 4587,1917.5C 4712.77,2082.54 4762.77,2268.54 4737,2475.5C 4708.82,2663.1 4622.65,2817.6 4478.5,2939C 4300.93,3080.94 4099.43,3133.44 3874,3096.5C 3760.57,3075.68 3658.07,3030.85 3566.5,2962C 3533.53,2933.69 3498.86,2907.69 3462.5,2884C 3454.83,2879.67 3447.17,2875.33 3439.5,2871C 3250.76,2779.76 3061.76,2689.09 2872.5,2599C 2854.24,2590.92 2835.24,2585.25 2815.5,2582C 2773.26,2575.93 2730.92,2570.59 2688.5,2566C 2665.37,2563.43 2643.7,2567.76 2623.5,2579C 2606.6,2593.9 2591.1,2610.07 2577,2627.5C 2574.16,2632.17 2572.16,2637.17 2571,2642.5C 2566.99,2691.8 2573.99,2739.46 2592,2785.5C 2705.09,3022.35 2817.09,3259.68 2928,3497.5C 2932.16,3506.49 2936.82,3515.15 2942,3523.5C 2953.73,3540.23 2965.06,3557.23 2976,3574.5C 2992.08,3603.66 3008.41,3632.66 3025,3661.5C 3082.65,3768.94 3110.49,3883.6 3108.5,4005.5C 3108.57,4034.18 3108.07,4062.85 3107,4091.5C 3080.06,4293.95 2987.9,4459.12 2830.5,4587C 2645.16,4728.15 2437.82,4775.15 2208.5,4728C 1994.02,4674.42 1832.52,4551.92 1724,4360.5C 1631.84,4186.57 1610.51,4004.24 1660,3813.5C 1674.43,3760.63 1694.43,3709.97 1720,3661.5C 1749.94,3610.57 1780.27,3559.9 1811,3509.5C 1818.26,3495.99 1825.26,3482.32 1832,3468.5C 1939.36,3239.77 2048.36,3011.77 2159,2784.5C 2163.45,2775.14 2167.12,2765.48 2170,2755.5C 2176.39,2723.46 2179.39,2691.13 2179,2658.5C 2177.83,2645 2173.5,2632.66 2166,2621.5C 2151.74,2606.23 2136.57,2592.07 2120.5,2579C 2108.76,2570.98 2095.76,2566.81 2081.5,2566.5C 2050.45,2567.88 2019.78,2572.05 1989.5,2579C 1979.03,2582.27 1968.69,2585.94 1958.5,2590C 1743.17,2691.67 1527.83,2793.33 1312.5,2895C 1298.5,2902 1284.5,2909 1270.5,2916C 1245.14,2931.35 1219.14,2945.68 1192.5,2959C 1155.66,2980.92 1118.66,3002.59 1081.5,3024C 907.975,3112.39 726.975,3131.72 538.5,3082C 339.922,3022.72 190.089,2902.89 89,2722.5C -0.726367,2550.25 -21.7264,2369.91 26,2181.5C 78.7238,1995.52 186.224,1850.69 348.5,1747C 511.447,1648.84 686.781,1616.17 874.5,1649C 948.92,1663.47 1019.59,1688.47 1086.5,1724C 1129.01,1749.43 1172.01,1774.09 1215.5,1798C 1238.13,1813.26 1261.8,1826.93 1286.5,1839C 1508.95,1945.06 1731.29,2051.39 1953.5,2158C 2000.21,2179.97 2049.21,2187.63 2100.5,2181C 2104.78,2179.53 2108.78,2177.53 2112.5,2175C 2132.03,2158.47 2149.87,2140.3 2166,2120.5C 2177.4,2104.32 2184.06,2086.32 2186,2066.5C 2187.07,2046.1 2186.41,2025.77 2184,2005.5C 2181.67,1993.83 2179.33,1982.17 2177,1970.5C 2175.09,1941.62 2169.09,1913.62 2159,1886.5C 2078.79,1718.08 1999.12,1549.41 1920,1380.5C 1902.11,1343.71 1882.44,1308.04 1861,1273.5C 1821.21,1231.73 1785.21,1187.06 1753,1139.5C 1659.87,992.615 1621.53,832.282 1638,658.5C 1659.77,483.151 1732.6,333.317 1856.5,209C 1982.09,89.0216 2131.76,19.8549 2305.5,1.5 Z"/></g>
</svg>
