<?xml version="1.0" encoding="UTF-8" standalone="no"?>
<!DOCTYPE svg PUBLIC "-//W3C//DTD SVG 1.1//EN" "http://www.w3.org/Graphics/SVG/1.1/DTD/svg11.dtd">
<svg xmlns="http://www.w3.org/2000/svg" version="1.1" viewBox="0.00 0.00 1536.00 456.00">
<g fill="#ffffff">
<path d="
  M 726.32 304.33
  L 743.82 261.47
  Q 744.09 260.82 744.67 261.22
  Q 749.33 264.42 754.91 267.92
  Q 772.09 278.67 793.29 283.82
  Q 810.19 287.92 829.30 286.69
  C 846.43 285.58 865.84 278.00 864.56 257.60
  C 863.71 244.07 849.20 237.29 837.35 233.70
  C 821.04 228.75 804.27 225.12 786.58 219.42
  C 759.92 210.82 737.13 195.52 732.23 165.79
  C 729.53 149.39 731.23 132.48 738.19 117.51
  C 760.42 69.71 823.85 65.80 867.67 76.71
  C 881.54 80.16 895.82 85.76 907.21 93.87
  A 0.94 0.93 28.0 0 1 907.55 94.97
  L 891.29 137.81
  A 0.64 0.63 26.3 0 1 890.36 138.12
  C 867.15 123.43 838.09 115.47 810.78 120.28
  C 794.49 123.15 782.15 133.41 784.16 151.39
  C 785.47 163.02 798.06 169.75 808.44 172.85
  Q 822.95 177.19 838.02 180.66
  C 843.51 181.93 850.73 184.14 854.87 185.37
  Q 869.69 189.75 883.16 196.91
  Q 918.85 215.86 917.65 257.50
  Q 916.85 285.14 899.17 305.16
  C 887.73 318.12 869.42 327.53 852.10 331.05
  C 820.47 337.49 787.30 334.04 757.24 322.58
  Q 740.47 316.18 726.58 305.32
  Q 726.07 304.93 726.32 304.33
  Z"
/>
<path d="
  M 61.92 76.90
  A 0.77 0.77 0.0 0 1 62.69 76.13
  L 172.50 76.13
  A 121.00 119.46 -0.0 0 1 293.50 195.59
  L 293.50 210.41
  A 121.00 119.46 -0.0 0 1 172.50 329.87
  L 62.69 329.87
  A 0.77 0.77 0.0 0 1 61.92 329.10
  L 61.92 76.90
  Z
  M 115.68 124.78
  L 115.68 281.12
  A 0.91 0.91 0.0 0 0 116.59 282.03
  L 167.07 282.03
  A 72.46 72.43 90.0 0 0 239.50 209.57
  L 239.50 196.33
  A 72.46 72.43 90.0 0 0 167.07 123.87
  L 116.59 123.87
  A 0.91 0.91 0.0 0 0 115.68 124.78
  Z"
/>
<path d="
  M 1453.0530 148.8653
  A 25.68 25.36 88.9 0 1 1427.2047 123.6768
  A 25.68 25.36 88.9 0 1 1452.0670 97.5147
  A 25.68 25.36 88.9 0 1 1477.9153 122.7032
  A 25.68 25.36 88.9 0 1 1453.0530 148.8653
  Z
  M 1451.9358 146.2421
  A 23.08 22.75 91.5 0 0 1475.2822 123.7655
  A 23.08 22.75 91.5 0 0 1453.1442 100.0979
  A 23.08 22.75 91.5 0 0 1429.7978 122.5745
  A 23.08 22.75 91.5 0 0 1451.9358 146.2421
  Z"
/>
<path d="
  M 1451.88 110.80
  Q 1452.08 110.80 1452.79 110.87
  A 0.88 0.87 -87.0 0 1 1453.57 111.74
  L 1453.57 120.69
  Q 1453.57 121.31 1454.20 121.31
  L 1462.19 121.31
  Q 1462.71 121.31 1462.88 121.81
  Q 1463.12 122.49 1463.12 122.99
  Q 1463.12 123.49 1462.88 124.17
  Q 1462.71 124.67 1462.19 124.67
  L 1454.20 124.68
  Q 1453.57 124.68 1453.57 125.30
  L 1453.58 134.25
  A 0.88 0.87 87.0 0 1 1452.80 135.12
  Q 1452.09 135.20 1451.89 135.20
  Q 1451.69 135.20 1450.98 135.12
  A 0.88 0.87 -87.0 0 1 1450.20 134.25
  L 1450.20 125.30
  Q 1450.20 124.68 1449.57 124.68
  L 1441.58 124.68
  Q 1441.06 124.68 1440.89 124.18
  Q 1440.66 123.50 1440.66 123.00
  Q 1440.66 122.50 1440.89 121.82
  Q 1441.06 121.32 1441.58 121.32
  L 1449.57 121.31
  Q 1450.20 121.31 1450.20 120.69
  L 1450.19 111.74
  A 0.88 0.87 87.0 0 1 1450.97 110.87
  Q 1451.68 110.80 1451.88 110.80
  Z"
/>
<path d="
  M 414.01 131.84
  C 437.91 131.76 459.97 138.99 477.66 154.25
  C 500.75 174.16 511.37 201.82 511.47 231.94
  C 511.56 262.05 501.12 289.78 478.16 309.84
  C 460.56 325.21 438.55 332.58 414.66 332.66
  C 390.76 332.73 368.70 325.50 351.01 310.25
  C 327.92 290.34 317.30 262.67 317.20 232.56
  C 317.11 202.44 327.55 174.71 350.51 154.65
  C 368.11 139.28 390.12 131.91 414.01 131.84
  Z
  M 368.95 232.48
  Q 368.95 238.40 370.01 245.25
  C 373.53 268.06 389.80 286.30 414.18 286.29
  C 438.56 286.29 454.83 268.06 458.34 245.25
  Q 459.40 238.40 459.40 232.47
  Q 459.40 226.55 458.34 219.70
  C 454.82 196.89 438.55 178.66 414.17 178.66
  C 389.79 178.66 373.52 196.90 370.01 219.71
  Q 368.95 226.56 368.95 232.48
  Z"
/>
<path d="
  M 584.58 232.39
  C 584.59 245.38 587.38 258.26 595.50 268.81
  C 606.18 282.67 623.52 288.96 640.43 285.10
  C 654.59 281.87 664.01 272.35 670.64 259.82
  A 0.35 0.35 0.0 0 1 671.12 259.69
  L 709.65 283.02
  A 0.85 0.84 -63.5 0 1 709.99 284.05
  Q 700.70 307.51 679.13 320.43
  C 650.34 337.68 609.35 336.54 580.79 320.03
  C 548.88 301.59 532.81 268.63 532.79 232.42
  C 532.77 196.20 548.81 163.22 580.70 144.75
  C 609.24 128.21 650.23 127.03 679.04 144.25
  Q 700.62 157.14 709.94 180.59
  A 0.85 0.84 63.4 0 1 709.60 181.62
  L 671.09 204.99
  A 0.35 0.35 0.0 0 1 670.61 204.86
  C 663.97 192.34 654.54 182.83 640.37 179.62
  C 623.46 175.77 606.13 182.08 595.46 195.96
  C 587.35 206.51 584.57 219.39 584.58 232.39
  Z"
/>
<path d="
  M 989.31 248.19
  A 0.60 0.59 82.5 0 0 988.74 248.94
  Q 998.43 285.05 1035.99 287.27
  Q 1064.19 288.94 1083.42 268.97
  A 0.56 0.56 0.0 0 1 1084.25 269.00
  L 1110.90 300.83
  A 0.49 0.48 44.5 0 1 1110.91 301.45
  C 1096.67 319.44 1075.05 329.61 1052.29 331.97
  C 1030.58 334.22 1008.16 331.72 988.56 321.52
  C 959.27 306.29 941.57 278.43 938.08 245.80
  C 934.35 210.84 944.71 174.13 972.99 151.66
  C 994.89 134.27 1023.64 128.34 1051.01 133.79
  C 1087.70 141.11 1113.89 169.90 1121.12 206.18
  Q 1125.24 226.83 1122.73 247.73
  Q 1122.68 248.19 1122.21 248.19
  L 989.31 248.19
  Z
  M 1031.71 215.23
  Q 1052.73 215.23 1074.55 215.19
  Q 1075.21 215.19 1075.12 214.53
  Q 1073.49 203.09 1067.69 194.07
  C 1059.48 181.32 1047.02 174.80 1031.71 174.80
  C 1016.40 174.80 1003.93 181.33 995.73 194.08
  Q 989.93 203.10 988.30 214.54
  Q 988.21 215.20 988.87 215.20
  Q 1010.69 215.23 1031.71 215.23
  Z"
/>
<path d="
  M 1206.93 159.12
  Q 1206.93 160.21 1207.56 159.32
  C 1221.24 139.92 1244.01 131.59 1267.16 131.94
  A 0.55 0.55 0.0 0 1 1267.70 132.49
  L 1267.70 183.95
  A 0.42 0.42 0.0 0 1 1267.19 184.36
  C 1240.77 178.94 1216.47 191.30 1210.99 219.05
  C 1209.80 225.05 1209.30 231.46 1209.30 237.84
  Q 1209.29 277.01 1209.30 329.42
  A 0.45 0.45 0.0 0 1 1208.85 329.87
  L 1158.21 329.87
  A 0.41 0.41 0.0 0 1 1157.80 329.46
  L 1157.80 135.21
  A 0.37 0.37 0.0 0 1 1158.17 134.84
  L 1206.58 134.84
  Q 1206.93 134.84 1206.93 135.20
  L 1206.93 159.12
  Z"
/>
<path d="
  M 1395.21 306.99
  Q 1395.21 305.64 1394.51 306.80
  C 1385.26 322.34 1369.57 330.47 1351.86 332.15
  C 1331.74 334.06 1312.27 331.18 1296.44 318.69
  C 1277.92 304.07 1271.55 280.69 1277.02 258.00
  C 1285.42 223.11 1319.86 215.71 1350.79 215.63
  Q 1361.74 215.60 1391.50 215.63
  Q 1391.95 215.63 1391.95 215.18
  C 1391.95 197.14 1383.61 182.05 1364.79 178.29
  C 1342.47 173.82 1318.09 180.59 1300.57 194.36
  Q 1299.78 194.98 1299.36 194.07
  L 1282.02 156.18
  A 1.03 1.03 0.0 0 1 1282.32 154.94
  Q 1294.59 145.48 1309.47 140.22
  Q 1338.04 130.12 1368.99 132.30
  C 1393.20 134.01 1416.50 143.35 1430.07 163.94
  C 1440.68 180.03 1443.39 200.66 1443.38 219.50
  Q 1443.34 274.51 1443.33 329.51
  A 0.36 0.36 0.0 0 1 1442.97 329.87
  L 1395.79 329.87
  A 0.58 0.58 0.0 0 1 1395.21 329.29
  L 1395.21 306.99
  Z
  M 1363.44 293.63
  C 1376.37 290.96 1385.86 283.47 1390.76 271.58
  Q 1391.94 268.71 1391.94 264.37
  Q 1391.96 256.00 1391.94 248.62
  A 0.43 0.43 0.0 0 0 1391.52 248.19
  Q 1358.94 248.13 1353.75 248.28
  C 1343.22 248.59 1331.84 250.95 1327.27 261.37
  Q 1323.52 269.91 1326.49 278.95
  C 1331.34 293.70 1349.69 296.47 1363.44 293.63
  Z"
/>
</g>
</svg>
