<?xml version="1.0" encoding="UTF-8" standalone="no"?>
<!DOCTYPE svg PUBLIC "-//W3C//DTD SVG 1.1//EN" "http://www.w3.org/Graphics/SVG/1.1/DTD/svg11.dtd">
<svg xmlns="http://www.w3.org/2000/svg" version="1.1" viewBox="0.00 0.00 1536.00 882.00">
<g fill="#ffffff">
<path d="
  M 803.03 156.66
  C 805.60 158.12 813.22 156.13 815.26 155.38
  Q 815.86 155.16 823.66 151.49
  Q 830.07 148.48 842.38 142.66
  C 847.13 140.42 850.63 137.25 854.71 134.24
  C 867.89 124.50 886.32 124.17 900.01 132.74
  Q 908.53 138.07 913.71 146.97
  C 929.49 174.07 909.73 207.23 879.01 207.92
  Q 864.60 208.24 851.93 198.16
  Q 850.16 196.75 849.08 196.13
  Q 847.29 195.09 845.79 194.30
  Q 841.41 191.99 818.18 180.91
  Q 814.27 179.04 811.76 178.64
  C 806.94 177.87 801.14 176.49 799.01 182.32
  C 798.28 184.34 799.58 189.05 800.71 191.40
  Q 809.84 210.40 817.72 227.35
  C 819.17 230.47 821.34 233.63 823.14 236.87
  Q 834.06 256.43 824.31 276.10
  Q 815.79 293.30 794.95 297.94
  Q 792.35 298.52 786.99 298.42
  C 775.59 298.23 764.66 292.83 757.39 284.56
  C 746.94 272.68 744.45 256.27 750.52 241.62
  C 752.55 236.71 756.22 231.78 758.67 226.63
  Q 775.43 191.48 775.97 190.26
  C 777.81 186.02 778.46 182.24 774.67 179.03
  C 772.50 177.20 767.02 178.31 765.19 179.17
  Q 748.62 186.99 732.07 194.84
  C 726.22 197.61 720.74 200.92 716.31 203.32
  C 690.97 217.03 659.55 199.28 657.16 171.01
  C 655.92 156.28 661.91 143.05 673.67 134.34
  C 686.09 125.14 703.98 123.94 717.64 131.86
  C 722.43 134.63 726.69 137.16 732.01 139.71
  Q 747.12 146.91 765.73 155.80
  Q 767.35 156.57 770.51 156.81
  Q 773.06 157.00 774.81 155.34
  Q 778.51 151.85 777.91 147.74
  Q 777.17 142.74 775.31 138.67
  Q 763.50 112.94 762.11 110.60
  C 760.10 107.21 758.37 105.08 753.98 99.34
  C 751.09 95.56 748.36 88.23 747.72 83.31
  Q 745.09 62.95 758.49 48.75
  C 781.31 24.58 821.85 36.82 828.12 69.25
  Q 830.61 82.14 824.72 94.72
  Q 823.21 97.97 819.28 103.09
  C 817.49 105.42 816.66 106.92 815.19 109.62
  Q 813.48 112.75 800.23 140.52
  C 799.41 142.21 799.19 146.25 798.91 148.81
  Q 798.34 154.00 803.03 156.66
  Z"
/>
<path d="
  M 911.16 574.54
  Q 886.44 558.87 857.28 556.21
  Q 852.83 555.80 843.05 556.25
  C 826.06 557.03 806.92 565.01 808.21 585.55
  C 809.06 599.16 823.12 605.96 835.00 609.15
  Q 853.96 614.25 866.97 617.32
  Q 871.86 618.48 886.33 623.48
  C 899.06 627.88 913.36 635.06 922.39 644.98
  Q 934.36 658.13 936.92 676.02
  C 940.96 704.26 930.49 731.38 906.54 747.53
  Q 888.92 759.42 867.04 762.48
  Q 823.44 768.59 782.52 752.99
  Q 766.02 746.70 752.64 736.17
  Q 752.28 735.89 752.45 735.47
  L 769.61 693.62
  A 0.47 0.46 -60.4 0 1 770.31 693.42
  C 793.84 711.08 822.77 720.30 852.55 718.23
  C 865.60 717.32 881.45 712.31 885.48 698.77
  C 888.52 688.57 884.60 679.23 875.23 673.77
  Q 867.80 669.45 862.85 667.93
  C 855.36 665.65 847.20 663.10 840.15 661.44
  Q 822.53 657.29 807.00 651.86
  C 779.03 642.07 759.01 624.55 757.28 593.00
  C 756.33 575.57 759.89 559.10 769.24 545.34
  C 781.53 527.26 802.39 516.12 824.04 512.58
  Q 863.02 506.21 899.97 518.33
  Q 914.92 523.23 927.64 531.75
  A 0.82 0.82 0.0 0 1 927.95 532.71
  L 912.22 574.18
  A 0.73 0.72 -63.3 0 1 911.16 574.54
  Z"
/>
<path d="
  M 109.91 515.10
  A 0.73 0.73 0.0 0 1 110.64 514.38
  L 216.77 514.56
  A 117.20 115.75 0.1 0 1 333.77 630.52
  L 333.75 644.54
  A 117.20 115.75 0.1 0 1 216.35 760.08
  L 110.22 759.90
  A 0.73 0.73 0.0 0 1 109.49 759.16
  L 109.91 515.10
  Z
  M 161.36 561.89
  L 161.88 712.89
  A 0.99 0.99 0.0 0 0 162.88 713.88
  L 211.59 713.71
  A 70.31 70.22 89.8 0 0 281.56 643.15
  L 281.52 630.79
  A 70.31 70.22 89.8 0 0 211.05 560.73
  L 162.34 560.90
  A 0.99 0.99 0.0 0 0 161.36 561.89
  Z"
/>
<path d="
  M 1455.6500 584.9469
  A 24.83 24.54 89.1 0 1 1430.7230 560.5055
  A 24.83 24.54 89.1 0 1 1454.8700 535.2931
  A 24.83 24.54 89.1 0 1 1479.7970 559.7345
  A 24.83 24.54 89.1 0 1 1455.6500 584.9469
  Z
  M 1477.43 560.14
  A 22.17 22.17 0.0 0 0 1455.26 537.97
  A 22.17 22.17 0.0 0 0 1433.09 560.14
  A 22.17 22.17 0.0 0 0 1455.26 582.31
  A 22.17 22.17 0.0 0 0 1477.43 560.14
  Z"
/>
<path d="
  M 1454.62 548.17
  Q 1455.35 548.17 1455.78 548.41
  Q 1456.19 548.64 1456.19 549.12
  L 1456.19 557.75
  Q 1456.19 558.37 1456.81 558.37
  L 1464.57 558.37
  Q 1465.15 558.37 1465.29 558.93
  Q 1465.46 559.59 1465.46 560.00
  Q 1465.46 560.41 1465.29 561.06
  Q 1465.15 561.62 1464.57 561.62
  L 1456.81 561.63
  Q 1456.19 561.63 1456.19 562.25
  L 1456.20 570.88
  Q 1456.20 571.36 1455.79 571.59
  Q 1455.36 571.83 1454.63 571.83
  Q 1453.90 571.83 1453.47 571.59
  Q 1453.06 571.36 1453.06 570.88
  L 1453.06 562.25
  Q 1453.06 561.63 1452.44 561.63
  L 1444.68 561.63
  Q 1444.10 561.63 1443.96 561.07
  Q 1443.79 560.41 1443.79 560.01
  Q 1443.79 559.60 1443.96 558.94
  Q 1444.10 558.38 1444.68 558.38
  L 1452.44 558.37
  Q 1453.06 558.37 1453.06 557.75
  L 1453.05 549.12
  Q 1453.05 548.64 1453.46 548.41
  Q 1453.89 548.17 1454.62 548.17
  Z"
/>
<path d="
  M 450.28 568.45
  C 473.06 568.37 494.22 575.27 511.26 589.62
  C 534.00 608.77 544.51 635.86 544.62 665.26
  C 544.73 694.67 534.42 721.83 511.83 741.15
  C 494.90 755.63 473.79 762.69 451.01 762.78
  C 428.24 762.87 407.07 755.96 390.03 741.61
  C 367.29 722.46 356.79 695.37 356.67 665.97
  C 356.56 636.56 366.87 609.40 389.46 590.08
  C 406.40 575.60 427.51 568.54 450.28 568.45
  Z
  M 406.79 665.82
  C 406.78 678.55 409.41 690.49 416.90 700.83
  C 424.89 711.87 436.55 717.85 450.48 717.85
  C 464.41 717.86 476.08 711.88 484.08 700.84
  C 491.57 690.50 494.20 678.56 494.20 665.84
  C 494.21 653.12 491.58 641.17 484.09 630.83
  C 476.10 619.79 464.44 613.81 450.51 613.81
  C 436.58 613.81 424.91 619.78 416.91 630.82
  C 409.42 641.16 406.79 653.10 406.79 665.82
  Z"
/>
<path d="
  M 615.44 665.73
  Q 615.44 672.26 616.49 678.75
  C 620.33 702.62 639.84 719.94 664.49 717.52
  C 680.20 715.98 691.34 706.23 698.51 692.36
  A 0.46 0.45 -60.3 0 1 699.15 692.18
  L 736.59 714.85
  Q 737.09 715.15 736.86 715.69
  C 720.55 754.88 679.38 768.52 640.05 760.95
  C 599.38 753.13 570.62 720.19 566.07 679.50
  Q 565.35 673.07 565.35 665.74
  Q 565.35 658.40 566.06 651.97
  C 570.60 611.28 599.34 578.33 640.01 570.49
  C 679.33 562.90 720.51 576.52 736.84 615.71
  Q 737.07 616.25 736.57 616.55
  L 699.14 639.23
  A 0.46 0.45 60.2 0 1 698.50 639.05
  C 691.32 625.19 680.18 615.44 664.47 613.91
  C 639.82 611.50 620.31 628.83 616.48 652.70
  Q 615.44 659.19 615.44 665.73
  Z"
/>
<path d="
  M 1006.78 681.68
  Q 1007.06 684.20 1007.97 686.82
  C 1016.78 712.13 1039.11 721.40 1064.63 718.35
  Q 1083.96 716.04 1098.14 700.96
  A 0.40 0.40 0.0 0 1 1098.74 700.98
  L 1124.60 731.86
  A 0.71 0.71 0.0 0 1 1124.60 732.76
  C 1101.46 760.78 1063.38 767.55 1029.31 760.20
  C 992.07 752.16 964.97 723.29 958.47 685.86
  C 952.70 652.64 960.82 615.68 986.02 592.16
  C 1005.33 574.13 1031.18 566.40 1057.53 569.01
  C 1097.86 573.00 1127.42 602.34 1134.81 641.69
  Q 1138.47 661.14 1136.05 680.62
  A 0.57 0.57 0.0 0 1 1135.48 681.12
  L 1007.27 681.12
  Q 1006.71 681.12 1006.78 681.68
  Z
  M 1048.04 649.17
  Q 1086.70 649.17 1089.63 649.18
  A 0.36 0.36 0.0 0 0 1089.99 648.78
  Q 1088.74 637.30 1082.11 627.62
  C 1074.11 615.91 1062.48 610.06 1048.05 610.06
  C 1033.61 610.06 1021.98 615.91 1013.97 627.62
  Q 1007.35 637.30 1006.10 648.78
  A 0.36 0.36 0.0 0 0 1006.46 649.18
  Q 1009.38 649.17 1048.04 649.17
  Z"
/>
<path d="
  M 1217.52 595.15
  A 0.27 0.27 0.0 0 0 1218.01 595.30
  C 1231.31 576.43 1253.32 568.19 1275.88 568.60
  A 0.63 0.63 0.0 0 1 1276.49 569.23
  L 1276.49 618.94
  A 0.44 0.44 0.0 0 1 1275.95 619.37
  Q 1263.27 616.55 1251.31 619.87
  Q 1231.09 625.49 1223.84 644.65
  C 1220.49 653.53 1219.78 663.09 1219.76 674.35
  Q 1219.76 675.57 1219.77 759.54
  A 0.52 0.52 0.0 0 1 1219.25 760.06
  L 1170.52 760.06
  A 0.43 0.42 -0.0 0 1 1170.09 759.64
  L 1170.09 572.17
  A 0.75 0.75 0.0 0 1 1170.84 571.42
  L 1216.53 571.42
  A 0.99 0.99 0.0 0 1 1217.52 572.41
  L 1217.52 595.15
  Z"
/>
<path d="
  M 1399.73 738.45
  Q 1399.73 736.79 1398.87 738.21
  C 1384.22 762.16 1352.94 766.61 1327.89 760.59
  C 1295.47 752.81 1277.46 723.03 1285.33 690.60
  C 1292.95 659.15 1322.69 650.43 1351.27 649.65
  Q 1365.28 649.27 1396.05 649.55
  A 0.57 0.56 -89.5 0 0 1396.62 648.98
  C 1396.61 630.87 1387.74 616.25 1369.02 613.15
  C 1347.09 609.52 1325.05 615.85 1307.85 629.19
  A 0.44 0.43 -30.4 0 1 1307.19 629.02
  L 1290.29 592.14
  A 1.18 1.18 0.0 0 1 1290.66 590.71
  C 1312.08 574.54 1339.45 568.43 1366.01 568.55
  C 1393.50 568.69 1422.66 578.31 1436.30 604.26
  Q 1443.42 617.80 1445.27 634.81
  Q 1446.28 644.08 1446.29 648.81
  Q 1446.41 701.11 1446.29 759.56
  Q 1446.29 760.07 1445.78 760.07
  L 1400.52 760.07
  Q 1399.73 760.07 1399.73 759.28
  L 1399.73 738.45
  Z
  M 1396.61 681.73
  Q 1396.62 681.13 1396.01 681.13
  Q 1375.11 681.11 1362.72 681.15
  C 1348.22 681.20 1333.54 684.12 1332.21 701.36
  C 1331.07 716.26 1341.65 724.49 1355.66 725.73
  C 1372.44 727.21 1389.00 719.95 1395.41 703.64
  Q 1396.73 700.26 1396.67 696.20
  Q 1396.59 691.07 1396.61 681.73
  Z"
/>
</g>
</svg>
