<?xml version="1.0" encoding="UTF-8" standalone="no"?>
<!DOCTYPE svg PUBLIC "-//W3C//DTD SVG 1.1//EN" "http://www.w3.org/Graphics/SVG/1.1/DTD/svg11.dtd">
<svg xmlns="http://www.w3.org/2000/svg" version="1.1" viewBox="0.00 0.00 999.00 905.00">
<g stroke-width="2.00" fill="none" stroke-linecap="butt">
<path stroke="#d08859" vector-effect="non-scaling-stroke" d="
  M 305.22 0.70
  Q 301.01 1.42 299.45 1.42
  Q 286.11 1.49 273.20 2.09
  Q 261.43 2.63 253.22 2.63
  Q 243.51 2.63 200.70 2.87
  Q 193.73 2.91 186.78 2.67
  Q 185.54 2.63 184.46 4.01
  A 0.28 0.20 -83.9 0 0 184.70 4.44
  Q 184.71 4.43 189.62 4.05
  Q 192.21 3.86 194.54 3.87
  C 219.78 4.04 246.79 3.21 273.04 3.85
  C 286.43 4.17 302.78 3.29 318.32 3.38
  C 333.45 3.47 349.98 3.59 366.84 2.99
  Q 373.78 2.74 384.35 3.30
  Q 393.99 3.81 425.71 3.13
  Q 430.76 3.02 439.45 1.97"
/>
<path stroke="#94735e" stroke-opacity="0.996" vector-effect="non-scaling-stroke" d="
  M 442.49 26.52
  Q 442.41 27.25 442.73 28.18"
/>
<path stroke="#dfc3a9" vector-effect="non-scaling-stroke" d="
  M 442.73 28.18
  Q 441.70 27.93 441.07 28.41
  Q 440.58 28.79 440.58 29.77
  Q 440.41 74.59 440.19 92.02
  Q 440.14 96.16 439.80 100.22
  A 2.37 2.36 2.7 0 1 437.41 102.39
  Q 408.69 101.96 396.00 101.97
  Q 345.42 102.04 200.42 101.77
  C 197.48 101.77 194.67 101.52 191.74 101.26
  Q 189.67 101.08 188.77 100.60
  Q 186.90 99.61 187.40 97.49"
/>
<path stroke="#94735e" stroke-opacity="0.996" vector-effect="non-scaling-stroke" d="
  M 187.40 97.49
  Q 187.56 89.34 186.80 81.50
  Q 184.91 62.18 183.33 42.83
  C 183.05 39.43 183.01 34.19 182.46 30.53
  Q 182.35 29.81 182.51 29.02
  Q 182.55 28.81 182.62 27.47
  Q 183.20 17.09 183.18 14.25
  Q 183.17 13.45 182.90 13.03
  Q 182.58 12.54 182.45 13.11
  Q 182.27 13.85 182.39 14.63
  Q 182.37 14.62 182.37 14.63
  C 182.37 14.22 182.34 13.85 182.23 13.46"
/>
<path stroke="#94735e" stroke-opacity="0.996" vector-effect="non-scaling-stroke" d="
  M 182.36 11.29
  Q 182.57 10.98 182.51 10.48"
/>
<path stroke="#929f9c" stroke-opacity="0.996" vector-effect="non-scaling-stroke" d="
  M 187.40 97.49
  Q 185.76 93.31 185.83 88.40"
/>
<path stroke="#677f7b" stroke-opacity="0.996" vector-effect="non-scaling-stroke" d="
  M 185.83 88.40
  Q 185.67 82.72 183.82 66.97
  Q 183.62 65.28 183.42 60.82
  C 183.22 56.36 182.10 51.81 181.77 47.19
  Q 181.77 47.08 181.27 41.32
  Q 180.89 36.90 181.36 32.01
  Q 181.52 30.39 180.78 28.91
  Q 180.55 28.46 180.06 28.39
  L 176.68 27.95"
/>
<path stroke="#929f9c" stroke-opacity="0.996" vector-effect="non-scaling-stroke" d="
  M 445.02 28.28
  L 442.73 28.18"
/>
<path stroke="#6f7974" vector-effect="non-scaling-stroke" d="
  M 158.98 902.77
  C 155.51 899.87 152.30 897.51 152.20 892.51
  C 152.15 889.80 151.84 887.22 151.84 884.46
  Q 151.56 749.21 151.55 725.75
  Q 151.54 711.26 151.61 696.81"
/>
<path stroke="#929f9c" stroke-opacity="0.996" vector-effect="non-scaling-stroke" d="
  M 151.61 696.81
  L 151.75 648.90"
/>
<path stroke="#8eb9ad" vector-effect="non-scaling-stroke" d="
  M 151.75 648.90
  C 151.83 646.70 152.51 644.84 152.23 642.70
  Q 151.94 640.43 151.87 637.50
  Q 151.52 623.37 152.00 613.46
  C 152.11 611.24 151.77 608.69 151.90 606.52
  Q 152.75 592.73 152.25 580.28
  C 151.76 568.11 152.31 557.58 151.97 543.50
  Q 151.66 530.65 151.99 519.43
  Q 152.14 514.45 152.29 512.98
  Q 152.66 509.37 152.65 506.52
  Q 152.63 497.70 152.11 487.14
  Q 152.07 486.46 152.26 485.37
  C 152.52 483.90 152.16 482.08 152.17 481.16
  Q 152.31 468.94 151.97 456.69"
/>
<path stroke="#b2cfc7" vector-effect="non-scaling-stroke" d="
  M 185.83 88.40
  Q 182.08 83.04 179.98 76.89
  Q 174.29 60.22 171.07 42.91
  Q 169.75 35.81 168.25 33.63
  Q 165.23 29.28 158.89 28.77"
/>
<path stroke="#445954" vector-effect="non-scaling-stroke" d="
  M 175.72 28.04
  Q 167.31 27.50 158.89 28.77"
/>
<path stroke="#6f7974" vector-effect="non-scaling-stroke" d="
  M 158.89 28.77
  Q 153.22 31.75 152.55 38.56
  Q 152.24 41.71 151.96 44.35
  Q 151.63 47.44 151.62 50.15
  Q 151.58 99.65 151.86 136.50
  Q 151.94 147.54 151.91 156.50
  Q 151.52 286.60 151.95 416.70
  C 151.99 426.86 152.31 443.34 151.97 456.69"
/>
<path stroke="#20433a" vector-effect="non-scaling-stroke" d="
  M 151.97 456.69
  L 151.31 466.31"
/>
<path stroke="#061814" vector-effect="non-scaling-stroke" d="
  M 151.31 466.31
  Q 151.53 464.81 151.10 464.03"
/>
<path stroke="#232828" stroke-opacity="0.996" vector-effect="non-scaling-stroke" d="
  M 151.61 696.81
  L 151.12 652.19"
/>
<path stroke="#426962" stroke-opacity="0.996" vector-effect="non-scaling-stroke" d="
  M 151.75 648.90
  L 151.16 645.42"
/>
<path stroke="#26594d" vector-effect="non-scaling-stroke" d="
  M 151.16 628.28
  L 151.23 612.69"
/>
<path stroke="#26594d" vector-effect="non-scaling-stroke" d="
  M 151.22 612.54
  L 151.12 600.54"
/>
<path stroke="#2e6c5d" vector-effect="non-scaling-stroke" d="
  M 151.14 556.01
  L 151.20 540.32"
/>
<path stroke="#20433a" vector-effect="non-scaling-stroke" d="
  M 151.18 538.79
  L 151.19 538.04"
/>
<path stroke="#20433a" vector-effect="non-scaling-stroke" d="
  M 151.31 537.72
  L 151.20 511.59"
/>
<path stroke="#26594d" vector-effect="non-scaling-stroke" d="
  M 151.16 480.05
  L 151.31 466.31"
/>
<path stroke="#293e3b" stroke-opacity="0.996" vector-effect="non-scaling-stroke" d="
  M 29.54 153.06
  L 28.11 172.01
  Q 28.07 172.55 27.53 172.58
  L 21.76 172.86"
/>
<path stroke="#26594d" vector-effect="non-scaling-stroke" d="
  M 21.76 172.86
  L 21.84 154.05"
/>
<path stroke="#20433a" vector-effect="non-scaling-stroke" d="
  M 20.71 175.30
  Q 19.49 176.30 19.92 178.23"
/>
<path stroke="#2e6c5d" vector-effect="non-scaling-stroke" d="
  M 19.92 178.23
  L 19.22 202.09
  Q 19.21 202.57 18.85 202.89
  Q 17.32 204.28 15.74 203.61
  Q 15.28 203.41 15.28 202.91
  L 14.99 178.16"
/>
<path stroke="#20433a" vector-effect="non-scaling-stroke" d="
  M 14.99 178.16
  Q 18.60 173.06 18.32 165.60
  Q 18.19 162.11 18.45 160.39
  Q 18.83 157.82 19.42 155.25"
/>
<path stroke="#929f9c" stroke-opacity="0.996" vector-effect="non-scaling-stroke" d="
  M 46.95 154.40
  L 46.74 171.78
  Q 46.73 172.28 47.09 172.64
  Q 48.81 174.37 50.70 172.78
  Q 51.13 172.42 51.63 172.68
  Q 52.03 172.90 52.05 173.46
  Q 52.09 174.23 51.72 174.47
  Q 50.90 175.02 49.55 175.19
  A 0.91 0.91 0.0 0 0 48.80 176.40
  Q 49.67 178.86 49.57 183.75
  Q 49.40 191.26 49.58 198.73"
/>
<path stroke="#4f776f" stroke-opacity="0.996" vector-effect="non-scaling-stroke" d="
  M 49.58 198.73
  L 48.63 204.68
  A 0.53 0.53 0.0 0 1 47.67 204.90
  Q 47.52 204.68 47.45 204.42"
/>
<path stroke="#a3a7a8" stroke-opacity="0.996" vector-effect="non-scaling-stroke" d="
  M 47.45 204.42
  Q 47.92 202.13 47.87 200.25
  Q 47.65 192.87 47.64 183.71
  C 47.63 181.40 46.86 178.42 47.31 176.01
  A 1.42 1.41 7.7 0 0 46.03 174.34
  Q 41.18 173.94 36.99 174.73
  C 34.75 175.15 34.00 175.89 34.03 178.25
  Q 34.15 190.60 34.21 202.96"
/>
<path stroke="#426962" stroke-opacity="0.996" vector-effect="non-scaling-stroke" d="
  M 34.21 202.96
  L 30.60 203.22"
/>
<path stroke="#3b6059" stroke-opacity="0.996" vector-effect="non-scaling-stroke" d="
  M 30.60 203.22
  L 25.59 203.38"
/>
<path stroke="#31524b" stroke-opacity="0.996" vector-effect="non-scaling-stroke" d="
  M 25.59 203.38
  L 21.53 202.98"
/>
<path stroke="#232828" stroke-opacity="0.996" vector-effect="non-scaling-stroke" d="
  M 21.53 202.98
  L 23.09 202.97
  A 0.91 0.90 76.6 0 0 23.89 201.66
  Q 23.31 200.49 23.30 199.48
  Q 23.13 187.53 22.96 176.47
  Q 22.95 175.64 22.19 175.33
  Q 21.83 175.18 20.71 175.30"
/>
<path stroke="#426962" stroke-opacity="0.996" vector-effect="non-scaling-stroke" d="
  M 20.71 175.30
  Q 22.81 173.69 21.76 172.86"
/>
<path stroke="#266354" vector-effect="non-scaling-stroke" d="
  M 25.59 203.38
  C 17.14 219.18 17.06 234.45 16.94 253.45
  C 16.54 316.53 17.36 381.81 16.72 442.56
  C 16.58 456.07 17.35 478.15 17.18 496.00
  C 16.83 531.94 16.51 548.93 16.72 569.95
  Q 16.80 577.37 17.60 664.87
  Q 17.76 682.35 21.69 696.78"
/>
<path stroke="#144137" stroke-opacity="0.996" vector-effect="non-scaling-stroke" d="
  M 21.69 696.78
  L 18.05 698.29"
/>
<path stroke="#2e6c5d" vector-effect="non-scaling-stroke" d="
  M 18.05 698.29
  Q 17.86 696.95 15.97 696.91
  Q 12.75 696.85 12.78 699.77
  Q 12.96 715.19 14.42 730.54
  C 15.47 741.69 17.07 751.62 20.14 761.23"
/>
<path stroke="#266354" vector-effect="non-scaling-stroke" d="
  M 20.14 761.23
  Q 20.78 766.14 22.98 770.82"
/>
<path stroke="#2e6c5d" vector-effect="non-scaling-stroke" d="
  M 22.98 770.82
  L 26.56 782.60"
/>
<path stroke="#144137" stroke-opacity="0.996" vector-effect="non-scaling-stroke" d="
  M 17.08 757.79
  C 17.33 753.05 15.99 748.35 15.11 743.73
  C 12.86 732.05 13.16 719.18 11.99 707.05
  Q 11.19 698.70 10.21 689.68
  C 9.55 683.51 9.50 678.00 9.25 672.14
  C 8.79 661.02 9.25 632.36 9.01 612.51
  Q 7.99 528.44 8.48 506.60
  Q 9.39 466.22 9.10 449.06
  Q 8.45 410.22 8.59 378.04
  Q 8.62 371.03 8.47 358.04
  C 8.27 339.53 8.49 322.16 8.07 302.82
  Q 7.56 279.22 8.06 255.61
  C 8.11 253.06 7.81 250.68 7.32 248.31
  Q 7.15 247.47 7.12 248.33
  L 6.84 256.94
  Q 6.84 256.97 6.83 256.94
  L 5.35 246.20"
/>
<path stroke="#0e2b24" vector-effect="non-scaling-stroke" d="
  M 21.53 202.98
  Q 19.76 202.59 19.83 201.25
  Q 20.49 189.74 19.92 178.23"
/>
<path stroke="#0e2b24" vector-effect="non-scaling-stroke" d="
  M 14.99 178.16
  Q 14.11 184.09 14.19 186.03
  C 14.47 193.14 15.35 199.48 13.42 204.37
  C 12.46 206.80 11.02 209.66 10.50 212.84
  C 9.20 220.84 8.85 228.48 6.50 236.31"
/>
<path stroke="#63998d" vector-effect="non-scaling-stroke" d="
  M 57.54 705.56
  L 55.66 697.57
  Q 55.17 695.46 55.14 697.62
  Q 55.10 701.91 55.40 706.84
  L 55.39 706.84
  Q 55.38 706.84 55.38 706.86
  C 55.30 703.67 55.11 700.54 55.12 697.41
  A 0.94 0.93 2.3 0 0 54.26 696.48
  Q 51.92 696.27 50.35 696.93
  Q 49.86 697.13 49.77 697.65
  L 49.37 699.99"
/>
<path stroke="#2e6c5d" vector-effect="non-scaling-stroke" d="
  M 49.37 699.99
  Q 49.66 698.59 49.22 697.91
  Q 48.86 697.35 47.58 697.48
  Q 46.24 697.62 44.83 697.64"
/>
<path stroke="#9fc0b9" vector-effect="non-scaling-stroke" d="
  M 44.83 697.64
  Q 45.07 696.54 42.80 696.90"
/>
<path stroke="#426962" stroke-opacity="0.996" vector-effect="non-scaling-stroke" d="
  M 42.80 696.90
  Q 37.43 695.77 32.04 696.31"
/>
<path stroke="#4b9180" vector-effect="non-scaling-stroke" d="
  M 61.37 689.75
  Q 52.25 696.03 41.23 694.41
  C 34.29 693.40 31.55 688.01 30.83 681.99
  Q 29.91 674.35 29.53 664.80
  Q 29.29 658.65 29.14 623.89
  C 29.10 613.23 28.84 598.64 29.03 586.12
  Q 29.25 571.77 29.25 566.13
  Q 29.21 519.00 29.07 489.46
  Q 29.03 483.07 29.24 470.64
  C 29.45 457.76 29.11 443.67 29.25 431.82
  C 29.66 398.63 28.92 349.94 29.35 325.98
  C 29.58 312.90 28.82 299.79 29.24 284.89
  C 29.67 269.79 28.72 253.52 29.24 240.45
  Q 29.84 225.59 34.50 208.44
  Q 34.91 206.90 34.75 204.00"
/>
<path stroke="#abcec6" vector-effect="non-scaling-stroke" d="
  M 47.45 204.42
  Q 41.09 205.02 34.75 204.00"
/>
<path stroke="#9fc0b9" vector-effect="non-scaling-stroke" d="
  M 34.75 204.00
  Q 34.27 203.46 34.21 202.96"
/>
<path stroke="#9ac7ba" vector-effect="non-scaling-stroke" d="
  M 54.16 175.73
  Q 53.39 180.27 54.64 184.75
  Q 54.97 185.92 54.39 190.95
  C 53.84 195.71 53.92 199.42 53.07 203.69
  A 1.64 1.62 -5.5 0 1 52.07 204.89
  Q 50.31 205.57 50.13 203.95
  Q 49.85 201.37 49.58 198.73"
/>
<path stroke="#387a6a" vector-effect="non-scaling-stroke" d="
  M 30.60 203.22
  C 24.36 214.68 22.73 226.71 22.71 239.50
  Q 22.61 308.82 23.10 378.14
  Q 23.17 388.90 23.12 398.17
  Q 22.40 529.35 23.70 660.54
  C 23.83 673.79 25.02 685.03 32.04 696.31"
/>
<path stroke="#3b6059" stroke-opacity="0.996" vector-effect="non-scaling-stroke" d="
  M 32.04 696.31
  L 22.61 696.88"
/>
<path stroke="#1e5044" vector-effect="non-scaling-stroke" d="
  M 22.61 696.88
  L 21.69 696.78"
/>
<path stroke="#26594d" vector-effect="non-scaling-stroke" d="
  M 18.05 698.29
  Q 17.68 721.24 19.44 738.03
  Q 20.61 749.19 23.86 764.64
  Q 24.79 769.10 26.78 776.10
  Q 28.38 781.73 29.80 787.54"
/>
<path stroke="#387a6a" vector-effect="non-scaling-stroke" d="
  M 22.98 770.82
  Q 22.51 765.77 20.14 761.23"
/>
<path stroke="#869693" stroke-opacity="0.996" vector-effect="non-scaling-stroke" d="
  M 38.97 764.94
  L 39.31 763.56"
/>
<path stroke="#144137" stroke-opacity="0.996" vector-effect="non-scaling-stroke" d="
  M 39.31 763.56
  L 41.14 760.32
  Q 41.43 759.81 41.56 760.38
  L 42.84 766.28"
/>
<path stroke="#758f87" vector-effect="non-scaling-stroke" d="
  M 34.80 786.49
  Q 32.76 787.63 33.60 789.17"
/>
<path stroke="#a3a7a8" stroke-opacity="0.996" vector-effect="non-scaling-stroke" d="
  M 42.80 696.90
  L 35.26 697.17
  A 1.57 1.57 0.0 0 0 33.75 698.76
  L 34.62 762.49
  Q 34.62 762.65 34.74 762.75
  Q 34.83 762.82 34.95 762.95
  Q 35.03 763.03 35.04 763.16
  L 35.46 770.61
  A 0.92 0.92 0.0 0 0 37.21 770.94
  Q 37.33 770.66 37.43 770.21
  Q 38.01 767.58 38.97 764.94"
/>
<path stroke="#293e3b" stroke-opacity="0.996" vector-effect="non-scaling-stroke" d="
  M 38.97 764.94
  Q 38.84 766.97 38.66 768.91
  Q 38.47 770.91 37.78 772.76
  Q 36.04 777.46 36.11 781.92
  Q 36.13 782.94 35.26 783.47
  L 34.83 783.74
  A 0.53 0.52 -18.3 0 1 34.03 783.34
  Q 33.72 779.51 33.09 776.85
  Q 31.96 772.11 31.77 770.50
  Q 31.09 765.06 26.60 745.95
  Q 23.65 733.37 21.90 712.80
  Q 21.11 703.42 22.61 696.88"
/>
<path stroke="#4a6f67" vector-effect="non-scaling-stroke" d="
  M 37.37 789.95
  L 33.60 789.17"
/>
<path stroke="#b2cfc7" vector-effect="non-scaling-stroke" d="
  M 33.60 789.17
  L 35.31 788.73
  Q 35.80 788.60 35.81 788.09
  Q 35.84 786.87 34.80 786.49"
/>
<path stroke="#4a6f67" vector-effect="non-scaling-stroke" d="
  M 34.80 786.49
  Q 35.75 786.02 36.10 786.72
  Q 37.19 788.85 37.77 786.54
  L 42.84 766.28"
/>
<path stroke="#528277" vector-effect="non-scaling-stroke" d="
  M 42.84 766.28
  Q 46.66 746.46 47.52 734.50
  Q 48.02 727.57 48.37 723.32
  C 49.02 715.44 48.94 707.76 49.37 699.99"
/>
<path stroke="#8ea9a3" stroke-opacity="0.996" vector-effect="non-scaling-stroke" d="
  M 44.83 697.64
  Q 43.99 711.58 43.23 725.42
  Q 42.70 734.95 41.55 744.53
  Q 40.41 754.03 39.31 763.56"
/>
<path stroke="#cd8343" vector-effect="non-scaling-stroke" d="
  M 929.54 155.74
  C 920.90 164.17 914.77 172.28 912.16 184.51
  Q 910.46 192.50 910.14 196.87
  Q 908.58 218.08 906.34 236.60
  C 904.71 250.08 904.03 261.91 904.13 273.56
  Q 904.31 296.60 905.18 371.35
  C 905.38 388.63 904.88 412.52 905.21 433.45
  Q 906.51 516.22 905.93 598.99
  C 905.67 635.06 907.01 671.13 906.73 707.21
  Q 906.58 725.87 906.78 744.52
  Q 906.84 750.19 908.04 762.60
  Q 909.49 777.55 919.25 787.10"
/>
<path stroke="#655437" vector-effect="non-scaling-stroke" d="
  M 891.13 616.04
  Q 891.41 614.82 891.08 613.70"
/>
<path stroke="#655437" vector-effect="non-scaling-stroke" d="
  M 891.00 578.55
  Q 891.34 576.62 890.90 574.93"
/>
<path stroke="#655437" vector-effect="non-scaling-stroke" d="
  M 890.78 572.79
  Q 890.88 572.31 890.61 571.96"
/>
<path stroke="#655437" vector-effect="non-scaling-stroke" d="
  M 890.42 557.56
  Q 890.71 552.87 891.14 548.25
  C 891.47 544.81 890.27 541.31 890.79 537.91
  Q 891.30 534.53 891.15 527.78
  Q 890.97 519.57 891.01 517.67
  Q 891.37 497.01 890.95 478.32
  C 890.60 462.68 890.61 451.91 890.33 434.51
  C 890.29 432.59 890.63 430.87 890.53 429.17
  C 890.13 422.43 890.54 413.61 890.51 407.94
  Q 890.37 369.78 890.44 364.01
  Q 890.57 352.71 890.36 344.00
  Q 889.90 325.28 890.30 302.75
  C 890.34 300.55 890.56 298.00 890.51 295.46
  Q 889.99 270.00 890.23 254.62
  Q 890.31 249.23 889.84 238.93
  C 889.62 234.17 892.35 234.29 895.27 232.21
  A 0.84 0.82 -24.3 0 0 895.60 231.37
  L 894.47 225.91"
/>
<path stroke="#655437" vector-effect="non-scaling-stroke" d="
  M 894.40 210.38
  Q 894.89 207.42 894.21 204.47"
/>
<path stroke="#5f3e24" vector-effect="non-scaling-stroke" d="
  M 894.43 199.22
  L 894.51 193.79"
/>
<path stroke="#e29346" vector-effect="non-scaling-stroke" d="
  M 934.68 155.99
  C 922.88 169.76 918.49 185.67 917.80 203.50
  Q 916.67 232.41 915.42 261.48
  Q 914.60 280.74 915.06 329.92
  Q 915.63 391.00 915.82 452.14
  Q 915.86 464.65 915.79 472.15
  Q 915.18 534.77 916.90 617.04
  Q 917.90 665.05 917.65 713.72
  Q 917.57 729.85 918.22 751.24
  Q 918.81 770.69 926.31 787.38"
/>
<path stroke="#061814" vector-effect="non-scaling-stroke" d="
  M 890.12 534.96
  L 890.11 533.04"
/>
<path stroke="#e5995c" vector-effect="non-scaling-stroke" d="
  M 938.70 156.51
  L 942.64 159.23
  Q 944.14 160.28 942.74 161.44
  Q 938.96 164.57 938.02 165.31
  Q 935.37 167.41 933.77 169.75
  C 930.06 175.21 925.33 182.00 924.99 188.53
  Q 924.26 202.84 924.33 217.18
  Q 924.35 220.05 924.76 222.85
  C 925.05 224.82 926.55 228.79 925.30 231.83
  Q 923.22 236.88 923.17 243.43
  C 923.06 256.06 921.79 272.89 922.16 285.55
  Q 922.70 304.11 923.55 318.33
  Q 924.50 334.08 924.54 338.31
  Q 924.70 351.86 925.25 363.29
  C 925.43 366.95 925.14 372.38 925.20 376.45
  Q 925.65 403.39 925.78 426.38
  Q 925.80 429.98 925.61 434.92
  C 925.22 444.72 925.70 454.82 925.63 464.00
  C 925.57 471.29 924.38 479.95 924.02 487.04
  Q 923.67 493.96 924.64 503.97
  C 925.87 516.80 925.39 527.21 926.37 540.24
  Q 926.76 545.40 926.34 557.30
  C 925.56 580.05 926.48 608.75 926.08 622.21
  Q 925.63 637.67 925.99 649.41
  Q 926.57 668.43 926.58 669.39
  Q 926.71 680.58 926.97 691.72
  C 927.22 702.02 926.82 712.79 926.52 721.85
  Q 926.35 726.65 925.58 732.36
  C 924.53 740.09 924.10 742.80 923.99 748.24
  Q 923.98 748.78 925.07 771.47
  C 925.41 778.37 926.35 784.17 932.86 787.45"
/>
<path stroke="#ebad7e" vector-effect="non-scaling-stroke" d="
  M 958.96 169.01
  L 952.39 164.28
  A 0.54 0.54 0.0 0 0 951.64 164.40
  C 950.04 166.63 948.33 168.67 946.13 170.47
  Q 939.96 175.54 938.23 177.37
  C 928.07 188.11 927.28 204.58 928.49 218.64
  Q 929.13 226.11 929.41 227.76
  Q 929.49 228.22 929.95 228.25
  C 939.03 228.91 948.69 228.59 959.15 229.61
  Q 961.07 229.80 964.37 231.15
  Q 964.58 231.24 964.58 231.47
  L 964.59 231.83
  Q 964.59 232.20 964.23 232.12
  Q 959.35 231.01 954.48 231.00
  Q 939.11 230.97 934.28 231.13
  Q 932.32 231.19 930.31 231.52
  Q 929.80 231.61 929.58 232.08
  Q 927.10 237.63 927.03 241.69
  C 926.87 251.55 926.12 259.92 926.28 268.93
  Q 926.36 273.41 926.51 310.75
  Q 926.70 357.62 926.70 436.67
  Q 926.71 475.65 926.57 489.01
  C 926.36 509.03 927.49 528.99 927.26 549.01
  C 926.99 573.26 927.74 599.31 927.13 625.34
  Q 926.89 635.56 927.08 645.34
  Q 927.82 683.27 927.69 700.68
  C 927.65 706.93 927.40 711.68 927.73 716.77
  Q 928.70 731.47 928.58 739.81
  C 928.43 750.09 929.64 759.64 930.04 771.72
  C 930.25 778.12 931.22 783.35 937.82 784.61
  Q 942.38 785.47 946.75 785.30
  Q 957.23 784.89 967.81 785.21"
/>
<path stroke="#9d8970" stroke-opacity="0.996" vector-effect="non-scaling-stroke" d="
  M 975.29 641.46
  Q 975.04 641.98 975.25 642.45
  Q 975.39 642.76 975.77 642.72"
/>
<path stroke="#a3a7a8" stroke-opacity="0.996" vector-effect="non-scaling-stroke" d="
  M 37.04 172.74
  L 43.40 172.68
  A 1.82 1.82 0.0 0 0 45.21 170.84
  L 45.06 157.30
  A 2.72 2.61 89.4 0 0 42.43 154.61
  L 37.65 154.66
  A 2.72 2.61 89.4 0 0 35.06 157.40
  L 35.21 170.94
  A 1.82 1.82 0.0 0 0 37.04 172.74"
/>
<path stroke="#061814" vector-effect="non-scaling-stroke" d="
  M 15.5920 170.3120
  A 1.21 0.26 99.9 0 0 16.0561 169.1647
  A 1.21 0.26 99.9 0 0 16.0080 167.9280
  A 1.21 0.26 99.9 0 0 15.5439 169.0753
  A 1.21 0.26 99.9 0 0 15.5920 170.3120"
/>
<path stroke="#6fa79a" vector-effect="non-scaling-stroke" d="
  M 55.95 252.00
  Q 55.79 242.21 54.93 229.89
  Q 54.77 227.55 53.88 223.77
  Q 53.76 223.28 53.32 223.04
  C 37.88 214.76 36.75 237.15 36.38 246.07
  Q 36.23 249.67 33.48 312.01
  Q 32.29 339.06 32.37 350.25
  Q 32.62 387.50 32.21 424.74
  Q 32.08 437.20 32.12 444.75
  Q 32.46 510.91 32.37 561.50
  C 32.32 584.43 31.72 610.14 32.51 628.05
  C 32.88 636.50 35.27 650.12 35.87 661.29
  Q 36.38 670.62 36.63 673.63
  C 37.00 677.99 37.53 683.78 40.64 685.11
  C 47.61 688.09 50.47 683.08 51.41 676.87
  Q 52.93 666.81 53.26 659.44
  Q 54.26 637.18 54.41 615.99
  Q 54.50 602.65 54.65 596.00
  Q 55.59 553.36 54.96 507.12
  Q 54.79 494.88 55.08 487.13
  Q 55.72 469.75 55.87 448.80
  Q 55.94 438.15 55.58 430.55
  C 54.89 415.99 55.60 404.39 55.62 392.97
  Q 55.64 381.56 55.92 373.68
  C 56.46 358.15 55.77 339.05 55.92 322.19
  C 56.04 307.69 55.72 288.47 56.19 270.71
  Q 56.23 268.87 55.95 252.00"
/>
</g>
<path fill="#e1966b" d="
  M 305.22 0.70
  Q 301.01 1.42 299.45 1.42
  Q 286.11 1.49 273.20 2.09
  Q 261.43 2.63 253.22 2.63
  Q 243.51 2.63 200.70 2.87
  Q 193.73 2.91 186.78 2.67
  Q 185.54 2.63 184.46 4.01
  A 0.28 0.20 -83.9 0 0 184.70 4.44
  Q 184.71 4.43 189.62 4.05
  Q 192.21 3.86 194.54 3.87
  C 219.78 4.04 246.79 3.21 273.04 3.85
  C 286.43 4.17 302.78 3.29 318.32 3.38
  C 333.45 3.47 349.98 3.59 366.84 2.99
  Q 373.78 2.74 384.35 3.30
  Q 393.99 3.81 425.71 3.13
  Q 430.76 3.02 439.45 1.97
  Q 441.61 2.72 441.66 6.13
  Q 441.79 14.89 441.84 23.66
  Q 441.84 24.37 442.49 26.52
  Q 442.41 27.25 442.73 28.18
  Q 441.70 27.93 441.07 28.41
  Q 440.58 28.79 440.58 29.77
  Q 440.41 74.59 440.19 92.02
  Q 440.14 96.16 439.80 100.22
  A 2.37 2.36 2.7 0 1 437.41 102.39
  Q 408.69 101.96 396.00 101.97
  Q 345.42 102.04 200.42 101.77
  C 197.48 101.77 194.67 101.52 191.74 101.26
  Q 189.67 101.08 188.77 100.60
  Q 186.90 99.61 187.40 97.49
  Q 187.56 89.34 186.80 81.50
  Q 184.91 62.18 183.33 42.83
  C 183.05 39.43 183.01 34.19 182.46 30.53
  Q 182.35 29.81 182.51 29.02
  Q 182.55 28.81 182.62 27.47
  Q 183.20 17.09 183.18 14.25
  Q 183.17 13.45 182.90 13.03
  Q 182.58 12.54 182.45 13.11
  Q 182.27 13.85 182.39 14.63
  Q 182.37 14.62 182.37 14.63
  C 182.37 14.22 182.34 13.85 182.23 13.46
  L 182.36 11.29
  Q 182.57 10.98 182.51 10.48
  L 183.61 3.65
  Q 183.69 3.14 184.12 2.85
  Q 186.65 1.15 189.22 0.91
  Q 192.42 0.62 199.50 0.63
  C 243.00 0.69 275.89 0.56 305.22 0.70
  Z"
/>
<path fill="#be7a46" d="
  M 439.45 1.97
  Q 430.76 3.02 425.71 3.13
  Q 393.99 3.81 384.35 3.30
  Q 373.78 2.74 366.84 2.99
  C 349.98 3.59 333.45 3.47 318.32 3.38
  C 302.78 3.29 286.43 4.17 273.04 3.85
  C 246.79 3.21 219.78 4.04 194.54 3.87
  Q 192.21 3.86 189.62 4.05
  Q 184.71 4.43 184.70 4.44
  A 0.28 0.20 -83.9 0 1 184.46 4.01
  Q 185.54 2.63 186.78 2.67
  Q 193.73 2.91 200.70 2.87
  Q 243.51 2.63 253.22 2.63
  Q 261.43 2.63 273.20 2.09
  Q 286.11 1.49 299.45 1.42
  Q 301.01 1.42 305.22 0.70
  Q 370.60 0.61 436.00 1.04
  Q 437.32 1.04 439.45 1.97
  Z"
/>
<path fill="#464f50" fill-opacity="0.992" d="
  M 182.51 10.48
  Q 182.57 10.98 182.36 11.29
  Q 182.30 10.76 182.51 10.48
  Z"
/>
<path fill="#464f50" fill-opacity="0.992" d="
  M 187.40 97.49
  Q 185.76 93.31 185.83 88.40
  Q 185.67 82.72 183.82 66.97
  Q 183.62 65.28 183.42 60.82
  C 183.22 56.36 182.10 51.81 181.77 47.19
  Q 181.77 47.08 181.27 41.32
  Q 180.89 36.90 181.36 32.01
  Q 181.52 30.39 180.78 28.91
  Q 180.55 28.46 180.06 28.39
  L 176.68 27.95
  Q 179.58 27.72 181.00 26.13
  Q 182.03 24.98 181.85 22.08
  Q 181.58 17.78 182.23 13.46
  C 182.34 13.85 182.37 14.22 182.37 14.63
  Q 182.37 14.62 182.39 14.63
  Q 182.27 13.85 182.45 13.11
  Q 182.58 12.54 182.90 13.03
  Q 183.17 13.45 183.18 14.25
  Q 183.20 17.09 182.62 27.47
  Q 182.55 28.81 182.51 29.02
  Q 182.35 29.81 182.46 30.53
  C 183.01 34.19 183.05 39.43 183.33 42.83
  Q 184.91 62.18 186.80 81.50
  Q 187.56 89.34 187.40 97.49
  Z"
/>
<path fill="#464f50" fill-opacity="0.992" d="
  M 445.02 28.28
  L 442.73 28.18
  Q 442.41 27.25 442.49 26.52
  L 445.02 28.28
  Z"
/>
<path fill="#000201" d="
  M 175.72 28.04
  Q 167.31 27.50 158.89 28.77
  Q 153.22 31.75 152.55 38.56
  Q 152.24 41.71 151.96 44.35
  Q 151.63 47.44 151.62 50.15
  Q 151.58 99.65 151.86 136.50
  Q 151.94 147.54 151.91 156.50
  Q 151.52 286.60 151.95 416.70
  C 151.99 426.86 152.31 443.34 151.97 456.69
  L 151.31 466.31
  Q 151.53 464.81 151.10 464.03
  Q 151.04 446.92 151.00 429.75
  C 150.99 427.95 150.65 425.53 150.63 423.42
  Q 150.09 365.86 149.82 341.82
  Q 149.81 341.27 149.75 336.50
  Q 149.71 333.28 148.92 276.75
  Q 148.09 218.09 148.95 174.80
  C 149.27 158.61 149.34 136.74 149.51 107.75
  C 149.53 104.94 149.94 101.95 149.97 99.39
  Q 150.36 54.86 150.82 47.25
  C 151.29 39.48 150.60 33.76 156.46 29.54
  Q 158.38 28.16 162.11 27.85
  C 167.35 27.41 171.23 26.83 175.72 28.04
  Z"
/>
<path fill="#87afa6" d="
  M 175.72 28.04
  L 176.68 27.95
  L 180.06 28.39
  Q 180.55 28.46 180.78 28.91
  Q 181.52 30.39 181.36 32.01
  Q 180.89 36.90 181.27 41.32
  Q 181.77 47.08 181.77 47.19
  C 182.10 51.81 183.22 56.36 183.42 60.82
  Q 183.62 65.28 183.82 66.97
  Q 185.67 82.72 185.83 88.40
  Q 182.08 83.04 179.98 76.89
  Q 174.29 60.22 171.07 42.91
  Q 169.75 35.81 168.25 33.63
  Q 165.23 29.28 158.89 28.77
  Q 167.31 27.50 175.72 28.04
  Z"
/>
<path fill="#ddefe7" d="
  M 158.98 902.77
  C 155.51 899.87 152.30 897.51 152.20 892.51
  C 152.15 889.80 151.84 887.22 151.84 884.46
  Q 151.56 749.21 151.55 725.75
  Q 151.54 711.26 151.61 696.81
  L 151.75 648.90
  C 151.83 646.70 152.51 644.84 152.23 642.70
  Q 151.94 640.43 151.87 637.50
  Q 151.52 623.37 152.00 613.46
  C 152.11 611.24 151.77 608.69 151.90 606.52
  Q 152.75 592.73 152.25 580.28
  C 151.76 568.11 152.31 557.58 151.97 543.50
  Q 151.66 530.65 151.99 519.43
  Q 152.14 514.45 152.29 512.98
  Q 152.66 509.37 152.65 506.52
  Q 152.63 497.70 152.11 487.14
  Q 152.07 486.46 152.26 485.37
  C 152.52 483.90 152.16 482.08 152.17 481.16
  Q 152.31 468.94 151.97 456.69
  C 152.31 443.34 151.99 426.86 151.95 416.70
  Q 151.52 286.60 151.91 156.50
  Q 151.94 147.54 151.86 136.50
  Q 151.58 99.65 151.62 50.15
  Q 151.63 47.44 151.96 44.35
  Q 152.24 41.71 152.55 38.56
  Q 153.22 31.75 158.89 28.77
  Q 165.23 29.28 168.25 33.63
  Q 169.75 35.81 171.07 42.91
  Q 174.29 60.22 179.98 76.89
  Q 182.08 83.04 185.83 88.40
  Q 185.76 93.31 187.40 97.49
  Q 186.90 99.61 188.77 100.60
  Q 189.67 101.08 191.74 101.26
  C 194.67 101.52 197.48 101.77 200.42 101.77
  Q 345.42 102.04 396.00 101.97
  Q 408.69 101.96 437.41 102.39
  A 2.37 2.36 2.7 0 0 439.80 100.22
  Q 440.14 96.16 440.19 92.02
  Q 440.41 74.59 440.58 29.77
  Q 440.58 28.79 441.07 28.41
  Q 441.70 27.93 442.73 28.18
  L 445.02 28.28
  Q 484.35 28.11 523.81 28.55
  C 531.20 28.63 540.79 28.17 548.60 28.42
  C 556.15 28.67 561.29 28.46 569.28 28.44
  Q 707.74 28.10 784.75 28.36
  Q 787.30 28.37 797.26 28.84
  C 807.52 29.32 808.60 38.18 808.60 46.50
  C 808.57 76.36 808.90 105.44 808.84 134.51
  Q 808.47 337.74 808.51 414.00
  C 808.52 437.34 808.84 460.68 808.86 484.01
  Q 808.93 585.59 809.28 887.00
  C 809.28 893.89 808.95 899.32 801.47 901.95
  Q 796.06 903.84 791.91 903.94
  Q 777.43 904.28 744.75 904.17
  Q 571.24 903.59 407.75 903.83
  Q 280.96 904.02 175.25 903.82
  Q 165.94 903.80 158.98 902.77
  Z"
/>
<path fill="#0c2e27" fill-opacity="0.996" d="
  M 29.54 153.06
  L 28.11 172.01
  Q 28.07 172.55 27.53 172.58
  L 21.76 172.86
  L 21.84 154.05
  Q 25.88 152.55 29.54 153.06
  Z"
/>
<path fill="#464f50" fill-opacity="0.992" d="
  M 46.95 154.40
  L 46.74 171.78
  Q 46.73 172.28 47.09 172.64
  Q 48.81 174.37 50.70 172.78
  Q 51.13 172.42 51.63 172.68
  Q 52.03 172.90 52.05 173.46
  Q 52.09 174.23 51.72 174.47
  Q 50.90 175.02 49.55 175.19
  A 0.91 0.91 0.0 0 0 48.80 176.40
  Q 49.67 178.86 49.57 183.75
  Q 49.40 191.26 49.58 198.73
  L 48.63 204.68
  A 0.53 0.53 0.0 0 1 47.67 204.90
  Q 47.52 204.68 47.45 204.42
  Q 47.92 202.13 47.87 200.25
  Q 47.65 192.87 47.64 183.71
  C 47.63 181.40 46.86 178.42 47.31 176.01
  A 1.42 1.41 7.7 0 0 46.03 174.34
  Q 41.18 173.94 36.99 174.73
  C 34.75 175.15 34.00 175.89 34.03 178.25
  Q 34.15 190.60 34.21 202.96
  L 30.60 203.22
  L 25.59 203.38
  L 21.53 202.98
  L 23.09 202.97
  A 0.91 0.90 76.6 0 0 23.89 201.66
  Q 23.31 200.49 23.30 199.48
  Q 23.13 187.53 22.96 176.47
  Q 22.95 175.64 22.19 175.33
  Q 21.83 175.18 20.71 175.30
  Q 22.81 173.69 21.76 172.86
  L 27.53 172.58
  Q 28.07 172.55 28.11 172.01
  L 29.54 153.06
  Q 34.52 153.01 39.49 153.14
  Q 43.75 153.26 46.95 154.40
  Z
  M 37.04 172.74
  L 43.40 172.68
  A 1.82 1.82 0.0 0 0 45.21 170.84
  L 45.06 157.30
  A 2.72 2.61 89.4 0 0 42.43 154.61
  L 37.65 154.66
  A 2.72 2.61 89.4 0 0 35.06 157.40
  L 35.21 170.94
  A 1.82 1.82 0.0 0 0 37.04 172.74
  Z"
/>
<path fill="#3f8373" d="
  M 21.84 154.05
  L 21.76 172.86
  Q 22.81 173.69 20.71 175.30
  Q 19.49 176.30 19.92 178.23
  L 19.22 202.09
  Q 19.21 202.57 18.85 202.89
  Q 17.32 204.28 15.74 203.61
  Q 15.28 203.41 15.28 202.91
  L 14.99 178.16
  Q 18.60 173.06 18.32 165.60
  Q 18.19 162.11 18.45 160.39
  Q 18.83 157.82 19.42 155.25
  L 21.84 154.05
  Z"
/>
<path fill="#fffeff" fill-opacity="0.996" d="
  M 37.04 172.74
  A 1.82 1.82 0.0 0 1 35.21 170.94
  L 35.06 157.40
  A 2.72 2.61 89.4 0 1 37.65 154.66
  L 42.43 154.61
  A 2.72 2.61 89.4 0 1 45.06 157.30
  L 45.21 170.84
  A 1.82 1.82 0.0 0 1 43.40 172.68
  L 37.04 172.74
  Z"
/>
<path fill="#ddefe7" d="
  M 46.95 154.40
  Q 49.99 154.61 50.33 156.94
  Q 51.27 163.30 52.04 169.63
  Q 52.25 171.40 54.16 175.73
  Q 53.39 180.27 54.64 184.75
  Q 54.97 185.92 54.39 190.95
  C 53.84 195.71 53.92 199.42 53.07 203.69
  A 1.64 1.62 -5.5 0 1 52.07 204.89
  Q 50.31 205.57 50.13 203.95
  Q 49.85 201.37 49.58 198.73
  Q 49.40 191.26 49.57 183.75
  Q 49.67 178.86 48.80 176.40
  A 0.91 0.91 0.0 0 1 49.55 175.19
  Q 50.90 175.02 51.72 174.47
  Q 52.09 174.23 52.05 173.46
  Q 52.03 172.90 51.63 172.68
  Q 51.13 172.42 50.70 172.78
  Q 48.81 174.37 47.09 172.64
  Q 46.73 172.28 46.74 171.78
  L 46.95 154.40
  Z"
/>
<path fill="#000201" d="
  M 19.42 155.25
  Q 18.83 157.82 18.45 160.39
  Q 18.19 162.11 18.32 165.60
  Q 18.60 173.06 14.99 178.16
  Q 14.11 184.09 14.19 186.03
  C 14.47 193.14 15.35 199.48 13.42 204.37
  C 12.46 206.80 11.02 209.66 10.50 212.84
  C 9.20 220.84 8.85 228.48 6.50 236.31
  Q 7.79 226.81 8.97 217.33
  Q 9.28 214.87 10.62 206.58
  Q 11.64 200.27 11.63 195.76
  Q 11.60 184.42 12.18 173.10
  Q 12.18 173.04 12.24 173.04
  Q 12.47 173.02 12.54 172.92
  A 0.68 0.34 78.7 0 0 12.63 172.59
  Q 13.24 164.50 16.32 158.33
  Q 17.23 156.52 19.42 155.25
  Z
  M 15.5920 170.3120
  A 1.21 0.26 99.9 0 0 16.0561 169.1647
  A 1.21 0.26 99.9 0 0 16.0080 167.9280
  A 1.21 0.26 99.9 0 0 15.5439 169.0753
  A 1.21 0.26 99.9 0 0 15.5920 170.3120
  Z"
/>
<path fill="#be7a46" d="
  M 929.54 155.74
  C 920.90 164.17 914.77 172.28 912.16 184.51
  Q 910.46 192.50 910.14 196.87
  Q 908.58 218.08 906.34 236.60
  C 904.71 250.08 904.03 261.91 904.13 273.56
  Q 904.31 296.60 905.18 371.35
  C 905.38 388.63 904.88 412.52 905.21 433.45
  Q 906.51 516.22 905.93 598.99
  C 905.67 635.06 907.01 671.13 906.73 707.21
  Q 906.58 725.87 906.78 744.52
  Q 906.84 750.19 908.04 762.60
  Q 909.49 777.55 919.25 787.10
  C 911.83 787.18 902.90 786.35 896.26 782.66
  C 893.29 781.00 892.84 777.21 892.75 774.14
  Q 891.57 733.93 891.87 697.01
  C 891.89 694.51 891.52 691.68 891.51 689.00
  Q 891.34 652.52 891.13 616.04
  Q 891.41 614.82 891.08 613.70
  L 891.00 578.55
  Q 891.34 576.62 890.90 574.93
  L 890.78 572.79
  Q 890.88 572.31 890.61 571.96
  L 890.42 557.56
  Q 890.71 552.87 891.14 548.25
  C 891.47 544.81 890.27 541.31 890.79 537.91
  Q 891.30 534.53 891.15 527.78
  Q 890.97 519.57 891.01 517.67
  Q 891.37 497.01 890.95 478.32
  C 890.60 462.68 890.61 451.91 890.33 434.51
  C 890.29 432.59 890.63 430.87 890.53 429.17
  C 890.13 422.43 890.54 413.61 890.51 407.94
  Q 890.37 369.78 890.44 364.01
  Q 890.57 352.71 890.36 344.00
  Q 889.90 325.28 890.30 302.75
  C 890.34 300.55 890.56 298.00 890.51 295.46
  Q 889.99 270.00 890.23 254.62
  Q 890.31 249.23 889.84 238.93
  C 889.62 234.17 892.35 234.29 895.27 232.21
  A 0.84 0.82 -24.3 0 0 895.60 231.37
  L 894.47 225.91
  L 894.40 210.38
  Q 894.89 207.42 894.21 204.47
  L 894.43 199.22
  L 894.51 193.79
  Q 894.39 185.03 897.97 178.47
  C 904.56 166.41 915.38 156.80 929.54 155.74
  Z"
/>
<path fill="#db8b3f" d="
  M 934.68 155.99
  C 922.88 169.76 918.49 185.67 917.80 203.50
  Q 916.67 232.41 915.42 261.48
  Q 914.60 280.74 915.06 329.92
  Q 915.63 391.00 915.82 452.14
  Q 915.86 464.65 915.79 472.15
  Q 915.18 534.77 916.90 617.04
  Q 917.90 665.05 917.65 713.72
  Q 917.57 729.85 918.22 751.24
  Q 918.81 770.69 926.31 787.38
  L 919.25 787.10
  Q 909.49 777.55 908.04 762.60
  Q 906.84 750.19 906.78 744.52
  Q 906.58 725.87 906.73 707.21
  C 907.01 671.13 905.67 635.06 905.93 598.99
  Q 906.51 516.22 905.21 433.45
  C 904.88 412.52 905.38 388.63 905.18 371.35
  Q 904.31 296.60 904.13 273.56
  C 904.03 261.91 904.71 250.08 906.34 236.60
  Q 908.58 218.08 910.14 196.87
  Q 910.46 192.50 912.16 184.51
  C 914.77 172.28 920.90 164.17 929.54 155.74
  L 934.68 155.99
  Z"
/>
<path fill="#e89b4d" d="
  M 938.70 156.51
  L 942.64 159.23
  Q 944.14 160.28 942.74 161.44
  Q 938.96 164.57 938.02 165.31
  Q 935.37 167.41 933.77 169.75
  C 930.06 175.21 925.33 182.00 924.99 188.53
  Q 924.26 202.84 924.33 217.18
  Q 924.35 220.05 924.76 222.85
  C 925.05 224.82 926.55 228.79 925.30 231.83
  Q 923.22 236.88 923.17 243.43
  C 923.06 256.06 921.79 272.89 922.16 285.55
  Q 922.70 304.11 923.55 318.33
  Q 924.50 334.08 924.54 338.31
  Q 924.70 351.86 925.25 363.29
  C 925.43 366.95 925.14 372.38 925.20 376.45
  Q 925.65 403.39 925.78 426.38
  Q 925.80 429.98 925.61 434.92
  C 925.22 444.72 925.70 454.82 925.63 464.00
  C 925.57 471.29 924.38 479.95 924.02 487.04
  Q 923.67 493.96 924.64 503.97
  C 925.87 516.80 925.39 527.21 926.37 540.24
  Q 926.76 545.40 926.34 557.30
  C 925.56 580.05 926.48 608.75 926.08 622.21
  Q 925.63 637.67 925.99 649.41
  Q 926.57 668.43 926.58 669.39
  Q 926.71 680.58 926.97 691.72
  C 927.22 702.02 926.82 712.79 926.52 721.85
  Q 926.35 726.65 925.58 732.36
  C 924.53 740.09 924.10 742.80 923.99 748.24
  Q 923.98 748.78 925.07 771.47
  C 925.41 778.37 926.35 784.17 932.86 787.45
  L 926.31 787.38
  Q 918.81 770.69 918.22 751.24
  Q 917.57 729.85 917.65 713.72
  Q 917.90 665.05 916.90 617.04
  Q 915.18 534.77 915.79 472.15
  Q 915.86 464.65 915.82 452.14
  Q 915.63 391.00 915.06 329.92
  Q 914.60 280.74 915.42 261.48
  Q 916.67 232.41 917.80 203.50
  C 918.49 185.67 922.88 169.76 934.68 155.99
  L 938.70 156.51
  Z"
/>
<path fill="#e1966b" d="
  M 958.96 169.01
  L 952.39 164.28
  A 0.54 0.54 0.0 0 0 951.64 164.40
  C 950.04 166.63 948.33 168.67 946.13 170.47
  Q 939.96 175.54 938.23 177.37
  C 928.07 188.11 927.28 204.58 928.49 218.64
  Q 929.13 226.11 929.41 227.76
  Q 929.49 228.22 929.95 228.25
  C 939.03 228.91 948.69 228.59 959.15 229.61
  Q 961.07 229.80 964.37 231.15
  Q 964.58 231.24 964.58 231.47
  L 964.59 231.83
  Q 964.59 232.20 964.23 232.12
  Q 959.35 231.01 954.48 231.00
  Q 939.11 230.97 934.28 231.13
  Q 932.32 231.19 930.31 231.52
  Q 929.80 231.61 929.58 232.08
  Q 927.10 237.63 927.03 241.69
  C 926.87 251.55 926.12 259.92 926.28 268.93
  Q 926.36 273.41 926.51 310.75
  Q 926.70 357.62 926.70 436.67
  Q 926.71 475.65 926.57 489.01
  C 926.36 509.03 927.49 528.99 927.26 549.01
  C 926.99 573.26 927.74 599.31 927.13 625.34
  Q 926.89 635.56 927.08 645.34
  Q 927.82 683.27 927.69 700.68
  C 927.65 706.93 927.40 711.68 927.73 716.77
  Q 928.70 731.47 928.58 739.81
  C 928.43 750.09 929.64 759.64 930.04 771.72
  C 930.25 778.12 931.22 783.35 937.82 784.61
  Q 942.38 785.47 946.75 785.30
  Q 957.23 784.89 967.81 785.21
  Q 964.24 786.37 960.50 786.74
  Q 946.64 788.10 932.86 787.45
  C 926.35 784.17 925.41 778.37 925.07 771.47
  Q 923.98 748.78 923.99 748.24
  C 924.10 742.80 924.53 740.09 925.58 732.36
  Q 926.35 726.65 926.52 721.85
  C 926.82 712.79 927.22 702.02 926.97 691.72
  Q 926.71 680.58 926.58 669.39
  Q 926.57 668.43 925.99 649.41
  Q 925.63 637.67 926.08 622.21
  C 926.48 608.75 925.56 580.05 926.34 557.30
  Q 926.76 545.40 926.37 540.24
  C 925.39 527.21 925.87 516.80 924.64 503.97
  Q 923.67 493.96 924.02 487.04
  C 924.38 479.95 925.57 471.29 925.63 464.00
  C 925.70 454.82 925.22 444.72 925.61 434.92
  Q 925.80 429.98 925.78 426.38
  Q 925.65 403.39 925.20 376.45
  C 925.14 372.38 925.43 366.95 925.25 363.29
  Q 924.70 351.86 924.54 338.31
  Q 924.50 334.08 923.55 318.33
  Q 922.70 304.11 922.16 285.55
  C 921.79 272.89 923.06 256.06 923.17 243.43
  Q 923.22 236.88 925.30 231.83
  C 926.55 228.79 925.05 224.82 924.76 222.85
  Q 924.35 220.05 924.33 217.18
  Q 924.26 202.84 924.99 188.53
  C 925.33 182.00 930.06 175.21 933.77 169.75
  Q 935.37 167.41 938.02 165.31
  Q 938.96 164.57 942.74 161.44
  Q 944.14 160.28 942.64 159.23
  L 938.70 156.51
  Q 951.13 158.80 958.96 169.01
  Z"
/>
<path fill="#f4c390" d="
  M 958.96 169.01
  C 965.22 176.36 967.44 186.51 967.55 195.75
  Q 967.83 219.69 967.96 226.50
  C 967.99 227.90 968.48 229.54 969.25 230.78
  Q 971.72 234.77 971.82 236.95
  Q 972.22 245.68 972.35 259.88
  Q 973.05 342.21 973.36 573.77
  Q 973.36 578.01 973.39 582.27
  Q 973.64 616.34 974.12 634.07
  Q 974.20 636.95 975.29 641.46
  Q 975.04 641.98 975.25 642.45
  Q 975.39 642.76 975.77 642.72
  Q 976.48 642.96 977.25 642.95
  Q 987.38 642.91 988.25 642.93
  C 991.16 642.98 996.26 643.85 996.80 647.35
  Q 997.72 653.40 997.78 663.27
  Q 997.97 695.27 997.69 715.26
  C 997.44 732.75 998.04 753.77 998.02 769.00
  Q 998.02 770.63 996.94 772.77
  Q 996.71 773.23 996.21 773.38
  Q 994.01 774.05 991.09 774.12
  Q 984.30 774.29 978.31 774.08
  C 973.24 773.90 974.36 781.20 971.64 783.65
  Q 970.13 785.01 967.81 785.21
  Q 957.23 784.89 946.75 785.30
  Q 942.38 785.47 937.82 784.61
  C 931.22 783.35 930.25 778.12 930.04 771.72
  C 929.64 759.64 928.43 750.09 928.58 739.81
  Q 928.70 731.47 927.73 716.77
  C 927.40 711.68 927.65 706.93 927.69 700.68
  Q 927.82 683.27 927.08 645.34
  Q 926.89 635.56 927.13 625.34
  C 927.74 599.31 926.99 573.26 927.26 549.01
  C 927.49 528.99 926.36 509.03 926.57 489.01
  Q 926.71 475.65 926.70 436.67
  Q 926.70 357.62 926.51 310.75
  Q 926.36 273.41 926.28 268.93
  C 926.12 259.92 926.87 251.55 927.03 241.69
  Q 927.10 237.63 929.58 232.08
  Q 929.80 231.61 930.31 231.52
  Q 932.32 231.19 934.28 231.13
  Q 939.11 230.97 954.48 231.00
  Q 959.35 231.01 964.23 232.12
  Q 964.59 232.20 964.59 231.83
  L 964.58 231.47
  Q 964.58 231.24 964.37 231.15
  Q 961.07 229.80 959.15 229.61
  C 948.69 228.59 939.03 228.91 929.95 228.25
  Q 929.49 228.22 929.41 227.76
  Q 929.13 226.11 928.49 218.64
  C 927.28 204.58 928.07 188.11 938.23 177.37
  Q 939.96 175.54 946.13 170.47
  C 948.33 168.67 950.04 166.63 951.64 164.40
  A 0.54 0.54 0.0 0 1 952.39 164.28
  L 958.96 169.01
  Z"
/>
<ellipse fill="#0c2e27" fill-opacity="0.996" cx="0.00" cy="0.00" transform="translate(15.80,169.12) rotate(99.9)" rx="1.21" ry="0.26"/>
<path fill="#fffeff" fill-opacity="0.996" d="
  M 47.45 204.42
  Q 41.09 205.02 34.75 204.00
  Q 34.27 203.46 34.21 202.96
  Q 34.15 190.60 34.03 178.25
  C 34.00 175.89 34.75 175.15 36.99 174.73
  Q 41.18 173.94 46.03 174.34
  A 1.42 1.41 7.7 0 1 47.31 176.01
  C 46.86 178.42 47.63 181.40 47.64 183.71
  Q 47.65 192.87 47.87 200.25
  Q 47.92 202.13 47.45 204.42
  Z"
/>
<path fill="#000201" d="
  M 20.71 175.30
  Q 21.83 175.18 22.19 175.33
  Q 22.95 175.64 22.96 176.47
  Q 23.13 187.53 23.30 199.48
  Q 23.31 200.49 23.89 201.66
  A 0.91 0.90 76.6 0 1 23.09 202.97
  L 21.53 202.98
  Q 19.76 202.59 19.83 201.25
  Q 20.49 189.74 19.92 178.23
  Q 19.49 176.30 20.71 175.30
  Z"
/>
<path fill="#579e8d" d="
  M 54.16 175.73
  Q 55.69 180.32 56.17 184.78
  C 57.45 196.86 58.35 208.24 60.40 220.04
  Q 63.31 236.75 63.98 244.26
  C 65.40 260.03 64.80 277.73 65.06 292.99
  C 65.58 324.88 65.51 358.38 65.97 384.23
  Q 66.78 429.79 66.61 453.50
  C 66.43 479.33 65.99 505.18 66.27 531.01
  Q 66.70 571.71 66.50 606.01
  Q 66.46 613.92 65.95 626.00
  Q 64.58 658.85 63.68 675.25
  Q 63.30 682.05 61.37 689.75
  Q 52.25 696.03 41.23 694.41
  C 34.29 693.40 31.55 688.01 30.83 681.99
  Q 29.91 674.35 29.53 664.80
  Q 29.29 658.65 29.14 623.89
  C 29.10 613.23 28.84 598.64 29.03 586.12
  Q 29.25 571.77 29.25 566.13
  Q 29.21 519.00 29.07 489.46
  Q 29.03 483.07 29.24 470.64
  C 29.45 457.76 29.11 443.67 29.25 431.82
  C 29.66 398.63 28.92 349.94 29.35 325.98
  C 29.58 312.90 28.82 299.79 29.24 284.89
  C 29.67 269.79 28.72 253.52 29.24 240.45
  Q 29.84 225.59 34.50 208.44
  Q 34.91 206.90 34.75 204.00
  Q 41.09 205.02 47.45 204.42
  Q 47.52 204.68 47.67 204.90
  A 0.53 0.53 0.0 0 0 48.63 204.68
  L 49.58 198.73
  Q 49.85 201.37 50.13 203.95
  Q 50.31 205.57 52.07 204.89
  A 1.64 1.62 -5.5 0 0 53.07 203.69
  C 53.92 199.42 53.84 195.71 54.39 190.95
  Q 54.97 185.92 54.64 184.75
  Q 53.39 180.27 54.16 175.73
  Z
  M 55.95 252.00
  Q 55.79 242.21 54.93 229.89
  Q 54.77 227.55 53.88 223.77
  Q 53.76 223.28 53.32 223.04
  C 37.88 214.76 36.75 237.15 36.38 246.07
  Q 36.23 249.67 33.48 312.01
  Q 32.29 339.06 32.37 350.25
  Q 32.62 387.50 32.21 424.74
  Q 32.08 437.20 32.12 444.75
  Q 32.46 510.91 32.37 561.50
  C 32.32 584.43 31.72 610.14 32.51 628.05
  C 32.88 636.50 35.27 650.12 35.87 661.29
  Q 36.38 670.62 36.63 673.63
  C 37.00 677.99 37.53 683.78 40.64 685.11
  C 47.61 688.09 50.47 683.08 51.41 676.87
  Q 52.93 666.81 53.26 659.44
  Q 54.26 637.18 54.41 615.99
  Q 54.50 602.65 54.65 596.00
  Q 55.59 553.36 54.96 507.12
  Q 54.79 494.88 55.08 487.13
  Q 55.72 469.75 55.87 448.80
  Q 55.94 438.15 55.58 430.55
  C 54.89 415.99 55.60 404.39 55.62 392.97
  Q 55.64 381.56 55.92 373.68
  C 56.46 358.15 55.77 339.05 55.92 322.19
  C 56.04 307.69 55.72 288.47 56.19 270.71
  Q 56.23 268.87 55.95 252.00
  Z"
/>
<path fill="#1c5447" fill-opacity="0.996" d="
  M 21.53 202.98
  L 25.59 203.38
  C 17.14 219.18 17.06 234.45 16.94 253.45
  C 16.54 316.53 17.36 381.81 16.72 442.56
  C 16.58 456.07 17.35 478.15 17.18 496.00
  C 16.83 531.94 16.51 548.93 16.72 569.95
  Q 16.80 577.37 17.60 664.87
  Q 17.76 682.35 21.69 696.78
  L 18.05 698.29
  Q 17.86 696.95 15.97 696.91
  Q 12.75 696.85 12.78 699.77
  Q 12.96 715.19 14.42 730.54
  C 15.47 741.69 17.07 751.62 20.14 761.23
  Q 20.78 766.14 22.98 770.82
  L 26.56 782.60
  C 20.79 774.92 19.08 766.91 17.08 757.79
  C 17.33 753.05 15.99 748.35 15.11 743.73
  C 12.86 732.05 13.16 719.18 11.99 707.05
  Q 11.19 698.70 10.21 689.68
  C 9.55 683.51 9.50 678.00 9.25 672.14
  C 8.79 661.02 9.25 632.36 9.01 612.51
  Q 7.99 528.44 8.48 506.60
  Q 9.39 466.22 9.10 449.06
  Q 8.45 410.22 8.59 378.04
  Q 8.62 371.03 8.47 358.04
  C 8.27 339.53 8.49 322.16 8.07 302.82
  Q 7.56 279.22 8.06 255.61
  C 8.11 253.06 7.81 250.68 7.32 248.31
  Q 7.15 247.47 7.12 248.33
  L 6.84 256.94
  Q 6.84 256.97 6.83 256.94
  L 5.35 246.20
  L 6.50 236.31
  C 8.85 228.48 9.20 220.84 10.50 212.84
  C 11.02 209.66 12.46 206.80 13.42 204.37
  C 15.35 199.48 14.47 193.14 14.19 186.03
  Q 14.11 184.09 14.99 178.16
  L 15.28 202.91
  Q 15.28 203.41 15.74 203.61
  Q 17.32 204.28 18.85 202.89
  Q 19.21 202.57 19.22 202.09
  L 19.92 178.23
  Q 20.49 189.74 19.83 201.25
  Q 19.76 202.59 21.53 202.98
  Z"
/>
<path fill="#000201" d="
  M 894.51 193.79
  L 894.43 199.22
  L 894.51 193.79
  Z"
/>
<path fill="#307161" d="
  M 30.60 203.22
  C 24.36 214.68 22.73 226.71 22.71 239.50
  Q 22.61 308.82 23.10 378.14
  Q 23.17 388.90 23.12 398.17
  Q 22.40 529.35 23.70 660.54
  C 23.83 673.79 25.02 685.03 32.04 696.31
  L 22.61 696.88
  L 21.69 696.78
  Q 17.76 682.35 17.60 664.87
  Q 16.80 577.37 16.72 569.95
  C 16.51 548.93 16.83 531.94 17.18 496.00
  C 17.35 478.15 16.58 456.07 16.72 442.56
  C 17.36 381.81 16.54 316.53 16.94 253.45
  C 17.06 234.45 17.14 219.18 25.59 203.38
  L 30.60 203.22
  Z"
/>
<path fill="#3f8373" d="
  M 34.21 202.96
  Q 34.27 203.46 34.75 204.00
  Q 34.91 206.90 34.50 208.44
  Q 29.84 225.59 29.24 240.45
  C 28.72 253.52 29.67 269.79 29.24 284.89
  C 28.82 299.79 29.58 312.90 29.35 325.98
  C 28.92 349.94 29.66 398.63 29.25 431.82
  C 29.11 443.67 29.45 457.76 29.24 470.64
  Q 29.03 483.07 29.07 489.46
  Q 29.21 519.00 29.25 566.13
  Q 29.25 571.77 29.03 586.12
  C 28.84 598.64 29.10 613.23 29.14 623.89
  Q 29.29 658.65 29.53 664.80
  Q 29.91 674.35 30.83 681.99
  C 31.55 688.01 34.29 693.40 41.23 694.41
  Q 52.25 696.03 61.37 689.75
  L 57.54 705.56
  L 55.66 697.57
  Q 55.17 695.46 55.14 697.62
  Q 55.10 701.91 55.40 706.84
  L 55.39 706.84
  Q 55.38 706.84 55.38 706.86
  C 55.30 703.67 55.11 700.54 55.12 697.41
  A 0.94 0.93 2.3 0 0 54.26 696.48
  Q 51.92 696.27 50.35 696.93
  Q 49.86 697.13 49.77 697.65
  L 49.37 699.99
  Q 49.66 698.59 49.22 697.91
  Q 48.86 697.35 47.58 697.48
  Q 46.24 697.62 44.83 697.64
  Q 45.07 696.54 42.80 696.90
  Q 37.43 695.77 32.04 696.31
  C 25.02 685.03 23.83 673.79 23.70 660.54
  Q 22.40 529.35 23.12 398.17
  Q 23.17 388.90 23.10 378.14
  Q 22.61 308.82 22.71 239.50
  C 22.73 226.71 24.36 214.68 30.60 203.22
  L 34.21 202.96
  Z"
/>
<path fill="#0c2e27" fill-opacity="0.996" d="
  M 894.21 204.47
  Q 894.89 207.42 894.40 210.38
  Q 893.75 207.42 894.21 204.47
  Z"
/>
<path fill="#87afa6" d="
  M 55.95 252.00
  Q 56.23 268.87 56.19 270.71
  C 55.72 288.47 56.04 307.69 55.92 322.19
  C 55.77 339.05 56.46 358.15 55.92 373.68
  Q 55.64 381.56 55.62 392.97
  C 55.60 404.39 54.89 415.99 55.58 430.55
  Q 55.94 438.15 55.87 448.80
  Q 55.72 469.75 55.08 487.13
  Q 54.79 494.88 54.96 507.12
  Q 55.59 553.36 54.65 596.00
  Q 54.50 602.65 54.41 615.99
  Q 54.26 637.18 53.26 659.44
  Q 52.93 666.81 51.41 676.87
  C 50.47 683.08 47.61 688.09 40.64 685.11
  C 37.53 683.78 37.00 677.99 36.63 673.63
  Q 36.38 670.62 35.87 661.29
  C 35.27 650.12 32.88 636.50 32.51 628.05
  C 31.72 610.14 32.32 584.43 32.37 561.50
  Q 32.46 510.91 32.12 444.75
  Q 32.08 437.20 32.21 424.74
  Q 32.62 387.50 32.37 350.25
  Q 32.29 339.06 33.48 312.01
  Q 36.23 249.67 36.38 246.07
  C 36.75 237.15 37.88 214.76 53.32 223.04
  Q 53.76 223.28 53.88 223.77
  Q 54.77 227.55 54.93 229.89
  Q 55.79 242.21 55.95 252.00
  Z"
/>
<path fill="#0c2e27" fill-opacity="0.996" d="
  M 890.42 557.56
  L 890.12 534.96
  L 890.11 533.04
  Q 890.02 504.02 889.93 475.00
  C 889.92 472.97 889.60 470.77 889.57 468.91
  Q 889.41 459.88 889.29 436.50
  Q 888.88 355.99 889.14 241.28
  C 889.15 236.85 888.92 233.82 893.32 232.43
  A 1.56 1.55 -8.5 0 0 894.41 230.96
  L 894.47 225.91
  L 895.60 231.37
  A 0.84 0.82 -24.3 0 1 895.27 232.21
  C 892.35 234.29 889.62 234.17 889.84 238.93
  Q 890.31 249.23 890.23 254.62
  Q 889.99 270.00 890.51 295.46
  C 890.56 298.00 890.34 300.55 890.30 302.75
  Q 889.90 325.28 890.36 344.00
  Q 890.57 352.71 890.44 364.01
  Q 890.37 369.78 890.51 407.94
  C 890.54 413.61 890.13 422.43 890.53 429.17
  C 890.63 430.87 890.29 432.59 890.33 434.51
  C 890.61 451.91 890.60 462.68 890.95 478.32
  Q 891.37 497.01 891.01 517.67
  Q 890.97 519.57 891.15 527.78
  Q 891.30 534.53 890.79 537.91
  C 890.27 541.31 891.47 544.81 891.14 548.25
  Q 890.71 552.87 890.42 557.56
  Z"
/>
<path fill="#0c2e27" fill-opacity="0.996" d="
  M 17.08 757.79
  Q 13.28 746.04 12.12 729.72
  Q 12.06 728.81 9.41 711.17
  Q 6.36 690.92 4.46 670.04
  Q 3.96 664.54 3.91 661.43
  Q 3.85 656.60 3.51 652.82
  Q 2.97 646.73 2.89 639.54
  Q 2.18 574.06 2.26 552.25
  Q 2.58 469.31 2.24 385.75
  Q 2.21 377.65 2.52 368.75
  Q 2.93 356.90 2.85 351.75
  Q 2.34 317.48 3.91 283.26
  C 4.40 272.47 4.42 258.54 5.35 246.20
  L 6.83 256.94
  Q 6.84 256.97 6.84 256.94
  L 7.12 248.33
  Q 7.15 247.47 7.32 248.31
  C 7.81 250.68 8.11 253.06 8.06 255.61
  Q 7.56 279.22 8.07 302.82
  C 8.49 322.16 8.27 339.53 8.47 358.04
  Q 8.62 371.03 8.59 378.04
  Q 8.45 410.22 9.10 449.06
  Q 9.39 466.22 8.48 506.60
  Q 7.99 528.44 9.01 612.51
  C 9.25 632.36 8.79 661.02 9.25 672.14
  C 9.50 678.00 9.55 683.51 10.21 689.68
  Q 11.19 698.70 11.99 707.05
  C 13.16 719.18 12.86 732.05 15.11 743.73
  C 15.99 748.35 17.33 753.05 17.08 757.79
  Z"
/>
<path fill="#3f8373" d="
  M 151.97 456.69
  Q 152.31 468.94 152.17 481.16
  C 152.16 482.08 152.52 483.90 152.26 485.37
  Q 152.07 486.46 152.11 487.14
  Q 152.63 497.70 152.65 506.52
  Q 152.66 509.37 152.29 512.98
  Q 152.14 514.45 151.99 519.43
  Q 151.66 530.65 151.97 543.50
  C 152.31 557.58 151.76 568.11 152.25 580.28
  Q 152.75 592.73 151.90 606.52
  C 151.77 608.69 152.11 611.24 152.00 613.46
  Q 151.52 623.37 151.87 637.50
  Q 151.94 640.43 152.23 642.70
  C 152.51 644.84 151.83 646.70 151.75 648.90
  L 151.16 645.42
  L 151.16 628.28
  L 151.23 612.69
  Q 151.23 612.61 151.22 612.54
  L 151.12 600.54
  L 151.14 556.01
  L 151.20 540.32
  L 151.18 538.79
  L 151.19 538.04
  Q 151.25 537.88 151.31 537.72
  L 151.20 511.59
  L 151.16 480.05
  L 151.31 466.31
  L 151.97 456.69
  Z"
/>
<path fill="#0c2e27" fill-opacity="0.996" d="
  M 151.31 466.31
  L 151.16 480.05
  L 151.10 464.03
  Q 151.53 464.81 151.31 466.31
  Z"
/>
<path fill="#000201" d="
  M 151.20 511.59
  L 151.31 537.72
  L 151.20 511.59
  Z"
/>
<path fill="#000201" d="
  M 890.12 534.96
  L 890.11 533.04
  L 890.12 534.96
  Z"
/>
<path fill="#000201" d="
  M 151.19 538.04
  L 151.18 538.79
  Q 151.08 538.40 151.19 538.04
  Z"
/>
<path fill="#1c5447" fill-opacity="0.996" d="
  M 151.20 540.32
  L 151.14 556.01
  L 151.20 540.32
  Z"
/>
<path fill="#0c2e27" fill-opacity="0.996" d="
  M 890.78 572.79
  Q 890.55 572.43 890.61 571.96
  Q 890.88 572.31 890.78 572.79
  Z"
/>
<path fill="#0c2e27" fill-opacity="0.996" d="
  M 891.00 578.55
  L 890.90 574.93
  Q 891.34 576.62 891.00 578.55
  Z"
/>
<path fill="#0c2e27" fill-opacity="0.996" d="
  M 151.22 612.54
  L 151.12 600.54
  L 151.22 612.54
  Z"
/>
<path fill="#0c2e27" fill-opacity="0.996" d="
  M 151.16 628.28
  L 151.23 612.69
  L 151.16 628.28
  Z"
/>
<path fill="#0c2e27" fill-opacity="0.996" d="
  M 891.13 616.04
  L 891.08 613.70
  Q 891.41 614.82 891.13 616.04
  Z"
/>
<path fill="#464f50" fill-opacity="0.992" d="
  M 975.77 642.72
  Q 975.39 642.76 975.25 642.45
  Q 975.04 641.98 975.29 641.46
  L 975.77 642.72
  Z"
/>
<path fill="#464f50" fill-opacity="0.992" d="
  M 151.75 648.90
  L 151.61 696.81
  L 151.12 652.19
  L 151.16 645.42
  L 151.75 648.90
  Z"
/>
<path fill="#000201" d="
  M 151.61 696.81
  Q 151.54 711.26 151.55 725.75
  Q 151.56 749.21 151.84 884.46
  C 151.84 887.22 152.15 889.80 152.20 892.51
  C 152.30 897.51 155.51 899.87 158.98 902.77
  Q 152.36 900.44 151.53 893.63
  Q 150.76 887.33 150.68 884.97
  Q 149.96 865.24 149.99 845.50
  Q 150.10 763.47 150.64 690.06
  Q 150.64 689.98 150.80 685.44
  C 150.92 682.22 150.37 679.19 150.77 675.91
  Q 150.99 674.11 150.99 672.57
  Q 150.94 662.40 151.12 652.19
  L 151.61 696.81
  Z"
/>
<path fill="#464f50" fill-opacity="0.992" d="
  M 42.80 696.90
  L 35.26 697.17
  A 1.57 1.57 0.0 0 0 33.75 698.76
  L 34.62 762.49
  Q 34.62 762.65 34.74 762.75
  Q 34.83 762.82 34.95 762.95
  Q 35.03 763.03 35.04 763.16
  L 35.46 770.61
  A 0.92 0.92 0.0 0 0 37.21 770.94
  Q 37.33 770.66 37.43 770.21
  Q 38.01 767.58 38.97 764.94
  Q 38.84 766.97 38.66 768.91
  Q 38.47 770.91 37.78 772.76
  Q 36.04 777.46 36.11 781.92
  Q 36.13 782.94 35.26 783.47
  L 34.83 783.74
  A 0.53 0.52 -18.3 0 1 34.03 783.34
  Q 33.72 779.51 33.09 776.85
  Q 31.96 772.11 31.77 770.50
  Q 31.09 765.06 26.60 745.95
  Q 23.65 733.37 21.90 712.80
  Q 21.11 703.42 22.61 696.88
  L 32.04 696.31
  Q 37.43 695.77 42.80 696.90
  Z"
/>
<path fill="#87afa6" d="
  M 57.54 705.56
  C 56.29 713.91 54.87 721.89 53.91 730.61
  C 52.98 739.02 51.01 746.36 49.65 754.12
  Q 48.32 761.71 45.09 770.64
  C 43.22 775.81 39.81 780.72 38.66 785.93
  Q 38.18 788.13 37.37 789.95
  L 33.60 789.17
  L 35.31 788.73
  Q 35.80 788.60 35.81 788.09
  Q 35.84 786.87 34.80 786.49
  Q 35.75 786.02 36.10 786.72
  Q 37.19 788.85 37.77 786.54
  L 42.84 766.28
  Q 46.66 746.46 47.52 734.50
  Q 48.02 727.57 48.37 723.32
  C 49.02 715.44 48.94 707.76 49.37 699.99
  L 49.77 697.65
  Q 49.86 697.13 50.35 696.93
  Q 51.92 696.27 54.26 696.48
  A 0.94 0.93 2.3 0 1 55.12 697.41
  C 55.11 700.54 55.30 703.67 55.38 706.86
  Q 55.38 706.84 55.39 706.84
  L 55.40 706.84
  Q 55.10 701.91 55.14 697.62
  Q 55.17 695.46 55.66 697.57
  L 57.54 705.56
  Z"
/>
<path fill="#3f8373" d="
  M 18.05 698.29
  Q 17.68 721.24 19.44 738.03
  Q 20.61 749.19 23.86 764.64
  Q 24.79 769.10 26.78 776.10
  Q 28.38 781.73 29.80 787.54
  L 26.56 782.60
  L 22.98 770.82
  Q 22.51 765.77 20.14 761.23
  C 17.07 751.62 15.47 741.69 14.42 730.54
  Q 12.96 715.19 12.78 699.77
  Q 12.75 696.85 15.97 696.91
  Q 17.86 696.95 18.05 698.29
  Z"
/>
<path fill="#0c2e27" fill-opacity="0.996" d="
  M 21.69 696.78
  L 22.61 696.88
  Q 21.11 703.42 21.90 712.80
  Q 23.65 733.37 26.60 745.95
  Q 31.09 765.06 31.77 770.50
  Q 31.96 772.11 33.09 776.85
  Q 33.72 779.51 34.03 783.34
  A 0.53 0.52 -18.3 0 0 34.83 783.74
  L 35.26 783.47
  Q 36.13 782.94 36.11 781.92
  Q 36.04 777.46 37.78 772.76
  Q 38.47 770.91 38.66 768.91
  Q 38.84 766.97 38.97 764.94
  L 39.31 763.56
  L 41.14 760.32
  Q 41.43 759.81 41.56 760.38
  L 42.84 766.28
  L 37.77 786.54
  Q 37.19 788.85 36.10 786.72
  Q 35.75 786.02 34.80 786.49
  Q 32.76 787.63 33.60 789.17
  L 37.37 789.95
  Q 34.30 793.19 31.70 791.06
  Q 29.77 789.47 29.80 787.54
  Q 28.38 781.73 26.78 776.10
  Q 24.79 769.10 23.86 764.64
  Q 20.61 749.19 19.44 738.03
  Q 17.68 721.24 18.05 698.29
  L 21.69 696.78
  Z"
/>
<path fill="#fffeff" fill-opacity="0.996" d="
  M 44.83 697.64
  Q 43.99 711.58 43.23 725.42
  Q 42.70 734.95 41.55 744.53
  Q 40.41 754.03 39.31 763.56
  L 38.97 764.94
  Q 38.01 767.58 37.43 770.21
  Q 37.33 770.66 37.21 770.94
  A 0.92 0.92 0.0 0 1 35.46 770.61
  L 35.04 763.16
  Q 35.03 763.03 34.95 762.95
  Q 34.83 762.82 34.74 762.75
  Q 34.62 762.65 34.62 762.49
  L 33.75 698.76
  A 1.57 1.57 0.0 0 1 35.26 697.17
  L 42.80 696.90
  Q 45.07 696.54 44.83 697.64
  Z"
/>
<path fill="#1c5447" fill-opacity="0.996" d="
  M 49.37 699.99
  C 48.94 707.76 49.02 715.44 48.37 723.32
  Q 48.02 727.57 47.52 734.50
  Q 46.66 746.46 42.84 766.28
  L 41.56 760.38
  Q 41.43 759.81 41.14 760.32
  L 39.31 763.56
  Q 40.41 754.03 41.55 744.53
  Q 42.70 734.95 43.23 725.42
  Q 43.99 711.58 44.83 697.64
  Q 46.24 697.62 47.58 697.48
  Q 48.86 697.35 49.22 697.91
  Q 49.66 698.59 49.37 699.99
  Z"
/>
<path fill="#307161" d="
  M 22.98 770.82
  Q 20.78 766.14 20.14 761.23
  Q 22.51 765.77 22.98 770.82
  Z"
/>
<path fill="#ddefe7" d="
  M 33.60 789.17
  Q 32.76 787.63 34.80 786.49
  Q 35.84 786.87 35.81 788.09
  Q 35.80 788.60 35.31 788.73
  L 33.60 789.17
  Z"
/>
</svg>
