<?xml version="1.0" encoding="UTF-8"?>
<svg id="Layer_2" data-name="Layer 2" xmlns="http://www.w3.org/2000/svg" viewBox="0 0 1918.25 1800.08">
  <defs>
    <style>
      .cls-1 {
        fill: #e55399;
      }
    </style>
  </defs>
  <g id="objects">
    <path class="cls-1" d="m1859.66,1354.53c-89.24,187.6-262.03,307.29-448.39,332.6-129.61,17.6-257.27,49.26-382.44,90.26-105.86,34.67-223.02,30.81-329.56-19.87-72.23-34.36-130.85-86.09-173.55-148.27-68.72-100.06-156.56-184.26-256.97-250.5-173.74-114.61-378.52-342.39-199.51-718.72,63.28-133.02,163.43-235.14,283.64-294.16,101.74-49.95,196.64-113.65,285.73-185.19C846.44-6.19,1132.79-52.3,1381.83,66.16c202.55,96.35,336.21,280.54,379.94,489.34,20.55,98.11,51.27,193.53,95.69,282.26,77.21,154.24,84.03,344.74,2.2,516.77Z"/>
  </g>
</svg>