<?xml version="1.0" encoding="UTF-8" standalone="no"?>
<!DOCTYPE svg PUBLIC "-//W3C//DTD SVG 1.1//EN" "http://www.w3.org/Graphics/SVG/1.1/DTD/svg11.dtd">
<svg xmlns="http://www.w3.org/2000/svg" version="1.1" viewBox="0.00 0.00 1528.00 1206.00">
<path fill="#000000" d="
  M 1526.09 569.60
  Q 1526.74 580.90 1526.61 587.12
  Q 1526.33 599.35 1524.66 614.46
  Q 1524.43 616.55 1523.18 622.72
  C 1520.62 635.40 1515.97 648.08 1510.97 660.28
  Q 1500.53 685.81 1480.05 710.28
  C 1464.08 729.37 1444.67 744.99 1423.38 758.13
  C 1411.82 765.26 1400.83 769.20 1385.30 775.51
  C 1365.94 783.37 1346.84 793.72 1326.58 803.40
  Q 1290.63 820.59 1251.87 838.87
  C 1240.59 844.19 1223.29 853.28 1209.54 859.26
  Q 1194.89 865.62 1171.64 875.64
  Q 1160.28 880.54 1143.05 888.89
  Q 1130.83 894.81 1103.34 907.88
  Q 1048.60 933.91 990.86 969.39
  Q 986.49 972.08 970.71 981.71
  C 959.39 988.63 949.18 995.53 938.43 1002.33
  C 925.75 1010.35 912.65 1019.31 902.30 1025.98
  Q 896.19 1029.91 885.64 1037.05
  Q 846.52 1063.52 800.80 1091.30
  Q 792.07 1096.60 781.31 1102.29
  C 775.47 1105.38 768.85 1109.66 765.13 1112.64
  Q 758.00 1118.35 748.80 1123.81
  Q 720.48 1140.59 692.31 1152.05
  Q 658.89 1165.63 631.46 1173.35
  C 606.35 1180.41 586.31 1185.56 562.43 1189.72
  Q 529.73 1195.42 520.99 1196.71
  Q 515.47 1197.53 502.11 1198.94
  Q 496.68 1199.51 483.23 1201.08
  Q 468.46 1202.79 447.73 1204.27
  Q 437.86 1204.98 427.75 1204.72
  Q 397.84 1203.95 380.76 1202.65
  Q 371.26 1201.92 357.22 1200.69
  Q 351.30 1200.17 337.25 1199.61
  Q 303.79 1198.27 298.25 1197.55
  Q 287.42 1196.15 273.14 1194.59
  Q 245.87 1191.62 220.58 1186.98
  Q 201.58 1183.49 183.21 1178.40
  Q 175.96 1176.39 170.50 1174.21
  C 160.14 1170.06 153.09 1165.74 141.83 1159.43
  Q 118.24 1146.22 95.76 1129.28
  Q 83.02 1119.68 73.46 1107.49
  Q 53.28 1081.76 40.72 1055.15
  C 36.67 1046.56 31.21 1034.52 27.42 1024.22
  Q 22.06 1009.67 22.00 1009.49
  C 19.64 1001.99 16.99 995.31 14.43 987.19
  Q 8.33 967.81 7.93 966.53
  Q 5.12 957.51 4.16 952.31
  Q 2.75 944.66 2.02 937.81
  Q 1.88 936.47 1.90 927.49
  C 1.92 918.28 0.43 905.79 0.80 898.93
  Q 1.85 879.42 2.06 863.53
  Q 2.16 856.88 2.72 852.76
  C 3.32 848.38 3.46 843.28 4.05 838.39
  Q 5.96 822.76 8.13 802.26
  C 8.93 794.70 10.43 786.18 11.34 779.04
  Q 14.35 755.30 14.80 752.27
  C 15.39 748.33 16.79 743.12 17.56 738.54
  Q 21.45 715.62 27.34 694.24
  Q 31.87 677.80 31.90 677.66
  C 42.53 638.64 55.92 600.37 70.64 562.87
  C 82.87 531.73 97.05 500.86 112.65 468.35
  Q 120.44 452.11 129.67 435.41
  Q 139.55 417.51 142.64 411.84
  Q 156.57 386.33 173.98 359.72
  Q 187.65 338.81 199.22 321.63
  C 212.09 302.52 225.88 284.55 240.86 265.11
  Q 256.22 245.18 272.91 226.66
  Q 296.13 200.91 315.73 180.48
  Q 334.70 160.72 346.25 148.39
  Q 355.63 138.38 360.15 134.00
  Q 387.17 107.78 417.74 87.51
  C 429.37 79.79 440.22 72.31 450.79 66.33
  Q 476.33 51.89 493.28 44.30
  Q 512.83 35.54 537.80 27.58
  Q 573.65 16.15 612.31 9.59
  C 620.06 8.27 628.41 7.41 633.81 6.71
  Q 665.88 2.53 700.74 1.92
  C 708.36 1.78 716.04 1.21 724.76 1.06
  Q 757.98 0.47 774.79 1.10
  Q 810.75 2.46 824.61 3.38
  C 836.45 4.16 851.31 6.39 861.79 7.71
  Q 885.73 10.71 899.27 13.38
  Q 909.48 15.40 933.16 21.52
  Q 946.67 25.01 964.40 33.38
  Q 970.79 36.40 981.94 42.88
  Q 1021.57 65.96 1032.09 73.00
  C 1041.77 79.48 1061.30 91.98 1075.05 102.00
  Q 1081.17 106.46 1090.89 114.34
  Q 1108.03 128.24 1127.91 144.53
  Q 1134.65 150.05 1171.24 184.95
  Q 1176.36 189.84 1198.42 208.68
  Q 1203.71 213.20 1213.49 220.51
  C 1225.17 229.23 1244.77 244.58 1260.92 256.02
  Q 1284.15 272.49 1284.17 272.50
  C 1305.77 287.59 1332.97 301.51 1355.19 314.52
  Q 1357.46 315.85 1365.78 321.17
  Q 1372.38 325.39 1376.32 327.98
  Q 1410.47 350.43 1438.01 374.88
  Q 1443.01 379.32 1456.72 393.21
  Q 1462.82 399.38 1469.00 407.69
  Q 1479.91 422.33 1480.92 424.09
  C 1483.37 428.36 1485.30 431.14 1486.93 435.06
  C 1488.79 439.51 1491.44 443.74 1493.34 448.67
  Q 1494.35 451.29 1496.88 457.03
  C 1500.65 465.58 1503.32 473.40 1507.26 483.87
  C 1510.55 492.63 1513.52 502.93 1516.39 511.69
  C 1517.08 513.79 1517.33 516.93 1518.00 519.36
  Q 1524.57 543.21 1526.09 569.60
  Z"
/>
</svg>
