<?xml version="1.0" encoding="UTF-8"?>
<svg id="Layer_2" data-name="Layer 2" xmlns="http://www.w3.org/2000/svg" viewBox="0 0 1925.77 1959.43">
  <defs>
    <style>
      .cls-1 {
        fill: #e5e545;
      }
    </style>
  </defs>
  <g id="objects">
    <path class="cls-1" d="m1340.49,251.75C1204.14,97.01,1004.34-.47,781.77,0,373.48.88,36.67,342.36,41.18,750.63c.44,39.63,3.98,78.51,10.4,116.41,18.84,111.3,13.08,225.74-22.41,332.91C11,1254.81.83,1313.32.05,1374.1c-4.13,320.79,256.87,585.33,577.69,585.33,71.56,0,140.07-13.02,203.3-36.8,123.78-46.56,255.16-69.25,387.4-67.94,2.53.03,5.06.04,7.59.04,410.86,0,750.58-340.43,749.75-751.29-.51-251.73-125.09-474.32-315.84-609.9-98.73-70.18-189.36-150.91-269.44-241.79Z"/>
  </g>
</svg>