<?xml version="1.0" encoding="UTF-8"?>
<!DOCTYPE svg PUBLIC "-//W3C//DTD SVG 1.1//EN" "http://www.w3.org/Graphics/SVG/1.1/DTD/svg11.dtd">
<svg xmlns="http://www.w3.org/2000/svg" version="1.1" width="512px" height="512px" style="shape-rendering:geometricPrecision; text-rendering:geometricPrecision; image-rendering:optimizeQuality; fill-rule:evenodd; clip-rule:evenodd" xmlns:xlink="http://www.w3.org/1999/xlink">
<g><path style="opacity:0.962" fill="#fefffe" d="M 100.5,0.5 C 160.501,0.333338 220.501,0.500005 280.5,1C 284.09,2.53018 287.757,3.86351 291.5,5C 340.309,34.1456 379.476,72.9789 409,121.5C 410.673,126.177 412.34,130.843 414,135.5C 414.333,184.167 414.667,232.833 415,281.5C 440.057,302.292 445.724,327.626 432,357.5C 427.375,364.459 421.708,370.459 415,375.5C 414.667,388.167 414.333,400.833 414,413.5C 413.167,415 412,416.167 410.5,417C 374.829,417.167 339.162,417.667 303.5,418.5C 317.133,440.024 317.966,462.024 306,484.5C 290.971,505.744 270.471,513.91 244.5,509C 220.736,502.234 206.236,486.734 201,462.5C 198.966,446.134 202.8,431.3 212.5,418C 174.833,417.667 137.167,417.333 99.5,417C 98.6667,416.167 97.8333,415.333 97,414.5C 96.6667,400.5 96.3333,386.5 96,372.5C 77.3146,355.098 71.648,334.098 79,309.5C 82.7134,300.057 88.3801,292.057 96,285.5C 96.3333,191.833 96.6667,98.1667 97,4.5C 98.3756,3.29493 99.5423,1.9616 100.5,0.5 Z M 114.5,18.5 C 169.199,18.0255 223.866,18.5255 278.5,20C 279.009,57.1799 279.843,94.3466 281,131.5C 282.319,133.487 284.152,134.654 286.5,135C 322.886,134.843 359.053,135.676 395,137.5C 395.5,182.499 395.667,227.499 395.5,272.5C 373.365,269.156 354.365,275.323 338.5,291C 324.68,297.41 311.013,304.077 297.5,311C 290.988,313.209 284.321,313.876 277.5,313C 275.951,311.786 274.785,310.286 274,308.5C 273.449,303.455 273.782,298.455 275,293.5C 281.993,278.535 288.993,263.535 296,248.5C 304.894,238.379 310.894,226.713 314,213.5C 316.864,180.047 302.364,158.213 270.5,148C 233.392,143.625 210.226,159.459 201,195.5C 198.711,214.633 204.377,230.967 218,244.5C 226.317,261.632 234.483,278.798 242.5,296C 242.53,299.966 242.364,304.133 242,308.5C 237.891,313.809 232.724,314.976 226.5,312C 202.044,300.748 178.044,288.748 154.5,276C 141.671,270.689 128.671,270.189 115.5,274.5C 114.5,189.169 114.167,103.836 114.5,18.5 Z M 297.5,30.5 C 302.663,34.1445 307.996,37.6445 313.5,41C 339.952,63.4499 363.619,88.4499 384.5,116C 355.502,116.5 326.502,116.667 297.5,116.5C 297.5,87.8333 297.5,59.1667 297.5,30.5 Z M 229.5,344.5 C 240.965,343.476 244.798,348.476 241,359.5C 234.582,372.947 228.082,386.28 221.5,399.5C 185.84,400.5 150.173,400.833 114.5,400.5C 114.334,394.491 114.501,388.491 115,382.5C 128.637,386.816 142.137,386.316 155.5,381C 179.827,368.003 204.493,355.836 229.5,344.5 Z M 277.5,344.5 C 283.977,344.281 290.311,345.114 296.5,347C 311.046,354.186 325.713,361.186 340.5,368C 356.007,382.63 374.34,388.13 395.5,384.5C 395.5,389.833 395.5,395.167 395.5,400.5C 361.5,400.5 327.5,400.5 293.5,400.5C 287.916,386.659 281.75,372.992 275,359.5C 272.271,353.747 273.104,348.747 277.5,344.5 Z"/></g>
</svg>
