<?xml version="1.0" standalone="no"?>
<!DOCTYPE svg PUBLIC "-//W3C//DTD SVG 20010904//EN"
 "http://www.w3.org/TR/2001/REC-SVG-20010904/DTD/svg10.dtd">
<svg version="1.0" xmlns="http://www.w3.org/2000/svg"
 width="512.000000pt" height="512.000000pt" viewBox="0 0 512.000000 512.000000"
 preserveAspectRatio="xMidYMid meet">

<g transform="translate(0.000000,512.000000) scale(0.100000,-0.100000)"
fill="#000000" stroke="none">
<path d="M1229 4931 c-29 -29 -29 -31 -29 -144 l0 -115 -257 -4 c-231 -4 -265
-7 -323 -26 -161 -54 -292 -194 -335 -357 -13 -52 -15 -240 -15 -1510 0 -1600
-4 -1504 63 -1629 41 -78 125 -162 203 -203 121 -64 90 -63 1159 -63 l970 0
49 -96 c340 -668 1217 -825 1767 -316 161 149 275 348 329 572 98 415 -63 869
-403 1131 -110 85 -279 170 -399 201 l-88 23 0 921 c0 1015 3 963 -63 1089
-42 78 -132 166 -210 205 -101 49 -174 60 -429 60 l-228 0 0 114 c0 109 -1
116 -26 145 -22 26 -33 31 -69 31 -32 0 -52 -7 -72 -24 -27 -24 -28 -27 -31
-145 l-4 -121 -694 0 -694 0 0 116 c0 114 0 116 -29 145 -23 23 -38 29 -71 29
-33 0 -48 -6 -71 -29z m-29 -587 c0 -114 0 -116 29 -145 23 -23 38 -29 71 -29
33 0 48 6 71 29 29 29 29 31 29 145 l0 116 695 0 695 0 0 -105 c0 -146 22
-185 104 -185 25 0 45 9 68 29 l33 29 3 117 4 116 252 -3 c238 -3 253 -4 293
-26 66 -35 110 -79 140 -140 27 -54 28 -65 31 -219 l4 -163 -1627 0 -1627 0 4
158 c3 144 6 162 29 213 33 70 98 133 164 159 44 17 77 19 293 19 l242 1 0
-116z m2520 -1284 l0 -650 -47 0 c-120 0 -333 -54 -455 -116 -155 -78 -323
-223 -418 -360 -94 -136 -161 -296 -190 -454 -15 -78 -18 -251 -7 -338 l8 -63
-948 3 -948 3 -67 33 c-75 37 -110 72 -147 152 l-26 55 -3 1180 c-1 649 0
1185 2 1192 4 11 323 13 1626 13 l1620 0 0 -650z m110 -860 c192 -24 384 -117
526 -255 183 -179 276 -400 276 -655 -1 -131 -18 -223 -63 -341 -59 -152 -195
-323 -333 -418 -69 -48 -202 -108 -291 -133 -115 -31 -345 -31 -460 0 -355 98
-618 388 -676 746 -16 105 -7 290 21 386 101 353 389 610 745 666 103 16 151
16 255 4z"/>
<path d="M1170 2823 c-30 -11 -60 -47 -66 -78 -7 -37 16 -89 45 -105 13 -7
298 -10 846 -10 548 0 833 3 846 10 53 29 61 116 13 161 l-26 24 -821 2 c-452
1 -829 -1 -837 -4z"/>
<path d="M1172 2159 c-70 -21 -91 -114 -37 -168 l25 -26 498 -3 c273 -1 508 0
520 3 72 18 95 109 43 167 l-29 33 -494 2 c-293 1 -506 -2 -526 -8z"/>
<path d="M4232 1775 c-18 -8 -123 -101 -234 -207 -111 -106 -221 -211 -245
-232 l-44 -39 -174 173 -174 173 -43 -6 c-57 -8 -88 -43 -88 -100 0 -40 4 -45
217 -259 230 -231 251 -246 306 -216 14 7 153 135 309 285 310 296 322 311
293 380 -10 22 -26 39 -49 48 -41 18 -33 18 -74 0z"/>
</g>
</svg>
