<?xml version="1.0" standalone="no"?>
<!DOCTYPE svg PUBLIC "-//W3C//DTD SVG 20010904//EN"
 "http://www.w3.org/TR/2001/REC-SVG-20010904/DTD/svg10.dtd">
<svg version="1.0" xmlns="http://www.w3.org/2000/svg"
 width="512.000000pt" height="512.000000pt" viewBox="0 0 512.000000 512.000000"
 preserveAspectRatio="xMidYMid meet">

<g transform="translate(0.000000,512.000000) scale(0.100000,-0.100000)"
fill="#000000" stroke="none">
<path d="M273 5051 c-96 -35 -182 -111 -228 -201 -37 -72 -45 -130 -45 -327
l0 -193 2006 0 2006 0 -4 213 c-4 192 -6 217 -27 270 -44 112 -135 199 -248
238 -51 17 -85 19 -365 19 l-308 0 0 -140 c0 -159 -9 -191 -61 -209 -44 -15
-93 7 -108 49 -6 18 -11 93 -11 166 l0 134 -875 0 -875 0 0 -134 c0 -73 -5
-148 -11 -166 -15 -42 -64 -64 -108 -49 -52 18 -61 50 -61 209 l0 140 -312 0
c-280 -1 -319 -3 -365 -19z"/>
<path d="M2 2693 l3 -1468 23 -58 c45 -112 133 -196 250 -241 57 -21 58 -21
1225 -24 1114 -3 1167 -2 1167 15 0 10 -5 45 -10 78 -16 92 -13 318 5 420 75
426 356 792 748 975 157 73 358 120 513 120 l84 0 0 825 0 825 -2005 0 -2005
0 2 -1467z m2899 298 c31 -31 36 -59 17 -94 -25 -48 15 -46 -1036 -47 l-993 0
-24 25 c-42 41 -32 105 20 133 14 8 311 11 1003 12 l984 0 29 -29z m-809 -782
c67 -18 87 -100 36 -145 -19 -18 -52 -19 -623 -22 l-603 -2 -31 26 c-54 45
-35 130 34 147 42 10 1150 7 1187 -4z"/>
<path d="M3805 2329 c-167 -24 -394 -118 -526 -218 -234 -178 -394 -441 -445
-732 -23 -134 -15 -340 19 -469 106 -403 416 -721 809 -829 663 -181 1332 250
1443 929 46 286 -20 581 -185 825 -243 360 -686 556 -1115 494z m876 -588 c21
-21 29 -39 29 -64 0 -32 -24 -57 -371 -388 -204 -195 -381 -358 -394 -363 -49
-20 -75 1 -325 256 -135 137 -249 258 -254 268 -23 49 25 110 87 110 39 0 48
-8 253 -212 l214 -212 26 25 c15 13 164 156 333 316 275 263 309 293 339 293
24 0 42 -9 63 -29z"/>
</g>
</svg>
