<?xml version="1.0" encoding="UTF-8"?>
<!DOCTYPE svg PUBLIC "-//W3C//DTD SVG 1.1//EN" "http://www.w3.org/Graphics/SVG/1.1/DTD/svg11.dtd">
<svg xmlns="http://www.w3.org/2000/svg" version="1.1" width="256px" height="256px" style="shape-rendering:geometricPrecision; text-rendering:geometricPrecision; image-rendering:optimizeQuality; fill-rule:evenodd; clip-rule:evenodd" xmlns:xlink="http://www.w3.org/1999/xlink">
<g><path style="opacity:0.993" fill="#009092" d="M 255.5,68.5 C 255.5,115.833 255.5,163.167 255.5,210.5C 252.17,219.322 245.837,224.822 236.5,227C 163.833,227.667 91.1667,227.667 18.5,227C 9.16343,224.822 2.8301,219.322 -0.5,210.5C -0.5,163.167 -0.5,115.833 -0.5,68.5C 1.43772,64.8075 3.77106,61.3075 6.5,58C 9.33883,56.0797 12.3388,54.4131 15.5,53C 34.1637,52.5001 52.8304,52.3334 71.5,52.5C 70.9013,46.1351 72.0679,40.1351 75,34.5C 76.9384,31.8941 79.4384,30.0608 82.5,29C 97.4352,27.857 112.435,27.357 127.5,27.5C 142.565,27.357 157.565,27.857 172.5,29C 177,30.8333 180.167,34 182,38.5C 183.225,43.0853 183.725,47.752 183.5,52.5C 202.17,52.3334 220.836,52.5001 239.5,53C 242.661,54.4131 245.661,56.0797 248.5,58C 251.229,61.3075 253.562,64.8075 255.5,68.5 Z"/></g>
<g><path style="opacity:1" fill="#fafcfc" d="M 214.5,76.5 C 227.473,75.9643 232.639,81.9643 230,94.5C 222.63,103.732 215.296,103.732 208,94.5C 204.82,86.5325 206.987,80.5325 214.5,76.5 Z"/></g>
<g><path style="opacity:1" fill="#86e7e9" d="M 119.5,76.5 C 156.837,75.9049 180.337,93.5716 190,129.5C 192.376,166.093 176.21,189.927 141.5,201C 112.719,206.189 90.2192,196.689 74,172.5C 57.0127,137.952 63.846,109.118 94.5,86C 102.464,81.5171 110.798,78.3504 119.5,76.5 Z"/></g>
<g><path style="opacity:1" fill="#079193" d="M 116.5,90.5 C 148.471,86.9983 168.638,100.665 177,131.5C 179.469,161.096 166.635,180.262 138.5,189C 107.963,192.651 88.13,179.818 79,150.5C 75.5114,120.472 88.0114,100.472 116.5,90.5 Z"/></g>
<g><path style="opacity:1" fill="#fdfefe" d="M 121.5,105.5 C 149.185,105.35 162.352,119.016 161,146.5C 154.609,167.524 140.442,176.357 118.5,173C 99.6956,165.571 91.5289,151.737 94,131.5C 98.2345,117.428 107.401,108.761 121.5,105.5 Z"/></g>
</svg>
