<?xml version="1.0" encoding="UTF-8"?>
<!DOCTYPE svg PUBLIC "-//W3C//DTD SVG 1.1//EN" "http://www.w3.org/Graphics/SVG/1.1/DTD/svg11.dtd">
<svg xmlns="http://www.w3.org/2000/svg" version="1.1" width="512px" height="512px" style="shape-rendering:geometricPrecision; text-rendering:geometricPrecision; image-rendering:optimizeQuality; fill-rule:evenodd; clip-rule:evenodd" xmlns:xlink="http://www.w3.org/1999/xlink">
<g><path style="opacity:0.983" fill="#000000" d="M 235.5,3.5 C 306.851,-1.12167 366.018,23.2117 413,76.5C 465.576,146.014 473.909,220.681 438,300.5C 423.5,330.959 405.834,359.292 385,385.5C 348.76,430.407 307.927,470.574 262.5,506C 256.438,508.428 250.772,507.761 245.5,504C 194.513,463.682 149.68,417.515 111,365.5C 88.1385,334.111 70.8051,299.778 59,262.5C 38.9914,178.539 60.8247,107.706 124.5,50C 156.96,23.6795 193.96,8.17946 235.5,3.5 Z M 254.5,47.5 C 325.311,51.1286 375.144,85.1286 404,149.5C 411.819,169.429 415.319,190.096 414.5,211.5C 390.833,211.5 367.167,211.5 343.5,211.5C 343.5,246.167 343.5,280.833 343.5,315.5C 353.172,315.334 362.839,315.5 372.5,316C 320.563,366.521 260.563,379.188 192.5,354C 172.047,344.777 154.047,332.111 138.5,316C 148.161,315.5 157.828,315.334 167.5,315.5C 167.5,280.833 167.5,246.167 167.5,211.5C 143.833,211.5 120.167,211.5 96.5,211.5C 96.543,155.916 118.543,111.416 162.5,78C 190.285,58.905 220.951,48.7383 254.5,47.5 Z M 203.5,116.5 C 212.143,115.314 217.31,118.981 219,127.5C 219.829,134.234 219.496,140.901 218,147.5C 214.23,154.414 208.73,156.247 201.5,153C 198.246,150.658 196.412,147.491 196,143.5C 195.171,136.766 195.504,130.099 197,123.5C 198.694,120.642 200.861,118.309 203.5,116.5 Z M 251.5,116.5 C 260.143,115.314 265.31,118.981 267,127.5C 267.829,134.234 267.496,140.901 266,147.5C 262.23,154.414 256.73,156.247 249.5,153C 246.246,150.658 244.412,147.491 244,143.5C 243.171,136.766 243.504,130.099 245,123.5C 246.694,120.642 248.861,118.309 251.5,116.5 Z M 299.5,116.5 C 308.143,115.314 313.31,118.981 315,127.5C 315.829,134.234 315.496,140.901 314,147.5C 310.23,154.414 304.73,156.247 297.5,153C 294.246,150.658 292.412,147.491 292,143.5C 291.171,136.766 291.504,130.099 293,123.5C 294.694,120.642 296.861,118.309 299.5,116.5 Z M 203.5,180.5 C 212.143,179.314 217.31,182.981 219,191.5C 219.829,198.234 219.496,204.901 218,211.5C 214.23,218.414 208.73,220.247 201.5,217C 198.246,214.658 196.412,211.491 196,207.5C 195.171,200.766 195.504,194.099 197,187.5C 198.694,184.642 200.861,182.309 203.5,180.5 Z M 251.5,180.5 C 260.143,179.314 265.31,182.981 267,191.5C 267.829,198.234 267.496,204.901 266,211.5C 262.23,218.414 256.73,220.247 249.5,217C 246.246,214.658 244.412,211.491 244,207.5C 243.171,200.766 243.504,194.099 245,187.5C 246.694,184.642 248.861,182.309 251.5,180.5 Z M 299.5,180.5 C 308.143,179.314 313.31,182.981 315,191.5C 315.829,198.234 315.496,204.901 314,211.5C 310.23,218.414 304.73,220.247 297.5,217C 294.246,214.658 292.412,211.491 292,207.5C 291.171,200.766 291.504,194.099 293,187.5C 294.694,184.642 296.861,182.309 299.5,180.5 Z"/></g>
<g><path style="opacity:0.984" fill="#000000" d="M 186.5,99.5 C 232.501,99.3333 278.501,99.5 324.5,100C 326.624,101.122 328.457,102.622 330,104.5C 331.493,174.751 331.993,245.084 331.5,315.5C 315.5,315.5 299.5,315.5 283.5,315.5C 283.955,294.113 283.455,272.78 282,251.5C 280.5,248.667 278.333,246.5 275.5,245C 262.167,243 248.833,243 235.5,245C 232.667,246.5 230.5,248.667 229,251.5C 227.545,272.78 227.045,294.113 227.5,315.5C 211.5,315.5 195.5,315.5 179.5,315.5C 179.333,245.833 179.5,176.166 180,106.5C 181.694,103.642 183.861,101.309 186.5,99.5 Z M 203.5,116.5 C 200.861,118.309 198.694,120.642 197,123.5C 195.504,130.099 195.171,136.766 196,143.5C 196.412,147.491 198.246,150.658 201.5,153C 208.73,156.247 214.23,154.414 218,147.5C 219.496,140.901 219.829,134.234 219,127.5C 217.31,118.981 212.143,115.314 203.5,116.5 Z M 251.5,116.5 C 248.861,118.309 246.694,120.642 245,123.5C 243.504,130.099 243.171,136.766 244,143.5C 244.412,147.491 246.246,150.658 249.5,153C 256.73,156.247 262.23,154.414 266,147.5C 267.496,140.901 267.829,134.234 267,127.5C 265.31,118.981 260.143,115.314 251.5,116.5 Z M 299.5,116.5 C 296.861,118.309 294.694,120.642 293,123.5C 291.504,130.099 291.171,136.766 292,143.5C 292.412,147.491 294.246,150.658 297.5,153C 304.73,156.247 310.23,154.414 314,147.5C 315.496,140.901 315.829,134.234 315,127.5C 313.31,118.981 308.143,115.314 299.5,116.5 Z M 203.5,180.5 C 200.861,182.309 198.694,184.642 197,187.5C 195.504,194.099 195.171,200.766 196,207.5C 196.412,211.491 198.246,214.658 201.5,217C 208.73,220.247 214.23,218.414 218,211.5C 219.496,204.901 219.829,198.234 219,191.5C 217.31,182.981 212.143,179.314 203.5,180.5 Z M 251.5,180.5 C 248.861,182.309 246.694,184.642 245,187.5C 243.504,194.099 243.171,200.766 244,207.5C 244.412,211.491 246.246,214.658 249.5,217C 256.73,220.247 262.23,218.414 266,211.5C 267.496,204.901 267.829,198.234 267,191.5C 265.31,182.981 260.143,179.314 251.5,180.5 Z M 299.5,180.5 C 296.861,182.309 294.694,184.642 293,187.5C 291.504,194.099 291.171,200.766 292,207.5C 292.412,211.491 294.246,214.658 297.5,217C 304.73,220.247 310.23,218.414 314,211.5C 315.496,204.901 315.829,198.234 315,191.5C 313.31,182.981 308.143,179.314 299.5,180.5 Z"/></g>
</svg>
