<?xml version="1.0" standalone="no"?>
<!DOCTYPE svg PUBLIC "-//W3C//DTD SVG 20010904//EN"
 "http://www.w3.org/TR/2001/REC-SVG-20010904/DTD/svg10.dtd">
<svg version="1.0" xmlns="http://www.w3.org/2000/svg"
 width="512.000000pt" height="512.000000pt" viewBox="0 0 512.000000 512.000000"
 preserveAspectRatio="xMidYMid meet">

<g transform="translate(0.000000,512.000000) scale(0.100000,-0.100000)"
fill="#000000" stroke="none">
<path d="M663 5100 c-21 -13 -35 -31 -42 -57 -15 -53 -15 -4913 0 -4966 7 -26
21 -44 42 -57 31 -20 67 -20 1897 -20 1832 0 1866 0 1897 20 22 13 35 31 43
59 7 28 10 544 8 1703 l-3 1663 -32 86 c-188 500 -1081 1390 -1563 1556 l-95
33 -1060 0 c-1032 0 -1061 -1 -1092 -20z m2180 -197 l27 -13 0 -664 c0 -476 3
-672 11 -690 26 -57 18 -56 737 -56 l660 0 11 -31 c8 -23 11 -498 11 -1640 l0
-1609 -1740 0 -1740 0 0 2360 0 2361 998 -3 c760 -2 1004 -6 1025 -15z m364
-216 c206 -155 550 -483 734 -702 90 -107 219 -276 219 -287 0 -4 -245 -8
-545 -8 l-545 0 0 545 c0 534 0 545 19 535 11 -5 64 -43 118 -83z"/>
</g>
</svg>
