<?xml version="1.0" standalone="no"?>
<!DOCTYPE svg PUBLIC "-//W3C//DTD SVG 20010904//EN"
 "http://www.w3.org/TR/2001/REC-SVG-20010904/DTD/svg10.dtd">
<svg version="1.0" xmlns="http://www.w3.org/2000/svg"
 width="512.000000pt" height="512.000000pt" viewBox="0 0 512.000000 512.000000"
 preserveAspectRatio="xMidYMid meet">

<g transform="translate(0.000000,512.000000) scale(0.100000,-0.100000)"
fill="#000000" stroke="none">
<path d="M663 5100 c-21 -13 -35 -31 -42 -57 -15 -53 -15 -4913 0 -4966 7 -26
21 -44 42 -57 31 -20 67 -20 1897 -20 1832 0 1866 0 1897 20 22 13 35 31 43
59 13 49 10 3357 -4 3384 -8 16 -54 17 -773 17 -676 0 -769 2 -798 16 -18 8
-37 23 -42 32 -4 9 -10 368 -13 797 l-5 779 -25 7 c-14 4 -502 7 -1085 8
-1033 1 -1061 0 -1092 -19z"/>
<path d="M3070 4350 l0 -660 660 0 c363 0 660 4 660 8 0 15 -91 153 -169 257
-236 316 -595 672 -904 898 -106 77 -229 157 -243 157 -2 0 -4 -297 -4 -660z"/>
</g>
</svg>
