<?xml version="1.0" encoding="UTF-8"?>
<!DOCTYPE svg PUBLIC "-//W3C//DTD SVG 1.1//EN" "http://www.w3.org/Graphics/SVG/1.1/DTD/svg11.dtd">
<svg xmlns="http://www.w3.org/2000/svg" version="1.1" width="512px" height="512px" style="shape-rendering:geometricPrecision; text-rendering:geometricPrecision; image-rendering:optimizeQuality; fill-rule:evenodd; clip-rule:evenodd" xmlns:xlink="http://www.w3.org/1999/xlink">
<g><path style="opacity:0.967" fill="#000000" d="M 511.5,111.5 C 511.5,115.5 511.5,119.5 511.5,123.5C 509.149,128.035 505.482,131.202 500.5,133C 468.835,133.5 437.168,133.667 405.5,133.5C 395.746,165.558 374.079,182.558 340.5,184.5C 307.759,182.078 286.092,165.412 275.5,134.5C 187.169,133.667 98.8352,133.167 10.5,133C 5.5179,131.202 1.85123,128.035 -0.5,123.5C -0.5,119.5 -0.5,115.5 -0.5,111.5C 2.04369,106.463 6.04369,102.963 11.5,101C 99.5,100.667 187.5,100.333 275.5,100C 288.306,63.7496 313.973,47.4162 352.5,51C 380.024,57.0262 397.691,73.5262 405.5,100.5C 436.835,100.333 468.168,100.5 499.5,101C 504.932,102.936 508.932,106.436 511.5,111.5 Z M 340.5,82.5 C 364.833,85.9997 376,99.9997 374,124.5C 366.125,146.188 350.958,154.354 328.5,149C 309.852,139.534 303.352,124.701 309,104.5C 315.35,91.0861 325.85,83.7528 340.5,82.5 Z"/></g>
<g><path style="opacity:0.982" fill="#000000" d="M 511.5,249.5 C 511.5,253.5 511.5,257.5 511.5,261.5C 509.353,265.811 506.02,268.978 501.5,271C 412.831,271.167 324.165,271.667 235.5,272.5C 222.106,310.369 195.44,326.535 155.5,321C 128.992,314.324 112.325,297.824 105.5,271.5C 73.4983,271.667 41.4983,271.5 9.5,271C 4.98004,268.978 1.6467,265.811 -0.5,261.5C -0.5,257.5 -0.5,253.5 -0.5,249.5C 1.6467,245.189 4.98004,242.022 9.5,240C 41.4983,239.5 73.4983,239.333 105.5,239.5C 112.325,213.176 128.992,196.676 155.5,190C 195.44,184.465 222.106,200.631 235.5,238.5C 324.165,239.333 412.831,239.833 501.5,240C 506.02,242.022 509.353,245.189 511.5,249.5 Z M 164.5,221.5 C 185.68,220.333 198.847,230 204,250.5C 205.274,270.783 196.107,283.617 176.5,289C 148.826,289.66 135.66,276.16 137,248.5C 140.783,233.883 149.949,224.883 164.5,221.5 Z"/></g>
<g><path style="opacity:0.967" fill="#000000" d="M 511.5,387.5 C 511.5,391.5 511.5,395.5 511.5,399.5C 508.956,404.537 504.956,408.037 499.5,410C 468.168,410.5 436.835,410.667 405.5,410.5C 397.691,437.474 380.024,453.974 352.5,460C 313.973,463.584 288.306,447.25 275.5,411C 187.5,410.667 99.5,410.333 11.5,410C 6.04369,408.037 2.04369,404.537 -0.5,399.5C -0.5,395.5 -0.5,391.5 -0.5,387.5C 1.71515,382.793 5.38182,379.627 10.5,378C 98.8352,377.833 187.169,377.333 275.5,376.5C 286.1,345.578 307.767,328.912 340.5,326.5C 374.079,328.442 395.746,345.442 405.5,377.5C 437.168,377.333 468.835,377.5 500.5,378C 505.482,379.798 509.149,382.965 511.5,387.5 Z M 336.5,359.5 C 358.998,360.004 371.665,371.337 374.5,393.5C 372.736,414.099 361.569,425.765 341,428.5C 319.951,426.284 308.451,414.617 306.5,393.5C 308.436,374.905 318.436,363.572 336.5,359.5 Z"/></g>
</svg>
