<?xml version="1.0" encoding="UTF-8"?>
<!DOCTYPE svg PUBLIC "-//W3C//DTD SVG 1.1//EN" "http://www.w3.org/Graphics/SVG/1.1/DTD/svg11.dtd">
<svg xmlns="http://www.w3.org/2000/svg" version="1.1" width="256px" height="256px" style="shape-rendering:geometricPrecision; text-rendering:geometricPrecision; image-rendering:optimizeQuality; fill-rule:evenodd; clip-rule:evenodd" xmlns:xlink="http://www.w3.org/1999/xlink">
<g><path style="opacity:0.985" fill="#009092" d="M 255.5,39.5 C 255.5,83.8333 255.5,128.167 255.5,172.5C 252.349,181.816 246.016,187.983 236.5,191C 178.167,191.667 119.833,191.667 61.5,191C 50.7892,187.624 44.2892,180.457 42,169.5C 41.8333,148.5 41.6667,127.5 41.5,106.5C 41.3597,83.7933 41.8597,61.1266 43,38.5C 46.3603,29.1384 52.8603,23.305 62.5,21C 120.167,20.3333 177.833,20.3333 235.5,21C 244.953,24.2909 251.62,30.4575 255.5,39.5 Z M 67.5,42.5 C 121.834,42.3333 176.168,42.5 230.5,43C 231.333,43.8333 232.167,44.6667 233,45.5C 233.667,70.5 233.667,95.5 233,120.5C 221.382,107.427 209.882,94.2603 198.5,81C 190.041,74.8584 181.708,75.0251 173.5,81.5C 159.479,97.6866 145.646,114.02 132,130.5C 127.167,125.667 122.333,120.833 117.5,116C 109.292,111.257 101.292,111.59 93.5,117C 83.6667,126.833 73.8333,136.667 64,146.5C 63.3333,113.5 63.3333,80.5 64,47.5C 64.2572,45.0935 65.4238,43.4268 67.5,42.5 Z"/></g>
<g><path style="opacity:0.97" fill="#009092" d="M 89.5,52.5 C 111.943,52.1059 120.443,62.7726 115,84.5C 106.41,96.2101 95.5769,98.7101 82.5,92C 72.45,82.7724 70.95,72.2724 78,60.5C 81.4821,57.1608 85.3155,54.4942 89.5,52.5 Z"/></g>
<g><path style="opacity:0.98" fill="#009092" d="M 195.5,255.5 C 190.833,255.5 186.167,255.5 181.5,255.5C 125.705,240.049 69.7046,224.882 13.5,210C 6.83442,206.508 2.16775,201.341 -0.5,194.5C -0.5,189.833 -0.5,185.167 -0.5,180.5C 8.31261,151.94 17.1459,123.274 26,94.5C 26.3333,120.167 26.6667,145.833 27,171.5C 31.2067,192.707 44.04,204.541 65.5,207C 117.503,207.167 169.503,207.667 221.5,208.5C 217.63,220.945 213.463,233.278 209,245.5C 205.421,250.269 200.921,253.603 195.5,255.5 Z"/></g>
</svg>
