<?xml version="1.0" encoding="UTF-8"?>
<!DOCTYPE svg PUBLIC "-//W3C//DTD SVG 1.1//EN" "http://www.w3.org/Graphics/SVG/1.1/DTD/svg11.dtd">
<svg xmlns="http://www.w3.org/2000/svg" version="1.1" width="512px" height="512px" style="shape-rendering:geometricPrecision; text-rendering:geometricPrecision; image-rendering:optimizeQuality; fill-rule:evenodd; clip-rule:evenodd" xmlns:xlink="http://www.w3.org/1999/xlink">
<g><path style="opacity:0.992" fill="#000000" d="M 511.5,157.5 C 511.5,168.5 511.5,179.5 511.5,190.5C 508.273,213.838 500.273,235.505 487.5,255.5C 444.837,256.667 402.171,256.833 359.5,256C 341.54,223.247 323.706,190.413 306,157.5C 298.396,151.927 291.063,152.26 284,158.5C 263.423,201.986 242.59,245.319 221.5,288.5C 206.515,266.544 192.015,244.211 178,221.5C 170.396,215.927 163.063,216.26 156,222.5C 149.543,233.917 142.71,245.084 135.5,256C 98.1667,256.667 60.8333,256.667 23.5,256C 11.0331,236.092 3.0331,214.592 -0.5,191.5C -0.5,180.167 -0.5,168.833 -0.5,157.5C 10.0468,96.7704 44.0468,54.9371 101.5,32C 144.22,18.5788 185.22,22.5788 224.5,44C 235.182,50.6735 245.515,57.8402 255.5,65.5C 280.87,43.6519 310.204,30.1519 343.5,25C 416.853,21.4137 469.353,52.5803 501,118.5C 505.934,131.247 509.434,144.247 511.5,157.5 Z"/></g>
<g><path style="opacity:0.986" fill="#000000" d="M 295.5,200.5 C 310.207,224.786 324.041,249.786 337,275.5C 339.601,282.053 344.434,285.553 351.5,286C 388.5,286.333 425.5,286.667 462.5,287C 397.5,352 332.5,417 267.5,482C 260.619,487.11 253.286,487.777 245.5,484C 179.806,417.972 113.806,352.306 47.5,287C 81.2058,286.965 114.873,286.298 148.5,285C 150.333,283.833 152.167,282.667 154,281.5C 158.667,274.167 163.333,266.833 168,259.5C 182.916,282.331 197.583,305.331 212,328.5C 218.769,334.527 225.936,335.027 233.5,330C 254.838,287.157 275.505,243.991 295.5,200.5 Z"/></g>
</svg>
