<?xml version="1.0" encoding="UTF-8"?>
<!DOCTYPE svg PUBLIC "-//W3C//DTD SVG 1.1//EN" "http://www.w3.org/Graphics/SVG/1.1/DTD/svg11.dtd">
<svg xmlns="http://www.w3.org/2000/svg" version="1.1" width="512px" height="512px" style="shape-rendering:geometricPrecision; text-rendering:geometricPrecision; image-rendering:optimizeQuality; fill-rule:evenodd; clip-rule:evenodd" xmlns:xlink="http://www.w3.org/1999/xlink">
<g><path style="opacity:0.964" fill="#000000" d="M 511.5,157.5 C 511.5,168.5 511.5,179.5 511.5,190.5C 506.497,223.175 493.33,252.175 472,277.5C 403.554,345.946 335.054,414.446 266.5,483C 259.167,489 251.833,489 244.5,483C 178.306,416.472 111.806,350.306 45,284.5C 25.9054,263.703 12.2387,239.703 4,212.5C 2.41113,205.379 0.911125,198.379 -0.5,191.5C -0.5,180.167 -0.5,168.833 -0.5,157.5C 9.58431,97.9021 42.5843,56.4021 98.5,33C 145.151,17.2616 189.485,22.2616 231.5,48C 239.677,53.5888 247.677,59.4221 255.5,65.5C 285.67,39.27 320.836,25.27 361,23.5C 424.456,26.9906 470.456,56.9906 499,113.5C 505.061,127.759 509.227,142.426 511.5,157.5 Z M 135.5,55.5 C 168.39,52.9658 198.057,61.4658 224.5,81C 232.462,87.2935 240.129,93.9602 247.5,101C 254.214,103.469 260.547,102.803 266.5,99C 305.457,58.0107 351.791,46.344 405.5,64C 457.824,88.4676 482.658,129.634 480,187.5C 476.1,213.461 465.6,236.294 448.5,256C 419.161,256.833 389.828,256.667 360.5,255.5C 342.769,221.62 324.436,188.12 305.5,155C 299.647,152.124 293.647,151.79 287.5,154C 285,155.167 283.167,157 282,159.5C 261.817,201.864 241.651,244.197 221.5,286.5C 207.084,264.67 192.917,242.67 179,220.5C 172.19,215.78 165.023,215.28 157.5,219C 149.332,230.998 141.666,243.331 134.5,256C 110.5,256.667 86.5,256.667 62.5,256C 30.8745,219.539 22.7079,178.372 38,132.5C 56.9006,89.4825 89.4006,63.8158 135.5,55.5 Z M 295.5,202.5 C 296.885,203.574 298.051,204.907 299,206.5C 312.431,232.253 326.265,257.753 340.5,283C 342.167,284 343.833,285 345.5,286C 369.833,286.333 394.167,286.667 418.5,287C 364.625,341.375 310.292,395.209 255.5,448.5C 200.708,395.209 146.375,341.375 92.5,287C 111.5,286.667 130.5,286.333 149.5,286C 151.333,284.833 153.167,283.667 155,282.5C 159.333,275.5 163.667,268.5 168,261.5C 182.417,284.669 197.084,307.669 212,330.5C 219.375,335.628 226.875,335.794 234.5,331C 255.781,288.604 276.115,245.771 295.5,202.5 Z"/></g>
</svg>
