<?xml version="1.0" encoding="UTF-8"?>
<!DOCTYPE svg PUBLIC "-//W3C//DTD SVG 1.1//EN" "http://www.w3.org/Graphics/SVG/1.1/DTD/svg11.dtd">
<svg xmlns="http://www.w3.org/2000/svg" version="1.1" width="512px" height="512px" style="shape-rendering:geometricPrecision; text-rendering:geometricPrecision; image-rendering:optimizeQuality; fill-rule:evenodd; clip-rule:evenodd" xmlns:xlink="http://www.w3.org/1999/xlink">
<g><path style="opacity:0.975" fill="#000000" d="M 246.5,50.5 C 275.467,48.2118 293.967,60.8784 302,88.5C 305.11,110.203 297.61,127.036 279.5,139C 254.503,150.602 233.336,145.769 216,124.5C 202.757,99.5163 206.59,77.683 227.5,59C 233.453,55.0811 239.786,52.2477 246.5,50.5 Z"/></g>
<g><path style="opacity:0.987" fill="#000000" d="M 207.5,161.5 C 239.502,161.333 271.502,161.5 303.5,162C 324.642,167.477 337.142,180.977 341,202.5C 341.95,231.202 341.616,259.868 340,288.5C 334.57,303.97 323.736,312.97 307.5,315.5C 307.956,342.543 307.456,369.543 306,396.5C 298.288,414.939 284.788,421.439 265.5,416C 261.655,414.58 258.322,412.413 255.5,409.5C 239.474,421.998 224.307,420.998 210,406.5C 206.632,402.065 204.632,397.065 204,391.5C 203.5,366.169 203.333,340.836 203.5,315.5C 187.264,312.97 176.43,303.97 171,288.5C 169.384,259.868 169.05,231.202 170,202.5C 174.016,180.987 186.516,167.32 207.5,161.5 Z"/></g>
<g><path style="opacity:0.936" fill="#000000" d="M 184.5,360.5 C 185.5,360.5 186.5,360.5 187.5,360.5C 187.81,366.758 187.476,372.924 186.5,379C 168.509,381.775 151.176,386.775 134.5,394C 127.666,397.001 122.666,401.834 119.5,408.5C 121.216,413.053 124.216,416.553 128.5,419C 141.433,425.978 155.099,430.978 169.5,434C 226.833,445.333 284.167,445.333 341.5,434C 353.91,431.197 365.91,427.197 377.5,422C 382.116,419.44 386.282,416.273 390,412.5C 392,409.833 392,407.167 390,404.5C 386.749,400.578 382.916,397.412 378.5,395C 361.344,386.877 343.344,381.544 324.5,379C 323.524,372.924 323.19,366.758 323.5,360.5C 338.805,362.661 353.805,366.161 368.5,371C 382.694,375.34 394.861,382.84 405,393.5C 412.066,406.11 410.566,417.61 400.5,428C 387.436,438.197 372.769,445.197 356.5,449C 303.335,461.152 249.668,463.819 195.5,457C 169.558,454.349 144.892,447.349 121.5,436C 111.787,431.287 105.287,423.787 102,413.5C 100.534,401.592 104.701,392.092 114.5,385C 124.161,378.67 134.494,373.67 145.5,370C 158.508,366.33 171.508,363.164 184.5,360.5 Z"/></g>
</svg>
