<?xml version="1.0" encoding="UTF-8"?>
<!DOCTYPE svg PUBLIC "-//W3C//DTD SVG 1.1//EN" "http://www.w3.org/Graphics/SVG/1.1/DTD/svg11.dtd">
<svg xmlns="http://www.w3.org/2000/svg" version="1.1" width="512px" height="512px" style="shape-rendering:geometricPrecision; text-rendering:geometricPrecision; image-rendering:optimizeQuality; fill-rule:evenodd; clip-rule:evenodd" xmlns:xlink="http://www.w3.org/1999/xlink">
<g><path style="opacity:0.999" fill="#e9eff3" d="M 326.5,1.5 C 326.333,36.1683 326.5,70.8349 327,105.5C 328.833,113.333 333.667,118.167 341.5,120C 376.165,120.5 410.832,120.667 445.5,120.5C 445.5,200.833 445.5,281.167 445.5,361.5C 318.833,361.5 192.167,361.5 65.5,361.5C 65.3333,245.833 65.5,130.166 66,14.5C 68.1667,8.33333 72.3333,4.16667 78.5,2C 161.166,1.5 243.833,1.33334 326.5,1.5 Z"/></g>
<g><path style="opacity:1" fill="#bec2c3" d="M 326.5,1.5 C 366.5,40.8333 406.167,80.5 445.5,120.5C 410.832,120.667 376.165,120.5 341.5,120C 333.667,118.167 328.833,113.333 327,105.5C 326.5,70.8349 326.333,36.1683 326.5,1.5 Z"/></g>
<g><path style="opacity:1" fill="#0d9294" d="M 243.5,48.5 C 247.747,48.1778 251.747,49.0111 255.5,51C 262.154,56.3197 266.321,63.1531 268,71.5C 269.712,90.5637 267.712,109.23 262,127.5C 261.333,129.833 261.333,132.167 262,134.5C 276.384,164.282 293.051,192.615 312,219.5C 312.804,220.804 313.971,221.471 315.5,221.5C 328.084,219.486 340.751,218.986 353.5,220C 362.759,220.415 370.592,223.915 377,230.5C 380.473,236.713 380.14,242.713 376,248.5C 366.33,258.83 354.497,262.33 340.5,259C 334.44,257.136 328.774,254.47 323.5,251C 317.297,245.962 311.63,240.462 306.5,234.5C 277.757,240.137 249.757,248.303 222.5,259C 215.81,272.879 208.977,286.713 202,300.5C 194.512,315.641 183.679,327.807 169.5,337C 153.285,342.308 141.118,337.474 133,322.5C 130.603,315.203 131.269,308.203 135,301.5C 141.5,292.333 149.333,284.5 158.5,278C 175.682,267.325 193.516,257.825 212,249.5C 226.247,212.092 238.08,173.926 247.5,135C 241.632,121.096 236.466,106.93 232,92.5C 229.771,83.2766 229.105,73.9433 230,64.5C 231.859,56.8174 236.359,51.4841 243.5,48.5 Z"/></g>
<g><path style="opacity:1" fill="#e6eef2" d="M 245.5,61.5 C 248.325,61.0807 250.491,62.0807 252,64.5C 254.184,67.8662 255.517,71.5328 256,75.5C 257.314,88.086 256.148,100.419 252.5,112.5C 245.371,98.3202 241.871,83.3202 242,67.5C 242.926,65.3083 244.093,63.3083 245.5,61.5 Z"/></g>
<g><path style="opacity:1" fill="#e8eff3" d="M 255.5,152.5 C 256.376,152.369 257.043,152.702 257.5,153.5C 270.244,177.333 284.244,200.333 299.5,222.5C 275.591,228.02 252.091,235.02 229,243.5C 228.5,243.333 228,243.167 227.5,243C 238.923,213.476 248.256,183.309 255.5,152.5 Z"/></g>
<g><path style="opacity:1" fill="#e5eef2" d="M 327.5,231.5 C 338.628,230.921 349.628,231.755 360.5,234C 366.934,235.896 367.934,239.229 363.5,244C 347.191,250.505 333.524,246.838 322.5,233C 324.382,232.802 326.048,232.302 327.5,231.5 Z"/></g>
<g><path style="opacity:1" fill="#e7eef2" d="M 201.5,267.5 C 202.552,267.351 203.552,267.517 204.5,268C 197.299,284.509 188.466,300.009 178,314.5C 172.65,321.254 165.817,325.587 157.5,327.5C 150.463,325.962 145.797,321.796 143.5,315C 144.691,309.479 147.191,304.646 151,300.5C 166.275,287.112 183.109,276.112 201.5,267.5 Z"/></g>
<g><path style="opacity:0.999" fill="#019092" d="M 65.5,361.5 C 192.167,361.5 318.833,361.5 445.5,361.5C 445.667,406.501 445.5,451.501 445,496.5C 442.807,502.693 438.641,506.859 432.5,509C 314.5,509.667 196.5,509.667 78.5,509C 72.3333,506.833 68.1667,502.667 66,496.5C 65.5,451.501 65.3333,406.501 65.5,361.5 Z"/></g>
<g><path style="opacity:1" fill="#e8eff3" d="M 161.5,389.5 C 170.173,389.334 178.84,389.5 187.5,390C 203.306,395.095 209.806,405.928 207,422.5C 203.981,434.183 196.481,441.016 184.5,443C 180.514,443.499 176.514,443.666 172.5,443.5C 172.667,454.838 172.5,466.172 172,477.5C 170.607,480.366 168.274,481.699 165,481.5C 161.765,481.717 159.432,480.383 158,477.5C 157.333,449.5 157.333,421.5 158,393.5C 158.69,391.65 159.856,390.316 161.5,389.5 Z"/></g>
<g><path style="opacity:1" fill="#e6eef2" d="M 223.5,389.5 C 234.505,389.333 245.505,389.5 256.5,390C 277.443,394.61 289.943,407.443 294,428.5C 295.825,456.328 283.325,473.828 256.5,481C 245.5,481.667 234.5,481.667 223.5,481C 222.667,480.167 221.833,479.333 221,478.5C 219.351,450.587 219.017,422.587 220,394.5C 220.997,392.677 222.164,391.01 223.5,389.5 Z"/></g>
<g><path style="opacity:1" fill="#e5eef2" d="M 313.5,388.5 C 324.838,388.333 336.172,388.5 347.5,389C 354.175,392.368 355.175,397.035 350.5,403C 341.248,404.417 331.915,404.917 322.5,404.5C 322.5,412.167 322.5,419.833 322.5,427.5C 330.84,427.334 339.173,427.5 347.5,428C 353.448,430.433 354.948,434.6 352,440.5C 350.581,441.46 349.081,442.293 347.5,443C 339.507,443.5 331.507,443.666 323.5,443.5C 323.667,454.172 323.5,464.839 323,475.5C 320.983,480.924 317.15,482.758 311.5,481C 309.951,479.786 308.785,478.286 308,476.5C 307.333,448.833 307.333,421.167 308,393.5C 309.73,391.598 311.563,389.931 313.5,388.5 Z"/></g>
<g><path style="opacity:1" fill="#119395" d="M 172.5,404.5 C 178.105,403.908 183.439,404.741 188.5,407C 194.753,415.248 193.419,421.914 184.5,427C 180.514,427.499 176.514,427.666 172.5,427.5C 172.5,419.833 172.5,412.167 172.5,404.5 Z"/></g>
<g><path style="opacity:1" fill="#039092" d="M 235.5,404.5 C 249.814,401.465 261.98,405.132 272,415.5C 278.593,424.973 280.259,435.306 277,446.5C 272.833,456.835 265.333,463.335 254.5,466C 248.175,466.5 241.842,466.666 235.5,466.5C 235.5,445.833 235.5,425.167 235.5,404.5 Z"/></g>
</svg>
