<?xml version="1.0" encoding="UTF-8"?>
<!DOCTYPE svg PUBLIC "-//W3C//DTD SVG 1.1//EN" "http://www.w3.org/Graphics/SVG/1.1/DTD/svg11.dtd">
<svg xmlns="http://www.w3.org/2000/svg" version="1.1" width="533px" height="533px" style="shape-rendering:geometricPrecision; text-rendering:geometricPrecision; image-rendering:optimizeQuality; fill-rule:evenodd; clip-rule:evenodd" xmlns:xlink="http://www.w3.org/1999/xlink">
<g><path style="opacity:0.994" fill="#009092" d="M 71.5,-0.5 C 146.167,-0.5 220.833,-0.5 295.5,-0.5C 296.209,0.403972 297.209,0.737305 298.5,0.5C 298.586,55.5195 299.42,110.519 301,165.5C 303.674,167.871 306.841,169.037 310.5,169C 359.833,169.333 409.167,169.667 458.5,170C 461.758,170.212 464.924,170.712 468,171.5C 469.601,287.493 469.935,403.493 469,519.5C 469.533,525.788 467.033,530.121 461.5,532.5C 331.167,532.5 200.833,532.5 70.5,532.5C 67.6603,531.314 65.4936,529.314 64,526.5C 62.8869,439.84 62.3869,353.173 62.5,266.5C 62.3869,179.827 62.8869,93.1603 64,6.5C 65.7668,3.22804 68.2668,0.894709 71.5,-0.5 Z"/></g>
<g><path style="opacity:0.97" fill="#009091" d="M 318.5,10.5 C 323.048,12.1072 327.381,14.2739 331.5,17C 382.534,51.8656 424.534,95.3656 457.5,147.5C 448.184,148.332 438.851,148.832 429.5,149C 392.502,149.5 355.502,149.667 318.5,149.5C 318.5,103.167 318.5,56.8333 318.5,10.5 Z"/></g>
<g><path style="opacity:1" fill="#fefefe" d="M 259.5,187.5 C 284.192,186.378 300.692,197.378 309,220.5C 312.08,236.913 308.08,251.246 297,263.5C 290.808,275.747 284.808,288.08 279,300.5C 274.993,314.824 280.16,320.324 294.5,317C 305.833,311.667 317.167,306.333 328.5,301C 345.967,283.86 365.634,280.86 387.5,292C 409.588,309.777 413.421,330.943 399,355.5C 385.09,371.69 367.924,376.523 347.5,370C 341.323,367.081 335.656,363.414 330.5,359C 317.716,352.606 304.716,346.773 291.5,341.5C 280.485,338.683 276.319,342.683 279,353.5C 288.296,373.411 297.962,393.077 308,412.5C 313.889,437.219 305.723,455.385 283.5,467C 256.962,475.477 237.462,467.311 225,442.5C 221.709,431.819 221.709,421.153 225,410.5C 235.178,391.477 244.845,372.143 254,352.5C 255.664,343.834 252.164,340 243.5,341C 223.433,349.867 203.767,359.533 184.5,370C 164.561,376.906 147.728,372.406 134,356.5C 118.066,330.749 122.233,308.916 146.5,291C 157.3,285.434 168.633,284.101 180.5,287C 200.86,297.513 221.527,307.513 242.5,317C 250.222,319.588 254.555,316.921 255.5,309C 255.129,306.144 254.629,303.311 254,300.5C 247.808,288.253 241.808,275.92 236,263.5C 223.039,249.703 219.372,233.703 225,215.5C 231.715,200.084 243.215,190.751 259.5,187.5 Z"/></g>
</svg>
